<?xml version="1.0" encoding="utf-8" standalone="no"?>
<!DOCTYPE svg PUBLIC "-//W3C//DTD SVG 1.1//EN"
  "http://www.w3.org/Graphics/SVG/1.1/DTD/svg11.dtd">
<svg xmlns:xlink="http://www.w3.org/1999/xlink" width="460.8pt" height="345.6pt" viewBox="0 0 460.8 345.6" xmlns="http://www.w3.org/2000/svg" version="1.1">
 <metadata>
  <rdf:RDF xmlns:dc="http://purl.org/dc/elements/1.1/" xmlns:cc="http://creativecommons.org/ns#" xmlns:rdf="http://www.w3.org/1999/02/22-rdf-syntax-ns#">
   <cc:Work>
    <dc:type rdf:resource="http://purl.org/dc/dcmitype/StillImage"/>
    <dc:date>2022-07-12T15:50:51.096573</dc:date>
    <dc:format>image/svg+xml</dc:format>
    <dc:creator>
     <cc:Agent>
      <dc:title>Matplotlib v3.5.1, https://matplotlib.org/</dc:title>
     </cc:Agent>
    </dc:creator>
   </cc:Work>
  </rdf:RDF>
 </metadata>
 <defs>
  <style type="text/css">*{stroke-linejoin: round; stroke-linecap: butt}</style>
 </defs>
 <g id="figure_1">
  <g id="patch_1">
   <path d="M 0 345.6 
L 460.8 345.6 
L 460.8 0 
L 0 0 
z
" style="fill: #ffffff"/>
  </g>
  <g id="patch_2">
   <path d="M 57.6 345.6 
L 403.2 345.6 
L 403.2 0 
L 57.6 0 
z
" style="fill: #ffffff"/>
  </g>
  <g id="pane3d_1">
   <g id="patch_3">
    <path d="M 173.321872 245.615812 
L 372.696612 248.662404 
L 372.696612 87.597056 
L 173.321872 90.643647 
" style="fill: #f2f2f2; opacity: 0.5; stroke: #f2f2f2; stroke-linejoin: miter"/>
   </g>
  </g>
  <g id="pane3d_2">
   <g id="patch_4">
    <path d="M 173.321872 245.615812 
L 87.290391 254.603792 
L 87.290391 81.655667 
L 173.321872 90.643647 
" style="fill: #e6e6e6; opacity: 0.5; stroke: #e6e6e6; stroke-linejoin: miter"/>
   </g>
  </g>
  <g id="pane3d_3">
   <g id="patch_5">
    <path d="M 173.321872 245.615812 
L 87.290391 254.603792 
L 307.018726 258.415537 
L 372.696612 248.662404 
" style="fill: #ececec; opacity: 0.5; stroke: #ececec; stroke-linejoin: miter"/>
   </g>
  </g>
  <g id="axis3d_1">
   <g id="line2d_1">
    <path d="M 372.696612 248.662404 
L 307.018726 258.415537 
" style="fill: none; stroke: #000000; stroke-width: 0.8; stroke-linecap: square"/>
   </g>
   <g id="text_1">
    <!-- x -->
    <g transform="translate(368.582517 281.524618)scale(0.16 -0.16)">
     <defs>
      <path id="CMSS17-78" d="M 1587 1414 
L 2656 2739 
L 2099 2739 
L 1363 1777 
L 602 2739 
L 32 2739 
L 1139 1414 
L 0 0 
L 563 0 
L 1363 1121 
L 2195 0 
L 2758 0 
L 1587 1414 
z
" transform="scale(0.015625)"/>
     </defs>
     <use xlink:href="#CMSS17-78" transform="scale(0.996264)"/>
    </g>
   </g>
   <g id="Line3DCollection_1">
    <path d="M 371.522414 248.836771 
L 171.77687 245.777223 
L 171.77687 90.482236 
" style="fill: none; stroke: #b0b0b0; stroke-width: 0.8"/>
    <path d="M 359.985919 250.549935 
L 156.610667 247.361684 
L 156.610667 88.897775 
" style="fill: none; stroke: #b0b0b0; stroke-width: 0.8"/>
    <path d="M 347.949032 252.337407 
L 140.812612 249.012157 
L 140.812612 87.247302 
" style="fill: none; stroke: #b0b0b0; stroke-width: 0.8"/>
    <path d="M 335.378476 254.204128 
L 124.34238 250.732854 
L 124.34238 85.526605 
" style="fill: none; stroke: #b0b0b0; stroke-width: 0.8"/>
    <path d="M 322.237956 256.155489 
L 107.156139 252.528355 
L 107.156139 83.731105 
" style="fill: none; stroke: #b0b0b0; stroke-width: 0.8"/>
    <path d="M 308.487808 258.197379 
L 89.20616 254.403646 
L 89.20616 81.855814 
" style="fill: none; stroke: #b0b0b0; stroke-width: 0.8"/>
   </g>
   <g id="xtick_1">
    <g id="line2d_2">
     <path d="M 369.862009 248.811339 
L 374.846368 248.887685 
" style="fill: none; stroke: #000000; stroke-width: 0.8; stroke-linecap: square"/>
    </g>
    <g id="text_2">
     <!-- $\mathdefault{0}$ -->
     <g transform="translate(382.329587 266.297549)scale(0.1 -0.1)">
      <defs>
       <path id="CMR17-30" d="M 2688 2025 
C 2688 2416 2682 3080 2413 3591 
C 2176 4039 1798 4198 1466 4198 
C 1158 4198 768 4058 525 3597 
C 269 3118 243 2524 243 2025 
C 243 1661 250 1106 448 619 
C 723 -39 1216 -128 1466 -128 
C 1760 -128 2208 -7 2470 600 
C 2662 1042 2688 1559 2688 2025 
z
M 1466 -26 
C 1056 -26 813 325 723 812 
C 653 1188 653 1738 653 2096 
C 653 2588 653 2997 736 3387 
C 858 3929 1216 4096 1466 4096 
C 1728 4096 2067 3923 2189 3400 
C 2272 3036 2278 2607 2278 2096 
C 2278 1680 2278 1169 2202 792 
C 2067 95 1690 -26 1466 -26 
z
" transform="scale(0.015625)"/>
      </defs>
      <use xlink:href="#CMR17-30" transform="scale(0.996264)"/>
     </g>
    </g>
   </g>
   <g id="xtick_2">
    <g id="line2d_3">
     <path d="M 358.293992 250.523411 
L 363.373043 250.603034 
" style="fill: none; stroke: #000000; stroke-width: 0.8; stroke-linecap: square"/>
    </g>
    <g id="text_3">
     <!-- $\mathdefault{1}$ -->
     <g transform="translate(371.046356 268.239485)scale(0.1 -0.1)">
      <defs>
       <path id="CMR17-31" d="M 1702 4058 
C 1702 4192 1696 4192 1606 4192 
C 1357 3916 979 3827 621 3827 
C 602 3827 570 3827 563 3808 
C 557 3795 557 3782 557 3648 
C 755 3648 1088 3686 1344 3839 
L 1344 461 
C 1344 236 1331 160 781 160 
L 589 160 
L 589 0 
C 896 0 1216 0 1523 0 
C 1830 0 2150 0 2458 0 
L 2458 160 
L 2266 160 
C 1715 160 1702 230 1702 458 
L 1702 4058 
z
" transform="scale(0.015625)"/>
      </defs>
      <use xlink:href="#CMR17-31" transform="scale(0.996264)"/>
     </g>
    </g>
   </g>
   <g id="xtick_3">
    <g id="line2d_4">
     <path d="M 346.224381 252.30972 
L 351.401739 252.392835 
" style="fill: none; stroke: #000000; stroke-width: 0.8; stroke-linecap: square"/>
    </g>
    <g id="text_4">
     <!-- $\mathdefault{2}$ -->
     <g transform="translate(359.272431 270.265875)scale(0.1 -0.1)">
      <defs>
       <path id="CMR17-32" d="M 2669 989 
L 2554 989 
C 2490 536 2438 459 2413 420 
C 2381 369 1920 369 1830 369 
L 602 369 
C 832 619 1280 1072 1824 1597 
C 2214 1967 2669 2402 2669 3035 
C 2669 3790 2067 4224 1395 4224 
C 691 4224 262 3604 262 3030 
C 262 2780 448 2748 525 2748 
C 589 2748 781 2787 781 3010 
C 781 3207 614 3264 525 3264 
C 486 3264 448 3258 422 3245 
C 544 3790 915 4058 1306 4058 
C 1862 4058 2227 3617 2227 3035 
C 2227 2479 1901 2000 1536 1584 
L 262 146 
L 262 0 
L 2515 0 
L 2669 989 
z
" transform="scale(0.015625)"/>
      </defs>
      <use xlink:href="#CMR17-32" transform="scale(0.996264)"/>
     </g>
    </g>
   </g>
   <g id="xtick_4">
    <g id="line2d_5">
     <path d="M 333.619831 254.1752 
L 338.899317 254.262041 
" style="fill: none; stroke: #000000; stroke-width: 0.8; stroke-linecap: square"/>
    </g>
    <g id="text_5">
     <!-- $\mathdefault{3}$ -->
     <g transform="translate(346.97509 272.382348)scale(0.1 -0.1)">
      <defs>
       <path id="CMR17-33" d="M 1414 2157 
C 1984 2157 2234 1662 2234 1090 
C 2234 320 1824 25 1453 25 
C 1114 25 563 194 390 693 
C 422 680 454 680 486 680 
C 640 680 755 782 755 948 
C 755 1133 614 1216 486 1216 
C 378 1216 211 1165 211 926 
C 211 335 787 -128 1466 -128 
C 2176 -128 2720 430 2720 1085 
C 2720 1707 2208 2157 1600 2227 
C 2086 2328 2554 2756 2554 3329 
C 2554 3820 2048 4179 1472 4179 
C 890 4179 378 3829 378 3329 
C 378 3110 544 3072 627 3072 
C 762 3072 877 3155 877 3321 
C 877 3486 762 3569 627 3569 
C 602 3569 570 3569 544 3557 
C 730 3959 1235 4032 1459 4032 
C 1683 4032 2106 3925 2106 3320 
C 2106 3143 2080 2828 1862 2550 
C 1670 2304 1453 2304 1242 2284 
C 1210 2284 1062 2269 1037 2269 
C 992 2263 966 2257 966 2208 
C 966 2163 973 2157 1101 2157 
L 1414 2157 
z
" transform="scale(0.015625)"/>
      </defs>
      <use xlink:href="#CMR17-33" transform="scale(0.996264)"/>
     </g>
    </g>
   </g>
   <g id="xtick_5">
    <g id="line2d_6">
     <path d="M 320.443971 256.125235 
L 325.829629 256.216058 
" style="fill: none; stroke: #000000; stroke-width: 0.8; stroke-linecap: square"/>
    </g>
    <g id="text_6">
     <!-- $\mathdefault{4}$ -->
     <g transform="translate(334.118637 274.595049)scale(0.1 -0.1)">
      <defs>
       <path id="CMR17-34" d="M 2150 4122 
C 2150 4256 2144 4256 2029 4256 
L 128 1254 
L 128 1088 
L 1779 1088 
L 1779 457 
C 1779 224 1766 160 1318 160 
L 1197 160 
L 1197 0 
C 1402 0 1747 0 1965 0 
C 2182 0 2528 0 2733 0 
L 2733 160 
L 2611 160 
C 2163 160 2150 224 2150 457 
L 2150 1088 
L 2803 1088 
L 2803 1254 
L 2150 1254 
L 2150 4122 
z
M 1798 3703 
L 1798 1254 
L 256 1254 
L 1798 3703 
z
" transform="scale(0.015625)"/>
      </defs>
      <use xlink:href="#CMR17-34" transform="scale(0.996264)"/>
     </g>
    </g>
   </g>
   <g id="xtick_6">
    <g id="line2d_7">
     <path d="M 306.657058 258.165705 
L 312.153173 258.260792 
" style="fill: none; stroke: #000000; stroke-width: 0.8; stroke-linecap: square"/>
    </g>
    <g id="text_7">
     <!-- $\mathdefault{5}$ -->
     <g transform="translate(320.664054 276.910693)scale(0.1 -0.1)">
      <defs>
       <path id="CMR17-35" d="M 730 3692 
C 794 3666 1056 3584 1325 3584 
C 1920 3584 2246 3911 2432 4100 
C 2432 4157 2432 4192 2394 4192 
C 2387 4192 2374 4192 2323 4163 
C 2099 4058 1837 3973 1517 3973 
C 1325 3973 1037 3999 723 4139 
C 653 4171 640 4171 634 4171 
C 602 4171 595 4164 595 4037 
L 595 2203 
C 595 2089 595 2057 659 2057 
C 691 2057 704 2070 736 2114 
C 941 2401 1222 2522 1542 2522 
C 1766 2522 2246 2382 2246 1289 
C 2246 1085 2246 715 2054 421 
C 1894 159 1645 25 1370 25 
C 947 25 518 320 403 814 
C 429 807 480 795 506 795 
C 589 795 749 840 749 1038 
C 749 1210 627 1280 506 1280 
C 358 1280 262 1190 262 1011 
C 262 454 704 -128 1382 -128 
C 2042 -128 2669 440 2669 1264 
C 2669 2030 2170 2624 1549 2624 
C 1222 2624 947 2503 730 2274 
L 730 3692 
z
" transform="scale(0.015625)"/>
      </defs>
      <use xlink:href="#CMR17-35" transform="scale(0.996264)"/>
     </g>
    </g>
   </g>
  </g>
  <g id="axis3d_2">
   <g id="line2d_8">
    <path d="M 87.290391 254.603792 
L 307.018726 258.415537 
" style="fill: none; stroke: #000000; stroke-width: 0.8; stroke-linecap: square"/>
   </g>
   <g id="text_8">
    <!-- y -->
    <g transform="translate(179.163898 286.880986)scale(0.16 -0.16)">
     <defs>
      <path id="CMSS17-79" d="M 2675 2752 
L 2176 2752 
C 1632 1294 1446 702 1434 383 
L 1427 383 
C 1408 696 1126 1460 902 2007 
L 602 2752 
L 83 2752 
L 1216 13 
C 1146 -178 1043 -465 1011 -529 
C 870 -885 774 -885 672 -885 
C 646 -885 442 -885 211 -809 
L 250 -1229 
C 410 -1261 570 -1280 685 -1280 
C 845 -1280 1165 -1280 1459 -497 
L 2675 2752 
z
" transform="scale(0.015625)"/>
     </defs>
     <use xlink:href="#CMSS17-79" transform="scale(0.996264)"/>
    </g>
   </g>
   <g id="Line3DCollection_2">
    <path d="M 195.6725 90.302113 
L 195.6725 245.957346 
L 111.822933 255.029371 
" style="fill: none; stroke: #b0b0b0; stroke-width: 0.8"/>
    <path d="M 233.102773 89.730152 
L 233.102773 246.529308 
L 152.963485 255.743058 
" style="fill: none; stroke: #b0b0b0; stroke-width: 0.8"/>
    <path d="M 271.087276 89.149721 
L 271.087276 247.109739 
L 194.785389 256.468565 
" style="fill: none; stroke: #b0b0b0; stroke-width: 0.8"/>
    <path d="M 309.63841 88.560631 
L 309.63841 247.698828 
L 237.305712 257.206188 
" style="fill: none; stroke: #b0b0b0; stroke-width: 0.8"/>
    <path d="M 348.768949 87.962688 
L 348.768949 248.296771 
L 280.542097 257.956232 
" style="fill: none; stroke: #b0b0b0; stroke-width: 0.8"/>
   </g>
   <g id="xtick_7">
    <g id="line2d_9">
     <path d="M 112.571223 254.948411 
L 110.322157 255.191746 
" style="fill: none; stroke: #000000; stroke-width: 0.8; stroke-linecap: square"/>
    </g>
    <g id="text_9">
     <!-- $\mathdefault{−4}$ -->
     <g transform="translate(99.431509 273.787045)scale(0.1 -0.1)">
      <defs>
       <path id="CMSY10-0" d="M 4218 1472 
C 4326 1472 4442 1472 4442 1600 
C 4442 1728 4326 1728 4218 1728 
L 755 1728 
C 646 1728 531 1728 531 1600 
C 531 1472 646 1472 755 1472 
L 4218 1472 
z
" transform="scale(0.015625)"/>
      </defs>
      <use xlink:href="#CMSY10-0" transform="scale(0.996264)"/>
      <use xlink:href="#CMR17-34" transform="translate(77.487468 0)scale(0.996264)"/>
     </g>
    </g>
   </g>
   <g id="xtick_8">
    <g id="line2d_10">
     <path d="M 153.679272 255.660763 
L 151.527865 255.908114 
" style="fill: none; stroke: #000000; stroke-width: 0.8; stroke-linecap: square"/>
    </g>
    <g id="text_10">
     <!-- $\mathdefault{−2}$ -->
     <g transform="translate(140.83343 274.6041)scale(0.1 -0.1)">
      <use xlink:href="#CMSY10-0" transform="scale(0.996264)"/>
      <use xlink:href="#CMR17-32" transform="translate(77.487468 0)scale(0.996264)"/>
     </g>
    </g>
   </g>
   <g id="xtick_9">
    <g id="line2d_11">
     <path d="M 195.467489 256.384902 
L 193.417301 256.636368 
" style="fill: none; stroke: #000000; stroke-width: 0.8; stroke-linecap: square"/>
    </g>
    <g id="text_11">
     <!-- $\mathdefault{0}$ -->
     <g transform="translate(186.800635 275.434789)scale(0.1 -0.1)">
      <use xlink:href="#CMR17-30" transform="scale(0.996264)"/>
     </g>
    </g>
   </g>
   <g id="xtick_10">
    <g id="line2d_12">
     <path d="M 237.952897 257.121122 
L 236.007624 257.376808 
" style="fill: none; stroke: #000000; stroke-width: 0.8; stroke-linecap: square"/>
    </g>
    <g id="text_12">
     <!-- $\mathdefault{2}$ -->
     <g transform="translate(229.601819 276.279457)scale(0.1 -0.1)">
      <use xlink:href="#CMR17-32" transform="scale(0.996264)"/>
     </g>
    </g>
   </g>
   <g id="xtick_11">
    <g id="line2d_13">
     <path d="M 281.153089 257.869729 
L 279.316573 258.12974 
" style="fill: none; stroke: #000000; stroke-width: 0.8; stroke-linecap: square"/>
    </g>
    <g id="text_13">
     <!-- $\mathdefault{4}$ -->
     <g transform="translate(273.129386 277.13846)scale(0.1 -0.1)">
      <use xlink:href="#CMR17-34" transform="scale(0.996264)"/>
     </g>
    </g>
   </g>
  </g>
  <g id="axis3d_3">
   <g id="line2d_14">
    <path d="M 87.290391 254.603792 
L 87.290391 81.655667 
" style="fill: none; stroke: #000000; stroke-width: 0.8; stroke-linecap: square"/>
   </g>
   <g id="text_14">
    <!-- z -->
    <g transform="translate(40.900099 172.114786)scale(0.16 -0.16)">
     <defs>
      <path id="CMSS17-7a" d="M 2400 2502 
L 2400 2750 
L 250 2750 
L 250 2368 
L 1069 2368 
C 1146 2368 1222 2368 1299 2368 
L 1747 2368 
L 166 261 
L 166 0 
L 2419 0 
L 2419 395 
L 1549 395 
C 1472 395 1395 395 1318 395 
L 826 395 
L 2400 2502 
z
" transform="scale(0.015625)"/>
     </defs>
     <use xlink:href="#CMSS17-7a" transform="scale(0.996264)"/>
    </g>
   </g>
   <g id="Line3DCollection_3">
    <path d="M 87.290391 251.14483 
L 173.321872 242.516369 
L 372.696612 245.441097 
" style="fill: none; stroke: #b0b0b0; stroke-width: 0.8"/>
    <path d="M 87.290391 217.93879 
L 173.321872 212.761713 
L 372.696612 214.51655 
" style="fill: none; stroke: #b0b0b0; stroke-width: 0.8"/>
    <path d="M 87.290391 184.73275 
L 173.321872 183.007058 
L 372.696612 183.592003 
" style="fill: none; stroke: #b0b0b0; stroke-width: 0.8"/>
    <path d="M 87.290391 151.52671 
L 173.321872 153.252402 
L 372.696612 152.667456 
" style="fill: none; stroke: #b0b0b0; stroke-width: 0.8"/>
    <path d="M 87.290391 118.32067 
L 173.321872 123.497746 
L 372.696612 121.74291 
" style="fill: none; stroke: #b0b0b0; stroke-width: 0.8"/>
    <path d="M 87.290391 85.11463 
L 173.321872 93.743091 
L 372.696612 90.818363 
" style="fill: none; stroke: #b0b0b0; stroke-width: 0.8"/>
   </g>
   <g id="xtick_12">
    <g id="line2d_15">
     <path d="M 88.057764 251.067867 
L 85.751363 251.299185 
" style="fill: none; stroke: #000000; stroke-width: 0.8; stroke-linecap: square"/>
    </g>
    <g id="text_15">
     <!-- $\mathdefault{0}$ -->
     <g transform="translate(65.127457 258.456471)scale(0.1 -0.1)">
      <use xlink:href="#CMR17-30" transform="scale(0.996264)"/>
     </g>
    </g>
   </g>
   <g id="xtick_13">
    <g id="line2d_16">
     <path d="M 88.057764 217.892612 
L 85.751363 218.031403 
" style="fill: none; stroke: #000000; stroke-width: 0.8; stroke-linecap: square"/>
    </g>
    <g id="text_16">
     <!-- $\mathdefault{1}$ -->
     <g transform="translate(65.127457 225.093174)scale(0.1 -0.1)">
      <use xlink:href="#CMR17-31" transform="scale(0.996264)"/>
     </g>
    </g>
   </g>
   <g id="xtick_14">
    <g id="line2d_17">
     <path d="M 88.057764 184.717357 
L 85.751363 184.763621 
" style="fill: none; stroke: #000000; stroke-width: 0.8; stroke-linecap: square"/>
    </g>
    <g id="text_17">
     <!-- $\mathdefault{2}$ -->
     <g transform="translate(65.127457 191.729877)scale(0.1 -0.1)">
      <use xlink:href="#CMR17-32" transform="scale(0.996264)"/>
     </g>
    </g>
   </g>
   <g id="xtick_15">
    <g id="line2d_18">
     <path d="M 88.057764 151.542102 
L 85.751363 151.495839 
" style="fill: none; stroke: #000000; stroke-width: 0.8; stroke-linecap: square"/>
    </g>
    <g id="text_18">
     <!-- $\mathdefault{3}$ -->
     <g transform="translate(65.127457 158.36658)scale(0.1 -0.1)">
      <use xlink:href="#CMR17-33" transform="scale(0.996264)"/>
     </g>
    </g>
   </g>
   <g id="xtick_16">
    <g id="line2d_19">
     <path d="M 88.057764 118.366848 
L 85.751363 118.228056 
" style="fill: none; stroke: #000000; stroke-width: 0.8; stroke-linecap: square"/>
    </g>
    <g id="text_19">
     <!-- $\mathdefault{4}$ -->
     <g transform="translate(65.127457 125.003282)scale(0.1 -0.1)">
      <use xlink:href="#CMR17-34" transform="scale(0.996264)"/>
     </g>
    </g>
   </g>
   <g id="xtick_17">
    <g id="line2d_20">
     <path d="M 88.057764 85.191593 
L 85.751363 84.960274 
" style="fill: none; stroke: #000000; stroke-width: 0.8; stroke-linecap: square"/>
    </g>
    <g id="text_20">
     <!-- $\mathdefault{5}$ -->
     <g transform="translate(65.127457 91.639985)scale(0.1 -0.1)">
      <use xlink:href="#CMR17-35" transform="scale(0.996264)"/>
     </g>
    </g>
   </g>
  </g>
  <g id="axes_1">
   <g id="line2d_21">
    <path d="M 269.720013 244.111532 
L 315.514792 89.675606 
" clip-path="url(#pd19b10c310)" style="fill: none; stroke: #ff0000; stroke-width: 1.5; stroke-linecap: square"/>
   </g>
   <g id="line2d_22">
    <path d="M 269.720013 244.111532 
L 202.84581 120.967845 
" clip-path="url(#pd19b10c310)" style="fill: none; stroke: #00ff00; stroke-width: 1.5; stroke-linecap: square"/>
   </g>
   <g id="line2d_23">
    <path d="M 269.720013 244.111532 
L 251.202596 -1 
" clip-path="url(#pd19b10c310)" style="fill: none; stroke: #0016ff; stroke-width: 1.5; stroke-linecap: square"/>
   </g>
   <g id="line2d_24">
    <path d="M 269.720013 244.111532 
L 134.13698 151.415889 
" clip-path="url(#pd19b10c310)" style="fill: none; stroke: #f400ff; stroke-width: 1.5; stroke-linecap: square"/>
   </g>
   <g id="Poly3DCollection_1">
    <path d="M 175.623253 354.625112 
L 168.149864 315.066445 
L 177.484989 304.01357 
L 184.87843 343.755208 
z
" clip-path="url(#pd19b10c310)" style="fill: #0000f5; fill-opacity: 0.1"/>
    <path d="M 184.87843 343.755208 
L 177.484989 304.01357 
L 186.854584 292.919883 
L 194.167438 332.845571 
z
" clip-path="url(#pd19b10c310)" style="fill: #0000f5; fill-opacity: 0.1"/>
    <path d="M 194.167438 332.845571 
L 186.854584 292.919883 
L 196.258839 281.785157 
L 203.490463 321.895981 
z
" clip-path="url(#pd19b10c310)" style="fill: #0000f5; fill-opacity: 0.1"/>
    <path d="M 203.490463 321.895981 
L 196.258839 281.785157 
L 205.697948 270.609165 
L 212.847693 310.90622 
z
" clip-path="url(#pd19b10c310)" style="fill: #0000f5; fill-opacity: 0.1"/>
    <path d="M 212.847693 310.90622 
L 205.697948 270.609165 
L 215.172104 259.391675 
L 222.239315 299.876066 
z
" clip-path="url(#pd19b10c310)" style="fill: #0000f5; fill-opacity: 0.1"/>
    <path d="M 222.239315 299.876066 
L 215.172104 259.391675 
L 224.681504 248.132458 
L 231.665519 288.805296 
z
" clip-path="url(#pd19b10c310)" style="fill: #0000f5; fill-opacity: 0.1"/>
    <path d="M 168.149864 315.066445 
L 160.523856 274.699926 
L 169.940281 263.458832 
L 177.484989 304.01357 
z
" clip-path="url(#pd19b10c310)" style="fill: #0000f5; fill-opacity: 0.1"/>
    <path d="M 231.665519 288.805296 
L 224.681504 248.132458 
L 234.226343 236.831279 
L 241.126498 277.693684 
z
" clip-path="url(#pd19b10c310)" style="fill: #0000f5; fill-opacity: 0.1"/>
    <path d="M 177.484989 304.01357 
L 169.940281 263.458832 
L 179.391832 252.175807 
L 186.854584 292.919883 
z
" clip-path="url(#pd19b10c310)" style="fill: #0000f5; fill-opacity: 0.1"/>
    <path d="M 241.126498 277.693684 
L 234.226343 236.831279 
L 243.806822 225.487903 
L 250.622443 266.541006 
z
" clip-path="url(#pd19b10c310)" style="fill: #0000f5; fill-opacity: 0.1"/>
    <path d="M 186.854584 292.919883 
L 179.391832 252.175807 
L 188.878705 240.850613 
L 196.258839 281.785157 
z
" clip-path="url(#pd19b10c310)" style="fill: #0000f5; fill-opacity: 0.1"/>
    <path d="M 250.622443 266.541006 
L 243.806822 225.487903 
L 253.423138 214.102095 
L 260.15355 255.347032 
z
" clip-path="url(#pd19b10c310)" style="fill: #0000f5; fill-opacity: 0.1"/>
    <path d="M 196.258839 281.785157 
L 188.878705 240.850613 
L 198.4011 229.483015 
L 205.697948 270.609165 
z
" clip-path="url(#pd19b10c310)" style="fill: #0000f5; fill-opacity: 0.1"/>
    <path d="M 260.15355 255.347032 
L 253.423138 214.102095 
L 263.075495 202.673614 
L 269.720013 244.111532 
z
" clip-path="url(#pd19b10c310)" style="fill: #0000f5; fill-opacity: 0.1"/>
    <path d="M 205.697948 270.609165 
L 198.4011 229.483015 
L 207.959216 218.072774 
L 215.172104 259.391675 
z
" clip-path="url(#pd19b10c310)" style="fill: #0000f5; fill-opacity: 0.1"/>
    <path d="M 269.720013 244.111532 
L 263.075495 202.673614 
L 272.764095 191.202222 
L 279.32203 232.834276 
z
" clip-path="url(#pd19b10c310)" style="fill: #0000f5; fill-opacity: 0.1"/>
    <path d="M 215.172104 259.391675 
L 207.959216 218.072774 
L 217.553255 206.619649 
L 224.681504 248.132458 
z
" clip-path="url(#pd19b10c310)" style="fill: #0000f5; fill-opacity: 0.1"/>
    <path d="M 160.523856 274.699926 
L 152.740507 233.500552 
L 162.239616 222.065783 
L 169.940281 263.458832 
z
" clip-path="url(#pd19b10c310)" style="fill: #0000f5; fill-opacity: 0.1"/>
    <path d="M 279.32203 232.834276 
L 272.764095 191.202222 
L 282.489143 179.687675 
L 288.959799 221.51503 
z
" clip-path="url(#pd19b10c310)" style="fill: #0000f5; fill-opacity: 0.1"/>
    <path d="M 224.681504 248.132458 
L 217.553255 206.619649 
L 227.183419 195.123399 
L 234.226343 236.831279 
z
" clip-path="url(#pd19b10c310)" style="fill: #0000f5; fill-opacity: 0.1"/>
    <path d="M 169.940281 263.458832 
L 162.239616 222.065783 
L 171.774526 210.587918 
L 179.391832 252.175807 
z
" clip-path="url(#pd19b10c310)" style="fill: #0000f5; fill-opacity: 0.1"/>
    <path d="M 288.959799 221.51503 
L 282.489143 179.687675 
L 292.250844 168.12973 
L 298.633521 210.153559 
z
" clip-path="url(#pd19b10c310)" style="fill: #0000f5; fill-opacity: 0.1"/>
    <path d="M 234.226343 236.831279 
L 227.183419 195.123399 
L 236.849913 183.583779 
L 243.806822 225.487903 
z
" clip-path="url(#pd19b10c310)" style="fill: #0000f5; fill-opacity: 0.1"/>
    <path d="M 179.391832 252.175807 
L 171.774526 210.587918 
L 181.34544 199.066712 
L 188.878705 240.850613 
z
" clip-path="url(#pd19b10c310)" style="fill: #0000f5; fill-opacity: 0.1"/>
    <path d="M 298.633521 210.153559 
L 292.250844 168.12973 
L 302.049407 156.528141 
L 308.343396 198.749626 
z
" clip-path="url(#pd19b10c310)" style="fill: #0000f5; fill-opacity: 0.1"/>
    <path d="M 243.806822 225.487903 
L 236.849913 183.583779 
L 246.552943 172.000543 
L 253.423138 214.102095 
z
" clip-path="url(#pd19b10c310)" style="fill: #0000f5; fill-opacity: 0.1"/>
    <path d="M 188.878705 240.850613 
L 181.34544 199.066712 
L 190.952563 187.501918 
L 198.4011 229.483015 
z
" clip-path="url(#pd19b10c310)" style="fill: #0000f5; fill-opacity: 0.1"/>
    <path d="M 308.343396 198.749626 
L 302.049407 156.528141 
L 311.88504 144.88266 
L 318.089629 187.302994 
z
" clip-path="url(#pd19b10c310)" style="fill: #0000f5; fill-opacity: 0.1"/>
    <path d="M 253.423138 214.102095 
L 246.552943 172.000543 
L 256.292717 160.373444 
L 263.075495 202.673614 
z
" clip-path="url(#pd19b10c310)" style="fill: #0000f5; fill-opacity: 0.1"/>
    <path d="M 198.4011 229.483015 
L 190.952563 187.501918 
L 200.5961 175.893291 
L 207.959216 218.072774 
z
" clip-path="url(#pd19b10c310)" style="fill: #0000f5; fill-opacity: 0.1"/>
    <path d="M 318.089629 187.302994 
L 311.88504 144.88266 
L 321.757954 133.193037 
L 327.872423 175.81342 
z
" clip-path="url(#pd19b10c310)" style="fill: #0000f5; fill-opacity: 0.1"/>
    <path d="M 263.075495 202.673614 
L 256.292717 160.373444 
L 266.069443 148.702232 
L 272.764095 191.202222 
z
" clip-path="url(#pd19b10c310)" style="fill: #0000f5; fill-opacity: 0.1"/>
    <path d="M 207.959216 218.072774 
L 200.5961 175.893291 
L 210.276259 164.240579 
L 217.553255 206.619649 
z
" clip-path="url(#pd19b10c310)" style="fill: #0000f5; fill-opacity: 0.1"/>
    <path d="M 327.872423 175.81342 
L 321.757954 133.193037 
L 331.668362 121.459022 
L 337.691985 164.280665 
z
" clip-path="url(#pd19b10c310)" style="fill: #0000f5; fill-opacity: 0.1"/>
    <path d="M 152.740507 233.500552 
L 144.794895 191.44228 
L 154.378106 179.808159 
L 162.239616 222.065783 
z
" clip-path="url(#pd19b10c310)" style="fill: #0000f5; fill-opacity: 0.1"/>
    <path d="M 272.764095 191.202222 
L 266.069443 148.702232 
L 275.883332 136.986656 
L 282.489143 179.687675 
z
" clip-path="url(#pd19b10c310)" style="fill: #0000f5; fill-opacity: 0.1"/>
    <path d="M 217.553255 206.619649 
L 210.276259 164.240579 
L 219.993249 152.543531 
L 227.183419 195.123399 
z
" clip-path="url(#pd19b10c310)" style="fill: #0000f5; fill-opacity: 0.1"/>
    <path d="M 337.691985 164.280665 
L 331.668362 121.459022 
L 341.616477 109.680361 
L 347.548522 152.704483 
z
" clip-path="url(#pd19b10c310)" style="fill: #0000f5; fill-opacity: 0.1"/>
    <path d="M 162.239616 222.065783 
L 154.378106 179.808159 
L 163.997814 168.12973 
L 171.774526 210.587918 
z
" clip-path="url(#pd19b10c310)" style="fill: #0000f5; fill-opacity: 0.1"/>
    <path d="M 282.489143 179.687675 
L 275.883332 136.986656 
L 285.734597 125.226461 
L 292.250844 168.12973 
z
" clip-path="url(#pd19b10c310)" style="fill: #0000f5; fill-opacity: 0.1"/>
    <path d="M 227.183419 195.123399 
L 219.993249 152.543531 
L 229.74728 140.801893 
L 236.849913 183.583779 
z
" clip-path="url(#pd19b10c310)" style="fill: #0000f5; fill-opacity: 0.1"/>
    <path d="M 347.548522 152.704483 
L 341.616477 109.680361 
L 351.602516 97.856799 
L 357.442244 141.084629 
z
" clip-path="url(#pd19b10c310)" style="fill: #0000f5; fill-opacity: 0.1"/>
    <path d="M 171.774526 210.587918 
L 163.997814 168.12973 
L 173.654227 156.40674 
L 181.34544 199.066712 
z
" clip-path="url(#pd19b10c310)" style="fill: #0000f5; fill-opacity: 0.1"/>
    <path d="M 292.250844 168.12973 
L 285.734597 125.226461 
L 295.623451 113.421393 
L 302.049407 156.528141 
z
" clip-path="url(#pd19b10c310)" style="fill: #0000f5; fill-opacity: 0.1"/>
    <path d="M 236.849913 183.583779 
L 229.74728 140.801893 
L 239.538564 129.015411 
L 246.552943 172.000543 
z
" clip-path="url(#pd19b10c310)" style="fill: #0000f5; fill-opacity: 0.1"/>
    <path d="M 181.34544 199.066712 
L 173.654227 156.40674 
L 183.347556 144.638935 
L 190.952563 187.501918 
z
" clip-path="url(#pd19b10c310)" style="fill: #0000f5; fill-opacity: 0.1"/>
    <path d="M 302.049407 156.528141 
L 295.623451 113.421393 
L 305.55011 101.571195 
L 311.88504 144.88266 
z
" clip-path="url(#pd19b10c310)" style="fill: #0000f5; fill-opacity: 0.1"/>
    <path d="M 246.552943 172.000543 
L 239.538564 129.015411 
L 249.367317 117.183826 
L 256.292717 160.373444 
z
" clip-path="url(#pd19b10c310)" style="fill: #0000f5; fill-opacity: 0.1"/>
    <path d="M 190.952563 187.501918 
L 183.347556 144.638935 
L 193.078012 132.826056 
L 200.5961 175.893291 
z
" clip-path="url(#pd19b10c310)" style="fill: #0000f5; fill-opacity: 0.1"/>
    <path d="M 311.88504 144.88266 
L 305.55011 101.571195 
L 315.514792 89.675606 
L 321.757954 133.193037 
z
" clip-path="url(#pd19b10c310)" style="fill: #0000f5; fill-opacity: 0.1"/>
    <path d="M 256.292717 160.373444 
L 249.367317 117.183826 
L 259.233752 105.30688 
L 266.069443 148.702232 
z
" clip-path="url(#pd19b10c310)" style="fill: #0000f5; fill-opacity: 0.1"/>
    <path d="M 200.5961 175.893291 
L 193.078012 132.826056 
L 202.84581 120.967845 
L 210.276259 164.240579 
z
" clip-path="url(#pd19b10c310)" style="fill: #0000f5; fill-opacity: 0.1"/>
    <path d="M 321.757954 133.193037 
L 315.514792 89.675606 
L 325.517714 77.734366 
L 331.668362 121.459022 
z
" clip-path="url(#pd19b10c310)" style="fill: #0000f5; fill-opacity: 0.1"/>
    <path d="M 144.794895 191.44228 
L 136.681893 148.497969 
L 146.350661 136.658584 
L 154.378106 179.808159 
z
" clip-path="url(#pd19b10c310)" style="fill: #0000f5; fill-opacity: 0.1"/>
    <path d="M 266.069443 148.702232 
L 259.233752 105.30688 
L 269.138087 93.384311 
L 275.883332 136.986656 
z
" clip-path="url(#pd19b10c310)" style="fill: #0000f5; fill-opacity: 0.1"/>
    <path d="M 210.276259 164.240579 
L 202.84581 120.967845 
L 212.651164 109.064038 
L 219.993249 152.543531 
z
" clip-path="url(#pd19b10c310)" style="fill: #0000f5; fill-opacity: 0.1"/>
    <path d="M 331.668362 121.459022 
L 325.517714 77.734366 
L 335.559098 65.747212 
L 341.616477 109.680361 
z
" clip-path="url(#pd19b10c310)" style="fill: #0000f5; fill-opacity: 0.1"/>
    <path d="M 154.378106 179.808159 
L 146.350661 136.658584 
L 156.05664 124.773634 
L 163.997814 168.12973 
z
" clip-path="url(#pd19b10c310)" style="fill: #0000f5; fill-opacity: 0.1"/>
    <path d="M 275.883332 136.986656 
L 269.138087 93.384311 
L 279.080541 81.415855 
L 285.734597 125.226461 
z
" clip-path="url(#pd19b10c310)" style="fill: #0000f5; fill-opacity: 0.1"/>
    <path d="M 219.993249 152.543531 
L 212.651164 109.064038 
L 222.494293 97.114374 
L 229.74728 140.801893 
z
" clip-path="url(#pd19b10c310)" style="fill: #0000f5; fill-opacity: 0.1"/>
    <path d="M 341.616477 109.680361 
L 335.559098 65.747212 
L 345.639166 53.713878 
L 351.602516 97.856799 
z
" clip-path="url(#pd19b10c310)" style="fill: #0000f5; fill-opacity: 0.1"/>
    <path d="M 163.997814 168.12973 
L 156.05664 124.773634 
L 165.800046 112.842855 
L 173.654227 156.40674 
z
" clip-path="url(#pd19b10c310)" style="fill: #0000f5; fill-opacity: 0.1"/>
    <path d="M 285.734597 125.226461 
L 279.080541 81.415855 
L 289.061334 69.401248 
L 295.623451 113.421393 
z
" clip-path="url(#pd19b10c310)" style="fill: #0000f5; fill-opacity: 0.1"/>
    <path d="M 229.74728 140.801893 
L 222.494293 97.114374 
L 232.375414 85.118587 
L 239.538564 129.015411 
z
" clip-path="url(#pd19b10c310)" style="fill: #0000f5; fill-opacity: 0.1"/>
    <path d="M 173.654227 156.40674 
L 165.800046 112.842855 
L 175.581096 100.865982 
L 183.347556 144.638935 
z
" clip-path="url(#pd19b10c310)" style="fill: #0000f5; fill-opacity: 0.1"/>
    <path d="M 295.623451 113.421393 
L 289.061334 69.401248 
L 299.080689 57.340221 
L 305.55011 101.571195 
z
" clip-path="url(#pd19b10c310)" style="fill: #0000f5; fill-opacity: 0.1"/>
    <path d="M 239.538564 129.015411 
L 232.375414 85.118587 
L 242.294748 73.076409 
L 249.367317 117.183826 
z
" clip-path="url(#pd19b10c310)" style="fill: #0000f5; fill-opacity: 0.1"/>
    <path d="M 183.347556 144.638935 
L 175.581096 100.865982 
L 185.400008 88.842746 
L 193.078012 132.826056 
z
" clip-path="url(#pd19b10c310)" style="fill: #0000f5; fill-opacity: 0.1"/>
    <path d="M 305.55011 101.571195 
L 299.080689 57.340221 
L 309.138829 45.232505 
L 315.514792 89.675606 
z
" clip-path="url(#pd19b10c310)" style="fill: #0000f5; fill-opacity: 0.1"/>
    <path d="M 249.367317 117.183826 
L 242.294748 73.076409 
L 252.252517 60.98757 
L 259.233752 105.30688 
z
" clip-path="url(#pd19b10c310)" style="fill: #0000f5; fill-opacity: 0.1"/>
    <path d="M 193.078012 132.826056 
L 185.400008 88.842746 
L 195.257002 76.772879 
L 202.84581 120.967845 
z
" clip-path="url(#pd19b10c310)" style="fill: #0000f5; fill-opacity: 0.1"/>
    <path d="M 315.514792 89.675606 
L 309.138829 45.232505 
L 319.23598 33.077829 
L 325.517714 77.734366 
z
" clip-path="url(#pd19b10c310)" style="fill: #0000f5; fill-opacity: 0.1"/>
    <path d="M 136.681893 148.497969 
L 128.396155 104.63932 
L 138.15197 92.588519 
L 146.350661 136.658584 
z
" clip-path="url(#pd19b10c310)" style="fill: #0000f5; fill-opacity: 0.1"/>
    <path d="M 259.233752 105.30688 
L 252.252517 60.98757 
L 262.248945 48.851798 
L 269.138087 93.384311 
z
" clip-path="url(#pd19b10c310)" style="fill: #0000f5; fill-opacity: 0.1"/>
    <path d="M 202.84581 120.967845 
L 195.257002 76.772879 
L 205.152301 64.656107 
L 212.651164 109.064038 
z
" clip-path="url(#pd19b10c310)" style="fill: #0000f5; fill-opacity: 0.1"/>
    <path d="M 325.517714 77.734366 
L 319.23598 33.077829 
L 329.37237 20.875919 
L 335.559098 65.747212 
z
" clip-path="url(#pd19b10c310)" style="fill: #0000f5; fill-opacity: 0.1"/>
    <path d="M 146.350661 136.658584 
L 138.15197 92.588519 
L 147.945732 80.490844 
L 156.05664 124.773634 
z
" clip-path="url(#pd19b10c310)" style="fill: #0000f5; fill-opacity: 0.1"/>
    <path d="M 269.138087 93.384311 
L 262.248945 48.851798 
L 272.284258 36.668821 
L 279.080541 81.415855 
z
" clip-path="url(#pd19b10c310)" style="fill: #0000f5; fill-opacity: 0.1"/>
    <path d="M 212.651164 109.064038 
L 205.152301 64.656107 
L 215.086128 52.492158 
L 222.494293 97.114374 
z
" clip-path="url(#pd19b10c310)" style="fill: #0000f5; fill-opacity: 0.1"/>
    <path d="M 335.559098 65.747212 
L 329.37237 20.875919 
L 339.548228 8.626498 
L 345.639166 53.713878 
z
" clip-path="url(#pd19b10c310)" style="fill: #0000f5; fill-opacity: 0.1"/>
    <path d="M 156.05664 124.773634 
L 147.945732 80.490844 
L 157.777663 68.346019 
L 165.800046 112.842855 
z
" clip-path="url(#pd19b10c310)" style="fill: #0000f5; fill-opacity: 0.1"/>
    <path d="M 279.080541 81.415855 
L 272.284258 36.668821 
L 282.358682 24.438361 
L 289.061334 69.401248 
z
" clip-path="url(#pd19b10c310)" style="fill: #0000f5; fill-opacity: 0.1"/>
    <path d="M 222.494293 97.114374 
L 215.086128 52.492158 
L 225.058709 40.280756 
L 232.375414 85.118587 
z
" clip-path="url(#pd19b10c310)" style="fill: #0000f5; fill-opacity: 0.1"/>
    <path d="M 165.800046 112.842855 
L 157.777663 68.346019 
L 167.647988 56.15377 
L 175.581096 100.865982 
z
" clip-path="url(#pd19b10c310)" style="fill: #0000f5; fill-opacity: 0.1"/>
    <path d="M 289.061334 69.401248 
L 282.358682 24.438361 
L 292.472447 12.160142 
L 299.080689 57.340221 
z
" clip-path="url(#pd19b10c310)" style="fill: #0000f5; fill-opacity: 0.1"/>
    <path d="M 232.375414 85.118587 
L 225.058709 40.280756 
L 235.07027 28.021621 
L 242.294748 73.076409 
z
" clip-path="url(#pd19b10c310)" style="fill: #0000f5; fill-opacity: 0.1"/>
    <path d="M 175.581096 100.865982 
L 167.647988 56.15377 
L 177.556931 43.913818 
L 185.400008 88.842746 
z
" clip-path="url(#pd19b10c310)" style="fill: #0000f5; fill-opacity: 0.1"/>
    <path d="M 299.080689 57.340221 
L 292.472447 12.160142 
L 302.625784 -0.166119 
L 309.138829 45.232505 
z
" clip-path="url(#pd19b10c310)" style="fill: #0000f5; fill-opacity: 0.1"/>
    <path d="M 242.294748 73.076409 
L 235.07027 28.021621 
L 245.121042 15.714474 
L 252.252517 60.98757 
z
" clip-path="url(#pd19b10c310)" style="fill: #0000f5; fill-opacity: 0.1"/>
    <path d="M 185.400008 88.842746 
L 177.556931 43.913818 
L 187.50472 31.625881 
L 195.257002 76.772879 
z
" clip-path="url(#pd19b10c310)" style="fill: #0000f5; fill-opacity: 0.1"/>
    <path d="M 309.138829 45.232505 
L 302.625784 -0.166119 
L 312.818925 -12.540702 
L 319.23598 33.077829 
z
" clip-path="url(#pd19b10c310)" style="fill: #0000f5; fill-opacity: 0.1"/>
    <path d="M 128.396155 104.63932 
L 119.932106 59.83682 
L 129.776494 47.568192 
L 138.15197 92.588519 
z
" clip-path="url(#pd19b10c310)" style="fill: #0000f5; fill-opacity: 0.1"/>
    <path d="M 252.252517 60.98757 
L 245.121042 15.714474 
L 255.211253 3.359032 
L 262.248945 48.851798 
z
" clip-path="url(#pd19b10c310)" style="fill: #0000f5; fill-opacity: 0.1"/>
    <path d="M 195.257002 76.772879 
L 187.50472 31.625881 
L 197.491583 19.289678 
L 205.152301 64.656107 
z
" clip-path="url(#pd19b10c310)" style="fill: #0000f5; fill-opacity: 0.1"/>
    <path d="M 319.23598 33.077829 
L 312.818925 -12.540702 
L 323.052106 -24.963893 
L 329.37237 20.875919 
z
" clip-path="url(#pd19b10c310)" style="fill: #0000f5; fill-opacity: 0.1"/>
    <path d="M 138.15197 92.588519 
L 129.776494 47.568192 
L 139.659587 35.251326 
L 147.945732 80.490844 
z
" clip-path="url(#pd19b10c310)" style="fill: #0000f5; fill-opacity: 0.1"/>
    <path d="M 262.248945 48.851798 
L 255.211253 3.359032 
L 265.341139 -9.044989 
L 272.284258 36.668821 
z
" clip-path="url(#pd19b10c310)" style="fill: #0000f5; fill-opacity: 0.1"/>
    <path d="M 205.152301 64.656107 
L 197.491583 19.289678 
L 207.517751 6.904924 
L 215.086128 52.492158 
z
" clip-path="url(#pd19b10c310)" style="fill: #0000f5; fill-opacity: 0.1"/>
    <path d="M 329.37237 20.875919 
L 323.052106 -24.963893 
L 333.325561 -37.435979 
L 339.548228 8.626498 
z
" clip-path="url(#pd19b10c310)" style="fill: #0000f5; fill-opacity: 0.1"/>
    <path d="M 147.945732 80.490844 
L 139.659587 35.251326 
L 149.581615 22.885938 
L 157.777663 68.346019 
z
" clip-path="url(#pd19b10c310)" style="fill: #0000f5; fill-opacity: 0.1"/>
    <path d="M 272.284258 36.668821 
L 265.341139 -9.044989 
L 275.510932 -21.497878 
L 282.358682 24.438361 
z
" clip-path="url(#pd19b10c310)" style="fill: #0000f5; fill-opacity: 0.1"/>
    <path d="M 215.086128 52.492158 
L 207.517751 6.904924 
L 217.583458 -5.528668 
L 225.058709 40.280756 
z
" clip-path="url(#pd19b10c310)" style="fill: #0000f5; fill-opacity: 0.1"/>
    <path d="M 157.777663 68.346019 
L 149.581615 22.885938 
L 159.542809 10.471741 
L 167.647988 56.15377 
z
" clip-path="url(#pd19b10c310)" style="fill: #0000f5; fill-opacity: 0.1"/>
    <path d="M 282.358682 24.438361 
L 275.510932 -21.497878 
L 285.720868 -33.999923 
L 292.472447 12.160142 
z
" clip-path="url(#pd19b10c310)" style="fill: #0000f5; fill-opacity: 0.1"/>
    <path d="M 225.058709 40.280756 
L 217.583458 -5.528668 
L 227.688936 -18.011389 
L 235.07027 28.021621 
z
" clip-path="url(#pd19b10c310)" style="fill: #0000f5; fill-opacity: 0.1"/>
    <path d="M 167.647988 56.15377 
L 159.542809 10.471741 
L 169.5434 -1.991557 
L 177.556931 43.913818 
z
" clip-path="url(#pd19b10c310)" style="fill: #0000f5; fill-opacity: 0.1"/>
    <path d="M 292.472447 12.160142 
L 285.720868 -33.999923 
L 295.971187 -46.551415 
L 302.625784 -0.166119 
z
" clip-path="url(#pd19b10c310)" style="fill: #0000f5; fill-opacity: 0.1"/>
    <path d="M 235.07027 28.021621 
L 227.688936 -18.011389 
L 237.834422 -30.54353 
L 245.121042 15.714474 
z
" clip-path="url(#pd19b10c310)" style="fill: #0000f5; fill-opacity: 0.1"/>
    <path d="M 177.556931 43.913818 
L 169.5434 -1.991557 
L 179.583622 -14.504245 
L 187.50472 31.625881 
z
" clip-path="url(#pd19b10c310)" style="fill: #0000f5; fill-opacity: 0.1"/>
    <path d="M 302.625784 -0.166119 
L 295.971187 -46.551415 
L 306.262129 -59.15265 
L 312.818925 -12.540702 
z
" clip-path="url(#pd19b10c310)" style="fill: #0000f5; fill-opacity: 0.1"/>
    <path d="M 119.932106 59.83682 
L 111.283926 14.059667 
L 121.218453 1.566531 
L 129.776494 47.568192 
z
" clip-path="url(#pd19b10c310)" style="fill: #0000f5; fill-opacity: 0.1"/>
    <path d="M 245.121042 15.714474 
L 237.834422 -30.54353 
L 248.020154 -43.125384 
L 255.211253 3.359032 
z
" clip-path="url(#pd19b10c310)" style="fill: #0000f5; fill-opacity: 0.1"/>
    <path d="M 187.50472 31.625881 
L 179.583622 -14.504245 
L 189.663713 -27.066619 
L 197.491583 19.289678 
z
" clip-path="url(#pd19b10c310)" style="fill: #0000f5; fill-opacity: 0.1"/>
    <path d="M 312.818925 -12.540702 
L 306.262129 -59.15265 
L 316.593934 -71.803922 
L 323.052106 -24.963893 
z
" clip-path="url(#pd19b10c310)" style="fill: #0000f5; fill-opacity: 0.1"/>
    <path d="M 129.776494 47.568192 
L 121.218453 1.566531 
L 131.192466 -10.976262 
L 139.659587 35.251326 
z
" clip-path="url(#pd19b10c310)" style="fill: #0000f5; fill-opacity: 0.1"/>
    <path d="M 255.211253 3.359032 
L 248.020154 -43.125384 
L 258.246373 -55.757249 
L 265.341139 -9.044989 
z
" clip-path="url(#pd19b10c310)" style="fill: #0000f5; fill-opacity: 0.1"/>
    <path d="M 197.491583 19.289678 
L 189.663713 -27.066619 
L 199.783909 -39.678975 
L 207.517751 6.904924 
z
" clip-path="url(#pd19b10c310)" style="fill: #0000f5; fill-opacity: 0.1"/>
    <path d="M 323.052106 -24.963893 
L 316.593934 -71.803922 
L 326.966847 -84.505532 
L 333.325561 -37.435979 
z
" clip-path="url(#pd19b10c310)" style="fill: #0000f5; fill-opacity: 0.1"/>
    <path d="M 139.659587 35.251326 
L 131.192466 -10.976262 
L 141.206202 -23.569007 
L 149.581615 22.885938 
z
" clip-path="url(#pd19b10c310)" style="fill: #0000f5; fill-opacity: 0.1"/>
    <path d="M 265.341139 -9.044989 
L 258.246373 -55.757249 
L 268.513319 -68.439423 
L 275.510932 -21.497878 
z
" clip-path="url(#pd19b10c310)" style="fill: #0000f5; fill-opacity: 0.1"/>
    <path d="M 207.517751 6.904924 
L 199.783909 -39.678975 
L 209.94445 -52.341612 
L 217.583458 -5.528668 
z
" clip-path="url(#pd19b10c310)" style="fill: #0000f5; fill-opacity: 0.1"/>
    <path d="M 149.581615 22.885938 
L 141.206202 -23.569007 
L 151.259899 -36.212006 
L 159.542809 10.471741 
z
" clip-path="url(#pd19b10c310)" style="fill: #0000f5; fill-opacity: 0.1"/>
    <path d="M 275.510932 -21.497878 
L 268.513319 -68.439423 
L 278.821238 -81.172207 
L 285.720868 -33.999923 
z
" clip-path="url(#pd19b10c310)" style="fill: #0000f5; fill-opacity: 0.1"/>
    <path d="M 217.583458 -5.528668 
L 209.94445 -52.341612 
L 220.145579 -65.054831 
L 227.688936 -18.011389 
z
" clip-path="url(#pd19b10c310)" style="fill: #0000f5; fill-opacity: 0.1"/>
    <path d="M 159.542809 10.471741 
L 151.259899 -36.212006 
L 161.353796 -48.905558 
L 169.5434 -1.991557 
z
" clip-path="url(#pd19b10c310)" style="fill: #0000f5; fill-opacity: 0.1"/>
    <path d="M 285.720868 -33.999923 
L 278.821238 -81.172207 
L 289.170374 -93.955904 
L 295.971187 -46.551415 
z
" clip-path="url(#pd19b10c310)" style="fill: #0000f5; fill-opacity: 0.1"/>
    <path d="M 227.688936 -18.011389 
L 220.145579 -65.054831 
L 230.387539 -77.818936 
L 237.834422 -30.54353 
z
" clip-path="url(#pd19b10c310)" style="fill: #0000f5; fill-opacity: 0.1"/>
    <path d="M 169.5434 -1.991557 
L 161.353796 -48.905558 
L 171.488135 -61.649967 
L 179.583622 -14.504245 
z
" clip-path="url(#pd19b10c310)" style="fill: #0000f5; fill-opacity: 0.1"/>
    <path d="M 295.971187 -46.551415 
L 289.170374 -93.955904 
L 299.560975 -106.790822 
L 306.262129 -59.15265 
z
" clip-path="url(#pd19b10c310)" style="fill: #0000f5; fill-opacity: 0.1"/>
    <path d="M 111.283926 14.059667 
L 102.445542 -32.724291 
L 112.471812 -45.448902 
L 121.218453 1.566531 
z
" clip-path="url(#pd19b10c310)" style="fill: #0000f5; fill-opacity: 0.1"/>
    <path d="M 237.834422 -30.54353 
L 230.387539 -77.818936 
L 240.670576 -90.634233 
L 248.020154 -43.125384 
z
" clip-path="url(#pd19b10c310)" style="fill: #0000f5; fill-opacity: 0.1"/>
    <path d="M 179.583622 -14.504245 
L 171.488135 -61.649967 
L 181.663159 -74.44554 
L 189.663713 -27.066619 
z
" clip-path="url(#pd19b10c310)" style="fill: #0000f5; fill-opacity: 0.1"/>
    <path d="M 306.262129 -59.15265 
L 299.560975 -106.790822 
L 309.993292 -119.677267 
L 316.593934 -71.803922 
z
" clip-path="url(#pd19b10c310)" style="fill: #0000f5; fill-opacity: 0.1"/>
    <path d="M 121.218453 1.566531 
L 112.471812 -45.448902 
L 122.538374 -58.224648 
L 131.192466 -10.976262 
z
" clip-path="url(#pd19b10c310)" style="fill: #0000f5; fill-opacity: 0.1"/>
    <path d="M 248.020154 -43.125384 
L 240.670576 -90.634233 
L 250.994937 -103.501031 
L 258.246373 -55.757249 
z
" clip-path="url(#pd19b10c310)" style="fill: #0000f5; fill-opacity: 0.1"/>
    <path d="M 189.663713 -27.066619 
L 181.663159 -74.44554 
L 191.879114 -87.292586 
L 199.783909 -39.678975 
z
" clip-path="url(#pd19b10c310)" style="fill: #0000f5; fill-opacity: 0.1"/>
    <path d="M 316.593934 -71.803922 
L 309.993292 -119.677267 
L 320.467575 -132.615552 
L 326.966847 -84.505532 
z
" clip-path="url(#pd19b10c310)" style="fill: #0000f5; fill-opacity: 0.1"/>
    <path d="M 131.192466 -10.976262 
L 122.538374 -58.224648 
L 132.645471 -71.051838 
L 141.206202 -23.569007 
z
" clip-path="url(#pd19b10c310)" style="fill: #0000f5; fill-opacity: 0.1"/>
    <path d="M 258.246373 -55.757249 
L 250.994937 -103.501031 
L 261.360871 -116.41964 
L 268.513319 -68.439423 
z
" clip-path="url(#pd19b10c310)" style="fill: #0000f5; fill-opacity: 0.1"/>
    <path d="M 199.783909 -39.678975 
L 191.879114 -87.292586 
L 202.136247 -100.191415 
L 209.94445 -52.341612 
z
" clip-path="url(#pd19b10c310)" style="fill: #0000f5; fill-opacity: 0.1"/>
    <path d="M 141.206202 -23.569007 
L 132.645471 -71.051838 
L 142.793348 -83.930783 
L 151.259899 -36.212006 
z
" clip-path="url(#pd19b10c310)" style="fill: #0000f5; fill-opacity: 0.1"/>
    <path d="M 268.513319 -68.439423 
L 261.360871 -116.41964 
L 271.768632 -129.390374 
L 278.821238 -81.172207 
z
" clip-path="url(#pd19b10c310)" style="fill: #0000f5; fill-opacity: 0.1"/>
    <path d="M 209.94445 -52.341612 
L 202.136247 -100.191415 
L 212.434808 -113.142342 
L 220.145579 -65.054831 
z
" clip-path="url(#pd19b10c310)" style="fill: #0000f5; fill-opacity: 0.1"/>
    <path d="M 151.259899 -36.212006 
L 142.793348 -83.930783 
L 152.982252 -96.861797 
L 161.353796 -48.905558 
z
" clip-path="url(#pd19b10c310)" style="fill: #0000f5; fill-opacity: 0.1"/>
    <path d="M 278.821238 -81.172207 
L 271.768632 -129.390374 
L 282.218471 -142.41355 
L 289.170374 -93.955904 
z
" clip-path="url(#pd19b10c310)" style="fill: #0000f5; fill-opacity: 0.1"/>
    <path d="M 220.145579 -65.054831 
L 212.434808 -113.142342 
L 222.775049 -126.145683 
L 230.387539 -77.818936 
z
" clip-path="url(#pd19b10c310)" style="fill: #0000f5; fill-opacity: 0.1"/>
    <path d="M 161.353796 -48.905558 
L 152.982252 -96.861797 
L 163.212434 -109.845197 
L 171.488135 -61.649967 
z
" clip-path="url(#pd19b10c310)" style="fill: #0000f5; fill-opacity: 0.1"/>
    <path d="M 289.170374 -93.955904 
L 282.218471 -142.41355 
L 292.710645 -155.489486 
L 299.560975 -106.790822 
z
" clip-path="url(#pd19b10c310)" style="fill: #0000f5; fill-opacity: 0.1"/>
    <path d="M 230.387539 -77.818936 
L 222.775049 -126.145683 
L 233.157222 -139.201756 
L 240.670576 -90.634233 
z
" clip-path="url(#pd19b10c310)" style="fill: #0000f5; fill-opacity: 0.1"/>
    <path d="M 171.488135 -61.649967 
L 163.212434 -109.845197 
L 173.484143 -122.881301 
L 181.663159 -74.44554 
z
" clip-path="url(#pd19b10c310)" style="fill: #0000f5; fill-opacity: 0.1"/>
    <path d="M 299.560975 -106.790822 
L 292.710645 -155.489486 
L 303.245412 -168.618503 
L 309.993292 -119.677267 
z
" clip-path="url(#pd19b10c310)" style="fill: #0000f5; fill-opacity: 0.1"/>
    <path d="M 240.670576 -90.634233 
L 233.157222 -139.201756 
L 243.581584 -152.310883 
L 250.994937 -103.501031 
z
" clip-path="url(#pd19b10c310)" style="fill: #0000f5; fill-opacity: 0.1"/>
    <path d="M 181.663159 -74.44554 
L 173.484143 -122.881301 
L 183.797635 -135.970432 
L 191.879114 -87.292586 
z
" clip-path="url(#pd19b10c310)" style="fill: #0000f5; fill-opacity: 0.1"/>
    <path d="M 309.993292 -119.677267 
L 303.245412 -168.618503 
L 313.823031 -181.800925 
L 320.467575 -132.615552 
z
" clip-path="url(#pd19b10c310)" style="fill: #0000f5; fill-opacity: 0.1"/>
    <path d="M 250.994937 -103.501031 
L 243.581584 -152.310883 
L 254.048391 -165.473388 
L 261.360871 -116.41964 
z
" clip-path="url(#pd19b10c310)" style="fill: #0000f5; fill-opacity: 0.1"/>
    <path d="M 191.879114 -87.292586 
L 183.797635 -135.970432 
L 194.153163 -149.112913 
L 202.136247 -100.191415 
z
" clip-path="url(#pd19b10c310)" style="fill: #0000f5; fill-opacity: 0.1"/>
    <path d="M 261.360871 -116.41964 
L 254.048391 -165.473388 
L 264.557905 -178.689598 
L 271.768632 -129.390374 
z
" clip-path="url(#pd19b10c310)" style="fill: #0000f5; fill-opacity: 0.1"/>
    <path d="M 202.136247 -100.191415 
L 194.153163 -149.112913 
L 204.550986 -162.309071 
L 212.434808 -113.142342 
z
" clip-path="url(#pd19b10c310)" style="fill: #0000f5; fill-opacity: 0.1"/>
    <path d="M 271.768632 -129.390374 
L 264.557905 -178.689598 
L 275.110387 -191.959842 
L 282.218471 -142.41355 
z
" clip-path="url(#pd19b10c310)" style="fill: #0000f5; fill-opacity: 0.1"/>
    <path d="M 212.434808 -113.142342 
L 204.550986 -162.309071 
L 214.991363 -175.559235 
L 222.775049 -126.145683 
z
" clip-path="url(#pd19b10c310)" style="fill: #0000f5; fill-opacity: 0.1"/>
    <path d="M 282.218471 -142.41355 
L 275.110387 -191.959842 
L 285.7061 -205.284452 
L 292.710645 -155.489486 
z
" clip-path="url(#pd19b10c310)" style="fill: #0000f5; fill-opacity: 0.1"/>
    <path d="M 222.775049 -126.145683 
L 214.991363 -175.559235 
L 225.474556 -188.863739 
L 233.157222 -139.201756 
z
" clip-path="url(#pd19b10c310)" style="fill: #0000f5; fill-opacity: 0.1"/>
    <path d="M 292.710645 -155.489486 
L 285.7061 -205.284452 
L 296.345312 -218.663763 
L 303.245412 -168.618503 
z
" clip-path="url(#pd19b10c310)" style="fill: #0000f5; fill-opacity: 0.1"/>
    <path d="M 233.157222 -139.201756 
L 225.474556 -188.863739 
L 236.000829 -202.222917 
L 243.581584 -152.310883 
z
" clip-path="url(#pd19b10c310)" style="fill: #0000f5; fill-opacity: 0.1"/>
    <path d="M 303.245412 -168.618503 
L 296.345312 -218.663763 
L 307.02829 -232.098112 
L 313.823031 -181.800925 
z
" clip-path="url(#pd19b10c310)" style="fill: #0000f5; fill-opacity: 0.1"/>
    <path d="M 243.581584 -152.310883 
L 236.000829 -202.222917 
L 246.570448 -215.637106 
L 254.048391 -165.473388 
z
" clip-path="url(#pd19b10c310)" style="fill: #0000f5; fill-opacity: 0.1"/>
    <path d="M 254.048391 -165.473388 
L 246.570448 -215.637106 
L 257.183681 -229.106647 
L 264.557905 -178.689598 
z
" clip-path="url(#pd19b10c310)" style="fill: #0000f5; fill-opacity: 0.1"/>
    <path d="M 264.557905 -178.689598 
L 257.183681 -229.106647 
L 267.840799 -242.631884 
L 275.110387 -191.959842 
z
" clip-path="url(#pd19b10c310)" style="fill: #0000f5; fill-opacity: 0.1"/>
    <path d="M 275.110387 -191.959842 
L 267.840799 -242.631884 
L 278.542074 -256.213162 
L 285.7061 -205.284452 
z
" clip-path="url(#pd19b10c310)" style="fill: #0000f5; fill-opacity: 0.1"/>
    <path d="M 285.7061 -205.284452 
L 278.542074 -256.213162 
L 289.287783 -269.850831 
L 296.345312 -218.663763 
z
" clip-path="url(#pd19b10c310)" style="fill: #0000f5; fill-opacity: 0.1"/>
    <path d="M 296.345312 -218.663763 
L 289.287783 -269.850831 
L 300.078201 -283.545242 
L 307.02829 -232.098112 
z
" clip-path="url(#pd19b10c310)" style="fill: #0000f5; fill-opacity: 0.1"/>
   </g>
   <g id="legend_1">
    <g id="patch_6">
     <path d="M 357.840076 67.305115 
L 396.2 67.305115 
Q 398.2 67.305115 398.2 65.305115 
L 398.2 7 
Q 398.2 5 396.2 5 
L 357.840076 5 
Q 355.840076 5 355.840076 7 
L 355.840076 65.305115 
Q 355.840076 67.305115 357.840076 67.305115 
z
" style="fill: #ffffff; opacity: 0.8; stroke: #cccccc; stroke-linejoin: miter"/>
    </g>
    <g id="line2d_25">
     <path d="M 359.840076 12.5 
L 369.840076 12.5 
L 379.840076 12.5 
" style="fill: none; stroke: #ff0000; stroke-width: 1.5; stroke-linecap: square"/>
    </g>
    <g id="text_21">
     <!-- $\vec{a}$ -->
     <g transform="translate(387.840076 16)scale(0.1 -0.1)">
      <defs>
       <path id="CMMI12-7e" d="M 3424 3835 
C 3347 3764 3110 3540 3110 3451 
C 3110 3387 3168 3329 3232 3329 
C 3290 3329 3315 3368 3360 3432 
C 3514 3624 3686 3745 3834 3828 
C 3898 3867 3942 3886 3942 3956 
C 3942 4014 3891 4046 3853 4078 
C 3674 4200 3629 4372 3610 4449 
C 3590 4500 3571 4577 3482 4577 
C 3443 4577 3366 4552 3366 4456 
C 3366 4398 3405 4244 3526 4072 
L 1376 4072 
C 1267 4072 1158 4072 1158 3950 
C 1158 3835 1274 3835 1376 3835 
L 3424 3835 
z
" transform="scale(0.015625)"/>
       <path id="CMMI12-61" d="M 1926 760 
C 1894 651 1894 639 1805 517 
C 1664 338 1382 64 1082 64 
C 819 64 672 300 672 677 
C 672 1028 870 1743 992 2012 
C 1210 2459 1510 2689 1760 2689 
C 2182 2689 2266 2165 2266 2114 
C 2266 2108 2246 2024 2240 2012 
L 1926 760 
z
M 2336 2395 
C 2266 2561 2093 2816 1760 2816 
C 1037 2816 256 1884 256 939 
C 256 307 627 -64 1062 -64 
C 1414 -64 1715 211 1894 422 
C 1958 45 2259 -64 2451 -64 
C 2643 -64 2797 51 2912 281 
C 3014 498 3104 888 3104 913 
C 3104 945 3078 971 3040 971 
C 2982 971 2976 939 2950 843 
C 2854 466 2733 64 2470 64 
C 2285 64 2272 230 2272 358 
C 2272 505 2291 575 2349 824 
C 2394 984 2426 1124 2477 1309 
C 2714 2267 2771 2497 2771 2535 
C 2771 2625 2701 2695 2605 2695 
C 2400 2695 2349 2472 2336 2395 
z
" transform="scale(0.015625)"/>
      </defs>
      <use xlink:href="#CMMI12-7e" transform="scale(0.996264)"/>
      <use xlink:href="#CMMI12-61" transform="translate(6.445738 0)scale(0.996264)"/>
     </g>
    </g>
    <g id="line2d_26">
     <path d="M 359.840076 27.24679 
L 369.840076 27.24679 
L 379.840076 27.24679 
" style="fill: none; stroke: #00ff00; stroke-width: 1.5; stroke-linecap: square"/>
    </g>
    <g id="text_22">
     <!-- $\vec{b}$ -->
     <g transform="translate(387.840076 30.74679)scale(0.1 -0.1)">
      <defs>
       <path id="CMMI12-62" d="M 1478 4257 
C 1485 4283 1498 4321 1498 4352 
C 1498 4416 1434 4416 1421 4416 
C 1414 4416 1184 4393 1069 4377 
C 960 4377 864 4358 749 4358 
C 595 4345 550 4339 550 4224 
C 550 4160 614 4160 678 4160 
C 1005 4160 1005 4103 1005 4040 
C 1005 3996 954 3811 928 3696 
L 774 3085 
C 710 2831 346 1387 320 1272 
C 288 1114 288 1005 288 922 
C 288 274 653 -64 1069 -64 
C 1811 -64 2579 888 2579 1814 
C 2579 2401 2246 2816 1766 2816 
C 1434 2816 1133 2542 1011 2414 
L 1478 4257 
z
M 1075 64 
C 870 64 646 217 646 715 
C 646 926 666 1047 781 1494 
C 800 1577 902 1986 928 2069 
C 941 2120 1318 2689 1754 2689 
C 2035 2689 2163 2408 2163 2076 
C 2163 1769 1984 1047 1824 715 
C 1664 370 1370 64 1075 64 
z
" transform="scale(0.015625)"/>
      </defs>
      <use xlink:href="#CMMI12-7e" transform="translate(0 26.29016)scale(0.996264)"/>
      <use xlink:href="#CMMI12-62" transform="translate(11.311737 0)scale(0.996264)"/>
     </g>
    </g>
    <g id="line2d_27">
     <path d="M 359.840076 41.183968 
L 369.840076 41.183968 
L 379.840076 41.183968 
" style="fill: none; stroke: #0016ff; stroke-width: 1.5; stroke-linecap: square"/>
    </g>
    <g id="text_23">
     <!-- $\vec{c}$ -->
     <g transform="translate(387.840076 44.683968)scale(0.1 -0.1)">
      <defs>
       <path id="CMMI12-63" d="M 2502 2431 
C 2381 2431 2323 2431 2234 2355 
C 2195 2323 2125 2227 2125 2125 
C 2125 1997 2221 1920 2342 1920 
C 2496 1920 2669 2044 2669 2292 
C 2669 2588 2374 2816 1933 2816 
C 1094 2816 256 1903 256 996 
C 256 441 602 -64 1254 -64 
C 2125 -64 2675 622 2675 706 
C 2675 744 2637 776 2611 776 
C 2592 776 2586 770 2528 713 
C 2118 162 1510 64 1267 64 
C 826 64 685 446 685 764 
C 685 988 794 1605 1024 2039 
C 1190 2338 1536 2682 1939 2682 
C 2022 2682 2374 2682 2502 2431 
z
" transform="scale(0.015625)"/>
      </defs>
      <use xlink:href="#CMMI12-7e" transform="scale(0.996264)"/>
      <use xlink:href="#CMMI12-63" transform="translate(5.638615 0)scale(0.996264)"/>
     </g>
    </g>
    <g id="line2d_28">
     <path d="M 359.840076 57.867937 
L 369.840076 57.867937 
L 379.840076 57.867937 
" style="fill: none; stroke: #f400ff; stroke-width: 1.5; stroke-linecap: square"/>
    </g>
    <g id="text_24">
     <!-- $\vec{f}$ -->
     <g transform="translate(387.840076 61.367937)scale(0.1 -0.1)">
      <defs>
       <path id="CMMI12-66" d="M 2854 2566 
C 2982 2566 3034 2566 3034 2688 
C 3034 2752 2982 2752 2867 2752 
L 2349 2752 
C 2470 3429 2560 3897 2611 4107 
C 2650 4265 2784 4416 2950 4416 
C 3085 4416 3219 4358 3283 4298 
C 3034 4272 2957 4082 2957 3969 
C 2957 3837 3053 3759 3174 3759 
C 3302 3759 3494 3870 3494 4119 
C 3494 4393 3226 4544 2944 4544 
C 2669 4544 2400 4334 2272 4078 
C 2157 3848 2093 3611 1946 2752 
L 1517 2752 
C 1395 2752 1331 2752 1331 2637 
C 1331 2566 1370 2566 1498 2566 
L 1907 2566 
C 1792 1976 1530 542 1382 -137 
C 1274 -689 1178 -1152 858 -1152 
C 838 -1152 653 -1152 538 -1031 
C 864 -1005 864 -726 864 -720 
C 864 -593 768 -517 646 -517 
C 518 -517 326 -625 326 -867 
C 326 -1140 608 -1280 858 -1280 
C 1510 -1280 1779 -118 1850 199 
C 1965 688 2278 2376 2310 2566 
L 2854 2566 
z
" transform="scale(0.015625)"/>
      </defs>
      <use xlink:href="#CMMI12-7e" transform="translate(13.568792 26.29016)scale(0.996264)"/>
      <use xlink:href="#CMMI12-66" transform="scale(0.996264)"/>
     </g>
    </g>
   </g>
  </g>
 </g>
 <defs>
  <clipPath id="pd19b10c310">
   <rect x="57.6" y="0" width="345.6" height="345.6"/>
  </clipPath>
 </defs>
</svg>
