<?xml version="1.0" encoding="utf-8" standalone="no"?>
<!DOCTYPE svg PUBLIC "-//W3C//DTD SVG 1.1//EN"
  "http://www.w3.org/Graphics/SVG/1.1/DTD/svg11.dtd">
<svg xmlns:xlink="http://www.w3.org/1999/xlink" width="460.8pt" height="345.6pt" viewBox="0 0 460.8 345.6" xmlns="http://www.w3.org/2000/svg" version="1.1">
 <metadata>
  <rdf:RDF xmlns:dc="http://purl.org/dc/elements/1.1/" xmlns:cc="http://creativecommons.org/ns#" xmlns:rdf="http://www.w3.org/1999/02/22-rdf-syntax-ns#">
   <cc:Work>
    <dc:type rdf:resource="http://purl.org/dc/dcmitype/StillImage"/>
    <dc:date>2022-07-12T15:50:51.369181</dc:date>
    <dc:format>image/svg+xml</dc:format>
    <dc:creator>
     <cc:Agent>
      <dc:title>Matplotlib v3.5.1, https://matplotlib.org/</dc:title>
     </cc:Agent>
    </dc:creator>
   </cc:Work>
  </rdf:RDF>
 </metadata>
 <defs>
  <style type="text/css">*{stroke-linejoin: round; stroke-linecap: butt}</style>
 </defs>
 <g id="figure_1">
  <g id="patch_1">
   <path d="M 0 345.6 
L 460.8 345.6 
L 460.8 0 
L 0 0 
z
" style="fill: #ffffff"/>
  </g>
  <g id="patch_2">
   <path d="M 57.6 345.6 
L 403.2 345.6 
L 403.2 0 
L 57.6 0 
z
" style="fill: #ffffff"/>
  </g>
  <g id="pane3d_1">
   <g id="patch_3">
    <path d="M 182.820882 245.450882 
L 377.582372 249.085214 
L 377.582372 87.174246 
L 182.820882 90.808578 
" style="fill: #f2f2f2; opacity: 0.5; stroke: #f2f2f2; stroke-linejoin: miter"/>
   </g>
  </g>
  <g id="pane3d_2">
   <g id="patch_4">
    <path d="M 182.820882 245.450882 
L 83.692331 254.121545 
L 83.692331 82.137915 
L 182.820882 90.808578 
" style="fill: #e6e6e6; opacity: 0.5; stroke: #e6e6e6; stroke-linejoin: miter"/>
   </g>
  </g>
  <g id="pane3d_3">
   <g id="patch_5">
    <path d="M 182.820882 245.450882 
L 83.692331 254.121545 
L 296.232474 258.640493 
L 377.582372 249.085214 
" style="fill: #ececec; opacity: 0.5; stroke: #ececec; stroke-linejoin: miter"/>
   </g>
  </g>
  <g id="axis3d_1">
   <g id="line2d_1">
    <path d="M 377.582372 249.085214 
L 296.232474 258.640493 
" style="fill: none; stroke: #000000; stroke-width: 0.8; stroke-linecap: square"/>
   </g>
   <g id="text_1">
    <!-- x -->
    <g transform="translate(365.445089 282.08035)scale(0.16 -0.16)">
     <defs>
      <path id="CMSS17-78" d="M 1587 1414 
L 2656 2739 
L 2099 2739 
L 1363 1777 
L 602 2739 
L 32 2739 
L 1139 1414 
L 0 0 
L 563 0 
L 1363 1121 
L 2195 0 
L 2758 0 
L 1587 1414 
z
" transform="scale(0.015625)"/>
     </defs>
     <use xlink:href="#CMSS17-78" transform="scale(0.996264)"/>
    </g>
   </g>
   <g id="Line3DCollection_1">
    <path d="M 376.124058 249.256506 
L 181.034614 245.607124 
L 181.034614 90.652335 
" style="fill: none; stroke: #b0b0b0; stroke-width: 0.8"/>
    <path d="M 361.803743 250.938556 
L 163.51187 247.139819 
L 163.51187 89.11964 
" style="fill: none; stroke: #b0b0b0; stroke-width: 0.8"/>
    <path d="M 346.877031 252.691833 
L 145.281847 248.734379 
L 145.281847 87.525081 
" style="fill: none; stroke: #b0b0b0; stroke-width: 0.8"/>
    <path d="M 331.304573 254.520959 
L 126.300843 250.394626 
L 126.300843 85.864833 
" style="fill: none; stroke: #b0b0b0; stroke-width: 0.8"/>
    <path d="M 315.043539 256.430964 
L 106.521474 252.124705 
L 106.521474 84.134754 
" style="fill: none; stroke: #b0b0b0; stroke-width: 0.8"/>
    <path d="M 298.047225 258.427334 
L 85.89229 253.929117 
L 85.89229 82.330343 
" style="fill: none; stroke: #b0b0b0; stroke-width: 0.8"/>
   </g>
   <g id="xtick_1">
    <g id="line2d_2">
     <path d="M 374.490445 249.225947 
L 379.394982 249.317692 
" style="fill: none; stroke: #000000; stroke-width: 0.8; stroke-linecap: square"/>
    </g>
    <g id="text_2">
     <!-- $\mathdefault{0}$ -->
     <g transform="translate(386.723921 266.817367)scale(0.1 -0.1)">
      <defs>
       <path id="CMR17-30" d="M 2688 2025 
C 2688 2416 2682 3080 2413 3591 
C 2176 4039 1798 4198 1466 4198 
C 1158 4198 768 4058 525 3597 
C 269 3118 243 2524 243 2025 
C 243 1661 250 1106 448 619 
C 723 -39 1216 -128 1466 -128 
C 1760 -128 2208 -7 2470 600 
C 2662 1042 2688 1559 2688 2025 
z
M 1466 -26 
C 1056 -26 813 325 723 812 
C 653 1188 653 1738 653 2096 
C 653 2588 653 2997 736 3387 
C 858 3929 1216 4096 1466 4096 
C 1728 4096 2067 3923 2189 3400 
C 2272 3036 2278 2607 2278 2096 
C 2278 1680 2278 1169 2202 792 
C 2067 95 1690 -26 1466 -26 
z
" transform="scale(0.015625)"/>
      </defs>
      <use xlink:href="#CMR17-30" transform="scale(0.996264)"/>
     </g>
    </g>
   </g>
   <g id="xtick_2">
    <g id="line2d_3">
     <path d="M 360.141777 250.906717 
L 365.131512 251.002307 
" style="fill: none; stroke: #000000; stroke-width: 0.8; stroke-linecap: square"/>
    </g>
    <g id="text_3">
     <!-- $\mathdefault{1}$ -->
     <g transform="translate(372.631731 268.725934)scale(0.1 -0.1)">
      <defs>
       <path id="CMR17-31" d="M 1702 4058 
C 1702 4192 1696 4192 1606 4192 
C 1357 3916 979 3827 621 3827 
C 602 3827 570 3827 563 3808 
C 557 3795 557 3782 557 3648 
C 755 3648 1088 3686 1344 3839 
L 1344 461 
C 1344 236 1331 160 781 160 
L 589 160 
L 589 0 
C 896 0 1216 0 1523 0 
C 1830 0 2150 0 2458 0 
L 2458 160 
L 2266 160 
C 1715 160 1702 230 1702 458 
L 1702 4058 
z
" transform="scale(0.015625)"/>
      </defs>
      <use xlink:href="#CMR17-31" transform="scale(0.996264)"/>
     </g>
    </g>
   </g>
   <g id="xtick_3">
    <g id="line2d_4">
     <path d="M 345.185752 252.658632 
L 350.263578 252.758313 
" style="fill: none; stroke: #000000; stroke-width: 0.8; stroke-linecap: square"/>
    </g>
    <g id="text_4">
     <!-- $\mathdefault{2}$ -->
     <g transform="translate(357.940929 270.715574)scale(0.1 -0.1)">
      <defs>
       <path id="CMR17-32" d="M 2669 989 
L 2554 989 
C 2490 536 2438 459 2413 420 
C 2381 369 1920 369 1830 369 
L 602 369 
C 832 619 1280 1072 1824 1597 
C 2214 1967 2669 2402 2669 3035 
C 2669 3790 2067 4224 1395 4224 
C 691 4224 262 3604 262 3030 
C 262 2780 448 2748 525 2748 
C 589 2748 781 2787 781 3010 
C 781 3207 614 3264 525 3264 
C 486 3264 448 3258 422 3245 
C 544 3790 915 4058 1306 4058 
C 1862 4058 2227 3617 2227 3035 
C 2227 2479 1901 2000 1536 1584 
L 262 146 
L 262 0 
L 2515 0 
L 2669 989 
z
" transform="scale(0.015625)"/>
      </defs>
      <use xlink:href="#CMR17-32" transform="scale(0.996264)"/>
     </g>
    </g>
   </g>
   <g id="xtick_4">
    <g id="line2d_5">
     <path d="M 329.582971 254.486306 
L 334.751924 254.590347 
" style="fill: none; stroke: #000000; stroke-width: 0.8; stroke-linecap: square"/>
    </g>
    <g id="text_5">
     <!-- $\mathdefault{3}$ -->
     <g transform="translate(342.612542 272.791566)scale(0.1 -0.1)">
      <defs>
       <path id="CMR17-33" d="M 1414 2157 
C 1984 2157 2234 1662 2234 1090 
C 2234 320 1824 25 1453 25 
C 1114 25 563 194 390 693 
C 422 680 454 680 486 680 
C 640 680 755 782 755 948 
C 755 1133 614 1216 486 1216 
C 378 1216 211 1165 211 926 
C 211 335 787 -128 1466 -128 
C 2176 -128 2720 430 2720 1085 
C 2720 1707 2208 2157 1600 2227 
C 2086 2328 2554 2756 2554 3329 
C 2554 3820 2048 4179 1472 4179 
C 890 4179 378 3829 378 3329 
C 378 3110 544 3072 627 3072 
C 762 3072 877 3155 877 3321 
C 877 3486 762 3569 627 3569 
C 602 3569 570 3569 544 3557 
C 730 3959 1235 4032 1459 4032 
C 1683 4032 2106 3925 2106 3320 
C 2106 3143 2080 2828 1862 2550 
C 1670 2304 1453 2304 1242 2284 
C 1210 2284 1062 2269 1037 2269 
C 992 2263 966 2257 966 2208 
C 966 2163 973 2157 1101 2157 
L 1414 2157 
z
" transform="scale(0.015625)"/>
      </defs>
      <use xlink:href="#CMR17-33" transform="scale(0.996264)"/>
     </g>
    </g>
   </g>
   <g id="xtick_5">
    <g id="line2d_6">
     <path d="M 313.290557 256.394763 
L 318.553819 256.503456 
" style="fill: none; stroke: #000000; stroke-width: 0.8; stroke-linecap: square"/>
    </g>
    <g id="text_6">
     <!-- $\mathdefault{4}$ -->
     <g transform="translate(326.604144 274.959654)scale(0.1 -0.1)">
      <defs>
       <path id="CMR17-34" d="M 2150 4122 
C 2150 4256 2144 4256 2029 4256 
L 128 1254 
L 128 1088 
L 1779 1088 
L 1779 457 
C 1779 224 1766 160 1318 160 
L 1197 160 
L 1197 0 
C 1402 0 1747 0 1965 0 
C 2182 0 2528 0 2733 0 
L 2733 160 
L 2611 160 
C 2163 160 2150 224 2150 457 
L 2150 1088 
L 2803 1088 
L 2803 1254 
L 2150 1254 
L 2150 4122 
z
M 1798 3703 
L 1798 1254 
L 256 1254 
L 1798 3703 
z
" transform="scale(0.015625)"/>
      </defs>
      <use xlink:href="#CMR17-34" transform="scale(0.996264)"/>
     </g>
    </g>
   </g>
   <g id="xtick_6">
    <g id="line2d_7">
     <path d="M 296.261753 258.389478 
L 301.622666 258.503143 
" style="fill: none; stroke: #000000; stroke-width: 0.8; stroke-linecap: square"/>
    </g>
    <g id="text_7">
     <!-- $\mathdefault{5}$ -->
     <g transform="translate(309.869457 277.226106)scale(0.1 -0.1)">
      <defs>
       <path id="CMR17-35" d="M 730 3692 
C 794 3666 1056 3584 1325 3584 
C 1920 3584 2246 3911 2432 4100 
C 2432 4157 2432 4192 2394 4192 
C 2387 4192 2374 4192 2323 4163 
C 2099 4058 1837 3973 1517 3973 
C 1325 3973 1037 3999 723 4139 
C 653 4171 640 4171 634 4171 
C 602 4171 595 4164 595 4037 
L 595 2203 
C 595 2089 595 2057 659 2057 
C 691 2057 704 2070 736 2114 
C 941 2401 1222 2522 1542 2522 
C 1766 2522 2246 2382 2246 1289 
C 2246 1085 2246 715 2054 421 
C 1894 159 1645 25 1370 25 
C 947 25 518 320 403 814 
C 429 807 480 795 506 795 
C 589 795 749 840 749 1038 
C 749 1210 627 1280 506 1280 
C 358 1280 262 1190 262 1011 
C 262 454 704 -128 1382 -128 
C 2042 -128 2669 440 2669 1264 
C 2669 2030 2170 2624 1549 2624 
C 1222 2624 947 2503 730 2274 
L 730 3692 
z
" transform="scale(0.015625)"/>
      </defs>
      <use xlink:href="#CMR17-35" transform="scale(0.996264)"/>
     </g>
    </g>
   </g>
  </g>
  <g id="axis3d_2">
   <g id="line2d_8">
    <path d="M 83.692331 254.121545 
L 296.232474 258.640493 
" style="fill: none; stroke: #000000; stroke-width: 0.8; stroke-linecap: square"/>
   </g>
   <g id="text_8">
    <!-- y -->
    <g transform="translate(169.393894 286.635707)scale(0.16 -0.16)">
     <defs>
      <path id="CMSS17-79" d="M 2675 2752 
L 2176 2752 
C 1632 1294 1446 702 1434 383 
L 1427 383 
C 1408 696 1126 1460 902 2007 
L 602 2752 
L 83 2752 
L 1216 13 
C 1146 -178 1043 -465 1011 -529 
C 870 -885 774 -885 672 -885 
C 646 -885 442 -885 211 -809 
L 250 -1229 
C 410 -1261 570 -1280 685 -1280 
C 845 -1280 1165 -1280 1459 -497 
L 2675 2752 
z
" transform="scale(0.015625)"/>
     </defs>
     <use xlink:href="#CMSS17-79" transform="scale(0.996264)"/>
    </g>
   </g>
   <g id="Line3DCollection_2">
    <path d="M 204.511936 90.403814 
L 204.511936 245.855646 
L 107.2525 254.622472 
" style="fill: none; stroke: #b0b0b0; stroke-width: 0.8"/>
    <path d="M 240.917754 89.724466 
L 240.917754 246.534994 
L 146.857673 255.464543 
" style="fill: none; stroke: #b0b0b0; stroke-width: 0.8"/>
    <path d="M 277.96558 89.033137 
L 277.96558 247.226322 
L 187.241598 256.32317 
" style="fill: none; stroke: #b0b0b0; stroke-width: 0.8"/>
    <path d="M 315.672547 88.329509 
L 315.672547 247.92995 
L 228.427473 257.198849 
" style="fill: none; stroke: #b0b0b0; stroke-width: 0.8"/>
    <path d="M 354.056402 87.61325 
L 354.056402 248.646209 
L 270.439425 258.092091 
" style="fill: none; stroke: #b0b0b0; stroke-width: 0.8"/>
   </g>
   <g id="xtick_7">
    <g id="line2d_9">
     <path d="M 108.117555 254.544497 
L 105.517698 254.778845 
" style="fill: none; stroke: #000000; stroke-width: 0.8; stroke-linecap: square"/>
    </g>
    <g id="text_9">
     <!-- $\mathdefault{−4}$ -->
     <g transform="translate(93.92261 273.300842)scale(0.1 -0.1)">
      <defs>
       <path id="CMSY10-0" d="M 4218 1472 
C 4326 1472 4442 1472 4442 1600 
C 4442 1728 4326 1728 4218 1728 
L 755 1728 
C 646 1728 531 1728 531 1600 
C 531 1472 646 1472 755 1472 
L 4218 1472 
z
" transform="scale(0.015625)"/>
      </defs>
      <use xlink:href="#CMSY10-0" transform="scale(0.996264)"/>
      <use xlink:href="#CMR17-34" transform="translate(77.487468 0)scale(0.996264)"/>
     </g>
    </g>
   </g>
   <g id="xtick_8">
    <g id="line2d_10">
     <path d="M 147.69509 255.385043 
L 145.178252 255.623978 
" style="fill: none; stroke: #000000; stroke-width: 0.8; stroke-linecap: square"/>
    </g>
    <g id="text_10">
     <!-- $\mathdefault{−2}$ -->
     <g transform="translate(133.749768 274.264414)scale(0.1 -0.1)">
      <use xlink:href="#CMSY10-0" transform="scale(0.996264)"/>
      <use xlink:href="#CMR17-32" transform="translate(77.487468 0)scale(0.996264)"/>
     </g>
    </g>
   </g>
   <g id="xtick_9">
    <g id="line2d_11">
     <path d="M 188.050119 256.2421 
L 185.620085 256.485759 
" style="fill: none; stroke: #000000; stroke-width: 0.8; stroke-linecap: square"/>
    </g>
    <g id="text_11">
     <!-- $\mathdefault{0}$ -->
     <g transform="translate(178.240213 275.247074)scale(0.1 -0.1)">
      <use xlink:href="#CMR17-30" transform="scale(0.996264)"/>
     </g>
    </g>
   </g>
   <g id="xtick_10">
    <g id="line2d_12">
     <path d="M 229.20578 257.116162 
L 226.866513 257.364685 
" style="fill: none; stroke: #000000; stroke-width: 0.8; stroke-linecap: square"/>
    </g>
    <g id="text_12">
     <!-- $\mathdefault{2}$ -->
     <g transform="translate(219.668876 276.249393)scale(0.1 -0.1)">
      <use xlink:href="#CMR17-32" transform="scale(0.996264)"/>
     </g>
    </g>
   </g>
   <g id="xtick_11">
    <g id="line2d_13">
     <path d="M 271.186137 258.007738 
L 268.941788 258.261273 
" style="fill: none; stroke: #000000; stroke-width: 0.8; stroke-linecap: square"/>
    </g>
    <g id="text_13">
     <!-- $\mathdefault{4}$ -->
     <g transform="translate(261.934759 277.271967)scale(0.1 -0.1)">
      <use xlink:href="#CMR17-34" transform="scale(0.996264)"/>
     </g>
    </g>
   </g>
  </g>
  <g id="axis3d_3">
   <g id="line2d_14">
    <path d="M 83.692331 254.121545 
L 83.692331 82.137915 
" style="fill: none; stroke: #000000; stroke-width: 0.8; stroke-linecap: square"/>
   </g>
   <g id="text_14">
    <!-- z -->
    <g transform="translate(36.571627 172.114786)scale(0.16 -0.16)">
     <defs>
      <path id="CMSS17-7a" d="M 2400 2502 
L 2400 2750 
L 250 2750 
L 250 2368 
L 1069 2368 
C 1146 2368 1222 2368 1299 2368 
L 1747 2368 
L 166 261 
L 166 0 
L 2419 0 
L 2419 395 
L 1549 395 
C 1472 395 1395 395 1318 395 
L 826 395 
L 2400 2502 
z
" transform="scale(0.015625)"/>
     </defs>
     <use xlink:href="#CMSS17-7a" transform="scale(0.996264)"/>
    </g>
   </g>
   <g id="Line3DCollection_3">
    <path d="M 83.692331 250.681872 
L 182.820882 242.358036 
L 377.582372 245.846994 
" style="fill: none; stroke: #b0b0b0; stroke-width: 0.8"/>
    <path d="M 83.692331 217.661015 
L 182.820882 212.666713 
L 377.582372 214.760089 
" style="fill: none; stroke: #b0b0b0; stroke-width: 0.8"/>
    <path d="M 83.692331 184.640158 
L 182.820882 182.975391 
L 377.582372 183.673183 
" style="fill: none; stroke: #b0b0b0; stroke-width: 0.8"/>
    <path d="M 83.692331 151.619301 
L 182.820882 153.284069 
L 377.582372 152.586277 
" style="fill: none; stroke: #b0b0b0; stroke-width: 0.8"/>
    <path d="M 83.692331 118.598444 
L 182.820882 123.592746 
L 377.582372 121.499371 
" style="fill: none; stroke: #b0b0b0; stroke-width: 0.8"/>
    <path d="M 83.692331 85.577587 
L 182.820882 93.901424 
L 377.582372 90.412465 
" style="fill: none; stroke: #b0b0b0; stroke-width: 0.8"/>
   </g>
   <g id="xtick_12">
    <g id="line2d_15">
     <path d="M 84.573498 250.607881 
L 81.925246 250.830255 
" style="fill: none; stroke: #000000; stroke-width: 0.8; stroke-linecap: square"/>
    </g>
    <g id="text_15">
     <!-- $\mathdefault{0}$ -->
     <g transform="translate(61.177673 257.929792)scale(0.1 -0.1)">
      <use xlink:href="#CMR17-30" transform="scale(0.996264)"/>
     </g>
    </g>
   </g>
   <g id="xtick_13">
    <g id="line2d_16">
     <path d="M 84.573498 217.61662 
L 81.925246 217.750045 
" style="fill: none; stroke: #000000; stroke-width: 0.8; stroke-linecap: square"/>
    </g>
    <g id="text_16">
     <!-- $\mathdefault{1}$ -->
     <g transform="translate(61.177673 224.777166)scale(0.1 -0.1)">
      <use xlink:href="#CMR17-31" transform="scale(0.996264)"/>
     </g>
    </g>
   </g>
   <g id="xtick_14">
    <g id="line2d_17">
     <path d="M 84.573498 184.62536 
L 81.925246 184.669835 
" style="fill: none; stroke: #000000; stroke-width: 0.8; stroke-linecap: square"/>
    </g>
    <g id="text_17">
     <!-- $\mathdefault{2}$ -->
     <g transform="translate(61.177673 191.624541)scale(0.1 -0.1)">
      <use xlink:href="#CMR17-32" transform="scale(0.996264)"/>
     </g>
    </g>
   </g>
   <g id="xtick_15">
    <g id="line2d_18">
     <path d="M 84.573498 151.6341 
L 81.925246 151.589625 
" style="fill: none; stroke: #000000; stroke-width: 0.8; stroke-linecap: square"/>
    </g>
    <g id="text_18">
     <!-- $\mathdefault{3}$ -->
     <g transform="translate(61.177673 158.471915)scale(0.1 -0.1)">
      <use xlink:href="#CMR17-33" transform="scale(0.996264)"/>
     </g>
    </g>
   </g>
   <g id="xtick_16">
    <g id="line2d_19">
     <path d="M 84.573498 118.642839 
L 81.925246 118.509415 
" style="fill: none; stroke: #000000; stroke-width: 0.8; stroke-linecap: square"/>
    </g>
    <g id="text_19">
     <!-- $\mathdefault{4}$ -->
     <g transform="translate(61.177673 125.31929)scale(0.1 -0.1)">
      <use xlink:href="#CMR17-34" transform="scale(0.996264)"/>
     </g>
    </g>
   </g>
   <g id="xtick_17">
    <g id="line2d_20">
     <path d="M 84.573498 85.651579 
L 81.925246 85.429205 
" style="fill: none; stroke: #000000; stroke-width: 0.8; stroke-linecap: square"/>
    </g>
    <g id="text_20">
     <!-- $\mathdefault{5}$ -->
     <g transform="translate(61.177673 92.166665)scale(0.1 -0.1)">
      <use xlink:href="#CMR17-35" transform="scale(0.996264)"/>
     </g>
    </g>
   </g>
  </g>
  <g id="axes_1">
   <g id="line2d_21">
    <path d="M 276.334894 244.219426 
L 318.189273 89.43537 
" clip-path="url(#pb80cbf1942)" style="fill: none; stroke: #ff0000; stroke-width: 1.5; stroke-linecap: square"/>
   </g>
   <g id="line2d_22">
    <path d="M 276.334894 244.219426 
L 205.332917 121.022437 
" clip-path="url(#pb80cbf1942)" style="fill: none; stroke: #00ff00; stroke-width: 1.5; stroke-linecap: square"/>
   </g>
   <g id="line2d_23">
    <path d="M 276.334894 244.219426 
L 250.503715 -1 
" clip-path="url(#pb80cbf1942)" style="fill: none; stroke: #0016ff; stroke-width: 1.5; stroke-linecap: square"/>
   </g>
   <g id="line2d_24">
    <path d="M 276.334894 244.219426 
L 129.084744 151.480416 
" clip-path="url(#pb80cbf1942)" style="fill: none; stroke: #f400ff; stroke-width: 1.5; stroke-linecap: square"/>
   </g>
   <g id="Poly3DCollection_1">
    <path d="M 184.764241 354.242918 
L 176.117355 314.72114 
L 185.165226 303.740828 
L 193.742812 343.455033 
z
" clip-path="url(#pb80cbf1942)" style="fill: #0000f5; fill-opacity: 0.1"/>
    <path d="M 193.742812 343.455033 
L 185.165226 303.740828 
L 194.25276 292.712381 
L 202.760359 332.620317 
z
" clip-path="url(#pb80cbf1942)" style="fill: #0000f5; fill-opacity: 0.1"/>
    <path d="M 202.760359 332.620317 
L 194.25276 292.712381 
L 203.380221 281.63548 
L 211.817137 321.738464 
z
" clip-path="url(#pb80cbf1942)" style="fill: #0000f5; fill-opacity: 0.1"/>
    <path d="M 211.817137 321.738464 
L 203.380221 281.63548 
L 212.547871 270.509806 
L 220.913403 310.809166 
z
" clip-path="url(#pb80cbf1942)" style="fill: #0000f5; fill-opacity: 0.1"/>
    <path d="M 220.913403 310.809166 
L 212.547871 270.509806 
L 221.755976 259.335037 
L 230.049416 299.832112 
z
" clip-path="url(#pb80cbf1942)" style="fill: #0000f5; fill-opacity: 0.1"/>
    <path d="M 176.117355 314.72114 
L 167.299255 274.416805 
L 176.417422 263.23852 
L 185.165226 303.740828 
z
" clip-path="url(#pb80cbf1942)" style="fill: #0000f5; fill-opacity: 0.1"/>
    <path d="M 230.049416 299.832112 
L 221.755976 259.335037 
L 231.004805 248.110846 
L 239.225436 288.806988 
z
" clip-path="url(#pb80cbf1942)" style="fill: #0000f5; fill-opacity: 0.1"/>
    <path d="M 185.165226 303.740828 
L 176.417422 263.23852 
L 185.57596 252.010743 
L 194.25276 292.712381 
z
" clip-path="url(#pb80cbf1942)" style="fill: #0000f5; fill-opacity: 0.1"/>
    <path d="M 239.225436 288.806988 
L 231.004805 248.110846 
L 240.294629 236.836904 
L 248.441727 277.733479 
z
" clip-path="url(#pb80cbf1942)" style="fill: #0000f5; fill-opacity: 0.1"/>
    <path d="M 194.25276 292.712381 
L 185.57596 252.010743 
L 194.775136 240.733146 
L 203.380221 281.63548 
z
" clip-path="url(#pb80cbf1942)" style="fill: #0000f5; fill-opacity: 0.1"/>
    <path d="M 248.441727 277.733479 
L 240.294629 236.836904 
L 249.625721 225.512881 
L 257.698554 266.611264 
z
" clip-path="url(#pb80cbf1942)" style="fill: #0000f5; fill-opacity: 0.1"/>
    <path d="M 203.380221 281.63548 
L 194.775136 240.733146 
L 204.015222 229.405396 
L 212.547871 270.509806 
z
" clip-path="url(#pb80cbf1942)" style="fill: #0000f5; fill-opacity: 0.1"/>
    <path d="M 257.698554 266.611264 
L 249.625721 225.512881 
L 258.998356 214.138442 
L 266.996187 255.440021 
z
" clip-path="url(#pb80cbf1942)" style="fill: #0000f5; fill-opacity: 0.1"/>
    <path d="M 212.547871 270.509806 
L 204.015222 229.405396 
L 213.296492 218.027159 
L 221.755976 259.335037 
z
" clip-path="url(#pb80cbf1942)" style="fill: #0000f5; fill-opacity: 0.1"/>
    <path d="M 167.299255 274.416805 
L 158.304805 233.306439 
L 167.494285 221.924413 
L 176.417422 263.23852 
z
" clip-path="url(#pb80cbf1942)" style="fill: #0000f5; fill-opacity: 0.1"/>
    <path d="M 266.996187 255.440021 
L 258.998356 214.138442 
L 268.412812 202.713249 
L 276.334894 244.219426 
z
" clip-path="url(#pb80cbf1942)" style="fill: #0000f5; fill-opacity: 0.1"/>
    <path d="M 221.755976 259.335037 
L 213.296492 218.027159 
L 222.61922 206.598095 
L 231.004805 248.110846 
z
" clip-path="url(#pb80cbf1942)" style="fill: #0000f5; fill-opacity: 0.1"/>
    <path d="M 176.417422 263.23852 
L 167.494285 221.924413 
L 176.72486 210.491488 
L 185.57596 252.010743 
z
" clip-path="url(#pb80cbf1942)" style="fill: #0000f5; fill-opacity: 0.1"/>
    <path d="M 276.334894 244.219426 
L 268.412812 202.713249 
L 277.86937 191.236963 
L 285.714949 232.949151 
z
" clip-path="url(#pb80cbf1942)" style="fill: #0000f5; fill-opacity: 0.1"/>
    <path d="M 231.004805 248.110846 
L 222.61922 206.598095 
L 231.983686 195.117863 
L 240.294629 236.836904 
z
" clip-path="url(#pb80cbf1942)" style="fill: #0000f5; fill-opacity: 0.1"/>
    <path d="M 185.57596 252.010743 
L 176.72486 210.491488 
L 185.996805 199.007322 
L 194.775136 240.733146 
z
" clip-path="url(#pb80cbf1942)" style="fill: #0000f5; fill-opacity: 0.1"/>
    <path d="M 285.714949 232.949151 
L 277.86937 191.236963 
L 287.368313 179.709238 
L 295.136627 221.628866 
z
" clip-path="url(#pb80cbf1942)" style="fill: #0000f5; fill-opacity: 0.1"/>
    <path d="M 240.294629 236.836904 
L 231.983686 195.117863 
L 241.390171 183.586119 
L 249.625721 225.512881 
z
" clip-path="url(#pb80cbf1942)" style="fill: #0000f5; fill-opacity: 0.1"/>
    <path d="M 194.775136 240.733146 
L 185.996805 199.007322 
L 195.310399 187.471569 
L 204.015222 229.405396 
z
" clip-path="url(#pb80cbf1942)" style="fill: #0000f5; fill-opacity: 0.1"/>
    <path d="M 295.136627 221.628866 
L 287.368313 179.709238 
L 296.909927 168.12973 
L 304.600206 210.258236 
z
" clip-path="url(#pb80cbf1942)" style="fill: #0000f5; fill-opacity: 0.1"/>
    <path d="M 249.625721 225.512881 
L 241.390171 183.586119 
L 250.838958 172.002516 
L 258.998356 214.138442 
z
" clip-path="url(#pb80cbf1942)" style="fill: #0000f5; fill-opacity: 0.1"/>
    <path d="M 204.015222 229.405396 
L 195.310399 187.471569 
L 204.665925 175.883881 
L 213.296492 218.027159 
z
" clip-path="url(#pb80cbf1942)" style="fill: #0000f5; fill-opacity: 0.1"/>
    <path d="M 304.600206 210.258236 
L 296.909927 168.12973 
L 306.494499 156.498087 
L 314.105966 198.836925 
z
" clip-path="url(#pb80cbf1942)" style="fill: #0000f5; fill-opacity: 0.1"/>
    <path d="M 158.304805 233.306439 
L 149.128661 191.365617 
L 158.390488 179.773855 
L 167.494285 221.924413 
z
" clip-path="url(#pb80cbf1942)" style="fill: #0000f5; fill-opacity: 0.1"/>
    <path d="M 258.998356 214.138442 
L 250.838958 172.002516 
L 260.330332 160.366702 
L 268.412812 202.713249 
z
" clip-path="url(#pb80cbf1942)" style="fill: #0000f5; fill-opacity: 0.1"/>
    <path d="M 213.296492 218.027159 
L 204.665925 175.883881 
L 214.063664 164.243907 
L 222.61922 206.598095 
z
" clip-path="url(#pb80cbf1942)" style="fill: #0000f5; fill-opacity: 0.1"/>
    <path d="M 314.105966 198.836925 
L 306.494499 156.498087 
L 316.122321 144.813958 
L 323.65419 187.364593 
z
" clip-path="url(#pb80cbf1942)" style="fill: #0000f5; fill-opacity: 0.1"/>
    <path d="M 167.494285 221.924413 
L 158.390488 179.773855 
L 167.694154 168.12973 
L 176.72486 210.491488 
z
" clip-path="url(#pb80cbf1942)" style="fill: #0000f5; fill-opacity: 0.1"/>
    <path d="M 268.412812 202.713249 
L 260.330332 160.366702 
L 269.864584 148.678325 
L 277.86937 191.236963 
z
" clip-path="url(#pb80cbf1942)" style="fill: #0000f5; fill-opacity: 0.1"/>
    <path d="M 222.61922 206.598095 
L 214.063664 164.243907 
L 223.503905 152.551291 
L 231.983686 195.117863 
z
" clip-path="url(#pb80cbf1942)" style="fill: #0000f5; fill-opacity: 0.1"/>
    <path d="M 323.65419 187.364593 
L 316.122321 144.813958 
L 325.793686 133.076986 
L 333.245162 175.840899 
z
" clip-path="url(#pb80cbf1942)" style="fill: #0000f5; fill-opacity: 0.1"/>
    <path d="M 176.72486 210.491488 
L 167.694154 168.12973 
L 177.039941 156.432886 
L 185.996805 199.007322 
z
" clip-path="url(#pb80cbf1942)" style="fill: #0000f5; fill-opacity: 0.1"/>
    <path d="M 277.86937 191.236963 
L 269.864584 148.678325 
L 279.442003 136.937027 
L 287.368313 179.709238 
z
" clip-path="url(#pb80cbf1942)" style="fill: #0000f5; fill-opacity: 0.1"/>
    <path d="M 231.983686 195.117863 
L 223.503905 152.551291 
L 232.986935 140.805676 
L 241.390171 183.586119 
z
" clip-path="url(#pb80cbf1942)" style="fill: #0000f5; fill-opacity: 0.1"/>
    <path d="M 333.245162 175.840899 
L 325.793686 133.076986 
L 335.50889 121.286812 
L 342.87917 164.265495 
z
" clip-path="url(#pb80cbf1942)" style="fill: #0000f5; fill-opacity: 0.1"/>
    <path d="M 185.996805 199.007322 
L 177.039941 156.432886 
L 186.428138 144.682964 
L 195.310399 187.471569 
z
" clip-path="url(#pb80cbf1942)" style="fill: #0000f5; fill-opacity: 0.1"/>
    <path d="M 287.368313 179.709238 
L 279.442003 136.937027 
L 289.062883 125.142447 
L 296.909927 168.12973 
z
" clip-path="url(#pb80cbf1942)" style="fill: #0000f5; fill-opacity: 0.1"/>
    <path d="M 241.390171 183.586119 
L 232.986935 140.805676 
L 242.513047 129.006701 
L 250.838958 172.002516 
z
" clip-path="url(#pb80cbf1942)" style="fill: #0000f5; fill-opacity: 0.1"/>
    <path d="M 342.87917 164.265495 
L 335.50889 121.286812 
L 345.268232 109.443074 
L 352.556505 152.638034 
z
" clip-path="url(#pb80cbf1942)" style="fill: #0000f5; fill-opacity: 0.1"/>
    <path d="M 195.310399 187.471569 
L 186.428138 144.682964 
L 195.859032 132.879603 
L 204.665925 175.883881 
z
" clip-path="url(#pb80cbf1942)" style="fill: #0000f5; fill-opacity: 0.1"/>
    <path d="M 296.909927 168.12973 
L 289.062883 125.142447 
L 298.727522 113.294223 
L 306.494499 156.498087 
z
" clip-path="url(#pb80cbf1942)" style="fill: #0000f5; fill-opacity: 0.1"/>
    <path d="M 149.128661 191.365617 
L 139.765262 148.56892 
L 149.10049 136.761183 
L 158.390488 179.773855 
z
" clip-path="url(#pb80cbf1942)" style="fill: #0000f5; fill-opacity: 0.1"/>
    <path d="M 250.838958 172.002516 
L 242.513047 129.006701 
L 252.082534 117.154001 
L 260.330332 160.366702 
z
" clip-path="url(#pb80cbf1942)" style="fill: #0000f5; fill-opacity: 0.1"/>
    <path d="M 352.556505 152.638034 
L 345.268232 109.443074 
L 355.072012 97.545404 
L 362.27746 140.958163 
z
" clip-path="url(#pb80cbf1942)" style="fill: #0000f5; fill-opacity: 0.1"/>
    <path d="M 204.665925 175.883881 
L 195.859032 132.879603 
L 205.332917 121.022437 
L 214.063664 164.243907 
z
" clip-path="url(#pb80cbf1942)" style="fill: #0000f5; fill-opacity: 0.1"/>
    <path d="M 306.494499 156.498087 
L 298.727522 113.294223 
L 308.436218 101.391988 
L 316.122321 144.813958 
z
" clip-path="url(#pb80cbf1942)" style="fill: #0000f5; fill-opacity: 0.1"/>
    <path d="M 158.390488 179.773855 
L 149.10049 136.761183 
L 158.478319 124.899561 
L 167.694154 168.12973 
z
" clip-path="url(#pb80cbf1942)" style="fill: #0000f5; fill-opacity: 0.1"/>
    <path d="M 260.330332 160.366702 
L 252.082534 117.154001 
L 261.695694 105.247209 
L 269.864584 148.678325 
z
" clip-path="url(#pb80cbf1942)" style="fill: #0000f5; fill-opacity: 0.1"/>
    <path d="M 214.063664 164.243907 
L 205.332917 121.022437 
L 214.850087 109.111098 
L 223.503905 152.551291 
z
" clip-path="url(#pb80cbf1942)" style="fill: #0000f5; fill-opacity: 0.1"/>
    <path d="M 316.122321 144.813958 
L 308.436218 101.391988 
L 318.189273 89.43537 
L 325.793686 133.076986 
z
" clip-path="url(#pb80cbf1942)" style="fill: #0000f5; fill-opacity: 0.1"/>
    <path d="M 167.694154 168.12973 
L 158.478319 124.899561 
L 167.899043 112.983683 
L 177.039941 156.432886 
z
" clip-path="url(#pb80cbf1942)" style="fill: #0000f5; fill-opacity: 0.1"/>
    <path d="M 269.864584 148.678325 
L 261.695694 105.247209 
L 271.352826 93.285953 
L 279.442003 136.937027 
z
" clip-path="url(#pb80cbf1942)" style="fill: #0000f5; fill-opacity: 0.1"/>
    <path d="M 223.503905 152.551291 
L 214.850087 109.111098 
L 224.410839 97.145212 
L 232.986935 140.805676 
z
" clip-path="url(#pb80cbf1942)" style="fill: #0000f5; fill-opacity: 0.1"/>
    <path d="M 325.793686 133.076986 
L 318.189273 89.43537 
L 327.986993 77.423998 
L 335.50889 121.286812 
z
" clip-path="url(#pb80cbf1942)" style="fill: #0000f5; fill-opacity: 0.1"/>
    <path d="M 177.039941 156.432886 
L 167.899043 112.983683 
L 177.362956 101.013177 
L 186.428138 144.682964 
z
" clip-path="url(#pb80cbf1942)" style="fill: #0000f5; fill-opacity: 0.1"/>
    <path d="M 279.442003 136.937027 
L 271.352826 93.285953 
L 281.054233 81.269859 
L 289.062883 125.142447 
z
" clip-path="url(#pb80cbf1942)" style="fill: #0000f5; fill-opacity: 0.1"/>
    <path d="M 232.986935 140.805676 
L 224.410839 97.145212 
L 234.015474 85.124405 
L 242.513047 129.006701 
z
" clip-path="url(#pb80cbf1942)" style="fill: #0000f5; fill-opacity: 0.1"/>
    <path d="M 335.50889 121.286812 
L 327.986993 77.423998 
L 337.829684 65.357494 
L 345.268232 109.443074 
z
" clip-path="url(#pb80cbf1942)" style="fill: #0000f5; fill-opacity: 0.1"/>
    <path d="M 186.428138 144.682964 
L 177.362956 101.013177 
L 186.870356 88.987667 
L 195.859032 132.879603 
z
" clip-path="url(#pb80cbf1942)" style="fill: #0000f5; fill-opacity: 0.1"/>
    <path d="M 289.062883 125.142447 
L 281.054233 81.269859 
L 290.800219 69.198548 
L 298.727522 113.294223 
z
" clip-path="url(#pb80cbf1942)" style="fill: #0000f5; fill-opacity: 0.1"/>
    <path d="M 139.765262 148.56892 
L 130.208817 104.889878 
L 139.618518 92.859674 
L 149.10049 136.761183 
z
" clip-path="url(#pb80cbf1942)" style="fill: #0000f5; fill-opacity: 0.1"/>
    <path d="M 242.513047 129.006701 
L 234.015474 85.124405 
L 243.664293 73.048298 
L 252.082534 117.154001 
z
" clip-path="url(#pb80cbf1942)" style="fill: #0000f5; fill-opacity: 0.1"/>
    <path d="M 345.268232 109.443074 
L 337.829684 65.357494 
L 347.717656 53.235477 
L 355.072012 97.545404 
z
" clip-path="url(#pb80cbf1942)" style="fill: #0000f5; fill-opacity: 0.1"/>
    <path d="M 195.859032 132.879603 
L 186.870356 88.987667 
L 196.421543 76.906772 
L 205.332917 121.022437 
z
" clip-path="url(#pb80cbf1942)" style="fill: #0000f5; fill-opacity: 0.1"/>
    <path d="M 298.727522 113.294223 
L 290.800219 69.198548 
L 300.591094 57.07164 
L 308.436218 101.391988 
z
" clip-path="url(#pb80cbf1942)" style="fill: #0000f5; fill-opacity: 0.1"/>
    <path d="M 149.10049 136.761183 
L 139.618518 92.859674 
L 149.071605 80.774001 
L 158.478319 124.899561 
z
" clip-path="url(#pb80cbf1942)" style="fill: #0000f5; fill-opacity: 0.1"/>
    <path d="M 252.082534 117.154001 
L 243.664293 73.048298 
L 253.357603 60.916508 
L 261.695694 105.247209 
z
" clip-path="url(#pb80cbf1942)" style="fill: #0000f5; fill-opacity: 0.1"/>
    <path d="M 205.332917 121.022437 
L 196.421543 76.906772 
L 206.01682 64.770109 
L 214.850087 109.111098 
z
" clip-path="url(#pb80cbf1942)" style="fill: #0000f5; fill-opacity: 0.1"/>
    <path d="M 308.436218 101.391988 
L 300.591094 57.07164 
L 310.427166 44.888749 
L 318.189273 89.43537 
z
" clip-path="url(#pb80cbf1942)" style="fill: #0000f5; fill-opacity: 0.1"/>
    <path d="M 158.478319 124.899561 
L 149.071605 80.774001 
L 158.56838 68.632474 
L 167.899043 112.983683 
z
" clip-path="url(#pb80cbf1942)" style="fill: #0000f5; fill-opacity: 0.1"/>
    <path d="M 261.695694 105.247209 
L 253.357603 60.916508 
L 263.095712 48.728648 
L 271.352826 93.285953 
z
" clip-path="url(#pb80cbf1942)" style="fill: #0000f5; fill-opacity: 0.1"/>
    <path d="M 214.850087 109.111098 
L 206.01682 64.770109 
L 215.656494 52.57729 
L 224.410839 97.145212 
z
" clip-path="url(#pb80cbf1942)" style="fill: #0000f5; fill-opacity: 0.1"/>
    <path d="M 318.189273 89.43537 
L 310.427166 44.888749 
L 320.308752 32.649487 
L 327.986993 77.423998 
z
" clip-path="url(#pb80cbf1942)" style="fill: #0000f5; fill-opacity: 0.1"/>
    <path d="M 167.899043 112.983683 
L 158.56838 68.632474 
L 168.109145 56.434705 
L 177.362956 101.013177 
z
" clip-path="url(#pb80cbf1942)" style="fill: #0000f5; fill-opacity: 0.1"/>
    <path d="M 271.352826 93.285953 
L 263.095712 48.728648 
L 272.878932 36.484331 
L 281.054233 81.269859 
z
" clip-path="url(#pb80cbf1942)" style="fill: #0000f5; fill-opacity: 0.1"/>
    <path d="M 224.410839 97.145212 
L 215.656494 52.57729 
L 225.340874 40.327926 
L 234.015474 85.124405 
z
" clip-path="url(#pb80cbf1942)" style="fill: #0000f5; fill-opacity: 0.1"/>
    <path d="M 327.986993 77.423998 
L 320.308752 32.649487 
L 330.236166 20.353462 
L 337.829684 65.357494 
z
" clip-path="url(#pb80cbf1942)" style="fill: #0000f5; fill-opacity: 0.1"/>
    <path d="M 177.362956 101.013177 
L 168.109145 56.434705 
L 177.694207 44.180302 
L 186.870356 88.987667 
z
" clip-path="url(#pb80cbf1942)" style="fill: #0000f5; fill-opacity: 0.1"/>
    <path d="M 281.054233 81.269859 
L 272.878932 36.484331 
L 282.707576 24.183162 
L 290.800219 69.198548 
z
" clip-path="url(#pb80cbf1942)" style="fill: #0000f5; fill-opacity: 0.1"/>
    <path d="M 130.208817 104.889878 
L 120.453294 60.300922 
L 129.93856 48.04149 
L 139.618518 92.859674 
z
" clip-path="url(#pb80cbf1942)" style="fill: #0000f5; fill-opacity: 0.1"/>
    <path d="M 234.015474 85.124405 
L 225.340874 40.327926 
L 235.07027 28.021621 
L 243.664293 73.048298 
z
" clip-path="url(#pb80cbf1942)" style="fill: #0000f5; fill-opacity: 0.1"/>
    <path d="M 337.829684 65.357494 
L 330.236166 20.353462 
L 340.209728 8.000277 
L 347.717656 53.235477 
z
" clip-path="url(#pb80cbf1942)" style="fill: #0000f5; fill-opacity: 0.1"/>
    <path d="M 186.870356 88.987667 
L 177.694207 44.180302 
L 187.323876 31.868871 
L 196.421543 76.906772 
z
" clip-path="url(#pb80cbf1942)" style="fill: #0000f5; fill-opacity: 0.1"/>
    <path d="M 290.800219 69.198548 
L 282.707576 24.183162 
L 292.581961 11.824744 
L 300.591094 57.07164 
z
" clip-path="url(#pb80cbf1942)" style="fill: #0000f5; fill-opacity: 0.1"/>
    <path d="M 139.618518 92.859674 
L 129.93856 48.04149 
L 139.468019 35.724941 
L 149.071605 80.774001 
z
" clip-path="url(#pb80cbf1942)" style="fill: #0000f5; fill-opacity: 0.1"/>
    <path d="M 243.664293 73.048298 
L 235.07027 28.021621 
L 244.844998 15.657979 
L 253.357603 60.916508 
z
" clip-path="url(#pb80cbf1942)" style="fill: #0000f5; fill-opacity: 0.1"/>
    <path d="M 196.421543 76.906772 
L 187.323876 31.868871 
L 196.998464 19.500012 
L 206.01682 64.770109 
z
" clip-path="url(#pb80cbf1942)" style="fill: #0000f5; fill-opacity: 0.1"/>
    <path d="M 300.591094 57.07164 
L 292.581961 11.824744 
L 302.502409 -0.591323 
L 310.427166 44.888749 
z
" clip-path="url(#pb80cbf1942)" style="fill: #0000f5; fill-opacity: 0.1"/>
    <path d="M 149.071605 80.774001 
L 139.468019 35.724941 
L 149.04198 23.350874 
L 158.56838 68.632474 
z
" clip-path="url(#pb80cbf1942)" style="fill: #0000f5; fill-opacity: 0.1"/>
    <path d="M 253.357603 60.916508 
L 244.844998 15.657979 
L 254.665376 3.236596 
L 263.095712 48.728648 
z
" clip-path="url(#pb80cbf1942)" style="fill: #0000f5; fill-opacity: 0.1"/>
    <path d="M 206.01682 64.770109 
L 196.998464 19.500012 
L 206.718285 7.073322 
L 215.656494 52.57729 
z
" clip-path="url(#pb80cbf1942)" style="fill: #0000f5; fill-opacity: 0.1"/>
    <path d="M 310.427166 44.888749 
L 302.502409 -0.591323 
L 312.469241 -13.065444 
L 320.308752 32.649487 
z
" clip-path="url(#pb80cbf1942)" style="fill: #0000f5; fill-opacity: 0.1"/>
    <path d="M 158.56838 68.632474 
L 149.04198 23.350874 
L 158.660755 10.918886 
L 168.109145 56.434705 
z
" clip-path="url(#pb80cbf1942)" style="fill: #0000f5; fill-opacity: 0.1"/>
    <path d="M 263.095712 48.728648 
L 254.665376 3.236596 
L 264.531723 -9.242932 
L 272.878932 36.484331 
z
" clip-path="url(#pb80cbf1942)" style="fill: #0000f5; fill-opacity: 0.1"/>
    <path d="M 215.656494 52.57729 
L 206.718285 7.073322 
L 216.483657 -5.411605 
L 225.340874 40.327926 
z
" clip-path="url(#pb80cbf1942)" style="fill: #0000f5; fill-opacity: 0.1"/>
    <path d="M 320.308752 32.649487 
L 312.469241 -13.065444 
L 322.482784 -25.598026 
L 330.236166 20.353462 
z
" clip-path="url(#pb80cbf1942)" style="fill: #0000f5; fill-opacity: 0.1"/>
    <path d="M 168.109145 56.434705 
L 158.660755 10.918886 
L 168.324661 -1.571432 
L 177.694207 44.180302 
z
" clip-path="url(#pb80cbf1942)" style="fill: #0000f5; fill-opacity: 0.1"/>
    <path d="M 272.878932 36.484331 
L 264.531723 -9.242932 
L 274.444363 -21.781014 
L 282.707576 24.183162 
z
" clip-path="url(#pb80cbf1942)" style="fill: #0000f5; fill-opacity: 0.1"/>
    <path d="M 120.453294 60.300922 
L 110.492405 14.773317 
L 120.054349 2.277617 
L 129.93856 48.04149 
z
" clip-path="url(#pb80cbf1942)" style="fill: #0000f5; fill-opacity: 0.1"/>
    <path d="M 225.340874 40.327926 
L 216.483657 -5.411605 
L 226.294902 -17.955179 
L 235.07027 28.021621 
z
" clip-path="url(#pb80cbf1942)" style="fill: #0000f5; fill-opacity: 0.1"/>
    <path d="M 330.236166 20.353462 
L 322.482784 -25.598026 
L 332.543367 -38.189481 
L 340.209728 8.000277 
z
" clip-path="url(#pb80cbf1942)" style="fill: #0000f5; fill-opacity: 0.1"/>
    <path d="M 177.694207 44.180302 
L 168.324661 -1.571432 
L 178.034015 -14.12049 
L 187.323876 31.868871 
z
" clip-path="url(#pb80cbf1942)" style="fill: #0000f5; fill-opacity: 0.1"/>
    <path d="M 282.707576 24.183162 
L 274.444363 -21.781014 
L 284.403624 -34.378063 
L 292.581961 11.824744 
z
" clip-path="url(#pb80cbf1942)" style="fill: #0000f5; fill-opacity: 0.1"/>
    <path d="M 129.93856 48.04149 
L 120.054349 2.277617 
L 129.661314 -10.276917 
L 139.468019 35.724941 
z
" clip-path="url(#pb80cbf1942)" style="fill: #0000f5; fill-opacity: 0.1"/>
    <path d="M 235.07027 28.021621 
L 226.294902 -17.955179 
L 236.152343 -30.557815 
L 244.844998 15.657979 
z
" clip-path="url(#pb80cbf1942)" style="fill: #0000f5; fill-opacity: 0.1"/>
    <path d="M 187.323876 31.868871 
L 178.034015 -14.12049 
L 187.789138 -26.728704 
L 196.998464 19.500012 
z
" clip-path="url(#pb80cbf1942)" style="fill: #0000f5; fill-opacity: 0.1"/>
    <path d="M 292.581961 11.824744 
L 284.403624 -34.378063 
L 294.409833 -47.034498 
L 302.502409 -0.591323 
z
" clip-path="url(#pb80cbf1942)" style="fill: #0000f5; fill-opacity: 0.1"/>
    <path d="M 139.468019 35.724941 
L 129.661314 -10.276917 
L 139.313619 -22.890702 
L 149.04198 23.350874 
z
" clip-path="url(#pb80cbf1942)" style="fill: #0000f5; fill-opacity: 0.1"/>
    <path d="M 244.844998 15.657979 
L 236.152343 -30.557815 
L 246.056308 -43.219931 
L 254.665376 3.236596 
z
" clip-path="url(#pb80cbf1942)" style="fill: #0000f5; fill-opacity: 0.1"/>
    <path d="M 196.998464 19.500012 
L 187.789138 -26.728704 
L 197.590356 -39.396494 
L 206.718285 7.073322 
z
" clip-path="url(#pb80cbf1942)" style="fill: #0000f5; fill-opacity: 0.1"/>
    <path d="M 302.502409 -0.591323 
L 294.409833 -47.034498 
L 304.463325 -59.750737 
L 312.469241 -13.065444 
z
" clip-path="url(#pb80cbf1942)" style="fill: #0000f5; fill-opacity: 0.1"/>
    <path d="M 149.04198 23.350874 
L 139.313619 -22.890702 
L 149.011584 -35.564157 
L 158.660755 10.918886 
z
" clip-path="url(#pb80cbf1942)" style="fill: #0000f5; fill-opacity: 0.1"/>
    <path d="M 254.665376 3.236596 
L 246.056308 -43.219931 
L 256.007127 -55.941948 
L 264.531723 -9.242932 
z
" clip-path="url(#pb80cbf1942)" style="fill: #0000f5; fill-opacity: 0.1"/>
    <path d="M 206.718285 7.073322 
L 197.590356 -39.396494 
L 207.437996 -52.124282 
L 216.483657 -5.411605 
z
" clip-path="url(#pb80cbf1942)" style="fill: #0000f5; fill-opacity: 0.1"/>
    <path d="M 312.469241 -13.065444 
L 304.463325 -59.750737 
L 314.564436 -72.527207 
L 322.482784 -25.598026 
z
" clip-path="url(#pb80cbf1942)" style="fill: #0000f5; fill-opacity: 0.1"/>
    <path d="M 158.660755 10.918886 
L 149.011584 -35.564157 
L 158.755536 -48.297709 
L 168.324661 -1.571432 
z
" clip-path="url(#pb80cbf1942)" style="fill: #0000f5; fill-opacity: 0.1"/>
    <path d="M 264.531723 -9.242932 
L 256.007127 -55.941948 
L 266.005132 -68.724294 
L 274.444363 -21.781014 
z
" clip-path="url(#pb80cbf1942)" style="fill: #0000f5; fill-opacity: 0.1"/>
    <path d="M 110.492405 14.773317 
L 100.319599 -31.722889 
L 109.959352 -44.462196 
L 120.054349 2.277617 
z
" clip-path="url(#pb80cbf1942)" style="fill: #0000f5; fill-opacity: 0.1"/>
    <path d="M 216.483657 -5.411605 
L 207.437996 -52.124282 
L 217.332387 -64.912496 
L 226.294902 -17.955179 
z
" clip-path="url(#pb80cbf1942)" style="fill: #0000f5; fill-opacity: 0.1"/>
    <path d="M 322.482784 -25.598026 
L 314.564436 -72.527207 
L 324.713504 -85.364336 
L 332.543367 -38.189481 
z
" clip-path="url(#pb80cbf1942)" style="fill: #0000f5; fill-opacity: 0.1"/>
    <path d="M 168.324661 -1.571432 
L 158.755536 -48.297709 
L 168.545803 -61.091784 
L 178.034015 -14.12049 
z
" clip-path="url(#pb80cbf1942)" style="fill: #0000f5; fill-opacity: 0.1"/>
    <path d="M 274.444363 -21.781014 
L 266.005132 -68.724294 
L 276.050661 -81.567398 
L 284.403624 -34.378063 
z
" clip-path="url(#pb80cbf1942)" style="fill: #0000f5; fill-opacity: 0.1"/>
    <path d="M 120.054349 2.277617 
L 109.959352 -44.462196 
L 119.644978 -57.262124 
L 129.661314 -10.276917 
z
" clip-path="url(#pb80cbf1942)" style="fill: #0000f5; fill-opacity: 0.1"/>
    <path d="M 226.294902 -17.955179 
L 217.332387 -64.912496 
L 227.273865 -77.761568 
L 236.152343 -30.557815 
z
" clip-path="url(#pb80cbf1942)" style="fill: #0000f5; fill-opacity: 0.1"/>
    <path d="M 178.034015 -14.12049 
L 168.545803 -61.091784 
L 178.382714 -73.946815 
L 187.789138 -26.728704 
z
" clip-path="url(#pb80cbf1942)" style="fill: #0000f5; fill-opacity: 0.1"/>
    <path d="M 284.403624 -34.378063 
L 276.050661 -81.567398 
L 286.144053 -94.471694 
L 294.409833 -47.034498 
z
" clip-path="url(#pb80cbf1942)" style="fill: #0000f5; fill-opacity: 0.1"/>
    <path d="M 129.661314 -10.276917 
L 119.644978 -57.262124 
L 129.376805 -70.123109 
L 139.313619 -22.890702 
z
" clip-path="url(#pb80cbf1942)" style="fill: #0000f5; fill-opacity: 0.1"/>
    <path d="M 236.152343 -30.557815 
L 227.273865 -77.761568 
L 237.262765 -90.671932 
L 246.056308 -43.219931 
z
" clip-path="url(#pb80cbf1942)" style="fill: #0000f5; fill-opacity: 0.1"/>
    <path d="M 187.789138 -26.728704 
L 178.382714 -73.946815 
L 188.266604 -86.86324 
L 197.590356 -39.396494 
z
" clip-path="url(#pb80cbf1942)" style="fill: #0000f5; fill-opacity: 0.1"/>
    <path d="M 294.409833 -47.034498 
L 286.144053 -94.471694 
L 296.285651 -107.437621 
L 304.463325 -59.750737 
z
" clip-path="url(#pb80cbf1942)" style="fill: #0000f5; fill-opacity: 0.1"/>
    <path d="M 139.313619 -22.890702 
L 129.376805 -70.123109 
L 139.155164 -83.045587 
L 149.011584 -35.564157 
z
" clip-path="url(#pb80cbf1942)" style="fill: #0000f5; fill-opacity: 0.1"/>
    <path d="M 246.056308 -43.219931 
L 237.262765 -90.671932 
L 247.299428 -103.644028 
L 256.007127 -55.941948 
z
" clip-path="url(#pb80cbf1942)" style="fill: #0000f5; fill-opacity: 0.1"/>
    <path d="M 197.590356 -39.396494 
L 188.266604 -86.86324 
L 198.197811 -99.841498 
L 207.437996 -52.124282 
z
" clip-path="url(#pb80cbf1942)" style="fill: #0000f5; fill-opacity: 0.1"/>
    <path d="M 304.463325 -59.750737 
L 296.285651 -107.437621 
L 306.4758 -120.465621 
L 314.564436 -72.527207 
z
" clip-path="url(#pb80cbf1942)" style="fill: #0000f5; fill-opacity: 0.1"/>
    <path d="M 149.011584 -35.564157 
L 139.155164 -83.045587 
L 148.980389 -96.030001 
L 158.755536 -48.297709 
z
" clip-path="url(#pb80cbf1942)" style="fill: #0000f5; fill-opacity: 0.1"/>
    <path d="M 256.007127 -55.941948 
L 247.299428 -103.644028 
L 257.384198 -116.6783 
L 266.005132 -68.724294 
z
" clip-path="url(#pb80cbf1942)" style="fill: #0000f5; fill-opacity: 0.1"/>
    <path d="M 207.437996 -52.124282 
L 198.197811 -99.841498 
L 208.176674 -112.882036 
L 217.332387 -64.912496 
z
" clip-path="url(#pb80cbf1942)" style="fill: #0000f5; fill-opacity: 0.1"/>
    <path d="M 314.564436 -72.527207 
L 306.4758 -120.465621 
L 316.714852 -133.556141 
L 324.713504 -85.364336 
z
" clip-path="url(#pb80cbf1942)" style="fill: #0000f5; fill-opacity: 0.1"/>
    <path d="M 158.755536 -48.297709 
L 148.980389 -96.030001 
L 158.852819 -109.076797 
L 168.545803 -61.091784 
z
" clip-path="url(#pb80cbf1942)" style="fill: #0000f5; fill-opacity: 0.1"/>
    <path d="M 266.005132 -68.724294 
L 257.384198 -116.6783 
L 267.517421 -129.775196 
L 276.050661 -81.567398 
z
" clip-path="url(#pb80cbf1942)" style="fill: #0000f5; fill-opacity: 0.1"/>
    <path d="M 217.332387 -64.912496 
L 208.176674 -112.882036 
L 218.203539 -125.985302 
L 227.273865 -77.761568 
z
" clip-path="url(#pb80cbf1942)" style="fill: #0000f5; fill-opacity: 0.1"/>
    <path d="M 168.545803 -61.091784 
L 158.852819 -109.076797 
L 168.772793 -122.186427 
L 178.382714 -73.946815 
z
" clip-path="url(#pb80cbf1942)" style="fill: #0000f5; fill-opacity: 0.1"/>
    <path d="M 276.050661 -81.567398 
L 267.517421 -129.775196 
L 277.699447 -142.935169 
L 286.144053 -94.471694 
z
" clip-path="url(#pb80cbf1942)" style="fill: #0000f5; fill-opacity: 0.1"/>
    <path d="M 227.273865 -77.761568 
L 218.203539 -125.985302 
L 228.278752 -139.15175 
L 237.262765 -90.671932 
z
" clip-path="url(#pb80cbf1942)" style="fill: #0000f5; fill-opacity: 0.1"/>
    <path d="M 178.382714 -73.946815 
L 168.772793 -122.186427 
L 178.740658 -135.359344 
L 188.266604 -86.86324 
z
" clip-path="url(#pb80cbf1942)" style="fill: #0000f5; fill-opacity: 0.1"/>
    <path d="M 286.144053 -94.471694 
L 277.699447 -142.935169 
L 287.930629 -156.158676 
L 296.285651 -107.437621 
z
" clip-path="url(#pb80cbf1942)" style="fill: #0000f5; fill-opacity: 0.1"/>
    <path d="M 237.262765 -90.671932 
L 228.278752 -139.15175 
L 238.402664 -152.381839 
L 247.299428 -103.644028 
z
" clip-path="url(#pb80cbf1942)" style="fill: #0000f5; fill-opacity: 0.1"/>
    <path d="M 188.266604 -86.86324 
L 178.740658 -135.359344 
L 188.756759 -148.596008 
L 198.197811 -99.841498 
z
" clip-path="url(#pb80cbf1942)" style="fill: #0000f5; fill-opacity: 0.1"/>
    <path d="M 296.285651 -107.437621 
L 287.930629 -156.158676 
L 298.211325 -169.446177 
L 306.4758 -120.465621 
z
" clip-path="url(#pb80cbf1942)" style="fill: #0000f5; fill-opacity: 0.1"/>
    <path d="M 247.299428 -103.644028 
L 238.402664 -152.381839 
L 248.575628 -165.67603 
L 257.384198 -116.6783 
z
" clip-path="url(#pb80cbf1942)" style="fill: #0000f5; fill-opacity: 0.1"/>
    <path d="M 198.197811 -99.841498 
L 188.756759 -148.596008 
L 198.821449 -161.896884 
L 208.176674 -112.882036 
z
" clip-path="url(#pb80cbf1942)" style="fill: #0000f5; fill-opacity: 0.1"/>
    <path d="M 306.4758 -120.465621 
L 298.211325 -169.446177 
L 308.541894 -182.798138 
L 316.714852 -133.556141 
z
" clip-path="url(#pb80cbf1942)" style="fill: #0000f5; fill-opacity: 0.1"/>
    <path d="M 257.384198 -116.6783 
L 248.575628 -165.67603 
L 258.798002 -179.034791 
L 267.517421 -129.775196 
z
" clip-path="url(#pb80cbf1942)" style="fill: #0000f5; fill-opacity: 0.1"/>
    <path d="M 208.176674 -112.882036 
L 198.821449 -161.896884 
L 208.935081 -175.262439 
L 218.203539 -125.985302 
z
" clip-path="url(#pb80cbf1942)" style="fill: #0000f5; fill-opacity: 0.1"/>
    <path d="M 267.517421 -129.775196 
L 258.798002 -179.034791 
L 269.070148 -192.458593 
L 277.699447 -142.935169 
z
" clip-path="url(#pb80cbf1942)" style="fill: #0000f5; fill-opacity: 0.1"/>
    <path d="M 218.203539 -125.985302 
L 208.935081 -175.262439 
L 219.098014 -188.693146 
L 228.278752 -139.15175 
z
" clip-path="url(#pb80cbf1942)" style="fill: #0000f5; fill-opacity: 0.1"/>
    <path d="M 277.699447 -142.935169 
L 269.070148 -192.458593 
L 279.392428 -205.947913 
L 287.930629 -156.158676 
z
" clip-path="url(#pb80cbf1942)" style="fill: #0000f5; fill-opacity: 0.1"/>
    <path d="M 228.278752 -139.15175 
L 219.098014 -188.693146 
L 229.310608 -202.189484 
L 238.402664 -152.381839 
z
" clip-path="url(#pb80cbf1942)" style="fill: #0000f5; fill-opacity: 0.1"/>
    <path d="M 287.930629 -156.158676 
L 279.392428 -205.947913 
L 289.765211 -219.503231 
L 298.211325 -169.446177 
z
" clip-path="url(#pb80cbf1942)" style="fill: #0000f5; fill-opacity: 0.1"/>
    <path d="M 238.402664 -152.381839 
L 229.310608 -202.189484 
L 239.57323 -215.751934 
L 248.575628 -165.67603 
z
" clip-path="url(#pb80cbf1942)" style="fill: #0000f5; fill-opacity: 0.1"/>
    <path d="M 298.211325 -169.446177 
L 289.765211 -219.503231 
L 300.18887 -233.125033 
L 308.541894 -182.798138 
z
" clip-path="url(#pb80cbf1942)" style="fill: #0000f5; fill-opacity: 0.1"/>
    <path d="M 248.575628 -165.67603 
L 239.57323 -215.751934 
L 249.886246 -229.380983 
L 258.798002 -179.034791 
z
" clip-path="url(#pb80cbf1942)" style="fill: #0000f5; fill-opacity: 0.1"/>
    <path d="M 258.798002 -179.034791 
L 249.886246 -229.380983 
L 260.25003 -243.077123 
L 269.070148 -192.458593 
z
" clip-path="url(#pb80cbf1942)" style="fill: #0000f5; fill-opacity: 0.1"/>
    <path d="M 269.070148 -192.458593 
L 260.25003 -243.077123 
L 270.664957 -256.84085 
L 279.392428 -205.947913 
z
" clip-path="url(#pb80cbf1942)" style="fill: #0000f5; fill-opacity: 0.1"/>
    <path d="M 279.392428 -205.947913 
L 270.664957 -256.84085 
L 281.131406 -270.672667 
L 289.765211 -219.503231 
z
" clip-path="url(#pb80cbf1942)" style="fill: #0000f5; fill-opacity: 0.1"/>
    <path d="M 289.765211 -219.503231 
L 281.131406 -270.672667 
L 291.649762 -284.57308 
L 300.18887 -233.125033 
z
" clip-path="url(#pb80cbf1942)" style="fill: #0000f5; fill-opacity: 0.1"/>
   </g>
   <g id="legend_1">
    <g id="patch_6">
     <path d="M 357.840076 67.305115 
L 396.2 67.305115 
Q 398.2 67.305115 398.2 65.305115 
L 398.2 7 
Q 398.2 5 396.2 5 
L 357.840076 5 
Q 355.840076 5 355.840076 7 
L 355.840076 65.305115 
Q 355.840076 67.305115 357.840076 67.305115 
z
" style="fill: #ffffff; opacity: 0.8; stroke: #cccccc; stroke-linejoin: miter"/>
    </g>
    <g id="line2d_25">
     <path d="M 359.840076 12.5 
L 369.840076 12.5 
L 379.840076 12.5 
" style="fill: none; stroke: #ff0000; stroke-width: 1.5; stroke-linecap: square"/>
    </g>
    <g id="text_21">
     <!-- $\vec{a}$ -->
     <g transform="translate(387.840076 16)scale(0.1 -0.1)">
      <defs>
       <path id="CMMI12-7e" d="M 3424 3835 
C 3347 3764 3110 3540 3110 3451 
C 3110 3387 3168 3329 3232 3329 
C 3290 3329 3315 3368 3360 3432 
C 3514 3624 3686 3745 3834 3828 
C 3898 3867 3942 3886 3942 3956 
C 3942 4014 3891 4046 3853 4078 
C 3674 4200 3629 4372 3610 4449 
C 3590 4500 3571 4577 3482 4577 
C 3443 4577 3366 4552 3366 4456 
C 3366 4398 3405 4244 3526 4072 
L 1376 4072 
C 1267 4072 1158 4072 1158 3950 
C 1158 3835 1274 3835 1376 3835 
L 3424 3835 
z
" transform="scale(0.015625)"/>
       <path id="CMMI12-61" d="M 1926 760 
C 1894 651 1894 639 1805 517 
C 1664 338 1382 64 1082 64 
C 819 64 672 300 672 677 
C 672 1028 870 1743 992 2012 
C 1210 2459 1510 2689 1760 2689 
C 2182 2689 2266 2165 2266 2114 
C 2266 2108 2246 2024 2240 2012 
L 1926 760 
z
M 2336 2395 
C 2266 2561 2093 2816 1760 2816 
C 1037 2816 256 1884 256 939 
C 256 307 627 -64 1062 -64 
C 1414 -64 1715 211 1894 422 
C 1958 45 2259 -64 2451 -64 
C 2643 -64 2797 51 2912 281 
C 3014 498 3104 888 3104 913 
C 3104 945 3078 971 3040 971 
C 2982 971 2976 939 2950 843 
C 2854 466 2733 64 2470 64 
C 2285 64 2272 230 2272 358 
C 2272 505 2291 575 2349 824 
C 2394 984 2426 1124 2477 1309 
C 2714 2267 2771 2497 2771 2535 
C 2771 2625 2701 2695 2605 2695 
C 2400 2695 2349 2472 2336 2395 
z
" transform="scale(0.015625)"/>
      </defs>
      <use xlink:href="#CMMI12-7e" transform="scale(0.996264)"/>
      <use xlink:href="#CMMI12-61" transform="translate(6.445738 0)scale(0.996264)"/>
     </g>
    </g>
    <g id="line2d_26">
     <path d="M 359.840076 27.24679 
L 369.840076 27.24679 
L 379.840076 27.24679 
" style="fill: none; stroke: #00ff00; stroke-width: 1.5; stroke-linecap: square"/>
    </g>
    <g id="text_22">
     <!-- $\vec{b}$ -->
     <g transform="translate(387.840076 30.74679)scale(0.1 -0.1)">
      <defs>
       <path id="CMMI12-62" d="M 1478 4257 
C 1485 4283 1498 4321 1498 4352 
C 1498 4416 1434 4416 1421 4416 
C 1414 4416 1184 4393 1069 4377 
C 960 4377 864 4358 749 4358 
C 595 4345 550 4339 550 4224 
C 550 4160 614 4160 678 4160 
C 1005 4160 1005 4103 1005 4040 
C 1005 3996 954 3811 928 3696 
L 774 3085 
C 710 2831 346 1387 320 1272 
C 288 1114 288 1005 288 922 
C 288 274 653 -64 1069 -64 
C 1811 -64 2579 888 2579 1814 
C 2579 2401 2246 2816 1766 2816 
C 1434 2816 1133 2542 1011 2414 
L 1478 4257 
z
M 1075 64 
C 870 64 646 217 646 715 
C 646 926 666 1047 781 1494 
C 800 1577 902 1986 928 2069 
C 941 2120 1318 2689 1754 2689 
C 2035 2689 2163 2408 2163 2076 
C 2163 1769 1984 1047 1824 715 
C 1664 370 1370 64 1075 64 
z
" transform="scale(0.015625)"/>
      </defs>
      <use xlink:href="#CMMI12-7e" transform="translate(0 26.29016)scale(0.996264)"/>
      <use xlink:href="#CMMI12-62" transform="translate(11.311737 0)scale(0.996264)"/>
     </g>
    </g>
    <g id="line2d_27">
     <path d="M 359.840076 41.183968 
L 369.840076 41.183968 
L 379.840076 41.183968 
" style="fill: none; stroke: #0016ff; stroke-width: 1.5; stroke-linecap: square"/>
    </g>
    <g id="text_23">
     <!-- $\vec{c}$ -->
     <g transform="translate(387.840076 44.683968)scale(0.1 -0.1)">
      <defs>
       <path id="CMMI12-63" d="M 2502 2431 
C 2381 2431 2323 2431 2234 2355 
C 2195 2323 2125 2227 2125 2125 
C 2125 1997 2221 1920 2342 1920 
C 2496 1920 2669 2044 2669 2292 
C 2669 2588 2374 2816 1933 2816 
C 1094 2816 256 1903 256 996 
C 256 441 602 -64 1254 -64 
C 2125 -64 2675 622 2675 706 
C 2675 744 2637 776 2611 776 
C 2592 776 2586 770 2528 713 
C 2118 162 1510 64 1267 64 
C 826 64 685 446 685 764 
C 685 988 794 1605 1024 2039 
C 1190 2338 1536 2682 1939 2682 
C 2022 2682 2374 2682 2502 2431 
z
" transform="scale(0.015625)"/>
      </defs>
      <use xlink:href="#CMMI12-7e" transform="scale(0.996264)"/>
      <use xlink:href="#CMMI12-63" transform="translate(5.638615 0)scale(0.996264)"/>
     </g>
    </g>
    <g id="line2d_28">
     <path d="M 359.840076 57.867937 
L 369.840076 57.867937 
L 379.840076 57.867937 
" style="fill: none; stroke: #f400ff; stroke-width: 1.5; stroke-linecap: square"/>
    </g>
    <g id="text_24">
     <!-- $\vec{f}$ -->
     <g transform="translate(387.840076 61.367937)scale(0.1 -0.1)">
      <defs>
       <path id="CMMI12-66" d="M 2854 2566 
C 2982 2566 3034 2566 3034 2688 
C 3034 2752 2982 2752 2867 2752 
L 2349 2752 
C 2470 3429 2560 3897 2611 4107 
C 2650 4265 2784 4416 2950 4416 
C 3085 4416 3219 4358 3283 4298 
C 3034 4272 2957 4082 2957 3969 
C 2957 3837 3053 3759 3174 3759 
C 3302 3759 3494 3870 3494 4119 
C 3494 4393 3226 4544 2944 4544 
C 2669 4544 2400 4334 2272 4078 
C 2157 3848 2093 3611 1946 2752 
L 1517 2752 
C 1395 2752 1331 2752 1331 2637 
C 1331 2566 1370 2566 1498 2566 
L 1907 2566 
C 1792 1976 1530 542 1382 -137 
C 1274 -689 1178 -1152 858 -1152 
C 838 -1152 653 -1152 538 -1031 
C 864 -1005 864 -726 864 -720 
C 864 -593 768 -517 646 -517 
C 518 -517 326 -625 326 -867 
C 326 -1140 608 -1280 858 -1280 
C 1510 -1280 1779 -118 1850 199 
C 1965 688 2278 2376 2310 2566 
L 2854 2566 
z
" transform="scale(0.015625)"/>
      </defs>
      <use xlink:href="#CMMI12-7e" transform="translate(13.568792 26.29016)scale(0.996264)"/>
      <use xlink:href="#CMMI12-66" transform="scale(0.996264)"/>
     </g>
    </g>
   </g>
  </g>
 </g>
 <defs>
  <clipPath id="pb80cbf1942">
   <rect x="57.6" y="0" width="345.6" height="345.6"/>
  </clipPath>
 </defs>
</svg>
