<?xml version="1.0" encoding="utf-8" standalone="no"?>
<!DOCTYPE svg PUBLIC "-//W3C//DTD SVG 1.1//EN"
  "http://www.w3.org/Graphics/SVG/1.1/DTD/svg11.dtd">
<svg xmlns:xlink="http://www.w3.org/1999/xlink" width="460.8pt" height="345.6pt" viewBox="0 0 460.8 345.6" xmlns="http://www.w3.org/2000/svg" version="1.1">
 <metadata>
  <rdf:RDF xmlns:dc="http://purl.org/dc/elements/1.1/" xmlns:cc="http://creativecommons.org/ns#" xmlns:rdf="http://www.w3.org/1999/02/22-rdf-syntax-ns#">
   <cc:Work>
    <dc:type rdf:resource="http://purl.org/dc/dcmitype/StillImage"/>
    <dc:date>2022-07-12T15:50:51.793997</dc:date>
    <dc:format>image/svg+xml</dc:format>
    <dc:creator>
     <cc:Agent>
      <dc:title>Matplotlib v3.5.1, https://matplotlib.org/</dc:title>
     </cc:Agent>
    </dc:creator>
   </cc:Work>
  </rdf:RDF>
 </metadata>
 <defs>
  <style type="text/css">*{stroke-linejoin: round; stroke-linecap: butt}</style>
 </defs>
 <g id="figure_1">
  <g id="patch_1">
   <path d="M 0 345.6 
L 460.8 345.6 
L 460.8 0 
L 0 0 
z
" style="fill: #ffffff"/>
  </g>
  <g id="patch_2">
   <path d="M 57.6 345.6 
L 403.2 345.6 
L 403.2 0 
L 57.6 0 
z
" style="fill: #ffffff"/>
  </g>
  <g id="pane3d_1">
   <g id="patch_3">
    <path d="M 197.429949 245.256182 
L 383.72921 249.749152 
L 383.72921 86.510307 
L 197.429949 91.003278 
" style="fill: #f2f2f2; opacity: 0.5; stroke: #f2f2f2; stroke-linejoin: miter"/>
   </g>
  </g>
  <g id="pane3d_2">
   <g id="patch_4">
    <path d="M 197.429949 245.256182 
L 79.789323 253.384887 
L 79.789323 82.874573 
L 197.429949 91.003278 
" style="fill: #e6e6e6; opacity: 0.5; stroke: #e6e6e6; stroke-linejoin: miter"/>
   </g>
  </g>
  <g id="pane3d_3">
   <g id="patch_5">
    <path d="M 197.429949 245.256182 
L 79.789323 253.384887 
L 279.373507 258.908749 
L 383.72921 249.749152 
" style="fill: #ececec; opacity: 0.5; stroke: #ececec; stroke-linejoin: miter"/>
   </g>
  </g>
  <g id="axis3d_1">
   <g id="line2d_1">
    <path d="M 383.72921 249.749152 
L 279.373507 258.908749 
" style="fill: none; stroke: #000000; stroke-width: 0.8; stroke-linecap: square"/>
   </g>
   <g id="text_1">
    <!-- x -->
    <g transform="translate(359.413976 282.891221)scale(0.16 -0.16)">
     <defs>
      <path id="CMSS17-78" d="M 1587 1414 
L 2656 2739 
L 2099 2739 
L 1363 1777 
L 602 2739 
L 32 2739 
L 1139 1414 
L 0 0 
L 563 0 
L 1363 1121 
L 2195 0 
L 2758 0 
L 1587 1414 
z
" transform="scale(0.015625)"/>
     </defs>
     <use xlink:href="#CMSS17-78" transform="scale(0.996264)"/>
    </g>
   </g>
   <g id="Line3DCollection_1">
    <path d="M 381.848891 249.914193 
L 195.297401 245.403536 
L 195.297401 90.855923 
" style="fill: none; stroke: #b0b0b0; stroke-width: 0.8"/>
    <path d="M 363.403264 251.533219 
L 174.40258 246.847322 
L 174.40258 89.412138 
" style="fill: none; stroke: #b0b0b0; stroke-width: 0.8"/>
    <path d="M 344.212578 253.21764 
L 152.712094 248.346086 
L 152.712094 87.913374 
" style="fill: none; stroke: #b0b0b0; stroke-width: 0.8"/>
    <path d="M 324.230763 254.9715 
L 130.179614 249.90303 
L 130.179614 86.35643 
" style="fill: none; stroke: #b0b0b0; stroke-width: 0.8"/>
    <path d="M 303.407867 256.799185 
L 106.755141 251.521609 
L 106.755141 84.737851 
" style="fill: none; stroke: #b0b0b0; stroke-width: 0.8"/>
    <path d="M 281.689645 258.705455 
L 82.384639 253.205556 
L 82.384639 83.053903 
" style="fill: none; stroke: #b0b0b0; stroke-width: 0.8"/>
   </g>
   <g id="xtick_1">
    <g id="line2d_2">
     <path d="M 380.270101 249.87602 
L 385.0109 249.990648 
" style="fill: none; stroke: #000000; stroke-width: 0.8; stroke-linecap: square"/>
    </g>
    <g id="text_2">
     <!-- $\mathdefault{0}$ -->
     <g transform="translate(392.019726 267.628192)scale(0.1 -0.1)">
      <defs>
       <path id="CMR17-30" d="M 2688 2025 
C 2688 2416 2682 3080 2413 3591 
C 2176 4039 1798 4198 1466 4198 
C 1158 4198 768 4058 525 3597 
C 269 3118 243 2524 243 2025 
C 243 1661 250 1106 448 619 
C 723 -39 1216 -128 1466 -128 
C 1760 -128 2208 -7 2470 600 
C 2662 1042 2688 1559 2688 2025 
z
M 1466 -26 
C 1056 -26 813 325 723 812 
C 653 1188 653 1738 653 2096 
C 653 2588 653 2997 736 3387 
C 858 3929 1216 4096 1466 4096 
C 1728 4096 2067 3923 2189 3400 
C 2272 3036 2278 2607 2278 2096 
C 2278 1680 2278 1169 2202 792 
C 2067 95 1690 -26 1466 -26 
z
" transform="scale(0.015625)"/>
      </defs>
      <use xlink:href="#CMR17-30" transform="scale(0.996264)"/>
     </g>
    </g>
   </g>
   <g id="xtick_2">
    <g id="line2d_3">
     <path d="M 361.802014 251.493519 
L 366.610342 251.612732 
" style="fill: none; stroke: #000000; stroke-width: 0.8; stroke-linecap: square"/>
    </g>
    <g id="text_3">
     <!-- $\mathdefault{1}$ -->
     <g transform="translate(373.755285 269.467924)scale(0.1 -0.1)">
      <defs>
       <path id="CMR17-31" d="M 1702 4058 
C 1702 4192 1696 4192 1606 4192 
C 1357 3916 979 3827 621 3827 
C 602 3827 570 3827 563 3808 
C 557 3795 557 3782 557 3648 
C 755 3648 1088 3686 1344 3839 
L 1344 461 
C 1344 236 1331 160 781 160 
L 589 160 
L 589 0 
C 896 0 1216 0 1523 0 
C 1830 0 2150 0 2458 0 
L 2458 160 
L 2266 160 
C 1715 160 1702 230 1702 458 
L 1702 4058 
z
" transform="scale(0.015625)"/>
      </defs>
      <use xlink:href="#CMR17-31" transform="scale(0.996264)"/>
     </g>
    </g>
   </g>
   <g id="xtick_3">
    <g id="line2d_4">
     <path d="M 342.588325 253.176321 
L 347.465825 253.300399 
" style="fill: none; stroke: #000000; stroke-width: 0.8; stroke-linecap: square"/>
    </g>
    <g id="text_4">
     <!-- $\mathdefault{2}$ -->
     <g transform="translate(354.750232 271.382257)scale(0.1 -0.1)">
      <defs>
       <path id="CMR17-32" d="M 2669 989 
L 2554 989 
C 2490 536 2438 459 2413 420 
C 2381 369 1920 369 1830 369 
L 602 369 
C 832 619 1280 1072 1824 1597 
C 2214 1967 2669 2402 2669 3035 
C 2669 3790 2067 4224 1395 4224 
C 691 4224 262 3604 262 3030 
C 262 2780 448 2748 525 2748 
C 589 2748 781 2787 781 3010 
C 781 3207 614 3264 525 3264 
C 486 3264 448 3258 422 3245 
C 544 3790 915 4058 1306 4058 
C 1862 4058 2227 3617 2227 3035 
C 2227 2479 1901 2000 1536 1584 
L 262 146 
L 262 0 
L 2515 0 
L 2669 989 
z
" transform="scale(0.015625)"/>
      </defs>
      <use xlink:href="#CMR17-32" transform="scale(0.996264)"/>
     </g>
    </g>
   </g>
   <g id="xtick_4">
    <g id="line2d_5">
     <path d="M 322.58295 254.928461 
L 327.531297 255.057708 
" style="fill: none; stroke: #000000; stroke-width: 0.8; stroke-linecap: square"/>
    </g>
    <g id="text_5">
     <!-- $\mathdefault{3}$ -->
     <g transform="translate(334.958587 273.375821)scale(0.1 -0.1)">
      <defs>
       <path id="CMR17-33" d="M 1414 2157 
C 1984 2157 2234 1662 2234 1090 
C 2234 320 1824 25 1453 25 
C 1114 25 563 194 390 693 
C 422 680 454 680 486 680 
C 640 680 755 782 755 948 
C 755 1133 614 1216 486 1216 
C 378 1216 211 1165 211 926 
C 211 335 787 -128 1466 -128 
C 2176 -128 2720 430 2720 1085 
C 2720 1707 2208 2157 1600 2227 
C 2086 2328 2554 2756 2554 3329 
C 2554 3820 2048 4179 1472 4179 
C 890 4179 378 3829 378 3329 
C 378 3110 544 3072 627 3072 
C 762 3072 877 3155 877 3321 
C 877 3486 762 3569 627 3569 
C 602 3569 570 3569 544 3557 
C 730 3959 1235 4032 1459 4032 
C 1683 4032 2106 3925 2106 3320 
C 2106 3143 2080 2828 1862 2550 
C 1670 2304 1453 2304 1242 2284 
C 1210 2284 1062 2269 1037 2269 
C 992 2263 966 2257 966 2208 
C 966 2163 973 2157 1101 2157 
L 1414 2157 
z
" transform="scale(0.015625)"/>
      </defs>
      <use xlink:href="#CMR17-33" transform="scale(0.996264)"/>
     </g>
    </g>
   </g>
   <g id="xtick_5">
    <g id="line2d_6">
     <path d="M 301.735928 256.754315 
L 306.756829 256.889061 
" style="fill: none; stroke: #000000; stroke-width: 0.8; stroke-linecap: square"/>
    </g>
    <g id="text_6">
     <!-- $\mathdefault{4}$ -->
     <g transform="translate(314.330484 275.453639)scale(0.1 -0.1)">
      <defs>
       <path id="CMR17-34" d="M 2150 4122 
C 2150 4256 2144 4256 2029 4256 
L 128 1254 
L 128 1088 
L 1779 1088 
L 1779 457 
C 1779 224 1766 160 1318 160 
L 1197 160 
L 1197 0 
C 1402 0 1747 0 1965 0 
C 2182 0 2528 0 2733 0 
L 2733 160 
L 2611 160 
C 2163 160 2150 224 2150 457 
L 2150 1088 
L 2803 1088 
L 2803 1254 
L 2150 1254 
L 2150 4122 
z
M 1798 3703 
L 1798 1254 
L 256 1254 
L 1798 3703 
z
" transform="scale(0.015625)"/>
      </defs>
      <use xlink:href="#CMR17-34" transform="scale(0.996264)"/>
     </g>
    </g>
   </g>
   <g id="xtick_6">
    <g id="line2d_7">
     <path d="M 279.993007 258.658636 
L 285.088192 258.79924 
" style="fill: none; stroke: #000000; stroke-width: 0.8; stroke-linecap: square"/>
    </g>
    <g id="text_7">
     <!-- $\mathdefault{5}$ -->
     <g transform="translate(292.811752 277.621168)scale(0.1 -0.1)">
      <defs>
       <path id="CMR17-35" d="M 730 3692 
C 794 3666 1056 3584 1325 3584 
C 1920 3584 2246 3911 2432 4100 
C 2432 4157 2432 4192 2394 4192 
C 2387 4192 2374 4192 2323 4163 
C 2099 4058 1837 3973 1517 3973 
C 1325 3973 1037 3999 723 4139 
C 653 4171 640 4171 634 4171 
C 602 4171 595 4164 595 4037 
L 595 2203 
C 595 2089 595 2057 659 2057 
C 691 2057 704 2070 736 2114 
C 941 2401 1222 2522 1542 2522 
C 1766 2522 2246 2382 2246 1289 
C 2246 1085 2246 715 2054 421 
C 1894 159 1645 25 1370 25 
C 947 25 518 320 403 814 
C 429 807 480 795 506 795 
C 589 795 749 840 749 1038 
C 749 1210 627 1280 506 1280 
C 358 1280 262 1190 262 1011 
C 262 454 704 -128 1382 -128 
C 2042 -128 2669 440 2669 1264 
C 2669 2030 2170 2624 1549 2624 
C 1222 2624 947 2503 730 2274 
L 730 3692 
z
" transform="scale(0.015625)"/>
      </defs>
      <use xlink:href="#CMR17-35" transform="scale(0.996264)"/>
     </g>
    </g>
   </g>
  </g>
  <g id="axis3d_2">
   <g id="line2d_8">
    <path d="M 79.789323 253.384887 
L 279.373507 258.908749 
" style="fill: none; stroke: #000000; stroke-width: 0.8; stroke-linecap: square"/>
   </g>
   <g id="text_8">
    <!-- y -->
    <g transform="translate(155.448485 286.192609)scale(0.16 -0.16)">
     <defs>
      <path id="CMSS17-79" d="M 2675 2752 
L 2176 2752 
C 1632 1294 1446 702 1434 383 
L 1427 383 
C 1408 696 1126 1460 902 2007 
L 602 2752 
L 83 2752 
L 1216 13 
C 1146 -178 1043 -465 1011 -529 
C 870 -885 774 -885 672 -885 
C 646 -885 442 -885 211 -809 
L 250 -1229 
C 410 -1261 570 -1280 685 -1280 
C 845 -1280 1165 -1280 1459 -497 
L 2675 2752 
z
" transform="scale(0.015625)"/>
     </defs>
     <use xlink:href="#CMSS17-79" transform="scale(0.996264)"/>
    </g>
   </g>
   <g id="Line3DCollection_2">
    <path d="M 217.982279 90.507618 
L 217.982279 245.751841 
L 101.686879 253.990942 
" style="fill: none; stroke: #b0b0b0; stroke-width: 0.8"/>
    <path d="M 252.586635 89.673067 
L 252.586635 246.586393 
L 138.62336 255.013228 
" style="fill: none; stroke: #b0b0b0; stroke-width: 0.8"/>
    <path d="M 287.943174 88.820375 
L 287.943174 247.439085 
L 176.44999 256.06015 
" style="fill: none; stroke: #b0b0b0; stroke-width: 0.8"/>
    <path d="M 324.076689 87.948944 
L 324.076689 248.310515 
L 215.199339 257.13261 
" style="fill: none; stroke: #b0b0b0; stroke-width: 0.8"/>
    <path d="M 361.013077 87.058151 
L 361.013077 249.201309 
L 254.905588 258.231554 
" style="fill: none; stroke: #b0b0b0; stroke-width: 0.8"/>
   </g>
   <g id="xtick_7">
    <g id="line2d_9">
     <path d="M 102.715121 253.918095 
L 99.625147 254.137008 
" style="fill: none; stroke: #000000; stroke-width: 0.8; stroke-linecap: square"/>
    </g>
    <g id="text_9">
     <!-- $\mathdefault{−4}$ -->
     <g transform="translate(87.047095 272.541739)scale(0.1 -0.1)">
      <defs>
       <path id="CMSY10-0" d="M 4218 1472 
C 4326 1472 4442 1472 4442 1600 
C 4442 1728 4326 1728 4218 1728 
L 755 1728 
C 646 1728 531 1728 531 1600 
C 531 1472 646 1472 755 1472 
L 4218 1472 
z
" transform="scale(0.015625)"/>
      </defs>
      <use xlink:href="#CMSY10-0" transform="scale(0.996264)"/>
      <use xlink:href="#CMR17-34" transform="translate(77.487468 0)scale(0.996264)"/>
     </g>
    </g>
   </g>
   <g id="xtick_8">
    <g id="line2d_10">
     <path d="M 139.632124 254.938636 
L 136.600623 255.162796 
" style="fill: none; stroke: #000000; stroke-width: 0.8; stroke-linecap: square"/>
    </g>
    <g id="text_10">
     <!-- $\mathdefault{−2}$ -->
     <g transform="translate(124.139589 273.710542)scale(0.1 -0.1)">
      <use xlink:href="#CMSY10-0" transform="scale(0.996264)"/>
      <use xlink:href="#CMR17-32" transform="translate(77.487468 0)scale(0.996264)"/>
     </g>
    </g>
   </g>
   <g id="xtick_9">
    <g id="line2d_11">
     <path d="M 177.438032 255.983751 
L 174.468741 256.213348 
" style="fill: none; stroke: #000000; stroke-width: 0.8; stroke-linecap: square"/>
    </g>
    <g id="text_11">
     <!-- $\mathdefault{0}$ -->
     <g transform="translate(166.006615 274.90771)scale(0.1 -0.1)">
      <use xlink:href="#CMR17-30" transform="scale(0.996264)"/>
     </g>
    </g>
   </g>
   <g id="xtick_10">
    <g id="line2d_12">
     <path d="M 216.165344 257.054337 
L 213.26222 257.289571 
" style="fill: none; stroke: #000000; stroke-width: 0.8; stroke-linecap: square"/>
    </g>
    <g id="text_12">
     <!-- $\mathdefault{2}$ -->
     <g transform="translate(204.932599 276.134287)scale(0.1 -0.1)">
      <use xlink:href="#CMR17-32" transform="scale(0.996264)"/>
     </g>
    </g>
   </g>
   <g id="xtick_11">
    <g id="line2d_13">
     <path d="M 255.848159 258.151337 
L 253.015397 258.392419 
" style="fill: none; stroke: #000000; stroke-width: 0.8; stroke-linecap: square"/>
    </g>
    <g id="text_13">
     <!-- $\mathdefault{4}$ -->
     <g transform="translate(244.826734 277.391372)scale(0.1 -0.1)">
      <use xlink:href="#CMR17-34" transform="scale(0.996264)"/>
     </g>
    </g>
   </g>
  </g>
  <g id="axis3d_3">
   <g id="line2d_14">
    <path d="M 79.789323 253.384887 
L 79.789323 82.874573 
" style="fill: none; stroke: #000000; stroke-width: 0.8; stroke-linecap: square"/>
   </g>
   <g id="text_14">
    <!-- z -->
    <g transform="translate(32.03512 172.114786)scale(0.16 -0.16)">
     <defs>
      <path id="CMSS17-7a" d="M 2400 2502 
L 2400 2750 
L 250 2750 
L 250 2368 
L 1069 2368 
C 1146 2368 1222 2368 1299 2368 
L 1747 2368 
L 166 261 
L 166 0 
L 2419 0 
L 2419 395 
L 1549 395 
C 1472 395 1395 395 1318 395 
L 826 395 
L 2400 2502 
z
" transform="scale(0.015625)"/>
     </defs>
     <use xlink:href="#CMSS17-7a" transform="scale(0.996264)"/>
    </g>
   </g>
   <g id="Line3DCollection_3">
    <path d="M 79.789323 249.97468 
L 197.429949 242.171124 
L 383.72921 246.484376 
" style="fill: none; stroke: #b0b0b0; stroke-width: 0.8"/>
    <path d="M 79.789323 217.2367 
L 197.429949 212.554566 
L 383.72921 215.142517 
" style="fill: none; stroke: #b0b0b0; stroke-width: 0.8"/>
    <path d="M 79.789323 184.49872 
L 197.429949 182.938008 
L 383.72921 183.800659 
" style="fill: none; stroke: #b0b0b0; stroke-width: 0.8"/>
    <path d="M 79.789323 151.76074 
L 197.429949 153.321451 
L 383.72921 152.458801 
" style="fill: none; stroke: #b0b0b0; stroke-width: 0.8"/>
    <path d="M 79.789323 119.022759 
L 197.429949 123.704893 
L 383.72921 121.116942 
" style="fill: none; stroke: #b0b0b0; stroke-width: 0.8"/>
    <path d="M 79.789323 86.284779 
L 197.429949 94.088336 
L 383.72921 89.775084 
" style="fill: none; stroke: #b0b0b0; stroke-width: 0.8"/>
   </g>
   <g id="xtick_12">
    <g id="line2d_15">
     <path d="M 80.828761 249.905731 
L 77.70518 250.11293 
" style="fill: none; stroke: #000000; stroke-width: 0.8; stroke-linecap: square"/>
    </g>
    <g id="text_15">
     <!-- $\mathdefault{0}$ -->
     <g transform="translate(56.957393 257.126768)scale(0.1 -0.1)">
      <use xlink:href="#CMR17-30" transform="scale(0.996264)"/>
     </g>
    </g>
   </g>
   <g id="xtick_13">
    <g id="line2d_16">
     <path d="M 80.828761 217.19533 
L 77.70518 217.31965 
" style="fill: none; stroke: #000000; stroke-width: 0.8; stroke-linecap: square"/>
    </g>
    <g id="text_16">
     <!-- $\mathdefault{1}$ -->
     <g transform="translate(56.957393 224.295352)scale(0.1 -0.1)">
      <use xlink:href="#CMR17-31" transform="scale(0.996264)"/>
     </g>
    </g>
   </g>
   <g id="xtick_14">
    <g id="line2d_17">
     <path d="M 80.828761 184.48493 
L 77.70518 184.52637 
" style="fill: none; stroke: #000000; stroke-width: 0.8; stroke-linecap: square"/>
    </g>
    <g id="text_17">
     <!-- $\mathdefault{2}$ -->
     <g transform="translate(56.957393 191.463936)scale(0.1 -0.1)">
      <use xlink:href="#CMR17-32" transform="scale(0.996264)"/>
     </g>
    </g>
   </g>
   <g id="xtick_15">
    <g id="line2d_18">
     <path d="M 80.828761 151.77453 
L 77.70518 151.73309 
" style="fill: none; stroke: #000000; stroke-width: 0.8; stroke-linecap: square"/>
    </g>
    <g id="text_18">
     <!-- $\mathdefault{3}$ -->
     <g transform="translate(56.957393 158.63252)scale(0.1 -0.1)">
      <use xlink:href="#CMR17-33" transform="scale(0.996264)"/>
     </g>
    </g>
   </g>
   <g id="xtick_16">
    <g id="line2d_19">
     <path d="M 80.828761 119.064129 
L 77.70518 118.93981 
" style="fill: none; stroke: #000000; stroke-width: 0.8; stroke-linecap: square"/>
    </g>
    <g id="text_19">
     <!-- $\mathdefault{4}$ -->
     <g transform="translate(56.957393 125.801104)scale(0.1 -0.1)">
      <use xlink:href="#CMR17-34" transform="scale(0.996264)"/>
     </g>
    </g>
   </g>
   <g id="xtick_17">
    <g id="line2d_20">
     <path d="M 80.828761 86.353729 
L 77.70518 86.14653 
" style="fill: none; stroke: #000000; stroke-width: 0.8; stroke-linecap: square"/>
    </g>
    <g id="text_20">
     <!-- $\mathdefault{5}$ -->
     <g transform="translate(56.957393 92.969688)scale(0.1 -0.1)">
      <use xlink:href="#CMR17-35" transform="scale(0.996264)"/>
     </g>
    </g>
   </g>
  </g>
  <g id="axes_1">
   <g id="line2d_21">
    <path d="M 285.927984 244.4163 
L 321.479025 89.060232 
" clip-path="url(#pfbc6f74617)" style="fill: none; stroke: #ff0000; stroke-width: 1.5; stroke-linecap: square"/>
   </g>
   <g id="line2d_22">
    <path d="M 285.927984 244.4163 
L 209.31547 121.095712 
" clip-path="url(#pfbc6f74617)" style="fill: none; stroke: #00ff00; stroke-width: 1.5; stroke-linecap: square"/>
   </g>
   <g id="line2d_23">
    <path d="M 285.927984 244.4163 
L 249.322843 -1 
" clip-path="url(#pfbc6f74617)" style="fill: none; stroke: #0016ff; stroke-width: 1.5; stroke-linecap: square"/>
   </g>
   <g id="line2d_24">
    <path d="M 285.927984 244.4163 
L 122.589205 151.582155 
" clip-path="url(#pfbc6f74617)" style="fill: none; stroke: #f400ff; stroke-width: 1.5; stroke-linecap: square"/>
   </g>
   <g id="Poly3DCollection_1">
    <path d="M 198.826546 353.791661 
L 188.496997 314.287884 
L 197.050115 303.406791 
L 207.32838 343.115705 
z
" clip-path="url(#pfbc6f74617)" style="fill: #0000f5; fill-opacity: 0.1"/>
    <path d="M 207.32838 343.115705 
L 197.050115 303.406791 
L 205.649235 292.467176 
L 215.875518 332.382858 
z
" clip-path="url(#pfbc6f74617)" style="fill: #0000f5; fill-opacity: 0.1"/>
    <path d="M 215.875518 332.382858 
L 205.649235 292.467176 
L 214.29473 281.468563 
L 224.468324 321.592666 
z
" clip-path="url(#pfbc6f74617)" style="fill: #0000f5; fill-opacity: 0.1"/>
    <path d="M 224.468324 321.592666 
L 214.29473 281.468563 
L 222.986975 270.410476 
L 233.107164 310.744668 
z
" clip-path="url(#pfbc6f74617)" style="fill: #0000f5; fill-opacity: 0.1"/>
    <path d="M 188.496997 314.287884 
L 177.974233 274.045187 
L 186.579074 262.95311 
L 197.050115 303.406791 
z
" clip-path="url(#pfbc6f74617)" style="fill: #0000f5; fill-opacity: 0.1"/>
    <path d="M 233.107164 310.744668 
L 222.986975 270.410476 
L 231.726351 259.29243 
L 241.79241 299.838397 
z
" clip-path="url(#pfbc6f74617)" style="fill: #0000f5; fill-opacity: 0.1"/>
    <path d="M 197.050115 303.406791 
L 186.579074 262.95311 
L 195.230631 251.800815 
L 205.649235 292.467176 
z
" clip-path="url(#pfbc6f74617)" style="fill: #0000f5; fill-opacity: 0.1"/>
    <path d="M 241.79241 299.838397 
L 231.726351 259.29243 
L 240.513243 248.113936 
L 250.524435 288.873383 
z
" clip-path="url(#pfbc6f74617)" style="fill: #0000f5; fill-opacity: 0.1"/>
    <path d="M 205.649235 292.467176 
L 195.230631 251.800815 
L 203.929285 240.587809 
L 214.29473 281.468563 
z
" clip-path="url(#pfbc6f74617)" style="fill: #0000f5; fill-opacity: 0.1"/>
    <path d="M 250.524435 288.873383 
L 240.513243 248.113936 
L 249.348038 236.8745 
L 259.303621 277.84915 
z
" clip-path="url(#pfbc6f74617)" style="fill: #0000f5; fill-opacity: 0.1"/>
    <path d="M 214.29473 281.468563 
L 203.929285 240.587809 
L 212.675421 229.313595 
L 222.986975 270.410476 
z
" clip-path="url(#pfbc6f74617)" style="fill: #0000f5; fill-opacity: 0.1"/>
    <path d="M 177.974233 274.045187 
L 167.252782 233.042642 
L 175.909782 221.73351 
L 186.579074 262.95311 
z
" clip-path="url(#pfbc6f74617)" style="fill: #0000f5; fill-opacity: 0.1"/>
    <path d="M 259.303621 277.84915 
L 249.348038 236.8745 
L 258.231129 225.573623 
L 268.130348 266.765217 
z
" clip-path="url(#pfbc6f74617)" style="fill: #0000f5; fill-opacity: 0.1"/>
    <path d="M 222.986975 270.410476 
L 212.675421 229.313595 
L 221.469431 217.977671 
L 231.726351 259.29243 
z
" clip-path="url(#pfbc6f74617)" style="fill: #0000f5; fill-opacity: 0.1"/>
    <path d="M 186.579074 262.95311 
L 175.909782 221.73351 
L 184.614228 210.362398 
L 195.230631 251.800815 
z
" clip-path="url(#pfbc6f74617)" style="fill: #0000f5; fill-opacity: 0.1"/>
    <path d="M 268.130348 266.765217 
L 258.231129 225.573623 
L 267.162914 214.210798 
L 277.005005 255.621097 
z
" clip-path="url(#pfbc6f74617)" style="fill: #0000f5; fill-opacity: 0.1"/>
    <path d="M 231.726351 259.29243 
L 221.469431 217.977671 
L 230.311707 206.579529 
L 240.513243 248.113936 
z
" clip-path="url(#pfbc6f74617)" style="fill: #0000f5; fill-opacity: 0.1"/>
    <path d="M 195.230631 251.800815 
L 184.614228 210.362398 
L 193.36651 198.928796 
L 203.929285 240.587809 
z
" clip-path="url(#pfbc6f74617)" style="fill: #0000f5; fill-opacity: 0.1"/>
    <path d="M 277.005005 255.621097 
L 267.162914 214.210798 
L 276.143794 202.785516 
L 285.927984 244.4163 
z
" clip-path="url(#pfbc6f74617)" style="fill: #0000f5; fill-opacity: 0.1"/>
    <path d="M 240.513243 248.113936 
L 230.311707 206.579529 
L 239.202648 195.118655 
L 249.348038 236.8745 
z
" clip-path="url(#pfbc6f74617)" style="fill: #0000f5; fill-opacity: 0.1"/>
    <path d="M 203.929285 240.587809 
L 193.36651 198.928796 
L 202.167023 187.432185 
L 212.675421 229.313595 
z
" clip-path="url(#pfbc6f74617)" style="fill: #0000f5; fill-opacity: 0.1"/>
    <path d="M 285.927984 244.4163 
L 276.143794 202.785516 
L 285.174176 191.297259 
L 294.899679 233.150328 
z
" clip-path="url(#pfbc6f74617)" style="fill: #0000f5; fill-opacity: 0.1"/>
    <path d="M 167.252782 233.042642 
L 156.326963 191.258524 
L 165.036556 179.726032 
L 175.909782 221.73351 
z
" clip-path="url(#pfbc6f74617)" style="fill: #0000f5; fill-opacity: 0.1"/>
    <path d="M 249.348038 236.8745 
L 239.202648 195.118655 
L 248.142657 183.594529 
L 258.231129 225.573623 
z
" clip-path="url(#pfbc6f74617)" style="fill: #0000f5; fill-opacity: 0.1"/>
    <path d="M 212.675421 229.313595 
L 202.167023 187.432185 
L 211.016167 175.872045 
L 221.469431 217.977671 
z
" clip-path="url(#pfbc6f74617)" style="fill: #0000f5; fill-opacity: 0.1"/>
    <path d="M 294.899679 233.150328 
L 285.174176 191.297259 
L 294.254468 179.745507 
L 303.920491 221.822678 
z
" clip-path="url(#pfbc6f74617)" style="fill: #0000f5; fill-opacity: 0.1"/>
    <path d="M 175.909782 221.73351 
L 165.036556 179.726032 
L 173.79434 168.12973 
L 184.614228 210.362398 
z
" clip-path="url(#pfbc6f74617)" style="fill: #0000f5; fill-opacity: 0.1"/>
    <path d="M 258.231129 225.573623 
L 248.142657 183.594529 
L 257.132142 172.006628 
L 267.162914 214.210798 
z
" clip-path="url(#pfbc6f74617)" style="fill: #0000f5; fill-opacity: 0.1"/>
    <path d="M 221.469431 217.977671 
L 211.016167 175.872045 
L 219.914347 164.247847 
L 230.311707 206.579529 
z
" clip-path="url(#pfbc6f74617)" style="fill: #0000f5; fill-opacity: 0.1"/>
    <path d="M 303.920491 221.822678 
L 294.254468 179.745507 
L 303.385087 168.12973 
L 312.990824 210.432844 
z
" clip-path="url(#pfbc6f74617)" style="fill: #0000f5; fill-opacity: 0.1"/>
    <path d="M 184.614228 210.362398 
L 173.79434 168.12973 
L 182.600715 156.469087 
L 193.36651 198.928796 
z
" clip-path="url(#pfbc6f74617)" style="fill: #0000f5; fill-opacity: 0.1"/>
    <path d="M 267.162914 214.210798 
L 257.132142 172.006628 
L 266.171513 160.354419 
L 276.143794 202.785516 
z
" clip-path="url(#pfbc6f74617)" style="fill: #0000f5; fill-opacity: 0.1"/>
    <path d="M 230.311707 206.579529 
L 219.914347 164.247847 
L 228.861971 152.559057 
L 239.202648 195.118655 
z
" clip-path="url(#pfbc6f74617)" style="fill: #0000f5; fill-opacity: 0.1"/>
    <path d="M 312.990824 210.432844 
L 303.385087 168.12973 
L 312.566452 156.449395 
L 322.111087 198.98031 
z
" clip-path="url(#pfbc6f74617)" style="fill: #0000f5; fill-opacity: 0.1"/>
    <path d="M 193.36651 198.928796 
L 182.600715 156.469087 
L 191.456088 144.743566 
L 202.167023 187.432185 
z
" clip-path="url(#pfbc6f74617)" style="fill: #0000f5; fill-opacity: 0.1"/>
    <path d="M 276.143794 202.785516 
L 266.171513 160.354419 
L 275.261189 148.637366 
L 285.174176 191.297259 
z
" clip-path="url(#pfbc6f74617)" style="fill: #0000f5; fill-opacity: 0.1"/>
    <path d="M 156.326963 191.258524 
L 145.190877 148.67027 
L 153.953492 136.907867 
L 165.036556 179.726032 
z
" clip-path="url(#pfbc6f74617)" style="fill: #0000f5; fill-opacity: 0.1"/>
    <path d="M 239.202648 195.118655 
L 228.861971 152.559057 
L 237.859452 140.805135 
L 248.142657 183.594529 
z
" clip-path="url(#pfbc6f74617)" style="fill: #0000f5; fill-opacity: 0.1"/>
    <path d="M 322.111087 198.98031 
L 312.566452 156.449395 
L 321.798987 144.703963 
L 331.281694 187.46456 
z
" clip-path="url(#pfbc6f74617)" style="fill: #0000f5; fill-opacity: 0.1"/>
    <path d="M 202.167023 187.432185 
L 191.456088 144.743566 
L 200.360868 132.952624 
L 211.016167 175.872045 
z
" clip-path="url(#pfbc6f74617)" style="fill: #0000f5; fill-opacity: 0.1"/>
    <path d="M 285.174176 191.297259 
L 275.261189 148.637366 
L 284.401589 136.854927 
L 294.254468 179.745507 
z
" clip-path="url(#pfbc6f74617)" style="fill: #0000f5; fill-opacity: 0.1"/>
    <path d="M 165.036556 179.726032 
L 153.953492 136.907867 
L 162.76506 125.079752 
L 173.79434 168.12973 
z
" clip-path="url(#pfbc6f74617)" style="fill: #0000f5; fill-opacity: 0.1"/>
    <path d="M 248.142657 183.594529 
L 237.859452 140.805135 
L 246.907209 128.985536 
L 257.132142 172.006628 
z
" clip-path="url(#pfbc6f74617)" style="fill: #0000f5; fill-opacity: 0.1"/>
    <path d="M 331.281694 187.46456 
L 321.798987 144.703963 
L 331.083121 132.892887 
L 340.503063 175.885066 
z
" clip-path="url(#pfbc6f74617)" style="fill: #0000f5; fill-opacity: 0.1"/>
    <path d="M 211.016167 175.872045 
L 200.360868 132.952624 
L 209.31547 121.095712 
L 219.914347 164.247847 
z
" clip-path="url(#pfbc6f74617)" style="fill: #0000f5; fill-opacity: 0.1"/>
    <path d="M 294.254468 179.745507 
L 284.401589 136.854927 
L 293.59314 125.006552 
L 303.385087 168.12973 
z
" clip-path="url(#pfbc6f74617)" style="fill: #0000f5; fill-opacity: 0.1"/>
    <path d="M 173.79434 168.12973 
L 162.76506 125.079752 
L 171.625993 113.185373 
L 182.600715 156.469087 
z
" clip-path="url(#pfbc6f74617)" style="fill: #0000f5; fill-opacity: 0.1"/>
    <path d="M 257.132142 172.006628 
L 246.907209 128.985536 
L 256.005664 117.099708 
L 266.171513 160.354419 
z
" clip-path="url(#pfbc6f74617)" style="fill: #0000f5; fill-opacity: 0.1"/>
    <path d="M 340.503063 175.885066 
L 331.083121 132.892887 
L 340.419288 121.015617 
L 349.775616 164.2413 
z
" clip-path="url(#pfbc6f74617)" style="fill: #0000f5; fill-opacity: 0.1"/>
    <path d="M 219.914347 164.247847 
L 209.31547 121.095712 
L 218.320314 109.172275 
L 228.861971 152.559057 
z
" clip-path="url(#pfbc6f74617)" style="fill: #0000f5; fill-opacity: 0.1"/>
    <path d="M 303.385087 168.12973 
L 293.59314 125.006552 
L 302.836271 113.091686 
L 312.566452 156.449395 
z
" clip-path="url(#pfbc6f74617)" style="fill: #0000f5; fill-opacity: 0.1"/>
    <path d="M 182.600715 156.469087 
L 171.625993 113.185373 
L 180.536706 101.224172 
L 191.456088 144.743566 
z
" clip-path="url(#pfbc6f74617)" style="fill: #0000f5; fill-opacity: 0.1"/>
    <path d="M 266.171513 160.354419 
L 256.005664 117.099708 
L 265.155244 105.147091 
L 275.261189 148.637366 
z
" clip-path="url(#pfbc6f74617)" style="fill: #0000f5; fill-opacity: 0.1"/>
    <path d="M 349.775616 164.2413 
L 340.419288 121.015617 
L 349.807927 109.071593 
L 359.09978 152.532723 
z
" clip-path="url(#pfbc6f74617)" style="fill: #0000f5; fill-opacity: 0.1"/>
    <path d="M 145.190877 148.67027 
L 133.838394 105.254442 
L 142.654456 93.25532 
L 153.953492 136.907867 
z
" clip-path="url(#pfbc6f74617)" style="fill: #0000f5; fill-opacity: 0.1"/>
    <path d="M 228.861971 152.559057 
L 218.320314 109.172275 
L 227.375822 97.181751 
L 237.859452 140.805135 
z
" clip-path="url(#pfbc6f74617)" style="fill: #0000f5; fill-opacity: 0.1"/>
    <path d="M 312.566452 156.449395 
L 302.836271 113.091686 
L 312.13142 101.109769 
L 321.798987 144.703963 
z
" clip-path="url(#pfbc6f74617)" style="fill: #0000f5; fill-opacity: 0.1"/>
    <path d="M 191.456088 144.743566 
L 180.536706 101.224172 
L 189.49762 89.195584 
L 200.360868 132.952624 
z
" clip-path="url(#pfbc6f74617)" style="fill: #0000f5; fill-opacity: 0.1"/>
    <path d="M 275.261189 148.637366 
L 265.155244 105.147091 
L 274.356381 93.127123 
L 284.401589 136.854927 
z
" clip-path="url(#pfbc6f74617)" style="fill: #0000f5; fill-opacity: 0.1"/>
    <path d="M 359.09978 152.532723 
L 349.807927 109.071593 
L 359.249481 97.060252 
L 368.475988 140.758794 
z
" clip-path="url(#pfbc6f74617)" style="fill: #0000f5; fill-opacity: 0.1"/>
    <path d="M 153.953492 136.907867 
L 142.654456 93.25532 
L 151.52025 81.188509 
L 162.76506 125.079752 
z
" clip-path="url(#pfbc6f74617)" style="fill: #0000f5; fill-opacity: 0.1"/>
    <path d="M 237.859452 140.805135 
L 227.375822 97.181751 
L 236.482425 85.123573 
L 246.907209 128.985536 
z
" clip-path="url(#pfbc6f74617)" style="fill: #0000f5; fill-opacity: 0.1"/>
    <path d="M 321.798987 144.703963 
L 312.13142 101.109769 
L 321.479025 89.060232 
L 331.083121 132.892887 
z
" clip-path="url(#pfbc6f74617)" style="fill: #0000f5; fill-opacity: 0.1"/>
    <path d="M 200.360868 132.952624 
L 189.49762 89.195584 
L 198.509161 77.099038 
L 209.31547 121.095712 
z
" clip-path="url(#pfbc6f74617)" style="fill: #0000f5; fill-opacity: 0.1"/>
    <path d="M 284.401589 136.854927 
L 274.356381 93.127123 
L 283.609513 81.039231 
L 293.59314 125.006552 
z
" clip-path="url(#pfbc6f74617)" style="fill: #0000f5; fill-opacity: 0.1"/>
    <path d="M 162.76506 125.079752 
L 151.52025 81.188509 
L 160.436199 69.053434 
L 171.625993 113.185373 
z
" clip-path="url(#pfbc6f74617)" style="fill: #0000f5; fill-opacity: 0.1"/>
    <path d="M 246.907209 128.985536 
L 236.482425 85.123573 
L 245.640555 72.997166 
L 256.005664 117.099708 
z
" clip-path="url(#pfbc6f74617)" style="fill: #0000f5; fill-opacity: 0.1"/>
    <path d="M 331.083121 132.892887 
L 321.479025 89.060232 
L 330.879532 76.942501 
L 340.419288 121.015617 
z
" clip-path="url(#pfbc6f74617)" style="fill: #0000f5; fill-opacity: 0.1"/>
    <path d="M 209.31547 121.095712 
L 198.509161 77.099038 
L 207.571759 64.933956 
L 218.320314 109.172275 
z
" clip-path="url(#pfbc6f74617)" style="fill: #0000f5; fill-opacity: 0.1"/>
    <path d="M 293.59314 125.006552 
L 283.609513 81.039231 
L 292.915081 68.882838 
L 302.836271 113.091686 
z
" clip-path="url(#pfbc6f74617)" style="fill: #0000f5; fill-opacity: 0.1"/>
    <path d="M 171.625993 113.185373 
L 160.436199 69.053434 
L 169.40273 56.849515 
L 180.536706 101.224172 
z
" clip-path="url(#pfbc6f74617)" style="fill: #0000f5; fill-opacity: 0.1"/>
    <path d="M 256.005664 117.099708 
L 245.640555 72.997166 
L 254.850652 60.801951 
L 265.155244 105.147091 
z
" clip-path="url(#pfbc6f74617)" style="fill: #0000f5; fill-opacity: 0.1"/>
    <path d="M 340.419288 121.015617 
L 330.879532 76.942501 
L 340.333392 64.755996 
L 349.807927 109.071593 
z
" clip-path="url(#pfbc6f74617)" style="fill: #0000f5; fill-opacity: 0.1"/>
    <path d="M 133.838394 105.254442 
L 122.263146 60.986679 
L 131.133073 48.743761 
L 142.654456 93.25532 
z
" clip-path="url(#pfbc6f74617)" style="fill: #0000f5; fill-opacity: 0.1"/>
    <path d="M 218.320314 109.172275 
L 207.571759 64.933956 
L 216.685849 52.699754 
L 227.375822 97.181751 
z
" clip-path="url(#pfbc6f74617)" style="fill: #0000f5; fill-opacity: 0.1"/>
    <path d="M 302.836271 113.091686 
L 292.915081 68.882838 
L 302.273532 56.657361 
L 312.13142 101.109769 
z
" clip-path="url(#pfbc6f74617)" style="fill: #0000f5; fill-opacity: 0.1"/>
    <path d="M 180.536706 101.224172 
L 169.40273 56.849515 
L 178.420275 44.576164 
L 189.49762 89.195584 
z
" clip-path="url(#pfbc6f74617)" style="fill: #0000f5; fill-opacity: 0.1"/>
    <path d="M 265.155244 105.147091 
L 254.850652 60.801951 
L 264.113158 48.537338 
L 274.356381 93.127123 
z
" clip-path="url(#pfbc6f74617)" style="fill: #0000f5; fill-opacity: 0.1"/>
    <path d="M 349.807927 109.071593 
L 340.333392 64.755996 
L 349.84106 52.50013 
L 359.249481 97.060252 
z
" clip-path="url(#pfbc6f74617)" style="fill: #0000f5; fill-opacity: 0.1"/>
    <path d="M 142.654456 93.25532 
L 131.133073 48.743761 
L 140.05353 36.431097 
L 151.52025 81.188509 
z
" clip-path="url(#pfbc6f74617)" style="fill: #0000f5; fill-opacity: 0.1"/>
    <path d="M 227.375822 97.181751 
L 216.685849 52.699754 
L 225.851871 40.395842 
L 236.482425 85.123573 
z
" clip-path="url(#pfbc6f74617)" style="fill: #0000f5; fill-opacity: 0.1"/>
    <path d="M 312.13142 101.109769 
L 302.273532 56.657361 
L 311.685319 44.362209 
L 321.479025 89.060232 
z
" clip-path="url(#pfbc6f74617)" style="fill: #0000f5; fill-opacity: 0.1"/>
    <path d="M 189.49762 89.195584 
L 178.420275 44.576164 
L 187.489269 32.232787 
L 198.509161 77.099038 
z
" clip-path="url(#pfbc6f74617)" style="fill: #0000f5; fill-opacity: 0.1"/>
    <path d="M 274.356381 93.127123 
L 264.113158 48.537338 
L 273.428523 36.202735 
L 283.609513 81.039231 
z
" clip-path="url(#pfbc6f74617)" style="fill: #0000f5; fill-opacity: 0.1"/>
    <path d="M 151.52025 81.188509 
L 140.05353 36.431097 
L 149.024951 24.048088 
L 160.436199 69.053434 
z
" clip-path="url(#pfbc6f74617)" style="fill: #0000f5; fill-opacity: 0.1"/>
    <path d="M 236.482425 85.123573 
L 225.851871 40.395842 
L 235.07027 28.021621 
L 245.640555 72.997166 
z
" clip-path="url(#pfbc6f74617)" style="fill: #0000f5; fill-opacity: 0.1"/>
    <path d="M 321.479025 89.060232 
L 311.685319 44.362209 
L 321.150899 31.996785 
L 330.879532 76.942501 
z
" clip-path="url(#pfbc6f74617)" style="fill: #0000f5; fill-opacity: 0.1"/>
    <path d="M 198.509161 77.099038 
L 187.489269 32.232787 
L 196.610156 19.818783 
L 207.571759 64.933956 
z
" clip-path="url(#pfbc6f74617)" style="fill: #0000f5; fill-opacity: 0.1"/>
    <path d="M 283.609513 81.039231 
L 273.428523 36.202735 
L 282.797201 23.79754 
L 292.915081 68.882838 
z
" clip-path="url(#pfbc6f74617)" style="fill: #0000f5; fill-opacity: 0.1"/>
    <path d="M 160.436199 69.053434 
L 149.024951 24.048088 
L 158.047773 11.594132 
L 169.40273 56.849515 
z
" clip-path="url(#pfbc6f74617)" style="fill: #0000f5; fill-opacity: 0.1"/>
    <path d="M 245.640555 72.997166 
L 235.07027 28.021621 
L 244.341497 15.576488 
L 254.850652 60.801951 
z
" clip-path="url(#pfbc6f74617)" style="fill: #0000f5; fill-opacity: 0.1"/>
    <path d="M 330.879532 76.942501 
L 321.150899 31.996785 
L 330.670733 19.560484 
L 340.333392 64.755996 
z
" clip-path="url(#pfbc6f74617)" style="fill: #0000f5; fill-opacity: 0.1"/>
    <path d="M 122.263146 60.986679 
L 110.45851 15.84166 
L 119.382715 3.347583 
L 131.133073 48.743761 
z
" clip-path="url(#pfbc6f74617)" style="fill: #0000f5; fill-opacity: 0.1"/>
    <path d="M 207.571759 64.933956 
L 196.610156 19.818783 
L 205.78338 7.333543 
L 216.685849 52.699754 
z
" clip-path="url(#pfbc6f74617)" style="fill: #0000f5; fill-opacity: 0.1"/>
    <path d="M 292.915081 68.882838 
L 282.797201 23.79754 
L 292.219649 11.321146 
L 302.273532 56.657361 
z
" clip-path="url(#pfbc6f74617)" style="fill: #0000f5; fill-opacity: 0.1"/>
    <path d="M 169.40273 56.849515 
L 158.047773 11.594132 
L 167.12244 -0.931384 
L 178.420275 44.576164 
z
" clip-path="url(#pfbc6f74617)" style="fill: #0000f5; fill-opacity: 0.1"/>
    <path d="M 254.850652 60.801951 
L 244.341497 15.576488 
L 253.666007 3.059832 
L 264.113158 48.537338 
z
" clip-path="url(#pfbc6f74617)" style="fill: #0000f5; fill-opacity: 0.1"/>
    <path d="M 340.333392 64.755996 
L 330.670733 19.560484 
L 340.245291 7.052695 
L 349.84106 52.50013 
z
" clip-path="url(#pfbc6f74617)" style="fill: #0000f5; fill-opacity: 0.1"/>
    <path d="M 131.133073 48.743761 
L 119.382715 3.347583 
L 128.358266 -9.21838 
L 140.05353 36.431097 
z
" clip-path="url(#pfbc6f74617)" style="fill: #0000f5; fill-opacity: 0.1"/>
    <path d="M 216.685849 52.699754 
L 205.78338 7.333543 
L 215.009395 -5.223547 
L 225.851871 40.395842 
z
" clip-path="url(#pfbc6f74617)" style="fill: #0000f5; fill-opacity: 0.1"/>
    <path d="M 302.273532 56.657361 
L 292.219649 11.321146 
L 301.696334 -1.227062 
L 311.685319 44.362209 
z
" clip-path="url(#pfbc6f74617)" style="fill: #0000f5; fill-opacity: 0.1"/>
    <path d="M 178.420275 44.576164 
L 167.12244 -0.931384 
L 176.2494 -13.529078 
L 187.489269 32.232787 
z
" clip-path="url(#pfbc6f74617)" style="fill: #0000f5; fill-opacity: 0.1"/>
    <path d="M 264.113158 48.537338 
L 253.666007 3.059832 
L 263.04426 -9.528967 
L 273.428523 36.202735 
z
" clip-path="url(#pfbc6f74617)" style="fill: #0000f5; fill-opacity: 0.1"/>
    <path d="M 140.05353 36.431097 
L 128.358266 -9.21838 
L 137.385607 -21.856851 
L 149.024951 24.048088 
z
" clip-path="url(#pfbc6f74617)" style="fill: #0000f5; fill-opacity: 0.1"/>
    <path d="M 225.851871 40.395842 
L 215.009395 -5.223547 
L 224.288656 -17.853108 
L 235.07027 28.021621 
z
" clip-path="url(#pfbc6f74617)" style="fill: #0000f5; fill-opacity: 0.1"/>
    <path d="M 311.685319 44.362209 
L 301.696334 -1.227062 
L 311.227723 -13.847706 
L 321.150899 31.996785 
z
" clip-path="url(#pfbc6f74617)" style="fill: #0000f5; fill-opacity: 0.1"/>
    <path d="M 187.489269 32.232787 
L 176.2494 -13.529078 
L 185.429106 -26.199576 
L 196.610156 19.818783 
z
" clip-path="url(#pfbc6f74617)" style="fill: #0000f5; fill-opacity: 0.1"/>
    <path d="M 273.428523 36.202735 
L 263.04426 -9.528967 
L 272.476723 -22.190533 
L 282.797201 23.79754 
z
" clip-path="url(#pfbc6f74617)" style="fill: #0000f5; fill-opacity: 0.1"/>
    <path d="M 149.024951 24.048088 
L 137.385607 -21.856851 
L 146.46519 -34.56846 
L 158.047773 11.594132 
z
" clip-path="url(#pfbc6f74617)" style="fill: #0000f5; fill-opacity: 0.1"/>
    <path d="M 235.07027 28.021621 
L 224.288656 -17.853108 
L 233.621628 -30.555771 
L 244.341497 15.576488 
z
" clip-path="url(#pfbc6f74617)" style="fill: #0000f5; fill-opacity: 0.1"/>
    <path d="M 321.150899 31.996785 
L 311.227723 -13.847706 
L 320.814292 -26.541415 
L 330.670733 19.560484 
z
" clip-path="url(#pfbc6f74617)" style="fill: #0000f5; fill-opacity: 0.1"/>
    <path d="M 110.45851 15.84166 
L 98.417599 -30.206956 
L 107.396487 -42.959851 
L 119.382715 3.347583 
z
" clip-path="url(#pfbc6f74617)" style="fill: #0000f5; fill-opacity: 0.1"/>
    <path d="M 196.610156 19.818783 
L 185.429106 -26.199576 
L 194.662016 -38.943511 
L 205.78338 7.333543 
z
" clip-path="url(#pfbc6f74617)" style="fill: #0000f5; fill-opacity: 0.1"/>
    <path d="M 282.797201 23.79754 
L 272.476723 -22.190533 
L 281.963867 -34.9255 
L 292.219649 11.321146 
z
" clip-path="url(#pfbc6f74617)" style="fill: #0000f5; fill-opacity: 0.1"/>
    <path d="M 158.047773 11.594132 
L 146.46519 -34.56846 
L 155.597467 -47.353843 
L 167.12244 -0.931384 
z
" clip-path="url(#pfbc6f74617)" style="fill: #0000f5; fill-opacity: 0.1"/>
    <path d="M 244.341497 15.576488 
L 233.621628 -30.555771 
L 243.008776 -43.332172 
L 253.666007 3.059832 
z
" clip-path="url(#pfbc6f74617)" style="fill: #0000f5; fill-opacity: 0.1"/>
    <path d="M 330.670733 19.560484 
L 320.814292 -26.541415 
L 330.456523 -39.308825 
L 340.245291 7.052695 
z
" clip-path="url(#pfbc6f74617)" style="fill: #0000f5; fill-opacity: 0.1"/>
    <path d="M 119.382715 3.347583 
L 107.396487 -42.959851 
L 116.427555 -55.786859 
L 128.358266 -9.21838 
z
" clip-path="url(#pfbc6f74617)" style="fill: #0000f5; fill-opacity: 0.1"/>
    <path d="M 205.78338 7.333543 
L 194.662016 -38.943511 
L 203.948595 -51.761523 
L 215.009395 -5.223547 
z
" clip-path="url(#pfbc6f74617)" style="fill: #0000f5; fill-opacity: 0.1"/>
    <path d="M 292.219649 11.321146 
L 281.963867 -34.9255 
L 291.506168 -47.734507 
L 301.696334 -1.227062 
z
" clip-path="url(#pfbc6f74617)" style="fill: #0000f5; fill-opacity: 0.1"/>
    <path d="M 167.12244 -0.931384 
L 155.597467 -47.353843 
L 164.7829 -60.213645 
L 176.2494 -13.529078 
z
" clip-path="url(#pfbc6f74617)" style="fill: #0000f5; fill-opacity: 0.1"/>
    <path d="M 253.666007 3.059832 
L 243.008776 -43.332172 
L 252.450574 -56.182955 
L 263.04426 -9.528967 
z
" clip-path="url(#pfbc6f74617)" style="fill: #0000f5; fill-opacity: 0.1"/>
    <path d="M 128.358266 -9.21838 
L 116.427555 -55.786859 
L 125.511261 -68.68863 
L 137.385607 -21.856851 
z
" clip-path="url(#pfbc6f74617)" style="fill: #0000f5; fill-opacity: 0.1"/>
    <path d="M 215.009395 -5.223547 
L 203.948595 -51.761523 
L 213.289312 -64.654261 
L 224.288656 -17.853108 
z
" clip-path="url(#pfbc6f74617)" style="fill: #0000f5; fill-opacity: 0.1"/>
    <path d="M 301.696334 -1.227062 
L 291.506168 -47.734507 
L 301.10411 -60.618202 
L 311.227723 -13.847706 
z
" clip-path="url(#pfbc6f74617)" style="fill: #0000f5; fill-opacity: 0.1"/>
    <path d="M 176.2494 -13.529078 
L 164.7829 -60.213645 
L 174.021953 -73.148517 
L 185.429106 -26.199576 
z
" clip-path="url(#pfbc6f74617)" style="fill: #0000f5; fill-opacity: 0.1"/>
    <path d="M 263.04426 -9.528967 
L 252.450574 -56.182955 
L 261.947501 -69.108771 
L 272.476723 -22.190533 
z
" clip-path="url(#pfbc6f74617)" style="fill: #0000f5; fill-opacity: 0.1"/>
    <path d="M 137.385607 -21.856851 
L 125.511261 -68.68863 
L 134.648066 -81.665817 
L 146.46519 -34.56846 
z
" clip-path="url(#pfbc6f74617)" style="fill: #0000f5; fill-opacity: 0.1"/>
    <path d="M 224.288656 -17.853108 
L 213.289312 -64.654261 
L 222.684642 -77.622378 
L 233.621628 -30.555771 
z
" clip-path="url(#pfbc6f74617)" style="fill: #0000f5; fill-opacity: 0.1"/>
    <path d="M 311.227723 -13.847706 
L 301.10411 -60.618202 
L 310.758181 -73.577241 
L 320.814292 -26.541415 
z
" clip-path="url(#pfbc6f74617)" style="fill: #0000f5; fill-opacity: 0.1"/>
    <path d="M 185.429106 -26.199576 
L 174.021953 -73.148517 
L 183.315098 -86.159118 
L 194.662016 -38.943511 
z
" clip-path="url(#pfbc6f74617)" style="fill: #0000f5; fill-opacity: 0.1"/>
    <path d="M 272.476723 -22.190533 
L 261.947501 -69.108771 
L 271.500041 -82.110279 
L 281.963867 -34.9255 
z
" clip-path="url(#pfbc6f74617)" style="fill: #0000f5; fill-opacity: 0.1"/>
    <path d="M 146.46519 -34.56846 
L 134.648066 -81.665817 
L 143.838436 -94.719086 
L 155.597467 -47.353843 
z
" clip-path="url(#pfbc6f74617)" style="fill: #0000f5; fill-opacity: 0.1"/>
    <path d="M 233.621628 -30.555771 
L 222.684642 -77.622378 
L 232.135064 -90.666539 
L 243.008776 -43.332172 
z
" clip-path="url(#pfbc6f74617)" style="fill: #0000f5; fill-opacity: 0.1"/>
    <path d="M 320.814292 -26.541415 
L 310.758181 -73.577241 
L 320.468873 -86.612286 
L 330.456523 -39.308825 
z
" clip-path="url(#pfbc6f74617)" style="fill: #0000f5; fill-opacity: 0.1"/>
    <path d="M 194.662016 -38.943511 
L 183.315098 -86.159118 
L 192.662811 -99.246116 
L 203.948595 -51.761523 
z
" clip-path="url(#pfbc6f74617)" style="fill: #0000f5; fill-opacity: 0.1"/>
    <path d="M 281.963867 -34.9255 
L 271.500041 -82.110279 
L 281.108685 -95.188146 
L 291.506168 -47.734507 
z
" clip-path="url(#pfbc6f74617)" style="fill: #0000f5; fill-opacity: 0.1"/>
    <path d="M 155.597467 -47.353843 
L 143.838436 -94.719086 
L 153.082845 -107.849105 
L 164.7829 -60.213645 
z
" clip-path="url(#pfbc6f74617)" style="fill: #0000f5; fill-opacity: 0.1"/>
    <path d="M 243.008776 -43.332172 
L 232.135064 -90.666539 
L 241.641065 -103.787414 
L 252.450574 -56.182955 
z
" clip-path="url(#pfbc6f74617)" style="fill: #0000f5; fill-opacity: 0.1"/>
    <path d="M 203.948595 -51.761523 
L 192.662811 -99.246116 
L 202.065574 -112.410185 
L 213.289312 -64.654261 
z
" clip-path="url(#pfbc6f74617)" style="fill: #0000f5; fill-opacity: 0.1"/>
    <path d="M 291.506168 -47.734507 
L 281.108685 -95.188146 
L 290.773926 -108.343047 
L 301.10411 -60.618202 
z
" clip-path="url(#pfbc6f74617)" style="fill: #0000f5; fill-opacity: 0.1"/>
    <path d="M 164.7829 -60.213645 
L 153.082845 -107.849105 
L 162.381769 -121.056555 
L 174.021953 -73.148517 
z
" clip-path="url(#pfbc6f74617)" style="fill: #0000f5; fill-opacity: 0.1"/>
    <path d="M 252.450574 -56.182955 
L 241.641065 -103.787414 
L 251.203137 -116.985682 
L 261.947501 -69.108771 
z
" clip-path="url(#pfbc6f74617)" style="fill: #0000f5; fill-opacity: 0.1"/>
    <path d="M 213.289312 -64.654261 
L 202.065574 -112.410185 
L 211.523875 -125.652008 
L 222.684642 -77.622378 
z
" clip-path="url(#pfbc6f74617)" style="fill: #0000f5; fill-opacity: 0.1"/>
    <path d="M 301.10411 -60.618202 
L 290.773926 -108.343047 
L 300.496269 -121.575665 
L 310.758181 -73.577241 
z
" clip-path="url(#pfbc6f74617)" style="fill: #0000f5; fill-opacity: 0.1"/>
    <path d="M 174.021953 -73.148517 
L 162.381769 -121.056555 
L 171.735694 -134.342123 
L 183.315098 -86.159118 
z
" clip-path="url(#pfbc6f74617)" style="fill: #0000f5; fill-opacity: 0.1"/>
    <path d="M 261.947501 -69.108771 
L 251.203137 -116.985682 
L 260.821778 -130.262029 
L 271.500041 -82.110279 
z
" clip-path="url(#pfbc6f74617)" style="fill: #0000f5; fill-opacity: 0.1"/>
    <path d="M 222.684642 -77.622378 
L 211.523875 -125.652008 
L 221.038208 -138.972276 
L 232.135064 -90.666539 
z
" clip-path="url(#pfbc6f74617)" style="fill: #0000f5; fill-opacity: 0.1"/>
    <path d="M 310.758181 -73.577241 
L 300.496269 -121.575665 
L 310.276218 -134.886689 
L 320.468873 -86.612286 
z
" clip-path="url(#pfbc6f74617)" style="fill: #0000f5; fill-opacity: 0.1"/>
    <path d="M 183.315098 -86.159118 
L 171.735694 -134.342123 
L 181.145108 -147.706503 
L 192.662811 -99.246116 
z
" clip-path="url(#pfbc6f74617)" style="fill: #0000f5; fill-opacity: 0.1"/>
    <path d="M 271.500041 -82.110279 
L 260.821778 -130.262029 
L 270.49749 -143.617151 
L 281.108685 -95.188146 
z
" clip-path="url(#pfbc6f74617)" style="fill: #0000f5; fill-opacity: 0.1"/>
    <path d="M 232.135064 -90.666539 
L 221.038208 -138.972276 
L 230.60907 -152.371688 
L 241.641065 -103.787414 
z
" clip-path="url(#pfbc6f74617)" style="fill: #0000f5; fill-opacity: 0.1"/>
    <path d="M 192.662811 -99.246116 
L 181.145108 -147.706503 
L 190.610506 -161.150399 
L 202.065574 -112.410185 
z
" clip-path="url(#pfbc6f74617)" style="fill: #0000f5; fill-opacity: 0.1"/>
    <path d="M 281.108685 -95.188146 
L 270.49749 -143.617151 
L 280.230783 -157.051751 
L 290.773926 -108.343047 
z
" clip-path="url(#pfbc6f74617)" style="fill: #0000f5; fill-opacity: 0.1"/>
    <path d="M 241.641065 -103.787414 
L 230.60907 -152.371688 
L 240.236969 -165.850952 
L 251.203137 -116.985682 
z
" clip-path="url(#pfbc6f74617)" style="fill: #0000f5; fill-opacity: 0.1"/>
    <path d="M 202.065574 -112.410185 
L 190.610506 -161.150399 
L 200.13239 -174.674522 
L 211.523875 -125.652008 
z
" clip-path="url(#pfbc6f74617)" style="fill: #0000f5; fill-opacity: 0.1"/>
    <path d="M 290.773926 -108.343047 
L 280.230783 -157.051751 
L 290.022173 -170.566541 
L 300.496269 -121.575665 
z
" clip-path="url(#pfbc6f74617)" style="fill: #0000f5; fill-opacity: 0.1"/>
    <path d="M 251.203137 -116.985682 
L 240.236969 -165.850952 
L 249.922416 -179.410783 
L 260.821778 -130.262029 
z
" clip-path="url(#pfbc6f74617)" style="fill: #0000f5; fill-opacity: 0.1"/>
    <path d="M 211.523875 -125.652008 
L 200.13239 -174.674522 
L 209.711267 -188.279594 
L 221.038208 -138.972276 
z
" clip-path="url(#pfbc6f74617)" style="fill: #0000f5; fill-opacity: 0.1"/>
    <path d="M 300.496269 -121.575665 
L 290.022173 -170.566541 
L 299.872182 -184.162239 
L 310.276218 -134.886689 
z
" clip-path="url(#pfbc6f74617)" style="fill: #0000f5; fill-opacity: 0.1"/>
    <path d="M 260.821778 -130.262029 
L 249.922416 -179.410783 
L 259.665927 -193.051907 
L 270.49749 -143.617151 
z
" clip-path="url(#pfbc6f74617)" style="fill: #0000f5; fill-opacity: 0.1"/>
    <path d="M 221.038208 -138.972276 
L 209.711267 -188.279594 
L 219.347649 -201.966342 
L 230.60907 -152.371688 
z
" clip-path="url(#pfbc6f74617)" style="fill: #0000f5; fill-opacity: 0.1"/>
    <path d="M 270.49749 -143.617151 
L 259.665927 -193.051907 
L 269.468027 -206.775056 
L 280.230783 -157.051751 
z
" clip-path="url(#pfbc6f74617)" style="fill: #0000f5; fill-opacity: 0.1"/>
    <path d="M 230.60907 -152.371688 
L 219.347649 -201.966342 
L 229.042058 -215.735506 
L 240.236969 -165.850952 
z
" clip-path="url(#pfbc6f74617)" style="fill: #0000f5; fill-opacity: 0.1"/>
    <path d="M 280.230783 -157.051751 
L 269.468027 -206.775056 
L 279.329245 -220.580972 
L 290.022173 -170.566541 
z
" clip-path="url(#pfbc6f74617)" style="fill: #0000f5; fill-opacity: 0.1"/>
    <path d="M 240.236969 -165.850952 
L 229.042058 -215.735506 
L 238.795017 -229.58783 
L 249.922416 -179.410783 
z
" clip-path="url(#pfbc6f74617)" style="fill: #0000f5; fill-opacity: 0.1"/>
    <path d="M 290.022173 -170.566541 
L 279.329245 -220.580972 
L 289.250119 -234.470406 
L 299.872182 -184.162239 
z
" clip-path="url(#pfbc6f74617)" style="fill: #0000f5; fill-opacity: 0.1"/>
    <path d="M 249.922416 -179.410783 
L 238.795017 -229.58783 
L 248.607059 -243.524071 
L 259.665927 -193.051907 
z
" clip-path="url(#pfbc6f74617)" style="fill: #0000f5; fill-opacity: 0.1"/>
    <path d="M 259.665927 -193.051907 
L 248.607059 -243.524071 
L 258.478723 -257.544995 
L 269.468027 -206.775056 
z
" clip-path="url(#pfbc6f74617)" style="fill: #0000f5; fill-opacity: 0.1"/>
    <path d="M 269.468027 -206.775056 
L 258.478723 -257.544995 
L 268.410554 -271.651374 
L 279.329245 -220.580972 
z
" clip-path="url(#pfbc6f74617)" style="fill: #0000f5; fill-opacity: 0.1"/>
    <path d="M 279.329245 -220.580972 
L 268.410554 -271.651374 
L 278.403103 -285.843993 
L 289.250119 -234.470406 
z
" clip-path="url(#pfbc6f74617)" style="fill: #0000f5; fill-opacity: 0.1"/>
   </g>
   <g id="legend_1">
    <g id="patch_6">
     <path d="M 357.840076 67.305115 
L 396.2 67.305115 
Q 398.2 67.305115 398.2 65.305115 
L 398.2 7 
Q 398.2 5 396.2 5 
L 357.840076 5 
Q 355.840076 5 355.840076 7 
L 355.840076 65.305115 
Q 355.840076 67.305115 357.840076 67.305115 
z
" style="fill: #ffffff; opacity: 0.8; stroke: #cccccc; stroke-linejoin: miter"/>
    </g>
    <g id="line2d_25">
     <path d="M 359.840076 12.5 
L 369.840076 12.5 
L 379.840076 12.5 
" style="fill: none; stroke: #ff0000; stroke-width: 1.5; stroke-linecap: square"/>
    </g>
    <g id="text_21">
     <!-- $\vec{a}$ -->
     <g transform="translate(387.840076 16)scale(0.1 -0.1)">
      <defs>
       <path id="CMMI12-7e" d="M 3424 3835 
C 3347 3764 3110 3540 3110 3451 
C 3110 3387 3168 3329 3232 3329 
C 3290 3329 3315 3368 3360 3432 
C 3514 3624 3686 3745 3834 3828 
C 3898 3867 3942 3886 3942 3956 
C 3942 4014 3891 4046 3853 4078 
C 3674 4200 3629 4372 3610 4449 
C 3590 4500 3571 4577 3482 4577 
C 3443 4577 3366 4552 3366 4456 
C 3366 4398 3405 4244 3526 4072 
L 1376 4072 
C 1267 4072 1158 4072 1158 3950 
C 1158 3835 1274 3835 1376 3835 
L 3424 3835 
z
" transform="scale(0.015625)"/>
       <path id="CMMI12-61" d="M 1926 760 
C 1894 651 1894 639 1805 517 
C 1664 338 1382 64 1082 64 
C 819 64 672 300 672 677 
C 672 1028 870 1743 992 2012 
C 1210 2459 1510 2689 1760 2689 
C 2182 2689 2266 2165 2266 2114 
C 2266 2108 2246 2024 2240 2012 
L 1926 760 
z
M 2336 2395 
C 2266 2561 2093 2816 1760 2816 
C 1037 2816 256 1884 256 939 
C 256 307 627 -64 1062 -64 
C 1414 -64 1715 211 1894 422 
C 1958 45 2259 -64 2451 -64 
C 2643 -64 2797 51 2912 281 
C 3014 498 3104 888 3104 913 
C 3104 945 3078 971 3040 971 
C 2982 971 2976 939 2950 843 
C 2854 466 2733 64 2470 64 
C 2285 64 2272 230 2272 358 
C 2272 505 2291 575 2349 824 
C 2394 984 2426 1124 2477 1309 
C 2714 2267 2771 2497 2771 2535 
C 2771 2625 2701 2695 2605 2695 
C 2400 2695 2349 2472 2336 2395 
z
" transform="scale(0.015625)"/>
      </defs>
      <use xlink:href="#CMMI12-7e" transform="scale(0.996264)"/>
      <use xlink:href="#CMMI12-61" transform="translate(6.445738 0)scale(0.996264)"/>
     </g>
    </g>
    <g id="line2d_26">
     <path d="M 359.840076 27.24679 
L 369.840076 27.24679 
L 379.840076 27.24679 
" style="fill: none; stroke: #00ff00; stroke-width: 1.5; stroke-linecap: square"/>
    </g>
    <g id="text_22">
     <!-- $\vec{b}$ -->
     <g transform="translate(387.840076 30.74679)scale(0.1 -0.1)">
      <defs>
       <path id="CMMI12-62" d="M 1478 4257 
C 1485 4283 1498 4321 1498 4352 
C 1498 4416 1434 4416 1421 4416 
C 1414 4416 1184 4393 1069 4377 
C 960 4377 864 4358 749 4358 
C 595 4345 550 4339 550 4224 
C 550 4160 614 4160 678 4160 
C 1005 4160 1005 4103 1005 4040 
C 1005 3996 954 3811 928 3696 
L 774 3085 
C 710 2831 346 1387 320 1272 
C 288 1114 288 1005 288 922 
C 288 274 653 -64 1069 -64 
C 1811 -64 2579 888 2579 1814 
C 2579 2401 2246 2816 1766 2816 
C 1434 2816 1133 2542 1011 2414 
L 1478 4257 
z
M 1075 64 
C 870 64 646 217 646 715 
C 646 926 666 1047 781 1494 
C 800 1577 902 1986 928 2069 
C 941 2120 1318 2689 1754 2689 
C 2035 2689 2163 2408 2163 2076 
C 2163 1769 1984 1047 1824 715 
C 1664 370 1370 64 1075 64 
z
" transform="scale(0.015625)"/>
      </defs>
      <use xlink:href="#CMMI12-7e" transform="translate(0 26.29016)scale(0.996264)"/>
      <use xlink:href="#CMMI12-62" transform="translate(11.311737 0)scale(0.996264)"/>
     </g>
    </g>
    <g id="line2d_27">
     <path d="M 359.840076 41.183968 
L 369.840076 41.183968 
L 379.840076 41.183968 
" style="fill: none; stroke: #0016ff; stroke-width: 1.5; stroke-linecap: square"/>
    </g>
    <g id="text_23">
     <!-- $\vec{c}$ -->
     <g transform="translate(387.840076 44.683968)scale(0.1 -0.1)">
      <defs>
       <path id="CMMI12-63" d="M 2502 2431 
C 2381 2431 2323 2431 2234 2355 
C 2195 2323 2125 2227 2125 2125 
C 2125 1997 2221 1920 2342 1920 
C 2496 1920 2669 2044 2669 2292 
C 2669 2588 2374 2816 1933 2816 
C 1094 2816 256 1903 256 996 
C 256 441 602 -64 1254 -64 
C 2125 -64 2675 622 2675 706 
C 2675 744 2637 776 2611 776 
C 2592 776 2586 770 2528 713 
C 2118 162 1510 64 1267 64 
C 826 64 685 446 685 764 
C 685 988 794 1605 1024 2039 
C 1190 2338 1536 2682 1939 2682 
C 2022 2682 2374 2682 2502 2431 
z
" transform="scale(0.015625)"/>
      </defs>
      <use xlink:href="#CMMI12-7e" transform="scale(0.996264)"/>
      <use xlink:href="#CMMI12-63" transform="translate(5.638615 0)scale(0.996264)"/>
     </g>
    </g>
    <g id="line2d_28">
     <path d="M 359.840076 57.867937 
L 369.840076 57.867937 
L 379.840076 57.867937 
" style="fill: none; stroke: #f400ff; stroke-width: 1.5; stroke-linecap: square"/>
    </g>
    <g id="text_24">
     <!-- $\vec{f}$ -->
     <g transform="translate(387.840076 61.367937)scale(0.1 -0.1)">
      <defs>
       <path id="CMMI12-66" d="M 2854 2566 
C 2982 2566 3034 2566 3034 2688 
C 3034 2752 2982 2752 2867 2752 
L 2349 2752 
C 2470 3429 2560 3897 2611 4107 
C 2650 4265 2784 4416 2950 4416 
C 3085 4416 3219 4358 3283 4298 
C 3034 4272 2957 4082 2957 3969 
C 2957 3837 3053 3759 3174 3759 
C 3302 3759 3494 3870 3494 4119 
C 3494 4393 3226 4544 2944 4544 
C 2669 4544 2400 4334 2272 4078 
C 2157 3848 2093 3611 1946 2752 
L 1517 2752 
C 1395 2752 1331 2752 1331 2637 
C 1331 2566 1370 2566 1498 2566 
L 1907 2566 
C 1792 1976 1530 542 1382 -137 
C 1274 -689 1178 -1152 858 -1152 
C 838 -1152 653 -1152 538 -1031 
C 864 -1005 864 -726 864 -720 
C 864 -593 768 -517 646 -517 
C 518 -517 326 -625 326 -867 
C 326 -1140 608 -1280 858 -1280 
C 1510 -1280 1779 -118 1850 199 
C 1965 688 2278 2376 2310 2566 
L 2854 2566 
z
" transform="scale(0.015625)"/>
      </defs>
      <use xlink:href="#CMMI12-7e" transform="translate(13.568792 26.29016)scale(0.996264)"/>
      <use xlink:href="#CMMI12-66" transform="scale(0.996264)"/>
     </g>
    </g>
   </g>
  </g>
 </g>
 <defs>
  <clipPath id="pfbc6f74617">
   <rect x="57.6" y="0" width="345.6" height="345.6"/>
  </clipPath>
 </defs>
</svg>
