<?xml version="1.0" encoding="utf-8" standalone="no"?>
<!DOCTYPE svg PUBLIC "-//W3C//DTD SVG 1.1//EN"
  "http://www.w3.org/Graphics/SVG/1.1/DTD/svg11.dtd">
<svg xmlns:xlink="http://www.w3.org/1999/xlink" width="460.8pt" height="345.6pt" viewBox="0 0 460.8 345.6" xmlns="http://www.w3.org/2000/svg" version="1.1">
 <metadata>
  <rdf:RDF xmlns:dc="http://purl.org/dc/elements/1.1/" xmlns:cc="http://creativecommons.org/ns#" xmlns:rdf="http://www.w3.org/1999/02/22-rdf-syntax-ns#">
   <cc:Work>
    <dc:type rdf:resource="http://purl.org/dc/dcmitype/StillImage"/>
    <dc:date>2022-07-12T15:50:51.931079</dc:date>
    <dc:format>image/svg+xml</dc:format>
    <dc:creator>
     <cc:Agent>
      <dc:title>Matplotlib v3.5.1, https://matplotlib.org/</dc:title>
     </cc:Agent>
    </dc:creator>
   </cc:Work>
  </rdf:RDF>
 </metadata>
 <defs>
  <style type="text/css">*{stroke-linejoin: round; stroke-linecap: butt}</style>
 </defs>
 <g id="figure_1">
  <g id="patch_1">
   <path d="M 0 345.6 
L 460.8 345.6 
L 460.8 0 
L 0 0 
z
" style="fill: #ffffff"/>
  </g>
  <g id="patch_2">
   <path d="M 57.6 345.6 
L 403.2 345.6 
L 403.2 0 
L 57.6 0 
z
" style="fill: #ffffff"/>
  </g>
  <g id="pane3d_1">
   <g id="patch_3">
    <path d="M 202.376898 245.205514 
L 385.448389 249.977524 
L 385.448389 86.281936 
L 202.376898 91.053946 
" style="fill: #f2f2f2; opacity: 0.5; stroke: #f2f2f2; stroke-linejoin: miter"/>
   </g>
  </g>
  <g id="pane3d_2">
   <g id="patch_4">
    <path d="M 202.376898 245.205514 
L 78.887032 253.137134 
L 78.887032 83.122326 
L 202.376898 91.053946 
" style="fill: #e6e6e6; opacity: 0.5; stroke: #e6e6e6; stroke-linejoin: miter"/>
   </g>
  </g>
  <g id="pane3d_3">
   <g id="patch_5">
    <path d="M 202.376898 245.205514 
L 78.887032 253.137134 
L 273.605985 258.979044 
L 385.448389 249.977524 
" style="fill: #ececec; opacity: 0.5; stroke: #ececec; stroke-linejoin: miter"/>
   </g>
  </g>
  <g id="axis3d_1">
   <g id="line2d_1">
    <path d="M 385.448389 249.977524 
L 273.605985 258.979044 
" style="fill: none; stroke: #000000; stroke-width: 0.8; stroke-linecap: square"/>
   </g>
   <g id="text_1">
    <!-- x -->
    <g transform="translate(357.055703 283.153891)scale(0.16 -0.16)">
     <defs>
      <path id="CMSS17-78" d="M 1587 1414 
L 2656 2739 
L 2099 2739 
L 1363 1777 
L 602 2739 
L 32 2739 
L 1139 1414 
L 0 0 
L 563 0 
L 1363 1121 
L 2195 0 
L 2758 0 
L 1587 1414 
z
" transform="scale(0.015625)"/>
     </defs>
     <use xlink:href="#CMSS17-78" transform="scale(0.996264)"/>
    </g>
   </g>
   <g id="Line3DCollection_1">
    <path d="M 383.42917 250.140039 
L 200.133359 245.349614 
L 200.133359 90.909846 
" style="fill: none; stroke: #b0b0b0; stroke-width: 0.8"/>
    <path d="M 363.62876 251.733654 
L 178.160747 246.760891 
L 178.160747 89.498569 
" style="fill: none; stroke: #b0b0b0; stroke-width: 0.8"/>
    <path d="M 343.04358 253.390431 
L 155.370038 248.224713 
L 155.370038 88.034746 
" style="fill: none; stroke: #b0b0b0; stroke-width: 0.8"/>
    <path d="M 321.626034 255.1142 
L 131.714673 249.744072 
L 131.714673 86.515388 
" style="fill: none; stroke: #b0b0b0; stroke-width: 0.8"/>
    <path d="M 299.324594 256.909108 
L 107.144497 251.322188 
L 107.144497 84.937272 
" style="fill: none; stroke: #b0b0b0; stroke-width: 0.8"/>
    <path d="M 276.08339 258.779652 
L 81.605394 252.962537 
L 81.605394 83.296923 
" style="fill: none; stroke: #b0b0b0; stroke-width: 0.8"/>
   </g>
   <g id="xtick_1">
    <g id="line2d_2">
     <path d="M 381.872609 250.099358 
L 386.546933 250.221521 
" style="fill: none; stroke: #000000; stroke-width: 0.8; stroke-linecap: square"/>
    </g>
    <g id="text_2">
     <!-- $\mathdefault{0}$ -->
     <g transform="translate(393.425036 267.905665)scale(0.1 -0.1)">
      <defs>
       <path id="CMR17-30" d="M 2688 2025 
C 2688 2416 2682 3080 2413 3591 
C 2176 4039 1798 4198 1466 4198 
C 1158 4198 768 4058 525 3597 
C 269 3118 243 2524 243 2025 
C 243 1661 250 1106 448 619 
C 723 -39 1216 -128 1466 -128 
C 1760 -128 2208 -7 2470 600 
C 2662 1042 2688 1559 2688 2025 
z
M 1466 -26 
C 1056 -26 813 325 723 812 
C 653 1188 653 1738 653 2096 
C 653 2588 653 2997 736 3387 
C 858 3929 1216 4096 1466 4096 
C 1728 4096 2067 3923 2189 3400 
C 2272 3036 2278 2607 2278 2096 
C 2278 1680 2278 1169 2202 792 
C 2067 95 1690 -26 1466 -26 
z
" transform="scale(0.015625)"/>
      </defs>
      <use xlink:href="#CMR17-30" transform="scale(0.996264)"/>
     </g>
    </g>
   </g>
   <g id="xtick_2">
    <g id="line2d_3">
     <path d="M 362.051979 251.691377 
L 366.787112 251.818336 
" style="fill: none; stroke: #000000; stroke-width: 0.8; stroke-linecap: square"/>
    </g>
    <g id="text_3">
     <!-- $\mathdefault{1}$ -->
     <g transform="translate(373.78792 269.717381)scale(0.1 -0.1)">
      <defs>
       <path id="CMR17-31" d="M 1702 4058 
C 1702 4192 1696 4192 1606 4192 
C 1357 3916 979 3827 621 3827 
C 602 3827 570 3827 563 3808 
C 557 3795 557 3782 557 3648 
C 755 3648 1088 3686 1344 3839 
L 1344 461 
C 1344 236 1331 160 781 160 
L 589 160 
L 589 0 
C 896 0 1216 0 1523 0 
C 1830 0 2150 0 2458 0 
L 2458 160 
L 2266 160 
C 1715 160 1702 230 1702 458 
L 1702 4058 
z
" transform="scale(0.015625)"/>
      </defs>
      <use xlink:href="#CMR17-31" transform="scale(0.996264)"/>
     </g>
    </g>
   </g>
   <g id="xtick_3">
    <g id="line2d_4">
     <path d="M 341.446184 253.346462 
L 346.243323 253.478504 
" style="fill: none; stroke: #000000; stroke-width: 0.8; stroke-linecap: square"/>
    </g>
    <g id="text_4">
     <!-- $\mathdefault{2}$ -->
     <g transform="translate(353.369287 271.601199)scale(0.1 -0.1)">
      <defs>
       <path id="CMR17-32" d="M 2669 989 
L 2554 989 
C 2490 536 2438 459 2413 420 
C 2381 369 1920 369 1830 369 
L 602 369 
C 832 619 1280 1072 1824 1597 
C 2214 1967 2669 2402 2669 3035 
C 2669 3790 2067 4224 1395 4224 
C 691 4224 262 3604 262 3030 
C 262 2780 448 2748 525 2748 
C 589 2748 781 2787 781 3010 
C 781 3207 614 3264 525 3264 
C 486 3264 448 3258 422 3245 
C 544 3790 915 4058 1306 4058 
C 1862 4058 2227 3617 2227 3035 
C 2227 2479 1901 2000 1536 1584 
L 262 146 
L 262 0 
L 2515 0 
L 2669 989 
z
" transform="scale(0.015625)"/>
      </defs>
      <use xlink:href="#CMR17-32" transform="scale(0.996264)"/>
     </g>
    </g>
   </g>
   <g id="xtick_4">
    <g id="line2d_5">
     <path d="M 320.007628 255.068436 
L 324.867964 255.205872 
" style="fill: none; stroke: #000000; stroke-width: 0.8; stroke-linecap: square"/>
    </g>
    <g id="text_5">
     <!-- $\mathdefault{3}$ -->
     <g transform="translate(332.121536 273.561512)scale(0.1 -0.1)">
      <defs>
       <path id="CMR17-33" d="M 1414 2157 
C 1984 2157 2234 1662 2234 1090 
C 2234 320 1824 25 1453 25 
C 1114 25 563 194 390 693 
C 422 680 454 680 486 680 
C 640 680 755 782 755 948 
C 755 1133 614 1216 486 1216 
C 378 1216 211 1165 211 926 
C 211 335 787 -128 1466 -128 
C 2176 -128 2720 430 2720 1085 
C 2720 1707 2208 2157 1600 2227 
C 2086 2328 2554 2756 2554 3329 
C 2554 3820 2048 4179 1472 4179 
C 890 4179 378 3829 378 3329 
C 378 3110 544 3072 627 3072 
C 762 3072 877 3155 877 3321 
C 877 3486 762 3569 627 3569 
C 602 3569 570 3569 544 3557 
C 730 3959 1235 4032 1459 4032 
C 1683 4032 2106 3925 2106 3320 
C 2106 3143 2080 2828 1862 2550 
C 1670 2304 1453 2304 1242 2284 
C 1210 2284 1062 2269 1037 2269 
C 992 2263 966 2257 966 2208 
C 966 2163 973 2157 1101 2157 
L 1414 2157 
z
" transform="scale(0.015625)"/>
      </defs>
      <use xlink:href="#CMR17-33" transform="scale(0.996264)"/>
     </g>
    </g>
   </g>
   <g id="xtick_5">
    <g id="line2d_6">
     <path d="M 297.684785 256.861437 
L 302.609504 257.004605 
" style="fill: none; stroke: #000000; stroke-width: 0.8; stroke-linecap: square"/>
    </g>
    <g id="text_6">
     <!-- $\mathdefault{4}$ -->
     <g transform="translate(309.99312 275.603075)scale(0.1 -0.1)">
      <defs>
       <path id="CMR17-34" d="M 2150 4122 
C 2150 4256 2144 4256 2029 4256 
L 128 1254 
L 128 1088 
L 1779 1088 
L 1779 457 
C 1779 224 1766 160 1318 160 
L 1197 160 
L 1197 0 
C 1402 0 1747 0 1965 0 
C 2182 0 2528 0 2733 0 
L 2733 160 
L 2611 160 
C 2163 160 2150 224 2150 457 
L 2150 1088 
L 2803 1088 
L 2803 1254 
L 2150 1254 
L 2150 4122 
z
M 1798 3703 
L 1798 1254 
L 256 1254 
L 1798 3703 
z
" transform="scale(0.015625)"/>
      </defs>
      <use xlink:href="#CMR17-34" transform="scale(0.996264)"/>
     </g>
    </g>
   </g>
   <g id="xtick_6">
    <g id="line2d_7">
     <path d="M 274.421792 258.729952 
L 279.41206 258.879218 
" style="fill: none; stroke: #000000; stroke-width: 0.8; stroke-linecap: square"/>
    </g>
    <g id="text_7">
     <!-- $\mathdefault{5}$ -->
     <g transform="translate(286.928127 277.731046)scale(0.1 -0.1)">
      <defs>
       <path id="CMR17-35" d="M 730 3692 
C 794 3666 1056 3584 1325 3584 
C 1920 3584 2246 3911 2432 4100 
C 2432 4157 2432 4192 2394 4192 
C 2387 4192 2374 4192 2323 4163 
C 2099 4058 1837 3973 1517 3973 
C 1325 3973 1037 3999 723 4139 
C 653 4171 640 4171 634 4171 
C 602 4171 595 4164 595 4037 
L 595 2203 
C 595 2089 595 2057 659 2057 
C 691 2057 704 2070 736 2114 
C 941 2401 1222 2522 1542 2522 
C 1766 2522 2246 2382 2246 1289 
C 2246 1085 2246 715 2054 421 
C 1894 159 1645 25 1370 25 
C 947 25 518 320 403 814 
C 429 807 480 795 506 795 
C 589 795 749 840 749 1038 
C 749 1210 627 1280 506 1280 
C 358 1280 262 1190 262 1011 
C 262 454 704 -128 1382 -128 
C 2042 -128 2669 440 2669 1264 
C 2669 2030 2170 2624 1549 2624 
C 1222 2624 947 2503 730 2274 
L 730 3692 
z
" transform="scale(0.015625)"/>
      </defs>
      <use xlink:href="#CMR17-35" transform="scale(0.996264)"/>
     </g>
    </g>
   </g>
  </g>
  <g id="axis3d_2">
   <g id="line2d_8">
    <path d="M 78.887032 253.137134 
L 273.605985 258.979044 
" style="fill: none; stroke: #000000; stroke-width: 0.8; stroke-linecap: square"/>
   </g>
   <g id="text_8">
    <!-- y -->
    <g transform="translate(151.015461 286.025873)scale(0.16 -0.16)">
     <defs>
      <path id="CMSS17-79" d="M 2675 2752 
L 2176 2752 
C 1632 1294 1446 702 1434 383 
L 1427 383 
C 1408 696 1126 1460 902 2007 
L 602 2752 
L 83 2752 
L 1216 13 
C 1146 -178 1043 -465 1011 -529 
C 870 -885 774 -885 672 -885 
C 646 -885 442 -885 211 -809 
L 250 -1229 
C 410 -1261 570 -1280 685 -1280 
C 845 -1280 1165 -1280 1459 -497 
L 2675 2752 
z
" transform="scale(0.015625)"/>
     </defs>
     <use xlink:href="#CMSS17-79" transform="scale(0.996264)"/>
    </g>
   </g>
   <g id="Line3DCollection_2">
    <path d="M 222.511214 90.529117 
L 222.511214 245.730342 
L 100.180821 253.775985 
" style="fill: none; stroke: #b0b0b0; stroke-width: 0.8"/>
    <path d="M 256.446368 89.644551 
L 256.446368 246.614909 
L 136.137857 254.854759 
" style="fill: none; stroke: #b0b0b0; stroke-width: 0.8"/>
    <path d="M 291.164093 88.739585 
L 291.164093 247.519874 
L 173.012255 255.961056 
" style="fill: none; stroke: #b0b0b0; stroke-width: 0.8"/>
    <path d="M 326.691775 87.813508 
L 326.691775 248.445952 
L 210.839576 257.095941 
" style="fill: none; stroke: #b0b0b0; stroke-width: 0.8"/>
    <path d="M 363.058094 86.865569 
L 363.058094 249.39389 
L 249.657242 258.260539 
" style="fill: none; stroke: #b0b0b0; stroke-width: 0.8"/>
   </g>
   <g id="xtick_7">
    <g id="line2d_9">
     <path d="M 101.260035 253.705005 
L 98.017014 253.918298 
" style="fill: none; stroke: #000000; stroke-width: 0.8; stroke-linecap: square"/>
    </g>
    <g id="text_9">
     <!-- $\mathdefault{−4}$ -->
     <g transform="translate(85.132392 272.28225)scale(0.1 -0.1)">
      <defs>
       <path id="CMSY10-0" d="M 4218 1472 
C 4326 1472 4442 1472 4442 1600 
C 4442 1728 4326 1728 4218 1728 
L 755 1728 
C 646 1728 531 1728 531 1600 
C 531 1472 646 1472 755 1472 
L 4218 1472 
z
" transform="scale(0.015625)"/>
      </defs>
      <use xlink:href="#CMSY10-0" transform="scale(0.996264)"/>
      <use xlink:href="#CMR17-34" transform="translate(77.487468 0)scale(0.996264)"/>
     </g>
    </g>
   </g>
   <g id="xtick_8">
    <g id="line2d_10">
     <path d="M 137.200478 254.781981 
L 134.00725 255.000683 
" style="fill: none; stroke: #000000; stroke-width: 0.8; stroke-linecap: square"/>
    </g>
    <g id="text_10">
     <!-- $\mathdefault{−2}$ -->
     <g transform="translate(121.222124 273.515251)scale(0.1 -0.1)">
      <use xlink:href="#CMSY10-0" transform="scale(0.996264)"/>
      <use xlink:href="#CMR17-32" transform="translate(77.487468 0)scale(0.996264)"/>
     </g>
    </g>
   </g>
   <g id="xtick_9">
    <g id="line2d_11">
     <path d="M 174.057081 255.886409 
L 170.917261 256.110729 
" style="fill: none; stroke: #000000; stroke-width: 0.8; stroke-linecap: square"/>
    </g>
    <g id="text_11">
     <!-- $\mathdefault{0}$ -->
     <g transform="translate(162.113274 274.779924)scale(0.1 -0.1)">
      <use xlink:href="#CMR17-30" transform="scale(0.996264)"/>
     </g>
    </g>
   </g>
   <g id="xtick_10">
    <g id="line2d_12">
     <path d="M 211.865327 257.019355 
L 208.782761 257.249511 
" style="fill: none; stroke: #000000; stroke-width: 0.8; stroke-linecap: square"/>
    </g>
    <g id="text_12">
     <!-- $\mathdefault{2}$ -->
     <g transform="translate(200.093281 276.077505)scale(0.1 -0.1)">
      <use xlink:href="#CMR17-32" transform="scale(0.996264)"/>
     </g>
    </g>
   </g>
   <g id="xtick_11">
    <g id="line2d_13">
     <path d="M 250.662555 258.181935 
L 247.64134 258.41816 
" style="fill: none; stroke: #000000; stroke-width: 0.8; stroke-linecap: square"/>
    </g>
    <g id="text_13">
     <!-- $\mathdefault{4}$ -->
     <g transform="translate(239.074611 277.409296)scale(0.1 -0.1)">
      <use xlink:href="#CMR17-34" transform="scale(0.996264)"/>
     </g>
    </g>
   </g>
  </g>
  <g id="axis3d_3">
   <g id="line2d_14">
    <path d="M 78.887032 253.137134 
L 78.887032 83.122326 
" style="fill: none; stroke: #000000; stroke-width: 0.8; stroke-linecap: square"/>
   </g>
   <g id="text_14">
    <!-- z -->
    <g transform="translate(31.041618 172.114786)scale(0.16 -0.16)">
     <defs>
      <path id="CMSS17-7a" d="M 2400 2502 
L 2400 2750 
L 250 2750 
L 250 2368 
L 1069 2368 
C 1146 2368 1222 2368 1299 2368 
L 1747 2368 
L 166 261 
L 166 0 
L 2419 0 
L 2419 395 
L 1549 395 
C 1472 395 1395 395 1318 395 
L 826 395 
L 2400 2502 
z
" transform="scale(0.015625)"/>
     </defs>
     <use xlink:href="#CMSS17-7a" transform="scale(0.996264)"/>
    </g>
   </g>
   <g id="Line3DCollection_3">
    <path d="M 78.887032 249.736838 
L 202.376898 242.122482 
L 385.448389 246.703612 
" style="fill: none; stroke: #b0b0b0; stroke-width: 0.8"/>
    <path d="M 78.887032 217.093995 
L 202.376898 212.525381 
L 385.448389 215.274059 
" style="fill: none; stroke: #b0b0b0; stroke-width: 0.8"/>
    <path d="M 78.887032 184.451151 
L 202.376898 182.92828 
L 385.448389 183.844506 
" style="fill: none; stroke: #b0b0b0; stroke-width: 0.8"/>
    <path d="M 78.887032 151.808308 
L 202.376898 153.331179 
L 385.448389 152.414953 
" style="fill: none; stroke: #b0b0b0; stroke-width: 0.8"/>
    <path d="M 78.887032 119.165465 
L 202.376898 123.734078 
L 385.448389 120.9854 
" style="fill: none; stroke: #b0b0b0; stroke-width: 0.8"/>
    <path d="M 78.887032 86.522622 
L 202.376898 94.136977 
L 385.448389 89.555847 
" style="fill: none; stroke: #b0b0b0; stroke-width: 0.8"/>
   </g>
   <g id="xtick_12">
    <g id="line2d_15">
     <path d="M 79.975719 249.66971 
L 76.704274 249.871426 
" style="fill: none; stroke: #000000; stroke-width: 0.8; stroke-linecap: square"/>
    </g>
    <g id="text_15">
     <!-- $\mathdefault{0}$ -->
     <g transform="translate(56.004124 256.857104)scale(0.1 -0.1)">
      <use xlink:href="#CMR17-30" transform="scale(0.996264)"/>
     </g>
    </g>
   </g>
   <g id="xtick_13">
    <g id="line2d_16">
     <path d="M 79.975719 217.053718 
L 76.704274 217.174748 
" style="fill: none; stroke: #000000; stroke-width: 0.8; stroke-linecap: square"/>
    </g>
    <g id="text_16">
     <!-- $\mathdefault{1}$ -->
     <g transform="translate(56.004124 224.133554)scale(0.1 -0.1)">
      <use xlink:href="#CMR17-31" transform="scale(0.996264)"/>
     </g>
    </g>
   </g>
   <g id="xtick_14">
    <g id="line2d_17">
     <path d="M 79.975719 184.437726 
L 76.704274 184.478069 
" style="fill: none; stroke: #000000; stroke-width: 0.8; stroke-linecap: square"/>
    </g>
    <g id="text_17">
     <!-- $\mathdefault{2}$ -->
     <g transform="translate(56.004124 191.410003)scale(0.1 -0.1)">
      <use xlink:href="#CMR17-32" transform="scale(0.996264)"/>
     </g>
    </g>
   </g>
   <g id="xtick_15">
    <g id="line2d_18">
     <path d="M 79.975719 151.821734 
L 76.704274 151.78139 
" style="fill: none; stroke: #000000; stroke-width: 0.8; stroke-linecap: square"/>
    </g>
    <g id="text_18">
     <!-- $\mathdefault{3}$ -->
     <g transform="translate(56.004124 158.686453)scale(0.1 -0.1)">
      <use xlink:href="#CMR17-33" transform="scale(0.996264)"/>
     </g>
    </g>
   </g>
   <g id="xtick_16">
    <g id="line2d_19">
     <path d="M 79.975719 119.205742 
L 76.704274 119.084712 
" style="fill: none; stroke: #000000; stroke-width: 0.8; stroke-linecap: square"/>
    </g>
    <g id="text_19">
     <!-- $\mathdefault{4}$ -->
     <g transform="translate(56.004124 125.962902)scale(0.1 -0.1)">
      <use xlink:href="#CMR17-34" transform="scale(0.996264)"/>
     </g>
    </g>
   </g>
   <g id="xtick_17">
    <g id="line2d_20">
     <path d="M 79.975719 86.58975 
L 76.704274 86.388033 
" style="fill: none; stroke: #000000; stroke-width: 0.8; stroke-linecap: square"/>
    </g>
    <g id="text_20">
     <!-- $\mathdefault{5}$ -->
     <g transform="translate(56.004124 93.239352)scale(0.1 -0.1)">
      <use xlink:href="#CMR17-35" transform="scale(0.996264)"/>
     </g>
    </g>
   </g>
  </g>
  <g id="axes_1">
   <g id="line2d_21">
    <path d="M 289.024046 244.491045 
L 322.376014 88.931787 
" clip-path="url(#pe350beb071)" style="fill: none; stroke: #ff0000; stroke-width: 1.5; stroke-linecap: square"/>
   </g>
   <g id="line2d_22">
    <path d="M 289.024046 244.491045 
L 210.703912 121.117733 
" clip-path="url(#pe350beb071)" style="fill: none; stroke: #00ff00; stroke-width: 1.5; stroke-linecap: square"/>
   </g>
   <g id="line2d_23">
    <path d="M 289.024046 244.491045 
L 248.895451 -1 
" clip-path="url(#pe350beb071)" style="fill: none; stroke: #0016ff; stroke-width: 1.5; stroke-linecap: square"/>
   </g>
   <g id="line2d_24">
    <path d="M 289.024046 244.491045 
L 120.721135 151.617189 
" clip-path="url(#pe350beb071)" style="fill: none; stroke: #f400ff; stroke-width: 1.5; stroke-linecap: square"/>
   </g>
   <g id="Poly3DCollection_1">
    <path d="M 203.589177 353.674214 
L 192.720837 314.166499 
L 201.092711 303.315819 
L 211.916216 343.03251 
z
" clip-path="url(#pe350beb071)" style="fill: #0000f5; fill-opacity: 0.1"/>
    <path d="M 211.916216 343.03251 
L 201.092711 303.315819 
L 209.512283 292.40332 
L 220.290269 332.330726 
z
" clip-path="url(#pe350beb071)" style="fill: #0000f5; fill-opacity: 0.1"/>
    <path d="M 220.290269 332.330726 
L 209.512283 292.40332 
L 217.97996 281.428471 
L 228.711734 321.568349 
z
" clip-path="url(#pe350beb071)" style="fill: #0000f5; fill-opacity: 0.1"/>
    <path d="M 228.711734 321.568349 
L 217.97996 281.428471 
L 226.496157 270.390736 
L 237.181015 310.744865 
z
" clip-path="url(#pe350beb071)" style="fill: #0000f5; fill-opacity: 0.1"/>
    <path d="M 192.720837 314.166499 
L 181.65363 273.935877 
L 190.070592 262.870315 
L 201.092711 303.315819 
z
" clip-path="url(#pe350beb071)" style="fill: #0000f5; fill-opacity: 0.1"/>
    <path d="M 237.181015 310.744865 
L 226.496157 270.390736 
L 235.061292 259.289574 
L 245.698521 299.859751 
z
" clip-path="url(#pe350beb071)" style="fill: #0000f5; fill-opacity: 0.1"/>
    <path d="M 201.092711 303.315819 
L 190.070592 262.870315 
L 198.535949 251.741128 
L 209.512283 292.40332 
z
" clip-path="url(#pe350beb071)" style="fill: #0000f5; fill-opacity: 0.1"/>
    <path d="M 245.698521 299.859751 
L 235.061292 259.289574 
L 243.675788 248.124436 
L 254.264665 288.912479 
z
" clip-path="url(#pe350beb071)" style="fill: #0000f5; fill-opacity: 0.1"/>
    <path d="M 209.512283 292.40332 
L 198.535949 251.741128 
L 207.05012 240.547767 
L 217.97996 281.428471 
z
" clip-path="url(#pe350beb071)" style="fill: #0000f5; fill-opacity: 0.1"/>
    <path d="M 254.264665 288.912479 
L 243.675788 248.124436 
L 252.340073 236.894767 
L 262.879864 277.902516 
z
" clip-path="url(#pe350beb071)" style="fill: #0000f5; fill-opacity: 0.1"/>
    <path d="M 217.97996 281.428471 
L 207.05012 240.547767 
L 215.613529 229.289674 
L 226.496157 270.390736 
z
" clip-path="url(#pe350beb071)" style="fill: #0000f5; fill-opacity: 0.1"/>
    <path d="M 181.65363 273.935877 
L 170.382047 232.962325 
L 178.84434 221.67575 
L 190.070592 262.870315 
z
" clip-path="url(#pe350beb071)" style="fill: #0000f5; fill-opacity: 0.1"/>
    <path d="M 262.879864 277.902516 
L 252.340073 236.894767 
L 261.054579 225.600007 
L 271.544542 266.829321 
z
" clip-path="url(#pe350beb071)" style="fill: #0000f5; fill-opacity: 0.1"/>
    <path d="M 226.496157 270.390736 
L 215.613529 229.289674 
L 224.226603 217.966287 
L 235.061292 259.289574 
z
" clip-path="url(#pe350beb071)" style="fill: #0000f5; fill-opacity: 0.1"/>
    <path d="M 190.070592 262.870315 
L 178.84434 221.67575 
L 187.355741 210.323678 
L 198.535949 251.741128 
z
" clip-path="url(#pe350beb071)" style="fill: #0000f5; fill-opacity: 0.1"/>
    <path d="M 271.544542 266.829321 
L 261.054579 225.600007 
L 269.819745 214.239587 
L 280.259125 255.692348 
z
" clip-path="url(#pe350beb071)" style="fill: #0000f5; fill-opacity: 0.1"/>
    <path d="M 235.061292 259.289574 
L 224.226603 217.966287 
L 232.889777 206.577036 
L 243.675788 248.124436 
z
" clip-path="url(#pe350beb071)" style="fill: #0000f5; fill-opacity: 0.1"/>
    <path d="M 198.535949 251.741128 
L 187.355741 210.323678 
L 195.916678 198.905536 
L 207.05012 240.547767 
z
" clip-path="url(#pe350beb071)" style="fill: #0000f5; fill-opacity: 0.1"/>
    <path d="M 280.259125 255.692348 
L 269.819745 214.239587 
L 278.636013 202.812934 
L 289.024046 244.491045 
z
" clip-path="url(#pe350beb071)" style="fill: #0000f5; fill-opacity: 0.1"/>
    <path d="M 243.675788 248.124436 
L 232.889777 206.577036 
L 241.603488 195.121344 
L 252.340073 236.894767 
z
" clip-path="url(#pe350beb071)" style="fill: #0000f5; fill-opacity: 0.1"/>
    <path d="M 207.05012 240.547767 
L 195.916678 198.905536 
L 204.527586 187.420746 
L 215.613529 229.289674 
z
" clip-path="url(#pe350beb071)" style="fill: #0000f5; fill-opacity: 0.1"/>
    <path d="M 170.382047 232.962325 
L 158.900374 191.225071 
L 167.408232 179.711122 
L 178.84434 221.67575 
z
" clip-path="url(#pe350beb071)" style="fill: #0000f5; fill-opacity: 0.1"/>
    <path d="M 289.024046 244.491045 
L 278.636013 202.812934 
L 287.503833 191.319466 
L 297.839743 233.224852 
z
" clip-path="url(#pe350beb071)" style="fill: #0000f5; fill-opacity: 0.1"/>
    <path d="M 252.340073 236.894767 
L 241.603488 195.121344 
L 250.368181 183.598629 
L 261.054579 225.600007 
z
" clip-path="url(#pe350beb071)" style="fill: #0000f5; fill-opacity: 0.1"/>
    <path d="M 215.613529 229.289674 
L 204.527586 187.420746 
L 213.188904 175.868722 
L 224.226603 217.966287 
z
" clip-path="url(#pe350beb071)" style="fill: #0000f5; fill-opacity: 0.1"/>
    <path d="M 178.84434 221.67575 
L 167.408232 179.711122 
L 175.965925 168.12973 
L 187.355741 210.323678 
z
" clip-path="url(#pe350beb071)" style="fill: #0000f5; fill-opacity: 0.1"/>
    <path d="M 297.839743 233.224852 
L 287.503833 191.319466 
L 296.423656 179.758596 
L 306.706658 221.893204 
z
" clip-path="url(#pe350beb071)" style="fill: #0000f5; fill-opacity: 0.1"/>
    <path d="M 261.054579 225.600007 
L 250.368181 183.598629 
L 259.184303 172.008301 
L 269.819745 214.239587 
z
" clip-path="url(#pe350beb071)" style="fill: #0000f5; fill-opacity: 0.1"/>
    <path d="M 224.226603 217.966287 
L 213.188904 175.868722 
L 221.901074 164.248874 
L 232.889777 206.577036 
z
" clip-path="url(#pe350beb071)" style="fill: #0000f5; fill-opacity: 0.1"/>
    <path d="M 187.355741 210.323678 
L 175.965925 168.12973 
L 184.573893 156.4803 
L 195.916678 198.905536 
z
" clip-path="url(#pe350beb071)" style="fill: #0000f5; fill-opacity: 0.1"/>
    <path d="M 306.706658 221.893204 
L 296.423656 179.758596 
L 305.395943 168.12973 
L 315.625238 210.49553 
z
" clip-path="url(#pe350beb071)" style="fill: #0000f5; fill-opacity: 0.1"/>
    <path d="M 269.819745 214.239587 
L 259.184303 172.008301 
L 268.052309 160.349762 
L 278.636013 202.812934 
z
" clip-path="url(#pe350beb071)" style="fill: #0000f5; fill-opacity: 0.1"/>
    <path d="M 232.889777 206.577036 
L 221.901074 164.248874 
L 230.664547 152.560601 
L 241.603488 195.121344 
z
" clip-path="url(#pe350beb071)" style="fill: #0000f5; fill-opacity: 0.1"/>
    <path d="M 195.916678 198.905536 
L 184.573893 156.4803 
L 193.23258 144.76223 
L 204.527586 187.420746 
z
" clip-path="url(#pe350beb071)" style="fill: #0000f5; fill-opacity: 0.1"/>
    <path d="M 158.900374 191.225071 
L 147.202682 148.702562 
L 155.756328 136.954634 
L 167.408232 179.711122 
z
" clip-path="url(#pe350beb071)" style="fill: #0000f5; fill-opacity: 0.1"/>
    <path d="M 315.625238 210.49553 
L 305.395943 168.12973 
L 314.421157 156.432265 
L 324.595937 199.031249 
z
" clip-path="url(#pe350beb071)" style="fill: #0000f5; fill-opacity: 0.1"/>
    <path d="M 278.636013 202.812934 
L 268.052309 160.349762 
L 276.972658 148.622409 
L 287.503833 191.319466 
z
" clip-path="url(#pe350beb071)" style="fill: #0000f5; fill-opacity: 0.1"/>
    <path d="M 241.603488 195.121344 
L 230.664547 152.560601 
L 239.479777 140.803297 
L 250.368181 183.598629 
z
" clip-path="url(#pe350beb071)" style="fill: #0000f5; fill-opacity: 0.1"/>
    <path d="M 204.527586 187.420746 
L 193.23258 144.76223 
L 201.942434 132.974913 
L 213.188904 175.868722 
z
" clip-path="url(#pe350beb071)" style="fill: #0000f5; fill-opacity: 0.1"/>
    <path d="M 167.408232 179.711122 
L 155.756328 136.954634 
L 164.360552 125.137241 
L 175.965925 168.12973 
z
" clip-path="url(#pe350beb071)" style="fill: #0000f5; fill-opacity: 0.1"/>
    <path d="M 324.595937 199.031249 
L 314.421157 156.432265 
L 323.499768 144.665593 
L 333.619213 187.499777 
z
" clip-path="url(#pe350beb071)" style="fill: #0000f5; fill-opacity: 0.1"/>
    <path d="M 287.503833 191.319466 
L 276.972658 148.622409 
L 285.945815 136.825631 
L 296.423656 179.758596 
z
" clip-path="url(#pe350beb071)" style="fill: #0000f5; fill-opacity: 0.1"/>
    <path d="M 250.368181 183.598629 
L 239.479777 140.803297 
L 248.347223 128.97635 
L 259.184303 172.008301 
z
" clip-path="url(#pe350beb071)" style="fill: #0000f5; fill-opacity: 0.1"/>
    <path d="M 213.188904 175.868722 
L 201.942434 132.974913 
L 210.703912 121.117733 
L 221.901074 164.248874 
z
" clip-path="url(#pe350beb071)" style="fill: #0000f5; fill-opacity: 0.1"/>
    <path d="M 175.965925 168.12973 
L 164.360552 125.137241 
L 173.015803 113.249764 
L 184.573893 156.4803 
z
" clip-path="url(#pe350beb071)" style="fill: #0000f5; fill-opacity: 0.1"/>
    <path d="M 333.619213 187.499777 
L 323.499768 144.665593 
L 332.632252 132.829097 
L 342.695528 175.900521 
z
" clip-path="url(#pe350beb071)" style="fill: #0000f5; fill-opacity: 0.1"/>
    <path d="M 296.423656 179.758596 
L 285.945815 136.825631 
L 294.97225 124.958809 
L 305.395943 168.12973 
z
" clip-path="url(#pe350beb071)" style="fill: #0000f5; fill-opacity: 0.1"/>
    <path d="M 259.184303 172.008301 
L 248.347223 128.97635 
L 257.267351 117.079138 
L 268.052309 160.349762 
z
" clip-path="url(#pe350beb071)" style="fill: #0000f5; fill-opacity: 0.1"/>
    <path d="M 221.901074 164.248874 
L 210.703912 121.117733 
L 219.517474 109.190067 
L 230.664547 152.560601 
z
" clip-path="url(#pe350beb071)" style="fill: #0000f5; fill-opacity: 0.1"/>
    <path d="M 184.573893 156.4803 
L 173.015803 113.249764 
L 181.722538 101.29158 
L 193.23258 144.76223 
z
" clip-path="url(#pe350beb071)" style="fill: #0000f5; fill-opacity: 0.1"/>
    <path d="M 342.695528 175.900521 
L 332.632252 132.829097 
L 341.819089 120.922155 
L 351.825354 164.232881 
z
" clip-path="url(#pe350beb071)" style="fill: #0000f5; fill-opacity: 0.1"/>
    <path d="M 147.202682 148.702562 
L 135.282816 105.372427 
L 143.882462 93.383659 
L 155.756328 136.954634 
z
" clip-path="url(#pe350beb071)" style="fill: #0000f5; fill-opacity: 0.1"/>
    <path d="M 305.395943 168.12973 
L 294.97225 124.958809 
L 304.05244 113.021318 
L 314.421157 156.432265 
z
" clip-path="url(#pe350beb071)" style="fill: #0000f5; fill-opacity: 0.1"/>
    <path d="M 268.052309 160.349762 
L 257.267351 117.079138 
L 266.240632 105.111033 
L 276.972658 148.622409 
z
" clip-path="url(#pe350beb071)" style="fill: #0000f5; fill-opacity: 0.1"/>
    <path d="M 230.664547 152.560601 
L 219.517474 109.190067 
L 228.383584 97.191284 
L 239.479777 140.803297 
z
" clip-path="url(#pe350beb071)" style="fill: #0000f5; fill-opacity: 0.1"/>
    <path d="M 193.23258 144.76223 
L 181.722538 101.29158 
L 190.481215 89.262054 
L 201.942434 132.974913 
z
" clip-path="url(#pe350beb071)" style="fill: #0000f5; fill-opacity: 0.1"/>
    <path d="M 351.825354 164.232881 
L 341.819089 120.922155 
L 351.060766 108.944136 
L 361.009163 152.496252 
z
" clip-path="url(#pe350beb071)" style="fill: #0000f5; fill-opacity: 0.1"/>
    <path d="M 155.756328 136.954634 
L 143.882462 93.383659 
L 152.533443 81.323325 
L 164.360552 125.137241 
z
" clip-path="url(#pe350beb071)" style="fill: #0000f5; fill-opacity: 0.1"/>
    <path d="M 314.421157 156.432265 
L 304.05244 113.021318 
L 313.186865 101.012524 
L 323.499768 144.665593 
z
" clip-path="url(#pe350beb071)" style="fill: #0000f5; fill-opacity: 0.1"/>
    <path d="M 276.972658 148.622409 
L 266.240632 105.111033 
L 275.267543 93.0714 
L 285.945815 136.825631 
z
" clip-path="url(#pe350beb071)" style="fill: #0000f5; fill-opacity: 0.1"/>
    <path d="M 239.479777 140.803297 
L 228.383584 97.191284 
L 237.302716 85.120746 
L 248.347223 128.97635 
z
" clip-path="url(#pe350beb071)" style="fill: #0000f5; fill-opacity: 0.1"/>
    <path d="M 201.942434 132.974913 
L 190.481215 89.262054 
L 199.292302 77.160546 
L 210.703912 121.117733 
z
" clip-path="url(#pe350beb071)" style="fill: #0000f5; fill-opacity: 0.1"/>
    <path d="M 361.009163 152.496252 
L 351.060766 108.944136 
L 360.357775 96.8944 
L 370.247436 140.690019 
z
" clip-path="url(#pe350beb071)" style="fill: #0000f5; fill-opacity: 0.1"/>
    <path d="M 164.360552 125.137241 
L 152.533443 81.323325 
L 161.236221 69.190781 
L 173.015803 113.249764 
z
" clip-path="url(#pe350beb071)" style="fill: #0000f5; fill-opacity: 0.1"/>
    <path d="M 323.499768 144.665593 
L 313.186865 101.012524 
L 322.376014 88.931787 
L 332.632252 132.829097 
z
" clip-path="url(#pe350beb071)" style="fill: #0000f5; fill-opacity: 0.1"/>
    <path d="M 285.945815 136.825631 
L 275.267543 93.0714 
L 284.348565 80.959596 
L 294.97225 124.958809 
z
" clip-path="url(#pe350beb071)" style="fill: #0000f5; fill-opacity: 0.1"/>
    <path d="M 248.347223 128.97635 
L 237.302716 85.120746 
L 246.275345 72.977809 
L 257.267351 117.079138 
z
" clip-path="url(#pe350beb071)" style="fill: #0000f5; fill-opacity: 0.1"/>
    <path d="M 210.703912 121.117733 
L 199.292302 77.160546 
L 208.156271 64.986409 
L 219.517474 109.190067 
z
" clip-path="url(#pe350beb071)" style="fill: #0000f5; fill-opacity: 0.1"/>
    <path d="M 173.015803 113.249764 
L 161.236221 69.190781 
L 169.991261 56.985378 
L 181.722538 101.29158 
z
" clip-path="url(#pe350beb071)" style="fill: #0000f5; fill-opacity: 0.1"/>
    <path d="M 332.632252 132.829097 
L 322.376014 88.931787 
L 331.620379 76.778459 
L 341.819089 120.922155 
z
" clip-path="url(#pe350beb071)" style="fill: #0000f5; fill-opacity: 0.1"/>
    <path d="M 135.282816 105.372427 
L 123.134388 61.211436 
L 131.780231 48.9747 
L 143.882462 93.383659 
z
" clip-path="url(#pe350beb071)" style="fill: #0000f5; fill-opacity: 0.1"/>
    <path d="M 294.97225 124.958809 
L 284.348565 80.959596 
L 293.484187 68.774969 
L 304.05244 113.021318 
z
" clip-path="url(#pe350beb071)" style="fill: #0000f5; fill-opacity: 0.1"/>
    <path d="M 257.267351 117.079138 
L 246.275345 72.977809 
L 255.301955 60.761817 
L 266.240632 105.111033 
z
" clip-path="url(#pe350beb071)" style="fill: #0000f5; fill-opacity: 0.1"/>
    <path d="M 219.517474 109.190067 
L 208.156271 64.986409 
L 217.073599 52.738986 
L 228.383584 97.191284 
z
" clip-path="url(#pe350beb071)" style="fill: #0000f5; fill-opacity: 0.1"/>
    <path d="M 181.722538 101.29158 
L 169.991261 56.985378 
L 178.799036 44.706457 
L 190.481215 89.262054 
z
" clip-path="url(#pe350beb071)" style="fill: #0000f5; fill-opacity: 0.1"/>
    <path d="M 341.819089 120.922155 
L 331.620379 76.778459 
L 340.92046 64.551882 
L 351.060766 108.944136 
z
" clip-path="url(#pe350beb071)" style="fill: #0000f5; fill-opacity: 0.1"/>
    <path d="M 143.882462 93.383659 
L 131.780231 48.9747 
L 140.478183 36.664214 
L 152.533443 81.323325 
z
" clip-path="url(#pe350beb071)" style="fill: #0000f5; fill-opacity: 0.1"/>
    <path d="M 304.05244 113.021318 
L 293.484187 68.774969 
L 302.674902 56.516862 
L 313.186865 101.012524 
z
" clip-path="url(#pe350beb071)" style="fill: #0000f5; fill-opacity: 0.1"/>
    <path d="M 266.240632 105.111033 
L 255.301955 60.761817 
L 264.383033 48.472112 
L 275.267543 93.0714 
z
" clip-path="url(#pe350beb071)" style="fill: #0000f5; fill-opacity: 0.1"/>
    <path d="M 228.383584 97.191284 
L 217.073599 52.738986 
L 226.044769 40.417614 
L 237.302716 85.120746 
z
" clip-path="url(#pe350beb071)" style="fill: #0000f5; fill-opacity: 0.1"/>
    <path d="M 190.481215 89.262054 
L 178.799036 44.706457 
L 187.660025 32.353352 
L 199.292302 77.160546 
z
" clip-path="url(#pe350beb071)" style="fill: #0000f5; fill-opacity: 0.1"/>
    <path d="M 351.060766 108.944136 
L 340.92046 64.551882 
L 350.276762 52.251394 
L 360.357775 96.8944 
z
" clip-path="url(#pe350beb071)" style="fill: #0000f5; fill-opacity: 0.1"/>
    <path d="M 152.533443 81.323325 
L 140.478183 36.664214 
L 149.228716 24.279307 
L 161.236221 69.190781 
z
" clip-path="url(#pe350beb071)" style="fill: #0000f5; fill-opacity: 0.1"/>
    <path d="M 313.186865 101.012524 
L 302.674902 56.516862 
L 311.921211 44.184607 
L 322.376014 88.931787 
z
" clip-path="url(#pe350beb071)" style="fill: #0000f5; fill-opacity: 0.1"/>
    <path d="M 275.267543 93.0714 
L 264.383033 48.472112 
L 273.519076 36.108022 
L 284.348565 80.959596 
z
" clip-path="url(#pe350beb071)" style="fill: #0000f5; fill-opacity: 0.1"/>
    <path d="M 237.302716 85.120746 
L 226.044769 40.417614 
L 235.07027 28.021621 
L 246.275345 72.977809 
z
" clip-path="url(#pe350beb071)" style="fill: #0000f5; fill-opacity: 0.1"/>
    <path d="M 199.292302 77.160546 
L 187.660025 32.353352 
L 196.57471 19.925388 
L 208.156271 64.986409 
z
" clip-path="url(#pe350beb071)" style="fill: #0000f5; fill-opacity: 0.1"/>
    <path d="M 161.236221 69.190781 
L 149.228716 24.279307 
L 158.032309 11.819303 
L 169.991261 56.985378 
z
" clip-path="url(#pe350beb071)" style="fill: #0000f5; fill-opacity: 0.1"/>
    <path d="M 322.376014 88.931787 
L 311.921211 44.184607 
L 321.223619 31.777529 
L 331.620379 76.778459 
z
" clip-path="url(#pe350beb071)" style="fill: #0000f5; fill-opacity: 0.1"/>
    <path d="M 123.134388 61.211436 
L 110.750758 16.195461 
L 119.442982 3.703348 
L 131.780231 48.9747 
z
" clip-path="url(#pe350beb071)" style="fill: #0000f5; fill-opacity: 0.1"/>
    <path d="M 284.348565 80.959596 
L 273.519076 36.108022 
L 282.710582 23.66887 
L 293.484187 68.774969 
z
" clip-path="url(#pe350beb071)" style="fill: #0000f5; fill-opacity: 0.1"/>
    <path d="M 246.275345 72.977809 
L 235.07027 28.021621 
L 244.150598 15.550328 
L 255.301955 60.761817 
z
" clip-path="url(#pe350beb071)" style="fill: #0000f5; fill-opacity: 0.1"/>
    <path d="M 208.156271 64.986409 
L 196.57471 19.925388 
L 205.543581 7.421882 
L 217.073599 52.738986 
z
" clip-path="url(#pe350beb071)" style="fill: #0000f5; fill-opacity: 0.1"/>
    <path d="M 169.991261 56.985378 
L 158.032309 11.819303 
L 166.889445 -0.716483 
L 178.799036 44.706457 
z
" clip-path="url(#pe350beb071)" style="fill: #0000f5; fill-opacity: 0.1"/>
    <path d="M 331.620379 76.778459 
L 321.223619 31.777529 
L 330.582639 19.294946 
L 340.92046 64.551882 
z
" clip-path="url(#pe350beb071)" style="fill: #0000f5; fill-opacity: 0.1"/>
    <path d="M 131.780231 48.9747 
L 119.442982 3.703348 
L 128.188104 -8.864788 
L 140.478183 36.664214 
z
" clip-path="url(#pe350beb071)" style="fill: #0000f5; fill-opacity: 0.1"/>
    <path d="M 293.484187 68.774969 
L 282.710582 23.66887 
L 291.958059 11.153972 
L 302.674902 56.516862 
z
" clip-path="url(#pe350beb071)" style="fill: #0000f5; fill-opacity: 0.1"/>
    <path d="M 255.301955 60.761817 
L 244.150598 15.550328 
L 253.286253 3.003045 
L 264.383033 48.472112 
z
" clip-path="url(#pe350beb071)" style="fill: #0000f5; fill-opacity: 0.1"/>
    <path d="M 217.073599 52.738986 
L 205.543581 7.421882 
L 214.567134 -5.157855 
L 226.044769 40.417614 
z
" clip-path="url(#pe350beb071)" style="fill: #0000f5; fill-opacity: 0.1"/>
    <path d="M 178.799036 44.706457 
L 166.889445 -0.716483 
L 175.800616 -13.328745 
L 187.660025 32.353352 
z
" clip-path="url(#pe350beb071)" style="fill: #0000f5; fill-opacity: 0.1"/>
    <path d="M 340.92046 64.551882 
L 330.582639 19.294946 
L 339.998789 6.736166 
L 350.276762 52.251394 
z
" clip-path="url(#pe350beb071)" style="fill: #0000f5; fill-opacity: 0.1"/>
    <path d="M 140.478183 36.664214 
L 128.188104 -8.864788 
L 136.98661 -21.509644 
L 149.228716 24.279307 
z
" clip-path="url(#pe350beb071)" style="fill: #0000f5; fill-opacity: 0.1"/>
    <path d="M 302.674902 56.516862 
L 291.958059 11.153972 
L 301.26202 -1.437367 
L 311.921211 44.184607 
z
" clip-path="url(#pe350beb071)" style="fill: #0000f5; fill-opacity: 0.1"/>
    <path d="M 264.383033 48.472112 
L 253.286253 3.003045 
L 262.477744 -9.620924 
L 273.519076 36.108022 
z
" clip-path="url(#pe350beb071)" style="fill: #0000f5; fill-opacity: 0.1"/>
    <path d="M 226.044769 40.417614 
L 214.567134 -5.157855 
L 223.645871 -17.814523 
L 235.07027 28.021621 
z
" clip-path="url(#pe350beb071)" style="fill: #0000f5; fill-opacity: 0.1"/>
    <path d="M 187.660025 32.353352 
L 175.800616 -13.328745 
L 184.766316 -26.018184 
L 196.57471 19.925388 
z
" clip-path="url(#pe350beb071)" style="fill: #0000f5; fill-opacity: 0.1"/>
    <path d="M 149.228716 24.279307 
L 136.98661 -21.509644 
L 145.838989 -34.231925 
L 158.032309 11.819303 
z
" clip-path="url(#pe350beb071)" style="fill: #0000f5; fill-opacity: 0.1"/>
    <path d="M 311.921211 44.184607 
L 301.26202 -1.437367 
L 310.622984 -14.105849 
L 321.223619 31.777529 
z
" clip-path="url(#pe350beb071)" style="fill: #0000f5; fill-opacity: 0.1"/>
    <path d="M 110.750758 16.195461 
L 98.12503 -29.700571 
L 106.863802 -42.455764 
L 119.442982 3.703348 
z
" clip-path="url(#pe350beb071)" style="fill: #0000f5; fill-opacity: 0.1"/>
    <path d="M 273.519076 36.108022 
L 262.477744 -9.620924 
L 271.725582 -22.322283 
L 282.710582 23.66887 
z
" clip-path="url(#pe350beb071)" style="fill: #0000f5; fill-opacity: 0.1"/>
    <path d="M 235.07027 28.021621 
L 223.645871 -17.814523 
L 232.780299 -30.548831 
L 244.150598 15.550328 
z
" clip-path="url(#pe350beb071)" style="fill: #0000f5; fill-opacity: 0.1"/>
    <path d="M 196.57471 19.925388 
L 184.766316 -26.018184 
L 193.787047 -38.785511 
L 205.543581 7.421882 
z
" clip-path="url(#pe350beb071)" style="fill: #0000f5; fill-opacity: 0.1"/>
    <path d="M 158.032309 11.819303 
L 145.838989 -34.231925 
L 154.745737 -47.032344 
L 166.889445 -0.716483 
z
" clip-path="url(#pe350beb071)" style="fill: #0000f5; fill-opacity: 0.1"/>
    <path d="M 321.223619 31.777529 
L 310.622984 -14.105849 
L 320.041475 -26.852186 
L 330.582639 19.294946 
z
" clip-path="url(#pe350beb071)" style="fill: #0000f5; fill-opacity: 0.1"/>
    <path d="M 119.442982 3.703348 
L 106.863802 -42.455764 
L 115.65628 -55.289346 
L 128.188104 -8.864788 
z
" clip-path="url(#pe350beb071)" style="fill: #0000f5; fill-opacity: 0.1"/>
    <path d="M 282.710582 23.66887 
L 271.725582 -22.322283 
L 281.030288 -35.101747 
L 291.958059 11.153972 
z
" clip-path="url(#pe350beb071)" style="fill: #0000f5; fill-opacity: 0.1"/>
    <path d="M 244.150598 15.550328 
L 232.780299 -30.548831 
L 241.970932 -43.361494 
L 253.286253 3.003045 
z
" clip-path="url(#pe350beb071)" style="fill: #0000f5; fill-opacity: 0.1"/>
    <path d="M 205.543581 7.421882 
L 193.787047 -38.785511 
L 202.863319 -51.631446 
L 214.567134 -5.157855 
z
" clip-path="url(#pe350beb071)" style="fill: #0000f5; fill-opacity: 0.1"/>
    <path d="M 166.889445 -0.716483 
L 154.745737 -47.032344 
L 163.707357 -59.911622 
L 175.800616 -13.328745 
z
" clip-path="url(#pe350beb071)" style="fill: #0000f5; fill-opacity: 0.1"/>
    <path d="M 330.582639 19.294946 
L 320.041475 -26.852186 
L 329.518027 -39.677098 
L 339.998789 6.736166 
z
" clip-path="url(#pe350beb071)" style="fill: #0000f5; fill-opacity: 0.1"/>
    <path d="M 128.188104 -8.864788 
L 115.65628 -55.289346 
L 124.502959 -68.202041 
L 136.98661 -21.509644 
z
" clip-path="url(#pe350beb071)" style="fill: #0000f5; fill-opacity: 0.1"/>
    <path d="M 291.958059 11.153972 
L 281.030288 -35.101747 
L 290.392389 -47.960039 
L 301.26202 -1.437367 
z
" clip-path="url(#pe350beb071)" style="fill: #0000f5; fill-opacity: 0.1"/>
    <path d="M 253.286253 3.003045 
L 241.970932 -43.361494 
L 251.218291 -56.253239 
L 262.477744 -9.620924 
z
" clip-path="url(#pe350beb071)" style="fill: #0000f5; fill-opacity: 0.1"/>
    <path d="M 214.567134 -5.157855 
L 202.863319 -51.631446 
L 211.995645 -64.556717 
L 223.645871 -17.814523 
z
" clip-path="url(#pe350beb071)" style="fill: #0000f5; fill-opacity: 0.1"/>
    <path d="M 175.800616 -13.328745 
L 163.707357 -59.911622 
L 172.724359 -72.870491 
L 184.766316 -26.018184 
z
" clip-path="url(#pe350beb071)" style="fill: #0000f5; fill-opacity: 0.1"/>
    <path d="M 136.98661 -21.509644 
L 124.502959 -68.202041 
L 133.404343 -81.194582 
L 145.838989 -34.231925 
z
" clip-path="url(#pe350beb071)" style="fill: #0000f5; fill-opacity: 0.1"/>
    <path d="M 301.26202 -1.437367 
L 290.392389 -47.960039 
L 299.812416 -60.89789 
L 310.622984 -14.105849 
z
" clip-path="url(#pe350beb071)" style="fill: #0000f5; fill-opacity: 0.1"/>
    <path d="M 262.477744 -9.620924 
L 251.218291 -56.253239 
L 260.522902 -69.224799 
L 271.725582 -22.322283 
z
" clip-path="url(#pe350beb071)" style="fill: #0000f5; fill-opacity: 0.1"/>
    <path d="M 223.645871 -17.814523 
L 211.995645 -64.556717 
L 221.184546 -77.56206 
L 232.780299 -30.548831 
z
" clip-path="url(#pe350beb071)" style="fill: #0000f5; fill-opacity: 0.1"/>
    <path d="M 184.766316 -26.018184 
L 172.724359 -72.870491 
L 181.797255 -85.909692 
L 193.787047 -38.785511 
z
" clip-path="url(#pe350beb071)" style="fill: #0000f5; fill-opacity: 0.1"/>
    <path d="M 145.838989 -34.231925 
L 133.404343 -81.194582 
L 142.360939 -94.267714 
L 154.745737 -47.032344 
z
" clip-path="url(#pe350beb071)" style="fill: #0000f5; fill-opacity: 0.1"/>
    <path d="M 310.622984 -14.105849 
L 299.812416 -60.89789 
L 309.290909 -73.91604 
L 320.041475 -26.852186 
z
" clip-path="url(#pe350beb071)" style="fill: #0000f5; fill-opacity: 0.1"/>
    <path d="M 271.725582 -22.322283 
L 260.522902 -69.224799 
L 269.885299 -82.276918 
L 281.030288 -35.101747 
z
" clip-path="url(#pe350beb071)" style="fill: #0000f5; fill-opacity: 0.1"/>
    <path d="M 232.780299 -30.548831 
L 221.184546 -77.56206 
L 230.43055 -90.648222 
L 241.970932 -43.361494 
z
" clip-path="url(#pe350beb071)" style="fill: #0000f5; fill-opacity: 0.1"/>
    <path d="M 193.787047 -38.785511 
L 181.797255 -85.909692 
L 190.926569 -99.029972 
L 202.863319 -51.631446 
z
" clip-path="url(#pe350beb071)" style="fill: #0000f5; fill-opacity: 0.1"/>
    <path d="M 154.745737 -47.032344 
L 142.360939 -94.267714 
L 151.373265 -107.422187 
L 163.707357 -59.911622 
z
" clip-path="url(#pe350beb071)" style="fill: #0000f5; fill-opacity: 0.1"/>
    <path d="M 320.041475 -26.852186 
L 309.290909 -73.91604 
L 318.828415 -87.01524 
L 329.518027 -39.677098 
z
" clip-path="url(#pe350beb071)" style="fill: #0000f5; fill-opacity: 0.1"/>
    <path d="M 281.030288 -35.101747 
L 269.885299 -82.276918 
L 279.306022 -95.410349 
L 290.392389 -47.960039 
z
" clip-path="url(#pe350beb071)" style="fill: #0000f5; fill-opacity: 0.1"/>
    <path d="M 241.970932 -43.361494 
L 230.43055 -90.648222 
L 239.734191 -103.81596 
L 251.218291 -56.253239 
z
" clip-path="url(#pe350beb071)" style="fill: #0000f5; fill-opacity: 0.1"/>
    <path d="M 202.863319 -51.631446 
L 190.926569 -99.029972 
L 200.112828 -112.232092 
L 211.995645 -64.556717 
z
" clip-path="url(#pe350beb071)" style="fill: #0000f5; fill-opacity: 0.1"/>
    <path d="M 163.707357 -59.911622 
L 151.373265 -107.422187 
L 160.44184 -120.658764 
L 172.724359 -72.870491 
z
" clip-path="url(#pe350beb071)" style="fill: #0000f5; fill-opacity: 0.1"/>
    <path d="M 290.392389 -47.960039 
L 279.306022 -95.410349 
L 288.785617 -108.625854 
L 299.812416 -60.89789 
z
" clip-path="url(#pe350beb071)" style="fill: #0000f5; fill-opacity: 0.1"/>
    <path d="M 251.218291 -56.253239 
L 239.734191 -103.81596 
L 249.096009 -117.066037 
L 260.522902 -69.224799 
z
" clip-path="url(#pe350beb071)" style="fill: #0000f5; fill-opacity: 0.1"/>
    <path d="M 211.995645 -64.556717 
L 200.112828 -112.232092 
L 209.356566 -125.516818 
L 221.184546 -77.56206 
z
" clip-path="url(#pe350beb071)" style="fill: #0000f5; fill-opacity: 0.1"/>
    <path d="M 172.724359 -72.870491 
L 160.44184 -120.658764 
L 169.567195 -133.978216 
L 181.797255 -85.909692 
z
" clip-path="url(#pe350beb071)" style="fill: #0000f5; fill-opacity: 0.1"/>
    <path d="M 299.812416 -60.89789 
L 288.785617 -108.625854 
L 298.324638 -121.924206 
L 309.290909 -73.91604 
z
" clip-path="url(#pe350beb071)" style="fill: #0000f5; fill-opacity: 0.1"/>
    <path d="M 260.522902 -69.224799 
L 249.096009 -117.066037 
L 258.516551 -130.39923 
L 269.885299 -82.276918 
z
" clip-path="url(#pe350beb071)" style="fill: #0000f5; fill-opacity: 0.1"/>
    <path d="M 221.184546 -77.56206 
L 209.356566 -125.516818 
L 218.658324 -138.884929 
L 230.43055 -90.648222 
z
" clip-path="url(#pe350beb071)" style="fill: #0000f5; fill-opacity: 0.1"/>
    <path d="M 181.797255 -85.909692 
L 169.567195 -133.978216 
L 178.749862 -147.381323 
L 190.926569 -99.029972 
z
" clip-path="url(#pe350beb071)" style="fill: #0000f5; fill-opacity: 0.1"/>
    <path d="M 309.290909 -73.91604 
L 298.324638 -121.924206 
L 307.923646 -135.306184 
L 318.828415 -87.01524 
z
" clip-path="url(#pe350beb071)" style="fill: #0000f5; fill-opacity: 0.1"/>
    <path d="M 269.885299 -82.276918 
L 258.516551 -130.39923 
L 267.996373 -143.816322 
L 279.306022 -95.410349 
z
" clip-path="url(#pe350beb071)" style="fill: #0000f5; fill-opacity: 0.1"/>
    <path d="M 230.43055 -90.648222 
L 218.658324 -138.884929 
L 228.018651 -152.337212 
L 239.734191 -103.81596 
z
" clip-path="url(#pe350beb071)" style="fill: #0000f5; fill-opacity: 0.1"/>
    <path d="M 190.926569 -99.029972 
L 178.749862 -147.381323 
L 187.990385 -160.868876 
L 200.112828 -112.232092 
z
" clip-path="url(#pe350beb071)" style="fill: #0000f5; fill-opacity: 0.1"/>
    <path d="M 279.306022 -95.410349 
L 267.996373 -143.816322 
L 277.536035 -157.318108 
L 288.785617 -108.625854 
z
" clip-path="url(#pe350beb071)" style="fill: #0000f5; fill-opacity: 0.1"/>
    <path d="M 239.734191 -103.81596 
L 228.018651 -152.337212 
L 237.438102 -165.874465 
L 249.096009 -117.066037 
z
" clip-path="url(#pe350beb071)" style="fill: #0000f5; fill-opacity: 0.1"/>
    <path d="M 200.112828 -112.232092 
L 187.990385 -160.868876 
L 197.289312 -174.441675 
L 209.356566 -125.516818 
z
" clip-path="url(#pe350beb071)" style="fill: #0000f5; fill-opacity: 0.1"/>
    <path d="M 288.785617 -108.625854 
L 277.536035 -157.318108 
L 287.136105 -170.905392 
L 298.324638 -121.924206 
z
" clip-path="url(#pe350beb071)" style="fill: #0000f5; fill-opacity: 0.1"/>
    <path d="M 249.096009 -117.066037 
L 237.438102 -165.874465 
L 246.917237 -179.497496 
L 258.516551 -130.39923 
z
" clip-path="url(#pe350beb071)" style="fill: #0000f5; fill-opacity: 0.1"/>
    <path d="M 209.356566 -125.516818 
L 197.289312 -174.441675 
L 206.647198 -188.100532 
L 218.658324 -138.884929 
z
" clip-path="url(#pe350beb071)" style="fill: #0000f5; fill-opacity: 0.1"/>
    <path d="M 298.324638 -121.924206 
L 287.136105 -170.905392 
L 296.79716 -184.578988 
L 307.923646 -135.306184 
z
" clip-path="url(#pe350beb071)" style="fill: #0000f5; fill-opacity: 0.1"/>
    <path d="M 258.516551 -130.39923 
L 246.917237 -179.497496 
L 256.456628 -193.207121 
L 267.996373 -143.816322 
z
" clip-path="url(#pe350beb071)" style="fill: #0000f5; fill-opacity: 0.1"/>
    <path d="M 218.658324 -138.884929 
L 206.647198 -188.100532 
L 216.064605 -201.846267 
L 228.018651 -152.337212 
z
" clip-path="url(#pe350beb071)" style="fill: #0000f5; fill-opacity: 0.1"/>
    <path d="M 267.996373 -143.816322 
L 256.456628 -193.207121 
L 266.056848 -207.004171 
L 277.536035 -157.318108 
z
" clip-path="url(#pe350beb071)" style="fill: #0000f5; fill-opacity: 0.1"/>
    <path d="M 228.018651 -152.337212 
L 216.064605 -201.846267 
L 225.542104 -215.679712 
L 237.438102 -165.874465 
z
" clip-path="url(#pe350beb071)" style="fill: #0000f5; fill-opacity: 0.1"/>
    <path d="M 277.536035 -157.318108 
L 266.056848 -207.004171 
L 275.718484 -220.889482 
L 287.136105 -170.905392 
z
" clip-path="url(#pe350beb071)" style="fill: #0000f5; fill-opacity: 0.1"/>
    <path d="M 237.438102 -165.874465 
L 225.542104 -215.679712 
L 235.080271 -229.601709 
L 246.917237 -179.497496 
z
" clip-path="url(#pe350beb071)" style="fill: #0000f5; fill-opacity: 0.1"/>
    <path d="M 287.136105 -170.905392 
L 275.718484 -220.889482 
L 285.442125 -234.863906 
L 296.79716 -184.578988 
z
" clip-path="url(#pe350beb071)" style="fill: #0000f5; fill-opacity: 0.1"/>
    <path d="M 246.917237 -179.497496 
L 235.080271 -229.601709 
L 244.679691 -243.613112 
L 256.456628 -193.207121 
z
" clip-path="url(#pe350beb071)" style="fill: #0000f5; fill-opacity: 0.1"/>
    <path d="M 256.456628 -193.207121 
L 244.679691 -243.613112 
L 254.340956 -257.714783 
L 266.056848 -207.004171 
z
" clip-path="url(#pe350beb071)" style="fill: #0000f5; fill-opacity: 0.1"/>
    <path d="M 266.056848 -207.004171 
L 254.340956 -257.714783 
L 264.064665 -271.907599 
L 275.718484 -220.889482 
z
" clip-path="url(#pe350beb071)" style="fill: #0000f5; fill-opacity: 0.1"/>
    <path d="M 275.718484 -220.889482 
L 264.064665 -271.907599 
L 273.851425 -286.192445 
L 285.442125 -234.863906 
z
" clip-path="url(#pe350beb071)" style="fill: #0000f5; fill-opacity: 0.1"/>
   </g>
   <g id="legend_1">
    <g id="patch_6">
     <path d="M 357.840076 67.305115 
L 396.2 67.305115 
Q 398.2 67.305115 398.2 65.305115 
L 398.2 7 
Q 398.2 5 396.2 5 
L 357.840076 5 
Q 355.840076 5 355.840076 7 
L 355.840076 65.305115 
Q 355.840076 67.305115 357.840076 67.305115 
z
" style="fill: #ffffff; opacity: 0.8; stroke: #cccccc; stroke-linejoin: miter"/>
    </g>
    <g id="line2d_25">
     <path d="M 359.840076 12.5 
L 369.840076 12.5 
L 379.840076 12.5 
" style="fill: none; stroke: #ff0000; stroke-width: 1.5; stroke-linecap: square"/>
    </g>
    <g id="text_21">
     <!-- $\vec{a}$ -->
     <g transform="translate(387.840076 16)scale(0.1 -0.1)">
      <defs>
       <path id="CMMI12-7e" d="M 3424 3835 
C 3347 3764 3110 3540 3110 3451 
C 3110 3387 3168 3329 3232 3329 
C 3290 3329 3315 3368 3360 3432 
C 3514 3624 3686 3745 3834 3828 
C 3898 3867 3942 3886 3942 3956 
C 3942 4014 3891 4046 3853 4078 
C 3674 4200 3629 4372 3610 4449 
C 3590 4500 3571 4577 3482 4577 
C 3443 4577 3366 4552 3366 4456 
C 3366 4398 3405 4244 3526 4072 
L 1376 4072 
C 1267 4072 1158 4072 1158 3950 
C 1158 3835 1274 3835 1376 3835 
L 3424 3835 
z
" transform="scale(0.015625)"/>
       <path id="CMMI12-61" d="M 1926 760 
C 1894 651 1894 639 1805 517 
C 1664 338 1382 64 1082 64 
C 819 64 672 300 672 677 
C 672 1028 870 1743 992 2012 
C 1210 2459 1510 2689 1760 2689 
C 2182 2689 2266 2165 2266 2114 
C 2266 2108 2246 2024 2240 2012 
L 1926 760 
z
M 2336 2395 
C 2266 2561 2093 2816 1760 2816 
C 1037 2816 256 1884 256 939 
C 256 307 627 -64 1062 -64 
C 1414 -64 1715 211 1894 422 
C 1958 45 2259 -64 2451 -64 
C 2643 -64 2797 51 2912 281 
C 3014 498 3104 888 3104 913 
C 3104 945 3078 971 3040 971 
C 2982 971 2976 939 2950 843 
C 2854 466 2733 64 2470 64 
C 2285 64 2272 230 2272 358 
C 2272 505 2291 575 2349 824 
C 2394 984 2426 1124 2477 1309 
C 2714 2267 2771 2497 2771 2535 
C 2771 2625 2701 2695 2605 2695 
C 2400 2695 2349 2472 2336 2395 
z
" transform="scale(0.015625)"/>
      </defs>
      <use xlink:href="#CMMI12-7e" transform="scale(0.996264)"/>
      <use xlink:href="#CMMI12-61" transform="translate(6.445738 0)scale(0.996264)"/>
     </g>
    </g>
    <g id="line2d_26">
     <path d="M 359.840076 27.24679 
L 369.840076 27.24679 
L 379.840076 27.24679 
" style="fill: none; stroke: #00ff00; stroke-width: 1.5; stroke-linecap: square"/>
    </g>
    <g id="text_22">
     <!-- $\vec{b}$ -->
     <g transform="translate(387.840076 30.74679)scale(0.1 -0.1)">
      <defs>
       <path id="CMMI12-62" d="M 1478 4257 
C 1485 4283 1498 4321 1498 4352 
C 1498 4416 1434 4416 1421 4416 
C 1414 4416 1184 4393 1069 4377 
C 960 4377 864 4358 749 4358 
C 595 4345 550 4339 550 4224 
C 550 4160 614 4160 678 4160 
C 1005 4160 1005 4103 1005 4040 
C 1005 3996 954 3811 928 3696 
L 774 3085 
C 710 2831 346 1387 320 1272 
C 288 1114 288 1005 288 922 
C 288 274 653 -64 1069 -64 
C 1811 -64 2579 888 2579 1814 
C 2579 2401 2246 2816 1766 2816 
C 1434 2816 1133 2542 1011 2414 
L 1478 4257 
z
M 1075 64 
C 870 64 646 217 646 715 
C 646 926 666 1047 781 1494 
C 800 1577 902 1986 928 2069 
C 941 2120 1318 2689 1754 2689 
C 2035 2689 2163 2408 2163 2076 
C 2163 1769 1984 1047 1824 715 
C 1664 370 1370 64 1075 64 
z
" transform="scale(0.015625)"/>
      </defs>
      <use xlink:href="#CMMI12-7e" transform="translate(0 26.29016)scale(0.996264)"/>
      <use xlink:href="#CMMI12-62" transform="translate(11.311737 0)scale(0.996264)"/>
     </g>
    </g>
    <g id="line2d_27">
     <path d="M 359.840076 41.183968 
L 369.840076 41.183968 
L 379.840076 41.183968 
" style="fill: none; stroke: #0016ff; stroke-width: 1.5; stroke-linecap: square"/>
    </g>
    <g id="text_23">
     <!-- $\vec{c}$ -->
     <g transform="translate(387.840076 44.683968)scale(0.1 -0.1)">
      <defs>
       <path id="CMMI12-63" d="M 2502 2431 
C 2381 2431 2323 2431 2234 2355 
C 2195 2323 2125 2227 2125 2125 
C 2125 1997 2221 1920 2342 1920 
C 2496 1920 2669 2044 2669 2292 
C 2669 2588 2374 2816 1933 2816 
C 1094 2816 256 1903 256 996 
C 256 441 602 -64 1254 -64 
C 2125 -64 2675 622 2675 706 
C 2675 744 2637 776 2611 776 
C 2592 776 2586 770 2528 713 
C 2118 162 1510 64 1267 64 
C 826 64 685 446 685 764 
C 685 988 794 1605 1024 2039 
C 1190 2338 1536 2682 1939 2682 
C 2022 2682 2374 2682 2502 2431 
z
" transform="scale(0.015625)"/>
      </defs>
      <use xlink:href="#CMMI12-7e" transform="scale(0.996264)"/>
      <use xlink:href="#CMMI12-63" transform="translate(5.638615 0)scale(0.996264)"/>
     </g>
    </g>
    <g id="line2d_28">
     <path d="M 359.840076 57.867937 
L 369.840076 57.867937 
L 379.840076 57.867937 
" style="fill: none; stroke: #f400ff; stroke-width: 1.5; stroke-linecap: square"/>
    </g>
    <g id="text_24">
     <!-- $\vec{f}$ -->
     <g transform="translate(387.840076 61.367937)scale(0.1 -0.1)">
      <defs>
       <path id="CMMI12-66" d="M 2854 2566 
C 2982 2566 3034 2566 3034 2688 
C 3034 2752 2982 2752 2867 2752 
L 2349 2752 
C 2470 3429 2560 3897 2611 4107 
C 2650 4265 2784 4416 2950 4416 
C 3085 4416 3219 4358 3283 4298 
C 3034 4272 2957 4082 2957 3969 
C 2957 3837 3053 3759 3174 3759 
C 3302 3759 3494 3870 3494 4119 
C 3494 4393 3226 4544 2944 4544 
C 2669 4544 2400 4334 2272 4078 
C 2157 3848 2093 3611 1946 2752 
L 1517 2752 
C 1395 2752 1331 2752 1331 2637 
C 1331 2566 1370 2566 1498 2566 
L 1907 2566 
C 1792 1976 1530 542 1382 -137 
C 1274 -689 1178 -1152 858 -1152 
C 838 -1152 653 -1152 538 -1031 
C 864 -1005 864 -726 864 -720 
C 864 -593 768 -517 646 -517 
C 518 -517 326 -625 326 -867 
C 326 -1140 608 -1280 858 -1280 
C 1510 -1280 1779 -118 1850 199 
C 1965 688 2278 2376 2310 2566 
L 2854 2566 
z
" transform="scale(0.015625)"/>
      </defs>
      <use xlink:href="#CMMI12-7e" transform="translate(13.568792 26.29016)scale(0.996264)"/>
      <use xlink:href="#CMMI12-66" transform="scale(0.996264)"/>
     </g>
    </g>
   </g>
  </g>
 </g>
 <defs>
  <clipPath id="pe350beb071">
   <rect x="57.6" y="0" width="345.6" height="345.6"/>
  </clipPath>
 </defs>
</svg>
