<?xml version="1.0" encoding="utf-8" standalone="no"?>
<!DOCTYPE svg PUBLIC "-//W3C//DTD SVG 1.1//EN"
  "http://www.w3.org/Graphics/SVG/1.1/DTD/svg11.dtd">
<svg xmlns:xlink="http://www.w3.org/1999/xlink" width="460.8pt" height="345.6pt" viewBox="0 0 460.8 345.6" xmlns="http://www.w3.org/2000/svg" version="1.1">
 <metadata>
  <rdf:RDF xmlns:dc="http://purl.org/dc/elements/1.1/" xmlns:cc="http://creativecommons.org/ns#" xmlns:rdf="http://www.w3.org/1999/02/22-rdf-syntax-ns#">
   <cc:Work>
    <dc:type rdf:resource="http://purl.org/dc/dcmitype/StillImage"/>
    <dc:date>2022-07-12T15:41:34.266457</dc:date>
    <dc:format>image/svg+xml</dc:format>
    <dc:creator>
     <cc:Agent>
      <dc:title>Matplotlib v3.5.1, https://matplotlib.org/</dc:title>
     </cc:Agent>
    </dc:creator>
   </cc:Work>
  </rdf:RDF>
 </metadata>
 <defs>
  <style type="text/css">*{stroke-linejoin: round; stroke-linecap: butt}</style>
 </defs>
 <g id="figure_1">
  <g id="patch_1">
   <path d="M 0 345.6 
L 460.8 345.6 
L 460.8 0 
L 0 0 
z
" style="fill: #ffffff"/>
  </g>
  <g id="patch_2">
   <path d="M 57.6 345.6 
L 403.2 345.6 
L 403.2 0 
L 57.6 0 
z
" style="fill: #ffffff"/>
  </g>
  <g id="pane3d_1">
   <g id="patch_3">
    <path d="M 207.354599 245.162022 
L 386.996938 250.20904 
L 386.996938 86.050419 
L 207.354599 91.097438 
" style="fill: #f2f2f2; opacity: 0.5; stroke: #f2f2f2; stroke-linejoin: miter"/>
   </g>
  </g>
  <g id="pane3d_2">
   <g id="patch_4">
    <path d="M 207.354599 245.162022 
L 78.183383 252.888829 
L 78.183383 83.37063 
L 207.354599 91.097438 
" style="fill: #e6e6e6; opacity: 0.5; stroke: #e6e6e6; stroke-linejoin: miter"/>
   </g>
  </g>
  <g id="pane3d_3">
   <g id="patch_5">
    <path d="M 207.354599 245.162022 
L 78.183383 252.888829 
L 267.778975 259.039543 
L 386.996938 250.20904 
" style="fill: #ececec; opacity: 0.5; stroke: #ececec; stroke-linejoin: miter"/>
   </g>
  </g>
  <g id="axis3d_1">
   <g id="line2d_1">
    <path d="M 386.996938 250.20904 
L 267.778975 259.039543 
" style="fill: none; stroke: #000000; stroke-width: 0.8; stroke-linecap: square"/>
   </g>
   <g id="text_1">
    <!-- x -->
    <g transform="translate(354.526576 283.412102)scale(0.16 -0.16)">
     <defs>
      <path id="CMSS17-78" d="M 1587 1414 
L 2656 2739 
L 2099 2739 
L 1363 1777 
L 602 2739 
L 32 2739 
L 1139 1414 
L 0 0 
L 563 0 
L 1363 1121 
L 2195 0 
L 2758 0 
L 1587 1414 
z
" transform="scale(0.015625)"/>
     </defs>
     <use xlink:href="#CMSS17-78" transform="scale(0.996264)"/>
    </g>
   </g>
   <g id="Line3DCollection_1">
    <path d="M 384.839992 250.368806 
L 205.002396 245.302727 
L 205.002396 90.956733 
" style="fill: none; stroke: #b0b0b0; stroke-width: 0.8"/>
    <path d="M 363.697948 251.934802 
L 181.976237 246.680113 
L 181.976237 89.579346 
" style="fill: none; stroke: #b0b0b0; stroke-width: 0.8"/>
    <path d="M 341.735099 253.561595 
L 158.113198 248.107561 
L 158.113198 88.151899 
" style="fill: none; stroke: #b0b0b0; stroke-width: 0.8"/>
    <path d="M 318.902703 255.252796 
L 133.36681 249.587849 
L 133.36681 86.671611 
" style="fill: none; stroke: #b0b0b0; stroke-width: 0.8"/>
    <path d="M 295.148074 257.012307 
L 107.687099 251.123966 
L 107.687099 85.135493 
" style="fill: none; stroke: #b0b0b0; stroke-width: 0.8"/>
    <path d="M 270.414185 258.844352 
L 81.020249 252.719133 
L 81.020249 83.540327 
" style="fill: none; stroke: #b0b0b0; stroke-width: 0.8"/>
   </g>
   <g id="xtick_1">
    <g id="line2d_2">
     <path d="M 383.307652 250.325639 
L 387.909507 250.455275 
" style="fill: none; stroke: #000000; stroke-width: 0.8; stroke-linecap: square"/>
    </g>
    <g id="text_2">
     <!-- $\mathdefault{0}$ -->
     <g transform="translate(394.644761 268.186255)scale(0.1 -0.1)">
      <defs>
       <path id="CMR17-30" d="M 2688 2025 
C 2688 2416 2682 3080 2413 3591 
C 2176 4039 1798 4198 1466 4198 
C 1158 4198 768 4058 525 3597 
C 269 3118 243 2524 243 2025 
C 243 1661 250 1106 448 619 
C 723 -39 1216 -128 1466 -128 
C 1760 -128 2208 -7 2470 600 
C 2662 1042 2688 1559 2688 2025 
z
M 1466 -26 
C 1056 -26 813 325 723 812 
C 653 1188 653 1738 653 2096 
C 653 2588 653 2997 736 3387 
C 858 3929 1216 4096 1466 4096 
C 1728 4096 2067 3923 2189 3400 
C 2272 3036 2278 2607 2278 2096 
C 2278 1680 2278 1169 2202 792 
C 2067 95 1690 -26 1466 -26 
z
" transform="scale(0.015625)"/>
      </defs>
      <use xlink:href="#CMR17-30" transform="scale(0.996264)"/>
     </g>
    </g>
   </g>
   <g id="xtick_2">
    <g id="line2d_3">
     <path d="M 362.147752 251.889976 
L 366.803321 252.024597 
" style="fill: none; stroke: #000000; stroke-width: 0.8; stroke-linecap: square"/>
    </g>
    <g id="text_3">
     <!-- $\mathdefault{1}$ -->
     <g transform="translate(373.647104 269.967401)scale(0.1 -0.1)">
      <defs>
       <path id="CMR17-31" d="M 1702 4058 
C 1702 4192 1696 4192 1606 4192 
C 1357 3916 979 3827 621 3827 
C 602 3827 570 3827 563 3808 
C 557 3795 557 3782 557 3648 
C 755 3648 1088 3686 1344 3839 
L 1344 461 
C 1344 236 1331 160 781 160 
L 589 160 
L 589 0 
C 896 0 1216 0 1523 0 
C 1830 0 2150 0 2458 0 
L 2458 160 
L 2266 160 
C 1715 160 1702 230 1702 458 
L 1702 4058 
z
" transform="scale(0.015625)"/>
      </defs>
      <use xlink:href="#CMR17-31" transform="scale(0.996264)"/>
     </g>
    </g>
   </g>
   <g id="xtick_3">
    <g id="line2d_4">
     <path d="M 340.166804 253.515013 
L 344.876829 253.654913 
" style="fill: none; stroke: #000000; stroke-width: 0.8; stroke-linecap: square"/>
    </g>
    <g id="text_4">
     <!-- $\mathdefault{2}$ -->
     <g transform="translate(351.830683 271.818)scale(0.1 -0.1)">
      <defs>
       <path id="CMR17-32" d="M 2669 989 
L 2554 989 
C 2490 536 2438 459 2413 420 
C 2381 369 1920 369 1830 369 
L 602 369 
C 832 619 1280 1072 1824 1597 
C 2214 1967 2669 2402 2669 3035 
C 2669 3790 2067 4224 1395 4224 
C 691 4224 262 3604 262 3030 
C 262 2780 448 2748 525 2748 
C 589 2748 781 2787 781 3010 
C 781 3207 614 3264 525 3264 
C 486 3264 448 3258 422 3245 
C 544 3790 915 4058 1306 4058 
C 1862 4058 2227 3617 2227 3035 
C 2227 2479 1901 2000 1536 1584 
L 262 146 
L 262 0 
L 2515 0 
L 2669 989 
z
" transform="scale(0.015625)"/>
      </defs>
      <use xlink:href="#CMR17-32" transform="scale(0.996264)"/>
     </g>
    </g>
   </g>
   <g id="xtick_4">
    <g id="line2d_5">
     <path d="M 317.316075 255.204352 
L 322.081261 255.349847 
" style="fill: none; stroke: #000000; stroke-width: 0.8; stroke-linecap: square"/>
    </g>
    <g id="text_5">
     <!-- $\mathdefault{3}$ -->
     <g transform="translate(329.146654 273.742194)scale(0.1 -0.1)">
      <defs>
       <path id="CMR17-33" d="M 1414 2157 
C 1984 2157 2234 1662 2234 1090 
C 2234 320 1824 25 1453 25 
C 1114 25 563 194 390 693 
C 422 680 454 680 486 680 
C 640 680 755 782 755 948 
C 755 1133 614 1216 486 1216 
C 378 1216 211 1165 211 926 
C 211 335 787 -128 1466 -128 
C 2176 -128 2720 430 2720 1085 
C 2720 1707 2208 2157 1600 2227 
C 2086 2328 2554 2756 2554 3329 
C 2554 3820 2048 4179 1472 4179 
C 890 4179 378 3829 378 3329 
C 378 3110 544 3072 627 3072 
C 762 3072 877 3155 877 3321 
C 877 3486 762 3569 627 3569 
C 602 3569 570 3569 544 3557 
C 730 3959 1235 4032 1459 4032 
C 1683 4032 2106 3925 2106 3320 
C 2106 3143 2080 2828 1862 2550 
C 1670 2304 1453 2304 1242 2284 
C 1210 2284 1062 2269 1037 2269 
C 992 2263 966 2257 966 2208 
C 966 2163 973 2157 1101 2157 
L 1414 2157 
z
" transform="scale(0.015625)"/>
      </defs>
      <use xlink:href="#CMR17-33" transform="scale(0.996264)"/>
     </g>
    </g>
   </g>
   <g id="xtick_5">
    <g id="line2d_6">
     <path d="M 293.542896 256.961887 
L 298.363902 257.11332 
" style="fill: none; stroke: #000000; stroke-width: 0.8; stroke-linecap: square"/>
    </g>
    <g id="text_6">
     <!-- $\mathdefault{4}$ -->
     <g transform="translate(305.542215 275.744464)scale(0.1 -0.1)">
      <defs>
       <path id="CMR17-34" d="M 2150 4122 
C 2150 4256 2144 4256 2029 4256 
L 128 1254 
L 128 1088 
L 1779 1088 
L 1779 457 
C 1779 224 1766 160 1318 160 
L 1197 160 
L 1197 0 
C 1402 0 1747 0 1965 0 
C 2182 0 2528 0 2733 0 
L 2733 160 
L 2611 160 
C 2163 160 2150 224 2150 457 
L 2150 1088 
L 2803 1088 
L 2803 1254 
L 2150 1254 
L 2150 4122 
z
M 1798 3703 
L 1798 1254 
L 256 1254 
L 1798 3703 
z
" transform="scale(0.015625)"/>
      </defs>
      <use xlink:href="#CMR17-34" transform="scale(0.996264)"/>
     </g>
    </g>
   </g>
   <g id="xtick_6">
    <g id="line2d_7">
     <path d="M 268.79026 258.791832 
L 273.667685 258.949574 
" style="fill: none; stroke: #000000; stroke-width: 0.8; stroke-linecap: square"/>
    </g>
    <g id="text_7">
     <!-- $\mathdefault{5}$ -->
     <g transform="translate(280.960184 277.829658)scale(0.1 -0.1)">
      <defs>
       <path id="CMR17-35" d="M 730 3692 
C 794 3666 1056 3584 1325 3584 
C 1920 3584 2246 3911 2432 4100 
C 2432 4157 2432 4192 2394 4192 
C 2387 4192 2374 4192 2323 4163 
C 2099 4058 1837 3973 1517 3973 
C 1325 3973 1037 3999 723 4139 
C 653 4171 640 4171 634 4171 
C 602 4171 595 4164 595 4037 
L 595 2203 
C 595 2089 595 2057 659 2057 
C 691 2057 704 2070 736 2114 
C 941 2401 1222 2522 1542 2522 
C 1766 2522 2246 2382 2246 1289 
C 2246 1085 2246 715 2054 421 
C 1894 159 1645 25 1370 25 
C 947 25 518 320 403 814 
C 429 807 480 795 506 795 
C 589 795 749 840 749 1038 
C 749 1210 627 1280 506 1280 
C 358 1280 262 1190 262 1011 
C 262 454 704 -128 1382 -128 
C 2042 -128 2669 440 2669 1264 
C 2669 2030 2170 2624 1549 2624 
C 1222 2624 947 2503 730 2274 
L 730 3692 
z
" transform="scale(0.015625)"/>
      </defs>
      <use xlink:href="#CMR17-35" transform="scale(0.996264)"/>
     </g>
    </g>
   </g>
  </g>
  <g id="axis3d_2">
   <g id="line2d_8">
    <path d="M 78.183383 252.888829 
L 267.778975 259.039543 
" style="fill: none; stroke: #000000; stroke-width: 0.8; stroke-linecap: square"/>
   </g>
   <g id="text_8">
    <!-- y -->
    <g transform="translate(146.700405 285.850084)scale(0.16 -0.16)">
     <defs>
      <path id="CMSS17-79" d="M 2675 2752 
L 2176 2752 
C 1632 1294 1446 702 1434 383 
L 1427 383 
C 1408 696 1126 1460 902 2007 
L 602 2752 
L 83 2752 
L 1216 13 
C 1146 -178 1043 -465 1011 -529 
C 870 -885 774 -885 672 -885 
C 646 -885 442 -885 211 -809 
L 250 -1229 
C 410 -1261 570 -1280 685 -1280 
C 845 -1280 1165 -1280 1459 -497 
L 2675 2752 
z
" transform="scale(0.015625)"/>
     </defs>
     <use xlink:href="#CMSS17-79" transform="scale(0.996264)"/>
    </g>
   </g>
   <g id="Line3DCollection_2">
    <path d="M 227.052259 90.544035 
L 227.052259 245.715424 
L 98.850681 253.559302 
" style="fill: none; stroke: #b0b0b0; stroke-width: 0.8"/>
    <path d="M 260.284664 89.610377 
L 260.284664 246.649082 
L 133.786632 254.692667 
" style="fill: none; stroke: #b0b0b0; stroke-width: 0.8"/>
    <path d="M 294.326642 88.653974 
L 294.326642 247.605485 
L 169.662014 255.856508 
" style="fill: none; stroke: #b0b0b0; stroke-width: 0.8"/>
    <path d="M 329.20814 87.673985 
L 329.20814 248.585475 
L 206.515234 257.052072 
" style="fill: none; stroke: #b0b0b0; stroke-width: 0.8"/>
    <path d="M 364.960603 86.669526 
L 364.960603 249.589934 
L 244.386824 258.280673 
" style="fill: none; stroke: #b0b0b0; stroke-width: 0.8"/>
   </g>
   <g id="xtick_7">
    <g id="line2d_9">
     <path d="M 99.97907 253.490263 
L 96.588418 253.697716 
" style="fill: none; stroke: #000000; stroke-width: 0.8; stroke-linecap: square"/>
    </g>
    <g id="text_9">
     <!-- $\mathdefault{−4}$ -->
     <g transform="translate(83.408281 272.020156)scale(0.1 -0.1)">
      <defs>
       <path id="CMSY10-0" d="M 4218 1472 
C 4326 1472 4442 1472 4442 1600 
C 4442 1728 4326 1728 4218 1728 
L 755 1728 
C 646 1728 531 1728 531 1600 
C 531 1472 646 1472 755 1472 
L 4218 1472 
z
" transform="scale(0.015625)"/>
      </defs>
      <use xlink:href="#CMSY10-0" transform="scale(0.996264)"/>
      <use xlink:href="#CMR17-34" transform="translate(77.487468 0)scale(0.996264)"/>
     </g>
    </g>
   </g>
   <g id="xtick_8">
    <g id="line2d_10">
     <path d="M 134.901372 254.621784 
L 131.551664 254.834781 
" style="fill: none; stroke: #000000; stroke-width: 0.8; stroke-linecap: square"/>
    </g>
    <g id="text_10">
     <!-- $\mathdefault{−2}$ -->
     <g transform="translate(118.45317 273.315125)scale(0.1 -0.1)">
      <use xlink:href="#CMSY10-0" transform="scale(0.996264)"/>
      <use xlink:href="#CMR17-32" transform="translate(77.487468 0)scale(0.996264)"/>
     </g>
    </g>
   </g>
   <g id="xtick_9">
    <g id="line2d_11">
     <path d="M 170.761957 255.783708 
L 167.456638 256.002473 
" style="fill: none; stroke: #000000; stroke-width: 0.8; stroke-linecap: square"/>
    </g>
    <g id="text_11">
     <!-- $\mathdefault{0}$ -->
     <g transform="translate(158.321081 274.645148)scale(0.1 -0.1)">
      <use xlink:href="#CMR17-30" transform="scale(0.996264)"/>
     </g>
    </g>
   </g>
   <g id="xtick_10">
    <g id="line2d_12">
     <path d="M 207.599156 256.977274 
L 204.341907 257.202045 
" style="fill: none; stroke: #000000; stroke-width: 0.8; stroke-linecap: square"/>
    </g>
    <g id="text_12">
     <!-- $\mathdefault{2}$ -->
     <g transform="translate(195.30232 276.011669)scale(0.1 -0.1)">
      <use xlink:href="#CMR17-32" transform="scale(0.996264)"/>
     </g>
    </g>
   </g>
   <g id="xtick_11">
    <g id="line2d_13">
     <path d="M 245.453413 258.203795 
L 242.248174 258.434823 
" style="fill: none; stroke: #000000; stroke-width: 0.8; stroke-linecap: square"/>
    </g>
    <g id="text_13">
     <!-- $\mathdefault{4}$ -->
     <g transform="translate(233.31248 277.41621)scale(0.1 -0.1)">
      <use xlink:href="#CMR17-34" transform="scale(0.996264)"/>
     </g>
    </g>
   </g>
  </g>
  <g id="axis3d_3">
   <g id="line2d_14">
    <path d="M 78.183383 252.888829 
L 78.183383 83.37063 
" style="fill: none; stroke: #000000; stroke-width: 0.8; stroke-linecap: square"/>
   </g>
   <g id="text_14">
    <!-- z -->
    <g transform="translate(30.305111 172.114786)scale(0.16 -0.16)">
     <defs>
      <path id="CMSS17-7a" d="M 2400 2502 
L 2400 2750 
L 250 2750 
L 250 2368 
L 1069 2368 
C 1146 2368 1222 2368 1299 2368 
L 1747 2368 
L 166 261 
L 166 0 
L 2419 0 
L 2419 395 
L 1549 395 
C 1472 395 1395 395 1318 395 
L 826 395 
L 2400 2502 
z
" transform="scale(0.015625)"/>
     </defs>
     <use xlink:href="#CMSS17-7a" transform="scale(0.996264)"/>
    </g>
   </g>
   <g id="Line3DCollection_3">
    <path d="M 78.183383 249.498465 
L 207.354599 242.08073 
L 386.996938 246.925868 
" style="fill: none; stroke: #b0b0b0; stroke-width: 0.8"/>
    <path d="M 78.183383 216.950971 
L 207.354599 212.50033 
L 386.996938 215.407413 
" style="fill: none; stroke: #b0b0b0; stroke-width: 0.8"/>
    <path d="M 78.183383 184.403477 
L 207.354599 182.91993 
L 386.996938 183.888957 
" style="fill: none; stroke: #b0b0b0; stroke-width: 0.8"/>
    <path d="M 78.183383 151.855983 
L 207.354599 153.33953 
L 386.996938 152.370502 
" style="fill: none; stroke: #b0b0b0; stroke-width: 0.8"/>
    <path d="M 78.183383 119.308488 
L 207.354599 123.759129 
L 386.996938 120.852047 
" style="fill: none; stroke: #b0b0b0; stroke-width: 0.8"/>
    <path d="M 78.183383 86.760994 
L 207.354599 94.178729 
L 386.996938 89.333591 
" style="fill: none; stroke: #b0b0b0; stroke-width: 0.8"/>
   </g>
   <g id="xtick_12">
    <g id="line2d_15">
     <path d="M 79.319494 249.433224 
L 75.905682 249.629264 
" style="fill: none; stroke: #000000; stroke-width: 0.8; stroke-linecap: square"/>
    </g>
    <g id="text_15">
     <!-- $\mathdefault{0}$ -->
     <g transform="translate(55.276222 256.587045)scale(0.1 -0.1)">
      <use xlink:href="#CMR17-30" transform="scale(0.996264)"/>
     </g>
    </g>
   </g>
   <g id="xtick_13">
    <g id="line2d_16">
     <path d="M 79.319494 216.911826 
L 75.905682 217.02945 
" style="fill: none; stroke: #000000; stroke-width: 0.8; stroke-linecap: square"/>
    </g>
    <g id="text_16">
     <!-- $\mathdefault{1}$ -->
     <g transform="translate(55.276222 223.971518)scale(0.1 -0.1)">
      <use xlink:href="#CMR17-31" transform="scale(0.996264)"/>
     </g>
    </g>
   </g>
   <g id="xtick_14">
    <g id="line2d_17">
     <path d="M 79.319494 184.390429 
L 75.905682 184.429637 
" style="fill: none; stroke: #000000; stroke-width: 0.8; stroke-linecap: square"/>
    </g>
    <g id="text_17">
     <!-- $\mathdefault{2}$ -->
     <g transform="translate(55.276222 191.355992)scale(0.1 -0.1)">
      <use xlink:href="#CMR17-32" transform="scale(0.996264)"/>
     </g>
    </g>
   </g>
   <g id="xtick_15">
    <g id="line2d_18">
     <path d="M 79.319494 151.869031 
L 75.905682 151.829823 
" style="fill: none; stroke: #000000; stroke-width: 0.8; stroke-linecap: square"/>
    </g>
    <g id="text_18">
     <!-- $\mathdefault{3}$ -->
     <g transform="translate(55.276222 158.740465)scale(0.1 -0.1)">
      <use xlink:href="#CMR17-33" transform="scale(0.996264)"/>
     </g>
    </g>
   </g>
   <g id="xtick_16">
    <g id="line2d_19">
     <path d="M 79.319494 119.347633 
L 75.905682 119.230009 
" style="fill: none; stroke: #000000; stroke-width: 0.8; stroke-linecap: square"/>
    </g>
    <g id="text_19">
     <!-- $\mathdefault{4}$ -->
     <g transform="translate(55.276222 126.124938)scale(0.1 -0.1)">
      <use xlink:href="#CMR17-34" transform="scale(0.996264)"/>
     </g>
    </g>
   </g>
   <g id="xtick_17">
    <g id="line2d_20">
     <path d="M 79.319494 86.826236 
L 75.905682 86.630196 
" style="fill: none; stroke: #000000; stroke-width: 0.8; stroke-linecap: square"/>
    </g>
    <g id="text_20">
     <!-- $\mathdefault{5}$ -->
     <g transform="translate(55.276222 93.509411)scale(0.1 -0.1)">
      <use xlink:href="#CMR17-35" transform="scale(0.996264)"/>
     </g>
    </g>
   </g>
  </g>
  <g id="axes_1">
   <g id="line2d_21">
    <path d="M 292.063595 244.570245 
L 323.170541 88.80188 
" clip-path="url(#p5fadbb010a)" style="fill: none; stroke: #ff0000; stroke-width: 1.5; stroke-linecap: square"/>
   </g>
   <g id="line2d_22">
    <path d="M 292.063595 244.570245 
L 212.120131 121.138513 
" clip-path="url(#p5fadbb010a)" style="fill: none; stroke: #00ff00; stroke-width: 1.5; stroke-linecap: square"/>
   </g>
   <g id="line2d_23">
    <path d="M 292.063595 244.570245 
L 248.451886 -1 
" clip-path="url(#p5fadbb010a)" style="fill: none; stroke: #0016ff; stroke-width: 1.5; stroke-linecap: square"/>
   </g>
   <g id="line2d_24">
    <path d="M 292.063595 244.570245 
L 119.004388 151.652702 
" clip-path="url(#p5fadbb010a)" style="fill: none; stroke: #f400ff; stroke-width: 1.5; stroke-linecap: square"/>
   </g>
   <g id="Poly3DCollection_1">
    <path d="M 208.381745 353.573396 
L 196.986227 314.056788 
L 205.168988 303.235157 
L 216.526299 342.96438 
z
" clip-path="url(#p5fadbb010a)" style="fill: #0000f5; fill-opacity: 0.1"/>
    <path d="M 216.526299 342.96438 
L 205.168988 303.235157 
L 213.400923 292.348494 
L 224.719365 332.292174 
z
" clip-path="url(#p5fadbb010a)" style="fill: #0000f5; fill-opacity: 0.1"/>
    <path d="M 224.719365 332.292174 
L 213.400923 292.348494 
L 221.682476 281.396211 
L 232.961377 321.55621 
z
" clip-path="url(#p5fadbb010a)" style="fill: #0000f5; fill-opacity: 0.1"/>
    <path d="M 196.986227 314.056788 
L 185.387065 273.834001 
L 193.608103 262.793808 
L 205.168988 303.235157 
z
" clip-path="url(#p5fadbb010a)" style="fill: #0000f5; fill-opacity: 0.1"/>
    <path d="M 232.961377 321.55621 
L 221.682476 281.396211 
L 230.014098 270.377714 
L 241.252776 310.755916 
z
" clip-path="url(#p5fadbb010a)" style="fill: #0000f5; fill-opacity: 0.1"/>
    <path d="M 205.168988 303.235157 
L 193.608103 262.793808 
L 201.878989 251.686674 
L 213.400923 292.348494 
z
" clip-path="url(#p5fadbb010a)" style="fill: #0000f5; fill-opacity: 0.1"/>
    <path d="M 241.252776 310.755916 
L 230.014098 270.377714 
L 238.396243 259.292399 
L 249.594006 299.890712 
z
" clip-path="url(#p5fadbb010a)" style="fill: #0000f5; fill-opacity: 0.1"/>
    <path d="M 213.400923 292.348494 
L 201.878989 251.686674 
L 210.200178 240.511988 
L 221.682476 281.396211 
z
" clip-path="url(#p5fadbb010a)" style="fill: #0000f5; fill-opacity: 0.1"/>
    <path d="M 249.594006 299.890712 
L 238.396243 259.292399 
L 246.829372 248.139659 
L 257.985519 288.960011 
z
" clip-path="url(#p5fadbb010a)" style="fill: #0000f5; fill-opacity: 0.1"/>
    <path d="M 185.387065 273.834001 
L 173.578752 232.885934 
L 181.838122 221.621015 
L 193.608103 262.793808 
z
" clip-path="url(#p5fadbb010a)" style="fill: #0000f5; fill-opacity: 0.1"/>
    <path d="M 221.682476 281.396211 
L 210.200178 240.511988 
L 218.572129 229.269131 
L 230.014098 270.377714 
z
" clip-path="url(#p5fadbb010a)" style="fill: #0000f5; fill-opacity: 0.1"/>
    <path d="M 257.985519 288.960011 
L 246.829372 248.139659 
L 255.313953 236.918874 
L 266.42777 277.963218 
z
" clip-path="url(#p5fadbb010a)" style="fill: #0000f5; fill-opacity: 0.1"/>
    <path d="M 193.608103 262.793808 
L 181.838122 221.621015 
L 190.148026 210.287172 
L 201.878989 251.686674 
z
" clip-path="url(#p5fadbb010a)" style="fill: #0000f5; fill-opacity: 0.1"/>
    <path d="M 230.014098 270.377714 
L 218.572129 229.269131 
L 226.995309 217.957478 
L 238.396243 259.292399 
z
" clip-path="url(#p5fadbb010a)" style="fill: #0000f5; fill-opacity: 0.1"/>
    <path d="M 266.42777 277.963218 
L 255.313953 236.918874 
L 263.850456 225.629421 
L 274.92122 266.899734 
z
" clip-path="url(#p5fadbb010a)" style="fill: #0000f5; fill-opacity: 0.1"/>
    <path d="M 201.878989 251.686674 
L 190.148026 210.287172 
L 198.508929 198.883771 
L 210.200178 240.511988 
z
" clip-path="url(#p5fadbb010a)" style="fill: #0000f5; fill-opacity: 0.1"/>
    <path d="M 238.396243 259.292399 
L 226.995309 217.957478 
L 235.470189 206.576396 
L 246.829372 248.139659 
z
" clip-path="url(#p5fadbb010a)" style="fill: #0000f5; fill-opacity: 0.1"/>
    <path d="M 274.92122 266.899734 
L 263.850456 225.629421 
L 272.439362 214.270668 
L 283.466338 255.768948 
z
" clip-path="url(#p5fadbb010a)" style="fill: #0000f5; fill-opacity: 0.1"/>
    <path d="M 173.578752 232.885934 
L 161.55558 191.192792 
L 169.853319 179.696752 
L 181.838122 221.621015 
z
" clip-path="url(#p5fadbb010a)" style="fill: #0000f5; fill-opacity: 0.1"/>
    <path d="M 210.200178 240.511988 
L 198.508929 198.883771 
L 206.921303 187.41017 
L 218.572129 229.269131 
z
" clip-path="url(#p5fadbb010a)" style="fill: #0000f5; fill-opacity: 0.1"/>
    <path d="M 246.829372 248.139659 
L 235.470189 206.576396 
L 243.997247 195.125244 
L 255.313953 236.918874 
z
" clip-path="url(#p5fadbb010a)" style="fill: #0000f5; fill-opacity: 0.1"/>
    <path d="M 283.466338 255.768948 
L 272.439362 214.270668 
L 281.081153 202.841975 
L 292.063595 244.570245 
z
" clip-path="url(#p5fadbb010a)" style="fill: #0000f5; fill-opacity: 0.1"/>
    <path d="M 181.838122 221.621015 
L 169.853319 179.696752 
L 178.202292 168.12973 
L 190.148026 210.287172 
z
" clip-path="url(#p5fadbb010a)" style="fill: #0000f5; fill-opacity: 0.1"/>
    <path d="M 218.572129 229.269131 
L 206.921303 187.41017 
L 215.385624 175.865717 
L 226.995309 217.957478 
z
" clip-path="url(#p5fadbb010a)" style="fill: #0000f5; fill-opacity: 0.1"/>
    <path d="M 255.313953 236.918874 
L 243.997247 195.125244 
L 252.576966 183.603371 
L 263.850456 225.629421 
z
" clip-path="url(#p5fadbb010a)" style="fill: #0000f5; fill-opacity: 0.1"/>
    <path d="M 292.063595 244.570245 
L 281.081153 202.841975 
L 289.776319 191.342692 
L 300.713472 233.303002 
z
" clip-path="url(#p5fadbb010a)" style="fill: #0000f5; fill-opacity: 0.1"/>
    <path d="M 190.148026 210.287172 
L 178.202292 168.12973 
L 186.602975 156.491067 
L 198.508929 198.883771 
z
" clip-path="url(#p5fadbb010a)" style="fill: #0000f5; fill-opacity: 0.1"/>
    <path d="M 226.995309 217.957478 
L 215.385624 175.865717 
L 223.902375 164.249756 
L 235.470189 206.576396 
z
" clip-path="url(#p5fadbb010a)" style="fill: #0000f5; fill-opacity: 0.1"/>
    <path d="M 263.850456 225.629421 
L 252.576966 183.603371 
L 261.209835 172.010122 
L 272.439362 214.270668 
z
" clip-path="url(#p5fadbb010a)" style="fill: #0000f5; fill-opacity: 0.1"/>
    <path d="M 300.713472 233.303002 
L 289.776319 191.342692 
L 298.525356 179.772165 
L 309.416451 221.966588 
z
" clip-path="url(#p5fadbb010a)" style="fill: #0000f5; fill-opacity: 0.1"/>
    <path d="M 161.55558 191.192792 
L 149.311631 148.734053 
L 157.64776 137.000256 
L 169.853319 179.696752 
z
" clip-path="url(#p5fadbb010a)" style="fill: #0000f5; fill-opacity: 0.1"/>
    <path d="M 198.508929 198.883771 
L 186.602975 156.491067 
L 195.055849 144.780095 
L 206.921303 187.41017 
z
" clip-path="url(#p5fadbb010a)" style="fill: #0000f5; fill-opacity: 0.1"/>
    <path d="M 235.470189 206.576396 
L 223.902375 164.249756 
L 232.472045 152.56162 
L 243.997247 195.125244 
z
" clip-path="url(#p5fadbb010a)" style="fill: #0000f5; fill-opacity: 0.1"/>
    <path d="M 272.439362 214.270668 
L 261.209835 172.010122 
L 269.89635 160.344831 
L 281.081153 202.841975 
z
" clip-path="url(#p5fadbb010a)" style="fill: #0000f5; fill-opacity: 0.1"/>
    <path d="M 309.416451 221.966588 
L 298.525356 179.772165 
L 307.328768 168.12973 
L 318.173023 210.560363 
z
" clip-path="url(#p5fadbb010a)" style="fill: #0000f5; fill-opacity: 0.1"/>
    <path d="M 169.853319 179.696752 
L 157.64776 137.000256 
L 166.035836 125.19334 
L 178.202292 168.12973 
z
" clip-path="url(#p5fadbb010a)" style="fill: #0000f5; fill-opacity: 0.1"/>
    <path d="M 206.921303 187.41017 
L 195.055849 144.780095 
L 203.561403 132.996138 
L 215.385624 175.865717 
z
" clip-path="url(#p5fadbb010a)" style="fill: #0000f5; fill-opacity: 0.1"/>
    <path d="M 243.997247 195.125244 
L 232.472045 152.56162 
L 241.095128 140.800633 
L 252.576966 183.603371 
z
" clip-path="url(#p5fadbb010a)" style="fill: #0000f5; fill-opacity: 0.1"/>
    <path d="M 281.081153 202.841975 
L 269.89635 160.344831 
L 278.637013 148.606824 
L 289.776319 191.342692 
z
" clip-path="url(#p5fadbb010a)" style="fill: #0000f5; fill-opacity: 0.1"/>
    <path d="M 318.173023 210.560363 
L 307.328768 168.12973 
L 316.187061 156.414713 
L 326.983686 199.08368 
z
" clip-path="url(#p5fadbb010a)" style="fill: #0000f5; fill-opacity: 0.1"/>
    <path d="M 178.202292 168.12973 
L 166.035836 125.19334 
L 174.476345 113.31262 
L 186.602975 156.491067 
z
" clip-path="url(#p5fadbb010a)" style="fill: #0000f5; fill-opacity: 0.1"/>
    <path d="M 215.385624 175.865717 
L 203.561403 132.996138 
L 212.120131 121.138513 
L 223.902375 164.249756 
z
" clip-path="url(#p5fadbb010a)" style="fill: #0000f5; fill-opacity: 0.1"/>
    <path d="M 252.576966 183.603371 
L 241.095128 140.800633 
L 249.772125 128.966113 
L 261.209835 172.010122 
z
" clip-path="url(#p5fadbb010a)" style="fill: #0000f5; fill-opacity: 0.1"/>
    <path d="M 289.776319 191.342692 
L 278.637013 148.606824 
L 287.432331 136.79542 
L 298.525356 179.772165 
z
" clip-path="url(#p5fadbb010a)" style="fill: #0000f5; fill-opacity: 0.1"/>
    <path d="M 326.983686 199.08368 
L 316.187061 156.414713 
L 325.100752 144.626434 
L 335.848942 187.535886 
z
" clip-path="url(#p5fadbb010a)" style="fill: #0000f5; fill-opacity: 0.1"/>
    <path d="M 149.311631 148.734053 
L 136.840766 105.488433 
L 145.215288 93.509993 
L 157.64776 137.000256 
z
" clip-path="url(#p5fadbb010a)" style="fill: #0000f5; fill-opacity: 0.1"/>
    <path d="M 186.602975 156.491067 
L 174.476345 113.31262 
L 182.969781 101.357401 
L 195.055849 144.780095 
z
" clip-path="url(#p5fadbb010a)" style="fill: #0000f5; fill-opacity: 0.1"/>
    <path d="M 223.902375 164.249756 
L 212.120131 121.138513 
L 220.732532 109.206526 
L 232.472045 152.56162 
z
" clip-path="url(#p5fadbb010a)" style="fill: #0000f5; fill-opacity: 0.1"/>
    <path d="M 261.209835 172.010122 
L 249.772125 128.966113 
L 258.503544 117.057367 
L 269.89635 160.344831 
z
" clip-path="url(#p5fadbb010a)" style="fill: #0000f5; fill-opacity: 0.1"/>
    <path d="M 298.525356 179.772165 
L 287.432331 136.79542 
L 296.282819 124.909927 
L 307.328768 168.12973 
z
" clip-path="url(#p5fadbb010a)" style="fill: #0000f5; fill-opacity: 0.1"/>
    <path d="M 335.848942 187.535886 
L 325.100752 144.626434 
L 334.070361 132.764204 
L 344.7693 175.916316 
z
" clip-path="url(#p5fadbb010a)" style="fill: #0000f5; fill-opacity: 0.1"/>
    <path d="M 157.64776 137.000256 
L 145.215288 93.509993 
L 153.642483 81.456213 
L 166.035836 125.19334 
z
" clip-path="url(#p5fadbb010a)" style="fill: #0000f5; fill-opacity: 0.1"/>
    <path d="M 195.055849 144.780095 
L 182.969781 101.357401 
L 191.516644 89.32698 
L 203.561403 132.996138 
z
" clip-path="url(#p5fadbb010a)" style="fill: #0000f5; fill-opacity: 0.1"/>
    <path d="M 232.472045 152.56162 
L 220.732532 109.206526 
L 229.399114 97.199474 
L 241.095128 140.800633 
z
" clip-path="url(#p5fadbb010a)" style="fill: #0000f5; fill-opacity: 0.1"/>
    <path d="M 269.89635 160.344831 
L 258.503544 117.057367 
L 267.289898 105.073696 
L 278.637013 148.606824 
z
" clip-path="url(#p5fadbb010a)" style="fill: #0000f5; fill-opacity: 0.1"/>
    <path d="M 307.328768 168.12973 
L 296.282819 124.909927 
L 305.188998 112.949646 
L 316.187061 156.414713 
z
" clip-path="url(#p5fadbb010a)" style="fill: #0000f5; fill-opacity: 0.1"/>
    <path d="M 344.7693 175.916316 
L 334.070361 132.764204 
L 343.096415 120.827324 
L 353.745275 164.2243 
z
" clip-path="url(#p5fadbb010a)" style="fill: #0000f5; fill-opacity: 0.1"/>
    <path d="M 166.035836 125.19334 
L 153.642483 81.456213 
L 162.122848 69.326381 
L 174.476345 113.31262 
z
" clip-path="url(#p5fadbb010a)" style="fill: #0000f5; fill-opacity: 0.1"/>
    <path d="M 203.561403 132.996138 
L 191.516644 89.32698 
L 200.117437 77.220646 
L 212.120131 121.138513 
z
" clip-path="url(#p5fadbb010a)" style="fill: #0000f5; fill-opacity: 0.1"/>
    <path d="M 241.095128 140.800633 
L 229.399114 97.199474 
L 238.120389 85.116649 
L 249.772125 128.966113 
z
" clip-path="url(#p5fadbb010a)" style="fill: #0000f5; fill-opacity: 0.1"/>
    <path d="M 278.637013 148.606824 
L 267.289898 105.073696 
L 276.131707 93.01439 
L 287.432331 136.79542 
z
" clip-path="url(#p5fadbb010a)" style="fill: #0000f5; fill-opacity: 0.1"/>
    <path d="M 316.187061 156.414713 
L 305.188998 112.949646 
L 314.151393 100.91387 
L 325.100752 144.626434 
z
" clip-path="url(#p5fadbb010a)" style="fill: #0000f5; fill-opacity: 0.1"/>
    <path d="M 353.745275 164.2243 
L 343.096415 120.827324 
L 352.179451 108.815089 
L 362.777389 152.459157 
z
" clip-path="url(#p5fadbb010a)" style="fill: #0000f5; fill-opacity: 0.1"/>
    <path d="M 136.840766 105.488433 
L 124.136619 61.433853 
L 132.549517 49.203619 
L 145.215288 93.509993 
z
" clip-path="url(#p5fadbb010a)" style="fill: #0000f5; fill-opacity: 0.1"/>
    <path d="M 174.476345 113.31262 
L 162.122848 69.326381 
L 170.656889 57.119775 
L 182.969781 101.357401 
z
" clip-path="url(#p5fadbb010a)" style="fill: #0000f5; fill-opacity: 0.1"/>
    <path d="M 212.120131 121.138513 
L 200.117437 77.220646 
L 208.772675 65.037678 
L 220.732532 109.206526 
z
" clip-path="url(#p5fadbb010a)" style="fill: #0000f5; fill-opacity: 0.1"/>
    <path d="M 249.772125 128.966113 
L 238.120389 85.116649 
L 246.896877 72.95733 
L 258.503544 117.057367 
z
" clip-path="url(#p5fadbb010a)" style="fill: #0000f5; fill-opacity: 0.1"/>
    <path d="M 287.432331 136.79542 
L 276.131707 93.01439 
L 285.029498 80.87873 
L 296.282819 124.909927 
z
" clip-path="url(#p5fadbb010a)" style="fill: #0000f5; fill-opacity: 0.1"/>
    <path d="M 325.100752 144.626434 
L 314.151393 100.91387 
L 323.170541 88.80188 
L 334.070361 132.764204 
z
" clip-path="url(#p5fadbb010a)" style="fill: #0000f5; fill-opacity: 0.1"/>
    <path d="M 362.777389 152.459157 
L 352.179451 108.815089 
L 361.320008 96.72678 
L 371.866171 140.6202 
z
" clip-path="url(#p5fadbb010a)" style="fill: #0000f5; fill-opacity: 0.1"/>
    <path d="M 145.215288 93.509993 
L 132.549517 49.203619 
L 141.015826 36.895738 
L 153.642483 81.456213 
z
" clip-path="url(#p5fadbb010a)" style="fill: #0000f5; fill-opacity: 0.1"/>
    <path d="M 182.969781 101.357401 
L 170.656889 57.119775 
L 179.245117 44.835662 
L 191.516644 89.32698 
z
" clip-path="url(#p5fadbb010a)" style="fill: #0000f5; fill-opacity: 0.1"/>
    <path d="M 220.732532 109.206526 
L 208.772675 65.037678 
L 217.482875 52.777345 
L 229.399114 97.199474 
z
" clip-path="url(#p5fadbb010a)" style="fill: #0000f5; fill-opacity: 0.1"/>
    <path d="M 258.503544 117.057367 
L 246.896877 72.95733 
L 255.729103 60.720788 
L 267.289898 105.073696 
z
" clip-path="url(#p5fadbb010a)" style="fill: #0000f5; fill-opacity: 0.1"/>
    <path d="M 296.282819 124.909927 
L 285.029498 80.87873 
L 293.983804 68.66599 
L 305.188998 112.949646 
z
" clip-path="url(#p5fadbb010a)" style="fill: #0000f5; fill-opacity: 0.1"/>
    <path d="M 334.070361 132.764204 
L 323.170541 88.80188 
L 332.246981 76.612952 
L 343.096415 120.827324 
z
" clip-path="url(#p5fadbb010a)" style="fill: #0000f5; fill-opacity: 0.1"/>
    <path d="M 153.642483 81.456213 
L 141.015826 36.895738 
L 149.536057 24.509468 
L 162.122848 69.326381 
z
" clip-path="url(#p5fadbb010a)" style="fill: #0000f5; fill-opacity: 0.1"/>
    <path d="M 191.516644 89.32698 
L 179.245117 44.835662 
L 187.888049 32.473304 
L 200.117437 77.220646 
z
" clip-path="url(#p5fadbb010a)" style="fill: #0000f5; fill-opacity: 0.1"/>
    <path d="M 229.399114 97.199474 
L 217.482875 52.777345 
L 226.248563 40.438909 
L 238.120389 85.116649 
z
" clip-path="url(#p5fadbb010a)" style="fill: #0000f5; fill-opacity: 0.1"/>
    <path d="M 267.289898 105.073696 
L 255.729103 60.720788 
L 264.617601 48.406285 
L 276.131707 93.01439 
z
" clip-path="url(#p5fadbb010a)" style="fill: #0000f5; fill-opacity: 0.1"/>
    <path d="M 305.188998 112.949646 
L 293.983804 68.66599 
L 302.995166 56.375432 
L 314.151393 100.91387 
z
" clip-path="url(#p5fadbb010a)" style="fill: #0000f5; fill-opacity: 0.1"/>
    <path d="M 343.096415 120.827324 
L 332.246981 76.612952 
L 341.381261 64.346349 
L 352.179451 108.815089 
z
" clip-path="url(#p5fadbb010a)" style="fill: #0000f5; fill-opacity: 0.1"/>
    <path d="M 124.136619 61.433853 
L 111.192583 16.5474 
L 119.643816 4.057945 
L 132.549517 49.203619 
z
" clip-path="url(#p5fadbb010a)" style="fill: #0000f5; fill-opacity: 0.1"/>
    <path d="M 162.122848 69.326381 
L 149.536057 24.509468 
L 158.110727 12.044057 
L 170.656889 57.119775 
z
" clip-path="url(#p5fadbb010a)" style="fill: #0000f5; fill-opacity: 0.1"/>
    <path d="M 200.117437 77.220646 
L 187.888049 32.473304 
L 196.58621 20.031949 
L 208.772675 65.037678 
z
" clip-path="url(#p5fadbb010a)" style="fill: #0000f5; fill-opacity: 0.1"/>
    <path d="M 238.120389 85.116649 
L 226.248563 40.438909 
L 235.07027 28.021621 
L 246.896877 72.95733 
z
" clip-path="url(#p5fadbb010a)" style="fill: #0000f5; fill-opacity: 0.1"/>
    <path d="M 276.131707 93.01439 
L 264.617601 48.406285 
L 273.562909 36.013075 
L 285.029498 80.87873 
z
" clip-path="url(#p5fadbb010a)" style="fill: #0000f5; fill-opacity: 0.1"/>
    <path d="M 314.151393 100.91387 
L 302.995166 56.375432 
L 312.06413 44.00631 
L 323.170541 88.80188 
z
" clip-path="url(#p5fadbb010a)" style="fill: #0000f5; fill-opacity: 0.1"/>
    <path d="M 352.179451 108.815089 
L 341.381261 64.346349 
L 350.573935 52.001327 
L 361.320008 96.72678 
z
" clip-path="url(#p5fadbb010a)" style="fill: #0000f5; fill-opacity: 0.1"/>
    <path d="M 132.549517 49.203619 
L 119.643816 4.057945 
L 128.149214 -8.511556 
L 141.015826 36.895738 
z
" clip-path="url(#p5fadbb010a)" style="fill: #0000f5; fill-opacity: 0.1"/>
    <path d="M 170.656889 57.119775 
L 158.110727 12.044057 
L 166.740359 -0.501254 
L 179.245117 44.835662 
z
" clip-path="url(#p5fadbb010a)" style="fill: #0000f5; fill-opacity: 0.1"/>
    <path d="M 208.772675 65.037678 
L 196.58621 20.031949 
L 205.340132 7.510838 
L 217.482875 52.777345 
z
" clip-path="url(#p5fadbb010a)" style="fill: #0000f5; fill-opacity: 0.1"/>
    <path d="M 246.896877 72.95733 
L 235.07027 28.021621 
L 243.948536 15.524723 
L 255.729103 60.720788 
z
" clip-path="url(#p5fadbb010a)" style="fill: #0000f5; fill-opacity: 0.1"/>
    <path d="M 285.029498 80.87873 
L 273.562909 36.013075 
L 282.565574 23.540399 
L 293.983804 68.66599 
z
" clip-path="url(#p5fadbb010a)" style="fill: #0000f5; fill-opacity: 0.1"/>
    <path d="M 323.170541 88.80188 
L 312.06413 44.00631 
L 321.19125 31.557868 
L 332.246981 76.612952 
z
" clip-path="url(#p5fadbb010a)" style="fill: #0000f5; fill-opacity: 0.1"/>
    <path d="M 141.015826 36.895738 
L 128.149214 -8.511556 
L 136.7093 -21.161876 
L 149.536057 24.509468 
z
" clip-path="url(#p5fadbb010a)" style="fill: #0000f5; fill-opacity: 0.1"/>
    <path d="M 179.245117 44.835662 
L 166.740359 -0.501254 
L 175.425483 -13.127238 
L 187.888049 32.473304 
z
" clip-path="url(#p5fadbb010a)" style="fill: #0000f5; fill-opacity: 0.1"/>
    <path d="M 217.482875 52.777345 
L 205.340132 7.510838 
L 214.150351 -5.090798 
L 226.248563 40.438909 
z
" clip-path="url(#p5fadbb010a)" style="fill: #0000f5; fill-opacity: 0.1"/>
    <path d="M 255.729103 60.720788 
L 243.948536 15.524723 
L 252.883905 2.947445 
L 264.617601 48.406285 
z
" clip-path="url(#p5fadbb010a)" style="fill: #0000f5; fill-opacity: 0.1"/>
    <path d="M 293.983804 68.66599 
L 282.565574 23.540399 
L 291.62615 10.987492 
L 302.995166 56.375432 
z
" clip-path="url(#p5fadbb010a)" style="fill: #0000f5; fill-opacity: 0.1"/>
    <path d="M 332.246981 76.612952 
L 321.19125 31.557868 
L 330.377088 19.029342 
L 341.381261 64.346349 
z
" clip-path="url(#p5fadbb010a)" style="fill: #0000f5; fill-opacity: 0.1"/>
    <path d="M 111.192583 16.5474 
L 98.001798 -29.194712 
L 106.491304 -41.951105 
L 119.643816 4.057945 
z
" clip-path="url(#p5fadbb010a)" style="fill: #0000f5; fill-opacity: 0.1"/>
    <path d="M 149.536057 24.509468 
L 136.7093 -21.161876 
L 145.324602 -33.893796 
L 158.110727 12.044057 
z
" clip-path="url(#p5fadbb010a)" style="fill: #0000f5; fill-opacity: 0.1"/>
    <path d="M 187.888049 32.473304 
L 175.425483 -13.127238 
L 184.166637 -25.834674 
L 196.58621 20.031949 
z
" clip-path="url(#p5fadbb010a)" style="fill: #0000f5; fill-opacity: 0.1"/>
    <path d="M 226.248563 40.438909 
L 214.150351 -5.090798 
L 223.017412 -17.773738 
L 235.07027 28.021621 
z
" clip-path="url(#p5fadbb010a)" style="fill: #0000f5; fill-opacity: 0.1"/>
    <path d="M 264.617601 48.406285 
L 252.883905 2.947445 
L 261.876932 -9.710988 
L 273.562909 36.013075 
z
" clip-path="url(#p5fadbb010a)" style="fill: #0000f5; fill-opacity: 0.1"/>
    <path d="M 302.995166 56.375432 
L 291.62615 10.987492 
L 300.745197 -1.646424 
L 312.06413 44.00631 
z
" clip-path="url(#p5fadbb010a)" style="fill: #0000f5; fill-opacity: 0.1"/>
    <path d="M 341.381261 64.346349 
L 330.377088 19.029342 
L 339.622213 6.419956 
L 350.573935 52.001327 
z
" clip-path="url(#p5fadbb010a)" style="fill: #0000f5; fill-opacity: 0.1"/>
    <path d="M 119.643816 4.057945 
L 106.491304 -41.951105 
L 115.035743 -54.790039 
L 128.149214 -8.511556 
z
" clip-path="url(#p5fadbb010a)" style="fill: #0000f5; fill-opacity: 0.1"/>
    <path d="M 158.110727 12.044057 
L 145.324602 -33.893796 
L 153.995656 -46.708108 
L 166.740359 -0.501254 
z
" clip-path="url(#p5fadbb010a)" style="fill: #0000f5; fill-opacity: 0.1"/>
    <path d="M 196.58621 20.031949 
L 184.166637 -25.834674 
L 192.964363 -38.624353 
L 205.340132 7.510838 
z
" clip-path="url(#p5fadbb010a)" style="fill: #0000f5; fill-opacity: 0.1"/>
    <path d="M 235.07027 28.021621 
L 223.017412 -17.773738 
L 231.941869 -30.538773 
L 243.948536 15.524723 
z
" clip-path="url(#p5fadbb010a)" style="fill: #0000f5; fill-opacity: 0.1"/>
    <path d="M 273.562909 36.013075 
L 261.876932 -9.710988 
L 270.928174 -22.451367 
L 282.565574 23.540399 
z
" clip-path="url(#p5fadbb010a)" style="fill: #0000f5; fill-opacity: 0.1"/>
    <path d="M 312.06413 44.00631 
L 300.745197 -1.646424 
L 309.923283 -14.362135 
L 321.19125 31.557868 
z
" clip-path="url(#p5fadbb010a)" style="fill: #0000f5; fill-opacity: 0.1"/>
    <path d="M 128.149214 -8.511556 
L 115.035743 -54.790039 
L 123.635648 -67.712318 
L 136.7093 -21.161876 
z
" clip-path="url(#p5fadbb010a)" style="fill: #0000f5; fill-opacity: 0.1"/>
    <path d="M 166.740359 -0.501254 
L 153.995656 -46.708108 
L 162.723005 -59.605615 
L 175.425483 -13.127238 
z
" clip-path="url(#p5fadbb010a)" style="fill: #0000f5; fill-opacity: 0.1"/>
    <path d="M 205.340132 7.510838 
L 192.964363 -38.624353 
L 201.819215 -51.497076 
L 214.150351 -5.090798 
z
" clip-path="url(#p5fadbb010a)" style="fill: #0000f5; fill-opacity: 0.1"/>
    <path d="M 243.948536 15.524723 
L 231.941869 -30.538773 
L 240.924279 -43.386701 
L 252.883905 2.947445 
z
" clip-path="url(#p5fadbb010a)" style="fill: #0000f5; fill-opacity: 0.1"/>
    <path d="M 282.565574 23.540399 
L 270.928174 -22.451367 
L 280.038201 -35.274488 
L 291.62615 10.987492 
z
" clip-path="url(#p5fadbb010a)" style="fill: #0000f5; fill-opacity: 0.1"/>
    <path d="M 321.19125 31.557868 
L 309.923283 -14.362135 
L 319.160984 -27.160437 
L 330.377088 19.029342 
z
" clip-path="url(#p5fadbb010a)" style="fill: #0000f5; fill-opacity: 0.1"/>
    <path d="M 136.7093 -21.161876 
L 123.635648 -67.712318 
L 132.291563 -80.718757 
L 145.324602 -33.893796 
z
" clip-path="url(#p5fadbb010a)" style="fill: #0000f5; fill-opacity: 0.1"/>
    <path d="M 175.425483 -13.127238 
L 162.723005 -59.605615 
L 171.5072 -72.58713 
L 184.166637 -25.834674 
z
" clip-path="url(#p5fadbb010a)" style="fill: #0000f5; fill-opacity: 0.1"/>
    <path d="M 214.150351 -5.090798 
L 201.819215 -51.497076 
L 210.731748 -64.453655 
L 223.017412 -17.773738 
z
" clip-path="url(#p5fadbb010a)" style="fill: #0000f5; fill-opacity: 0.1"/>
    <path d="M 252.883905 2.947445 
L 240.924279 -43.386701 
L 249.965209 -56.318332 
L 261.876932 -9.710988 
z
" clip-path="url(#p5fadbb010a)" style="fill: #0000f5; fill-opacity: 0.1"/>
    <path d="M 291.62615 10.987492 
L 280.038201 -35.274488 
L 289.207585 -48.181161 
L 300.745197 -1.646424 
z
" clip-path="url(#p5fadbb010a)" style="fill: #0000f5; fill-opacity: 0.1"/>
    <path d="M 330.377088 19.029342 
L 319.160984 -27.160437 
L 328.458881 -40.04214 
L 339.622213 6.419956 
z
" clip-path="url(#p5fadbb010a)" style="fill: #0000f5; fill-opacity: 0.1"/>
    <path d="M 145.324602 -33.893796 
L 132.291563 -80.718757 
L 141.004035 -93.81018 
L 153.995656 -46.708108 
z
" clip-path="url(#p5fadbb010a)" style="fill: #0000f5; fill-opacity: 0.1"/>
    <path d="M 184.166637 -25.834674 
L 171.5072 -72.58713 
L 180.348798 -85.653476 
L 192.964363 -38.624353 
z
" clip-path="url(#p5fadbb010a)" style="fill: #0000f5; fill-opacity: 0.1"/>
    <path d="M 223.017412 -17.773738 
L 210.731748 -64.453655 
L 219.702529 -77.494912 
L 231.941869 -30.538773 
z
" clip-path="url(#p5fadbb010a)" style="fill: #0000f5; fill-opacity: 0.1"/>
    <path d="M 261.876932 -9.710988 
L 249.965209 -56.318332 
L 259.065232 -69.334489 
L 270.928174 -22.451367 
z
" clip-path="url(#p5fadbb010a)" style="fill: #0000f5; fill-opacity: 0.1"/>
    <path d="M 300.745197 -1.646424 
L 289.207585 -48.181161 
L 298.43691 -61.172204 
L 309.923283 -14.362135 
z
" clip-path="url(#p5fadbb010a)" style="fill: #0000f5; fill-opacity: 0.1"/>
    <path d="M 153.995656 -46.708108 
L 141.004035 -93.81018 
L 149.773621 -106.987423 
L 162.723005 -59.605615 
z
" clip-path="url(#p5fadbb010a)" style="fill: #0000f5; fill-opacity: 0.1"/>
    <path d="M 192.964363 -38.624353 
L 180.348798 -85.653476 
L 189.248363 -98.805487 
L 201.819215 -51.497076 
z
" clip-path="url(#p5fadbb010a)" style="fill: #0000f5; fill-opacity: 0.1"/>
    <path d="M 231.941869 -30.538773 
L 219.702529 -77.494912 
L 228.732132 -90.62168 
L 240.924279 -43.386701 
z
" clip-path="url(#p5fadbb010a)" style="fill: #0000f5; fill-opacity: 0.1"/>
    <path d="M 270.928174 -22.451367 
L 259.065232 -69.334489 
L 268.224931 -82.436 
L 280.038201 -35.274488 
z
" clip-path="url(#p5fadbb010a)" style="fill: #0000f5; fill-opacity: 0.1"/>
    <path d="M 309.923283 -14.362135 
L 298.43691 -61.172204 
L 307.726764 -74.248449 
L 319.160984 -27.160437 
z
" clip-path="url(#p5fadbb010a)" style="fill: #0000f5; fill-opacity: 0.1"/>
    <path d="M 162.723005 -59.605615 
L 149.773621 -106.987423 
L 158.600885 -120.251333 
L 171.5072 -72.58713 
z
" clip-path="url(#p5fadbb010a)" style="fill: #0000f5; fill-opacity: 0.1"/>
    <path d="M 201.819215 -51.497076 
L 189.248363 -98.805487 
L 198.206466 -112.044009 
L 210.731748 -64.453655 
z
" clip-path="url(#p5fadbb010a)" style="fill: #0000f5; fill-opacity: 0.1"/>
    <path d="M 240.924279 -43.386701 
L 228.732132 -90.62168 
L 237.821135 -103.834801 
L 249.965209 -56.318332 
z
" clip-path="url(#p5fadbb010a)" style="fill: #0000f5; fill-opacity: 0.1"/>
    <path d="M 280.038201 -35.274488 
L 268.224931 -82.436 
L 277.444894 -95.62371 
L 289.207585 -48.181161 
z
" clip-path="url(#p5fadbb010a)" style="fill: #0000f5; fill-opacity: 0.1"/>
    <path d="M 319.160984 -27.160437 
L 307.726764 -74.248449 
L 317.077746 -87.410735 
L 328.458881 -40.04214 
z
" clip-path="url(#p5fadbb010a)" style="fill: #0000f5; fill-opacity: 0.1"/>
    <path d="M 171.5072 -72.58713 
L 158.600885 -120.251333 
L 167.486397 -133.602767 
L 180.348798 -85.653476 
z
" clip-path="url(#p5fadbb010a)" style="fill: #0000f5; fill-opacity: 0.1"/>
    <path d="M 210.731748 -64.453655 
L 198.206466 -112.044009 
L 207.223689 -125.369897 
L 219.702529 -77.494912 
z
" clip-path="url(#p5fadbb010a)" style="fill: #0000f5; fill-opacity: 0.1"/>
    <path d="M 249.965209 -56.318332 
L 237.821135 -103.834801 
L 246.970128 -117.135133 
L 259.065232 -69.334489 
z
" clip-path="url(#p5fadbb010a)" style="fill: #0000f5; fill-opacity: 0.1"/>
    <path d="M 289.207585 -48.181161 
L 277.444894 -95.62371 
L 286.725717 -108.898472 
L 298.43691 -61.172204 
z
" clip-path="url(#p5fadbb010a)" style="fill: #0000f5; fill-opacity: 0.1"/>
    <path d="M 180.348798 -85.653476 
L 167.486397 -133.602767 
L 176.430736 -147.042594 
L 189.248363 -98.805487 
z
" clip-path="url(#p5fadbb010a)" style="fill: #0000f5; fill-opacity: 0.1"/>
    <path d="M 219.702529 -77.494912 
L 207.223689 -125.369897 
L 216.300617 -138.784021 
L 228.732132 -90.62168 
z
" clip-path="url(#p5fadbb010a)" style="fill: #0000f5; fill-opacity: 0.1"/>
    <path d="M 259.065232 -69.334489 
L 246.970128 -117.135133 
L 256.179706 -130.523539 
L 268.224931 -82.436 
z
" clip-path="url(#p5fadbb010a)" style="fill: #0000f5; fill-opacity: 0.1"/>
    <path d="M 298.43691 -61.172204 
L 286.725717 -108.898472 
L 296.068006 -122.26115 
L 307.726764 -74.248449 
z
" clip-path="url(#p5fadbb010a)" style="fill: #0000f5; fill-opacity: 0.1"/>
    <path d="M 189.248363 -98.805487 
L 176.430736 -147.042594 
L 185.434488 -160.571696 
L 198.206466 -112.044009 
z
" clip-path="url(#p5fadbb010a)" style="fill: #0000f5; fill-opacity: 0.1"/>
    <path d="M 228.732132 -90.62168 
L 216.300617 -138.784021 
L 225.437845 -152.287258 
L 237.821135 -103.834801 
z
" clip-path="url(#p5fadbb010a)" style="fill: #0000f5; fill-opacity: 0.1"/>
    <path d="M 268.224931 -82.436 
L 256.179706 -130.523539 
L 265.450472 -144.0009 
L 277.444894 -95.62371 
z
" clip-path="url(#p5fadbb010a)" style="fill: #0000f5; fill-opacity: 0.1"/>
    <path d="M 307.726764 -74.248449 
L 296.068006 -122.26115 
L 305.472373 -135.712621 
L 317.077746 -87.410735 
z
" clip-path="url(#p5fadbb010a)" style="fill: #0000f5; fill-opacity: 0.1"/>
    <path d="M 198.206466 -112.044009 
L 185.434488 -160.571696 
L 194.498247 -174.190965 
L 207.223689 -125.369897 
z
" clip-path="url(#p5fadbb010a)" style="fill: #0000f5; fill-opacity: 0.1"/>
    <path d="M 237.821135 -103.834801 
L 225.437845 -152.287258 
L 234.635978 -165.8805 
L 246.970128 -117.135133 
z
" clip-path="url(#p5fadbb010a)" style="fill: #0000f5; fill-opacity: 0.1"/>
    <path d="M 277.444894 -95.62371 
L 265.450472 -144.0009 
L 274.78304 -157.568103 
L 286.725717 -108.898472 
z
" clip-path="url(#p5fadbb010a)" style="fill: #0000f5; fill-opacity: 0.1"/>
    <path d="M 207.223689 -125.369897 
L 194.498247 -174.190965 
L 203.622615 -187.901304 
L 216.300617 -138.784021 
z
" clip-path="url(#p5fadbb010a)" style="fill: #0000f5; fill-opacity: 0.1"/>
    <path d="M 246.970128 -117.135133 
L 234.635978 -165.8805 
L 243.895624 -179.56465 
L 256.179706 -130.523539 
z
" clip-path="url(#p5fadbb010a)" style="fill: #0000f5; fill-opacity: 0.1"/>
    <path d="M 286.725717 -108.898472 
L 274.78304 -157.568103 
L 284.178029 -171.22605 
L 296.068006 -122.26115 
z
" clip-path="url(#p5fadbb010a)" style="fill: #0000f5; fill-opacity: 0.1"/>
    <path d="M 216.300617 -138.784021 
L 203.622615 -187.901304 
L 212.808201 -201.703632 
L 225.437845 -152.287258 
z
" clip-path="url(#p5fadbb010a)" style="fill: #0000f5; fill-opacity: 0.1"/>
    <path d="M 256.179706 -130.523539 
L 243.895624 -179.56465 
L 253.217405 -193.340622 
L 265.450472 -144.0009 
z
" clip-path="url(#p5fadbb010a)" style="fill: #0000f5; fill-opacity: 0.1"/>
    <path d="M 296.068006 -122.26115 
L 284.178029 -171.22605 
L 293.636066 -184.975655 
L 305.472373 -135.712621 
z
" clip-path="url(#p5fadbb010a)" style="fill: #0000f5; fill-opacity: 0.1"/>
    <path d="M 225.437845 -152.287258 
L 212.808201 -201.703632 
L 222.055625 -215.598876 
L 234.635978 -165.8805 
z
" clip-path="url(#p5fadbb010a)" style="fill: #0000f5; fill-opacity: 0.1"/>
    <path d="M 265.450472 -144.0009 
L 253.217405 -193.340622 
L 262.601946 -207.209345 
L 274.78304 -157.568103 
z
" clip-path="url(#p5fadbb010a)" style="fill: #0000f5; fill-opacity: 0.1"/>
    <path d="M 234.635978 -165.8805 
L 222.055625 -215.598876 
L 231.365512 -229.587979 
L 243.895624 -179.56465 
z
" clip-path="url(#p5fadbb010a)" style="fill: #0000f5; fill-opacity: 0.1"/>
    <path d="M 274.78304 -157.568103 
L 262.601946 -207.209345 
L 272.049885 -221.171758 
L 284.178029 -171.22605 
z
" clip-path="url(#p5fadbb010a)" style="fill: #0000f5; fill-opacity: 0.1"/>
    <path d="M 243.895624 -179.56465 
L 231.365512 -229.587979 
L 240.738497 -243.671893 
L 253.217405 -193.340622 
z
" clip-path="url(#p5fadbb010a)" style="fill: #0000f5; fill-opacity: 0.1"/>
    <path d="M 284.178029 -171.22605 
L 272.049885 -221.171758 
L 281.561865 -235.228813 
L 293.636066 -184.975655 
z
" clip-path="url(#p5fadbb010a)" style="fill: #0000f5; fill-opacity: 0.1"/>
    <path d="M 253.217405 -193.340622 
L 240.738497 -243.671893 
L 250.175224 -257.851587 
L 262.601946 -207.209345 
z
" clip-path="url(#p5fadbb010a)" style="fill: #0000f5; fill-opacity: 0.1"/>
    <path d="M 262.601946 -207.209345 
L 250.175224 -257.851587 
L 259.676347 -272.128041 
L 272.049885 -221.171758 
z
" clip-path="url(#p5fadbb010a)" style="fill: #0000f5; fill-opacity: 0.1"/>
    <path d="M 272.049885 -221.171758 
L 259.676347 -272.128041 
L 269.242525 -286.502249 
L 281.561865 -235.228813 
z
" clip-path="url(#p5fadbb010a)" style="fill: #0000f5; fill-opacity: 0.1"/>
   </g>
   <g id="legend_1">
    <g id="patch_6">
     <path d="M 357.840076 67.305115 
L 396.2 67.305115 
Q 398.2 67.305115 398.2 65.305115 
L 398.2 7 
Q 398.2 5 396.2 5 
L 357.840076 5 
Q 355.840076 5 355.840076 7 
L 355.840076 65.305115 
Q 355.840076 67.305115 357.840076 67.305115 
z
" style="fill: #ffffff; opacity: 0.8; stroke: #cccccc; stroke-linejoin: miter"/>
    </g>
    <g id="line2d_25">
     <path d="M 359.840076 12.5 
L 369.840076 12.5 
L 379.840076 12.5 
" style="fill: none; stroke: #ff0000; stroke-width: 1.5; stroke-linecap: square"/>
    </g>
    <g id="text_21">
     <!-- $\vec{a}$ -->
     <g transform="translate(387.840076 16)scale(0.1 -0.1)">
      <defs>
       <path id="CMMI12-7e" d="M 3424 3835 
C 3347 3764 3110 3540 3110 3451 
C 3110 3387 3168 3329 3232 3329 
C 3290 3329 3315 3368 3360 3432 
C 3514 3624 3686 3745 3834 3828 
C 3898 3867 3942 3886 3942 3956 
C 3942 4014 3891 4046 3853 4078 
C 3674 4200 3629 4372 3610 4449 
C 3590 4500 3571 4577 3482 4577 
C 3443 4577 3366 4552 3366 4456 
C 3366 4398 3405 4244 3526 4072 
L 1376 4072 
C 1267 4072 1158 4072 1158 3950 
C 1158 3835 1274 3835 1376 3835 
L 3424 3835 
z
" transform="scale(0.015625)"/>
       <path id="CMMI12-61" d="M 1926 760 
C 1894 651 1894 639 1805 517 
C 1664 338 1382 64 1082 64 
C 819 64 672 300 672 677 
C 672 1028 870 1743 992 2012 
C 1210 2459 1510 2689 1760 2689 
C 2182 2689 2266 2165 2266 2114 
C 2266 2108 2246 2024 2240 2012 
L 1926 760 
z
M 2336 2395 
C 2266 2561 2093 2816 1760 2816 
C 1037 2816 256 1884 256 939 
C 256 307 627 -64 1062 -64 
C 1414 -64 1715 211 1894 422 
C 1958 45 2259 -64 2451 -64 
C 2643 -64 2797 51 2912 281 
C 3014 498 3104 888 3104 913 
C 3104 945 3078 971 3040 971 
C 2982 971 2976 939 2950 843 
C 2854 466 2733 64 2470 64 
C 2285 64 2272 230 2272 358 
C 2272 505 2291 575 2349 824 
C 2394 984 2426 1124 2477 1309 
C 2714 2267 2771 2497 2771 2535 
C 2771 2625 2701 2695 2605 2695 
C 2400 2695 2349 2472 2336 2395 
z
" transform="scale(0.015625)"/>
      </defs>
      <use xlink:href="#CMMI12-7e" transform="scale(0.996264)"/>
      <use xlink:href="#CMMI12-61" transform="translate(6.445738 0)scale(0.996264)"/>
     </g>
    </g>
    <g id="line2d_26">
     <path d="M 359.840076 27.24679 
L 369.840076 27.24679 
L 379.840076 27.24679 
" style="fill: none; stroke: #00ff00; stroke-width: 1.5; stroke-linecap: square"/>
    </g>
    <g id="text_22">
     <!-- $\vec{b}$ -->
     <g transform="translate(387.840076 30.74679)scale(0.1 -0.1)">
      <defs>
       <path id="CMMI12-62" d="M 1478 4257 
C 1485 4283 1498 4321 1498 4352 
C 1498 4416 1434 4416 1421 4416 
C 1414 4416 1184 4393 1069 4377 
C 960 4377 864 4358 749 4358 
C 595 4345 550 4339 550 4224 
C 550 4160 614 4160 678 4160 
C 1005 4160 1005 4103 1005 4040 
C 1005 3996 954 3811 928 3696 
L 774 3085 
C 710 2831 346 1387 320 1272 
C 288 1114 288 1005 288 922 
C 288 274 653 -64 1069 -64 
C 1811 -64 2579 888 2579 1814 
C 2579 2401 2246 2816 1766 2816 
C 1434 2816 1133 2542 1011 2414 
L 1478 4257 
z
M 1075 64 
C 870 64 646 217 646 715 
C 646 926 666 1047 781 1494 
C 800 1577 902 1986 928 2069 
C 941 2120 1318 2689 1754 2689 
C 2035 2689 2163 2408 2163 2076 
C 2163 1769 1984 1047 1824 715 
C 1664 370 1370 64 1075 64 
z
" transform="scale(0.015625)"/>
      </defs>
      <use xlink:href="#CMMI12-7e" transform="translate(0 26.29016)scale(0.996264)"/>
      <use xlink:href="#CMMI12-62" transform="translate(11.311737 0)scale(0.996264)"/>
     </g>
    </g>
    <g id="line2d_27">
     <path d="M 359.840076 41.183968 
L 369.840076 41.183968 
L 379.840076 41.183968 
" style="fill: none; stroke: #0016ff; stroke-width: 1.5; stroke-linecap: square"/>
    </g>
    <g id="text_23">
     <!-- $\vec{c}$ -->
     <g transform="translate(387.840076 44.683968)scale(0.1 -0.1)">
      <defs>
       <path id="CMMI12-63" d="M 2502 2431 
C 2381 2431 2323 2431 2234 2355 
C 2195 2323 2125 2227 2125 2125 
C 2125 1997 2221 1920 2342 1920 
C 2496 1920 2669 2044 2669 2292 
C 2669 2588 2374 2816 1933 2816 
C 1094 2816 256 1903 256 996 
C 256 441 602 -64 1254 -64 
C 2125 -64 2675 622 2675 706 
C 2675 744 2637 776 2611 776 
C 2592 776 2586 770 2528 713 
C 2118 162 1510 64 1267 64 
C 826 64 685 446 685 764 
C 685 988 794 1605 1024 2039 
C 1190 2338 1536 2682 1939 2682 
C 2022 2682 2374 2682 2502 2431 
z
" transform="scale(0.015625)"/>
      </defs>
      <use xlink:href="#CMMI12-7e" transform="scale(0.996264)"/>
      <use xlink:href="#CMMI12-63" transform="translate(5.638615 0)scale(0.996264)"/>
     </g>
    </g>
    <g id="line2d_28">
     <path d="M 359.840076 57.867937 
L 369.840076 57.867937 
L 379.840076 57.867937 
" style="fill: none; stroke: #f400ff; stroke-width: 1.5; stroke-linecap: square"/>
    </g>
    <g id="text_24">
     <!-- $\vec{f}$ -->
     <g transform="translate(387.840076 61.367937)scale(0.1 -0.1)">
      <defs>
       <path id="CMMI12-66" d="M 2854 2566 
C 2982 2566 3034 2566 3034 2688 
C 3034 2752 2982 2752 2867 2752 
L 2349 2752 
C 2470 3429 2560 3897 2611 4107 
C 2650 4265 2784 4416 2950 4416 
C 3085 4416 3219 4358 3283 4298 
C 3034 4272 2957 4082 2957 3969 
C 2957 3837 3053 3759 3174 3759 
C 3302 3759 3494 3870 3494 4119 
C 3494 4393 3226 4544 2944 4544 
C 2669 4544 2400 4334 2272 4078 
C 2157 3848 2093 3611 1946 2752 
L 1517 2752 
C 1395 2752 1331 2752 1331 2637 
C 1331 2566 1370 2566 1498 2566 
L 1907 2566 
C 1792 1976 1530 542 1382 -137 
C 1274 -689 1178 -1152 858 -1152 
C 838 -1152 653 -1152 538 -1031 
C 864 -1005 864 -726 864 -720 
C 864 -593 768 -517 646 -517 
C 518 -517 326 -625 326 -867 
C 326 -1140 608 -1280 858 -1280 
C 1510 -1280 1779 -118 1850 199 
C 1965 688 2278 2376 2310 2566 
L 2854 2566 
z
" transform="scale(0.015625)"/>
      </defs>
      <use xlink:href="#CMMI12-7e" transform="translate(13.568792 26.29016)scale(0.996264)"/>
      <use xlink:href="#CMMI12-66" transform="scale(0.996264)"/>
     </g>
    </g>
   </g>
  </g>
 </g>
 <defs>
  <clipPath id="p5fadbb010a">
   <rect x="57.6" y="0" width="345.6" height="345.6"/>
  </clipPath>
 </defs>
</svg>
