<?xml version="1.0" encoding="utf-8" standalone="no"?>
<!DOCTYPE svg PUBLIC "-//W3C//DTD SVG 1.1//EN"
  "http://www.w3.org/Graphics/SVG/1.1/DTD/svg11.dtd">
<svg xmlns:xlink="http://www.w3.org/1999/xlink" width="460.8pt" height="345.6pt" viewBox="0 0 460.8 345.6" xmlns="http://www.w3.org/2000/svg" version="1.1">
 <metadata>
  <rdf:RDF xmlns:dc="http://purl.org/dc/elements/1.1/" xmlns:cc="http://creativecommons.org/ns#" xmlns:rdf="http://www.w3.org/1999/02/22-rdf-syntax-ns#">
   <cc:Work>
    <dc:type rdf:resource="http://purl.org/dc/dcmitype/StillImage"/>
    <dc:date>2022-07-12T15:50:52.213547</dc:date>
    <dc:format>image/svg+xml</dc:format>
    <dc:creator>
     <cc:Agent>
      <dc:title>Matplotlib v3.5.1, https://matplotlib.org/</dc:title>
     </cc:Agent>
    </dc:creator>
   </cc:Work>
  </rdf:RDF>
 </metadata>
 <defs>
  <style type="text/css">*{stroke-linejoin: round; stroke-linecap: butt}</style>
 </defs>
 <g id="figure_1">
  <g id="patch_1">
   <path d="M 0 345.6 
L 460.8 345.6 
L 460.8 0 
L 0 0 
z
" style="fill: #ffffff"/>
  </g>
  <g id="patch_2">
   <path d="M 57.6 345.6 
L 403.2 345.6 
L 403.2 0 
L 57.6 0 
z
" style="fill: #ffffff"/>
  </g>
  <g id="pane3d_1">
   <g id="patch_3">
    <path d="M 212.358323 245.125735 
L 388.371609 250.44346 
L 388.371609 85.815999 
L 212.358323 91.133724 
" style="fill: #f2f2f2; opacity: 0.5; stroke: #f2f2f2; stroke-linejoin: miter"/>
   </g>
  </g>
  <g id="pane3d_2">
   <g id="patch_4">
    <path d="M 212.358323 245.125735 
L 77.67754 252.640295 
L 77.67754 83.619164 
L 212.358323 91.133724 
" style="fill: #e6e6e6; opacity: 0.5; stroke: #e6e6e6; stroke-linejoin: miter"/>
   </g>
  </g>
  <g id="pane3d_3">
   <g id="patch_5">
    <path d="M 212.358323 245.125735 
L 77.67754 252.640295 
L 261.901375 259.090133 
L 388.371609 250.44346 
" style="fill: #ececec; opacity: 0.5; stroke: #ececec; stroke-linejoin: miter"/>
   </g>
  </g>
  <g id="axis3d_1">
   <g id="line2d_1">
    <path d="M 388.371609 250.44346 
L 261.901375 259.090133 
" style="fill: none; stroke: #000000; stroke-width: 0.8; stroke-linecap: square"/>
   </g>
   <g id="text_1">
    <!-- x -->
    <g transform="translate(351.828894 283.665465)scale(0.16 -0.16)">
     <defs>
      <path id="CMSS17-78" d="M 1587 1414 
L 2656 2739 
L 2099 2739 
L 1363 1777 
L 602 2739 
L 32 2739 
L 1139 1414 
L 0 0 
L 563 0 
L 1363 1121 
L 2195 0 
L 2758 0 
L 1587 1414 
z
" transform="scale(0.015625)"/>
     </defs>
     <use xlink:href="#CMSS17-78" transform="scale(0.996264)"/>
    </g>
   </g>
   <g id="Line3DCollection_1">
    <path d="M 386.078289 250.600253 
L 209.899848 245.262907 
L 209.899848 90.996553 
" style="fill: none; stroke: #b0b0b0; stroke-width: 0.8"/>
    <path d="M 363.609611 252.136419 
L 185.845034 246.605053 
L 185.845034 89.654406 
" style="fill: none; stroke: #b0b0b0; stroke-width: 0.8"/>
    <path d="M 340.288005 253.730899 
L 160.938271 247.994735 
L 160.938271 88.264725 
" style="fill: none; stroke: #b0b0b0; stroke-width: 0.8"/>
    <path d="M 316.063964 255.387079 
L 135.133481 249.434522 
L 135.133481 86.824938 
" style="fill: none; stroke: #b0b0b0; stroke-width: 0.8"/>
    <path d="M 290.884074 257.108608 
L 108.381205 250.927174 
L 108.381205 85.332286 
" style="fill: none; stroke: #b0b0b0; stroke-width: 0.8"/>
    <path d="M 264.690622 258.899435 
L 80.628284 252.475658 
L 80.628284 83.783802 
" style="fill: none; stroke: #b0b0b0; stroke-width: 0.8"/>
   </g>
   <g id="xtick_1">
    <g id="line2d_2">
     <path d="M 384.572167 250.554625 
L 389.095539 250.691661 
" style="fill: none; stroke: #000000; stroke-width: 0.8; stroke-linecap: square"/>
    </g>
    <g id="text_2">
     <!-- $\mathdefault{0}$ -->
     <g transform="translate(395.675771 268.469657)scale(0.1 -0.1)">
      <defs>
       <path id="CMR17-30" d="M 2688 2025 
C 2688 2416 2682 3080 2413 3591 
C 2176 4039 1798 4198 1466 4198 
C 1158 4198 768 4058 525 3597 
C 269 3118 243 2524 243 2025 
C 243 1661 250 1106 448 619 
C 723 -39 1216 -128 1466 -128 
C 1760 -128 2208 -7 2470 600 
C 2662 1042 2688 1559 2688 2025 
z
M 1466 -26 
C 1056 -26 813 325 723 812 
C 653 1188 653 1738 653 2096 
C 653 2588 653 2997 736 3387 
C 858 3929 1216 4096 1466 4096 
C 1728 4096 2067 3923 2189 3400 
C 2272 3036 2278 2607 2278 2096 
C 2278 1680 2278 1169 2202 792 
C 2067 95 1690 -26 1466 -26 
z
" transform="scale(0.015625)"/>
      </defs>
      <use xlink:href="#CMR17-30" transform="scale(0.996264)"/>
     </g>
    </g>
   </g>
   <g id="xtick_2">
    <g id="line2d_3">
     <path d="M 362.088114 252.089076 
L 366.657759 252.231266 
" style="fill: none; stroke: #000000; stroke-width: 0.8; stroke-linecap: square"/>
    </g>
    <g id="text_3">
     <!-- $\mathdefault{1}$ -->
     <g transform="translate(373.331637 270.217676)scale(0.1 -0.1)">
      <defs>
       <path id="CMR17-31" d="M 1702 4058 
C 1702 4192 1696 4192 1606 4192 
C 1357 3916 979 3827 621 3827 
C 602 3827 570 3827 563 3808 
C 557 3795 557 3782 557 3648 
C 755 3648 1088 3686 1344 3839 
L 1344 461 
C 1344 236 1331 160 781 160 
L 589 160 
L 589 0 
C 896 0 1216 0 1523 0 
C 1830 0 2150 0 2458 0 
L 2458 160 
L 2266 160 
C 1715 160 1702 230 1702 458 
L 1702 4058 
z
" transform="scale(0.015625)"/>
      </defs>
      <use xlink:href="#CMR17-31" transform="scale(0.996264)"/>
     </g>
    </g>
   </g>
   <g id="xtick_3">
    <g id="line2d_4">
     <path d="M 338.751039 253.681742 
L 343.367243 253.829383 
" style="fill: none; stroke: #000000; stroke-width: 0.8; stroke-linecap: square"/>
    </g>
    <g id="text_4">
     <!-- $\mathdefault{2}$ -->
     <g transform="translate(350.135392 272.032357)scale(0.1 -0.1)">
      <defs>
       <path id="CMR17-32" d="M 2669 989 
L 2554 989 
C 2490 536 2438 459 2413 420 
C 2381 369 1920 369 1830 369 
L 602 369 
C 832 619 1280 1072 1824 1597 
C 2214 1967 2669 2402 2669 3035 
C 2669 3790 2067 4224 1395 4224 
C 691 4224 262 3604 262 3030 
C 262 2780 448 2748 525 2748 
C 589 2748 781 2787 781 3010 
C 781 3207 614 3264 525 3264 
C 486 3264 448 3258 422 3245 
C 544 3790 915 4058 1306 4058 
C 1862 4058 2227 3617 2227 3035 
C 2227 2479 1901 2000 1536 1584 
L 262 146 
L 262 0 
L 2515 0 
L 2669 989 
z
" transform="scale(0.015625)"/>
      </defs>
      <use xlink:href="#CMR17-32" transform="scale(0.996264)"/>
     </g>
    </g>
   </g>
   <g id="xtick_4">
    <g id="line2d_5">
     <path d="M 314.511458 255.336002 
L 319.174438 255.489412 
" style="fill: none; stroke: #000000; stroke-width: 0.8; stroke-linecap: square"/>
    </g>
    <g id="text_5">
     <!-- $\mathdefault{3}$ -->
     <g transform="translate(326.037345 273.917587)scale(0.1 -0.1)">
      <defs>
       <path id="CMR17-33" d="M 1414 2157 
C 1984 2157 2234 1662 2234 1090 
C 2234 320 1824 25 1453 25 
C 1114 25 563 194 390 693 
C 422 680 454 680 486 680 
C 640 680 755 782 755 948 
C 755 1133 614 1216 486 1216 
C 378 1216 211 1165 211 926 
C 211 335 787 -128 1466 -128 
C 2176 -128 2720 430 2720 1085 
C 2720 1707 2208 2157 1600 2227 
C 2086 2328 2554 2756 2554 3329 
C 2554 3820 2048 4179 1472 4179 
C 890 4179 378 3829 378 3329 
C 378 3110 544 3072 627 3072 
C 762 3072 877 3155 877 3321 
C 877 3486 762 3569 627 3569 
C 602 3569 570 3569 544 3557 
C 730 3959 1235 4032 1459 4032 
C 1683 4032 2106 3925 2106 3320 
C 2106 3143 2080 2828 1862 2550 
C 1670 2304 1453 2304 1242 2284 
C 1210 2284 1062 2269 1037 2269 
C 992 2263 966 2257 966 2208 
C 966 2163 973 2157 1101 2157 
L 1414 2157 
z
" transform="scale(0.015625)"/>
      </defs>
      <use xlink:href="#CMR17-33" transform="scale(0.996264)"/>
     </g>
    </g>
   </g>
   <g id="xtick_5">
    <g id="line2d_6">
     <path d="M 289.315986 257.055497 
L 294.025876 257.215022 
" style="fill: none; stroke: #000000; stroke-width: 0.8; stroke-linecap: square"/>
    </g>
    <g id="text_6">
     <!-- $\mathdefault{4}$ -->
     <g transform="translate(300.983863 275.877563)scale(0.1 -0.1)">
      <defs>
       <path id="CMR17-34" d="M 2150 4122 
C 2150 4256 2144 4256 2029 4256 
L 128 1254 
L 128 1088 
L 1779 1088 
L 1779 457 
C 1779 224 1766 160 1318 160 
L 1197 160 
L 1197 0 
C 1402 0 1747 0 1965 0 
C 2182 0 2528 0 2733 0 
L 2733 160 
L 2611 160 
C 2163 160 2150 224 2150 457 
L 2150 1088 
L 2803 1088 
L 2803 1254 
L 2150 1254 
L 2150 4122 
z
M 1798 3703 
L 1798 1254 
L 256 1254 
L 1798 3703 
z
" transform="scale(0.015625)"/>
      </defs>
      <use xlink:href="#CMR17-34" transform="scale(0.996264)"/>
     </g>
    </g>
   </g>
   <g id="xtick_6">
    <g id="line2d_7">
     <path d="M 263.106943 258.844164 
L 267.863777 259.010178 
" style="fill: none; stroke: #000000; stroke-width: 0.8; stroke-linecap: square"/>
    </g>
    <g id="text_7">
     <!-- $\mathdefault{5}$ -->
     <g transform="translate(274.916976 277.916819)scale(0.1 -0.1)">
      <defs>
       <path id="CMR17-35" d="M 730 3692 
C 794 3666 1056 3584 1325 3584 
C 1920 3584 2246 3911 2432 4100 
C 2432 4157 2432 4192 2394 4192 
C 2387 4192 2374 4192 2323 4163 
C 2099 4058 1837 3973 1517 3973 
C 1325 3973 1037 3999 723 4139 
C 653 4171 640 4171 634 4171 
C 602 4171 595 4164 595 4037 
L 595 2203 
C 595 2089 595 2057 659 2057 
C 691 2057 704 2070 736 2114 
C 941 2401 1222 2522 1542 2522 
C 1766 2522 2246 2382 2246 1289 
C 2246 1085 2246 715 2054 421 
C 1894 159 1645 25 1370 25 
C 947 25 518 320 403 814 
C 429 807 480 795 506 795 
C 589 795 749 840 749 1038 
C 749 1210 627 1280 506 1280 
C 358 1280 262 1190 262 1011 
C 262 454 704 -128 1382 -128 
C 2042 -128 2669 440 2669 1264 
C 2669 2030 2170 2624 1549 2624 
C 1222 2624 947 2503 730 2274 
L 730 3692 
z
" transform="scale(0.015625)"/>
      </defs>
      <use xlink:href="#CMR17-35" transform="scale(0.996264)"/>
     </g>
    </g>
   </g>
  </g>
  <g id="axis3d_2">
   <g id="line2d_8">
    <path d="M 77.67754 252.640295 
L 261.901375 259.090133 
" style="fill: none; stroke: #000000; stroke-width: 0.8; stroke-linecap: square"/>
   </g>
   <g id="text_8">
    <!-- y -->
    <g transform="translate(142.509089 285.66554)scale(0.16 -0.16)">
     <defs>
      <path id="CMSS17-79" d="M 2675 2752 
L 2176 2752 
C 1632 1294 1446 702 1434 383 
L 1427 383 
C 1408 696 1126 1460 902 2007 
L 602 2752 
L 83 2752 
L 1216 13 
C 1146 -178 1043 -465 1011 -529 
C 870 -885 774 -885 672 -885 
C 646 -885 442 -885 211 -809 
L 250 -1229 
C 410 -1261 570 -1280 685 -1280 
C 845 -1280 1165 -1280 1459 -497 
L 2675 2752 
z
" transform="scale(0.015625)"/>
     </defs>
     <use xlink:href="#CMSS17-79" transform="scale(0.996264)"/>
    </g>
   </g>
   <g id="Line3DCollection_2">
    <path d="M 231.601031 90.552362 
L 231.601031 245.707097 
L 97.696865 253.34119 
" style="fill: none; stroke: #b0b0b0; stroke-width: 0.8"/>
    <path d="M 264.097641 89.570573 
L 264.097641 246.688887 
L 131.572126 254.527192 
" style="fill: none; stroke: #b0b0b0; stroke-width: 0.8"/>
    <path d="M 297.427323 88.563614 
L 297.427323 247.695845 
L 166.403672 255.746675 
" style="fill: none; stroke: #b0b0b0; stroke-width: 0.8"/>
    <path d="M 331.622528 87.530506 
L 331.622528 248.728953 
L 202.232577 257.001076 
" style="fill: none; stroke: #b0b0b0; stroke-width: 0.8"/>
    <path d="M 366.717414 86.470217 
L 366.717414 249.789242 
L 239.102299 258.291918 
" style="fill: none; stroke: #b0b0b0; stroke-width: 0.8"/>
   </g>
   <g id="xtick_7">
    <g id="line2d_9">
     <path d="M 98.872589 253.27416 
L 95.339855 253.475566 
" style="fill: none; stroke: #000000; stroke-width: 0.8; stroke-linecap: square"/>
    </g>
    <g id="text_9">
     <!-- $\mathdefault{−4}$ -->
     <g transform="translate(81.875521 271.755826)scale(0.1 -0.1)">
      <defs>
       <path id="CMSY10-0" d="M 4218 1472 
C 4326 1472 4442 1472 4442 1600 
C 4442 1728 4326 1728 4218 1728 
L 755 1728 
C 646 1728 531 1728 531 1600 
C 531 1472 646 1472 755 1472 
L 4218 1472 
z
" transform="scale(0.015625)"/>
      </defs>
      <use xlink:href="#CMSY10-0" transform="scale(0.996264)"/>
      <use xlink:href="#CMR17-34" transform="translate(77.487468 0)scale(0.996264)"/>
     </g>
    </g>
   </g>
   <g id="xtick_8">
    <g id="line2d_10">
     <path d="M 132.737183 254.458284 
L 129.236424 254.665339 
" style="fill: none; stroke: #000000; stroke-width: 0.8; stroke-linecap: square"/>
    </g>
    <g id="text_10">
     <!-- $\mathdefault{−2}$ -->
     <g transform="translate(115.835647 273.110471)scale(0.1 -0.1)">
      <use xlink:href="#CMSY10-0" transform="scale(0.996264)"/>
      <use xlink:href="#CMR17-32" transform="translate(77.487468 0)scale(0.996264)"/>
     </g>
    </g>
   </g>
   <g id="xtick_9">
    <g id="line2d_11">
     <path d="M 167.556988 255.675809 
L 164.09143 255.888752 
" style="fill: none; stroke: #000000; stroke-width: 0.8; stroke-linecap: square"/>
    </g>
    <g id="text_11">
     <!-- $\mathdefault{0}$ -->
     <g transform="translate(154.635064 274.503606)scale(0.1 -0.1)">
      <use xlink:href="#CMR17-30" transform="scale(0.996264)"/>
     </g>
    </g>
   </g>
   <g id="xtick_10">
    <g id="line2d_12">
     <path d="M 203.372998 256.928167 
L 199.946109 257.147254 
" style="fill: none; stroke: #000000; stroke-width: 0.8; stroke-linecap: square"/>
    </g>
    <g id="text_12">
     <!-- $\mathdefault{2}$ -->
     <g transform="translate(190.566745 275.936895)scale(0.1 -0.1)">
      <use xlink:href="#CMR17-32" transform="scale(0.996264)"/>
     </g>
    </g>
   </g>
   <g id="xtick_11">
    <g id="line2d_13">
     <path d="M 240.228584 258.216876 
L 236.844091 258.442376 
" style="fill: none; stroke: #000000; stroke-width: 0.8; stroke-linecap: square"/>
    </g>
    <g id="text_13">
     <!-- $\mathdefault{4}$ -->
     <g transform="translate(227.549219 277.412099)scale(0.1 -0.1)">
      <use xlink:href="#CMR17-34" transform="scale(0.996264)"/>
     </g>
    </g>
   </g>
  </g>
  <g id="axis3d_3">
   <g id="line2d_14">
    <path d="M 77.67754 252.640295 
L 77.67754 83.619164 
" style="fill: none; stroke: #000000; stroke-width: 0.8; stroke-linecap: square"/>
   </g>
   <g id="text_14">
    <!-- z -->
    <g transform="translate(29.823675 172.114786)scale(0.16 -0.16)">
     <defs>
      <path id="CMSS17-7a" d="M 2400 2502 
L 2400 2750 
L 250 2750 
L 250 2368 
L 1069 2368 
C 1146 2368 1222 2368 1299 2368 
L 1747 2368 
L 166 261 
L 166 0 
L 2419 0 
L 2419 395 
L 1549 395 
C 1472 395 1395 395 1318 395 
L 826 395 
L 2400 2502 
z
" transform="scale(0.015625)"/>
     </defs>
     <use xlink:href="#CMSS17-7a" transform="scale(0.996264)"/>
    </g>
   </g>
   <g id="Line3DCollection_3">
    <path d="M 77.67754 249.259873 
L 212.358323 242.045895 
L 388.371609 247.150911 
" style="fill: none; stroke: #b0b0b0; stroke-width: 0.8"/>
    <path d="M 77.67754 216.807816 
L 212.358323 212.479429 
L 388.371609 215.542439 
" style="fill: none; stroke: #b0b0b0; stroke-width: 0.8"/>
    <path d="M 77.67754 184.355758 
L 212.358323 182.912963 
L 388.371609 183.933966 
" style="fill: none; stroke: #b0b0b0; stroke-width: 0.8"/>
    <path d="M 77.67754 151.903701 
L 212.358323 153.346497 
L 388.371609 152.325493 
" style="fill: none; stroke: #b0b0b0; stroke-width: 0.8"/>
    <path d="M 77.67754 119.451644 
L 212.358323 123.780031 
L 388.371609 120.717021 
" style="fill: none; stroke: #b0b0b0; stroke-width: 0.8"/>
    <path d="M 77.67754 86.999587 
L 212.358323 94.213565 
L 388.371609 89.108548 
" style="fill: none; stroke: #b0b0b0; stroke-width: 0.8"/>
   </g>
   <g id="xtick_12">
    <g id="line2d_15">
     <path d="M 78.859218 249.196578 
L 75.308637 249.38676 
" style="fill: none; stroke: #000000; stroke-width: 0.8; stroke-linecap: square"/>
    </g>
    <g id="text_15">
     <!-- $\mathdefault{0}$ -->
     <g transform="translate(54.772399 256.316943)scale(0.1 -0.1)">
      <use xlink:href="#CMR17-30" transform="scale(0.996264)"/>
     </g>
    </g>
   </g>
   <g id="xtick_13">
    <g id="line2d_16">
     <path d="M 78.859218 216.769839 
L 75.308637 216.883948 
" style="fill: none; stroke: #000000; stroke-width: 0.8; stroke-linecap: square"/>
    </g>
    <g id="text_16">
     <!-- $\mathdefault{1}$ -->
     <g transform="translate(54.772399 223.809457)scale(0.1 -0.1)">
      <use xlink:href="#CMR17-31" transform="scale(0.996264)"/>
     </g>
    </g>
   </g>
   <g id="xtick_14">
    <g id="line2d_17">
     <path d="M 78.859218 184.343099 
L 75.308637 184.381136 
" style="fill: none; stroke: #000000; stroke-width: 0.8; stroke-linecap: square"/>
    </g>
    <g id="text_17">
     <!-- $\mathdefault{2}$ -->
     <g transform="translate(54.772399 191.301971)scale(0.1 -0.1)">
      <use xlink:href="#CMR17-32" transform="scale(0.996264)"/>
     </g>
    </g>
   </g>
   <g id="xtick_15">
    <g id="line2d_18">
     <path d="M 78.859218 151.91636 
L 75.308637 151.878324 
" style="fill: none; stroke: #000000; stroke-width: 0.8; stroke-linecap: square"/>
    </g>
    <g id="text_18">
     <!-- $\mathdefault{3}$ -->
     <g transform="translate(54.772399 158.794485)scale(0.1 -0.1)">
      <use xlink:href="#CMR17-33" transform="scale(0.996264)"/>
     </g>
    </g>
   </g>
   <g id="xtick_16">
    <g id="line2d_19">
     <path d="M 78.859218 119.489621 
L 75.308637 119.375512 
" style="fill: none; stroke: #000000; stroke-width: 0.8; stroke-linecap: square"/>
    </g>
    <g id="text_19">
     <!-- $\mathdefault{4}$ -->
     <g transform="translate(54.772399 126.286999)scale(0.1 -0.1)">
      <use xlink:href="#CMR17-34" transform="scale(0.996264)"/>
     </g>
    </g>
   </g>
   <g id="xtick_17">
    <g id="line2d_20">
     <path d="M 78.859218 87.062882 
L 75.308637 86.8727 
" style="fill: none; stroke: #000000; stroke-width: 0.8; stroke-linecap: square"/>
    </g>
    <g id="text_20">
     <!-- $\mathdefault{5}$ -->
     <g transform="translate(54.772399 93.779514)scale(0.1 -0.1)">
      <use xlink:href="#CMR17-35" transform="scale(0.996264)"/>
     </g>
    </g>
   </g>
  </g>
  <g id="axes_1">
   <g id="line2d_21">
    <path d="M 295.043255 244.653832 
L 323.861159 88.670658 
" clip-path="url(#p98a568c1b9)" style="fill: none; stroke: #ff0000; stroke-width: 1.5; stroke-linecap: square"/>
   </g>
   <g id="line2d_22">
    <path d="M 295.043255 244.653832 
L 213.562477 121.158029 
" clip-path="url(#p98a568c1b9)" style="fill: none; stroke: #00ff00; stroke-width: 1.5; stroke-linecap: square"/>
   </g>
   <g id="line2d_23">
    <path d="M 295.043255 244.653832 
L 247.992604 -1 
" clip-path="url(#p98a568c1b9)" style="fill: none; stroke: #0016ff; stroke-width: 1.5; stroke-linecap: square"/>
   </g>
   <g id="line2d_24">
    <path d="M 295.043255 244.653832 
L 117.440265 151.688642 
" clip-path="url(#p98a568c1b9)" style="fill: none; stroke: #f400ff; stroke-width: 1.5; stroke-linecap: square"/>
   </g>
   <g id="Poly3DCollection_1">
    <path d="M 213.199649 353.489277 
L 201.288892 313.958835 
L 209.274849 303.164866 
L 221.154177 342.911363 
z
" clip-path="url(#p98a568c1b9)" style="fill: #0000f5; fill-opacity: 0.1"/>
    <path d="M 221.154177 342.911363 
L 209.274849 303.164866 
L 217.311233 292.30274 
L 229.158501 332.267231 
z
" clip-path="url(#p98a568c1b9)" style="fill: #0000f5; fill-opacity: 0.1"/>
    <path d="M 229.158501 332.267231 
L 217.311233 292.30274 
L 225.398522 281.371809 
L 237.213088 321.556259 
z
" clip-path="url(#p98a568c1b9)" style="fill: #0000f5; fill-opacity: 0.1"/>
    <path d="M 201.288892 313.958835 
L 189.170609 273.739641 
L 197.187886 262.723654 
L 209.274849 303.164866 
z
" clip-path="url(#p98a568c1b9)" style="fill: #0000f5; fill-opacity: 0.1"/>
    <path d="M 237.213088 321.556259 
L 225.398522 281.371809 
L 233.537201 270.371419 
L 245.318415 310.777814 
z
" clip-path="url(#p98a568c1b9)" style="fill: #0000f5; fill-opacity: 0.1"/>
    <path d="M 209.274849 303.164866 
L 197.187886 262.723654 
L 205.256231 251.637499 
L 217.311233 292.30274 
z
" clip-path="url(#p98a568c1b9)" style="fill: #0000f5; fill-opacity: 0.1"/>
    <path d="M 245.318415 310.777814 
L 233.537201 270.371419 
L 241.727762 259.300904 
L 253.474961 299.931257 
z
" clip-path="url(#p98a568c1b9)" style="fill: #0000f5; fill-opacity: 0.1"/>
    <path d="M 217.311233 292.30274 
L 205.256231 251.637499 
L 213.376133 240.480503 
L 225.398522 281.371809 
z
" clip-path="url(#p98a568c1b9)" style="fill: #0000f5; fill-opacity: 0.1"/>
    <path d="M 253.474961 299.931257 
L 241.727762 259.300904 
L 249.970703 248.159591 
L 261.683214 289.01594 
z
" clip-path="url(#p98a568c1b9)" style="fill: #0000f5; fill-opacity: 0.1"/>
    <path d="M 189.170609 273.739641 
L 176.839331 232.813536 
L 184.887797 221.569353 
L 197.187886 262.723654 
z
" clip-path="url(#p98a568c1b9)" style="fill: #0000f5; fill-opacity: 0.1"/>
    <path d="M 225.398522 281.371809 
L 213.376133 240.480503 
L 221.548088 229.251984 
L 233.537201 270.371419 
z
" clip-path="url(#p98a568c1b9)" style="fill: #0000f5; fill-opacity: 0.1"/>
    <path d="M 261.683214 289.01594 
L 249.970703 248.159591 
L 258.266527 236.9468 
L 269.943667 278.031208 
z
" clip-path="url(#p98a568c1b9)" style="fill: #0000f5; fill-opacity: 0.1"/>
    <path d="M 197.187886 262.723654 
L 184.887797 221.569353 
L 192.987984 210.252915 
L 205.256231 251.637499 
z
" clip-path="url(#p98a568c1b9)" style="fill: #0000f5; fill-opacity: 0.1"/>
    <path d="M 233.537201 270.371419 
L 221.548088 229.251984 
L 229.772597 217.951253 
L 241.727762 259.300904 
z
" clip-path="url(#p98a568c1b9)" style="fill: #0000f5; fill-opacity: 0.1"/>
    <path d="M 269.943667 278.031208 
L 258.266527 236.9468 
L 266.615746 225.661841 
L 278.25682 266.976396 
z
" clip-path="url(#p98a568c1b9)" style="fill: #0000f5; fill-opacity: 0.1"/>
    <path d="M 205.256231 251.637499 
L 192.987984 210.252915 
L 201.14039 198.863522 
L 213.376133 240.480503 
z
" clip-path="url(#p98a568c1b9)" style="fill: #0000f5; fill-opacity: 0.1"/>
    <path d="M 241.727762 259.300904 
L 229.772597 217.951253 
L 238.050171 206.57761 
L 249.970703 248.159591 
z
" clip-path="url(#p98a568c1b9)" style="fill: #0000f5; fill-opacity: 0.1"/>
    <path d="M 278.25682 266.976396 
L 266.615746 225.661841 
L 275.018876 214.304014 
L 286.623179 255.850831 
z
" clip-path="url(#p98a568c1b9)" style="fill: #0000f5; fill-opacity: 0.1"/>
    <path d="M 176.839331 232.813536 
L 164.289391 191.161719 
L 172.368895 179.682935 
L 184.887797 221.569353 
z
" clip-path="url(#p98a568c1b9)" style="fill: #0000f5; fill-opacity: 0.1"/>
    <path d="M 213.376133 240.480503 
L 201.14039 198.863522 
L 209.345522 187.400467 
L 221.548088 229.251984 
z
" clip-path="url(#p98a568c1b9)" style="fill: #0000f5; fill-opacity: 0.1"/>
    <path d="M 249.970703 248.159591 
L 238.050171 206.57761 
L 246.381324 195.130349 
L 258.266527 236.9468 
z
" clip-path="url(#p98a568c1b9)" style="fill: #0000f5; fill-opacity: 0.1"/>
    <path d="M 286.623179 255.850831 
L 275.018876 214.304014 
L 283.476441 202.872611 
L 295.043255 244.653832 
z
" clip-path="url(#p98a568c1b9)" style="fill: #0000f5; fill-opacity: 0.1"/>
    <path d="M 184.887797 221.569353 
L 172.368895 179.682935 
L 180.500782 168.12973 
L 192.987984 210.252915 
z
" clip-path="url(#p98a568c1b9)" style="fill: #0000f5; fill-opacity: 0.1"/>
    <path d="M 221.548088 229.251984 
L 209.345522 187.400467 
L 217.603895 175.863032 
L 229.772597 217.951253 
z
" clip-path="url(#p98a568c1b9)" style="fill: #0000f5; fill-opacity: 0.1"/>
    <path d="M 258.266527 236.9468 
L 246.381324 195.130349 
L 254.766577 183.608751 
L 266.615746 225.661841 
z
" clip-path="url(#p98a568c1b9)" style="fill: #0000f5; fill-opacity: 0.1"/>
    <path d="M 295.043255 244.653832 
L 283.476441 202.872611 
L 291.988972 191.366915 
L 303.517569 233.384708 
z
" clip-path="url(#p98a568c1b9)" style="fill: #0000f5; fill-opacity: 0.1"/>
    <path d="M 192.987984 210.252915 
L 180.500782 168.12973 
L 188.685562 156.501377 
L 201.14039 198.863522 
z
" clip-path="url(#p98a568c1b9)" style="fill: #0000f5; fill-opacity: 0.1"/>
    <path d="M 229.772597 217.951253 
L 217.603895 175.863032 
L 225.916027 164.250493 
L 238.050171 206.57761 
z
" clip-path="url(#p98a568c1b9)" style="fill: #0000f5; fill-opacity: 0.1"/>
    <path d="M 266.615746 225.661841 
L 254.766577 183.608751 
L 263.20646 172.012091 
L 275.018876 214.304014 
z
" clip-path="url(#p98a568c1b9)" style="fill: #0000f5; fill-opacity: 0.1"/>
    <path d="M 303.517569 233.384708 
L 291.988972 191.366915 
L 300.557006 179.7862 
L 312.046645 222.042762 
z
" clip-path="url(#p98a568c1b9)" style="fill: #0000f5; fill-opacity: 0.1"/>
    <path d="M 164.289391 191.161719 
L 151.514921 148.764713 
L 159.625288 137.044688 
L 172.368895 179.682935 
z
" clip-path="url(#p98a568c1b9)" style="fill: #0000f5; fill-opacity: 0.1"/>
    <path d="M 201.14039 198.863522 
L 188.685562 156.501377 
L 196.923754 144.797141 
L 209.345522 187.400467 
z
" clip-path="url(#p98a568c1b9)" style="fill: #0000f5; fill-opacity: 0.1"/>
    <path d="M 238.050171 206.57761 
L 225.916027 164.250493 
L 234.282445 152.562112 
L 246.381324 195.130349 
z
" clip-path="url(#p98a568c1b9)" style="fill: #0000f5; fill-opacity: 0.1"/>
    <path d="M 275.018876 214.304014 
L 263.20646 172.012091 
L 271.701508 160.339632 
L 283.476441 202.872611 
z
" clip-path="url(#p98a568c1b9)" style="fill: #0000f5; fill-opacity: 0.1"/>
    <path d="M 312.046645 222.042762 
L 300.557006 179.7862 
L 309.181089 168.12973 
L 320.631017 210.627283 
z
" clip-path="url(#p98a568c1b9)" style="fill: #0000f5; fill-opacity: 0.1"/>
    <path d="M 172.368895 179.682935 
L 159.625288 137.044688 
L 167.788711 125.247993 
L 180.500782 168.12973 
z
" clip-path="url(#p98a568c1b9)" style="fill: #0000f5; fill-opacity: 0.1"/>
    <path d="M 209.345522 187.400467 
L 196.923754 144.797141 
L 205.215882 133.016277 
L 217.603895 175.863032 
z
" clip-path="url(#p98a568c1b9)" style="fill: #0000f5; fill-opacity: 0.1"/>
    <path d="M 246.381324 195.130349 
L 234.282445 152.562112 
L 242.703683 140.797145 
L 254.766577 183.608751 
z
" clip-path="url(#p98a568c1b9)" style="fill: #0000f5; fill-opacity: 0.1"/>
    <path d="M 283.476441 202.872611 
L 271.701508 160.339632 
L 280.252264 148.590628 
L 291.988972 191.366915 
z
" clip-path="url(#p98a568c1b9)" style="fill: #0000f5; fill-opacity: 0.1"/>
    <path d="M 320.631017 210.627283 
L 309.181089 168.12973 
L 317.861771 156.396758 
L 329.271224 199.137556 
z
" clip-path="url(#p98a568c1b9)" style="fill: #0000f5; fill-opacity: 0.1"/>
    <path d="M 180.500782 168.12973 
L 167.788711 125.247993 
L 176.005713 113.373874 
L 188.685562 156.501377 
z
" clip-path="url(#p98a568c1b9)" style="fill: #0000f5; fill-opacity: 0.1"/>
    <path d="M 217.603895 175.863032 
L 205.215882 133.016277 
L 213.562477 121.158029 
L 225.916027 164.250493 
z
" clip-path="url(#p98a568c1b9)" style="fill: #0000f5; fill-opacity: 0.1"/>
    <path d="M 254.766577 183.608751 
L 242.703683 140.797145 
L 251.180282 128.954836 
L 263.20646 172.012091 
z
" clip-path="url(#p98a568c1b9)" style="fill: #0000f5; fill-opacity: 0.1"/>
    <path d="M 291.988972 191.366915 
L 280.252264 148.590628 
L 288.859277 136.764326 
L 300.557006 179.7862 
z
" clip-path="url(#p98a568c1b9)" style="fill: #0000f5; fill-opacity: 0.1"/>
    <path d="M 151.514921 148.764713 
L 138.509842 105.602339 
L 146.650872 93.634186 
L 159.625288 137.044688 
z
" clip-path="url(#p98a568c1b9)" style="fill: #0000f5; fill-opacity: 0.1"/>
    <path d="M 329.271224 199.137556 
L 317.861771 156.396758 
L 326.599612 144.586529 
L 337.967812 187.572852 
z
" clip-path="url(#p98a568c1b9)" style="fill: #0000f5; fill-opacity: 0.1"/>
    <path d="M 188.685562 156.501377 
L 176.005713 113.373874 
L 184.276822 101.421565 
L 196.923754 144.797141 
z
" clip-path="url(#p98a568c1b9)" style="fill: #0000f5; fill-opacity: 0.1"/>
    <path d="M 225.916027 164.250493 
L 213.562477 121.158029 
L 221.964078 109.221633 
L 234.282445 152.562112 
z
" clip-path="url(#p98a568c1b9)" style="fill: #0000f5; fill-opacity: 0.1"/>
    <path d="M 263.20646 172.012091 
L 251.180282 128.954836 
L 259.712789 117.03442 
L 271.701508 160.339632 
z
" clip-path="url(#p98a568c1b9)" style="fill: #0000f5; fill-opacity: 0.1"/>
    <path d="M 300.557006 179.7862 
L 288.859277 136.764326 
L 297.523105 124.859958 
L 309.181089 168.12973 
z
" clip-path="url(#p98a568c1b9)" style="fill: #0000f5; fill-opacity: 0.1"/>
    <path d="M 159.625288 137.044688 
L 146.650872 93.634186 
L 154.845643 81.587028 
L 167.788711 125.247993 
z
" clip-path="url(#p98a568c1b9)" style="fill: #0000f5; fill-opacity: 0.1"/>
    <path d="M 337.967812 187.572852 
L 326.599612 144.586529 
L 335.395179 132.698277 
L 346.721335 175.932437 
z
" clip-path="url(#p98a568c1b9)" style="fill: #0000f5; fill-opacity: 0.1"/>
    <path d="M 196.923754 144.797141 
L 184.276822 101.421565 
L 192.602575 89.390293 
L 205.215882 133.016277 
z
" clip-path="url(#p98a568c1b9)" style="fill: #0000f5; fill-opacity: 0.1"/>
    <path d="M 234.282445 152.562112 
L 221.964078 109.221633 
L 230.42123 97.206314 
L 242.703683 140.797145 
z
" clip-path="url(#p98a568c1b9)" style="fill: #0000f5; fill-opacity: 0.1"/>
    <path d="M 271.701508 160.339632 
L 259.712789 117.03442 
L 268.301758 105.035122 
L 280.252264 148.590628 
z
" clip-path="url(#p98a568c1b9)" style="fill: #0000f5; fill-opacity: 0.1"/>
    <path d="M 309.181089 168.12973 
L 297.523105 124.859958 
L 306.244312 112.87675 
L 317.861771 156.396758 
z
" clip-path="url(#p98a568c1b9)" style="fill: #0000f5; fill-opacity: 0.1"/>
    <path d="M 167.788711 125.247993 
L 154.845643 81.587028 
L 163.094688 69.460081 
L 176.005713 113.373874 
z
" clip-path="url(#p98a568c1b9)" style="fill: #0000f5; fill-opacity: 0.1"/>
    <path d="M 346.721335 175.932437 
L 335.395179 132.698277 
L 344.249045 120.731227 
L 355.532354 164.215563 
z
" clip-path="url(#p98a568c1b9)" style="fill: #0000f5; fill-opacity: 0.1"/>
    <path d="M 205.215882 133.016277 
L 192.602575 89.390293 
L 200.983516 77.279271 
L 213.562477 121.158029 
z
" clip-path="url(#p98a568c1b9)" style="fill: #0000f5; fill-opacity: 0.1"/>
    <path d="M 242.703683 140.797145 
L 230.42123 97.206314 
L 238.934486 85.111286 
L 251.180282 128.954836 
z
" clip-path="url(#p98a568c1b9)" style="fill: #0000f5; fill-opacity: 0.1"/>
    <path d="M 280.252264 148.590628 
L 268.301758 105.035122 
L 276.947753 92.956156 
L 288.859277 136.764326 
z
" clip-path="url(#p98a568c1b9)" style="fill: #0000f5; fill-opacity: 0.1"/>
    <path d="M 138.509842 105.602339 
L 125.267851 61.653685 
L 133.439318 49.430258 
L 146.650872 93.634186 
z
" clip-path="url(#p98a568c1b9)" style="fill: #0000f5; fill-opacity: 0.1"/>
    <path d="M 317.861771 156.396758 
L 306.244312 112.87675 
L 315.02347 100.813915 
L 326.599612 144.586529 
z
" clip-path="url(#p98a568c1b9)" style="fill: #0000f5; fill-opacity: 0.1"/>
    <path d="M 176.005713 113.373874 
L 163.094688 69.460081 
L 171.398549 57.25255 
L 184.276822 101.421565 
z
" clip-path="url(#p98a568c1b9)" style="fill: #0000f5; fill-opacity: 0.1"/>
    <path d="M 355.532354 164.215563 
L 344.249045 120.731227 
L 353.161791 108.684593 
L 364.401437 152.421476 
z
" clip-path="url(#p98a568c1b9)" style="fill: #0000f5; fill-opacity: 0.1"/>
    <path d="M 213.562477 121.158029 
L 200.983516 77.279271 
L 209.420194 65.087705 
L 221.964078 109.221633 
z
" clip-path="url(#p98a568c1b9)" style="fill: #0000f5; fill-opacity: 0.1"/>
    <path d="M 251.180282 128.954836 
L 238.934486 85.111286 
L 247.504407 72.935753 
L 259.712789 117.03442 
z
" clip-path="url(#p98a568c1b9)" style="fill: #0000f5; fill-opacity: 0.1"/>
    <path d="M 288.859277 136.764326 
L 276.947753 92.956156 
L 285.651344 80.796727 
L 297.523105 124.859958 
z
" clip-path="url(#p98a568c1b9)" style="fill: #0000f5; fill-opacity: 0.1"/>
    <path d="M 146.650872 93.634186 
L 133.439318 49.430258 
L 141.665222 37.125401 
L 154.845643 81.587028 
z
" clip-path="url(#p98a568c1b9)" style="fill: #0000f5; fill-opacity: 0.1"/>
    <path d="M 326.599612 144.586529 
L 315.02347 100.813915 
L 323.861159 88.670658 
L 335.395179 132.698277 
z
" clip-path="url(#p98a568c1b9)" style="fill: #0000f5; fill-opacity: 0.1"/>
    <path d="M 184.276822 101.421565 
L 171.398549 57.25255 
L 179.757773 44.963629 
L 192.602575 89.390293 
z
" clip-path="url(#p98a568c1b9)" style="fill: #0000f5; fill-opacity: 0.1"/>
    <path d="M 364.401437 152.421476 
L 353.161791 108.684593 
L 362.134007 96.557578 
L 373.32916 140.549409 
z
" clip-path="url(#p98a568c1b9)" style="fill: #0000f5; fill-opacity: 0.1"/>
    <path d="M 221.964078 109.221633 
L 209.420194 65.087705 
L 217.913167 52.814788 
L 230.42123 97.206314 
z
" clip-path="url(#p98a568c1b9)" style="fill: #0000f5; fill-opacity: 0.1"/>
    <path d="M 259.712789 117.03442 
L 247.504407 72.935753 
L 256.13156 60.678909 
L 268.301758 105.035122 
z
" clip-path="url(#p98a568c1b9)" style="fill: #0000f5; fill-opacity: 0.1"/>
    <path d="M 297.523105 124.859958 
L 285.651344 80.796727 
L 294.413107 68.556026 
L 306.244312 112.87675 
z
" clip-path="url(#p98a568c1b9)" style="fill: #0000f5; fill-opacity: 0.1"/>
    <path d="M 154.845643 81.587028 
L 141.665222 37.125401 
L 149.946107 24.738299 
L 163.094688 69.460081 
z
" clip-path="url(#p98a568c1b9)" style="fill: #0000f5; fill-opacity: 0.1"/>
    <path d="M 335.395179 132.698277 
L 323.861159 88.670658 
L 332.757965 76.446171 
L 344.249045 120.731227 
z
" clip-path="url(#p98a568c1b9)" style="fill: #0000f5; fill-opacity: 0.1"/>
    <path d="M 192.602575 89.390293 
L 179.757773 44.963629 
L 188.172917 32.5925 
L 200.983516 77.279271 
z
" clip-path="url(#p98a568c1b9)" style="fill: #0000f5; fill-opacity: 0.1"/>
    <path d="M 230.42123 97.206314 
L 217.913167 52.814788 
L 226.463002 40.459702 
L 238.934486 85.111286 
z
" clip-path="url(#p98a568c1b9)" style="fill: #0000f5; fill-opacity: 0.1"/>
    <path d="M 268.301758 105.035122 
L 256.13156 60.678909 
L 264.816519 48.339937 
L 276.947753 92.956156 
z
" clip-path="url(#p98a568c1b9)" style="fill: #0000f5; fill-opacity: 0.1"/>
    <path d="M 125.267851 61.653685 
L 111.782416 16.897066 
L 119.984066 4.41095 
L 133.439318 49.430258 
z
" clip-path="url(#p98a568c1b9)" style="fill: #0000f5; fill-opacity: 0.1"/>
    <path d="M 306.244312 112.87675 
L 294.413107 68.556026 
L 303.233627 56.233238 
L 315.02347 100.813915 
z
" clip-path="url(#p98a568c1b9)" style="fill: #0000f5; fill-opacity: 0.1"/>
    <path d="M 163.094688 69.460081 
L 149.946107 24.738299 
L 158.282527 12.268124 
L 171.398549 57.25255 
z
" clip-path="url(#p98a568c1b9)" style="fill: #0000f5; fill-opacity: 0.1"/>
    <path d="M 344.249045 120.731227 
L 332.757965 76.446171 
L 341.714484 64.139636 
L 353.161791 108.684593 
z
" clip-path="url(#p98a568c1b9)" style="fill: #0000f5; fill-opacity: 0.1"/>
    <path d="M 200.983516 77.279271 
L 188.172917 32.5925 
L 196.644543 20.138337 
L 209.420194 65.087705 
z
" clip-path="url(#p98a568c1b9)" style="fill: #0000f5; fill-opacity: 0.1"/>
    <path d="M 238.934486 85.111286 
L 226.463002 40.459702 
L 235.07027 28.021621 
L 247.504407 72.935753 
z
" clip-path="url(#p98a568c1b9)" style="fill: #0000f5; fill-opacity: 0.1"/>
    <path d="M 276.947753 92.956156 
L 264.816519 48.339937 
L 273.559869 35.918009 
L 285.651344 80.796727 
z
" clip-path="url(#p98a568c1b9)" style="fill: #0000f5; fill-opacity: 0.1"/>
    <path d="M 133.439318 49.430258 
L 119.984066 4.41095 
L 128.240859 -8.159116 
L 141.665222 37.125401 
z
" clip-path="url(#p98a568c1b9)" style="fill: #0000f5; fill-opacity: 0.1"/>
    <path d="M 315.02347 100.813915 
L 303.233627 56.233238 
L 312.113499 43.827533 
L 323.861159 88.670658 
z
" clip-path="url(#p98a568c1b9)" style="fill: #0000f5; fill-opacity: 0.1"/>
    <path d="M 171.398549 57.25255 
L 158.282527 12.268124 
L 166.675043 -0.285962 
L 179.757773 44.963629 
z
" clip-path="url(#p98a568c1b9)" style="fill: #0000f5; fill-opacity: 0.1"/>
    <path d="M 353.161791 108.684593 
L 341.714484 64.139636 
L 350.731319 51.750226 
L 362.134007 96.557578 
z
" clip-path="url(#p98a568c1b9)" style="fill: #0000f5; fill-opacity: 0.1"/>
    <path d="M 209.420194 65.087705 
L 196.644543 20.138337 
L 205.173221 7.600301 
L 217.913167 52.814788 
z
" clip-path="url(#p98a568c1b9)" style="fill: #0000f5; fill-opacity: 0.1"/>
    <path d="M 247.504407 72.935753 
L 235.07027 28.021621 
L 243.735553 15.499705 
L 256.13156 60.678909 
z
" clip-path="url(#p98a568c1b9)" style="fill: #0000f5; fill-opacity: 0.1"/>
    <path d="M 285.651344 80.796727 
L 273.559869 35.918009 
L 282.3622 23.412285 
L 294.413107 68.556026 
z
" clip-path="url(#p98a568c1b9)" style="fill: #0000f5; fill-opacity: 0.1"/>
    <path d="M 141.665222 37.125401 
L 128.240859 -8.159116 
L 136.553353 -20.81398 
L 149.946107 24.738299 
z
" clip-path="url(#p98a568c1b9)" style="fill: #0000f5; fill-opacity: 0.1"/>
    <path d="M 323.861159 88.670658 
L 312.113499 43.827533 
L 321.053322 31.338072 
L 332.757965 76.446171 
z
" clip-path="url(#p98a568c1b9)" style="fill: #0000f5; fill-opacity: 0.1"/>
    <path d="M 179.757773 44.963629 
L 166.675043 -0.285962 
L 175.124223 -12.92481 
L 188.172917 32.5925 
z
" clip-path="url(#p98a568c1b9)" style="fill: #0000f5; fill-opacity: 0.1"/>
    <path d="M 217.913167 52.814788 
L 205.173221 7.600301 
L 213.759531 -5.02246 
L 226.463002 40.459702 
z
" clip-path="url(#p98a568c1b9)" style="fill: #0000f5; fill-opacity: 0.1"/>
    <path d="M 256.13156 60.678909 
L 243.735553 15.499705 
L 252.45944 2.893104 
L 264.816519 48.339937 
z
" clip-path="url(#p98a568c1b9)" style="fill: #0000f5; fill-opacity: 0.1"/>
    <path d="M 111.782416 16.897066 
L 98.046761 -28.690003 
L 106.27831 -41.446509 
L 119.984066 4.41095 
z
" clip-path="url(#p98a568c1b9)" style="fill: #0000f5; fill-opacity: 0.1"/>
    <path d="M 294.413107 68.556026 
L 282.3622 23.412285 
L 291.22411 10.821914 
L 303.233627 56.233238 
z
" clip-path="url(#p98a568c1b9)" style="fill: #0000f5; fill-opacity: 0.1"/>
    <path d="M 149.946107 24.738299 
L 136.553353 -20.81398 
L 144.922113 -33.554504 
L 158.282527 12.268124 
z
" clip-path="url(#p98a568c1b9)" style="fill: #0000f5; fill-opacity: 0.1"/>
    <path d="M 332.757965 76.446171 
L 321.053322 31.338072 
L 330.053706 18.764003 
L 341.714484 64.139636 
z
" clip-path="url(#p98a568c1b9)" style="fill: #0000f5; fill-opacity: 0.1"/>
    <path d="M 188.172917 32.5925 
L 175.124223 -12.92481 
L 183.630642 -25.64928 
L 196.644543 20.138337 
z
" clip-path="url(#p98a568c1b9)" style="fill: #0000f5; fill-opacity: 0.1"/>
    <path d="M 226.463002 40.459702 
L 213.759531 -5.02246 
L 222.404058 -17.730805 
L 235.07027 28.021621 
z
" clip-path="url(#p98a568c1b9)" style="fill: #0000f5; fill-opacity: 0.1"/>
    <path d="M 264.816519 48.339937 
L 252.45944 2.893104 
L 261.242525 -9.799045 
L 273.559869 35.918009 
z
" clip-path="url(#p98a568c1b9)" style="fill: #0000f5; fill-opacity: 0.1"/>
    <path d="M 119.984066 4.41095 
L 106.27831 -41.446509 
L 114.56572 -54.289582 
L 128.240859 -8.159116 
z
" clip-path="url(#p98a568c1b9)" style="fill: #0000f5; fill-opacity: 0.1"/>
    <path d="M 303.233627 56.233238 
L 291.22411 10.821914 
L 300.146208 -1.853966 
L 312.113499 43.827533 
z
" clip-path="url(#p98a568c1b9)" style="fill: #0000f5; fill-opacity: 0.1"/>
    <path d="M 158.282527 12.268124 
L 144.922113 -33.554504 
L 153.347713 -46.381559 
L 166.675043 -0.285962 
z
" clip-path="url(#p98a568c1b9)" style="fill: #0000f5; fill-opacity: 0.1"/>
    <path d="M 341.714484 64.139636 
L 330.053706 18.764003 
L 339.115269 6.104464 
L 350.731319 51.750226 
z
" clip-path="url(#p98a568c1b9)" style="fill: #0000f5; fill-opacity: 0.1"/>
    <path d="M 196.644543 20.138337 
L 183.630642 -25.64928 
L 192.194884 -38.460246 
L 205.173221 7.600301 
z
" clip-path="url(#p98a568c1b9)" style="fill: #0000f5; fill-opacity: 0.1"/>
    <path d="M 235.07027 28.021621 
L 222.404058 -17.730805 
L 231.107396 -30.525609 
L 243.735553 15.499705 
z
" clip-path="url(#p98a568c1b9)" style="fill: #0000f5; fill-opacity: 0.1"/>
    <path d="M 273.559869 35.918009 
L 261.242525 -9.799045 
L 270.085415 -22.577615 
L 282.3622 23.412285 
z
" clip-path="url(#p98a568c1b9)" style="fill: #0000f5; fill-opacity: 0.1"/>
    <path d="M 128.240859 -8.159116 
L 114.56572 -54.289582 
L 122.909561 -67.220107 
L 136.553353 -20.81398 
z
" clip-path="url(#p98a568c1b9)" style="fill: #0000f5; fill-opacity: 0.1"/>
    <path d="M 312.113499 43.827533 
L 300.146208 -1.853966 
L 309.129107 -14.61623 
L 321.053322 31.338072 
z
" clip-path="url(#p98a568c1b9)" style="fill: #0000f5; fill-opacity: 0.1"/>
    <path d="M 166.675043 -0.285962 
L 153.347713 -46.381559 
L 161.830734 -59.296031 
L 175.124223 -12.92481 
z
" clip-path="url(#p98a568c1b9)" style="fill: #0000f5; fill-opacity: 0.1"/>
    <path d="M 205.173221 7.600301 
L 192.194884 -38.460246 
L 200.81754 -51.358593 
L 213.759531 -5.02246 
z
" clip-path="url(#p98a568c1b9)" style="fill: #0000f5; fill-opacity: 0.1"/>
    <path d="M 243.735553 15.499705 
L 231.107396 -30.525609 
L 239.870148 -43.407758 
L 252.45944 2.893104 
z
" clip-path="url(#p98a568c1b9)" style="fill: #0000f5; fill-opacity: 0.1"/>
    <path d="M 282.3622 23.412285 
L 270.085415 -22.577615 
L 278.988723 -35.443492 
L 291.22411 10.821914 
z
" clip-path="url(#p98a568c1b9)" style="fill: #0000f5; fill-opacity: 0.1"/>
    <path d="M 136.553353 -20.81398 
L 122.909561 -67.220107 
L 131.310412 -80.238981 
L 144.922113 -33.554504 
z
" clip-path="url(#p98a568c1b9)" style="fill: #0000f5; fill-opacity: 0.1"/>
    <path d="M 321.053322 31.338072 
L 309.129107 -14.61623 
L 318.173432 -27.465762 
L 330.053706 18.764003 
z
" clip-path="url(#p98a568c1b9)" style="fill: #0000f5; fill-opacity: 0.1"/>
    <path d="M 175.124223 -12.92481 
L 161.830734 -59.296031 
L 170.371763 -72.298817 
L 183.630642 -25.64928 
z
" clip-path="url(#p98a568c1b9)" style="fill: #0000f5; fill-opacity: 0.1"/>
    <path d="M 213.759531 -5.02246 
L 200.81754 -51.358593 
L 209.499212 -64.345217 
L 222.404058 -17.730805 
z
" clip-path="url(#p98a568c1b9)" style="fill: #0000f5; fill-opacity: 0.1"/>
    <path d="M 252.45944 2.893104 
L 239.870148 -43.407758 
L 248.692924 -56.378147 
L 261.242525 -9.799045 
z
" clip-path="url(#p98a568c1b9)" style="fill: #0000f5; fill-opacity: 0.1"/>
    <path d="M 291.22411 10.821914 
L 278.988723 -35.443492 
L 287.953068 -48.397574 
L 300.146208 -1.853966 
z
" clip-path="url(#p98a568c1b9)" style="fill: #0000f5; fill-opacity: 0.1"/>
    <path d="M 144.922113 -33.554504 
L 131.310412 -80.238981 
L 139.768858 -93.347111 
L 153.347713 -46.381559 
z
" clip-path="url(#p98a568c1b9)" style="fill: #0000f5; fill-opacity: 0.1"/>
    <path d="M 330.053706 18.764003 
L 318.173432 -27.465762 
L 327.279814 -40.403462 
L 339.115269 6.104464 
z
" clip-path="url(#p98a568c1b9)" style="fill: #0000f5; fill-opacity: 0.1"/>
    <path d="M 183.630642 -25.64928 
L 170.371763 -72.298817 
L 178.9714 -85.390824 
L 192.194884 -38.460246 
z
" clip-path="url(#p98a568c1b9)" style="fill: #0000f5; fill-opacity: 0.1"/>
    <path d="M 222.404058 -17.730805 
L 209.499212 -64.345217 
L 218.240505 -77.421028 
L 231.107396 -30.525609 
z
" clip-path="url(#p98a568c1b9)" style="fill: #0000f5; fill-opacity: 0.1"/>
    <path d="M 261.242525 -9.799045 
L 248.692924 -56.378147 
L 257.576342 -69.437688 
L 270.085415 -22.577615 
z
" clip-path="url(#p98a568c1b9)" style="fill: #0000f5; fill-opacity: 0.1"/>
    <path d="M 300.146208 -1.853966 
L 287.953068 -48.397574 
L 296.979082 -61.44077 
L 309.129107 -14.61623 
z
" clip-path="url(#p98a568c1b9)" style="fill: #0000f5; fill-opacity: 0.1"/>
    <path d="M 153.347713 -46.381559 
L 139.768858 -93.347111 
L 148.285495 -106.54542 
L 161.830734 -59.296031 
z
" clip-path="url(#p98a568c1b9)" style="fill: #0000f5; fill-opacity: 0.1"/>
    <path d="M 192.194884 -38.460246 
L 178.9714 -85.390824 
L 187.630249 -98.572976 
L 200.81754 -51.358593 
z
" clip-path="url(#p98a568c1b9)" style="fill: #0000f5; fill-opacity: 0.1"/>
    <path d="M 231.107396 -30.525609 
L 218.240505 -77.421028 
L 227.042037 -90.586948 
L 239.870148 -43.407758 
z
" clip-path="url(#p98a568c1b9)" style="fill: #0000f5; fill-opacity: 0.1"/>
    <path d="M 270.085415 -22.577615 
L 257.576342 -69.437688 
L 266.521031 -82.587302 
L 278.988723 -35.443492 
z
" clip-path="url(#p98a568c1b9)" style="fill: #0000f5; fill-opacity: 0.1"/>
    <path d="M 309.129107 -14.61623 
L 296.979082 -61.44077 
L 306.067403 -74.574004 
L 318.173432 -27.465762 
z
" clip-path="url(#p98a568c1b9)" style="fill: #0000f5; fill-opacity: 0.1"/>
    <path d="M 161.830734 -59.296031 
L 148.285495 -106.54542 
L 156.860925 -119.834841 
L 170.371763 -72.298817 
z
" clip-path="url(#p98a568c1b9)" style="fill: #0000f5; fill-opacity: 0.1"/>
    <path d="M 200.81754 -51.358593 
L 187.630249 -98.572976 
L 196.348923 -111.846205 
L 209.499212 -64.345217 
z
" clip-path="url(#p98a568c1b9)" style="fill: #0000f5; fill-opacity: 0.1"/>
    <path d="M 239.870148 -43.407758 
L 227.042037 -90.586948 
L 235.904432 -103.843912 
L 248.692924 -56.378147 
z
" clip-path="url(#p98a568c1b9)" style="fill: #0000f5; fill-opacity: 0.1"/>
    <path d="M 278.988723 -35.443492 
L 266.521031 -82.587302 
L 275.527626 -95.827925 
L 287.953068 -48.397574 
z
" clip-path="url(#p98a568c1b9)" style="fill: #0000f5; fill-opacity: 0.1"/>
    <path d="M 318.173432 -27.465762 
L 306.067403 -74.574004 
L 315.218678 -87.798211 
L 327.279814 -40.403462 
z
" clip-path="url(#p98a568c1b9)" style="fill: #0000f5; fill-opacity: 0.1"/>
    <path d="M 170.371763 -72.298817 
L 156.860925 -119.834841 
L 165.495758 -133.21632 
L 178.9714 -85.390824 
z
" clip-path="url(#p98a568c1b9)" style="fill: #0000f5; fill-opacity: 0.1"/>
    <path d="M 209.499212 -64.345217 
L 196.348923 -111.846205 
L 205.128045 -125.21146 
L 218.240505 -77.421028 
z
" clip-path="url(#p98a568c1b9)" style="fill: #0000f5; fill-opacity: 0.1"/>
    <path d="M 248.692924 -56.378147 
L 235.904432 -103.843912 
L 244.828325 -117.192867 
L 257.576342 -69.437688 
z
" clip-path="url(#p98a568c1b9)" style="fill: #0000f5; fill-opacity: 0.1"/>
    <path d="M 287.953068 -48.397574 
L 275.527626 -95.827925 
L 284.596772 -109.160505 
L 296.979082 -61.44077 
z
" clip-path="url(#p98a568c1b9)" style="fill: #0000f5; fill-opacity: 0.1"/>
    <path d="M 178.9714 -85.390824 
L 165.495758 -133.21632 
L 174.190615 -146.690817 
L 187.630249 -98.572976 
z
" clip-path="url(#p98a568c1b9)" style="fill: #0000f5; fill-opacity: 0.1"/>
    <path d="M 218.240505 -77.421028 
L 205.128045 -125.21146 
L 213.968246 -138.6697 
L 227.042037 -90.586948 
z
" clip-path="url(#p98a568c1b9)" style="fill: #0000f5; fill-opacity: 0.1"/>
    <path d="M 257.576342 -69.437688 
L 244.828325 -117.192867 
L 253.814356 -130.634774 
L 266.521031 -82.587302 
z
" clip-path="url(#p98a568c1b9)" style="fill: #0000f5; fill-opacity: 0.1"/>
    <path d="M 296.979082 -61.44077 
L 284.596772 -109.160505 
L 293.729124 -122.586003 
L 306.067403 -74.574004 
z
" clip-path="url(#p98a568c1b9)" style="fill: #0000f5; fill-opacity: 0.1"/>
    <path d="M 187.630249 -98.572976 
L 174.190615 -146.690817 
L 182.946123 -160.259306 
L 196.348923 -111.846205 
z
" clip-path="url(#p98a568c1b9)" style="fill: #0000f5; fill-opacity: 0.1"/>
    <path d="M 227.042037 -90.586948 
L 213.968246 -138.6697 
L 222.870165 -152.2219 
L 235.904432 -103.843912 
z
" clip-path="url(#p98a568c1b9)" style="fill: #0000f5; fill-opacity: 0.1"/>
    <path d="M 266.521031 -82.587302 
L 253.814356 -130.634774 
L 262.863179 -144.170607 
L 275.527626 -95.827925 
z
" clip-path="url(#p98a568c1b9)" style="fill: #0000f5; fill-opacity: 0.1"/>
    <path d="M 306.067403 -74.574004 
L 293.729124 -122.586003 
L 302.925343 -136.105394 
L 315.218678 -87.798211 
z
" clip-path="url(#p98a568c1b9)" style="fill: #0000f5; fill-opacity: 0.1"/>
    <path d="M 196.348923 -111.846205 
L 182.946123 -160.259306 
L 191.762919 -173.922774 
L 205.128045 -125.21146 
z
" clip-path="url(#p98a568c1b9)" style="fill: #0000f5; fill-opacity: 0.1"/>
    <path d="M 235.904432 -103.843912 
L 222.870165 -152.2219 
L 231.834451 -165.869046 
L 244.828325 -117.192867 
z
" clip-path="url(#p98a568c1b9)" style="fill: #0000f5; fill-opacity: 0.1"/>
    <path d="M 275.527626 -95.827925 
L 262.863179 -144.170607 
L 271.975452 -157.801355 
L 284.596772 -109.160505 
z
" clip-path="url(#p98a568c1b9)" style="fill: #0000f5; fill-opacity: 0.1"/>
    <path d="M 205.128045 -125.21146 
L 191.762919 -173.922774 
L 200.641649 -187.682221 
L 213.968246 -138.6697 
z
" clip-path="url(#p98a568c1b9)" style="fill: #0000f5; fill-opacity: 0.1"/>
    <path d="M 244.828325 -117.192867 
L 231.834451 -165.869046 
L 240.861761 -179.61214 
L 253.814356 -130.634774 
z
" clip-path="url(#p98a568c1b9)" style="fill: #0000f5; fill-opacity: 0.1"/>
    <path d="M 284.596772 -109.160505 
L 271.975452 -157.801355 
L 281.151846 -171.528019 
L 293.729124 -122.586003 
z
" clip-path="url(#p98a568c1b9)" style="fill: #0000f5; fill-opacity: 0.1"/>
    <path d="M 213.968246 -138.6697 
L 200.641649 -187.682221 
L 209.582967 -201.538663 
L 222.870165 -152.2219 
z
" clip-path="url(#p98a568c1b9)" style="fill: #0000f5; fill-opacity: 0.1"/>
    <path d="M 253.814356 -130.634774 
L 240.861761 -179.61214 
L 249.952763 -193.452198 
L 262.863179 -144.170607 
z
" clip-path="url(#p98a568c1b9)" style="fill: #0000f5; fill-opacity: 0.1"/>
    <path d="M 293.729124 -122.586003 
L 281.151846 -171.528019 
L 290.39304 -185.351615 
L 302.925343 -136.105394 
z
" clip-path="url(#p98a568c1b9)" style="fill: #0000f5; fill-opacity: 0.1"/>
    <path d="M 222.870165 -152.2219 
L 209.582967 -201.538663 
L 218.587539 -215.493128 
L 231.834451 -165.869046 
z
" clip-path="url(#p98a568c1b9)" style="fill: #0000f5; fill-opacity: 0.1"/>
    <path d="M 262.863179 -144.170607 
L 249.952763 -193.452198 
L 259.108133 -207.390249 
L 271.975452 -157.801355 
z
" clip-path="url(#p98a568c1b9)" style="fill: #0000f5; fill-opacity: 0.1"/>
    <path d="M 231.834451 -165.869046 
L 218.587539 -215.493128 
L 227.656036 -229.54666 
L 240.861761 -179.61214 
z
" clip-path="url(#p98a568c1b9)" style="fill: #0000f5; fill-opacity: 0.1"/>
    <path d="M 271.975452 -157.801355 
L 259.108133 -207.390249 
L 268.328557 -221.427338 
L 281.151846 -171.528019 
z
" clip-path="url(#p98a568c1b9)" style="fill: #0000f5; fill-opacity: 0.1"/>
    <path d="M 240.861761 -179.61214 
L 227.656036 -229.54666 
L 236.789144 -243.700318 
L 249.952763 -193.452198 
z
" clip-path="url(#p98a568c1b9)" style="fill: #0000f5; fill-opacity: 0.1"/>
    <path d="M 281.151846 -171.528019 
L 268.328557 -221.427338 
L 277.614732 -235.564524 
L 290.39304 -185.351615 
z
" clip-path="url(#p98a568c1b9)" style="fill: #0000f5; fill-opacity: 0.1"/>
    <path d="M 249.952763 -193.452198 
L 236.789144 -243.700318 
L 245.987553 -257.955177 
L 259.108133 -207.390249 
z
" clip-path="url(#p98a568c1b9)" style="fill: #0000f5; fill-opacity: 0.1"/>
    <path d="M 259.108133 -207.390249 
L 245.987553 -257.955177 
L 255.251969 -272.312324 
L 268.328557 -221.427338 
z
" clip-path="url(#p98a568c1b9)" style="fill: #0000f5; fill-opacity: 0.1"/>
    <path d="M 268.328557 -221.427338 
L 255.251969 -272.312324 
L 264.583102 -286.772866 
L 277.614732 -235.564524 
z
" clip-path="url(#p98a568c1b9)" style="fill: #0000f5; fill-opacity: 0.1"/>
   </g>
   <g id="legend_1">
    <g id="patch_6">
     <path d="M 357.840076 67.305115 
L 396.2 67.305115 
Q 398.2 67.305115 398.2 65.305115 
L 398.2 7 
Q 398.2 5 396.2 5 
L 357.840076 5 
Q 355.840076 5 355.840076 7 
L 355.840076 65.305115 
Q 355.840076 67.305115 357.840076 67.305115 
z
" style="fill: #ffffff; opacity: 0.8; stroke: #cccccc; stroke-linejoin: miter"/>
    </g>
    <g id="line2d_25">
     <path d="M 359.840076 12.5 
L 369.840076 12.5 
L 379.840076 12.5 
" style="fill: none; stroke: #ff0000; stroke-width: 1.5; stroke-linecap: square"/>
    </g>
    <g id="text_21">
     <!-- $\vec{a}$ -->
     <g transform="translate(387.840076 16)scale(0.1 -0.1)">
      <defs>
       <path id="CMMI12-7e" d="M 3424 3835 
C 3347 3764 3110 3540 3110 3451 
C 3110 3387 3168 3329 3232 3329 
C 3290 3329 3315 3368 3360 3432 
C 3514 3624 3686 3745 3834 3828 
C 3898 3867 3942 3886 3942 3956 
C 3942 4014 3891 4046 3853 4078 
C 3674 4200 3629 4372 3610 4449 
C 3590 4500 3571 4577 3482 4577 
C 3443 4577 3366 4552 3366 4456 
C 3366 4398 3405 4244 3526 4072 
L 1376 4072 
C 1267 4072 1158 4072 1158 3950 
C 1158 3835 1274 3835 1376 3835 
L 3424 3835 
z
" transform="scale(0.015625)"/>
       <path id="CMMI12-61" d="M 1926 760 
C 1894 651 1894 639 1805 517 
C 1664 338 1382 64 1082 64 
C 819 64 672 300 672 677 
C 672 1028 870 1743 992 2012 
C 1210 2459 1510 2689 1760 2689 
C 2182 2689 2266 2165 2266 2114 
C 2266 2108 2246 2024 2240 2012 
L 1926 760 
z
M 2336 2395 
C 2266 2561 2093 2816 1760 2816 
C 1037 2816 256 1884 256 939 
C 256 307 627 -64 1062 -64 
C 1414 -64 1715 211 1894 422 
C 1958 45 2259 -64 2451 -64 
C 2643 -64 2797 51 2912 281 
C 3014 498 3104 888 3104 913 
C 3104 945 3078 971 3040 971 
C 2982 971 2976 939 2950 843 
C 2854 466 2733 64 2470 64 
C 2285 64 2272 230 2272 358 
C 2272 505 2291 575 2349 824 
C 2394 984 2426 1124 2477 1309 
C 2714 2267 2771 2497 2771 2535 
C 2771 2625 2701 2695 2605 2695 
C 2400 2695 2349 2472 2336 2395 
z
" transform="scale(0.015625)"/>
      </defs>
      <use xlink:href="#CMMI12-7e" transform="scale(0.996264)"/>
      <use xlink:href="#CMMI12-61" transform="translate(6.445738 0)scale(0.996264)"/>
     </g>
    </g>
    <g id="line2d_26">
     <path d="M 359.840076 27.24679 
L 369.840076 27.24679 
L 379.840076 27.24679 
" style="fill: none; stroke: #00ff00; stroke-width: 1.5; stroke-linecap: square"/>
    </g>
    <g id="text_22">
     <!-- $\vec{b}$ -->
     <g transform="translate(387.840076 30.74679)scale(0.1 -0.1)">
      <defs>
       <path id="CMMI12-62" d="M 1478 4257 
C 1485 4283 1498 4321 1498 4352 
C 1498 4416 1434 4416 1421 4416 
C 1414 4416 1184 4393 1069 4377 
C 960 4377 864 4358 749 4358 
C 595 4345 550 4339 550 4224 
C 550 4160 614 4160 678 4160 
C 1005 4160 1005 4103 1005 4040 
C 1005 3996 954 3811 928 3696 
L 774 3085 
C 710 2831 346 1387 320 1272 
C 288 1114 288 1005 288 922 
C 288 274 653 -64 1069 -64 
C 1811 -64 2579 888 2579 1814 
C 2579 2401 2246 2816 1766 2816 
C 1434 2816 1133 2542 1011 2414 
L 1478 4257 
z
M 1075 64 
C 870 64 646 217 646 715 
C 646 926 666 1047 781 1494 
C 800 1577 902 1986 928 2069 
C 941 2120 1318 2689 1754 2689 
C 2035 2689 2163 2408 2163 2076 
C 2163 1769 1984 1047 1824 715 
C 1664 370 1370 64 1075 64 
z
" transform="scale(0.015625)"/>
      </defs>
      <use xlink:href="#CMMI12-7e" transform="translate(0 26.29016)scale(0.996264)"/>
      <use xlink:href="#CMMI12-62" transform="translate(11.311737 0)scale(0.996264)"/>
     </g>
    </g>
    <g id="line2d_27">
     <path d="M 359.840076 41.183968 
L 369.840076 41.183968 
L 379.840076 41.183968 
" style="fill: none; stroke: #0016ff; stroke-width: 1.5; stroke-linecap: square"/>
    </g>
    <g id="text_23">
     <!-- $\vec{c}$ -->
     <g transform="translate(387.840076 44.683968)scale(0.1 -0.1)">
      <defs>
       <path id="CMMI12-63" d="M 2502 2431 
C 2381 2431 2323 2431 2234 2355 
C 2195 2323 2125 2227 2125 2125 
C 2125 1997 2221 1920 2342 1920 
C 2496 1920 2669 2044 2669 2292 
C 2669 2588 2374 2816 1933 2816 
C 1094 2816 256 1903 256 996 
C 256 441 602 -64 1254 -64 
C 2125 -64 2675 622 2675 706 
C 2675 744 2637 776 2611 776 
C 2592 776 2586 770 2528 713 
C 2118 162 1510 64 1267 64 
C 826 64 685 446 685 764 
C 685 988 794 1605 1024 2039 
C 1190 2338 1536 2682 1939 2682 
C 2022 2682 2374 2682 2502 2431 
z
" transform="scale(0.015625)"/>
      </defs>
      <use xlink:href="#CMMI12-7e" transform="scale(0.996264)"/>
      <use xlink:href="#CMMI12-63" transform="translate(5.638615 0)scale(0.996264)"/>
     </g>
    </g>
    <g id="line2d_28">
     <path d="M 359.840076 57.867937 
L 369.840076 57.867937 
L 379.840076 57.867937 
" style="fill: none; stroke: #f400ff; stroke-width: 1.5; stroke-linecap: square"/>
    </g>
    <g id="text_24">
     <!-- $\vec{f}$ -->
     <g transform="translate(387.840076 61.367937)scale(0.1 -0.1)">
      <defs>
       <path id="CMMI12-66" d="M 2854 2566 
C 2982 2566 3034 2566 3034 2688 
C 3034 2752 2982 2752 2867 2752 
L 2349 2752 
C 2470 3429 2560 3897 2611 4107 
C 2650 4265 2784 4416 2950 4416 
C 3085 4416 3219 4358 3283 4298 
C 3034 4272 2957 4082 2957 3969 
C 2957 3837 3053 3759 3174 3759 
C 3302 3759 3494 3870 3494 4119 
C 3494 4393 3226 4544 2944 4544 
C 2669 4544 2400 4334 2272 4078 
C 2157 3848 2093 3611 1946 2752 
L 1517 2752 
C 1395 2752 1331 2752 1331 2637 
C 1331 2566 1370 2566 1498 2566 
L 1907 2566 
C 1792 1976 1530 542 1382 -137 
C 1274 -689 1178 -1152 858 -1152 
C 838 -1152 653 -1152 538 -1031 
C 864 -1005 864 -726 864 -720 
C 864 -593 768 -517 646 -517 
C 518 -517 326 -625 326 -867 
C 326 -1140 608 -1280 858 -1280 
C 1510 -1280 1779 -118 1850 199 
C 1965 688 2278 2376 2310 2566 
L 2854 2566 
z
" transform="scale(0.015625)"/>
      </defs>
      <use xlink:href="#CMMI12-7e" transform="translate(13.568792 26.29016)scale(0.996264)"/>
      <use xlink:href="#CMMI12-66" transform="scale(0.996264)"/>
     </g>
    </g>
   </g>
  </g>
 </g>
 <defs>
  <clipPath id="p98a568c1b9">
   <rect x="57.6" y="0" width="345.6" height="345.6"/>
  </clipPath>
 </defs>
</svg>
