<?xml version="1.0" encoding="utf-8" standalone="no"?>
<!DOCTYPE svg PUBLIC "-//W3C//DTD SVG 1.1//EN"
  "http://www.w3.org/Graphics/SVG/1.1/DTD/svg11.dtd">
<svg xmlns:xlink="http://www.w3.org/1999/xlink" width="460.8pt" height="345.6pt" viewBox="0 0 460.8 345.6" xmlns="http://www.w3.org/2000/svg" version="1.1">
 <metadata>
  <rdf:RDF xmlns:dc="http://purl.org/dc/elements/1.1/" xmlns:cc="http://creativecommons.org/ns#" xmlns:rdf="http://www.w3.org/1999/02/22-rdf-syntax-ns#">
   <cc:Work>
    <dc:type rdf:resource="http://purl.org/dc/dcmitype/StillImage"/>
    <dc:date>2022-07-12T15:41:31.910514</dc:date>
    <dc:format>image/svg+xml</dc:format>
    <dc:creator>
     <cc:Agent>
      <dc:title>Matplotlib v3.5.1, https://matplotlib.org/</dc:title>
     </cc:Agent>
    </dc:creator>
   </cc:Work>
  </rdf:RDF>
 </metadata>
 <defs>
  <style type="text/css">*{stroke-linejoin: round; stroke-linecap: butt}</style>
 </defs>
 <g id="figure_1">
  <g id="patch_1">
   <path d="M 0 345.6 
L 460.8 345.6 
L 460.8 0 
L 0 0 
z
" style="fill: #ffffff"/>
  </g>
  <g id="patch_2">
   <path d="M 57.6 345.6 
L 403.2 345.6 
L 403.2 0 
L 57.6 0 
z
" style="fill: #ffffff"/>
  </g>
  <g id="pane3d_1">
   <g id="patch_3">
    <path d="M 134.041631 246.690808 
L 343.835903 246.999485 
L 343.835903 89.259974 
L 134.041631 89.568651 
" style="fill: #f2f2f2; opacity: 0.5; stroke: #f2f2f2; stroke-linejoin: miter"/>
   </g>
  </g>
  <g id="pane3d_2">
   <g id="patch_4">
    <path d="M 134.041631 246.690808 
L 113.055488 256.606906 
L 113.055488 79.652554 
L 134.041631 89.568651 
" style="fill: #e6e6e6; opacity: 0.5; stroke: #e6e6e6; stroke-linejoin: miter"/>
   </g>
  </g>
  <g id="pane3d_3">
   <g id="patch_5">
    <path d="M 134.041631 246.690808 
L 113.055488 256.606906 
L 349.354633 256.998618 
L 343.835903 246.999485 
" style="fill: #ececec; opacity: 0.5; stroke: #ececec; stroke-linejoin: miter"/>
   </g>
  </g>
  <g id="axis3d_1">
   <g id="line2d_1">
    <path d="M 343.835903 246.999485 
L 349.354633 256.998618 
" style="fill: none; stroke: #000000; stroke-width: 0.8; stroke-linecap: square"/>
   </g>
   <g id="text_1">
    <!-- x -->
    <g transform="translate(373.876678 278.962107)scale(0.16 -0.16)">
     <defs>
      <path id="CMSS17-78" d="M 1587 1414 
L 2656 2739 
L 2099 2739 
L 1363 1777 
L 602 2739 
L 32 2739 
L 1139 1414 
L 0 0 
L 563 0 
L 1363 1121 
L 2195 0 
L 2758 0 
L 1587 1414 
z
" transform="scale(0.015625)"/>
     </defs>
     <use xlink:href="#CMSS17-78" transform="scale(0.996264)"/>
    </g>
   </g>
   <g id="Line3DCollection_1">
    <path d="M 343.93408 247.177367 
L 133.668112 246.867299 
L 133.668112 89.392161 
" style="fill: none; stroke: #b0b0b0; stroke-width: 0.8"/>
    <path d="M 344.899607 248.926761 
L 129.995052 248.602845 
L 129.995052 87.656615 
" style="fill: none; stroke: #b0b0b0; stroke-width: 0.8"/>
    <path d="M 345.908837 250.755338 
L 126.156418 250.416626 
L 126.156418 85.842834 
" style="fill: none; stroke: #b0b0b0; stroke-width: 0.8"/>
    <path d="M 346.964806 252.6686 
L 122.140757 252.314053 
L 122.140757 83.945406 
" style="fill: none; stroke: #b0b0b0; stroke-width: 0.8"/>
    <path d="M 348.070838 254.672569 
L 117.935533 254.301051 
L 117.935533 81.958409 
" style="fill: none; stroke: #b0b0b0; stroke-width: 0.8"/>
    <path d="M 349.230579 256.773851 
L 113.526998 256.384114 
L 113.526998 79.875346 
" style="fill: none; stroke: #b0b0b0; stroke-width: 0.8"/>
   </g>
   <g id="xtick_1">
    <g id="line2d_2">
     <path d="M 342.245381 247.174877 
L 347.311797 247.182348 
" style="fill: none; stroke: #000000; stroke-width: 0.8; stroke-linecap: square"/>
    </g>
    <g id="text_2">
     <!-- $\mathdefault{0}$ -->
     <g transform="translate(354.933367 264.218831)scale(0.1 -0.1)">
      <defs>
       <path id="CMR17-30" d="M 2688 2025 
C 2688 2416 2682 3080 2413 3591 
C 2176 4039 1798 4198 1466 4198 
C 1158 4198 768 4058 525 3597 
C 269 3118 243 2524 243 2025 
C 243 1661 250 1106 448 619 
C 723 -39 1216 -128 1466 -128 
C 1760 -128 2208 -7 2470 600 
C 2662 1042 2688 1559 2688 2025 
z
M 1466 -26 
C 1056 -26 813 325 723 812 
C 653 1188 653 1738 653 2096 
C 653 2588 653 2997 736 3387 
C 858 3929 1216 4096 1466 4096 
C 1728 4096 2067 3923 2189 3400 
C 2272 3036 2278 2607 2278 2096 
C 2278 1680 2278 1169 2202 792 
C 2067 95 1690 -26 1466 -26 
z
" transform="scale(0.015625)"/>
      </defs>
      <use xlink:href="#CMR17-30" transform="scale(0.996264)"/>
     </g>
    </g>
   </g>
   <g id="xtick_2">
    <g id="line2d_3">
     <path d="M 343.173506 248.924159 
L 348.352142 248.931965 
" style="fill: none; stroke: #000000; stroke-width: 0.8; stroke-linecap: square"/>
    </g>
    <g id="text_3">
     <!-- $\mathdefault{1}$ -->
     <g transform="translate(356.197764 266.192763)scale(0.1 -0.1)">
      <defs>
       <path id="CMR17-31" d="M 1702 4058 
C 1702 4192 1696 4192 1606 4192 
C 1357 3916 979 3827 621 3827 
C 602 3827 570 3827 563 3808 
C 557 3795 557 3782 557 3648 
C 755 3648 1088 3686 1344 3839 
L 1344 461 
C 1344 236 1331 160 781 160 
L 589 160 
L 589 0 
C 896 0 1216 0 1523 0 
C 1830 0 2150 0 2458 0 
L 2458 160 
L 2266 160 
C 1715 160 1702 230 1702 458 
L 1702 4058 
z
" transform="scale(0.015625)"/>
      </defs>
      <use xlink:href="#CMR17-31" transform="scale(0.996264)"/>
     </g>
    </g>
   </g>
   <g id="xtick_3">
    <g id="line2d_4">
     <path d="M 344.143639 250.752618 
L 349.439581 250.76078 
" style="fill: none; stroke: #000000; stroke-width: 0.8; stroke-linecap: square"/>
    </g>
    <g id="text_4">
     <!-- $\mathdefault{2}$ -->
     <g transform="translate(357.519406 268.256065)scale(0.1 -0.1)">
      <defs>
       <path id="CMR17-32" d="M 2669 989 
L 2554 989 
C 2490 536 2438 459 2413 420 
C 2381 369 1920 369 1830 369 
L 602 369 
C 832 619 1280 1072 1824 1597 
C 2214 1967 2669 2402 2669 3035 
C 2669 3790 2067 4224 1395 4224 
C 691 4224 262 3604 262 3030 
C 262 2780 448 2748 525 2748 
C 589 2748 781 2787 781 3010 
C 781 3207 614 3264 525 3264 
C 486 3264 448 3258 422 3245 
C 544 3790 915 4058 1306 4058 
C 1862 4058 2227 3617 2227 3035 
C 2227 2479 1901 2000 1536 1584 
L 262 146 
L 262 0 
L 2515 0 
L 2669 989 
z
" transform="scale(0.015625)"/>
      </defs>
      <use xlink:href="#CMR17-32" transform="scale(0.996264)"/>
     </g>
    </g>
   </g>
   <g id="xtick_4">
    <g id="line2d_5">
     <path d="M 345.1587 252.665752 
L 350.577384 252.674297 
" style="fill: none; stroke: #000000; stroke-width: 0.8; stroke-linecap: square"/>
    </g>
    <g id="text_5">
     <!-- $\mathdefault{3}$ -->
     <g transform="translate(358.902273 270.414948)scale(0.1 -0.1)">
      <defs>
       <path id="CMR17-33" d="M 1414 2157 
C 1984 2157 2234 1662 2234 1090 
C 2234 320 1824 25 1453 25 
C 1114 25 563 194 390 693 
C 422 680 454 680 486 680 
C 640 680 755 782 755 948 
C 755 1133 614 1216 486 1216 
C 378 1216 211 1165 211 926 
C 211 335 787 -128 1466 -128 
C 2176 -128 2720 430 2720 1085 
C 2720 1707 2208 2157 1600 2227 
C 2086 2328 2554 2756 2554 3329 
C 2554 3820 2048 4179 1472 4179 
C 890 4179 378 3829 378 3329 
C 378 3110 544 3072 627 3072 
C 762 3072 877 3155 877 3321 
C 877 3486 762 3569 627 3569 
C 602 3569 570 3569 544 3557 
C 730 3959 1235 4032 1459 4032 
C 1683 4032 2106 3925 2106 3320 
C 2106 3143 2080 2828 1862 2550 
C 1670 2304 1453 2304 1242 2284 
C 1210 2284 1062 2269 1037 2269 
C 992 2263 966 2257 966 2208 
C 966 2163 973 2157 1101 2157 
L 1414 2157 
z
" transform="scale(0.015625)"/>
      </defs>
      <use xlink:href="#CMR17-33" transform="scale(0.996264)"/>
     </g>
    </g>
   </g>
   <g id="xtick_5">
    <g id="line2d_6">
     <path d="M 346.221882 254.669584 
L 351.769133 254.678539 
" style="fill: none; stroke: #000000; stroke-width: 0.8; stroke-linecap: square"/>
    </g>
    <g id="text_6">
     <!-- $\mathdefault{4}$ -->
     <g transform="translate(360.350718 272.67621)scale(0.1 -0.1)">
      <defs>
       <path id="CMR17-34" d="M 2150 4122 
C 2150 4256 2144 4256 2029 4256 
L 128 1254 
L 128 1088 
L 1779 1088 
L 1779 457 
C 1779 224 1766 160 1318 160 
L 1197 160 
L 1197 0 
C 1402 0 1747 0 1965 0 
C 2182 0 2528 0 2733 0 
L 2733 160 
L 2611 160 
C 2163 160 2150 224 2150 457 
L 2150 1088 
L 2803 1088 
L 2803 1254 
L 2150 1254 
L 2150 4122 
z
M 1798 3703 
L 1798 1254 
L 256 1254 
L 1798 3703 
z
" transform="scale(0.015625)"/>
      </defs>
      <use xlink:href="#CMR17-34" transform="scale(0.996264)"/>
     </g>
    </g>
   </g>
   <g id="xtick_6">
    <g id="line2d_7">
     <path d="M 347.336691 256.770719 
L 353.018758 256.780115 
" style="fill: none; stroke: #000000; stroke-width: 0.8; stroke-linecap: square"/>
    </g>
    <g id="text_7">
     <!-- $\mathdefault{5}$ -->
     <g transform="translate(361.869521 275.047312)scale(0.1 -0.1)">
      <defs>
       <path id="CMR17-35" d="M 730 3692 
C 794 3666 1056 3584 1325 3584 
C 1920 3584 2246 3911 2432 4100 
C 2432 4157 2432 4192 2394 4192 
C 2387 4192 2374 4192 2323 4163 
C 2099 4058 1837 3973 1517 3973 
C 1325 3973 1037 3999 723 4139 
C 653 4171 640 4171 634 4171 
C 602 4171 595 4164 595 4037 
L 595 2203 
C 595 2089 595 2057 659 2057 
C 691 2057 704 2070 736 2114 
C 941 2401 1222 2522 1542 2522 
C 1766 2522 2246 2382 2246 1289 
C 2246 1085 2246 715 2054 421 
C 1894 159 1645 25 1370 25 
C 947 25 518 320 403 814 
C 429 807 480 795 506 795 
C 589 795 749 840 749 1038 
C 749 1210 627 1280 506 1280 
C 358 1280 262 1190 262 1011 
C 262 454 704 -128 1382 -128 
C 2042 -128 2669 440 2669 1264 
C 2669 2030 2170 2624 1549 2624 
C 1222 2624 947 2503 730 2274 
L 730 3692 
z
" transform="scale(0.015625)"/>
      </defs>
      <use xlink:href="#CMR17-35" transform="scale(0.996264)"/>
     </g>
    </g>
   </g>
  </g>
  <g id="axis3d_2">
   <g id="line2d_8">
    <path d="M 113.055488 256.606906 
L 349.354633 256.998618 
" style="fill: none; stroke: #000000; stroke-width: 0.8; stroke-linecap: square"/>
   </g>
   <g id="text_8">
    <!-- y -->
    <g transform="translate(226.133748 287.444954)scale(0.16 -0.16)">
     <defs>
      <path id="CMSS17-79" d="M 2675 2752 
L 2176 2752 
C 1632 1294 1446 702 1434 383 
L 1427 383 
C 1408 696 1126 1460 902 2007 
L 602 2752 
L 83 2752 
L 1216 13 
C 1146 -178 1043 -465 1011 -529 
C 870 -885 774 -885 672 -885 
C 646 -885 442 -885 211 -809 
L 250 -1229 
C 410 -1261 570 -1280 685 -1280 
C 845 -1280 1165 -1280 1459 -497 
L 2675 2752 
z
" transform="scale(0.015625)"/>
     </defs>
     <use xlink:href="#CMSS17-79" transform="scale(0.996264)"/>
    </g>
   </g>
   <g id="Line3DCollection_2">
    <path d="M 158.293531 89.532969 
L 158.293531 246.726491 
L 140.35933 256.652167 
" style="fill: none; stroke: #b0b0b0; stroke-width: 0.8"/>
    <path d="M 198.483054 89.473836 
L 198.483054 246.785623 
L 185.613331 256.727184 
" style="fill: none; stroke: #b0b0b0; stroke-width: 0.8"/>
    <path d="M 238.733094 89.414615 
L 238.733094 246.844844 
L 230.944098 256.802329 
" style="fill: none; stroke: #b0b0b0; stroke-width: 0.8"/>
    <path d="M 279.04379 89.355305 
L 279.04379 246.904154 
L 276.351826 256.877601 
" style="fill: none; stroke: #b0b0b0; stroke-width: 0.8"/>
    <path d="M 319.415278 89.295905 
L 319.415278 246.963554 
L 321.83671 256.953001 
" style="fill: none; stroke: #b0b0b0; stroke-width: 0.8"/>
   </g>
   <g id="xtick_7">
    <g id="line2d_9">
     <path d="M 140.520759 256.562824 
L 140.035491 256.831396 
" style="fill: none; stroke: #000000; stroke-width: 0.8; stroke-linecap: square"/>
    </g>
    <g id="text_9">
     <!-- $\mathdefault{−4}$ -->
     <g transform="translate(132.693299 275.693903)scale(0.1 -0.1)">
      <defs>
       <path id="CMSY10-0" d="M 4218 1472 
C 4326 1472 4442 1472 4442 1600 
C 4442 1728 4326 1728 4218 1728 
L 755 1728 
C 646 1728 531 1728 531 1600 
C 531 1472 646 1472 755 1472 
L 4218 1472 
z
" transform="scale(0.015625)"/>
      </defs>
      <use xlink:href="#CMSY10-0" transform="scale(0.996264)"/>
      <use xlink:href="#CMR17-34" transform="translate(77.487468 0)scale(0.996264)"/>
     </g>
    </g>
   </g>
   <g id="xtick_8">
    <g id="line2d_10">
     <path d="M 185.729185 256.63769 
L 185.380919 256.906717 
" style="fill: none; stroke: #000000; stroke-width: 0.8; stroke-linecap: square"/>
    </g>
    <g id="text_10">
     <!-- $\mathdefault{−2}$ -->
     <g transform="translate(178.314595 275.779888)scale(0.1 -0.1)">
      <use xlink:href="#CMSY10-0" transform="scale(0.996264)"/>
      <use xlink:href="#CMR17-32" transform="translate(77.487468 0)scale(0.996264)"/>
     </g>
    </g>
   </g>
   <g id="xtick_9">
    <g id="line2d_11">
     <path d="M 231.014222 256.712683 
L 230.803425 256.982167 
" style="fill: none; stroke: #000000; stroke-width: 0.8; stroke-linecap: square"/>
    </g>
    <g id="text_11">
     <!-- $\mathdefault{0}$ -->
     <g transform="translate(227.888282 275.866021)scale(0.1 -0.1)">
      <use xlink:href="#CMR17-30" transform="scale(0.996264)"/>
     </g>
    </g>
   </g>
   <g id="xtick_10">
    <g id="line2d_12">
     <path d="M 276.376063 256.787803 
L 276.303202 257.057745 
" style="fill: none; stroke: #000000; stroke-width: 0.8; stroke-linecap: square"/>
    </g>
    <g id="text_12">
     <!-- $\mathdefault{2}$ -->
     <g transform="translate(273.665816 275.952301)scale(0.1 -0.1)">
      <use xlink:href="#CMR17-32" transform="scale(0.996264)"/>
     </g>
    </g>
   </g>
   <g id="xtick_11">
    <g id="line2d_13">
     <path d="M 321.814906 256.86305 
L 321.880451 257.133451 
" style="fill: none; stroke: #000000; stroke-width: 0.8; stroke-linecap: square"/>
    </g>
    <g id="text_13">
     <!-- $\mathdefault{4}$ -->
     <g transform="translate(319.52177 276.038728)scale(0.1 -0.1)">
      <use xlink:href="#CMR17-34" transform="scale(0.996264)"/>
     </g>
    </g>
   </g>
  </g>
  <g id="axis3d_3">
   <g id="line2d_14">
    <path d="M 113.055488 256.606906 
L 113.055488 79.652554 
" style="fill: none; stroke: #000000; stroke-width: 0.8; stroke-linecap: square"/>
   </g>
   <g id="text_14">
    <!-- z -->
    <g transform="translate(73.093946 172.114786)scale(0.16 -0.16)">
     <defs>
      <path id="CMSS17-7a" d="M 2400 2502 
L 2400 2750 
L 250 2750 
L 250 2368 
L 1069 2368 
C 1146 2368 1222 2368 1299 2368 
L 1747 2368 
L 166 261 
L 166 0 
L 2419 0 
L 2419 395 
L 1549 395 
C 1472 395 1395 395 1318 395 
L 826 395 
L 2400 2502 
z
" transform="scale(0.015625)"/>
     </defs>
     <use xlink:href="#CMSS17-7a" transform="scale(0.996264)"/>
    </g>
   </g>
   <g id="Line3DCollection_3">
    <path d="M 113.055488 253.067819 
L 134.041631 243.548365 
L 343.835903 243.844695 
" style="fill: none; stroke: #b0b0b0; stroke-width: 0.8"/>
    <path d="M 113.055488 219.092583 
L 134.041631 213.380911 
L 343.835903 213.558709 
" style="fill: none; stroke: #b0b0b0; stroke-width: 0.8"/>
    <path d="M 113.055488 185.117347 
L 134.041631 183.213457 
L 343.835903 183.272723 
" style="fill: none; stroke: #b0b0b0; stroke-width: 0.8"/>
    <path d="M 113.055488 151.142112 
L 134.041631 153.046003 
L 343.835903 152.986737 
" style="fill: none; stroke: #b0b0b0; stroke-width: 0.8"/>
    <path d="M 113.055488 117.166876 
L 134.041631 122.878548 
L 343.835903 122.700751 
" style="fill: none; stroke: #b0b0b0; stroke-width: 0.8"/>
    <path d="M 113.055488 83.191641 
L 134.041631 92.711094 
L 343.835903 92.414765 
" style="fill: none; stroke: #b0b0b0; stroke-width: 0.8"/>
   </g>
   <g id="xtick_12">
    <g id="line2d_15">
     <path d="M 113.244377 252.982137 
L 112.676562 253.239702 
" style="fill: none; stroke: #000000; stroke-width: 0.8; stroke-linecap: square"/>
    </g>
    <g id="text_15">
     <!-- $\mathdefault{0}$ -->
     <g transform="translate(93.894721 260.652536)scale(0.1 -0.1)">
      <use xlink:href="#CMR17-30" transform="scale(0.996264)"/>
     </g>
    </g>
   </g>
   <g id="xtick_13">
    <g id="line2d_16">
     <path d="M 113.244377 219.041174 
L 112.676562 219.195713 
" style="fill: none; stroke: #000000; stroke-width: 0.8; stroke-linecap: square"/>
    </g>
    <g id="text_16">
     <!-- $\mathdefault{1}$ -->
     <g transform="translate(93.894721 226.410813)scale(0.1 -0.1)">
      <use xlink:href="#CMR17-31" transform="scale(0.996264)"/>
     </g>
    </g>
   </g>
   <g id="xtick_14">
    <g id="line2d_17">
     <path d="M 113.244377 185.100211 
L 112.676562 185.151724 
" style="fill: none; stroke: #000000; stroke-width: 0.8; stroke-linecap: square"/>
    </g>
    <g id="text_17">
     <!-- $\mathdefault{2}$ -->
     <g transform="translate(93.894721 192.16909)scale(0.1 -0.1)">
      <use xlink:href="#CMR17-32" transform="scale(0.996264)"/>
     </g>
    </g>
   </g>
   <g id="xtick_15">
    <g id="line2d_18">
     <path d="M 113.244377 151.159248 
L 112.676562 151.107735 
" style="fill: none; stroke: #000000; stroke-width: 0.8; stroke-linecap: square"/>
    </g>
    <g id="text_18">
     <!-- $\mathdefault{3}$ -->
     <g transform="translate(93.894721 157.927366)scale(0.1 -0.1)">
      <use xlink:href="#CMR17-33" transform="scale(0.996264)"/>
     </g>
    </g>
   </g>
   <g id="xtick_16">
    <g id="line2d_19">
     <path d="M 113.244377 117.218285 
L 112.676562 117.063746 
" style="fill: none; stroke: #000000; stroke-width: 0.8; stroke-linecap: square"/>
    </g>
    <g id="text_19">
     <!-- $\mathdefault{4}$ -->
     <g transform="translate(93.894721 123.685643)scale(0.1 -0.1)">
      <use xlink:href="#CMR17-34" transform="scale(0.996264)"/>
     </g>
    </g>
   </g>
   <g id="xtick_17">
    <g id="line2d_20">
     <path d="M 113.244377 83.277323 
L 112.676562 83.019758 
" style="fill: none; stroke: #000000; stroke-width: 0.8; stroke-linecap: square"/>
    </g>
    <g id="text_20">
     <!-- $\mathdefault{5}$ -->
     <g transform="translate(93.894721 89.44392)scale(0.1 -0.1)">
      <use xlink:href="#CMR17-35" transform="scale(0.996264)"/>
     </g>
    </g>
   </g>
  </g>
  <g id="axes_1">
   <g id="line2d_21">
    <path d="M 238.594496 243.866336 
L 299.195457 90.630712 
" clip-path="url(#pb4fccfd28c)" style="fill: none; stroke: #ff0000; stroke-width: 1.5; stroke-linecap: square"/>
   </g>
   <g id="line2d_22">
    <path d="M 238.594496 243.866336 
L 193.647918 120.672558 
" clip-path="url(#pb4fccfd28c)" style="fill: none; stroke: #00ff00; stroke-width: 1.5; stroke-linecap: square"/>
   </g>
   <g id="line2d_23">
    <path d="M 238.594496 243.866336 
L 253.398108 -1 
" clip-path="url(#pb4fccfd28c)" style="fill: none; stroke: #0016ff; stroke-width: 1.5; stroke-linecap: square"/>
   </g>
   <g id="line2d_24">
    <path d="M 238.594496 243.866336 
L 163.322875 151.169079 
" clip-path="url(#pb4fccfd28c)" style="fill: none; stroke: #f400ff; stroke-width: 1.5; stroke-linecap: square"/>
   </g>
   <g id="Poly3DCollection_1">
    <path d="M 137.857264 357.114722 
L 136.086279 317.14504 
L 146.252247 305.708512 
L 147.913912 345.809079 
z
" clip-path="url(#pb4fccfd28c)" style="fill: #0000f5; fill-opacity: 0.1"/>
    <path d="M 147.913912 345.809079 
L 146.252247 305.708512 
L 156.422086 294.267628 
L 157.97435 334.499176 
z
" clip-path="url(#pb4fccfd28c)" style="fill: #0000f5; fill-opacity: 0.1"/>
    <path d="M 157.97435 334.499176 
L 156.422086 294.267628 
L 166.5958 282.822387 
L 168.038577 323.185013 
z
" clip-path="url(#pb4fccfd28c)" style="fill: #0000f5; fill-opacity: 0.1"/>
    <path d="M 168.038577 323.185013 
L 166.5958 282.822387 
L 176.773389 271.372784 
L 178.106598 311.866585 
z
" clip-path="url(#pb4fccfd28c)" style="fill: #0000f5; fill-opacity: 0.1"/>
    <path d="M 178.106598 311.866585 
L 176.773389 271.372784 
L 186.954856 259.918819 
L 188.178414 300.54389 
z
" clip-path="url(#pb4fccfd28c)" style="fill: #0000f5; fill-opacity: 0.1"/>
    <path d="M 188.178414 300.54389 
L 186.954856 259.918819 
L 197.140204 248.460489 
L 198.254027 289.216927 
z
" clip-path="url(#pb4fccfd28c)" style="fill: #0000f5; fill-opacity: 0.1"/>
    <path d="M 198.254027 289.216927 
L 197.140204 248.460489 
L 207.329435 236.99779 
L 208.33344 277.885692 
z
" clip-path="url(#pb4fccfd28c)" style="fill: #0000f5; fill-opacity: 0.1"/>
    <path d="M 208.33344 277.885692 
L 207.329435 236.99779 
L 217.522551 225.530721 
L 218.416654 266.550184 
z
" clip-path="url(#pb4fccfd28c)" style="fill: #0000f5; fill-opacity: 0.1"/>
    <path d="M 218.416654 266.550184 
L 217.522551 225.530721 
L 227.719554 214.059278 
L 228.503672 255.210399 
z
" clip-path="url(#pb4fccfd28c)" style="fill: #0000f5; fill-opacity: 0.1"/>
    <path d="M 228.503672 255.210399 
L 227.719554 214.059278 
L 237.920446 202.583461 
L 238.594496 243.866336 
z
" clip-path="url(#pb4fccfd28c)" style="fill: #0000f5; fill-opacity: 0.1"/>
    <path d="M 238.594496 243.866336 
L 237.920446 202.583461 
L 248.12523 191.103265 
L 248.689128 232.517992 
z
" clip-path="url(#pb4fccfd28c)" style="fill: #0000f5; fill-opacity: 0.1"/>
    <path d="M 248.689128 232.517992 
L 248.12523 191.103265 
L 258.333908 179.618689 
L 258.78757 221.165365 
z
" clip-path="url(#pb4fccfd28c)" style="fill: #0000f5; fill-opacity: 0.1"/>
    <path d="M 258.78757 221.165365 
L 258.333908 179.618689 
L 268.546481 168.12973 
L 268.889825 209.808452 
z
" clip-path="url(#pb4fccfd28c)" style="fill: #0000f5; fill-opacity: 0.1"/>
    <path d="M 268.889825 209.808452 
L 268.546481 168.12973 
L 278.762954 156.636385 
L 278.995893 198.44725 
z
" clip-path="url(#pb4fccfd28c)" style="fill: #0000f5; fill-opacity: 0.1"/>
    <path d="M 278.995893 198.44725 
L 278.762954 156.636385 
L 288.983326 145.138652 
L 289.105779 187.081758 
z
" clip-path="url(#pb4fccfd28c)" style="fill: #0000f5; fill-opacity: 0.1"/>
    <path d="M 289.105779 187.081758 
L 288.983326 145.138652 
L 299.207602 133.636529 
L 299.219483 175.711973 
z
" clip-path="url(#pb4fccfd28c)" style="fill: #0000f5; fill-opacity: 0.1"/>
    <path d="M 299.219483 175.711973 
L 299.207602 133.636529 
L 309.435782 122.130013 
L 309.337009 164.337892 
z
" clip-path="url(#pb4fccfd28c)" style="fill: #0000f5; fill-opacity: 0.1"/>
    <path d="M 309.337009 164.337892 
L 309.435782 122.130013 
L 319.66787 110.619101 
L 319.458357 152.959513 
z
" clip-path="url(#pb4fccfd28c)" style="fill: #0000f5; fill-opacity: 0.1"/>
    <path d="M 319.458357 152.959513 
L 319.66787 110.619101 
L 329.903867 99.10379 
L 329.583531 141.576834 
z
" clip-path="url(#pb4fccfd28c)" style="fill: #0000f5; fill-opacity: 0.1"/>
    <path d="M 136.086279 317.14504 
L 134.276255 276.294269 
L 144.553945 264.723801 
L 146.252247 305.708512 
z
" clip-path="url(#pb4fccfd28c)" style="fill: #0000f5; fill-opacity: 0.1"/>
    <path d="M 146.252247 305.708512 
L 144.553945 264.723801 
L 154.835592 253.148877 
L 156.422086 294.267628 
z
" clip-path="url(#pb4fccfd28c)" style="fill: #0000f5; fill-opacity: 0.1"/>
    <path d="M 156.422086 294.267628 
L 154.835592 253.148877 
L 165.121199 241.569496 
L 166.5958 282.822387 
z
" clip-path="url(#pb4fccfd28c)" style="fill: #0000f5; fill-opacity: 0.1"/>
    <path d="M 166.5958 282.822387 
L 165.121199 241.569496 
L 175.410767 229.985654 
L 176.773389 271.372784 
z
" clip-path="url(#pb4fccfd28c)" style="fill: #0000f5; fill-opacity: 0.1"/>
    <path d="M 176.773389 271.372784 
L 175.410767 229.985654 
L 185.7043 218.39735 
L 186.954856 259.918819 
z
" clip-path="url(#pb4fccfd28c)" style="fill: #0000f5; fill-opacity: 0.1"/>
    <path d="M 186.954856 259.918819 
L 185.7043 218.39735 
L 196.0018 206.80458 
L 197.140204 248.460489 
z
" clip-path="url(#pb4fccfd28c)" style="fill: #0000f5; fill-opacity: 0.1"/>
    <path d="M 197.140204 248.460489 
L 196.0018 206.80458 
L 206.303268 195.207342 
L 207.329435 236.99779 
z
" clip-path="url(#pb4fccfd28c)" style="fill: #0000f5; fill-opacity: 0.1"/>
    <path d="M 207.329435 236.99779 
L 206.303268 195.207342 
L 216.608707 183.605633 
L 217.522551 225.530721 
z
" clip-path="url(#pb4fccfd28c)" style="fill: #0000f5; fill-opacity: 0.1"/>
    <path d="M 217.522551 225.530721 
L 216.608707 183.605633 
L 226.91812 171.999451 
L 227.719554 214.059278 
z
" clip-path="url(#pb4fccfd28c)" style="fill: #0000f5; fill-opacity: 0.1"/>
    <path d="M 227.719554 214.059278 
L 226.91812 171.999451 
L 237.231508 160.388794 
L 237.920446 202.583461 
z
" clip-path="url(#pb4fccfd28c)" style="fill: #0000f5; fill-opacity: 0.1"/>
    <path d="M 237.920446 202.583461 
L 237.231508 160.388794 
L 247.548875 148.773658 
L 248.12523 191.103265 
z
" clip-path="url(#pb4fccfd28c)" style="fill: #0000f5; fill-opacity: 0.1"/>
    <path d="M 248.12523 191.103265 
L 247.548875 148.773658 
L 257.870221 137.154041 
L 258.333908 179.618689 
z
" clip-path="url(#pb4fccfd28c)" style="fill: #0000f5; fill-opacity: 0.1"/>
    <path d="M 258.333908 179.618689 
L 257.870221 137.154041 
L 268.195551 125.529941 
L 268.546481 168.12973 
z
" clip-path="url(#pb4fccfd28c)" style="fill: #0000f5; fill-opacity: 0.1"/>
    <path d="M 268.546481 168.12973 
L 268.195551 125.529941 
L 278.524865 113.901354 
L 278.762954 156.636385 
z
" clip-path="url(#pb4fccfd28c)" style="fill: #0000f5; fill-opacity: 0.1"/>
    <path d="M 278.762954 156.636385 
L 278.524865 113.901354 
L 288.858166 102.268279 
L 288.983326 145.138652 
z
" clip-path="url(#pb4fccfd28c)" style="fill: #0000f5; fill-opacity: 0.1"/>
    <path d="M 288.983326 145.138652 
L 288.858166 102.268279 
L 299.195457 90.630712 
L 299.207602 133.636529 
z
" clip-path="url(#pb4fccfd28c)" style="fill: #0000f5; fill-opacity: 0.1"/>
    <path d="M 299.207602 133.636529 
L 299.195457 90.630712 
L 309.53674 78.988652 
L 309.435782 122.130013 
z
" clip-path="url(#pb4fccfd28c)" style="fill: #0000f5; fill-opacity: 0.1"/>
    <path d="M 309.435782 122.130013 
L 309.53674 78.988652 
L 319.882017 67.342094 
L 319.66787 110.619101 
z
" clip-path="url(#pb4fccfd28c)" style="fill: #0000f5; fill-opacity: 0.1"/>
    <path d="M 319.66787 110.619101 
L 319.882017 67.342094 
L 330.231291 55.691038 
L 329.903867 99.10379 
z
" clip-path="url(#pb4fccfd28c)" style="fill: #0000f5; fill-opacity: 0.1"/>
    <path d="M 134.276255 276.294269 
L 132.425886 234.532951 
L 142.817781 222.825379 
L 144.553945 264.723801 
z
" clip-path="url(#pb4fccfd28c)" style="fill: #0000f5; fill-opacity: 0.1"/>
    <path d="M 144.553945 264.723801 
L 142.817781 222.825379 
L 153.213722 211.113249 
L 154.835592 253.148877 
z
" clip-path="url(#pb4fccfd28c)" style="fill: #0000f5; fill-opacity: 0.1"/>
    <path d="M 154.835592 253.148877 
L 153.213722 211.113249 
L 163.613711 199.396557 
L 165.121199 241.569496 
z
" clip-path="url(#pb4fccfd28c)" style="fill: #0000f5; fill-opacity: 0.1"/>
    <path d="M 165.121199 241.569496 
L 163.613711 199.396557 
L 174.01775 187.675303 
L 175.410767 229.985654 
z
" clip-path="url(#pb4fccfd28c)" style="fill: #0000f5; fill-opacity: 0.1"/>
    <path d="M 175.410767 229.985654 
L 174.01775 187.675303 
L 184.425843 175.949482 
L 185.7043 218.39735 
z
" clip-path="url(#pb4fccfd28c)" style="fill: #0000f5; fill-opacity: 0.1"/>
    <path d="M 185.7043 218.39735 
L 184.425843 175.949482 
L 194.837991 164.219092 
L 196.0018 206.80458 
z
" clip-path="url(#pb4fccfd28c)" style="fill: #0000f5; fill-opacity: 0.1"/>
    <path d="M 196.0018 206.80458 
L 194.837991 164.219092 
L 205.254197 152.484131 
L 206.303268 195.207342 
z
" clip-path="url(#pb4fccfd28c)" style="fill: #0000f5; fill-opacity: 0.1"/>
    <path d="M 206.303268 195.207342 
L 205.254197 152.484131 
L 215.674463 140.744595 
L 216.608707 183.605633 
z
" clip-path="url(#pb4fccfd28c)" style="fill: #0000f5; fill-opacity: 0.1"/>
    <path d="M 216.608707 183.605633 
L 215.674463 140.744595 
L 226.098791 129.000483 
L 226.91812 171.999451 
z
" clip-path="url(#pb4fccfd28c)" style="fill: #0000f5; fill-opacity: 0.1"/>
    <path d="M 226.91812 171.999451 
L 226.098791 129.000483 
L 236.527185 117.251791 
L 237.231508 160.388794 
z
" clip-path="url(#pb4fccfd28c)" style="fill: #0000f5; fill-opacity: 0.1"/>
    <path d="M 237.231508 160.388794 
L 236.527185 117.251791 
L 246.959645 105.498517 
L 247.548875 148.773658 
z
" clip-path="url(#pb4fccfd28c)" style="fill: #0000f5; fill-opacity: 0.1"/>
    <path d="M 247.548875 148.773658 
L 246.959645 105.498517 
L 257.396176 93.740658 
L 257.870221 137.154041 
z
" clip-path="url(#pb4fccfd28c)" style="fill: #0000f5; fill-opacity: 0.1"/>
    <path d="M 257.870221 137.154041 
L 257.396176 93.740658 
L 267.836778 81.978211 
L 268.195551 125.529941 
z
" clip-path="url(#pb4fccfd28c)" style="fill: #0000f5; fill-opacity: 0.1"/>
    <path d="M 268.195551 125.529941 
L 267.836778 81.978211 
L 278.281455 70.211175 
L 278.524865 113.901354 
z
" clip-path="url(#pb4fccfd28c)" style="fill: #0000f5; fill-opacity: 0.1"/>
    <path d="M 278.524865 113.901354 
L 278.281455 70.211175 
L 288.730209 58.439545 
L 288.858166 102.268279 
z
" clip-path="url(#pb4fccfd28c)" style="fill: #0000f5; fill-opacity: 0.1"/>
    <path d="M 288.858166 102.268279 
L 288.730209 58.439545 
L 299.183041 46.663319 
L 299.195457 90.630712 
z
" clip-path="url(#pb4fccfd28c)" style="fill: #0000f5; fill-opacity: 0.1"/>
    <path d="M 299.195457 90.630712 
L 299.183041 46.663319 
L 309.639956 34.882495 
L 309.53674 78.988652 
z
" clip-path="url(#pb4fccfd28c)" style="fill: #0000f5; fill-opacity: 0.1"/>
    <path d="M 309.53674 78.988652 
L 309.639956 34.882495 
L 320.100954 23.097071 
L 319.882017 67.342094 
z
" clip-path="url(#pb4fccfd28c)" style="fill: #0000f5; fill-opacity: 0.1"/>
    <path d="M 319.882017 67.342094 
L 320.100954 23.097071 
L 330.566039 11.307042 
L 330.231291 55.691038 
z
" clip-path="url(#pb4fccfd28c)" style="fill: #0000f5; fill-opacity: 0.1"/>
    <path d="M 132.425886 234.532951 
L 130.533809 191.830299 
L 141.042475 179.982347 
L 142.817781 222.825379 
z
" clip-path="url(#pb4fccfd28c)" style="fill: #0000f5; fill-opacity: 0.1"/>
    <path d="M 142.817781 222.825379 
L 141.042475 179.982347 
L 151.555279 168.12973 
L 153.213722 211.113249 
z
" clip-path="url(#pb4fccfd28c)" style="fill: #0000f5; fill-opacity: 0.1"/>
    <path d="M 153.213722 211.113249 
L 151.555279 168.12973 
L 162.072222 156.272445 
L 163.613711 199.396557 
z
" clip-path="url(#pb4fccfd28c)" style="fill: #0000f5; fill-opacity: 0.1"/>
    <path d="M 163.613711 199.396557 
L 162.072222 156.272445 
L 172.593308 144.41049 
L 174.01775 187.675303 
z
" clip-path="url(#pb4fccfd28c)" style="fill: #0000f5; fill-opacity: 0.1"/>
    <path d="M 174.01775 187.675303 
L 172.593308 144.41049 
L 183.11854 132.543862 
L 184.425843 175.949482 
z
" clip-path="url(#pb4fccfd28c)" style="fill: #0000f5; fill-opacity: 0.1"/>
    <path d="M 184.425843 175.949482 
L 183.11854 132.543862 
L 193.647918 120.672558 
L 194.837991 164.219092 
z
" clip-path="url(#pb4fccfd28c)" style="fill: #0000f5; fill-opacity: 0.1"/>
    <path d="M 194.837991 164.219092 
L 193.647918 120.672558 
L 204.181446 108.796575 
L 205.254197 152.484131 
z
" clip-path="url(#pb4fccfd28c)" style="fill: #0000f5; fill-opacity: 0.1"/>
    <path d="M 205.254197 152.484131 
L 204.181446 108.796575 
L 214.719126 96.915911 
L 215.674463 140.744595 
z
" clip-path="url(#pb4fccfd28c)" style="fill: #0000f5; fill-opacity: 0.1"/>
    <path d="M 215.674463 140.744595 
L 214.719126 96.915911 
L 225.260961 85.030563 
L 226.098791 129.000483 
z
" clip-path="url(#pb4fccfd28c)" style="fill: #0000f5; fill-opacity: 0.1"/>
    <path d="M 226.098791 129.000483 
L 225.260961 85.030563 
L 235.806954 73.140528 
L 236.527185 117.251791 
z
" clip-path="url(#pb4fccfd28c)" style="fill: #0000f5; fill-opacity: 0.1"/>
    <path d="M 236.527185 117.251791 
L 235.806954 73.140528 
L 246.357105 61.245803 
L 246.959645 105.498517 
z
" clip-path="url(#pb4fccfd28c)" style="fill: #0000f5; fill-opacity: 0.1"/>
    <path d="M 246.959645 105.498517 
L 246.357105 61.245803 
L 256.911419 49.346385 
L 257.396176 93.740658 
z
" clip-path="url(#pb4fccfd28c)" style="fill: #0000f5; fill-opacity: 0.1"/>
    <path d="M 257.396176 93.740658 
L 256.911419 49.346385 
L 267.469898 37.442273 
L 267.836778 81.978211 
z
" clip-path="url(#pb4fccfd28c)" style="fill: #0000f5; fill-opacity: 0.1"/>
    <path d="M 267.836778 81.978211 
L 267.469898 37.442273 
L 278.032543 25.533462 
L 278.281455 70.211175 
z
" clip-path="url(#pb4fccfd28c)" style="fill: #0000f5; fill-opacity: 0.1"/>
    <path d="M 278.281455 70.211175 
L 278.032543 25.533462 
L 288.599358 13.61995 
L 288.730209 58.439545 
z
" clip-path="url(#pb4fccfd28c)" style="fill: #0000f5; fill-opacity: 0.1"/>
    <path d="M 288.730209 58.439545 
L 288.599358 13.61995 
L 299.170345 1.701735 
L 299.183041 46.663319 
z
" clip-path="url(#pb4fccfd28c)" style="fill: #0000f5; fill-opacity: 0.1"/>
    <path d="M 299.183041 46.663319 
L 299.170345 1.701735 
L 309.745506 -10.221187 
L 309.639956 34.882495 
z
" clip-path="url(#pb4fccfd28c)" style="fill: #0000f5; fill-opacity: 0.1"/>
    <path d="M 309.639956 34.882495 
L 309.745506 -10.221187 
L 320.324844 -22.148817 
L 320.100954 23.097071 
z
" clip-path="url(#pb4fccfd28c)" style="fill: #0000f5; fill-opacity: 0.1"/>
    <path d="M 320.100954 23.097071 
L 320.324844 -22.148817 
L 330.908361 -34.08116 
L 330.566039 11.307042 
z
" clip-path="url(#pb4fccfd28c)" style="fill: #0000f5; fill-opacity: 0.1"/>
    <path d="M 130.533809 191.830299 
L 128.598596 148.154122 
L 139.226688 136.162395 
L 141.042475 179.982347 
z
" clip-path="url(#pb4fccfd28c)" style="fill: #0000f5; fill-opacity: 0.1"/>
    <path d="M 141.042475 179.982347 
L 139.226688 136.162395 
L 149.859012 124.165893 
L 151.555279 168.12973 
z
" clip-path="url(#pb4fccfd28c)" style="fill: #0000f5; fill-opacity: 0.1"/>
    <path d="M 151.555279 168.12973 
L 149.859012 124.165893 
L 160.495571 112.164613 
L 162.072222 156.272445 
z
" clip-path="url(#pb4fccfd28c)" style="fill: #0000f5; fill-opacity: 0.1"/>
    <path d="M 162.072222 156.272445 
L 160.495571 112.164613 
L 171.136367 100.158551 
L 172.593308 144.41049 
z
" clip-path="url(#pb4fccfd28c)" style="fill: #0000f5; fill-opacity: 0.1"/>
    <path d="M 172.593308 144.41049 
L 171.136367 100.158551 
L 181.781403 88.147706 
L 183.11854 132.543862 
z
" clip-path="url(#pb4fccfd28c)" style="fill: #0000f5; fill-opacity: 0.1"/>
    <path d="M 183.11854 132.543862 
L 181.781403 88.147706 
L 192.430681 76.132074 
L 193.647918 120.672558 
z
" clip-path="url(#pb4fccfd28c)" style="fill: #0000f5; fill-opacity: 0.1"/>
    <path d="M 193.647918 120.672558 
L 192.430681 76.132074 
L 203.084205 64.111652 
L 204.181446 108.796575 
z
" clip-path="url(#pb4fccfd28c)" style="fill: #0000f5; fill-opacity: 0.1"/>
    <path d="M 204.181446 108.796575 
L 203.084205 64.111652 
L 213.741976 52.086438 
L 214.719126 96.915911 
z
" clip-path="url(#pb4fccfd28c)" style="fill: #0000f5; fill-opacity: 0.1"/>
    <path d="M 214.719126 96.915911 
L 213.741976 52.086438 
L 224.403997 40.056429 
L 225.260961 85.030563 
z
" clip-path="url(#pb4fccfd28c)" style="fill: #0000f5; fill-opacity: 0.1"/>
    <path d="M 225.260961 85.030563 
L 224.403997 40.056429 
L 235.07027 28.021621 
L 235.806954 73.140528 
z
" clip-path="url(#pb4fccfd28c)" style="fill: #0000f5; fill-opacity: 0.1"/>
    <path d="M 235.806954 73.140528 
L 235.07027 28.021621 
L 245.740799 15.982013 
L 246.357105 61.245803 
z
" clip-path="url(#pb4fccfd28c)" style="fill: #0000f5; fill-opacity: 0.1"/>
    <path d="M 246.357105 61.245803 
L 245.740799 15.982013 
L 256.415585 3.9376 
L 256.911419 49.346385 
z
" clip-path="url(#pb4fccfd28c)" style="fill: #0000f5; fill-opacity: 0.1"/>
    <path d="M 256.911419 49.346385 
L 256.415585 3.9376 
L 267.094632 -8.111619 
L 267.469898 37.442273 
z
" clip-path="url(#pb4fccfd28c)" style="fill: #0000f5; fill-opacity: 0.1"/>
    <path d="M 267.469898 37.442273 
L 267.094632 -8.111619 
L 277.777941 -20.165648 
L 278.032543 25.533462 
z
" clip-path="url(#pb4fccfd28c)" style="fill: #0000f5; fill-opacity: 0.1"/>
    <path d="M 278.032543 25.533462 
L 277.777941 -20.165648 
L 288.465515 -32.22449 
L 288.599358 13.61995 
z
" clip-path="url(#pb4fccfd28c)" style="fill: #0000f5; fill-opacity: 0.1"/>
    <path d="M 288.599358 13.61995 
L 288.465515 -32.22449 
L 299.157358 -44.288147 
L 299.170345 1.701735 
z
" clip-path="url(#pb4fccfd28c)" style="fill: #0000f5; fill-opacity: 0.1"/>
    <path d="M 299.170345 1.701735 
L 299.157358 -44.288147 
L 309.853471 -56.356622 
L 309.745506 -10.221187 
z
" clip-path="url(#pb4fccfd28c)" style="fill: #0000f5; fill-opacity: 0.1"/>
    <path d="M 309.745506 -10.221187 
L 309.853471 -56.356622 
L 320.553856 -68.429919 
L 320.324844 -22.148817 
z
" clip-path="url(#pb4fccfd28c)" style="fill: #0000f5; fill-opacity: 0.1"/>
    <path d="M 320.324844 -22.148817 
L 320.553856 -68.429919 
L 331.258518 -80.508039 
L 330.908361 -34.08116 
z
" clip-path="url(#pb4fccfd28c)" style="fill: #0000f5; fill-opacity: 0.1"/>
    <path d="M 128.598596 148.154122 
L 126.618756 103.470746 
L 137.369019 91.331725 
L 139.226688 136.162395 
z
" clip-path="url(#pb4fccfd28c)" style="fill: #0000f5; fill-opacity: 0.1"/>
    <path d="M 139.226688 136.162395 
L 137.369019 91.331725 
L 148.123612 79.187814 
L 149.859012 124.165893 
z
" clip-path="url(#pb4fccfd28c)" style="fill: #0000f5; fill-opacity: 0.1"/>
    <path d="M 149.859012 124.165893 
L 148.123612 79.187814 
L 158.882538 67.039011 
L 160.495571 112.164613 
z
" clip-path="url(#pb4fccfd28c)" style="fill: #0000f5; fill-opacity: 0.1"/>
    <path d="M 160.495571 112.164613 
L 158.882538 67.039011 
L 169.6458 54.885313 
L 171.136367 100.158551 
z
" clip-path="url(#pb4fccfd28c)" style="fill: #0000f5; fill-opacity: 0.1"/>
    <path d="M 171.136367 100.158551 
L 169.6458 54.885313 
L 180.4134 42.726715 
L 181.781403 88.147706 
z
" clip-path="url(#pb4fccfd28c)" style="fill: #0000f5; fill-opacity: 0.1"/>
    <path d="M 181.781403 88.147706 
L 180.4134 42.726715 
L 191.185341 30.563216 
L 192.430681 76.132074 
z
" clip-path="url(#pb4fccfd28c)" style="fill: #0000f5; fill-opacity: 0.1"/>
    <path d="M 192.430681 76.132074 
L 191.185341 30.563216 
L 201.961625 18.394813 
L 203.084205 64.111652 
z
" clip-path="url(#pb4fccfd28c)" style="fill: #0000f5; fill-opacity: 0.1"/>
    <path d="M 203.084205 64.111652 
L 201.961625 18.394813 
L 212.742255 6.221502 
L 213.741976 52.086438 
z
" clip-path="url(#pb4fccfd28c)" style="fill: #0000f5; fill-opacity: 0.1"/>
    <path d="M 213.741976 52.086438 
L 212.742255 6.221502 
L 223.527234 -5.956719 
L 224.403997 40.056429 
z
" clip-path="url(#pb4fccfd28c)" style="fill: #0000f5; fill-opacity: 0.1"/>
    <path d="M 224.403997 40.056429 
L 223.527234 -5.956719 
L 234.316564 -18.139854 
L 235.07027 28.021621 
z
" clip-path="url(#pb4fccfd28c)" style="fill: #0000f5; fill-opacity: 0.1"/>
    <path d="M 235.07027 28.021621 
L 234.316564 -18.139854 
L 245.110248 -30.327905 
L 245.740799 15.982013 
z
" clip-path="url(#pb4fccfd28c)" style="fill: #0000f5; fill-opacity: 0.1"/>
    <path d="M 245.740799 15.982013 
L 245.110248 -30.327905 
L 255.908289 -42.520876 
L 256.415585 3.9376 
z
" clip-path="url(#pb4fccfd28c)" style="fill: #0000f5; fill-opacity: 0.1"/>
    <path d="M 256.415585 3.9376 
L 255.908289 -42.520876 
L 266.710689 -54.718769 
L 267.094632 -8.111619 
z
" clip-path="url(#pb4fccfd28c)" style="fill: #0000f5; fill-opacity: 0.1"/>
    <path d="M 267.094632 -8.111619 
L 266.710689 -54.718769 
L 277.517451 -66.921587 
L 277.777941 -20.165648 
z
" clip-path="url(#pb4fccfd28c)" style="fill: #0000f5; fill-opacity: 0.1"/>
    <path d="M 277.777941 -20.165648 
L 277.517451 -66.921587 
L 288.328577 -79.129333 
L 288.465515 -32.22449 
z
" clip-path="url(#pb4fccfd28c)" style="fill: #0000f5; fill-opacity: 0.1"/>
    <path d="M 288.465515 -32.22449 
L 288.328577 -79.129333 
L 299.14407 -91.342011 
L 299.157358 -44.288147 
z
" clip-path="url(#pb4fccfd28c)" style="fill: #0000f5; fill-opacity: 0.1"/>
    <path d="M 299.157358 -44.288147 
L 299.14407 -91.342011 
L 309.963933 -103.559623 
L 309.853471 -56.356622 
z
" clip-path="url(#pb4fccfd28c)" style="fill: #0000f5; fill-opacity: 0.1"/>
    <path d="M 309.853471 -56.356622 
L 309.963933 -103.559623 
L 320.788169 -115.782173 
L 320.553856 -68.429919 
z
" clip-path="url(#pb4fccfd28c)" style="fill: #0000f5; fill-opacity: 0.1"/>
    <path d="M 320.553856 -68.429919 
L 320.788169 -115.782173 
L 331.61678 -128.009662 
L 331.258518 -80.508039 
z
" clip-path="url(#pb4fccfd28c)" style="fill: #0000f5; fill-opacity: 0.1"/>
    <path d="M 126.618756 103.470746 
L 124.592727 57.744923 
L 135.468002 45.454959 
L 137.369019 91.331725 
z
" clip-path="url(#pb4fccfd28c)" style="fill: #0000f5; fill-opacity: 0.1"/>
    <path d="M 137.369019 91.331725 
L 135.468002 45.454959 
L 146.34771 33.159987 
L 148.123612 79.187814 
z
" clip-path="url(#pb4fccfd28c)" style="fill: #0000f5; fill-opacity: 0.1"/>
    <path d="M 148.123612 79.187814 
L 146.34771 33.159987 
L 157.231852 20.860003 
L 158.882538 67.039011 
z
" clip-path="url(#pb4fccfd28c)" style="fill: #0000f5; fill-opacity: 0.1"/>
    <path d="M 158.882538 67.039011 
L 157.231852 20.860003 
L 168.120431 8.555005 
L 169.6458 54.885313 
z
" clip-path="url(#pb4fccfd28c)" style="fill: #0000f5; fill-opacity: 0.1"/>
    <path d="M 169.6458 54.885313 
L 168.120431 8.555005 
L 179.01345 -3.75501 
L 180.4134 42.726715 
z
" clip-path="url(#pb4fccfd28c)" style="fill: #0000f5; fill-opacity: 0.1"/>
    <path d="M 180.4134 42.726715 
L 179.01345 -3.75501 
L 189.910911 -16.070046 
L 191.185341 30.563216 
z
" clip-path="url(#pb4fccfd28c)" style="fill: #0000f5; fill-opacity: 0.1"/>
    <path d="M 191.185341 30.563216 
L 189.910911 -16.070046 
L 200.812818 -28.390106 
L 201.961625 18.394813 
z
" clip-path="url(#pb4fccfd28c)" style="fill: #0000f5; fill-opacity: 0.1"/>
    <path d="M 201.961625 18.394813 
L 200.812818 -28.390106 
L 211.719173 -40.715192 
L 212.742255 6.221502 
z
" clip-path="url(#pb4fccfd28c)" style="fill: #0000f5; fill-opacity: 0.1"/>
    <path d="M 212.742255 6.221502 
L 211.719173 -40.715192 
L 222.629979 -53.045308 
L 223.527234 -5.956719 
z
" clip-path="url(#pb4fccfd28c)" style="fill: #0000f5; fill-opacity: 0.1"/>
    <path d="M 223.527234 -5.956719 
L 222.629979 -53.045308 
L 233.545239 -65.380457 
L 234.316564 -18.139854 
z
" clip-path="url(#pb4fccfd28c)" style="fill: #0000f5; fill-opacity: 0.1"/>
    <path d="M 234.316564 -18.139854 
L 233.545239 -65.380457 
L 244.464954 -77.720642 
L 245.110248 -30.327905 
z
" clip-path="url(#pb4fccfd28c)" style="fill: #0000f5; fill-opacity: 0.1"/>
    <path d="M 245.110248 -30.327905 
L 244.464954 -77.720642 
L 255.389129 -90.065866 
L 255.908289 -42.520876 
z
" clip-path="url(#pb4fccfd28c)" style="fill: #0000f5; fill-opacity: 0.1"/>
    <path d="M 255.908289 -42.520876 
L 255.389129 -90.065866 
L 266.317765 -102.416132 
L 266.710689 -54.718769 
z
" clip-path="url(#pb4fccfd28c)" style="fill: #0000f5; fill-opacity: 0.1"/>
    <path d="M 266.710689 -54.718769 
L 266.317765 -102.416132 
L 277.250866 -114.771443 
L 277.517451 -66.921587 
z
" clip-path="url(#pb4fccfd28c)" style="fill: #0000f5; fill-opacity: 0.1"/>
    <path d="M 277.517451 -66.921587 
L 277.250866 -114.771443 
L 288.188434 -127.131802 
L 288.328577 -79.129333 
z
" clip-path="url(#pb4fccfd28c)" style="fill: #0000f5; fill-opacity: 0.1"/>
    <path d="M 288.328577 -79.129333 
L 288.188434 -127.131802 
L 299.130472 -139.497213 
L 299.14407 -91.342011 
z
" clip-path="url(#pb4fccfd28c)" style="fill: #0000f5; fill-opacity: 0.1"/>
    <path d="M 299.14407 -91.342011 
L 299.130472 -139.497213 
L 310.076982 -151.867678 
L 309.963933 -103.559623 
z
" clip-path="url(#pb4fccfd28c)" style="fill: #0000f5; fill-opacity: 0.1"/>
    <path d="M 309.963933 -103.559623 
L 310.076982 -151.867678 
L 321.027968 -164.243201 
L 320.788169 -115.782173 
z
" clip-path="url(#pb4fccfd28c)" style="fill: #0000f5; fill-opacity: 0.1"/>
    <path d="M 320.788169 -115.782173 
L 321.027968 -164.243201 
L 331.983432 -176.623785 
L 331.61678 -128.009662 
z
" clip-path="url(#pb4fccfd28c)" style="fill: #0000f5; fill-opacity: 0.1"/>
    <path d="M 124.592727 57.744923 
L 122.518873 10.939744 
L 133.522103 -1.504949 
L 135.468002 45.454959 
z
" clip-path="url(#pb4fccfd28c)" style="fill: #0000f5; fill-opacity: 0.1"/>
    <path d="M 135.468002 45.454959 
L 133.522103 -1.504949 
L 144.52987 -13.954774 
L 146.34771 33.159987 
z
" clip-path="url(#pb4fccfd28c)" style="fill: #0000f5; fill-opacity: 0.1"/>
    <path d="M 146.34771 33.159987 
L 144.52987 -13.954774 
L 155.542176 -26.409733 
L 157.231852 20.860003 
z
" clip-path="url(#pb4fccfd28c)" style="fill: #0000f5; fill-opacity: 0.1"/>
    <path d="M 157.231852 20.860003 
L 155.542176 -26.409733 
L 166.559025 -38.869829 
L 168.120431 8.555005 
z
" clip-path="url(#pb4fccfd28c)" style="fill: #0000f5; fill-opacity: 0.1"/>
    <path d="M 168.120431 8.555005 
L 166.559025 -38.869829 
L 177.580419 -51.335066 
L 179.01345 -3.75501 
z
" clip-path="url(#pb4fccfd28c)" style="fill: #0000f5; fill-opacity: 0.1"/>
    <path d="M 179.01345 -3.75501 
L 177.580419 -51.335066 
L 188.606362 -63.805447 
L 189.910911 -16.070046 
z
" clip-path="url(#pb4fccfd28c)" style="fill: #0000f5; fill-opacity: 0.1"/>
    <path d="M 189.910911 -16.070046 
L 188.606362 -63.805447 
L 199.636855 -76.280976 
L 200.812818 -28.390106 
z
" clip-path="url(#pb4fccfd28c)" style="fill: #0000f5; fill-opacity: 0.1"/>
    <path d="M 200.812818 -28.390106 
L 199.636855 -76.280976 
L 210.671902 -88.761654 
L 211.719173 -40.715192 
z
" clip-path="url(#pb4fccfd28c)" style="fill: #0000f5; fill-opacity: 0.1"/>
    <path d="M 211.719173 -40.715192 
L 210.671902 -88.761654 
L 221.711505 -101.247486 
L 222.629979 -53.045308 
z
" clip-path="url(#pb4fccfd28c)" style="fill: #0000f5; fill-opacity: 0.1"/>
    <path d="M 222.629979 -53.045308 
L 221.711505 -101.247486 
L 232.755668 -113.738475 
L 233.545239 -65.380457 
z
" clip-path="url(#pb4fccfd28c)" style="fill: #0000f5; fill-opacity: 0.1"/>
    <path d="M 233.545239 -65.380457 
L 232.755668 -113.738475 
L 243.804393 -126.234624 
L 244.464954 -77.720642 
z
" clip-path="url(#pb4fccfd28c)" style="fill: #0000f5; fill-opacity: 0.1"/>
    <path d="M 244.464954 -77.720642 
L 243.804393 -126.234624 
L 254.857684 -138.735936 
L 255.389129 -90.065866 
z
" clip-path="url(#pb4fccfd28c)" style="fill: #0000f5; fill-opacity: 0.1"/>
    <path d="M 255.389129 -90.065866 
L 254.857684 -138.735936 
L 265.915542 -151.242414 
L 266.317765 -102.416132 
z
" clip-path="url(#pb4fccfd28c)" style="fill: #0000f5; fill-opacity: 0.1"/>
    <path d="M 266.317765 -102.416132 
L 265.915542 -151.242414 
L 276.97797 -163.754061 
L 277.250866 -114.771443 
z
" clip-path="url(#pb4fccfd28c)" style="fill: #0000f5; fill-opacity: 0.1"/>
    <path d="M 277.250866 -114.771443 
L 276.97797 -163.754061 
L 288.044973 -176.270881 
L 288.188434 -127.131802 
z
" clip-path="url(#pb4fccfd28c)" style="fill: #0000f5; fill-opacity: 0.1"/>
    <path d="M 288.188434 -127.131802 
L 288.044973 -176.270881 
L 299.116551 -188.792877 
L 299.130472 -139.497213 
z
" clip-path="url(#pb4fccfd28c)" style="fill: #0000f5; fill-opacity: 0.1"/>
    <path d="M 299.130472 -139.497213 
L 299.116551 -188.792877 
L 310.192709 -201.320052 
L 310.076982 -151.867678 
z
" clip-path="url(#pb4fccfd28c)" style="fill: #0000f5; fill-opacity: 0.1"/>
    <path d="M 310.076982 -151.867678 
L 310.192709 -201.320052 
L 321.273449 -213.85241 
L 321.027968 -164.243201 
z
" clip-path="url(#pb4fccfd28c)" style="fill: #0000f5; fill-opacity: 0.1"/>
    <path d="M 321.027968 -164.243201 
L 321.273449 -213.85241 
L 332.358774 -226.389953 
L 331.983432 -176.623785 
z
" clip-path="url(#pb4fccfd28c)" style="fill: #0000f5; fill-opacity: 0.1"/>
    <path d="M 122.518873 10.939744 
L 120.395482 -36.983465 
L 131.529713 -49.586818 
L 133.522103 -1.504949 
z
" clip-path="url(#pb4fccfd28c)" style="fill: #0000f5; fill-opacity: 0.1"/>
    <path d="M 133.522103 -1.504949 
L 131.529713 -49.586818 
L 142.66859 -62.195429 
L 144.52987 -13.954774 
z
" clip-path="url(#pb4fccfd28c)" style="fill: #0000f5; fill-opacity: 0.1"/>
    <path d="M 144.52987 -13.954774 
L 142.66859 -62.195429 
L 153.812115 -74.809302 
L 155.542176 -26.409733 
z
" clip-path="url(#pb4fccfd28c)" style="fill: #0000f5; fill-opacity: 0.1"/>
    <path d="M 155.542176 -26.409733 
L 153.812115 -74.809302 
L 164.960292 -87.428441 
L 166.559025 -38.869829 
z
" clip-path="url(#pb4fccfd28c)" style="fill: #0000f5; fill-opacity: 0.1"/>
    <path d="M 166.559025 -38.869829 
L 164.960292 -87.428441 
L 176.113123 -100.052848 
L 177.580419 -51.335066 
z
" clip-path="url(#pb4fccfd28c)" style="fill: #0000f5; fill-opacity: 0.1"/>
    <path d="M 177.580419 -51.335066 
L 176.113123 -100.052848 
L 187.270611 -112.682528 
L 188.606362 -63.805447 
z
" clip-path="url(#pb4fccfd28c)" style="fill: #0000f5; fill-opacity: 0.1"/>
    <path d="M 188.606362 -63.805447 
L 187.270611 -112.682528 
L 198.43276 -125.317482 
L 199.636855 -76.280976 
z
" clip-path="url(#pb4fccfd28c)" style="fill: #0000f5; fill-opacity: 0.1"/>
    <path d="M 199.636855 -76.280976 
L 198.43276 -125.317482 
L 209.599572 -137.957715 
L 210.671902 -88.761654 
z
" clip-path="url(#pb4fccfd28c)" style="fill: #0000f5; fill-opacity: 0.1"/>
    <path d="M 210.671902 -88.761654 
L 209.599572 -137.957715 
L 220.771051 -150.60323 
L 221.711505 -101.247486 
z
" clip-path="url(#pb4fccfd28c)" style="fill: #0000f5; fill-opacity: 0.1"/>
    <path d="M 221.711505 -101.247486 
L 220.771051 -150.60323 
L 231.947198 -163.25403 
L 232.755668 -113.738475 
z
" clip-path="url(#pb4fccfd28c)" style="fill: #0000f5; fill-opacity: 0.1"/>
    <path d="M 232.755668 -113.738475 
L 231.947198 -163.25403 
L 243.128018 -175.910118 
L 243.804393 -126.234624 
z
" clip-path="url(#pb4fccfd28c)" style="fill: #0000f5; fill-opacity: 0.1"/>
    <path d="M 243.804393 -126.234624 
L 243.128018 -175.910118 
L 254.313512 -188.571499 
L 254.857684 -138.735936 
z
" clip-path="url(#pb4fccfd28c)" style="fill: #0000f5; fill-opacity: 0.1"/>
    <path d="M 254.857684 -138.735936 
L 254.313512 -188.571499 
L 265.503684 -201.238174 
L 265.915542 -151.242414 
z
" clip-path="url(#pb4fccfd28c)" style="fill: #0000f5; fill-opacity: 0.1"/>
    <path d="M 265.915542 -151.242414 
L 265.503684 -201.238174 
L 276.698537 -213.910148 
L 276.97797 -163.754061 
z
" clip-path="url(#pb4fccfd28c)" style="fill: #0000f5; fill-opacity: 0.1"/>
    <path d="M 276.97797 -163.754061 
L 276.698537 -213.910148 
L 287.898074 -226.587423 
L 288.044973 -176.270881 
z
" clip-path="url(#pb4fccfd28c)" style="fill: #0000f5; fill-opacity: 0.1"/>
    <path d="M 288.044973 -176.270881 
L 287.898074 -226.587423 
L 299.102297 -239.270004 
L 299.116551 -188.792877 
z
" clip-path="url(#pb4fccfd28c)" style="fill: #0000f5; fill-opacity: 0.1"/>
    <path d="M 299.116551 -188.792877 
L 299.102297 -239.270004 
L 310.31121 -251.957892 
L 310.192709 -201.320052 
z
" clip-path="url(#pb4fccfd28c)" style="fill: #0000f5; fill-opacity: 0.1"/>
    <path d="M 310.192709 -201.320052 
L 310.31121 -251.957892 
L 321.524816 -264.651093 
L 321.273449 -213.85241 
z
" clip-path="url(#pb4fccfd28c)" style="fill: #0000f5; fill-opacity: 0.1"/>
    <path d="M 321.273449 -213.85241 
L 321.524816 -264.651093 
L 332.743117 -277.349609 
L 332.358774 -226.389953 
z
" clip-path="url(#pb4fccfd28c)" style="fill: #0000f5; fill-opacity: 0.1"/>
   </g>
   <g id="legend_1">
    <g id="patch_6">
     <path d="M 357.840076 67.305115 
L 396.2 67.305115 
Q 398.2 67.305115 398.2 65.305115 
L 398.2 7 
Q 398.2 5 396.2 5 
L 357.840076 5 
Q 355.840076 5 355.840076 7 
L 355.840076 65.305115 
Q 355.840076 67.305115 357.840076 67.305115 
z
" style="fill: #ffffff; opacity: 0.8; stroke: #cccccc; stroke-linejoin: miter"/>
    </g>
    <g id="line2d_25">
     <path d="M 359.840076 12.5 
L 369.840076 12.5 
L 379.840076 12.5 
" style="fill: none; stroke: #ff0000; stroke-width: 1.5; stroke-linecap: square"/>
    </g>
    <g id="text_21">
     <!-- $\vec{a}$ -->
     <g transform="translate(387.840076 16)scale(0.1 -0.1)">
      <defs>
       <path id="CMMI12-7e" d="M 3424 3835 
C 3347 3764 3110 3540 3110 3451 
C 3110 3387 3168 3329 3232 3329 
C 3290 3329 3315 3368 3360 3432 
C 3514 3624 3686 3745 3834 3828 
C 3898 3867 3942 3886 3942 3956 
C 3942 4014 3891 4046 3853 4078 
C 3674 4200 3629 4372 3610 4449 
C 3590 4500 3571 4577 3482 4577 
C 3443 4577 3366 4552 3366 4456 
C 3366 4398 3405 4244 3526 4072 
L 1376 4072 
C 1267 4072 1158 4072 1158 3950 
C 1158 3835 1274 3835 1376 3835 
L 3424 3835 
z
" transform="scale(0.015625)"/>
       <path id="CMMI12-61" d="M 1926 760 
C 1894 651 1894 639 1805 517 
C 1664 338 1382 64 1082 64 
C 819 64 672 300 672 677 
C 672 1028 870 1743 992 2012 
C 1210 2459 1510 2689 1760 2689 
C 2182 2689 2266 2165 2266 2114 
C 2266 2108 2246 2024 2240 2012 
L 1926 760 
z
M 2336 2395 
C 2266 2561 2093 2816 1760 2816 
C 1037 2816 256 1884 256 939 
C 256 307 627 -64 1062 -64 
C 1414 -64 1715 211 1894 422 
C 1958 45 2259 -64 2451 -64 
C 2643 -64 2797 51 2912 281 
C 3014 498 3104 888 3104 913 
C 3104 945 3078 971 3040 971 
C 2982 971 2976 939 2950 843 
C 2854 466 2733 64 2470 64 
C 2285 64 2272 230 2272 358 
C 2272 505 2291 575 2349 824 
C 2394 984 2426 1124 2477 1309 
C 2714 2267 2771 2497 2771 2535 
C 2771 2625 2701 2695 2605 2695 
C 2400 2695 2349 2472 2336 2395 
z
" transform="scale(0.015625)"/>
      </defs>
      <use xlink:href="#CMMI12-7e" transform="scale(0.996264)"/>
      <use xlink:href="#CMMI12-61" transform="translate(6.445738 0)scale(0.996264)"/>
     </g>
    </g>
    <g id="line2d_26">
     <path d="M 359.840076 27.24679 
L 369.840076 27.24679 
L 379.840076 27.24679 
" style="fill: none; stroke: #00ff00; stroke-width: 1.5; stroke-linecap: square"/>
    </g>
    <g id="text_22">
     <!-- $\vec{b}$ -->
     <g transform="translate(387.840076 30.74679)scale(0.1 -0.1)">
      <defs>
       <path id="CMMI12-62" d="M 1478 4257 
C 1485 4283 1498 4321 1498 4352 
C 1498 4416 1434 4416 1421 4416 
C 1414 4416 1184 4393 1069 4377 
C 960 4377 864 4358 749 4358 
C 595 4345 550 4339 550 4224 
C 550 4160 614 4160 678 4160 
C 1005 4160 1005 4103 1005 4040 
C 1005 3996 954 3811 928 3696 
L 774 3085 
C 710 2831 346 1387 320 1272 
C 288 1114 288 1005 288 922 
C 288 274 653 -64 1069 -64 
C 1811 -64 2579 888 2579 1814 
C 2579 2401 2246 2816 1766 2816 
C 1434 2816 1133 2542 1011 2414 
L 1478 4257 
z
M 1075 64 
C 870 64 646 217 646 715 
C 646 926 666 1047 781 1494 
C 800 1577 902 1986 928 2069 
C 941 2120 1318 2689 1754 2689 
C 2035 2689 2163 2408 2163 2076 
C 2163 1769 1984 1047 1824 715 
C 1664 370 1370 64 1075 64 
z
" transform="scale(0.015625)"/>
      </defs>
      <use xlink:href="#CMMI12-7e" transform="translate(0 26.29016)scale(0.996264)"/>
      <use xlink:href="#CMMI12-62" transform="translate(11.311737 0)scale(0.996264)"/>
     </g>
    </g>
    <g id="line2d_27">
     <path d="M 359.840076 41.183968 
L 369.840076 41.183968 
L 379.840076 41.183968 
" style="fill: none; stroke: #0016ff; stroke-width: 1.5; stroke-linecap: square"/>
    </g>
    <g id="text_23">
     <!-- $\vec{c}$ -->
     <g transform="translate(387.840076 44.683968)scale(0.1 -0.1)">
      <defs>
       <path id="CMMI12-63" d="M 2502 2431 
C 2381 2431 2323 2431 2234 2355 
C 2195 2323 2125 2227 2125 2125 
C 2125 1997 2221 1920 2342 1920 
C 2496 1920 2669 2044 2669 2292 
C 2669 2588 2374 2816 1933 2816 
C 1094 2816 256 1903 256 996 
C 256 441 602 -64 1254 -64 
C 2125 -64 2675 622 2675 706 
C 2675 744 2637 776 2611 776 
C 2592 776 2586 770 2528 713 
C 2118 162 1510 64 1267 64 
C 826 64 685 446 685 764 
C 685 988 794 1605 1024 2039 
C 1190 2338 1536 2682 1939 2682 
C 2022 2682 2374 2682 2502 2431 
z
" transform="scale(0.015625)"/>
      </defs>
      <use xlink:href="#CMMI12-7e" transform="scale(0.996264)"/>
      <use xlink:href="#CMMI12-63" transform="translate(5.638615 0)scale(0.996264)"/>
     </g>
    </g>
    <g id="line2d_28">
     <path d="M 359.840076 57.867937 
L 369.840076 57.867937 
L 379.840076 57.867937 
" style="fill: none; stroke: #f400ff; stroke-width: 1.5; stroke-linecap: square"/>
    </g>
    <g id="text_24">
     <!-- $\vec{f}$ -->
     <g transform="translate(387.840076 61.367937)scale(0.1 -0.1)">
      <defs>
       <path id="CMMI12-66" d="M 2854 2566 
C 2982 2566 3034 2566 3034 2688 
C 3034 2752 2982 2752 2867 2752 
L 2349 2752 
C 2470 3429 2560 3897 2611 4107 
C 2650 4265 2784 4416 2950 4416 
C 3085 4416 3219 4358 3283 4298 
C 3034 4272 2957 4082 2957 3969 
C 2957 3837 3053 3759 3174 3759 
C 3302 3759 3494 3870 3494 4119 
C 3494 4393 3226 4544 2944 4544 
C 2669 4544 2400 4334 2272 4078 
C 2157 3848 2093 3611 1946 2752 
L 1517 2752 
C 1395 2752 1331 2752 1331 2637 
C 1331 2566 1370 2566 1498 2566 
L 1907 2566 
C 1792 1976 1530 542 1382 -137 
C 1274 -689 1178 -1152 858 -1152 
C 838 -1152 653 -1152 538 -1031 
C 864 -1005 864 -726 864 -720 
C 864 -593 768 -517 646 -517 
C 518 -517 326 -625 326 -867 
C 326 -1140 608 -1280 858 -1280 
C 1510 -1280 1779 -118 1850 199 
C 1965 688 2278 2376 2310 2566 
L 2854 2566 
z
" transform="scale(0.015625)"/>
      </defs>
      <use xlink:href="#CMMI12-7e" transform="translate(13.568792 26.29016)scale(0.996264)"/>
      <use xlink:href="#CMMI12-66" transform="scale(0.996264)"/>
     </g>
    </g>
   </g>
  </g>
 </g>
 <defs>
  <clipPath id="pb4fccfd28c">
   <rect x="57.6" y="0" width="345.6" height="345.6"/>
  </clipPath>
 </defs>
</svg>
