<?xml version="1.0" encoding="utf-8" standalone="no"?>
<!DOCTYPE svg PUBLIC "-//W3C//DTD SVG 1.1//EN"
  "http://www.w3.org/Graphics/SVG/1.1/DTD/svg11.dtd">
<svg xmlns:xlink="http://www.w3.org/1999/xlink" width="460.8pt" height="345.6pt" viewBox="0 0 460.8 345.6" xmlns="http://www.w3.org/2000/svg" version="1.1">
 <metadata>
  <rdf:RDF xmlns:dc="http://purl.org/dc/elements/1.1/" xmlns:cc="http://creativecommons.org/ns#" xmlns:rdf="http://www.w3.org/1999/02/22-rdf-syntax-ns#">
   <cc:Work>
    <dc:type rdf:resource="http://purl.org/dc/dcmitype/StillImage"/>
    <dc:date>2022-07-12T15:41:34.548195</dc:date>
    <dc:format>image/svg+xml</dc:format>
    <dc:creator>
     <cc:Agent>
      <dc:title>Matplotlib v3.5.1, https://matplotlib.org/</dc:title>
     </cc:Agent>
    </dc:creator>
   </cc:Work>
  </rdf:RDF>
 </metadata>
 <defs>
  <style type="text/css">*{stroke-linejoin: round; stroke-linecap: butt}</style>
 </defs>
 <g id="figure_1">
  <g id="patch_1">
   <path d="M 0 345.6 
L 460.8 345.6 
L 460.8 0 
L 0 0 
z
" style="fill: #ffffff"/>
  </g>
  <g id="patch_2">
   <path d="M 57.6 345.6 
L 403.2 345.6 
L 403.2 0 
L 57.6 0 
z
" style="fill: #ffffff"/>
  </g>
  <g id="pane3d_1">
   <g id="patch_3">
    <path d="M 217.38334 245.096677 
L 389.569299 250.680534 
L 389.569299 85.578925 
L 217.38334 91.162782 
" style="fill: #f2f2f2; opacity: 0.5; stroke: #f2f2f2; stroke-linejoin: miter"/>
   </g>
  </g>
  <g id="pane3d_2">
   <g id="patch_4">
    <path d="M 217.38334 245.096677 
L 77.368408 252.391849 
L 77.368408 83.867611 
L 217.38334 91.162782 
" style="fill: #e6e6e6; opacity: 0.5; stroke: #e6e6e6; stroke-linejoin: miter"/>
   </g>
  </g>
  <g id="pane3d_3">
   <g id="patch_5">
    <path d="M 217.38334 245.096677 
L 77.368408 252.391849 
L 255.98221 259.130721 
L 389.569299 250.680534 
" style="fill: #ececec; opacity: 0.5; stroke: #ececec; stroke-linejoin: miter"/>
   </g>
  </g>
  <g id="axis3d_1">
   <g id="line2d_1">
    <path d="M 389.569299 250.680534 
L 255.98221 259.130721 
" style="fill: none; stroke: #000000; stroke-width: 0.8; stroke-linecap: square"/>
   </g>
   <g id="text_1">
    <!-- x -->
    <g transform="translate(348.965253 283.913595)scale(0.16 -0.16)">
     <defs>
      <path id="CMSS17-78" d="M 1587 1414 
L 2656 2739 
L 2099 2739 
L 1363 1777 
L 602 2739 
L 32 2739 
L 1139 1414 
L 0 0 
L 563 0 
L 1363 1121 
L 2195 0 
L 2758 0 
L 1587 1414 
z
" transform="scale(0.015625)"/>
     </defs>
     <use xlink:href="#CMSS17-78" transform="scale(0.996264)"/>
    </g>
   </g>
   <g id="Line3DCollection_1">
    <path d="M 387.141141 250.83413 
L 214.821046 245.23018 
L 214.821046 91.02928 
" style="fill: none; stroke: #b0b0b0; stroke-width: 0.8"/>
    <path d="M 363.362722 252.338258 
L 189.763106 246.535769 
L 189.763106 89.72369 
" style="fill: none; stroke: #b0b0b0; stroke-width: 0.8"/>
    <path d="M 338.703375 253.89811 
L 163.841904 247.886337 
L 163.841904 88.373123 
" style="fill: none; stroke: #b0b0b0; stroke-width: 0.8"/>
    <path d="M 313.113223 255.516841 
L 137.01205 249.284247 
L 137.01205 86.975212 
" style="fill: none; stroke: #b0b0b0; stroke-width: 0.8"/>
    <path d="M 286.538549 257.197849 
L 109.224913 250.732035 
L 109.224913 85.527424 
" style="fill: none; stroke: #b0b0b0; stroke-width: 0.8"/>
    <path d="M 258.921424 258.944798 
L 80.428328 252.232418 
L 80.428328 84.027041 
" style="fill: none; stroke: #b0b0b0; stroke-width: 0.8"/>
   </g>
   <g id="xtick_1">
    <g id="line2d_2">
     <path d="M 385.66324 250.786067 
L 390.102104 250.930422 
" style="fill: none; stroke: #000000; stroke-width: 0.8; stroke-linecap: square"/>
    </g>
    <g id="text_2">
     <!-- $\mathdefault{0}$ -->
     <g transform="translate(396.515108 268.75556)scale(0.1 -0.1)">
      <defs>
       <path id="CMR17-30" d="M 2688 2025 
C 2688 2416 2682 3080 2413 3591 
C 2176 4039 1798 4198 1466 4198 
C 1158 4198 768 4058 525 3597 
C 269 3118 243 2524 243 2025 
C 243 1661 250 1106 448 619 
C 723 -39 1216 -128 1466 -128 
C 1760 -128 2208 -7 2470 600 
C 2662 1042 2688 1559 2688 2025 
z
M 1466 -26 
C 1056 -26 813 325 723 812 
C 653 1188 653 1738 653 2096 
C 653 2588 653 2997 736 3387 
C 858 3929 1216 4096 1466 4096 
C 1728 4096 2067 3923 2189 3400 
C 2272 3036 2278 2607 2278 2096 
C 2278 1680 2278 1169 2202 792 
C 2067 95 1690 -26 1466 -26 
z
" transform="scale(0.015625)"/>
      </defs>
      <use xlink:href="#CMR17-30" transform="scale(0.996264)"/>
     </g>
    </g>
   </g>
   <g id="xtick_2">
    <g id="line2d_3">
     <path d="M 361.872029 252.288432 
L 366.34941 252.438086 
" style="fill: none; stroke: #000000; stroke-width: 0.8; stroke-linecap: square"/>
    </g>
    <g id="text_3">
     <!-- $\mathdefault{1}$ -->
     <g transform="translate(372.840532 270.467892)scale(0.1 -0.1)">
      <defs>
       <path id="CMR17-31" d="M 1702 4058 
C 1702 4192 1696 4192 1606 4192 
C 1357 3916 979 3827 621 3827 
C 602 3827 570 3827 563 3808 
C 557 3795 557 3782 557 3648 
C 755 3648 1088 3686 1344 3839 
L 1344 461 
C 1344 236 1331 160 781 160 
L 589 160 
L 589 0 
C 896 0 1216 0 1523 0 
C 1830 0 2150 0 2458 0 
L 2458 160 
L 2266 160 
C 1715 160 1702 230 1702 458 
L 1702 4058 
z
" transform="scale(0.015625)"/>
      </defs>
      <use xlink:href="#CMR17-31" transform="scale(0.996264)"/>
     </g>
    </g>
   </g>
   <g id="xtick_3">
    <g id="line2d_4">
     <path d="M 337.199947 253.846421 
L 341.715679 254.001673 
" style="fill: none; stroke: #000000; stroke-width: 0.8; stroke-linecap: square"/>
    </g>
    <g id="text_4">
     <!-- $\mathdefault{2}$ -->
     <g transform="translate(348.284632 272.243968)scale(0.1 -0.1)">
      <defs>
       <path id="CMR17-32" d="M 2669 989 
L 2554 989 
C 2490 536 2438 459 2413 420 
C 2381 369 1920 369 1830 369 
L 602 369 
C 832 619 1280 1072 1824 1597 
C 2214 1967 2669 2402 2669 3035 
C 2669 3790 2067 4224 1395 4224 
C 691 4224 262 3604 262 3030 
C 262 2780 448 2748 525 2748 
C 589 2748 781 2787 781 3010 
C 781 3207 614 3264 525 3264 
C 486 3264 448 3258 422 3245 
C 544 3790 915 4058 1306 4058 
C 1862 4058 2227 3617 2227 3035 
C 2227 2479 1901 2000 1536 1584 
L 262 146 
L 262 0 
L 2515 0 
L 2669 989 
z
" transform="scale(0.015625)"/>
      </defs>
      <use xlink:href="#CMR17-32" transform="scale(0.996264)"/>
     </g>
    </g>
   </g>
   <g id="xtick_4">
    <g id="line2d_5">
     <path d="M 311.59715 255.463184 
L 316.150965 255.624353 
" style="fill: none; stroke: #000000; stroke-width: 0.8; stroke-linecap: square"/>
    </g>
    <g id="text_5">
     <!-- $\mathdefault{3}$ -->
     <g transform="translate(322.79726 274.087416)scale(0.1 -0.1)">
      <defs>
       <path id="CMR17-33" d="M 1414 2157 
C 1984 2157 2234 1662 2234 1090 
C 2234 320 1824 25 1453 25 
C 1114 25 563 194 390 693 
C 422 680 454 680 486 680 
C 640 680 755 782 755 948 
C 755 1133 614 1216 486 1216 
C 378 1216 211 1165 211 926 
C 211 335 787 -128 1466 -128 
C 2176 -128 2720 430 2720 1085 
C 2720 1707 2208 2157 1600 2227 
C 2086 2328 2554 2756 2554 3329 
C 2554 3820 2048 4179 1472 4179 
C 890 4179 378 3829 378 3329 
C 378 3110 544 3072 627 3072 
C 762 3072 877 3155 877 3321 
C 877 3486 762 3569 627 3569 
C 602 3569 570 3569 544 3557 
C 730 3959 1235 4032 1459 4032 
C 1683 4032 2106 3925 2106 3320 
C 2106 3143 2080 2828 1862 2550 
C 1670 2304 1453 2304 1242 2284 
C 1210 2284 1062 2269 1037 2269 
C 992 2263 966 2257 966 2208 
C 966 2163 973 2157 1101 2157 
L 1414 2157 
z
" transform="scale(0.015625)"/>
      </defs>
      <use xlink:href="#CMR17-33" transform="scale(0.996264)"/>
     </g>
    </g>
   </g>
   <g id="xtick_5">
    <g id="line2d_6">
     <path d="M 285.009962 257.142108 
L 289.601475 257.309539 
" style="fill: none; stroke: #000000; stroke-width: 0.8; stroke-linecap: square"/>
    </g>
    <g id="text_6">
     <!-- $\mathdefault{4}$ -->
     <g transform="translate(296.324392 276.002143)scale(0.1 -0.1)">
      <defs>
       <path id="CMR17-34" d="M 2150 4122 
C 2150 4256 2144 4256 2029 4256 
L 128 1254 
L 128 1088 
L 1779 1088 
L 1779 457 
C 1779 224 1766 160 1318 160 
L 1197 160 
L 1197 0 
C 1402 0 1747 0 1965 0 
C 2182 0 2528 0 2733 0 
L 2733 160 
L 2611 160 
C 2163 160 2150 224 2150 457 
L 2150 1088 
L 2803 1088 
L 2803 1254 
L 2150 1254 
L 2150 4122 
z
M 1798 3703 
L 1798 1254 
L 256 1254 
L 1798 3703 
z
" transform="scale(0.015625)"/>
      </defs>
      <use xlink:href="#CMR17-34" transform="scale(0.996264)"/>
     </g>
    </g>
   </g>
   <g id="xtick_6">
    <g id="line2d_7">
     <path d="M 257.380496 258.88685 
L 262.00919 259.060916 
" style="fill: none; stroke: #000000; stroke-width: 0.8; stroke-linecap: square"/>
    </g>
    <g id="text_7">
     <!-- $\mathdefault{5}$ -->
     <g transform="translate(268.807744 277.992364)scale(0.1 -0.1)">
      <defs>
       <path id="CMR17-35" d="M 730 3692 
C 794 3666 1056 3584 1325 3584 
C 1920 3584 2246 3911 2432 4100 
C 2432 4157 2432 4192 2394 4192 
C 2387 4192 2374 4192 2323 4163 
C 2099 4058 1837 3973 1517 3973 
C 1325 3973 1037 3999 723 4139 
C 653 4171 640 4171 634 4171 
C 602 4171 595 4164 595 4037 
L 595 2203 
C 595 2089 595 2057 659 2057 
C 691 2057 704 2070 736 2114 
C 941 2401 1222 2522 1542 2522 
C 1766 2522 2246 2382 2246 1289 
C 2246 1085 2246 715 2054 421 
C 1894 159 1645 25 1370 25 
C 947 25 518 320 403 814 
C 429 807 480 795 506 795 
C 589 795 749 840 749 1038 
C 749 1210 627 1280 506 1280 
C 358 1280 262 1190 262 1011 
C 262 454 704 -128 1382 -128 
C 2042 -128 2669 440 2669 1264 
C 2669 2030 2170 2624 1549 2624 
C 1222 2624 947 2503 730 2274 
L 730 3692 
z
" transform="scale(0.015625)"/>
      </defs>
      <use xlink:href="#CMR17-35" transform="scale(0.996264)"/>
     </g>
    </g>
   </g>
  </g>
  <g id="axis3d_2">
   <g id="line2d_8">
    <path d="M 77.368408 252.391849 
L 255.98221 259.130721 
" style="fill: none; stroke: #000000; stroke-width: 0.8; stroke-linecap: square"/>
   </g>
   <g id="text_8">
    <!-- y -->
    <g transform="translate(138.447019 285.472554)scale(0.16 -0.16)">
     <defs>
      <path id="CMSS17-79" d="M 2675 2752 
L 2176 2752 
C 1632 1294 1446 702 1434 383 
L 1427 383 
C 1408 696 1126 1460 902 2007 
L 602 2752 
L 83 2752 
L 1216 13 
C 1146 -178 1043 -465 1011 -529 
C 870 -885 774 -885 672 -885 
C 646 -885 442 -885 211 -809 
L 250 -1229 
C 410 -1261 570 -1280 685 -1280 
C 845 -1280 1165 -1280 1459 -497 
L 2675 2752 
z
" transform="scale(0.015625)"/>
     </defs>
     <use xlink:href="#CMSS17-79" transform="scale(0.996264)"/>
    </g>
   </g>
   <g id="Line3DCollection_2">
    <path d="M 236.153145 90.554092 
L 236.153145 245.705367 
L 96.719524 253.121942 
" style="fill: none; stroke: #b0b0b0; stroke-width: 0.8"/>
    <path d="M 267.881422 89.525169 
L 267.881422 246.734291 
L 129.496544 254.358577 
" style="fill: none; stroke: #b0b0b0; stroke-width: 0.8"/>
    <path d="M 300.462668 88.468584 
L 300.462668 247.790875 
L 163.241456 255.63173 
" style="fill: none; stroke: #b0b0b0; stroke-width: 0.8"/>
    <path d="M 333.931747 87.383208 
L 333.931747 248.876251 
L 197.997777 256.943042 
" style="fill: none; stroke: #b0b0b0; stroke-width: 0.8"/>
    <path d="M 368.325451 86.267847 
L 368.325451 249.991613 
L 233.811668 258.294254 
" style="fill: none; stroke: #b0b0b0; stroke-width: 0.8"/>
   </g>
   <g id="xtick_7">
    <g id="line2d_9">
     <path d="M 97.940703 253.056986 
L 94.271554 253.252151 
" style="fill: none; stroke: #000000; stroke-width: 0.8; stroke-linecap: square"/>
    </g>
    <g id="text_9">
     <!-- $\mathdefault{−4}$ -->
     <g transform="translate(80.534576 271.489626)scale(0.1 -0.1)">
      <defs>
       <path id="CMSY10-0" d="M 4218 1472 
C 4326 1472 4442 1472 4442 1600 
C 4442 1728 4326 1728 4218 1728 
L 755 1728 
C 646 1728 531 1728 531 1600 
C 531 1472 646 1472 755 1472 
L 4218 1472 
z
" transform="scale(0.015625)"/>
      </defs>
      <use xlink:href="#CMSY10-0" transform="scale(0.996264)"/>
      <use xlink:href="#CMR17-34" transform="translate(77.487468 0)scale(0.996264)"/>
     </g>
    </g>
   </g>
   <g id="xtick_8">
    <g id="line2d_10">
     <path d="M 130.710063 254.291719 
L 127.063847 254.492606 
" style="fill: none; stroke: #000000; stroke-width: 0.8; stroke-linecap: square"/>
    </g>
    <g id="text_10">
     <!-- $\mathdefault{−2}$ -->
     <g transform="translate(113.372209 272.901597)scale(0.1 -0.1)">
      <use xlink:href="#CMSY10-0" transform="scale(0.996264)"/>
      <use xlink:href="#CMR17-32" transform="translate(77.487468 0)scale(0.996264)"/>
     </g>
    </g>
   </g>
   <g id="xtick_9">
    <g id="line2d_11">
     <path d="M 164.446328 255.562883 
L 160.826011 255.769749 
" style="fill: none; stroke: #000000; stroke-width: 0.8; stroke-linecap: square"/>
    </g>
    <g id="text_11">
     <!-- $\mathdefault{0}$ -->
     <g transform="translate(151.060032 274.355526)scale(0.1 -0.1)">
      <use xlink:href="#CMR17-30" transform="scale(0.996264)"/>
     </g>
    </g>
   </g>
   <g id="xtick_10">
    <g id="line2d_12">
     <path d="M 199.192935 256.872117 
L 195.601721 257.085232 
" style="fill: none; stroke: #000000; stroke-width: 0.8; stroke-linecap: square"/>
    </g>
    <g id="text_12">
     <!-- $\mathdefault{2}$ -->
     <g transform="translate(185.893456 275.853313)scale(0.1 -0.1)">
      <use xlink:href="#CMR17-32" transform="scale(0.996264)"/>
     </g>
    </g>
   </g>
   <g id="xtick_11">
    <g id="line2d_13">
     <path d="M 234.995959 258.221156 
L 231.43731 258.440808 
" style="fill: none; stroke: #000000; stroke-width: 0.8; stroke-linecap: square"/>
    </g>
    <g id="text_13">
     <!-- $\mathdefault{4}$ -->
     <g transform="translate(221.79371 277.396972)scale(0.1 -0.1)">
      <use xlink:href="#CMR17-34" transform="scale(0.996264)"/>
     </g>
    </g>
   </g>
  </g>
  <g id="axis3d_3">
   <g id="line2d_14">
    <path d="M 77.368408 252.391849 
L 77.368408 83.867611 
" style="fill: none; stroke: #000000; stroke-width: 0.8; stroke-linecap: square"/>
   </g>
   <g id="text_14">
    <!-- z -->
    <g transform="translate(29.595059 172.114786)scale(0.16 -0.16)">
     <defs>
      <path id="CMSS17-7a" d="M 2400 2502 
L 2400 2750 
L 250 2750 
L 250 2368 
L 1069 2368 
C 1146 2368 1222 2368 1299 2368 
L 1747 2368 
L 166 261 
L 166 0 
L 2419 0 
L 2419 395 
L 1549 395 
C 1472 395 1395 395 1318 395 
L 826 395 
L 2400 2502 
z
" transform="scale(0.015625)"/>
     </defs>
     <use xlink:href="#CMSS17-7a" transform="scale(0.996264)"/>
    </g>
   </g>
   <g id="Line3DCollection_3">
    <path d="M 77.368408 249.021364 
L 217.38334 242.017999 
L 389.569299 247.378502 
" style="fill: none; stroke: #b0b0b0; stroke-width: 0.8"/>
    <path d="M 77.368408 216.66471 
L 217.38334 212.462691 
L 389.569299 215.678993 
" style="fill: none; stroke: #b0b0b0; stroke-width: 0.8"/>
    <path d="M 77.368408 184.308057 
L 217.38334 182.907384 
L 389.569299 183.979484 
" style="fill: none; stroke: #b0b0b0; stroke-width: 0.8"/>
    <path d="M 77.368408 151.951403 
L 217.38334 153.352076 
L 389.569299 152.279975 
" style="fill: none; stroke: #b0b0b0; stroke-width: 0.8"/>
    <path d="M 77.368408 119.594749 
L 217.38334 123.796768 
L 389.569299 120.580466 
" style="fill: none; stroke: #b0b0b0; stroke-width: 0.8"/>
    <path d="M 77.368408 87.238095 
L 217.38334 94.24146 
L 389.569299 88.880958 
" style="fill: none; stroke: #b0b0b0; stroke-width: 0.8"/>
   </g>
   <g id="xtick_12">
    <g id="line2d_15">
     <path d="M 78.593767 248.960073 
L 74.912107 249.144225 
" style="fill: none; stroke: #000000; stroke-width: 0.8; stroke-linecap: square"/>
    </g>
    <g id="text_15">
     <!-- $\mathdefault{0}$ -->
     <g transform="translate(54.491079 256.047141)scale(0.1 -0.1)">
      <use xlink:href="#CMR17-30" transform="scale(0.996264)"/>
     </g>
    </g>
   </g>
   <g id="xtick_13">
    <g id="line2d_16">
     <path d="M 78.593767 216.627936 
L 74.912107 216.738427 
" style="fill: none; stroke: #000000; stroke-width: 0.8; stroke-linecap: square"/>
    </g>
    <g id="text_16">
     <!-- $\mathdefault{1}$ -->
     <g transform="translate(54.491079 223.647576)scale(0.1 -0.1)">
      <use xlink:href="#CMR17-31" transform="scale(0.996264)"/>
     </g>
    </g>
   </g>
   <g id="xtick_14">
    <g id="line2d_17">
     <path d="M 78.593767 184.295798 
L 74.912107 184.332629 
" style="fill: none; stroke: #000000; stroke-width: 0.8; stroke-linecap: square"/>
    </g>
    <g id="text_17">
     <!-- $\mathdefault{2}$ -->
     <g transform="translate(54.491079 191.248011)scale(0.1 -0.1)">
      <use xlink:href="#CMR17-32" transform="scale(0.996264)"/>
     </g>
    </g>
   </g>
   <g id="xtick_15">
    <g id="line2d_18">
     <path d="M 78.593767 151.963661 
L 74.912107 151.926831 
" style="fill: none; stroke: #000000; stroke-width: 0.8; stroke-linecap: square"/>
    </g>
    <g id="text_18">
     <!-- $\mathdefault{3}$ -->
     <g transform="translate(54.491079 158.848446)scale(0.1 -0.1)">
      <use xlink:href="#CMR17-33" transform="scale(0.996264)"/>
     </g>
    </g>
   </g>
   <g id="xtick_16">
    <g id="line2d_19">
     <path d="M 78.593767 119.631524 
L 74.912107 119.521033 
" style="fill: none; stroke: #000000; stroke-width: 0.8; stroke-linecap: square"/>
    </g>
    <g id="text_19">
     <!-- $\mathdefault{4}$ -->
     <g transform="translate(54.491079 126.44888)scale(0.1 -0.1)">
      <use xlink:href="#CMR17-34" transform="scale(0.996264)"/>
     </g>
    </g>
   </g>
   <g id="xtick_17">
    <g id="line2d_20">
     <path d="M 78.593767 87.299386 
L 74.912107 87.115234 
" style="fill: none; stroke: #000000; stroke-width: 0.8; stroke-linecap: square"/>
    </g>
    <g id="text_20">
     <!-- $\mathdefault{5}$ -->
     <g transform="translate(54.491079 94.049315)scale(0.1 -0.1)">
      <use xlink:href="#CMR17-35" transform="scale(0.996264)"/>
     </g>
    </g>
   </g>
  </g>
  <g id="axes_1">
   <g id="line2d_21">
    <path d="M 297.95968 244.74173 
L 324.446529 88.538269 
" clip-path="url(#pcb9516c457)" style="fill: none; stroke: #ff0000; stroke-width: 1.5; stroke-linecap: square"/>
   </g>
   <g id="line2d_22">
    <path d="M 297.95968 244.74173 
L 215.029277 121.176261 
" clip-path="url(#pcb9516c457)" style="fill: none; stroke: #00ff00; stroke-width: 1.5; stroke-linecap: square"/>
   </g>
   <g id="line2d_23">
    <path d="M 297.95968 244.74173 
L 247.518079 -1 
" clip-path="url(#pcb9516c457)" style="fill: none; stroke: #0016ff; stroke-width: 1.5; stroke-linecap: square"/>
   </g>
   <g id="line2d_24">
    <path d="M 297.95968 244.74173 
L 116.029828 151.724959 
" clip-path="url(#pcb9516c457)" style="fill: none; stroke: #f400ff; stroke-width: 1.5; stroke-linecap: square"/>
   </g>
   <g id="Poly3DCollection_1">
    <path d="M 218.038284 353.421914 
L 205.624551 313.87271 
L 213.40619 303.104999 
L 225.795396 342.873494 
z
" clip-path="url(#pcb9516c457)" style="fill: #0000f5; fill-opacity: 0.1"/>
    <path d="M 225.795396 342.873494 
L 213.40619 303.104999 
L 221.23928 292.266094 
L 233.603367 332.255915 
z
" clip-path="url(#pcb9516c457)" style="fill: #0000f5; fill-opacity: 0.1"/>
    <path d="M 233.603367 332.255915 
L 221.23928 292.266094 
L 229.124334 281.355286 
L 241.462699 321.568495 
z
" clip-path="url(#pcb9516c457)" style="fill: #0000f5; fill-opacity: 0.1"/>
    <path d="M 205.624551 313.87271 
L 193.000318 273.652871 
L 200.806202 262.659909 
L 213.40619 303.104999 
z
" clip-path="url(#pcb9516c457)" style="fill: #0000f5; fill-opacity: 0.1"/>
    <path d="M 241.462699 321.568495 
L 229.124334 281.355286 
L 237.061869 270.371857 
L 249.373899 310.810541 
z
" clip-path="url(#pcb9516c457)" style="fill: #0000f5; fill-opacity: 0.1"/>
    <path d="M 213.40619 303.104999 
L 200.806202 262.659909 
L 208.664137 251.593644 
L 221.23928 292.266094 
z
" clip-path="url(#pcb9516c457)" style="fill: #0000f5; fill-opacity: 0.1"/>
    <path d="M 249.373899 310.810541 
L 237.061869 270.371857 
L 245.052412 259.315079 
L 257.337483 299.981354 
z
" clip-path="url(#pcb9516c457)" style="fill: #0000f5; fill-opacity: 0.1"/>
    <path d="M 221.23928 292.266094 
L 208.664137 251.593644 
L 216.574647 240.453339 
L 229.124334 281.355286 
z
" clip-path="url(#pcb9516c457)" style="fill: #0000f5; fill-opacity: 0.1"/>
    <path d="M 257.337483 299.981354 
L 245.052412 259.315079 
L 253.096495 248.184216 
L 265.353973 289.080222 
z
" clip-path="url(#pcb9516c457)" style="fill: #0000f5; fill-opacity: 0.1"/>
    <path d="M 193.000318 273.652871 
L 180.160185 232.745193 
L 187.990006 221.52081 
L 200.806202 262.659909 
z
" clip-path="url(#pcb9516c457)" style="fill: #0000f5; fill-opacity: 0.1"/>
    <path d="M 229.124334 281.355286 
L 216.574647 240.453339 
L 224.538261 229.238248 
L 237.061869 270.371857 
z
" clip-path="url(#pcb9516c457)" style="fill: #0000f5; fill-opacity: 0.1"/>
    <path d="M 265.353973 289.080222 
L 253.096495 248.184216 
L 261.194659 236.978521 
L 273.423898 278.106428 
z
" clip-path="url(#pcb9516c457)" style="fill: #0000f5; fill-opacity: 0.1"/>
    <path d="M 200.806202 262.659909 
L 187.990006 221.52081 
L 195.872488 210.220937 
L 208.664137 251.593644 
z
" clip-path="url(#pcb9516c457)" style="fill: #0000f5; fill-opacity: 0.1"/>
    <path d="M 237.061869 270.371857 
L 224.538261 229.238248 
L 232.555515 217.947616 
L 245.052412 259.315079 
z
" clip-path="url(#pcb9516c457)" style="fill: #0000f5; fill-opacity: 0.1"/>
    <path d="M 273.423898 278.106428 
L 261.194659 236.978521 
L 269.34745 225.697235 
L 281.547794 267.059242 
z
" clip-path="url(#pcb9516c457)" style="fill: #0000f5; fill-opacity: 0.1"/>
    <path d="M 208.664137 251.593644 
L 195.872488 210.220937 
L 203.808164 198.844807 
L 216.574647 240.453339 
z
" clip-path="url(#pcb9516c457)" style="fill: #0000f5; fill-opacity: 0.1"/>
    <path d="M 245.052412 259.315079 
L 232.555515 217.947616 
L 240.626953 206.580677 
L 253.096495 248.184216 
z
" clip-path="url(#pcb9516c457)" style="fill: #0000f5; fill-opacity: 0.1"/>
    <path d="M 180.160185 232.745193 
L 167.098568 191.131878 
L 174.951991 179.669684 
L 187.990006 221.52081 
z
" clip-path="url(#pcb9516c457)" style="fill: #0000f5; fill-opacity: 0.1"/>
    <path d="M 281.547794 267.059242 
L 269.34745 225.697235 
L 277.555423 214.339592 
L 289.726205 255.937926 
z
" clip-path="url(#pcb9516c457)" style="fill: #0000f5; fill-opacity: 0.1"/>
    <path d="M 216.574647 240.453339 
L 203.808164 198.844807 
L 211.797575 187.391646 
L 224.538261 229.238248 
z
" clip-path="url(#pcb9516c457)" style="fill: #0000f5; fill-opacity: 0.1"/>
    <path d="M 253.096495 248.184216 
L 240.626953 206.580677 
L 248.753127 195.136655 
L 261.194659 236.978521 
z
" clip-path="url(#pcb9516c457)" style="fill: #0000f5; fill-opacity: 0.1"/>
    <path d="M 187.990006 221.52081 
L 174.951991 179.669684 
L 182.858693 168.12973 
L 195.872488 210.220937 
z
" clip-path="url(#pcb9516c457)" style="fill: #0000f5; fill-opacity: 0.1"/>
    <path d="M 289.726205 255.937926 
L 277.555423 214.339592 
L 285.819141 202.904814 
L 297.95968 244.74173 
z
" clip-path="url(#pcb9516c457)" style="fill: #0000f5; fill-opacity: 0.1"/>
    <path d="M 224.538261 229.238248 
L 211.797575 187.391646 
L 219.841267 175.86067 
L 232.555515 217.947616 
z
" clip-path="url(#pcb9516c457)" style="fill: #0000f5; fill-opacity: 0.1"/>
    <path d="M 261.194659 236.978521 
L 248.753127 195.136655 
L 256.934594 183.614763 
L 269.34745 225.697235 
z
" clip-path="url(#pcb9516c457)" style="fill: #0000f5; fill-opacity: 0.1"/>
    <path d="M 195.872488 210.220937 
L 182.858693 168.12973 
L 190.819217 156.51122 
L 203.808164 198.844807 
z
" clip-path="url(#pcb9516c457)" style="fill: #0000f5; fill-opacity: 0.1"/>
    <path d="M 297.95968 244.74173 
L 285.819141 202.904814 
L 294.139172 191.392112 
L 306.248778 233.469896 
z
" clip-path="url(#pcb9516c457)" style="fill: #0000f5; fill-opacity: 0.1"/>
    <path d="M 232.555515 217.947616 
L 219.841267 175.86067 
L 227.939796 164.251083 
L 240.626953 206.580677 
z
" clip-path="url(#pcb9516c457)" style="fill: #0000f5; fill-opacity: 0.1"/>
    <path d="M 167.098568 191.131878 
L 153.809683 148.794511 
L 161.686347 137.087884 
L 174.951991 179.669684 
z
" clip-path="url(#pcb9516c457)" style="fill: #0000f5; fill-opacity: 0.1"/>
    <path d="M 269.34745 225.697235 
L 256.934594 183.614763 
L 265.171921 172.014204 
L 277.555423 214.339592 
z
" clip-path="url(#pcb9516c457)" style="fill: #0000f5; fill-opacity: 0.1"/>
    <path d="M 203.808164 198.844807 
L 190.819217 156.51122 
L 198.834115 144.813352 
L 211.797575 187.391646 
z
" clip-path="url(#pcb9516c457)" style="fill: #0000f5; fill-opacity: 0.1"/>
    <path d="M 306.248778 233.469896 
L 294.139172 191.392112 
L 302.516096 179.800688 
L 314.594064 222.121655 
z
" clip-path="url(#pcb9516c457)" style="fill: #0000f5; fill-opacity: 0.1"/>
    <path d="M 240.626953 206.580677 
L 227.939796 164.251083 
L 236.093725 152.562078 
L 248.753127 195.136655 
z
" clip-path="url(#pcb9516c457)" style="fill: #0000f5; fill-opacity: 0.1"/>
    <path d="M 174.951991 179.669684 
L 161.686347 137.087884 
L 169.616914 125.301143 
L 182.858693 168.12973 
z
" clip-path="url(#pcb9516c457)" style="fill: #0000f5; fill-opacity: 0.1"/>
    <path d="M 277.555423 214.339592 
L 265.171921 172.014204 
L 273.465683 160.334169 
L 285.819141 202.904814 
z
" clip-path="url(#pcb9516c457)" style="fill: #0000f5; fill-opacity: 0.1"/>
    <path d="M 211.797575 187.391646 
L 198.834115 144.813352 
L 206.903946 133.035307 
L 219.841267 175.86067 
z
" clip-path="url(#pcb9516c457)" style="fill: #0000f5; fill-opacity: 0.1"/>
    <path d="M 314.594064 222.121655 
L 302.516096 179.800688 
L 310.950496 168.12973 
L 322.996112 210.696227 
z
" clip-path="url(#pcb9516c457)" style="fill: #0000f5; fill-opacity: 0.1"/>
    <path d="M 248.753127 195.136655 
L 236.093725 152.562078 
L 244.303625 140.792837 
L 256.934594 183.614763 
z
" clip-path="url(#pcb9516c457)" style="fill: #0000f5; fill-opacity: 0.1"/>
    <path d="M 182.858693 168.12973 
L 169.616914 125.301143 
L 177.60194 113.433462 
L 190.819217 156.51122 
z
" clip-path="url(#pcb9516c457)" style="fill: #0000f5; fill-opacity: 0.1"/>
    <path d="M 285.819141 202.904814 
L 273.465683 160.334169 
L 281.81646 148.573838 
L 294.139172 191.392112 
z
" clip-path="url(#pcb9516c457)" style="fill: #0000f5; fill-opacity: 0.1"/>
    <path d="M 219.841267 175.86067 
L 206.903946 133.035307 
L 215.029277 121.176261 
L 227.939796 164.251083 
z
" clip-path="url(#pcb9516c457)" style="fill: #0000f5; fill-opacity: 0.1"/>
    <path d="M 153.809683 148.794511 
L 140.28755 105.714028 
L 148.187059 93.756107 
L 161.686347 137.087884 
z
" clip-path="url(#pcb9516c457)" style="fill: #0000f5; fill-opacity: 0.1"/>
    <path d="M 322.996112 210.696227 
L 310.950496 168.12973 
L 319.442968 156.378417 
L 331.455503 199.192822 
z
" clip-path="url(#pcb9516c457)" style="fill: #0000f5; fill-opacity: 0.1"/>
    <path d="M 256.934594 183.614763 
L 244.303625 140.792837 
L 252.570073 128.942532 
L 265.171921 172.014204 
z
" clip-path="url(#pcb9516c457)" style="fill: #0000f5; fill-opacity: 0.1"/>
    <path d="M 190.819217 156.51122 
L 177.60194 113.433462 
L 185.641989 101.484004 
L 198.834115 144.813352 
z
" clip-path="url(#pcb9516c457)" style="fill: #0000f5; fill-opacity: 0.1"/>
    <path d="M 294.139172 191.392112 
L 281.81646 148.573838 
L 290.224844 136.732382 
L 302.516096 179.800688 
z
" clip-path="url(#pcb9516c457)" style="fill: #0000f5; fill-opacity: 0.1"/>
    <path d="M 227.939796 164.251083 
L 215.029277 121.176261 
L 223.210682 109.235373 
L 236.093725 152.562078 
z
" clip-path="url(#pcb9516c457)" style="fill: #0000f5; fill-opacity: 0.1"/>
    <path d="M 161.686347 137.087884 
L 148.187059 93.756107 
L 156.141107 81.715628 
L 169.616914 125.301143 
z
" clip-path="url(#pcb9516c457)" style="fill: #0000f5; fill-opacity: 0.1"/>
    <path d="M 331.455503 199.192822 
L 319.442968 156.378417 
L 327.994112 144.545918 
L 339.972826 187.61064 
z
" clip-path="url(#pcb9516c457)" style="fill: #0000f5; fill-opacity: 0.1"/>
    <path d="M 265.171921 172.014204 
L 252.570073 128.942532 
L 260.893655 117.010321 
L 273.465683 160.334169 
z
" clip-path="url(#pcb9516c457)" style="fill: #0000f5; fill-opacity: 0.1"/>
    <path d="M 198.834115 144.813352 
L 185.641989 101.484004 
L 193.737631 89.451922 
L 206.903946 133.035307 
z
" clip-path="url(#pcb9516c457)" style="fill: #0000f5; fill-opacity: 0.1"/>
    <path d="M 302.516096 179.800688 
L 290.224844 136.732382 
L 298.691432 124.808956 
L 310.950496 168.12973 
z
" clip-path="url(#pcb9516c457)" style="fill: #0000f5; fill-opacity: 0.1"/>
    <path d="M 236.093725 152.562078 
L 223.210682 109.235373 
L 231.448743 97.211794 
L 244.303625 140.792837 
z
" clip-path="url(#pcb9516c457)" style="fill: #0000f5; fill-opacity: 0.1"/>
    <path d="M 169.616914 125.301143 
L 156.141107 81.715628 
L 164.15026 69.591734 
L 177.60194 113.433462 
z
" clip-path="url(#pcb9516c457)" style="fill: #0000f5; fill-opacity: 0.1"/>
    <path d="M 339.972826 187.61064 
L 327.994112 144.545918 
L 336.604538 132.631387 
L 348.548678 175.948867 
z
" clip-path="url(#pcb9516c457)" style="fill: #0000f5; fill-opacity: 0.1"/>
    <path d="M 273.465683 160.334169 
L 260.893655 117.010321 
L 269.274967 104.995354 
L 281.81646 148.573838 
z
" clip-path="url(#pcb9516c457)" style="fill: #0000f5; fill-opacity: 0.1"/>
    <path d="M 206.903946 133.035307 
L 193.737631 89.451922 
L 201.889445 77.336355 
L 215.029277 121.176261 
z
" clip-path="url(#pcb9516c457)" style="fill: #0000f5; fill-opacity: 0.1"/>
    <path d="M 140.28755 105.714028 
L 126.52597 61.870691 
L 134.447902 49.654363 
L 148.187059 93.756107 
z
" clip-path="url(#pcb9516c457)" style="fill: #0000f5; fill-opacity: 0.1"/>
    <path d="M 310.950496 168.12973 
L 298.691432 124.808956 
L 307.216831 112.802708 
L 319.442968 156.378417 
z
" clip-path="url(#pcb9516c457)" style="fill: #0000f5; fill-opacity: 0.1"/>
    <path d="M 244.303625 140.792837 
L 231.448743 97.211794 
L 239.744051 85.104663 
L 252.570073 128.942532 
z
" clip-path="url(#pcb9516c457)" style="fill: #0000f5; fill-opacity: 0.1"/>
    <path d="M 177.60194 113.433462 
L 164.15026 69.591734 
L 172.215092 57.383555 
L 185.641989 101.484004 
z
" clip-path="url(#pcb9516c457)" style="fill: #0000f5; fill-opacity: 0.1"/>
    <path d="M 348.548678 175.948867 
L 336.604538 132.631387 
L 345.274867 120.633968 
L 357.183664 164.206682 
z
" clip-path="url(#pcb9516c457)" style="fill: #0000f5; fill-opacity: 0.1"/>
    <path d="M 281.81646 148.573838 
L 269.274967 104.995354 
L 277.71461 92.896765 
L 290.224844 136.732382 
z
" clip-path="url(#pcb9516c457)" style="fill: #0000f5; fill-opacity: 0.1"/>
    <path d="M 215.029277 121.176261 
L 201.889445 77.336355 
L 210.098016 65.136432 
L 223.210682 109.235373 
z
" clip-path="url(#pcb9516c457)" style="fill: #0000f5; fill-opacity: 0.1"/>
    <path d="M 148.187059 93.756107 
L 134.447902 49.654363 
L 142.425013 37.352941 
L 156.141107 81.715628 
z
" clip-path="url(#pcb9516c457)" style="fill: #0000f5; fill-opacity: 0.1"/>
    <path d="M 319.442968 156.378417 
L 307.216831 112.802708 
L 315.801655 100.712772 
L 327.994112 144.545918 
z
" clip-path="url(#pcb9516c457)" style="fill: #0000f5; fill-opacity: 0.1"/>
    <path d="M 252.570073 128.942532 
L 239.744051 85.104663 
L 248.097205 72.913104 
L 260.893655 117.010321 
z
" clip-path="url(#pcb9516c457)" style="fill: #0000f5; fill-opacity: 0.1"/>
    <path d="M 185.641989 101.484004 
L 172.215092 57.383555 
L 180.336187 45.090208 
L 193.737631 89.451922 
z
" clip-path="url(#pcb9516c457)" style="fill: #0000f5; fill-opacity: 0.1"/>
    <path d="M 357.183664 164.206682 
L 345.274867 120.633968 
L 354.005723 108.552794 
L 365.878398 152.383248 
z
" clip-path="url(#pcb9516c457)" style="fill: #0000f5; fill-opacity: 0.1"/>
    <path d="M 290.224844 136.732382 
L 277.71461 92.896765 
L 286.213197 80.713679 
L 298.691432 124.808956 
z
" clip-path="url(#pcb9516c457)" style="fill: #0000f5; fill-opacity: 0.1"/>
    <path d="M 223.210682 109.235373 
L 210.098016 65.136432 
L 218.363941 52.851269 
L 231.448743 97.211794 
z
" clip-path="url(#pcb9516c457)" style="fill: #0000f5; fill-opacity: 0.1"/>
    <path d="M 156.141107 81.715628 
L 142.425013 37.352941 
L 150.457884 24.965533 
L 164.15026 69.591734 
z
" clip-path="url(#pcb9516c457)" style="fill: #0000f5; fill-opacity: 0.1"/>
    <path d="M 327.994112 144.545918 
L 315.801655 100.712772 
L 324.446529 88.538269 
L 336.604538 132.631387 
z
" clip-path="url(#pcb9516c457)" style="fill: #0000f5; fill-opacity: 0.1"/>
    <path d="M 260.893655 117.010321 
L 248.097205 72.913104 
L 256.508813 60.636232 
L 269.274967 104.995354 
z
" clip-path="url(#pcb9516c457)" style="fill: #0000f5; fill-opacity: 0.1"/>
    <path d="M 193.737631 89.451922 
L 180.336187 45.090208 
L 188.514135 32.7108 
L 201.889445 77.336355 
z
" clip-path="url(#pcb9516c457)" style="fill: #0000f5; fill-opacity: 0.1"/>
    <path d="M 126.52597 61.870691 
L 112.518529 17.244056 
L 120.462423 4.761945 
L 134.447902 49.654363 
z
" clip-path="url(#pcb9516c457)" style="fill: #0000f5; fill-opacity: 0.1"/>
    <path d="M 365.878398 152.383248 
L 354.005723 108.552794 
L 362.797745 96.386984 
L 374.633502 140.477721 
z
" clip-path="url(#pcb9516c457)" style="fill: #0000f5; fill-opacity: 0.1"/>
    <path d="M 298.691432 124.808956 
L 286.213197 80.713679 
L 294.771345 68.445208 
L 307.216831 112.802708 
z
" clip-path="url(#pcb9516c457)" style="fill: #0000f5; fill-opacity: 0.1"/>
    <path d="M 231.448743 97.211794 
L 218.363941 52.851269 
L 226.687822 40.479968 
L 239.744051 85.104663 
z
" clip-path="url(#pcb9516c457)" style="fill: #0000f5; fill-opacity: 0.1"/>
    <path d="M 164.15026 69.591734 
L 150.457884 24.965533 
L 158.547101 12.491235 
L 172.215092 57.383555 
z
" clip-path="url(#pcb9516c457)" style="fill: #0000f5; fill-opacity: 0.1"/>
    <path d="M 336.604538 132.631387 
L 324.446529 88.538269 
L 333.152084 76.278309 
L 345.274867 120.633968 
z
" clip-path="url(#pcb9516c457)" style="fill: #0000f5; fill-opacity: 0.1"/>
    <path d="M 269.274967 104.995354 
L 256.508813 60.636232 
L 264.979489 48.273148 
L 277.71461 92.896765 
z
" clip-path="url(#pcb9516c457)" style="fill: #0000f5; fill-opacity: 0.1"/>
    <path d="M 201.889445 77.336355 
L 188.514135 32.7108 
L 196.749535 20.244423 
L 210.098016 65.136432 
z
" clip-path="url(#pcb9516c457)" style="fill: #0000f5; fill-opacity: 0.1"/>
    <path d="M 134.447902 49.654363 
L 120.462423 4.761945 
L 128.462148 -7.807894 
L 142.425013 37.352941 
z
" clip-path="url(#pcb9516c457)" style="fill: #0000f5; fill-opacity: 0.1"/>
    <path d="M 307.216831 112.802708 
L 294.771345 68.445208 
L 303.389685 56.09045 
L 315.801655 100.712772 
z
" clip-path="url(#pcb9516c457)" style="fill: #0000f5; fill-opacity: 0.1"/>
    <path d="M 239.744051 85.104663 
L 226.687822 40.479968 
L 235.07027 28.021621 
L 248.097205 72.913104 
z
" clip-path="url(#pcb9516c457)" style="fill: #0000f5; fill-opacity: 0.1"/>
    <path d="M 172.215092 57.383555 
L 158.547101 12.491235 
L 166.693259 -0.070871 
L 180.336187 45.090208 
z
" clip-path="url(#pcb9516c457)" style="fill: #0000f5; fill-opacity: 0.1"/>
    <path d="M 345.274867 120.633968 
L 333.152084 76.278309 
L 341.918961 63.931988 
L 354.005723 108.552794 
z
" clip-path="url(#pcb9516c457)" style="fill: #0000f5; fill-opacity: 0.1"/>
    <path d="M 277.71461 92.896765 
L 264.979489 48.273148 
L 273.509859 35.82294 
L 286.213197 80.713679 
z
" clip-path="url(#pcb9516c457)" style="fill: #0000f5; fill-opacity: 0.1"/>
    <path d="M 210.098016 65.136432 
L 196.749535 20.244423 
L 205.042994 7.690158 
L 218.363941 52.851269 
z
" clip-path="url(#pcb9516c457)" style="fill: #0000f5; fill-opacity: 0.1"/>
    <path d="M 142.425013 37.352941 
L 128.462148 -7.807894 
L 136.518295 -20.466388 
L 150.457884 24.965533 
z
" clip-path="url(#pcb9516c457)" style="fill: #0000f5; fill-opacity: 0.1"/>
    <path d="M 315.801655 100.712772 
L 303.389685 56.09045 
L 312.068853 43.648493 
L 324.446529 88.538269 
z
" clip-path="url(#pcb9516c457)" style="fill: #0000f5; fill-opacity: 0.1"/>
    <path d="M 248.097205 72.913104 
L 235.07027 28.021621 
L 243.511907 15.475307 
L 256.508813 60.636232 
z
" clip-path="url(#pcb9516c457)" style="fill: #0000f5; fill-opacity: 0.1"/>
    <path d="M 180.336187 45.090208 
L 166.693259 -0.070871 
L 174.89696 -12.721715 
L 188.514135 32.7108 
z
" clip-path="url(#pcb9516c457)" style="fill: #0000f5; fill-opacity: 0.1"/>
    <path d="M 112.518529 17.244056 
L 98.258578 -28.187057 
L 106.223939 -40.942602 
L 120.462423 4.761945 
z
" clip-path="url(#pcb9516c457)" style="fill: #0000f5; fill-opacity: 0.1"/>
    <path d="M 354.005723 108.552794 
L 341.918961 63.931988 
L 350.747811 51.498392 
L 362.797745 96.386984 
z
" clip-path="url(#pcb9516c457)" style="fill: #0000f5; fill-opacity: 0.1"/>
    <path d="M 286.213197 80.713679 
L 273.509859 35.82294 
L 282.100554 23.284686 
L 294.771345 68.445208 
z
" clip-path="url(#pcb9516c457)" style="fill: #0000f5; fill-opacity: 0.1"/>
    <path d="M 218.363941 52.851269 
L 205.042994 7.690158 
L 213.39513 -4.952927 
L 226.687822 40.479968 
z
" clip-path="url(#pcb9516c457)" style="fill: #0000f5; fill-opacity: 0.1"/>
    <path d="M 150.457884 24.965533 
L 136.518295 -20.466388 
L 144.631463 -33.214478 
L 158.547101 12.491235 
z
" clip-path="url(#pcb9516c457)" style="fill: #0000f5; fill-opacity: 0.1"/>
    <path d="M 324.446529 88.538269 
L 312.068853 43.648493 
L 320.809495 31.11841 
L 333.152084 76.278309 
z
" clip-path="url(#pcb9516c457)" style="fill: #0000f5; fill-opacity: 0.1"/>
    <path d="M 256.508813 60.636232 
L 243.511907 15.475307 
L 252.013362 2.840089 
L 264.979489 48.273148 
z
" clip-path="url(#pcb9516c457)" style="fill: #0000f5; fill-opacity: 0.1"/>
    <path d="M 188.514135 32.7108 
L 174.89696 -12.721715 
L 183.158818 -25.462241 
L 196.749535 20.244423 
z
" clip-path="url(#pcb9516c457)" style="fill: #0000f5; fill-opacity: 0.1"/>
    <path d="M 120.462423 4.761945 
L 106.223939 -40.942602 
L 114.245791 -53.788611 
L 128.462148 -7.807894 
z
" clip-path="url(#pcb9516c457)" style="fill: #0000f5; fill-opacity: 0.1"/>
    <path d="M 294.771345 68.445208 
L 282.100554 23.284686 
L 290.752219 10.657447 
L 303.389685 56.09045 
z
" clip-path="url(#pcb9516c457)" style="fill: #0000f5; fill-opacity: 0.1"/>
    <path d="M 226.687822 40.479968 
L 213.39513 -4.952927 
L 221.806566 -17.68578 
L 235.07027 28.021621 
z
" clip-path="url(#pcb9516c457)" style="fill: #0000f5; fill-opacity: 0.1"/>
    <path d="M 158.547101 12.491235 
L 144.631463 -33.214478 
L 152.80226 -46.053118 
L 166.693259 -0.070871 
z
" clip-path="url(#pcb9516c457)" style="fill: #0000f5; fill-opacity: 0.1"/>
    <path d="M 333.152084 76.278309 
L 320.809495 31.11841 
L 329.612268 18.499261 
L 341.918961 63.931988 
z
" clip-path="url(#pcb9516c457)" style="fill: #0000f5; fill-opacity: 0.1"/>
    <path d="M 264.979489 48.273148 
L 252.013362 2.840089 
L 260.575271 -9.88498 
L 273.509859 35.82294 
z
" clip-path="url(#pcb9516c457)" style="fill: #0000f5; fill-opacity: 0.1"/>
    <path d="M 196.749535 20.244423 
L 183.158818 -25.462241 
L 191.479453 -38.293406 
L 205.042994 7.690158 
z
" clip-path="url(#pcb9516c457)" style="fill: #0000f5; fill-opacity: 0.1"/>
    <path d="M 128.462148 -7.807894 
L 114.245791 -53.788611 
L 122.324736 -66.726047 
L 136.518295 -20.466388 
z
" clip-path="url(#pcb9516c457)" style="fill: #0000f5; fill-opacity: 0.1"/>
    <path d="M 303.389685 56.09045 
L 290.752219 10.657447 
L 299.465503 -2.059728 
L 312.068853 43.648493 
z
" clip-path="url(#pcb9516c457)" style="fill: #0000f5; fill-opacity: 0.1"/>
    <path d="M 235.07027 28.021621 
L 221.806566 -17.68578 
L 230.277937 -30.509359 
L 243.511907 15.475307 
z
" clip-path="url(#pcb9516c457)" style="fill: #0000f5; fill-opacity: 0.1"/>
    <path d="M 166.693259 -0.070871 
L 152.80226 -46.053118 
L 161.031301 -58.983278 
L 174.89696 -12.721715 
z
" clip-path="url(#pcb9516c457)" style="fill: #0000f5; fill-opacity: 0.1"/>
    <path d="M 341.918961 63.931988 
L 329.612268 18.499261 
L 338.477834 5.790093 
L 350.747811 51.498392 
z
" clip-path="url(#pcb9516c457)" style="fill: #0000f5; fill-opacity: 0.1"/>
    <path d="M 273.509859 35.82294 
L 260.575271 -9.88498 
L 269.198284 -22.700863 
L 282.100554 23.284686 
z
" clip-path="url(#pcb9516c457)" style="fill: #0000f5; fill-opacity: 0.1"/>
    <path d="M 205.042994 7.690158 
L 191.479453 -38.293406 
L 199.859493 -51.21618 
L 213.39513 -4.952927 
z
" clip-path="url(#pcb9516c457)" style="fill: #0000f5; fill-opacity: 0.1"/>
    <path d="M 136.518295 -20.466388 
L 122.324736 -66.726047 
L 130.461386 -79.755891 
L 144.631463 -33.214478 
z
" clip-path="url(#pcb9516c457)" style="fill: #0000f5; fill-opacity: 0.1"/>
    <path d="M 312.068853 43.648493 
L 299.465503 -2.059728 
L 308.241069 -14.867802 
L 320.809495 31.11841 
z
" clip-path="url(#pcb9516c457)" style="fill: #0000f5; fill-opacity: 0.1"/>
    <path d="M 243.511907 15.475307 
L 230.277937 -30.509359 
L 238.809885 -43.424637 
L 252.013362 2.840089 
z
" clip-path="url(#pcb9516c457)" style="fill: #0000f5; fill-opacity: 0.1"/>
    <path d="M 174.89696 -12.721715 
L 161.031301 -58.983278 
L 169.319213 -72.005939 
L 183.158818 -25.462241 
z
" clip-path="url(#pcb9516c457)" style="fill: #0000f5; fill-opacity: 0.1"/>
    <path d="M 282.100554 23.284686 
L 269.198284 -22.700863 
L 277.883055 -35.608534 
L 290.752219 10.657447 
z
" clip-path="url(#pcb9516c457)" style="fill: #0000f5; fill-opacity: 0.1"/>
    <path d="M 213.39513 -4.952927 
L 199.859493 -51.21618 
L 208.299578 -64.231548 
L 221.806566 -17.68578 
z
" clip-path="url(#pcb9516c457)" style="fill: #0000f5; fill-opacity: 0.1"/>
    <path d="M 144.631463 -33.214478 
L 130.461386 -79.755891 
L 138.656362 -92.879136 
L 152.80226 -46.053118 
z
" clip-path="url(#pcb9516c457)" style="fill: #0000f5; fill-opacity: 0.1"/>
    <path d="M 320.809495 31.11841 
L 308.241069 -14.867802 
L 317.079585 -27.767754 
L 329.612268 18.499261 
z
" clip-path="url(#pcb9516c457)" style="fill: #0000f5; fill-opacity: 0.1"/>
    <path d="M 252.013362 2.840089 
L 238.809885 -43.424637 
L 247.403063 -56.432602 
L 260.575271 -9.88498 
z
" clip-path="url(#pcb9516c457)" style="fill: #0000f5; fill-opacity: 0.1"/>
    <path d="M 183.158818 -25.462241 
L 169.319213 -72.005939 
L 177.666628 -85.122098 
L 191.479453 -38.293406 
z
" clip-path="url(#pcb9516c457)" style="fill: #0000f5; fill-opacity: 0.1"/>
    <path d="M 290.752219 10.657447 
L 277.883055 -35.608534 
L 286.630251 -48.608983 
L 299.465503 -2.059728 
z
" clip-path="url(#pcb9516c457)" style="fill: #0000f5; fill-opacity: 0.1"/>
    <path d="M 221.806566 -17.68578 
L 208.299578 -64.231548 
L 216.800355 -77.340509 
L 230.277937 -30.509359 
z
" clip-path="url(#pcb9516c457)" style="fill: #0000f5; fill-opacity: 0.1"/>
    <path d="M 152.80226 -46.053118 
L 138.656362 -92.879136 
L 146.910293 -106.096791 
L 161.031301 -58.983278 
z
" clip-path="url(#pcb9516c457)" style="fill: #0000f5; fill-opacity: 0.1"/>
    <path d="M 329.612268 18.499261 
L 317.079585 -27.767754 
L 325.981731 -40.760576 
L 338.477834 5.790093 
z
" clip-path="url(#pcb9516c457)" style="fill: #0000f5; fill-opacity: 0.1"/>
    <path d="M 260.575271 -9.88498 
L 247.403063 -56.432602 
L 256.058132 -69.534254 
L 269.198284 -22.700863 
z
" clip-path="url(#pcb9516c457)" style="fill: #0000f5; fill-opacity: 0.1"/>
    <path d="M 191.479453 -38.293406 
L 177.666628 -85.122098 
L 186.07419 -98.332764 
L 199.859493 -51.21618 
z
" clip-path="url(#pcb9516c457)" style="fill: #0000f5; fill-opacity: 0.1"/>
    <path d="M 299.465503 -2.059728 
L 286.630251 -48.608983 
L 295.440548 -61.703215 
L 308.241069 -14.867802 
z
" clip-path="url(#pcb9516c457)" style="fill: #0000f5; fill-opacity: 0.1"/>
    <path d="M 230.277937 -30.509359 
L 216.800355 -77.340509 
L 225.362482 -90.544077 
L 238.809885 -43.424637 
z
" clip-path="url(#pcb9516c457)" style="fill: #0000f5; fill-opacity: 0.1"/>
    <path d="M 161.031301 -58.983278 
L 146.910293 -106.096791 
L 155.223818 -119.409877 
L 169.319213 -72.005939 
z
" clip-path="url(#pcb9516c457)" style="fill: #0000f5; fill-opacity: 0.1"/>
    <path d="M 269.198284 -22.700863 
L 256.058132 -69.534254 
L 264.775763 -82.730611 
L 277.883055 -35.608534 
z
" clip-path="url(#pcb9516c457)" style="fill: #0000f5; fill-opacity: 0.1"/>
    <path d="M 199.859493 -51.21618 
L 186.07419 -98.332764 
L 194.542551 -111.638963 
L 208.299578 -64.231548 
z
" clip-path="url(#pcb9516c457)" style="fill: #0000f5; fill-opacity: 0.1"/>
    <path d="M 308.241069 -14.867802 
L 295.440548 -61.703215 
L 304.31463 -74.892248 
L 317.079585 -27.767754 
z
" clip-path="url(#pcb9516c457)" style="fill: #0000f5; fill-opacity: 0.1"/>
    <path d="M 238.809885 -43.424637 
L 225.362482 -90.544077 
L 233.986624 -103.843278 
L 247.403063 -56.432602 
z
" clip-path="url(#pcb9516c457)" style="fill: #0000f5; fill-opacity: 0.1"/>
    <path d="M 169.319213 -72.005939 
L 155.223818 -119.409877 
L 163.597584 -132.819432 
L 177.666628 -85.122098 
z
" clip-path="url(#pcb9516c457)" style="fill: #0000f5; fill-opacity: 0.1"/>
    <path d="M 277.883055 -35.608534 
L 264.775763 -82.730611 
L 273.556636 -96.022702 
L 286.630251 -48.608983 
z
" clip-path="url(#pcb9516c457)" style="fill: #0000f5; fill-opacity: 0.1"/>
    <path d="M 208.299578 -64.231548 
L 194.542551 -111.638963 
L 203.072374 -125.041736 
L 216.800355 -77.340509 
z
" clip-path="url(#pcb9516c457)" style="fill: #0000f5; fill-opacity: 0.1"/>
    <path d="M 317.079585 -27.767754 
L 304.31463 -74.892248 
L 313.253193 -88.177115 
L 325.981731 -40.760576 
z
" clip-path="url(#pcb9516c457)" style="fill: #0000f5; fill-opacity: 0.1"/>
    <path d="M 247.403063 -56.432602 
L 233.986624 -103.843278 
L 242.673458 -117.239156 
L 256.058132 -69.534254 
z
" clip-path="url(#pcb9516c457)" style="fill: #0000f5; fill-opacity: 0.1"/>
    <path d="M 177.666628 -85.122098 
L 163.597584 -132.819432 
L 172.032248 -146.326509 
L 186.07419 -98.332764 
z
" clip-path="url(#pcb9516c457)" style="fill: #0000f5; fill-opacity: 0.1"/>
    <path d="M 286.630251 -48.608983 
L 273.556636 -96.022702 
L 282.401444 -109.411572 
L 295.440548 -61.703215 
z
" clip-path="url(#pcb9516c457)" style="fill: #0000f5; fill-opacity: 0.1"/>
    <path d="M 216.800355 -77.340509 
L 203.072374 -125.041736 
L 211.664329 -138.542137 
L 225.362482 -90.544077 
z
" clip-path="url(#pcb9516c457)" style="fill: #0000f5; fill-opacity: 0.1"/>
    <path d="M 256.058132 -69.534254 
L 242.673458 -117.239156 
L 251.42367 -130.732768 
L 264.775763 -82.730611 
z
" clip-path="url(#pcb9516c457)" style="fill: #0000f5; fill-opacity: 0.1"/>
    <path d="M 186.07419 -98.332764 
L 172.032248 -146.326509 
L 180.528478 -159.932175 
L 194.542551 -111.638963 
z
" clip-path="url(#pcb9516c457)" style="fill: #0000f5; fill-opacity: 0.1"/>
    <path d="M 295.440548 -61.703215 
L 282.401444 -109.411572 
L 291.310886 -122.898283 
L 304.31463 -74.892248 
z
" clip-path="url(#pcb9516c457)" style="fill: #0000f5; fill-opacity: 0.1"/>
    <path d="M 225.362482 -90.544077 
L 211.664329 -138.542137 
L 220.319099 -152.141236 
L 233.986624 -103.843278 
z
" clip-path="url(#pcb9516c457)" style="fill: #0000f5; fill-opacity: 0.1"/>
    <path d="M 264.775763 -82.730611 
L 251.42367 -130.732768 
L 260.237957 -144.325189 
L 273.556636 -96.022702 
z
" clip-path="url(#pcb9516c457)" style="fill: #0000f5; fill-opacity: 0.1"/>
    <path d="M 194.542551 -111.638963 
L 180.528478 -159.932175 
L 189.086949 -173.637513 
L 203.072374 -125.041736 
z
" clip-path="url(#pcb9516c457)" style="fill: #0000f5; fill-opacity: 0.1"/>
    <path d="M 304.31463 -74.892248 
L 291.310886 -122.898283 
L 300.285673 -136.483911 
L 313.253193 -88.177115 
z
" clip-path="url(#pcb9516c457)" style="fill: #0000f5; fill-opacity: 0.1"/>
    <path d="M 233.986624 -103.843278 
L 220.319099 -152.141236 
L 229.037374 -165.840121 
L 242.673458 -117.239156 
z
" clip-path="url(#pcb9516c457)" style="fill: #0000f5; fill-opacity: 0.1"/>
    <path d="M 273.556636 -96.022702 
L 260.237957 -144.325189 
L 269.117024 -158.017507 
L 282.401444 -109.411572 
z
" clip-path="url(#pcb9516c457)" style="fill: #0000f5; fill-opacity: 0.1"/>
    <path d="M 203.072374 -125.041736 
L 189.086949 -173.637513 
L 197.708348 -187.443623 
L 211.664329 -138.542137 
z
" clip-path="url(#pcb9516c457)" style="fill: #0000f5; fill-opacity: 0.1"/>
    <path d="M 242.673458 -117.239156 
L 229.037374 -165.840121 
L 237.819856 -179.639893 
L 251.42367 -130.732768 
z
" clip-path="url(#pcb9516c457)" style="fill: #0000f5; fill-opacity: 0.1"/>
    <path d="M 282.401444 -109.411572 
L 269.117024 -158.017507 
L 278.061589 -171.810828 
L 291.310886 -122.898283 
z
" clip-path="url(#pcb9516c457)" style="fill: #0000f5; fill-opacity: 0.1"/>
    <path d="M 211.664329 -138.542137 
L 197.708348 -187.443623 
L 206.393372 -201.35162 
L 220.319099 -152.141236 
z
" clip-path="url(#pcb9516c457)" style="fill: #0000f5; fill-opacity: 0.1"/>
    <path d="M 251.42367 -130.732768 
L 237.819856 -179.639893 
L 246.667257 -193.541672 
L 260.237957 -144.325189 
z
" clip-path="url(#pcb9516c457)" style="fill: #0000f5; fill-opacity: 0.1"/>
    <path d="M 291.310886 -122.898283 
L 278.061589 -171.810828 
L 287.072378 -185.706274 
L 300.285673 -136.483911 
z
" clip-path="url(#pcb9516c457)" style="fill: #0000f5; fill-opacity: 0.1"/>
    <path d="M 220.319099 -152.141236 
L 206.393372 -201.35162 
L 215.142728 -215.362637 
L 229.037374 -165.840121 
z
" clip-path="url(#pcb9516c457)" style="fill: #0000f5; fill-opacity: 0.1"/>
    <path d="M 260.237957 -144.325189 
L 246.667257 -193.541672 
L 255.5803 -207.546592 
L 269.117024 -158.017507 
z
" clip-path="url(#pcb9516c457)" style="fill: #0000f5; fill-opacity: 0.1"/>
    <path d="M 229.037374 -165.840121 
L 215.142728 -215.362637 
L 223.957133 -229.477821 
L 237.819856 -179.639893 
z
" clip-path="url(#pcb9516c457)" style="fill: #0000f5; fill-opacity: 0.1"/>
    <path d="M 269.117024 -158.017507 
L 255.5803 -207.546592 
L 264.559717 -221.655805 
L 278.061589 -171.810828 
z
" clip-path="url(#pcb9516c457)" style="fill: #0000f5; fill-opacity: 0.1"/>
    <path d="M 237.819856 -179.639893 
L 223.957133 -229.477821 
L 232.837315 -243.69834 
L 246.667257 -193.541672 
z
" clip-path="url(#pcb9516c457)" style="fill: #0000f5; fill-opacity: 0.1"/>
    <path d="M 278.061589 -171.810828 
L 264.559717 -221.655805 
L 273.606253 -235.870481 
L 287.072378 -185.706274 
z
" clip-path="url(#pcb9516c457)" style="fill: #0000f5; fill-opacity: 0.1"/>
    <path d="M 246.667257 -193.541672 
L 232.837315 -243.69834 
L 241.784014 -258.025377 
L 255.5803 -207.546592 
z
" clip-path="url(#pcb9516c457)" style="fill: #0000f5; fill-opacity: 0.1"/>
    <path d="M 255.5803 -207.546592 
L 241.784014 -258.025377 
L 250.797979 -272.460132 
L 264.559717 -221.655805 
z
" clip-path="url(#pcb9516c457)" style="fill: #0000f5; fill-opacity: 0.1"/>
    <path d="M 264.559717 -221.655805 
L 250.797979 -272.460132 
L 259.879972 -287.003827 
L 273.606253 -235.870481 
z
" clip-path="url(#pcb9516c457)" style="fill: #0000f5; fill-opacity: 0.1"/>
   </g>
   <g id="legend_1">
    <g id="patch_6">
     <path d="M 357.840076 67.305115 
L 396.2 67.305115 
Q 398.2 67.305115 398.2 65.305115 
L 398.2 7 
Q 398.2 5 396.2 5 
L 357.840076 5 
Q 355.840076 5 355.840076 7 
L 355.840076 65.305115 
Q 355.840076 67.305115 357.840076 67.305115 
z
" style="fill: #ffffff; opacity: 0.8; stroke: #cccccc; stroke-linejoin: miter"/>
    </g>
    <g id="line2d_25">
     <path d="M 359.840076 12.5 
L 369.840076 12.5 
L 379.840076 12.5 
" style="fill: none; stroke: #ff0000; stroke-width: 1.5; stroke-linecap: square"/>
    </g>
    <g id="text_21">
     <!-- $\vec{a}$ -->
     <g transform="translate(387.840076 16)scale(0.1 -0.1)">
      <defs>
       <path id="CMMI12-7e" d="M 3424 3835 
C 3347 3764 3110 3540 3110 3451 
C 3110 3387 3168 3329 3232 3329 
C 3290 3329 3315 3368 3360 3432 
C 3514 3624 3686 3745 3834 3828 
C 3898 3867 3942 3886 3942 3956 
C 3942 4014 3891 4046 3853 4078 
C 3674 4200 3629 4372 3610 4449 
C 3590 4500 3571 4577 3482 4577 
C 3443 4577 3366 4552 3366 4456 
C 3366 4398 3405 4244 3526 4072 
L 1376 4072 
C 1267 4072 1158 4072 1158 3950 
C 1158 3835 1274 3835 1376 3835 
L 3424 3835 
z
" transform="scale(0.015625)"/>
       <path id="CMMI12-61" d="M 1926 760 
C 1894 651 1894 639 1805 517 
C 1664 338 1382 64 1082 64 
C 819 64 672 300 672 677 
C 672 1028 870 1743 992 2012 
C 1210 2459 1510 2689 1760 2689 
C 2182 2689 2266 2165 2266 2114 
C 2266 2108 2246 2024 2240 2012 
L 1926 760 
z
M 2336 2395 
C 2266 2561 2093 2816 1760 2816 
C 1037 2816 256 1884 256 939 
C 256 307 627 -64 1062 -64 
C 1414 -64 1715 211 1894 422 
C 1958 45 2259 -64 2451 -64 
C 2643 -64 2797 51 2912 281 
C 3014 498 3104 888 3104 913 
C 3104 945 3078 971 3040 971 
C 2982 971 2976 939 2950 843 
C 2854 466 2733 64 2470 64 
C 2285 64 2272 230 2272 358 
C 2272 505 2291 575 2349 824 
C 2394 984 2426 1124 2477 1309 
C 2714 2267 2771 2497 2771 2535 
C 2771 2625 2701 2695 2605 2695 
C 2400 2695 2349 2472 2336 2395 
z
" transform="scale(0.015625)"/>
      </defs>
      <use xlink:href="#CMMI12-7e" transform="scale(0.996264)"/>
      <use xlink:href="#CMMI12-61" transform="translate(6.445738 0)scale(0.996264)"/>
     </g>
    </g>
    <g id="line2d_26">
     <path d="M 359.840076 27.24679 
L 369.840076 27.24679 
L 379.840076 27.24679 
" style="fill: none; stroke: #00ff00; stroke-width: 1.5; stroke-linecap: square"/>
    </g>
    <g id="text_22">
     <!-- $\vec{b}$ -->
     <g transform="translate(387.840076 30.74679)scale(0.1 -0.1)">
      <defs>
       <path id="CMMI12-62" d="M 1478 4257 
C 1485 4283 1498 4321 1498 4352 
C 1498 4416 1434 4416 1421 4416 
C 1414 4416 1184 4393 1069 4377 
C 960 4377 864 4358 749 4358 
C 595 4345 550 4339 550 4224 
C 550 4160 614 4160 678 4160 
C 1005 4160 1005 4103 1005 4040 
C 1005 3996 954 3811 928 3696 
L 774 3085 
C 710 2831 346 1387 320 1272 
C 288 1114 288 1005 288 922 
C 288 274 653 -64 1069 -64 
C 1811 -64 2579 888 2579 1814 
C 2579 2401 2246 2816 1766 2816 
C 1434 2816 1133 2542 1011 2414 
L 1478 4257 
z
M 1075 64 
C 870 64 646 217 646 715 
C 646 926 666 1047 781 1494 
C 800 1577 902 1986 928 2069 
C 941 2120 1318 2689 1754 2689 
C 2035 2689 2163 2408 2163 2076 
C 2163 1769 1984 1047 1824 715 
C 1664 370 1370 64 1075 64 
z
" transform="scale(0.015625)"/>
      </defs>
      <use xlink:href="#CMMI12-7e" transform="translate(0 26.29016)scale(0.996264)"/>
      <use xlink:href="#CMMI12-62" transform="translate(11.311737 0)scale(0.996264)"/>
     </g>
    </g>
    <g id="line2d_27">
     <path d="M 359.840076 41.183968 
L 369.840076 41.183968 
L 379.840076 41.183968 
" style="fill: none; stroke: #0016ff; stroke-width: 1.5; stroke-linecap: square"/>
    </g>
    <g id="text_23">
     <!-- $\vec{c}$ -->
     <g transform="translate(387.840076 44.683968)scale(0.1 -0.1)">
      <defs>
       <path id="CMMI12-63" d="M 2502 2431 
C 2381 2431 2323 2431 2234 2355 
C 2195 2323 2125 2227 2125 2125 
C 2125 1997 2221 1920 2342 1920 
C 2496 1920 2669 2044 2669 2292 
C 2669 2588 2374 2816 1933 2816 
C 1094 2816 256 1903 256 996 
C 256 441 602 -64 1254 -64 
C 2125 -64 2675 622 2675 706 
C 2675 744 2637 776 2611 776 
C 2592 776 2586 770 2528 713 
C 2118 162 1510 64 1267 64 
C 826 64 685 446 685 764 
C 685 988 794 1605 1024 2039 
C 1190 2338 1536 2682 1939 2682 
C 2022 2682 2374 2682 2502 2431 
z
" transform="scale(0.015625)"/>
      </defs>
      <use xlink:href="#CMMI12-7e" transform="scale(0.996264)"/>
      <use xlink:href="#CMMI12-63" transform="translate(5.638615 0)scale(0.996264)"/>
     </g>
    </g>
    <g id="line2d_28">
     <path d="M 359.840076 57.867937 
L 369.840076 57.867937 
L 379.840076 57.867937 
" style="fill: none; stroke: #f400ff; stroke-width: 1.5; stroke-linecap: square"/>
    </g>
    <g id="text_24">
     <!-- $\vec{f}$ -->
     <g transform="translate(387.840076 61.367937)scale(0.1 -0.1)">
      <defs>
       <path id="CMMI12-66" d="M 2854 2566 
C 2982 2566 3034 2566 3034 2688 
C 3034 2752 2982 2752 2867 2752 
L 2349 2752 
C 2470 3429 2560 3897 2611 4107 
C 2650 4265 2784 4416 2950 4416 
C 3085 4416 3219 4358 3283 4298 
C 3034 4272 2957 4082 2957 3969 
C 2957 3837 3053 3759 3174 3759 
C 3302 3759 3494 3870 3494 4119 
C 3494 4393 3226 4544 2944 4544 
C 2669 4544 2400 4334 2272 4078 
C 2157 3848 2093 3611 1946 2752 
L 1517 2752 
C 1395 2752 1331 2752 1331 2637 
C 1331 2566 1370 2566 1498 2566 
L 1907 2566 
C 1792 1976 1530 542 1382 -137 
C 1274 -689 1178 -1152 858 -1152 
C 838 -1152 653 -1152 538 -1031 
C 864 -1005 864 -726 864 -720 
C 864 -593 768 -517 646 -517 
C 518 -517 326 -625 326 -867 
C 326 -1140 608 -1280 858 -1280 
C 1510 -1280 1779 -118 1850 199 
C 1965 688 2278 2376 2310 2566 
L 2854 2566 
z
" transform="scale(0.015625)"/>
      </defs>
      <use xlink:href="#CMMI12-7e" transform="translate(13.568792 26.29016)scale(0.996264)"/>
      <use xlink:href="#CMMI12-66" transform="scale(0.996264)"/>
     </g>
    </g>
   </g>
  </g>
 </g>
 <defs>
  <clipPath id="pcb9516c457">
   <rect x="57.6" y="0" width="345.6" height="345.6"/>
  </clipPath>
 </defs>
</svg>
