<?xml version="1.0" encoding="utf-8" standalone="no"?>
<!DOCTYPE svg PUBLIC "-//W3C//DTD SVG 1.1//EN"
  "http://www.w3.org/Graphics/SVG/1.1/DTD/svg11.dtd">
<svg xmlns:xlink="http://www.w3.org/1999/xlink" width="460.8pt" height="345.6pt" viewBox="0 0 460.8 345.6" xmlns="http://www.w3.org/2000/svg" version="1.1">
 <metadata>
  <rdf:RDF xmlns:dc="http://purl.org/dc/elements/1.1/" xmlns:cc="http://creativecommons.org/ns#" xmlns:rdf="http://www.w3.org/1999/02/22-rdf-syntax-ns#">
   <cc:Work>
    <dc:type rdf:resource="http://purl.org/dc/dcmitype/StillImage"/>
    <dc:date>2022-07-12T15:50:52.493113</dc:date>
    <dc:format>image/svg+xml</dc:format>
    <dc:creator>
     <cc:Agent>
      <dc:title>Matplotlib v3.5.1, https://matplotlib.org/</dc:title>
     </cc:Agent>
    </dc:creator>
   </cc:Work>
  </rdf:RDF>
 </metadata>
 <defs>
  <style type="text/css">*{stroke-linejoin: round; stroke-linecap: butt}</style>
 </defs>
 <g id="figure_1">
  <g id="patch_1">
   <path d="M 0 345.6 
L 460.8 345.6 
L 460.8 0 
L 0 0 
z
" style="fill: #ffffff"/>
  </g>
  <g id="patch_2">
   <path d="M 57.6 345.6 
L 403.2 345.6 
L 403.2 0 
L 57.6 0 
z
" style="fill: #ffffff"/>
  </g>
  <g id="pane3d_1">
   <g id="patch_3">
    <path d="M 222.424918 245.074867 
L 390.587061 250.920005 
L 390.587061 85.339455 
L 222.424918 91.184592 
" style="fill: #f2f2f2; opacity: 0.5; stroke: #f2f2f2; stroke-linejoin: miter"/>
   </g>
  </g>
  <g id="pane3d_2">
   <g id="patch_4">
    <path d="M 222.424918 245.074867 
L 77.254649 252.143801 
L 77.254649 84.115659 
L 222.424918 91.184592 
" style="fill: #e6e6e6; opacity: 0.5; stroke: #e6e6e6; stroke-linejoin: miter"/>
   </g>
  </g>
  <g id="pane3d_3">
   <g id="patch_5">
    <path d="M 222.424918 245.074867 
L 77.254649 252.143801 
L 250.030609 259.161228 
L 390.587061 250.920005 
" style="fill: #ececec; opacity: 0.5; stroke: #ececec; stroke-linejoin: miter"/>
   </g>
  </g>
  <g id="axis3d_1">
   <g id="line2d_1">
    <path d="M 390.587061 250.920005 
L 250.030609 259.161228 
" style="fill: none; stroke: #000000; stroke-width: 0.8; stroke-linecap: square"/>
   </g>
   <g id="text_1">
    <!-- x -->
    <g transform="translate(345.938547 284.156111)scale(0.16 -0.16)">
     <defs>
      <path id="CMSS17-78" d="M 1587 1414 
L 2656 2739 
L 2099 2739 
L 1363 1777 
L 602 2739 
L 32 2739 
L 1139 1414 
L 0 0 
L 563 0 
L 1363 1121 
L 2195 0 
L 2758 0 
L 1587 1414 
z
" transform="scale(0.015625)"/>
     </defs>
     <use xlink:href="#CMSS17-78" transform="scale(0.996264)"/>
    </g>
   </g>
   <g id="Line3DCollection_1">
    <path d="M 388.02579 251.070179 
L 219.761323 245.204568 
L 219.761323 91.054891 
" style="fill: none; stroke: #b0b0b0; stroke-width: 0.8"/>
    <path d="M 362.956444 252.540066 
L 193.726404 246.472315 
L 193.726404 89.787144 
" style="fill: none; stroke: #b0b0b0; stroke-width: 0.8"/>
    <path d="M 336.982498 254.062992 
L 166.820704 247.782464 
L 166.820704 88.476996 
" style="fill: none; stroke: #b0b0b0; stroke-width: 0.8"/>
    <path d="M 310.054091 255.641881 
L 138.999794 249.137177 
L 138.999794 87.122282 
" style="fill: none; stroke: #b0b0b0; stroke-width: 0.8"/>
    <path d="M 282.117629 257.279875 
L 110.216168 250.53877 
L 110.216168 85.72069 
" style="fill: none; stroke: #b0b0b0; stroke-width: 0.8"/>
    <path d="M 253.115426 258.980357 
L 80.418975 251.989717 
L 80.418975 84.269743 
" style="fill: none; stroke: #b0b0b0; stroke-width: 0.8"/>
   </g>
   <g id="xtick_1">
    <g id="line2d_2">
     <path d="M 386.578113 251.019714 
L 390.92644 251.171294 
" style="fill: none; stroke: #000000; stroke-width: 0.8; stroke-linecap: square"/>
    </g>
    <g id="text_2">
     <!-- $\mathdefault{0}$ -->
     <g transform="translate(397.159996 269.043641)scale(0.1 -0.1)">
      <defs>
       <path id="CMR17-30" d="M 2688 2025 
C 2688 2416 2682 3080 2413 3591 
C 2176 4039 1798 4198 1466 4198 
C 1158 4198 768 4058 525 3597 
C 269 3118 243 2524 243 2025 
C 243 1661 250 1106 448 619 
C 723 -39 1216 -128 1466 -128 
C 1760 -128 2208 -7 2470 600 
C 2662 1042 2688 1559 2688 2025 
z
M 1466 -26 
C 1056 -26 813 325 723 812 
C 653 1188 653 1738 653 2096 
C 653 2588 653 2997 736 3387 
C 858 3929 1216 4096 1466 4096 
C 1728 4096 2067 3923 2189 3400 
C 2272 3036 2278 2607 2278 2096 
C 2278 1680 2278 1169 2202 792 
C 2067 95 1690 -26 1466 -26 
z
" transform="scale(0.015625)"/>
      </defs>
      <use xlink:href="#CMR17-30" transform="scale(0.996264)"/>
     </g>
    </g>
   </g>
   <g id="xtick_2">
    <g id="line2d_3">
     <path d="M 361.49865 252.487797 
L 365.877458 252.644799 
" style="fill: none; stroke: #000000; stroke-width: 0.8; stroke-linecap: square"/>
    </g>
    <g id="text_3">
     <!-- $\mathdefault{1}$ -->
     <g transform="translate(372.173026 270.71773)scale(0.1 -0.1)">
      <defs>
       <path id="CMR17-31" d="M 1702 4058 
C 1702 4192 1696 4192 1606 4192 
C 1357 3916 979 3827 621 3827 
C 602 3827 570 3827 563 3808 
C 557 3795 557 3782 557 3648 
C 755 3648 1088 3686 1344 3839 
L 1344 461 
C 1344 236 1331 160 781 160 
L 589 160 
L 589 0 
C 896 0 1216 0 1523 0 
C 1830 0 2150 0 2458 0 
L 2458 160 
L 2266 160 
C 1715 160 1702 230 1702 458 
L 1702 4058 
z
" transform="scale(0.015625)"/>
      </defs>
      <use xlink:href="#CMR17-31" transform="scale(0.996264)"/>
     </g>
    </g>
   </g>
   <g id="xtick_3">
    <g id="line2d_4">
     <path d="M 335.514793 254.008821 
L 339.92347 254.171541 
" style="fill: none; stroke: #000000; stroke-width: 0.8; stroke-linecap: square"/>
    </g>
    <g id="text_4">
     <!-- $\mathdefault{2}$ -->
     <g transform="translate(346.279863 272.452533)scale(0.1 -0.1)">
      <defs>
       <path id="CMR17-32" d="M 2669 989 
L 2554 989 
C 2490 536 2438 459 2413 420 
C 2381 369 1920 369 1830 369 
L 602 369 
C 832 619 1280 1072 1824 1597 
C 2214 1967 2669 2402 2669 3035 
C 2669 3790 2067 4224 1395 4224 
C 691 4224 262 3604 262 3030 
C 262 2780 448 2748 525 2748 
C 589 2748 781 2787 781 3010 
C 781 3207 614 3264 525 3264 
C 486 3264 448 3258 422 3245 
C 544 3790 915 4058 1306 4058 
C 1862 4058 2227 3617 2227 3035 
C 2227 2479 1901 2000 1536 1584 
L 262 146 
L 262 0 
L 2515 0 
L 2669 989 
z
" transform="scale(0.015625)"/>
      </defs>
      <use xlink:href="#CMR17-32" transform="scale(0.996264)"/>
     </g>
    </g>
   </g>
   <g id="xtick_4">
    <g id="line2d_5">
     <path d="M 308.576724 255.585701 
L 313.014528 255.754458 
" style="fill: none; stroke: #000000; stroke-width: 0.8; stroke-linecap: square"/>
    </g>
    <g id="text_5">
     <!-- $\mathdefault{3}$ -->
     <g transform="translate(319.430301 274.251413)scale(0.1 -0.1)">
      <defs>
       <path id="CMR17-33" d="M 1414 2157 
C 1984 2157 2234 1662 2234 1090 
C 2234 320 1824 25 1453 25 
C 1114 25 563 194 390 693 
C 422 680 454 680 486 680 
C 640 680 755 782 755 948 
C 755 1133 614 1216 486 1216 
C 378 1216 211 1165 211 926 
C 211 335 787 -128 1466 -128 
C 2176 -128 2720 430 2720 1085 
C 2720 1707 2208 2157 1600 2227 
C 2086 2328 2554 2756 2554 3329 
C 2554 3820 2048 4179 1472 4179 
C 890 4179 378 3829 378 3329 
C 378 3110 544 3072 627 3072 
C 762 3072 877 3155 877 3321 
C 877 3486 762 3569 627 3569 
C 602 3569 570 3569 544 3557 
C 730 3959 1235 4032 1459 4032 
C 1683 4032 2106 3925 2106 3320 
C 2106 3143 2080 2828 1862 2550 
C 1670 2304 1453 2304 1242 2284 
C 1210 2284 1062 2269 1037 2269 
C 992 2263 966 2257 966 2208 
C 966 2163 973 2157 1101 2157 
L 1414 2157 
z
" transform="scale(0.015625)"/>
      </defs>
      <use xlink:href="#CMR17-33" transform="scale(0.996264)"/>
     </g>
    </g>
   </g>
   <g id="xtick_5">
    <g id="line2d_6">
     <path d="M 280.630897 257.221573 
L 285.096938 257.396709 
" style="fill: none; stroke: #000000; stroke-width: 0.8; stroke-linecap: square"/>
    </g>
    <g id="text_6">
     <!-- $\mathdefault{4}$ -->
     <g transform="translate(291.570355 276.117987)scale(0.1 -0.1)">
      <defs>
       <path id="CMR17-34" d="M 2150 4122 
C 2150 4256 2144 4256 2029 4256 
L 128 1254 
L 128 1088 
L 1779 1088 
L 1779 457 
C 1779 224 1766 160 1318 160 
L 1197 160 
L 1197 0 
C 1402 0 1747 0 1965 0 
C 2182 0 2528 0 2733 0 
L 2733 160 
L 2611 160 
C 2163 160 2150 224 2150 457 
L 2150 1088 
L 2803 1088 
L 2803 1254 
L 2150 1254 
L 2150 4122 
z
M 1798 3703 
L 1798 1254 
L 256 1254 
L 1798 3703 
z
" transform="scale(0.015625)"/>
      </defs>
      <use xlink:href="#CMR17-34" transform="scale(0.996264)"/>
     </g>
    </g>
   </g>
   <g id="xtick_6">
    <g id="line2d_7">
     <path d="M 251.619683 258.91981 
L 256.112905 259.101693 
" style="fill: none; stroke: #000000; stroke-width: 0.8; stroke-linecap: square"/>
    </g>
    <g id="text_7">
     <!-- $\mathdefault{5}$ -->
     <g transform="translate(262.641896 278.056149)scale(0.1 -0.1)">
      <defs>
       <path id="CMR17-35" d="M 730 3692 
C 794 3666 1056 3584 1325 3584 
C 1920 3584 2246 3911 2432 4100 
C 2432 4157 2432 4192 2394 4192 
C 2387 4192 2374 4192 2323 4163 
C 2099 4058 1837 3973 1517 3973 
C 1325 3973 1037 3999 723 4139 
C 653 4171 640 4171 634 4171 
C 602 4171 595 4164 595 4037 
L 595 2203 
C 595 2089 595 2057 659 2057 
C 691 2057 704 2070 736 2114 
C 941 2401 1222 2522 1542 2522 
C 1766 2522 2246 2382 2246 1289 
C 2246 1085 2246 715 2054 421 
C 1894 159 1645 25 1370 25 
C 947 25 518 320 403 814 
C 429 807 480 795 506 795 
C 589 795 749 840 749 1038 
C 749 1210 627 1280 506 1280 
C 358 1280 262 1190 262 1011 
C 262 454 704 -128 1382 -128 
C 2042 -128 2669 440 2669 1264 
C 2669 2030 2170 2624 1549 2624 
C 1222 2624 947 2503 730 2274 
L 730 3692 
z
" transform="scale(0.015625)"/>
      </defs>
      <use xlink:href="#CMR17-35" transform="scale(0.996264)"/>
     </g>
    </g>
   </g>
  </g>
  <g id="axis3d_2">
   <g id="line2d_8">
    <path d="M 77.254649 252.143801 
L 250.030609 259.161228 
" style="fill: none; stroke: #000000; stroke-width: 0.8; stroke-linecap: square"/>
   </g>
   <g id="text_8">
    <!-- y -->
    <g transform="translate(134.519433 285.271448)scale(0.16 -0.16)">
     <defs>
      <path id="CMSS17-79" d="M 2675 2752 
L 2176 2752 
C 1632 1294 1446 702 1434 383 
L 1427 383 
C 1408 696 1126 1460 902 2007 
L 602 2752 
L 83 2752 
L 1216 13 
C 1146 -178 1043 -465 1011 -529 
C 870 -885 774 -885 672 -885 
C 646 -885 442 -885 211 -809 
L 250 -1229 
C 410 -1261 570 -1280 685 -1280 
C 845 -1280 1165 -1280 1459 -497 
L 2675 2752 
z
" transform="scale(0.015625)"/>
     </defs>
     <use xlink:href="#CMSS17-79" transform="scale(0.996264)"/>
    </g>
   </g>
   <g id="Line3DCollection_2">
    <path d="M 240.704216 90.549223 
L 240.704216 245.710236 
L 95.91856 252.90185 
" style="fill: none; stroke: #b0b0b0; stroke-width: 0.8"/>
    <path d="M 271.632144 89.474201 
L 271.632144 246.785258 
L 127.56186 254.187067 
" style="fill: none; stroke: #b0b0b0; stroke-width: 0.8"/>
    <path d="M 303.429243 88.368968 
L 303.429243 247.890491 
L 160.179409 255.511853 
" style="fill: none; stroke: #b0b0b0; stroke-width: 0.8"/>
    <path d="M 336.132675 87.232231 
L 336.132675 249.027228 
L 193.816903 256.878066 
" style="fill: none; stroke: #b0b0b0; stroke-width: 0.8"/>
    <path d="M 369.781753 86.062625 
L 369.781753 250.196834 
L 228.522943 258.287678 
" style="fill: none; stroke: #b0b0b0; stroke-width: 0.8"/>
   </g>
   <g id="xtick_7">
    <g id="line2d_9">
     <path d="M 97.183279 252.83903 
L 93.383486 253.027769 
" style="fill: none; stroke: #000000; stroke-width: 0.8; stroke-linecap: square"/>
    </g>
    <g id="text_9">
     <!-- $\mathdefault{−4}$ -->
     <g transform="translate(79.385626 271.221922)scale(0.1 -0.1)">
      <defs>
       <path id="CMSY10-0" d="M 4218 1472 
C 4326 1472 4442 1472 4442 1600 
C 4442 1728 4326 1728 4218 1728 
L 755 1728 
C 646 1728 531 1728 531 1600 
C 531 1472 646 1472 755 1472 
L 4218 1472 
z
" transform="scale(0.015625)"/>
      </defs>
      <use xlink:href="#CMSY10-0" transform="scale(0.996264)"/>
      <use xlink:href="#CMR17-34" transform="translate(77.487468 0)scale(0.996264)"/>
     </g>
    </g>
   </g>
   <g id="xtick_8">
    <g id="line2d_10">
     <path d="M 128.821934 254.122328 
L 125.036011 254.316836 
" style="fill: none; stroke: #000000; stroke-width: 0.8; stroke-linecap: square"/>
    </g>
    <g id="text_10">
     <!-- $\mathdefault{−2}$ -->
     <g transform="translate(111.065236 272.688816)scale(0.1 -0.1)">
      <use xlink:href="#CMSY10-0" transform="scale(0.996264)"/>
      <use xlink:href="#CMR17-32" transform="translate(77.487468 0)scale(0.996264)"/>
     </g>
    </g>
   </g>
   <g id="xtick_9">
    <g id="line2d_11">
     <path d="M 161.433952 255.445107 
L 157.66456 255.645651 
" style="fill: none; stroke: #000000; stroke-width: 0.8; stroke-linecap: square"/>
    </g>
    <g id="text_11">
     <!-- $\mathdefault{0}$ -->
     <g transform="translate(147.600576 274.20115)scale(0.1 -0.1)">
      <use xlink:href="#CMR17-30" transform="scale(0.996264)"/>
     </g>
    </g>
   </g>
   <g id="xtick_10">
    <g id="line2d_12">
     <path d="M 195.06495 256.809217 
L 191.314985 257.016084 
" style="fill: none; stroke: #000000; stroke-width: 0.8; stroke-linecap: square"/>
    </g>
    <g id="text_12">
     <!-- $\mathdefault{2}$ -->
     <g transform="translate(181.28922 275.76107)scale(0.1 -0.1)">
      <use xlink:href="#CMR17-32" transform="scale(0.996264)"/>
     </g>
    </g>
   </g>
   <g id="xtick_11">
    <g id="line2d_13">
     <path d="M 229.763446 258.216626 
L 226.036056 258.430119 
" style="fill: none; stroke: #000000; stroke-width: 0.8; stroke-linecap: square"/>
    </g>
    <g id="text_13">
     <!-- $\mathdefault{4}$ -->
     <g transform="translate(216.054817 277.370857)scale(0.1 -0.1)">
      <use xlink:href="#CMR17-34" transform="scale(0.996264)"/>
     </g>
    </g>
   </g>
  </g>
  <g id="axis3d_3">
   <g id="line2d_14">
    <path d="M 77.254649 252.143801 
L 77.254649 84.115659 
" style="fill: none; stroke: #000000; stroke-width: 0.8; stroke-linecap: square"/>
   </g>
   <g id="text_14">
    <!-- z -->
    <g transform="translate(29.616708 172.114786)scale(0.16 -0.16)">
     <defs>
      <path id="CMSS17-7a" d="M 2400 2502 
L 2400 2750 
L 250 2750 
L 250 2368 
L 1069 2368 
C 1146 2368 1222 2368 1299 2368 
L 1747 2368 
L 166 261 
L 166 0 
L 2419 0 
L 2419 395 
L 1549 395 
C 1472 395 1395 395 1318 395 
L 826 395 
L 2400 2502 
z
" transform="scale(0.015625)"/>
     </defs>
     <use xlink:href="#CMSS17-7a" transform="scale(0.996264)"/>
    </g>
   </g>
   <g id="Line3DCollection_3">
    <path d="M 77.254649 248.783238 
L 222.424918 241.997062 
L 390.587061 247.608394 
" style="fill: none; stroke: #b0b0b0; stroke-width: 0.8"/>
    <path d="M 77.254649 216.521835 
L 222.424918 212.450129 
L 390.587061 215.816928 
" style="fill: none; stroke: #b0b0b0; stroke-width: 0.8"/>
    <path d="M 77.254649 184.260431 
L 222.424918 182.903196 
L 390.587061 184.025462 
" style="fill: none; stroke: #b0b0b0; stroke-width: 0.8"/>
    <path d="M 77.254649 151.999028 
L 222.424918 153.356263 
L 390.587061 152.233997 
" style="fill: none; stroke: #b0b0b0; stroke-width: 0.8"/>
    <path d="M 77.254649 119.737625 
L 222.424918 123.809331 
L 390.587061 120.442531 
" style="fill: none; stroke: #b0b0b0; stroke-width: 0.8"/>
    <path d="M 77.254649 87.476222 
L 222.424918 94.262398 
L 390.587061 88.651066 
" style="fill: none; stroke: #b0b0b0; stroke-width: 0.8"/>
   </g>
   <g id="xtick_12">
    <g id="line2d_15">
     <path d="M 78.521774 248.724004 
L 74.714803 248.901966 
" style="fill: none; stroke: #000000; stroke-width: 0.8; stroke-linecap: square"/>
    </g>
    <g id="text_15">
     <!-- $\mathdefault{0}$ -->
     <g transform="translate(54.430408 255.777977)scale(0.1 -0.1)">
      <use xlink:href="#CMR17-30" transform="scale(0.996264)"/>
     </g>
    </g>
   </g>
   <g id="xtick_13">
    <g id="line2d_16">
     <path d="M 78.521774 216.486295 
L 74.714803 216.593072 
" style="fill: none; stroke: #000000; stroke-width: 0.8; stroke-linecap: square"/>
    </g>
    <g id="text_16">
     <!-- $\mathdefault{1}$ -->
     <g transform="translate(54.430408 223.486078)scale(0.1 -0.1)">
      <use xlink:href="#CMR17-31" transform="scale(0.996264)"/>
     </g>
    </g>
   </g>
   <g id="xtick_14">
    <g id="line2d_17">
     <path d="M 78.521774 184.248585 
L 74.714803 184.284177 
" style="fill: none; stroke: #000000; stroke-width: 0.8; stroke-linecap: square"/>
    </g>
    <g id="text_17">
     <!-- $\mathdefault{2}$ -->
     <g transform="translate(54.430408 191.194178)scale(0.1 -0.1)">
      <use xlink:href="#CMR17-32" transform="scale(0.996264)"/>
     </g>
    </g>
   </g>
   <g id="xtick_15">
    <g id="line2d_18">
     <path d="M 78.521774 152.010875 
L 74.714803 151.975282 
" style="fill: none; stroke: #000000; stroke-width: 0.8; stroke-linecap: square"/>
    </g>
    <g id="text_18">
     <!-- $\mathdefault{3}$ -->
     <g transform="translate(54.430408 158.902278)scale(0.1 -0.1)">
      <use xlink:href="#CMR17-33" transform="scale(0.996264)"/>
     </g>
    </g>
   </g>
   <g id="xtick_16">
    <g id="line2d_19">
     <path d="M 78.521774 119.773165 
L 74.714803 119.666388 
" style="fill: none; stroke: #000000; stroke-width: 0.8; stroke-linecap: square"/>
    </g>
    <g id="text_19">
     <!-- $\mathdefault{4}$ -->
     <g transform="translate(54.430408 126.610379)scale(0.1 -0.1)">
      <use xlink:href="#CMR17-34" transform="scale(0.996264)"/>
     </g>
    </g>
   </g>
   <g id="xtick_17">
    <g id="line2d_20">
     <path d="M 78.521774 87.535455 
L 74.714803 87.357493 
" style="fill: none; stroke: #000000; stroke-width: 0.8; stroke-linecap: square"/>
    </g>
    <g id="text_20">
     <!-- $\mathdefault{5}$ -->
     <g transform="translate(54.430408 94.318479)scale(0.1 -0.1)">
      <use xlink:href="#CMR17-35" transform="scale(0.996264)"/>
     </g>
    </g>
   </g>
  </g>
  <g id="axes_1">
   <g id="line2d_21">
    <path d="M 300.809558 244.833862 
L 324.925424 88.404867 
" clip-path="url(#pbea799e01b)" style="fill: none; stroke: #ff0000; stroke-width: 1.5; stroke-linecap: square"/>
   </g>
   <g id="line2d_22">
    <path d="M 300.809558 244.833862 
L 216.518837 121.193189 
" clip-path="url(#pbea799e01b)" style="fill: none; stroke: #00ff00; stroke-width: 1.5; stroke-linecap: square"/>
   </g>
   <g id="line2d_23">
    <path d="M 300.809558 244.833862 
L 247.0288 -1 
" clip-path="url(#pbea799e01b)" style="fill: none; stroke: #0016ff; stroke-width: 1.5; stroke-linecap: square"/>
   </g>
   <g id="line2d_24">
    <path d="M 300.809558 244.833862 
L 114.773904 151.761605 
" clip-path="url(#pbea799e01b)" style="fill: none; stroke: #f400ff; stroke-width: 1.5; stroke-linecap: square"/>
   </g>
   <g id="Poly3DCollection_1">
    <path d="M 222.893046 353.371351 
L 209.988915 313.798476 
L 217.5589 303.055602 
L 230.445501 342.850801 
z
" clip-path="url(#pbea799e01b)" style="fill: #0000f5; fill-opacity: 0.1"/>
    <path d="M 230.445501 342.850801 
L 217.5589 303.055602 
L 225.18113 292.238585 
L 238.049656 332.258235 
z
" clip-path="url(#pbea799e01b)" style="fill: #0000f5; fill-opacity: 0.1"/>
    <path d="M 238.049656 332.258235 
L 225.18113 292.238585 
L 232.856148 281.346653 
L 245.706042 321.592909 
z
" clip-path="url(#pbea799e01b)" style="fill: #0000f5; fill-opacity: 0.1"/>
    <path d="M 209.988915 313.798476 
L 196.872229 273.573759 
L 204.459295 262.602626 
L 217.5589 303.055602 
z
" clip-path="url(#pbea799e01b)" style="fill: #0000f5; fill-opacity: 0.1"/>
    <path d="M 245.706042 321.592909 
L 232.856148 281.346653 
L 240.584504 270.379027 
L 253.4152 310.854073 
z
" clip-path="url(#pbea799e01b)" style="fill: #0000f5; fill-opacity: 0.1"/>
    <path d="M 217.5589 303.055602 
L 204.459295 262.602626 
L 212.099159 251.555146 
L 225.18113 292.238585 
z
" clip-path="url(#pbea799e01b)" style="fill: #0000f5; fill-opacity: 0.1"/>
    <path d="M 253.4152 310.854073 
L 240.584504 270.379027 
L 248.366757 259.334915 
L 261.177678 300.040963 
z
" clip-path="url(#pbea799e01b)" style="fill: #0000f5; fill-opacity: 0.1"/>
    <path d="M 225.18113 292.238585 
L 212.099159 251.555146 
L 219.792373 240.43052 
L 232.856148 281.346653 
z
" clip-path="url(#pbea799e01b)" style="fill: #0000f5; fill-opacity: 0.1"/>
    <path d="M 196.872229 273.573759 
L 183.537691 232.680961 
L 191.141362 221.475429 
L 204.459295 262.602626 
z
" clip-path="url(#pbea799e01b)" style="fill: #0000f5; fill-opacity: 0.1"/>
    <path d="M 261.177678 300.040963 
L 248.366757 259.334915 
L 256.203472 248.213513 
L 268.99403 289.152806 
z
" clip-path="url(#pbea799e01b)" style="fill: #0000f5; fill-opacity: 0.1"/>
    <path d="M 232.856148 281.346653 
L 219.792373 240.43052 
L 227.539499 229.227936 
L 240.584504 270.379027 
z
" clip-path="url(#pbea799e01b)" style="fill: #0000f5; fill-opacity: 0.1"/>
    <path d="M 204.459295 262.602626 
L 191.141362 221.475429 
L 198.798389 210.191266 
L 212.099159 251.555146 
z
" clip-path="url(#pbea799e01b)" style="fill: #0000f5; fill-opacity: 0.1"/>
    <path d="M 268.99403 289.152806 
L 256.203472 248.213513 
L 264.095222 237.014007 
L 276.864819 278.188817 
z
" clip-path="url(#pbea799e01b)" style="fill: #0000f5; fill-opacity: 0.1"/>
    <path d="M 240.584504 270.379027 
L 227.539499 229.227936 
L 235.341105 217.946572 
L 248.366757 259.334915 
z
" clip-path="url(#pbea799e01b)" style="fill: #0000f5; fill-opacity: 0.1"/>
    <path d="M 212.099159 251.555146 
L 198.798389 210.191266 
L 206.509334 198.827643 
L 219.792373 240.43052 
z
" clip-path="url(#pbea799e01b)" style="fill: #0000f5; fill-opacity: 0.1"/>
    <path d="M 276.864819 278.188817 
L 264.095222 237.014007 
L 272.042591 225.735572 
L 284.790617 267.148203 
z
" clip-path="url(#pbea799e01b)" style="fill: #0000f5; fill-opacity: 0.1"/>
    <path d="M 183.537691 232.680961 
L 169.979829 191.103298 
L 177.599596 179.657012 
L 191.141362 221.475429 
z
" clip-path="url(#pbea799e01b)" style="fill: #0000f5; fill-opacity: 0.1"/>
    <path d="M 248.366757 259.334915 
L 235.341105 217.946572 
L 243.197767 206.585594 
L 256.203472 248.213513 
z
" clip-path="url(#pbea799e01b)" style="fill: #0000f5; fill-opacity: 0.1"/>
    <path d="M 219.792373 240.43052 
L 206.509334 198.827643 
L 214.274771 187.383717 
L 227.539499 229.227936 
z
" clip-path="url(#pbea799e01b)" style="fill: #0000f5; fill-opacity: 0.1"/>
    <path d="M 284.790617 267.148203 
L 272.042591 225.735572 
L 280.046167 214.37737 
L 292.772 256.030157 
z
" clip-path="url(#pbea799e01b)" style="fill: #0000f5; fill-opacity: 0.1"/>
    <path d="M 191.141362 221.475429 
L 177.599596 179.657012 
L 185.273283 168.12973 
L 198.798389 210.191266 
z
" clip-path="url(#pbea799e01b)" style="fill: #0000f5; fill-opacity: 0.1"/>
    <path d="M 256.203472 248.213513 
L 243.197767 206.585594 
L 251.110071 195.144156 
L 264.095222 237.014007 
z
" clip-path="url(#pbea799e01b)" style="fill: #0000f5; fill-opacity: 0.1"/>
    <path d="M 227.539499 229.227936 
L 214.274771 187.383717 
L 222.095278 175.858633 
L 235.341105 217.946572 
z
" clip-path="url(#pbea799e01b)" style="fill: #0000f5; fill-opacity: 0.1"/>
    <path d="M 292.772 256.030157 
L 280.046167 214.37737 
L 288.106549 202.938553 
L 300.809558 244.833862 
z
" clip-path="url(#pbea799e01b)" style="fill: #0000f5; fill-opacity: 0.1"/>
    <path d="M 198.798389 210.191266 
L 185.273283 168.12973 
L 193.001464 156.520587 
L 206.509334 198.827643 
z
" clip-path="url(#pbea799e01b)" style="fill: #0000f5; fill-opacity: 0.1"/>
    <path d="M 264.095222 237.014007 
L 251.110071 195.144156 
L 259.078611 183.621402 
L 272.042591 225.735572 
z
" clip-path="url(#pbea799e01b)" style="fill: #0000f5; fill-opacity: 0.1"/>
    <path d="M 169.979829 191.103298 
L 156.192985 148.82342 
L 163.828307 137.129804 
L 177.599596 179.657012 
z
" clip-path="url(#pbea799e01b)" style="fill: #0000f5; fill-opacity: 0.1"/>
    <path d="M 235.341105 217.946572 
L 222.095278 175.858633 
L 229.971443 164.251526 
L 243.197767 206.585594 
z
" clip-path="url(#pbea799e01b)" style="fill: #0000f5; fill-opacity: 0.1"/>
    <path d="M 300.809558 244.833862 
L 288.106549 202.938553 
L 296.224345 191.418258 
L 308.903884 233.558488 
z
" clip-path="url(#pbea799e01b)" style="fill: #0000f5; fill-opacity: 0.1"/>
    <path d="M 206.509334 198.827643 
L 193.001464 156.520587 
L 200.784721 144.82871 
L 214.274771 187.383717 
z
" clip-path="url(#pbea799e01b)" style="fill: #0000f5; fill-opacity: 0.1"/>
    <path d="M 272.042591 225.735572 
L 259.078611 183.621402 
L 267.103986 172.01646 
L 280.046167 214.37737 
z
" clip-path="url(#pbea799e01b)" style="fill: #0000f5; fill-opacity: 0.1"/>
    <path d="M 177.599596 179.657012 
L 163.828307 137.129804 
L 171.518119 125.352737 
L 185.273283 168.12973 
z
" clip-path="url(#pbea799e01b)" style="fill: #0000f5; fill-opacity: 0.1"/>
    <path d="M 243.197767 206.585594 
L 229.971443 164.251526 
L 237.903863 152.561517 
L 251.110071 195.144156 
z
" clip-path="url(#pbea799e01b)" style="fill: #0000f5; fill-opacity: 0.1"/>
    <path d="M 308.903884 233.558488 
L 296.224345 191.418258 
L 304.400169 179.815612 
L 317.055582 222.203194 
z
" clip-path="url(#pbea799e01b)" style="fill: #0000f5; fill-opacity: 0.1"/>
    <path d="M 214.274771 187.383717 
L 200.784721 144.82871 
L 208.623646 133.053211 
L 222.095278 175.858633 
z
" clip-path="url(#pbea799e01b)" style="fill: #0000f5; fill-opacity: 0.1"/>
    <path d="M 280.046167 214.37737 
L 267.103986 172.01646 
L 275.186808 160.328448 
L 288.106549 202.938553 
z
" clip-path="url(#pbea799e01b)" style="fill: #0000f5; fill-opacity: 0.1"/>
    <path d="M 185.273283 168.12973 
L 171.518119 125.352737 
L 179.263005 113.491322 
L 193.001464 156.520587 
z
" clip-path="url(#pbea799e01b)" style="fill: #0000f5; fill-opacity: 0.1"/>
    <path d="M 251.110071 195.144156 
L 237.903863 152.561517 
L 245.893142 140.787714 
L 259.078611 183.621402 
z
" clip-path="url(#pbea799e01b)" style="fill: #0000f5; fill-opacity: 0.1"/>
    <path d="M 156.192985 148.82342 
L 142.171308 105.823386 
L 149.82161 93.875629 
L 163.828307 137.129804 
z
" clip-path="url(#pbea799e01b)" style="fill: #0000f5; fill-opacity: 0.1"/>
    <path d="M 317.055582 222.203194 
L 304.400169 179.815612 
L 312.634646 168.12973 
L 325.265264 210.767129 
z
" clip-path="url(#pbea799e01b)" style="fill: #0000f5; fill-opacity: 0.1"/>
    <path d="M 222.095278 175.858633 
L 208.623646 133.053211 
L 216.518837 121.193189 
L 229.971443 164.251526 
z
" clip-path="url(#pbea799e01b)" style="fill: #0000f5; fill-opacity: 0.1"/>
    <path d="M 288.106549 202.938553 
L 275.186808 160.328448 
L 283.327697 148.556471 
L 296.224345 191.418258 
z
" clip-path="url(#pbea799e01b)" style="fill: #0000f5; fill-opacity: 0.1"/>
    <path d="M 193.001464 156.520587 
L 179.263005 113.491322 
L 187.06356 101.544651 
L 200.784721 144.82871 
z
" clip-path="url(#pbea799e01b)" style="fill: #0000f5; fill-opacity: 0.1"/>
    <path d="M 259.078611 183.621402 
L 245.893142 140.787714 
L 253.939894 128.929213 
L 267.103986 172.01646 
z
" clip-path="url(#pbea799e01b)" style="fill: #0000f5; fill-opacity: 0.1"/>
    <path d="M 163.828307 137.129804 
L 149.82161 93.875629 
L 157.526976 81.841876 
L 171.518119 125.352737 
z
" clip-path="url(#pbea799e01b)" style="fill: #0000f5; fill-opacity: 0.1"/>
    <path d="M 325.265264 210.767129 
L 312.634646 168.12973 
L 320.928409 156.359711 
L 333.533552 199.249427 
z
" clip-path="url(#pbea799e01b)" style="fill: #0000f5; fill-opacity: 0.1"/>
    <path d="M 229.971443 164.251526 
L 216.518837 121.193189 
L 224.470902 109.247731 
L 237.903863 152.561517 
z
" clip-path="url(#pbea799e01b)" style="fill: #0000f5; fill-opacity: 0.1"/>
    <path d="M 296.224345 191.418258 
L 283.327697 148.556471 
L 291.527278 136.699621 
L 304.400169 179.815612 
z
" clip-path="url(#pbea799e01b)" style="fill: #0000f5; fill-opacity: 0.1"/>
    <path d="M 200.784721 144.82871 
L 187.06356 101.544651 
L 194.920385 89.5118 
L 208.623646 133.053211 
z
" clip-path="url(#pbea799e01b)" style="fill: #0000f5; fill-opacity: 0.1"/>
    <path d="M 267.103986 172.01646 
L 253.939894 128.929213 
L 262.044741 116.985097 
L 275.186808 160.328448 
z
" clip-path="url(#pbea799e01b)" style="fill: #0000f5; fill-opacity: 0.1"/>
    <path d="M 171.518119 125.352737 
L 157.526976 81.841876 
L 165.288003 69.721194 
L 179.263005 113.491322 
z
" clip-path="url(#pbea799e01b)" style="fill: #0000f5; fill-opacity: 0.1"/>
    <path d="M 333.533552 199.249427 
L 320.928409 156.359711 
L 329.282102 144.504645 
L 341.861074 187.649211 
z
" clip-path="url(#pbea799e01b)" style="fill: #0000f5; fill-opacity: 0.1"/>
    <path d="M 237.903863 152.561517 
L 224.470902 109.247731 
L 232.480459 97.21591 
L 245.893142 140.787714 
z
" clip-path="url(#pbea799e01b)" style="fill: #0000f5; fill-opacity: 0.1"/>
    <path d="M 142.171308 105.823386 
L 127.908748 62.084639 
L 135.573416 49.875686 
L 149.82161 93.875629 
z
" clip-path="url(#pbea799e01b)" style="fill: #0000f5; fill-opacity: 0.1"/>
    <path d="M 304.400169 179.815612 
L 291.527278 136.699621 
L 299.786191 124.756978 
L 312.634646 168.12973 
z
" clip-path="url(#pbea799e01b)" style="fill: #0000f5; fill-opacity: 0.1"/>
    <path d="M 208.623646 133.053211 
L 194.920385 89.5118 
L 202.834091 77.391834 
L 216.518837 121.193189 
z
" clip-path="url(#pbea799e01b)" style="fill: #0000f5; fill-opacity: 0.1"/>
    <path d="M 275.186808 160.328448 
L 262.044741 116.985097 
L 270.208315 104.954435 
L 283.327697 148.556471 
z
" clip-path="url(#pbea799e01b)" style="fill: #0000f5; fill-opacity: 0.1"/>
    <path d="M 179.263005 113.491322 
L 165.288003 69.721194 
L 173.105296 57.51264 
L 187.06356 101.544651 
z
" clip-path="url(#pbea799e01b)" style="fill: #0000f5; fill-opacity: 0.1"/>
    <path d="M 341.861074 187.649211 
L 329.282102 144.504645 
L 337.696376 132.563605 
L 350.24847 175.965591 
z
" clip-path="url(#pbea799e01b)" style="fill: #0000f5; fill-opacity: 0.1"/>
    <path d="M 245.893142 140.787714 
L 232.480459 97.21591 
L 240.548133 85.096787 
L 253.939894 128.929213 
z
" clip-path="url(#pbea799e01b)" style="fill: #0000f5; fill-opacity: 0.1"/>
    <path d="M 149.82161 93.875629 
L 135.573416 49.875686 
L 143.293729 37.578098 
L 157.526976 81.841876 
z
" clip-path="url(#pbea799e01b)" style="fill: #0000f5; fill-opacity: 0.1"/>
    <path d="M 312.634646 168.12973 
L 299.786191 124.756978 
L 308.105081 112.727605 
L 320.928409 156.359711 
z
" clip-path="url(#pbea799e01b)" style="fill: #0000f5; fill-opacity: 0.1"/>
    <path d="M 216.518837 121.193189 
L 202.834091 77.391834 
L 210.8053 65.183804 
L 224.470902 109.247731 
z
" clip-path="url(#pbea799e01b)" style="fill: #0000f5; fill-opacity: 0.1"/>
    <path d="M 283.327697 148.556471 
L 270.208315 104.954435 
L 278.431257 92.836283 
L 291.527278 136.699621 
z
" clip-path="url(#pbea799e01b)" style="fill: #0000f5; fill-opacity: 0.1"/>
    <path d="M 187.06356 101.544651 
L 173.105296 57.51264 
L 180.97947 45.215254 
L 194.920385 89.5118 
z
" clip-path="url(#pbea799e01b)" style="fill: #0000f5; fill-opacity: 0.1"/>
    <path d="M 350.24847 175.965591 
L 337.696376 132.563605 
L 346.171892 120.535654 
L 358.696389 164.197664 
z
" clip-path="url(#pbea799e01b)" style="fill: #0000f5; fill-opacity: 0.1"/>
    <path d="M 253.939894 128.929213 
L 240.548133 85.096787 
L 248.674559 72.889408 
L 262.044741 116.985097 
z
" clip-path="url(#pbea799e01b)" style="fill: #0000f5; fill-opacity: 0.1"/>
    <path d="M 157.526976 81.841876 
L 143.293729 37.578098 
L 151.070295 25.190905 
L 165.288003 69.721194 
z
" clip-path="url(#pbea799e01b)" style="fill: #0000f5; fill-opacity: 0.1"/>
    <path d="M 320.928409 156.359711 
L 308.105081 112.727605 
L 316.484604 100.610555 
L 329.282102 144.504645 
z
" clip-path="url(#pbea799e01b)" style="fill: #0000f5; fill-opacity: 0.1"/>
    <path d="M 224.470902 109.247731 
L 210.8053 65.183804 
L 218.834639 52.886746 
L 232.480459 97.21591 
z
" clip-path="url(#pbea799e01b)" style="fill: #0000f5; fill-opacity: 0.1"/>
    <path d="M 127.908748 62.084639 
L 113.399043 17.587976 
L 121.077425 5.110522 
L 135.573416 49.875686 
z
" clip-path="url(#pbea799e01b)" style="fill: #0000f5; fill-opacity: 0.1"/>
    <path d="M 291.527278 136.699621 
L 278.431257 92.836283 
L 286.714216 80.629684 
L 299.786191 124.756978 
z
" clip-path="url(#pbea799e01b)" style="fill: #0000f5; fill-opacity: 0.1"/>
    <path d="M 194.920385 89.5118 
L 180.97947 45.215254 
L 188.911146 32.828063 
L 202.834091 77.391834 
z
" clip-path="url(#pbea799e01b)" style="fill: #0000f5; fill-opacity: 0.1"/>
    <path d="M 358.696389 164.197664 
L 346.171892 120.535654 
L 354.709322 108.419839 
L 367.205486 152.344514 
z
" clip-path="url(#pbea799e01b)" style="fill: #0000f5; fill-opacity: 0.1"/>
    <path d="M 262.044741 116.985097 
L 248.674559 72.889408 
L 256.860381 60.592805 
L 270.208315 104.954435 
z
" clip-path="url(#pbea799e01b)" style="fill: #0000f5; fill-opacity: 0.1"/>
    <path d="M 165.288003 69.721194 
L 151.070295 25.190905 
L 158.903731 12.713124 
L 173.105296 57.51264 
z
" clip-path="url(#pbea799e01b)" style="fill: #0000f5; fill-opacity: 0.1"/>
    <path d="M 329.282102 144.504645 
L 316.484604 100.610555 
L 324.925424 88.404867 
L 337.696376 132.563605 
z
" clip-path="url(#pbea799e01b)" style="fill: #0000f5; fill-opacity: 0.1"/>
    <path d="M 232.480459 97.21591 
L 218.834639 52.886746 
L 226.922746 40.499682 
L 240.548133 85.096787 
z
" clip-path="url(#pbea799e01b)" style="fill: #0000f5; fill-opacity: 0.1"/>
    <path d="M 135.573416 49.875686 
L 121.077425 5.110522 
L 128.812038 -7.458309 
L 143.293729 37.578098 
z
" clip-path="url(#pbea799e01b)" style="fill: #0000f5; fill-opacity: 0.1"/>
    <path d="M 299.786191 124.756978 
L 286.714216 80.629684 
L 295.057852 68.333665 
L 308.105081 112.727605 
z
" clip-path="url(#pbea799e01b)" style="fill: #0000f5; fill-opacity: 0.1"/>
    <path d="M 202.834091 77.391834 
L 188.911146 32.828063 
L 196.900959 20.350079 
L 210.8053 65.183804 
z
" clip-path="url(#pbea799e01b)" style="fill: #0000f5; fill-opacity: 0.1"/>
    <path d="M 367.205486 152.344514 
L 354.709322 108.419839 
L 363.309346 96.215193 
L 375.77643 140.405213 
z
" clip-path="url(#pbea799e01b)" style="fill: #0000f5; fill-opacity: 0.1"/>
    <path d="M 270.208315 104.954435 
L 256.860381 60.592805 
L 265.106253 48.205996 
L 278.431257 92.836283 
z
" clip-path="url(#pbea799e01b)" style="fill: #0000f5; fill-opacity: 0.1"/>
    <path d="M 173.105296 57.51264 
L 158.903731 12.713124 
L 166.794663 0.143757 
L 180.97947 45.215254 
z
" clip-path="url(#pbea799e01b)" style="fill: #0000f5; fill-opacity: 0.1"/>
    <path d="M 337.696376 132.563605 
L 324.925424 88.404867 
L 333.428218 76.109563 
L 346.171892 120.535654 
z
" clip-path="url(#pbea799e01b)" style="fill: #0000f5; fill-opacity: 0.1"/>
    <path d="M 240.548133 85.096787 
L 226.922746 40.499682 
L 235.07027 28.021621 
L 248.674559 72.889408 
z
" clip-path="url(#pbea799e01b)" style="fill: #0000f5; fill-opacity: 0.1"/>
    <path d="M 143.293729 37.578098 
L 128.812038 -7.458309 
L 136.603503 -20.119523 
L 151.070295 25.190905 
z
" clip-path="url(#pbea799e01b)" style="fill: #0000f5; fill-opacity: 0.1"/>
    <path d="M 308.105081 112.727605 
L 295.057852 68.333665 
L 303.462834 55.94724 
L 316.484604 100.610555 
z
" clip-path="url(#pbea799e01b)" style="fill: #0000f5; fill-opacity: 0.1"/>
    <path d="M 210.8053 65.183804 
L 196.900959 20.350079 
L 204.949548 7.780301 
L 218.834639 52.886746 
z
" clip-path="url(#pbea799e01b)" style="fill: #0000f5; fill-opacity: 0.1"/>
    <path d="M 113.399043 17.587976 
L 98.635714 -27.686474 
L 106.327117 -40.440003 
L 121.077425 5.110522 
z
" clip-path="url(#pbea799e01b)" style="fill: #0000f5; fill-opacity: 0.1"/>
    <path d="M 278.431257 92.836283 
L 265.106253 48.205996 
L 273.412837 35.727985 
L 286.714216 80.629684 
z
" clip-path="url(#pbea799e01b)" style="fill: #0000f5; fill-opacity: 0.1"/>
    <path d="M 180.97947 45.215254 
L 166.794663 0.143757 
L 174.743728 -12.518206 
L 188.911146 32.828063 
z
" clip-path="url(#pbea799e01b)" style="fill: #0000f5; fill-opacity: 0.1"/>
    <path d="M 346.171892 120.535654 
L 333.428218 76.109563 
L 341.99367 63.723653 
L 354.709322 108.419839 
z
" clip-path="url(#pbea799e01b)" style="fill: #0000f5; fill-opacity: 0.1"/>
    <path d="M 248.674559 72.889408 
L 235.07027 28.021621 
L 243.277868 15.451557 
L 256.860381 60.592805 
z
" clip-path="url(#pbea799e01b)" style="fill: #0000f5; fill-opacity: 0.1"/>
    <path d="M 151.070295 25.190905 
L 136.603503 -20.119523 
L 144.452447 -32.874143 
L 158.903731 12.713124 
z
" clip-path="url(#pbea799e01b)" style="fill: #0000f5; fill-opacity: 0.1"/>
    <path d="M 316.484604 100.610555 
L 303.462834 55.94724 
L 311.929841 43.469409 
L 324.925424 88.404867 
z
" clip-path="url(#pbea799e01b)" style="fill: #0000f5; fill-opacity: 0.1"/>
    <path d="M 218.834639 52.886746 
L 204.949548 7.780301 
L 213.057566 -4.882288 
L 226.922746 40.499682 
z
" clip-path="url(#pbea799e01b)" style="fill: #0000f5; fill-opacity: 0.1"/>
    <path d="M 121.077425 5.110522 
L 106.327117 -40.440003 
L 114.075343 -53.287753 
L 128.812038 -7.458309 
z
" clip-path="url(#pbea799e01b)" style="fill: #0000f5; fill-opacity: 0.1"/>
    <path d="M 286.714216 80.629684 
L 273.412837 35.727985 
L 281.780807 23.157762 
L 295.057852 68.333665 
z
" clip-path="url(#pbea799e01b)" style="fill: #0000f5; fill-opacity: 0.1"/>
    <path d="M 188.911146 32.828063 
L 174.743728 -12.518206 
L 182.751568 -25.273794 
L 196.900959 20.350079 
z
" clip-path="url(#pbea799e01b)" style="fill: #0000f5; fill-opacity: 0.1"/>
    <path d="M 354.709322 108.419839 
L 341.99367 63.723653 
L 350.622476 51.246133 
L 363.309346 96.215193 
z
" clip-path="url(#pbea799e01b)" style="fill: #0000f5; fill-opacity: 0.1"/>
    <path d="M 256.860381 60.592805 
L 243.277868 15.451557 
L 251.546206 2.788468 
L 265.106253 48.205996 
z
" clip-path="url(#pbea799e01b)" style="fill: #0000f5; fill-opacity: 0.1"/>
    <path d="M 158.903731 12.713124 
L 144.452447 -32.874143 
L 152.35951 -45.723206 
L 166.794663 0.143757 
z
" clip-path="url(#pbea799e01b)" style="fill: #0000f5; fill-opacity: 0.1"/>
    <path d="M 324.925424 88.404867 
L 311.929841 43.469409 
L 320.459563 30.899156 
L 333.428218 76.109563 
z
" clip-path="url(#pbea799e01b)" style="fill: #0000f5; fill-opacity: 0.1"/>
    <path d="M 226.922746 40.499682 
L 213.057566 -4.882288 
L 221.225672 -17.63872 
L 235.07027 28.021621 
z
" clip-path="url(#pbea799e01b)" style="fill: #0000f5; fill-opacity: 0.1"/>
    <path d="M 128.812038 -7.458309 
L 114.075343 -53.287753 
L 121.881023 -66.230772 
L 136.603503 -20.119523 
z
" clip-path="url(#pbea799e01b)" style="fill: #0000f5; fill-opacity: 0.1"/>
    <path d="M 295.057852 68.333665 
L 281.780807 23.157762 
L 290.210846 10.4943 
L 303.462834 55.94724 
z
" clip-path="url(#pbea799e01b)" style="fill: #0000f5; fill-opacity: 0.1"/>
    <path d="M 196.900959 20.350079 
L 182.751568 -25.273794 
L 190.81884 -38.124048 
L 204.949548 7.780301 
z
" clip-path="url(#pbea799e01b)" style="fill: #0000f5; fill-opacity: 0.1"/>
    <path d="M 265.106253 48.205996 
L 251.546206 2.788468 
L 259.875961 -9.968683 
L 273.412837 35.727985 
z
" clip-path="url(#pbea799e01b)" style="fill: #0000f5; fill-opacity: 0.1"/>
    <path d="M 166.794663 0.143757 
L 152.35951 -45.723206 
L 160.325339 -58.667765 
L 174.743728 -12.518206 
z
" clip-path="url(#pbea799e01b)" style="fill: #0000f5; fill-opacity: 0.1"/>
    <path d="M 333.428218 76.109563 
L 320.459563 30.899156 
L 329.052697 18.235451 
L 341.99367 63.723653 
z
" clip-path="url(#pbea799e01b)" style="fill: #0000f5; fill-opacity: 0.1"/>
    <path d="M 235.07027 28.021621 
L 221.225672 -17.63872 
L 229.454538 -30.490042 
L 243.277868 15.451557 
z
" clip-path="url(#pbea799e01b)" style="fill: #0000f5; fill-opacity: 0.1"/>
    <path d="M 136.603503 -20.119523 
L 121.881023 -66.230772 
L 129.744799 -79.270122 
L 144.452447 -32.874143 
z
" clip-path="url(#pbea799e01b)" style="fill: #0000f5; fill-opacity: 0.1"/>
    <path d="M 303.462834 55.94724 
L 290.210846 10.4943 
L 298.703648 -2.263442 
L 311.929841 43.469409 
z
" clip-path="url(#pbea799e01b)" style="fill: #0000f5; fill-opacity: 0.1"/>
    <path d="M 204.949548 7.780301 
L 190.81884 -38.124048 
L 198.946206 -51.070027 
L 213.057566 -4.882288 
z
" clip-path="url(#pbea799e01b)" style="fill: #0000f5; fill-opacity: 0.1"/>
    <path d="M 273.412837 35.727985 
L 259.875961 -9.968683 
L 268.26782 -22.820947 
L 281.780807 23.157762 
z
" clip-path="url(#pbea799e01b)" style="fill: #0000f5; fill-opacity: 0.1"/>
    <path d="M 174.743728 -12.518206 
L 160.325339 -58.667765 
L 168.350592 -71.708889 
L 182.751568 -25.273794 
z
" clip-path="url(#pbea799e01b)" style="fill: #0000f5; fill-opacity: 0.1"/>
    <path d="M 341.99367 63.723653 
L 329.052697 18.235451 
L 337.709956 5.477246 
L 350.622476 51.246133 
z
" clip-path="url(#pbea799e01b)" style="fill: #0000f5; fill-opacity: 0.1"/>
    <path d="M 243.277868 15.451557 
L 229.454538 -30.490042 
L 237.744843 -43.437316 
L 251.546206 2.788468 
z
" clip-path="url(#pbea799e01b)" style="fill: #0000f5; fill-opacity: 0.1"/>
    <path d="M 144.452447 -32.874143 
L 129.744799 -79.270122 
L 137.667321 -92.406883 
L 152.35951 -45.723206 
z
" clip-path="url(#pbea799e01b)" style="fill: #0000f5; fill-opacity: 0.1"/>
    <path d="M 311.929841 43.469409 
L 298.703648 -2.263442 
L 307.259914 -15.116521 
L 320.459563 30.899156 
z
" clip-path="url(#pbea799e01b)" style="fill: #0000f5; fill-opacity: 0.1"/>
    <path d="M 213.057566 -4.882288 
L 198.946206 -51.070027 
L 207.134341 -64.112803 
L 221.225672 -17.63872 
z
" clip-path="url(#pbea799e01b)" style="fill: #0000f5; fill-opacity: 0.1"/>
    <path d="M 281.780807 23.157762 
L 268.26782 -22.820947 
L 276.722481 -35.769392 
L 290.210846 10.4943 
z
" clip-path="url(#pbea799e01b)" style="fill: #0000f5; fill-opacity: 0.1"/>
    <path d="M 182.751568 -25.273794 
L 168.350592 -71.708889 
L 176.435937 -84.847663 
L 190.81884 -38.124048 
z
" clip-path="url(#pbea799e01b)" style="fill: #0000f5; fill-opacity: 0.1"/>
    <path d="M 251.546206 2.788468 
L 237.744843 -43.437316 
L 246.097279 -56.481622 
L 259.875961 -9.968683 
z
" clip-path="url(#pbea799e01b)" style="fill: #0000f5; fill-opacity: 0.1"/>
    <path d="M 152.35951 -45.723206 
L 137.667321 -92.406883 
L 145.649252 -105.642151 
L 160.325339 -58.667765 
z
" clip-path="url(#pbea799e01b)" style="fill: #0000f5; fill-opacity: 0.1"/>
    <path d="M 320.459563 30.899156 
L 307.259914 -15.116521 
L 315.88036 -28.066009 
L 329.052697 18.235451 
z
" clip-path="url(#pbea799e01b)" style="fill: #0000f5; fill-opacity: 0.1"/>
    <path d="M 221.225672 -17.63872 
L 207.134341 -64.112803 
L 215.383929 -77.253468 
L 229.454538 -30.490042 
z
" clip-path="url(#pbea799e01b)" style="fill: #0000f5; fill-opacity: 0.1"/>
    <path d="M 290.210846 10.4943 
L 276.722481 -35.769392 
L 285.24065 -48.815101 
L 298.703648 -2.263442 
z
" clip-path="url(#pbea799e01b)" style="fill: #0000f5; fill-opacity: 0.1"/>
    <path d="M 190.81884 -38.124048 
L 176.435937 -84.847663 
L 184.582051 -98.085186 
L 198.946206 -51.070027 
z
" clip-path="url(#pbea799e01b)" style="fill: #0000f5; fill-opacity: 0.1"/>
    <path d="M 259.875961 -9.968683 
L 246.097279 -56.481622 
L 254.512546 -69.624054 
L 268.26782 -22.820947 
z
" clip-path="url(#pbea799e01b)" style="fill: #0000f5; fill-opacity: 0.1"/>
    <path d="M 160.325339 -58.667765 
L 145.649252 -105.642151 
L 153.69126 -118.977038 
L 168.350592 -71.708889 
z
" clip-path="url(#pbea799e01b)" style="fill: #0000f5; fill-opacity: 0.1"/>
    <path d="M 329.052697 18.235451 
L 315.88036 -28.066009 
L 324.565711 -41.112995 
L 337.709956 5.477246 
z
" clip-path="url(#pbea799e01b)" style="fill: #0000f5; fill-opacity: 0.1"/>
    <path d="M 229.454538 -30.490042 
L 215.383929 -77.253468 
L 223.695664 -90.493126 
L 237.744843 -43.437316 
z
" clip-path="url(#pbea799e01b)" style="fill: #0000f5; fill-opacity: 0.1"/>
    <path d="M 298.703648 -2.263442 
L 285.24065 -48.815101 
L 293.823046 -61.959176 
L 307.259914 -15.116521 
z
" clip-path="url(#pbea799e01b)" style="fill: #0000f5; fill-opacity: 0.1"/>
    <path d="M 198.946206 -51.070027 
L 184.582051 -98.085186 
L 192.789621 -111.422578 
L 207.134341 -64.112803 
z
" clip-path="url(#pbea799e01b)" style="fill: #0000f5; fill-opacity: 0.1"/>
    <path d="M 268.26782 -22.820947 
L 254.512546 -69.624054 
L 262.991356 -82.865723 
L 276.722481 -35.769392 
z
" clip-path="url(#pbea799e01b)" style="fill: #0000f5; fill-opacity: 0.1"/>
    <path d="M 168.350592 -71.708889 
L 153.69126 -118.977038 
L 161.794028 -132.412673 
L 176.435937 -84.847663 
z
" clip-path="url(#pbea799e01b)" style="fill: #0000f5; fill-opacity: 0.1"/>
    <path d="M 237.744843 -43.437316 
L 223.695664 -90.493126 
L 232.070252 -103.8329 
L 246.097279 -56.481622 
z
" clip-path="url(#pbea799e01b)" style="fill: #0000f5; fill-opacity: 0.1"/>
    <path d="M 307.259914 -15.116521 
L 293.823046 -61.959176 
L 302.470399 -75.202732 
L 315.88036 -28.066009 
z
" clip-path="url(#pbea799e01b)" style="fill: #0000f5; fill-opacity: 0.1"/>
    <path d="M 207.134341 -64.112803 
L 192.789621 -111.422578 
L 201.059346 -124.860971 
L 215.383929 -77.253468 
z
" clip-path="url(#pbea799e01b)" style="fill: #0000f5; fill-opacity: 0.1"/>
    <path d="M 276.722481 -35.769392 
L 262.991356 -82.865723 
L 271.534431 -96.207758 
L 285.24065 -48.815101 
z
" clip-path="url(#pbea799e01b)" style="fill: #0000f5; fill-opacity: 0.1"/>
    <path d="M 176.435937 -84.847663 
L 161.794028 -132.412673 
L 169.958246 -145.950202 
L 184.582051 -98.085186 
z
" clip-path="url(#pbea799e01b)" style="fill: #0000f5; fill-opacity: 0.1"/>
    <path d="M 246.097279 -56.481622 
L 232.070252 -103.8329 
L 240.508408 -117.273932 
L 254.512546 -69.624054 
z
" clip-path="url(#pbea799e01b)" style="fill: #0000f5; fill-opacity: 0.1"/>
    <path d="M 315.88036 -28.066009 
L 302.470399 -75.202732 
L 311.183447 -88.546903 
L 324.565711 -41.112995 
z
" clip-path="url(#pbea799e01b)" style="fill: #0000f5; fill-opacity: 0.1"/>
    <path d="M 215.383929 -77.253468 
L 201.059346 -124.860971 
L 209.391935 -138.401519 
L 223.695664 -90.493126 
z
" clip-path="url(#pbea799e01b)" style="fill: #0000f5; fill-opacity: 0.1"/>
    <path d="M 285.24065 -48.815101 
L 271.534431 -96.207758 
L 280.142506 -109.651305 
L 293.823046 -61.959176 
z
" clip-path="url(#pbea799e01b)" style="fill: #0000f5; fill-opacity: 0.1"/>
    <path d="M 184.582051 -98.085186 
L 169.958246 -145.950202 
L 178.184616 -159.590789 
L 192.789621 -111.422578 
z
" clip-path="url(#pbea799e01b)" style="fill: #0000f5; fill-opacity: 0.1"/>
    <path d="M 254.512546 -69.624054 
L 240.508408 -117.273932 
L 249.010858 -130.817377 
L 262.991356 -82.865723 
z
" clip-path="url(#pbea799e01b)" style="fill: #0000f5; fill-opacity: 0.1"/>
    <path d="M 223.695664 -90.493126 
L 209.391935 -138.401519 
L 217.788106 -152.045389 
L 232.070252 -103.8329 
z
" clip-path="url(#pbea799e01b)" style="fill: #0000f5; fill-opacity: 0.1"/>
    <path d="M 293.823046 -61.959176 
L 280.142506 -109.651305 
L 288.816324 -123.197525 
L 302.470399 -75.202732 
z
" clip-path="url(#pbea799e01b)" style="fill: #0000f5; fill-opacity: 0.1"/>
    <path d="M 192.789621 -111.422578 
L 178.184616 -159.590789 
L 186.47385 -173.335614 
L 201.059346 -124.860971 
z
" clip-path="url(#pbea799e01b)" style="fill: #0000f5; fill-opacity: 0.1"/>
    <path d="M 262.991356 -82.865723 
L 249.010858 -130.817377 
L 257.57834 -144.46441 
L 271.534431 -96.207758 
z
" clip-path="url(#pbea799e01b)" style="fill: #0000f5; fill-opacity: 0.1"/>
    <path d="M 232.070252 -103.8329 
L 217.788106 -152.045389 
L 226.248591 -165.79377 
L 240.508408 -117.273932 
z
" clip-path="url(#pbea799e01b)" style="fill: #0000f5; fill-opacity: 0.1"/>
    <path d="M 302.470399 -75.202732 
L 288.816324 -123.197525 
L 297.556641 -136.847601 
L 311.183447 -88.546903 
z
" clip-path="url(#pbea799e01b)" style="fill: #0000f5; fill-opacity: 0.1"/>
    <path d="M 201.059346 -124.860971 
L 186.47385 -173.335614 
L 194.826673 -187.185878 
L 209.391935 -138.401519 
z
" clip-path="url(#pbea799e01b)" style="fill: #0000f5; fill-opacity: 0.1"/>
    <path d="M 271.534431 -96.207758 
L 257.57834 -144.46441 
L 266.211603 -158.216226 
L 280.142506 -109.651305 
z
" clip-path="url(#pbea799e01b)" style="fill: #0000f5; fill-opacity: 0.1"/>
    <path d="M 240.508408 -117.273932 
L 226.248591 -165.79377 
L 234.774132 -179.647866 
L 249.010858 -130.817377 
z
" clip-path="url(#pbea799e01b)" style="fill: #0000f5; fill-opacity: 0.1"/>
    <path d="M 209.391935 -138.401519 
L 194.826673 -187.185878 
L 203.243817 -201.142799 
L 217.788106 -152.045389 
z
" clip-path="url(#pbea799e01b)" style="fill: #0000f5; fill-opacity: 0.1"/>
    <path d="M 280.142506 -109.651305 
L 266.211603 -158.216226 
L 274.911408 -172.074035 
L 288.816324 -123.197525 
z
" clip-path="url(#pbea799e01b)" style="fill: #0000f5; fill-opacity: 0.1"/>
    <path d="M 249.010858 -130.817377 
L 234.774132 -179.647866 
L 243.365481 -193.608902 
L 257.57834 -144.46441 
z
" clip-path="url(#pbea799e01b)" style="fill: #0000f5; fill-opacity: 0.1"/>
    <path d="M 217.788106 -152.045389 
L 203.243817 -201.142799 
L 211.72603 -215.207612 
L 226.248591 -165.79377 
z
" clip-path="url(#pbea799e01b)" style="fill: #0000f5; fill-opacity: 0.1"/>
    <path d="M 288.816324 -123.197525 
L 274.911408 -172.074035 
L 283.678527 -186.039068 
L 297.556641 -136.847601 
z
" clip-path="url(#pbea799e01b)" style="fill: #0000f5; fill-opacity: 0.1"/>
    <path d="M 257.57834 -144.46441 
L 243.365481 -193.608902 
L 252.023404 -207.67812 
L 266.211603 -158.216226 
z
" clip-path="url(#pbea799e01b)" style="fill: #0000f5; fill-opacity: 0.1"/>
    <path d="M 226.248591 -165.79377 
L 211.72603 -215.207612 
L 220.274069 -229.381575 
L 234.774132 -179.647866 
z
" clip-path="url(#pbea799e01b)" style="fill: #0000f5; fill-opacity: 0.1"/>
    <path d="M 266.211603 -158.216226 
L 252.023404 -207.67812 
L 260.748677 -221.856784 
L 274.911408 -172.074035 
z
" clip-path="url(#pbea799e01b)" style="fill: #0000f5; fill-opacity: 0.1"/>
    <path d="M 234.774132 -179.647866 
L 220.274069 -229.381575 
L 228.888702 -243.665962 
L 243.365481 -193.608902 
z
" clip-path="url(#pbea799e01b)" style="fill: #0000f5; fill-opacity: 0.1"/>
    <path d="M 274.911408 -172.074035 
L 260.748677 -221.856784 
L 269.542089 -236.146175 
L 283.678527 -186.039068 
z
" clip-path="url(#pbea799e01b)" style="fill: #0000f5; fill-opacity: 0.1"/>
    <path d="M 243.365481 -193.608902 
L 228.888702 -243.665962 
L 237.570712 -258.062069 
L 252.023404 -207.67812 
z
" clip-path="url(#pbea799e01b)" style="fill: #0000f5; fill-opacity: 0.1"/>
    <path d="M 252.023404 -207.67812 
L 237.570712 -258.062069 
L 246.320891 -272.571212 
L 260.748677 -221.856784 
z
" clip-path="url(#pbea799e01b)" style="fill: #0000f5; fill-opacity: 0.1"/>
    <path d="M 260.748677 -221.856784 
L 246.320891 -272.571212 
L 255.140046 -287.194727 
L 269.542089 -236.146175 
z
" clip-path="url(#pbea799e01b)" style="fill: #0000f5; fill-opacity: 0.1"/>
   </g>
   <g id="legend_1">
    <g id="patch_6">
     <path d="M 357.840076 67.305115 
L 396.2 67.305115 
Q 398.2 67.305115 398.2 65.305115 
L 398.2 7 
Q 398.2 5 396.2 5 
L 357.840076 5 
Q 355.840076 5 355.840076 7 
L 355.840076 65.305115 
Q 355.840076 67.305115 357.840076 67.305115 
z
" style="fill: #ffffff; opacity: 0.8; stroke: #cccccc; stroke-linejoin: miter"/>
    </g>
    <g id="line2d_25">
     <path d="M 359.840076 12.5 
L 369.840076 12.5 
L 379.840076 12.5 
" style="fill: none; stroke: #ff0000; stroke-width: 1.5; stroke-linecap: square"/>
    </g>
    <g id="text_21">
     <!-- $\vec{a}$ -->
     <g transform="translate(387.840076 16)scale(0.1 -0.1)">
      <defs>
       <path id="CMMI12-7e" d="M 3424 3835 
C 3347 3764 3110 3540 3110 3451 
C 3110 3387 3168 3329 3232 3329 
C 3290 3329 3315 3368 3360 3432 
C 3514 3624 3686 3745 3834 3828 
C 3898 3867 3942 3886 3942 3956 
C 3942 4014 3891 4046 3853 4078 
C 3674 4200 3629 4372 3610 4449 
C 3590 4500 3571 4577 3482 4577 
C 3443 4577 3366 4552 3366 4456 
C 3366 4398 3405 4244 3526 4072 
L 1376 4072 
C 1267 4072 1158 4072 1158 3950 
C 1158 3835 1274 3835 1376 3835 
L 3424 3835 
z
" transform="scale(0.015625)"/>
       <path id="CMMI12-61" d="M 1926 760 
C 1894 651 1894 639 1805 517 
C 1664 338 1382 64 1082 64 
C 819 64 672 300 672 677 
C 672 1028 870 1743 992 2012 
C 1210 2459 1510 2689 1760 2689 
C 2182 2689 2266 2165 2266 2114 
C 2266 2108 2246 2024 2240 2012 
L 1926 760 
z
M 2336 2395 
C 2266 2561 2093 2816 1760 2816 
C 1037 2816 256 1884 256 939 
C 256 307 627 -64 1062 -64 
C 1414 -64 1715 211 1894 422 
C 1958 45 2259 -64 2451 -64 
C 2643 -64 2797 51 2912 281 
C 3014 498 3104 888 3104 913 
C 3104 945 3078 971 3040 971 
C 2982 971 2976 939 2950 843 
C 2854 466 2733 64 2470 64 
C 2285 64 2272 230 2272 358 
C 2272 505 2291 575 2349 824 
C 2394 984 2426 1124 2477 1309 
C 2714 2267 2771 2497 2771 2535 
C 2771 2625 2701 2695 2605 2695 
C 2400 2695 2349 2472 2336 2395 
z
" transform="scale(0.015625)"/>
      </defs>
      <use xlink:href="#CMMI12-7e" transform="scale(0.996264)"/>
      <use xlink:href="#CMMI12-61" transform="translate(6.445738 0)scale(0.996264)"/>
     </g>
    </g>
    <g id="line2d_26">
     <path d="M 359.840076 27.24679 
L 369.840076 27.24679 
L 379.840076 27.24679 
" style="fill: none; stroke: #00ff00; stroke-width: 1.5; stroke-linecap: square"/>
    </g>
    <g id="text_22">
     <!-- $\vec{b}$ -->
     <g transform="translate(387.840076 30.74679)scale(0.1 -0.1)">
      <defs>
       <path id="CMMI12-62" d="M 1478 4257 
C 1485 4283 1498 4321 1498 4352 
C 1498 4416 1434 4416 1421 4416 
C 1414 4416 1184 4393 1069 4377 
C 960 4377 864 4358 749 4358 
C 595 4345 550 4339 550 4224 
C 550 4160 614 4160 678 4160 
C 1005 4160 1005 4103 1005 4040 
C 1005 3996 954 3811 928 3696 
L 774 3085 
C 710 2831 346 1387 320 1272 
C 288 1114 288 1005 288 922 
C 288 274 653 -64 1069 -64 
C 1811 -64 2579 888 2579 1814 
C 2579 2401 2246 2816 1766 2816 
C 1434 2816 1133 2542 1011 2414 
L 1478 4257 
z
M 1075 64 
C 870 64 646 217 646 715 
C 646 926 666 1047 781 1494 
C 800 1577 902 1986 928 2069 
C 941 2120 1318 2689 1754 2689 
C 2035 2689 2163 2408 2163 2076 
C 2163 1769 1984 1047 1824 715 
C 1664 370 1370 64 1075 64 
z
" transform="scale(0.015625)"/>
      </defs>
      <use xlink:href="#CMMI12-7e" transform="translate(0 26.29016)scale(0.996264)"/>
      <use xlink:href="#CMMI12-62" transform="translate(11.311737 0)scale(0.996264)"/>
     </g>
    </g>
    <g id="line2d_27">
     <path d="M 359.840076 41.183968 
L 369.840076 41.183968 
L 379.840076 41.183968 
" style="fill: none; stroke: #0016ff; stroke-width: 1.5; stroke-linecap: square"/>
    </g>
    <g id="text_23">
     <!-- $\vec{c}$ -->
     <g transform="translate(387.840076 44.683968)scale(0.1 -0.1)">
      <defs>
       <path id="CMMI12-63" d="M 2502 2431 
C 2381 2431 2323 2431 2234 2355 
C 2195 2323 2125 2227 2125 2125 
C 2125 1997 2221 1920 2342 1920 
C 2496 1920 2669 2044 2669 2292 
C 2669 2588 2374 2816 1933 2816 
C 1094 2816 256 1903 256 996 
C 256 441 602 -64 1254 -64 
C 2125 -64 2675 622 2675 706 
C 2675 744 2637 776 2611 776 
C 2592 776 2586 770 2528 713 
C 2118 162 1510 64 1267 64 
C 826 64 685 446 685 764 
C 685 988 794 1605 1024 2039 
C 1190 2338 1536 2682 1939 2682 
C 2022 2682 2374 2682 2502 2431 
z
" transform="scale(0.015625)"/>
      </defs>
      <use xlink:href="#CMMI12-7e" transform="scale(0.996264)"/>
      <use xlink:href="#CMMI12-63" transform="translate(5.638615 0)scale(0.996264)"/>
     </g>
    </g>
    <g id="line2d_28">
     <path d="M 359.840076 57.867937 
L 369.840076 57.867937 
L 379.840076 57.867937 
" style="fill: none; stroke: #f400ff; stroke-width: 1.5; stroke-linecap: square"/>
    </g>
    <g id="text_24">
     <!-- $\vec{f}$ -->
     <g transform="translate(387.840076 61.367937)scale(0.1 -0.1)">
      <defs>
       <path id="CMMI12-66" d="M 2854 2566 
C 2982 2566 3034 2566 3034 2688 
C 3034 2752 2982 2752 2867 2752 
L 2349 2752 
C 2470 3429 2560 3897 2611 4107 
C 2650 4265 2784 4416 2950 4416 
C 3085 4416 3219 4358 3283 4298 
C 3034 4272 2957 4082 2957 3969 
C 2957 3837 3053 3759 3174 3759 
C 3302 3759 3494 3870 3494 4119 
C 3494 4393 3226 4544 2944 4544 
C 2669 4544 2400 4334 2272 4078 
C 2157 3848 2093 3611 1946 2752 
L 1517 2752 
C 1395 2752 1331 2752 1331 2637 
C 1331 2566 1370 2566 1498 2566 
L 1907 2566 
C 1792 1976 1530 542 1382 -137 
C 1274 -689 1178 -1152 858 -1152 
C 838 -1152 653 -1152 538 -1031 
C 864 -1005 864 -726 864 -720 
C 864 -593 768 -517 646 -517 
C 518 -517 326 -625 326 -867 
C 326 -1140 608 -1280 858 -1280 
C 1510 -1280 1779 -118 1850 199 
C 1965 688 2278 2376 2310 2566 
L 2854 2566 
z
" transform="scale(0.015625)"/>
      </defs>
      <use xlink:href="#CMMI12-7e" transform="translate(13.568792 26.29016)scale(0.996264)"/>
      <use xlink:href="#CMMI12-66" transform="scale(0.996264)"/>
     </g>
    </g>
   </g>
  </g>
 </g>
 <defs>
  <clipPath id="pbea799e01b">
   <rect x="57.6" y="0" width="345.6" height="345.6"/>
  </clipPath>
 </defs>
</svg>
