<?xml version="1.0" encoding="utf-8" standalone="no"?>
<!DOCTYPE svg PUBLIC "-//W3C//DTD SVG 1.1//EN"
  "http://www.w3.org/Graphics/SVG/1.1/DTD/svg11.dtd">
<svg xmlns:xlink="http://www.w3.org/1999/xlink" width="460.8pt" height="345.6pt" viewBox="0 0 460.8 345.6" xmlns="http://www.w3.org/2000/svg" version="1.1">
 <metadata>
  <rdf:RDF xmlns:dc="http://purl.org/dc/elements/1.1/" xmlns:cc="http://creativecommons.org/ns#" xmlns:rdf="http://www.w3.org/1999/02/22-rdf-syntax-ns#">
   <cc:Work>
    <dc:type rdf:resource="http://purl.org/dc/dcmitype/StillImage"/>
    <dc:date>2022-07-12T15:50:52.649448</dc:date>
    <dc:format>image/svg+xml</dc:format>
    <dc:creator>
     <cc:Agent>
      <dc:title>Matplotlib v3.5.1, https://matplotlib.org/</dc:title>
     </cc:Agent>
    </dc:creator>
   </cc:Work>
  </rdf:RDF>
 </metadata>
 <defs>
  <style type="text/css">*{stroke-linejoin: round; stroke-linecap: butt}</style>
 </defs>
 <g id="figure_1">
  <g id="patch_1">
   <path d="M 0 345.6 
L 460.8 345.6 
L 460.8 0 
L 0 0 
z
" style="fill: #ffffff"/>
  </g>
  <g id="patch_2">
   <path d="M 57.6 345.6 
L 403.2 345.6 
L 403.2 0 
L 57.6 0 
z
" style="fill: #ffffff"/>
  </g>
  <g id="pane3d_1">
   <g id="patch_3">
    <path d="M 227.478327 245.060319 
L 391.422111 251.161607 
L 391.422111 85.097852 
L 227.478327 91.19914 
" style="fill: #f2f2f2; opacity: 0.5; stroke: #f2f2f2; stroke-linejoin: miter"/>
   </g>
  </g>
  <g id="pane3d_2">
   <g id="patch_4">
    <path d="M 227.478327 245.060319 
L 77.334683 251.896457 
L 77.334683 84.363003 
L 227.478327 91.19914 
" style="fill: #e6e6e6; opacity: 0.5; stroke: #e6e6e6; stroke-linejoin: miter"/>
   </g>
  </g>
  <g id="pane3d_3">
   <g id="patch_5">
    <path d="M 227.478327 245.060319 
L 77.334683 251.896457 
L 244.055781 259.181599 
L 391.422111 251.161607 
" style="fill: #ececec; opacity: 0.5; stroke: #ececec; stroke-linejoin: miter"/>
   </g>
  </g>
  <g id="axis3d_1">
   <g id="line2d_1">
    <path d="M 391.422111 251.161607 
L 244.055781 259.181599 
" style="fill: none; stroke: #000000; stroke-width: 0.8; stroke-linecap: square"/>
   </g>
   <g id="text_1">
    <!-- x -->
    <g transform="translate(342.75197 284.392635)scale(0.16 -0.16)">
     <defs>
      <path id="CMSS17-78" d="M 1587 1414 
L 2656 2739 
L 2099 2739 
L 1363 1777 
L 602 2739 
L 32 2739 
L 1139 1414 
L 0 0 
L 563 0 
L 1363 1121 
L 2195 0 
L 2758 0 
L 1587 1414 
z
" transform="scale(0.015625)"/>
     </defs>
     <use xlink:href="#CMSS17-78" transform="scale(0.996264)"/>
    </g>
   </g>
   <g id="Line3DCollection_1">
    <path d="M 388.729647 251.308137 
L 224.716008 245.186089 
L 224.716008 91.07337 
" style="fill: none; stroke: #b0b0b0; stroke-width: 0.8"/>
    <path d="M 362.390142 252.741589 
L 197.730867 246.41474 
L 197.730867 89.844719 
" style="fill: none; stroke: #b0b0b0; stroke-width: 0.8"/>
    <path d="M 335.126875 254.225315 
L 169.871237 247.683207 
L 169.871237 88.576252 
" style="fill: none; stroke: #b0b0b0; stroke-width: 0.8"/>
    <path d="M 306.890382 255.762005 
L 141.093906 248.993458 
L 141.093906 87.266002 
" style="fill: none; stroke: #b0b0b0; stroke-width: 0.8"/>
    <path d="M 277.627605 257.354548 
L 111.352773 250.347591 
L 111.352773 85.911868 
" style="fill: none; stroke: #b0b0b0; stroke-width: 0.8"/>
    <path d="M 247.281556 259.006045 
L 80.598594 251.747849 
L 80.598594 84.511611 
" style="fill: none; stroke: #b0b0b0; stroke-width: 0.8"/>
   </g>
   <g id="xtick_1">
    <g id="line2d_2">
     <path d="M 387.314192 251.255303 
L 391.565962 251.414007 
" style="fill: none; stroke: #000000; stroke-width: 0.8; stroke-linecap: square"/>
    </g>
    <g id="text_2">
     <!-- $\mathdefault{0}$ -->
     <g transform="translate(397.607854 269.333571)scale(0.1 -0.1)">
      <defs>
       <path id="CMR17-30" d="M 2688 2025 
C 2688 2416 2682 3080 2413 3591 
C 2176 4039 1798 4198 1466 4198 
C 1158 4198 768 4058 525 3597 
C 269 3118 243 2524 243 2025 
C 243 1661 250 1106 448 619 
C 723 -39 1216 -128 1466 -128 
C 1760 -128 2208 -7 2470 600 
C 2662 1042 2688 1559 2688 2025 
z
M 1466 -26 
C 1056 -26 813 325 723 812 
C 653 1188 653 1738 653 2096 
C 653 2588 653 2997 736 3387 
C 858 3929 1216 4096 1466 4096 
C 1728 4096 2067 3923 2189 3400 
C 2272 3036 2278 2607 2278 2096 
C 2278 1680 2278 1169 2202 792 
C 2067 95 1690 -26 1466 -26 
z
" transform="scale(0.015625)"/>
      </defs>
      <use xlink:href="#CMR17-30" transform="scale(0.996264)"/>
     </g>
    </g>
   </g>
   <g id="xtick_2">
    <g id="line2d_3">
     <path d="M 360.967328 252.686919 
L 365.241296 252.851142 
" style="fill: none; stroke: #000000; stroke-width: 0.8; stroke-linecap: square"/>
    </g>
    <g id="text_3">
     <!-- $\mathdefault{1}$ -->
     <g transform="translate(371.328583 270.966868)scale(0.1 -0.1)">
      <defs>
       <path id="CMR17-31" d="M 1702 4058 
C 1702 4192 1696 4192 1606 4192 
C 1357 3916 979 3827 621 3827 
C 602 3827 570 3827 563 3808 
C 557 3795 557 3782 557 3648 
C 755 3648 1088 3686 1344 3839 
L 1344 461 
C 1344 236 1331 160 781 160 
L 589 160 
L 589 0 
C 896 0 1216 0 1523 0 
C 1830 0 2150 0 2458 0 
L 2458 160 
L 2266 160 
C 1715 160 1702 230 1702 458 
L 1702 4058 
z
" transform="scale(0.015625)"/>
      </defs>
      <use xlink:href="#CMR17-31" transform="scale(0.996264)"/>
     </g>
    </g>
   </g>
   <g id="xtick_3">
    <g id="line2d_4">
     <path d="M 333.697051 254.168711 
L 337.992173 254.338746 
" style="fill: none; stroke: #000000; stroke-width: 0.8; stroke-linecap: square"/>
    </g>
    <g id="text_4">
     <!-- $\mathdefault{2}$ -->
     <g transform="translate(344.122796 272.657749)scale(0.1 -0.1)">
      <defs>
       <path id="CMR17-32" d="M 2669 989 
L 2554 989 
C 2490 536 2438 459 2413 420 
C 2381 369 1920 369 1830 369 
L 602 369 
C 832 619 1280 1072 1824 1597 
C 2214 1967 2669 2402 2669 3035 
C 2669 3790 2067 4224 1395 4224 
C 691 4224 262 3604 262 3030 
C 262 2780 448 2748 525 2748 
C 589 2748 781 2787 781 3010 
C 781 3207 614 3264 525 3264 
C 486 3264 448 3258 422 3245 
C 544 3790 915 4058 1306 4058 
C 1862 4058 2227 3617 2227 3035 
C 2227 2479 1901 2000 1536 1584 
L 262 146 
L 262 0 
L 2515 0 
L 2669 989 
z
" transform="scale(0.015625)"/>
      </defs>
      <use xlink:href="#CMR17-32" transform="scale(0.996264)"/>
     </g>
    </g>
   </g>
   <g id="xtick_4">
    <g id="line2d_5">
     <path d="M 305.453951 255.703364 
L 309.769024 255.879524 
" style="fill: none; stroke: #000000; stroke-width: 0.8; stroke-linecap: square"/>
    </g>
    <g id="text_5">
     <!-- $\mathdefault{3}$ -->
     <g transform="translate(315.940614 274.409314)scale(0.1 -0.1)">
      <defs>
       <path id="CMR17-33" d="M 1414 2157 
C 1984 2157 2234 1662 2234 1090 
C 2234 320 1824 25 1453 25 
C 1114 25 563 194 390 693 
C 422 680 454 680 486 680 
C 640 680 755 782 755 948 
C 755 1133 614 1216 486 1216 
C 378 1216 211 1165 211 926 
C 211 335 787 -128 1466 -128 
C 2176 -128 2720 430 2720 1085 
C 2720 1707 2208 2157 1600 2227 
C 2086 2328 2554 2756 2554 3329 
C 2554 3820 2048 4179 1472 4179 
C 890 4179 378 3829 378 3329 
C 378 3110 544 3072 627 3072 
C 762 3072 877 3155 877 3321 
C 877 3486 762 3569 627 3569 
C 602 3569 570 3569 544 3557 
C 730 3959 1235 4032 1459 4032 
C 1683 4032 2106 3925 2106 3320 
C 2106 3143 2080 2828 1862 2550 
C 1670 2304 1453 2304 1242 2284 
C 1210 2284 1062 2269 1037 2269 
C 992 2263 966 2257 966 2208 
C 966 2163 973 2157 1101 2157 
L 1414 2157 
z
" transform="scale(0.015625)"/>
      </defs>
      <use xlink:href="#CMR17-33" transform="scale(0.996264)"/>
     </g>
    </g>
   </g>
   <g id="xtick_5">
    <g id="line2d_6">
     <path d="M 276.185025 257.293757 
L 280.518675 257.47638 
" style="fill: none; stroke: #000000; stroke-width: 0.8; stroke-linecap: square"/>
    </g>
    <g id="text_6">
     <!-- $\mathdefault{4}$ -->
     <g transform="translate(286.728514 276.224891)scale(0.1 -0.1)">
      <defs>
       <path id="CMR17-34" d="M 2150 4122 
C 2150 4256 2144 4256 2029 4256 
L 128 1254 
L 128 1088 
L 1779 1088 
L 1779 457 
C 1779 224 1766 160 1318 160 
L 1197 160 
L 1197 0 
C 1402 0 1747 0 1965 0 
C 2182 0 2528 0 2733 0 
L 2733 160 
L 2611 160 
C 2163 160 2150 224 2150 457 
L 2150 1088 
L 2803 1088 
L 2803 1254 
L 2150 1254 
L 2150 4122 
z
M 1798 3703 
L 1798 1254 
L 256 1254 
L 1798 3703 
z
" transform="scale(0.015625)"/>
      </defs>
      <use xlink:href="#CMR17-34" transform="scale(0.996264)"/>
     </g>
    </g>
   </g>
   <g id="xtick_6">
    <g id="line2d_7">
     <path d="M 245.833351 258.942983 
L 250.184009 259.132432 
" style="fill: none; stroke: #000000; stroke-width: 0.8; stroke-linecap: square"/>
    </g>
    <g id="text_7">
     <!-- $\mathdefault{5}$ -->
     <g transform="translate(256.428987 278.108053)scale(0.1 -0.1)">
      <defs>
       <path id="CMR17-35" d="M 730 3692 
C 794 3666 1056 3584 1325 3584 
C 1920 3584 2246 3911 2432 4100 
C 2432 4157 2432 4192 2394 4192 
C 2387 4192 2374 4192 2323 4163 
C 2099 4058 1837 3973 1517 3973 
C 1325 3973 1037 3999 723 4139 
C 653 4171 640 4171 634 4171 
C 602 4171 595 4164 595 4037 
L 595 2203 
C 595 2089 595 2057 659 2057 
C 691 2057 704 2070 736 2114 
C 941 2401 1222 2522 1542 2522 
C 1766 2522 2246 2382 2246 1289 
C 2246 1085 2246 715 2054 421 
C 1894 159 1645 25 1370 25 
C 947 25 518 320 403 814 
C 429 807 480 795 506 795 
C 589 795 749 840 749 1038 
C 749 1210 627 1280 506 1280 
C 358 1280 262 1190 262 1011 
C 262 454 704 -128 1382 -128 
C 2042 -128 2669 440 2669 1264 
C 2669 2030 2170 2624 1549 2624 
C 1222 2624 947 2503 730 2274 
L 730 3692 
z
" transform="scale(0.015625)"/>
      </defs>
      <use xlink:href="#CMR17-35" transform="scale(0.996264)"/>
     </g>
    </g>
   </g>
  </g>
  <g id="axis3d_2">
   <g id="line2d_8">
    <path d="M 77.334683 251.896457 
L 244.055781 259.181599 
" style="fill: none; stroke: #000000; stroke-width: 0.8; stroke-linecap: square"/>
   </g>
   <g id="text_8">
    <!-- y -->
    <g transform="translate(130.731288 285.062556)scale(0.16 -0.16)">
     <defs>
      <path id="CMSS17-79" d="M 2675 2752 
L 2176 2752 
C 1632 1294 1446 702 1434 383 
L 1427 383 
C 1408 696 1126 1460 902 2007 
L 602 2752 
L 83 2752 
L 1216 13 
C 1146 -178 1043 -465 1011 -529 
C 870 -885 774 -885 672 -885 
C 646 -885 442 -885 211 -809 
L 250 -1229 
C 410 -1261 570 -1280 685 -1280 
C 845 -1280 1165 -1280 1459 -497 
L 2675 2752 
z
" transform="scale(0.015625)"/>
     </defs>
     <use xlink:href="#CMSS17-79" transform="scale(0.996264)"/>
    </g>
   </g>
   <g id="Line3DCollection_2">
    <path d="M 245.249859 90.53776 
L 245.249859 245.7217 
L 95.293629 252.681201 
" style="fill: none; stroke: #b0b0b0; stroke-width: 0.8"/>
    <path d="M 275.34595 89.417712 
L 275.34595 246.841748 
L 125.769818 254.012907 
" style="fill: none; stroke: #b0b0b0; stroke-width: 0.8"/>
    <path d="M 306.323647 88.264854 
L 306.323647 247.994606 
L 157.221383 255.387232 
" style="fill: none; stroke: #b0b0b0; stroke-width: 0.8"/>
    <path d="M 338.222265 87.077723 
L 338.222265 249.181736 
L 189.69591 256.806258 
" style="fill: none; stroke: #b0b0b0; stroke-width: 0.8"/>
    <path d="M 371.083487 85.854769 
L 371.083487 250.404691 
L 223.244133 258.272201 
" style="fill: none; stroke: #b0b0b0; stroke-width: 0.8"/>
   </g>
   <g id="xtick_7">
    <g id="line2d_9">
     <path d="M 96.599943 252.620575 
L 92.67537 252.802715 
" style="fill: none; stroke: #000000; stroke-width: 0.8; stroke-linecap: square"/>
    </g>
    <g id="text_9">
     <!-- $\mathdefault{−4}$ -->
     <g transform="translate(78.428571 270.953074)scale(0.1 -0.1)">
      <defs>
       <path id="CMSY10-0" d="M 4218 1472 
C 4326 1472 4442 1472 4442 1600 
C 4442 1728 4326 1728 4218 1728 
L 755 1728 
C 646 1728 531 1728 531 1600 
C 531 1472 646 1472 755 1472 
L 4218 1472 
z
" transform="scale(0.015625)"/>
      </defs>
      <use xlink:href="#CMSY10-0" transform="scale(0.996264)"/>
      <use xlink:href="#CMR17-34" transform="translate(77.487468 0)scale(0.996264)"/>
     </g>
    </g>
   </g>
   <g id="xtick_8">
    <g id="line2d_10">
     <path d="M 127.074495 253.950356 
L 123.15475 254.138281 
" style="fill: none; stroke: #000000; stroke-width: 0.8; stroke-linecap: square"/>
    </g>
    <g id="text_10">
     <!-- $\mathdefault{−2}$ -->
     <g transform="translate(108.916844 272.472441)scale(0.1 -0.1)">
      <use xlink:href="#CMSY10-0" transform="scale(0.996264)"/>
      <use xlink:href="#CMR17-32" transform="translate(77.487468 0)scale(0.996264)"/>
     </g>
    </g>
   </g>
   <g id="xtick_9">
    <g id="line2d_11">
     <path d="M 158.523649 255.322665 
L 154.611056 255.516655 
" style="fill: none; stroke: #000000; stroke-width: 0.8; stroke-linecap: square"/>
    </g>
    <g id="text_11">
     <!-- $\mathdefault{0}$ -->
     <g transform="translate(144.261057 274.040725)scale(0.1 -0.1)">
      <use xlink:href="#CMR17-30" transform="scale(0.996264)"/>
     </g>
    </g>
   </g>
   <g id="xtick_10">
    <g id="line2d_12">
     <path d="M 190.994918 256.739574 
L 187.092021 256.939928 
" style="fill: none; stroke: #000000; stroke-width: 0.8; stroke-linecap: square"/>
    </g>
    <g id="text_12">
     <!-- $\mathdefault{2}$ -->
     <g transform="translate(176.760644 275.660325)scale(0.1 -0.1)">
      <use xlink:href="#CMR17-32" transform="scale(0.996264)"/>
     </g>
    </g>
   </g>
   <g id="xtick_11">
    <g id="line2d_13">
     <path d="M 224.538954 258.203295 
L 220.648539 258.41033 
" style="fill: none; stroke: #000000; stroke-width: 0.8; stroke-linecap: square"/>
    </g>
    <g id="text_13">
     <!-- $\mathdefault{4}$ -->
     <g transform="translate(210.34136 277.333802)scale(0.1 -0.1)">
      <use xlink:href="#CMR17-34" transform="scale(0.996264)"/>
     </g>
    </g>
   </g>
  </g>
  <g id="axis3d_3">
   <g id="line2d_14">
    <path d="M 77.334683 251.896457 
L 77.334683 84.363003 
" style="fill: none; stroke: #000000; stroke-width: 0.8; stroke-linecap: square"/>
   </g>
   <g id="text_14">
    <!-- z -->
    <g transform="translate(29.885777 172.114786)scale(0.16 -0.16)">
     <defs>
      <path id="CMSS17-7a" d="M 2400 2502 
L 2400 2750 
L 250 2750 
L 250 2368 
L 1069 2368 
C 1146 2368 1222 2368 1299 2368 
L 1747 2368 
L 166 261 
L 166 0 
L 2419 0 
L 2419 395 
L 1549 395 
C 1472 395 1395 395 1318 395 
L 826 395 
L 2400 2502 
z
" transform="scale(0.015625)"/>
     </defs>
     <use xlink:href="#CMSS17-7a" transform="scale(0.996264)"/>
    </g>
   </g>
   <g id="Line3DCollection_3">
    <path d="M 77.334683 248.545788 
L 227.478327 241.983096 
L 391.422111 247.840332 
" style="fill: none; stroke: #b0b0b0; stroke-width: 0.8"/>
    <path d="M 77.334683 216.379364 
L 227.478327 212.441749 
L 391.422111 215.956091 
" style="fill: none; stroke: #b0b0b0; stroke-width: 0.8"/>
    <path d="M 77.334683 184.212941 
L 227.478327 182.900403 
L 391.422111 184.07185 
" style="fill: none; stroke: #b0b0b0; stroke-width: 0.8"/>
    <path d="M 77.334683 152.046518 
L 227.478327 153.359057 
L 391.422111 152.187609 
" style="fill: none; stroke: #b0b0b0; stroke-width: 0.8"/>
    <path d="M 77.334683 119.880095 
L 227.478327 123.81771 
L 391.422111 120.303368 
" style="fill: none; stroke: #b0b0b0; stroke-width: 0.8"/>
    <path d="M 77.334683 87.713672 
L 227.478327 94.276364 
L 391.422111 88.419127 
" style="fill: none; stroke: #b0b0b0; stroke-width: 0.8"/>
   </g>
   <g id="xtick_12">
    <g id="line2d_15">
     <path d="M 78.641638 248.488661 
L 74.715189 248.660284 
" style="fill: none; stroke: #000000; stroke-width: 0.8; stroke-linecap: square"/>
    </g>
    <g id="text_15">
     <!-- $\mathdefault{0}$ -->
     <g transform="translate(54.588271 255.509781)scale(0.1 -0.1)">
      <use xlink:href="#CMR17-30" transform="scale(0.996264)"/>
     </g>
    </g>
   </g>
   <g id="xtick_13">
    <g id="line2d_16">
     <path d="M 78.641638 216.345089 
L 74.715189 216.448062 
" style="fill: none; stroke: #000000; stroke-width: 0.8; stroke-linecap: square"/>
    </g>
    <g id="text_16">
     <!-- $\mathdefault{1}$ -->
     <g transform="translate(54.588271 223.32516)scale(0.1 -0.1)">
      <use xlink:href="#CMR17-31" transform="scale(0.996264)"/>
     </g>
    </g>
   </g>
   <g id="xtick_14">
    <g id="line2d_17">
     <path d="M 78.641638 184.201516 
L 74.715189 184.235841 
" style="fill: none; stroke: #000000; stroke-width: 0.8; stroke-linecap: square"/>
    </g>
    <g id="text_17">
     <!-- $\mathdefault{2}$ -->
     <g transform="translate(54.588271 191.140539)scale(0.1 -0.1)">
      <use xlink:href="#CMR17-32" transform="scale(0.996264)"/>
     </g>
    </g>
   </g>
   <g id="xtick_15">
    <g id="line2d_18">
     <path d="M 78.641638 152.057943 
L 74.715189 152.023619 
" style="fill: none; stroke: #000000; stroke-width: 0.8; stroke-linecap: square"/>
    </g>
    <g id="text_18">
     <!-- $\mathdefault{3}$ -->
     <g transform="translate(54.588271 158.955917)scale(0.1 -0.1)">
      <use xlink:href="#CMR17-33" transform="scale(0.996264)"/>
     </g>
    </g>
   </g>
   <g id="xtick_16">
    <g id="line2d_19">
     <path d="M 78.641638 119.914371 
L 74.715189 119.811397 
" style="fill: none; stroke: #000000; stroke-width: 0.8; stroke-linecap: square"/>
    </g>
    <g id="text_19">
     <!-- $\mathdefault{4}$ -->
     <g transform="translate(54.588271 126.771296)scale(0.1 -0.1)">
      <use xlink:href="#CMR17-34" transform="scale(0.996264)"/>
     </g>
    </g>
   </g>
   <g id="xtick_17">
    <g id="line2d_20">
     <path d="M 78.641638 87.770798 
L 74.715189 87.599175 
" style="fill: none; stroke: #000000; stroke-width: 0.8; stroke-linecap: square"/>
    </g>
    <g id="text_20">
     <!-- $\mathdefault{5}$ -->
     <g transform="translate(54.588271 94.586675)scale(0.1 -0.1)">
      <use xlink:href="#CMR17-35" transform="scale(0.996264)"/>
     </g>
    </g>
   </g>
  </g>
  <g id="axes_1">
   <g id="line2d_21">
    <path d="M 303.589614 244.930144 
L 325.296733 88.270606 
" clip-path="url(#p327363389a)" style="fill: none; stroke: #ff0000; stroke-width: 1.5; stroke-linecap: square"/>
   </g>
   <g id="line2d_22">
    <path d="M 303.589614 244.930144 
L 218.029441 121.208796 
" clip-path="url(#p327363389a)" style="fill: none; stroke: #00ff00; stroke-width: 1.5; stroke-linecap: square"/>
   </g>
   <g id="line2d_23">
    <path d="M 303.589614 244.930144 
L 246.525278 -1 
" clip-path="url(#p327363389a)" style="fill: none; stroke: #0016ff; stroke-width: 1.5; stroke-linecap: square"/>
   </g>
   <g id="line2d_24">
    <path d="M 303.589614 244.930144 
L 113.673094 151.798527 
" clip-path="url(#p327363389a)" style="fill: none; stroke: #f400ff; stroke-width: 1.5; stroke-linecap: square"/>
   </g>
   <g id="Poly3DCollection_1">
    <path d="M 227.759328 353.337624 
L 214.377692 313.736188 
L 221.728863 303.016712 
L 235.100035 342.8433 
z
" clip-path="url(#p327363389a)" style="fill: #0000f5; fill-opacity: 0.1"/>
    <path d="M 235.100035 342.8433 
L 221.728863 303.016712 
L 229.13284 292.220233 
L 242.493056 332.274188 
z
" clip-path="url(#p327363389a)" style="fill: #0000f5; fill-opacity: 0.1"/>
    <path d="M 242.493056 332.274188 
L 229.13284 292.220233 
L 236.590196 281.345919 
L 249.938953 321.629484 
z
" clip-path="url(#p327363389a)" style="fill: #0000f5; fill-opacity: 0.1"/>
    <path d="M 214.377692 313.736188 
L 200.782369 273.502369 
L 208.1434 262.55185 
L 221.728863 303.016712 
z
" clip-path="url(#p327363389a)" style="fill: #0000f5; fill-opacity: 0.1"/>
    <path d="M 249.938953 321.629484 
L 236.590196 281.345919 
L 244.101508 270.392925 
L 257.438295 310.908376 
z
" clip-path="url(#p327363389a)" style="fill: #0000f5; fill-opacity: 0.1"/>
    <path d="M 221.728863 303.016712 
L 208.1434 262.55185 
L 215.557734 251.522037 
L 229.13284 292.220233 
z
" clip-path="url(#p327363389a)" style="fill: #0000f5; fill-opacity: 0.1"/>
    <path d="M 257.438295 310.908376 
L 244.101508 270.392925 
L 251.667365 259.360393 
L 264.991658 300.110037 
z
" clip-path="url(#p327363389a)" style="fill: #0000f5; fill-opacity: 0.1"/>
    <path d="M 229.13284 292.220233 
L 215.557734 251.522037 
L 223.025952 240.412064 
L 236.590196 281.345919 
z
" clip-path="url(#p327363389a)" style="fill: #0000f5; fill-opacity: 0.1"/>
    <path d="M 200.782369 273.502369 
L 186.968198 232.620895 
L 194.338453 221.433247 
L 208.1434 262.55185 
z
" clip-path="url(#p327363389a)" style="fill: #0000f5; fill-opacity: 0.1"/>
    <path d="M 264.991658 300.110037 
L 251.667365 259.360393 
L 259.288364 248.247455 
L 272.59963 289.233631 
z
" clip-path="url(#p327363389a)" style="fill: #0000f5; fill-opacity: 0.1"/>
    <path d="M 236.590196 281.345919 
L 223.025952 240.412064 
L 230.548644 229.221055 
L 244.101508 270.392925 
z
" clip-path="url(#p327363389a)" style="fill: #0000f5; fill-opacity: 0.1"/>
    <path d="M 208.1434 262.55185 
L 194.338453 221.433247 
L 201.762511 210.16393 
L 215.557734 251.522037 
z
" clip-path="url(#p327363389a)" style="fill: #0000f5; fill-opacity: 0.1"/>
    <path d="M 272.59963 289.233631 
L 259.288364 248.247455 
L 266.965108 237.053228 
L 280.262804 278.278306 
z
" clip-path="url(#p327363389a)" style="fill: #0000f5; fill-opacity: 0.1"/>
    <path d="M 244.101508 270.392925 
L 230.548644 229.221055 
L 238.126406 217.94812 
L 251.667365 259.360393 
z
" clip-path="url(#p327363389a)" style="fill: #0000f5; fill-opacity: 0.1"/>
    <path d="M 215.557734 251.522037 
L 201.762511 210.16393 
L 209.240962 198.812046 
L 223.025952 240.412064 
z
" clip-path="url(#p327363389a)" style="fill: #0000f5; fill-opacity: 0.1"/>
    <path d="M 186.968198 232.620895 
L 172.929853 191.076003 
L 180.308661 179.644931 
L 194.338453 221.433247 
z
" clip-path="url(#p327363389a)" style="fill: #0000f5; fill-opacity: 0.1"/>
    <path d="M 280.262804 278.278306 
L 266.965108 237.053228 
L 274.698212 225.776817 
L 287.981783 267.243202 
z
" clip-path="url(#p327363389a)" style="fill: #0000f5; fill-opacity: 0.1"/>
    <path d="M 251.667365 259.360393 
L 238.126406 217.94812 
L 245.759848 206.592356 
L 259.288364 248.247455 
z
" clip-path="url(#p327363389a)" style="fill: #0000f5; fill-opacity: 0.1"/>
    <path d="M 223.025952 240.412064 
L 209.240962 198.812046 
L 216.774406 187.376685 
L 230.548644 229.221055 
z
" clip-path="url(#p327363389a)" style="fill: #0000f5; fill-opacity: 0.1"/>
    <path d="M 194.338453 221.433247 
L 180.308661 179.644931 
L 187.741773 168.12973 
L 201.762511 210.16393 
z
" clip-path="url(#p327363389a)" style="fill: #0000f5; fill-opacity: 0.1"/>
    <path d="M 287.981783 267.243202 
L 274.698212 225.776817 
L 282.488299 214.417313 
L 295.75718 256.127444 
z
" clip-path="url(#p327363389a)" style="fill: #0000f5; fill-opacity: 0.1"/>
    <path d="M 259.288364 248.247455 
L 245.759848 206.592356 
L 253.449584 195.152846 
L 266.965108 237.053228 
z
" clip-path="url(#p327363389a)" style="fill: #0000f5; fill-opacity: 0.1"/>
    <path d="M 230.548644 229.221055 
L 216.774406 187.376685 
L 224.363453 175.856923 
L 238.126406 217.94812 
z
" clip-path="url(#p327363389a)" style="fill: #0000f5; fill-opacity: 0.1"/>
    <path d="M 201.762511 210.16393 
L 187.741773 168.12973 
L 195.229792 156.529469 
L 209.240962 198.812046 
z
" clip-path="url(#p327363389a)" style="fill: #0000f5; fill-opacity: 0.1"/>
    <path d="M 172.929853 191.076003 
L 158.661833 148.851412 
L 166.048484 137.170405 
L 180.308661 179.644931 
z
" clip-path="url(#p327363389a)" style="fill: #0000f5; fill-opacity: 0.1"/>
    <path d="M 295.75718 256.127444 
L 282.488299 214.417313 
L 290.336002 202.973795 
L 303.589614 244.930144 
z
" clip-path="url(#p327363389a)" style="fill: #0000f5; fill-opacity: 0.1"/>
    <path d="M 266.965108 237.053228 
L 253.449584 195.152846 
L 261.196239 183.62866 
L 274.698212 225.776817 
z
" clip-path="url(#p327363389a)" style="fill: #0000f5; fill-opacity: 0.1"/>
    <path d="M 238.126406 217.94812 
L 224.363453 175.856923 
L 232.00872 164.251822 
L 245.759848 206.592356 
z
" clip-path="url(#p327363389a)" style="fill: #0000f5; fill-opacity: 0.1"/>
    <path d="M 209.240962 198.812046 
L 195.229792 156.529469 
L 202.773329 144.843202 
L 216.774406 187.376685 
z
" clip-path="url(#p327363389a)" style="fill: #0000f5; fill-opacity: 0.1"/>
    <path d="M 180.308661 179.644931 
L 166.048484 137.170405 
L 173.489946 125.402722 
L 187.741773 168.12973 
z
" clip-path="url(#p327363389a)" style="fill: #0000f5; fill-opacity: 0.1"/>
    <path d="M 303.589614 244.930144 
L 290.336002 202.973795 
L 298.24196 191.445327 
L 311.479716 233.650402 
z
" clip-path="url(#p327363389a)" style="fill: #0000f5; fill-opacity: 0.1"/>
    <path d="M 274.698212 225.776817 
L 261.196239 183.62866 
L 269.000448 172.018856 
L 282.488299 214.417313 
z
" clip-path="url(#p327363389a)" style="fill: #0000f5; fill-opacity: 0.1"/>
    <path d="M 245.759848 206.592356 
L 232.00872 164.251822 
L 239.710835 152.56043 
L 253.449584 195.152846 
z
" clip-path="url(#p327363389a)" style="fill: #0000f5; fill-opacity: 0.1"/>
    <path d="M 216.774406 187.376685 
L 202.773329 144.843202 
L 210.373002 133.069969 
L 224.363453 175.856923 
z
" clip-path="url(#p327363389a)" style="fill: #0000f5; fill-opacity: 0.1"/>
    <path d="M 187.741773 168.12973 
L 173.489946 125.402722 
L 180.986831 113.547395 
L 195.229792 156.529469 
z
" clip-path="url(#p327363389a)" style="fill: #0000f5; fill-opacity: 0.1"/>
    <path d="M 311.479716 233.650402 
L 298.24196 191.445327 
L 306.206827 179.83096 
L 319.428126 222.287303 
z
" clip-path="url(#p327363389a)" style="fill: #0000f5; fill-opacity: 0.1"/>
    <path d="M 158.661833 148.851412 
L 144.158454 105.930303 
L 151.552201 93.992628 
L 166.048484 137.170405 
z
" clip-path="url(#p327363389a)" style="fill: #0000f5; fill-opacity: 0.1"/>
    <path d="M 282.488299 214.417313 
L 269.000448 172.018856 
L 276.862854 160.322475 
L 290.336002 202.973795 
z
" clip-path="url(#p327363389a)" style="fill: #0000f5; fill-opacity: 0.1"/>
    <path d="M 253.449584 195.152846 
L 239.710835 152.56043 
L 247.470432 140.78178 
L 261.196239 183.62866 
z
" clip-path="url(#p327363389a)" style="fill: #0000f5; fill-opacity: 0.1"/>
    <path d="M 224.363453 175.856923 
L 210.373002 133.069969 
L 218.029441 121.208796 
L 232.00872 164.251822 
z
" clip-path="url(#p327363389a)" style="fill: #0000f5; fill-opacity: 0.1"/>
    <path d="M 195.229792 156.529469 
L 180.986831 113.547395 
L 188.53976 101.603441 
L 202.773329 144.843202 
z
" clip-path="url(#p327363389a)" style="fill: #0000f5; fill-opacity: 0.1"/>
    <path d="M 319.428126 222.287303 
L 306.206827 179.83096 
L 314.231262 168.12973 
L 327.435491 210.839921 
z
" clip-path="url(#p327363389a)" style="fill: #0000f5; fill-opacity: 0.1"/>
    <path d="M 166.048484 137.170405 
L 151.552201 93.992628 
L 159.001268 81.965636 
L 173.489946 125.402722 
z
" clip-path="url(#p327363389a)" style="fill: #0000f5; fill-opacity: 0.1"/>
    <path d="M 290.336002 202.973795 
L 276.862854 160.322475 
L 284.784112 148.538545 
L 298.24196 191.445327 
z
" clip-path="url(#p327363389a)" style="fill: #0000f5; fill-opacity: 0.1"/>
    <path d="M 261.196239 183.62866 
L 247.470432 140.78178 
L 255.28816 128.914893 
L 269.000448 172.018856 
z
" clip-path="url(#p327363389a)" style="fill: #0000f5; fill-opacity: 0.1"/>
    <path d="M 232.00872 164.251822 
L 218.029441 121.208796 
L 225.743285 109.258693 
L 239.710835 152.56043 
z
" clip-path="url(#p327363389a)" style="fill: #0000f5; fill-opacity: 0.1"/>
    <path d="M 202.773329 144.843202 
L 188.53976 101.603441 
L 196.149364 89.569862 
L 210.373002 133.069969 
z
" clip-path="url(#p327363389a)" style="fill: #0000f5; fill-opacity: 0.1"/>
    <path d="M 327.435491 210.839921 
L 314.231262 168.12973 
L 322.315937 156.340659 
L 335.50247 199.307314 
z
" clip-path="url(#p327363389a)" style="fill: #0000f5; fill-opacity: 0.1"/>
    <path d="M 173.489946 125.402722 
L 159.001268 81.965636 
L 166.506277 69.848321 
L 180.986831 113.547395 
z
" clip-path="url(#p327363389a)" style="fill: #0000f5; fill-opacity: 0.1"/>
    <path d="M 298.24196 191.445327 
L 284.784112 148.538545 
L 292.764884 136.66608 
L 306.206827 179.83096 
z
" clip-path="url(#p327363389a)" style="fill: #0000f5; fill-opacity: 0.1"/>
    <path d="M 144.158454 105.930303 
L 129.413844 62.295299 
L 136.813899 50.093987 
L 151.552201 93.992628 
z
" clip-path="url(#p327363389a)" style="fill: #0000f5; fill-opacity: 0.1"/>
    <path d="M 269.000448 172.018856 
L 255.28816 128.914893 
L 263.164673 116.958774 
L 276.862854 160.322475 
z
" clip-path="url(#p327363389a)" style="fill: #0000f5; fill-opacity: 0.1"/>
    <path d="M 239.710835 152.56043 
L 225.743285 109.258693 
L 233.515181 97.218656 
L 247.470432 140.78178 
z
" clip-path="url(#p327363389a)" style="fill: #0000f5; fill-opacity: 0.1"/>
    <path d="M 210.373002 133.069969 
L 196.149364 89.569862 
L 203.816284 77.445647 
L 218.029441 121.208796 
z
" clip-path="url(#p327363389a)" style="fill: #0000f5; fill-opacity: 0.1"/>
    <path d="M 335.50247 199.307314 
L 322.315937 156.340659 
L 330.461532 144.462754 
L 343.629732 187.688527 
z
" clip-path="url(#p327363389a)" style="fill: #0000f5; fill-opacity: 0.1"/>
    <path d="M 180.986831 113.547395 
L 166.506277 69.848321 
L 174.067861 57.639663 
L 188.53976 101.603441 
z
" clip-path="url(#p327363389a)" style="fill: #0000f5; fill-opacity: 0.1"/>
    <path d="M 306.206827 179.83096 
L 292.764884 136.66608 
L 300.805843 124.704078 
L 314.231262 168.12973 
z
" clip-path="url(#p327363389a)" style="fill: #0000f5; fill-opacity: 0.1"/>
    <path d="M 151.552201 93.992628 
L 136.813899 50.093987 
L 144.269785 37.800622 
L 159.001268 81.965636 
z
" clip-path="url(#p327363389a)" style="fill: #0000f5; fill-opacity: 0.1"/>
    <path d="M 276.862854 160.322475 
L 263.164673 116.958774 
L 271.100636 104.912411 
L 284.784112 148.538545 
z
" clip-path="url(#p327363389a)" style="fill: #0000f5; fill-opacity: 0.1"/>
    <path d="M 247.470432 140.78178 
L 233.515181 97.218656 
L 241.345787 85.087668 
L 255.28816 128.914893 
z
" clip-path="url(#p327363389a)" style="fill: #0000f5; fill-opacity: 0.1"/>
    <path d="M 218.029441 121.208796 
L 203.816284 77.445647 
L 211.54117 65.229767 
L 225.743285 109.258693 
z
" clip-path="url(#p327363389a)" style="fill: #0000f5; fill-opacity: 0.1"/>
    <path d="M 343.629732 187.688527 
L 330.461532 144.462754 
L 338.668738 132.495007 
L 351.817954 175.98259 
z
" clip-path="url(#p327363389a)" style="fill: #0000f5; fill-opacity: 0.1"/>
    <path d="M 188.53976 101.603441 
L 174.067861 57.639663 
L 181.686662 45.338624 
L 196.149364 89.569862 
z
" clip-path="url(#p327363389a)" style="fill: #0000f5; fill-opacity: 0.1"/>
    <path d="M 314.231262 168.12973 
L 300.805843 124.704078 
L 308.907673 112.651523 
L 322.315937 156.340659 
z
" clip-path="url(#p327363389a)" style="fill: #0000f5; fill-opacity: 0.1"/>
    <path d="M 159.001268 81.965636 
L 144.269785 37.800622 
L 151.782136 25.414156 
L 166.506277 69.848321 
z
" clip-path="url(#p327363389a)" style="fill: #0000f5; fill-opacity: 0.1"/>
    <path d="M 284.784112 148.538545 
L 271.100636 104.912411 
L 279.096726 92.774779 
L 292.764884 136.66608 
z
" clip-path="url(#p327363389a)" style="fill: #0000f5; fill-opacity: 0.1"/>
    <path d="M 129.413844 62.295299 
L 114.421934 17.92844 
L 121.827467 5.45628 
L 136.813899 50.093987 
z
" clip-path="url(#p327363389a)" style="fill: #0000f5; fill-opacity: 0.1"/>
    <path d="M 255.28816 128.914893 
L 241.345787 85.087668 
L 249.235771 72.864692 
L 263.164673 116.958774 
z
" clip-path="url(#p327363389a)" style="fill: #0000f5; fill-opacity: 0.1"/>
    <path d="M 225.743285 109.258693 
L 211.54117 65.229767 
L 219.324681 52.921178 
L 233.515181 97.218656 
z
" clip-path="url(#p327363389a)" style="fill: #0000f5; fill-opacity: 0.1"/>
    <path d="M 351.817954 175.98259 
L 338.668738 132.495007 
L 346.938258 120.436395 
L 360.067826 164.188519 
z
" clip-path="url(#p327363389a)" style="fill: #0000f5; fill-opacity: 0.1"/>
    <path d="M 196.149364 89.569862 
L 181.686662 45.338624 
L 189.363332 32.944152 
L 203.816284 77.445647 
z
" clip-path="url(#p327363389a)" style="fill: #0000f5; fill-opacity: 0.1"/>
    <path d="M 322.315937 156.340659 
L 308.907673 112.651523 
L 317.071068 100.507381 
L 330.461532 144.462754 
z
" clip-path="url(#p327363389a)" style="fill: #0000f5; fill-opacity: 0.1"/>
    <path d="M 166.506277 69.848321 
L 151.782136 25.414156 
L 159.351595 12.93353 
L 174.067861 57.639663 
z
" clip-path="url(#p327363389a)" style="fill: #0000f5; fill-opacity: 0.1"/>
    <path d="M 292.764884 136.66608 
L 279.096726 92.774779 
L 287.153628 80.544838 
L 300.805843 124.704078 
z
" clip-path="url(#p327363389a)" style="fill: #0000f5; fill-opacity: 0.1"/>
    <path d="M 136.813899 50.093987 
L 121.827467 5.45628 
L 129.289344 -7.110773 
L 144.269785 37.800622 
z
" clip-path="url(#p327363389a)" style="fill: #0000f5; fill-opacity: 0.1"/>
    <path d="M 263.164673 116.958774 
L 249.235771 72.864692 
L 257.185811 60.548679 
L 271.100636 104.912411 
z
" clip-path="url(#p327363389a)" style="fill: #0000f5; fill-opacity: 0.1"/>
    <path d="M 233.515181 97.218656 
L 219.324681 52.921178 
L 227.167488 40.518821 
L 241.345787 85.087668 
z
" clip-path="url(#p327363389a)" style="fill: #0000f5; fill-opacity: 0.1"/>
    <path d="M 360.067826 164.188519 
L 346.938258 120.436395 
L 355.270803 108.28588 
L 368.380046 152.305315 
z
" clip-path="url(#p327363389a)" style="fill: #0000f5; fill-opacity: 0.1"/>
    <path d="M 203.816284 77.445647 
L 189.363332 32.944152 
L 197.098533 20.455178 
L 211.54117 65.229767 
z
" clip-path="url(#p327363389a)" style="fill: #0000f5; fill-opacity: 0.1"/>
    <path d="M 330.461532 144.462754 
L 317.071068 100.507381 
L 325.296733 88.270606 
L 338.668738 132.495007 
z
" clip-path="url(#p327363389a)" style="fill: #0000f5; fill-opacity: 0.1"/>
    <path d="M 174.067861 57.639663 
L 159.351595 12.93353 
L 166.978816 0.357664 
L 181.686662 45.338624 
z
" clip-path="url(#p327363389a)" style="fill: #0000f5; fill-opacity: 0.1"/>
    <path d="M 300.805843 124.704078 
L 287.153628 80.544838 
L 295.27204 68.221529 
L 308.907673 112.651523 
z
" clip-path="url(#p327363389a)" style="fill: #0000f5; fill-opacity: 0.1"/>
    <path d="M 144.269785 37.800622 
L 129.289344 -7.110773 
L 136.80821 -19.773806 
L 151.782136 25.414156 
z
" clip-path="url(#p327363389a)" style="fill: #0000f5; fill-opacity: 0.1"/>
    <path d="M 271.100636 104.912411 
L 257.185811 60.548679 
L 265.196595 48.138563 
L 279.096726 92.774779 
z
" clip-path="url(#p327363389a)" style="fill: #0000f5; fill-opacity: 0.1"/>
    <path d="M 114.421934 17.92844 
L 99.176451 -27.188842 
L 106.586585 -39.939318 
L 121.827467 5.45628 
z
" clip-path="url(#p327363389a)" style="fill: #0000f5; fill-opacity: 0.1"/>
    <path d="M 241.345787 85.087668 
L 227.167488 40.518821 
L 235.07027 28.021621 
L 249.235771 72.864692 
z
" clip-path="url(#p327363389a)" style="fill: #0000f5; fill-opacity: 0.1"/>
    <path d="M 368.380046 152.305315 
L 355.270803 108.28588 
L 363.667096 96.042406 
L 376.755323 140.331963 
z
" clip-path="url(#p327363389a)" style="fill: #0000f5; fill-opacity: 0.1"/>
    <path d="M 211.54117 65.229767 
L 197.098533 20.455178 
L 204.892936 7.870618 
L 219.324681 52.921178 
z
" clip-path="url(#p327363389a)" style="fill: #0000f5; fill-opacity: 0.1"/>
    <path d="M 338.668738 132.495007 
L 325.296733 88.270606 
L 333.585381 75.940134 
L 346.938258 120.436395 
z
" clip-path="url(#p327363389a)" style="fill: #0000f5; fill-opacity: 0.1"/>
    <path d="M 181.686662 45.338624 
L 166.978816 0.357664 
L 174.664463 -12.314534 
L 189.363332 32.944152 
z
" clip-path="url(#p327363389a)" style="fill: #0000f5; fill-opacity: 0.1"/>
    <path d="M 308.907673 112.651523 
L 295.27204 68.221529 
L 303.452666 55.803781 
L 317.071068 100.507381 
z
" clip-path="url(#p327363389a)" style="fill: #0000f5; fill-opacity: 0.1"/>
    <path d="M 151.782136 25.414156 
L 136.80821 -19.773806 
L 144.38472 -32.533921 
L 159.351595 12.93353 
z
" clip-path="url(#p327363389a)" style="fill: #0000f5; fill-opacity: 0.1"/>
    <path d="M 279.096726 92.774779 
L 265.196595 48.138563 
L 273.268822 35.633261 
L 287.153628 80.544838 
z
" clip-path="url(#p327363389a)" style="fill: #0000f5; fill-opacity: 0.1"/>
    <path d="M 121.827467 5.45628 
L 106.586585 -39.939318 
L 114.053578 -52.78763 
L 129.289344 -7.110773 
z
" clip-path="url(#p327363389a)" style="fill: #0000f5; fill-opacity: 0.1"/>
    <path d="M 249.235771 72.864692 
L 235.07027 28.021621 
L 243.033719 15.428486 
L 257.185811 60.548679 
z
" clip-path="url(#p327363389a)" style="fill: #0000f5; fill-opacity: 0.1"/>
    <path d="M 219.324681 52.921178 
L 204.892936 7.870618 
L 212.747225 -4.810631 
L 227.167488 40.518821 
z
" clip-path="url(#p327363389a)" style="fill: #0000f5; fill-opacity: 0.1"/>
    <path d="M 346.938258 120.436395 
L 333.585381 75.940134 
L 341.93774 63.514883 
L 355.270803 108.28588 
z
" clip-path="url(#p327363389a)" style="fill: #0000f5; fill-opacity: 0.1"/>
    <path d="M 189.363332 32.944152 
L 174.664463 -12.314534 
L 182.409209 -25.084177 
L 197.098533 20.455178 
z
" clip-path="url(#p327363389a)" style="fill: #0000f5; fill-opacity: 0.1"/>
    <path d="M 317.071068 100.507381 
L 303.452666 55.803781 
L 311.696227 43.290502 
L 325.296733 88.270606 
z
" clip-path="url(#p327363389a)" style="fill: #0000f5; fill-opacity: 0.1"/>
    <path d="M 159.351595 12.93353 
L 144.38472 -32.533921 
L 152.019541 -45.392241 
L 166.978816 0.357664 
z
" clip-path="url(#p327363389a)" style="fill: #0000f5; fill-opacity: 0.1"/>
    <path d="M 287.153628 80.544838 
L 273.268822 35.633261 
L 281.403202 23.031673 
L 295.27204 68.221529 
z
" clip-path="url(#p327363389a)" style="fill: #0000f5; fill-opacity: 0.1"/>
    <path d="M 129.289344 -7.110773 
L 114.053578 -52.78763 
L 121.578087 -65.73491 
L 136.80821 -19.773806 
z
" clip-path="url(#p327363389a)" style="fill: #0000f5; fill-opacity: 0.1"/>
    <path d="M 257.185811 60.548679 
L 243.033719 15.428486 
L 251.058534 2.738306 
L 265.196595 48.138563 
z
" clip-path="url(#p327363389a)" style="fill: #0000f5; fill-opacity: 0.1"/>
    <path d="M 227.167488 40.518821 
L 212.747225 -4.810631 
L 220.662091 -17.589686 
L 235.07027 28.021621 
z
" clip-path="url(#p327363389a)" style="fill: #0000f5; fill-opacity: 0.1"/>
    <path d="M 355.270803 108.28588 
L 341.93774 63.514883 
L 350.354547 50.993757 
L 363.667096 96.042406 
z
" clip-path="url(#p327363389a)" style="fill: #0000f5; fill-opacity: 0.1"/>
    <path d="M 197.098533 20.455178 
L 182.409209 -25.084177 
L 190.21374 -37.952393 
L 204.892936 7.870618 
z
" clip-path="url(#p327363389a)" style="fill: #0000f5; fill-opacity: 0.1"/>
    <path d="M 325.296733 88.270606 
L 311.696227 43.290502 
L 320.00345 30.680587 
L 333.585381 75.940134 
z
" clip-path="url(#p327363389a)" style="fill: #0000f5; fill-opacity: 0.1"/>
    <path d="M 166.978816 0.357664 
L 152.019541 -45.392241 
L 159.713347 -58.349902 
L 174.664463 -12.314534 
z
" clip-path="url(#p327363389a)" style="fill: #0000f5; fill-opacity: 0.1"/>
    <path d="M 295.27204 68.221529 
L 281.403202 23.031673 
L 289.600456 10.332683 
L 303.452666 55.803781 
z
" clip-path="url(#p327363389a)" style="fill: #0000f5; fill-opacity: 0.1"/>
    <path d="M 136.80821 -19.773806 
L 121.578087 -65.73491 
L 129.16078 -78.782304 
L 144.38472 -32.533921 
z
" clip-path="url(#p327363389a)" style="fill: #0000f5; fill-opacity: 0.1"/>
    <path d="M 265.196595 48.138563 
L 251.058534 2.738306 
L 259.14543 -10.050044 
L 273.268822 35.633261 
z
" clip-path="url(#p327363389a)" style="fill: #0000f5; fill-opacity: 0.1"/>
    <path d="M 235.07027 28.021621 
L 220.662091 -17.589686 
L 228.638239 -30.467684 
L 243.033719 15.428486 
z
" clip-path="url(#p327363389a)" style="fill: #0000f5; fill-opacity: 0.1"/>
    <path d="M 204.892936 7.870618 
L 190.21374 -37.952393 
L 198.078749 -50.920327 
L 212.747225 -4.810631 
z
" clip-path="url(#p327363389a)" style="fill: #0000f5; fill-opacity: 0.1"/>
    <path d="M 333.585381 75.940134 
L 320.00345 30.680587 
L 328.375077 17.972911 
L 341.93774 63.514883 
z
" clip-path="url(#p327363389a)" style="fill: #0000f5; fill-opacity: 0.1"/>
    <path d="M 174.664463 -12.314534 
L 159.713347 -58.349902 
L 167.466826 -71.408061 
L 182.409209 -25.084177 
z
" clip-path="url(#p327363389a)" style="fill: #0000f5; fill-opacity: 0.1"/>
    <path d="M 303.452666 55.803781 
L 289.600456 10.332683 
L 297.861314 -2.464842 
L 311.696227 43.290502 
z
" clip-path="url(#p327363389a)" style="fill: #0000f5; fill-opacity: 0.1"/>
    <path d="M 144.38472 -32.533921 
L 129.16078 -78.782304 
L 136.802333 -91.930979 
L 152.019541 -45.392241 
z
" clip-path="url(#p327363389a)" style="fill: #0000f5; fill-opacity: 0.1"/>
    <path d="M 273.268822 35.633261 
L 259.14543 -10.050044 
L 267.295128 -22.937709 
L 281.403202 23.031673 
z
" clip-path="url(#p327363389a)" style="fill: #0000f5; fill-opacity: 0.1"/>
    <path d="M 243.033719 15.428486 
L 228.638239 -30.467684 
L 236.676383 -43.445779 
L 251.058534 2.738306 
z
" clip-path="url(#p327363389a)" style="fill: #0000f5; fill-opacity: 0.1"/>
    <path d="M 212.747225 -4.810631 
L 198.078749 -50.920327 
L 206.004943 -63.989143 
L 220.662091 -17.589686 
z
" clip-path="url(#p327363389a)" style="fill: #0000f5; fill-opacity: 0.1"/>
    <path d="M 341.93774 63.514883 
L 328.375077 17.972911 
L 336.811858 5.166334 
L 350.354547 50.993757 
z
" clip-path="url(#p327363389a)" style="fill: #0000f5; fill-opacity: 0.1"/>
    <path d="M 182.409209 -25.084177 
L 167.466826 -71.408061 
L 175.280673 -84.567892 
L 190.21374 -37.952393 
z
" clip-path="url(#p327363389a)" style="fill: #0000f5; fill-opacity: 0.1"/>
    <path d="M 311.696227 43.290502 
L 297.861314 -2.464842 
L 306.186521 -15.362055 
L 320.00345 30.680587 
z
" clip-path="url(#p327363389a)" style="fill: #0000f5; fill-opacity: 0.1"/>
    <path d="M 152.019541 -45.392241 
L 136.802333 -91.930979 
L 144.503436 -105.182118 
L 159.713347 -58.349902 
z
" clip-path="url(#p327363389a)" style="fill: #0000f5; fill-opacity: 0.1"/>
    <path d="M 281.403202 23.031673 
L 267.295128 -22.937709 
L 275.508363 -35.925849 
L 289.600456 10.332683 
z
" clip-path="url(#p327363389a)" style="fill: #0000f5; fill-opacity: 0.1"/>
    <path d="M 251.058534 2.738306 
L 236.676383 -43.445779 
L 244.777248 -56.525141 
L 259.14543 -10.050044 
z
" clip-path="url(#p327363389a)" style="fill: #0000f5; fill-opacity: 0.1"/>
    <path d="M 220.662091 -17.589686 
L 206.004943 -63.989143 
L 213.993039 -77.160023 
L 228.638239 -30.467684 
z
" clip-path="url(#p327363389a)" style="fill: #0000f5; fill-opacity: 0.1"/>
    <path d="M 190.21374 -37.952393 
L 175.280673 -84.567892 
L 183.155597 -97.830586 
L 198.078749 -50.920327 
z
" clip-path="url(#p327363389a)" style="fill: #0000f5; fill-opacity: 0.1"/>
    <path d="M 320.00345 30.680587 
L 306.186521 -15.362055 
L 314.576831 -28.360123 
L 328.375077 17.972911 
z
" clip-path="url(#p327363389a)" style="fill: #0000f5; fill-opacity: 0.1"/>
    <path d="M 159.713347 -58.349902 
L 144.503436 -105.182118 
L 152.264786 -118.536924 
L 167.466826 -71.408061 
z
" clip-path="url(#p327363389a)" style="fill: #0000f5; fill-opacity: 0.1"/>
    <path d="M 289.600456 10.332683 
L 275.508363 -35.925849 
L 283.785881 -49.015644 
L 297.861314 -2.464842 
z
" clip-path="url(#p327363389a)" style="fill: #0000f5; fill-opacity: 0.1"/>
    <path d="M 259.14543 -10.050044 
L 244.777248 -56.525141 
L 252.941572 -69.706961 
L 267.295128 -22.937709 
z
" clip-path="url(#p327363389a)" style="fill: #0000f5; fill-opacity: 0.1"/>
    <path d="M 228.638239 -30.467684 
L 213.993039 -77.160023 
L 222.043763 -90.434167 
L 236.676383 -43.445779 
z
" clip-path="url(#p327363389a)" style="fill: #0000f5; fill-opacity: 0.1"/>
    <path d="M 198.078749 -50.920327 
L 183.155597 -97.830586 
L 191.092317 -111.197354 
L 206.004943 -63.989143 
z
" clip-path="url(#p327363389a)" style="fill: #0000f5; fill-opacity: 0.1"/>
    <path d="M 328.375077 17.972911 
L 314.576831 -28.360123 
L 323.03301 -41.460235 
L 336.811858 5.166334 
z
" clip-path="url(#p327363389a)" style="fill: #0000f5; fill-opacity: 0.1"/>
    <path d="M 167.466826 -71.408061 
L 152.264786 -118.536924 
L 160.087093 -131.996618 
L 175.280673 -84.567892 
z
" clip-path="url(#p327363389a)" style="fill: #0000f5; fill-opacity: 0.1"/>
    <path d="M 297.861314 -2.464842 
L 283.785881 -49.015644 
L 292.12844 -62.208293 
L 306.186521 -15.362055 
z
" clip-path="url(#p327363389a)" style="fill: #0000f5; fill-opacity: 0.1"/>
    <path d="M 267.295128 -22.937709 
L 252.941572 -69.706961 
L 261.170103 -82.992448 
L 275.508363 -35.925849 
z
" clip-path="url(#p327363389a)" style="fill: #0000f5; fill-opacity: 0.1"/>
    <path d="M 236.676383 -43.445779 
L 222.043763 -90.434167 
L 230.157857 -103.812794 
L 244.777248 -56.525141 
z
" clip-path="url(#p327363389a)" style="fill: #0000f5; fill-opacity: 0.1"/>
    <path d="M 206.004943 -63.989143 
L 191.092317 -111.197354 
L 199.091563 -124.669427 
L 213.993039 -77.160023 
z
" clip-path="url(#p327363389a)" style="fill: #0000f5; fill-opacity: 0.1"/>
    <path d="M 175.280673 -84.567892 
L 160.087093 -131.996618 
L 167.971078 -145.562441 
L 183.155597 -97.830586 
z
" clip-path="url(#p327363389a)" style="fill: #0000f5; fill-opacity: 0.1"/>
    <path d="M 306.186521 -15.362055 
L 292.12844 -62.208293 
L 300.536809 -75.505011 
L 314.576831 -28.360123 
z
" clip-path="url(#p327363389a)" style="fill: #0000f5; fill-opacity: 0.1"/>
    <path d="M 275.508363 -35.925849 
L 261.170103 -82.992448 
L 269.463601 -96.382828 
L 283.785881 -49.015644 
z
" clip-path="url(#p327363389a)" style="fill: #0000f5; fill-opacity: 0.1"/>
    <path d="M 244.777248 -56.525141 
L 230.157857 -103.812794 
L 238.336071 -117.297144 
L 252.941572 -69.706961 
z
" clip-path="url(#p327363389a)" style="fill: #0000f5; fill-opacity: 0.1"/>
    <path d="M 213.993039 -77.160023 
L 199.091563 -124.669427 
L 207.154076 -138.248053 
L 222.043763 -90.434167 
z
" clip-path="url(#p327363389a)" style="fill: #0000f5; fill-opacity: 0.1"/>
    <path d="M 183.155597 -97.830586 
L 167.971078 -145.562441 
L 175.917474 -159.235653 
L 191.092317 -111.197354 
z
" clip-path="url(#p327363389a)" style="fill: #0000f5; fill-opacity: 0.1"/>
    <path d="M 314.576831 -28.360123 
L 300.536809 -75.505011 
L 309.011771 -88.907037 
L 323.03301 -41.460235 
z
" clip-path="url(#p327363389a)" style="fill: #0000f5; fill-opacity: 0.1"/>
    <path d="M 283.785881 -49.015644 
L 269.463601 -96.382828 
L 277.822839 -109.879351 
L 292.12844 -62.208293 
z
" clip-path="url(#p327363389a)" style="fill: #0000f5; fill-opacity: 0.1"/>
    <path d="M 252.941572 -69.706961 
L 238.336071 -117.297144 
L 246.579168 -130.888473 
L 261.170103 -82.992448 
z
" clip-path="url(#p327363389a)" style="fill: #0000f5; fill-opacity: 0.1"/>
    <path d="M 222.043763 -90.434167 
L 207.154076 -138.248053 
L 215.280611 -151.934502 
L 230.157857 -103.812794 
z
" clip-path="url(#p327363389a)" style="fill: #0000f5; fill-opacity: 0.1"/>
    <path d="M 191.092317 -111.197354 
L 175.917474 -159.235653 
L 183.927025 -173.017534 
L 199.091563 -124.669427 
z
" clip-path="url(#p327363389a)" style="fill: #0000f5; fill-opacity: 0.1"/>
    <path d="M 292.12844 -62.208293 
L 277.822839 -109.879351 
L 286.248602 -123.483281 
L 300.536809 -75.505011 
z
" clip-path="url(#p327363389a)" style="fill: #0000f5; fill-opacity: 0.1"/>
    <path d="M 261.170103 -82.992448 
L 246.579168 -130.888473 
L 254.887922 -144.588061 
L 269.463601 -96.382828 
z
" clip-path="url(#p327363389a)" style="fill: #0000f5; fill-opacity: 0.1"/>
    <path d="M 230.157857 -103.812794 
L 215.280611 -151.934502 
L 223.471933 -165.730063 
L 238.336071 -117.297144 
z
" clip-path="url(#p327363389a)" style="fill: #0000f5; fill-opacity: 0.1"/>
    <path d="M 199.091563 -124.669427 
L 183.927025 -173.017534 
L 192.000487 -186.909385 
L 207.154076 -138.248053 
z
" clip-path="url(#p327363389a)" style="fill: #0000f5; fill-opacity: 0.1"/>
    <path d="M 300.536809 -75.505011 
L 286.248602 -123.483281 
L 294.741688 -137.195907 
L 309.011771 -88.907037 
z
" clip-path="url(#p327363389a)" style="fill: #0000f5; fill-opacity: 0.1"/>
    <path d="M 269.463601 -96.382828 
L 254.887922 -144.588061 
L 263.263123 -158.397206 
L 277.822839 -109.879351 
z
" clip-path="url(#p327363389a)" style="fill: #0000f5; fill-opacity: 0.1"/>
    <path d="M 238.336071 -117.297144 
L 223.471933 -165.730063 
L 231.728819 -179.636045 
L 246.579168 -130.888473 
z
" clip-path="url(#p327363389a)" style="fill: #0000f5; fill-opacity: 0.1"/>
    <path d="M 207.154076 -138.248053 
L 192.000487 -186.909385 
L 200.138627 -200.912527 
L 215.280611 -151.934502 
z
" clip-path="url(#p327363389a)" style="fill: #0000f5; fill-opacity: 0.1"/>
    <path d="M 277.822839 -109.879351 
L 263.263123 -158.397206 
L 271.70557 -172.317226 
L 286.248602 -123.483281 
z
" clip-path="url(#p327363389a)" style="fill: #0000f5; fill-opacity: 0.1"/>
    <path d="M 246.579168 -130.888473 
L 231.728819 -179.636045 
L 240.052061 -193.653781 
L 254.887922 -144.588061 
z
" clip-path="url(#p327363389a)" style="fill: #0000f5; fill-opacity: 0.1"/>
    <path d="M 215.280611 -151.934502 
L 200.138627 -200.912527 
L 208.342226 -215.028303 
L 223.471933 -165.730063 
z
" clip-path="url(#p327363389a)" style="fill: #0000f5; fill-opacity: 0.1"/>
    <path d="M 286.248602 -123.483281 
L 271.70557 -172.317226 
L 280.216077 -186.349464 
L 294.741688 -137.195907 
z
" clip-path="url(#p327363389a)" style="fill: #0000f5; fill-opacity: 0.1"/>
    <path d="M 254.887922 -144.588061 
L 240.052061 -193.653781 
L 248.442461 -207.784623 
L 263.263123 -158.397206 
z
" clip-path="url(#p327363389a)" style="fill: #0000f5; fill-opacity: 0.1"/>
    <path d="M 223.471933 -165.730063 
L 208.342226 -215.028303 
L 216.612078 -229.258077 
L 231.728819 -179.636045 
z
" clip-path="url(#p327363389a)" style="fill: #0000f5; fill-opacity: 0.1"/>
    <path d="M 263.263123 -158.397206 
L 248.442461 -207.784623 
L 256.900835 -222.029944 
L 271.70557 -172.317226 
z
" clip-path="url(#p327363389a)" style="fill: #0000f5; fill-opacity: 0.1"/>
    <path d="M 231.728819 -179.636045 
L 216.612078 -229.258077 
L 224.948987 -243.603237 
L 240.052061 -193.653781 
z
" clip-path="url(#p327363389a)" style="fill: #0000f5; fill-opacity: 0.1"/>
    <path d="M 271.70557 -172.317226 
L 256.900835 -222.029944 
L 265.428012 -236.391143 
L 280.216077 -186.349464 
z
" clip-path="url(#p327363389a)" style="fill: #0000f5; fill-opacity: 0.1"/>
    <path d="M 240.052061 -193.653781 
L 224.948987 -243.603237 
L 233.353772 -258.065191 
L 248.442461 -207.784623 
z
" clip-path="url(#p327363389a)" style="fill: #0000f5; fill-opacity: 0.1"/>
    <path d="M 248.442461 -207.784623 
L 233.353772 -258.065191 
L 241.827267 -272.645371 
L 256.900835 -222.029944 
z
" clip-path="url(#p327363389a)" style="fill: #0000f5; fill-opacity: 0.1"/>
    <path d="M 256.900835 -222.029944 
L 241.827267 -272.645371 
L 250.370317 -287.345233 
L 265.428012 -236.391143 
z
" clip-path="url(#p327363389a)" style="fill: #0000f5; fill-opacity: 0.1"/>
   </g>
   <g id="legend_1">
    <g id="patch_6">
     <path d="M 357.840076 67.305115 
L 396.2 67.305115 
Q 398.2 67.305115 398.2 65.305115 
L 398.2 7 
Q 398.2 5 396.2 5 
L 357.840076 5 
Q 355.840076 5 355.840076 7 
L 355.840076 65.305115 
Q 355.840076 67.305115 357.840076 67.305115 
z
" style="fill: #ffffff; opacity: 0.8; stroke: #cccccc; stroke-linejoin: miter"/>
    </g>
    <g id="line2d_25">
     <path d="M 359.840076 12.5 
L 369.840076 12.5 
L 379.840076 12.5 
" style="fill: none; stroke: #ff0000; stroke-width: 1.5; stroke-linecap: square"/>
    </g>
    <g id="text_21">
     <!-- $\vec{a}$ -->
     <g transform="translate(387.840076 16)scale(0.1 -0.1)">
      <defs>
       <path id="CMMI12-7e" d="M 3424 3835 
C 3347 3764 3110 3540 3110 3451 
C 3110 3387 3168 3329 3232 3329 
C 3290 3329 3315 3368 3360 3432 
C 3514 3624 3686 3745 3834 3828 
C 3898 3867 3942 3886 3942 3956 
C 3942 4014 3891 4046 3853 4078 
C 3674 4200 3629 4372 3610 4449 
C 3590 4500 3571 4577 3482 4577 
C 3443 4577 3366 4552 3366 4456 
C 3366 4398 3405 4244 3526 4072 
L 1376 4072 
C 1267 4072 1158 4072 1158 3950 
C 1158 3835 1274 3835 1376 3835 
L 3424 3835 
z
" transform="scale(0.015625)"/>
       <path id="CMMI12-61" d="M 1926 760 
C 1894 651 1894 639 1805 517 
C 1664 338 1382 64 1082 64 
C 819 64 672 300 672 677 
C 672 1028 870 1743 992 2012 
C 1210 2459 1510 2689 1760 2689 
C 2182 2689 2266 2165 2266 2114 
C 2266 2108 2246 2024 2240 2012 
L 1926 760 
z
M 2336 2395 
C 2266 2561 2093 2816 1760 2816 
C 1037 2816 256 1884 256 939 
C 256 307 627 -64 1062 -64 
C 1414 -64 1715 211 1894 422 
C 1958 45 2259 -64 2451 -64 
C 2643 -64 2797 51 2912 281 
C 3014 498 3104 888 3104 913 
C 3104 945 3078 971 3040 971 
C 2982 971 2976 939 2950 843 
C 2854 466 2733 64 2470 64 
C 2285 64 2272 230 2272 358 
C 2272 505 2291 575 2349 824 
C 2394 984 2426 1124 2477 1309 
C 2714 2267 2771 2497 2771 2535 
C 2771 2625 2701 2695 2605 2695 
C 2400 2695 2349 2472 2336 2395 
z
" transform="scale(0.015625)"/>
      </defs>
      <use xlink:href="#CMMI12-7e" transform="scale(0.996264)"/>
      <use xlink:href="#CMMI12-61" transform="translate(6.445738 0)scale(0.996264)"/>
     </g>
    </g>
    <g id="line2d_26">
     <path d="M 359.840076 27.24679 
L 369.840076 27.24679 
L 379.840076 27.24679 
" style="fill: none; stroke: #00ff00; stroke-width: 1.5; stroke-linecap: square"/>
    </g>
    <g id="text_22">
     <!-- $\vec{b}$ -->
     <g transform="translate(387.840076 30.74679)scale(0.1 -0.1)">
      <defs>
       <path id="CMMI12-62" d="M 1478 4257 
C 1485 4283 1498 4321 1498 4352 
C 1498 4416 1434 4416 1421 4416 
C 1414 4416 1184 4393 1069 4377 
C 960 4377 864 4358 749 4358 
C 595 4345 550 4339 550 4224 
C 550 4160 614 4160 678 4160 
C 1005 4160 1005 4103 1005 4040 
C 1005 3996 954 3811 928 3696 
L 774 3085 
C 710 2831 346 1387 320 1272 
C 288 1114 288 1005 288 922 
C 288 274 653 -64 1069 -64 
C 1811 -64 2579 888 2579 1814 
C 2579 2401 2246 2816 1766 2816 
C 1434 2816 1133 2542 1011 2414 
L 1478 4257 
z
M 1075 64 
C 870 64 646 217 646 715 
C 646 926 666 1047 781 1494 
C 800 1577 902 1986 928 2069 
C 941 2120 1318 2689 1754 2689 
C 2035 2689 2163 2408 2163 2076 
C 2163 1769 1984 1047 1824 715 
C 1664 370 1370 64 1075 64 
z
" transform="scale(0.015625)"/>
      </defs>
      <use xlink:href="#CMMI12-7e" transform="translate(0 26.29016)scale(0.996264)"/>
      <use xlink:href="#CMMI12-62" transform="translate(11.311737 0)scale(0.996264)"/>
     </g>
    </g>
    <g id="line2d_27">
     <path d="M 359.840076 41.183968 
L 369.840076 41.183968 
L 379.840076 41.183968 
" style="fill: none; stroke: #0016ff; stroke-width: 1.5; stroke-linecap: square"/>
    </g>
    <g id="text_23">
     <!-- $\vec{c}$ -->
     <g transform="translate(387.840076 44.683968)scale(0.1 -0.1)">
      <defs>
       <path id="CMMI12-63" d="M 2502 2431 
C 2381 2431 2323 2431 2234 2355 
C 2195 2323 2125 2227 2125 2125 
C 2125 1997 2221 1920 2342 1920 
C 2496 1920 2669 2044 2669 2292 
C 2669 2588 2374 2816 1933 2816 
C 1094 2816 256 1903 256 996 
C 256 441 602 -64 1254 -64 
C 2125 -64 2675 622 2675 706 
C 2675 744 2637 776 2611 776 
C 2592 776 2586 770 2528 713 
C 2118 162 1510 64 1267 64 
C 826 64 685 446 685 764 
C 685 988 794 1605 1024 2039 
C 1190 2338 1536 2682 1939 2682 
C 2022 2682 2374 2682 2502 2431 
z
" transform="scale(0.015625)"/>
      </defs>
      <use xlink:href="#CMMI12-7e" transform="scale(0.996264)"/>
      <use xlink:href="#CMMI12-63" transform="translate(5.638615 0)scale(0.996264)"/>
     </g>
    </g>
    <g id="line2d_28">
     <path d="M 359.840076 57.867937 
L 369.840076 57.867937 
L 379.840076 57.867937 
" style="fill: none; stroke: #f400ff; stroke-width: 1.5; stroke-linecap: square"/>
    </g>
    <g id="text_24">
     <!-- $\vec{f}$ -->
     <g transform="translate(387.840076 61.367937)scale(0.1 -0.1)">
      <defs>
       <path id="CMMI12-66" d="M 2854 2566 
C 2982 2566 3034 2566 3034 2688 
C 3034 2752 2982 2752 2867 2752 
L 2349 2752 
C 2470 3429 2560 3897 2611 4107 
C 2650 4265 2784 4416 2950 4416 
C 3085 4416 3219 4358 3283 4298 
C 3034 4272 2957 4082 2957 3969 
C 2957 3837 3053 3759 3174 3759 
C 3302 3759 3494 3870 3494 4119 
C 3494 4393 3226 4544 2944 4544 
C 2669 4544 2400 4334 2272 4078 
C 2157 3848 2093 3611 1946 2752 
L 1517 2752 
C 1395 2752 1331 2752 1331 2637 
C 1331 2566 1370 2566 1498 2566 
L 1907 2566 
C 1792 1976 1530 542 1382 -137 
C 1274 -689 1178 -1152 858 -1152 
C 838 -1152 653 -1152 538 -1031 
C 864 -1005 864 -726 864 -720 
C 864 -593 768 -517 646 -517 
C 518 -517 326 -625 326 -867 
C 326 -1140 608 -1280 858 -1280 
C 1510 -1280 1779 -118 1850 199 
C 1965 688 2278 2376 2310 2566 
L 2854 2566 
z
" transform="scale(0.015625)"/>
      </defs>
      <use xlink:href="#CMMI12-7e" transform="translate(13.568792 26.29016)scale(0.996264)"/>
      <use xlink:href="#CMMI12-66" transform="scale(0.996264)"/>
     </g>
    </g>
   </g>
  </g>
 </g>
 <defs>
  <clipPath id="p327363389a">
   <rect x="57.6" y="0" width="345.6" height="345.6"/>
  </clipPath>
 </defs>
</svg>
