<?xml version="1.0" encoding="utf-8" standalone="no"?>
<!DOCTYPE svg PUBLIC "-//W3C//DTD SVG 1.1//EN"
  "http://www.w3.org/Graphics/SVG/1.1/DTD/svg11.dtd">
<svg xmlns:xlink="http://www.w3.org/1999/xlink" width="460.8pt" height="345.6pt" viewBox="0 0 460.8 345.6" xmlns="http://www.w3.org/2000/svg" version="1.1">
 <metadata>
  <rdf:RDF xmlns:dc="http://purl.org/dc/elements/1.1/" xmlns:cc="http://creativecommons.org/ns#" xmlns:rdf="http://www.w3.org/1999/02/22-rdf-syntax-ns#">
   <cc:Work>
    <dc:type rdf:resource="http://purl.org/dc/dcmitype/StillImage"/>
    <dc:date>2022-07-12T15:41:34.979213</dc:date>
    <dc:format>image/svg+xml</dc:format>
    <dc:creator>
     <cc:Agent>
      <dc:title>Matplotlib v3.5.1, https://matplotlib.org/</dc:title>
     </cc:Agent>
    </dc:creator>
   </cc:Work>
  </rdf:RDF>
 </metadata>
 <defs>
  <style type="text/css">*{stroke-linejoin: round; stroke-linecap: butt}</style>
 </defs>
 <g id="figure_1">
  <g id="patch_1">
   <path d="M 0 345.6 
L 460.8 345.6 
L 460.8 0 
L 0 0 
z
" style="fill: #ffffff"/>
  </g>
  <g id="patch_2">
   <path d="M 57.6 345.6 
L 403.2 345.6 
L 403.2 0 
L 57.6 0 
z
" style="fill: #ffffff"/>
  </g>
  <g id="pane3d_1">
   <g id="patch_3">
    <path d="M 232.538834 245.053043 
L 392.071844 251.405071 
L 392.071844 84.854389 
L 232.538834 91.206417 
" style="fill: #f2f2f2; opacity: 0.5; stroke: #f2f2f2; stroke-linejoin: miter"/>
   </g>
  </g>
  <g id="pane3d_2">
   <g id="patch_4">
    <path d="M 232.538834 245.053043 
L 77.606706 251.650116 
L 77.606706 84.609344 
L 232.538834 91.206417 
" style="fill: #e6e6e6; opacity: 0.5; stroke: #e6e6e6; stroke-linejoin: miter"/>
   </g>
  </g>
  <g id="pane3d_3">
   <g id="patch_5">
    <path d="M 232.538834 245.053043 
L 77.606706 251.650116 
L 238.066993 259.191794 
L 392.071844 251.405071 
" style="fill: #ececec; opacity: 0.5; stroke: #ececec; stroke-linejoin: miter"/>
   </g>
  </g>
  <g id="axis3d_1">
   <g id="line2d_1">
    <path d="M 392.071844 251.405071 
L 238.066993 259.191794 
" style="fill: none; stroke: #000000; stroke-width: 0.8; stroke-linecap: square"/>
   </g>
   <g id="text_1">
    <!-- x -->
    <g transform="translate(339.409017 284.622793)scale(0.16 -0.16)">
     <defs>
      <path id="CMSS17-78" d="M 1587 1414 
L 2656 2739 
L 2099 2739 
L 1363 1777 
L 602 2739 
L 32 2739 
L 1139 1414 
L 0 0 
L 563 0 
L 1363 1121 
L 2195 0 
L 2758 0 
L 1587 1414 
z
" transform="scale(0.015625)"/>
     </defs>
     <use xlink:href="#CMSS17-78" transform="scale(0.996264)"/>
    </g>
   </g>
   <g id="Line3DCollection_1">
    <path d="M 389.2503 251.547732 
L 229.68043 245.174755 
L 229.68043 91.084705 
" style="fill: none; stroke: #b0b0b0; stroke-width: 0.8"/>
    <path d="M 361.663387 252.942569 
L 201.772423 246.363089 
L 201.772423 89.89637 
" style="fill: none; stroke: #b0b0b0; stroke-width: 0.8"/>
    <path d="M 333.138221 254.384846 
L 172.99003 247.588655 
L 172.99003 88.670804 
" style="fill: none; stroke: #b0b0b0; stroke-width: 0.8"/>
    <path d="M 303.626107 255.877024 
L 143.291502 248.853231 
L 143.291502 87.406229 
" style="fill: none; stroke: #b0b0b0; stroke-width: 0.8"/>
    <path d="M 273.074923 257.421739 
L 112.632393 250.158708 
L 112.632393 86.100752 
" style="fill: none; stroke: #b0b0b0; stroke-width: 0.8"/>
    <path d="M 241.42881 259.021815 
L 80.965333 251.507104 
L 80.965333 84.752355 
" style="fill: none; stroke: #b0b0b0; stroke-width: 0.8"/>
   </g>
   <g id="xtick_1">
    <g id="line2d_2">
     <path d="M 387.869062 251.492568 
L 392.018269 251.658281 
" style="fill: none; stroke: #000000; stroke-width: 0.8; stroke-linecap: square"/>
    </g>
    <g id="text_2">
     <!-- $\mathdefault{0}$ -->
     <g transform="translate(397.856302 269.625011)scale(0.1 -0.1)">
      <defs>
       <path id="CMR17-30" d="M 2688 2025 
C 2688 2416 2682 3080 2413 3591 
C 2176 4039 1798 4198 1466 4198 
C 1158 4198 768 4058 525 3597 
C 269 3118 243 2524 243 2025 
C 243 1661 250 1106 448 619 
C 723 -39 1216 -128 1466 -128 
C 1760 -128 2208 -7 2470 600 
C 2662 1042 2688 1559 2688 2025 
z
M 1466 -26 
C 1056 -26 813 325 723 812 
C 653 1188 653 1738 653 2096 
C 653 2588 653 2997 736 3387 
C 858 3929 1216 4096 1466 4096 
C 1728 4096 2067 3923 2189 3400 
C 2272 3036 2278 2607 2278 2096 
C 2278 1680 2278 1169 2202 792 
C 2067 95 1690 -26 1466 -26 
z
" transform="scale(0.015625)"/>
      </defs>
      <use xlink:href="#CMR17-30" transform="scale(0.996264)"/>
     </g>
    </g>
   </g>
   <g id="xtick_2">
    <g id="line2d_3">
     <path d="M 360.277616 252.885545 
L 364.440531 253.056848 
" style="fill: none; stroke: #000000; stroke-width: 0.8; stroke-linecap: square"/>
    </g>
    <g id="text_3">
     <!-- $\mathdefault{1}$ -->
     <g transform="translate(370.306911 271.214977)scale(0.1 -0.1)">
      <defs>
       <path id="CMR17-31" d="M 1702 4058 
C 1702 4192 1696 4192 1606 4192 
C 1357 3916 979 3827 621 3827 
C 602 3827 570 3827 563 3808 
C 557 3795 557 3782 557 3648 
C 755 3648 1088 3686 1344 3839 
L 1344 461 
C 1344 236 1331 160 781 160 
L 589 160 
L 589 0 
C 896 0 1216 0 1523 0 
C 1830 0 2150 0 2458 0 
L 2458 160 
L 2266 160 
C 1715 160 1702 230 1702 458 
L 1702 4058 
z
" transform="scale(0.015625)"/>
      </defs>
      <use xlink:href="#CMR17-31" transform="scale(0.996264)"/>
     </g>
    </g>
   </g>
   <g id="xtick_3">
    <g id="line2d_4">
     <path d="M 331.748405 254.325866 
L 335.923565 254.503047 
" style="fill: none; stroke: #000000; stroke-width: 0.8; stroke-linecap: square"/>
    </g>
    <g id="text_4">
     <!-- $\mathdefault{2}$ -->
     <g transform="translate(341.815395 272.859317)scale(0.1 -0.1)">
      <defs>
       <path id="CMR17-32" d="M 2669 989 
L 2554 989 
C 2490 536 2438 459 2413 420 
C 2381 369 1920 369 1830 369 
L 602 369 
C 832 619 1280 1072 1824 1597 
C 2214 1967 2669 2402 2669 3035 
C 2669 3790 2067 4224 1395 4224 
C 691 4224 262 3604 262 3030 
C 262 2780 448 2748 525 2748 
C 589 2748 781 2787 781 3010 
C 781 3207 614 3264 525 3264 
C 486 3264 448 3258 422 3245 
C 544 3790 915 4058 1306 4058 
C 1862 4058 2227 3617 2227 3035 
C 2227 2479 1901 2000 1536 1584 
L 262 146 
L 262 0 
L 2515 0 
L 2669 989 
z
" transform="scale(0.015625)"/>
      </defs>
      <use xlink:href="#CMR17-32" transform="scale(0.996264)"/>
     </g>
    </g>
   </g>
   <g id="xtick_4">
    <g id="line2d_5">
     <path d="M 302.232794 255.815987 
L 306.418561 255.999353 
" style="fill: none; stroke: #000000; stroke-width: 0.8; stroke-linecap: square"/>
    </g>
    <g id="text_5">
     <!-- $\mathdefault{3}$ -->
     <g transform="translate(312.332585 274.560868)scale(0.1 -0.1)">
      <defs>
       <path id="CMR17-33" d="M 1414 2157 
C 1984 2157 2234 1662 2234 1090 
C 2234 320 1824 25 1453 25 
C 1114 25 563 194 390 693 
C 422 680 454 680 486 680 
C 640 680 755 782 755 948 
C 755 1133 614 1216 486 1216 
C 378 1216 211 1165 211 926 
C 211 335 787 -128 1466 -128 
C 2176 -128 2720 430 2720 1085 
C 2720 1707 2208 2157 1600 2227 
C 2086 2328 2554 2756 2554 3329 
C 2554 3820 2048 4179 1472 4179 
C 890 4179 378 3829 378 3329 
C 378 3110 544 3072 627 3072 
C 762 3072 877 3155 877 3321 
C 877 3486 762 3569 627 3569 
C 602 3569 570 3569 544 3557 
C 730 3959 1235 4032 1459 4032 
C 1683 4032 2106 3925 2106 3320 
C 2106 3143 2080 2828 1862 2550 
C 1670 2304 1453 2304 1242 2284 
C 1210 2284 1062 2269 1037 2269 
C 992 2263 966 2257 966 2208 
C 966 2163 973 2157 1101 2157 
L 1414 2157 
z
" transform="scale(0.015625)"/>
      </defs>
      <use xlink:href="#CMR17-33" transform="scale(0.996264)"/>
     </g>
    </g>
   </g>
   <g id="xtick_5">
    <g id="line2d_6">
     <path d="M 271.678724 257.358535 
L 275.873263 257.548416 
" style="fill: none; stroke: #000000; stroke-width: 0.8; stroke-linecap: square"/>
    </g>
    <g id="text_6">
     <!-- $\mathdefault{4}$ -->
     <g transform="translate(281.805831 276.322668)scale(0.1 -0.1)">
      <defs>
       <path id="CMR17-34" d="M 2150 4122 
C 2150 4256 2144 4256 2029 4256 
L 128 1254 
L 128 1088 
L 1779 1088 
L 1779 457 
C 1779 224 1766 160 1318 160 
L 1197 160 
L 1197 0 
C 1402 0 1747 0 1965 0 
C 2182 0 2528 0 2733 0 
L 2733 160 
L 2611 160 
C 2163 160 2150 224 2150 457 
L 2150 1088 
L 2803 1088 
L 2803 1254 
L 2150 1254 
L 2150 4122 
z
M 1798 3703 
L 1798 1254 
L 256 1254 
L 1798 3703 
z
" transform="scale(0.015625)"/>
      </defs>
      <use xlink:href="#CMR17-34" transform="scale(0.996264)"/>
     </g>
    </g>
   </g>
   <g id="xtick_6">
    <g id="line2d_7">
     <path d="M 240.030411 258.956326 
L 244.231666 259.153077 
" style="fill: none; stroke: #000000; stroke-width: 0.8; stroke-linecap: square"/>
    </g>
    <g id="text_7">
     <!-- $\mathdefault{5}$ -->
     <g transform="translate(250.178687 278.147975)scale(0.1 -0.1)">
      <defs>
       <path id="CMR17-35" d="M 730 3692 
C 794 3666 1056 3584 1325 3584 
C 1920 3584 2246 3911 2432 4100 
C 2432 4157 2432 4192 2394 4192 
C 2387 4192 2374 4192 2323 4163 
C 2099 4058 1837 3973 1517 3973 
C 1325 3973 1037 3999 723 4139 
C 653 4171 640 4171 634 4171 
C 602 4171 595 4164 595 4037 
L 595 2203 
C 595 2089 595 2057 659 2057 
C 691 2057 704 2070 736 2114 
C 941 2401 1222 2522 1542 2522 
C 1766 2522 2246 2382 2246 1289 
C 2246 1085 2246 715 2054 421 
C 1894 159 1645 25 1370 25 
C 947 25 518 320 403 814 
C 429 807 480 795 506 795 
C 589 795 749 840 749 1038 
C 749 1210 627 1280 506 1280 
C 358 1280 262 1190 262 1011 
C 262 454 704 -128 1382 -128 
C 2042 -128 2669 440 2669 1264 
C 2669 2030 2170 2624 1549 2624 
C 1222 2624 947 2503 730 2274 
L 730 3692 
z
" transform="scale(0.015625)"/>
      </defs>
      <use xlink:href="#CMR17-35" transform="scale(0.996264)"/>
     </g>
    </g>
   </g>
  </g>
  <g id="axis3d_2">
   <g id="line2d_8">
    <path d="M 77.606706 251.650116 
L 238.066993 259.191794 
" style="fill: none; stroke: #000000; stroke-width: 0.8; stroke-linecap: square"/>
   </g>
   <g id="text_8">
    <!-- y -->
    <g transform="translate(127.087255 284.84622)scale(0.16 -0.16)">
     <defs>
      <path id="CMSS17-79" d="M 2675 2752 
L 2176 2752 
C 1632 1294 1446 702 1434 383 
L 1427 383 
C 1408 696 1126 1460 902 2007 
L 602 2752 
L 83 2752 
L 1216 13 
C 1146 -178 1043 -465 1011 -529 
C 870 -885 774 -885 672 -885 
C 646 -885 442 -885 211 -809 
L 250 -1229 
C 410 -1261 570 -1280 685 -1280 
C 845 -1280 1165 -1280 1459 -497 
L 2675 2752 
z
" transform="scale(0.015625)"/>
     </defs>
     <use xlink:href="#CMSS17-79" transform="scale(0.996264)"/>
    </g>
   </g>
   <g id="Line3DCollection_2">
    <path d="M 249.785689 90.519709 
L 249.785689 245.73975 
L 94.844155 252.460281 
" style="fill: none; stroke: #b0b0b0; stroke-width: 0.8"/>
    <path d="M 279.019 89.355744 
L 279.019 246.903715 
L 124.121932 253.836344 
" style="fill: none; stroke: #b0b0b0; stroke-width: 0.8"/>
    <path d="M 309.142521 88.156335 
L 309.142521 248.103125 
L 154.371038 255.258061 
" style="fill: none; stroke: #b0b0b0; stroke-width: 0.8"/>
    <path d="M 340.197545 86.919836 
L 340.197545 249.339624 
L 185.640627 256.72774 
" style="fill: none; stroke: #b0b0b0; stroke-width: 0.8"/>
    <path d="M 372.227956 85.644501 
L 372.227956 250.614959 
L 217.983225 258.247851 
" style="fill: none; stroke: #b0b0b0; stroke-width: 0.8"/>
   </g>
   <g id="xtick_7">
    <g id="line2d_9">
     <path d="M 96.190091 252.401901 
L 92.146682 252.577283 
" style="fill: none; stroke: #000000; stroke-width: 0.8; stroke-linecap: square"/>
    </g>
    <g id="text_9">
     <!-- $\mathdefault{−4}$ -->
     <g transform="translate(77.663041 270.683439)scale(0.1 -0.1)">
      <defs>
       <path id="CMSY10-0" d="M 4218 1472 
C 4326 1472 4442 1472 4442 1600 
C 4442 1728 4326 1728 4218 1728 
L 755 1728 
C 646 1728 531 1728 531 1600 
C 531 1472 646 1472 755 1472 
L 4218 1472 
z
" transform="scale(0.015625)"/>
      </defs>
      <use xlink:href="#CMSY10-0" transform="scale(0.996264)"/>
      <use xlink:href="#CMR17-34" transform="translate(77.487468 0)scale(0.996264)"/>
     </g>
    </g>
   </g>
   <g id="xtick_8">
    <g id="line2d_10">
     <path d="M 125.469215 253.776045 
L 121.421665 253.957198 
" style="fill: none; stroke: #000000; stroke-width: 0.8; stroke-linecap: square"/>
    </g>
    <g id="text_10">
     <!-- $\mathdefault{−2}$ -->
     <g transform="translate(106.928878 272.25279)scale(0.1 -0.1)">
      <use xlink:href="#CMSY10-0" transform="scale(0.996264)"/>
      <use xlink:href="#CMR17-32" transform="translate(77.487468 0)scale(0.996264)"/>
     </g>
    </g>
   </g>
   <g id="xtick_9">
    <g id="line2d_11">
     <path d="M 155.71902 255.195745 
L 151.669277 255.382961 
" style="fill: none; stroke: #000000; stroke-width: 0.8; stroke-linecap: square"/>
    </g>
    <g id="text_11">
     <!-- $\mathdefault{0}$ -->
     <g transform="translate(141.045601 273.874506)scale(0.1 -0.1)">
      <use xlink:href="#CMR17-30" transform="scale(0.996264)"/>
     </g>
    </g>
   </g>
   <g id="xtick_10">
    <g id="line2d_12">
     <path d="M 186.988588 256.663305 
L 182.938809 256.856892 
" style="fill: none; stroke: #000000; stroke-width: 0.8; stroke-linecap: square"/>
    </g>
    <g id="text_12">
     <!-- $\mathdefault{2}$ -->
     <g transform="translate(172.314173 275.551252)scale(0.1 -0.1)">
      <use xlink:href="#CMR17-32" transform="scale(0.996264)"/>
     </g>
    </g>
   </g>
   <g id="xtick_11">
    <g id="line2d_13">
     <path d="M 219.330372 258.181187 
L 215.282939 258.381476 
" style="fill: none; stroke: #000000; stroke-width: 0.8; stroke-linecap: square"/>
    </g>
    <g id="text_13">
     <!-- $\mathdefault{4}$ -->
     <g transform="translate(204.6621 277.285877)scale(0.1 -0.1)">
      <use xlink:href="#CMR17-34" transform="scale(0.996264)"/>
     </g>
    </g>
   </g>
  </g>
  <g id="axis3d_3">
   <g id="line2d_14">
    <path d="M 77.606706 251.650116 
L 77.606706 84.609344 
" style="fill: none; stroke: #000000; stroke-width: 0.8; stroke-linecap: square"/>
   </g>
   <g id="text_14">
    <!-- z -->
    <g transform="translate(30.399149 172.114786)scale(0.16 -0.16)">
     <defs>
      <path id="CMSS17-7a" d="M 2400 2502 
L 2400 2750 
L 250 2750 
L 250 2368 
L 1069 2368 
C 1146 2368 1222 2368 1299 2368 
L 1747 2368 
L 166 261 
L 166 0 
L 2419 0 
L 2419 395 
L 1549 395 
C 1472 395 1395 395 1318 395 
L 826 395 
L 2400 2502 
z
" transform="scale(0.015625)"/>
     </defs>
     <use xlink:href="#CMSS17-7a" transform="scale(0.996264)"/>
    </g>
   </g>
   <g id="Line3DCollection_3">
    <path d="M 77.606706 248.3093 
L 232.538834 241.97611 
L 392.071844 248.074057 
" style="fill: none; stroke: #b0b0b0; stroke-width: 0.8"/>
    <path d="M 77.606706 216.237472 
L 232.538834 212.437558 
L 392.071844 216.096326 
" style="fill: none; stroke: #b0b0b0; stroke-width: 0.8"/>
    <path d="M 77.606706 184.165644 
L 232.538834 182.899006 
L 392.071844 184.118595 
" style="fill: none; stroke: #b0b0b0; stroke-width: 0.8"/>
    <path d="M 77.606706 152.093816 
L 232.538834 153.360454 
L 392.071844 152.140864 
" style="fill: none; stroke: #b0b0b0; stroke-width: 0.8"/>
    <path d="M 77.606706 120.021987 
L 232.538834 123.821901 
L 392.071844 120.163133 
" style="fill: none; stroke: #b0b0b0; stroke-width: 0.8"/>
    <path d="M 77.606706 87.950159 
L 232.538834 94.283349 
L 392.071844 88.185402 
" style="fill: none; stroke: #b0b0b0; stroke-width: 0.8"/>
   </g>
   <g id="xtick_12">
    <g id="line2d_15">
     <path d="M 78.951538 248.254327 
L 74.911498 248.419473 
" style="fill: none; stroke: #000000; stroke-width: 0.8; stroke-linecap: square"/>
    </g>
    <g id="text_15">
     <!-- $\mathdefault{0}$ -->
     <g transform="translate(54.962302 255.242875)scale(0.1 -0.1)">
      <use xlink:href="#CMR17-30" transform="scale(0.996264)"/>
     </g>
    </g>
   </g>
   <g id="xtick_13">
    <g id="line2d_16">
     <path d="M 78.951538 216.204488 
L 74.911498 216.303576 
" style="fill: none; stroke: #000000; stroke-width: 0.8; stroke-linecap: square"/>
    </g>
    <g id="text_16">
     <!-- $\mathdefault{1}$ -->
     <g transform="translate(54.962302 223.165016)scale(0.1 -0.1)">
      <use xlink:href="#CMR17-31" transform="scale(0.996264)"/>
     </g>
    </g>
   </g>
   <g id="xtick_14">
    <g id="line2d_17">
     <path d="M 78.951538 184.154649 
L 74.911498 184.187678 
" style="fill: none; stroke: #000000; stroke-width: 0.8; stroke-linecap: square"/>
    </g>
    <g id="text_17">
     <!-- $\mathdefault{2}$ -->
     <g transform="translate(54.962302 191.087158)scale(0.1 -0.1)">
      <use xlink:href="#CMR17-32" transform="scale(0.996264)"/>
     </g>
    </g>
   </g>
   <g id="xtick_15">
    <g id="line2d_18">
     <path d="M 78.951538 152.10481 
L 74.911498 152.071781 
" style="fill: none; stroke: #000000; stroke-width: 0.8; stroke-linecap: square"/>
    </g>
    <g id="text_18">
     <!-- $\mathdefault{3}$ -->
     <g transform="translate(54.962302 159.009299)scale(0.1 -0.1)">
      <use xlink:href="#CMR17-33" transform="scale(0.996264)"/>
     </g>
    </g>
   </g>
   <g id="xtick_16">
    <g id="line2d_19">
     <path d="M 78.951538 120.054971 
L 74.911498 119.955884 
" style="fill: none; stroke: #000000; stroke-width: 0.8; stroke-linecap: square"/>
    </g>
    <g id="text_19">
     <!-- $\mathdefault{4}$ -->
     <g transform="translate(54.962302 126.93144)scale(0.1 -0.1)">
      <use xlink:href="#CMR17-34" transform="scale(0.996264)"/>
     </g>
    </g>
   </g>
   <g id="xtick_17">
    <g id="line2d_20">
     <path d="M 78.951538 88.005132 
L 74.911498 87.839987 
" style="fill: none; stroke: #000000; stroke-width: 0.8; stroke-linecap: square"/>
    </g>
    <g id="text_20">
     <!-- $\mathdefault{5}$ -->
     <g transform="translate(54.962302 94.853581)scale(0.1 -0.1)">
      <use xlink:href="#CMR17-35" transform="scale(0.996264)"/>
     </g>
    </g>
   </g>
  </g>
  <g id="axes_1">
   <g id="line2d_21">
    <path d="M 306.296613 245.03049 
L 325.559461 88.135646 
" clip-path="url(#pafd88d7eca)" style="fill: none; stroke: #ff0000; stroke-width: 1.5; stroke-linecap: square"/>
   </g>
   <g id="line2d_22">
    <path d="M 306.296613 245.03049 
L 219.559357 121.223065 
" clip-path="url(#pafd88d7eca)" style="fill: none; stroke: #00ff00; stroke-width: 1.5; stroke-linecap: square"/>
   </g>
   <g id="line2d_23">
    <path d="M 306.296613 245.03049 
L 246.008038 -1 
" clip-path="url(#pafd88d7eca)" style="fill: none; stroke: #0016ff; stroke-width: 1.5; stroke-linecap: square"/>
   </g>
   <g id="line2d_24">
    <path d="M 306.296613 245.03049 
L 112.727771 151.835678 
" clip-path="url(#pafd88d7eca)" style="fill: none; stroke: #f400ff; stroke-width: 1.5; stroke-linecap: square"/>
   </g>
   <g id="Poly3DCollection_1">
    <path d="M 232.632521 353.320755 
L 218.786581 313.685892 
L 225.911958 302.988358 
L 239.75454 342.850996 
z
" clip-path="url(#pafd88d7eca)" style="fill: #0000f5; fill-opacity: 0.1"/>
    <path d="M 239.75454 342.850996 
L 225.911958 302.988358 
L 233.090469 292.211054 
L 246.92926 332.303763 
z
" clip-path="url(#pafd88d7eca)" style="fill: #0000f5; fill-opacity: 0.1"/>
    <path d="M 246.92926 332.303763 
L 233.090469 292.211054 
L 240.32271 281.353083 
L 254.157269 321.678192 
z
" clip-path="url(#pafd88d7eca)" style="fill: #0000f5; fill-opacity: 0.1"/>
    <path d="M 218.786581 313.685892 
L 204.726751 273.438755 
L 211.854738 262.507623 
L 225.911958 302.988358 
z
" clip-path="url(#pafd88d7eca)" style="fill: #0000f5; fill-opacity: 0.1"/>
    <path d="M 254.157269 321.678192 
L 240.32271 281.353083 
L 247.609287 270.413537 
L 261.439162 310.973409 
z
" clip-path="url(#pafd88d7eca)" style="fill: #0000f5; fill-opacity: 0.1"/>
    <path d="M 225.911958 302.988358 
L 211.854738 262.507623 
L 219.036292 251.494345 
L 233.090469 292.211054 
z
" clip-path="url(#pafd88d7eca)" style="fill: #0000f5; fill-opacity: 0.1"/>
    <path d="M 261.439162 310.973409 
L 247.609287 270.413537 
L 254.950813 259.391493 
L 268.775545 300.188523 
z
" clip-path="url(#pafd88d7eca)" style="fill: #0000f5; fill-opacity: 0.1"/>
    <path d="M 233.090469 292.211054 
L 219.036292 251.494345 
L 226.272019 240.397989 
L 240.32271 281.353083 
z
" clip-path="url(#pafd88d7eca)" style="fill: #0000f5; fill-opacity: 0.1"/>
    <path d="M 204.726751 273.438755 
L 190.448035 232.565046 
L 197.577848 221.394302 
L 211.854738 262.507623 
z
" clip-path="url(#pafd88d7eca)" style="fill: #0000f5; fill-opacity: 0.1"/>
    <path d="M 268.775545 300.188523 
L 254.950813 259.391493 
L 262.347914 248.286013 
L 276.167031 289.322632 
z
" clip-path="url(#pafd88d7eca)" style="fill: #0000f5; fill-opacity: 0.1"/>
    <path d="M 240.32271 281.353083 
L 226.272019 240.397989 
L 233.562534 229.217614 
L 247.609287 270.413537 
z
" clip-path="url(#pafd88d7eca)" style="fill: #0000f5; fill-opacity: 0.1"/>
    <path d="M 211.854738 262.507623 
L 197.577848 221.394302 
L 204.761661 210.138952 
L 219.036292 251.494345 
z
" clip-path="url(#pafd88d7eca)" style="fill: #0000f5; fill-opacity: 0.1"/>
    <path d="M 276.167031 289.322632 
L 262.347914 248.286013 
L 269.801223 237.096148 
L 283.614243 278.37482 
z
" clip-path="url(#pafd88d7eca)" style="fill: #0000f5; fill-opacity: 0.1"/>
    <path d="M 247.609287 270.413537 
L 233.562534 229.217614 
L 240.908461 217.95226 
L 254.950813 259.391493 
z
" clip-path="url(#pafd88d7eca)" style="fill: #0000f5; fill-opacity: 0.1"/>
    <path d="M 219.036292 251.494345 
L 204.761661 210.138952 
L 212.000091 198.798031 
L 226.272019 240.397989 
z
" clip-path="url(#pafd88d7eca)" style="fill: #0000f5; fill-opacity: 0.1"/>
    <path d="M 190.448035 232.565046 
L 175.945283 191.050019 
L 183.076098 179.63345 
L 197.577848 221.394302 
z
" clip-path="url(#pafd88d7eca)" style="fill: #0000f5; fill-opacity: 0.1"/>
    <path d="M 283.614243 278.37482 
L 269.801223 237.096148 
L 277.311382 225.820931 
L 291.117815 267.344158 
z
" clip-path="url(#pafd88d7eca)" style="fill: #0000f5; fill-opacity: 0.1"/>
    <path d="M 254.950813 259.391493 
L 240.908461 217.95226 
L 248.310436 206.600956 
L 262.347914 248.286013 
z
" clip-path="url(#pafd88d7eca)" style="fill: #0000f5; fill-opacity: 0.1"/>
    <path d="M 226.272019 240.397989 
L 212.000091 198.798031 
L 219.293762 187.370559 
L 233.562534 229.217614 
z
" clip-path="url(#pafd88d7eca)" style="fill: #0000f5; fill-opacity: 0.1"/>
    <path d="M 197.577848 221.394302 
L 183.076098 179.63345 
L 190.261348 168.12973 
L 204.761661 210.138952 
z
" clip-path="url(#pafd88d7eca)" style="fill: #0000f5; fill-opacity: 0.1"/>
    <path d="M 291.117815 267.344158 
L 277.311382 225.820931 
L 284.879044 214.459382 
L 298.678387 256.229701 
z
" clip-path="url(#pafd88d7eca)" style="fill: #0000f5; fill-opacity: 0.1"/>
    <path d="M 262.347914 248.286013 
L 248.310436 206.600956 
L 255.7691 195.162714 
L 269.801223 237.096148 
z
" clip-path="url(#pafd88d7eca)" style="fill: #0000f5; fill-opacity: 0.1"/>
    <path d="M 233.562534 229.217614 
L 219.293762 187.370559 
L 226.643309 175.855542 
L 240.908461 217.95226 
z
" clip-path="url(#pafd88d7eca)" style="fill: #0000f5; fill-opacity: 0.1"/>
    <path d="M 204.761661 210.138952 
L 190.261348 168.12973 
L 197.501658 156.537856 
L 212.000091 198.798031 
z
" clip-path="url(#pafd88d7eca)" style="fill: #0000f5; fill-opacity: 0.1"/>
    <path d="M 175.945283 191.050019 
L 161.213181 148.87846 
L 168.344134 137.209648 
L 183.076098 179.63345 
z
" clip-path="url(#pafd88d7eca)" style="fill: #0000f5; fill-opacity: 0.1"/>
    <path d="M 298.678387 256.229701 
L 284.879044 214.459382 
L 292.504873 203.010506 
L 306.296613 245.03049 
z
" clip-path="url(#pafd88d7eca)" style="fill: #0000f5; fill-opacity: 0.1"/>
    <path d="M 269.801223 237.096148 
L 255.7691 195.162714 
L 263.28511 183.636532 
L 277.311382 225.820931 
z
" clip-path="url(#pafd88d7eca)" style="fill: #0000f5; fill-opacity: 0.1"/>
    <path d="M 240.908461 217.95226 
L 226.643309 175.855542 
L 234.049378 164.25197 
L 248.310436 206.600956 
z
" clip-path="url(#pafd88d7eca)" style="fill: #0000f5; fill-opacity: 0.1"/>
    <path d="M 212.000091 198.798031 
L 197.501658 156.537856 
L 204.797665 144.856812 
L 219.293762 187.370559 
z
" clip-path="url(#pafd88d7eca)" style="fill: #0000f5; fill-opacity: 0.1"/>
    <path d="M 183.076098 179.63345 
L 168.344134 137.209648 
L 175.529958 125.451049 
L 190.261348 168.12973 
z
" clip-path="url(#pafd88d7eca)" style="fill: #0000f5; fill-opacity: 0.1"/>
    <path d="M 306.296613 245.03049 
L 292.504873 203.010506 
L 300.189542 191.473292 
L 313.973154 233.745553 
z
" clip-path="url(#pafd88d7eca)" style="fill: #0000f5; fill-opacity: 0.1"/>
    <path d="M 277.311382 225.820931 
L 263.28511 183.636532 
L 270.859127 172.02139 
L 284.879044 214.459382 
z
" clip-path="url(#pafd88d7eca)" style="fill: #0000f5; fill-opacity: 0.1"/>
    <path d="M 248.310436 206.600956 
L 234.049378 164.25197 
L 241.512622 152.558817 
L 255.7691 195.162714 
z
" clip-path="url(#pafd88d7eca)" style="fill: #0000f5; fill-opacity: 0.1"/>
    <path d="M 219.293762 187.370559 
L 204.797665 144.856812 
L 212.150013 133.085564 
L 226.643309 175.855542 
z
" clip-path="url(#pafd88d7eca)" style="fill: #0000f5; fill-opacity: 0.1"/>
    <path d="M 190.261348 168.12973 
L 175.529958 125.451049 
L 182.771287 113.601623 
L 197.501658 156.537856 
z
" clip-path="url(#pafd88d7eca)" style="fill: #0000f5; fill-opacity: 0.1"/>
    <path d="M 161.213181 148.87846 
L 146.246243 106.034672 
L 153.37643 94.106983 
L 168.344134 137.209648 
z
" clip-path="url(#pafd88d7eca)" style="fill: #0000f5; fill-opacity: 0.1"/>
    <path d="M 313.973154 233.745553 
L 300.189542 191.473292 
L 307.933735 179.846714 
L 321.708682 222.373901 
z
" clip-path="url(#pafd88d7eca)" style="fill: #0000f5; fill-opacity: 0.1"/>
    <path d="M 284.879044 214.459382 
L 270.859127 172.02139 
L 278.491827 160.316256 
L 292.504873 203.010506 
z
" clip-path="url(#pafd88d7eca)" style="fill: #0000f5; fill-opacity: 0.1"/>
    <path d="M 255.7691 195.162714 
L 241.512622 152.558817 
L 249.033706 140.775043 
L 263.28511 183.636532 
z
" clip-path="url(#pafd88d7eca)" style="fill: #0000f5; fill-opacity: 0.1"/>
    <path d="M 226.643309 175.855542 
L 212.150013 133.085564 
L 219.559357 121.223065 
L 234.049378 164.25197 
z
" clip-path="url(#pafd88d7eca)" style="fill: #0000f5; fill-opacity: 0.1"/>
    <path d="M 197.501658 156.537856 
L 182.771287 113.601623 
L 190.068767 101.660313 
L 204.797665 144.856812 
z
" clip-path="url(#pafd88d7eca)" style="fill: #0000f5; fill-opacity: 0.1"/>
    <path d="M 168.344134 137.209648 
L 153.37643 94.106983 
L 160.561922 82.086778 
L 175.529958 125.451049 
z
" clip-path="url(#pafd88d7eca)" style="fill: #0000f5; fill-opacity: 0.1"/>
    <path d="M 321.708682 222.373901 
L 307.933735 179.846714 
L 315.738144 168.12973 
L 329.50388 210.914532 
z
" clip-path="url(#pafd88d7eca)" style="fill: #0000f5; fill-opacity: 0.1"/>
    <path d="M 292.504873 203.010506 
L 278.491827 160.316256 
L 286.183895 148.52008 
L 300.189542 191.473292 
z
" clip-path="url(#pafd88d7eca)" style="fill: #0000f5; fill-opacity: 0.1"/>
    <path d="M 263.28511 183.636532 
L 249.033706 140.775043 
L 256.613305 128.899589 
L 270.859127 172.02139 
z
" clip-path="url(#pafd88d7eca)" style="fill: #0000f5; fill-opacity: 0.1"/>
    <path d="M 234.049378 164.25197 
L 219.559357 121.223065 
L 227.026363 109.268247 
L 241.512622 152.558817 
z
" clip-path="url(#pafd88d7eca)" style="fill: #0000f5; fill-opacity: 0.1"/>
    <path d="M 204.797665 144.856812 
L 190.068767 101.660313 
L 197.423054 89.626046 
L 212.150013 133.085564 
z
" clip-path="url(#pafd88d7eca)" style="fill: #0000f5; fill-opacity: 0.1"/>
    <path d="M 175.529958 125.451049 
L 160.561922 82.086778 
L 167.803365 69.972977 
L 182.771287 113.601623 
z
" clip-path="url(#pafd88d7eca)" style="fill: #0000f5; fill-opacity: 0.1"/>
    <path d="M 146.246243 106.034672 
L 131.03881 62.502452 
L 138.167283 50.30903 
L 153.37643 94.106983 
z
" clip-path="url(#pafd88d7eca)" style="fill: #0000f5; fill-opacity: 0.1"/>
    <path d="M 329.50388 210.914532 
L 315.738144 168.12973 
L 323.603477 156.32128 
L 337.359441 199.366425 
z
" clip-path="url(#pafd88d7eca)" style="fill: #0000f5; fill-opacity: 0.1"/>
    <path d="M 300.189542 191.473292 
L 286.183895 148.52008 
L 293.936024 136.631795 
L 307.933735 179.846714 
z
" clip-path="url(#pafd88d7eca)" style="fill: #0000f5; fill-opacity: 0.1"/>
    <path d="M 270.859127 172.02139 
L 256.613305 128.899589 
L 264.252105 116.931381 
L 278.491827 160.316256 
z
" clip-path="url(#pafd88d7eca)" style="fill: #0000f5; fill-opacity: 0.1"/>
    <path d="M 241.512622 152.558817 
L 227.026363 109.268247 
L 234.551706 97.22003 
L 249.033706 140.775043 
z
" clip-path="url(#pafd88d7eca)" style="fill: #0000f5; fill-opacity: 0.1"/>
    <path d="M 212.150013 133.085564 
L 197.423054 89.626046 
L 204.834814 77.497733 
L 219.559357 121.223065 
z
" clip-path="url(#pafd88d7eca)" style="fill: #0000f5; fill-opacity: 0.1"/>
    <path d="M 182.771287 113.601623 
L 167.803365 69.972977 
L 175.101415 57.764481 
L 190.068767 101.660313 
z
" clip-path="url(#pafd88d7eca)" style="fill: #0000f5; fill-opacity: 0.1"/>
    <path d="M 153.37643 94.106983 
L 138.167283 50.30903 
L 145.351494 38.020264 
L 160.561922 82.086778 
z
" clip-path="url(#pafd88d7eca)" style="fill: #0000f5; fill-opacity: 0.1"/>
    <path d="M 337.359441 199.366425 
L 323.603477 156.32128 
L 331.530449 144.42029 
L 345.276068 187.728547 
z
" clip-path="url(#pafd88d7eca)" style="fill: #0000f5; fill-opacity: 0.1"/>
    <path d="M 307.933735 179.846714 
L 293.936024 136.631795 
L 301.748923 124.650317 
L 315.738144 168.12973 
z
" clip-path="url(#pafd88d7eca)" style="fill: #0000f5; fill-opacity: 0.1"/>
    <path d="M 278.491827 160.316256 
L 264.252105 116.931381 
L 271.950802 104.869329 
L 286.183895 148.52008 
z
" clip-path="url(#pafd88d7eca)" style="fill: #0000f5; fill-opacity: 0.1"/>
    <path d="M 249.033706 140.775043 
L 234.551706 97.22003 
L 242.136074 85.077315 
L 256.613305 128.899589 
z
" clip-path="url(#pafd88d7eca)" style="fill: #0000f5; fill-opacity: 0.1"/>
    <path d="M 219.559357 121.223065 
L 204.834814 77.497733 
L 212.304723 65.274268 
L 227.026363 109.268247 
z
" clip-path="url(#pafd88d7eca)" style="fill: #0000f5; fill-opacity: 0.1"/>
    <path d="M 190.068767 101.660313 
L 175.101415 57.764481 
L 182.456737 45.460176 
L 197.423054 89.626046 
z
" clip-path="url(#pafd88d7eca)" style="fill: #0000f5; fill-opacity: 0.1"/>
    <path d="M 160.561922 82.086778 
L 145.351494 38.020264 
L 152.592101 25.635033 
L 167.803365 69.972977 
z
" clip-path="url(#pafd88d7eca)" style="fill: #0000f5; fill-opacity: 0.1"/>
    <path d="M 131.03881 62.502452 
L 115.585039 18.265073 
L 122.710801 5.798827 
L 138.167283 50.30903 
z
" clip-path="url(#pafd88d7eca)" style="fill: #0000f5; fill-opacity: 0.1"/>
    <path d="M 345.276068 187.728547 
L 331.530449 144.42029 
L 339.519787 132.425668 
L 353.254478 175.999847 
z
" clip-path="url(#pafd88d7eca)" style="fill: #0000f5; fill-opacity: 0.1"/>
    <path d="M 315.738144 168.12973 
L 301.748923 124.650317 
L 309.623307 112.574548 
L 323.603477 156.32128 
z
" clip-path="url(#pafd88d7eca)" style="fill: #0000f5; fill-opacity: 0.1"/>
    <path d="M 286.183895 148.52008 
L 271.950802 104.869329 
L 279.710103 92.712324 
L 293.936024 136.631795 
z
" clip-path="url(#pafd88d7eca)" style="fill: #0000f5; fill-opacity: 0.1"/>
    <path d="M 256.613305 128.899589 
L 242.136074 85.077315 
L 249.780162 72.838986 
L 264.252105 116.931381 
z
" clip-path="url(#pafd88d7eca)" style="fill: #0000f5; fill-opacity: 0.1"/>
    <path d="M 227.026363 109.268247 
L 212.304723 65.274268 
L 219.833469 52.954525 
L 234.551706 97.22003 
z
" clip-path="url(#pafd88d7eca)" style="fill: #0000f5; fill-opacity: 0.1"/>
    <path d="M 197.423054 89.626046 
L 182.456737 45.460176 
L 189.870009 33.058931 
L 204.834814 77.497733 
z
" clip-path="url(#pafd88d7eca)" style="fill: #0000f5; fill-opacity: 0.1"/>
    <path d="M 167.803365 69.972977 
L 152.592101 25.635033 
L 159.88977 13.152195 
L 175.101415 57.764481 
z
" clip-path="url(#pafd88d7eca)" style="fill: #0000f5; fill-opacity: 0.1"/>
    <path d="M 138.167283 50.30903 
L 122.710801 5.798827 
L 129.892736 -6.765692 
L 145.351494 38.020264 
z
" clip-path="url(#pafd88d7eca)" style="fill: #0000f5; fill-opacity: 0.1"/>
    <path d="M 353.254478 175.999847 
L 339.519787 132.425668 
L 347.57223 120.336304 
L 361.295395 164.179256 
z
" clip-path="url(#pafd88d7eca)" style="fill: #0000f5; fill-opacity: 0.1"/>
    <path d="M 323.603477 156.32128 
L 309.623307 112.574548 
L 317.559906 100.40337 
L 331.530449 144.42029 
z
" clip-path="url(#pafd88d7eca)" style="fill: #0000f5; fill-opacity: 0.1"/>
    <path d="M 293.936024 136.631795 
L 279.710103 92.712324 
L 287.530727 80.459241 
L 301.748923 124.650317 
z
" clip-path="url(#pafd88d7eca)" style="fill: #0000f5; fill-opacity: 0.1"/>
    <path d="M 264.252105 116.931381 
L 249.780162 72.838986 
L 257.484679 60.503908 
L 271.950802 104.869329 
z
" clip-path="url(#pafd88d7eca)" style="fill: #0000f5; fill-opacity: 0.1"/>
    <path d="M 234.551706 97.22003 
L 219.833469 52.954525 
L 227.421748 40.537363 
L 242.136074 85.077315 
z
" clip-path="url(#pafd88d7eca)" style="fill: #0000f5; fill-opacity: 0.1"/>
    <path d="M 204.834814 77.497733 
L 189.870009 33.058931 
L 197.341919 20.559594 
L 212.304723 65.274268 
z
" clip-path="url(#pafd88d7eca)" style="fill: #0000f5; fill-opacity: 0.1"/>
    <path d="M 175.101415 57.764481 
L 159.88977 13.152195 
L 167.245178 0.570594 
L 182.456737 45.460176 
z
" clip-path="url(#pafd88d7eca)" style="fill: #0000f5; fill-opacity: 0.1"/>
    <path d="M 145.351494 38.020264 
L 129.892736 -6.765692 
L 137.131511 -19.429649 
L 152.592101 25.635033 
z
" clip-path="url(#pafd88d7eca)" style="fill: #0000f5; fill-opacity: 0.1"/>
    <path d="M 115.585039 18.265073 
L 99.878895 -26.694739 
L 107.000904 -39.441142 
L 122.710801 5.798827 
z
" clip-path="url(#pafd88d7eca)" style="fill: #0000f5; fill-opacity: 0.1"/>
    <path d="M 361.295395 164.179256 
L 347.57223 120.336304 
L 355.68853 108.151071 
L 369.399557 152.265692 
z
" clip-path="url(#pafd88d7eca)" style="fill: #0000f5; fill-opacity: 0.1"/>
    <path d="M 331.530449 144.42029 
L 317.559906 100.40337 
L 325.559461 88.135646 
L 339.519787 132.425668 
z
" clip-path="url(#pafd88d7eca)" style="fill: #0000f5; fill-opacity: 0.1"/>
    <path d="M 301.748923 124.650317 
L 287.530727 80.459241 
L 295.413404 68.108936 
L 309.623307 112.574548 
z
" clip-path="url(#pafd88d7eca)" style="fill: #0000f5; fill-opacity: 0.1"/>
    <path d="M 271.950802 104.869329 
L 257.484679 60.503908 
L 265.250345 48.070931 
L 279.710103 92.712324 
z
" clip-path="url(#pafd88d7eca)" style="fill: #0000f5; fill-opacity: 0.1"/>
    <path d="M 242.136074 85.077315 
L 227.421748 40.537363 
L 235.07027 28.021621 
L 249.780162 72.838986 
z
" clip-path="url(#pafd88d7eca)" style="fill: #0000f5; fill-opacity: 0.1"/>
    <path d="M 212.304723 65.274268 
L 197.341919 20.559594 
L 204.873164 7.960998 
L 219.833469 52.954525 
z
" clip-path="url(#pafd88d7eca)" style="fill: #0000f5; fill-opacity: 0.1"/>
    <path d="M 182.456737 45.460176 
L 167.245178 0.570594 
L 174.659013 -12.110949 
L 189.870009 33.058931 
z
" clip-path="url(#pafd88d7eca)" style="fill: #0000f5; fill-opacity: 0.1"/>
    <path d="M 152.592101 25.635033 
L 137.131511 -19.429649 
L 144.427803 -32.194229 
L 159.88977 13.152195 
z
" clip-path="url(#pafd88d7eca)" style="fill: #0000f5; fill-opacity: 0.1"/>
    <path d="M 122.710801 5.798827 
L 107.000904 -39.441142 
L 114.179518 -52.288852 
L 129.892736 -6.765692 
z
" clip-path="url(#pafd88d7eca)" style="fill: #0000f5; fill-opacity: 0.1"/>
    <path d="M 369.399557 152.265692 
L 355.68853 108.151071 
L 363.869447 95.868825 
L 377.567714 140.258053 
z
" clip-path="url(#pafd88d7eca)" style="fill: #0000f5; fill-opacity: 0.1"/>
    <path d="M 339.519787 132.425668 
L 325.559461 88.135646 
L 333.622722 75.770225 
L 347.57223 120.336304 
z
" clip-path="url(#pafd88d7eca)" style="fill: #0000f5; fill-opacity: 0.1"/>
    <path d="M 309.623307 112.574548 
L 295.413404 68.108936 
L 303.358875 55.660247 
L 317.559906 100.40337 
z
" clip-path="url(#pafd88d7eca)" style="fill: #0000f5; fill-opacity: 0.1"/>
    <path d="M 279.710103 92.712324 
L 265.250345 48.070931 
L 273.077891 35.538883 
L 287.530727 80.459241 
z
" clip-path="url(#pafd88d7eca)" style="fill: #0000f5; fill-opacity: 0.1"/>
    <path d="M 249.780162 72.838986 
L 235.07027 28.021621 
L 242.779756 15.406122 
L 257.484679 60.503908 
z
" clip-path="url(#pafd88d7eca)" style="fill: #0000f5; fill-opacity: 0.1"/>
    <path d="M 219.833469 52.954525 
L 204.873164 7.960998 
L 212.464455 -4.738045 
L 227.421748 40.537363 
z
" clip-path="url(#pafd88d7eca)" style="fill: #0000f5; fill-opacity: 0.1"/>
    <path d="M 189.870009 33.058931 
L 174.659013 -12.110949 
L 182.131975 -24.893628 
L 197.341919 20.559594 
z
" clip-path="url(#pafd88d7eca)" style="fill: #0000f5; fill-opacity: 0.1"/>
    <path d="M 159.88977 13.152195 
L 144.427803 -32.194229 
L 151.782299 -45.060638 
L 167.245178 0.570594 
z
" clip-path="url(#pafd88d7eca)" style="fill: #0000f5; fill-opacity: 0.1"/>
    <path d="M 129.892736 -6.765692 
L 114.179518 -52.288852 
L 121.415415 -65.239082 
L 137.131511 -19.429649 
z
" clip-path="url(#pafd88d7eca)" style="fill: #0000f5; fill-opacity: 0.1"/>
    <path d="M 347.57223 120.336304 
L 333.622722 75.770225 
L 341.750454 63.305933 
L 355.68853 108.151071 
z
" clip-path="url(#pafd88d7eca)" style="fill: #0000f5; fill-opacity: 0.1"/>
    <path d="M 317.559906 100.40337 
L 303.358875 55.660247 
L 311.367892 43.111995 
L 325.559461 88.135646 
z
" clip-path="url(#pafd88d7eca)" style="fill: #0000f5; fill-opacity: 0.1"/>
    <path d="M 287.530727 80.459241 
L 273.077891 35.538883 
L 280.968058 22.906576 
L 295.413404 68.108936 
z
" clip-path="url(#pafd88d7eca)" style="fill: #0000f5; fill-opacity: 0.1"/>
    <path d="M 257.484679 60.503908 
L 242.779756 15.406122 
L 250.550936 2.689668 
L 265.250345 48.070931 
z
" clip-path="url(#pafd88d7eca)" style="fill: #0000f5; fill-opacity: 0.1"/>
    <path d="M 227.421748 40.537363 
L 212.464455 -4.738045 
L 220.116513 -17.538741 
L 235.07027 28.021621 
z
" clip-path="url(#pafd88d7eca)" style="fill: #0000f5; fill-opacity: 0.1"/>
    <path d="M 197.341919 20.559594 
L 182.131975 -24.893628 
L 189.664773 -37.778659 
L 204.873164 7.960998 
z
" clip-path="url(#pafd88d7eca)" style="fill: #0000f5; fill-opacity: 0.1"/>
    <path d="M 167.245178 0.570594 
L 151.782299 -45.060638 
L 159.195701 -58.030097 
L 174.659013 -12.110949 
z
" clip-path="url(#pafd88d7eca)" style="fill: #0000f5; fill-opacity: 0.1"/>
    <path d="M 137.131511 -19.429649 
L 121.415415 -65.239082 
L 128.709283 -78.293064 
L 144.427803 -32.194229 
z
" clip-path="url(#pafd88d7eca)" style="fill: #0000f5; fill-opacity: 0.1"/>
    <path d="M 355.68853 108.151071 
L 341.750454 63.305933 
L 349.943434 50.741582 
L 363.869447 95.868825 
z
" clip-path="url(#pafd88d7eca)" style="fill: #0000f5; fill-opacity: 0.1"/>
    <path d="M 325.559461 88.135646 
L 311.367892 43.111995 
L 319.441223 30.46298 
L 333.622722 75.770225 
z
" clip-path="url(#pafd88d7eca)" style="fill: #0000f5; fill-opacity: 0.1"/>
    <path d="M 295.413404 68.108936 
L 280.968058 22.906576 
L 288.921602 10.172803 
L 303.358875 55.660247 
z
" clip-path="url(#pafd88d7eca)" style="fill: #0000f5; fill-opacity: 0.1"/>
    <path d="M 265.250345 48.070931 
L 250.550936 2.689668 
L 258.384556 -10.128959 
L 273.077891 35.538883 
z
" clip-path="url(#pafd88d7eca)" style="fill: #0000f5; fill-opacity: 0.1"/>
    <path d="M 235.07027 28.021621 
L 220.116513 -17.538741 
L 227.830069 -30.442315 
L 242.779756 15.406122 
z
" clip-path="url(#pafd88d7eca)" style="fill: #0000f5; fill-opacity: 0.1"/>
    <path d="M 204.873164 7.960998 
L 189.664773 -37.778659 
L 197.258128 -50.767276 
L 212.464455 -4.738045 
z
" clip-path="url(#pafd88d7eca)" style="fill: #0000f5; fill-opacity: 0.1"/>
    <path d="M 174.659013 -12.110949 
L 159.195701 -58.030097 
L 166.668717 -71.103851 
L 182.131975 -24.893628 
z
" clip-path="url(#pafd88d7eca)" style="fill: #0000f5; fill-opacity: 0.1"/>
    <path d="M 144.427803 -32.194229 
L 128.709283 -78.293064 
L 136.061821 -91.45205 
L 151.782299 -45.060638 
z
" clip-path="url(#pafd88d7eca)" style="fill: #0000f5; fill-opacity: 0.1"/>
    <path d="M 333.622722 75.770225 
L 319.441223 30.46298 
L 327.579644 17.711983 
L 341.750454 63.305933 
z
" clip-path="url(#pafd88d7eca)" style="fill: #0000f5; fill-opacity: 0.1"/>
    <path d="M 303.358875 55.660247 
L 288.921602 10.172803 
L 296.939289 -2.663666 
L 311.367892 43.111995 
z
" clip-path="url(#pafd88d7eca)" style="fill: #0000f5; fill-opacity: 0.1"/>
    <path d="M 273.077891 35.538883 
L 258.384556 -10.128959 
L 266.281369 -23.050994 
L 280.968058 22.906576 
z
" clip-path="url(#pafd88d7eca)" style="fill: #0000f5; fill-opacity: 0.1"/>
    <path d="M 242.779756 15.406122 
L 227.830069 -30.442315 
L 235.605869 -43.450013 
L 250.550936 2.689668 
z
" clip-path="url(#pafd88d7eca)" style="fill: #0000f5; fill-opacity: 0.1"/>
    <path d="M 212.464455 -4.738045 
L 197.258128 -50.767276 
L 204.912775 -63.860732 
L 220.116513 -17.538741 
z
" clip-path="url(#pafd88d7eca)" style="fill: #0000f5; fill-opacity: 0.1"/>
    <path d="M 182.131975 -24.893628 
L 166.668717 -71.103851 
L 174.20207 -84.283162 
L 189.664773 -37.778659 
z
" clip-path="url(#pafd88d7eca)" style="fill: #0000f5; fill-opacity: 0.1"/>
    <path d="M 151.782299 -45.060638 
L 136.061821 -91.45205 
L 143.473741 -104.717312 
L 159.195701 -58.030097 
z
" clip-path="url(#pafd88d7eca)" style="fill: #0000f5; fill-opacity: 0.1"/>
    <path d="M 341.750454 63.305933 
L 327.579644 17.711983 
L 335.783947 4.857766 
L 349.943434 50.741582 
z
" clip-path="url(#pafd88d7eca)" style="fill: #0000f5; fill-opacity: 0.1"/>
    <path d="M 311.367892 43.111995 
L 296.939289 -2.663666 
L 305.021898 -15.604075 
L 319.441223 30.46298 
z
" clip-path="url(#pafd88d7eca)" style="fill: #0000f5; fill-opacity: 0.1"/>
    <path d="M 280.968058 22.906576 
L 266.281369 -23.050994 
L 274.242144 -36.077694 
L 288.921602 10.172803 
z
" clip-path="url(#pafd88d7eca)" style="fill: #0000f5; fill-opacity: 0.1"/>
    <path d="M 250.550936 2.689668 
L 235.605869 -43.450013 
L 243.444669 -56.563099 
L 258.384556 -10.128959 
z
" clip-path="url(#pafd88d7eca)" style="fill: #0000f5; fill-opacity: 0.1"/>
    <path d="M 220.116513 -17.538741 
L 204.912775 -63.860732 
L 212.629458 -77.060302 
L 227.830069 -30.442315 
z
" clip-path="url(#pafd88d7eca)" style="fill: #0000f5; fill-opacity: 0.1"/>
    <path d="M 189.664773 -37.778659 
L 174.20207 -84.283162 
L 181.796495 -97.569313 
L 197.258128 -50.767276 
z
" clip-path="url(#pafd88d7eca)" style="fill: #0000f5; fill-opacity: 0.1"/>
    <path d="M 159.195701 -58.030097 
L 143.473741 -104.717312 
L 150.945764 -118.090142 
L 166.668717 -71.103851 
z
" clip-path="url(#pafd88d7eca)" style="fill: #0000f5; fill-opacity: 0.1"/>
    <path d="M 319.441223 30.46298 
L 305.021898 -15.604075 
L 313.170222 -28.649695 
L 327.579644 17.711983 
z
" clip-path="url(#pafd88d7eca)" style="fill: #0000f5; fill-opacity: 0.1"/>
    <path d="M 288.921602 10.172803 
L 274.242144 -36.077694 
L 282.267662 -49.210335 
L 296.939289 -2.663666 
z
" clip-path="url(#pafd88d7eca)" style="fill: #0000f5; fill-opacity: 0.1"/>
    <path d="M 258.384556 -10.128959 
L 243.444669 -56.563099 
L 251.347237 -69.782861 
L 266.281369 -23.050994 
z
" clip-path="url(#pafd88d7eca)" style="fill: #0000f5; fill-opacity: 0.1"/>
    <path d="M 227.830069 -30.442315 
L 212.629458 -77.060302 
L 220.408934 -90.367283 
L 235.605869 -43.450013 
z
" clip-path="url(#pafd88d7eca)" style="fill: #0000f5; fill-opacity: 0.1"/>
    <path d="M 197.258128 -50.767276 
L 181.796495 -97.569313 
L 189.452735 -110.963611 
L 204.912775 -63.860732 
z
" clip-path="url(#pafd88d7eca)" style="fill: #0000f5; fill-opacity: 0.1"/>
    <path d="M 166.668717 -71.103851 
L 150.945764 -118.090142 
L 158.478626 -131.571855 
L 174.20207 -84.283162 
z
" clip-path="url(#pafd88d7eca)" style="fill: #0000f5; fill-opacity: 0.1"/>
    <path d="M 327.579644 17.711983 
L 313.170222 -28.649695 
L 321.385064 -41.801812 
L 335.783947 4.857766 
z
" clip-path="url(#pafd88d7eca)" style="fill: #0000f5; fill-opacity: 0.1"/>
    <path d="M 296.939289 -2.663666 
L 282.267662 -49.210335 
L 290.358714 -62.450215 
L 305.021898 -15.604075 
z
" clip-path="url(#pafd88d7eca)" style="fill: #0000f5; fill-opacity: 0.1"/>
    <path d="M 266.281369 -23.050994 
L 251.347237 -69.782861 
L 259.314356 -83.110604 
L 274.242144 -36.077694 
z
" clip-path="url(#pafd88d7eca)" style="fill: #0000f5; fill-opacity: 0.1"/>
    <path d="M 235.605869 -43.450013 
L 220.408934 -90.367283 
L 228.251973 -103.782988 
L 243.444669 -56.563099 
z
" clip-path="url(#pafd88d7eca)" style="fill: #0000f5; fill-opacity: 0.1"/>
    <path d="M 204.912775 -63.860732 
L 189.452735 -110.963611 
L 197.17155 -124.467379 
L 212.629458 -77.060302 
z
" clip-path="url(#pafd88d7eca)" style="fill: #0000f5; fill-opacity: 0.1"/>
    <path d="M 174.20207 -84.283162 
L 158.478626 -131.571855 
L 166.07307 -145.163786 
L 181.796495 -97.569313 
z
" clip-path="url(#pafd88d7eca)" style="fill: #0000f5; fill-opacity: 0.1"/>
    <path d="M 305.021898 -15.604075 
L 290.358714 -62.450215 
L 298.516108 -75.798654 
L 313.170222 -28.649695 
z
" clip-path="url(#pafd88d7eca)" style="fill: #0000f5; fill-opacity: 0.1"/>
    <path d="M 274.242144 -36.077694 
L 259.314356 -83.110604 
L 267.346818 -96.547658 
L 282.267662 -49.210335 
z
" clip-path="url(#pafd88d7eca)" style="fill: #0000f5; fill-opacity: 0.1"/>
    <path d="M 243.444669 -56.563099 
L 228.251973 -103.782988 
L 236.159357 -117.308758 
L 251.347237 -69.782861 
z
" clip-path="url(#pafd88d7eca)" style="fill: #0000f5; fill-opacity: 0.1"/>
    <path d="M 212.629458 -77.060302 
L 197.17155 -124.467379 
L 204.953709 -138.081966 
L 220.408934 -90.367283 
z
" clip-path="url(#pafd88d7eca)" style="fill: #0000f5; fill-opacity: 0.1"/>
    <path d="M 181.796495 -97.569313 
L 166.07307 -145.163786 
L 173.729857 -158.867291 
L 189.452735 -110.963611 
z
" clip-path="url(#pafd88d7eca)" style="fill: #0000f5; fill-opacity: 0.1"/>
    <path d="M 313.170222 -28.649695 
L 298.516108 -75.798654 
L 306.740662 -89.256991 
L 321.385064 -41.801812 
z
" clip-path="url(#pafd88d7eca)" style="fill: #0000f5; fill-opacity: 0.1"/>
    <path d="M 282.267662 -49.210335 
L 267.346818 -96.547658 
L 275.445432 -110.095372 
L 290.358714 -62.450215 
z
" clip-path="url(#pafd88d7eca)" style="fill: #0000f5; fill-opacity: 0.1"/>
    <path d="M 251.347237 -69.782861 
L 236.159357 -117.308758 
L 244.131882 -130.945952 
L 259.314356 -83.110604 
z
" clip-path="url(#pafd88d7eca)" style="fill: #0000f5; fill-opacity: 0.1"/>
    <path d="M 220.408934 -90.367283 
L 204.953709 -138.081966 
L 212.799995 -151.808741 
L 228.251973 -103.782988 
z
" clip-path="url(#pafd88d7eca)" style="fill: #0000f5; fill-opacity: 0.1"/>
    <path d="M 189.452735 -110.963611 
L 173.729857 -158.867291 
L 181.449757 -172.68375 
L 197.17155 -124.467379 
z
" clip-path="url(#pafd88d7eca)" style="fill: #0000f5; fill-opacity: 0.1"/>
    <path d="M 290.358714 -62.450215 
L 275.445432 -110.095372 
L 283.611017 -123.75512 
L 298.516108 -75.798654 
z
" clip-path="url(#pafd88d7eca)" style="fill: #0000f5; fill-opacity: 0.1"/>
    <path d="M 259.314356 -83.110604 
L 244.131882 -130.945952 
L 252.170354 -144.695953 
L 267.346818 -96.547658 
z
" clip-path="url(#pafd88d7eca)" style="fill: #0000f5; fill-opacity: 0.1"/>
    <path d="M 228.251973 -103.782988 
L 212.799995 -151.808741 
L 220.711205 -165.649098 
L 236.159357 -117.308758 
z
" clip-path="url(#pafd88d7eca)" style="fill: #0000f5; fill-opacity: 0.1"/>
    <path d="M 197.17155 -124.467379 
L 181.449757 -172.68375 
L 189.233553 -186.614566 
L 204.953709 -138.081966 
z
" clip-path="url(#pafd88d7eca)" style="fill: #0000f5; fill-opacity: 0.1"/>
    <path d="M 298.516108 -75.798654 
L 283.611017 -123.75512 
L 291.844409 -137.528297 
L 306.740662 -89.256991 
z
" clip-path="url(#pafd88d7eca)" style="fill: #0000f5; fill-opacity: 0.1"/>
    <path d="M 267.346818 -96.547658 
L 252.170354 -144.695953 
L 260.275598 -158.560165 
L 275.445432 -110.095372 
z
" clip-path="url(#pafd88d7eca)" style="fill: #0000f5; fill-opacity: 0.1"/>
    <path d="M 236.159357 -117.308758 
L 220.711205 -165.649098 
L 228.688147 -179.60445 
L 244.131882 -130.945952 
z
" clip-path="url(#pafd88d7eca)" style="fill: #0000f5; fill-opacity: 0.1"/>
    <path d="M 204.953709 -138.081966 
L 189.233553 -186.614566 
L 197.082042 -200.661165 
L 212.799995 -151.808741 
z
" clip-path="url(#pafd88d7eca)" style="fill: #0000f5; fill-opacity: 0.1"/>
    <path d="M 275.445432 -110.095372 
L 260.275598 -158.560165 
L 268.448446 -172.540018 
L 283.611017 -123.75512 
z
" clip-path="url(#pafd88d7eca)" style="fill: #0000f5; fill-opacity: 0.1"/>
    <path d="M 244.131882 -130.945952 
L 228.688147 -179.60445 
L 236.731645 -193.676239 
L 252.170354 -144.695953 
z
" clip-path="url(#pafd88d7eca)" style="fill: #0000f5; fill-opacity: 0.1"/>
    <path d="M 212.799995 -151.808741 
L 197.082042 -200.661165 
L 204.996033 -214.824995 
L 220.711205 -165.649098 
z
" clip-path="url(#pafd88d7eca)" style="fill: #0000f5; fill-opacity: 0.1"/>
    <path d="M 283.611017 -123.75512 
L 268.448446 -172.540018 
L 276.68975 -186.636965 
L 291.844409 -137.528297 
z
" clip-path="url(#pafd88d7eca)" style="fill: #0000f5; fill-opacity: 0.1"/>
    <path d="M 252.170354 -144.695953 
L 236.731645 -193.676239 
L 244.842534 -207.865926 
L 260.275598 -158.560165 
z
" clip-path="url(#pafd88d7eca)" style="fill: #0000f5; fill-opacity: 0.1"/>
    <path d="M 220.711205 -165.649098 
L 204.996033 -214.824995 
L 212.976351 -229.10753 
L 228.688147 -179.60445 
z
" clip-path="url(#pafd88d7eca)" style="fill: #0000f5; fill-opacity: 0.1"/>
    <path d="M 260.275598 -158.560165 
L 244.842534 -207.865926 
L 253.021665 -222.175001 
L 268.448446 -172.540018 
z
" clip-path="url(#pafd88d7eca)" style="fill: #0000f5; fill-opacity: 0.1"/>
    <path d="M 228.688147 -179.60445 
L 212.976351 -229.10753 
L 221.023833 -243.51027 
L 236.731645 -193.676239 
z
" clip-path="url(#pafd88d7eca)" style="fill: #0000f5; fill-opacity: 0.1"/>
    <path d="M 268.448446 -172.540018 
L 253.021665 -222.175001 
L 261.269903 -236.604975 
L 276.68975 -186.636965 
z
" clip-path="url(#pafd88d7eca)" style="fill: #0000f5; fill-opacity: 0.1"/>
    <path d="M 236.731645 -193.676239 
L 221.023833 -243.51027 
L 229.13933 -258.034737 
L 244.842534 -207.865926 
z
" clip-path="url(#pafd88d7eca)" style="fill: #0000f5; fill-opacity: 0.1"/>
    <path d="M 244.842534 -207.865926 
L 229.13933 -258.034737 
L 237.323707 -272.682483 
L 253.021665 -222.175001 
z
" clip-path="url(#pafd88d7eca)" style="fill: #0000f5; fill-opacity: 0.1"/>
    <path d="M 253.021665 -222.175001 
L 237.323707 -272.682483 
L 245.577847 -287.455082 
L 261.269903 -236.604975 
z
" clip-path="url(#pafd88d7eca)" style="fill: #0000f5; fill-opacity: 0.1"/>
   </g>
   <g id="legend_1">
    <g id="patch_6">
     <path d="M 357.840076 67.305115 
L 396.2 67.305115 
Q 398.2 67.305115 398.2 65.305115 
L 398.2 7 
Q 398.2 5 396.2 5 
L 357.840076 5 
Q 355.840076 5 355.840076 7 
L 355.840076 65.305115 
Q 355.840076 67.305115 357.840076 67.305115 
z
" style="fill: #ffffff; opacity: 0.8; stroke: #cccccc; stroke-linejoin: miter"/>
    </g>
    <g id="line2d_25">
     <path d="M 359.840076 12.5 
L 369.840076 12.5 
L 379.840076 12.5 
" style="fill: none; stroke: #ff0000; stroke-width: 1.5; stroke-linecap: square"/>
    </g>
    <g id="text_21">
     <!-- $\vec{a}$ -->
     <g transform="translate(387.840076 16)scale(0.1 -0.1)">
      <defs>
       <path id="CMMI12-7e" d="M 3424 3835 
C 3347 3764 3110 3540 3110 3451 
C 3110 3387 3168 3329 3232 3329 
C 3290 3329 3315 3368 3360 3432 
C 3514 3624 3686 3745 3834 3828 
C 3898 3867 3942 3886 3942 3956 
C 3942 4014 3891 4046 3853 4078 
C 3674 4200 3629 4372 3610 4449 
C 3590 4500 3571 4577 3482 4577 
C 3443 4577 3366 4552 3366 4456 
C 3366 4398 3405 4244 3526 4072 
L 1376 4072 
C 1267 4072 1158 4072 1158 3950 
C 1158 3835 1274 3835 1376 3835 
L 3424 3835 
z
" transform="scale(0.015625)"/>
       <path id="CMMI12-61" d="M 1926 760 
C 1894 651 1894 639 1805 517 
C 1664 338 1382 64 1082 64 
C 819 64 672 300 672 677 
C 672 1028 870 1743 992 2012 
C 1210 2459 1510 2689 1760 2689 
C 2182 2689 2266 2165 2266 2114 
C 2266 2108 2246 2024 2240 2012 
L 1926 760 
z
M 2336 2395 
C 2266 2561 2093 2816 1760 2816 
C 1037 2816 256 1884 256 939 
C 256 307 627 -64 1062 -64 
C 1414 -64 1715 211 1894 422 
C 1958 45 2259 -64 2451 -64 
C 2643 -64 2797 51 2912 281 
C 3014 498 3104 888 3104 913 
C 3104 945 3078 971 3040 971 
C 2982 971 2976 939 2950 843 
C 2854 466 2733 64 2470 64 
C 2285 64 2272 230 2272 358 
C 2272 505 2291 575 2349 824 
C 2394 984 2426 1124 2477 1309 
C 2714 2267 2771 2497 2771 2535 
C 2771 2625 2701 2695 2605 2695 
C 2400 2695 2349 2472 2336 2395 
z
" transform="scale(0.015625)"/>
      </defs>
      <use xlink:href="#CMMI12-7e" transform="scale(0.996264)"/>
      <use xlink:href="#CMMI12-61" transform="translate(6.445738 0)scale(0.996264)"/>
     </g>
    </g>
    <g id="line2d_26">
     <path d="M 359.840076 27.24679 
L 369.840076 27.24679 
L 379.840076 27.24679 
" style="fill: none; stroke: #00ff00; stroke-width: 1.5; stroke-linecap: square"/>
    </g>
    <g id="text_22">
     <!-- $\vec{b}$ -->
     <g transform="translate(387.840076 30.74679)scale(0.1 -0.1)">
      <defs>
       <path id="CMMI12-62" d="M 1478 4257 
C 1485 4283 1498 4321 1498 4352 
C 1498 4416 1434 4416 1421 4416 
C 1414 4416 1184 4393 1069 4377 
C 960 4377 864 4358 749 4358 
C 595 4345 550 4339 550 4224 
C 550 4160 614 4160 678 4160 
C 1005 4160 1005 4103 1005 4040 
C 1005 3996 954 3811 928 3696 
L 774 3085 
C 710 2831 346 1387 320 1272 
C 288 1114 288 1005 288 922 
C 288 274 653 -64 1069 -64 
C 1811 -64 2579 888 2579 1814 
C 2579 2401 2246 2816 1766 2816 
C 1434 2816 1133 2542 1011 2414 
L 1478 4257 
z
M 1075 64 
C 870 64 646 217 646 715 
C 646 926 666 1047 781 1494 
C 800 1577 902 1986 928 2069 
C 941 2120 1318 2689 1754 2689 
C 2035 2689 2163 2408 2163 2076 
C 2163 1769 1984 1047 1824 715 
C 1664 370 1370 64 1075 64 
z
" transform="scale(0.015625)"/>
      </defs>
      <use xlink:href="#CMMI12-7e" transform="translate(0 26.29016)scale(0.996264)"/>
      <use xlink:href="#CMMI12-62" transform="translate(11.311737 0)scale(0.996264)"/>
     </g>
    </g>
    <g id="line2d_27">
     <path d="M 359.840076 41.183968 
L 369.840076 41.183968 
L 379.840076 41.183968 
" style="fill: none; stroke: #0016ff; stroke-width: 1.5; stroke-linecap: square"/>
    </g>
    <g id="text_23">
     <!-- $\vec{c}$ -->
     <g transform="translate(387.840076 44.683968)scale(0.1 -0.1)">
      <defs>
       <path id="CMMI12-63" d="M 2502 2431 
C 2381 2431 2323 2431 2234 2355 
C 2195 2323 2125 2227 2125 2125 
C 2125 1997 2221 1920 2342 1920 
C 2496 1920 2669 2044 2669 2292 
C 2669 2588 2374 2816 1933 2816 
C 1094 2816 256 1903 256 996 
C 256 441 602 -64 1254 -64 
C 2125 -64 2675 622 2675 706 
C 2675 744 2637 776 2611 776 
C 2592 776 2586 770 2528 713 
C 2118 162 1510 64 1267 64 
C 826 64 685 446 685 764 
C 685 988 794 1605 1024 2039 
C 1190 2338 1536 2682 1939 2682 
C 2022 2682 2374 2682 2502 2431 
z
" transform="scale(0.015625)"/>
      </defs>
      <use xlink:href="#CMMI12-7e" transform="scale(0.996264)"/>
      <use xlink:href="#CMMI12-63" transform="translate(5.638615 0)scale(0.996264)"/>
     </g>
    </g>
    <g id="line2d_28">
     <path d="M 359.840076 57.867937 
L 369.840076 57.867937 
L 379.840076 57.867937 
" style="fill: none; stroke: #f400ff; stroke-width: 1.5; stroke-linecap: square"/>
    </g>
    <g id="text_24">
     <!-- $\vec{f}$ -->
     <g transform="translate(387.840076 61.367937)scale(0.1 -0.1)">
      <defs>
       <path id="CMMI12-66" d="M 2854 2566 
C 2982 2566 3034 2566 3034 2688 
C 3034 2752 2982 2752 2867 2752 
L 2349 2752 
C 2470 3429 2560 3897 2611 4107 
C 2650 4265 2784 4416 2950 4416 
C 3085 4416 3219 4358 3283 4298 
C 3034 4272 2957 4082 2957 3969 
C 2957 3837 3053 3759 3174 3759 
C 3302 3759 3494 3870 3494 4119 
C 3494 4393 3226 4544 2944 4544 
C 2669 4544 2400 4334 2272 4078 
C 2157 3848 2093 3611 1946 2752 
L 1517 2752 
C 1395 2752 1331 2752 1331 2637 
C 1331 2566 1370 2566 1498 2566 
L 1907 2566 
C 1792 1976 1530 542 1382 -137 
C 1274 -689 1178 -1152 858 -1152 
C 838 -1152 653 -1152 538 -1031 
C 864 -1005 864 -726 864 -720 
C 864 -593 768 -517 646 -517 
C 518 -517 326 -625 326 -867 
C 326 -1140 608 -1280 858 -1280 
C 1510 -1280 1779 -118 1850 199 
C 1965 688 2278 2376 2310 2566 
L 2854 2566 
z
" transform="scale(0.015625)"/>
      </defs>
      <use xlink:href="#CMMI12-7e" transform="translate(13.568792 26.29016)scale(0.996264)"/>
      <use xlink:href="#CMMI12-66" transform="scale(0.996264)"/>
     </g>
    </g>
   </g>
  </g>
 </g>
 <defs>
  <clipPath id="pafd88d7eca">
   <rect x="57.6" y="0" width="345.6" height="345.6"/>
  </clipPath>
 </defs>
</svg>
