<?xml version="1.0" encoding="utf-8" standalone="no"?>
<!DOCTYPE svg PUBLIC "-//W3C//DTD SVG 1.1//EN"
  "http://www.w3.org/Graphics/SVG/1.1/DTD/svg11.dtd">
<svg xmlns:xlink="http://www.w3.org/1999/xlink" width="460.8pt" height="345.6pt" viewBox="0 0 460.8 345.6" xmlns="http://www.w3.org/2000/svg" version="1.1">
 <metadata>
  <rdf:RDF xmlns:dc="http://purl.org/dc/elements/1.1/" xmlns:cc="http://creativecommons.org/ns#" xmlns:rdf="http://www.w3.org/1999/02/22-rdf-syntax-ns#">
   <cc:Work>
    <dc:type rdf:resource="http://purl.org/dc/dcmitype/StillImage"/>
    <dc:date>2022-07-12T15:50:52.955599</dc:date>
    <dc:format>image/svg+xml</dc:format>
    <dc:creator>
     <cc:Agent>
      <dc:title>Matplotlib v3.5.1, https://matplotlib.org/</dc:title>
     </cc:Agent>
    </dc:creator>
   </cc:Work>
  </rdf:RDF>
 </metadata>
 <defs>
  <style type="text/css">*{stroke-linejoin: round; stroke-linecap: butt}</style>
 </defs>
 <g id="figure_1">
  <g id="patch_1">
   <path d="M 0 345.6 
L 460.8 345.6 
L 460.8 0 
L 0 0 
z
" style="fill: #ffffff"/>
  </g>
  <g id="patch_2">
   <path d="M 57.6 345.6 
L 403.2 345.6 
L 403.2 0 
L 57.6 0 
z
" style="fill: #ffffff"/>
  </g>
  <g id="pane3d_1">
   <g id="patch_3">
    <path d="M 237.601707 245.053043 
L 392.533835 251.650116 
L 392.533835 84.609344 
L 237.601707 91.206417 
" style="fill: #f2f2f2; opacity: 0.5; stroke: #f2f2f2; stroke-linejoin: miter"/>
   </g>
  </g>
  <g id="pane3d_2">
   <g id="patch_4">
    <path d="M 237.601707 245.053043 
L 78.068697 251.405071 
L 78.068697 84.854389 
L 237.601707 91.206417 
" style="fill: #e6e6e6; opacity: 0.5; stroke: #e6e6e6; stroke-linejoin: miter"/>
   </g>
  </g>
  <g id="pane3d_3">
   <g id="patch_5">
    <path d="M 237.601707 245.053043 
L 78.068697 251.405071 
L 232.073548 259.191794 
L 392.533835 251.650116 
" style="fill: #ececec; opacity: 0.5; stroke: #ececec; stroke-linejoin: miter"/>
   </g>
  </g>
  <g id="axis3d_1">
   <g id="line2d_1">
    <path d="M 392.533835 251.650116 
L 232.073548 259.191794 
" style="fill: none; stroke: #000000; stroke-width: 0.8; stroke-linecap: square"/>
   </g>
   <g id="text_1">
    <!-- x -->
    <g transform="translate(335.91348 284.84622)scale(0.16 -0.16)">
     <defs>
      <path id="CMSS17-78" d="M 1587 1414 
L 2656 2739 
L 2099 2739 
L 1363 1777 
L 602 2739 
L 32 2739 
L 1139 1414 
L 0 0 
L 563 0 
L 1363 1121 
L 2195 0 
L 2758 0 
L 1587 1414 
z
" transform="scale(0.015625)"/>
     </defs>
     <use xlink:href="#CMSS17-78" transform="scale(0.996264)"/>
    </g>
   </g>
   <g id="Line3DCollection_1">
    <path d="M 389.585529 251.788687 
L 234.649919 245.170572 
L 234.649919 91.088887 
" style="fill: none; stroke: #b0b0b0; stroke-width: 0.8"/>
    <path d="M 360.775966 253.142745 
L 205.846987 246.317401 
L 205.846987 89.942058 
" style="fill: none; stroke: #b0b0b0; stroke-width: 0.8"/>
    <path d="M 331.018468 254.541355 
L 176.173578 247.498889 
L 176.173578 88.760571 
" style="fill: none; stroke: #b0b0b0; stroke-width: 0.8"/>
    <path d="M 300.265469 255.986755 
L 145.589625 248.716631 
L 145.589625 87.542828 
" style="fill: none; stroke: #b0b0b0; stroke-width: 0.8"/>
    <path d="M 268.466163 257.481331 
L 114.052563 249.972323 
L 114.052563 86.287136 
" style="fill: none; stroke: #b0b0b0; stroke-width: 0.8"/>
    <path d="M 235.566229 259.027637 
L 81.517134 251.267766 
L 81.517134 84.991693 
" style="fill: none; stroke: #b0b0b0; stroke-width: 0.8"/>
   </g>
   <g id="xtick_1">
    <g id="line2d_2">
     <path d="M 388.240492 251.731233 
L 392.281157 251.903831 
" style="fill: none; stroke: #000000; stroke-width: 0.8; stroke-linecap: square"/>
    </g>
    <g id="text_2">
     <!-- $\mathdefault{0}$ -->
     <g transform="translate(397.903179 269.917614)scale(0.1 -0.1)">
      <defs>
       <path id="CMR17-30" d="M 2688 2025 
C 2688 2416 2682 3080 2413 3591 
C 2176 4039 1798 4198 1466 4198 
C 1158 4198 768 4058 525 3597 
C 269 3118 243 2524 243 2025 
C 243 1661 250 1106 448 619 
C 723 -39 1216 -128 1466 -128 
C 1760 -128 2208 -7 2470 600 
C 2662 1042 2688 1559 2688 2025 
z
M 1466 -26 
C 1056 -26 813 325 723 812 
C 653 1188 653 1738 653 2096 
C 653 2588 653 2997 736 3387 
C 858 3929 1216 4096 1466 4096 
C 1728 4096 2067 3923 2189 3400 
C 2272 3036 2278 2607 2278 2096 
C 2278 1680 2278 1169 2202 792 
C 2067 95 1690 -26 1466 -26 
z
" transform="scale(0.015625)"/>
      </defs>
      <use xlink:href="#CMR17-30" transform="scale(0.996264)"/>
     </g>
    </g>
   </g>
   <g id="xtick_2">
    <g id="line2d_3">
     <path d="M 359.429279 253.083417 
L 363.47499 253.261649 
" style="fill: none; stroke: #000000; stroke-width: 0.8; stroke-linecap: square"/>
    </g>
    <g id="text_3">
     <!-- $\mathdefault{1}$ -->
     <g transform="translate(369.107958 271.461729)scale(0.1 -0.1)">
      <defs>
       <path id="CMR17-31" d="M 1702 4058 
C 1702 4192 1696 4192 1606 4192 
C 1357 3916 979 3827 621 3827 
C 602 3827 570 3827 563 3808 
C 557 3795 557 3782 557 3648 
C 755 3648 1088 3686 1344 3839 
L 1344 461 
C 1344 236 1331 160 781 160 
L 589 160 
L 589 0 
C 896 0 1216 0 1523 0 
C 1830 0 2150 0 2458 0 
L 2458 160 
L 2266 160 
C 1715 160 1702 230 1702 458 
L 1702 4058 
z
" transform="scale(0.015625)"/>
      </defs>
      <use xlink:href="#CMR17-31" transform="scale(0.996264)"/>
     </g>
    </g>
   </g>
   <g id="xtick_3">
    <g id="line2d_4">
     <path d="M 329.67075 254.48006 
L 333.719653 254.664207 
" style="fill: none; stroke: #000000; stroke-width: 0.8; stroke-linecap: square"/>
    </g>
    <g id="text_4">
     <!-- $\mathdefault{2}$ -->
     <g transform="translate(339.359874 273.05694)scale(0.1 -0.1)">
      <defs>
       <path id="CMR17-32" d="M 2669 989 
L 2554 989 
C 2490 536 2438 459 2413 420 
C 2381 369 1920 369 1830 369 
L 602 369 
C 832 619 1280 1072 1824 1597 
C 2214 1967 2669 2402 2669 3035 
C 2669 3790 2067 4224 1395 4224 
C 691 4224 262 3604 262 3030 
C 262 2780 448 2748 525 2748 
C 589 2748 781 2787 781 3010 
C 781 3207 614 3264 525 3264 
C 486 3264 448 3258 422 3245 
C 544 3790 915 4058 1306 4058 
C 1862 4058 2227 3617 2227 3035 
C 2227 2479 1901 2000 1536 1584 
L 262 146 
L 262 0 
L 2515 0 
L 2669 989 
z
" transform="scale(0.015625)"/>
      </defs>
      <use xlink:href="#CMR17-32" transform="scale(0.996264)"/>
     </g>
    </g>
   </g>
   <g id="xtick_4">
    <g id="line2d_5">
     <path d="M 298.917403 255.923392 
L 302.967447 256.113754 
" style="fill: none; stroke: #000000; stroke-width: 0.8; stroke-linecap: square"/>
    </g>
    <g id="text_5">
     <!-- $\mathdefault{3}$ -->
     <g transform="translate(308.610833 274.705827)scale(0.1 -0.1)">
      <defs>
       <path id="CMR17-33" d="M 1414 2157 
C 1984 2157 2234 1662 2234 1090 
C 2234 320 1824 25 1453 25 
C 1114 25 563 194 390 693 
C 422 680 454 680 486 680 
C 640 680 755 782 755 948 
C 755 1133 614 1216 486 1216 
C 378 1216 211 1165 211 926 
C 211 335 787 -128 1466 -128 
C 2176 -128 2720 430 2720 1085 
C 2720 1707 2208 2157 1600 2227 
C 2086 2328 2554 2756 2554 3329 
C 2554 3820 2048 4179 1472 4179 
C 890 4179 378 3829 378 3329 
C 378 3110 544 3072 627 3072 
C 762 3072 877 3155 877 3321 
C 877 3486 762 3569 627 3569 
C 602 3569 570 3569 544 3557 
C 730 3959 1235 4032 1459 4032 
C 1683 4032 2106 3925 2106 3320 
C 2106 3143 2080 2828 1862 2550 
C 1670 2304 1453 2304 1242 2284 
C 1210 2284 1062 2269 1037 2269 
C 992 2263 966 2257 966 2208 
C 966 2163 973 2157 1101 2157 
L 1414 2157 
z
" transform="scale(0.015625)"/>
      </defs>
      <use xlink:href="#CMR17-33" transform="scale(0.996264)"/>
     </g>
    </g>
   </g>
   <g id="xtick_5">
    <g id="line2d_6">
     <path d="M 267.118505 257.415795 
L 271.167424 257.612691 
" style="fill: none; stroke: #000000; stroke-width: 0.8; stroke-linecap: square"/>
    </g>
    <g id="text_6">
     <!-- $\mathdefault{4}$ -->
     <g transform="translate(276.809452 276.411144)scale(0.1 -0.1)">
      <defs>
       <path id="CMR17-34" d="M 2150 4122 
C 2150 4256 2144 4256 2029 4256 
L 128 1254 
L 128 1088 
L 1779 1088 
L 1779 457 
C 1779 224 1766 160 1318 160 
L 1197 160 
L 1197 0 
C 1402 0 1747 0 1965 0 
C 2182 0 2528 0 2733 0 
L 2733 160 
L 2611 160 
C 2163 160 2150 224 2150 457 
L 2150 1088 
L 2803 1088 
L 2803 1254 
L 2150 1254 
L 2150 4122 
z
M 1798 3703 
L 1798 1254 
L 256 1254 
L 1798 3703 
z
" transform="scale(0.015625)"/>
      </defs>
      <use xlink:href="#CMR17-34" transform="scale(0.996264)"/>
     </g>
    </g>
   </g>
   <g id="xtick_6">
    <g id="line2d_7">
     <path d="M 234.219813 258.959814 
L 238.265101 259.163586 
" style="fill: none; stroke: #000000; stroke-width: 0.8; stroke-linecap: square"/>
    </g>
    <g id="text_7">
     <!-- $\mathdefault{5}$ -->
     <g transform="translate(243.900767 278.175839)scale(0.1 -0.1)">
      <defs>
       <path id="CMR17-35" d="M 730 3692 
C 794 3666 1056 3584 1325 3584 
C 1920 3584 2246 3911 2432 4100 
C 2432 4157 2432 4192 2394 4192 
C 2387 4192 2374 4192 2323 4163 
C 2099 4058 1837 3973 1517 3973 
C 1325 3973 1037 3999 723 4139 
C 653 4171 640 4171 634 4171 
C 602 4171 595 4164 595 4037 
L 595 2203 
C 595 2089 595 2057 659 2057 
C 691 2057 704 2070 736 2114 
C 941 2401 1222 2522 1542 2522 
C 1766 2522 2246 2382 2246 1289 
C 2246 1085 2246 715 2054 421 
C 1894 159 1645 25 1370 25 
C 947 25 518 320 403 814 
C 429 807 480 795 506 795 
C 589 795 749 840 749 1038 
C 749 1210 627 1280 506 1280 
C 358 1280 262 1190 262 1011 
C 262 454 704 -128 1382 -128 
C 2042 -128 2669 440 2669 1264 
C 2669 2030 2170 2624 1549 2624 
C 1222 2624 947 2503 730 2274 
L 730 3692 
z
" transform="scale(0.015625)"/>
      </defs>
      <use xlink:href="#CMR17-35" transform="scale(0.996264)"/>
     </g>
    </g>
   </g>
  </g>
  <g id="axis3d_2">
   <g id="line2d_8">
    <path d="M 78.068697 251.405071 
L 232.073548 259.191794 
" style="fill: none; stroke: #000000; stroke-width: 0.8; stroke-linecap: square"/>
   </g>
   <g id="text_8">
    <!-- y -->
    <g transform="translate(123.591717 284.622793)scale(0.16 -0.16)">
     <defs>
      <path id="CMSS17-79" d="M 2675 2752 
L 2176 2752 
C 1632 1294 1446 702 1434 383 
L 1427 383 
C 1408 696 1126 1460 902 2007 
L 602 2752 
L 83 2752 
L 1216 13 
C 1146 -178 1043 -465 1011 -529 
C 870 -885 774 -885 672 -885 
C 646 -885 442 -885 211 -809 
L 250 -1229 
C 410 -1261 570 -1280 685 -1280 
C 845 -1280 1165 -1280 1459 -497 
L 2675 2752 
z
" transform="scale(0.015625)"/>
     </defs>
     <use xlink:href="#CMSS17-79" transform="scale(0.996264)"/>
    </g>
   </g>
   <g id="Line3DCollection_2">
    <path d="M 254.307325 90.495085 
L 254.307325 245.764375 
L 94.569332 252.239368 
" style="fill: none; stroke: #b0b0b0; stroke-width: 0.8"/>
    <path d="M 282.647467 89.28835 
L 282.647467 246.97111 
L 122.619489 253.657628 
" style="fill: none; stroke: #b0b0b0; stroke-width: 0.8"/>
    <path d="M 311.882546 88.043508 
L 311.882546 248.215951 
L 151.631834 255.124537 
" style="fill: none; stroke: #b0b0b0; stroke-width: 0.8"/>
    <path d="M 342.055631 86.758726 
L 342.055631 249.500733 
L 181.656742 256.642642 
" style="fill: none; stroke: #b0b0b0; stroke-width: 0.8"/>
    <path d="M 373.212602 85.43205 
L 373.212602 250.82741 
L 212.748162 258.214672 
" style="fill: none; stroke: #b0b0b0; stroke-width: 0.8"/>
   </g>
   <g id="xtick_7">
    <g id="line2d_9">
     <path d="M 95.952895 252.183286 
L 91.796661 252.351759 
" style="fill: none; stroke: #000000; stroke-width: 0.8; stroke-linecap: square"/>
    </g>
    <g id="text_9">
     <!-- $\mathdefault{−4}$ -->
     <g transform="translate(77.088406 270.413367)scale(0.1 -0.1)">
      <defs>
       <path id="CMSY10-0" d="M 4218 1472 
C 4326 1472 4442 1472 4442 1600 
C 4442 1728 4326 1728 4218 1728 
L 755 1728 
C 646 1728 531 1728 531 1600 
C 531 1472 646 1472 755 1472 
L 4218 1472 
z
" transform="scale(0.015625)"/>
      </defs>
      <use xlink:href="#CMSY10-0" transform="scale(0.996264)"/>
      <use xlink:href="#CMR17-34" transform="translate(77.487468 0)scale(0.996264)"/>
     </g>
    </g>
   </g>
   <g id="xtick_8">
    <g id="line2d_10">
     <path d="M 124.007346 253.599638 
L 119.838116 253.773843 
" style="fill: none; stroke: #000000; stroke-width: 0.8; stroke-linecap: square"/>
    </g>
    <g id="text_10">
     <!-- $\mathdefault{−2}$ -->
     <g transform="translate(105.10292 272.030178)scale(0.1 -0.1)">
      <use xlink:href="#CMSY10-0" transform="scale(0.996264)"/>
      <use xlink:href="#CMR17-32" transform="translate(77.487468 0)scale(0.996264)"/>
     </g>
    </g>
   </g>
   <g id="xtick_9">
    <g id="line2d_11">
     <path d="M 153.023471 255.064542 
L 148.842791 255.244775 
" style="fill: none; stroke: #000000; stroke-width: 0.8; stroke-linecap: square"/>
    </g>
    <g id="text_11">
     <!-- $\mathdefault{0}$ -->
     <g transform="translate(137.958098 273.702756)scale(0.1 -0.1)">
      <use xlink:href="#CMR17-30" transform="scale(0.996264)"/>
     </g>
    </g>
   </g>
   <g id="xtick_10">
    <g id="line2d_12">
     <path d="M 183.051579 256.580536 
L 178.861183 256.767117 
" style="fill: none; stroke: #000000; stroke-width: 0.8; stroke-linecap: square"/>
    </g>
    <g id="text_12">
     <!-- $\mathdefault{2}$ -->
     <g transform="translate(167.956069 275.434038)scale(0.1 -0.1)">
      <use xlink:href="#CMR17-32" transform="scale(0.996264)"/>
     </g>
    </g>
   </g>
   <g id="xtick_11">
    <g id="line2d_13">
     <path d="M 214.145551 258.150341 
L 209.947383 258.343611 
" style="fill: none; stroke: #000000; stroke-width: 0.8; stroke-linecap: square"/>
    </g>
    <g id="text_13">
     <!-- $\mathdefault{4}$ -->
     <g transform="translate(199.025712 277.22717)scale(0.1 -0.1)">
      <use xlink:href="#CMR17-34" transform="scale(0.996264)"/>
     </g>
    </g>
   </g>
  </g>
  <g id="axis3d_3">
   <g id="line2d_14">
    <path d="M 78.068697 251.405071 
L 78.068697 84.854389 
" style="fill: none; stroke: #000000; stroke-width: 0.8; stroke-linecap: square"/>
   </g>
   <g id="text_14">
    <!-- z -->
    <g transform="translate(31.15345 172.114786)scale(0.16 -0.16)">
     <defs>
      <path id="CMSS17-7a" d="M 2400 2502 
L 2400 2750 
L 250 2750 
L 250 2368 
L 1069 2368 
C 1146 2368 1222 2368 1299 2368 
L 1747 2368 
L 166 261 
L 166 0 
L 2419 0 
L 2419 395 
L 1549 395 
C 1472 395 1395 395 1318 395 
L 826 395 
L 2400 2502 
z
" transform="scale(0.015625)"/>
     </defs>
     <use xlink:href="#CMSS17-7a" transform="scale(0.996264)"/>
    </g>
   </g>
   <g id="Line3DCollection_3">
    <path d="M 78.068697 248.074057 
L 237.601707 241.97611 
L 392.533835 248.3093 
" style="fill: none; stroke: #b0b0b0; stroke-width: 0.8"/>
    <path d="M 78.068697 216.096326 
L 237.601707 212.437558 
L 392.533835 216.237472 
" style="fill: none; stroke: #b0b0b0; stroke-width: 0.8"/>
    <path d="M 78.068697 184.118595 
L 237.601707 182.899006 
L 392.533835 184.165644 
" style="fill: none; stroke: #b0b0b0; stroke-width: 0.8"/>
    <path d="M 78.068697 152.140864 
L 237.601707 153.360454 
L 392.533835 152.093816 
" style="fill: none; stroke: #b0b0b0; stroke-width: 0.8"/>
    <path d="M 78.068697 120.163133 
L 237.601707 123.821901 
L 392.533835 120.021987 
" style="fill: none; stroke: #b0b0b0; stroke-width: 0.8"/>
    <path d="M 78.068697 88.185402 
L 237.601707 94.283349 
L 392.533835 87.950159 
" style="fill: none; stroke: #b0b0b0; stroke-width: 0.8"/>
   </g>
   <g id="xtick_12">
    <g id="line2d_15">
     <path d="M 79.449438 248.02128 
L 75.301735 248.179821 
" style="fill: none; stroke: #000000; stroke-width: 0.8; stroke-linecap: square"/>
    </g>
    <g id="text_15">
     <!-- $\mathdefault{0}$ -->
     <g transform="translate(55.549901 254.977573)scale(0.1 -0.1)">
      <use xlink:href="#CMR17-30" transform="scale(0.996264)"/>
     </g>
    </g>
   </g>
   <g id="xtick_13">
    <g id="line2d_16">
     <path d="M 79.449438 216.06466 
L 75.301735 216.159784 
" style="fill: none; stroke: #000000; stroke-width: 0.8; stroke-linecap: square"/>
    </g>
    <g id="text_16">
     <!-- $\mathdefault{1}$ -->
     <g transform="translate(55.549901 223.005835)scale(0.1 -0.1)">
      <use xlink:href="#CMR17-31" transform="scale(0.996264)"/>
     </g>
    </g>
   </g>
   <g id="xtick_14">
    <g id="line2d_17">
     <path d="M 79.449438 184.10804 
L 75.301735 184.139748 
" style="fill: none; stroke: #000000; stroke-width: 0.8; stroke-linecap: square"/>
    </g>
    <g id="text_17">
     <!-- $\mathdefault{2}$ -->
     <g transform="translate(55.549901 191.034097)scale(0.1 -0.1)">
      <use xlink:href="#CMR17-32" transform="scale(0.996264)"/>
     </g>
    </g>
   </g>
   <g id="xtick_15">
    <g id="line2d_18">
     <path d="M 79.449438 152.15142 
L 75.301735 152.119712 
" style="fill: none; stroke: #000000; stroke-width: 0.8; stroke-linecap: square"/>
    </g>
    <g id="text_18">
     <!-- $\mathdefault{3}$ -->
     <g transform="translate(55.549901 159.062359)scale(0.1 -0.1)">
      <use xlink:href="#CMR17-33" transform="scale(0.996264)"/>
     </g>
    </g>
   </g>
   <g id="xtick_16">
    <g id="line2d_19">
     <path d="M 79.449438 120.1948 
L 75.301735 120.099675 
" style="fill: none; stroke: #000000; stroke-width: 0.8; stroke-linecap: square"/>
    </g>
    <g id="text_19">
     <!-- $\mathdefault{4}$ -->
     <g transform="translate(55.549901 127.090621)scale(0.1 -0.1)">
      <use xlink:href="#CMR17-34" transform="scale(0.996264)"/>
     </g>
    </g>
   </g>
   <g id="xtick_17">
    <g id="line2d_20">
     <path d="M 79.449438 88.238179 
L 75.301735 88.079639 
" style="fill: none; stroke: #000000; stroke-width: 0.8; stroke-linecap: square"/>
    </g>
    <g id="text_20">
     <!-- $\mathdefault{5}$ -->
     <g transform="translate(55.549901 95.118883)scale(0.1 -0.1)">
      <use xlink:href="#CMR17-35" transform="scale(0.996264)"/>
     </g>
    </g>
   </g>
  </g>
  <g id="axes_1">
   <g id="line2d_21">
    <path d="M 308.92736 245.134808 
L 325.712738 88.000146 
" clip-path="url(#p0210ee65e3)" style="fill: none; stroke: #ff0000; stroke-width: 1.5; stroke-linecap: square"/>
   </g>
   <g id="line2d_22">
    <path d="M 308.92736 245.134808 
L 221.106834 121.235981 
" clip-path="url(#p0210ee65e3)" style="fill: none; stroke: #00ff00; stroke-width: 1.5; stroke-linecap: square"/>
   </g>
   <g id="line2d_23">
    <path d="M 308.92736 245.134808 
L 245.477626 -1 
" clip-path="url(#p0210ee65e3)" style="fill: none; stroke: #0016ff; stroke-width: 1.5; stroke-linecap: square"/>
   </g>
   <g id="line2d_24">
    <path d="M 308.92736 245.134808 
L 111.93809 151.873009 
" clip-path="url(#p0210ee65e3)" style="fill: none; stroke: #f400ff; stroke-width: 1.5; stroke-linecap: square"/>
   </g>
   <g id="Poly3DCollection_1">
    <path d="M 237.508019 353.320755 
L 223.21128 313.647623 
L 230.104063 302.970562 
L 244.404559 342.873883 
z
" clip-path="url(#p0210ee65e3)" style="fill: #0000f5; fill-opacity: 0.1"/>
    <path d="M 244.404559 342.873883 
L 230.104063 302.970562 
L 237.050071 292.211054 
L 251.353959 332.346938 
z
" clip-path="url(#p0210ee65e3)" style="fill: #0000f5; fill-opacity: 0.1"/>
    <path d="M 223.21128 313.647623 
L 208.701378 273.382967 
L 215.589521 262.46998 
L 230.104063 302.970562 
z
" clip-path="url(#p0210ee65e3)" style="fill: #0000f5; fill-opacity: 0.1"/>
    <path d="M 251.353959 332.346938 
L 237.050071 292.211054 
L 244.049923 281.368141 
L 258.35683 321.738997 
z
" clip-path="url(#p0210ee65e3)" style="fill: #0000f5; fill-opacity: 0.1"/>
    <path d="M 230.104063 302.970562 
L 215.589521 262.46998 
L 222.531254 251.472091 
L 237.050071 292.211054 
z
" clip-path="url(#p0210ee65e3)" style="fill: #0000f5; fill-opacity: 0.1"/>
    <path d="M 258.35683 321.738997 
L 244.049923 281.368141 
L 251.104248 270.440848 
L 265.41379 311.049121 
z
" clip-path="url(#p0210ee65e3)" style="fill: #0000f5; fill-opacity: 0.1"/>
    <path d="M 208.701378 273.382967 
L 193.97351 232.513459 
L 200.856092 221.358627 
L 215.589521 262.46998 
z
" clip-path="url(#p0210ee65e3)" style="fill: #0000f5; fill-opacity: 0.1"/>
    <path d="M 237.050071 292.211054 
L 222.531254 251.472091 
L 229.527203 240.388306 
L 244.049923 281.368141 
z
" clip-path="url(#p0210ee65e3)" style="fill: #0000f5; fill-opacity: 0.1"/>
    <path d="M 265.41379 311.049121 
L 251.104248 270.440848 
L 258.213684 259.428187 
L 272.525469 300.276357 
z
" clip-path="url(#p0210ee65e3)" style="fill: #0000f5; fill-opacity: 0.1"/>
    <path d="M 215.589521 262.46998 
L 200.856092 221.358627 
L 207.792626 210.116354 
L 222.531254 251.472091 
z
" clip-path="url(#p0210ee65e3)" style="fill: #0000f5; fill-opacity: 0.1"/>
    <path d="M 244.049923 281.368141 
L 229.527203 240.388306 
L 236.578007 229.217614 
L 251.104248 270.440848 
z
" clip-path="url(#p0210ee65e3)" style="fill: #0000f5; fill-opacity: 0.1"/>
    <path d="M 272.525469 300.276357 
L 258.213684 259.428187 
L 265.378879 248.329154 
L 279.692505 289.419737 
z
" clip-path="url(#p0210ee65e3)" style="fill: #0000f5; fill-opacity: 0.1"/>
    <path d="M 193.97351 232.513459 
L 179.022726 191.025367 
L 185.898787 179.622581 
L 200.856092 221.358627 
z
" clip-path="url(#p0210ee65e3)" style="fill: #0000f5; fill-opacity: 0.1"/>
    <path d="M 222.531254 251.472091 
L 207.792626 210.116354 
L 214.783748 198.785609 
L 229.527203 240.388306 
z
" clip-path="url(#p0210ee65e3)" style="fill: #0000f5; fill-opacity: 0.1"/>
    <path d="M 251.104248 270.440848 
L 236.578007 229.217614 
L 243.684313 217.958989 
L 258.213684 259.428187 
z
" clip-path="url(#p0210ee65e3)" style="fill: #0000f5; fill-opacity: 0.1"/>
    <path d="M 279.692505 289.419737 
L 265.378879 248.329154 
L 272.600493 237.142728 
L 286.915548 278.478278 
z
" clip-path="url(#p0210ee65e3)" style="fill: #0000f5; fill-opacity: 0.1"/>
    <path d="M 200.856092 221.358627 
L 185.898787 179.622581 
L 192.829159 168.12973 
L 207.792626 210.116354 
z
" clip-path="url(#p0210ee65e3)" style="fill: #0000f5; fill-opacity: 0.1"/>
    <path d="M 229.527203 240.388306 
L 214.783748 198.785609 
L 221.830105 187.365343 
L 236.578007 229.217614 
z
" clip-path="url(#p0210ee65e3)" style="fill: #0000f5; fill-opacity: 0.1"/>
    <path d="M 258.213684 259.428187 
L 243.684313 217.958989 
L 250.846779 206.611388 
L 265.378879 248.329154 
z
" clip-path="url(#p0210ee65e3)" style="fill: #0000f5; fill-opacity: 0.1"/>
    <path d="M 286.915548 278.478278 
L 272.600493 237.142728 
L 279.879193 225.867874 
L 294.195257 267.450983 
z
" clip-path="url(#p0210ee65e3)" style="fill: #0000f5; fill-opacity: 0.1"/>
    <path d="M 179.022726 191.025367 
L 163.843928 148.90454 
L 170.712463 137.247496 
L 185.898787 179.622581 
z
" clip-path="url(#p0210ee65e3)" style="fill: #0000f5; fill-opacity: 0.1"/>
    <path d="M 207.792626 210.116354 
L 192.829159 168.12973 
L 199.814488 156.545741 
L 214.783748 198.785609 
z
" clip-path="url(#p0210ee65e3)" style="fill: #0000f5; fill-opacity: 0.1"/>
    <path d="M 236.578007 229.217614 
L 221.830105 187.365343 
L 228.932354 175.854491 
L 243.684313 217.958989 
z
" clip-path="url(#p0210ee65e3)" style="fill: #0000f5; fill-opacity: 0.1"/>
    <path d="M 265.378879 248.329154 
L 250.846779 206.611388 
L 258.066073 195.173753 
L 272.600493 237.142728 
z
" clip-path="url(#p0210ee65e3)" style="fill: #0000f5; fill-opacity: 0.1"/>
    <path d="M 294.195257 267.450983 
L 279.879193 225.867874 
L 287.215659 214.503537 
L 301.532301 256.336836 
z
" clip-path="url(#p0210ee65e3)" style="fill: #0000f5; fill-opacity: 0.1"/>
    <path d="M 185.898787 179.622581 
L 170.712463 137.247496 
L 177.635667 125.49767 
L 192.829159 168.12973 
z
" clip-path="url(#p0210ee65e3)" style="fill: #0000f5; fill-opacity: 0.1"/>
    <path d="M 214.783748 198.785609 
L 199.814488 156.545741 
L 206.855431 144.869527 
L 221.830105 187.365343 
z
" clip-path="url(#p0210ee65e3)" style="fill: #0000f5; fill-opacity: 0.1"/>
    <path d="M 243.684313 217.958989 
L 228.932354 175.854491 
L 236.091163 164.25197 
L 250.846779 206.611388 
z
" clip-path="url(#p0210ee65e3)" style="fill: #0000f5; fill-opacity: 0.1"/>
    <path d="M 272.600493 237.142728 
L 258.066073 195.173753 
L 265.342876 183.645008 
L 279.879193 225.867874 
z
" clip-path="url(#p0210ee65e3)" style="fill: #0000f5; fill-opacity: 0.1"/>
    <path d="M 301.532301 256.336836 
L 287.215659 214.503537 
L 294.610583 203.04865 
L 308.92736 245.134808 
z
" clip-path="url(#p0210ee65e3)" style="fill: #0000f5; fill-opacity: 0.1"/>
    <path d="M 163.843928 148.90454 
L 148.431859 106.136391 
L 155.291821 94.21858 
L 170.712463 137.247496 
z
" clip-path="url(#p0210ee65e3)" style="fill: #0000f5; fill-opacity: 0.1"/>
    <path d="M 192.829159 168.12973 
L 177.635667 125.49767 
L 184.614195 113.65395 
L 199.814488 156.545741 
z
" clip-path="url(#p0210ee65e3)" style="fill: #0000f5; fill-opacity: 0.1"/>
    <path d="M 221.830105 187.365343 
L 206.855431 144.869527 
L 213.952654 133.099981 
L 228.932354 175.854491 
z
" clip-path="url(#p0210ee65e3)" style="fill: #0000f5; fill-opacity: 0.1"/>
    <path d="M 250.846779 206.611388 
L 236.091163 164.25197 
L 243.307209 152.556682 
L 258.066073 195.173753 
z
" clip-path="url(#p0210ee65e3)" style="fill: #0000f5; fill-opacity: 0.1"/>
    <path d="M 279.879193 225.867874 
L 265.342876 183.645008 
L 272.677875 172.02406 
L 287.215659 214.503537 
z
" clip-path="url(#p0210ee65e3)" style="fill: #0000f5; fill-opacity: 0.1"/>
    <path d="M 308.92736 245.134808 
L 294.610583 203.04865 
L 302.064665 191.502126 
L 316.381125 233.843852 
z
" clip-path="url(#p0210ee65e3)" style="fill: #0000f5; fill-opacity: 0.1"/>
    <path d="M 170.712463 137.247496 
L 155.291821 94.21858 
L 162.206806 82.205177 
L 177.635667 125.49767 
z
" clip-path="url(#p0210ee65e3)" style="fill: #0000f5; fill-opacity: 0.1"/>
    <path d="M 199.814488 156.545741 
L 184.614195 113.65395 
L 191.648713 101.715207 
L 206.855431 144.869527 
z
" clip-path="url(#p0210ee65e3)" style="fill: #0000f5; fill-opacity: 0.1"/>
    <path d="M 228.932354 175.854491 
L 213.952654 133.099981 
L 221.106834 121.235981 
L 236.091163 164.25197 
z
" clip-path="url(#p0210ee65e3)" style="fill: #0000f5; fill-opacity: 0.1"/>
    <path d="M 258.066073 195.173753 
L 243.307209 152.556682 
L 250.581183 140.767508 
L 265.342876 183.645008 
z
" clip-path="url(#p0210ee65e3)" style="fill: #0000f5; fill-opacity: 0.1"/>
    <path d="M 287.215659 214.503537 
L 272.677875 172.02406 
L 280.071774 160.309798 
L 294.610583 203.04865 
z
" clip-path="url(#p0210ee65e3)" style="fill: #0000f5; fill-opacity: 0.1"/>
    <path d="M 316.381125 233.843852 
L 302.064665 191.502126 
L 309.578618 179.862859 
L 323.894298 222.462905 
z
" clip-path="url(#p0210ee65e3)" style="fill: #0000f5; fill-opacity: 0.1"/>
    <path d="M 148.431859 106.136391 
L 132.7811 62.705883 
L 139.631394 50.520584 
L 155.291821 94.21858 
z
" clip-path="url(#p0210ee65e3)" style="fill: #0000f5; fill-opacity: 0.1"/>
    <path d="M 177.635667 125.49767 
L 162.206806 82.205177 
L 169.177479 70.095027 
L 184.614195 113.65395 
z
" clip-path="url(#p0210ee65e3)" style="fill: #0000f5; fill-opacity: 0.1"/>
    <path d="M 206.855431 144.869527 
L 191.648713 101.715207 
L 198.739897 89.680291 
L 213.952654 133.099981 
z
" clip-path="url(#p0210ee65e3)" style="fill: #0000f5; fill-opacity: 0.1"/>
    <path d="M 236.091163 164.25197 
L 221.106834 121.235981 
L 228.318661 109.276384 
L 243.307209 152.556682 
z
" clip-path="url(#p0210ee65e3)" style="fill: #0000f5; fill-opacity: 0.1"/>
    <path d="M 265.342876 183.645008 
L 250.581183 140.767508 
L 257.913785 128.883315 
L 272.677875 172.02406 
z
" clip-path="url(#p0210ee65e3)" style="fill: #0000f5; fill-opacity: 0.1"/>
    <path d="M 294.610583 203.04865 
L 280.071774 160.309798 
L 287.525282 148.501094 
L 302.064665 191.502126 
z
" clip-path="url(#p0210ee65e3)" style="fill: #0000f5; fill-opacity: 0.1"/>
    <path d="M 323.894298 222.462905 
L 309.578618 179.862859 
L 317.153167 168.12973 
L 331.467591 210.990887 
z
" clip-path="url(#p0210ee65e3)" style="fill: #0000f5; fill-opacity: 0.1"/>
    <path d="M 155.291821 94.21858 
L 139.631394 50.520584 
L 146.537063 38.236784 
L 162.206806 82.205177 
z
" clip-path="url(#p0210ee65e3)" style="fill: #0000f5; fill-opacity: 0.1"/>
    <path d="M 184.614195 113.65395 
L 169.177479 70.095027 
L 176.204516 57.886957 
L 191.648713 101.715207 
z
" clip-path="url(#p0210ee65e3)" style="fill: #0000f5; fill-opacity: 0.1"/>
    <path d="M 213.952654 133.099981 
L 198.739897 89.680291 
L 205.888435 77.548036 
L 221.106834 121.235981 
z
" clip-path="url(#p0210ee65e3)" style="fill: #0000f5; fill-opacity: 0.1"/>
    <path d="M 243.307209 152.556682 
L 228.318661 109.276384 
L 235.588834 97.22003 
L 250.581183 140.767508 
z
" clip-path="url(#p0210ee65e3)" style="fill: #0000f5; fill-opacity: 0.1"/>
    <path d="M 272.677875 172.02406 
L 257.913785 128.883315 
L 265.305726 116.902949 
L 280.071774 160.309798 
z
" clip-path="url(#p0210ee65e3)" style="fill: #0000f5; fill-opacity: 0.1"/>
    <path d="M 302.064665 191.502126 
L 287.525282 148.501094 
L 295.039126 136.596801 
L 309.578618 179.862859 
z
" clip-path="url(#p0210ee65e3)" style="fill: #0000f5; fill-opacity: 0.1"/>
    <path d="M 331.467591 210.990887 
L 317.153167 168.12973 
L 324.789046 156.301596 
L 339.101731 199.426701 
z
" clip-path="url(#p0210ee65e3)" style="fill: #0000f5; fill-opacity: 0.1"/>
    <path d="M 132.7811 62.705883 
L 116.886063 18.597509 
L 123.725547 6.137779 
L 139.631394 50.520584 
z
" clip-path="url(#p0210ee65e3)" style="fill: #0000f5; fill-opacity: 0.1"/>
    <path d="M 162.206806 82.205177 
L 146.537063 38.236784 
L 153.498781 25.853285 
L 169.177479 70.095027 
z
" clip-path="url(#p0210ee65e3)" style="fill: #0000f5; fill-opacity: 0.1"/>
    <path d="M 191.648713 101.715207 
L 176.204516 57.886957 
L 183.288603 45.579774 
L 198.739897 89.680291 
z
" clip-path="url(#p0210ee65e3)" style="fill: #0000f5; fill-opacity: 0.1"/>
    <path d="M 221.106834 121.235981 
L 205.888435 77.548036 
L 213.095026 65.317257 
L 228.318661 109.276384 
z
" clip-path="url(#p0210ee65e3)" style="fill: #0000f5; fill-opacity: 0.1"/>
    <path d="M 250.581183 140.767508 
L 235.588834 97.22003 
L 242.918063 85.065741 
L 257.913785 128.883315 
z
" clip-path="url(#p0210ee65e3)" style="fill: #0000f5; fill-opacity: 0.1"/>
    <path d="M 280.071774 160.309798 
L 265.305726 116.902949 
L 272.75773 104.825238 
L 287.525282 148.501094 
z
" clip-path="url(#p0210ee65e3)" style="fill: #0000f5; fill-opacity: 0.1"/>
    <path d="M 309.578618 179.862859 
L 295.039126 136.596801 
L 302.614039 124.595754 
L 317.153167 168.12973 
z
" clip-path="url(#p0210ee65e3)" style="fill: #0000f5; fill-opacity: 0.1"/>
    <path d="M 339.101731 199.426701 
L 324.789046 156.301596 
L 332.487006 144.377301 
L 346.797451 187.769231 
z
" clip-path="url(#p0210ee65e3)" style="fill: #0000f5; fill-opacity: 0.1"/>
    <path d="M 139.631394 50.520584 
L 123.725547 6.137779 
L 130.620754 -6.423461 
L 146.537063 38.236784 
z
" clip-path="url(#p0210ee65e3)" style="fill: #0000f5; fill-opacity: 0.1"/>
    <path d="M 169.177479 70.095027 
L 153.498781 25.853285 
L 160.517233 13.368867 
L 176.204516 57.886957 
z
" clip-path="url(#p0210ee65e3)" style="fill: #0000f5; fill-opacity: 0.1"/>
    <path d="M 198.739897 89.680291 
L 183.288603 45.579774 
L 190.430437 33.172267 
L 205.888435 77.548036 
z
" clip-path="url(#p0210ee65e3)" style="fill: #0000f5; fill-opacity: 0.1"/>
    <path d="M 228.318661 109.276384 
L 213.095026 65.317257 
L 220.360379 52.986748 
L 235.588834 97.22003 
z
" clip-path="url(#p0210ee65e3)" style="fill: #0000f5; fill-opacity: 0.1"/>
    <path d="M 257.913785 128.883315 
L 242.918063 85.065741 
L 250.307072 72.812319 
L 265.305726 116.902949 
z
" clip-path="url(#p0210ee65e3)" style="fill: #0000f5; fill-opacity: 0.1"/>
    <path d="M 287.525282 148.501094 
L 272.75773 104.825238 
L 280.270531 92.648989 
L 295.039126 136.596801 
z
" clip-path="url(#p0210ee65e3)" style="fill: #0000f5; fill-opacity: 0.1"/>
    <path d="M 317.153167 168.12973 
L 302.614039 124.595754 
L 310.250771 112.496769 
L 324.789046 156.301596 
z
" clip-path="url(#p0210ee65e3)" style="fill: #0000f5; fill-opacity: 0.1"/>
    <path d="M 346.797451 187.769231 
L 332.487006 144.377301 
L 340.247804 132.355666 
L 354.555502 176.017343 
z
" clip-path="url(#p0210ee65e3)" style="fill: #0000f5; fill-opacity: 0.1"/>
    <path d="M 116.886063 18.597509 
L 100.740983 -26.204727 
L 107.568464 -38.946058 
L 123.725547 6.137779 
z
" clip-path="url(#p0210ee65e3)" style="fill: #0000f5; fill-opacity: 0.1"/>
    <path d="M 146.537063 38.236784 
L 130.620754 -6.423461 
L 137.572366 -19.087459 
L 153.498781 25.853285 
z
" clip-path="url(#p0210ee65e3)" style="fill: #0000f5; fill-opacity: 0.1"/>
    <path d="M 176.204516 57.886957 
L 160.517233 13.368867 
L 167.593116 0.782292 
L 183.288603 45.579774 
z
" clip-path="url(#p0210ee65e3)" style="fill: #0000f5; fill-opacity: 0.1"/>
    <path d="M 205.888435 77.548036 
L 190.430437 33.172267 
L 197.630728 20.663203 
L 213.095026 65.317257 
z
" clip-path="url(#p0210ee65e3)" style="fill: #0000f5; fill-opacity: 0.1"/>
    <path d="M 235.588834 97.22003 
L 220.360379 52.986748 
L 227.685216 40.555284 
L 242.918063 85.065741 
z
" clip-path="url(#p0210ee65e3)" style="fill: #0000f5; fill-opacity: 0.1"/>
    <path d="M 265.305726 116.902949 
L 250.307072 72.812319 
L 257.756594 60.458544 
L 272.75773 104.825238 
z
" clip-path="url(#p0210ee65e3)" style="fill: #0000f5; fill-opacity: 0.1"/>
    <path d="M 295.039126 136.596801 
L 280.270531 92.648989 
L 287.844877 80.372993 
L 302.614039 124.595754 
z
" clip-path="url(#p0210ee65e3)" style="fill: #0000f5; fill-opacity: 0.1"/>
    <path d="M 324.789046 156.301596 
L 310.250771 112.496769 
L 317.950079 100.29864 
L 332.487006 144.377301 
z
" clip-path="url(#p0210ee65e3)" style="fill: #0000f5; fill-opacity: 0.1"/>
    <path d="M 354.555502 176.017343 
L 340.247804 132.355666 
L 348.072215 120.235495 
L 362.376642 164.169887 
z
" clip-path="url(#p0210ee65e3)" style="fill: #0000f5; fill-opacity: 0.1"/>
    <path d="M 123.725547 6.137779 
L 107.568464 -38.946058 
L 114.452011 -51.792019 
L 130.620754 -6.423461 
z
" clip-path="url(#p0210ee65e3)" style="fill: #0000f5; fill-opacity: 0.1"/>
    <path d="M 153.498781 25.853285 
L 137.572366 -19.087459 
L 144.58108 -31.855479 
L 160.517233 13.368867 
z
" clip-path="url(#p0210ee65e3)" style="fill: #0000f5; fill-opacity: 0.1"/>
    <path d="M 183.288603 45.579774 
L 167.593116 0.782292 
L 174.727137 -11.907699 
L 190.430437 33.172267 
z
" clip-path="url(#p0210ee65e3)" style="fill: #0000f5; fill-opacity: 0.1"/>
    <path d="M 213.095026 65.317257 
L 197.630728 20.663203 
L 204.890195 8.051331 
L 220.360379 52.986748 
z
" clip-path="url(#p0210ee65e3)" style="fill: #0000f5; fill-opacity: 0.1"/>
    <path d="M 242.918063 85.065741 
L 227.685216 40.555284 
L 235.07027 28.021621 
L 250.307072 72.812319 
z
" clip-path="url(#p0210ee65e3)" style="fill: #0000f5; fill-opacity: 0.1"/>
    <path d="M 272.75773 104.825238 
L 257.756594 60.458544 
L 265.267376 48.003181 
L 280.270531 92.648989 
z
" clip-path="url(#p0210ee65e3)" style="fill: #0000f5; fill-opacity: 0.1"/>
    <path d="M 302.614039 124.595754 
L 287.844877 80.372993 
L 295.481527 67.996019 
L 310.250771 112.496769 
z
" clip-path="url(#p0210ee65e3)" style="fill: #0000f5; fill-opacity: 0.1"/>
    <path d="M 332.487006 144.377301 
L 317.950079 100.29864 
L 325.712738 88.000146 
L 340.247804 132.355666 
z
" clip-path="url(#p0210ee65e3)" style="fill: #0000f5; fill-opacity: 0.1"/>
    <path d="M 362.376642 164.169887 
L 348.072215 120.235495 
L 355.961023 108.015571 
L 370.261646 152.225691 
z
" clip-path="url(#p0210ee65e3)" style="fill: #0000f5; fill-opacity: 0.1"/>
    <path d="M 130.620754 -6.423461 
L 114.452011 -51.792019 
L 121.392317 -64.743902 
L 137.572366 -19.087459 
z
" clip-path="url(#p0210ee65e3)" style="fill: #0000f5; fill-opacity: 0.1"/>
    <path d="M 160.517233 13.368867 
L 144.58108 -31.855479 
L 151.647601 -44.72881 
L 167.593116 0.782292 
z
" clip-path="url(#p0210ee65e3)" style="fill: #0000f5; fill-opacity: 0.1"/>
    <path d="M 190.430437 33.172267 
L 174.727137 -11.907699 
L 181.920015 -24.702387 
L 197.630728 20.663203 
z
" clip-path="url(#p0210ee65e3)" style="fill: #0000f5; fill-opacity: 0.1"/>
    <path d="M 220.360379 52.986748 
L 204.890195 8.051331 
L 212.209572 -4.664622 
L 227.685216 40.555284 
z
" clip-path="url(#p0210ee65e3)" style="fill: #0000f5; fill-opacity: 0.1"/>
    <path d="M 250.307072 72.812319 
L 235.07027 28.021621 
L 242.516288 15.384494 
L 257.756594 60.458544 
z
" clip-path="url(#p0210ee65e3)" style="fill: #0000f5; fill-opacity: 0.1"/>
    <path d="M 280.270531 92.648989 
L 265.267376 48.003181 
L 272.840177 35.44497 
L 287.844877 80.372993 
z
" clip-path="url(#p0210ee65e3)" style="fill: #0000f5; fill-opacity: 0.1"/>
    <path d="M 310.250771 112.496769 
L 295.481527 67.996019 
L 303.181253 55.516816 
L 317.950079 100.29864 
z
" clip-path="url(#p0210ee65e3)" style="fill: #0000f5; fill-opacity: 0.1"/>
    <path d="M 340.247804 132.355666 
L 325.712738 88.000146 
L 333.539531 75.600042 
L 348.072215 120.235495 
z
" clip-path="url(#p0210ee65e3)" style="fill: #0000f5; fill-opacity: 0.1"/>
    <path d="M 370.261646 152.225691 
L 355.961023 108.015571 
L 363.915026 95.694658 
L 378.211298 140.183567 
z
" clip-path="url(#p0210ee65e3)" style="fill: #0000f5; fill-opacity: 0.1"/>
    <path d="M 137.572366 -19.087459 
L 121.392317 -64.743902 
L 128.390086 -77.803023 
L 144.58108 -31.855479 
z
" clip-path="url(#p0210ee65e3)" style="fill: #0000f5; fill-opacity: 0.1"/>
    <path d="M 167.593116 0.782292 
L 151.647601 -44.72881 
L 158.772648 -57.708759 
L 174.727137 -11.907699 
z
" clip-path="url(#p0210ee65e3)" style="fill: #0000f5; fill-opacity: 0.1"/>
    <path d="M 197.630728 20.663203 
L 181.920015 -24.702387 
L 189.172482 -37.603071 
L 204.890195 8.051331 
z
" clip-path="url(#p0210ee65e3)" style="fill: #0000f5; fill-opacity: 0.1"/>
    <path d="M 227.685216 40.555284 
L 212.209572 -4.664622 
L 219.589604 -17.48595 
L 235.07027 28.021621 
z
" clip-path="url(#p0210ee65e3)" style="fill: #0000f5; fill-opacity: 0.1"/>
    <path d="M 257.756594 60.458544 
L 242.516288 15.384494 
L 250.024028 2.642614 
L 265.267376 48.003181 
z
" clip-path="url(#p0210ee65e3)" style="fill: #0000f5; fill-opacity: 0.1"/>
    <path d="M 287.844877 80.372993 
L 272.840177 35.44497 
L 280.475768 22.782632 
L 295.481527 67.996019 
z
" clip-path="url(#p0210ee65e3)" style="fill: #0000f5; fill-opacity: 0.1"/>
    <path d="M 317.950079 100.29864 
L 303.181253 55.516816 
L 310.94484 42.934111 
L 325.712738 88.000146 
z
" clip-path="url(#p0210ee65e3)" style="fill: #0000f5; fill-opacity: 0.1"/>
    <path d="M 348.072215 120.235495 
L 333.539531 75.600042 
L 341.431258 63.097064 
L 355.961023 108.015571 
z
" clip-path="url(#p0210ee65e3)" style="fill: #0000f5; fill-opacity: 0.1"/>
    <path d="M 144.58108 -31.855479 
L 128.390086 -77.803023 
L 135.446037 -90.97072 
L 151.647601 -44.72881 
z
" clip-path="url(#p0210ee65e3)" style="fill: #0000f5; fill-opacity: 0.1"/>
    <path d="M 174.727137 -11.907699 
L 158.772648 -57.708759 
L 165.956951 -70.796656 
L 181.920015 -24.702387 
z
" clip-path="url(#p0210ee65e3)" style="fill: #0000f5; fill-opacity: 0.1"/>
    <path d="M 204.890195 8.051331 
L 189.172482 -37.603071 
L 196.485283 -50.611075 
L 212.209572 -4.664622 
z
" clip-path="url(#p0210ee65e3)" style="fill: #0000f5; fill-opacity: 0.1"/>
    <path d="M 235.07027 28.021621 
L 219.589604 -17.48595 
L 227.031047 -30.413968 
L 242.516288 15.384494 
z
" clip-path="url(#p0210ee65e3)" style="fill: #0000f5; fill-opacity: 0.1"/>
    <path d="M 265.267376 48.003181 
L 250.024028 2.642614 
L 257.594259 -10.205324 
L 272.840177 35.44497 
z
" clip-path="url(#p0210ee65e3)" style="fill: #0000f5; fill-opacity: 0.1"/>
    <path d="M 295.481527 67.996019 
L 280.475768 22.782632 
L 288.174933 10.014866 
L 303.181253 55.516816 
z
" clip-path="url(#p0210ee65e3)" style="fill: #0000f5; fill-opacity: 0.1"/>
    <path d="M 325.712738 88.000146 
L 310.94484 42.934111 
L 318.773085 30.246613 
L 333.539531 75.600042 
z
" clip-path="url(#p0210ee65e3)" style="fill: #0000f5; fill-opacity: 0.1"/>
    <path d="M 355.961023 108.015571 
L 341.431258 63.097064 
L 349.388729 50.489925 
L 363.915026 95.694658 
z
" clip-path="url(#p0210ee65e3)" style="fill: #0000f5; fill-opacity: 0.1"/>
    <path d="M 151.647601 -44.72881 
L 135.446037 -90.97072 
L 142.560896 -104.248353 
L 158.772648 -57.708759 
z
" clip-path="url(#p0210ee65e3)" style="fill: #0000f5; fill-opacity: 0.1"/>
    <path d="M 181.920015 -24.702387 
L 165.956951 -70.796656 
L 173.201252 -83.993854 
L 189.172482 -37.603071 
z
" clip-path="url(#p0210ee65e3)" style="fill: #0000f5; fill-opacity: 0.1"/>
    <path d="M 212.209572 -4.664622 
L 196.485283 -50.611075 
L 203.859172 -63.727744 
L 219.589604 -17.48595 
z
" clip-path="url(#p0210ee65e3)" style="fill: #0000f5; fill-opacity: 0.1"/>
    <path d="M 242.516288 15.384494 
L 227.031047 -30.413968 
L 234.534671 -43.450013 
L 250.024028 2.642614 
z
" clip-path="url(#p0210ee65e3)" style="fill: #0000f5; fill-opacity: 0.1"/>
    <path d="M 272.840177 35.44497 
L 257.594259 -10.205324 
L 265.227766 -23.160651 
L 280.475768 22.782632 
z
" clip-path="url(#p0210ee65e3)" style="fill: #0000f5; fill-opacity: 0.1"/>
    <path d="M 303.181253 55.516816 
L 288.174933 10.014866 
L 295.93847 -2.859648 
L 310.94484 42.934111 
z
" clip-path="url(#p0210ee65e3)" style="fill: #0000f5; fill-opacity: 0.1"/>
    <path d="M 333.539531 75.600042 
L 318.773085 30.246613 
L 326.666799 17.453005 
L 341.431258 63.097064 
z
" clip-path="url(#p0210ee65e3)" style="fill: #0000f5; fill-opacity: 0.1"/>
    <path d="M 158.772648 -57.708759 
L 142.560896 -104.248353 
L 149.735406 -117.637304 
L 165.956951 -70.796656 
z
" clip-path="url(#p0210ee65e3)" style="fill: #0000f5; fill-opacity: 0.1"/>
    <path d="M 189.172482 -37.603071 
L 173.201252 -83.993854 
L 180.506305 -97.301727 
L 196.485283 -50.611075 
z
" clip-path="url(#p0210ee65e3)" style="fill: #0000f5; fill-opacity: 0.1"/>
    <path d="M 219.589604 -17.48595 
L 203.859172 -63.727744 
L 211.294918 -76.954444 
L 227.031047 -30.413968 
z
" clip-path="url(#p0210ee65e3)" style="fill: #0000f5; fill-opacity: 0.1"/>
    <path d="M 250.024028 2.642614 
L 234.534671 -43.450013 
L 242.101259 -56.595445 
L 257.594259 -10.205324 
z
" clip-path="url(#p0210ee65e3)" style="fill: #0000f5; fill-opacity: 0.1"/>
    <path d="M 280.475768 22.782632 
L 265.227766 -23.160651 
L 272.925345 -36.224719 
L 288.174933 10.014866 
z
" clip-path="url(#p0210ee65e3)" style="fill: #0000f5; fill-opacity: 0.1"/>
    <path d="M 310.94484 42.934111 
L 295.93847 -2.859648 
L 303.767189 -15.842257 
L 318.773085 30.246613 
z
" clip-path="url(#p0210ee65e3)" style="fill: #0000f5; fill-opacity: 0.1"/>
    <path d="M 341.431258 63.097064 
L 326.666799 17.453005 
L 334.626809 4.551952 
L 349.388729 50.489925 
z
" clip-path="url(#p0210ee65e3)" style="fill: #0000f5; fill-opacity: 0.1"/>
    <path d="M 165.956951 -70.796656 
L 149.735406 -117.637304 
L 156.970319 -131.138978 
L 173.201252 -83.993854 
z
" clip-path="url(#p0210ee65e3)" style="fill: #0000f5; fill-opacity: 0.1"/>
    <path d="M 196.485283 -50.611075 
L 180.506305 -97.301727 
L 187.872879 -110.721674 
L 203.859172 -63.727744 
z
" clip-path="url(#p0210ee65e3)" style="fill: #0000f5; fill-opacity: 0.1"/>
    <path d="M 227.031047 -30.413968 
L 211.294918 -76.954444 
L 218.793303 -90.292567 
L 234.534671 -43.450013 
z
" clip-path="url(#p0210ee65e3)" style="fill: #0000f5; fill-opacity: 0.1"/>
    <path d="M 257.594259 -10.205324 
L 242.101259 -56.595445 
L 249.731607 -69.851647 
L 265.227766 -23.160651 
z
" clip-path="url(#p0210ee65e3)" style="fill: #0000f5; fill-opacity: 0.1"/>
    <path d="M 288.174933 10.014866 
L 272.925345 -36.224719 
L 280.687806 -49.398903 
L 295.93847 -2.859648 
z
" clip-path="url(#p0210ee65e3)" style="fill: #0000f5; fill-opacity: 0.1"/>
    <path d="M 318.773085 30.246613 
L 303.767189 -15.842257 
L 311.661915 -28.934326 
L 326.666799 17.453005 
z
" clip-path="url(#p0210ee65e3)" style="fill: #0000f5; fill-opacity: 0.1"/>
    <path d="M 173.201252 -83.993854 
L 156.970319 -131.138978 
L 164.266402 -144.754806 
L 180.506305 -97.301727 
z
" clip-path="url(#p0210ee65e3)" style="fill: #0000f5; fill-opacity: 0.1"/>
    <path d="M 203.859172 -63.727744 
L 187.872879 -110.721674 
L 195.301753 -124.255116 
L 211.294918 -76.954444 
z
" clip-path="url(#p0210ee65e3)" style="fill: #0000f5; fill-opacity: 0.1"/>
    <path d="M 234.534671 -43.450013 
L 218.793303 -90.292567 
L 226.355122 -103.743526 
L 242.101259 -56.595445 
z
" clip-path="url(#p0210ee65e3)" style="fill: #0000f5; fill-opacity: 0.1"/>
    <path d="M 265.227766 -23.160651 
L 249.731607 -69.851647 
L 257.426523 -83.220024 
L 272.925345 -36.224719 
z
" clip-path="url(#p0210ee65e3)" style="fill: #0000f5; fill-opacity: 0.1"/>
    <path d="M 295.93847 -2.859648 
L 280.687806 -49.398903 
L 288.515973 -62.684601 
L 303.767189 -15.842257 
z
" clip-path="url(#p0210ee65e3)" style="fill: #0000f5; fill-opacity: 0.1"/>
    <path d="M 326.666799 17.453005 
L 311.661915 -28.934326 
L 319.623486 -42.137247 
L 334.626809 4.551952 
z
" clip-path="url(#p0210ee65e3)" style="fill: #0000f5; fill-opacity: 0.1"/>
    <path d="M 180.506305 -97.301727 
L 164.266402 -144.754806 
L 171.624433 -158.486242 
L 187.872879 -110.721674 
z
" clip-path="url(#p0210ee65e3)" style="fill: #0000f5; fill-opacity: 0.1"/>
    <path d="M 211.294918 -76.954444 
L 195.301753 -124.255116 
L 202.793722 -137.9035 
L 218.793303 -90.292567 
z
" clip-path="url(#p0210ee65e3)" style="fill: #0000f5; fill-opacity: 0.1"/>
    <path d="M 242.101259 -56.595445 
L 226.355122 -103.743526 
L 233.981184 -117.308758 
L 249.731607 -69.851647 
z
" clip-path="url(#p0210ee65e3)" style="fill: #0000f5; fill-opacity: 0.1"/>
    <path d="M 272.925345 -36.224719 
L 257.426523 -83.220024 
L 265.186832 -96.702007 
L 280.687806 -49.398903 
z
" clip-path="url(#p0210ee65e3)" style="fill: #0000f5; fill-opacity: 0.1"/>
    <path d="M 303.767189 -15.842257 
L 288.515973 -62.684601 
L 296.410683 -76.083235 
L 311.661915 -28.934326 
z
" clip-path="url(#p0210ee65e3)" style="fill: #0000f5; fill-opacity: 0.1"/>
    <path d="M 187.872879 -110.721674 
L 171.624433 -158.486242 
L 179.045205 -172.334763 
L 195.301753 -124.255116 
z
" clip-path="url(#p0210ee65e3)" style="fill: #0000f5; fill-opacity: 0.1"/>
    <path d="M 218.793303 -90.292567 
L 202.793722 -137.9035 
L 210.349593 -151.668295 
L 226.355122 -103.743526 
z
" clip-path="url(#p0210ee65e3)" style="fill: #0000f5; fill-opacity: 0.1"/>
    <path d="M 249.731607 -69.851647 
L 233.981184 -117.308758 
L 241.672309 -130.989728 
L 257.426523 -83.220024 
z
" clip-path="url(#p0210ee65e3)" style="fill: #0000f5; fill-opacity: 0.1"/>
    <path d="M 280.687806 -49.398903 
L 265.186832 -96.702007 
L 273.01337 -110.29905 
L 288.515973 -62.684601 
z
" clip-path="url(#p0210ee65e3)" style="fill: #0000f5; fill-opacity: 0.1"/>
    <path d="M 311.661915 -28.934326 
L 296.410683 -76.083235 
L 304.37279 -89.596251 
L 319.623486 -42.137247 
z
" clip-path="url(#p0210ee65e3)" style="fill: #0000f5; fill-opacity: 0.1"/>
    <path d="M 195.301753 -124.255116 
L 179.045205 -172.334763 
L 186.529523 -186.301874 
L 202.793722 -137.9035 
z
" clip-path="url(#p0210ee65e3)" style="fill: #0000f5; fill-opacity: 0.1"/>
    <path d="M 226.355122 -103.743526 
L 210.349593 -151.668295 
L 217.970186 -165.550998 
L 233.981184 -117.308758 
z
" clip-path="url(#p0210ee65e3)" style="fill: #0000f5; fill-opacity: 0.1"/>
    <path d="M 257.426523 -83.220024 
L 241.672309 -130.989728 
L 249.429336 -144.787921 
L 265.186832 -96.702007 
z
" clip-path="url(#p0210ee65e3)" style="fill: #0000f5; fill-opacity: 0.1"/>
    <path d="M 288.515973 -62.684601 
L 273.01337 -110.29905 
L 280.906988 -124.012632 
L 296.410683 -76.083235 
z
" clip-path="url(#p0210ee65e3)" style="fill: #0000f5; fill-opacity: 0.1"/>
    <path d="M 202.793722 -137.9035 
L 186.529523 -186.301874 
L 194.078208 -200.389105 
L 210.349593 -151.668295 
z
" clip-path="url(#p0210ee65e3)" style="fill: #0000f5; fill-opacity: 0.1"/>
    <path d="M 233.981184 -117.308758 
L 217.970186 -165.550998 
L 225.656337 -179.55313 
L 241.672309 -130.989728 
z
" clip-path="url(#p0210ee65e3)" style="fill: #0000f5; fill-opacity: 0.1"/>
    <path d="M 265.186832 -96.702007 
L 249.429336 -144.787921 
L 257.253113 -158.704851 
L 273.01337 -110.29905 
z
" clip-path="url(#p0210ee65e3)" style="fill: #0000f5; fill-opacity: 0.1"/>
    <path d="M 296.410683 -76.083235 
L 280.906988 -124.012632 
L 288.868553 -137.844258 
L 304.37279 -89.596251 
z
" clip-path="url(#p0210ee65e3)" style="fill: #0000f5; fill-opacity: 0.1"/>
    <path d="M 210.349593 -151.668295 
L 194.078208 -200.389105 
L 201.692094 -214.598012 
L 217.970186 -165.550998 
z
" clip-path="url(#p0210ee65e3)" style="fill: #0000f5; fill-opacity: 0.1"/>
    <path d="M 241.672309 -130.989728 
L 225.656337 -179.55313 
L 233.408896 -193.676239 
L 249.429336 -144.787921 
z
" clip-path="url(#p0210ee65e3)" style="fill: #0000f5; fill-opacity: 0.1"/>
    <path d="M 273.01337 -110.29905 
L 257.253113 -158.704851 
L 265.144507 -172.742058 
L 280.906988 -124.012632 
z
" clip-path="url(#p0210ee65e3)" style="fill: #0000f5; fill-opacity: 0.1"/>
    <path d="M 217.970186 -165.550998 
L 201.692094 -214.598012 
L 209.372029 -228.930178 
L 225.656337 -179.55313 
z
" clip-path="url(#p0210ee65e3)" style="fill: #0000f5; fill-opacity: 0.1"/>
    <path d="M 249.429336 -144.787921 
L 233.408896 -193.676239 
L 241.228726 -207.921899 
L 257.253113 -158.704851 
z
" clip-path="url(#p0210ee65e3)" style="fill: #0000f5; fill-opacity: 0.1"/>
    <path d="M 280.906988 -124.012632 
L 265.144507 -172.742058 
L 273.104398 -186.901107 
L 288.868553 -137.844258 
z
" clip-path="url(#p0210ee65e3)" style="fill: #0000f5; fill-opacity: 0.1"/>
    <path d="M 225.656337 -179.55313 
L 209.372029 -228.930178 
L 217.118875 -243.387214 
L 233.408896 -193.676239 
z
" clip-path="url(#p0210ee65e3)" style="fill: #0000f5; fill-opacity: 0.1"/>
    <path d="M 257.253113 -158.704851 
L 241.228726 -207.921899 
L 249.116708 -222.291713 
L 265.144507 -172.742058 
z
" clip-path="url(#p0210ee65e3)" style="fill: #0000f5; fill-opacity: 0.1"/>
    <path d="M 233.408896 -193.676239 
L 217.118875 -243.387214 
L 224.933512 -257.97076 
L 241.228726 -207.921899 
z
" clip-path="url(#p0210ee65e3)" style="fill: #0000f5; fill-opacity: 0.1"/>
    <path d="M 265.144507 -172.742058 
L 249.116708 -222.291713 
L 257.073735 -236.787311 
L 273.104398 -186.901107 
z
" clip-path="url(#p0210ee65e3)" style="fill: #0000f5; fill-opacity: 0.1"/>
    <path d="M 241.228726 -207.921899 
L 224.933512 -257.97076 
L 232.816833 -272.682483 
L 249.116708 -222.291713 
z
" clip-path="url(#p0210ee65e3)" style="fill: #0000f5; fill-opacity: 0.1"/>
    <path d="M 249.116708 -222.291713 
L 232.816833 -272.682483 
L 240.769748 -287.52408 
L 257.073735 -236.787311 
z
" clip-path="url(#p0210ee65e3)" style="fill: #0000f5; fill-opacity: 0.1"/>
   </g>
   <g id="legend_1">
    <g id="patch_6">
     <path d="M 357.840076 67.305115 
L 396.2 67.305115 
Q 398.2 67.305115 398.2 65.305115 
L 398.2 7 
Q 398.2 5 396.2 5 
L 357.840076 5 
Q 355.840076 5 355.840076 7 
L 355.840076 65.305115 
Q 355.840076 67.305115 357.840076 67.305115 
z
" style="fill: #ffffff; opacity: 0.8; stroke: #cccccc; stroke-linejoin: miter"/>
    </g>
    <g id="line2d_25">
     <path d="M 359.840076 12.5 
L 369.840076 12.5 
L 379.840076 12.5 
" style="fill: none; stroke: #ff0000; stroke-width: 1.5; stroke-linecap: square"/>
    </g>
    <g id="text_21">
     <!-- $\vec{a}$ -->
     <g transform="translate(387.840076 16)scale(0.1 -0.1)">
      <defs>
       <path id="CMMI12-7e" d="M 3424 3835 
C 3347 3764 3110 3540 3110 3451 
C 3110 3387 3168 3329 3232 3329 
C 3290 3329 3315 3368 3360 3432 
C 3514 3624 3686 3745 3834 3828 
C 3898 3867 3942 3886 3942 3956 
C 3942 4014 3891 4046 3853 4078 
C 3674 4200 3629 4372 3610 4449 
C 3590 4500 3571 4577 3482 4577 
C 3443 4577 3366 4552 3366 4456 
C 3366 4398 3405 4244 3526 4072 
L 1376 4072 
C 1267 4072 1158 4072 1158 3950 
C 1158 3835 1274 3835 1376 3835 
L 3424 3835 
z
" transform="scale(0.015625)"/>
       <path id="CMMI12-61" d="M 1926 760 
C 1894 651 1894 639 1805 517 
C 1664 338 1382 64 1082 64 
C 819 64 672 300 672 677 
C 672 1028 870 1743 992 2012 
C 1210 2459 1510 2689 1760 2689 
C 2182 2689 2266 2165 2266 2114 
C 2266 2108 2246 2024 2240 2012 
L 1926 760 
z
M 2336 2395 
C 2266 2561 2093 2816 1760 2816 
C 1037 2816 256 1884 256 939 
C 256 307 627 -64 1062 -64 
C 1414 -64 1715 211 1894 422 
C 1958 45 2259 -64 2451 -64 
C 2643 -64 2797 51 2912 281 
C 3014 498 3104 888 3104 913 
C 3104 945 3078 971 3040 971 
C 2982 971 2976 939 2950 843 
C 2854 466 2733 64 2470 64 
C 2285 64 2272 230 2272 358 
C 2272 505 2291 575 2349 824 
C 2394 984 2426 1124 2477 1309 
C 2714 2267 2771 2497 2771 2535 
C 2771 2625 2701 2695 2605 2695 
C 2400 2695 2349 2472 2336 2395 
z
" transform="scale(0.015625)"/>
      </defs>
      <use xlink:href="#CMMI12-7e" transform="scale(0.996264)"/>
      <use xlink:href="#CMMI12-61" transform="translate(6.445738 0)scale(0.996264)"/>
     </g>
    </g>
    <g id="line2d_26">
     <path d="M 359.840076 27.24679 
L 369.840076 27.24679 
L 379.840076 27.24679 
" style="fill: none; stroke: #00ff00; stroke-width: 1.5; stroke-linecap: square"/>
    </g>
    <g id="text_22">
     <!-- $\vec{b}$ -->
     <g transform="translate(387.840076 30.74679)scale(0.1 -0.1)">
      <defs>
       <path id="CMMI12-62" d="M 1478 4257 
C 1485 4283 1498 4321 1498 4352 
C 1498 4416 1434 4416 1421 4416 
C 1414 4416 1184 4393 1069 4377 
C 960 4377 864 4358 749 4358 
C 595 4345 550 4339 550 4224 
C 550 4160 614 4160 678 4160 
C 1005 4160 1005 4103 1005 4040 
C 1005 3996 954 3811 928 3696 
L 774 3085 
C 710 2831 346 1387 320 1272 
C 288 1114 288 1005 288 922 
C 288 274 653 -64 1069 -64 
C 1811 -64 2579 888 2579 1814 
C 2579 2401 2246 2816 1766 2816 
C 1434 2816 1133 2542 1011 2414 
L 1478 4257 
z
M 1075 64 
C 870 64 646 217 646 715 
C 646 926 666 1047 781 1494 
C 800 1577 902 1986 928 2069 
C 941 2120 1318 2689 1754 2689 
C 2035 2689 2163 2408 2163 2076 
C 2163 1769 1984 1047 1824 715 
C 1664 370 1370 64 1075 64 
z
" transform="scale(0.015625)"/>
      </defs>
      <use xlink:href="#CMMI12-7e" transform="translate(0 26.29016)scale(0.996264)"/>
      <use xlink:href="#CMMI12-62" transform="translate(11.311737 0)scale(0.996264)"/>
     </g>
    </g>
    <g id="line2d_27">
     <path d="M 359.840076 41.183968 
L 369.840076 41.183968 
L 379.840076 41.183968 
" style="fill: none; stroke: #0016ff; stroke-width: 1.5; stroke-linecap: square"/>
    </g>
    <g id="text_23">
     <!-- $\vec{c}$ -->
     <g transform="translate(387.840076 44.683968)scale(0.1 -0.1)">
      <defs>
       <path id="CMMI12-63" d="M 2502 2431 
C 2381 2431 2323 2431 2234 2355 
C 2195 2323 2125 2227 2125 2125 
C 2125 1997 2221 1920 2342 1920 
C 2496 1920 2669 2044 2669 2292 
C 2669 2588 2374 2816 1933 2816 
C 1094 2816 256 1903 256 996 
C 256 441 602 -64 1254 -64 
C 2125 -64 2675 622 2675 706 
C 2675 744 2637 776 2611 776 
C 2592 776 2586 770 2528 713 
C 2118 162 1510 64 1267 64 
C 826 64 685 446 685 764 
C 685 988 794 1605 1024 2039 
C 1190 2338 1536 2682 1939 2682 
C 2022 2682 2374 2682 2502 2431 
z
" transform="scale(0.015625)"/>
      </defs>
      <use xlink:href="#CMMI12-7e" transform="scale(0.996264)"/>
      <use xlink:href="#CMMI12-63" transform="translate(5.638615 0)scale(0.996264)"/>
     </g>
    </g>
    <g id="line2d_28">
     <path d="M 359.840076 57.867937 
L 369.840076 57.867937 
L 379.840076 57.867937 
" style="fill: none; stroke: #f400ff; stroke-width: 1.5; stroke-linecap: square"/>
    </g>
    <g id="text_24">
     <!-- $\vec{f}$ -->
     <g transform="translate(387.840076 61.367937)scale(0.1 -0.1)">
      <defs>
       <path id="CMMI12-66" d="M 2854 2566 
C 2982 2566 3034 2566 3034 2688 
C 3034 2752 2982 2752 2867 2752 
L 2349 2752 
C 2470 3429 2560 3897 2611 4107 
C 2650 4265 2784 4416 2950 4416 
C 3085 4416 3219 4358 3283 4298 
C 3034 4272 2957 4082 2957 3969 
C 2957 3837 3053 3759 3174 3759 
C 3302 3759 3494 3870 3494 4119 
C 3494 4393 3226 4544 2944 4544 
C 2669 4544 2400 4334 2272 4078 
C 2157 3848 2093 3611 1946 2752 
L 1517 2752 
C 1395 2752 1331 2752 1331 2637 
C 1331 2566 1370 2566 1498 2566 
L 1907 2566 
C 1792 1976 1530 542 1382 -137 
C 1274 -689 1178 -1152 858 -1152 
C 838 -1152 653 -1152 538 -1031 
C 864 -1005 864 -726 864 -720 
C 864 -593 768 -517 646 -517 
C 518 -517 326 -625 326 -867 
C 326 -1140 608 -1280 858 -1280 
C 1510 -1280 1779 -118 1850 199 
C 1965 688 2278 2376 2310 2566 
L 2854 2566 
z
" transform="scale(0.015625)"/>
      </defs>
      <use xlink:href="#CMMI12-7e" transform="translate(13.568792 26.29016)scale(0.996264)"/>
      <use xlink:href="#CMMI12-66" transform="scale(0.996264)"/>
     </g>
    </g>
   </g>
  </g>
 </g>
 <defs>
  <clipPath id="p0210ee65e3">
   <rect x="57.6" y="0" width="345.6" height="345.6"/>
  </clipPath>
 </defs>
</svg>
