<?xml version="1.0" encoding="utf-8" standalone="no"?>
<!DOCTYPE svg PUBLIC "-//W3C//DTD SVG 1.1//EN"
  "http://www.w3.org/Graphics/SVG/1.1/DTD/svg11.dtd">
<svg xmlns:xlink="http://www.w3.org/1999/xlink" width="460.8pt" height="345.6pt" viewBox="0 0 460.8 345.6" xmlns="http://www.w3.org/2000/svg" version="1.1">
 <metadata>
  <rdf:RDF xmlns:dc="http://purl.org/dc/elements/1.1/" xmlns:cc="http://creativecommons.org/ns#" xmlns:rdf="http://www.w3.org/1999/02/22-rdf-syntax-ns#">
   <cc:Work>
    <dc:type rdf:resource="http://purl.org/dc/dcmitype/StillImage"/>
    <dc:date>2022-07-12T15:41:35.402721</dc:date>
    <dc:format>image/svg+xml</dc:format>
    <dc:creator>
     <cc:Agent>
      <dc:title>Matplotlib v3.5.1, https://matplotlib.org/</dc:title>
     </cc:Agent>
    </dc:creator>
   </cc:Work>
  </rdf:RDF>
 </metadata>
 <defs>
  <style type="text/css">*{stroke-linejoin: round; stroke-linecap: butt}</style>
 </defs>
 <g id="figure_1">
  <g id="patch_1">
   <path d="M 0 345.6 
L 460.8 345.6 
L 460.8 0 
L 0 0 
z
" style="fill: #ffffff"/>
  </g>
  <g id="patch_2">
   <path d="M 57.6 345.6 
L 403.2 345.6 
L 403.2 0 
L 57.6 0 
z
" style="fill: #ffffff"/>
  </g>
  <g id="pane3d_1">
   <g id="patch_3">
    <path d="M 247.715622 245.074867 
L 392.885892 252.143801 
L 392.885892 84.115659 
L 247.715622 91.184592 
" style="fill: #f2f2f2; opacity: 0.5; stroke: #f2f2f2; stroke-linejoin: miter"/>
   </g>
  </g>
  <g id="pane3d_2">
   <g id="patch_4">
    <path d="M 247.715622 245.074867 
L 79.55348 250.920005 
L 79.55348 85.339455 
L 247.715622 91.184592 
" style="fill: #e6e6e6; opacity: 0.5; stroke: #e6e6e6; stroke-linejoin: miter"/>
   </g>
  </g>
  <g id="pane3d_3">
   <g id="patch_5">
    <path d="M 247.715622 245.074867 
L 79.55348 250.920005 
L 220.109931 259.161228 
L 392.885892 252.143801 
" style="fill: #ececec; opacity: 0.5; stroke: #ececec; stroke-linejoin: miter"/>
   </g>
  </g>
  <g id="axis3d_1">
   <g id="line2d_1">
    <path d="M 392.885892 252.143801 
L 220.109931 259.161228 
" style="fill: none; stroke: #000000; stroke-width: 0.8; stroke-linecap: square"/>
   </g>
   <g id="text_1">
    <!-- x -->
    <g transform="translate(328.481301 285.271448)scale(0.16 -0.16)">
     <defs>
      <path id="CMSS17-78" d="M 1587 1414 
L 2656 2739 
L 2099 2739 
L 1363 1777 
L 602 2739 
L 32 2739 
L 1139 1414 
L 0 0 
L 563 0 
L 1363 1121 
L 2195 0 
L 2758 0 
L 1587 1414 
z
" transform="scale(0.015625)"/>
     </defs>
     <use xlink:href="#CMSS17-78" transform="scale(0.996264)"/>
    </g>
   </g>
   <g id="Line3DCollection_1">
    <path d="M 389.691827 252.27353 
L 244.58541 245.18367 
L 244.58541 91.075789 
" style="fill: none; stroke: #b0b0b0; stroke-width: 0.8"/>
    <path d="M 358.519363 253.539624 
L 214.078765 246.244049 
L 214.078765 90.015411 
" style="fill: none; stroke: #b0b0b0; stroke-width: 0.8"/>
    <path d="M 326.394478 254.8444 
L 182.720768 247.334019 
L 182.720768 88.92544 
" style="fill: none; stroke: #b0b0b0; stroke-width: 0.8"/>
    <path d="M 293.272845 256.189661 
L 150.475278 248.454838 
L 150.475278 87.804621 
" style="fill: none; stroke: #b0b0b0; stroke-width: 0.8"/>
    <path d="M 259.107343 257.577319 
L 117.304077 249.607834 
L 117.304077 86.651626 
" style="fill: none; stroke: #b0b0b0; stroke-width: 0.8"/>
    <path d="M 223.847835 259.009411 
L 83.166722 250.794412 
L 83.166722 85.465047 
" style="fill: none; stroke: #b0b0b0; stroke-width: 0.8"/>
   </g>
   <g id="xtick_1">
    <g id="line2d_2">
     <path d="M 388.425096 252.211638 
L 392.230891 252.397588 
" style="fill: none; stroke: #000000; stroke-width: 0.8; stroke-linecap: square"/>
    </g>
    <g id="text_2">
     <!-- $\mathdefault{0}$ -->
     <g transform="translate(397.384722 270.50488)scale(0.1 -0.1)">
      <defs>
       <path id="CMR17-30" d="M 2688 2025 
C 2688 2416 2682 3080 2413 3591 
C 2176 4039 1798 4198 1466 4198 
C 1158 4198 768 4058 525 3597 
C 269 3118 243 2524 243 2025 
C 243 1661 250 1106 448 619 
C 723 -39 1216 -128 1466 -128 
C 1760 -128 2208 -7 2470 600 
C 2662 1042 2688 1559 2688 2025 
z
M 1466 -26 
C 1056 -26 813 325 723 812 
C 653 1188 653 1738 653 2096 
C 653 2588 653 2997 736 3387 
C 858 3929 1216 4096 1466 4096 
C 1728 4096 2067 3923 2189 3400 
C 2272 3036 2278 2607 2278 2096 
C 2278 1680 2278 1169 2202 792 
C 2067 95 1690 -26 1466 -26 
z
" transform="scale(0.015625)"/>
      </defs>
      <use xlink:href="#CMR17-30" transform="scale(0.996264)"/>
     </g>
    </g>
   </g>
   <g id="xtick_2">
    <g id="line2d_3">
     <path d="M 357.25686 253.475856 
L 361.050037 253.667446 
" style="fill: none; stroke: #000000; stroke-width: 0.8; stroke-linecap: square"/>
    </g>
    <g id="text_3">
     <!-- $\mathdefault{1}$ -->
     <g transform="translate(366.179287 271.949818)scale(0.1 -0.1)">
      <defs>
       <path id="CMR17-31" d="M 1702 4058 
C 1702 4192 1696 4192 1606 4192 
C 1357 3916 979 3827 621 3827 
C 602 3827 570 3827 563 3808 
C 557 3795 557 3782 557 3648 
C 755 3648 1088 3686 1344 3839 
L 1344 461 
C 1344 236 1331 160 781 160 
L 589 160 
L 589 0 
C 896 0 1216 0 1523 0 
C 1830 0 2150 0 2458 0 
L 2458 160 
L 2266 160 
C 1715 160 1702 230 1702 458 
L 1702 4058 
z
" transform="scale(0.015625)"/>
      </defs>
      <use xlink:href="#CMR17-31" transform="scale(0.996264)"/>
     </g>
    </g>
   </g>
   <g id="xtick_3">
    <g id="line2d_4">
     <path d="M 325.137054 254.77867 
L 328.915058 254.976161 
" style="fill: none; stroke: #000000; stroke-width: 0.8; stroke-linecap: square"/>
    </g>
    <g id="text_4">
     <!-- $\mathdefault{2}$ -->
     <g transform="translate(334.014611 273.439172)scale(0.1 -0.1)">
      <defs>
       <path id="CMR17-32" d="M 2669 989 
L 2554 989 
C 2490 536 2438 459 2413 420 
C 2381 369 1920 369 1830 369 
L 602 369 
C 832 619 1280 1072 1824 1597 
C 2214 1967 2669 2402 2669 3035 
C 2669 3790 2067 4224 1395 4224 
C 691 4224 262 3604 262 3030 
C 262 2780 448 2748 525 2748 
C 589 2748 781 2787 781 3010 
C 781 3207 614 3264 525 3264 
C 486 3264 448 3258 422 3245 
C 544 3790 915 4058 1306 4058 
C 1862 4058 2227 3617 2227 3035 
C 2227 2479 1901 2000 1536 1584 
L 262 146 
L 262 0 
L 2515 0 
L 2669 989 
z
" transform="scale(0.015625)"/>
      </defs>
      <use xlink:href="#CMR17-32" transform="scale(0.996264)"/>
     </g>
    </g>
   </g>
   <g id="xtick_4">
    <g id="line2d_5">
     <path d="M 292.021424 256.121876 
L 295.78148 256.325544 
" style="fill: none; stroke: #000000; stroke-width: 0.8; stroke-linecap: square"/>
    </g>
    <g id="text_5">
     <!-- $\mathdefault{3}$ -->
     <g transform="translate(300.845774 274.975022)scale(0.1 -0.1)">
      <defs>
       <path id="CMR17-33" d="M 1414 2157 
C 1984 2157 2234 1662 2234 1090 
C 2234 320 1824 25 1453 25 
C 1114 25 563 194 390 693 
C 422 680 454 680 486 680 
C 640 680 755 782 755 948 
C 755 1133 614 1216 486 1216 
C 378 1216 211 1165 211 926 
C 211 335 787 -128 1466 -128 
C 2176 -128 2720 430 2720 1085 
C 2720 1707 2208 2157 1600 2227 
C 2086 2328 2554 2756 2554 3329 
C 2554 3820 2048 4179 1472 4179 
C 890 4179 378 3829 378 3329 
C 378 3110 544 3072 627 3072 
C 762 3072 877 3155 877 3321 
C 877 3486 762 3569 627 3569 
C 602 3569 570 3569 544 3557 
C 730 3959 1235 4032 1459 4032 
C 1683 4032 2106 3925 2106 3320 
C 2106 3143 2080 2828 1862 2550 
C 1670 2304 1453 2304 1242 2284 
C 1210 2284 1062 2269 1037 2269 
C 992 2263 966 2257 966 2208 
C 966 2163 973 2157 1101 2157 
L 1414 2157 
z
" transform="scale(0.015625)"/>
      </defs>
      <use xlink:href="#CMR17-33" transform="scale(0.996264)"/>
     </g>
    </g>
   </g>
   <g id="xtick_5">
    <g id="line2d_6">
     <path d="M 257.862931 257.507382 
L 261.602019 257.717522 
" style="fill: none; stroke: #000000; stroke-width: 0.8; stroke-linecap: square"/>
    </g>
    <g id="text_6">
     <!-- $\mathdefault{4}$ -->
     <g transform="translate(266.625008 276.559582)scale(0.1 -0.1)">
      <defs>
       <path id="CMR17-34" d="M 2150 4122 
C 2150 4256 2144 4256 2029 4256 
L 128 1254 
L 128 1088 
L 1779 1088 
L 1779 457 
C 1779 224 1766 160 1318 160 
L 1197 160 
L 1197 0 
C 1402 0 1747 0 1965 0 
C 2182 0 2528 0 2733 0 
L 2733 160 
L 2611 160 
C 2163 160 2150 224 2150 457 
L 2150 1088 
L 2803 1088 
L 2803 1254 
L 2150 1254 
L 2150 4122 
z
M 1798 3703 
L 1798 1254 
L 256 1254 
L 1798 3703 
z
" transform="scale(0.015625)"/>
      </defs>
      <use xlink:href="#CMR17-34" transform="scale(0.996264)"/>
     </g>
    </g>
   </g>
   <g id="xtick_6">
    <g id="line2d_7">
     <path d="M 222.611524 258.937217 
L 226.326362 259.154143 
" style="fill: none; stroke: #000000; stroke-width: 0.8; stroke-linecap: square"/>
    </g>
    <g id="text_7">
     <!-- $\mathdefault{5}$ -->
     <g transform="translate(231.301464 278.195204)scale(0.1 -0.1)">
      <defs>
       <path id="CMR17-35" d="M 730 3692 
C 794 3666 1056 3584 1325 3584 
C 1920 3584 2246 3911 2432 4100 
C 2432 4157 2432 4192 2394 4192 
C 2387 4192 2374 4192 2323 4163 
C 2099 4058 1837 3973 1517 3973 
C 1325 3973 1037 3999 723 4139 
C 653 4171 640 4171 634 4171 
C 602 4171 595 4164 595 4037 
L 595 2203 
C 595 2089 595 2057 659 2057 
C 691 2057 704 2070 736 2114 
C 941 2401 1222 2522 1542 2522 
C 1766 2522 2246 2382 2246 1289 
C 2246 1085 2246 715 2054 421 
C 1894 159 1645 25 1370 25 
C 947 25 518 320 403 814 
C 429 807 480 795 506 795 
C 589 795 749 840 749 1038 
C 749 1210 627 1280 506 1280 
C 358 1280 262 1190 262 1011 
C 262 454 704 -128 1382 -128 
C 2042 -128 2669 440 2669 1264 
C 2669 2030 2170 2624 1549 2624 
C 1222 2624 947 2503 730 2274 
L 730 3692 
z
" transform="scale(0.015625)"/>
      </defs>
      <use xlink:href="#CMR17-35" transform="scale(0.996264)"/>
     </g>
    </g>
   </g>
  </g>
  <g id="axis3d_2">
   <g id="line2d_8">
    <path d="M 79.55348 250.920005 
L 220.109931 259.161228 
" style="fill: none; stroke: #000000; stroke-width: 0.8; stroke-linecap: square"/>
   </g>
   <g id="text_8">
    <!-- y -->
    <g transform="translate(117.062188 284.156111)scale(0.16 -0.16)">
     <defs>
      <path id="CMSS17-79" d="M 2675 2752 
L 2176 2752 
C 1632 1294 1446 702 1434 383 
L 1427 383 
C 1408 696 1126 1460 902 2007 
L 602 2752 
L 83 2752 
L 1216 13 
C 1146 -178 1043 -465 1011 -529 
C 870 -885 774 -885 672 -885 
C 646 -885 442 -885 211 -809 
L 250 -1229 
C 410 -1261 570 -1280 685 -1280 
C 845 -1280 1165 -1280 1459 -497 
L 2675 2752 
z
" transform="scale(0.015625)"/>
     </defs>
     <use xlink:href="#CMSS17-79" transform="scale(0.996264)"/>
    </g>
   </g>
   <g id="Line3DCollection_2">
    <path d="M 263.290493 90.426188 
L 263.290493 245.833271 
L 94.539328 251.798667 
" style="fill: none; stroke: #b0b0b0; stroke-width: 0.8"/>
    <path d="M 289.755431 89.137502 
L 289.755431 247.121957 
L 120.054962 253.294721 
" style="fill: none; stroke: #b0b0b0; stroke-width: 0.8"/>
    <path d="M 317.112996 87.805351 
L 317.112996 248.454109 
L 146.49968 254.84525 
" style="fill: none; stroke: #b0b0b0; stroke-width: 0.8"/>
    <path d="M 345.409124 86.427497 
L 345.409124 249.831963 
L 173.925169 256.453285 
" style="fill: none; stroke: #b0b0b0; stroke-width: 0.8"/>
    <path d="M 374.692956 85.001547 
L 374.692956 251.257912 
L 202.38702 258.122084 
" style="fill: none; stroke: #b0b0b0; stroke-width: 0.8"/>
   </g>
   <g id="xtick_7">
    <g id="line2d_9">
     <path d="M 95.992087 251.747312 
L 91.62845 251.901568 
" style="fill: none; stroke: #000000; stroke-width: 0.8; stroke-linecap: square"/>
    </g>
    <g id="text_9">
     <!-- $\mathdefault{−4}$ -->
     <g transform="translate(76.508048 269.873297)scale(0.1 -0.1)">
      <defs>
       <path id="CMSY10-0" d="M 4218 1472 
C 4326 1472 4442 1472 4442 1600 
C 4442 1728 4326 1728 4218 1728 
L 755 1728 
C 646 1728 531 1728 531 1600 
C 531 1472 646 1472 755 1472 
L 4218 1472 
z
" transform="scale(0.015625)"/>
      </defs>
      <use xlink:href="#CMSY10-0" transform="scale(0.996264)"/>
      <use xlink:href="#CMR17-34" transform="translate(77.487468 0)scale(0.996264)"/>
     </g>
    </g>
   </g>
   <g id="xtick_8">
    <g id="line2d_10">
     <path d="M 121.51774 253.241514 
L 117.123913 253.401337 
" style="fill: none; stroke: #000000; stroke-width: 0.8; stroke-linecap: square"/>
    </g>
    <g id="text_10">
     <!-- $\mathdefault{−2}$ -->
     <g transform="translate(101.942062 271.577338)scale(0.1 -0.1)">
      <use xlink:href="#CMSY10-0" transform="scale(0.996264)"/>
      <use xlink:href="#CMR17-32" transform="translate(77.487468 0)scale(0.996264)"/>
     </g>
    </g>
   </g>
   <g id="xtick_9">
    <g id="line2d_11">
     <path d="M 147.97225 254.790088 
L 143.548908 254.955786 
" style="fill: none; stroke: #000000; stroke-width: 0.8; stroke-linecap: square"/>
    </g>
    <g id="text_11">
     <!-- $\mathdefault{0}$ -->
     <g transform="translate(132.181292 273.343743)scale(0.1 -0.1)">
      <use xlink:href="#CMR17-30" transform="scale(0.996264)"/>
     </g>
    </g>
   </g>
   <g id="xtick_10">
    <g id="line2d_12">
     <path d="M 175.407259 256.396058 
L 170.955215 256.56796 
" style="fill: none; stroke: #000000; stroke-width: 0.8; stroke-linecap: square"/>
    </g>
    <g id="text_12">
     <!-- $\mathdefault{2}$ -->
     <g transform="translate(159.529048 275.176001)scale(0.1 -0.1)">
      <use xlink:href="#CMR17-32" transform="scale(0.996264)"/>
     </g>
    </g>
   </g>
   <g id="xtick_11">
    <g id="line2d_13">
     <path d="M 203.878305 258.062675 
L 199.398531 258.241137 
" style="fill: none; stroke: #000000; stroke-width: 0.8; stroke-linecap: square"/>
    </g>
    <g id="text_13">
     <!-- $\mathdefault{4}$ -->
     <g transform="translate(187.91571 277.077864)scale(0.1 -0.1)">
      <use xlink:href="#CMR17-34" transform="scale(0.996264)"/>
     </g>
    </g>
   </g>
  </g>
  <g id="axis3d_3">
   <g id="line2d_14">
    <path d="M 79.55348 250.920005 
L 79.55348 85.339455 
" style="fill: none; stroke: #000000; stroke-width: 0.8; stroke-linecap: square"/>
   </g>
   <g id="text_14">
    <!-- z -->
    <g transform="translate(33.370174 172.114786)scale(0.16 -0.16)">
     <defs>
      <path id="CMSS17-7a" d="M 2400 2502 
L 2400 2750 
L 250 2750 
L 250 2368 
L 1069 2368 
C 1146 2368 1222 2368 1299 2368 
L 1747 2368 
L 166 261 
L 166 0 
L 2419 0 
L 2419 395 
L 1549 395 
C 1472 395 1395 395 1318 395 
L 826 395 
L 2400 2502 
z
" transform="scale(0.015625)"/>
     </defs>
     <use xlink:href="#CMSS17-7a" transform="scale(0.996264)"/>
    </g>
   </g>
   <g id="Line3DCollection_3">
    <path d="M 79.55348 247.608394 
L 247.715622 241.997062 
L 392.885892 248.783238 
" style="fill: none; stroke: #b0b0b0; stroke-width: 0.8"/>
    <path d="M 79.55348 215.816928 
L 247.715622 212.450129 
L 392.885892 216.521835 
" style="fill: none; stroke: #b0b0b0; stroke-width: 0.8"/>
    <path d="M 79.55348 184.025462 
L 247.715622 182.903196 
L 392.885892 184.260431 
" style="fill: none; stroke: #b0b0b0; stroke-width: 0.8"/>
    <path d="M 79.55348 152.233997 
L 247.715622 153.356263 
L 392.885892 151.999028 
" style="fill: none; stroke: #b0b0b0; stroke-width: 0.8"/>
    <path d="M 79.55348 120.442531 
L 247.715622 123.809331 
L 392.885892 119.737625 
" style="fill: none; stroke: #b0b0b0; stroke-width: 0.8"/>
    <path d="M 79.55348 88.651066 
L 247.715622 94.262398 
L 392.885892 87.476222 
" style="fill: none; stroke: #b0b0b0; stroke-width: 0.8"/>
   </g>
   <g id="xtick_12">
    <g id="line2d_15">
     <path d="M 81.000093 247.560122 
L 76.654972 247.705113 
" style="fill: none; stroke: #000000; stroke-width: 0.8; stroke-linecap: square"/>
    </g>
    <g id="text_15">
     <!-- $\mathdefault{0}$ -->
     <g transform="translate(57.354294 254.452995)scale(0.1 -0.1)">
      <use xlink:href="#CMR17-30" transform="scale(0.996264)"/>
     </g>
    </g>
   </g>
   <g id="xtick_13">
    <g id="line2d_16">
     <path d="M 81.000093 215.787965 
L 76.654972 215.874959 
" style="fill: none; stroke: #000000; stroke-width: 0.8; stroke-linecap: square"/>
    </g>
    <g id="text_16">
     <!-- $\mathdefault{1}$ -->
     <g transform="translate(57.354294 222.691088)scale(0.1 -0.1)">
      <use xlink:href="#CMR17-31" transform="scale(0.996264)"/>
     </g>
    </g>
   </g>
   <g id="xtick_14">
    <g id="line2d_17">
     <path d="M 81.000093 184.015808 
L 76.654972 184.044806 
" style="fill: none; stroke: #000000; stroke-width: 0.8; stroke-linecap: square"/>
    </g>
    <g id="text_17">
     <!-- $\mathdefault{2}$ -->
     <g transform="translate(57.354294 190.929181)scale(0.1 -0.1)">
      <use xlink:href="#CMR17-32" transform="scale(0.996264)"/>
     </g>
    </g>
   </g>
   <g id="xtick_15">
    <g id="line2d_18">
     <path d="M 81.000093 152.243651 
L 76.654972 152.214653 
" style="fill: none; stroke: #000000; stroke-width: 0.8; stroke-linecap: square"/>
    </g>
    <g id="text_18">
     <!-- $\mathdefault{3}$ -->
     <g transform="translate(57.354294 159.167275)scale(0.1 -0.1)">
      <use xlink:href="#CMR17-33" transform="scale(0.996264)"/>
     </g>
    </g>
   </g>
   <g id="xtick_16">
    <g id="line2d_19">
     <path d="M 81.000093 120.471494 
L 76.654972 120.3845 
" style="fill: none; stroke: #000000; stroke-width: 0.8; stroke-linecap: square"/>
    </g>
    <g id="text_19">
     <!-- $\mathdefault{4}$ -->
     <g transform="translate(57.354294 127.405368)scale(0.1 -0.1)">
      <use xlink:href="#CMR17-34" transform="scale(0.996264)"/>
     </g>
    </g>
   </g>
   <g id="xtick_17">
    <g id="line2d_20">
     <path d="M 81.000093 88.699337 
L 76.654972 88.554347 
" style="fill: none; stroke: #000000; stroke-width: 0.8; stroke-linecap: square"/>
    </g>
    <g id="text_20">
     <!-- $\mathdefault{5}$ -->
     <g transform="translate(57.354294 95.643462)scale(0.1 -0.1)">
      <use xlink:href="#CMR17-35" transform="scale(0.996264)"/>
     </g>
    </g>
   </g>
  </g>
  <g id="axes_1">
   <g id="line2d_21">
    <path d="M 313.947556 245.354967 
L 325.688094 87.728181 
" clip-path="url(#p2eb34b2dcb)" style="fill: none; stroke: #ff0000; stroke-width: 1.5; stroke-linecap: square"/>
   </g>
   <g id="line2d_22">
    <path d="M 313.947556 245.354967 
L 224.247399 121.257703 
" clip-path="url(#p2eb34b2dcb)" style="fill: none; stroke: #00ff00; stroke-width: 1.5; stroke-linecap: square"/>
   </g>
   <g id="line2d_23">
    <path d="M 313.947556 245.354967 
L 244.379543 -1 
" clip-path="url(#p2eb34b2dcb)" style="fill: none; stroke: #0016ff; stroke-width: 1.5; stroke-linecap: square"/>
   </g>
   <g id="line2d_24">
    <path d="M 313.947556 245.354967 
L 110.8252 151.948011 
" clip-path="url(#p2eb34b2dcb)" style="fill: none; stroke: #f400ff; stroke-width: 1.5; stroke-linecap: square"/>
   </g>
   <g id="Poly3DCollection_1">
    <path d="M 247.247495 353.371351 
L 232.090885 313.607268 
L 238.498795 302.966686 
L 253.673315 342.965156 
z
" clip-path="url(#p2eb34b2dcb)" style="fill: #0000f5; fill-opacity: 0.1"/>
    <path d="M 253.673315 342.965156 
L 238.498795 302.966686 
L 244.959411 292.238585 
L 260.151625 332.473956 
z
" clip-path="url(#p2eb34b2dcb)" style="fill: #0000f5; fill-opacity: 0.1"/>
    <path d="M 232.090885 313.607268 
L 216.72534 273.295035 
L 223.114231 262.414561 
L 238.498795 302.966686 
z
" clip-path="url(#p2eb34b2dcb)" style="fill: #0000f5; fill-opacity: 0.1"/>
    <path d="M 260.151625 332.473956 
L 244.959411 292.238585 
L 251.473385 281.421879 
L 266.683072 321.896706 
z
" clip-path="url(#p2eb34b2dcb)" style="fill: #0000f5; fill-opacity: 0.1"/>
    <path d="M 238.498795 302.966686 
L 223.114231 262.414561 
L 229.556037 251.443972 
L 244.959411 292.238585 
z
" clip-path="url(#p2eb34b2dcb)" style="fill: #0000f5; fill-opacity: 0.1"/>
    <path d="M 266.683072 321.896706 
L 251.473385 281.421879 
L 258.041382 270.515468 
L 273.268312 311.232341 
z
" clip-path="url(#p2eb34b2dcb)" style="fill: #0000f5; fill-opacity: 0.1"/>
    <path d="M 216.72534 273.295035 
L 201.14651 232.423239 
L 207.515232 221.297205 
L 223.114231 262.414561 
z
" clip-path="url(#p2eb34b2dcb)" style="fill: #0000f5; fill-opacity: 0.1"/>
    <path d="M 244.959411 292.238585 
L 229.556037 251.443972 
L 236.051416 240.382145 
L 251.473385 281.421879 
z
" clip-path="url(#p2eb34b2dcb)" style="fill: #0000f5; fill-opacity: 0.1"/>
    <path d="M 273.268312 311.232341 
L 258.041382 270.515468 
L 264.664075 259.51823 
L 279.908011 300.479782 
z
" clip-path="url(#p2eb34b2dcb)" style="fill: #0000f5; fill-opacity: 0.1"/>
    <path d="M 223.114231 262.414561 
L 207.515232 221.297205 
L 213.937069 210.078378 
L 229.556037 251.443972 
z
" clip-path="url(#p2eb34b2dcb)" style="fill: #0000f5; fill-opacity: 0.1"/>
    <path d="M 251.473385 281.421879 
L 236.051416 240.382145 
L 242.601042 229.227936 
L 258.041382 270.515468 
z
" clip-path="url(#p2eb34b2dcb)" style="fill: #0000f5; fill-opacity: 0.1"/>
    <path d="M 279.908011 300.479782 
L 264.664075 259.51823 
L 271.342152 248.429026 
L 286.60285 289.63793 
z
" clip-path="url(#p2eb34b2dcb)" style="fill: #0000f5; fill-opacity: 0.1"/>
    <path d="M 201.14651 232.423239 
L 185.349924 190.980147 
L 191.697281 179.602718 
L 207.515232 221.297205 
z
" clip-path="url(#p2eb34b2dcb)" style="fill: #0000f5; fill-opacity: 0.1"/>
    <path d="M 229.556037 251.443972 
L 213.937069 210.078378 
L 220.41269 198.765592 
L 236.051416 240.382145 
z
" clip-path="url(#p2eb34b2dcb)" style="fill: #0000f5; fill-opacity: 0.1"/>
    <path d="M 258.041382 270.515468 
L 242.601042 229.227936 
L 249.205595 217.980182 
L 264.664075 259.51823 
z
" clip-path="url(#p2eb34b2dcb)" style="fill: #0000f5; fill-opacity: 0.1"/>
    <path d="M 286.60285 289.63793 
L 271.342152 248.429026 
L 278.076309 237.246698 
L 293.353516 278.705667 
z
" clip-path="url(#p2eb34b2dcb)" style="fill: #0000f5; fill-opacity: 0.1"/>
    <path d="M 207.515232 221.297205 
L 191.697281 179.602718 
L 198.09795 168.12973 
L 213.937069 210.078378 
z
" clip-path="url(#p2eb34b2dcb)" style="fill: #0000f5; fill-opacity: 0.1"/>
    <path d="M 236.051416 240.382145 
L 220.41269 198.765592 
L 226.942773 187.357662 
L 242.601042 229.227936 
z
" clip-path="url(#p2eb34b2dcb)" style="fill: #0000f5; fill-opacity: 0.1"/>
    <path d="M 264.664075 259.51823 
L 249.205595 217.980182 
L 255.86577 206.637704 
L 271.342152 248.429026 
z
" clip-path="url(#p2eb34b2dcb)" style="fill: #0000f5; fill-opacity: 0.1"/>
    <path d="M 185.349924 190.980147 
L 169.330983 148.953697 
L 175.655738 137.318862 
L 191.697281 179.602718 
z
" clip-path="url(#p2eb34b2dcb)" style="fill: #0000f5; fill-opacity: 0.1"/>
    <path d="M 293.353516 278.705667 
L 278.076309 237.246698 
L 284.867257 225.970068 
L 300.160712 267.681859 
z
" clip-path="url(#p2eb34b2dcb)" style="fill: #0000f5; fill-opacity: 0.1"/>
    <path d="M 213.937069 210.078378 
L 198.09795 168.12973 
L 204.552604 156.559974 
L 220.41269 198.765592 
z
" clip-path="url(#p2eb34b2dcb)" style="fill: #0000f5; fill-opacity: 0.1"/>
    <path d="M 242.601042 229.227936 
L 226.942773 187.357662 
L 233.528009 175.853382 
L 249.205595 217.980182 
z
" clip-path="url(#p2eb34b2dcb)" style="fill: #0000f5; fill-opacity: 0.1"/>
    <path d="M 271.342152 248.429026 
L 255.86577 206.637704 
L 262.582272 195.199298 
L 278.076309 237.246698 
z
" clip-path="url(#p2eb34b2dcb)" style="fill: #0000f5; fill-opacity: 0.1"/>
    <path d="M 191.697281 179.602718 
L 175.655738 137.318862 
L 182.033991 125.585613 
L 198.09795 168.12973 
z
" clip-path="url(#p2eb34b2dcb)" style="fill: #0000f5; fill-opacity: 0.1"/>
    <path d="M 300.160712 267.681859 
L 284.867257 225.970068 
L 291.715717 214.597937 
L 307.02515 256.565351 
z
" clip-path="url(#p2eb34b2dcb)" style="fill: #0000f5; fill-opacity: 0.1"/>
    <path d="M 220.41269 198.765592 
L 204.552604 156.559974 
L 211.06193 144.892222 
L 226.942773 187.357662 
z
" clip-path="url(#p2eb34b2dcb)" style="fill: #0000f5; fill-opacity: 0.1"/>
    <path d="M 249.205595 217.980182 
L 233.528009 175.853382 
L 240.169098 164.251526 
L 255.86577 206.637704 
z
" clip-path="url(#p2eb34b2dcb)" style="fill: #0000f5; fill-opacity: 0.1"/>
    <path d="M 169.330983 148.953697 
L 153.084959 106.331484 
L 159.385827 94.433052 
L 175.655738 137.318862 
z
" clip-path="url(#p2eb34b2dcb)" style="fill: #0000f5; fill-opacity: 0.1"/>
    <path d="M 278.076309 237.246698 
L 262.582272 195.199298 
L 269.355819 183.663743 
L 284.867257 225.970068 
z
" clip-path="url(#p2eb34b2dcb)" style="fill: #0000f5; fill-opacity: 0.1"/>
    <path d="M 198.09795 168.12973 
L 182.033991 125.585613 
L 188.466425 113.752695 
L 204.552604 156.559974 
z
" clip-path="url(#p2eb34b2dcb)" style="fill: #0000f5; fill-opacity: 0.1"/>
    <path d="M 307.02515 256.565351 
L 291.715717 214.597937 
L 298.622421 203.129088 
L 313.947556 245.354967 
z
" clip-path="url(#p2eb34b2dcb)" style="fill: #0000f5; fill-opacity: 0.1"/>
    <path d="M 226.942773 187.357662 
L 211.06193 144.892222 
L 217.626625 133.125222 
L 233.528009 175.853382 
z
" clip-path="url(#p2eb34b2dcb)" style="fill: #0000f5; fill-opacity: 0.1"/>
    <path d="M 255.86577 206.637704 
L 240.169098 164.251526 
L 246.866754 152.550849 
L 262.582272 195.199298 
z
" clip-path="url(#p2eb34b2dcb)" style="fill: #0000f5; fill-opacity: 0.1"/>
    <path d="M 175.655738 137.318862 
L 159.385827 94.433052 
L 165.740372 82.433257 
L 182.033991 125.585613 
z
" clip-path="url(#p2eb34b2dcb)" style="fill: #0000f5; fill-opacity: 0.1"/>
    <path d="M 284.867257 225.970068 
L 269.355819 183.663743 
L 276.187141 172.029795 
L 291.715717 214.597937 
z
" clip-path="url(#p2eb34b2dcb)" style="fill: #0000f5; fill-opacity: 0.1"/>
    <path d="M 204.552604 156.559974 
L 188.466425 113.752695 
L 194.953732 101.818835 
L 211.06193 144.892222 
z
" clip-path="url(#p2eb34b2dcb)" style="fill: #0000f5; fill-opacity: 0.1"/>
    <path d="M 313.947556 245.354967 
L 298.622421 203.129088 
L 305.588118 191.562281 
L 320.928667 234.049515 
z
" clip-path="url(#p2eb34b2dcb)" style="fill: #0000f5; fill-opacity: 0.1"/>
    <path d="M 233.528009 175.853382 
L 217.626625 133.125222 
L 224.247399 121.257703 
L 240.169098 164.251526 
z
" clip-path="url(#p2eb34b2dcb)" style="fill: #0000f5; fill-opacity: 0.1"/>
    <path d="M 153.084959 106.331484 
L 136.606989 63.100751 
L 142.882636 50.932343 
L 159.385827 94.433052 
z
" clip-path="url(#p2eb34b2dcb)" style="fill: #0000f5; fill-opacity: 0.1"/>
    <path d="M 262.582272 195.199298 
L 246.866754 152.550849 
L 253.621704 140.750081 
L 269.355819 183.663743 
z
" clip-path="url(#p2eb34b2dcb)" style="fill: #0000f5; fill-opacity: 0.1"/>
    <path d="M 182.033991 125.585613 
L 165.740372 82.433257 
L 172.149284 70.330798 
L 188.466425 113.752695 
z
" clip-path="url(#p2eb34b2dcb)" style="fill: #0000f5; fill-opacity: 0.1"/>
    <path d="M 291.715717 214.597937 
L 276.187141 172.029795 
L 283.076981 160.296191 
L 298.622421 203.129088 
z
" clip-path="url(#p2eb34b2dcb)" style="fill: #0000f5; fill-opacity: 0.1"/>
    <path d="M 211.06193 144.892222 
L 194.953732 101.818835 
L 201.496618 89.782733 
L 217.626625 133.125222 
z
" clip-path="url(#p2eb34b2dcb)" style="fill: #0000f5; fill-opacity: 0.1"/>
    <path d="M 320.928667 234.049515 
L 305.588118 191.562281 
L 312.613564 179.896255 
L 327.969232 222.64778 
z
" clip-path="url(#p2eb34b2dcb)" style="fill: #0000f5; fill-opacity: 0.1"/>
    <path d="M 240.169098 164.251526 
L 224.247399 121.257703 
L 230.924973 109.288371 
L 246.866754 152.550849 
z
" clip-path="url(#p2eb34b2dcb)" style="fill: #0000f5; fill-opacity: 0.1"/>
    <path d="M 159.385827 94.433052 
L 142.882636 50.932343 
L 149.212131 38.659525 
L 165.740372 82.433257 
z
" clip-path="url(#p2eb34b2dcb)" style="fill: #0000f5; fill-opacity: 0.1"/>
    <path d="M 269.355819 183.663743 
L 253.621704 140.750081 
L 260.434685 128.847933 
L 276.187141 172.029795 
z
" clip-path="url(#p2eb34b2dcb)" style="fill: #0000f5; fill-opacity: 0.1"/>
    <path d="M 188.466425 113.752695 
L 172.149284 70.330798 
L 178.613262 58.124351 
L 194.953732 101.818835 
z
" clip-path="url(#p2eb34b2dcb)" style="fill: #0000f5; fill-opacity: 0.1"/>
    <path d="M 298.622421 203.129088 
L 283.076981 160.296191 
L 290.026092 148.461644 
L 305.588118 191.562281 
z
" clip-path="url(#p2eb34b2dcb)" style="fill: #0000f5; fill-opacity: 0.1"/>
    <path d="M 217.626625 133.125222 
L 201.496618 89.782733 
L 208.095799 77.643071 
L 224.247399 121.257703 
z
" clip-path="url(#p2eb34b2dcb)" style="fill: #0000f5; fill-opacity: 0.1"/>
    <path d="M 136.606989 63.100751 
L 119.89207 19.248371 
L 126.141113 6.803413 
L 142.882636 50.932343 
z
" clip-path="url(#p2eb34b2dcb)" style="fill: #0000f5; fill-opacity: 0.1"/>
    <path d="M 327.969232 222.64778 
L 312.613564 179.896255 
L 319.699534 168.12973 
L 335.070015 211.148526 
z
" clip-path="url(#p2eb34b2dcb)" style="fill: #0000f5; fill-opacity: 0.1"/>
    <path d="M 246.866754 152.550849 
L 230.924973 109.288371 
L 237.660081 97.21591 
L 253.621704 140.750081 
z
" clip-path="url(#p2eb34b2dcb)" style="fill: #0000f5; fill-opacity: 0.1"/>
    <path d="M 165.740372 82.433257 
L 149.212131 38.659525 
L 155.59617 26.280948 
L 172.149284 70.330798 
z
" clip-path="url(#p2eb34b2dcb)" style="fill: #0000f5; fill-opacity: 0.1"/>
    <path d="M 276.187141 172.029795 
L 260.434685 128.847933 
L 267.306449 116.843093 
L 283.076981 160.296191 
z
" clip-path="url(#p2eb34b2dcb)" style="fill: #0000f5; fill-opacity: 0.1"/>
    <path d="M 194.953732 101.818835 
L 178.613262 58.124351 
L 185.13302 45.812571 
L 201.496618 89.782733 
z
" clip-path="url(#p2eb34b2dcb)" style="fill: #0000f5; fill-opacity: 0.1"/>
    <path d="M 305.588118 191.562281 
L 290.026092 148.461644 
L 297.035244 136.524847 
L 312.613564 179.896255 
z
" clip-path="url(#p2eb34b2dcb)" style="fill: #0000f5; fill-opacity: 0.1"/>
    <path d="M 224.247399 121.257703 
L 208.095799 77.643071 
L 214.752006 65.398507 
L 230.924973 109.288371 
z
" clip-path="url(#p2eb34b2dcb)" style="fill: #0000f5; fill-opacity: 0.1"/>
    <path d="M 142.882636 50.932343 
L 126.141113 6.803413 
L 132.444165 -5.749102 
L 149.212131 38.659525 
z
" clip-path="url(#p2eb34b2dcb)" style="fill: #0000f5; fill-opacity: 0.1"/>
    <path d="M 335.070015 211.148526 
L 319.699534 168.12973 
L 326.846812 156.2614 
L 342.231792 199.550497 
z
" clip-path="url(#p2eb34b2dcb)" style="fill: #0000f5; fill-opacity: 0.1"/>
    <path d="M 253.621704 140.750081 
L 237.660081 97.21591 
L 244.453471 85.038982 
L 260.434685 128.847933 
z
" clip-path="url(#p2eb34b2dcb)" style="fill: #0000f5; fill-opacity: 0.1"/>
    <path d="M 172.149284 70.330798 
L 155.59617 26.280948 
L 162.03546 13.795239 
L 178.613262 58.124351 
z
" clip-path="url(#p2eb34b2dcb)" style="fill: #0000f5; fill-opacity: 0.1"/>
    <path d="M 283.076981 160.296191 
L 267.306449 116.843093 
L 274.23776 104.734226 
L 290.026092 148.461644 
z
" clip-path="url(#p2eb34b2dcb)" style="fill: #0000f5; fill-opacity: 0.1"/>
    <path d="M 201.496618 89.782733 
L 185.13302 45.812571 
L 191.709283 33.394088 
L 208.095799 77.643071 
z
" clip-path="url(#p2eb34b2dcb)" style="fill: #0000f5; fill-opacity: 0.1"/>
    <path d="M 119.89207 19.248371 
L 102.935055 -25.239161 
L 109.156057 -37.967445 
L 126.141113 6.803413 
z
" clip-path="url(#p2eb34b2dcb)" style="fill: #0000f5; fill-opacity: 0.1"/>
    <path d="M 312.613564 179.896255 
L 297.035244 136.524847 
L 304.105218 124.484468 
L 319.699534 168.12973 
z
" clip-path="url(#p2eb34b2dcb)" style="fill: #0000f5; fill-opacity: 0.1"/>
    <path d="M 230.924973 109.288371 
L 214.752006 65.398507 
L 221.465982 53.047674 
L 237.660081 97.21591 
z
" clip-path="url(#p2eb34b2dcb)" style="fill: #0000f5; fill-opacity: 0.1"/>
    <path d="M 149.212131 38.659525 
L 132.444165 -5.749102 
L 138.801927 -18.410574 
L 155.59617 26.280948 
z
" clip-path="url(#p2eb34b2dcb)" style="fill: #0000f5; fill-opacity: 0.1"/>
    <path d="M 342.231792 199.550497 
L 326.846812 156.2614 
L 334.056197 144.289938 
L 349.455352 187.852415 
z
" clip-path="url(#p2eb34b2dcb)" style="fill: #0000f5; fill-opacity: 0.1"/>
    <path d="M 260.434685 128.847933 
L 244.453471 85.038982 
L 251.305902 72.756226 
L 267.306449 116.843093 
z
" clip-path="url(#p2eb34b2dcb)" style="fill: #0000f5; fill-opacity: 0.1"/>
    <path d="M 178.613262 58.124351 
L 162.03546 13.795239 
L 168.530722 1.201001 
L 185.13302 45.812571 
z
" clip-path="url(#p2eb34b2dcb)" style="fill: #0000f5; fill-opacity: 0.1"/>
    <path d="M 290.026092 148.461644 
L 274.23776 104.734226 
L 281.229394 92.519975 
L 297.035244 136.524847 
z
" clip-path="url(#p2eb34b2dcb)" style="fill: #0000f5; fill-opacity: 0.1"/>
    <path d="M 208.095799 77.643071 
L 191.709283 33.394088 
L 198.342789 20.86751 
L 214.752006 65.398507 
z
" clip-path="url(#p2eb34b2dcb)" style="fill: #0000f5; fill-opacity: 0.1"/>
    <path d="M 126.141113 6.803413 
L 109.156057 -37.967445 
L 115.431219 -50.806537 
L 132.444165 -5.749102 
z
" clip-path="url(#p2eb34b2dcb)" style="fill: #0000f5; fill-opacity: 0.1"/>
    <path d="M 319.699534 168.12973 
L 304.105218 124.484468 
L 311.23681 112.339153 
L 326.846812 156.2614 
z
" clip-path="url(#p2eb34b2dcb)" style="fill: #0000f5; fill-opacity: 0.1"/>
    <path d="M 237.660081 97.21591 
L 221.465982 53.047674 
L 228.23848 40.589183 
L 244.453471 85.038982 
z
" clip-path="url(#p2eb34b2dcb)" style="fill: #0000f5; fill-opacity: 0.1"/>
    <path d="M 155.59617 26.280948 
L 138.801927 -18.410574 
L 145.215116 -31.182428 
L 162.03546 13.795239 
z
" clip-path="url(#p2eb34b2dcb)" style="fill: #0000f5; fill-opacity: 0.1"/>
    <path d="M 349.455352 187.852415 
L 334.056197 144.289938 
L 341.328502 132.213995 
L 356.741497 176.05298 
z
" clip-path="url(#p2eb34b2dcb)" style="fill: #0000f5; fill-opacity: 0.1"/>
    <path d="M 267.306449 116.843093 
L 251.305902 72.756226 
L 258.218147 60.366254 
L 274.23776 104.734226 
z
" clip-path="url(#p2eb34b2dcb)" style="fill: #0000f5; fill-opacity: 0.1"/>
    <path d="M 185.13302 45.812571 
L 168.530722 1.201001 
L 175.082688 -11.503187 
L 191.709283 33.394088 
z
" clip-path="url(#p2eb34b2dcb)" style="fill: #0000f5; fill-opacity: 0.1"/>
    <path d="M 297.035244 136.524847 
L 281.229394 92.519975 
L 288.282144 80.198956 
L 304.105218 124.484468 
z
" clip-path="url(#p2eb34b2dcb)" style="fill: #0000f5; fill-opacity: 0.1"/>
    <path d="M 214.752006 65.398507 
L 198.342789 20.86751 
L 205.034288 8.231418 
L 221.465982 53.047674 
z
" clip-path="url(#p2eb34b2dcb)" style="fill: #0000f5; fill-opacity: 0.1"/>
    <path d="M 132.444165 -5.749102 
L 115.431219 -50.806537 
L 121.761249 -63.757892 
L 138.801927 -18.410574 
z
" clip-path="url(#p2eb34b2dcb)" style="fill: #0000f5; fill-opacity: 0.1"/>
    <path d="M 326.846812 156.2614 
L 311.23681 112.339153 
L 318.430827 100.087525 
L 334.056197 144.289938 
z
" clip-path="url(#p2eb34b2dcb)" style="fill: #0000f5; fill-opacity: 0.1"/>
    <path d="M 244.453471 85.038982 
L 228.23848 40.589183 
L 235.07027 28.021621 
L 251.305902 72.756226 
z
" clip-path="url(#p2eb34b2dcb)" style="fill: #0000f5; fill-opacity: 0.1"/>
    <path d="M 162.03546 13.795239 
L 145.215116 -31.182428 
L 151.68446 -44.066114 
L 168.530722 1.201001 
z
" clip-path="url(#p2eb34b2dcb)" style="fill: #0000f5; fill-opacity: 0.1"/>
    <path d="M 356.741497 176.05298 
L 341.328502 132.213995 
L 348.664555 120.032196 
L 364.091045 164.150868 
z
" clip-path="url(#p2eb34b2dcb)" style="fill: #0000f5; fill-opacity: 0.1"/>
    <path d="M 274.23776 104.734226 
L 258.218147 60.366254 
L 265.190992 47.867658 
L 281.229394 92.519975 
z
" clip-path="url(#p2eb34b2dcb)" style="fill: #0000f5; fill-opacity: 0.1"/>
    <path d="M 191.709283 33.394088 
L 175.082688 -11.503187 
L 181.692106 -24.318772 
L 198.342789 20.86751 
z
" clip-path="url(#p2eb34b2dcb)" style="fill: #0000f5; fill-opacity: 0.1"/>
    <path d="M 304.105218 124.484468 
L 288.282144 80.198956 
L 295.396813 67.769765 
L 311.23681 112.339153 
z
" clip-path="url(#p2eb34b2dcb)" style="fill: #0000f5; fill-opacity: 0.1"/>
    <path d="M 221.465982 53.047674 
L 205.034288 8.231418 
L 211.784544 -4.51563 
L 228.23848 40.589183 
z
" clip-path="url(#p2eb34b2dcb)" style="fill: #0000f5; fill-opacity: 0.1"/>
    <path d="M 138.801927 -18.410574 
L 121.761249 -63.757892 
L 128.14687 -76.822988 
L 145.215116 -31.182428 
z
" clip-path="url(#p2eb34b2dcb)" style="fill: #0000f5; fill-opacity: 0.1"/>
    <path d="M 334.056197 144.289938 
L 318.430827 100.087525 
L 325.688094 87.728181 
L 341.328502 132.213995 
z
" clip-path="url(#p2eb34b2dcb)" style="fill: #0000f5; fill-opacity: 0.1"/>
    <path d="M 251.305902 72.756226 
L 235.07027 28.021621 
L 241.962134 15.343549 
L 258.218147 60.366254 
z
" clip-path="url(#p2eb34b2dcb)" style="fill: #0000f5; fill-opacity: 0.1"/>
    <path d="M 168.530722 1.201001 
L 151.68446 -44.066114 
L 158.210699 -57.063107 
L 175.082688 -11.503187 
z
" clip-path="url(#p2eb34b2dcb)" style="fill: #0000f5; fill-opacity: 0.1"/>
    <path d="M 364.091045 164.150868 
L 348.664555 120.032196 
L 356.065198 107.743143 
L 371.504827 152.144734 
z
" clip-path="url(#p2eb34b2dcb)" style="fill: #0000f5; fill-opacity: 0.1"/>
    <path d="M 281.229394 92.519975 
L 265.190992 47.867658 
L 272.225239 35.259003 
L 288.282144 80.198956 
z
" clip-path="url(#p2eb34b2dcb)" style="fill: #0000f5; fill-opacity: 0.1"/>
    <path d="M 198.342789 20.86751 
L 181.692106 -24.318772 
L 188.359733 -37.247224 
L 205.034288 8.231418 
z
" clip-path="url(#p2eb34b2dcb)" style="fill: #0000f5; fill-opacity: 0.1"/>
    <path d="M 311.23681 112.339153 
L 295.396813 67.769765 
L 302.574221 55.230971 
L 318.430827 100.087525 
z
" clip-path="url(#p2eb34b2dcb)" style="fill: #0000f5; fill-opacity: 0.1"/>
    <path d="M 228.23848 40.589183 
L 211.784544 -4.51563 
L 218.594335 -17.375101 
L 235.07027 28.021621 
z
" clip-path="url(#p2eb34b2dcb)" style="fill: #0000f5; fill-opacity: 0.1"/>
    <path d="M 145.215116 -31.182428 
L 128.14687 -76.822988 
L 134.588819 -90.003331 
L 151.68446 -44.066114 
z
" clip-path="url(#p2eb34b2dcb)" style="fill: #0000f5; fill-opacity: 0.1"/>
    <path d="M 341.328502 132.213995 
L 325.688094 87.728181 
L 333.009448 75.259694 
L 348.664555 120.032196 
z
" clip-path="url(#p2eb34b2dcb)" style="fill: #0000f5; fill-opacity: 0.1"/>
    <path d="M 258.218147 60.366254 
L 241.962134 15.343549 
L 248.914868 2.553503 
L 265.190992 47.867658 
z
" clip-path="url(#p2eb34b2dcb)" style="fill: #0000f5; fill-opacity: 0.1"/>
    <path d="M 175.082688 -11.503187 
L 158.210699 -57.063107 
L 164.794588 -70.174909 
L 181.692106 -24.318772 
z
" clip-path="url(#p2eb34b2dcb)" style="fill: #0000f5; fill-opacity: 0.1"/>
    <path d="M 371.504827 152.144734 
L 356.065198 107.743143 
L 363.531287 95.345415 
L 378.983688 140.033207 
z
" clip-path="url(#p2eb34b2dcb)" style="fill: #0000f5; fill-opacity: 0.1"/>
    <path d="M 288.282144 80.198956 
L 272.225239 35.259003 
L 279.321701 22.538828 
L 295.396813 67.769765 
z
" clip-path="url(#p2eb34b2dcb)" style="fill: #0000f5; fill-opacity: 0.1"/>
    <path d="M 205.034288 8.231418 
L 188.359733 -37.247224 
L 195.086343 -50.290042 
L 211.784544 -4.51563 
z
" clip-path="url(#p2eb34b2dcb)" style="fill: #0000f5; fill-opacity: 0.1"/>
    <path d="M 318.430827 100.087525 
L 302.574221 55.230971 
L 309.815202 42.581116 
L 325.688094 87.728181 
z
" clip-path="url(#p2eb34b2dcb)" style="fill: #0000f5; fill-opacity: 0.1"/>
    <path d="M 235.07027 28.021621 
L 218.594335 -17.375101 
L 225.464451 -30.34849 
L 241.962134 15.343549 
z
" clip-path="url(#p2eb34b2dcb)" style="fill: #0000f5; fill-opacity: 0.1"/>
    <path d="M 151.68446 -44.066114 
L 134.588819 -90.003331 
L 141.087843 -103.300451 
L 158.210699 -57.063107 
z
" clip-path="url(#p2eb34b2dcb)" style="fill: #0000f5; fill-opacity: 0.1"/>
    <path d="M 348.664555 120.032196 
L 333.009448 75.259694 
L 340.395742 62.680613 
L 356.065198 107.743143 
z
" clip-path="url(#p2eb34b2dcb)" style="fill: #0000f5; fill-opacity: 0.1"/>
    <path d="M 265.190992 47.867658 
L 248.914868 2.553503 
L 255.929282 -10.350008 
L 272.225239 35.259003 
z
" clip-path="url(#p2eb34b2dcb)" style="fill: #0000f5; fill-opacity: 0.1"/>
    <path d="M 181.692106 -24.318772 
L 164.794588 -70.174909 
L 171.436893 -83.403047 
L 188.359733 -37.247224 
z
" clip-path="url(#p2eb34b2dcb)" style="fill: #0000f5; fill-opacity: 0.1"/>
    <path d="M 295.396813 67.769765 
L 279.321701 22.538828 
L 286.481208 9.705647 
L 302.574221 55.230971 
z
" clip-path="url(#p2eb34b2dcb)" style="fill: #0000f5; fill-opacity: 0.1"/>
    <path d="M 211.784544 -4.51563 
L 195.086343 -50.290042 
L 201.87272 -63.44875 
L 218.594335 -17.375101 
z
" clip-path="url(#p2eb34b2dcb)" style="fill: #0000f5; fill-opacity: 0.1"/>
    <path d="M 325.688094 87.728181 
L 309.815202 42.581116 
L 317.120603 29.81872 
L 333.009448 75.259694 
z
" clip-path="url(#p2eb34b2dcb)" style="fill: #0000f5; fill-opacity: 0.1"/>
    <path d="M 241.962134 15.343549 
L 225.464451 -30.34849 
L 232.395698 -43.437316 
L 248.914868 2.553503 
z
" clip-path="url(#p2eb34b2dcb)" style="fill: #0000f5; fill-opacity: 0.1"/>
    <path d="M 158.210699 -57.063107 
L 141.087843 -103.300451 
L 147.644705 -116.715908 
L 164.794588 -70.174909 
z
" clip-path="url(#p2eb34b2dcb)" style="fill: #0000f5; fill-opacity: 0.1"/>
    <path d="M 356.065198 107.743143 
L 340.395742 62.680613 
L 347.847843 49.989459 
L 363.531287 95.345415 
z
" clip-path="url(#p2eb34b2dcb)" style="fill: #0000f5; fill-opacity: 0.1"/>
    <path d="M 272.225239 35.259003 
L 255.929282 -10.350008 
L 263.0062 -23.368499 
L 279.321701 22.538828 
z
" clip-path="url(#p2eb34b2dcb)" style="fill: #0000f5; fill-opacity: 0.1"/>
    <path d="M 188.359733 -37.247224 
L 171.436893 -83.403047 
L 178.138396 -96.749077 
L 195.086343 -50.290042 
z
" clip-path="url(#p2eb34b2dcb)" style="fill: #0000f5; fill-opacity: 0.1"/>
    <path d="M 302.574221 55.230971 
L 286.481208 9.705647 
L 293.704604 -3.242052 
L 309.815202 42.581116 
z
" clip-path="url(#p2eb34b2dcb)" style="fill: #0000f5; fill-opacity: 0.1"/>
    <path d="M 218.594335 -17.375101 
L 201.87272 -63.44875 
L 208.719666 -76.7249 
L 225.464451 -30.34849 
z
" clip-path="url(#p2eb34b2dcb)" style="fill: #0000f5; fill-opacity: 0.1"/>
    <path d="M 333.009448 75.259694 
L 317.120603 29.81872 
L 324.491289 16.942273 
L 340.395742 62.680613 
z
" clip-path="url(#p2eb34b2dcb)" style="fill: #0000f5; fill-opacity: 0.1"/>
    <path d="M 248.914868 2.553503 
L 232.395698 -43.437316 
L 239.388895 -56.643129 
L 255.929282 -10.350008 
z
" clip-path="url(#p2eb34b2dcb)" style="fill: #0000f5; fill-opacity: 0.1"/>
    <path d="M 164.794588 -70.174909 
L 147.644705 -116.715908 
L 154.26018 -130.251289 
L 171.436893 -83.403047 
z
" clip-path="url(#p2eb34b2dcb)" style="fill: #0000f5; fill-opacity: 0.1"/>
    <path d="M 279.321701 22.538828 
L 263.0062 -23.368499 
L 270.146461 -36.503515 
L 286.481208 9.705647 
z
" clip-path="url(#p2eb34b2dcb)" style="fill: #0000f5; fill-opacity: 0.1"/>
    <path d="M 195.086343 -50.290042 
L 178.138396 -96.749077 
L 184.899891 -110.214582 
L 201.87272 -63.44875 
z
" clip-path="url(#p2eb34b2dcb)" style="fill: #0000f5; fill-opacity: 0.1"/>
    <path d="M 309.815202 42.581116 
L 293.704604 -3.242052 
L 300.992747 -16.30581 
L 317.120603 29.81872 
z
" clip-path="url(#p2eb34b2dcb)" style="fill: #0000f5; fill-opacity: 0.1"/>
    <path d="M 225.464451 -30.34849 
L 208.719666 -76.7249 
L 215.627995 -90.12007 
L 232.395698 -43.437316 
z
" clip-path="url(#p2eb34b2dcb)" style="fill: #0000f5; fill-opacity: 0.1"/>
    <path d="M 340.395742 62.680613 
L 324.491289 16.942273 
L 331.928138 3.950241 
L 347.847843 49.989459 
z
" clip-path="url(#p2eb34b2dcb)" style="fill: #0000f5; fill-opacity: 0.1"/>
    <path d="M 255.929282 -10.350008 
L 239.388895 -56.643129 
L 246.444876 -69.967502 
L 263.0062 -23.368499 
z
" clip-path="url(#p2eb34b2dcb)" style="fill: #0000f5; fill-opacity: 0.1"/>
    <path d="M 171.436893 -83.403047 
L 154.26018 -130.251289 
L 160.935058 -143.908209 
L 178.138396 -96.749077 
z
" clip-path="url(#p2eb34b2dcb)" style="fill: #0000f5; fill-opacity: 0.1"/>
    <path d="M 286.481208 9.705647 
L 270.146461 -36.503515 
L 277.35092 -49.756628 
L 293.704604 -3.242052 
z
" clip-path="url(#p2eb34b2dcb)" style="fill: #0000f5; fill-opacity: 0.1"/>
    <path d="M 201.87272 -63.44875 
L 184.899891 -110.214582 
L 191.722187 -123.801173 
L 208.719666 -76.7249 
z
" clip-path="url(#p2eb34b2dcb)" style="fill: #0000f5; fill-opacity: 0.1"/>
    <path d="M 317.120603 29.81872 
L 300.992747 -16.30581 
L 308.346513 -29.487192 
L 324.491289 16.942273 
z
" clip-path="url(#p2eb34b2dcb)" style="fill: #0000f5; fill-opacity: 0.1"/>
    <path d="M 232.395698 -43.437316 
L 215.627995 -90.12007 
L 222.598536 -103.635868 
L 239.388895 -56.643129 
z
" clip-path="url(#p2eb34b2dcb)" style="fill: #0000f5; fill-opacity: 0.1"/>
    <path d="M 263.0062 -23.368499 
L 246.444876 -69.967502 
L 253.564492 -83.412041 
L 270.146461 -36.503515 
z
" clip-path="url(#p2eb34b2dcb)" style="fill: #0000f5; fill-opacity: 0.1"/>
    <path d="M 178.138396 -96.749077 
L 160.935058 -143.908209 
L 167.670142 -157.688312 
L 184.899891 -110.214582 
z
" clip-path="url(#p2eb34b2dcb)" style="fill: #0000f5; fill-opacity: 0.1"/>
    <path d="M 293.704604 -3.242052 
L 277.35092 -49.756628 
L 284.620446 -63.129436 
L 300.992747 -16.30581 
z
" clip-path="url(#p2eb34b2dcb)" style="fill: #0000f5; fill-opacity: 0.1"/>
    <path d="M 208.719666 -76.7249 
L 191.722187 -123.801173 
L 198.606109 -137.510491 
L 215.627995 -90.12007 
z
" clip-path="url(#p2eb34b2dcb)" style="fill: #0000f5; fill-opacity: 0.1"/>
    <path d="M 324.491289 16.942273 
L 308.346513 -29.487192 
L 315.766791 -42.787797 
L 331.928138 3.950241 
z
" clip-path="url(#p2eb34b2dcb)" style="fill: #0000f5; fill-opacity: 0.1"/>
    <path d="M 239.388895 -56.643129 
L 222.598536 -103.635868 
L 229.632133 -117.273932 
L 246.444876 -69.967502 
z
" clip-path="url(#p2eb34b2dcb)" style="fill: #0000f5; fill-opacity: 0.1"/>
    <path d="M 270.146461 -36.503515 
L 253.564492 -83.412041 
L 260.748606 -96.978377 
L 277.35092 -49.756628 
z
" clip-path="url(#p2eb34b2dcb)" style="fill: #0000f5; fill-opacity: 0.1"/>
    <path d="M 184.899891 -110.214582 
L 167.670142 -157.688312 
L 174.466251 -171.593272 
L 191.722187 -123.801173 
z
" clip-path="url(#p2eb34b2dcb)" style="fill: #0000f5; fill-opacity: 0.1"/>
    <path d="M 300.992747 -16.30581 
L 284.620446 -63.129436 
L 291.955925 -76.623569 
L 308.346513 -29.487192 
z
" clip-path="url(#p2eb34b2dcb)" style="fill: #0000f5; fill-opacity: 0.1"/>
    <path d="M 215.627995 -90.12007 
L 198.606109 -137.510491 
L 205.552496 -151.344206 
L 222.598536 -103.635868 
z
" clip-path="url(#p2eb34b2dcb)" style="fill: #0000f5; fill-opacity: 0.1"/>
    <path d="M 246.444876 -69.967502 
L 229.632133 -117.273932 
L 236.729646 -131.035927 
L 253.564492 -83.412041 
z
" clip-path="url(#p2eb34b2dcb)" style="fill: #0000f5; fill-opacity: 0.1"/>
    <path d="M 277.35092 -49.756628 
L 260.748606 -96.978377 
L 267.998099 -110.668174 
L 284.620446 -63.129436 
z
" clip-path="url(#p2eb34b2dcb)" style="fill: #0000f5; fill-opacity: 0.1"/>
    <path d="M 191.722187 -123.801173 
L 174.466251 -171.593272 
L 181.324217 -185.624794 
L 198.606109 -137.510491 
z
" clip-path="url(#p2eb34b2dcb)" style="fill: #0000f5; fill-opacity: 0.1"/>
    <path d="M 308.346513 -29.487192 
L 291.955925 -76.623569 
L 299.358258 -90.240685 
L 315.766791 -42.787797 
z
" clip-path="url(#p2eb34b2dcb)" style="fill: #0000f5; fill-opacity: 0.1"/>
    <path d="M 222.598536 -103.635868 
L 205.552496 -151.344206 
L 212.5622 -165.30402 
L 229.632133 -117.273932 
z
" clip-path="url(#p2eb34b2dcb)" style="fill: #0000f5; fill-opacity: 0.1"/>
    <path d="M 253.564492 -83.412041 
L 236.729646 -131.035927 
L 243.891949 -144.923551 
L 260.748606 -96.978377 
z
" clip-path="url(#p2eb34b2dcb)" style="fill: #0000f5; fill-opacity: 0.1"/>
    <path d="M 284.620446 -63.129436 
L 267.998099 -110.668174 
L 275.313868 -124.483124 
L 291.955925 -76.623569 
z
" clip-path="url(#p2eb34b2dcb)" style="fill: #0000f5; fill-opacity: 0.1"/>
    <path d="M 198.606109 -137.510491 
L 181.324217 -185.624794 
L 188.24489 -199.784614 
L 205.552496 -151.344206 
z
" clip-path="url(#p2eb34b2dcb)" style="fill: #0000f5; fill-opacity: 0.1"/>
    <path d="M 229.632133 -117.273932 
L 212.5622 -165.30402 
L 219.636093 -179.391664 
L 236.729646 -131.035927 
z
" clip-path="url(#p2eb34b2dcb)" style="fill: #0000f5; fill-opacity: 0.1"/>
    <path d="M 260.748606 -96.978377 
L 243.891949 -144.923551 
L 251.119935 -158.938532 
L 267.998099 -110.668174 
z
" clip-path="url(#p2eb34b2dcb)" style="fill: #0000f5; fill-opacity: 0.1"/>
    <path d="M 291.955925 -76.623569 
L 275.313868 -124.483124 
L 282.696825 -138.424952 
L 299.358258 -90.240685 
z
" clip-path="url(#p2eb34b2dcb)" style="fill: #0000f5; fill-opacity: 0.1"/>
    <path d="M 205.552496 -151.344206 
L 188.24489 -199.784614 
L 195.229132 -214.0745 
L 212.5622 -165.30402 
z
" clip-path="url(#p2eb34b2dcb)" style="fill: #0000f5; fill-opacity: 0.1"/>
    <path d="M 236.729646 -131.035927 
L 219.636093 -179.391664 
L 226.775059 -193.608902 
L 243.891949 -144.923551 
z
" clip-path="url(#p2eb34b2dcb)" style="fill: #0000f5; fill-opacity: 0.1"/>
    <path d="M 267.998099 -110.668174 
L 251.119935 -158.938532 
L 258.41451 -173.08263 
L 275.313868 -124.483124 
z
" clip-path="url(#p2eb34b2dcb)" style="fill: #0000f5; fill-opacity: 0.1"/>
    <path d="M 212.5622 -165.30402 
L 195.229132 -214.0745 
L 202.277825 -228.496252 
L 219.636093 -179.391664 
z
" clip-path="url(#p2eb34b2dcb)" style="fill: #0000f5; fill-opacity: 0.1"/>
    <path d="M 243.891949 -144.923551 
L 226.775059 -193.608902 
L 233.980002 -207.957531 
L 251.119935 -158.938532 
z
" clip-path="url(#p2eb34b2dcb)" style="fill: #0000f5; fill-opacity: 0.1"/>
    <path d="M 275.313868 -124.483124 
L 258.41451 -173.08263 
L 265.7766 -187.357637 
L 282.696825 -138.424952 
z
" clip-path="url(#p2eb34b2dcb)" style="fill: #0000f5; fill-opacity: 0.1"/>
    <path d="M 219.636093 -179.391664 
L 202.277825 -228.496252 
L 209.391864 -243.051703 
L 226.775059 -193.608902 
z
" clip-path="url(#p2eb34b2dcb)" style="fill: #0000f5; fill-opacity: 0.1"/>
    <path d="M 251.119935 -158.938532 
L 233.980002 -207.957531 
L 241.251838 -222.43938 
L 258.41451 -173.08263 
z
" clip-path="url(#p2eb34b2dcb)" style="fill: #0000f5; fill-opacity: 0.1"/>
    <path d="M 226.775059 -193.608902 
L 209.391864 -243.051703 
L 216.572162 -257.742722 
L 233.980002 -207.957531 
z
" clip-path="url(#p2eb34b2dcb)" style="fill: #0000f5; fill-opacity: 0.1"/>
    <path d="M 258.41451 -173.08263 
L 241.251838 -222.43938 
L 248.591506 -237.056314 
L 265.7766 -187.357637 
z
" clip-path="url(#p2eb34b2dcb)" style="fill: #0000f5; fill-opacity: 0.1"/>
    <path d="M 233.980002 -207.957531 
L 216.572162 -257.742722 
L 223.81965 -272.571212 
L 241.251838 -222.43938 
z
" clip-path="url(#p2eb34b2dcb)" style="fill: #0000f5; fill-opacity: 0.1"/>
    <path d="M 241.251838 -222.43938 
L 223.81965 -272.571212 
L 231.135274 -287.53911 
L 248.591506 -237.056314 
z
" clip-path="url(#p2eb34b2dcb)" style="fill: #0000f5; fill-opacity: 0.1"/>
   </g>
   <g id="legend_1">
    <g id="patch_6">
     <path d="M 357.840076 67.305115 
L 396.2 67.305115 
Q 398.2 67.305115 398.2 65.305115 
L 398.2 7 
Q 398.2 5 396.2 5 
L 357.840076 5 
Q 355.840076 5 355.840076 7 
L 355.840076 65.305115 
Q 355.840076 67.305115 357.840076 67.305115 
z
" style="fill: #ffffff; opacity: 0.8; stroke: #cccccc; stroke-linejoin: miter"/>
    </g>
    <g id="line2d_25">
     <path d="M 359.840076 12.5 
L 369.840076 12.5 
L 379.840076 12.5 
" style="fill: none; stroke: #ff0000; stroke-width: 1.5; stroke-linecap: square"/>
    </g>
    <g id="text_21">
     <!-- $\vec{a}$ -->
     <g transform="translate(387.840076 16)scale(0.1 -0.1)">
      <defs>
       <path id="CMMI12-7e" d="M 3424 3835 
C 3347 3764 3110 3540 3110 3451 
C 3110 3387 3168 3329 3232 3329 
C 3290 3329 3315 3368 3360 3432 
C 3514 3624 3686 3745 3834 3828 
C 3898 3867 3942 3886 3942 3956 
C 3942 4014 3891 4046 3853 4078 
C 3674 4200 3629 4372 3610 4449 
C 3590 4500 3571 4577 3482 4577 
C 3443 4577 3366 4552 3366 4456 
C 3366 4398 3405 4244 3526 4072 
L 1376 4072 
C 1267 4072 1158 4072 1158 3950 
C 1158 3835 1274 3835 1376 3835 
L 3424 3835 
z
" transform="scale(0.015625)"/>
       <path id="CMMI12-61" d="M 1926 760 
C 1894 651 1894 639 1805 517 
C 1664 338 1382 64 1082 64 
C 819 64 672 300 672 677 
C 672 1028 870 1743 992 2012 
C 1210 2459 1510 2689 1760 2689 
C 2182 2689 2266 2165 2266 2114 
C 2266 2108 2246 2024 2240 2012 
L 1926 760 
z
M 2336 2395 
C 2266 2561 2093 2816 1760 2816 
C 1037 2816 256 1884 256 939 
C 256 307 627 -64 1062 -64 
C 1414 -64 1715 211 1894 422 
C 1958 45 2259 -64 2451 -64 
C 2643 -64 2797 51 2912 281 
C 3014 498 3104 888 3104 913 
C 3104 945 3078 971 3040 971 
C 2982 971 2976 939 2950 843 
C 2854 466 2733 64 2470 64 
C 2285 64 2272 230 2272 358 
C 2272 505 2291 575 2349 824 
C 2394 984 2426 1124 2477 1309 
C 2714 2267 2771 2497 2771 2535 
C 2771 2625 2701 2695 2605 2695 
C 2400 2695 2349 2472 2336 2395 
z
" transform="scale(0.015625)"/>
      </defs>
      <use xlink:href="#CMMI12-7e" transform="scale(0.996264)"/>
      <use xlink:href="#CMMI12-61" transform="translate(6.445738 0)scale(0.996264)"/>
     </g>
    </g>
    <g id="line2d_26">
     <path d="M 359.840076 27.24679 
L 369.840076 27.24679 
L 379.840076 27.24679 
" style="fill: none; stroke: #00ff00; stroke-width: 1.5; stroke-linecap: square"/>
    </g>
    <g id="text_22">
     <!-- $\vec{b}$ -->
     <g transform="translate(387.840076 30.74679)scale(0.1 -0.1)">
      <defs>
       <path id="CMMI12-62" d="M 1478 4257 
C 1485 4283 1498 4321 1498 4352 
C 1498 4416 1434 4416 1421 4416 
C 1414 4416 1184 4393 1069 4377 
C 960 4377 864 4358 749 4358 
C 595 4345 550 4339 550 4224 
C 550 4160 614 4160 678 4160 
C 1005 4160 1005 4103 1005 4040 
C 1005 3996 954 3811 928 3696 
L 774 3085 
C 710 2831 346 1387 320 1272 
C 288 1114 288 1005 288 922 
C 288 274 653 -64 1069 -64 
C 1811 -64 2579 888 2579 1814 
C 2579 2401 2246 2816 1766 2816 
C 1434 2816 1133 2542 1011 2414 
L 1478 4257 
z
M 1075 64 
C 870 64 646 217 646 715 
C 646 926 666 1047 781 1494 
C 800 1577 902 1986 928 2069 
C 941 2120 1318 2689 1754 2689 
C 2035 2689 2163 2408 2163 2076 
C 2163 1769 1984 1047 1824 715 
C 1664 370 1370 64 1075 64 
z
" transform="scale(0.015625)"/>
      </defs>
      <use xlink:href="#CMMI12-7e" transform="translate(0 26.29016)scale(0.996264)"/>
      <use xlink:href="#CMMI12-62" transform="translate(11.311737 0)scale(0.996264)"/>
     </g>
    </g>
    <g id="line2d_27">
     <path d="M 359.840076 41.183968 
L 369.840076 41.183968 
L 379.840076 41.183968 
" style="fill: none; stroke: #0016ff; stroke-width: 1.5; stroke-linecap: square"/>
    </g>
    <g id="text_23">
     <!-- $\vec{c}$ -->
     <g transform="translate(387.840076 44.683968)scale(0.1 -0.1)">
      <defs>
       <path id="CMMI12-63" d="M 2502 2431 
C 2381 2431 2323 2431 2234 2355 
C 2195 2323 2125 2227 2125 2125 
C 2125 1997 2221 1920 2342 1920 
C 2496 1920 2669 2044 2669 2292 
C 2669 2588 2374 2816 1933 2816 
C 1094 2816 256 1903 256 996 
C 256 441 602 -64 1254 -64 
C 2125 -64 2675 622 2675 706 
C 2675 744 2637 776 2611 776 
C 2592 776 2586 770 2528 713 
C 2118 162 1510 64 1267 64 
C 826 64 685 446 685 764 
C 685 988 794 1605 1024 2039 
C 1190 2338 1536 2682 1939 2682 
C 2022 2682 2374 2682 2502 2431 
z
" transform="scale(0.015625)"/>
      </defs>
      <use xlink:href="#CMMI12-7e" transform="scale(0.996264)"/>
      <use xlink:href="#CMMI12-63" transform="translate(5.638615 0)scale(0.996264)"/>
     </g>
    </g>
    <g id="line2d_28">
     <path d="M 359.840076 57.867937 
L 369.840076 57.867937 
L 379.840076 57.867937 
" style="fill: none; stroke: #f400ff; stroke-width: 1.5; stroke-linecap: square"/>
    </g>
    <g id="text_24">
     <!-- $\vec{f}$ -->
     <g transform="translate(387.840076 61.367937)scale(0.1 -0.1)">
      <defs>
       <path id="CMMI12-66" d="M 2854 2566 
C 2982 2566 3034 2566 3034 2688 
C 3034 2752 2982 2752 2867 2752 
L 2349 2752 
C 2470 3429 2560 3897 2611 4107 
C 2650 4265 2784 4416 2950 4416 
C 3085 4416 3219 4358 3283 4298 
C 3034 4272 2957 4082 2957 3969 
C 2957 3837 3053 3759 3174 3759 
C 3302 3759 3494 3870 3494 4119 
C 3494 4393 3226 4544 2944 4544 
C 2669 4544 2400 4334 2272 4078 
C 2157 3848 2093 3611 1946 2752 
L 1517 2752 
C 1395 2752 1331 2752 1331 2637 
C 1331 2566 1370 2566 1498 2566 
L 1907 2566 
C 1792 1976 1530 542 1382 -137 
C 1274 -689 1178 -1152 858 -1152 
C 838 -1152 653 -1152 538 -1031 
C 864 -1005 864 -726 864 -720 
C 864 -593 768 -517 646 -517 
C 518 -517 326 -625 326 -867 
C 326 -1140 608 -1280 858 -1280 
C 1510 -1280 1779 -118 1850 199 
C 1965 688 2278 2376 2310 2566 
L 2854 2566 
z
" transform="scale(0.015625)"/>
      </defs>
      <use xlink:href="#CMMI12-7e" transform="translate(13.568792 26.29016)scale(0.996264)"/>
      <use xlink:href="#CMMI12-66" transform="scale(0.996264)"/>
     </g>
    </g>
   </g>
  </g>
 </g>
 <defs>
  <clipPath id="p2eb34b2dcb">
   <rect x="57.6" y="0" width="345.6" height="345.6"/>
  </clipPath>
 </defs>
</svg>
