<?xml version="1.0" encoding="utf-8" standalone="no"?>
<!DOCTYPE svg PUBLIC "-//W3C//DTD SVG 1.1//EN"
  "http://www.w3.org/Graphics/SVG/1.1/DTD/svg11.dtd">
<svg xmlns:xlink="http://www.w3.org/1999/xlink" width="460.8pt" height="345.6pt" viewBox="0 0 460.8 345.6" xmlns="http://www.w3.org/2000/svg" version="1.1">
 <metadata>
  <rdf:RDF xmlns:dc="http://purl.org/dc/elements/1.1/" xmlns:cc="http://creativecommons.org/ns#" xmlns:rdf="http://www.w3.org/1999/02/22-rdf-syntax-ns#">
   <cc:Work>
    <dc:type rdf:resource="http://purl.org/dc/dcmitype/StillImage"/>
    <dc:date>2022-07-12T15:41:35.538353</dc:date>
    <dc:format>image/svg+xml</dc:format>
    <dc:creator>
     <cc:Agent>
      <dc:title>Matplotlib v3.5.1, https://matplotlib.org/</dc:title>
     </cc:Agent>
    </dc:creator>
   </cc:Work>
  </rdf:RDF>
 </metadata>
 <defs>
  <style type="text/css">*{stroke-linejoin: round; stroke-linecap: butt}</style>
 </defs>
 <g id="figure_1">
  <g id="patch_1">
   <path d="M 0 345.6 
L 460.8 345.6 
L 460.8 0 
L 0 0 
z
" style="fill: #ffffff"/>
  </g>
  <g id="patch_2">
   <path d="M 57.6 345.6 
L 403.2 345.6 
L 403.2 0 
L 57.6 0 
z
" style="fill: #ffffff"/>
  </g>
  <g id="pane3d_1">
   <g id="patch_3">
    <path d="M 252.757201 245.096677 
L 392.772132 252.391849 
L 392.772132 83.867611 
L 252.757201 91.162782 
" style="fill: #f2f2f2; opacity: 0.5; stroke: #f2f2f2; stroke-linejoin: miter"/>
   </g>
  </g>
  <g id="pane3d_2">
   <g id="patch_4">
    <path d="M 252.757201 245.096677 
L 80.571242 250.680534 
L 80.571242 85.578925 
L 252.757201 91.162782 
" style="fill: #e6e6e6; opacity: 0.5; stroke: #e6e6e6; stroke-linejoin: miter"/>
   </g>
  </g>
  <g id="pane3d_3">
   <g id="patch_5">
    <path d="M 252.757201 245.096677 
L 80.571242 250.680534 
L 214.15833 259.130721 
L 392.772132 252.391849 
" style="fill: #ececec; opacity: 0.5; stroke: #ececec; stroke-linejoin: miter"/>
   </g>
  </g>
  <g id="axis3d_1">
   <g id="line2d_1">
    <path d="M 392.772132 252.391849 
L 214.15833 259.130721 
" style="fill: none; stroke: #000000; stroke-width: 0.8; stroke-linecap: square"/>
   </g>
   <g id="text_1">
    <!-- x -->
    <g transform="translate(324.553715 285.472554)scale(0.16 -0.16)">
     <defs>
      <path id="CMSS17-78" d="M 1587 1414 
L 2656 2739 
L 2099 2739 
L 1363 1777 
L 602 2739 
L 32 2739 
L 1139 1414 
L 0 0 
L 563 0 
L 1363 1121 
L 2195 0 
L 2758 0 
L 1587 1414 
z
" transform="scale(0.015625)"/>
     </defs>
     <use xlink:href="#CMSS17-78" transform="scale(0.996264)"/>
    </g>
   </g>
   <g id="Line3DCollection_1">
    <path d="M 389.459487 252.516831 
L 249.54207 245.200941 
L 249.54207 91.058518 
" style="fill: none; stroke: #b0b0b0; stroke-width: 0.8"/>
    <path d="M 357.150872 253.735794 
L 218.227771 246.21644 
L 218.227771 90.04302 
" style="fill: none; stroke: #b0b0b0; stroke-width: 0.8"/>
    <path d="M 323.895187 254.990488 
L 186.077252 247.259056 
L 186.077252 89.000403 
" style="fill: none; stroke: #b0b0b0; stroke-width: 0.8"/>
    <path d="M 289.650171 256.282509 
L 153.056565 248.329891 
L 153.056565 87.929568 
" style="fill: none; stroke: #b0b0b0; stroke-width: 0.8"/>
    <path d="M 254.371009 257.613547 
L 119.129898 249.430107 
L 119.129898 86.829353 
" style="fill: none; stroke: #b0b0b0; stroke-width: 0.8"/>
    <path d="M 218.010138 258.985397 
L 84.259447 250.560928 
L 84.259447 85.698531 
" style="fill: none; stroke: #b0b0b0; stroke-width: 0.8"/>
   </g>
   <g id="xtick_1">
    <g id="line2d_2">
     <path d="M 388.234826 252.452797 
L 391.914398 252.645191 
" style="fill: none; stroke: #000000; stroke-width: 0.8; stroke-linecap: square"/>
    </g>
    <g id="text_2">
     <!-- $\mathdefault{0}$ -->
     <g transform="translate(396.816247 270.798812)scale(0.1 -0.1)">
      <defs>
       <path id="CMR17-30" d="M 2688 2025 
C 2688 2416 2682 3080 2413 3591 
C 2176 4039 1798 4198 1466 4198 
C 1158 4198 768 4058 525 3597 
C 269 3118 243 2524 243 2025 
C 243 1661 250 1106 448 619 
C 723 -39 1216 -128 1466 -128 
C 1760 -128 2208 -7 2470 600 
C 2662 1042 2688 1559 2688 2025 
z
M 1466 -26 
C 1056 -26 813 325 723 812 
C 653 1188 653 1738 653 2096 
C 653 2588 653 2997 736 3387 
C 858 3929 1216 4096 1466 4096 
C 1728 4096 2067 3923 2189 3400 
C 2272 3036 2278 2607 2278 2096 
C 2278 1680 2278 1169 2202 792 
C 2067 95 1690 -26 1466 -26 
z
" transform="scale(0.015625)"/>
      </defs>
      <use xlink:href="#CMR17-30" transform="scale(0.996264)"/>
     </g>
    </g>
   </g>
   <g id="xtick_2">
    <g id="line2d_3">
     <path d="M 355.933404 253.669897 
L 359.591443 253.867892 
" style="fill: none; stroke: #000000; stroke-width: 0.8; stroke-linecap: square"/>
    </g>
    <g id="text_3">
     <!-- $\mathdefault{1}$ -->
     <g transform="translate(364.450759 272.190481)scale(0.1 -0.1)">
      <defs>
       <path id="CMR17-31" d="M 1702 4058 
C 1702 4192 1696 4192 1606 4192 
C 1357 3916 979 3827 621 3827 
C 602 3827 570 3827 563 3808 
C 557 3795 557 3782 557 3648 
C 755 3648 1088 3686 1344 3839 
L 1344 461 
C 1344 236 1331 160 781 160 
L 589 160 
L 589 0 
C 896 0 1216 0 1523 0 
C 1830 0 2150 0 2458 0 
L 2458 160 
L 2266 160 
C 1715 160 1702 230 1702 458 
L 1702 4058 
z
" transform="scale(0.015625)"/>
      </defs>
      <use xlink:href="#CMR17-31" transform="scale(0.996264)"/>
     </g>
    </g>
   </g>
   <g id="xtick_3">
    <g id="line2d_4">
     <path d="M 322.685863 254.922647 
L 326.319515 255.126491 
" style="fill: none; stroke: #000000; stroke-width: 0.8; stroke-linecap: square"/>
    </g>
    <g id="text_4">
     <!-- $\mathdefault{2}$ -->
     <g transform="translate(331.130575 273.623201)scale(0.1 -0.1)">
      <defs>
       <path id="CMR17-32" d="M 2669 989 
L 2554 989 
C 2490 536 2438 459 2413 420 
C 2381 369 1920 369 1830 369 
L 602 369 
C 832 619 1280 1072 1824 1597 
C 2214 1967 2669 2402 2669 3035 
C 2669 3790 2067 4224 1395 4224 
C 691 4224 262 3604 262 3030 
C 262 2780 448 2748 525 2748 
C 589 2748 781 2787 781 3010 
C 781 3207 614 3264 525 3264 
C 486 3264 448 3258 422 3245 
C 544 3790 915 4058 1306 4058 
C 1862 4058 2227 3617 2227 3035 
C 2227 2479 1901 2000 1536 1584 
L 262 146 
L 262 0 
L 2515 0 
L 2669 989 
z
" transform="scale(0.015625)"/>
      </defs>
      <use xlink:href="#CMR17-32" transform="scale(0.996264)"/>
     </g>
    </g>
   </g>
   <g id="xtick_4">
    <g id="line2d_5">
     <path d="M 288.450017 256.212635 
L 292.056199 256.422591 
" style="fill: none; stroke: #000000; stroke-width: 0.8; stroke-linecap: square"/>
    </g>
    <g id="text_5">
     <!-- $\mathdefault{3}$ -->
     <g transform="translate(296.81282 275.098814)scale(0.1 -0.1)">
      <defs>
       <path id="CMR17-33" d="M 1414 2157 
C 1984 2157 2234 1662 2234 1090 
C 2234 320 1824 25 1453 25 
C 1114 25 563 194 390 693 
C 422 680 454 680 486 680 
C 640 680 755 782 755 948 
C 755 1133 614 1216 486 1216 
C 378 1216 211 1165 211 926 
C 211 335 787 -128 1466 -128 
C 2176 -128 2720 430 2720 1085 
C 2720 1707 2208 2157 1600 2227 
C 2086 2328 2554 2756 2554 3329 
C 2554 3820 2048 4179 1472 4179 
C 890 4179 378 3829 378 3329 
C 378 3110 544 3072 627 3072 
C 762 3072 877 3155 877 3321 
C 877 3486 762 3569 627 3569 
C 602 3569 570 3569 544 3557 
C 730 3959 1235 4032 1459 4032 
C 1683 4032 2106 3925 2106 3320 
C 2106 3143 2080 2828 1862 2550 
C 1670 2304 1453 2304 1242 2284 
C 1210 2284 1062 2269 1037 2269 
C 992 2263 966 2257 966 2208 
C 966 2163 973 2157 1101 2157 
L 1414 2157 
z
" transform="scale(0.015625)"/>
      </defs>
      <use xlink:href="#CMR17-33" transform="scale(0.996264)"/>
     </g>
    </g>
   </g>
   <g id="xtick_5">
    <g id="line2d_6">
     <path d="M 253.181135 257.541548 
L 256.756516 257.757894 
" style="fill: none; stroke: #000000; stroke-width: 0.8; stroke-linecap: square"/>
    </g>
    <g id="text_6">
     <!-- $\mathdefault{4}$ -->
     <g transform="translate(261.452015 276.619278)scale(0.1 -0.1)">
      <defs>
       <path id="CMR17-34" d="M 2150 4122 
C 2150 4256 2144 4256 2029 4256 
L 128 1254 
L 128 1088 
L 1779 1088 
L 1779 457 
C 1779 224 1766 160 1318 160 
L 1197 160 
L 1197 0 
C 1402 0 1747 0 1965 0 
C 2182 0 2528 0 2733 0 
L 2733 160 
L 2611 160 
C 2163 160 2150 224 2150 457 
L 2150 1088 
L 2803 1088 
L 2803 1254 
L 2150 1254 
L 2150 4122 
z
M 1798 3703 
L 1798 1254 
L 256 1254 
L 1798 3703 
z
" transform="scale(0.015625)"/>
      </defs>
      <use xlink:href="#CMR17-34" transform="scale(0.996264)"/>
     </g>
    </g>
   </g>
   <g id="xtick_6">
    <g id="line2d_7">
     <path d="M 216.831742 258.911174 
L 220.372722 259.134207 
" style="fill: none; stroke: #000000; stroke-width: 0.8; stroke-linecap: square"/>
    </g>
    <g id="text_7">
     <!-- $\mathdefault{5}$ -->
     <g transform="translate(224.999873 278.186667)scale(0.1 -0.1)">
      <defs>
       <path id="CMR17-35" d="M 730 3692 
C 794 3666 1056 3584 1325 3584 
C 1920 3584 2246 3911 2432 4100 
C 2432 4157 2432 4192 2394 4192 
C 2387 4192 2374 4192 2323 4163 
C 2099 4058 1837 3973 1517 3973 
C 1325 3973 1037 3999 723 4139 
C 653 4171 640 4171 634 4171 
C 602 4171 595 4164 595 4037 
L 595 2203 
C 595 2089 595 2057 659 2057 
C 691 2057 704 2070 736 2114 
C 941 2401 1222 2522 1542 2522 
C 1766 2522 2246 2382 2246 1289 
C 2246 1085 2246 715 2054 421 
C 1894 159 1645 25 1370 25 
C 947 25 518 320 403 814 
C 429 807 480 795 506 795 
C 589 795 749 840 749 1038 
C 749 1210 627 1280 506 1280 
C 358 1280 262 1190 262 1011 
C 262 454 704 -128 1382 -128 
C 2042 -128 2669 440 2669 1264 
C 2669 2030 2170 2624 1549 2624 
C 1222 2624 947 2503 730 2274 
L 730 3692 
z
" transform="scale(0.015625)"/>
      </defs>
      <use xlink:href="#CMR17-35" transform="scale(0.996264)"/>
     </g>
    </g>
   </g>
  </g>
  <g id="axis3d_2">
   <g id="line2d_8">
    <path d="M 80.571242 250.680534 
L 214.15833 259.130721 
" style="fill: none; stroke: #000000; stroke-width: 0.8; stroke-linecap: square"/>
   </g>
   <g id="text_8">
    <!-- y -->
    <g transform="translate(114.035482 283.913595)scale(0.16 -0.16)">
     <defs>
      <path id="CMSS17-79" d="M 2675 2752 
L 2176 2752 
C 1632 1294 1446 702 1434 383 
L 1427 383 
C 1408 696 1126 1460 902 2007 
L 602 2752 
L 83 2752 
L 1216 13 
C 1146 -178 1043 -465 1011 -529 
C 870 -885 774 -885 672 -885 
C 646 -885 442 -885 211 -809 
L 250 -1229 
C 410 -1261 570 -1280 685 -1280 
C 845 -1280 1165 -1280 1459 -497 
L 2675 2752 
z
" transform="scale(0.015625)"/>
     </defs>
     <use xlink:href="#CMSS17-79" transform="scale(0.996264)"/>
    </g>
   </g>
   <g id="Line3DCollection_2">
    <path d="M 267.743275 90.381966 
L 267.743275 245.877494 
L 94.78147 251.579416 
" style="fill: none; stroke: #b0b0b0; stroke-width: 0.8"/>
    <path d="M 293.227363 89.054173 
L 293.227363 247.205286 
L 118.994344 253.111026 
" style="fill: none; stroke: #b0b0b0; stroke-width: 0.8"/>
    <path d="M 319.597021 87.68024 
L 319.597021 248.57922 
L 144.112628 254.699909 
" style="fill: none; stroke: #b0b0b0; stroke-width: 0.8"/>
    <path d="M 346.899225 86.257718 
L 346.899225 250.001741 
L 170.188072 256.349337 
" style="fill: none; stroke: #b0b0b0; stroke-width: 0.8"/>
    <path d="M 375.184332 84.783985 
L 375.184332 251.475475 
L 197.276451 258.06284 
" style="fill: none; stroke: #b0b0b0; stroke-width: 0.8"/>
   </g>
   <g id="xtick_7">
    <g id="line2d_9">
     <path d="M 96.265772 251.530484 
L 91.807635 251.677453 
" style="fill: none; stroke: #000000; stroke-width: 0.8; stroke-linecap: square"/>
    </g>
    <g id="text_9">
     <!-- $\mathdefault{−4}$ -->
     <g transform="translate(76.49984 269.603974)scale(0.1 -0.1)">
      <defs>
       <path id="CMSY10-0" d="M 4218 1472 
C 4326 1472 4442 1472 4442 1600 
C 4442 1728 4326 1728 4218 1728 
L 755 1728 
C 646 1728 531 1728 531 1600 
C 531 1472 646 1472 755 1472 
L 4218 1472 
z
" transform="scale(0.015625)"/>
      </defs>
      <use xlink:href="#CMSY10-0" transform="scale(0.996264)"/>
      <use xlink:href="#CMR17-34" transform="translate(77.487468 0)scale(0.996264)"/>
     </g>
    </g>
   </g>
   <g id="xtick_8">
    <g id="line2d_10">
     <path d="M 120.491414 253.060282 
L 115.994831 253.212697 
" style="fill: none; stroke: #000000; stroke-width: 0.8; stroke-linecap: square"/>
    </g>
    <g id="text_10">
     <!-- $\mathdefault{−2}$ -->
     <g transform="translate(100.609038 271.347742)scale(0.1 -0.1)">
      <use xlink:href="#CMSY10-0" transform="scale(0.996264)"/>
      <use xlink:href="#CMR17-32" transform="translate(77.487468 0)scale(0.996264)"/>
     </g>
    </g>
   </g>
   <g id="xtick_9">
    <g id="line2d_11">
     <path d="M 145.622392 254.64725 
L 141.087578 254.805419 
" style="fill: none; stroke: #000000; stroke-width: 0.8; stroke-linecap: square"/>
    </g>
    <g id="text_11">
     <!-- $\mathdefault{0}$ -->
     <g transform="translate(129.498544 273.157034)scale(0.1 -0.1)">
      <use xlink:href="#CMR17-30" transform="scale(0.996264)"/>
     </g>
    </g>
   </g>
   <g id="xtick_10">
    <g id="line2d_12">
     <path d="M 171.710421 256.294654 
L 167.137701 256.458909 
" style="fill: none; stroke: #000000; stroke-width: 0.8; stroke-linecap: square"/>
    </g>
    <g id="text_12">
     <!-- $\mathdefault{2}$ -->
     <g transform="translate(155.471654 275.035614)scale(0.1 -0.1)">
      <use xlink:href="#CMR17-32" transform="scale(0.996264)"/>
     </g>
    </g>
   </g>
   <g id="xtick_11">
    <g id="line2d_13">
     <path d="M 198.811234 258.006012 
L 194.201056 258.176712 
" style="fill: none; stroke: #000000; stroke-width: 0.8; stroke-linecap: square"/>
    </g>
    <g id="text_13">
     <!-- $\mathdefault{4}$ -->
     <g transform="translate(182.458844 276.987541)scale(0.1 -0.1)">
      <use xlink:href="#CMR17-34" transform="scale(0.996264)"/>
     </g>
    </g>
   </g>
  </g>
  <g id="axis3d_3">
   <g id="line2d_14">
    <path d="M 80.571242 250.680534 
L 80.571242 85.578925 
" style="fill: none; stroke: #000000; stroke-width: 0.8; stroke-linecap: square"/>
   </g>
   <g id="text_14">
    <!-- z -->
    <g transform="translate(34.824724 172.114786)scale(0.16 -0.16)">
     <defs>
      <path id="CMSS17-7a" d="M 2400 2502 
L 2400 2750 
L 250 2750 
L 250 2368 
L 1069 2368 
C 1146 2368 1222 2368 1299 2368 
L 1747 2368 
L 166 261 
L 166 0 
L 2419 0 
L 2419 395 
L 1549 395 
C 1472 395 1395 395 1318 395 
L 826 395 
L 2400 2502 
z
" transform="scale(0.015625)"/>
     </defs>
     <use xlink:href="#CMSS17-7a" transform="scale(0.996264)"/>
    </g>
   </g>
   <g id="Line3DCollection_3">
    <path d="M 80.571242 247.378502 
L 252.757201 242.017999 
L 392.772132 249.021364 
" style="fill: none; stroke: #b0b0b0; stroke-width: 0.8"/>
    <path d="M 80.571242 215.678993 
L 252.757201 212.462691 
L 392.772132 216.66471 
" style="fill: none; stroke: #b0b0b0; stroke-width: 0.8"/>
    <path d="M 80.571242 183.979484 
L 252.757201 182.907384 
L 392.772132 184.308057 
" style="fill: none; stroke: #b0b0b0; stroke-width: 0.8"/>
    <path d="M 80.571242 152.279975 
L 252.757201 153.352076 
L 392.772132 151.951403 
" style="fill: none; stroke: #b0b0b0; stroke-width: 0.8"/>
    <path d="M 80.571242 120.580466 
L 252.757201 123.796768 
L 392.772132 119.594749 
" style="fill: none; stroke: #b0b0b0; stroke-width: 0.8"/>
    <path d="M 80.571242 88.880958 
L 252.757201 94.24146 
L 392.772132 87.238095 
" style="fill: none; stroke: #b0b0b0; stroke-width: 0.8"/>
   </g>
   <g id="xtick_12">
    <g id="line2d_15">
     <path d="M 82.047807 247.332533 
L 77.612962 247.470599 
" style="fill: none; stroke: #000000; stroke-width: 0.8; stroke-linecap: square"/>
    </g>
    <g id="text_15">
     <!-- $\mathdefault{0}$ -->
     <g transform="translate(58.564824 254.194305)scale(0.1 -0.1)">
      <use xlink:href="#CMR17-30" transform="scale(0.996264)"/>
     </g>
    </g>
   </g>
   <g id="xtick_13">
    <g id="line2d_16">
     <path d="M 82.047807 215.651412 
L 77.612962 215.734251 
" style="fill: none; stroke: #000000; stroke-width: 0.8; stroke-linecap: square"/>
    </g>
    <g id="text_16">
     <!-- $\mathdefault{1}$ -->
     <g transform="translate(58.564824 222.535874)scale(0.1 -0.1)">
      <use xlink:href="#CMR17-31" transform="scale(0.996264)"/>
     </g>
    </g>
   </g>
   <g id="xtick_14">
    <g id="line2d_17">
     <path d="M 82.047807 183.97029 
L 77.612962 183.997904 
" style="fill: none; stroke: #000000; stroke-width: 0.8; stroke-linecap: square"/>
    </g>
    <g id="text_17">
     <!-- $\mathdefault{2}$ -->
     <g transform="translate(58.564824 190.877443)scale(0.1 -0.1)">
      <use xlink:href="#CMR17-32" transform="scale(0.996264)"/>
     </g>
    </g>
   </g>
   <g id="xtick_15">
    <g id="line2d_18">
     <path d="M 82.047807 152.289169 
L 77.612962 152.261556 
" style="fill: none; stroke: #000000; stroke-width: 0.8; stroke-linecap: square"/>
    </g>
    <g id="text_18">
     <!-- $\mathdefault{3}$ -->
     <g transform="translate(58.564824 159.219013)scale(0.1 -0.1)">
      <use xlink:href="#CMR17-33" transform="scale(0.996264)"/>
     </g>
    </g>
   </g>
   <g id="xtick_16">
    <g id="line2d_19">
     <path d="M 82.047807 120.608048 
L 77.612962 120.525208 
" style="fill: none; stroke: #000000; stroke-width: 0.8; stroke-linecap: square"/>
    </g>
    <g id="text_19">
     <!-- $\mathdefault{4}$ -->
     <g transform="translate(58.564824 127.560582)scale(0.1 -0.1)">
      <use xlink:href="#CMR17-34" transform="scale(0.996264)"/>
     </g>
    </g>
   </g>
   <g id="xtick_17">
    <g id="line2d_20">
     <path d="M 82.047807 88.926926 
L 77.612962 88.78886 
" style="fill: none; stroke: #000000; stroke-width: 0.8; stroke-linecap: square"/>
    </g>
    <g id="text_20">
     <!-- $\mathdefault{5}$ -->
     <g transform="translate(58.564824 95.902152)scale(0.1 -0.1)">
      <use xlink:href="#CMR17-35" transform="scale(0.996264)"/>
     </g>
    </g>
   </g>
  </g>
  <g id="axes_1">
   <g id="line2d_21">
    <path d="M 316.330857 245.470603 
L 325.509077 87.592047 
" clip-path="url(#pdc4fdef139)" style="fill: none; stroke: #ff0000; stroke-width: 1.5; stroke-linecap: square"/>
   </g>
   <g id="line2d_22">
    <path d="M 316.330857 245.470603 
L 225.836916 121.266485 
" clip-path="url(#pdc4fdef139)" style="fill: none; stroke: #00ff00; stroke-width: 1.5; stroke-linecap: square"/>
   </g>
   <g id="line2d_23">
    <path d="M 316.330857 245.470603 
L 243.813044 -1 
" clip-path="url(#pdc4fdef139)" style="fill: none; stroke: #0016ff; stroke-width: 1.5; stroke-linecap: square"/>
   </g>
   <g id="line2d_24">
    <path d="M 316.330857 245.470603 
L 110.501247 151.985588 
" clip-path="url(#pdc4fdef139)" style="fill: none; stroke: #f400ff; stroke-width: 1.5; stroke-linecap: square"/>
   </g>
   <g id="Poly3DCollection_1">
    <path d="M 252.102256 353.421914 
L 236.537173 313.605213 
L 242.693168 302.98061 
L 258.283141 343.033479 
z
" clip-path="url(#pdc4fdef139)" style="fill: #0000f5; fill-opacity: 0.1"/>
    <path d="M 258.283141 343.033479 
L 242.693168 302.98061 
L 248.90126 292.266094 
L 264.51599 332.557707 
z
" clip-path="url(#pdc4fdef139)" style="fill: #0000f5; fill-opacity: 0.1"/>
    <path d="M 236.537173 313.605213 
L 220.766642 273.262959 
L 226.896546 262.396829 
L 242.693168 302.98061 
z
" clip-path="url(#pdc4fdef139)" style="fill: #0000f5; fill-opacity: 0.1"/>
    <path d="M 264.51599 332.557707 
L 248.90126 292.266094 
L 255.162114 281.460518 
L 270.801461 321.993491 
z
" clip-path="url(#pdc4fdef139)" style="fill: #0000f5; fill-opacity: 0.1"/>
    <path d="M 242.693168 302.98061 
L 226.896546 262.396829 
L 233.078672 251.43813 
L 248.90126 292.266094 
z
" clip-path="url(#pdc4fdef139)" style="fill: #0000f5; fill-opacity: 0.1"/>
    <path d="M 270.801461 321.993491 
L 255.162114 281.460518 
L 261.476403 270.562716 
L 277.140223 311.339706 
z
" clip-path="url(#pdc4fdef139)" style="fill: #0000f5; fill-opacity: 0.1"/>
    <path d="M 220.766642 273.262959 
L 204.786568 232.384679 
L 210.889138 221.27151 
L 226.896546 262.396829 
z
" clip-path="url(#pdc4fdef139)" style="fill: #0000f5; fill-opacity: 0.1"/>
    <path d="M 248.90126 292.266094 
L 233.078672 251.43813 
L 239.313689 240.385672 
L 255.162114 281.460518 
z
" clip-path="url(#pdc4fdef139)" style="fill: #0000f5; fill-opacity: 0.1"/>
    <path d="M 277.140223 311.339706 
L 261.476403 270.562716 
L 267.844817 259.571502 
L 283.532957 300.595209 
z
" clip-path="url(#pdc4fdef139)" style="fill: #0000f5; fill-opacity: 0.1"/>
    <path d="M 226.896546 262.396829 
L 210.889138 221.27151 
L 217.044045 210.063032 
L 233.078672 251.43813 
z
" clip-path="url(#pdc4fdef139)" style="fill: #0000f5; fill-opacity: 0.1"/>
    <path d="M 255.162114 281.460518 
L 239.313689 240.385672 
L 245.602279 229.238248 
L 261.476403 270.562716 
z
" clip-path="url(#pdc4fdef139)" style="fill: #0000f5; fill-opacity: 0.1"/>
    <path d="M 204.786568 232.384679 
L 188.592746 190.959617 
L 194.666697 179.59374 
L 210.889138 221.27151 
z
" clip-path="url(#pdc4fdef139)" style="fill: #0000f5; fill-opacity: 0.1"/>
    <path d="M 283.532957 300.595209 
L 267.844817 259.571502 
L 274.268052 248.48567 
L 289.980355 289.758836 
z
" clip-path="url(#pdc4fdef139)" style="fill: #0000f5; fill-opacity: 0.1"/>
    <path d="M 233.078672 251.43813 
L 217.044045 210.063032 
L 223.251966 198.758014 
L 239.313689 240.385672 
z
" clip-path="url(#pdc4fdef139)" style="fill: #0000f5; fill-opacity: 0.1"/>
    <path d="M 261.476403 270.562716 
L 245.602279 229.238248 
L 251.945137 217.994628 
L 267.844817 259.571502 
z
" clip-path="url(#pdc4fdef139)" style="fill: #0000f5; fill-opacity: 0.1"/>
    <path d="M 210.889138 221.27151 
L 194.666697 179.59374 
L 200.793091 168.12973 
L 217.044045 210.063032 
z
" clip-path="url(#pdc4fdef139)" style="fill: #0000f5; fill-opacity: 0.1"/>
    <path d="M 289.980355 289.758836 
L 274.268052 248.48567 
L 280.746822 237.303993 
L 296.483122 278.829403 
z
" clip-path="url(#pdc4fdef139)" style="fill: #0000f5; fill-opacity: 0.1"/>
    <path d="M 239.313689 240.385672 
L 223.251966 198.758014 
L 229.513587 187.355203 
L 245.602279 229.238248 
z
" clip-path="url(#pdc4fdef139)" style="fill: #0000f5; fill-opacity: 0.1"/>
    <path d="M 188.592746 190.959617 
L 172.180861 148.97673 
L 178.224861 137.352313 
L 194.666697 179.59374 
z
" clip-path="url(#pdc4fdef139)" style="fill: #0000f5; fill-opacity: 0.1"/>
    <path d="M 267.844817 259.571502 
L 251.945137 217.994628 
L 258.342966 206.653563 
L 274.268052 248.48567 
z
" clip-path="url(#pdc4fdef139)" style="fill: #0000f5; fill-opacity: 0.1"/>
    <path d="M 217.044045 210.063032 
L 200.793091 168.12973 
L 206.972609 156.566309 
L 223.251966 198.758014 
z
" clip-path="url(#pdc4fdef139)" style="fill: #0000f5; fill-opacity: 0.1"/>
    <path d="M 296.483122 278.829403 
L 280.746822 237.303993 
L 287.281848 226.025223 
L 303.041973 267.805707 
z
" clip-path="url(#pdc4fdef139)" style="fill: #0000f5; fill-opacity: 0.1"/>
    <path d="M 245.602279 229.238248 
L 229.513587 187.355203 
L 235.829609 175.853325 
L 251.945137 217.994628 
z
" clip-path="url(#pdc4fdef139)" style="fill: #0000f5; fill-opacity: 0.1"/>
    <path d="M 194.666697 179.59374 
L 178.224861 137.352313 
L 184.3214 125.626849 
L 200.793091 168.12973 
z
" clip-path="url(#pdc4fdef139)" style="fill: #0000f5; fill-opacity: 0.1"/>
    <path d="M 274.268052 248.48567 
L 258.342966 206.653563 
L 264.796485 195.213779 
L 280.746822 237.303993 
z
" clip-path="url(#pdc4fdef139)" style="fill: #0000f5; fill-opacity: 0.1"/>
    <path d="M 223.251966 198.758014 
L 206.972609 156.566309 
L 213.205947 144.90218 
L 229.513587 187.355203 
z
" clip-path="url(#pdc4fdef139)" style="fill: #0000f5; fill-opacity: 0.1"/>
    <path d="M 172.180861 148.97673 
L 155.546476 106.424672 
L 161.559149 94.535716 
L 178.224861 137.352313 
z
" clip-path="url(#pdc4fdef139)" style="fill: #0000f5; fill-opacity: 0.1"/>
    <path d="M 303.041973 267.805707 
L 287.281848 226.025223 
L 293.873866 214.64809 
L 309.657638 256.686522 
z
" clip-path="url(#pdc4fdef139)" style="fill: #0000f5; fill-opacity: 0.1"/>
    <path d="M 251.945137 217.994628 
L 235.829609 175.853325 
L 242.200744 164.251083 
L 258.342966 206.653563 
z
" clip-path="url(#pdc4fdef139)" style="fill: #0000f5; fill-opacity: 0.1"/>
    <path d="M 200.793091 168.12973 
L 184.3214 125.626849 
L 190.471165 113.799014 
L 206.972609 156.566309 
z
" clip-path="url(#pdc4fdef139)" style="fill: #0000f5; fill-opacity: 0.1"/>
    <path d="M 280.746822 237.303993 
L 264.796485 195.213779 
L 271.306425 183.673982 
L 287.281848 226.025223 
z
" clip-path="url(#pdc4fdef139)" style="fill: #0000f5; fill-opacity: 0.1"/>
    <path d="M 229.513587 187.355203 
L 213.205947 144.90218 
L 219.493809 133.13602 
L 235.829609 175.853325 
z
" clip-path="url(#pdc4fdef139)" style="fill: #0000f5; fill-opacity: 0.1"/>
    <path d="M 178.224861 137.352313 
L 161.559149 94.535716 
L 167.624445 82.542706 
L 184.3214 125.626849 
z
" clip-path="url(#pdc4fdef139)" style="fill: #0000f5; fill-opacity: 0.1"/>
    <path d="M 309.657638 256.686522 
L 293.873866 214.64809 
L 300.523627 203.171301 
L 316.330857 245.470603 
z
" clip-path="url(#pdc4fdef139)" style="fill: #0000f5; fill-opacity: 0.1"/>
    <path d="M 258.342966 206.653563 
L 242.200744 164.251083 
L 248.627717 152.547158 
L 264.796485 195.213779 
z
" clip-path="url(#pdc4fdef139)" style="fill: #0000f5; fill-opacity: 0.1"/>
    <path d="M 206.972609 156.566309 
L 190.471165 113.799014 
L 196.674858 101.867462 
L 213.205947 144.90218 
z
" clip-path="url(#pdc4fdef139)" style="fill: #0000f5; fill-opacity: 0.1"/>
    <path d="M 155.546476 106.424672 
L 138.685037 63.291792 
L 144.664956 51.132121 
L 161.559149 94.535716 
z
" clip-path="url(#pdc4fdef139)" style="fill: #0000f5; fill-opacity: 0.1"/>
    <path d="M 287.281848 226.025223 
L 271.306425 183.673982 
L 277.873528 172.032854 
L 293.873866 214.64809 
z
" clip-path="url(#pdc4fdef139)" style="fill: #0000f5; fill-opacity: 0.1"/>
    <path d="M 235.829609 175.853325 
L 219.493809 133.13602 
L 225.836916 121.266485 
L 242.200744 164.251083 
z
" clip-path="url(#pdc4fdef139)" style="fill: #0000f5; fill-opacity: 0.1"/>
    <path d="M 184.3214 125.626849 
L 167.624445 82.542706 
L 173.743059 70.444269 
L 190.471165 113.799014 
z
" clip-path="url(#pdc4fdef139)" style="fill: #0000f5; fill-opacity: 0.1"/>
    <path d="M 316.330857 245.470603 
L 300.523627 203.171301 
L 307.231891 191.59354 
L 323.062386 234.156682 
z
" clip-path="url(#pdc4fdef139)" style="fill: #0000f5; fill-opacity: 0.1"/>
    <path d="M 264.796485 195.213779 
L 248.627717 152.547158 
L 255.111264 140.740206 
L 271.306425 183.673982 
z
" clip-path="url(#pdc4fdef139)" style="fill: #0000f5; fill-opacity: 0.1"/>
    <path d="M 213.205947 144.90218 
L 196.674858 101.867462 
L 202.933189 89.830822 
L 219.493809 133.13602 
z
" clip-path="url(#pdc4fdef139)" style="fill: #0000f5; fill-opacity: 0.1"/>
    <path d="M 161.559149 94.535716 
L 144.664956 51.132121 
L 150.697573 38.865294 
L 167.624445 82.542706 
z
" clip-path="url(#pdc4fdef139)" style="fill: #0000f5; fill-opacity: 0.1"/>
    <path d="M 293.873866 214.64809 
L 277.873528 172.032854 
L 284.498551 160.289056 
L 300.523627 203.171301 
z
" clip-path="url(#pdc4fdef139)" style="fill: #0000f5; fill-opacity: 0.1"/>
    <path d="M 242.200744 164.251083 
L 225.836916 121.266485 
L 232.235997 109.292208 
L 248.627717 152.547158 
z
" clip-path="url(#pdc4fdef139)" style="fill: #0000f5; fill-opacity: 0.1"/>
    <path d="M 190.471165 113.799014 
L 173.743059 70.444269 
L 179.915696 58.239011 
L 196.674858 101.867462 
z
" clip-path="url(#pdc4fdef139)" style="fill: #0000f5; fill-opacity: 0.1"/>
    <path d="M 138.685037 63.291792 
L 121.591863 19.566114 
L 127.537553 7.129373 
L 144.664956 51.132121 
z
" clip-path="url(#pdc4fdef139)" style="fill: #0000f5; fill-opacity: 0.1"/>
    <path d="M 323.062386 234.156682 
L 307.231891 191.59354 
L 313.999433 179.913471 
L 329.852991 222.743468 
z
" clip-path="url(#pdc4fdef139)" style="fill: #0000f5; fill-opacity: 0.1"/>
    <path d="M 271.306425 183.673982 
L 255.111264 140.740206 
L 261.652135 128.828862 
L 277.873528 172.032854 
z
" clip-path="url(#pdc4fdef139)" style="fill: #0000f5; fill-opacity: 0.1"/>
    <path d="M 219.493809 133.13602 
L 202.933189 89.830822 
L 209.246885 77.687699 
L 225.836916 121.266485 
z
" clip-path="url(#pdc4fdef139)" style="fill: #0000f5; fill-opacity: 0.1"/>
    <path d="M 167.624445 82.542706 
L 150.697573 38.865294 
L 156.783587 26.489888 
L 173.743059 70.444269 
z
" clip-path="url(#pdc4fdef139)" style="fill: #0000f5; fill-opacity: 0.1"/>
    <path d="M 300.523627 203.171301 
L 284.498551 160.289056 
L 291.182263 148.441223 
L 307.231891 191.59354 
z
" clip-path="url(#pdc4fdef139)" style="fill: #0000f5; fill-opacity: 0.1"/>
    <path d="M 248.627717 152.547158 
L 232.235997 109.292208 
L 238.691798 97.211794 
L 255.111264 140.740206 
z
" clip-path="url(#pdc4fdef139)" style="fill: #0000f5; fill-opacity: 0.1"/>
    <path d="M 196.674858 101.867462 
L 179.915696 58.239011 
L 186.143076 45.92551 
L 202.933189 89.830822 
z
" clip-path="url(#pdc4fdef139)" style="fill: #0000f5; fill-opacity: 0.1"/>
    <path d="M 144.664956 51.132121 
L 127.537553 7.129373 
L 133.536002 -5.417725 
L 150.697573 38.865294 
z
" clip-path="url(#pdc4fdef139)" style="fill: #0000f5; fill-opacity: 0.1"/>
    <path d="M 329.852991 222.743468 
L 313.999433 179.913471 
L 320.827044 168.12973 
L 336.703454 211.22965 
z
" clip-path="url(#pdc4fdef139)" style="fill: #0000f5; fill-opacity: 0.1"/>
    <path d="M 277.873528 172.032854 
L 261.652135 128.828862 
L 268.251096 116.811735 
L 284.498551 160.289056 
z
" clip-path="url(#pdc4fdef139)" style="fill: #0000f5; fill-opacity: 0.1"/>
    <path d="M 225.836916 121.266485 
L 209.246885 77.687699 
L 215.616684 65.436676 
L 232.235997 109.292208 
z
" clip-path="url(#pdc4fdef139)" style="fill: #0000f5; fill-opacity: 0.1"/>
    <path d="M 173.743059 70.444269 
L 156.783587 26.489888 
L 162.923709 14.004456 
L 179.915696 58.239011 
z
" clip-path="url(#pdc4fdef139)" style="fill: #0000f5; fill-opacity: 0.1"/>
    <path d="M 121.591863 19.566114 
L 104.262143 -24.764666 
L 110.172076 -37.48502 
L 127.537553 7.129373 
z
" clip-path="url(#pdc4fdef139)" style="fill: #0000f5; fill-opacity: 0.1"/>
    <path d="M 307.231891 191.59354 
L 291.182263 148.441223 
L 297.925448 136.487965 
L 313.999433 179.913471 
z
" clip-path="url(#pdc4fdef139)" style="fill: #0000f5; fill-opacity: 0.1"/>
    <path d="M 255.111264 140.740206 
L 238.691798 97.211794 
L 245.205075 85.023828 
L 261.652135 128.828862 
z
" clip-path="url(#pdc4fdef139)" style="fill: #0000f5; fill-opacity: 0.1"/>
    <path d="M 202.933189 89.830822 
L 186.143076 45.92551 
L 192.42593 33.502319 
L 209.246885 77.687699 
z
" clip-path="url(#pdc4fdef139)" style="fill: #0000f5; fill-opacity: 0.1"/>
    <path d="M 150.697573 38.865294 
L 133.536002 -5.417725 
L 139.587916 -18.076657 
L 156.783587 26.489888 
z
" clip-path="url(#pdc4fdef139)" style="fill: #0000f5; fill-opacity: 0.1"/>
    <path d="M 336.703454 211.22965 
L 320.827044 168.12973 
L 327.715527 156.240931 
L 343.61457 199.613889 
z
" clip-path="url(#pdc4fdef139)" style="fill: #0000f5; fill-opacity: 0.1"/>
    <path d="M 284.498551 160.289056 
L 268.251096 116.811735 
L 274.908922 104.68741 
L 291.182263 148.441223 
z
" clip-path="url(#pdc4fdef139)" style="fill: #0000f5; fill-opacity: 0.1"/>
    <path d="M 232.235997 109.292208 
L 215.616684 65.436676 
L 222.043335 53.076307 
L 238.691798 97.211794 
z
" clip-path="url(#pdc4fdef139)" style="fill: #0000f5; fill-opacity: 0.1"/>
    <path d="M 179.915696 58.239011 
L 162.923709 14.004456 
L 169.118666 1.407524 
L 186.143076 45.92551 
z
" clip-path="url(#pdc4fdef139)" style="fill: #0000f5; fill-opacity: 0.1"/>
    <path d="M 127.537553 7.129373 
L 110.172076 -37.48502 
L 116.134817 -50.319036 
L 133.536002 -5.417725 
z
" clip-path="url(#pdc4fdef139)" style="fill: #0000f5; fill-opacity: 0.1"/>
    <path d="M 313.999433 179.913471 
L 297.925448 136.487965 
L 304.728903 124.427871 
L 320.827044 168.12973 
z
" clip-path="url(#pdc4fdef139)" style="fill: #0000f5; fill-opacity: 0.1"/>
    <path d="M 261.652135 128.828862 
L 245.205075 85.023828 
L 251.7766 72.726865 
L 268.251096 116.811735 
z
" clip-path="url(#pdc4fdef139)" style="fill: #0000f5; fill-opacity: 0.1"/>
    <path d="M 209.246885 77.687699 
L 192.42593 33.502319 
L 198.765003 20.967967 
L 215.616684 65.436676 
z
" clip-path="url(#pdc4fdef139)" style="fill: #0000f5; fill-opacity: 0.1"/>
    <path d="M 156.783587 26.489888 
L 139.587916 -18.076657 
L 145.694012 -30.848923 
L 162.923709 14.004456 
z
" clip-path="url(#pdc4fdef139)" style="fill: #0000f5; fill-opacity: 0.1"/>
    <path d="M 343.61457 199.613889 
L 327.715527 156.240931 
L 334.665699 144.245663 
L 350.587148 187.894828 
z
" clip-path="url(#pdc4fdef139)" style="fill: #0000f5; fill-opacity: 0.1"/>
    <path d="M 291.182263 148.441223 
L 274.908922 104.68741 
L 281.626406 92.454445 
L 297.925448 136.487965 
z
" clip-path="url(#pdc4fdef139)" style="fill: #0000f5; fill-opacity: 0.1"/>
    <path d="M 238.691798 97.211794 
L 222.043335 53.076307 
L 228.527605 40.605121 
L 245.205075 85.023828 
z
" clip-path="url(#pdc4fdef139)" style="fill: #0000f5; fill-opacity: 0.1"/>
    <path d="M 186.143076 45.92551 
L 169.118666 1.407524 
L 175.369195 -11.30241 
L 192.42593 33.502319 
z
" clip-path="url(#pdc4fdef139)" style="fill: #0000f5; fill-opacity: 0.1"/>
    <path d="M 133.536002 -5.417725 
L 116.134817 -50.319036 
L 122.151077 -63.268244 
L 139.587916 -18.076657 
z
" clip-path="url(#pdc4fdef139)" style="fill: #0000f5; fill-opacity: 0.1"/>
    <path d="M 320.827044 168.12973 
L 304.728903 124.427871 
L 311.593439 112.259501 
L 327.715527 156.240931 
z
" clip-path="url(#pdc4fdef139)" style="fill: #0000f5; fill-opacity: 0.1"/>
    <path d="M 268.251096 116.811735 
L 251.7766 72.726865 
L 258.407157 60.319438 
L 274.908922 104.68741 
z
" clip-path="url(#pdc4fdef139)" style="fill: #0000f5; fill-opacity: 0.1"/>
    <path d="M 215.616684 65.436676 
L 198.765003 20.967967 
L 205.161051 8.320954 
L 222.043335 53.076307 
z
" clip-path="url(#pdc4fdef139)" style="fill: #0000f5; fill-opacity: 0.1"/>
    <path d="M 162.923709 14.004456 
L 145.694012 -30.848923 
L 151.855021 -43.736052 
L 169.118666 1.407524 
z
" clip-path="url(#pdc4fdef139)" style="fill: #0000f5; fill-opacity: 0.1"/>
    <path d="M 350.587148 187.894828 
L 334.665699 144.245663 
L 341.678393 132.142489 
L 357.622011 176.071081 
z
" clip-path="url(#pdc4fdef139)" style="fill: #0000f5; fill-opacity: 0.1"/>
    <path d="M 297.925448 136.487965 
L 281.626406 92.454445 
L 288.404352 80.111375 
L 304.728903 124.427871 
z
" clip-path="url(#pdc4fdef139)" style="fill: #0000f5; fill-opacity: 0.1"/>
    <path d="M 245.205075 85.023828 
L 228.527605 40.605121 
L 235.07027 28.021621 
L 251.7766 72.726865 
z
" clip-path="url(#pdc4fdef139)" style="fill: #0000f5; fill-opacity: 0.1"/>
    <path d="M 192.42593 33.502319 
L 175.369195 -11.30241 
L 181.676047 -24.126871 
L 198.765003 20.967967 
z
" clip-path="url(#pdc4fdef139)" style="fill: #0000f5; fill-opacity: 0.1"/>
    <path d="M 139.587916 -18.076657 
L 122.151077 -63.268244 
L 128.221579 -76.334202 
L 145.694012 -30.848923 
z
" clip-path="url(#pdc4fdef139)" style="fill: #0000f5; fill-opacity: 0.1"/>
    <path d="M 327.715527 156.240931 
L 311.593439 112.259501 
L 318.519884 99.98139 
L 334.665699 144.245663 
z
" clip-path="url(#pdc4fdef139)" style="fill: #0000f5; fill-opacity: 0.1"/>
    <path d="M 274.908922 104.68741 
L 258.407157 60.319438 
L 265.097546 47.800051 
L 281.626406 92.454445 
z
" clip-path="url(#pdc4fdef139)" style="fill: #0000f5; fill-opacity: 0.1"/>
    <path d="M 222.043335 53.076307 
L 205.161051 8.320954 
L 211.614848 -4.440246 
L 228.527605 40.605121 
z
" clip-path="url(#pdc4fdef139)" style="fill: #0000f5; fill-opacity: 0.1"/>
    <path d="M 169.118666 1.407524 
L 151.855021 -43.736052 
L 158.071687 -56.739601 
L 175.369195 -11.30241 
z
" clip-path="url(#pdc4fdef139)" style="fill: #0000f5; fill-opacity: 0.1"/>
    <path d="M 357.622011 176.071081 
L 341.678393 132.142489 
L 348.754455 119.929946 
L 364.719998 164.14124 
z
" clip-path="url(#pdc4fdef139)" style="fill: #0000f5; fill-opacity: 0.1"/>
    <path d="M 304.728903 124.427871 
L 288.404352 80.111375 
L 295.24358 67.656705 
L 311.593439 112.259501 
z
" clip-path="url(#pdc4fdef139)" style="fill: #0000f5; fill-opacity: 0.1"/>
    <path d="M 251.7766 72.726865 
L 235.07027 28.021621 
L 241.672125 15.324284 
L 258.407157 60.319438 
z
" clip-path="url(#pdc4fdef139)" style="fill: #0000f5; fill-opacity: 0.1"/>
    <path d="M 198.765003 20.967967 
L 181.676047 -24.126871 
L 188.039986 -37.067416 
L 205.161051 8.320954 
z
" clip-path="url(#pdc4fdef139)" style="fill: #0000f5; fill-opacity: 0.1"/>
    <path d="M 145.694012 -30.848923 
L 128.221579 -76.334202 
L 134.347061 -89.518496 
L 151.855021 -43.736052 
z
" clip-path="url(#pdc4fdef139)" style="fill: #0000f5; fill-opacity: 0.1"/>
    <path d="M 334.665699 144.245663 
L 318.519884 99.98139 
L 325.509077 87.592047 
L 341.678393 132.142489 
z
" clip-path="url(#pdc4fdef139)" style="fill: #0000f5; fill-opacity: 0.1"/>
    <path d="M 281.626406 92.454445 
L 265.097546 47.800051 
L 271.84858 35.167182 
L 288.404352 80.111375 
z
" clip-path="url(#pdc4fdef139)" style="fill: #0000f5; fill-opacity: 0.1"/>
    <path d="M 228.527605 40.605121 
L 211.614848 -4.440246 
L 218.127179 -17.317184 
L 235.07027 28.021621 
z
" clip-path="url(#pdc4fdef139)" style="fill: #0000f5; fill-opacity: 0.1"/>
    <path d="M 175.369195 -11.30241 
L 158.071687 -56.739601 
L 164.344769 -69.861155 
L 181.676047 -24.126871 
z
" clip-path="url(#pdc4fdef139)" style="fill: #0000f5; fill-opacity: 0.1"/>
    <path d="M 364.719998 164.14124 
L 348.754455 119.929946 
L 355.89475 107.606546 
L 371.881963 152.10387 
z
" clip-path="url(#pdc4fdef139)" style="fill: #0000f5; fill-opacity: 0.1"/>
    <path d="M 311.593439 112.259501 
L 295.24358 67.656705 
L 302.144926 55.088915 
L 318.519884 99.98139 
z
" clip-path="url(#pdc4fdef139)" style="fill: #0000f5; fill-opacity: 0.1"/>
    <path d="M 258.407157 60.319438 
L 241.672125 15.324284 
L 248.333975 2.511558 
L 265.097546 47.800051 
z
" clip-path="url(#pdc4fdef139)" style="fill: #0000f5; fill-opacity: 0.1"/>
    <path d="M 205.161051 8.320954 
L 188.039986 -37.067416 
L 194.461792 -50.125627 
L 211.614848 -4.440246 
z
" clip-path="url(#pdc4fdef139)" style="fill: #0000f5; fill-opacity: 0.1"/>
    <path d="M 151.855021 -43.736052 
L 134.347061 -89.518496 
L 140.528273 -102.822742 
L 158.071687 -56.739601 
z
" clip-path="url(#pdc4fdef139)" style="fill: #0000f5; fill-opacity: 0.1"/>
    <path d="M 341.678393 132.142489 
L 325.509077 87.592047 
L 332.561877 75.089953 
L 348.754455 119.929946 
z
" clip-path="url(#pdc4fdef139)" style="fill: #0000f5; fill-opacity: 0.1"/>
    <path d="M 288.404352 80.111375 
L 271.84858 35.167182 
L 278.661088 22.419281 
L 295.24358 67.656705 
z
" clip-path="url(#pdc4fdef139)" style="fill: #0000f5; fill-opacity: 0.1"/>
    <path d="M 235.07027 28.021621 
L 218.127179 -17.317184 
L 224.698843 -30.311445 
L 241.672125 15.324284 
z
" clip-path="url(#pdc4fdef139)" style="fill: #0000f5; fill-opacity: 0.1"/>
    <path d="M 181.676047 -24.126871 
L 164.344769 -69.861155 
L 170.675037 -83.102327 
L 188.039986 -37.067416 
z
" clip-path="url(#pdc4fdef139)" style="fill: #0000f5; fill-opacity: 0.1"/>
    <path d="M 371.881963 152.10387 
L 355.89475 107.606546 
L 363.100155 95.170772 
L 379.108773 139.95751 
z
" clip-path="url(#pdc4fdef139)" style="fill: #0000f5; fill-opacity: 0.1"/>
    <path d="M 318.519884 99.98139 
L 302.144926 55.088915 
L 309.109239 42.406457 
L 325.509077 87.592047 
z
" clip-path="url(#pdc4fdef139)" style="fill: #0000f5; fill-opacity: 0.1"/>
    <path d="M 265.097546 47.800051 
L 248.333975 2.511558 
L 255.056642 -10.418138 
L 271.84858 35.167182 
z
" clip-path="url(#pdc4fdef139)" style="fill: #0000f5; fill-opacity: 0.1"/>
    <path d="M 211.614848 -4.440246 
L 194.461792 -50.125627 
L 200.942257 -63.303116 
L 218.127179 -17.317184 
z
" clip-path="url(#pdc4fdef139)" style="fill: #0000f5; fill-opacity: 0.1"/>
    <path d="M 158.071687 -56.739601 
L 140.528273 -102.822742 
L 146.765979 -116.248582 
L 164.344769 -69.861155 
z
" clip-path="url(#pdc4fdef139)" style="fill: #0000f5; fill-opacity: 0.1"/>
    <path d="M 348.754455 119.929946 
L 332.561877 75.089953 
L 339.679154 62.473564 
L 355.89475 107.606546 
z
" clip-path="url(#pdc4fdef139)" style="fill: #0000f5; fill-opacity: 0.1"/>
    <path d="M 295.24358 67.656705 
L 278.661088 22.419281 
L 285.535912 9.55477 
L 302.144926 55.088915 
z
" clip-path="url(#pdc4fdef139)" style="fill: #0000f5; fill-opacity: 0.1"/>
    <path d="M 241.672125 15.324284 
L 224.698843 -30.311445 
L 231.330656 -43.424637 
L 248.333975 2.511558 
z
" clip-path="url(#pdc4fdef139)" style="fill: #0000f5; fill-opacity: 0.1"/>
    <path d="M 188.039986 -37.067416 
L 170.675037 -83.102327 
L 177.063277 -96.46476 
L 194.461792 -50.125627 
z
" clip-path="url(#pdc4fdef139)" style="fill: #0000f5; fill-opacity: 0.1"/>
    <path d="M 325.509077 87.592047 
L 309.109239 42.406457 
L 316.137386 29.607755 
L 332.561877 75.089953 
z
" clip-path="url(#pdc4fdef139)" style="fill: #0000f5; fill-opacity: 0.1"/>
    <path d="M 271.84858 35.167182 
L 255.056642 -10.418138 
L 261.840963 -23.466412 
L 278.661088 22.419281 
z
" clip-path="url(#pdc4fdef139)" style="fill: #0000f5; fill-opacity: 0.1"/>
    <path d="M 218.127179 -17.317184 
L 200.942257 -63.303116 
L 207.482188 -76.601526 
L 224.698843 -30.311445 
z
" clip-path="url(#pdc4fdef139)" style="fill: #0000f5; fill-opacity: 0.1"/>
    <path d="M 164.344769 -69.861155 
L 146.765979 -116.248582 
L 153.060956 -129.797693 
L 170.675037 -83.102327 
z
" clip-path="url(#pdc4fdef139)" style="fill: #0000f5; fill-opacity: 0.1"/>
    <path d="M 355.89475 107.606546 
L 339.679154 62.473564 
L 346.861798 49.741303 
L 363.100155 95.170772 
z
" clip-path="url(#pdc4fdef139)" style="fill: #0000f5; fill-opacity: 0.1"/>
    <path d="M 302.144926 55.088915 
L 285.535912 9.55477 
L 292.473913 -3.42796 
L 309.109239 42.406457 
z
" clip-path="url(#pdc4fdef139)" style="fill: #0000f5; fill-opacity: 0.1"/>
    <path d="M 248.333975 2.511558 
L 231.330656 -43.424637 
L 238.023446 -56.658402 
L 255.056642 -10.418138 
z
" clip-path="url(#pdc4fdef139)" style="fill: #0000f5; fill-opacity: 0.1"/>
    <path d="M 194.461792 -50.125627 
L 177.063277 -96.46476 
L 183.510289 -109.950129 
L 200.942257 -63.303116 
z
" clip-path="url(#pdc4fdef139)" style="fill: #0000f5; fill-opacity: 0.1"/>
    <path d="M 332.561877 75.089953 
L 316.137386 29.607755 
L 323.230247 16.691203 
L 339.679154 62.473564 
z
" clip-path="url(#pdc4fdef139)" style="fill: #0000f5; fill-opacity: 0.1"/>
    <path d="M 278.661088 22.419281 
L 261.840963 -23.466412 
L 268.687789 -36.634903 
L 285.535912 9.55477 
z
" clip-path="url(#pdc4fdef139)" style="fill: #0000f5; fill-opacity: 0.1"/>
    <path d="M 224.698843 -30.311445 
L 207.482188 -76.601526 
L 214.082409 -90.022529 
L 231.330656 -43.424637 
z
" clip-path="url(#pdc4fdef139)" style="fill: #0000f5; fill-opacity: 0.1"/>
    <path d="M 170.675037 -83.102327 
L 153.060956 -129.797693 
L 159.413998 -143.47178 
L 177.063277 -96.46476 
z
" clip-path="url(#pdc4fdef139)" style="fill: #0000f5; fill-opacity: 0.1"/>
    <path d="M 309.109239 42.406457 
L 292.473913 -3.42796 
L 299.475964 -16.530544 
L 316.137386 29.607755 
z
" clip-path="url(#pdc4fdef139)" style="fill: #0000f5; fill-opacity: 0.1"/>
    <path d="M 255.056642 -10.418138 
L 238.023446 -56.658402 
L 244.778059 -70.014409 
L 261.840963 -23.466412 
z
" clip-path="url(#pdc4fdef139)" style="fill: #0000f5; fill-opacity: 0.1"/>
    <path d="M 200.942257 -63.303116 
L 183.510289 -109.950129 
L 190.016888 -123.560136 
L 207.482188 -76.601526 
z
" clip-path="url(#pdc4fdef139)" style="fill: #0000f5; fill-opacity: 0.1"/>
    <path d="M 339.679154 62.473564 
L 323.230247 16.691203 
L 330.388722 3.655166 
L 346.861798 49.741303 
z
" clip-path="url(#pdc4fdef139)" style="fill: #0000f5; fill-opacity: 0.1"/>
    <path d="M 285.535912 9.55477 
L 268.687789 -36.634903 
L 275.597989 -49.925281 
L 292.473913 -3.42796 
z
" clip-path="url(#pdc4fdef139)" style="fill: #0000f5; fill-opacity: 0.1"/>
    <path d="M 231.330656 -43.424637 
L 214.082409 -90.022529 
L 220.743756 -103.567827 
L 238.023446 -56.658402 
z
" clip-path="url(#pdc4fdef139)" style="fill: #0000f5; fill-opacity: 0.1"/>
    <path d="M 177.063277 -96.46476 
L 159.413998 -143.47178 
L 165.825911 -157.27258 
L 183.510289 -109.950129 
z
" clip-path="url(#pdc4fdef139)" style="fill: #0000f5; fill-opacity: 0.1"/>
    <path d="M 316.137386 29.607755 
L 299.475964 -16.530544 
L 306.542957 -29.754651 
L 323.230247 16.691203 
z
" clip-path="url(#pdc4fdef139)" style="fill: #0000f5; fill-opacity: 0.1"/>
    <path d="M 261.840963 -23.466412 
L 244.778059 -70.014409 
L 251.595355 -83.494362 
L 268.687789 -36.634903 
z
" clip-path="url(#pdc4fdef139)" style="fill: #0000f5; fill-opacity: 0.1"/>
    <path d="M 207.482188 -76.601526 
L 190.016888 -123.560136 
L 196.583904 -137.296519 
L 214.082409 -90.022529 
z
" clip-path="url(#pdc4fdef139)" style="fill: #0000f5; fill-opacity: 0.1"/>
    <path d="M 292.473913 -3.42796 
L 275.597989 -49.925281 
L 282.572447 -63.339245 
L 299.475964 -16.530544 
z
" clip-path="url(#pdc4fdef139)" style="fill: #0000f5; fill-opacity: 0.1"/>
    <path d="M 238.023446 -56.658402 
L 220.743756 -103.567827 
L 227.467082 -117.239156 
L 244.778059 -70.014409 
z
" clip-path="url(#pdc4fdef139)" style="fill: #0000f5; fill-opacity: 0.1"/>
    <path d="M 183.510289 -109.950129 
L 165.825911 -157.27258 
L 172.297517 -171.201862 
L 190.016888 -123.560136 
z
" clip-path="url(#pdc4fdef139)" style="fill: #0000f5; fill-opacity: 0.1"/>
    <path d="M 323.230247 16.691203 
L 306.542957 -29.754651 
L 313.675799 -43.101978 
L 330.388722 3.655166 
z
" clip-path="url(#pdc4fdef139)" style="fill: #0000f5; fill-opacity: 0.1"/>
    <path d="M 268.687789 -36.634903 
L 251.595355 -83.494362 
L 258.476211 -97.099992 
L 275.597989 -49.925281 
z
" clip-path="url(#pdc4fdef139)" style="fill: #0000f5; fill-opacity: 0.1"/>
    <path d="M 214.082409 -90.022529 
L 196.583904 -137.296519 
L 203.212182 -151.161045 
L 220.743756 -103.567827 
z
" clip-path="url(#pdc4fdef139)" style="fill: #0000f5; fill-opacity: 0.1"/>
    <path d="M 299.475964 -16.530544 
L 282.572447 -63.339245 
L 289.612063 -76.878528 
L 306.542957 -29.754651 
z
" clip-path="url(#pdc4fdef139)" style="fill: #0000f5; fill-opacity: 0.1"/>
    <path d="M 244.778059 -70.014409 
L 227.467082 -117.239156 
L 234.253258 -131.038282 
L 251.595355 -83.494362 
z
" clip-path="url(#pdc4fdef139)" style="fill: #0000f5; fill-opacity: 0.1"/>
    <path d="M 190.016888 -123.560136 
L 172.297517 -171.201862 
L 178.829655 -185.261429 
L 196.583904 -137.296519 
z
" clip-path="url(#pdc4fdef139)" style="fill: #0000f5; fill-opacity: 0.1"/>
    <path d="M 275.597989 -49.925281 
L 258.476211 -97.099992 
L 265.42152 -110.833067 
L 282.572447 -63.339245 
z
" clip-path="url(#pdc4fdef139)" style="fill: #0000f5; fill-opacity: 0.1"/>
    <path d="M 220.743756 -103.567827 
L 203.212182 -151.161045 
L 209.902583 -165.155517 
L 227.467082 -117.239156 
z
" clip-path="url(#pdc4fdef139)" style="fill: #0000f5; fill-opacity: 0.1"/>
    <path d="M 306.542957 -29.754651 
L 289.612063 -76.878528 
L 296.717754 -90.544894 
L 313.675799 -43.101978 
z
" clip-path="url(#pdc4fdef139)" style="fill: #0000f5; fill-opacity: 0.1"/>
    <path d="M 251.595355 -83.494362 
L 234.253258 -131.038282 
L 241.103167 -144.967005 
L 258.476211 -97.099992 
z
" clip-path="url(#pdc4fdef139)" style="fill: #0000f5; fill-opacity: 0.1"/>
    <path d="M 196.583904 -137.296519 
L 178.829655 -185.261429 
L 185.423176 -199.453117 
L 203.212182 -151.161045 
z
" clip-path="url(#pdc4fdef139)" style="fill: #0000f5; fill-opacity: 0.1"/>
    <path d="M 282.572447 -63.339245 
L 265.42152 -110.833067 
L 272.432192 -124.695384 
L 289.612063 -76.878528 
z
" clip-path="url(#pdc4fdef139)" style="fill: #0000f5; fill-opacity: 0.1"/>
    <path d="M 227.467082 -117.239156 
L 209.902583 -165.155517 
L 216.655986 -179.281769 
L 234.253258 -131.038282 
z
" clip-path="url(#pdc4fdef139)" style="fill: #0000f5; fill-opacity: 0.1"/>
    <path d="M 258.476211 -97.099992 
L 241.103167 -144.967005 
L 248.017712 -159.027161 
L 265.42152 -110.833067 
z
" clip-path="url(#pdc4fdef139)" style="fill: #0000f5; fill-opacity: 0.1"/>
    <path d="M 203.212182 -151.161045 
L 185.423176 -199.453117 
L 192.078952 -213.778798 
L 209.902583 -165.155517 
z
" clip-path="url(#pdc4fdef139)" style="fill: #0000f5; fill-opacity: 0.1"/>
    <path d="M 289.612063 -76.878528 
L 272.432192 -124.695384 
L 279.509154 -138.688778 
L 296.717754 -90.544894 
z
" clip-path="url(#pdc4fdef139)" style="fill: #0000f5; fill-opacity: 0.1"/>
    <path d="M 234.253258 -131.038282 
L 216.655986 -179.281769 
L 223.473283 -193.541672 
L 241.103167 -144.967005 
z
" clip-path="url(#pdc4fdef139)" style="fill: #0000f5; fill-opacity: 0.1"/>
    <path d="M 265.42152 -110.833067 
L 248.017712 -159.027161 
L 254.997812 -173.220618 
L 272.432192 -124.695384 
z
" clip-path="url(#pdc4fdef139)" style="fill: #0000f5; fill-opacity: 0.1"/>
    <path d="M 209.902583 -165.155517 
L 192.078952 -213.778798 
L 198.797866 -228.240379 
L 216.655986 -179.281769 
z
" clip-path="url(#pdc4fdef139)" style="fill: #0000f5; fill-opacity: 0.1"/>
    <path d="M 241.103167 -144.967005 
L 223.473283 -193.541672 
L 230.355387 -207.937131 
L 248.017712 -159.027161 
z
" clip-path="url(#pdc4fdef139)" style="fill: #0000f5; fill-opacity: 0.1"/>
    <path d="M 272.432192 -124.695384 
L 254.997812 -173.220618 
L 262.044405 -187.549282 
L 279.509154 -138.688778 
z
" clip-path="url(#pdc4fdef139)" style="fill: #0000f5; fill-opacity: 0.1"/>
    <path d="M 216.655986 -179.281769 
L 198.797866 -228.240379 
L 205.580823 -242.839801 
L 223.473283 -193.541672 
z
" clip-path="url(#pdc4fdef139)" style="fill: #0000f5; fill-opacity: 0.1"/>
    <path d="M 248.017712 -159.027161 
L 230.355387 -207.937131 
L 237.303225 -222.470089 
L 254.997812 -173.220618 
z
" clip-path="url(#pdc4fdef139)" style="fill: #0000f5; fill-opacity: 0.1"/>
    <path d="M 223.473283 -193.541672 
L 205.580823 -242.839801 
L 212.428742 -257.579046 
L 230.355387 -207.937131 
z
" clip-path="url(#pdc4fdef139)" style="fill: #0000f5; fill-opacity: 0.1"/>
    <path d="M 254.997812 -173.220618 
L 237.303225 -222.470089 
L 244.317744 -237.142525 
L 262.044405 -187.549282 
z
" clip-path="url(#pdc4fdef139)" style="fill: #0000f5; fill-opacity: 0.1"/>
    <path d="M 230.355387 -207.937131 
L 212.428742 -257.579046 
L 219.342561 -272.460132 
L 237.303225 -222.470089 
z
" clip-path="url(#pdc4fdef139)" style="fill: #0000f5; fill-opacity: 0.1"/>
    <path d="M 237.303225 -222.470089 
L 219.342561 -272.460132 
L 226.323236 -287.485117 
L 244.317744 -237.142525 
z
" clip-path="url(#pdc4fdef139)" style="fill: #0000f5; fill-opacity: 0.1"/>
   </g>
   <g id="legend_1">
    <g id="patch_6">
     <path d="M 357.840076 67.305115 
L 396.2 67.305115 
Q 398.2 67.305115 398.2 65.305115 
L 398.2 7 
Q 398.2 5 396.2 5 
L 357.840076 5 
Q 355.840076 5 355.840076 7 
L 355.840076 65.305115 
Q 355.840076 67.305115 357.840076 67.305115 
z
" style="fill: #ffffff; opacity: 0.8; stroke: #cccccc; stroke-linejoin: miter"/>
    </g>
    <g id="line2d_25">
     <path d="M 359.840076 12.5 
L 369.840076 12.5 
L 379.840076 12.5 
" style="fill: none; stroke: #ff0000; stroke-width: 1.5; stroke-linecap: square"/>
    </g>
    <g id="text_21">
     <!-- $\vec{a}$ -->
     <g transform="translate(387.840076 16)scale(0.1 -0.1)">
      <defs>
       <path id="CMMI12-7e" d="M 3424 3835 
C 3347 3764 3110 3540 3110 3451 
C 3110 3387 3168 3329 3232 3329 
C 3290 3329 3315 3368 3360 3432 
C 3514 3624 3686 3745 3834 3828 
C 3898 3867 3942 3886 3942 3956 
C 3942 4014 3891 4046 3853 4078 
C 3674 4200 3629 4372 3610 4449 
C 3590 4500 3571 4577 3482 4577 
C 3443 4577 3366 4552 3366 4456 
C 3366 4398 3405 4244 3526 4072 
L 1376 4072 
C 1267 4072 1158 4072 1158 3950 
C 1158 3835 1274 3835 1376 3835 
L 3424 3835 
z
" transform="scale(0.015625)"/>
       <path id="CMMI12-61" d="M 1926 760 
C 1894 651 1894 639 1805 517 
C 1664 338 1382 64 1082 64 
C 819 64 672 300 672 677 
C 672 1028 870 1743 992 2012 
C 1210 2459 1510 2689 1760 2689 
C 2182 2689 2266 2165 2266 2114 
C 2266 2108 2246 2024 2240 2012 
L 1926 760 
z
M 2336 2395 
C 2266 2561 2093 2816 1760 2816 
C 1037 2816 256 1884 256 939 
C 256 307 627 -64 1062 -64 
C 1414 -64 1715 211 1894 422 
C 1958 45 2259 -64 2451 -64 
C 2643 -64 2797 51 2912 281 
C 3014 498 3104 888 3104 913 
C 3104 945 3078 971 3040 971 
C 2982 971 2976 939 2950 843 
C 2854 466 2733 64 2470 64 
C 2285 64 2272 230 2272 358 
C 2272 505 2291 575 2349 824 
C 2394 984 2426 1124 2477 1309 
C 2714 2267 2771 2497 2771 2535 
C 2771 2625 2701 2695 2605 2695 
C 2400 2695 2349 2472 2336 2395 
z
" transform="scale(0.015625)"/>
      </defs>
      <use xlink:href="#CMMI12-7e" transform="scale(0.996264)"/>
      <use xlink:href="#CMMI12-61" transform="translate(6.445738 0)scale(0.996264)"/>
     </g>
    </g>
    <g id="line2d_26">
     <path d="M 359.840076 27.24679 
L 369.840076 27.24679 
L 379.840076 27.24679 
" style="fill: none; stroke: #00ff00; stroke-width: 1.5; stroke-linecap: square"/>
    </g>
    <g id="text_22">
     <!-- $\vec{b}$ -->
     <g transform="translate(387.840076 30.74679)scale(0.1 -0.1)">
      <defs>
       <path id="CMMI12-62" d="M 1478 4257 
C 1485 4283 1498 4321 1498 4352 
C 1498 4416 1434 4416 1421 4416 
C 1414 4416 1184 4393 1069 4377 
C 960 4377 864 4358 749 4358 
C 595 4345 550 4339 550 4224 
C 550 4160 614 4160 678 4160 
C 1005 4160 1005 4103 1005 4040 
C 1005 3996 954 3811 928 3696 
L 774 3085 
C 710 2831 346 1387 320 1272 
C 288 1114 288 1005 288 922 
C 288 274 653 -64 1069 -64 
C 1811 -64 2579 888 2579 1814 
C 2579 2401 2246 2816 1766 2816 
C 1434 2816 1133 2542 1011 2414 
L 1478 4257 
z
M 1075 64 
C 870 64 646 217 646 715 
C 646 926 666 1047 781 1494 
C 800 1577 902 1986 928 2069 
C 941 2120 1318 2689 1754 2689 
C 2035 2689 2163 2408 2163 2076 
C 2163 1769 1984 1047 1824 715 
C 1664 370 1370 64 1075 64 
z
" transform="scale(0.015625)"/>
      </defs>
      <use xlink:href="#CMMI12-7e" transform="translate(0 26.29016)scale(0.996264)"/>
      <use xlink:href="#CMMI12-62" transform="translate(11.311737 0)scale(0.996264)"/>
     </g>
    </g>
    <g id="line2d_27">
     <path d="M 359.840076 41.183968 
L 369.840076 41.183968 
L 379.840076 41.183968 
" style="fill: none; stroke: #0016ff; stroke-width: 1.5; stroke-linecap: square"/>
    </g>
    <g id="text_23">
     <!-- $\vec{c}$ -->
     <g transform="translate(387.840076 44.683968)scale(0.1 -0.1)">
      <defs>
       <path id="CMMI12-63" d="M 2502 2431 
C 2381 2431 2323 2431 2234 2355 
C 2195 2323 2125 2227 2125 2125 
C 2125 1997 2221 1920 2342 1920 
C 2496 1920 2669 2044 2669 2292 
C 2669 2588 2374 2816 1933 2816 
C 1094 2816 256 1903 256 996 
C 256 441 602 -64 1254 -64 
C 2125 -64 2675 622 2675 706 
C 2675 744 2637 776 2611 776 
C 2592 776 2586 770 2528 713 
C 2118 162 1510 64 1267 64 
C 826 64 685 446 685 764 
C 685 988 794 1605 1024 2039 
C 1190 2338 1536 2682 1939 2682 
C 2022 2682 2374 2682 2502 2431 
z
" transform="scale(0.015625)"/>
      </defs>
      <use xlink:href="#CMMI12-7e" transform="scale(0.996264)"/>
      <use xlink:href="#CMMI12-63" transform="translate(5.638615 0)scale(0.996264)"/>
     </g>
    </g>
    <g id="line2d_28">
     <path d="M 359.840076 57.867937 
L 369.840076 57.867937 
L 379.840076 57.867937 
" style="fill: none; stroke: #f400ff; stroke-width: 1.5; stroke-linecap: square"/>
    </g>
    <g id="text_24">
     <!-- $\vec{f}$ -->
     <g transform="translate(387.840076 61.367937)scale(0.1 -0.1)">
      <defs>
       <path id="CMMI12-66" d="M 2854 2566 
C 2982 2566 3034 2566 3034 2688 
C 3034 2752 2982 2752 2867 2752 
L 2349 2752 
C 2470 3429 2560 3897 2611 4107 
C 2650 4265 2784 4416 2950 4416 
C 3085 4416 3219 4358 3283 4298 
C 3034 4272 2957 4082 2957 3969 
C 2957 3837 3053 3759 3174 3759 
C 3302 3759 3494 3870 3494 4119 
C 3494 4393 3226 4544 2944 4544 
C 2669 4544 2400 4334 2272 4078 
C 2157 3848 2093 3611 1946 2752 
L 1517 2752 
C 1395 2752 1331 2752 1331 2637 
C 1331 2566 1370 2566 1498 2566 
L 1907 2566 
C 1792 1976 1530 542 1382 -137 
C 1274 -689 1178 -1152 858 -1152 
C 838 -1152 653 -1152 538 -1031 
C 864 -1005 864 -726 864 -720 
C 864 -593 768 -517 646 -517 
C 518 -517 326 -625 326 -867 
C 326 -1140 608 -1280 858 -1280 
C 1510 -1280 1779 -118 1850 199 
C 1965 688 2278 2376 2310 2566 
L 2854 2566 
z
" transform="scale(0.015625)"/>
      </defs>
      <use xlink:href="#CMMI12-7e" transform="translate(13.568792 26.29016)scale(0.996264)"/>
      <use xlink:href="#CMMI12-66" transform="scale(0.996264)"/>
     </g>
    </g>
   </g>
  </g>
 </g>
 <defs>
  <clipPath id="pdc4fdef139">
   <rect x="57.6" y="0" width="345.6" height="345.6"/>
  </clipPath>
 </defs>
</svg>
