<?xml version="1.0" encoding="utf-8" standalone="no"?>
<!DOCTYPE svg PUBLIC "-//W3C//DTD SVG 1.1//EN"
  "http://www.w3.org/Graphics/SVG/1.1/DTD/svg11.dtd">
<svg xmlns:xlink="http://www.w3.org/1999/xlink" width="460.8pt" height="345.6pt" viewBox="0 0 460.8 345.6" xmlns="http://www.w3.org/2000/svg" version="1.1">
 <metadata>
  <rdf:RDF xmlns:dc="http://purl.org/dc/elements/1.1/" xmlns:cc="http://creativecommons.org/ns#" xmlns:rdf="http://www.w3.org/1999/02/22-rdf-syntax-ns#">
   <cc:Work>
    <dc:type rdf:resource="http://purl.org/dc/dcmitype/StillImage"/>
    <dc:date>2022-07-12T15:50:53.569115</dc:date>
    <dc:format>image/svg+xml</dc:format>
    <dc:creator>
     <cc:Agent>
      <dc:title>Matplotlib v3.5.1, https://matplotlib.org/</dc:title>
     </cc:Agent>
    </dc:creator>
   </cc:Work>
  </rdf:RDF>
 </metadata>
 <defs>
  <style type="text/css">*{stroke-linejoin: round; stroke-linecap: butt}</style>
 </defs>
 <g id="figure_1">
  <g id="patch_1">
   <path d="M 0 345.6 
L 460.8 345.6 
L 460.8 0 
L 0 0 
z
" style="fill: #ffffff"/>
  </g>
  <g id="patch_2">
   <path d="M 57.6 345.6 
L 403.2 345.6 
L 403.2 0 
L 57.6 0 
z
" style="fill: #ffffff"/>
  </g>
  <g id="pane3d_1">
   <g id="patch_3">
    <path d="M 257.782217 245.125735 
L 392.463001 252.640295 
L 392.463001 83.619164 
L 257.782217 91.133724 
" style="fill: #f2f2f2; opacity: 0.5; stroke: #f2f2f2; stroke-linejoin: miter"/>
   </g>
  </g>
  <g id="pane3d_2">
   <g id="patch_4">
    <path d="M 257.782217 245.125735 
L 81.768932 250.44346 
L 81.768932 85.815999 
L 257.782217 91.133724 
" style="fill: #e6e6e6; opacity: 0.5; stroke: #e6e6e6; stroke-linejoin: miter"/>
   </g>
  </g>
  <g id="pane3d_3">
   <g id="patch_5">
    <path d="M 257.782217 245.125735 
L 81.768932 250.44346 
L 208.239166 259.090133 
L 392.463001 252.640295 
" style="fill: #ececec; opacity: 0.5; stroke: #ececec; stroke-linejoin: miter"/>
   </g>
  </g>
  <g id="axis3d_1">
   <g id="line2d_1">
    <path d="M 392.463001 252.640295 
L 208.239166 259.090133 
" style="fill: none; stroke: #000000; stroke-width: 0.8; stroke-linecap: square"/>
   </g>
   <g id="text_1">
    <!-- x -->
    <g transform="translate(320.491646 285.66554)scale(0.16 -0.16)">
     <defs>
      <path id="CMSS17-78" d="M 1587 1414 
L 2656 2739 
L 2099 2739 
L 1363 1777 
L 602 2739 
L 32 2739 
L 1139 1414 
L 0 0 
L 563 0 
L 1363 1121 
L 2195 0 
L 2758 0 
L 1587 1414 
z
" transform="scale(0.015625)"/>
     </defs>
     <use xlink:href="#CMSS17-78" transform="scale(0.996264)"/>
    </g>
   </g>
   <g id="Line3DCollection_1">
    <path d="M 389.034922 252.760315 
L 254.485112 245.225348 
L 254.485112 91.034112 
" style="fill: none; stroke: #b0b0b0; stroke-width: 0.8"/>
    <path d="M 355.623102 253.930093 
L 222.393374 246.194905 
L 222.393374 90.064554 
" style="fill: none; stroke: #b0b0b0; stroke-width: 0.8"/>
    <path d="M 321.27469 255.132661 
L 189.484182 247.18916 
L 189.484182 89.070299 
" style="fill: none; stroke: #b0b0b0; stroke-width: 0.8"/>
    <path d="M 285.949744 256.369418 
L 155.725899 248.209067 
L 155.725899 88.050392 
" style="fill: none; stroke: #b0b0b0; stroke-width: 0.8"/>
    <path d="M 249.606019 257.641844 
L 121.085234 249.255634 
L 121.085234 87.003826 
" style="fill: none; stroke: #b0b0b0; stroke-width: 0.8"/>
    <path d="M 212.198797 258.951503 
L 85.527133 250.329917 
L 85.527133 85.929542 
" style="fill: none; stroke: #b0b0b0; stroke-width: 0.8"/>
   </g>
   <g id="xtick_1">
    <g id="line2d_2">
     <path d="M 387.854245 252.694196 
L 391.401825 252.892865 
" style="fill: none; stroke: #000000; stroke-width: 0.8; stroke-linecap: square"/>
    </g>
    <g id="text_2">
     <!-- $\mathdefault{0}$ -->
     <g transform="translate(396.039942 271.092442)scale(0.1 -0.1)">
      <defs>
       <path id="CMR17-30" d="M 2688 2025 
C 2688 2416 2682 3080 2413 3591 
C 2176 4039 1798 4198 1466 4198 
C 1158 4198 768 4058 525 3597 
C 269 3118 243 2524 243 2025 
C 243 1661 250 1106 448 619 
C 723 -39 1216 -128 1466 -128 
C 1760 -128 2208 -7 2470 600 
C 2662 1042 2688 1559 2688 2025 
z
M 1466 -26 
C 1056 -26 813 325 723 812 
C 653 1188 653 1738 653 2096 
C 653 2588 653 2997 736 3387 
C 858 3929 1216 4096 1466 4096 
C 1728 4096 2067 3923 2189 3400 
C 2272 3036 2278 2607 2278 2096 
C 2278 1680 2278 1169 2202 792 
C 2067 95 1690 -26 1466 -26 
z
" transform="scale(0.015625)"/>
      </defs>
      <use xlink:href="#CMR17-30" transform="scale(0.996264)"/>
     </g>
    </g>
   </g>
   <g id="xtick_2">
    <g id="line2d_3">
     <path d="M 354.452583 253.862133 
L 357.969718 254.066335 
" style="fill: none; stroke: #000000; stroke-width: 0.8; stroke-linecap: square"/>
    </g>
    <g id="text_3">
     <!-- $\mathdefault{1}$ -->
     <g transform="translate(362.547348 272.428437)scale(0.1 -0.1)">
      <defs>
       <path id="CMR17-31" d="M 1702 4058 
C 1702 4192 1696 4192 1606 4192 
C 1357 3916 979 3827 621 3827 
C 602 3827 570 3827 563 3808 
C 557 3795 557 3782 557 3648 
C 755 3648 1088 3686 1344 3839 
L 1344 461 
C 1344 236 1331 160 781 160 
L 589 160 
L 589 0 
C 896 0 1216 0 1523 0 
C 1830 0 2150 0 2458 0 
L 2458 160 
L 2266 160 
C 1715 160 1702 230 1702 458 
L 1702 4058 
z
" transform="scale(0.015625)"/>
      </defs>
      <use xlink:href="#CMR17-31" transform="scale(0.996264)"/>
     </g>
    </g>
   </g>
   <g id="xtick_3">
    <g id="line2d_4">
     <path d="M 320.115365 255.062784 
L 323.598941 255.272752 
" style="fill: none; stroke: #000000; stroke-width: 0.8; stroke-linecap: square"/>
    </g>
    <g id="text_4">
     <!-- $\mathdefault{2}$ -->
     <g transform="translate(328.109831 273.802125)scale(0.1 -0.1)">
      <defs>
       <path id="CMR17-32" d="M 2669 989 
L 2554 989 
C 2490 536 2438 459 2413 420 
C 2381 369 1920 369 1830 369 
L 602 369 
C 832 619 1280 1072 1824 1597 
C 2214 1967 2669 2402 2669 3035 
C 2669 3790 2067 4224 1395 4224 
C 691 4224 262 3604 262 3030 
C 262 2780 448 2748 525 2748 
C 589 2748 781 2787 781 3010 
C 781 3207 614 3264 525 3264 
C 486 3264 448 3258 422 3245 
C 544 3790 915 4058 1306 4058 
C 1862 4058 2227 3617 2227 3035 
C 2227 2479 1901 2000 1536 1584 
L 262 146 
L 262 0 
L 2515 0 
L 2669 989 
z
" transform="scale(0.015625)"/>
      </defs>
      <use xlink:href="#CMR17-32" transform="scale(0.996264)"/>
     </g>
    </g>
   </g>
   <g id="xtick_4">
    <g id="line2d_5">
     <path d="M 284.802726 256.297541 
L 288.249399 256.513524 
" style="fill: none; stroke: #000000; stroke-width: 0.8; stroke-linecap: square"/>
    </g>
    <g id="text_5">
     <!-- $\mathdefault{3}$ -->
     <g transform="translate(292.686831 275.215123)scale(0.1 -0.1)">
      <defs>
       <path id="CMR17-33" d="M 1414 2157 
C 1984 2157 2234 1662 2234 1090 
C 2234 320 1824 25 1453 25 
C 1114 25 563 194 390 693 
C 422 680 454 680 486 680 
C 640 680 755 782 755 948 
C 755 1133 614 1216 486 1216 
C 378 1216 211 1165 211 926 
C 211 335 787 -128 1466 -128 
C 2176 -128 2720 430 2720 1085 
C 2720 1707 2208 2157 1600 2227 
C 2086 2328 2554 2756 2554 3329 
C 2554 3820 2048 4179 1472 4179 
C 890 4179 378 3829 378 3329 
C 378 3110 544 3072 627 3072 
C 762 3072 877 3155 877 3321 
C 877 3486 762 3569 627 3569 
C 602 3569 570 3569 544 3557 
C 730 3959 1235 4032 1459 4032 
C 1683 4032 2106 3925 2106 3320 
C 2106 3143 2080 2828 1862 2550 
C 1670 2304 1453 2304 1242 2284 
C 1210 2284 1062 2269 1037 2269 
C 992 2263 966 2257 966 2208 
C 966 2163 973 2157 1101 2157 
L 1414 2157 
z
" transform="scale(0.015625)"/>
      </defs>
      <use xlink:href="#CMR17-33" transform="scale(0.996264)"/>
     </g>
    </g>
   </g>
   <g id="xtick_5">
    <g id="line2d_6">
     <path d="M 248.472505 257.56788 
L 251.878679 257.790139 
" style="fill: none; stroke: #000000; stroke-width: 0.8; stroke-linecap: square"/>
    </g>
    <g id="text_6">
     <!-- $\mathdefault{4}$ -->
     <g transform="translate(256.235433 276.669143)scale(0.1 -0.1)">
      <defs>
       <path id="CMR17-34" d="M 2150 4122 
C 2150 4256 2144 4256 2029 4256 
L 128 1254 
L 128 1088 
L 1779 1088 
L 1779 457 
C 1779 224 1766 160 1318 160 
L 1197 160 
L 1197 0 
C 1402 0 1747 0 1965 0 
C 2182 0 2528 0 2733 0 
L 2733 160 
L 2611 160 
C 2163 160 2150 224 2150 457 
L 2150 1088 
L 2803 1088 
L 2803 1254 
L 2150 1254 
L 2150 4122 
z
M 1798 3703 
L 1798 1254 
L 256 1254 
L 1798 3703 
z
" transform="scale(0.015625)"/>
      </defs>
      <use xlink:href="#CMR17-34" transform="scale(0.996264)"/>
     </g>
    </g>
   </g>
   <g id="xtick_6">
    <g id="line2d_7">
     <path d="M 211.080075 258.87536 
L 214.441884 259.104173 
" style="fill: none; stroke: #000000; stroke-width: 0.8; stroke-linecap: square"/>
    </g>
    <g id="text_7">
     <!-- $\mathdefault{5}$ -->
     <g transform="translate(218.710191 278.165998)scale(0.1 -0.1)">
      <defs>
       <path id="CMR17-35" d="M 730 3692 
C 794 3666 1056 3584 1325 3584 
C 1920 3584 2246 3911 2432 4100 
C 2432 4157 2432 4192 2394 4192 
C 2387 4192 2374 4192 2323 4163 
C 2099 4058 1837 3973 1517 3973 
C 1325 3973 1037 3999 723 4139 
C 653 4171 640 4171 634 4171 
C 602 4171 595 4164 595 4037 
L 595 2203 
C 595 2089 595 2057 659 2057 
C 691 2057 704 2070 736 2114 
C 941 2401 1222 2522 1542 2522 
C 1766 2522 2246 2382 2246 1289 
C 2246 1085 2246 715 2054 421 
C 1894 159 1645 25 1370 25 
C 947 25 518 320 403 814 
C 429 807 480 795 506 795 
C 589 795 749 840 749 1038 
C 749 1210 627 1280 506 1280 
C 358 1280 262 1190 262 1011 
C 262 454 704 -128 1382 -128 
C 2042 -128 2669 440 2669 1264 
C 2669 2030 2170 2624 1549 2624 
C 1222 2624 947 2503 730 2274 
L 730 3692 
z
" transform="scale(0.015625)"/>
      </defs>
      <use xlink:href="#CMR17-35" transform="scale(0.996264)"/>
     </g>
    </g>
   </g>
  </g>
  <g id="axis3d_2">
   <g id="line2d_8">
    <path d="M 81.768932 250.44346 
L 208.239166 259.090133 
" style="fill: none; stroke: #000000; stroke-width: 0.8; stroke-linecap: square"/>
   </g>
   <g id="text_8">
    <!-- y -->
    <g transform="translate(111.17184 283.665465)scale(0.16 -0.16)">
     <defs>
      <path id="CMSS17-79" d="M 2675 2752 
L 2176 2752 
C 1632 1294 1446 702 1434 383 
L 1427 383 
C 1408 696 1126 1460 902 2007 
L 602 2752 
L 83 2752 
L 1216 13 
C 1146 -178 1043 -465 1011 -529 
C 870 -885 774 -885 672 -885 
C 646 -885 442 -885 211 -809 
L 250 -1229 
C 410 -1261 570 -1280 685 -1280 
C 845 -1280 1165 -1280 1459 -497 
L 2675 2752 
z
" transform="scale(0.015625)"/>
     </defs>
     <use xlink:href="#CMSS17-79" transform="scale(0.996264)"/>
    </g>
   </g>
   <g id="Line3DCollection_2">
    <path d="M 272.164361 90.331268 
L 272.164361 245.928192 
L 95.192926 251.361249 
" style="fill: none; stroke: #b0b0b0; stroke-width: 0.8"/>
    <path d="M 296.63959 88.965664 
L 296.63959 247.293796 
L 118.082109 252.926164 
" style="fill: none; stroke: #b0b0b0; stroke-width: 0.8"/>
    <path d="M 321.989403 87.551262 
L 321.989403 248.708197 
L 141.848509 254.551055 
" style="fill: none; stroke: #b0b0b0; stroke-width: 0.8"/>
    <path d="M 348.26153 86.0854 
L 348.26153 250.174059 
L 166.543539 256.239435 
" style="fill: none; stroke: #b0b0b0; stroke-width: 0.8"/>
    <path d="M 375.507239 84.565217 
L 375.507239 251.694243 
L 192.222711 257.995101 
" style="fill: none; stroke: #b0b0b0; stroke-width: 0.8"/>
   </g>
   <g id="xtick_7">
    <g id="line2d_9">
     <path d="M 96.706722 251.314775 
L 92.160253 251.454352 
" style="fill: none; stroke: #000000; stroke-width: 0.8; stroke-linecap: square"/>
    </g>
    <g id="text_9">
     <!-- $\mathdefault{−4}$ -->
     <g transform="translate(76.677577 269.335566)scale(0.1 -0.1)">
      <defs>
       <path id="CMSY10-0" d="M 4218 1472 
C 4326 1472 4442 1472 4442 1600 
C 4442 1728 4326 1728 4218 1728 
L 755 1728 
C 646 1728 531 1728 531 1600 
C 531 1472 646 1472 755 1472 
L 4218 1472 
z
" transform="scale(0.015625)"/>
      </defs>
      <use xlink:href="#CMSY10-0" transform="scale(0.996264)"/>
      <use xlink:href="#CMR17-34" transform="translate(77.487468 0)scale(0.996264)"/>
     </g>
    </g>
   </g>
   <g id="xtick_8">
    <g id="line2d_10">
     <path d="M 119.611331 252.877927 
L 115.018438 253.022804 
" style="fill: none; stroke: #000000; stroke-width: 0.8; stroke-linecap: square"/>
    </g>
    <g id="text_10">
     <!-- $\mathdefault{−2}$ -->
     <g transform="translate(99.441787 271.116448)scale(0.1 -0.1)">
      <use xlink:href="#CMSY10-0" transform="scale(0.996264)"/>
      <use xlink:href="#CMR17-32" transform="translate(77.487468 0)scale(0.996264)"/>
     </g>
    </g>
   </g>
   <g id="xtick_9">
    <g id="line2d_11">
     <path d="M 143.393238 254.500952 
L 138.753668 254.651436 
" style="fill: none; stroke: #000000; stroke-width: 0.8; stroke-linecap: square"/>
    </g>
    <g id="text_11">
     <!-- $\mathdefault{0}$ -->
     <g transform="translate(126.956856 272.965899)scale(0.1 -0.1)">
      <use xlink:href="#CMR17-30" transform="scale(0.996264)"/>
     </g>
    </g>
   </g>
   <g id="xtick_10">
    <g id="line2d_12">
     <path d="M 168.103833 256.187356 
L 163.417409 256.343779 
" style="fill: none; stroke: #000000; stroke-width: 0.8; stroke-linecap: square"/>
    </g>
    <g id="text_12">
     <!-- $\mathdefault{2}$ -->
     <g transform="translate(151.525656 274.887957)scale(0.1 -0.1)">
      <use xlink:href="#CMR17-32" transform="scale(0.996264)"/>
     </g>
    </g>
   </g>
   <g id="xtick_11">
    <g id="line2d_13">
     <path d="M 193.798595 257.940926 
L 189.065231 258.103647 
" style="fill: none; stroke: #000000; stroke-width: 0.8; stroke-linecap: square"/>
    </g>
    <g id="text_13">
     <!-- $\mathdefault{4}$ -->
     <g transform="translate(177.078306 276.886984)scale(0.1 -0.1)">
      <use xlink:href="#CMR17-34" transform="scale(0.996264)"/>
     </g>
    </g>
   </g>
  </g>
  <g id="axis3d_3">
   <g id="line2d_14">
    <path d="M 81.768932 250.44346 
L 81.768932 85.815999 
" style="fill: none; stroke: #000000; stroke-width: 0.8; stroke-linecap: square"/>
   </g>
   <g id="text_14">
    <!-- z -->
    <g transform="translate(36.50449 172.114786)scale(0.16 -0.16)">
     <defs>
      <path id="CMSS17-7a" d="M 2400 2502 
L 2400 2750 
L 250 2750 
L 250 2368 
L 1069 2368 
C 1146 2368 1222 2368 1299 2368 
L 1747 2368 
L 166 261 
L 166 0 
L 2419 0 
L 2419 395 
L 1549 395 
C 1472 395 1395 395 1318 395 
L 826 395 
L 2400 2502 
z
" transform="scale(0.015625)"/>
     </defs>
     <use xlink:href="#CMSS17-7a" transform="scale(0.996264)"/>
    </g>
   </g>
   <g id="Line3DCollection_3">
    <path d="M 81.768932 247.150911 
L 257.782217 242.045895 
L 392.463001 249.259873 
" style="fill: none; stroke: #b0b0b0; stroke-width: 0.8"/>
    <path d="M 81.768932 215.542439 
L 257.782217 212.479429 
L 392.463001 216.807816 
" style="fill: none; stroke: #b0b0b0; stroke-width: 0.8"/>
    <path d="M 81.768932 183.933966 
L 257.782217 182.912963 
L 392.463001 184.355758 
" style="fill: none; stroke: #b0b0b0; stroke-width: 0.8"/>
    <path d="M 81.768932 152.325493 
L 257.782217 153.346497 
L 392.463001 151.903701 
" style="fill: none; stroke: #b0b0b0; stroke-width: 0.8"/>
    <path d="M 81.768932 120.717021 
L 257.782217 123.780031 
L 392.463001 119.451644 
" style="fill: none; stroke: #b0b0b0; stroke-width: 0.8"/>
    <path d="M 81.768932 89.108548 
L 257.782217 94.213565 
L 392.463001 86.999587 
" style="fill: none; stroke: #b0b0b0; stroke-width: 0.8"/>
   </g>
   <g id="xtick_12">
    <g id="line2d_15">
     <path d="M 83.273458 247.107274 
L 78.754887 247.238329 
" style="fill: none; stroke: #000000; stroke-width: 0.8; stroke-linecap: square"/>
    </g>
    <g id="text_15">
     <!-- $\mathdefault{0}$ -->
     <g transform="translate(59.976416 253.93839)scale(0.1 -0.1)">
      <use xlink:href="#CMR17-30" transform="scale(0.996264)"/>
     </g>
    </g>
   </g>
   <g id="xtick_13">
    <g id="line2d_16">
     <path d="M 83.273458 215.516257 
L 78.754887 215.594889 
" style="fill: none; stroke: #000000; stroke-width: 0.8; stroke-linecap: square"/>
    </g>
    <g id="text_16">
     <!-- $\mathdefault{1}$ -->
     <g transform="translate(59.976416 222.382325)scale(0.1 -0.1)">
      <use xlink:href="#CMR17-31" transform="scale(0.996264)"/>
     </g>
    </g>
   </g>
   <g id="xtick_14">
    <g id="line2d_17">
     <path d="M 83.273458 183.925239 
L 78.754887 183.95145 
" style="fill: none; stroke: #000000; stroke-width: 0.8; stroke-linecap: square"/>
    </g>
    <g id="text_17">
     <!-- $\mathdefault{2}$ -->
     <g transform="translate(59.976416 190.826261)scale(0.1 -0.1)">
      <use xlink:href="#CMR17-32" transform="scale(0.996264)"/>
     </g>
    </g>
   </g>
   <g id="xtick_15">
    <g id="line2d_18">
     <path d="M 83.273458 152.334221 
L 78.754887 152.30801 
" style="fill: none; stroke: #000000; stroke-width: 0.8; stroke-linecap: square"/>
    </g>
    <g id="text_18">
     <!-- $\mathdefault{3}$ -->
     <g transform="translate(59.976416 159.270196)scale(0.1 -0.1)">
      <use xlink:href="#CMR17-33" transform="scale(0.996264)"/>
     </g>
    </g>
   </g>
   <g id="xtick_16">
    <g id="line2d_19">
     <path d="M 83.273458 120.743203 
L 78.754887 120.66457 
" style="fill: none; stroke: #000000; stroke-width: 0.8; stroke-linecap: square"/>
    </g>
    <g id="text_19">
     <!-- $\mathdefault{4}$ -->
     <g transform="translate(59.976416 127.714131)scale(0.1 -0.1)">
      <use xlink:href="#CMR17-34" transform="scale(0.996264)"/>
     </g>
    </g>
   </g>
   <g id="xtick_17">
    <g id="line2d_20">
     <path d="M 83.273458 89.152185 
L 78.754887 89.02113 
" style="fill: none; stroke: #000000; stroke-width: 0.8; stroke-linecap: square"/>
    </g>
    <g id="text_20">
     <!-- $\mathdefault{5}$ -->
     <g transform="translate(59.976416 96.158066)scale(0.1 -0.1)">
      <use xlink:href="#CMR17-35" transform="scale(0.996264)"/>
     </g>
    </g>
   </g>
  </g>
  <g id="axes_1">
   <g id="line2d_21">
    <path d="M 318.625619 245.589798 
L 325.218427 87.456036 
" clip-path="url(#p07a492933e)" style="fill: none; stroke: #ff0000; stroke-width: 1.5; stroke-linecap: square"/>
   </g>
   <g id="line2d_22">
    <path d="M 318.625619 245.589798 
L 227.436857 121.27387 
" clip-path="url(#p07a492933e)" style="fill: none; stroke: #00ff00; stroke-width: 1.5; stroke-linecap: square"/>
   </g>
   <g id="line2d_23">
    <path d="M 318.625619 245.589798 
L 243.235717 -1 
" clip-path="url(#p07a492933e)" style="fill: none; stroke: #0016ff; stroke-width: 1.5; stroke-linecap: square"/>
   </g>
   <g id="line2d_24">
    <path d="M 318.625619 245.589798 
L 110.331459 152.023151 
" clip-path="url(#p07a492933e)" style="fill: none; stroke: #f400ff; stroke-width: 1.5; stroke-linecap: square"/>
   </g>
   <g id="Poly3DCollection_1">
    <path d="M 256.940892 353.489277 
L 240.98204 313.615242 
L 246.880044 303.005097 
L 262.870664 343.116866 
z
" clip-path="url(#p07a492933e)" style="fill: #0000f5; fill-opacity: 0.1"/>
    <path d="M 262.870664 343.116866 
L 246.880044 303.005097 
L 252.829308 292.30274 
L 268.851649 332.654874 
z
" clip-path="url(#p07a492933e)" style="fill: #0000f5; fill-opacity: 0.1"/>
    <path d="M 240.98204 313.615242 
L 224.822126 273.238844 
L 230.687085 262.38577 
L 246.880044 303.005097 
z
" clip-path="url(#p07a492933e)" style="fill: #0000f5; fill-opacity: 0.1"/>
    <path d="M 268.851649 332.654874 
L 252.829308 292.30274 
L 258.830502 281.506963 
L 274.884512 322.102136 
z
" clip-path="url(#p07a492933e)" style="fill: #0000f5; fill-opacity: 0.1"/>
    <path d="M 246.880044 303.005097 
L 230.687085 262.38577 
L 236.60334 251.437773 
L 252.829308 292.30274 
z
" clip-path="url(#p07a492933e)" style="fill: #0000f5; fill-opacity: 0.1"/>
    <path d="M 224.822126 273.238844 
L 208.457327 232.350529 
L 214.287921 221.249189 
L 230.687085 262.38577 
z
" clip-path="url(#p07a492933e)" style="fill: #0000f5; fill-opacity: 0.1"/>
    <path d="M 274.884512 322.102136 
L 258.830502 281.506963 
L 264.88431 270.616537 
L 280.969931 311.457466 
z
" clip-path="url(#p07a492933e)" style="fill: #0000f5; fill-opacity: 0.1"/>
    <path d="M 252.829308 292.30274 
L 236.60334 251.437773 
L 242.571566 240.393602 
L 258.830502 281.506963 
z
" clip-path="url(#p07a492933e)" style="fill: #0000f5; fill-opacity: 0.1"/>
    <path d="M 230.687085 262.38577 
L 214.287921 221.249189 
L 220.169838 210.050133 
L 236.60334 251.437773 
z
" clip-path="url(#p07a492933e)" style="fill: #0000f5; fill-opacity: 0.1"/>
    <path d="M 280.969931 311.457466 
L 264.88431 270.616537 
L 270.991425 259.630214 
L 287.108596 300.719658 
z
" clip-path="url(#p07a492933e)" style="fill: #0000f5; fill-opacity: 0.1"/>
    <path d="M 208.457327 232.350529 
L 191.883721 190.940499 
L 197.67859 179.58541 
L 214.287921 221.249189 
z
" clip-path="url(#p07a492933e)" style="fill: #0000f5; fill-opacity: 0.1"/>
    <path d="M 258.830502 281.506963 
L 242.571566 240.393602 
L 248.592453 229.251984 
L 264.88431 270.616537 
z
" clip-path="url(#p07a492933e)" style="fill: #0000f5; fill-opacity: 0.1"/>
    <path d="M 236.60334 251.437773 
L 220.169838 210.050133 
L 226.103756 198.752067 
L 242.571566 240.393602 
z
" clip-path="url(#p07a492933e)" style="fill: #0000f5; fill-opacity: 0.1"/>
    <path d="M 287.108596 300.719658 
L 270.991425 259.630214 
L 277.152557 248.546719 
L 293.301209 289.887483 
z
" clip-path="url(#p07a492933e)" style="fill: #0000f5; fill-opacity: 0.1"/>
    <path d="M 214.287921 221.249189 
L 197.67859 179.58541 
L 203.524795 168.12973 
L 220.169838 210.050133 
z
" clip-path="url(#p07a492933e)" style="fill: #0000f5; fill-opacity: 0.1"/>
    <path d="M 264.88431 270.616537 
L 248.592453 229.251984 
L 254.666699 218.011624 
L 270.991425 259.630214 
z
" clip-path="url(#p07a492933e)" style="fill: #0000f5; fill-opacity: 0.1"/>
    <path d="M 191.883721 190.940499 
L 175.097285 148.998704 
L 180.855024 137.384234 
L 197.67859 179.58541 
z
" clip-path="url(#p07a492933e)" style="fill: #0000f5; fill-opacity: 0.1"/>
    <path d="M 242.571566 240.393602 
L 226.103756 198.752067 
L 232.090369 187.35367 
L 248.592453 229.251984 
z
" clip-path="url(#p07a492933e)" style="fill: #0000f5; fill-opacity: 0.1"/>
    <path d="M 293.301209 289.887483 
L 277.152557 248.546719 
L 283.368424 237.364759 
L 299.548485 278.959693 
z
" clip-path="url(#p07a492933e)" style="fill: #0000f5; fill-opacity: 0.1"/>
    <path d="M 220.169838 210.050133 
L 203.524795 168.12973 
L 209.42302 156.572114 
L 226.103756 198.752067 
z
" clip-path="url(#p07a492933e)" style="fill: #0000f5; fill-opacity: 0.1"/>
    <path d="M 270.991425 259.630214 
L 254.666699 218.011624 
L 260.795018 206.671204 
L 277.152557 248.546719 
z
" clip-path="url(#p07a492933e)" style="fill: #0000f5; fill-opacity: 0.1"/>
    <path d="M 197.67859 179.58541 
L 180.855024 137.384234 
L 186.6641 125.666208 
L 203.524795 168.12973 
z
" clip-path="url(#p07a492933e)" style="fill: #0000f5; fill-opacity: 0.1"/>
    <path d="M 248.592453 229.251984 
L 232.090369 187.35367 
L 238.130383 175.853601 
L 254.666699 218.011624 
z
" clip-path="url(#p07a492933e)" style="fill: #0000f5; fill-opacity: 0.1"/>
    <path d="M 299.548485 278.959693 
L 283.368424 237.364759 
L 289.639759 226.083016 
L 305.85115 267.935015 
z
" clip-path="url(#p07a492933e)" style="fill: #0000f5; fill-opacity: 0.1"/>
    <path d="M 175.097285 148.998704 
L 158.093895 106.514836 
L 163.813052 94.635196 
L 180.855024 137.384234 
z
" clip-path="url(#p07a492933e)" style="fill: #0000f5; fill-opacity: 0.1"/>
    <path d="M 226.103756 198.752067 
L 209.42302 156.572114 
L 215.373963 144.911198 
L 232.090369 187.35367 
z
" clip-path="url(#p07a492933e)" style="fill: #0000f5; fill-opacity: 0.1"/>
    <path d="M 277.152557 248.546719 
L 260.795018 206.671204 
L 266.978134 195.229381 
L 283.368424 237.364759 
z
" clip-path="url(#p07a492933e)" style="fill: #0000f5; fill-opacity: 0.1"/>
    <path d="M 203.524795 168.12973 
L 186.6641 125.666208 
L 192.525202 113.843234 
L 209.42302 156.572114 
z
" clip-path="url(#p07a492933e)" style="fill: #0000f5; fill-opacity: 0.1"/>
    <path d="M 254.666699 218.011624 
L 238.130383 175.853601 
L 244.224514 164.250493 
L 260.795018 206.671204 
z
" clip-path="url(#p07a492933e)" style="fill: #0000f5; fill-opacity: 0.1"/>
    <path d="M 305.85115 267.935015 
L 289.639759 226.083016 
L 295.967307 214.700147 
L 312.209943 256.812156 
z
" clip-path="url(#p07a492933e)" style="fill: #0000f5; fill-opacity: 0.1"/>
    <path d="M 180.855024 137.384234 
L 163.813052 94.635196 
L 169.583534 82.648945 
L 186.6641 125.666208 
z
" clip-path="url(#p07a492933e)" style="fill: #0000f5; fill-opacity: 0.1"/>
    <path d="M 232.090369 187.35367 
L 215.373963 144.911198 
L 221.378335 133.145588 
L 238.130383 175.853601 
z
" clip-path="url(#p07a492933e)" style="fill: #0000f5; fill-opacity: 0.1"/>
    <path d="M 283.368424 237.364759 
L 266.978134 195.229381 
L 273.216787 183.684789 
L 289.639759 226.083016 
z
" clip-path="url(#p07a492933e)" style="fill: #0000f5; fill-opacity: 0.1"/>
    <path d="M 158.093895 106.514836 
L 140.869317 63.478317 
L 146.548393 51.327557 
L 163.813052 94.635196 
z
" clip-path="url(#p07a492933e)" style="fill: #0000f5; fill-opacity: 0.1"/>
    <path d="M 209.42302 156.572114 
L 192.525202 113.843234 
L 198.439032 101.913897 
L 215.373963 144.911198 
z
" clip-path="url(#p07a492933e)" style="fill: #0000f5; fill-opacity: 0.1"/>
    <path d="M 260.795018 206.671204 
L 244.224514 164.250493 
L 250.373493 152.542955 
L 266.978134 195.229381 
z
" clip-path="url(#p07a492933e)" style="fill: #0000f5; fill-opacity: 0.1"/>
    <path d="M 312.209943 256.812156 
L 295.967307 214.700147 
L 302.351829 203.214787 
L 318.625619 245.589798 
z
" clip-path="url(#p07a492933e)" style="fill: #0000f5; fill-opacity: 0.1"/>
    <path d="M 186.6641 125.666208 
L 169.583534 82.648945 
L 175.406036 70.554641 
L 192.525202 113.843234 
z
" clip-path="url(#p07a492933e)" style="fill: #0000f5; fill-opacity: 0.1"/>
    <path d="M 238.130383 175.853601 
L 221.378335 133.145588 
L 227.436857 121.27387 
L 244.224514 164.250493 
z
" clip-path="url(#p07a492933e)" style="fill: #0000f5; fill-opacity: 0.1"/>
    <path d="M 289.639759 226.083016 
L 273.216787 183.684789 
L 279.511726 172.036037 
L 295.967307 214.700147 
z
" clip-path="url(#p07a492933e)" style="fill: #0000f5; fill-opacity: 0.1"/>
    <path d="M 163.813052 94.635196 
L 146.548393 51.327557 
L 152.278769 39.067037 
L 169.583534 82.648945 
z
" clip-path="url(#p07a492933e)" style="fill: #0000f5; fill-opacity: 0.1"/>
    <path d="M 215.373963 144.911198 
L 198.439032 101.913897 
L 204.406307 89.876753 
L 221.378335 133.145588 
z
" clip-path="url(#p07a492933e)" style="fill: #0000f5; fill-opacity: 0.1"/>
    <path d="M 266.978134 195.229381 
L 250.373493 152.542955 
L 256.578064 140.729571 
L 273.216787 183.684789 
z
" clip-path="url(#p07a492933e)" style="fill: #0000f5; fill-opacity: 0.1"/>
    <path d="M 318.625619 245.589798 
L 302.351829 203.214787 
L 308.794097 191.625546 
L 325.098944 234.2666 
z
" clip-path="url(#p07a492933e)" style="fill: #0000f5; fill-opacity: 0.1"/>
    <path d="M 140.869317 63.478317 
L 123.419206 19.878294 
L 129.056654 7.450297 
L 146.548393 51.327557 
z
" clip-path="url(#p07a492933e)" style="fill: #0000f5; fill-opacity: 0.1"/>
    <path d="M 192.525202 113.843234 
L 175.406036 70.554641 
L 181.281263 58.350815 
L 198.439032 101.913897 
z
" clip-path="url(#p07a492933e)" style="fill: #0000f5; fill-opacity: 0.1"/>
    <path d="M 244.224514 164.250493 
L 227.436857 121.27387 
L 233.550266 109.294602 
L 250.373493 152.542955 
z
" clip-path="url(#p07a492933e)" style="fill: #0000f5; fill-opacity: 0.1"/>
    <path d="M 295.967307 214.700147 
L 279.511726 172.036037 
L 285.863718 160.28171 
L 302.351829 203.214787 
z
" clip-path="url(#p07a492933e)" style="fill: #0000f5; fill-opacity: 0.1"/>
    <path d="M 169.583534 82.648945 
L 152.278769 39.067037 
L 158.061144 26.695263 
L 175.406036 70.554641 
z
" clip-path="url(#p07a492933e)" style="fill: #0000f5; fill-opacity: 0.1"/>
    <path d="M 221.378335 133.145588 
L 204.406307 89.876753 
L 210.427752 77.730336 
L 227.436857 121.27387 
z
" clip-path="url(#p07a492933e)" style="fill: #0000f5; fill-opacity: 0.1"/>
    <path d="M 273.216787 183.684789 
L 256.578064 140.729571 
L 262.838984 128.808899 
L 279.511726 172.036037 
z
" clip-path="url(#p07a492933e)" style="fill: #0000f5; fill-opacity: 0.1"/>
    <path d="M 325.098944 234.2666 
L 308.794097 191.625546 
L 315.294898 179.931007 
L 331.630699 222.841196 
z
" clip-path="url(#p07a492933e)" style="fill: #0000f5; fill-opacity: 0.1"/>
    <path d="M 146.548393 51.327557 
L 129.056654 7.450297 
L 134.745362 -5.090705 
L 152.278769 39.067037 
z
" clip-path="url(#p07a492933e)" style="fill: #0000f5; fill-opacity: 0.1"/>
    <path d="M 198.439032 101.913897 
L 181.281263 58.350815 
L 187.209936 46.035975 
L 204.406307 89.876753 
z
" clip-path="url(#p07a492933e)" style="fill: #0000f5; fill-opacity: 0.1"/>
    <path d="M 250.373493 152.542955 
L 233.550266 109.294602 
L 239.719311 97.206314 
L 256.578064 140.729571 
z
" clip-path="url(#p07a492933e)" style="fill: #0000f5; fill-opacity: 0.1"/>
    <path d="M 302.351829 203.214787 
L 285.863718 160.28171 
L 292.273543 148.420366 
L 308.794097 191.625546 
z
" clip-path="url(#p07a492933e)" style="fill: #0000f5; fill-opacity: 0.1"/>
    <path d="M 123.419206 19.878294 
L 105.739104 -24.296376 
L 111.333324 -37.007897 
L 129.056654 7.450297 
z
" clip-path="url(#p07a492933e)" style="fill: #0000f5; fill-opacity: 0.1"/>
    <path d="M 175.406036 70.554641 
L 158.061144 26.695263 
L 163.896228 14.210713 
L 181.281263 58.350815 
z
" clip-path="url(#p07a492933e)" style="fill: #0000f5; fill-opacity: 0.1"/>
    <path d="M 227.436857 121.27387 
L 210.427752 77.730336 
L 216.504109 65.473151 
L 233.550266 109.294602 
z
" clip-path="url(#p07a492933e)" style="fill: #0000f5; fill-opacity: 0.1"/>
    <path d="M 279.511726 172.036037 
L 262.838984 128.808899 
L 269.157025 116.779471 
L 285.863718 160.28171 
z
" clip-path="url(#p07a492933e)" style="fill: #0000f5; fill-opacity: 0.1"/>
    <path d="M 331.630699 222.841196 
L 315.294898 179.931007 
L 321.855033 168.12973 
L 338.221677 211.312197 
z
" clip-path="url(#p07a492933e)" style="fill: #0000f5; fill-opacity: 0.1"/>
    <path d="M 152.278769 39.067037 
L 134.745362 -5.090705 
L 140.486033 -17.746262 
L 158.061144 26.695263 
z
" clip-path="url(#p07a492933e)" style="fill: #0000f5; fill-opacity: 0.1"/>
    <path d="M 204.406307 89.876753 
L 187.209936 46.035975 
L 193.192787 33.608598 
L 210.427752 77.730336 
z
" clip-path="url(#p07a492933e)" style="fill: #0000f5; fill-opacity: 0.1"/>
    <path d="M 256.578064 140.729571 
L 239.719311 97.206314 
L 245.944754 85.007512 
L 262.838984 128.808899 
z
" clip-path="url(#p07a492933e)" style="fill: #0000f5; fill-opacity: 0.1"/>
    <path d="M 308.794097 191.625546 
L 292.273543 148.420366 
L 298.741992 136.450536 
L 315.294898 179.931007 
z
" clip-path="url(#p07a492933e)" style="fill: #0000f5; fill-opacity: 0.1"/>
    <path d="M 129.056654 7.450297 
L 111.333324 -37.007897 
L 116.97875 -49.835772 
L 134.745362 -5.090705 
z
" clip-path="url(#p07a492933e)" style="fill: #0000f5; fill-opacity: 0.1"/>
    <path d="M 181.281263 58.350815 
L 163.896228 14.210713 
L 169.784746 1.611839 
L 187.209936 46.035975 
z
" clip-path="url(#p07a492933e)" style="fill: #0000f5; fill-opacity: 0.1"/>
    <path d="M 233.550266 109.294602 
L 216.504109 65.473151 
L 222.636133 53.103675 
L 239.719311 97.206314 
z
" clip-path="url(#p07a492933e)" style="fill: #0000f5; fill-opacity: 0.1"/>
    <path d="M 285.863718 160.28171 
L 269.157025 116.779471 
L 275.532972 104.639791 
L 292.273543 148.420366 
z
" clip-path="url(#p07a492933e)" style="fill: #0000f5; fill-opacity: 0.1"/>
    <path d="M 338.221677 211.312197 
L 321.855033 168.12973 
L 328.475319 156.220245 
L 344.872689 199.678187 
z
" clip-path="url(#p07a492933e)" style="fill: #0000f5; fill-opacity: 0.1"/>
    <path d="M 158.061144 26.695263 
L 140.486033 -17.746262 
L 146.279382 -30.517951 
L 163.896228 14.210713 
z
" clip-path="url(#p07a492933e)" style="fill: #0000f5; fill-opacity: 0.1"/>
    <path d="M 210.427752 77.730336 
L 193.192787 33.608598 
L 199.230562 21.067135 
L 216.504109 65.473151 
z
" clip-path="url(#p07a492933e)" style="fill: #0000f5; fill-opacity: 0.1"/>
    <path d="M 262.838984 128.808899 
L 245.944754 85.007512 
L 252.227373 72.696674 
L 269.157025 116.779471 
z
" clip-path="url(#p07a492933e)" style="fill: #0000f5; fill-opacity: 0.1"/>
    <path d="M 315.294898 179.931007 
L 298.741992 136.450536 
L 305.269874 124.370725 
L 321.855033 168.12973 
z
" clip-path="url(#p07a492933e)" style="fill: #0000f5; fill-opacity: 0.1"/>
    <path d="M 134.745362 -5.090705 
L 116.97875 -49.835772 
L 122.676087 -62.781603 
L 140.486033 -17.746262 
z
" clip-path="url(#p07a492933e)" style="fill: #0000f5; fill-opacity: 0.1"/>
    <path d="M 187.209936 46.035975 
L 169.784746 1.611839 
L 175.727434 -11.102936 
L 193.192787 33.608598 
z
" clip-path="url(#p07a492933e)" style="fill: #0000f5; fill-opacity: 0.1"/>
    <path d="M 239.719311 97.206314 
L 222.636133 53.103675 
L 228.824593 40.620358 
L 245.944754 85.007512 
z
" clip-path="url(#p07a492933e)" style="fill: #0000f5; fill-opacity: 0.1"/>
    <path d="M 292.273543 148.420366 
L 275.532972 104.639791 
L 281.967624 92.388337 
L 298.741992 136.450536 
z
" clip-path="url(#p07a492933e)" style="fill: #0000f5; fill-opacity: 0.1"/>
    <path d="M 344.872689 199.678187 
L 328.475319 156.220245 
L 335.156586 144.201059 
L 351.584559 187.937725 
z
" clip-path="url(#p07a492933e)" style="fill: #0000f5; fill-opacity: 0.1"/>
    <path d="M 163.896228 14.210713 
L 146.279382 -30.517951 
L 152.126138 -43.407376 
L 169.784746 1.611839 
z
" clip-path="url(#p07a492933e)" style="fill: #0000f5; fill-opacity: 0.1"/>
    <path d="M 216.504109 65.473151 
L 199.230562 21.067135 
L 205.324021 8.410007 
L 222.636133 53.103675 
z
" clip-path="url(#p07a492933e)" style="fill: #0000f5; fill-opacity: 0.1"/>
    <path d="M 269.157025 116.779471 
L 252.227373 72.696674 
L 258.56796 60.272249 
L 275.532972 104.639791 
z
" clip-path="url(#p07a492933e)" style="fill: #0000f5; fill-opacity: 0.1"/>
    <path d="M 321.855033 168.12973 
L 305.269874 124.370725 
L 311.858013 112.17941 
L 328.475319 156.220245 
z
" clip-path="url(#p07a492933e)" style="fill: #0000f5; fill-opacity: 0.1"/>
    <path d="M 140.486033 -17.746262 
L 122.676087 -62.781603 
L 128.426057 -75.847028 
L 146.279382 -30.517951 
z
" clip-path="url(#p07a492933e)" style="fill: #0000f5; fill-opacity: 0.1"/>
    <path d="M 193.192787 33.608598 
L 175.727434 -11.102936 
L 181.725044 -23.935221 
L 199.230562 21.067135 
z
" clip-path="url(#p07a492933e)" style="fill: #0000f5; fill-opacity: 0.1"/>
    <path d="M 245.944754 85.007512 
L 228.824593 40.620358 
L 235.07027 28.021621 
L 252.227373 72.696674 
z
" clip-path="url(#p07a492933e)" style="fill: #0000f5; fill-opacity: 0.1"/>
    <path d="M 298.741992 136.450536 
L 281.967624 92.388337 
L 288.461796 80.023558 
L 305.269874 124.370725 
z
" clip-path="url(#p07a492933e)" style="fill: #0000f5; fill-opacity: 0.1"/>
    <path d="M 351.584559 187.937725 
L 335.156586 144.201059 
L 341.899681 132.070648 
L 358.358124 176.089344 
z
" clip-path="url(#p07a492933e)" style="fill: #0000f5; fill-opacity: 0.1"/>
    <path d="M 169.784746 1.611839 
L 152.126138 -43.407376 
L 158.027042 -56.416174 
L 175.727434 -11.102936 
z
" clip-path="url(#p07a492933e)" style="fill: #0000f5; fill-opacity: 0.1"/>
    <path d="M 222.636133 53.103675 
L 205.324021 8.410007 
L 211.473938 -4.364394 
L 228.824593 40.620358 
z
" clip-path="url(#p07a492933e)" style="fill: #0000f5; fill-opacity: 0.1"/>
    <path d="M 275.532972 104.639791 
L 258.56796 60.272249 
L 264.967319 47.732658 
L 281.967624 92.388337 
z
" clip-path="url(#p07a492933e)" style="fill: #0000f5; fill-opacity: 0.1"/>
    <path d="M 328.475319 156.220245 
L 311.858013 112.17941 
L 318.507246 99.87504 
L 335.156586 144.201059 
z
" clip-path="url(#p07a492933e)" style="fill: #0000f5; fill-opacity: 0.1"/>
    <path d="M 146.279382 -30.517951 
L 128.426057 -75.847028 
L 134.22939 -89.033709 
L 152.126138 -43.407376 
z
" clip-path="url(#p07a492933e)" style="fill: #0000f5; fill-opacity: 0.1"/>
    <path d="M 199.230562 21.067135 
L 181.725044 -23.935221 
L 187.778341 -36.886651 
L 205.324021 8.410007 
z
" clip-path="url(#p07a492933e)" style="fill: #0000f5; fill-opacity: 0.1"/>
    <path d="M 252.227373 72.696674 
L 235.07027 28.021621 
L 241.373963 15.305857 
L 258.56796 60.272249 
z
" clip-path="url(#p07a492933e)" style="fill: #0000f5; fill-opacity: 0.1"/>
    <path d="M 305.269874 124.370725 
L 288.461796 80.023558 
L 295.016318 67.543874 
L 311.858013 112.17941 
z
" clip-path="url(#p07a492933e)" style="fill: #0000f5; fill-opacity: 0.1"/>
    <path d="M 358.358124 176.089344 
L 341.899681 132.070648 
L 348.705467 119.827461 
L 365.194241 164.131547 
z
" clip-path="url(#p07a492933e)" style="fill: #0000f5; fill-opacity: 0.1"/>
    <path d="M 175.727434 -11.102936 
L 158.027042 -56.416174 
L 163.98285 -69.546011 
L 181.725044 -23.935221 
z
" clip-path="url(#p07a492933e)" style="fill: #0000f5; fill-opacity: 0.1"/>
    <path d="M 228.824593 40.620358 
L 211.473938 -4.364394 
L 217.681101 -17.257704 
L 235.07027 28.021621 
z
" clip-path="url(#p07a492933e)" style="fill: #0000f5; fill-opacity: 0.1"/>
    <path d="M 281.967624 92.388337 
L 264.967319 47.732658 
L 271.426273 35.076292 
L 288.461796 80.023558 
z
" clip-path="url(#p07a492933e)" style="fill: #0000f5; fill-opacity: 0.1"/>
    <path d="M 335.156586 144.201059 
L 318.507246 99.87504 
L 325.218427 87.456036 
L 341.899681 132.070648 
z
" clip-path="url(#p07a492933e)" style="fill: #0000f5; fill-opacity: 0.1"/>
    <path d="M 152.126138 -43.407376 
L 134.22939 -89.033709 
L 140.086834 -102.343343 
L 158.027042 -56.416174 
z
" clip-path="url(#p07a492933e)" style="fill: #0000f5; fill-opacity: 0.1"/>
    <path d="M 205.324021 8.410007 
L 187.778341 -36.886651 
L 193.888103 -49.958893 
L 211.473938 -4.364394 
z
" clip-path="url(#p07a492933e)" style="fill: #0000f5; fill-opacity: 0.1"/>
    <path d="M 258.56796 60.272249 
L 241.373963 15.305857 
L 247.736483 2.471427 
L 264.967319 47.732658 
z
" clip-path="url(#p07a492933e)" style="fill: #0000f5; fill-opacity: 0.1"/>
    <path d="M 311.858013 112.17941 
L 295.016318 67.543874 
L 301.632034 54.947677 
L 318.507246 99.87504 
z
" clip-path="url(#p07a492933e)" style="fill: #0000f5; fill-opacity: 0.1"/>
    <path d="M 365.194241 164.131547 
L 348.705467 119.827461 
L 355.574821 107.469917 
L 372.093779 152.062813 
z
" clip-path="url(#p07a492933e)" style="fill: #0000f5; fill-opacity: 0.1"/>
    <path d="M 181.725044 -23.935221 
L 163.98285 -69.546011 
L 169.994333 -82.798584 
L 187.778341 -36.886651 
z
" clip-path="url(#p07a492933e)" style="fill: #0000f5; fill-opacity: 0.1"/>
    <path d="M 235.07027 28.021621 
L 217.681101 -17.257704 
L 223.946313 -30.271592 
L 241.373963 15.305857 
z
" clip-path="url(#p07a492933e)" style="fill: #0000f5; fill-opacity: 0.1"/>
    <path d="M 288.461796 80.023558 
L 271.426273 35.076292 
L 277.945657 22.301511 
L 295.016318 67.543874 
z
" clip-path="url(#p07a492933e)" style="fill: #0000f5; fill-opacity: 0.1"/>
    <path d="M 341.899681 132.070648 
L 325.218427 87.456036 
L 331.992426 74.920788 
L 348.705467 119.827461 
z
" clip-path="url(#p07a492933e)" style="fill: #0000f5; fill-opacity: 0.1"/>
    <path d="M 158.027042 -56.416174 
L 140.086834 -102.343343 
L 145.999149 -115.777658 
L 163.98285 -69.546011 
z
" clip-path="url(#p07a492933e)" style="fill: #0000f5; fill-opacity: 0.1"/>
    <path d="M 211.473938 -4.364394 
L 193.888103 -49.958893 
L 200.055125 -63.153646 
L 217.681101 -17.257704 
z
" clip-path="url(#p07a492933e)" style="fill: #0000f5; fill-opacity: 0.1"/>
    <path d="M 264.967319 47.732658 
L 247.736483 2.471427 
L 254.158657 -10.483338 
L 271.426273 35.076292 
z
" clip-path="url(#p07a492933e)" style="fill: #0000f5; fill-opacity: 0.1"/>
    <path d="M 318.507246 99.87504 
L 301.632034 54.947677 
L 308.309807 42.233326 
L 325.218427 87.456036 
z
" clip-path="url(#p07a492933e)" style="fill: #0000f5; fill-opacity: 0.1"/>
    <path d="M 372.093779 152.062813 
L 355.574821 107.469917 
L 362.508638 94.996409 
L 379.057626 139.88159 
z
" clip-path="url(#p07a492933e)" style="fill: #0000f5; fill-opacity: 0.1"/>
    <path d="M 187.778341 -36.886651 
L 169.994333 -82.798584 
L 176.062274 -96.175621 
L 193.888103 -49.958893 
z
" clip-path="url(#p07a492933e)" style="fill: #0000f5; fill-opacity: 0.1"/>
    <path d="M 241.373963 15.305857 
L 223.946313 -30.271592 
L 230.270393 -43.407758 
L 247.736483 2.471427 
z
" clip-path="url(#p07a492933e)" style="fill: #0000f5; fill-opacity: 0.1"/>
    <path d="M 295.016318 67.543874 
L 277.945657 22.301511 
L 284.526323 9.406648 
L 301.632034 54.947677 
z
" clip-path="url(#p07a492933e)" style="fill: #0000f5; fill-opacity: 0.1"/>
    <path d="M 348.705467 119.827461 
L 331.992426 74.920788 
L 338.830129 62.267656 
L 355.574821 107.469917 
z
" clip-path="url(#p07a492933e)" style="fill: #0000f5; fill-opacity: 0.1"/>
    <path d="M 163.98285 -69.546011 
L 145.999149 -115.777658 
L 151.967109 -129.338414 
L 169.994333 -82.798584 
z
" clip-path="url(#p07a492933e)" style="fill: #0000f5; fill-opacity: 0.1"/>
    <path d="M 217.681101 -17.257704 
L 200.055125 -63.153646 
L 206.280216 -76.47264 
L 223.946313 -30.271592 
z
" clip-path="url(#p07a492933e)" style="fill: #0000f5; fill-opacity: 0.1"/>
    <path d="M 271.426273 35.076292 
L 254.158657 -10.483338 
L 260.641329 -23.560138 
L 277.945657 22.301511 
z
" clip-path="url(#p07a492933e)" style="fill: #0000f5; fill-opacity: 0.1"/>
    <path d="M 325.218427 87.456036 
L 308.309807 42.233326 
L 315.050513 29.399152 
L 331.992426 74.920788 
z
" clip-path="url(#p07a492933e)" style="fill: #0000f5; fill-opacity: 0.1"/>
    <path d="M 193.888103 -49.958893 
L 176.062274 -96.175621 
L 182.187472 -109.678886 
L 200.055125 -63.153646 
z
" clip-path="url(#p07a492933e)" style="fill: #0000f5; fill-opacity: 0.1"/>
    <path d="M 247.736483 2.471427 
L 230.270393 -43.407758 
L 236.654173 -56.667931 
L 254.158657 -10.483338 
z
" clip-path="url(#p07a492933e)" style="fill: #0000f5; fill-opacity: 0.1"/>
    <path d="M 301.632034 54.947677 
L 284.526323 9.406648 
L 291.16914 -3.61 
L 308.309807 42.233326 
z
" clip-path="url(#p07a492933e)" style="fill: #0000f5; fill-opacity: 0.1"/>
    <path d="M 355.574821 107.469917 
L 338.830129 62.267656 
L 345.732439 49.49497 
L 362.508638 94.996409 
z
" clip-path="url(#p07a492933e)" style="fill: #0000f5; fill-opacity: 0.1"/>
    <path d="M 169.994333 -82.798584 
L 151.967109 -129.338414 
L 157.991504 -143.027404 
L 176.062274 -96.175621 
z
" clip-path="url(#p07a492933e)" style="fill: #0000f5; fill-opacity: 0.1"/>
    <path d="M 223.946313 -30.271592 
L 206.280216 -76.47264 
L 212.564198 -89.917638 
L 230.270393 -43.407758 
z
" clip-path="url(#p07a492933e)" style="fill: #0000f5; fill-opacity: 0.1"/>
    <path d="M 277.945657 22.301511 
L 260.641329 -23.560138 
L 267.185357 -36.760706 
L 284.526323 9.406648 
z
" clip-path="url(#p07a492933e)" style="fill: #0000f5; fill-opacity: 0.1"/>
    <path d="M 331.992426 74.920788 
L 315.050513 29.399152 
L 321.855045 16.443453 
L 338.830129 62.267656 
z
" clip-path="url(#p07a492933e)" style="fill: #0000f5; fill-opacity: 0.1"/>
    <path d="M 200.055125 -63.153646 
L 182.187472 -109.678886 
L 188.370743 -123.310172 
L 206.280216 -76.47264 
z
" clip-path="url(#p07a492933e)" style="fill: #0000f5; fill-opacity: 0.1"/>
    <path d="M 254.158657 -10.483338 
L 236.654173 -56.667931 
L 243.098504 -70.053878 
L 260.641329 -23.560138 
z
" clip-path="url(#p07a492933e)" style="fill: #0000f5; fill-opacity: 0.1"/>
    <path d="M 308.309807 42.233326 
L 291.16914 -3.61 
L 297.874993 -16.750167 
L 315.050513 29.399152 
z
" clip-path="url(#p07a492933e)" style="fill: #0000f5; fill-opacity: 0.1"/>
    <path d="M 176.062274 -96.175621 
L 157.991504 -143.027404 
L 164.073138 -156.846456 
L 182.187472 -109.678886 
z
" clip-path="url(#p07a492933e)" style="fill: #0000f5; fill-opacity: 0.1"/>
    <path d="M 230.270393 -43.407758 
L 212.564198 -89.917638 
L 218.907913 -103.490437 
L 236.654173 -56.667931 
z
" clip-path="url(#p07a492933e)" style="fill: #0000f5; fill-opacity: 0.1"/>
    <path d="M 284.526323 9.406648 
L 267.185357 -36.760706 
L 273.791617 -50.086808 
L 291.16914 -3.61 
z
" clip-path="url(#p07a492933e)" style="fill: #0000f5; fill-opacity: 0.1"/>
    <path d="M 338.830129 62.267656 
L 321.855045 16.443453 
L 328.724316 3.364494 
L 345.732439 49.49497 
z
" clip-path="url(#p07a492933e)" style="fill: #0000f5; fill-opacity: 0.1"/>
    <path d="M 206.280216 -76.47264 
L 188.370743 -123.310172 
L 194.612914 -137.071309 
L 212.564198 -89.917638 
z
" clip-path="url(#p07a492933e)" style="fill: #0000f5; fill-opacity: 0.1"/>
    <path d="M 260.641329 -23.560138 
L 243.098504 -70.053878 
L 249.60425 -83.567396 
L 267.185357 -36.760706 
z
" clip-path="url(#p07a492933e)" style="fill: #0000f5; fill-opacity: 0.1"/>
    <path d="M 315.050513 29.399152 
L 297.874993 -16.750167 
L 304.644782 -30.015618 
L 321.855045 16.443453 
z
" clip-path="url(#p07a492933e)" style="fill: #0000f5; fill-opacity: 0.1"/>
    <path d="M 182.187472 -109.678886 
L 164.073138 -156.846456 
L 170.21283 -170.797433 
L 188.370743 -123.310172 
z
" clip-path="url(#p07a492933e)" style="fill: #0000f5; fill-opacity: 0.1"/>
    <path d="M 236.654173 -56.667931 
L 218.907913 -103.490437 
L 225.312216 -117.192867 
L 243.098504 -70.053878 
z
" clip-path="url(#p07a492933e)" style="fill: #0000f5; fill-opacity: 0.1"/>
    <path d="M 291.16914 -3.61 
L 273.791617 -50.086808 
L 280.461001 -63.540242 
L 297.874993 -16.750167 
z
" clip-path="url(#p07a492933e)" style="fill: #0000f5; fill-opacity: 0.1"/>
    <path d="M 212.564198 -89.917638 
L 194.612914 -137.071309 
L 200.914834 -150.964162 
L 218.907913 -103.490437 
z
" clip-path="url(#p07a492933e)" style="fill: #0000f5; fill-opacity: 0.1"/>
    <path d="M 267.185357 -36.760706 
L 249.60425 -83.567396 
L 256.172295 -97.210318 
L 273.791617 -50.086808 
z
" clip-path="url(#p07a492933e)" style="fill: #0000f5; fill-opacity: 0.1"/>
    <path d="M 321.855045 16.443453 
L 304.644782 -30.015618 
L 311.479427 -43.408154 
L 328.724316 3.364494 
z
" clip-path="url(#p07a492933e)" style="fill: #0000f5; fill-opacity: 0.1"/>
    <path d="M 188.370743 -123.310172 
L 170.21283 -170.797433 
L 176.411417 -184.882232 
L 194.612914 -137.071309 
z
" clip-path="url(#p07a492933e)" style="fill: #0000f5; fill-opacity: 0.1"/>
    <path d="M 243.098504 -70.053878 
L 225.312216 -117.192867 
L 231.777978 -131.026795 
L 249.60425 -83.567396 
z
" clip-path="url(#p07a492933e)" style="fill: #0000f5; fill-opacity: 0.1"/>
    <path d="M 297.874993 -16.750167 
L 280.461001 -63.540242 
L 287.194417 -77.122842 
L 304.644782 -30.015618 
z
" clip-path="url(#p07a492933e)" style="fill: #0000f5; fill-opacity: 0.1"/>
    <path d="M 218.907913 -103.490437 
L 200.914834 -150.964162 
L 207.277362 -164.99063 
L 225.312216 -117.192867 
z
" clip-path="url(#p07a492933e)" style="fill: #0000f5; fill-opacity: 0.1"/>
    <path d="M 273.791617 -50.086808 
L 256.172295 -97.210318 
L 262.803536 -110.98451 
L 280.461001 -63.540242 
z
" clip-path="url(#p07a492933e)" style="fill: #0000f5; fill-opacity: 0.1"/>
    <path d="M 194.612914 -137.071309 
L 176.411417 -184.882232 
L 182.669749 -199.102788 
L 200.914834 -150.964162 
z
" clip-path="url(#p07a492933e)" style="fill: #0000f5; fill-opacity: 0.1"/>
    <path d="M 249.60425 -83.567396 
L 231.777978 -131.026795 
L 238.30609 -144.994122 
L 256.172295 -97.210318 
z
" clip-path="url(#p07a492933e)" style="fill: #0000f5; fill-opacity: 0.1"/>
    <path d="M 304.644782 -30.015618 
L 287.194417 -77.122842 
L 293.992793 -90.836477 
L 311.479427 -43.408154 
z
" clip-path="url(#p07a492933e)" style="fill: #0000f5; fill-opacity: 0.1"/>
    <path d="M 225.312216 -117.192867 
L 207.277362 -164.99063 
L 213.701378 -179.15265 
L 231.777978 -131.026795 
z
" clip-path="url(#p07a492933e)" style="fill: #0000f5; fill-opacity: 0.1"/>
    <path d="M 280.461001 -63.540242 
L 262.803536 -110.98451 
L 269.498892 -124.891877 
L 287.194417 -77.122842 
z
" clip-path="url(#p07a492933e)" style="fill: #0000f5; fill-opacity: 0.1"/>
    <path d="M 200.914834 -150.964162 
L 182.669749 -199.102788 
L 188.988694 -213.461074 
L 207.277362 -164.99063 
z
" clip-path="url(#p07a492933e)" style="fill: #0000f5; fill-opacity: 0.1"/>
    <path d="M 256.172295 -97.210318 
L 238.30609 -144.994122 
L 244.897456 -159.096788 
L 262.803536 -110.98451 
z
" clip-path="url(#p07a492933e)" style="fill: #0000f5; fill-opacity: 0.1"/>
    <path d="M 231.777978 -131.026795 
L 213.701378 -179.15265 
L 220.187777 -193.452198 
L 238.30609 -144.994122 
z
" clip-path="url(#p07a492933e)" style="fill: #0000f5; fill-opacity: 0.1"/>
    <path d="M 287.194417 -77.122842 
L 269.498892 -124.891877 
L 276.259295 -138.93436 
L 293.992793 -90.836477 
z
" clip-path="url(#p07a492933e)" style="fill: #0000f5; fill-opacity: 0.1"/>
    <path d="M 207.277362 -164.99063 
L 188.988694 -213.461074 
L 195.369138 -227.959101 
L 213.701378 -179.15265 
z
" clip-path="url(#p07a492933e)" style="fill: #0000f5; fill-opacity: 0.1"/>
    <path d="M 262.803536 -110.98451 
L 244.897456 -159.096788 
L 251.553002 -173.33677 
L 269.498892 -124.891877 
z
" clip-path="url(#p07a492933e)" style="fill: #0000f5; fill-opacity: 0.1"/>
    <path d="M 238.30609 -144.994122 
L 220.187777 -193.452198 
L 226.737473 -207.891285 
L 244.897456 -159.096788 
z
" clip-path="url(#p07a492933e)" style="fill: #0000f5; fill-opacity: 0.1"/>
    <path d="M 213.701378 -179.15265 
L 195.369138 -227.959101 
L 201.811983 -242.598918 
L 220.187777 -193.452198 
z
" clip-path="url(#p07a492933e)" style="fill: #0000f5; fill-opacity: 0.1"/>
    <path d="M 269.498892 -124.891877 
L 251.553002 -173.33677 
L 258.273669 -187.716082 
L 276.259295 -138.93436 
z
" clip-path="url(#p07a492933e)" style="fill: #0000f5; fill-opacity: 0.1"/>
    <path d="M 244.897456 -159.096788 
L 226.737473 -207.891285 
L 233.351397 -222.471965 
L 251.553002 -173.33677 
z
" clip-path="url(#p07a492933e)" style="fill: #0000f5; fill-opacity: 0.1"/>
    <path d="M 220.187777 -193.452198 
L 201.811983 -242.598918 
L 208.318148 -257.382615 
L 226.737473 -207.891285 
z
" clip-path="url(#p07a492933e)" style="fill: #0000f5; fill-opacity: 0.1"/>
    <path d="M 251.553002 -173.33677 
L 233.351397 -222.471965 
L 240.030498 -237.196331 
L 258.273669 -187.716082 
z
" clip-path="url(#p07a492933e)" style="fill: #0000f5; fill-opacity: 0.1"/>
    <path d="M 226.737473 -207.891285 
L 208.318148 -257.382615 
L 214.888572 -272.312324 
L 233.351397 -222.471965 
z
" clip-path="url(#p07a492933e)" style="fill: #0000f5; fill-opacity: 0.1"/>
    <path d="M 233.351397 -222.471965 
L 214.888572 -272.312324 
L 221.524211 -287.39022 
L 240.030498 -237.196331 
z
" clip-path="url(#p07a492933e)" style="fill: #0000f5; fill-opacity: 0.1"/>
   </g>
   <g id="legend_1">
    <g id="patch_6">
     <path d="M 357.840076 67.305115 
L 396.2 67.305115 
Q 398.2 67.305115 398.2 65.305115 
L 398.2 7 
Q 398.2 5 396.2 5 
L 357.840076 5 
Q 355.840076 5 355.840076 7 
L 355.840076 65.305115 
Q 355.840076 67.305115 357.840076 67.305115 
z
" style="fill: #ffffff; opacity: 0.8; stroke: #cccccc; stroke-linejoin: miter"/>
    </g>
    <g id="line2d_25">
     <path d="M 359.840076 12.5 
L 369.840076 12.5 
L 379.840076 12.5 
" style="fill: none; stroke: #ff0000; stroke-width: 1.5; stroke-linecap: square"/>
    </g>
    <g id="text_21">
     <!-- $\vec{a}$ -->
     <g transform="translate(387.840076 16)scale(0.1 -0.1)">
      <defs>
       <path id="CMMI12-7e" d="M 3424 3835 
C 3347 3764 3110 3540 3110 3451 
C 3110 3387 3168 3329 3232 3329 
C 3290 3329 3315 3368 3360 3432 
C 3514 3624 3686 3745 3834 3828 
C 3898 3867 3942 3886 3942 3956 
C 3942 4014 3891 4046 3853 4078 
C 3674 4200 3629 4372 3610 4449 
C 3590 4500 3571 4577 3482 4577 
C 3443 4577 3366 4552 3366 4456 
C 3366 4398 3405 4244 3526 4072 
L 1376 4072 
C 1267 4072 1158 4072 1158 3950 
C 1158 3835 1274 3835 1376 3835 
L 3424 3835 
z
" transform="scale(0.015625)"/>
       <path id="CMMI12-61" d="M 1926 760 
C 1894 651 1894 639 1805 517 
C 1664 338 1382 64 1082 64 
C 819 64 672 300 672 677 
C 672 1028 870 1743 992 2012 
C 1210 2459 1510 2689 1760 2689 
C 2182 2689 2266 2165 2266 2114 
C 2266 2108 2246 2024 2240 2012 
L 1926 760 
z
M 2336 2395 
C 2266 2561 2093 2816 1760 2816 
C 1037 2816 256 1884 256 939 
C 256 307 627 -64 1062 -64 
C 1414 -64 1715 211 1894 422 
C 1958 45 2259 -64 2451 -64 
C 2643 -64 2797 51 2912 281 
C 3014 498 3104 888 3104 913 
C 3104 945 3078 971 3040 971 
C 2982 971 2976 939 2950 843 
C 2854 466 2733 64 2470 64 
C 2285 64 2272 230 2272 358 
C 2272 505 2291 575 2349 824 
C 2394 984 2426 1124 2477 1309 
C 2714 2267 2771 2497 2771 2535 
C 2771 2625 2701 2695 2605 2695 
C 2400 2695 2349 2472 2336 2395 
z
" transform="scale(0.015625)"/>
      </defs>
      <use xlink:href="#CMMI12-7e" transform="scale(0.996264)"/>
      <use xlink:href="#CMMI12-61" transform="translate(6.445738 0)scale(0.996264)"/>
     </g>
    </g>
    <g id="line2d_26">
     <path d="M 359.840076 27.24679 
L 369.840076 27.24679 
L 379.840076 27.24679 
" style="fill: none; stroke: #00ff00; stroke-width: 1.5; stroke-linecap: square"/>
    </g>
    <g id="text_22">
     <!-- $\vec{b}$ -->
     <g transform="translate(387.840076 30.74679)scale(0.1 -0.1)">
      <defs>
       <path id="CMMI12-62" d="M 1478 4257 
C 1485 4283 1498 4321 1498 4352 
C 1498 4416 1434 4416 1421 4416 
C 1414 4416 1184 4393 1069 4377 
C 960 4377 864 4358 749 4358 
C 595 4345 550 4339 550 4224 
C 550 4160 614 4160 678 4160 
C 1005 4160 1005 4103 1005 4040 
C 1005 3996 954 3811 928 3696 
L 774 3085 
C 710 2831 346 1387 320 1272 
C 288 1114 288 1005 288 922 
C 288 274 653 -64 1069 -64 
C 1811 -64 2579 888 2579 1814 
C 2579 2401 2246 2816 1766 2816 
C 1434 2816 1133 2542 1011 2414 
L 1478 4257 
z
M 1075 64 
C 870 64 646 217 646 715 
C 646 926 666 1047 781 1494 
C 800 1577 902 1986 928 2069 
C 941 2120 1318 2689 1754 2689 
C 2035 2689 2163 2408 2163 2076 
C 2163 1769 1984 1047 1824 715 
C 1664 370 1370 64 1075 64 
z
" transform="scale(0.015625)"/>
      </defs>
      <use xlink:href="#CMMI12-7e" transform="translate(0 26.29016)scale(0.996264)"/>
      <use xlink:href="#CMMI12-62" transform="translate(11.311737 0)scale(0.996264)"/>
     </g>
    </g>
    <g id="line2d_27">
     <path d="M 359.840076 41.183968 
L 369.840076 41.183968 
L 379.840076 41.183968 
" style="fill: none; stroke: #0016ff; stroke-width: 1.5; stroke-linecap: square"/>
    </g>
    <g id="text_23">
     <!-- $\vec{c}$ -->
     <g transform="translate(387.840076 44.683968)scale(0.1 -0.1)">
      <defs>
       <path id="CMMI12-63" d="M 2502 2431 
C 2381 2431 2323 2431 2234 2355 
C 2195 2323 2125 2227 2125 2125 
C 2125 1997 2221 1920 2342 1920 
C 2496 1920 2669 2044 2669 2292 
C 2669 2588 2374 2816 1933 2816 
C 1094 2816 256 1903 256 996 
C 256 441 602 -64 1254 -64 
C 2125 -64 2675 622 2675 706 
C 2675 744 2637 776 2611 776 
C 2592 776 2586 770 2528 713 
C 2118 162 1510 64 1267 64 
C 826 64 685 446 685 764 
C 685 988 794 1605 1024 2039 
C 1190 2338 1536 2682 1939 2682 
C 2022 2682 2374 2682 2502 2431 
z
" transform="scale(0.015625)"/>
      </defs>
      <use xlink:href="#CMMI12-7e" transform="scale(0.996264)"/>
      <use xlink:href="#CMMI12-63" transform="translate(5.638615 0)scale(0.996264)"/>
     </g>
    </g>
    <g id="line2d_28">
     <path d="M 359.840076 57.867937 
L 369.840076 57.867937 
L 379.840076 57.867937 
" style="fill: none; stroke: #f400ff; stroke-width: 1.5; stroke-linecap: square"/>
    </g>
    <g id="text_24">
     <!-- $\vec{f}$ -->
     <g transform="translate(387.840076 61.367937)scale(0.1 -0.1)">
      <defs>
       <path id="CMMI12-66" d="M 2854 2566 
C 2982 2566 3034 2566 3034 2688 
C 3034 2752 2982 2752 2867 2752 
L 2349 2752 
C 2470 3429 2560 3897 2611 4107 
C 2650 4265 2784 4416 2950 4416 
C 3085 4416 3219 4358 3283 4298 
C 3034 4272 2957 4082 2957 3969 
C 2957 3837 3053 3759 3174 3759 
C 3302 3759 3494 3870 3494 4119 
C 3494 4393 3226 4544 2944 4544 
C 2669 4544 2400 4334 2272 4078 
C 2157 3848 2093 3611 1946 2752 
L 1517 2752 
C 1395 2752 1331 2752 1331 2637 
C 1331 2566 1370 2566 1498 2566 
L 1907 2566 
C 1792 1976 1530 542 1382 -137 
C 1274 -689 1178 -1152 858 -1152 
C 838 -1152 653 -1152 538 -1031 
C 864 -1005 864 -726 864 -720 
C 864 -593 768 -517 646 -517 
C 518 -517 326 -625 326 -867 
C 326 -1140 608 -1280 858 -1280 
C 1510 -1280 1779 -118 1850 199 
C 1965 688 2278 2376 2310 2566 
L 2854 2566 
z
" transform="scale(0.015625)"/>
      </defs>
      <use xlink:href="#CMMI12-7e" transform="translate(13.568792 26.29016)scale(0.996264)"/>
      <use xlink:href="#CMMI12-66" transform="scale(0.996264)"/>
     </g>
    </g>
   </g>
  </g>
 </g>
 <defs>
  <clipPath id="p07a492933e">
   <rect x="57.6" y="0" width="345.6" height="345.6"/>
  </clipPath>
 </defs>
</svg>
