<?xml version="1.0" encoding="utf-8" standalone="no"?>
<!DOCTYPE svg PUBLIC "-//W3C//DTD SVG 1.1//EN"
  "http://www.w3.org/Graphics/SVG/1.1/DTD/svg11.dtd">
<svg xmlns:xlink="http://www.w3.org/1999/xlink" width="460.8pt" height="345.6pt" viewBox="0 0 460.8 345.6" xmlns="http://www.w3.org/2000/svg" version="1.1">
 <metadata>
  <rdf:RDF xmlns:dc="http://purl.org/dc/elements/1.1/" xmlns:cc="http://creativecommons.org/ns#" xmlns:rdf="http://www.w3.org/1999/02/22-rdf-syntax-ns#">
   <cc:Work>
    <dc:type rdf:resource="http://purl.org/dc/dcmitype/StillImage"/>
    <dc:date>2022-07-12T15:50:53.720707</dc:date>
    <dc:format>image/svg+xml</dc:format>
    <dc:creator>
     <cc:Agent>
      <dc:title>Matplotlib v3.5.1, https://matplotlib.org/</dc:title>
     </cc:Agent>
    </dc:creator>
   </cc:Work>
  </rdf:RDF>
 </metadata>
 <defs>
  <style type="text/css">*{stroke-linejoin: round; stroke-linecap: butt}</style>
 </defs>
 <g id="figure_1">
  <g id="patch_1">
   <path d="M 0 345.6 
L 460.8 345.6 
L 460.8 0 
L 0 0 
z
" style="fill: #ffffff"/>
  </g>
  <g id="patch_2">
   <path d="M 57.6 345.6 
L 403.2 345.6 
L 403.2 0 
L 57.6 0 
z
" style="fill: #ffffff"/>
  </g>
  <g id="pane3d_1">
   <g id="patch_3">
    <path d="M 262.785941 245.162022 
L 391.957157 252.888829 
L 391.957157 83.37063 
L 262.785941 91.097438 
" style="fill: #f2f2f2; opacity: 0.5; stroke: #f2f2f2; stroke-linejoin: miter"/>
   </g>
  </g>
  <g id="pane3d_2">
   <g id="patch_4">
    <path d="M 262.785941 245.162022 
L 83.143603 250.20904 
L 83.143603 86.050419 
L 262.785941 91.097438 
" style="fill: #e6e6e6; opacity: 0.5; stroke: #e6e6e6; stroke-linejoin: miter"/>
   </g>
  </g>
  <g id="pane3d_3">
   <g id="patch_5">
    <path d="M 262.785941 245.162022 
L 83.143603 250.20904 
L 202.361566 259.039543 
L 391.957157 252.888829 
" style="fill: #ececec; opacity: 0.5; stroke: #ececec; stroke-linejoin: miter"/>
   </g>
  </g>
  <g id="axis3d_1">
   <g id="line2d_1">
    <path d="M 391.957157 252.888829 
L 202.361566 259.039543 
" style="fill: none; stroke: #000000; stroke-width: 0.8; stroke-linecap: square"/>
   </g>
   <g id="text_1">
    <!-- x -->
    <g transform="translate(316.300329 285.850084)scale(0.16 -0.16)">
     <defs>
      <path id="CMSS17-78" d="M 1587 1414 
L 2656 2739 
L 2099 2739 
L 1363 1777 
L 602 2739 
L 32 2739 
L 1139 1414 
L 0 0 
L 563 0 
L 1363 1121 
L 2195 0 
L 2758 0 
L 1587 1414 
z
" transform="scale(0.015625)"/>
     </defs>
     <use xlink:href="#CMSS17-78" transform="scale(0.996264)"/>
    </g>
   </g>
   <g id="Line3DCollection_1">
    <path d="M 388.417006 253.003676 
L 259.409865 245.256872 
L 259.409865 91.002587 
" style="fill: none; stroke: #b0b0b0; stroke-width: 0.8"/>
    <path d="M 353.936991 254.12225 
L 226.57146 246.179461 
L 226.57146 90.079998 
" style="fill: none; stroke: #b0b0b0; stroke-width: 0.8"/>
    <path d="M 318.535998 255.270702 
L 192.937922 247.124389 
L 192.937922 89.13507 
" style="fill: none; stroke: #b0b0b0; stroke-width: 0.8"/>
    <path d="M 282.176628 256.450244 
L 158.480019 248.092478 
L 158.480019 88.166982 
" style="fill: none; stroke: #b0b0b0; stroke-width: 0.8"/>
    <path d="M 244.819428 257.662158 
L 123.167066 249.084589 
L 123.167066 87.174871 
" style="fill: none; stroke: #b0b0b0; stroke-width: 0.8"/>
    <path d="M 206.422751 258.907793 
L 86.966837 250.101627 
L 86.966837 86.157832 
" style="fill: none; stroke: #b0b0b0; stroke-width: 0.8"/>
   </g>
   <g id="xtick_1">
    <g id="line2d_2">
     <path d="M 387.282199 252.935532 
L 390.6921 253.140294 
" style="fill: none; stroke: #000000; stroke-width: 0.8; stroke-linecap: square"/>
    </g>
    <g id="text_2">
     <!-- $\mathdefault{0}$ -->
     <g transform="translate(395.054895 271.385387)scale(0.1 -0.1)">
      <defs>
       <path id="CMR17-30" d="M 2688 2025 
C 2688 2416 2682 3080 2413 3591 
C 2176 4039 1798 4198 1466 4198 
C 1158 4198 768 4058 525 3597 
C 269 3118 243 2524 243 2025 
C 243 1661 250 1106 448 619 
C 723 -39 1216 -128 1466 -128 
C 1760 -128 2208 -7 2470 600 
C 2662 1042 2688 1559 2688 2025 
z
M 1466 -26 
C 1056 -26 813 325 723 812 
C 653 1188 653 1738 653 2096 
C 653 2588 653 2997 736 3387 
C 858 3929 1216 4096 1466 4096 
C 1728 4096 2067 3923 2189 3400 
C 2272 3036 2278 2607 2278 2096 
C 2278 1680 2278 1169 2202 792 
C 2067 95 1690 -26 1466 -26 
z
" transform="scale(0.015625)"/>
      </defs>
      <use xlink:href="#CMR17-30" transform="scale(0.996264)"/>
     </g>
    </g>
   </g>
   <g id="xtick_2">
    <g id="line2d_3">
     <path d="M 352.815289 254.052298 
L 356.185885 254.262496 
" style="fill: none; stroke: #000000; stroke-width: 0.8; stroke-linecap: square"/>
    </g>
    <g id="text_3">
     <!-- $\mathdefault{1}$ -->
     <g transform="translate(360.47033 272.663346)scale(0.1 -0.1)">
      <defs>
       <path id="CMR17-31" d="M 1702 4058 
C 1702 4192 1696 4192 1606 4192 
C 1357 3916 979 3827 621 3827 
C 602 3827 570 3827 563 3808 
C 557 3795 557 3782 557 3648 
C 755 3648 1088 3686 1344 3839 
L 1344 461 
C 1344 236 1331 160 781 160 
L 589 160 
L 589 0 
C 896 0 1216 0 1523 0 
C 1830 0 2150 0 2458 0 
L 2458 160 
L 2266 160 
C 1715 160 1702 230 1702 458 
L 1702 4058 
z
" transform="scale(0.015625)"/>
      </defs>
      <use xlink:href="#CMR17-31" transform="scale(0.996264)"/>
     </g>
    </g>
   </g>
   <g id="xtick_3">
    <g id="line2d_4">
     <path d="M 317.428509 255.19887 
L 320.756468 255.414722 
" style="fill: none; stroke: #000000; stroke-width: 0.8; stroke-linecap: square"/>
    </g>
    <g id="text_4">
     <!-- $\mathdefault{2}$ -->
     <g transform="translate(324.955867 273.975667)scale(0.1 -0.1)">
      <defs>
       <path id="CMR17-32" d="M 2669 989 
L 2554 989 
C 2490 536 2438 459 2413 420 
C 2381 369 1920 369 1830 369 
L 602 369 
C 832 619 1280 1072 1824 1597 
C 2214 1967 2669 2402 2669 3035 
C 2669 3790 2067 4224 1395 4224 
C 691 4224 262 3604 262 3030 
C 262 2780 448 2748 525 2748 
C 589 2748 781 2787 781 3010 
C 781 3207 614 3264 525 3264 
C 486 3264 448 3258 422 3245 
C 544 3790 915 4058 1306 4058 
C 1862 4058 2227 3617 2227 3035 
C 2227 2479 1901 2000 1536 1584 
L 262 146 
L 262 0 
L 2515 0 
L 2669 989 
z
" transform="scale(0.015625)"/>
      </defs>
      <use xlink:href="#CMR17-32" transform="scale(0.996264)"/>
     </g>
    </g>
   </g>
   <g id="xtick_4">
    <g id="line2d_5">
     <path d="M 281.084537 256.376455 
L 284.366297 256.598193 
" style="fill: none; stroke: #000000; stroke-width: 0.8; stroke-linecap: square"/>
    </g>
    <g id="text_5">
     <!-- $\mathdefault{3}$ -->
     <g transform="translate(288.47349 275.323753)scale(0.1 -0.1)">
      <defs>
       <path id="CMR17-33" d="M 1414 2157 
C 1984 2157 2234 1662 2234 1090 
C 2234 320 1824 25 1453 25 
C 1114 25 563 194 390 693 
C 422 680 454 680 486 680 
C 640 680 755 782 755 948 
C 755 1133 614 1216 486 1216 
C 378 1216 211 1165 211 926 
C 211 335 787 -128 1466 -128 
C 2176 -128 2720 430 2720 1085 
C 2720 1707 2208 2157 1600 2227 
C 2086 2328 2554 2756 2554 3329 
C 2554 3820 2048 4179 1472 4179 
C 890 4179 378 3829 378 3329 
C 378 3110 544 3072 627 3072 
C 762 3072 877 3155 877 3321 
C 877 3486 762 3569 627 3569 
C 602 3569 570 3569 544 3557 
C 730 3959 1235 4032 1459 4032 
C 1683 4032 2106 3925 2106 3320 
C 2106 3143 2080 2828 1862 2550 
C 1670 2304 1453 2304 1242 2284 
C 1210 2284 1062 2269 1037 2269 
C 992 2263 966 2257 966 2208 
C 966 2163 973 2157 1101 2157 
L 1414 2157 
z
" transform="scale(0.015625)"/>
      </defs>
      <use xlink:href="#CMR17-33" transform="scale(0.996264)"/>
     </g>
    </g>
   </g>
   <g id="xtick_5">
    <g id="line2d_6">
     <path d="M 243.744003 257.586331 
L 246.975756 257.814198 
" style="fill: none; stroke: #000000; stroke-width: 0.8; stroke-linecap: square"/>
    </g>
    <g id="text_6">
     <!-- $\mathdefault{4}$ -->
     <g transform="translate(250.983085 276.709088)scale(0.1 -0.1)">
      <defs>
       <path id="CMR17-34" d="M 2150 4122 
C 2150 4256 2144 4256 2029 4256 
L 128 1254 
L 128 1088 
L 1779 1088 
L 1779 457 
C 1779 224 1766 160 1318 160 
L 1197 160 
L 1197 0 
C 1402 0 1747 0 1965 0 
C 2182 0 2528 0 2733 0 
L 2733 160 
L 2611 160 
C 2163 160 2150 224 2150 457 
L 2150 1088 
L 2803 1088 
L 2803 1254 
L 2150 1254 
L 2150 4122 
z
M 1798 3703 
L 1798 1254 
L 256 1254 
L 1798 3703 
z
" transform="scale(0.015625)"/>
      </defs>
      <use xlink:href="#CMR17-34" transform="scale(0.996264)"/>
     </g>
    </g>
   </g>
   <g id="xtick_6">
    <g id="line2d_7">
     <path d="M 205.365348 258.829842 
L 208.543019 259.064097 
" style="fill: none; stroke: #000000; stroke-width: 0.8; stroke-linecap: square"/>
    </g>
    <g id="text_7">
     <!-- $\mathdefault{5}$ -->
     <g transform="translate(212.442288 278.133237)scale(0.1 -0.1)">
      <defs>
       <path id="CMR17-35" d="M 730 3692 
C 794 3666 1056 3584 1325 3584 
C 1920 3584 2246 3911 2432 4100 
C 2432 4157 2432 4192 2394 4192 
C 2387 4192 2374 4192 2323 4163 
C 2099 4058 1837 3973 1517 3973 
C 1325 3973 1037 3999 723 4139 
C 653 4171 640 4171 634 4171 
C 602 4171 595 4164 595 4037 
L 595 2203 
C 595 2089 595 2057 659 2057 
C 691 2057 704 2070 736 2114 
C 941 2401 1222 2522 1542 2522 
C 1766 2522 2246 2382 2246 1289 
C 2246 1085 2246 715 2054 421 
C 1894 159 1645 25 1370 25 
C 947 25 518 320 403 814 
C 429 807 480 795 506 795 
C 589 795 749 840 749 1038 
C 749 1210 627 1280 506 1280 
C 358 1280 262 1190 262 1011 
C 262 454 704 -128 1382 -128 
C 2042 -128 2669 440 2669 1264 
C 2669 2030 2170 2624 1549 2624 
C 1222 2624 947 2503 730 2274 
L 730 3692 
z
" transform="scale(0.015625)"/>
      </defs>
      <use xlink:href="#CMR17-35" transform="scale(0.996264)"/>
     </g>
    </g>
   </g>
  </g>
  <g id="axis3d_2">
   <g id="line2d_8">
    <path d="M 83.143603 250.20904 
L 202.361566 259.039543 
" style="fill: none; stroke: #000000; stroke-width: 0.8; stroke-linecap: square"/>
   </g>
   <g id="text_8">
    <!-- y -->
    <g transform="translate(108.474158 283.412102)scale(0.16 -0.16)">
     <defs>
      <path id="CMSS17-79" d="M 2675 2752 
L 2176 2752 
C 1632 1294 1446 702 1434 383 
L 1427 383 
C 1408 696 1126 1460 902 2007 
L 602 2752 
L 83 2752 
L 1216 13 
C 1146 -178 1043 -465 1011 -529 
C 870 -885 774 -885 672 -885 
C 646 -885 442 -885 211 -809 
L 250 -1229 
C 410 -1261 570 -1280 685 -1280 
C 845 -1280 1165 -1280 1459 -497 
L 2675 2752 
z
" transform="scale(0.015625)"/>
     </defs>
     <use xlink:href="#CMSS17-79" transform="scale(0.996264)"/>
    </g>
   </g>
   <g id="Line3DCollection_2">
    <path d="M 276.54939 90.274131 
L 276.54939 245.985329 
L 95.771873 251.144419 
" style="fill: none; stroke: #b0b0b0; stroke-width: 0.8"/>
    <path d="M 299.988387 88.872049 
L 299.988387 247.38741 
L 117.318458 252.74038 
" style="fill: none; stroke: #b0b0b0; stroke-width: 0.8"/>
    <path d="M 324.28708 87.418542 
L 324.28708 248.840918 
L 139.70975 254.398908 
" style="fill: none; stroke: #b0b0b0; stroke-width: 0.8"/>
    <path d="M 349.493651 85.910726 
L 349.493651 250.348733 
L 162.996416 256.123757 
" style="fill: none; stroke: #b0b0b0; stroke-width: 0.8"/>
    <path d="M 375.65995 84.345502 
L 375.65995 251.913958 
L 187.233258 257.918985 
" style="fill: none; stroke: #b0b0b0; stroke-width: 0.8"/>
   </g>
   <g id="xtick_7">
    <g id="line2d_9">
     <path d="M 97.31311 251.100435 
L 92.684492 251.232528 
" style="fill: none; stroke: #000000; stroke-width: 0.8; stroke-linecap: square"/>
    </g>
    <g id="text_9">
     <!-- $\mathdefault{−4}$ -->
     <g transform="translate(77.039463 269.068393)scale(0.1 -0.1)">
      <defs>
       <path id="CMSY10-0" d="M 4218 1472 
C 4326 1472 4442 1472 4442 1600 
C 4442 1728 4326 1728 4218 1728 
L 755 1728 
C 646 1728 531 1728 531 1600 
C 531 1472 646 1472 755 1472 
L 4218 1472 
z
" transform="scale(0.015625)"/>
      </defs>
      <use xlink:href="#CMSY10-0" transform="scale(0.996264)"/>
      <use xlink:href="#CMR17-34" transform="translate(77.487468 0)scale(0.996264)"/>
     </g>
    </g>
   </g>
   <g id="xtick_8">
    <g id="line2d_10">
     <path d="M 118.877673 252.694689 
L 114.194967 252.831911 
" style="fill: none; stroke: #000000; stroke-width: 0.8; stroke-linecap: square"/>
    </g>
    <g id="text_10">
     <!-- $\mathdefault{−2}$ -->
     <g transform="translate(98.44063 270.883768)scale(0.1 -0.1)">
      <use xlink:href="#CMSY10-0" transform="scale(0.996264)"/>
      <use xlink:href="#CMR17-32" transform="translate(77.487468 0)scale(0.996264)"/>
     </g>
    </g>
   </g>
   <g id="xtick_9">
    <g id="line2d_11">
     <path d="M 141.287184 254.351408 
L 136.549663 254.494065 
" style="fill: none; stroke: #000000; stroke-width: 0.8; stroke-linecap: square"/>
    </g>
    <g id="text_11">
     <!-- $\mathdefault{0}$ -->
     <g transform="translate(124.558883 272.770626)scale(0.1 -0.1)">
      <use xlink:href="#CMR17-30" transform="scale(0.996264)"/>
     </g>
    </g>
   </g>
   <g id="xtick_10">
    <g id="line2d_12">
     <path d="M 164.592293 256.074339 
L 159.799276 256.222759 
" style="fill: none; stroke: #000000; stroke-width: 0.8; stroke-linecap: square"/>
    </g>
    <g id="text_12">
     <!-- $\mathdefault{2}$ -->
     <g transform="translate(147.696253 274.733276)scale(0.1 -0.1)">
      <use xlink:href="#CMR17-32" transform="scale(0.996264)"/>
     </g>
    </g>
   </g>
   <g id="xtick_11">
    <g id="line2d_13">
     <path d="M 188.847786 257.867532 
L 183.998641 258.02207 
" style="fill: none; stroke: #000000; stroke-width: 0.8; stroke-linecap: square"/>
    </g>
    <g id="text_13">
     <!-- $\mathdefault{4}$ -->
     <g transform="translate(171.78205 276.776377)scale(0.1 -0.1)">
      <use xlink:href="#CMR17-34" transform="scale(0.996264)"/>
     </g>
    </g>
   </g>
  </g>
  <g id="axis3d_3">
   <g id="line2d_14">
    <path d="M 83.143603 250.20904 
L 83.143603 86.050419 
" style="fill: none; stroke: #000000; stroke-width: 0.8; stroke-linecap: square"/>
   </g>
   <g id="text_14">
    <!-- z -->
    <g transform="translate(38.405064 172.114786)scale(0.16 -0.16)">
     <defs>
      <path id="CMSS17-7a" d="M 2400 2502 
L 2400 2750 
L 250 2750 
L 250 2368 
L 1069 2368 
C 1146 2368 1222 2368 1299 2368 
L 1747 2368 
L 166 261 
L 166 0 
L 2419 0 
L 2419 395 
L 1549 395 
C 1472 395 1395 395 1318 395 
L 826 395 
L 2400 2502 
z
" transform="scale(0.015625)"/>
     </defs>
     <use xlink:href="#CMSS17-7a" transform="scale(0.996264)"/>
    </g>
   </g>
   <g id="Line3DCollection_3">
    <path d="M 83.143603 246.925868 
L 262.785941 242.08073 
L 391.957157 249.498465 
" style="fill: none; stroke: #b0b0b0; stroke-width: 0.8"/>
    <path d="M 83.143603 215.407413 
L 262.785941 212.50033 
L 391.957157 216.950971 
" style="fill: none; stroke: #b0b0b0; stroke-width: 0.8"/>
    <path d="M 83.143603 183.888957 
L 262.785941 182.91993 
L 391.957157 184.403477 
" style="fill: none; stroke: #b0b0b0; stroke-width: 0.8"/>
    <path d="M 83.143603 152.370502 
L 262.785941 153.33953 
L 391.957157 151.855983 
" style="fill: none; stroke: #b0b0b0; stroke-width: 0.8"/>
    <path d="M 83.143603 120.852047 
L 262.785941 123.759129 
L 391.957157 119.308488 
" style="fill: none; stroke: #b0b0b0; stroke-width: 0.8"/>
    <path d="M 83.143603 89.333591 
L 262.785941 94.178729 
L 391.957157 86.760994 
" style="fill: none; stroke: #b0b0b0; stroke-width: 0.8"/>
   </g>
   <g id="xtick_12">
    <g id="line2d_15">
     <path d="M 84.674098 246.884589 
L 80.077794 247.008556 
" style="fill: none; stroke: #000000; stroke-width: 0.8; stroke-linecap: square"/>
    </g>
    <g id="text_15">
     <!-- $\mathdefault{0}$ -->
     <g transform="translate(61.585482 253.685523)scale(0.1 -0.1)">
      <use xlink:href="#CMR17-30" transform="scale(0.996264)"/>
     </g>
    </g>
   </g>
   <g id="xtick_13">
    <g id="line2d_16">
     <path d="M 84.674098 215.382645 
L 80.077794 215.457025 
" style="fill: none; stroke: #000000; stroke-width: 0.8; stroke-linecap: square"/>
    </g>
    <g id="text_16">
     <!-- $\mathdefault{1}$ -->
     <g transform="translate(61.585482 222.230605)scale(0.1 -0.1)">
      <use xlink:href="#CMR17-31" transform="scale(0.996264)"/>
     </g>
    </g>
   </g>
   <g id="xtick_14">
    <g id="line2d_17">
     <path d="M 84.674098 183.880702 
L 80.077794 183.905495 
" style="fill: none; stroke: #000000; stroke-width: 0.8; stroke-linecap: square"/>
    </g>
    <g id="text_17">
     <!-- $\mathdefault{2}$ -->
     <g transform="translate(61.585482 190.775687)scale(0.1 -0.1)">
      <use xlink:href="#CMR17-32" transform="scale(0.996264)"/>
     </g>
    </g>
   </g>
   <g id="xtick_15">
    <g id="line2d_18">
     <path d="M 84.674098 152.378758 
L 80.077794 152.353964 
" style="fill: none; stroke: #000000; stroke-width: 0.8; stroke-linecap: square"/>
    </g>
    <g id="text_18">
     <!-- $\mathdefault{3}$ -->
     <g transform="translate(61.585482 159.320769)scale(0.1 -0.1)">
      <use xlink:href="#CMR17-33" transform="scale(0.996264)"/>
     </g>
    </g>
   </g>
   <g id="xtick_16">
    <g id="line2d_19">
     <path d="M 84.674098 120.876814 
L 80.077794 120.802434 
" style="fill: none; stroke: #000000; stroke-width: 0.8; stroke-linecap: square"/>
    </g>
    <g id="text_19">
     <!-- $\mathdefault{4}$ -->
     <g transform="translate(61.585482 127.865851)scale(0.1 -0.1)">
      <use xlink:href="#CMR17-34" transform="scale(0.996264)"/>
     </g>
    </g>
   </g>
   <g id="xtick_17">
    <g id="line2d_20">
     <path d="M 84.674098 89.37487 
L 80.077794 89.250903 
" style="fill: none; stroke: #000000; stroke-width: 0.8; stroke-linecap: square"/>
    </g>
    <g id="text_20">
     <!-- $\mathdefault{5}$ -->
     <g transform="translate(61.585482 96.410933)scale(0.1 -0.1)">
      <use xlink:href="#CMR17-35" transform="scale(0.996264)"/>
     </g>
    </g>
   </g>
  </g>
  <g id="axes_1">
   <g id="line2d_21">
    <path d="M 320.82891 245.712437 
L 324.815939 87.32032 
" clip-path="url(#p5183a7fa0b)" style="fill: none; stroke: #ff0000; stroke-width: 1.5; stroke-linecap: square"/>
   </g>
   <g id="line2d_22">
    <path d="M 320.82891 245.712437 
L 229.045412 121.27985 
" clip-path="url(#p5183a7fa0b)" style="fill: none; stroke: #00ff00; stroke-width: 1.5; stroke-linecap: square"/>
   </g>
   <g id="line2d_23">
    <path d="M 320.82891 245.712437 
L 242.648187 -1 
" clip-path="url(#p5183a7fa0b)" style="fill: none; stroke: #0016ff; stroke-width: 1.5; stroke-linecap: square"/>
   </g>
   <g id="line2d_24">
    <path d="M 320.82891 245.712437 
L 110.314975 152.060655 
" clip-path="url(#p5183a7fa0b)" style="fill: none; stroke: #f400ff; stroke-width: 1.5; stroke-linecap: square"/>
   </g>
   <g id="Poly3DCollection_1">
    <path d="M 261.758795 353.573396 
L 245.421175 313.637351 
L 251.055298 303.040129 
L 267.431436 343.215257 
z
" clip-path="url(#p5183a7fa0b)" style="fill: #0000f5; fill-opacity: 0.1"/>
    <path d="M 267.431436 343.215257 
L 251.055298 303.040129 
L 256.739617 292.348494 
L 273.154314 332.765386 
z
" clip-path="url(#p5183a7fa0b)" style="fill: #0000f5; fill-opacity: 0.1"/>
    <path d="M 245.421175 313.637351 
L 228.887764 273.222709 
L 234.482032 262.381392 
L 251.055298 303.040129 
z
" clip-path="url(#p5183a7fa0b)" style="fill: #0000f5; fill-opacity: 0.1"/>
    <path d="M 273.154314 332.765386 
L 256.739617 292.348494 
L 262.474806 281.561177 
L 278.9281 322.222558 
z
" clip-path="url(#p5183a7fa0b)" style="fill: #0000f5; fill-opacity: 0.1"/>
    <path d="M 251.055298 303.040129 
L 234.482032 262.381392 
L 240.126443 251.442902 
L 256.739617 292.348494 
z
" clip-path="url(#p5183a7fa0b)" style="fill: #0000f5; fill-opacity: 0.1"/>
    <path d="M 228.887764 273.222709 
L 212.155022 232.320817 
L 217.708057 221.23026 
L 234.482032 262.381392 
z
" clip-path="url(#p5183a7fa0b)" style="fill: #0000f5; fill-opacity: 0.1"/>
    <path d="M 278.9281 322.222558 
L 262.474806 281.561177 
L 268.261551 270.676889 
L 284.753476 311.585527 
z
" clip-path="url(#p5183a7fa0b)" style="fill: #0000f5; fill-opacity: 0.1"/>
    <path d="M 256.739617 292.348494 
L 240.126443 251.442902 
L 245.821673 240.405927 
L 262.474806 281.561177 
z
" clip-path="url(#p5183a7fa0b)" style="fill: #0000f5; fill-opacity: 0.1"/>
    <path d="M 234.482032 262.381392 
L 217.708057 221.23026 
L 223.311168 210.039692 
L 240.126443 251.442902 
z
" clip-path="url(#p5183a7fa0b)" style="fill: #0000f5; fill-opacity: 0.1"/>
    <path d="M 284.753476 311.585527 
L 268.261551 270.676889 
L 274.10055 259.694315 
L 290.631136 300.853025 
z
" clip-path="url(#p5183a7fa0b)" style="fill: #0000f5; fill-opacity: 0.1"/>
    <path d="M 212.155022 232.320817 
L 195.21932 190.922808 
L 200.729705 179.577735 
L 217.708057 221.23026 
z
" clip-path="url(#p5183a7fa0b)" style="fill: #0000f5; fill-opacity: 0.1"/>
    <path d="M 262.474806 281.561177 
L 245.821673 240.405927 
L 251.568412 229.269131 
L 268.261551 270.676889 
z
" clip-path="url(#p5183a7fa0b)" style="fill: #0000f5; fill-opacity: 0.1"/>
    <path d="M 240.126443 251.442902 
L 223.311168 210.039692 
L 228.965036 198.747755 
L 245.821673 240.405927 
z
" clip-path="url(#p5183a7fa0b)" style="fill: #0000f5; fill-opacity: 0.1"/>
    <path d="M 290.631136 300.853025 
L 274.10055 259.694315 
L 279.992515 248.61212 
L 296.561788 290.023762 
z
" clip-path="url(#p5183a7fa0b)" style="fill: #0000f5; fill-opacity: 0.1"/>
    <path d="M 217.708057 221.23026 
L 200.729705 179.577735 
L 206.290084 168.12973 
L 223.311168 210.039692 
z
" clip-path="url(#p5183a7fa0b)" style="fill: #0000f5; fill-opacity: 0.1"/>
    <path d="M 268.261551 270.676889 
L 251.568412 229.269131 
L 257.367362 218.031153 
L 274.10055 259.694315 
z
" clip-path="url(#p5183a7fa0b)" style="fill: #0000f5; fill-opacity: 0.1"/>
    <path d="M 195.21932 190.922808 
L 178.076945 149.019601 
L 183.543216 137.414596 
L 200.729705 179.577735 
z
" clip-path="url(#p5183a7fa0b)" style="fill: #0000f5; fill-opacity: 0.1"/>
    <path d="M 245.821673 240.405927 
L 228.965036 198.747755 
L 234.670352 187.353063 
L 251.568412 229.269131 
z
" clip-path="url(#p5183a7fa0b)" style="fill: #0000f5; fill-opacity: 0.1"/>
    <path d="M 296.561788 290.023762 
L 279.992515 248.61212 
L 285.938168 237.42894 
L 302.546152 279.096422 
z
" clip-path="url(#p5183a7fa0b)" style="fill: #0000f5; fill-opacity: 0.1"/>
    <path d="M 223.311168 210.039692 
L 206.290084 168.12973 
L 211.901142 156.577385 
L 228.965036 198.747755 
z
" clip-path="url(#p5183a7fa0b)" style="fill: #0000f5; fill-opacity: 0.1"/>
    <path d="M 274.10055 259.694315 
L 257.367362 218.031153 
L 263.219238 206.690609 
L 279.992515 248.61212 
z
" clip-path="url(#p5183a7fa0b)" style="fill: #0000f5; fill-opacity: 0.1"/>
    <path d="M 200.729705 179.577735 
L 183.543216 137.414596 
L 189.059388 125.703653 
L 206.290084 168.12973 
z
" clip-path="url(#p5183a7fa0b)" style="fill: #0000f5; fill-opacity: 0.1"/>
    <path d="M 251.568412 229.269131 
L 234.670352 187.353063 
L 240.427822 175.854208 
L 257.367362 218.031153 
z
" clip-path="url(#p5183a7fa0b)" style="fill: #0000f5; fill-opacity: 0.1"/>
    <path d="M 178.076945 149.019601 
L 160.72409 106.601892 
L 166.144742 94.731397 
L 183.543216 137.414596 
z
" clip-path="url(#p5183a7fa0b)" style="fill: #0000f5; fill-opacity: 0.1"/>
    <path d="M 302.546152 279.096422 
L 285.938168 237.42894 
L 291.938248 226.14339 
L 308.58496 268.069668 
z
" clip-path="url(#p5183a7fa0b)" style="fill: #0000f5; fill-opacity: 0.1"/>
    <path d="M 228.965036 198.747755 
L 211.901142 156.577385 
L 217.563575 144.919267 
L 234.670352 187.353063 
z
" clip-path="url(#p5183a7fa0b)" style="fill: #0000f5; fill-opacity: 0.1"/>
    <path d="M 279.992515 248.61212 
L 263.219238 206.690609 
L 269.124767 195.246088 
L 285.938168 237.42894 
z
" clip-path="url(#p5183a7fa0b)" style="fill: #0000f5; fill-opacity: 0.1"/>
    <path d="M 206.290084 168.12973 
L 189.059388 125.703653 
L 194.626146 113.885313 
L 211.901142 156.577385 
z
" clip-path="url(#p5183a7fa0b)" style="fill: #0000f5; fill-opacity: 0.1"/>
    <path d="M 257.367362 218.031153 
L 240.427822 175.854208 
L 246.238165 164.249756 
L 263.219238 206.690609 
z
" clip-path="url(#p5183a7fa0b)" style="fill: #0000f5; fill-opacity: 0.1"/>
    <path d="M 183.543216 137.414596 
L 166.144742 94.731397 
L 171.615184 82.751869 
L 189.059388 125.703653 
z
" clip-path="url(#p5183a7fa0b)" style="fill: #0000f5; fill-opacity: 0.1"/>
    <path d="M 308.58496 268.069668 
L 291.938248 226.14339 
L 297.993506 214.754057 
L 314.678959 256.942135 
z
" clip-path="url(#p5183a7fa0b)" style="fill: #0000f5; fill-opacity: 0.1"/>
    <path d="M 234.670352 187.353063 
L 217.563575 144.919267 
L 223.278091 133.153918 
L 240.427822 175.854208 
z
" clip-path="url(#p5183a7fa0b)" style="fill: #0000f5; fill-opacity: 0.1"/>
    <path d="M 160.72409 106.601892 
L 143.156854 63.660146 
L 148.530334 51.518456 
L 166.144742 94.731397 
z
" clip-path="url(#p5183a7fa0b)" style="fill: #0000f5; fill-opacity: 0.1"/>
    <path d="M 285.938168 237.42894 
L 269.124767 195.246088 
L 275.084691 183.696153 
L 291.938248 226.14339 
z
" clip-path="url(#p5183a7fa0b)" style="fill: #0000f5; fill-opacity: 0.1"/>
    <path d="M 211.901142 156.577385 
L 194.626146 113.885313 
L 200.24419 101.958092 
L 217.563575 144.919267 
z
" clip-path="url(#p5183a7fa0b)" style="fill: #0000f5; fill-opacity: 0.1"/>
    <path d="M 263.219238 206.690609 
L 246.238165 164.249756 
L 252.102113 152.538245 
L 269.124767 195.246088 
z
" clip-path="url(#p5183a7fa0b)" style="fill: #0000f5; fill-opacity: 0.1"/>
    <path d="M 189.059388 125.703653 
L 171.615184 82.751869 
L 177.136106 70.661797 
L 194.626146 113.885313 
z
" clip-path="url(#p5183a7fa0b)" style="fill: #0000f5; fill-opacity: 0.1"/>
    <path d="M 314.678959 256.942135 
L 297.993506 214.754057 
L 304.104705 203.259503 
L 320.82891 245.712437 
z
" clip-path="url(#p5183a7fa0b)" style="fill: #0000f5; fill-opacity: 0.1"/>
    <path d="M 240.427822 175.854208 
L 223.278091 133.153918 
L 229.045412 121.27985 
L 246.238165 164.249756 
z
" clip-path="url(#p5183a7fa0b)" style="fill: #0000f5; fill-opacity: 0.1"/>
    <path d="M 166.144742 94.731397 
L 148.530334 51.518456 
L 153.953479 39.264545 
L 171.615184 82.751869 
z
" clip-path="url(#p5183a7fa0b)" style="fill: #0000f5; fill-opacity: 0.1"/>
    <path d="M 291.938248 226.14339 
L 275.084691 183.696153 
L 281.099766 172.039341 
L 297.993506 214.754057 
z
" clip-path="url(#p5183a7fa0b)" style="fill: #0000f5; fill-opacity: 0.1"/>
    <path d="M 217.563575 144.919267 
L 200.24419 101.958092 
L 205.914232 89.920479 
L 223.278091 133.153918 
z
" clip-path="url(#p5183a7fa0b)" style="fill: #0000f5; fill-opacity: 0.1"/>
    <path d="M 143.156854 63.660146 
L 125.37124 20.184592 
L 130.695949 7.765849 
L 148.530334 51.518456 
z
" clip-path="url(#p5183a7fa0b)" style="fill: #0000f5; fill-opacity: 0.1"/>
    <path d="M 269.124767 195.246088 
L 252.102113 152.538245 
L 258.02041 140.718187 
L 275.084691 183.696153 
z
" clip-path="url(#p5183a7fa0b)" style="fill: #0000f5; fill-opacity: 0.1"/>
    <path d="M 194.626146 113.885313 
L 177.136106 70.661797 
L 182.708209 58.459644 
L 200.24419 101.958092 
z
" clip-path="url(#p5183a7fa0b)" style="fill: #0000f5; fill-opacity: 0.1"/>
    <path d="M 320.82891 245.712437 
L 304.104705 203.259503 
L 310.272624 191.658263 
L 327.035585 234.37916 
z
" clip-path="url(#p5183a7fa0b)" style="fill: #0000f5; fill-opacity: 0.1"/>
    <path d="M 246.238165 164.249756 
L 229.045412 121.27985 
L 234.866274 109.295549 
L 252.102113 152.538245 
z
" clip-path="url(#p5183a7fa0b)" style="fill: #0000f5; fill-opacity: 0.1"/>
    <path d="M 171.615184 82.751869 
L 153.953479 39.264545 
L 159.42698 26.896852 
L 177.136106 70.661797 
z
" clip-path="url(#p5183a7fa0b)" style="fill: #0000f5; fill-opacity: 0.1"/>
    <path d="M 297.993506 214.754057 
L 281.099766 172.039341 
L 287.170759 160.274162 
L 304.104705 203.259503 
z
" clip-path="url(#p5183a7fa0b)" style="fill: #0000f5; fill-opacity: 0.1"/>
    <path d="M 223.278091 133.153918 
L 205.914232 89.920479 
L 211.636996 77.770935 
L 229.045412 121.27985 
z
" clip-path="url(#p5183a7fa0b)" style="fill: #0000f5; fill-opacity: 0.1"/>
    <path d="M 148.530334 51.518456 
L 130.695949 7.765849 
L 136.07018 -4.768396 
L 153.953479 39.264545 
z
" clip-path="url(#p5183a7fa0b)" style="fill: #0000f5; fill-opacity: 0.1"/>
    <path d="M 275.084691 183.696153 
L 258.02041 140.718187 
L 263.993815 128.788065 
L 281.099766 172.039341 
z
" clip-path="url(#p5183a7fa0b)" style="fill: #0000f5; fill-opacity: 0.1"/>
    <path d="M 200.24419 101.958092 
L 182.708209 58.459644 
L 188.332209 46.143846 
L 205.914232 89.920479 
z
" clip-path="url(#p5183a7fa0b)" style="fill: #0000f5; fill-opacity: 0.1"/>
    <path d="M 125.37124 20.184592 
L 107.363151 -23.834786 
L 112.637439 -36.536597 
L 130.695949 7.765849 
z
" clip-path="url(#p5183a7fa0b)" style="fill: #0000f5; fill-opacity: 0.1"/>
    <path d="M 327.035585 234.37916 
L 310.272624 191.658263 
L 316.498058 179.948846 
L 333.299774 222.940865 
z
" clip-path="url(#p5183a7fa0b)" style="fill: #0000f5; fill-opacity: 0.1"/>
    <path d="M 252.102113 152.538245 
L 234.866274 109.295549 
L 240.741426 97.199474 
L 258.02041 140.718187 
z
" clip-path="url(#p5183a7fa0b)" style="fill: #0000f5; fill-opacity: 0.1"/>
    <path d="M 177.136106 70.661797 
L 159.42698 26.896852 
L 164.951543 14.413782 
L 182.708209 58.459644 
z
" clip-path="url(#p5183a7fa0b)" style="fill: #0000f5; fill-opacity: 0.1"/>
    <path d="M 304.104705 203.259503 
L 287.170759 160.274162 
L 293.298455 148.399097 
L 310.272624 191.658263 
z
" clip-path="url(#p5183a7fa0b)" style="fill: #0000f5; fill-opacity: 0.1"/>
    <path d="M 229.045412 121.27985 
L 211.636996 77.770935 
L 217.413223 65.50789 
L 234.866274 109.295549 
z
" clip-path="url(#p5183a7fa0b)" style="fill: #0000f5; fill-opacity: 0.1"/>
    <path d="M 153.953479 39.264545 
L 136.07018 -4.768396 
L 141.494628 -17.41976 
L 159.42698 26.896852 
z
" clip-path="url(#p5183a7fa0b)" style="fill: #0000f5; fill-opacity: 0.1"/>
    <path d="M 281.099766 172.039341 
L 263.993815 128.788065 
L 270.023103 116.746335 
L 287.170759 160.274162 
z
" clip-path="url(#p5183a7fa0b)" style="fill: #0000f5; fill-opacity: 0.1"/>
    <path d="M 205.914232 89.920479 
L 188.332209 46.143846 
L 194.008833 33.712806 
L 211.636996 77.770935 
z
" clip-path="url(#p5183a7fa0b)" style="fill: #0000f5; fill-opacity: 0.1"/>
    <path d="M 130.695949 7.765849 
L 112.637439 -36.536597 
L 117.96109 -49.357288 
L 136.07018 -4.768396 
z
" clip-path="url(#p5183a7fa0b)" style="fill: #0000f5; fill-opacity: 0.1"/>
    <path d="M 333.299774 222.940865 
L 316.498058 179.948846 
L 322.781813 168.12973 
L 339.62228 211.396083 
z
" clip-path="url(#p5183a7fa0b)" style="fill: #0000f5; fill-opacity: 0.1"/>
    <path d="M 258.02041 140.718187 
L 240.741426 97.199474 
L 246.671631 84.990054 
L 263.993815 128.788065 
z
" clip-path="url(#p5183a7fa0b)" style="fill: #0000f5; fill-opacity: 0.1"/>
    <path d="M 182.708209 58.459644 
L 164.951543 14.413782 
L 170.527884 1.813715 
L 188.332209 46.143846 
z
" clip-path="url(#p5183a7fa0b)" style="fill: #0000f5; fill-opacity: 0.1"/>
    <path d="M 310.272624 191.658263 
L 293.298455 148.399097 
L 299.483651 136.4126 
L 316.498058 179.948846 
z
" clip-path="url(#p5183a7fa0b)" style="fill: #0000f5; fill-opacity: 0.1"/>
    <path d="M 234.866274 109.295549 
L 217.413223 65.50789 
L 223.243663 53.129746 
L 240.741426 97.199474 
z
" clip-path="url(#p5183a7fa0b)" style="fill: #0000f5; fill-opacity: 0.1"/>
    <path d="M 159.42698 26.896852 
L 141.494628 -17.41976 
L 146.97 -30.189894 
L 164.951543 14.413782 
z
" clip-path="url(#p5183a7fa0b)" style="fill: #0000f5; fill-opacity: 0.1"/>
    <path d="M 287.170759 160.274162 
L 270.023103 116.746335 
L 276.109061 104.591423 
L 293.298455 148.399097 
z
" clip-path="url(#p5183a7fa0b)" style="fill: #0000f5; fill-opacity: 0.1"/>
    <path d="M 211.636996 77.770935 
L 194.008833 33.712806 
L 199.738825 21.164899 
L 217.413223 65.50789 
z
" clip-path="url(#p5183a7fa0b)" style="fill: #0000f5; fill-opacity: 0.1"/>
    <path d="M 136.07018 -4.768396 
L 117.96109 -49.357288 
L 123.3348 -62.298536 
L 141.494628 -17.41976 
z
" clip-path="url(#p5183a7fa0b)" style="fill: #0000f5; fill-opacity: 0.1"/>
    <path d="M 339.62228 211.396083 
L 322.781813 168.12973 
L 329.124715 156.199367 
L 346.003921 199.743323 
z
" clip-path="url(#p5183a7fa0b)" style="fill: #0000f5; fill-opacity: 0.1"/>
    <path d="M 263.993815 128.788065 
L 246.671631 84.990054 
L 252.657665 72.665688 
L 270.023103 116.746335 
z
" clip-path="url(#p5183a7fa0b)" style="fill: #0000f5; fill-opacity: 0.1"/>
    <path d="M 188.332209 46.143846 
L 170.527884 1.813715 
L 176.156736 -10.905002 
L 194.008833 33.712806 
z
" clip-path="url(#p5183a7fa0b)" style="fill: #0000f5; fill-opacity: 0.1"/>
    <path d="M 316.498058 179.948846 
L 299.483651 136.4126 
L 305.727161 124.313094 
L 322.781813 168.12973 
z
" clip-path="url(#p5183a7fa0b)" style="fill: #0000f5; fill-opacity: 0.1"/>
    <path d="M 240.741426 97.199474 
L 223.243663 53.129746 
L 229.129086 40.634876 
L 246.671631 84.990054 
z
" clip-path="url(#p5183a7fa0b)" style="fill: #0000f5; fill-opacity: 0.1"/>
    <path d="M 164.951543 14.413782 
L 146.97 -30.189894 
L 152.497016 -43.080477 
L 170.527884 1.813715 
z
" clip-path="url(#p5183a7fa0b)" style="fill: #0000f5; fill-opacity: 0.1"/>
    <path d="M 293.298455 148.399097 
L 276.109061 104.591423 
L 282.252491 92.321727 
L 299.483651 136.4126 
z
" clip-path="url(#p5183a7fa0b)" style="fill: #0000f5; fill-opacity: 0.1"/>
    <path d="M 217.413223 65.50789 
L 199.738825 21.164899 
L 205.52294 8.49847 
L 223.243663 53.129746 
z
" clip-path="url(#p5183a7fa0b)" style="fill: #0000f5; fill-opacity: 0.1"/>
    <path d="M 141.494628 -17.41976 
L 123.3348 -62.298536 
L 128.75928 -75.362048 
L 146.97 -30.189894 
z
" clip-path="url(#p5183a7fa0b)" style="fill: #0000f5; fill-opacity: 0.1"/>
    <path d="M 346.003921 199.743323 
L 329.124715 156.199367 
L 335.527601 144.156179 
L 352.44553 187.981061 
z
" clip-path="url(#p5183a7fa0b)" style="fill: #0000f5; fill-opacity: 0.1"/>
    <path d="M 270.023103 116.746335 
L 252.657665 72.665688 
L 258.700322 60.224744 
L 276.109061 104.591423 
z
" clip-path="url(#p5183a7fa0b)" style="fill: #0000f5; fill-opacity: 0.1"/>
    <path d="M 194.008833 33.712806 
L 176.156736 -10.905002 
L 181.838844 -23.744054 
L 199.738825 21.164899 
z
" clip-path="url(#p5183a7fa0b)" style="fill: #0000f5; fill-opacity: 0.1"/>
    <path d="M 322.781813 168.12973 
L 305.727161 124.313094 
L 312.029814 112.098975 
L 329.124715 156.199367 
z
" clip-path="url(#p5183a7fa0b)" style="fill: #0000f5; fill-opacity: 0.1"/>
    <path d="M 246.671631 84.990054 
L 229.129086 40.634876 
L 235.07027 28.021621 
L 252.657665 72.665688 
z
" clip-path="url(#p5183a7fa0b)" style="fill: #0000f5; fill-opacity: 0.1"/>
    <path d="M 170.527884 1.813715 
L 152.497016 -43.080477 
L 158.076411 -56.093223 
L 176.156736 -10.905002 
z
" clip-path="url(#p5183a7fa0b)" style="fill: #0000f5; fill-opacity: 0.1"/>
    <path d="M 299.483651 136.4126 
L 282.252491 92.321727 
L 288.454212 79.935612 
L 305.727161 124.313094 
z
" clip-path="url(#p5183a7fa0b)" style="fill: #0000f5; fill-opacity: 0.1"/>
    <path d="M 223.243663 53.129746 
L 205.52294 8.49847 
L 211.361948 -4.288168 
L 229.129086 40.634876 
z
" clip-path="url(#p5183a7fa0b)" style="fill: #0000f5; fill-opacity: 0.1"/>
    <path d="M 146.97 -30.189894 
L 128.75928 -75.362048 
L 134.235252 -88.549566 
L 152.497016 -43.080477 
z
" clip-path="url(#p5183a7fa0b)" style="fill: #0000f5; fill-opacity: 0.1"/>
    <path d="M 352.44553 187.981061 
L 335.527601 144.156179 
L 341.991326 131.998558 
L 358.947957 176.107747 
z
" clip-path="url(#p5183a7fa0b)" style="fill: #0000f5; fill-opacity: 0.1"/>
    <path d="M 276.109061 104.591423 
L 258.700322 60.224744 
L 264.800409 47.665561 
L 282.252491 92.321727 
z
" clip-path="url(#p5183a7fa0b)" style="fill: #0000f5; fill-opacity: 0.1"/>
    <path d="M 199.738825 21.164899 
L 181.838844 -23.744054 
L 187.574966 -36.705155 
L 205.52294 8.49847 
z
" clip-path="url(#p5183a7fa0b)" style="fill: #0000f5; fill-opacity: 0.1"/>
    <path d="M 329.124715 156.199367 
L 312.029814 112.098975 
L 318.392453 99.768606 
L 335.527601 144.156179 
z
" clip-path="url(#p5183a7fa0b)" style="fill: #0000f5; fill-opacity: 0.1"/>
    <path d="M 252.657665 72.665688 
L 235.07027 28.021621 
L 241.068014 15.28829 
L 258.700322 60.224744 
z
" clip-path="url(#p5183a7fa0b)" style="fill: #0000f5; fill-opacity: 0.1"/>
    <path d="M 176.156736 -10.905002 
L 158.076411 -56.093223 
L 163.708932 -69.229874 
L 181.838844 -23.744054 
z
" clip-path="url(#p5183a7fa0b)" style="fill: #0000f5; fill-opacity: 0.1"/>
    <path d="M 305.727161 124.313094 
L 288.454212 79.935612 
L 294.715058 67.431414 
L 312.029814 112.098975 
z
" clip-path="url(#p5183a7fa0b)" style="fill: #0000f5; fill-opacity: 0.1"/>
    <path d="M 229.129086 40.634876 
L 211.361948 -4.288168 
L 217.256635 -17.196736 
L 235.07027 28.021621 
z
" clip-path="url(#p5183a7fa0b)" style="fill: #0000f5; fill-opacity: 0.1"/>
    <path d="M 152.497016 -43.080477 
L 134.235252 -88.549566 
L 139.763452 -101.862864 
L 158.076411 -56.093223 
z
" clip-path="url(#p5183a7fa0b)" style="fill: #0000f5; fill-opacity: 0.1"/>
    <path d="M 358.947957 176.107747 
L 341.991326 131.998558 
L 348.516763 119.724865 
L 365.512068 164.121801 
z
" clip-path="url(#p5183a7fa0b)" style="fill: #0000f5; fill-opacity: 0.1"/>
    <path d="M 282.252491 92.321727 
L 264.800409 47.665561 
L 270.958748 34.986446 
L 288.454212 79.935612 
z
" clip-path="url(#p5183a7fa0b)" style="fill: #0000f5; fill-opacity: 0.1"/>
    <path d="M 205.52294 8.49847 
L 187.574966 -36.705155 
L 193.365877 -49.790055 
L 211.361948 -4.288168 
z
" clip-path="url(#p5183a7fa0b)" style="fill: #0000f5; fill-opacity: 0.1"/>
    <path d="M 335.527601 144.156179 
L 318.392453 99.768606 
L 324.815939 87.32032 
L 341.991326 131.998558 
z
" clip-path="url(#p5183a7fa0b)" style="fill: #0000f5; fill-opacity: 0.1"/>
    <path d="M 258.700322 60.224744 
L 241.068014 15.28829 
L 247.123128 2.433161 
L 264.800409 47.665561 
z
" clip-path="url(#p5183a7fa0b)" style="fill: #0000f5; fill-opacity: 0.1"/>
    <path d="M 181.838844 -23.744054 
L 163.708932 -69.229874 
L 169.395343 -82.492211 
L 187.574966 -36.705155 
z
" clip-path="url(#p5183a7fa0b)" style="fill: #0000f5; fill-opacity: 0.1"/>
    <path d="M 312.029814 112.098975 
L 294.715058 67.431414 
L 301.035877 54.807437 
L 318.392453 99.768606 
z
" clip-path="url(#p5183a7fa0b)" style="fill: #0000f5; fill-opacity: 0.1"/>
    <path d="M 235.07027 28.021621 
L 217.256635 -17.196736 
L 223.207801 -30.228984 
L 241.068014 15.28829 
z
" clip-path="url(#p5183a7fa0b)" style="fill: #0000f5; fill-opacity: 0.1"/>
    <path d="M 158.076411 -56.093223 
L 139.763452 -101.862864 
L 145.344632 -115.30375 
L 163.708932 -69.229874 
z
" clip-path="url(#p5183a7fa0b)" style="fill: #0000f5; fill-opacity: 0.1"/>
    <path d="M 365.512068 164.121801 
L 348.516763 119.724865 
L 355.104798 107.333429 
L 372.138743 152.021612 
z
" clip-path="url(#p5183a7fa0b)" style="fill: #0000f5; fill-opacity: 0.1"/>
    <path d="M 288.454212 79.935612 
L 270.958748 34.986446 
L 277.176177 22.185672 
L 294.715058 67.431414 
z
" clip-path="url(#p5183a7fa0b)" style="fill: #0000f5; fill-opacity: 0.1"/>
    <path d="M 211.361948 -4.288168 
L 193.365877 -49.790055 
L 199.212366 -63.000536 
L 217.256635 -17.196736 
z
" clip-path="url(#p5183a7fa0b)" style="fill: #0000f5; fill-opacity: 0.1"/>
    <path d="M 341.991326 131.998558 
L 324.815939 87.32032 
L 331.301149 74.752415 
L 348.516763 119.724865 
z
" clip-path="url(#p5183a7fa0b)" style="fill: #0000f5; fill-opacity: 0.1"/>
    <path d="M 264.800409 47.665561 
L 247.123128 2.433161 
L 253.23644 -10.545524 
L 270.958748 34.986446 
z
" clip-path="url(#p5183a7fa0b)" style="fill: #0000f5; fill-opacity: 0.1"/>
    <path d="M 187.574966 -36.705155 
L 169.395343 -82.492211 
L 175.13642 -95.882045 
L 193.365877 -49.790055 
z
" clip-path="url(#p5183a7fa0b)" style="fill: #0000f5; fill-opacity: 0.1"/>
    <path d="M 318.392453 99.768606 
L 301.035877 54.807437 
L 307.417535 42.06195 
L 324.815939 87.32032 
z
" clip-path="url(#p5183a7fa0b)" style="fill: #0000f5; fill-opacity: 0.1"/>
    <path d="M 241.068014 15.28829 
L 223.207801 -30.228984 
L 229.216262 -43.386701 
L 247.123128 2.433161 
z
" clip-path="url(#p5183a7fa0b)" style="fill: #0000f5; fill-opacity: 0.1"/>
    <path d="M 163.708932 -69.229874 
L 145.344632 -115.30375 
L 150.979557 -128.874066 
L 169.395343 -82.492211 
z
" clip-path="url(#p5183a7fa0b)" style="fill: #0000f5; fill-opacity: 0.1"/>
    <path d="M 372.138743 152.021612 
L 355.104798 107.333429 
L 361.756337 94.822549 
L 378.828882 139.805539 
z
" clip-path="url(#p5183a7fa0b)" style="fill: #0000f5; fill-opacity: 0.1"/>
    <path d="M 294.715058 67.431414 
L 277.176177 22.185672 
L 283.453552 9.261479 
L 301.035877 54.807437 
z
" clip-path="url(#p5183a7fa0b)" style="fill: #0000f5; fill-opacity: 0.1"/>
    <path d="M 217.256635 -17.196736 
L 199.212366 -63.000536 
L 205.115237 -76.338414 
L 223.207801 -30.228984 
z
" clip-path="url(#p5183a7fa0b)" style="fill: #0000f5; fill-opacity: 0.1"/>
    <path d="M 348.516763 119.724865 
L 331.301149 74.752415 
L 337.848978 62.063162 
L 355.104798 107.333429 
z
" clip-path="url(#p5183a7fa0b)" style="fill: #0000f5; fill-opacity: 0.1"/>
    <path d="M 270.958748 34.986446 
L 253.23644 -10.545524 
L 259.408793 -23.649553 
L 277.176177 22.185672 
z
" clip-path="url(#p5183a7fa0b)" style="fill: #0000f5; fill-opacity: 0.1"/>
    <path d="M 193.365877 -49.790055 
L 175.13642 -95.882045 
L 180.932955 -109.401224 
L 199.212366 -63.000536 
z
" clip-path="url(#p5183a7fa0b)" style="fill: #0000f5; fill-opacity: 0.1"/>
    <path d="M 324.815939 87.32032 
L 307.417535 42.06195 
L 313.860916 29.19319 
L 331.301149 74.752415 
z
" clip-path="url(#p5183a7fa0b)" style="fill: #0000f5; fill-opacity: 0.1"/>
    <path d="M 247.123128 2.433161 
L 229.216262 -43.386701 
L 235.282849 -56.671705 
L 253.23644 -10.545524 
z
" clip-path="url(#p5183a7fa0b)" style="fill: #0000f5; fill-opacity: 0.1"/>
    <path d="M 169.395343 -82.492211 
L 150.979557 -128.874066 
L 156.669006 -142.575692 
L 175.13642 -95.882045 
z
" clip-path="url(#p5183a7fa0b)" style="fill: #0000f5; fill-opacity: 0.1"/>
    <path d="M 301.035877 54.807437 
L 283.453552 9.261479 
L 289.791743 -3.787926 
L 307.417535 42.06195 
z
" clip-path="url(#p5183a7fa0b)" style="fill: #0000f5; fill-opacity: 0.1"/>
    <path d="M 223.207801 -30.228984 
L 205.115237 -76.338414 
L 211.075308 -89.805542 
L 229.216262 -43.386701 
z
" clip-path="url(#p5183a7fa0b)" style="fill: #0000f5; fill-opacity: 0.1"/>
    <path d="M 355.104798 107.333429 
L 337.848978 62.063162 
L 344.460336 49.250792 
L 361.756337 94.822549 
z
" clip-path="url(#p5183a7fa0b)" style="fill: #0000f5; fill-opacity: 0.1"/>
    <path d="M 277.176177 22.185672 
L 259.408793 -23.649553 
L 265.641045 -36.880751 
L 283.453552 9.261479 
z
" clip-path="url(#p5183a7fa0b)" style="fill: #0000f5; fill-opacity: 0.1"/>
    <path d="M 199.212366 -63.000536 
L 180.932955 -109.401224 
L 186.785756 -123.051631 
L 205.115237 -76.338414 
z
" clip-path="url(#p5183a7fa0b)" style="fill: #0000f5; fill-opacity: 0.1"/>
    <path d="M 331.301149 74.752415 
L 313.860916 29.19319 
L 320.366919 16.199362 
L 337.848978 62.063162 
z
" clip-path="url(#p5183a7fa0b)" style="fill: #0000f5; fill-opacity: 0.1"/>
    <path d="M 253.23644 -10.545524 
L 235.282849 -56.671705 
L 241.408409 -70.085853 
L 259.408793 -23.649553 
z
" clip-path="url(#p5183a7fa0b)" style="fill: #0000f5; fill-opacity: 0.1"/>
    <path d="M 175.13642 -95.882045 
L 156.669006 -142.575692 
L 162.413776 -156.410543 
L 180.932955 -109.401224 
z
" clip-path="url(#p5183a7fa0b)" style="fill: #0000f5; fill-opacity: 0.1"/>
    <path d="M 307.417535 42.06195 
L 289.791743 -3.787926 
L 296.191638 -16.96437 
L 313.860916 29.19319 
z
" clip-path="url(#p5183a7fa0b)" style="fill: #0000f5; fill-opacity: 0.1"/>
    <path d="M 229.216262 -43.386701 
L 211.075308 -89.805542 
L 217.093416 -103.403806 
L 235.282849 -56.671705 
z
" clip-path="url(#p5183a7fa0b)" style="fill: #0000f5; fill-opacity: 0.1"/>
    <path d="M 283.453552 9.261479 
L 265.641045 -36.880751 
L 271.934074 -50.240978 
L 289.791743 -3.787926 
z
" clip-path="url(#p5183a7fa0b)" style="fill: #0000f5; fill-opacity: 0.1"/>
    <path d="M 205.115237 -76.338414 
L 186.785756 -123.051631 
L 192.695647 -136.835186 
L 211.075308 -89.805542 
z
" clip-path="url(#p5183a7fa0b)" style="fill: #0000f5; fill-opacity: 0.1"/>
    <path d="M 337.848978 62.063162 
L 320.366919 16.199362 
L 326.936462 3.078632 
L 344.460336 49.250792 
z
" clip-path="url(#p5183a7fa0b)" style="fill: #0000f5; fill-opacity: 0.1"/>
    <path d="M 259.408793 -23.649553 
L 241.408409 -70.085853 
L 247.593807 -83.631038 
L 265.641045 -36.880751 
z
" clip-path="url(#p5183a7fa0b)" style="fill: #0000f5; fill-opacity: 0.1"/>
    <path d="M 180.932955 -109.401224 
L 162.413776 -156.410543 
L 168.214677 -170.380571 
L 186.785756 -123.051631 
z
" clip-path="url(#p5183a7fa0b)" style="fill: #0000f5; fill-opacity: 0.1"/>
    <path d="M 313.860916 29.19319 
L 296.191638 -16.96437 
L 302.654143 -30.26972 
L 320.366919 16.199362 
z
" clip-path="url(#p5183a7fa0b)" style="fill: #0000f5; fill-opacity: 0.1"/>
    <path d="M 235.282849 -56.671705 
L 217.093416 -103.403806 
L 223.170413 -117.135133 
L 241.408409 -70.085853 
z
" clip-path="url(#p5183a7fa0b)" style="fill: #0000f5; fill-opacity: 0.1"/>
    <path d="M 289.791743 -3.787926 
L 271.934074 -50.240978 
L 278.288773 -63.732132 
L 296.191638 -16.96437 
z
" clip-path="url(#p5183a7fa0b)" style="fill: #0000f5; fill-opacity: 0.1"/>
    <path d="M 211.075308 -89.805542 
L 192.695647 -136.835186 
L 198.663465 -150.753846 
L 217.093416 -103.403806 
z
" clip-path="url(#p5183a7fa0b)" style="fill: #0000f5; fill-opacity: 0.1"/>
    <path d="M 265.641045 -36.880751 
L 247.593807 -83.631038 
L 253.839924 -97.309189 
L 271.934074 -50.240978 
z
" clip-path="url(#p5183a7fa0b)" style="fill: #0000f5; fill-opacity: 0.1"/>
    <path d="M 186.785756 -123.051631 
L 168.214677 -170.380571 
L 174.072535 -184.487768 
L 192.695647 -136.835186 
z
" clip-path="url(#p5183a7fa0b)" style="fill: #0000f5; fill-opacity: 0.1"/>
    <path d="M 320.366919 16.199362 
L 302.654143 -30.26972 
L 309.180181 -43.705875 
L 326.936462 3.078632 
z
" clip-path="url(#p5183a7fa0b)" style="fill: #0000f5; fill-opacity: 0.1"/>
    <path d="M 241.408409 -70.085853 
L 223.170413 -117.135133 
L 229.307167 -131.001484 
L 247.593807 -83.631038 
z
" clip-path="url(#p5183a7fa0b)" style="fill: #0000f5; fill-opacity: 0.1"/>
    <path d="M 296.191638 -16.96437 
L 278.288773 -63.732132 
L 284.706052 -77.356145 
L 302.654143 -30.26972 
z
" clip-path="url(#p5183a7fa0b)" style="fill: #0000f5; fill-opacity: 0.1"/>
    <path d="M 217.093416 -103.403806 
L 198.663465 -150.753846 
L 204.690068 -164.809608 
L 223.170413 -117.135133 
z
" clip-path="url(#p5183a7fa0b)" style="fill: #0000f5; fill-opacity: 0.1"/>
    <path d="M 271.934074 -50.240978 
L 253.839924 -97.309189 
L 260.147658 -111.122274 
L 278.288773 -63.732132 
z
" clip-path="url(#p5183a7fa0b)" style="fill: #0000f5; fill-opacity: 0.1"/>
    <path d="M 192.695647 -136.835186 
L 174.072535 -184.487768 
L 179.988193 -198.734162 
L 198.663465 -150.753846 
z
" clip-path="url(#p5183a7fa0b)" style="fill: #0000f5; fill-opacity: 0.1"/>
    <path d="M 247.593807 -83.631038 
L 229.307167 -131.001484 
L 235.504563 -145.00486 
L 253.839924 -97.309189 
z
" clip-path="url(#p5183a7fa0b)" style="fill: #0000f5; fill-opacity: 0.1"/>
    <path d="M 302.654143 -30.26972 
L 284.706052 -77.356145 
L 291.186841 -91.114991 
L 309.180181 -43.705875 
z
" clip-path="url(#p5183a7fa0b)" style="fill: #0000f5; fill-opacity: 0.1"/>
    <path d="M 223.170413 -117.135133 
L 204.690068 -164.809608 
L 210.776328 -179.004508 
L 229.307167 -131.001484 
z
" clip-path="url(#p5183a7fa0b)" style="fill: #0000f5; fill-opacity: 0.1"/>
    <path d="M 278.288773 -63.732132 
L 260.147658 -111.122274 
L 266.517926 -125.072298 
L 284.706052 -77.356145 
z
" clip-path="url(#p5183a7fa0b)" style="fill: #0000f5; fill-opacity: 0.1"/>
    <path d="M 198.663465 -150.753846 
L 179.988193 -198.734162 
L 185.962512 -213.121825 
L 204.690068 -164.809608 
z
" clip-path="url(#p5183a7fa0b)" style="fill: #0000f5; fill-opacity: 0.1"/>
    <path d="M 253.839924 -97.309189 
L 235.504563 -145.00486 
L 241.763506 -159.147304 
L 260.147658 -111.122274 
z
" clip-path="url(#p5183a7fa0b)" style="fill: #0000f5; fill-opacity: 0.1"/>
    <path d="M 229.307167 -131.001484 
L 210.776328 -179.004508 
L 216.923136 -193.340622 
L 235.504563 -145.00486 
z
" clip-path="url(#p5183a7fa0b)" style="fill: #0000f5; fill-opacity: 0.1"/>
    <path d="M 284.706052 -77.356145 
L 266.517926 -125.072298 
L 272.951661 -139.16131 
L 291.186841 -91.114991 
z
" clip-path="url(#p5183a7fa0b)" style="fill: #0000f5; fill-opacity: 0.1"/>
    <path d="M 204.690068 -164.809608 
L 185.962512 -213.121825 
L 191.996368 -227.652869 
L 210.776328 -179.004508 
z
" clip-path="url(#p5183a7fa0b)" style="fill: #0000f5; fill-opacity: 0.1"/>
    <path d="M 260.147658 -111.122274 
L 241.763506 -159.147304 
L 248.084916 -173.430898 
L 266.517926 -125.072298 
z
" clip-path="url(#p5183a7fa0b)" style="fill: #0000f5; fill-opacity: 0.1"/>
    <path d="M 235.504563 -145.00486 
L 216.923136 -193.340622 
L 223.131399 -207.820068 
L 241.763506 -159.147304 
z
" clip-path="url(#p5183a7fa0b)" style="fill: #0000f5; fill-opacity: 0.1"/>
    <path d="M 210.776328 -179.004508 
L 191.996368 -227.652869 
L 198.090656 -242.329447 
L 216.923136 -193.340622 
z
" clip-path="url(#p5183a7fa0b)" style="fill: #0000f5; fill-opacity: 0.1"/>
    <path d="M 266.517926 -125.072298 
L 248.084916 -173.430898 
L 254.469733 -187.857764 
L 272.951661 -139.16131 
z
" clip-path="url(#p5183a7fa0b)" style="fill: #0000f5; fill-opacity: 0.1"/>
    <path d="M 241.763506 -159.147304 
L 223.131399 -207.820068 
L 229.402044 -222.445005 
L 248.084916 -173.430898 
z
" clip-path="url(#p5183a7fa0b)" style="fill: #0000f5; fill-opacity: 0.1"/>
    <path d="M 216.923136 -193.340622 
L 198.090656 -242.329447 
L 204.246287 -257.153757 
L 223.131399 -207.820068 
z
" clip-path="url(#p5183a7fa0b)" style="fill: #0000f5; fill-opacity: 0.1"/>
    <path d="M 248.084916 -173.430898 
L 229.402044 -222.445005 
L 235.736015 -237.217639 
L 254.469733 -187.857764 
z
" clip-path="url(#p5183a7fa0b)" style="fill: #0000f5; fill-opacity: 0.1"/>
    <path d="M 223.131399 -207.820068 
L 204.246287 -257.153757 
L 210.464194 -272.128041 
L 229.402044 -222.445005 
z
" clip-path="url(#p5183a7fa0b)" style="fill: #0000f5; fill-opacity: 0.1"/>
    <path d="M 229.402044 -222.445005 
L 210.464194 -272.128041 
L 216.745325 -287.254586 
L 235.736015 -237.217639 
z
" clip-path="url(#p5183a7fa0b)" style="fill: #0000f5; fill-opacity: 0.1"/>
   </g>
   <g id="legend_1">
    <g id="patch_6">
     <path d="M 357.840076 67.305115 
L 396.2 67.305115 
Q 398.2 67.305115 398.2 65.305115 
L 398.2 7 
Q 398.2 5 396.2 5 
L 357.840076 5 
Q 355.840076 5 355.840076 7 
L 355.840076 65.305115 
Q 355.840076 67.305115 357.840076 67.305115 
z
" style="fill: #ffffff; opacity: 0.8; stroke: #cccccc; stroke-linejoin: miter"/>
    </g>
    <g id="line2d_25">
     <path d="M 359.840076 12.5 
L 369.840076 12.5 
L 379.840076 12.5 
" style="fill: none; stroke: #ff0000; stroke-width: 1.5; stroke-linecap: square"/>
    </g>
    <g id="text_21">
     <!-- $\vec{a}$ -->
     <g transform="translate(387.840076 16)scale(0.1 -0.1)">
      <defs>
       <path id="CMMI12-7e" d="M 3424 3835 
C 3347 3764 3110 3540 3110 3451 
C 3110 3387 3168 3329 3232 3329 
C 3290 3329 3315 3368 3360 3432 
C 3514 3624 3686 3745 3834 3828 
C 3898 3867 3942 3886 3942 3956 
C 3942 4014 3891 4046 3853 4078 
C 3674 4200 3629 4372 3610 4449 
C 3590 4500 3571 4577 3482 4577 
C 3443 4577 3366 4552 3366 4456 
C 3366 4398 3405 4244 3526 4072 
L 1376 4072 
C 1267 4072 1158 4072 1158 3950 
C 1158 3835 1274 3835 1376 3835 
L 3424 3835 
z
" transform="scale(0.015625)"/>
       <path id="CMMI12-61" d="M 1926 760 
C 1894 651 1894 639 1805 517 
C 1664 338 1382 64 1082 64 
C 819 64 672 300 672 677 
C 672 1028 870 1743 992 2012 
C 1210 2459 1510 2689 1760 2689 
C 2182 2689 2266 2165 2266 2114 
C 2266 2108 2246 2024 2240 2012 
L 1926 760 
z
M 2336 2395 
C 2266 2561 2093 2816 1760 2816 
C 1037 2816 256 1884 256 939 
C 256 307 627 -64 1062 -64 
C 1414 -64 1715 211 1894 422 
C 1958 45 2259 -64 2451 -64 
C 2643 -64 2797 51 2912 281 
C 3014 498 3104 888 3104 913 
C 3104 945 3078 971 3040 971 
C 2982 971 2976 939 2950 843 
C 2854 466 2733 64 2470 64 
C 2285 64 2272 230 2272 358 
C 2272 505 2291 575 2349 824 
C 2394 984 2426 1124 2477 1309 
C 2714 2267 2771 2497 2771 2535 
C 2771 2625 2701 2695 2605 2695 
C 2400 2695 2349 2472 2336 2395 
z
" transform="scale(0.015625)"/>
      </defs>
      <use xlink:href="#CMMI12-7e" transform="scale(0.996264)"/>
      <use xlink:href="#CMMI12-61" transform="translate(6.445738 0)scale(0.996264)"/>
     </g>
    </g>
    <g id="line2d_26">
     <path d="M 359.840076 27.24679 
L 369.840076 27.24679 
L 379.840076 27.24679 
" style="fill: none; stroke: #00ff00; stroke-width: 1.5; stroke-linecap: square"/>
    </g>
    <g id="text_22">
     <!-- $\vec{b}$ -->
     <g transform="translate(387.840076 30.74679)scale(0.1 -0.1)">
      <defs>
       <path id="CMMI12-62" d="M 1478 4257 
C 1485 4283 1498 4321 1498 4352 
C 1498 4416 1434 4416 1421 4416 
C 1414 4416 1184 4393 1069 4377 
C 960 4377 864 4358 749 4358 
C 595 4345 550 4339 550 4224 
C 550 4160 614 4160 678 4160 
C 1005 4160 1005 4103 1005 4040 
C 1005 3996 954 3811 928 3696 
L 774 3085 
C 710 2831 346 1387 320 1272 
C 288 1114 288 1005 288 922 
C 288 274 653 -64 1069 -64 
C 1811 -64 2579 888 2579 1814 
C 2579 2401 2246 2816 1766 2816 
C 1434 2816 1133 2542 1011 2414 
L 1478 4257 
z
M 1075 64 
C 870 64 646 217 646 715 
C 646 926 666 1047 781 1494 
C 800 1577 902 1986 928 2069 
C 941 2120 1318 2689 1754 2689 
C 2035 2689 2163 2408 2163 2076 
C 2163 1769 1984 1047 1824 715 
C 1664 370 1370 64 1075 64 
z
" transform="scale(0.015625)"/>
      </defs>
      <use xlink:href="#CMMI12-7e" transform="translate(0 26.29016)scale(0.996264)"/>
      <use xlink:href="#CMMI12-62" transform="translate(11.311737 0)scale(0.996264)"/>
     </g>
    </g>
    <g id="line2d_27">
     <path d="M 359.840076 41.183968 
L 369.840076 41.183968 
L 379.840076 41.183968 
" style="fill: none; stroke: #0016ff; stroke-width: 1.5; stroke-linecap: square"/>
    </g>
    <g id="text_23">
     <!-- $\vec{c}$ -->
     <g transform="translate(387.840076 44.683968)scale(0.1 -0.1)">
      <defs>
       <path id="CMMI12-63" d="M 2502 2431 
C 2381 2431 2323 2431 2234 2355 
C 2195 2323 2125 2227 2125 2125 
C 2125 1997 2221 1920 2342 1920 
C 2496 1920 2669 2044 2669 2292 
C 2669 2588 2374 2816 1933 2816 
C 1094 2816 256 1903 256 996 
C 256 441 602 -64 1254 -64 
C 2125 -64 2675 622 2675 706 
C 2675 744 2637 776 2611 776 
C 2592 776 2586 770 2528 713 
C 2118 162 1510 64 1267 64 
C 826 64 685 446 685 764 
C 685 988 794 1605 1024 2039 
C 1190 2338 1536 2682 1939 2682 
C 2022 2682 2374 2682 2502 2431 
z
" transform="scale(0.015625)"/>
      </defs>
      <use xlink:href="#CMMI12-7e" transform="scale(0.996264)"/>
      <use xlink:href="#CMMI12-63" transform="translate(5.638615 0)scale(0.996264)"/>
     </g>
    </g>
    <g id="line2d_28">
     <path d="M 359.840076 57.867937 
L 369.840076 57.867937 
L 379.840076 57.867937 
" style="fill: none; stroke: #f400ff; stroke-width: 1.5; stroke-linecap: square"/>
    </g>
    <g id="text_24">
     <!-- $\vec{f}$ -->
     <g transform="translate(387.840076 61.367937)scale(0.1 -0.1)">
      <defs>
       <path id="CMMI12-66" d="M 2854 2566 
C 2982 2566 3034 2566 3034 2688 
C 3034 2752 2982 2752 2867 2752 
L 2349 2752 
C 2470 3429 2560 3897 2611 4107 
C 2650 4265 2784 4416 2950 4416 
C 3085 4416 3219 4358 3283 4298 
C 3034 4272 2957 4082 2957 3969 
C 2957 3837 3053 3759 3174 3759 
C 3302 3759 3494 3870 3494 4119 
C 3494 4393 3226 4544 2944 4544 
C 2669 4544 2400 4334 2272 4078 
C 2157 3848 2093 3611 1946 2752 
L 1517 2752 
C 1395 2752 1331 2752 1331 2637 
C 1331 2566 1370 2566 1498 2566 
L 1907 2566 
C 1792 1976 1530 542 1382 -137 
C 1274 -689 1178 -1152 858 -1152 
C 838 -1152 653 -1152 538 -1031 
C 864 -1005 864 -726 864 -720 
C 864 -593 768 -517 646 -517 
C 518 -517 326 -625 326 -867 
C 326 -1140 608 -1280 858 -1280 
C 1510 -1280 1779 -118 1850 199 
C 1965 688 2278 2376 2310 2566 
L 2854 2566 
z
" transform="scale(0.015625)"/>
      </defs>
      <use xlink:href="#CMMI12-7e" transform="translate(13.568792 26.29016)scale(0.996264)"/>
      <use xlink:href="#CMMI12-66" transform="scale(0.996264)"/>
     </g>
    </g>
   </g>
  </g>
 </g>
 <defs>
  <clipPath id="p5183a7fa0b">
   <rect x="57.6" y="0" width="345.6" height="345.6"/>
  </clipPath>
 </defs>
</svg>
