<?xml version="1.0" encoding="utf-8" standalone="no"?>
<!DOCTYPE svg PUBLIC "-//W3C//DTD SVG 1.1//EN"
  "http://www.w3.org/Graphics/SVG/1.1/DTD/svg11.dtd">
<svg xmlns:xlink="http://www.w3.org/1999/xlink" width="460.8pt" height="345.6pt" viewBox="0 0 460.8 345.6" xmlns="http://www.w3.org/2000/svg" version="1.1">
 <metadata>
  <rdf:RDF xmlns:dc="http://purl.org/dc/elements/1.1/" xmlns:cc="http://creativecommons.org/ns#" xmlns:rdf="http://www.w3.org/1999/02/22-rdf-syntax-ns#">
   <cc:Work>
    <dc:type rdf:resource="http://purl.org/dc/dcmitype/StillImage"/>
    <dc:date>2022-07-12T15:50:49.968476</dc:date>
    <dc:format>image/svg+xml</dc:format>
    <dc:creator>
     <cc:Agent>
      <dc:title>Matplotlib v3.5.1, https://matplotlib.org/</dc:title>
     </cc:Agent>
    </dc:creator>
   </cc:Work>
  </rdf:RDF>
 </metadata>
 <defs>
  <style type="text/css">*{stroke-linejoin: round; stroke-linecap: butt}</style>
 </defs>
 <g id="figure_1">
  <g id="patch_1">
   <path d="M 0 345.6 
L 460.8 345.6 
L 460.8 0 
L 0 0 
z
" style="fill: #ffffff"/>
  </g>
  <g id="patch_2">
   <path d="M 57.6 345.6 
L 403.2 345.6 
L 403.2 0 
L 57.6 0 
z
" style="fill: #ffffff"/>
  </g>
  <g id="pane3d_1">
   <g id="patch_3">
    <path d="M 138.063847 246.545577 
L 347.541602 247.162688 
L 347.541602 89.096771 
L 138.063847 89.713882 
" style="fill: #f2f2f2; opacity: 0.5; stroke: #f2f2f2; stroke-linejoin: miter"/>
   </g>
  </g>
  <g id="pane3d_2">
   <g id="patch_4">
    <path d="M 138.063847 246.545577 
L 109.449935 256.402417 
L 109.449935 79.857042 
L 138.063847 89.713882 
" style="fill: #e6e6e6; opacity: 0.5; stroke: #e6e6e6; stroke-linejoin: miter"/>
   </g>
  </g>
  <g id="pane3d_3">
   <g id="patch_5">
    <path d="M 138.063847 246.545577 
L 109.449935 256.402417 
L 345.238717 257.185195 
L 347.541602 247.162688 
" style="fill: #ececec; opacity: 0.5; stroke: #ececec; stroke-linejoin: miter"/>
   </g>
  </g>
  <g id="axis3d_1">
   <g id="line2d_1">
    <path d="M 347.541602 247.162688 
L 345.238717 257.185195 
" style="fill: none; stroke: #000000; stroke-width: 0.8; stroke-linecap: square"/>
   </g>
   <g id="text_1">
    <!-- x -->
    <g transform="translate(373.995212 279.246888)scale(0.16 -0.16)">
     <defs>
      <path id="CMSS17-78" d="M 1587 1414 
L 2656 2739 
L 2099 2739 
L 1363 1777 
L 602 2739 
L 32 2739 
L 1139 1414 
L 0 0 
L 563 0 
L 1363 1121 
L 2195 0 
L 2758 0 
L 1587 1414 
z
" transform="scale(0.015625)"/>
     </defs>
     <use xlink:href="#CMSS17-78" transform="scale(0.996264)"/>
    </g>
   </g>
   <g id="Line3DCollection_1">
    <path d="M 347.500636 247.340981 
L 137.554333 246.721093 
L 137.554333 89.538366 
" style="fill: none; stroke: #b0b0b0; stroke-width: 0.8"/>
    <path d="M 347.097745 249.094422 
L 132.544405 248.446899 
L 132.544405 87.81256 
" style="fill: none; stroke: #b0b0b0; stroke-width: 0.8"/>
    <path d="M 346.676614 250.92725 
L 127.309509 250.250202 
L 127.309509 86.009258 
" style="fill: none; stroke: #b0b0b0; stroke-width: 0.8"/>
    <path d="M 346.235974 252.844981 
L 121.834143 252.13634 
L 121.834143 84.123119 
" style="fill: none; stroke: #b0b0b0; stroke-width: 0.8"/>
    <path d="M 345.774438 254.853655 
L 116.101348 254.111157 
L 116.101348 82.148302 
" style="fill: none; stroke: #b0b0b0; stroke-width: 0.8"/>
    <path d="M 345.290484 256.959896 
L 110.092533 256.181057 
L 110.092533 80.078402 
" style="fill: none; stroke: #b0b0b0; stroke-width: 0.8"/>
   </g>
   <g id="xtick_1">
    <g id="line2d_2">
     <path d="M 345.807924 247.335983 
L 350.886699 247.350978 
" style="fill: none; stroke: #000000; stroke-width: 0.8; stroke-linecap: square"/>
    </g>
    <g id="text_2">
     <!-- $\mathdefault{0}$ -->
     <g transform="translate(358.535817 264.425956)scale(0.1 -0.1)">
      <defs>
       <path id="CMR17-30" d="M 2688 2025 
C 2688 2416 2682 3080 2413 3591 
C 2176 4039 1798 4198 1466 4198 
C 1158 4198 768 4058 525 3597 
C 269 3118 243 2524 243 2025 
C 243 1661 250 1106 448 619 
C 723 -39 1216 -128 1466 -128 
C 1760 -128 2208 -7 2470 600 
C 2662 1042 2688 1559 2688 2025 
z
M 1466 -26 
C 1056 -26 813 325 723 812 
C 653 1188 653 1738 653 2096 
C 653 2588 653 2997 736 3387 
C 858 3929 1216 4096 1466 4096 
C 1728 4096 2067 3923 2189 3400 
C 2272 3036 2278 2607 2278 2096 
C 2278 1680 2278 1169 2202 792 
C 2067 95 1690 -26 1466 -26 
z
" transform="scale(0.015625)"/>
      </defs>
      <use xlink:href="#CMR17-30" transform="scale(0.996264)"/>
     </g>
    </g>
   </g>
   <g id="xtick_2">
    <g id="line2d_3">
     <path d="M 345.367592 249.089201 
L 350.558721 249.104868 
" style="fill: none; stroke: #000000; stroke-width: 0.8; stroke-linecap: square"/>
    </g>
    <g id="text_3">
     <!-- $\mathdefault{1}$ -->
     <g transform="translate(358.432284 266.405465)scale(0.1 -0.1)">
      <defs>
       <path id="CMR17-31" d="M 1702 4058 
C 1702 4192 1696 4192 1606 4192 
C 1357 3916 979 3827 621 3827 
C 602 3827 570 3827 563 3808 
C 557 3795 557 3782 557 3648 
C 755 3648 1088 3686 1344 3839 
L 1344 461 
C 1344 236 1331 160 781 160 
L 589 160 
L 589 0 
C 896 0 1216 0 1523 0 
C 1830 0 2150 0 2458 0 
L 2458 160 
L 2266 160 
C 1715 160 1702 230 1702 458 
L 1702 4058 
z
" transform="scale(0.015625)"/>
      </defs>
      <use xlink:href="#CMR17-31" transform="scale(0.996264)"/>
     </g>
    </g>
   </g>
   <g id="xtick_3">
    <g id="line2d_4">
     <path d="M 344.907325 250.92179 
L 350.215892 250.938174 
" style="fill: none; stroke: #000000; stroke-width: 0.8; stroke-linecap: square"/>
    </g>
    <g id="text_4">
     <!-- $\mathdefault{2}$ -->
     <g transform="translate(358.324062 268.474643)scale(0.1 -0.1)">
      <defs>
       <path id="CMR17-32" d="M 2669 989 
L 2554 989 
C 2490 536 2438 459 2413 420 
C 2381 369 1920 369 1830 369 
L 602 369 
C 832 619 1280 1072 1824 1597 
C 2214 1967 2669 2402 2669 3035 
C 2669 3790 2067 4224 1395 4224 
C 691 4224 262 3604 262 3030 
C 262 2780 448 2748 525 2748 
C 589 2748 781 2787 781 3010 
C 781 3207 614 3264 525 3264 
C 486 3264 448 3258 422 3245 
C 544 3790 915 4058 1306 4058 
C 1862 4058 2227 3617 2227 3035 
C 2227 2479 1901 2000 1536 1584 
L 262 146 
L 262 0 
L 2515 0 
L 2669 989 
z
" transform="scale(0.015625)"/>
      </defs>
      <use xlink:href="#CMR17-32" transform="scale(0.996264)"/>
     </g>
    </g>
   </g>
   <g id="xtick_4">
    <g id="line2d_5">
     <path d="M 344.425738 252.839265 
L 349.857179 252.856417 
" style="fill: none; stroke: #000000; stroke-width: 0.8; stroke-linecap: square"/>
    </g>
    <g id="text_5">
     <!-- $\mathdefault{3}$ -->
     <g transform="translate(358.210824 270.639724)scale(0.1 -0.1)">
      <defs>
       <path id="CMR17-33" d="M 1414 2157 
C 1984 2157 2234 1662 2234 1090 
C 2234 320 1824 25 1453 25 
C 1114 25 563 194 390 693 
C 422 680 454 680 486 680 
C 640 680 755 782 755 948 
C 755 1133 614 1216 486 1216 
C 378 1216 211 1165 211 926 
C 211 335 787 -128 1466 -128 
C 2176 -128 2720 430 2720 1085 
C 2720 1707 2208 2157 1600 2227 
C 2086 2328 2554 2756 2554 3329 
C 2554 3820 2048 4179 1472 4179 
C 890 4179 378 3829 378 3329 
C 378 3110 544 3072 627 3072 
C 762 3072 877 3155 877 3321 
C 877 3486 762 3569 627 3569 
C 602 3569 570 3569 544 3557 
C 730 3959 1235 4032 1459 4032 
C 1683 4032 2106 3925 2106 3320 
C 2106 3143 2080 2828 1862 2550 
C 1670 2304 1453 2304 1242 2284 
C 1210 2284 1062 2269 1037 2269 
C 992 2263 966 2257 966 2208 
C 966 2163 973 2157 1101 2157 
L 1414 2157 
z
" transform="scale(0.015625)"/>
      </defs>
      <use xlink:href="#CMR17-33" transform="scale(0.996264)"/>
     </g>
    </g>
   </g>
   <g id="xtick_5">
    <g id="line2d_6">
     <path d="M 343.921315 254.847664 
L 349.481453 254.865639 
" style="fill: none; stroke: #000000; stroke-width: 0.8; stroke-linecap: square"/>
    </g>
    <g id="text_6">
     <!-- $\mathdefault{4}$ -->
     <g transform="translate(358.092213 272.907534)scale(0.1 -0.1)">
      <defs>
       <path id="CMR17-34" d="M 2150 4122 
C 2150 4256 2144 4256 2029 4256 
L 128 1254 
L 128 1088 
L 1779 1088 
L 1779 457 
C 1779 224 1766 160 1318 160 
L 1197 160 
L 1197 0 
C 1402 0 1747 0 1965 0 
C 2182 0 2528 0 2733 0 
L 2733 160 
L 2611 160 
C 2163 160 2150 224 2150 457 
L 2150 1088 
L 2803 1088 
L 2803 1254 
L 2150 1254 
L 2150 4122 
z
M 1798 3703 
L 1798 1254 
L 256 1254 
L 1798 3703 
z
" transform="scale(0.015625)"/>
      </defs>
      <use xlink:href="#CMR17-34" transform="scale(0.996264)"/>
     </g>
    </g>
   </g>
   <g id="xtick_6">
    <g id="line2d_7">
     <path d="M 343.392392 256.953611 
L 349.087475 256.972469 
" style="fill: none; stroke: #000000; stroke-width: 0.8; stroke-linecap: square"/>
    </g>
    <g id="text_7">
     <!-- $\mathdefault{5}$ -->
     <g transform="translate(357.967838 275.285561)scale(0.1 -0.1)">
      <defs>
       <path id="CMR17-35" d="M 730 3692 
C 794 3666 1056 3584 1325 3584 
C 1920 3584 2246 3911 2432 4100 
C 2432 4157 2432 4192 2394 4192 
C 2387 4192 2374 4192 2323 4163 
C 2099 4058 1837 3973 1517 3973 
C 1325 3973 1037 3999 723 4139 
C 653 4171 640 4171 634 4171 
C 602 4171 595 4164 595 4037 
L 595 2203 
C 595 2089 595 2057 659 2057 
C 691 2057 704 2070 736 2114 
C 941 2401 1222 2522 1542 2522 
C 1766 2522 2246 2382 2246 1289 
C 2246 1085 2246 715 2054 421 
C 1894 159 1645 25 1370 25 
C 947 25 518 320 403 814 
C 429 807 480 795 506 795 
C 589 795 749 840 749 1038 
C 749 1210 627 1280 506 1280 
C 358 1280 262 1190 262 1011 
C 262 454 704 -128 1382 -128 
C 2042 -128 2669 440 2669 1264 
C 2669 2030 2170 2624 1549 2624 
C 1222 2624 947 2503 730 2274 
L 730 3692 
z
" transform="scale(0.015625)"/>
      </defs>
      <use xlink:href="#CMR17-35" transform="scale(0.996264)"/>
     </g>
    </g>
   </g>
  </g>
  <g id="axis3d_2">
   <g id="line2d_8">
    <path d="M 109.449935 256.402417 
L 345.238717 257.185195 
" style="fill: none; stroke: #000000; stroke-width: 0.8; stroke-linecap: square"/>
   </g>
   <g id="text_8">
    <!-- y -->
    <g transform="translate(220.775279 287.427614)scale(0.16 -0.16)">
     <defs>
      <path id="CMSS17-79" d="M 2675 2752 
L 2176 2752 
C 1632 1294 1446 702 1434 383 
L 1427 383 
C 1408 696 1126 1460 902 2007 
L 602 2752 
L 83 2752 
L 1216 13 
C 1146 -178 1043 -465 1011 -529 
C 870 -885 774 -885 672 -885 
C 646 -885 442 -885 211 -809 
L 250 -1229 
C 410 -1261 570 -1280 685 -1280 
C 845 -1280 1165 -1280 1459 -497 
L 2675 2752 
z
" transform="scale(0.015625)"/>
     </defs>
     <use xlink:href="#CMSS17-79" transform="scale(0.996264)"/>
    </g>
   </g>
   <g id="Line3DCollection_2">
    <path d="M 162.195387 89.642792 
L 162.195387 246.616668 
L 136.588692 256.492513 
" style="fill: none; stroke: #b0b0b0; stroke-width: 0.8"/>
    <path d="M 202.233537 89.524841 
L 202.233537 246.734618 
L 181.62995 256.642042 
" style="fill: none; stroke: #b0b0b0; stroke-width: 0.8"/>
    <path d="M 242.392207 89.406536 
L 242.392207 246.852924 
L 226.823907 256.792078 
" style="fill: none; stroke: #b0b0b0; stroke-width: 0.8"/>
    <path d="M 282.671942 89.287874 
L 282.671942 246.971586 
L 272.171338 256.942624 
" style="fill: none; stroke: #b0b0b0; stroke-width: 0.8"/>
    <path d="M 323.07329 89.168853 
L 323.07329 247.090606 
L 317.673029 257.093681 
" style="fill: none; stroke: #b0b0b0; stroke-width: 0.8"/>
   </g>
   <g id="xtick_7">
    <g id="line2d_9">
     <path d="M 136.819089 256.403655 
L 136.126501 256.670768 
" style="fill: none; stroke: #000000; stroke-width: 0.8; stroke-linecap: square"/>
    </g>
    <g id="text_9">
     <!-- $\mathdefault{−4}$ -->
     <g transform="translate(128.36689 275.50942)scale(0.1 -0.1)">
      <defs>
       <path id="CMSY10-0" d="M 4218 1472 
C 4326 1472 4442 1472 4442 1600 
C 4442 1728 4326 1728 4218 1728 
L 755 1728 
C 646 1728 531 1728 531 1600 
C 531 1472 646 1472 755 1472 
L 4218 1472 
z
" transform="scale(0.015625)"/>
      </defs>
      <use xlink:href="#CMSY10-0" transform="scale(0.996264)"/>
      <use xlink:href="#CMR17-34" transform="translate(77.487468 0)scale(0.996264)"/>
     </g>
    </g>
   </g>
   <g id="xtick_8">
    <g id="line2d_10">
     <path d="M 181.815367 256.552883 
L 181.257992 256.820902 
" style="fill: none; stroke: #000000; stroke-width: 0.8; stroke-linecap: square"/>
    </g>
    <g id="text_10">
     <!-- $\mathdefault{−2}$ -->
     <g transform="translate(173.770625 275.680802)scale(0.1 -0.1)">
      <use xlink:href="#CMSY10-0" transform="scale(0.996264)"/>
      <use xlink:href="#CMR17-32" transform="translate(77.487468 0)scale(0.996264)"/>
     </g>
    </g>
   </g>
   <g id="xtick_9">
    <g id="line2d_11">
     <path d="M 226.964036 256.702617 
L 226.542797 256.971545 
" style="fill: none; stroke: #000000; stroke-width: 0.8; stroke-linecap: square"/>
    </g>
    <g id="text_11">
     <!-- $\mathdefault{0}$ -->
     <g transform="translate(223.20391 275.85277)scale(0.1 -0.1)">
      <use xlink:href="#CMR17-30" transform="scale(0.996264)"/>
     </g>
    </g>
   </g>
   <g id="xtick_10">
    <g id="line2d_12">
     <path d="M 272.265871 256.852858 
L 271.981697 257.122701 
" style="fill: none; stroke: #000000; stroke-width: 0.8; stroke-linecap: square"/>
    </g>
    <g id="text_12">
     <!-- $\mathdefault{2}$ -->
     <g transform="translate(268.918798 276.025327)scale(0.1 -0.1)">
      <use xlink:href="#CMR17-32" transform="scale(0.996264)"/>
     </g>
    </g>
   </g>
   <g id="xtick_11">
    <g id="line2d_13">
     <path d="M 317.721654 257.00361 
L 317.575481 257.274373 
" style="fill: none; stroke: #000000; stroke-width: 0.8; stroke-linecap: square"/>
    </g>
    <g id="text_13">
     <!-- $\mathdefault{4}$ -->
     <g transform="translate(314.790464 276.198475)scale(0.1 -0.1)">
      <use xlink:href="#CMR17-34" transform="scale(0.996264)"/>
     </g>
    </g>
   </g>
  </g>
  <g id="axis3d_3">
   <g id="line2d_14">
    <path d="M 109.449935 256.402417 
L 109.449935 79.857042 
" style="fill: none; stroke: #000000; stroke-width: 0.8; stroke-linecap: square"/>
   </g>
   <g id="text_14">
    <!-- z -->
    <g transform="translate(68.520608 172.114786)scale(0.16 -0.16)">
     <defs>
      <path id="CMSS17-7a" d="M 2400 2502 
L 2400 2750 
L 250 2750 
L 250 2368 
L 1069 2368 
C 1146 2368 1222 2368 1299 2368 
L 1747 2368 
L 166 261 
L 166 0 
L 2419 0 
L 2419 395 
L 1549 395 
C 1472 395 1395 395 1318 395 
L 826 395 
L 2400 2502 
z
" transform="scale(0.015625)"/>
     </defs>
     <use xlink:href="#CMSS17-7a" transform="scale(0.996264)"/>
    </g>
   </g>
   <g id="Line3DCollection_3">
    <path d="M 109.449935 252.87151 
L 138.063847 243.408943 
L 347.541602 244.00137 
" style="fill: none; stroke: #b0b0b0; stroke-width: 0.8"/>
    <path d="M 109.449935 218.974798 
L 138.063847 213.297258 
L 347.541602 213.652714 
" style="fill: none; stroke: #b0b0b0; stroke-width: 0.8"/>
    <path d="M 109.449935 185.078086 
L 138.063847 183.185572 
L 347.541602 183.304058 
" style="fill: none; stroke: #b0b0b0; stroke-width: 0.8"/>
    <path d="M 109.449935 151.181374 
L 138.063847 153.073887 
L 347.541602 152.955402 
" style="fill: none; stroke: #b0b0b0; stroke-width: 0.8"/>
    <path d="M 109.449935 117.284662 
L 138.063847 122.962201 
L 347.541602 122.606746 
" style="fill: none; stroke: #b0b0b0; stroke-width: 0.8"/>
    <path d="M 109.449935 83.38795 
L 138.063847 92.850516 
L 347.541602 92.258089 
" style="fill: none; stroke: #b0b0b0; stroke-width: 0.8"/>
   </g>
   <g id="xtick_12">
    <g id="line2d_15">
     <path d="M 109.707362 252.786379 
L 108.933526 253.042285 
" style="fill: none; stroke: #000000; stroke-width: 0.8; stroke-linecap: square"/>
    </g>
    <g id="text_15">
     <!-- $\mathdefault{0}$ -->
     <g transform="translate(89.841636 260.427728)scale(0.1 -0.1)">
      <use xlink:href="#CMR17-30" transform="scale(0.996264)"/>
     </g>
    </g>
   </g>
   <g id="xtick_13">
    <g id="line2d_16">
     <path d="M 109.707362 218.92372 
L 108.933526 219.077263 
" style="fill: none; stroke: #000000; stroke-width: 0.8; stroke-linecap: square"/>
    </g>
    <g id="text_16">
     <!-- $\mathdefault{1}$ -->
     <g transform="translate(89.841636 226.275928)scale(0.1 -0.1)">
      <use xlink:href="#CMR17-31" transform="scale(0.996264)"/>
     </g>
    </g>
   </g>
   <g id="xtick_14">
    <g id="line2d_17">
     <path d="M 109.707362 185.06106 
L 108.933526 185.112241 
" style="fill: none; stroke: #000000; stroke-width: 0.8; stroke-linecap: square"/>
    </g>
    <g id="text_17">
     <!-- $\mathdefault{2}$ -->
     <g transform="translate(89.841636 192.124128)scale(0.1 -0.1)">
      <use xlink:href="#CMR17-32" transform="scale(0.996264)"/>
     </g>
    </g>
   </g>
   <g id="xtick_15">
    <g id="line2d_18">
     <path d="M 109.707362 151.1984 
L 108.933526 151.147219 
" style="fill: none; stroke: #000000; stroke-width: 0.8; stroke-linecap: square"/>
    </g>
    <g id="text_18">
     <!-- $\mathdefault{3}$ -->
     <g transform="translate(89.841636 157.972328)scale(0.1 -0.1)">
      <use xlink:href="#CMR17-33" transform="scale(0.996264)"/>
     </g>
    </g>
   </g>
   <g id="xtick_16">
    <g id="line2d_19">
     <path d="M 109.707362 117.33574 
L 108.933526 117.182196 
" style="fill: none; stroke: #000000; stroke-width: 0.8; stroke-linecap: square"/>
    </g>
    <g id="text_19">
     <!-- $\mathdefault{4}$ -->
     <g transform="translate(89.841636 123.820528)scale(0.1 -0.1)">
      <use xlink:href="#CMR17-34" transform="scale(0.996264)"/>
     </g>
    </g>
   </g>
   <g id="xtick_17">
    <g id="line2d_20">
     <path d="M 109.707362 83.47308 
L 108.933526 83.217174 
" style="fill: none; stroke: #000000; stroke-width: 0.8; stroke-linecap: square"/>
    </g>
    <g id="text_20">
     <!-- $\mathdefault{5}$ -->
     <g transform="translate(89.841636 89.668728)scale(0.1 -0.1)">
      <use xlink:href="#CMR17-35" transform="scale(0.996264)"/>
     </g>
    </g>
   </g>
  </g>
  <g id="axes_1">
   <g id="line2d_21">
    <path d="M 242.115124 243.873816 
L 301.323966 90.536245 
" clip-path="url(#pad013b2b3c)" style="fill: none; stroke: #ff0000; stroke-width: 1.5; stroke-linecap: square"/>
   </g>
   <g id="line2d_22">
    <path d="M 242.115124 243.873816 
L 194.491288 120.708905 
" clip-path="url(#pad013b2b3c)" style="fill: none; stroke: #00ff00; stroke-width: 1.5; stroke-linecap: square"/>
   </g>
   <g id="line2d_23">
    <path d="M 242.115124 243.873816 
L 253.234355 -1 
" clip-path="url(#pad013b2b3c)" style="fill: none; stroke: #0016ff; stroke-width: 1.5; stroke-linecap: square"/>
   </g>
   <g id="line2d_24">
    <path d="M 242.115124 243.873816 
L 159.609362 151.192392 
" clip-path="url(#pad013b2b3c)" style="fill: none; stroke: #f400ff; stroke-width: 1.5; stroke-linecap: square"/>
   </g>
   <g id="Poly3DCollection_1">
    <path d="M 141.721052 356.778528 
L 139.28816 316.874107 
L 149.401406 305.484395 
L 151.7265 345.526247 
z
" clip-path="url(#pad013b2b3c)" style="fill: #0000f5; fill-opacity: 0.1"/>
    <path d="M 151.7265 345.526247 
L 149.401406 305.484395 
L 159.522339 294.086027 
L 161.739473 334.265505 
z
" clip-path="url(#pad013b2b3c)" style="fill: #0000f5; fill-opacity: 0.1"/>
    <path d="M 161.739473 334.265505 
L 159.522339 294.086027 
L 169.650968 282.67899 
L 171.759977 322.996292 
z
" clip-path="url(#pad013b2b3c)" style="fill: #0000f5; fill-opacity: 0.1"/>
    <path d="M 171.759977 322.996292 
L 169.650968 282.67899 
L 179.787302 271.263277 
L 181.788022 311.718599 
z
" clip-path="url(#pad013b2b3c)" style="fill: #0000f5; fill-opacity: 0.1"/>
    <path d="M 181.788022 311.718599 
L 179.787302 271.263277 
L 189.93135 259.838875 
L 191.823617 300.432416 
z
" clip-path="url(#pad013b2b3c)" style="fill: #0000f5; fill-opacity: 0.1"/>
    <path d="M 191.823617 300.432416 
L 189.93135 259.838875 
L 200.083121 248.405777 
L 201.866769 289.137733 
z
" clip-path="url(#pad013b2b3c)" style="fill: #0000f5; fill-opacity: 0.1"/>
    <path d="M 201.866769 289.137733 
L 200.083121 248.405777 
L 210.242622 236.963972 
L 211.917487 277.834542 
z
" clip-path="url(#pad013b2b3c)" style="fill: #0000f5; fill-opacity: 0.1"/>
    <path d="M 211.917487 277.834542 
L 210.242622 236.963972 
L 220.409864 225.513449 
L 221.97578 266.522831 
z
" clip-path="url(#pad013b2b3c)" style="fill: #0000f5; fill-opacity: 0.1"/>
    <path d="M 221.97578 266.522831 
L 220.409864 225.513449 
L 230.584855 214.054199 
L 232.041656 255.202593 
z
" clip-path="url(#pad013b2b3c)" style="fill: #0000f5; fill-opacity: 0.1"/>
    <path d="M 232.041656 255.202593 
L 230.584855 214.054199 
L 240.767604 202.586213 
L 242.115124 243.873816 
z
" clip-path="url(#pad013b2b3c)" style="fill: #0000f5; fill-opacity: 0.1"/>
    <path d="M 242.115124 243.873816 
L 240.767604 202.586213 
L 250.95812 191.109479 
L 252.196193 232.536491 
z
" clip-path="url(#pad013b2b3c)" style="fill: #0000f5; fill-opacity: 0.1"/>
    <path d="M 252.196193 232.536491 
L 250.95812 191.109479 
L 261.156411 179.623988 
L 262.284871 221.19061 
z
" clip-path="url(#pad013b2b3c)" style="fill: #0000f5; fill-opacity: 0.1"/>
    <path d="M 262.284871 221.19061 
L 261.156411 179.623988 
L 271.362487 168.12973 
L 272.381166 209.836161 
z
" clip-path="url(#pad013b2b3c)" style="fill: #0000f5; fill-opacity: 0.1"/>
    <path d="M 272.381166 209.836161 
L 271.362487 168.12973 
L 281.576356 156.626695 
L 282.485088 198.473136 
z
" clip-path="url(#pad013b2b3c)" style="fill: #0000f5; fill-opacity: 0.1"/>
    <path d="M 282.485088 198.473136 
L 281.576356 156.626695 
L 291.798028 145.114872 
L 292.596645 187.101524 
z
" clip-path="url(#pad013b2b3c)" style="fill: #0000f5; fill-opacity: 0.1"/>
    <path d="M 292.596645 187.101524 
L 291.798028 145.114872 
L 302.027511 133.594253 
L 302.715846 175.721316 
z
" clip-path="url(#pad013b2b3c)" style="fill: #0000f5; fill-opacity: 0.1"/>
    <path d="M 302.715846 175.721316 
L 302.027511 133.594253 
L 312.264815 122.064825 
L 312.842698 164.332502 
z
" clip-path="url(#pad013b2b3c)" style="fill: #0000f5; fill-opacity: 0.1"/>
    <path d="M 312.842698 164.332502 
L 312.264815 122.064825 
L 322.509947 110.526581 
L 322.977212 152.935072 
z
" clip-path="url(#pad013b2b3c)" style="fill: #0000f5; fill-opacity: 0.1"/>
    <path d="M 322.977212 152.935072 
L 322.509947 110.526581 
L 332.762918 98.979509 
L 333.119396 141.529017 
z
" clip-path="url(#pad013b2b3c)" style="fill: #0000f5; fill-opacity: 0.1"/>
    <path d="M 139.28816 316.874107 
L 136.801835 276.093274 
L 147.025226 264.562777 
L 149.401406 305.484395 
z
" clip-path="url(#pad013b2b3c)" style="fill: #0000f5; fill-opacity: 0.1"/>
    <path d="M 149.401406 305.484395 
L 147.025226 264.562777 
L 157.256473 253.023418 
L 159.522339 294.086027 
z
" clip-path="url(#pad013b2b3c)" style="fill: #0000f5; fill-opacity: 0.1"/>
    <path d="M 159.522339 294.086027 
L 157.256473 253.023418 
L 167.495586 241.475189 
L 169.650968 282.67899 
z
" clip-path="url(#pad013b2b3c)" style="fill: #0000f5; fill-opacity: 0.1"/>
    <path d="M 169.650968 282.67899 
L 167.495586 241.475189 
L 177.742573 229.918077 
L 179.787302 271.263277 
z
" clip-path="url(#pad013b2b3c)" style="fill: #0000f5; fill-opacity: 0.1"/>
    <path d="M 179.787302 271.263277 
L 177.742573 229.918077 
L 187.997444 218.352075 
L 189.93135 259.838875 
z
" clip-path="url(#pad013b2b3c)" style="fill: #0000f5; fill-opacity: 0.1"/>
    <path d="M 189.93135 259.838875 
L 187.997444 218.352075 
L 198.260208 206.77717 
L 200.083121 248.405777 
z
" clip-path="url(#pad013b2b3c)" style="fill: #0000f5; fill-opacity: 0.1"/>
    <path d="M 200.083121 248.405777 
L 198.260208 206.77717 
L 208.530874 195.193353 
L 210.242622 236.963972 
z
" clip-path="url(#pad013b2b3c)" style="fill: #0000f5; fill-opacity: 0.1"/>
    <path d="M 210.242622 236.963972 
L 208.530874 195.193353 
L 218.809451 183.600613 
L 220.409864 225.513449 
z
" clip-path="url(#pad013b2b3c)" style="fill: #0000f5; fill-opacity: 0.1"/>
    <path d="M 220.409864 225.513449 
L 218.809451 183.600613 
L 229.095948 171.998941 
L 230.584855 214.054199 
z
" clip-path="url(#pad013b2b3c)" style="fill: #0000f5; fill-opacity: 0.1"/>
    <path d="M 230.584855 214.054199 
L 229.095948 171.998941 
L 239.390375 160.388325 
L 240.767604 202.586213 
z
" clip-path="url(#pad013b2b3c)" style="fill: #0000f5; fill-opacity: 0.1"/>
    <path d="M 240.767604 202.586213 
L 239.390375 160.388325 
L 249.69274 148.768756 
L 250.95812 191.109479 
z
" clip-path="url(#pad013b2b3c)" style="fill: #0000f5; fill-opacity: 0.1"/>
    <path d="M 250.95812 191.109479 
L 249.69274 148.768756 
L 260.003053 137.140223 
L 261.156411 179.623988 
z
" clip-path="url(#pad013b2b3c)" style="fill: #0000f5; fill-opacity: 0.1"/>
    <path d="M 261.156411 179.623988 
L 260.003053 137.140223 
L 270.321323 125.502716 
L 271.362487 168.12973 
z
" clip-path="url(#pad013b2b3c)" style="fill: #0000f5; fill-opacity: 0.1"/>
    <path d="M 271.362487 168.12973 
L 270.321323 125.502716 
L 280.647559 113.856224 
L 281.576356 156.626695 
z
" clip-path="url(#pad013b2b3c)" style="fill: #0000f5; fill-opacity: 0.1"/>
    <path d="M 281.576356 156.626695 
L 280.647559 113.856224 
L 290.98177 102.200737 
L 291.798028 145.114872 
z
" clip-path="url(#pad013b2b3c)" style="fill: #0000f5; fill-opacity: 0.1"/>
    <path d="M 291.798028 145.114872 
L 290.98177 102.200737 
L 301.323966 90.536245 
L 302.027511 133.594253 
z
" clip-path="url(#pad013b2b3c)" style="fill: #0000f5; fill-opacity: 0.1"/>
    <path d="M 302.027511 133.594253 
L 301.323966 90.536245 
L 311.674155 78.862736 
L 312.264815 122.064825 
z
" clip-path="url(#pad013b2b3c)" style="fill: #0000f5; fill-opacity: 0.1"/>
    <path d="M 312.264815 122.064825 
L 311.674155 78.862736 
L 322.032348 67.180202 
L 322.509947 110.526581 
z
" clip-path="url(#pad013b2b3c)" style="fill: #0000f5; fill-opacity: 0.1"/>
    <path d="M 322.509947 110.526581 
L 322.032348 67.180202 
L 332.398554 55.48863 
L 332.762918 98.979509 
z
" clip-path="url(#pad013b2b3c)" style="fill: #0000f5; fill-opacity: 0.1"/>
    <path d="M 136.801835 276.093274 
L 134.260297 234.406838 
L 144.596258 222.732075 
L 147.025226 264.562777 
z
" clip-path="url(#pad013b2b3c)" style="fill: #0000f5; fill-opacity: 0.1"/>
    <path d="M 147.025226 264.562777 
L 144.596258 222.732075 
L 154.940251 211.04824 
L 157.256473 253.023418 
z
" clip-path="url(#pad013b2b3c)" style="fill: #0000f5; fill-opacity: 0.1"/>
    <path d="M 157.256473 253.023418 
L 154.940251 211.04824 
L 165.292284 199.355323 
L 167.495586 241.475189 
z
" clip-path="url(#pad013b2b3c)" style="fill: #0000f5; fill-opacity: 0.1"/>
    <path d="M 167.495586 241.475189 
L 165.292284 199.355323 
L 175.652367 187.653314 
L 177.742573 229.918077 
z
" clip-path="url(#pad013b2b3c)" style="fill: #0000f5; fill-opacity: 0.1"/>
    <path d="M 177.742573 229.918077 
L 175.652367 187.653314 
L 186.02051 175.942201 
L 187.997444 218.352075 
z
" clip-path="url(#pad013b2b3c)" style="fill: #0000f5; fill-opacity: 0.1"/>
    <path d="M 187.997444 218.352075 
L 186.02051 175.942201 
L 196.396721 164.221974 
L 198.260208 206.77717 
z
" clip-path="url(#pad013b2b3c)" style="fill: #0000f5; fill-opacity: 0.1"/>
    <path d="M 198.260208 206.77717 
L 196.396721 164.221974 
L 206.78101 152.492623 
L 208.530874 195.193353 
z
" clip-path="url(#pad013b2b3c)" style="fill: #0000f5; fill-opacity: 0.1"/>
    <path d="M 208.530874 195.193353 
L 206.78101 152.492623 
L 217.173388 140.754136 
L 218.809451 183.600613 
z
" clip-path="url(#pad013b2b3c)" style="fill: #0000f5; fill-opacity: 0.1"/>
    <path d="M 218.809451 183.600613 
L 217.173388 140.754136 
L 227.573862 129.006503 
L 229.095948 171.998941 
z
" clip-path="url(#pad013b2b3c)" style="fill: #0000f5; fill-opacity: 0.1"/>
    <path d="M 229.095948 171.998941 
L 227.573862 129.006503 
L 237.982443 117.249714 
L 239.390375 160.388325 
z
" clip-path="url(#pad013b2b3c)" style="fill: #0000f5; fill-opacity: 0.1"/>
    <path d="M 239.390375 160.388325 
L 237.982443 117.249714 
L 248.39914 105.483757 
L 249.69274 148.768756 
z
" clip-path="url(#pad013b2b3c)" style="fill: #0000f5; fill-opacity: 0.1"/>
    <path d="M 249.69274 148.768756 
L 248.39914 105.483757 
L 258.823963 93.708623 
L 260.003053 137.140223 
z
" clip-path="url(#pad013b2b3c)" style="fill: #0000f5; fill-opacity: 0.1"/>
    <path d="M 260.003053 137.140223 
L 258.823963 93.708623 
L 269.25692 81.924299 
L 270.321323 125.502716 
z
" clip-path="url(#pad013b2b3c)" style="fill: #0000f5; fill-opacity: 0.1"/>
    <path d="M 270.321323 125.502716 
L 269.25692 81.924299 
L 279.698023 70.130776 
L 280.647559 113.856224 
z
" clip-path="url(#pad013b2b3c)" style="fill: #0000f5; fill-opacity: 0.1"/>
    <path d="M 280.647559 113.856224 
L 279.698023 70.130776 
L 290.147279 58.328043 
L 290.98177 102.200737 
z
" clip-path="url(#pad013b2b3c)" style="fill: #0000f5; fill-opacity: 0.1"/>
    <path d="M 290.98177 102.200737 
L 290.147279 58.328043 
L 300.604699 46.516088 
L 301.323966 90.536245 
z
" clip-path="url(#pad013b2b3c)" style="fill: #0000f5; fill-opacity: 0.1"/>
    <path d="M 301.323966 90.536245 
L 300.604699 46.516088 
L 311.070293 34.694902 
L 311.674155 78.862736 
z
" clip-path="url(#pad013b2b3c)" style="fill: #0000f5; fill-opacity: 0.1"/>
    <path d="M 311.674155 78.862736 
L 311.070293 34.694902 
L 321.544069 22.864473 
L 322.032348 67.180202 
z
" clip-path="url(#pad013b2b3c)" style="fill: #0000f5; fill-opacity: 0.1"/>
    <path d="M 322.032348 67.180202 
L 321.544069 22.864473 
L 332.026038 11.02479 
L 332.398554 55.48863 
z
" clip-path="url(#pad013b2b3c)" style="fill: #0000f5; fill-opacity: 0.1"/>
    <path d="M 134.260297 234.406838 
L 131.661687 191.784294 
L 142.112725 179.961657 
L 144.596258 222.732075 
z
" clip-path="url(#pad013b2b3c)" style="fill: #0000f5; fill-opacity: 0.1"/>
    <path d="M 144.596258 222.732075 
L 142.112725 179.961657 
L 152.571975 168.12973 
L 154.940251 211.04824 
z
" clip-path="url(#pad013b2b3c)" style="fill: #0000f5; fill-opacity: 0.1"/>
    <path d="M 154.940251 211.04824 
L 152.571975 168.12973 
L 163.039446 156.288502 
L 165.292284 199.355323 
z
" clip-path="url(#pad013b2b3c)" style="fill: #0000f5; fill-opacity: 0.1"/>
    <path d="M 165.292284 199.355323 
L 163.039446 156.288502 
L 173.515149 144.437963 
L 175.652367 187.653314 
z
" clip-path="url(#pad013b2b3c)" style="fill: #0000f5; fill-opacity: 0.1"/>
    <path d="M 175.652367 187.653314 
L 173.515149 144.437963 
L 183.999093 132.578101 
L 186.02051 175.942201 
z
" clip-path="url(#pad013b2b3c)" style="fill: #0000f5; fill-opacity: 0.1"/>
    <path d="M 186.02051 175.942201 
L 183.999093 132.578101 
L 194.491288 120.708905 
L 196.396721 164.221974 
z
" clip-path="url(#pad013b2b3c)" style="fill: #0000f5; fill-opacity: 0.1"/>
    <path d="M 196.396721 164.221974 
L 194.491288 120.708905 
L 204.991743 108.830365 
L 206.78101 152.492623 
z
" clip-path="url(#pad013b2b3c)" style="fill: #0000f5; fill-opacity: 0.1"/>
    <path d="M 206.78101 152.492623 
L 204.991743 108.830365 
L 215.500469 96.94247 
L 217.173388 140.754136 
z
" clip-path="url(#pad013b2b3c)" style="fill: #0000f5; fill-opacity: 0.1"/>
    <path d="M 217.173388 140.754136 
L 215.500469 96.94247 
L 226.017475 85.045207 
L 227.573862 129.006503 
z
" clip-path="url(#pad013b2b3c)" style="fill: #0000f5; fill-opacity: 0.1"/>
    <path d="M 227.573862 129.006503 
L 226.017475 85.045207 
L 236.54277 73.138567 
L 237.982443 117.249714 
z
" clip-path="url(#pad013b2b3c)" style="fill: #0000f5; fill-opacity: 0.1"/>
    <path d="M 237.982443 117.249714 
L 236.54277 73.138567 
L 247.076365 61.222538 
L 248.39914 105.483757 
z
" clip-path="url(#pad013b2b3c)" style="fill: #0000f5; fill-opacity: 0.1"/>
    <path d="M 248.39914 105.483757 
L 247.076365 61.222538 
L 257.618269 49.297109 
L 258.823963 93.708623 
z
" clip-path="url(#pad013b2b3c)" style="fill: #0000f5; fill-opacity: 0.1"/>
    <path d="M 258.823963 93.708623 
L 257.618269 49.297109 
L 268.168493 37.362269 
L 269.25692 81.924299 
z
" clip-path="url(#pad013b2b3c)" style="fill: #0000f5; fill-opacity: 0.1"/>
    <path d="M 269.25692 81.924299 
L 268.168493 37.362269 
L 278.727046 25.418006 
L 279.698023 70.130776 
z
" clip-path="url(#pad013b2b3c)" style="fill: #0000f5; fill-opacity: 0.1"/>
    <path d="M 279.698023 70.130776 
L 278.727046 25.418006 
L 289.293938 13.46431 
L 290.147279 58.328043 
z
" clip-path="url(#pad013b2b3c)" style="fill: #0000f5; fill-opacity: 0.1"/>
    <path d="M 290.147279 58.328043 
L 289.293938 13.46431 
L 299.869179 1.50117 
L 300.604699 46.516088 
z
" clip-path="url(#pad013b2b3c)" style="fill: #0000f5; fill-opacity: 0.1"/>
    <path d="M 300.604699 46.516088 
L 299.869179 1.50117 
L 310.452778 -10.471426 
L 311.070293 34.694902 
z
" clip-path="url(#pad013b2b3c)" style="fill: #0000f5; fill-opacity: 0.1"/>
    <path d="M 311.070293 34.694902 
L 310.452778 -10.471426 
L 321.044747 -22.45349 
L 321.544069 22.864473 
z
" clip-path="url(#pad013b2b3c)" style="fill: #0000f5; fill-opacity: 0.1"/>
    <path d="M 321.544069 22.864473 
L 321.044747 -22.45349 
L 331.645093 -34.445031 
L 332.026038 11.02479 
z
" clip-path="url(#pad013b2b3c)" style="fill: #0000f5; fill-opacity: 0.1"/>
    <path d="M 131.661687 191.784294 
L 129.004059 148.193752 
L 139.572766 136.219496 
L 142.112725 179.961657 
z
" clip-path="url(#pad013b2b3c)" style="fill: #0000f5; fill-opacity: 0.1"/>
    <path d="M 142.112725 179.961657 
L 139.572766 136.219496 
L 150.14987 124.235725 
L 152.571975 168.12973 
z
" clip-path="url(#pad013b2b3c)" style="fill: #0000f5; fill-opacity: 0.1"/>
    <path d="M 152.571975 168.12973 
L 150.14987 124.235725 
L 160.735384 112.242426 
L 163.039446 156.288502 
z
" clip-path="url(#pad013b2b3c)" style="fill: #0000f5; fill-opacity: 0.1"/>
    <path d="M 163.039446 156.288502 
L 160.735384 112.242426 
L 171.329317 100.239589 
L 173.515149 144.437963 
z
" clip-path="url(#pad013b2b3c)" style="fill: #0000f5; fill-opacity: 0.1"/>
    <path d="M 173.515149 144.437963 
L 171.329317 100.239589 
L 181.931678 88.227203 
L 183.999093 132.578101 
z
" clip-path="url(#pad013b2b3c)" style="fill: #0000f5; fill-opacity: 0.1"/>
    <path d="M 183.999093 132.578101 
L 181.931678 88.227203 
L 192.542478 76.205255 
L 194.491288 120.708905 
z
" clip-path="url(#pad013b2b3c)" style="fill: #0000f5; fill-opacity: 0.1"/>
    <path d="M 194.491288 120.708905 
L 192.542478 76.205255 
L 203.161727 64.173734 
L 204.991743 108.830365 
z
" clip-path="url(#pad013b2b3c)" style="fill: #0000f5; fill-opacity: 0.1"/>
    <path d="M 204.991743 108.830365 
L 203.161727 64.173734 
L 213.789436 52.132629 
L 215.500469 96.94247 
z
" clip-path="url(#pad013b2b3c)" style="fill: #0000f5; fill-opacity: 0.1"/>
    <path d="M 215.500469 96.94247 
L 213.789436 52.132629 
L 224.425613 40.081929 
L 226.017475 85.045207 
z
" clip-path="url(#pad013b2b3c)" style="fill: #0000f5; fill-opacity: 0.1"/>
    <path d="M 226.017475 85.045207 
L 224.425613 40.081929 
L 235.07027 28.021621 
L 236.54277 73.138567 
z
" clip-path="url(#pad013b2b3c)" style="fill: #0000f5; fill-opacity: 0.1"/>
    <path d="M 236.54277 73.138567 
L 235.07027 28.021621 
L 245.723417 15.951695 
L 247.076365 61.222538 
z
" clip-path="url(#pad013b2b3c)" style="fill: #0000f5; fill-opacity: 0.1"/>
    <path d="M 247.076365 61.222538 
L 245.723417 15.951695 
L 256.385063 3.872139 
L 257.618269 49.297109 
z
" clip-path="url(#pad013b2b3c)" style="fill: #0000f5; fill-opacity: 0.1"/>
    <path d="M 257.618269 49.297109 
L 256.385063 3.872139 
L 267.055219 -8.217058 
L 268.168493 37.362269 
z
" clip-path="url(#pad013b2b3c)" style="fill: #0000f5; fill-opacity: 0.1"/>
    <path d="M 268.168493 37.362269 
L 267.055219 -8.217058 
L 277.733894 -20.315909 
L 278.727046 25.418006 
z
" clip-path="url(#pad013b2b3c)" style="fill: #0000f5; fill-opacity: 0.1"/>
    <path d="M 278.727046 25.418006 
L 277.733894 -20.315909 
L 288.421101 -32.424424 
L 289.293938 13.46431 
z
" clip-path="url(#pad013b2b3c)" style="fill: #0000f5; fill-opacity: 0.1"/>
    <path d="M 289.293938 13.46431 
L 288.421101 -32.424424 
L 299.116847 -44.542615 
L 299.869179 1.50117 
z
" clip-path="url(#pad013b2b3c)" style="fill: #0000f5; fill-opacity: 0.1"/>
    <path d="M 299.869179 1.50117 
L 299.116847 -44.542615 
L 309.821144 -56.670495 
L 310.452778 -10.471426 
z
" clip-path="url(#pad013b2b3c)" style="fill: #0000f5; fill-opacity: 0.1"/>
    <path d="M 310.452778 -10.471426 
L 309.821144 -56.670495 
L 320.534003 -68.808073 
L 321.044747 -22.45349 
z
" clip-path="url(#pad013b2b3c)" style="fill: #0000f5; fill-opacity: 0.1"/>
    <path d="M 321.044747 -22.45349 
L 320.534003 -68.808073 
L 331.255432 -80.955363 
L 331.645093 -34.445031 
z
" clip-path="url(#pad013b2b3c)" style="fill: #0000f5; fill-opacity: 0.1"/>
    <path d="M 129.004059 148.193752 
L 126.285382 103.601857 
L 136.974435 91.472097 
L 139.572766 136.219496 
z
" clip-path="url(#pad013b2b3c)" style="fill: #0000f5; fill-opacity: 0.1"/>
    <path d="M 139.572766 136.219496 
L 136.974435 91.472097 
L 147.672081 79.332586 
L 150.14987 124.235725 
z
" clip-path="url(#pad013b2b3c)" style="fill: #0000f5; fill-opacity: 0.1"/>
    <path d="M 150.14987 124.235725 
L 147.672081 79.332586 
L 158.378329 67.183313 
L 160.735384 112.242426 
z
" clip-path="url(#pad013b2b3c)" style="fill: #0000f5; fill-opacity: 0.1"/>
    <path d="M 160.735384 112.242426 
L 158.378329 67.183313 
L 169.09319 55.024267 
L 171.329317 100.239589 
z
" clip-path="url(#pad013b2b3c)" style="fill: #0000f5; fill-opacity: 0.1"/>
    <path d="M 171.329317 100.239589 
L 169.09319 55.024267 
L 179.816674 42.855435 
L 181.931678 88.227203 
z
" clip-path="url(#pad013b2b3c)" style="fill: #0000f5; fill-opacity: 0.1"/>
    <path d="M 181.931678 88.227203 
L 179.816674 42.855435 
L 190.548792 30.676806 
L 192.542478 76.205255 
z
" clip-path="url(#pad013b2b3c)" style="fill: #0000f5; fill-opacity: 0.1"/>
    <path d="M 192.542478 76.205255 
L 190.548792 30.676806 
L 201.289554 18.488368 
L 203.161727 64.173734 
z
" clip-path="url(#pad013b2b3c)" style="fill: #0000f5; fill-opacity: 0.1"/>
    <path d="M 203.161727 64.173734 
L 201.289554 18.488368 
L 212.03897 6.290108 
L 213.789436 52.132629 
z
" clip-path="url(#pad013b2b3c)" style="fill: #0000f5; fill-opacity: 0.1"/>
    <path d="M 213.789436 52.132629 
L 212.03897 6.290108 
L 222.797052 -5.917984 
L 224.425613 40.081929 
z
" clip-path="url(#pad013b2b3c)" style="fill: #0000f5; fill-opacity: 0.1"/>
    <path d="M 224.425613 40.081929 
L 222.797052 -5.917984 
L 233.563808 -18.13592 
L 235.07027 28.021621 
z
" clip-path="url(#pad013b2b3c)" style="fill: #0000f5; fill-opacity: 0.1"/>
    <path d="M 235.07027 28.021621 
L 233.563808 -18.13592 
L 244.339251 -30.363714 
L 245.723417 15.951695 
z
" clip-path="url(#pad013b2b3c)" style="fill: #0000f5; fill-opacity: 0.1"/>
    <path d="M 245.723417 15.951695 
L 244.339251 -30.363714 
L 255.12339 -42.601376 
L 256.385063 3.872139 
z
" clip-path="url(#pad013b2b3c)" style="fill: #0000f5; fill-opacity: 0.1"/>
    <path d="M 256.385063 3.872139 
L 255.12339 -42.601376 
L 265.916236 -54.848918 
L 267.055219 -8.217058 
z
" clip-path="url(#pad013b2b3c)" style="fill: #0000f5; fill-opacity: 0.1"/>
    <path d="M 267.055219 -8.217058 
L 265.916236 -54.848918 
L 276.717799 -67.106353 
L 277.733894 -20.315909 
z
" clip-path="url(#pad013b2b3c)" style="fill: #0000f5; fill-opacity: 0.1"/>
    <path d="M 277.733894 -20.315909 
L 276.717799 -67.106353 
L 287.528091 -79.373693 
L 288.421101 -32.424424 
z
" clip-path="url(#pad013b2b3c)" style="fill: #0000f5; fill-opacity: 0.1"/>
    <path d="M 288.421101 -32.424424 
L 287.528091 -79.373693 
L 298.347121 -91.650949 
L 299.116847 -44.542615 
z
" clip-path="url(#pad013b2b3c)" style="fill: #0000f5; fill-opacity: 0.1"/>
    <path d="M 299.116847 -44.542615 
L 298.347121 -91.650949 
L 309.174901 -103.938133 
L 309.821144 -56.670495 
z
" clip-path="url(#pad013b2b3c)" style="fill: #0000f5; fill-opacity: 0.1"/>
    <path d="M 309.821144 -56.670495 
L 309.174901 -103.938133 
L 320.01144 -116.235258 
L 320.534003 -68.808073 
z
" clip-path="url(#pad013b2b3c)" style="fill: #0000f5; fill-opacity: 0.1"/>
    <path d="M 320.534003 -68.808073 
L 320.01144 -116.235258 
L 330.85675 -128.542336 
L 331.255432 -80.955363 
z
" clip-path="url(#pad013b2b3c)" style="fill: #0000f5; fill-opacity: 0.1"/>
    <path d="M 126.285382 103.601857 
L 123.503525 57.973704 
L 134.315699 45.684402 
L 136.974435 91.472097 
z
" clip-path="url(#pad013b2b3c)" style="fill: #0000f5; fill-opacity: 0.1"/>
    <path d="M 136.974435 91.472097 
L 134.315699 45.684402 
L 145.136664 33.385107 
L 147.672081 79.332586 
z
" clip-path="url(#pad013b2b3c)" style="fill: #0000f5; fill-opacity: 0.1"/>
    <path d="M 147.672081 79.332586 
L 145.136664 33.385107 
L 155.966433 21.075806 
L 158.378329 67.183313 
z
" clip-path="url(#pad013b2b3c)" style="fill: #0000f5; fill-opacity: 0.1"/>
    <path d="M 158.378329 67.183313 
L 155.966433 21.075806 
L 166.805015 8.756488 
L 169.09319 55.024267 
z
" clip-path="url(#pad013b2b3c)" style="fill: #0000f5; fill-opacity: 0.1"/>
    <path d="M 169.09319 55.024267 
L 166.805015 8.756488 
L 177.652421 -3.57286 
L 179.816674 42.855435 
z
" clip-path="url(#pad013b2b3c)" style="fill: #0000f5; fill-opacity: 0.1"/>
    <path d="M 179.816674 42.855435 
L 177.652421 -3.57286 
L 188.508662 -15.912251 
L 190.548792 30.676806 
z
" clip-path="url(#pad013b2b3c)" style="fill: #0000f5; fill-opacity: 0.1"/>
    <path d="M 190.548792 30.676806 
L 188.508662 -15.912251 
L 199.37375 -28.261695 
L 201.289554 18.488368 
z
" clip-path="url(#pad013b2b3c)" style="fill: #0000f5; fill-opacity: 0.1"/>
    <path d="M 201.289554 18.488368 
L 199.37375 -28.261695 
L 210.247694 -40.621207 
L 212.03897 6.290108 
z
" clip-path="url(#pad013b2b3c)" style="fill: #0000f5; fill-opacity: 0.1"/>
    <path d="M 212.03897 6.290108 
L 210.247694 -40.621207 
L 221.130505 -52.990797 
L 222.797052 -5.917984 
z
" clip-path="url(#pad013b2b3c)" style="fill: #0000f5; fill-opacity: 0.1"/>
    <path d="M 222.797052 -5.917984 
L 221.130505 -52.990797 
L 232.022195 -65.370479 
L 233.563808 -18.13592 
z
" clip-path="url(#pad013b2b3c)" style="fill: #0000f5; fill-opacity: 0.1"/>
    <path d="M 233.563808 -18.13592 
L 232.022195 -65.370479 
L 242.922774 -77.760265 
L 244.339251 -30.363714 
z
" clip-path="url(#pad013b2b3c)" style="fill: #0000f5; fill-opacity: 0.1"/>
    <path d="M 244.339251 -30.363714 
L 242.922774 -77.760265 
L 253.832254 -90.160166 
L 255.12339 -42.601376 
z
" clip-path="url(#pad013b2b3c)" style="fill: #0000f5; fill-opacity: 0.1"/>
    <path d="M 255.12339 -42.601376 
L 253.832254 -90.160166 
L 264.750644 -102.570196 
L 265.916236 -54.848918 
z
" clip-path="url(#pad013b2b3c)" style="fill: #0000f5; fill-opacity: 0.1"/>
    <path d="M 265.916236 -54.848918 
L 264.750644 -102.570196 
L 275.677957 -114.990367 
L 276.717799 -67.106353 
z
" clip-path="url(#pad013b2b3c)" style="fill: #0000f5; fill-opacity: 0.1"/>
    <path d="M 276.717799 -67.106353 
L 275.677957 -114.990367 
L 286.614202 -127.420692 
L 287.528091 -79.373693 
z
" clip-path="url(#pad013b2b3c)" style="fill: #0000f5; fill-opacity: 0.1"/>
    <path d="M 287.528091 -79.373693 
L 286.614202 -127.420692 
L 297.559391 -139.861182 
L 298.347121 -91.650949 
z
" clip-path="url(#pad013b2b3c)" style="fill: #0000f5; fill-opacity: 0.1"/>
    <path d="M 298.347121 -91.650949 
L 297.559391 -139.861182 
L 308.513535 -152.31185 
L 309.174901 -103.938133 
z
" clip-path="url(#pad013b2b3c)" style="fill: #0000f5; fill-opacity: 0.1"/>
    <path d="M 309.174901 -103.938133 
L 308.513535 -152.31185 
L 319.476645 -164.772709 
L 320.01144 -116.235258 
z
" clip-path="url(#pad013b2b3c)" style="fill: #0000f5; fill-opacity: 0.1"/>
    <path d="M 320.01144 -116.235258 
L 319.476645 -164.772709 
L 330.448732 -177.243771 
L 330.85675 -128.542336 
z
" clip-path="url(#pad013b2b3c)" style="fill: #0000f5; fill-opacity: 0.1"/>
    <path d="M 123.503525 57.973704 
L 120.656262 11.272747 
L 131.594425 -1.18029 
L 134.315699 45.684402 
z
" clip-path="url(#pad013b2b3c)" style="fill: #0000f5; fill-opacity: 0.1"/>
    <path d="M 134.315699 45.684402 
L 131.594425 -1.18029 
L 142.541586 -13.643573 
L 145.136664 33.385107 
z
" clip-path="url(#pad013b2b3c)" style="fill: #0000f5; fill-opacity: 0.1"/>
    <path d="M 145.136664 33.385107 
L 142.541586 -13.643573 
L 153.497758 -26.117114 
L 155.966433 21.075806 
z
" clip-path="url(#pad013b2b3c)" style="fill: #0000f5; fill-opacity: 0.1"/>
    <path d="M 155.966433 21.075806 
L 153.497758 -26.117114 
L 164.462951 -38.600926 
L 166.805015 8.756488 
z
" clip-path="url(#pad013b2b3c)" style="fill: #0000f5; fill-opacity: 0.1"/>
    <path d="M 166.805015 8.756488 
L 164.462951 -38.600926 
L 175.437177 -51.095021 
L 177.652421 -3.57286 
z
" clip-path="url(#pad013b2b3c)" style="fill: #0000f5; fill-opacity: 0.1"/>
    <path d="M 177.652421 -3.57286 
L 175.437177 -51.095021 
L 186.420447 -63.599413 
L 188.508662 -15.912251 
z
" clip-path="url(#pad013b2b3c)" style="fill: #0000f5; fill-opacity: 0.1"/>
    <path d="M 188.508662 -15.912251 
L 186.420447 -63.599413 
L 197.412771 -76.114113 
L 199.37375 -28.261695 
z
" clip-path="url(#pad013b2b3c)" style="fill: #0000f5; fill-opacity: 0.1"/>
    <path d="M 199.37375 -28.261695 
L 197.412771 -76.114113 
L 208.414162 -88.639135 
L 210.247694 -40.621207 
z
" clip-path="url(#pad013b2b3c)" style="fill: #0000f5; fill-opacity: 0.1"/>
    <path d="M 210.247694 -40.621207 
L 208.414162 -88.639135 
L 219.42463 -101.174492 
L 221.130505 -52.990797 
z
" clip-path="url(#pad013b2b3c)" style="fill: #0000f5; fill-opacity: 0.1"/>
    <path d="M 221.130505 -52.990797 
L 219.42463 -101.174492 
L 230.444186 -113.720196 
L 232.022195 -65.370479 
z
" clip-path="url(#pad013b2b3c)" style="fill: #0000f5; fill-opacity: 0.1"/>
    <path d="M 232.022195 -65.370479 
L 230.444186 -113.720196 
L 241.472843 -126.27626 
L 242.922774 -77.760265 
z
" clip-path="url(#pad013b2b3c)" style="fill: #0000f5; fill-opacity: 0.1"/>
    <path d="M 242.922774 -77.760265 
L 241.472843 -126.27626 
L 252.51061 -138.842697 
L 253.832254 -90.160166 
z
" clip-path="url(#pad013b2b3c)" style="fill: #0000f5; fill-opacity: 0.1"/>
    <path d="M 253.832254 -90.160166 
L 252.51061 -138.842697 
L 263.5575 -151.41952 
L 264.750644 -102.570196 
z
" clip-path="url(#pad013b2b3c)" style="fill: #0000f5; fill-opacity: 0.1"/>
    <path d="M 264.750644 -102.570196 
L 263.5575 -151.41952 
L 274.613524 -164.006742 
L 275.677957 -114.990367 
z
" clip-path="url(#pad013b2b3c)" style="fill: #0000f5; fill-opacity: 0.1"/>
    <path d="M 275.677957 -114.990367 
L 274.613524 -164.006742 
L 285.678692 -176.604375 
L 286.614202 -127.420692 
z
" clip-path="url(#pad013b2b3c)" style="fill: #0000f5; fill-opacity: 0.1"/>
    <path d="M 286.614202 -127.420692 
L 285.678692 -176.604375 
L 296.753017 -189.212432 
L 297.559391 -139.861182 
z
" clip-path="url(#pad013b2b3c)" style="fill: #0000f5; fill-opacity: 0.1"/>
    <path d="M 297.559391 -139.861182 
L 296.753017 -189.212432 
L 307.83651 -201.830928 
L 308.513535 -152.31185 
z
" clip-path="url(#pad013b2b3c)" style="fill: #0000f5; fill-opacity: 0.1"/>
    <path d="M 308.513535 -152.31185 
L 307.83651 -201.830928 
L 318.929182 -214.459873 
L 319.476645 -164.772709 
z
" clip-path="url(#pad013b2b3c)" style="fill: #0000f5; fill-opacity: 0.1"/>
    <path d="M 319.476645 -164.772709 
L 318.929182 -214.459873 
L 330.031045 -227.099282 
L 330.448732 -177.243771 
z
" clip-path="url(#pad013b2b3c)" style="fill: #0000f5; fill-opacity: 0.1"/>
    <path d="M 120.656262 11.272747 
L 117.741258 -36.539301 
L 128.80838 -49.160433 
L 131.594425 -1.18029 
z
" clip-path="url(#pad013b2b3c)" style="fill: #0000f5; fill-opacity: 0.1"/>
    <path d="M 131.594425 -1.18029 
L 128.80838 -49.160433 
L 139.884716 -61.792072 
L 142.541586 -13.643573 
z
" clip-path="url(#pad013b2b3c)" style="fill: #0000f5; fill-opacity: 0.1"/>
    <path d="M 142.541586 -13.643573 
L 139.884716 -61.792072 
L 150.970276 -74.434232 
L 153.497758 -26.117114 
z
" clip-path="url(#pad013b2b3c)" style="fill: #0000f5; fill-opacity: 0.1"/>
    <path d="M 153.497758 -26.117114 
L 150.970276 -74.434232 
L 162.065074 -87.086926 
L 164.462951 -38.600926 
z
" clip-path="url(#pad013b2b3c)" style="fill: #0000f5; fill-opacity: 0.1"/>
    <path d="M 164.462951 -38.600926 
L 162.065074 -87.086926 
L 173.169119 -99.750166 
L 175.437177 -51.095021 
z
" clip-path="url(#pad013b2b3c)" style="fill: #0000f5; fill-opacity: 0.1"/>
    <path d="M 175.437177 -51.095021 
L 173.169119 -99.750166 
L 184.282425 -112.423966 
L 186.420447 -63.599413 
z
" clip-path="url(#pad013b2b3c)" style="fill: #0000f5; fill-opacity: 0.1"/>
    <path d="M 186.420447 -63.599413 
L 184.282425 -112.423966 
L 195.405002 -125.10834 
L 197.412771 -76.114113 
z
" clip-path="url(#pad013b2b3c)" style="fill: #0000f5; fill-opacity: 0.1"/>
    <path d="M 197.412771 -76.114113 
L 195.405002 -125.10834 
L 206.536862 -137.803301 
L 208.414162 -88.639135 
z
" clip-path="url(#pad013b2b3c)" style="fill: #0000f5; fill-opacity: 0.1"/>
    <path d="M 208.414162 -88.639135 
L 206.536862 -137.803301 
L 217.678016 -150.508861 
L 219.42463 -101.174492 
z
" clip-path="url(#pad013b2b3c)" style="fill: #0000f5; fill-opacity: 0.1"/>
    <path d="M 219.42463 -101.174492 
L 217.678016 -150.508861 
L 228.828477 -163.225034 
L 230.444186 -113.720196 
z
" clip-path="url(#pad013b2b3c)" style="fill: #0000f5; fill-opacity: 0.1"/>
    <path d="M 230.444186 -113.720196 
L 228.828477 -163.225034 
L 239.988256 -175.951834 
L 241.472843 -126.27626 
z
" clip-path="url(#pad013b2b3c)" style="fill: #0000f5; fill-opacity: 0.1"/>
    <path d="M 241.472843 -126.27626 
L 239.988256 -175.951834 
L 251.157365 -188.689273 
L 252.51061 -138.842697 
z
" clip-path="url(#pad013b2b3c)" style="fill: #0000f5; fill-opacity: 0.1"/>
    <path d="M 252.51061 -138.842697 
L 251.157365 -188.689273 
L 262.335815 -201.437365 
L 263.5575 -151.41952 
z
" clip-path="url(#pad013b2b3c)" style="fill: #0000f5; fill-opacity: 0.1"/>
    <path d="M 263.5575 -151.41952 
L 262.335815 -201.437365 
L 273.523618 -214.196124 
L 274.613524 -164.006742 
z
" clip-path="url(#pad013b2b3c)" style="fill: #0000f5; fill-opacity: 0.1"/>
    <path d="M 274.613524 -164.006742 
L 273.523618 -214.196124 
L 284.720786 -226.965562 
L 285.678692 -176.604375 
z
" clip-path="url(#pad013b2b3c)" style="fill: #0000f5; fill-opacity: 0.1"/>
    <path d="M 285.678692 -176.604375 
L 284.720786 -226.965562 
L 295.92733 -239.745694 
L 296.753017 -189.212432 
z
" clip-path="url(#pad013b2b3c)" style="fill: #0000f5; fill-opacity: 0.1"/>
    <path d="M 296.753017 -189.212432 
L 295.92733 -239.745694 
L 307.143263 -252.536533 
L 307.83651 -201.830928 
z
" clip-path="url(#pad013b2b3c)" style="fill: #0000f5; fill-opacity: 0.1"/>
    <path d="M 307.83651 -201.830928 
L 307.143263 -252.536533 
L 318.368596 -265.338091 
L 318.929182 -214.459873 
z
" clip-path="url(#pad013b2b3c)" style="fill: #0000f5; fill-opacity: 0.1"/>
    <path d="M 318.929182 -214.459873 
L 318.368596 -265.338091 
L 329.603341 -278.150383 
L 330.031045 -227.099282 
z
" clip-path="url(#pad013b2b3c)" style="fill: #0000f5; fill-opacity: 0.1"/>
   </g>
   <g id="legend_1">
    <g id="patch_6">
     <path d="M 357.840076 67.305115 
L 396.2 67.305115 
Q 398.2 67.305115 398.2 65.305115 
L 398.2 7 
Q 398.2 5 396.2 5 
L 357.840076 5 
Q 355.840076 5 355.840076 7 
L 355.840076 65.305115 
Q 355.840076 67.305115 357.840076 67.305115 
z
" style="fill: #ffffff; opacity: 0.8; stroke: #cccccc; stroke-linejoin: miter"/>
    </g>
    <g id="line2d_25">
     <path d="M 359.840076 12.5 
L 369.840076 12.5 
L 379.840076 12.5 
" style="fill: none; stroke: #ff0000; stroke-width: 1.5; stroke-linecap: square"/>
    </g>
    <g id="text_21">
     <!-- $\vec{a}$ -->
     <g transform="translate(387.840076 16)scale(0.1 -0.1)">
      <defs>
       <path id="CMMI12-7e" d="M 3424 3835 
C 3347 3764 3110 3540 3110 3451 
C 3110 3387 3168 3329 3232 3329 
C 3290 3329 3315 3368 3360 3432 
C 3514 3624 3686 3745 3834 3828 
C 3898 3867 3942 3886 3942 3956 
C 3942 4014 3891 4046 3853 4078 
C 3674 4200 3629 4372 3610 4449 
C 3590 4500 3571 4577 3482 4577 
C 3443 4577 3366 4552 3366 4456 
C 3366 4398 3405 4244 3526 4072 
L 1376 4072 
C 1267 4072 1158 4072 1158 3950 
C 1158 3835 1274 3835 1376 3835 
L 3424 3835 
z
" transform="scale(0.015625)"/>
       <path id="CMMI12-61" d="M 1926 760 
C 1894 651 1894 639 1805 517 
C 1664 338 1382 64 1082 64 
C 819 64 672 300 672 677 
C 672 1028 870 1743 992 2012 
C 1210 2459 1510 2689 1760 2689 
C 2182 2689 2266 2165 2266 2114 
C 2266 2108 2246 2024 2240 2012 
L 1926 760 
z
M 2336 2395 
C 2266 2561 2093 2816 1760 2816 
C 1037 2816 256 1884 256 939 
C 256 307 627 -64 1062 -64 
C 1414 -64 1715 211 1894 422 
C 1958 45 2259 -64 2451 -64 
C 2643 -64 2797 51 2912 281 
C 3014 498 3104 888 3104 913 
C 3104 945 3078 971 3040 971 
C 2982 971 2976 939 2950 843 
C 2854 466 2733 64 2470 64 
C 2285 64 2272 230 2272 358 
C 2272 505 2291 575 2349 824 
C 2394 984 2426 1124 2477 1309 
C 2714 2267 2771 2497 2771 2535 
C 2771 2625 2701 2695 2605 2695 
C 2400 2695 2349 2472 2336 2395 
z
" transform="scale(0.015625)"/>
      </defs>
      <use xlink:href="#CMMI12-7e" transform="scale(0.996264)"/>
      <use xlink:href="#CMMI12-61" transform="translate(6.445738 0)scale(0.996264)"/>
     </g>
    </g>
    <g id="line2d_26">
     <path d="M 359.840076 27.24679 
L 369.840076 27.24679 
L 379.840076 27.24679 
" style="fill: none; stroke: #00ff00; stroke-width: 1.5; stroke-linecap: square"/>
    </g>
    <g id="text_22">
     <!-- $\vec{b}$ -->
     <g transform="translate(387.840076 30.74679)scale(0.1 -0.1)">
      <defs>
       <path id="CMMI12-62" d="M 1478 4257 
C 1485 4283 1498 4321 1498 4352 
C 1498 4416 1434 4416 1421 4416 
C 1414 4416 1184 4393 1069 4377 
C 960 4377 864 4358 749 4358 
C 595 4345 550 4339 550 4224 
C 550 4160 614 4160 678 4160 
C 1005 4160 1005 4103 1005 4040 
C 1005 3996 954 3811 928 3696 
L 774 3085 
C 710 2831 346 1387 320 1272 
C 288 1114 288 1005 288 922 
C 288 274 653 -64 1069 -64 
C 1811 -64 2579 888 2579 1814 
C 2579 2401 2246 2816 1766 2816 
C 1434 2816 1133 2542 1011 2414 
L 1478 4257 
z
M 1075 64 
C 870 64 646 217 646 715 
C 646 926 666 1047 781 1494 
C 800 1577 902 1986 928 2069 
C 941 2120 1318 2689 1754 2689 
C 2035 2689 2163 2408 2163 2076 
C 2163 1769 1984 1047 1824 715 
C 1664 370 1370 64 1075 64 
z
" transform="scale(0.015625)"/>
      </defs>
      <use xlink:href="#CMMI12-7e" transform="translate(0 26.29016)scale(0.996264)"/>
      <use xlink:href="#CMMI12-62" transform="translate(11.311737 0)scale(0.996264)"/>
     </g>
    </g>
    <g id="line2d_27">
     <path d="M 359.840076 41.183968 
L 369.840076 41.183968 
L 379.840076 41.183968 
" style="fill: none; stroke: #0016ff; stroke-width: 1.5; stroke-linecap: square"/>
    </g>
    <g id="text_23">
     <!-- $\vec{c}$ -->
     <g transform="translate(387.840076 44.683968)scale(0.1 -0.1)">
      <defs>
       <path id="CMMI12-63" d="M 2502 2431 
C 2381 2431 2323 2431 2234 2355 
C 2195 2323 2125 2227 2125 2125 
C 2125 1997 2221 1920 2342 1920 
C 2496 1920 2669 2044 2669 2292 
C 2669 2588 2374 2816 1933 2816 
C 1094 2816 256 1903 256 996 
C 256 441 602 -64 1254 -64 
C 2125 -64 2675 622 2675 706 
C 2675 744 2637 776 2611 776 
C 2592 776 2586 770 2528 713 
C 2118 162 1510 64 1267 64 
C 826 64 685 446 685 764 
C 685 988 794 1605 1024 2039 
C 1190 2338 1536 2682 1939 2682 
C 2022 2682 2374 2682 2502 2431 
z
" transform="scale(0.015625)"/>
      </defs>
      <use xlink:href="#CMMI12-7e" transform="scale(0.996264)"/>
      <use xlink:href="#CMMI12-63" transform="translate(5.638615 0)scale(0.996264)"/>
     </g>
    </g>
    <g id="line2d_28">
     <path d="M 359.840076 57.867937 
L 369.840076 57.867937 
L 379.840076 57.867937 
" style="fill: none; stroke: #f400ff; stroke-width: 1.5; stroke-linecap: square"/>
    </g>
    <g id="text_24">
     <!-- $\vec{f}$ -->
     <g transform="translate(387.840076 61.367937)scale(0.1 -0.1)">
      <defs>
       <path id="CMMI12-66" d="M 2854 2566 
C 2982 2566 3034 2566 3034 2688 
C 3034 2752 2982 2752 2867 2752 
L 2349 2752 
C 2470 3429 2560 3897 2611 4107 
C 2650 4265 2784 4416 2950 4416 
C 3085 4416 3219 4358 3283 4298 
C 3034 4272 2957 4082 2957 3969 
C 2957 3837 3053 3759 3174 3759 
C 3302 3759 3494 3870 3494 4119 
C 3494 4393 3226 4544 2944 4544 
C 2669 4544 2400 4334 2272 4078 
C 2157 3848 2093 3611 1946 2752 
L 1517 2752 
C 1395 2752 1331 2752 1331 2637 
C 1331 2566 1370 2566 1498 2566 
L 1907 2566 
C 1792 1976 1530 542 1382 -137 
C 1274 -689 1178 -1152 858 -1152 
C 838 -1152 653 -1152 538 -1031 
C 864 -1005 864 -726 864 -720 
C 864 -593 768 -517 646 -517 
C 518 -517 326 -625 326 -867 
C 326 -1140 608 -1280 858 -1280 
C 1510 -1280 1779 -118 1850 199 
C 1965 688 2278 2376 2310 2566 
L 2854 2566 
z
" transform="scale(0.015625)"/>
      </defs>
      <use xlink:href="#CMMI12-7e" transform="translate(13.568792 26.29016)scale(0.996264)"/>
      <use xlink:href="#CMMI12-66" transform="scale(0.996264)"/>
     </g>
    </g>
   </g>
  </g>
 </g>
 <defs>
  <clipPath id="pad013b2b3c">
   <rect x="57.6" y="0" width="345.6" height="345.6"/>
  </clipPath>
 </defs>
</svg>
