<?xml version="1.0" encoding="utf-8" standalone="no"?>
<!DOCTYPE svg PUBLIC "-//W3C//DTD SVG 1.1//EN"
  "http://www.w3.org/Graphics/SVG/1.1/DTD/svg11.dtd">
<svg xmlns:xlink="http://www.w3.org/1999/xlink" width="460.8pt" height="345.6pt" viewBox="0 0 460.8 345.6" xmlns="http://www.w3.org/2000/svg" version="1.1">
 <metadata>
  <rdf:RDF xmlns:dc="http://purl.org/dc/elements/1.1/" xmlns:cc="http://creativecommons.org/ns#" xmlns:rdf="http://www.w3.org/1999/02/22-rdf-syntax-ns#">
   <cc:Work>
    <dc:type rdf:resource="http://purl.org/dc/dcmitype/StillImage"/>
    <dc:date>2022-07-12T15:41:35.955749</dc:date>
    <dc:format>image/svg+xml</dc:format>
    <dc:creator>
     <cc:Agent>
      <dc:title>Matplotlib v3.5.1, https://matplotlib.org/</dc:title>
     </cc:Agent>
    </dc:creator>
   </cc:Work>
  </rdf:RDF>
 </metadata>
 <defs>
  <style type="text/css">*{stroke-linejoin: round; stroke-linecap: butt}</style>
 </defs>
 <g id="figure_1">
  <g id="patch_1">
   <path d="M 0 345.6 
L 460.8 345.6 
L 460.8 0 
L 0 0 
z
" style="fill: #ffffff"/>
  </g>
  <g id="patch_2">
   <path d="M 57.6 345.6 
L 403.2 345.6 
L 403.2 0 
L 57.6 0 
z
" style="fill: #ffffff"/>
  </g>
  <g id="pane3d_1">
   <g id="patch_3">
    <path d="M 267.763642 245.205514 
L 391.253508 253.137134 
L 391.253508 83.122326 
L 267.763642 91.053946 
" style="fill: #f2f2f2; opacity: 0.5; stroke: #f2f2f2; stroke-linejoin: miter"/>
   </g>
  </g>
  <g id="pane3d_2">
   <g id="patch_4">
    <path d="M 267.763642 245.205514 
L 84.692152 249.977524 
L 84.692152 86.281936 
L 267.763642 91.053946 
" style="fill: #e6e6e6; opacity: 0.5; stroke: #e6e6e6; stroke-linejoin: miter"/>
   </g>
  </g>
  <g id="pane3d_3">
   <g id="patch_5">
    <path d="M 267.763642 245.205514 
L 84.692152 249.977524 
L 196.534555 258.979044 
L 391.253508 253.137134 
" style="fill: #ececec; opacity: 0.5; stroke: #ececec; stroke-linejoin: miter"/>
   </g>
  </g>
  <g id="axis3d_1">
   <g id="line2d_1">
    <path d="M 391.253508 253.137134 
L 196.534555 258.979044 
" style="fill: none; stroke: #000000; stroke-width: 0.8; stroke-linecap: square"/>
   </g>
   <g id="text_1">
    <!-- x -->
    <g transform="translate(311.985273 286.025873)scale(0.16 -0.16)">
     <defs>
      <path id="CMSS17-78" d="M 1587 1414 
L 2656 2739 
L 2099 2739 
L 1363 1777 
L 602 2739 
L 32 2739 
L 1139 1414 
L 0 0 
L 563 0 
L 1363 1121 
L 2195 0 
L 2758 0 
L 1587 1414 
z
" transform="scale(0.015625)"/>
     </defs>
     <use xlink:href="#CMSS17-78" transform="scale(0.996264)"/>
    </g>
   </g>
   <g id="Line3DCollection_1">
    <path d="M 387.604858 253.2466 
L 264.311661 245.295494 
L 264.311661 90.963965 
" style="fill: none; stroke: #b0b0b0; stroke-width: 0.8"/>
    <path d="M 352.093719 254.311996 
L 230.757908 246.170119 
L 230.757908 90.08934 
" style="fill: none; stroke: #b0b0b0; stroke-width: 0.8"/>
    <path d="M 315.682335 255.404402 
L 196.434814 247.064798 
L 196.434814 89.194662 
" style="fill: none; stroke: #b0b0b0; stroke-width: 0.8"/>
    <path d="M 278.336034 256.524856 
L 161.315612 247.980228 
L 161.315612 88.279232 
" style="fill: none; stroke: #b0b0b0; stroke-width: 0.8"/>
    <path d="M 240.01834 257.674454 
L 125.37228 248.91714 
L 125.37228 87.342319 
" style="fill: none; stroke: #b0b0b0; stroke-width: 0.8"/>
    <path d="M 200.690853 258.854347 
L 88.575464 249.8763 
L 88.575464 86.383159 
" style="fill: none; stroke: #b0b0b0; stroke-width: 0.8"/>
   </g>
   <g id="xtick_1">
    <g id="line2d_2">
     <path d="M 386.517776 253.176495 
L 389.784407 253.387158 
" style="fill: none; stroke: #000000; stroke-width: 0.8; stroke-linecap: square"/>
    </g>
    <g id="text_2">
     <!-- $\mathdefault{0}$ -->
     <g transform="translate(393.86048 271.677258)scale(0.1 -0.1)">
      <defs>
       <path id="CMR17-30" d="M 2688 2025 
C 2688 2416 2682 3080 2413 3591 
C 2176 4039 1798 4198 1466 4198 
C 1158 4198 768 4058 525 3597 
C 269 3118 243 2524 243 2025 
C 243 1661 250 1106 448 619 
C 723 -39 1216 -128 1466 -128 
C 1760 -128 2208 -7 2470 600 
C 2662 1042 2688 1559 2688 2025 
z
M 1466 -26 
C 1056 -26 813 325 723 812 
C 653 1188 653 1738 653 2096 
C 653 2588 653 2997 736 3387 
C 858 3929 1216 4096 1466 4096 
C 1728 4096 2067 3923 2189 3400 
C 2272 3036 2278 2607 2278 2096 
C 2278 1680 2278 1169 2202 792 
C 2067 95 1690 -26 1466 -26 
z
" transform="scale(0.015625)"/>
      </defs>
      <use xlink:href="#CMR17-30" transform="scale(0.996264)"/>
     </g>
    </g>
   </g>
   <g id="xtick_2">
    <g id="line2d_3">
     <path d="M 351.022656 254.240126 
L 354.241218 254.456098 
" style="fill: none; stroke: #000000; stroke-width: 0.8; stroke-linecap: square"/>
    </g>
    <g id="text_3">
     <!-- $\mathdefault{1}$ -->
     <g transform="translate(358.221265 272.894866)scale(0.1 -0.1)">
      <defs>
       <path id="CMR17-31" d="M 1702 4058 
C 1702 4192 1696 4192 1606 4192 
C 1357 3916 979 3827 621 3827 
C 602 3827 570 3827 563 3808 
C 557 3795 557 3782 557 3648 
C 755 3648 1088 3686 1344 3839 
L 1344 461 
C 1344 236 1331 160 781 160 
L 589 160 
L 589 0 
C 896 0 1216 0 1523 0 
C 1830 0 2150 0 2458 0 
L 2458 160 
L 2266 160 
C 1715 160 1702 230 1702 458 
L 1702 4058 
z
" transform="scale(0.015625)"/>
      </defs>
      <use xlink:href="#CMR17-31" transform="scale(0.996264)"/>
     </g>
    </g>
   </g>
   <g id="xtick_3">
    <g id="line2d_4">
     <path d="M 314.628456 255.330698 
L 317.795446 255.552182 
" style="fill: none; stroke: #000000; stroke-width: 0.8; stroke-linecap: square"/>
    </g>
    <g id="text_4">
     <!-- $\mathdefault{2}$ -->
     <g transform="translate(321.672419 274.143552)scale(0.1 -0.1)">
      <defs>
       <path id="CMR17-32" d="M 2669 989 
L 2554 989 
C 2490 536 2438 459 2413 420 
C 2381 369 1920 369 1830 369 
L 602 369 
C 832 619 1280 1072 1824 1597 
C 2214 1967 2669 2402 2669 3035 
C 2669 3790 2067 4224 1395 4224 
C 691 4224 262 3604 262 3030 
C 262 2780 448 2748 525 2748 
C 589 2748 781 2787 781 3010 
C 781 3207 614 3264 525 3264 
C 486 3264 448 3258 422 3245 
C 544 3790 915 4058 1306 4058 
C 1862 4058 2227 3617 2227 3035 
C 2227 2479 1901 2000 1536 1584 
L 262 146 
L 262 0 
L 2515 0 
L 2669 989 
z
" transform="scale(0.015625)"/>
      </defs>
      <use xlink:href="#CMR17-32" transform="scale(0.996264)"/>
     </g>
    </g>
   </g>
   <g id="xtick_4">
    <g id="line2d_5">
     <path d="M 277.300581 256.449249 
L 280.41227 256.676459 
" style="fill: none; stroke: #000000; stroke-width: 0.8; stroke-linecap: square"/>
    </g>
    <g id="text_5">
     <!-- $\mathdefault{3}$ -->
     <g transform="translate(284.178666 275.424521)scale(0.1 -0.1)">
      <defs>
       <path id="CMR17-33" d="M 1414 2157 
C 1984 2157 2234 1662 2234 1090 
C 2234 320 1824 25 1453 25 
C 1114 25 563 194 390 693 
C 422 680 454 680 486 680 
C 640 680 755 782 755 948 
C 755 1133 614 1216 486 1216 
C 378 1216 211 1165 211 926 
C 211 335 787 -128 1466 -128 
C 2176 -128 2720 430 2720 1085 
C 2720 1707 2208 2157 1600 2227 
C 2086 2328 2554 2756 2554 3329 
C 2554 3820 2048 4179 1472 4179 
C 890 4179 378 3829 378 3329 
C 378 3110 544 3072 627 3072 
C 762 3072 877 3155 877 3321 
C 877 3486 762 3569 627 3569 
C 602 3569 570 3569 544 3557 
C 730 3959 1235 4032 1459 4032 
C 1683 4032 2106 3925 2106 3320 
C 2106 3143 2080 2828 1862 2550 
C 1670 2304 1453 2304 1242 2284 
C 1210 2284 1062 2269 1037 2269 
C 992 2263 966 2257 966 2208 
C 966 2163 973 2157 1101 2157 
L 1414 2157 
z
" transform="scale(0.015625)"/>
      </defs>
      <use xlink:href="#CMR17-33" transform="scale(0.996264)"/>
     </g>
    </g>
   </g>
   <g id="xtick_5">
    <g id="line2d_6">
     <path d="M 239.002632 257.596868 
L 242.05505 257.830029 
" style="fill: none; stroke: #000000; stroke-width: 0.8; stroke-linecap: square"/>
    </g>
    <g id="text_6">
     <!-- $\mathdefault{4}$ -->
     <g transform="translate(245.702883 276.73904)scale(0.1 -0.1)">
      <defs>
       <path id="CMR17-34" d="M 2150 4122 
C 2150 4256 2144 4256 2029 4256 
L 128 1254 
L 128 1088 
L 1779 1088 
L 1779 457 
C 1779 224 1766 160 1318 160 
L 1197 160 
L 1197 0 
C 1402 0 1747 0 1965 0 
C 2182 0 2528 0 2733 0 
L 2733 160 
L 2611 160 
C 2163 160 2150 224 2150 457 
L 2150 1088 
L 2803 1088 
L 2803 1254 
L 2150 1254 
L 2150 4122 
z
M 1798 3703 
L 1798 1254 
L 256 1254 
L 1798 3703 
z
" transform="scale(0.015625)"/>
      </defs>
      <use xlink:href="#CMR17-34" transform="scale(0.996264)"/>
     </g>
    </g>
   </g>
   <g id="xtick_6">
    <g id="line2d_7">
     <path d="M 199.696296 258.774705 
L 202.685218 259.014053 
" style="fill: none; stroke: #000000; stroke-width: 0.8; stroke-linecap: square"/>
    </g>
    <g id="text_7">
     <!-- $\mathdefault{5}$ -->
     <g transform="translate(206.205976 278.088446)scale(0.1 -0.1)">
      <defs>
       <path id="CMR17-35" d="M 730 3692 
C 794 3666 1056 3584 1325 3584 
C 1920 3584 2246 3911 2432 4100 
C 2432 4157 2432 4192 2394 4192 
C 2387 4192 2374 4192 2323 4163 
C 2099 4058 1837 3973 1517 3973 
C 1325 3973 1037 3999 723 4139 
C 653 4171 640 4171 634 4171 
C 602 4171 595 4164 595 4037 
L 595 2203 
C 595 2089 595 2057 659 2057 
C 691 2057 704 2070 736 2114 
C 941 2401 1222 2522 1542 2522 
C 1766 2522 2246 2382 2246 1289 
C 2246 1085 2246 715 2054 421 
C 1894 159 1645 25 1370 25 
C 947 25 518 320 403 814 
C 429 807 480 795 506 795 
C 589 795 749 840 749 1038 
C 749 1210 627 1280 506 1280 
C 358 1280 262 1190 262 1011 
C 262 454 704 -128 1382 -128 
C 2042 -128 2669 440 2669 1264 
C 2669 2030 2170 2624 1549 2624 
C 1222 2624 947 2503 730 2274 
L 730 3692 
z
" transform="scale(0.015625)"/>
      </defs>
      <use xlink:href="#CMR17-35" transform="scale(0.996264)"/>
     </g>
    </g>
   </g>
  </g>
  <g id="axis3d_2">
   <g id="line2d_8">
    <path d="M 84.692152 249.977524 
L 196.534555 258.979044 
" style="fill: none; stroke: #000000; stroke-width: 0.8; stroke-linecap: square"/>
   </g>
   <g id="text_8">
    <!-- y -->
    <g transform="translate(105.945031 283.153891)scale(0.16 -0.16)">
     <defs>
      <path id="CMSS17-79" d="M 2675 2752 
L 2176 2752 
C 1632 1294 1446 702 1434 383 
L 1427 383 
C 1408 696 1126 1460 902 2007 
L 602 2752 
L 83 2752 
L 1216 13 
C 1146 -178 1043 -465 1011 -529 
C 870 -885 774 -885 672 -885 
C 646 -885 442 -885 211 -809 
L 250 -1229 
C 410 -1261 570 -1280 685 -1280 
C 845 -1280 1165 -1280 1459 -497 
L 2675 2752 
z
" transform="scale(0.015625)"/>
     </defs>
     <use xlink:href="#CMSS17-79" transform="scale(0.996264)"/>
    </g>
   </g>
   <g id="Line3DCollection_2">
    <path d="M 280.894003 90.210597 
L 280.894003 246.048862 
L 96.516311 250.929179 
" style="fill: none; stroke: #b0b0b0; stroke-width: 0.8"/>
    <path d="M 303.270056 88.773407 
L 303.270056 247.486052 
L 116.703387 252.553915 
" style="fill: none; stroke: #b0b0b0; stroke-width: 0.8"/>
    <path d="M 326.487057 87.282205 
L 326.487057 248.977255 
L 137.698564 254.24369 
" style="fill: none; stroke: #b0b0b0; stroke-width: 0.8"/>
    <path d="M 350.593319 85.733885 
L 350.593319 250.525574 
L 159.551355 256.002489 
" style="fill: none; stroke: #b0b0b0; stroke-width: 0.8"/>
    <path d="M 375.640932 84.125104 
L 375.640932 252.134355 
L 182.315404 257.83463 
" style="fill: none; stroke: #b0b0b0; stroke-width: 0.8"/>
   </g>
   <g id="xtick_7">
    <g id="line2d_9">
     <path d="M 98.082933 250.887712 
L 93.378353 251.012238 
" style="fill: none; stroke: #000000; stroke-width: 0.8; stroke-linecap: square"/>
    </g>
    <g id="text_9">
     <!-- $\mathdefault{−4}$ -->
     <g transform="translate(77.583497 268.802771)scale(0.1 -0.1)">
      <defs>
       <path id="CMSY10-0" d="M 4218 1472 
C 4326 1472 4442 1472 4442 1600 
C 4442 1728 4326 1728 4218 1728 
L 755 1728 
C 646 1728 531 1728 531 1600 
C 531 1472 646 1472 755 1472 
L 4218 1472 
z
" transform="scale(0.015625)"/>
      </defs>
      <use xlink:href="#CMSY10-0" transform="scale(0.996264)"/>
      <use xlink:href="#CMR17-34" transform="translate(77.487468 0)scale(0.996264)"/>
     </g>
    </g>
   </g>
   <g id="xtick_8">
    <g id="line2d_10">
     <path d="M 118.290426 252.510805 
L 113.52444 252.640267 
" style="fill: none; stroke: #000000; stroke-width: 0.8; stroke-linecap: square"/>
    </g>
    <g id="text_10">
     <!-- $\mathdefault{−2}$ -->
     <g transform="translate(97.605653 270.650011)scale(0.1 -0.1)">
      <use xlink:href="#CMSY10-0" transform="scale(0.996264)"/>
      <use xlink:href="#CMR17-32" transform="translate(77.487468 0)scale(0.996264)"/>
     </g>
    </g>
   </g>
   <g id="xtick_9">
    <g id="line2d_11">
     <path d="M 139.306416 254.198837 
L 134.477827 254.333535 
" style="fill: none; stroke: #000000; stroke-width: 0.8; stroke-linecap: square"/>
    </g>
    <g id="text_11">
     <!-- $\mathdefault{0}$ -->
     <g transform="translate(122.30703 272.571506)scale(0.1 -0.1)">
      <use xlink:href="#CMR17-30" transform="scale(0.996264)"/>
     </g>
    </g>
   </g>
   <g id="xtick_10">
    <g id="line2d_12">
     <path d="M 161.180414 255.955786 
L 156.288033 256.096044 
" style="fill: none; stroke: #000000; stroke-width: 0.8; stroke-linecap: square"/>
    </g>
    <g id="text_12">
     <!-- $\mathdefault{2}$ -->
     <g transform="translate(143.988408 274.571825)scale(0.1 -0.1)">
      <use xlink:href="#CMR17-32" transform="scale(0.996264)"/>
     </g>
    </g>
   </g>
   <g id="xtick_11">
    <g id="line2d_13">
     <path d="M 183.96606 257.78596 
L 179.008711 257.932129 
" style="fill: none; stroke: #000000; stroke-width: 0.8; stroke-linecap: square"/>
    </g>
    <g id="text_13">
     <!-- $\mathdefault{4}$ -->
     <g transform="translate(166.577833 276.65592)scale(0.1 -0.1)">
      <use xlink:href="#CMR17-34" transform="scale(0.996264)"/>
     </g>
    </g>
   </g>
  </g>
  <g id="axis3d_3">
   <g id="line2d_14">
    <path d="M 84.692152 249.977524 
L 84.692152 86.281936 
" style="fill: none; stroke: #000000; stroke-width: 0.8; stroke-linecap: square"/>
   </g>
   <g id="text_14">
    <!-- z -->
    <g transform="translate(40.521881 172.114786)scale(0.16 -0.16)">
     <defs>
      <path id="CMSS17-7a" d="M 2400 2502 
L 2400 2750 
L 250 2750 
L 250 2368 
L 1069 2368 
C 1146 2368 1222 2368 1299 2368 
L 1747 2368 
L 166 261 
L 166 0 
L 2419 0 
L 2419 395 
L 1549 395 
C 1472 395 1395 395 1318 395 
L 826 395 
L 2400 2502 
z
" transform="scale(0.015625)"/>
     </defs>
     <use xlink:href="#CMSS17-7a" transform="scale(0.996264)"/>
    </g>
   </g>
   <g id="Line3DCollection_3">
    <path d="M 84.692152 246.703612 
L 267.763642 242.122482 
L 391.253508 249.736838 
" style="fill: none; stroke: #b0b0b0; stroke-width: 0.8"/>
    <path d="M 84.692152 215.274059 
L 267.763642 212.525381 
L 391.253508 217.093995 
" style="fill: none; stroke: #b0b0b0; stroke-width: 0.8"/>
    <path d="M 84.692152 183.844506 
L 267.763642 182.92828 
L 391.253508 184.451151 
" style="fill: none; stroke: #b0b0b0; stroke-width: 0.8"/>
    <path d="M 84.692152 152.414953 
L 267.763642 153.331179 
L 391.253508 151.808308 
" style="fill: none; stroke: #b0b0b0; stroke-width: 0.8"/>
    <path d="M 84.692152 120.9854 
L 267.763642 123.734078 
L 391.253508 119.165465 
" style="fill: none; stroke: #b0b0b0; stroke-width: 0.8"/>
    <path d="M 84.692152 89.555847 
L 267.763642 94.136977 
L 391.253508 86.522622 
" style="fill: none; stroke: #b0b0b0; stroke-width: 0.8"/>
   </g>
   <g id="xtick_12">
    <g id="line2d_15">
     <path d="M 86.24663 246.664713 
L 81.578571 246.781525 
" style="fill: none; stroke: #000000; stroke-width: 0.8; stroke-linecap: square"/>
    </g>
    <g id="text_15">
     <!-- $\mathdefault{0}$ -->
     <g transform="translate(63.388275 253.435966)scale(0.1 -0.1)">
      <use xlink:href="#CMR17-30" transform="scale(0.996264)"/>
     </g>
    </g>
   </g>
   <g id="xtick_13">
    <g id="line2d_16">
     <path d="M 86.24663 215.25072 
L 81.578571 215.320807 
" style="fill: none; stroke: #000000; stroke-width: 0.8; stroke-linecap: square"/>
    </g>
    <g id="text_16">
     <!-- $\mathdefault{1}$ -->
     <g transform="translate(63.388275 222.080871)scale(0.1 -0.1)">
      <use xlink:href="#CMR17-31" transform="scale(0.996264)"/>
     </g>
    </g>
   </g>
   <g id="xtick_14">
    <g id="line2d_17">
     <path d="M 86.24663 183.836726 
L 81.578571 183.860089 
" style="fill: none; stroke: #000000; stroke-width: 0.8; stroke-linecap: square"/>
    </g>
    <g id="text_17">
     <!-- $\mathdefault{2}$ -->
     <g transform="translate(63.388275 190.725776)scale(0.1 -0.1)">
      <use xlink:href="#CMR17-32" transform="scale(0.996264)"/>
     </g>
    </g>
   </g>
   <g id="xtick_15">
    <g id="line2d_18">
     <path d="M 86.24663 152.422733 
L 81.578571 152.399371 
" style="fill: none; stroke: #000000; stroke-width: 0.8; stroke-linecap: square"/>
    </g>
    <g id="text_18">
     <!-- $\mathdefault{3}$ -->
     <g transform="translate(63.388275 159.370681)scale(0.1 -0.1)">
      <use xlink:href="#CMR17-33" transform="scale(0.996264)"/>
     </g>
    </g>
   </g>
   <g id="xtick_16">
    <g id="line2d_19">
     <path d="M 86.24663 121.00874 
L 81.578571 120.938652 
" style="fill: none; stroke: #000000; stroke-width: 0.8; stroke-linecap: square"/>
    </g>
    <g id="text_19">
     <!-- $\mathdefault{4}$ -->
     <g transform="translate(63.388275 128.015585)scale(0.1 -0.1)">
      <use xlink:href="#CMR17-34" transform="scale(0.996264)"/>
     </g>
    </g>
   </g>
   <g id="xtick_17">
    <g id="line2d_20">
     <path d="M 86.24663 89.594746 
L 81.578571 89.477934 
" style="fill: none; stroke: #000000; stroke-width: 0.8; stroke-linecap: square"/>
    </g>
    <g id="text_20">
     <!-- $\mathdefault{5}$ -->
     <g transform="translate(63.388275 96.66049)scale(0.1 -0.1)">
      <use xlink:href="#CMR17-35" transform="scale(0.996264)"/>
     </g>
    </g>
   </g>
  </g>
  <g id="axes_1">
   <g id="line2d_21">
    <path d="M 322.937859 245.838402 
L 324.301552 87.185068 
" clip-path="url(#p2c3f03dab6)" style="fill: none; stroke: #ff0000; stroke-width: 1.5; stroke-linecap: square"/>
   </g>
   <g id="line2d_22">
    <path d="M 322.937859 245.838402 
L 230.660764 121.284417 
" clip-path="url(#p2c3f03dab6)" style="fill: none; stroke: #00ff00; stroke-width: 1.5; stroke-linecap: square"/>
   </g>
   <g id="line2d_23">
    <path d="M 322.937859 245.838402 
L 242.051096 -1 
" clip-path="url(#p2c3f03dab6)" style="fill: none; stroke: #0016ff; stroke-width: 1.5; stroke-linecap: square"/>
   </g>
   <g id="line2d_24">
    <path d="M 322.937859 245.838402 
L 110.450745 152.098054 
" clip-path="url(#p2c3f03dab6)" style="fill: none; stroke: #f400ff; stroke-width: 1.5; stroke-linecap: square"/>
   </g>
   <g id="Poly3DCollection_1">
    <path d="M 266.551364 353.674214 
L 249.850272 313.671521 
L 255.214809 303.08568 
L 271.961012 343.328584 
z
" clip-path="url(#p2c3f03dab6)" style="fill: #0000f5; fill-opacity: 0.1"/>
    <path d="M 271.961012 343.328584 
L 255.214809 303.08568 
L 260.628258 292.40332 
L 277.419703 332.889161 
z
" clip-path="url(#p2c3f03dab6)" style="fill: #0000f5; fill-opacity: 0.1"/>
    <path d="M 249.850272 313.671521 
L 232.959526 273.214566 
L 238.277571 262.383698 
L 255.214809 303.08568 
z
" clip-path="url(#p2c3f03dab6)" style="fill: #0000f5; fill-opacity: 0.1"/>
    <path d="M 277.419703 332.889161 
L 260.628258 292.40332 
L 266.091291 281.623116 
L 282.928109 322.354664 
z
" clip-path="url(#p2c3f03dab6)" style="fill: #0000f5; fill-opacity: 0.1"/>
    <path d="M 255.214809 303.08568 
L 238.277571 262.383698 
L 243.644383 251.453513 
L 260.628258 292.40332 
z
" clip-path="url(#p2c3f03dab6)" style="fill: #0000f5; fill-opacity: 0.1"/>
    <path d="M 232.959526 273.214566 
L 215.875876 232.295565 
L 221.146012 221.21474 
L 238.277571 262.383698 
z
" clip-path="url(#p2c3f03dab6)" style="fill: #0000f5; fill-opacity: 0.1"/>
    <path d="M 282.928109 322.354664 
L 266.091291 281.623116 
L 271.604592 270.743718 
L 288.486911 311.723787 
z
" clip-path="url(#p2c3f03dab6)" style="fill: #0000f5; fill-opacity: 0.1"/>
    <path d="M 260.628258 292.40332 
L 243.644383 251.453513 
L 249.060635 240.422637 
L 266.091291 281.623116 
z
" clip-path="url(#p2c3f03dab6)" style="fill: #0000f5; fill-opacity: 0.1"/>
    <path d="M 238.277571 262.383698 
L 221.146012 221.21474 
L 226.464752 210.031719 
L 243.644383 251.453513 
z
" clip-path="url(#p2c3f03dab6)" style="fill: #0000f5; fill-opacity: 0.1"/>
    <path d="M 215.875876 232.295565 
L 198.595999 190.906558 
L 203.816766 179.570721 
L 221.146012 221.21474 
z
" clip-path="url(#p2c3f03dab6)" style="fill: #0000f5; fill-opacity: 0.1"/>
    <path d="M 288.486911 311.723787 
L 271.604592 270.743718 
L 277.168858 259.763751 
L 294.096803 300.995202 
z
" clip-path="url(#p2c3f03dab6)" style="fill: #0000f5; fill-opacity: 0.1"/>
    <path d="M 266.091291 281.623116 
L 249.060635 240.422637 
L 254.527012 229.289674 
L 271.604592 270.743718 
z
" clip-path="url(#p2c3f03dab6)" style="fill: #0000f5; fill-opacity: 0.1"/>
    <path d="M 243.644383 251.453513 
L 226.464752 210.031719 
L 231.832774 198.745082 
L 249.060635 240.422637 
z
" clip-path="url(#p2c3f03dab6)" style="fill: #0000f5; fill-opacity: 0.1"/>
    <path d="M 221.146012 221.21474 
L 203.816766 179.570721 
L 209.085962 168.12973 
L 226.464752 210.031719 
z
" clip-path="url(#p2c3f03dab6)" style="fill: #0000f5; fill-opacity: 0.1"/>
    <path d="M 198.595999 190.906558 
L 181.116494 149.039401 
L 186.286392 137.443371 
L 203.816766 179.570721 
z
" clip-path="url(#p2c3f03dab6)" style="fill: #0000f5; fill-opacity: 0.1"/>
    <path d="M 294.096803 300.995202 
L 277.168858 259.763751 
L 282.7848 248.681812 
L 299.758494 290.167556 
z
" clip-path="url(#p2c3f03dab6)" style="fill: #0000f5; fill-opacity: 0.1"/>
    <path d="M 271.604592 270.743718 
L 254.527012 229.289674 
L 260.044214 218.053199 
L 277.168858 259.763751 
z
" clip-path="url(#p2c3f03dab6)" style="fill: #0000f5; fill-opacity: 0.1"/>
    <path d="M 249.060635 240.422637 
L 231.832774 198.745082 
L 237.250764 187.353383 
L 254.527012 229.289674 
z
" clip-path="url(#p2c3f03dab6)" style="fill: #0000f5; fill-opacity: 0.1"/>
    <path d="M 226.464752 210.031719 
L 209.085962 168.12973 
L 214.404263 156.582115 
L 231.832774 198.745082 
z
" clip-path="url(#p2c3f03dab6)" style="fill: #0000f5; fill-opacity: 0.1"/>
    <path d="M 203.816766 179.570721 
L 186.286392 137.443371 
L 191.504527 125.739147 
L 209.085962 168.12973 
z
" clip-path="url(#p2c3f03dab6)" style="fill: #0000f5; fill-opacity: 0.1"/>
    <path d="M 299.758494 290.167556 
L 282.7848 248.681812 
L 288.45314 237.496476 
L 305.472704 279.23947 
z
" clip-path="url(#p2c3f03dab6)" style="fill: #0000f5; fill-opacity: 0.1"/>
    <path d="M 181.116494 149.039401 
L 163.433883 106.685759 
L 168.55137 94.824227 
L 186.286392 137.443371 
z
" clip-path="url(#p2c3f03dab6)" style="fill: #0000f5; fill-opacity: 0.1"/>
    <path d="M 277.168858 259.763751 
L 260.044214 218.053199 
L 265.612954 206.711762 
L 282.7848 248.681812 
z
" clip-path="url(#p2c3f03dab6)" style="fill: #0000f5; fill-opacity: 0.1"/>
    <path d="M 254.527012 229.289674 
L 237.250764 187.353383 
L 242.719423 175.855147 
L 260.044214 218.053199 
z
" clip-path="url(#p2c3f03dab6)" style="fill: #0000f5; fill-opacity: 0.1"/>
    <path d="M 231.832774 198.745082 
L 214.404263 156.582115 
L 219.77236 144.926381 
L 237.250764 187.353383 
z
" clip-path="url(#p2c3f03dab6)" style="fill: #0000f5; fill-opacity: 0.1"/>
    <path d="M 209.085962 168.12973 
L 191.504527 125.739147 
L 196.771577 113.925208 
L 214.404263 156.582115 
z
" clip-path="url(#p2c3f03dab6)" style="fill: #0000f5; fill-opacity: 0.1"/>
    <path d="M 305.472704 279.23947 
L 288.45314 237.496476 
L 294.174615 226.206287 
L 311.240167 268.209541 
z
" clip-path="url(#p2c3f03dab6)" style="fill: #0000f5; fill-opacity: 0.1"/>
    <path d="M 186.286392 137.443371 
L 168.55137 94.824227 
L 173.716884 82.851375 
L 191.504527 125.739147 
z
" clip-path="url(#p2c3f03dab6)" style="fill: #0000f5; fill-opacity: 0.1"/>
    <path d="M 282.7848 248.681812 
L 265.612954 206.711762 
L 271.233957 195.263885 
L 288.45314 237.496476 
z
" clip-path="url(#p2c3f03dab6)" style="fill: #0000f5; fill-opacity: 0.1"/>
    <path d="M 163.433883 106.685759 
L 145.544604 63.837103 
L 150.608093 51.704626 
L 168.55137 94.824227 
z
" clip-path="url(#p2c3f03dab6)" style="fill: #0000f5; fill-opacity: 0.1"/>
    <path d="M 260.044214 218.053199 
L 242.719423 175.855147 
L 248.239466 164.248874 
L 265.612954 206.711762 
z
" clip-path="url(#p2c3f03dab6)" style="fill: #0000f5; fill-opacity: 0.1"/>
    <path d="M 237.250764 187.353383 
L 219.77236 144.926381 
L 225.190955 133.160999 
L 242.719423 175.855147 
z
" clip-path="url(#p2c3f03dab6)" style="fill: #0000f5; fill-opacity: 0.1"/>
    <path d="M 214.404263 156.582115 
L 196.771577 113.925208 
L 202.088232 102.000004 
L 219.77236 144.926381 
z
" clip-path="url(#p2c3f03dab6)" style="fill: #0000f5; fill-opacity: 0.1"/>
    <path d="M 311.240167 268.209541 
L 294.174615 226.206287 
L 299.949976 214.809766 
L 317.061631 257.076337 
z
" clip-path="url(#p2c3f03dab6)" style="fill: #0000f5; fill-opacity: 0.1"/>
    <path d="M 191.504527 125.739147 
L 173.716884 82.851375 
L 178.931105 70.765629 
L 196.771577 113.925208 
z
" clip-path="url(#p2c3f03dab6)" style="fill: #0000f5; fill-opacity: 0.1"/>
    <path d="M 288.45314 237.496476 
L 271.233957 195.263885 
L 276.907961 183.708063 
L 294.174615 226.206287 
z
" clip-path="url(#p2c3f03dab6)" style="fill: #0000f5; fill-opacity: 0.1"/>
    <path d="M 168.55137 94.824227 
L 150.608093 51.704626 
L 155.719383 39.457615 
L 173.716884 82.851375 
z
" clip-path="url(#p2c3f03dab6)" style="fill: #0000f5; fill-opacity: 0.1"/>
    <path d="M 265.612954 206.711762 
L 248.239466 164.248874 
L 253.811621 152.533033 
L 271.233957 195.263885 
z
" clip-path="url(#p2c3f03dab6)" style="fill: #0000f5; fill-opacity: 0.1"/>
    <path d="M 145.544604 63.837103 
L 127.445012 20.484704 
L 132.452872 8.075702 
L 150.608093 51.704626 
z
" clip-path="url(#p2c3f03dab6)" style="fill: #0000f5; fill-opacity: 0.1"/>
    <path d="M 242.719423 175.855147 
L 225.190955 133.160999 
L 230.660764 121.284417 
L 248.239466 164.248874 
z
" clip-path="url(#p2c3f03dab6)" style="fill: #0000f5; fill-opacity: 0.1"/>
    <path d="M 219.77236 144.926381 
L 202.088232 102.000004 
L 207.455197 89.961954 
L 225.190955 133.160999 
z
" clip-path="url(#p2c3f03dab6)" style="fill: #0000f5; fill-opacity: 0.1"/>
    <path d="M 317.061631 257.076337 
L 299.949976 214.809766 
L 305.779989 203.305403 
L 322.937859 245.838402 
z
" clip-path="url(#p2c3f03dab6)" style="fill: #0000f5; fill-opacity: 0.1"/>
    <path d="M 196.771577 113.925208 
L 178.931105 70.765629 
L 184.194726 58.565383 
L 202.088232 102.000004 
z
" clip-path="url(#p2c3f03dab6)" style="fill: #0000f5; fill-opacity: 0.1"/>
    <path d="M 294.174615 226.206287 
L 276.907961 183.708063 
L 282.635721 172.042761 
L 299.949976 214.809766 
z
" clip-path="url(#p2c3f03dab6)" style="fill: #0000f5; fill-opacity: 0.1"/>
    <path d="M 173.716884 82.851375 
L 155.719383 39.457615 
L 160.879155 27.094439 
L 178.931105 70.765629 
z
" clip-path="url(#p2c3f03dab6)" style="fill: #0000f5; fill-opacity: 0.1"/>
    <path d="M 271.233957 195.263885 
L 253.811621 152.533033 
L 259.436628 140.706065 
L 276.907961 183.708063 
z
" clip-path="url(#p2c3f03dab6)" style="fill: #0000f5; fill-opacity: 0.1"/>
    <path d="M 150.608093 51.704626 
L 132.452872 8.075702 
L 137.508289 -4.451141 
L 155.719383 39.457615 
z
" clip-path="url(#p2c3f03dab6)" style="fill: #0000f5; fill-opacity: 0.1"/>
    <path d="M 248.239466 164.248874 
L 230.660764 121.284417 
L 236.182517 109.29505 
L 253.811621 152.533033 
z
" clip-path="url(#p2c3f03dab6)" style="fill: #0000f5; fill-opacity: 0.1"/>
    <path d="M 127.445012 20.484704 
L 109.131378 -23.380373 
L 114.08193 -36.071624 
L 132.452872 8.075702 
z
" clip-path="url(#p2c3f03dab6)" style="fill: #0000f5; fill-opacity: 0.1"/>
    <path d="M 225.190955 133.160999 
L 207.455197 89.961954 
L 212.873189 77.809451 
L 230.660764 121.284417 
z
" clip-path="url(#p2c3f03dab6)" style="fill: #0000f5; fill-opacity: 0.1"/>
    <path d="M 322.937859 245.838402 
L 305.779989 203.305403 
L 311.665431 191.691659 
L 328.869626 234.494251 
z
" clip-path="url(#p2c3f03dab6)" style="fill: #0000f5; fill-opacity: 0.1"/>
    <path d="M 202.088232 102.000004 
L 184.194726 58.565383 
L 189.50845 46.249003 
L 207.455197 89.961954 
z
" clip-path="url(#p2c3f03dab6)" style="fill: #0000f5; fill-opacity: 0.1"/>
    <path d="M 299.949976 214.809766 
L 282.635721 172.042761 
L 288.418003 160.266418 
L 305.779989 203.305403 
z
" clip-path="url(#p2c3f03dab6)" style="fill: #0000f5; fill-opacity: 0.1"/>
    <path d="M 178.931105 70.765629 
L 160.879155 27.094439 
L 166.088101 14.613439 
L 184.194726 58.565383 
z
" clip-path="url(#p2c3f03dab6)" style="fill: #0000f5; fill-opacity: 0.1"/>
    <path d="M 276.907961 183.708063 
L 259.436628 140.706065 
L 265.115244 128.766382 
L 282.635721 172.042761 
z
" clip-path="url(#p2c3f03dab6)" style="fill: #0000f5; fill-opacity: 0.1"/>
    <path d="M 155.719383 39.457615 
L 137.508289 -4.451141 
L 142.611942 -17.097511 
L 160.879155 27.094439 
z
" clip-path="url(#p2c3f03dab6)" style="fill: #0000f5; fill-opacity: 0.1"/>
    <path d="M 253.811621 152.533033 
L 236.182517 109.29505 
L 241.756956 97.191284 
L 259.436628 140.706065 
z
" clip-path="url(#p2c3f03dab6)" style="fill: #0000f5; fill-opacity: 0.1"/>
    <path d="M 132.452872 8.075702 
L 114.08193 -36.071624 
L 119.079775 -48.884116 
L 137.508289 -4.451141 
z
" clip-path="url(#p2c3f03dab6)" style="fill: #0000f5; fill-opacity: 0.1"/>
    <path d="M 230.660764 121.284417 
L 212.873189 77.809451 
L 218.342941 65.540854 
L 236.182517 109.29505 
z
" clip-path="url(#p2c3f03dab6)" style="fill: #0000f5; fill-opacity: 0.1"/>
    <path d="M 328.869626 234.494251 
L 311.665431 191.691659 
L 317.607097 179.966967 
L 334.857724 223.04237 
z
" clip-path="url(#p2c3f03dab6)" style="fill: #0000f5; fill-opacity: 0.1"/>
    <path d="M 207.455197 89.961954 
L 189.50845 46.249003 
L 194.872998 33.814824 
L 212.873189 77.809451 
z
" clip-path="url(#p2c3f03dab6)" style="fill: #0000f5; fill-opacity: 0.1"/>
    <path d="M 305.779989 203.305403 
L 288.418003 160.266418 
L 294.25559 148.377439 
L 311.665431 191.691659 
z
" clip-path="url(#p2c3f03dab6)" style="fill: #0000f5; fill-opacity: 0.1"/>
    <path d="M 184.194726 58.565383 
L 166.088101 14.613439 
L 171.346927 2.012921 
L 189.50845 46.249003 
z
" clip-path="url(#p2c3f03dab6)" style="fill: #0000f5; fill-opacity: 0.1"/>
    <path d="M 282.635721 172.042761 
L 265.115244 128.766382 
L 270.848238 116.712365 
L 288.418003 160.266418 
z
" clip-path="url(#p2c3f03dab6)" style="fill: #0000f5; fill-opacity: 0.1"/>
    <path d="M 160.879155 27.094439 
L 142.611942 -17.097511 
L 147.764526 -29.865127 
L 166.088101 14.613439 
z
" clip-path="url(#p2c3f03dab6)" style="fill: #0000f5; fill-opacity: 0.1"/>
    <path d="M 259.436628 140.706065 
L 241.756956 97.191284 
L 247.38484 84.971473 
L 265.115244 128.766382 
z
" clip-path="url(#p2c3f03dab6)" style="fill: #0000f5; fill-opacity: 0.1"/>
    <path d="M 137.508289 -4.451141 
L 119.079775 -48.884116 
L 124.125594 -61.819593 
L 142.611942 -17.097511 
z
" clip-path="url(#p2c3f03dab6)" style="fill: #0000f5; fill-opacity: 0.1"/>
    <path d="M 236.182517 109.29505 
L 218.342941 65.540854 
L 223.865196 53.154492 
L 241.756956 97.191284 
z
" clip-path="url(#p2c3f03dab6)" style="fill: #0000f5; fill-opacity: 0.1"/>
    <path d="M 334.857724 223.04237 
L 317.607097 179.966967 
L 323.605798 168.12973 
L 340.902959 211.481218 
z
" clip-path="url(#p2c3f03dab6)" style="fill: #0000f5; fill-opacity: 0.1"/>
    <path d="M 212.873189 77.809451 
L 194.872998 33.814824 
L 200.289101 21.261146 
L 218.342941 65.540854 
z
" clip-path="url(#p2c3f03dab6)" style="fill: #0000f5; fill-opacity: 0.1"/>
    <path d="M 311.665431 191.691659 
L 294.25559 148.377439 
L 300.14928 136.374201 
L 317.607097 179.966967 
z
" clip-path="url(#p2c3f03dab6)" style="fill: #0000f5; fill-opacity: 0.1"/>
    <path d="M 189.50845 46.249003 
L 171.346927 2.012921 
L 176.656354 -10.708839 
L 194.872998 33.814824 
z
" clip-path="url(#p2c3f03dab6)" style="fill: #0000f5; fill-opacity: 0.1"/>
    <path d="M 288.418003 160.266418 
L 270.848238 116.712365 
L 276.636395 104.542363 
L 294.25559 148.377439 
z
" clip-path="url(#p2c3f03dab6)" style="fill: #0000f5; fill-opacity: 0.1"/>
    <path d="M 166.088101 14.613439 
L 147.764526 -29.865127 
L 152.966749 -42.75574 
L 171.346927 2.012921 
z
" clip-path="url(#p2c3f03dab6)" style="fill: #0000f5; fill-opacity: 0.1"/>
    <path d="M 265.115244 128.766382 
L 247.38484 84.971473 
L 253.066942 72.633942 
L 270.848238 116.712365 
z
" clip-path="url(#p2c3f03dab6)" style="fill: #0000f5; fill-opacity: 0.1"/>
    <path d="M 142.611942 -17.097511 
L 124.125594 -61.819593 
L 129.22008 -74.879835 
L 147.764526 -29.865127 
z
" clip-path="url(#p2c3f03dab6)" style="fill: #0000f5; fill-opacity: 0.1"/>
    <path d="M 241.756956 97.191284 
L 223.865196 53.154492 
L 229.440714 40.64866 
L 247.38484 84.971473 
z
" clip-path="url(#p2c3f03dab6)" style="fill: #0000f5; fill-opacity: 0.1"/>
    <path d="M 340.902959 211.481218 
L 323.605798 168.12973 
L 329.662358 156.178319 
L 347.006153 199.809224 
z
" clip-path="url(#p2c3f03dab6)" style="fill: #0000f5; fill-opacity: 0.1"/>
    <path d="M 218.342941 65.540854 
L 200.289101 21.261146 
L 205.757507 8.586239 
L 223.865196 53.154492 
z
" clip-path="url(#p2c3f03dab6)" style="fill: #0000f5; fill-opacity: 0.1"/>
    <path d="M 317.607097 179.966967 
L 300.14928 136.374201 
L 306.099884 124.255048 
L 323.605798 168.12973 
z
" clip-path="url(#p2c3f03dab6)" style="fill: #0000f5; fill-opacity: 0.1"/>
    <path d="M 194.872998 33.814824 
L 176.656354 -10.708839 
L 182.017115 -23.5536 
L 200.289101 21.261146 
z
" clip-path="url(#p2c3f03dab6)" style="fill: #0000f5; fill-opacity: 0.1"/>
    <path d="M 294.25559 148.377439 
L 276.636395 104.542363 
L 282.480516 92.254695 
L 300.14928 136.374201 
z
" clip-path="url(#p2c3f03dab6)" style="fill: #0000f5; fill-opacity: 0.1"/>
    <path d="M 171.346927 2.012921 
L 152.966749 -42.75574 
L 158.219329 -55.771138 
L 176.656354 -10.708839 
z
" clip-path="url(#p2c3f03dab6)" style="fill: #0000f5; fill-opacity: 0.1"/>
    <path d="M 270.848238 116.712365 
L 253.066942 72.633942 
L 258.804047 60.17698 
L 276.636395 104.542363 
z
" clip-path="url(#p2c3f03dab6)" style="fill: #0000f5; fill-opacity: 0.1"/>
    <path d="M 147.764526 -29.865127 
L 129.22008 -74.879835 
L 134.363943 -88.066657 
L 152.966749 -42.75574 
z
" clip-path="url(#p2c3f03dab6)" style="fill: #0000f5; fill-opacity: 0.1"/>
    <path d="M 247.38484 84.971473 
L 229.440714 40.64866 
L 235.07027 28.021621 
L 253.066942 72.633942 
z
" clip-path="url(#p2c3f03dab6)" style="fill: #0000f5; fill-opacity: 0.1"/>
    <path d="M 347.006153 199.809224 
L 329.662358 156.178319 
L 335.777618 144.111075 
L 353.168143 188.024786 
z
" clip-path="url(#p2c3f03dab6)" style="fill: #0000f5; fill-opacity: 0.1"/>
    <path d="M 223.865196 53.154492 
L 205.757507 8.586239 
L 211.278977 -4.211662 
L 229.440714 40.64866 
z
" clip-path="url(#p2c3f03dab6)" style="fill: #0000f5; fill-opacity: 0.1"/>
    <path d="M 323.605798 168.12973 
L 306.099884 124.255048 
L 312.108232 112.018294 
L 329.662358 156.178319 
z
" clip-path="url(#p2c3f03dab6)" style="fill: #0000f5; fill-opacity: 0.1"/>
    <path d="M 200.289101 21.261146 
L 182.017115 -23.5536 
L 187.429958 -36.523154 
L 205.757507 8.586239 
z
" clip-path="url(#p2c3f03dab6)" style="fill: #0000f5; fill-opacity: 0.1"/>
    <path d="M 300.14928 136.374201 
L 282.480516 92.254695 
L 288.381415 79.847645 
L 306.099884 124.255048 
z
" clip-path="url(#p2c3f03dab6)" style="fill: #0000f5; fill-opacity: 0.1"/>
    <path d="M 176.656354 -10.708839 
L 158.219329 -55.771138 
L 163.523004 -68.91314 
L 182.017115 -23.5536 
z
" clip-path="url(#p2c3f03dab6)" style="fill: #0000f5; fill-opacity: 0.1"/>
    <path d="M 276.636395 104.542363 
L 258.804047 60.17698 
L 264.596959 47.598844 
L 282.480516 92.254695 
z
" clip-path="url(#p2c3f03dab6)" style="fill: #0000f5; fill-opacity: 0.1"/>
    <path d="M 152.966749 -42.75574 
L 134.363943 -88.066657 
L 139.557901 -101.381906 
L 158.219329 -55.771138 
z
" clip-path="url(#p2c3f03dab6)" style="fill: #0000f5; fill-opacity: 0.1"/>
    <path d="M 253.066942 72.633942 
L 235.07027 28.021621 
L 240.754654 15.271606 
L 258.804047 60.17698 
z
" clip-path="url(#p2c3f03dab6)" style="fill: #0000f5; fill-opacity: 0.1"/>
    <path d="M 353.168143 188.024786 
L 335.777618 144.111075 
L 341.952436 131.926306 
L 359.389783 176.12627 
z
" clip-path="url(#p2c3f03dab6)" style="fill: #0000f5; fill-opacity: 0.1"/>
    <path d="M 229.440714 40.64866 
L 211.278977 -4.211662 
L 216.854287 -17.134356 
L 235.07027 28.021621 
z
" clip-path="url(#p2c3f03dab6)" style="fill: #0000f5; fill-opacity: 0.1"/>
    <path d="M 329.662358 156.178319 
L 312.108232 112.018294 
L 318.175167 99.662219 
L 335.777618 144.111075 
z
" clip-path="url(#p2c3f03dab6)" style="fill: #0000f5; fill-opacity: 0.1"/>
    <path d="M 205.757507 8.586239 
L 187.429958 -36.523154 
L 192.895647 -49.619329 
L 211.278977 -4.211662 
z
" clip-path="url(#p2c3f03dab6)" style="fill: #0000f5; fill-opacity: 0.1"/>
    <path d="M 306.099884 124.255048 
L 288.381415 79.847645 
L 294.339925 67.319466 
L 312.108232 112.018294 
z
" clip-path="url(#p2c3f03dab6)" style="fill: #0000f5; fill-opacity: 0.1"/>
    <path d="M 182.017115 -23.5536 
L 163.523004 -68.91314 
L 168.87852 -82.183603 
L 187.429958 -36.523154 
z
" clip-path="url(#p2c3f03dab6)" style="fill: #0000f5; fill-opacity: 0.1"/>
    <path d="M 282.480516 92.254695 
L 264.596959 47.598844 
L 270.446497 34.897759 
L 288.381415 79.847645 
z
" clip-path="url(#p2c3f03dab6)" style="fill: #0000f5; fill-opacity: 0.1"/>
    <path d="M 158.219329 -55.771138 
L 139.557901 -101.381906 
L 144.802692 -114.827469 
L 163.523004 -68.91314 
z
" clip-path="url(#p2c3f03dab6)" style="fill: #0000f5; fill-opacity: 0.1"/>
    <path d="M 258.804047 60.17698 
L 240.754654 15.271606 
L 246.494669 2.396809 
L 264.596959 47.598844 
z
" clip-path="url(#p2c3f03dab6)" style="fill: #0000f5; fill-opacity: 0.1"/>
    <path d="M 359.389783 176.12627 
L 341.952436 131.926306 
L 348.187687 119.622285 
L 365.671943 164.112013 
z
" clip-path="url(#p2c3f03dab6)" style="fill: #0000f5; fill-opacity: 0.1"/>
    <path d="M 235.07027 28.021621 
L 216.854287 -17.134356 
L 222.484228 -30.183676 
L 240.754654 15.271606 
z
" clip-path="url(#p2c3f03dab6)" style="fill: #0000f5; fill-opacity: 0.1"/>
    <path d="M 335.777618 144.111075 
L 318.175167 99.662219 
L 324.301552 87.185068 
L 341.952436 131.926306 
z
" clip-path="url(#p2c3f03dab6)" style="fill: #0000f5; fill-opacity: 0.1"/>
    <path d="M 211.278977 -4.211662 
L 192.895647 -49.619329 
L 198.414959 -62.843988 
L 216.854287 -17.134356 
z
" clip-path="url(#p2c3f03dab6)" style="fill: #0000f5; fill-opacity: 0.1"/>
    <path d="M 312.108232 112.018294 
L 294.339925 67.319466 
L 300.356893 54.668374 
L 318.175167 99.662219 
z
" clip-path="url(#p2c3f03dab6)" style="fill: #0000f5; fill-opacity: 0.1"/>
    <path d="M 187.429958 -36.523154 
L 168.87852 -82.183603 
L 174.286643 -95.58442 
L 192.895647 -49.619329 
z
" clip-path="url(#p2c3f03dab6)" style="fill: #0000f5; fill-opacity: 0.1"/>
    <path d="M 288.381415 79.847645 
L 270.446497 34.897759 
L 276.353493 22.071912 
L 294.339925 67.319466 
z
" clip-path="url(#p2c3f03dab6)" style="fill: #0000f5; fill-opacity: 0.1"/>
    <path d="M 163.523004 -68.91314 
L 144.802692 -114.827469 
L 150.099065 -128.405268 
L 168.87852 -82.183603 
z
" clip-path="url(#p2c3f03dab6)" style="fill: #0000f5; fill-opacity: 0.1"/>
    <path d="M 264.596959 47.598844 
L 246.494669 2.396809 
L 252.291138 -10.604612 
L 270.446497 34.897759 
z
" clip-path="url(#p2c3f03dab6)" style="fill: #0000f5; fill-opacity: 0.1"/>
    <path d="M 365.671943 164.112013 
L 348.187687 119.622285 
L 354.484261 107.197255 
L 372.015511 151.980317 
z
" clip-path="url(#p2c3f03dab6)" style="fill: #0000f5; fill-opacity: 0.1"/>
    <path d="M 240.754654 15.271606 
L 222.484228 -30.183676 
L 228.169608 -43.361494 
L 246.494669 2.396809 
z
" clip-path="url(#p2c3f03dab6)" style="fill: #0000f5; fill-opacity: 0.1"/>
    <path d="M 341.952436 131.926306 
L 324.301552 87.185068 
L 330.488264 74.585053 
L 348.187687 119.622285 
z
" clip-path="url(#p2c3f03dab6)" style="fill: #0000f5; fill-opacity: 0.1"/>
    <path d="M 216.854287 -17.134356 
L 198.414959 -62.843988 
L 203.988686 -76.199031 
L 222.484228 -30.183676 
z
" clip-path="url(#p2c3f03dab6)" style="fill: #0000f5; fill-opacity: 0.1"/>
    <path d="M 318.175167 99.662219 
L 300.356893 54.668374 
L 306.433183 41.892553 
L 324.301552 87.185068 
z
" clip-path="url(#p2c3f03dab6)" style="fill: #0000f5; fill-opacity: 0.1"/>
    <path d="M 192.895647 -49.619329 
L 174.286643 -95.58442 
L 179.748152 -109.117521 
L 198.414959 -62.843988 
z
" clip-path="url(#p2c3f03dab6)" style="fill: #0000f5; fill-opacity: 0.1"/>
    <path d="M 294.339925 67.319466 
L 276.353493 22.071912 
L 282.3188 9.119457 
L 300.356893 54.668374 
z
" clip-path="url(#p2c3f03dab6)" style="fill: #0000f5; fill-opacity: 0.1"/>
    <path d="M 168.87852 -82.183603 
L 150.099065 -128.405268 
L 155.447785 -142.117263 
L 174.286643 -95.58442 
z
" clip-path="url(#p2c3f03dab6)" style="fill: #0000f5; fill-opacity: 0.1"/>
    <path d="M 270.446497 34.897759 
L 252.291138 -10.604612 
L 258.144896 -23.734533 
L 276.353493 22.071912 
z
" clip-path="url(#p2c3f03dab6)" style="fill: #0000f5; fill-opacity: 0.1"/>
    <path d="M 372.015511 151.980317 
L 354.484261 107.197255 
L 360.843068 94.64942 
L 378.421391 139.729453 
z
" clip-path="url(#p2c3f03dab6)" style="fill: #0000f5; fill-opacity: 0.1"/>
    <path d="M 246.494669 2.396809 
L 228.169608 -43.361494 
L 233.911249 -56.669717 
L 252.291138 -10.604612 
z
" clip-path="url(#p2c3f03dab6)" style="fill: #0000f5; fill-opacity: 0.1"/>
    <path d="M 348.187687 119.622285 
L 330.488264 74.585053 
L 336.736198 61.860351 
L 354.484261 107.197255 
z
" clip-path="url(#p2c3f03dab6)" style="fill: #0000f5; fill-opacity: 0.1"/>
    <path d="M 222.484228 -30.183676 
L 203.988686 -76.199031 
L 209.617638 -89.686396 
L 228.169608 -43.361494 
z
" clip-path="url(#p2c3f03dab6)" style="fill: #0000f5; fill-opacity: 0.1"/>
    <path d="M 324.301552 87.185068 
L 306.433183 41.892553 
L 312.569678 28.990148 
L 330.488264 74.585053 
z
" clip-path="url(#p2c3f03dab6)" style="fill: #0000f5; fill-opacity: 0.1"/>
    <path d="M 198.414959 -62.843988 
L 179.748152 -109.117521 
L 185.26384 -122.784874 
L 203.988686 -76.199031 
z
" clip-path="url(#p2c3f03dab6)" style="fill: #0000f5; fill-opacity: 0.1"/>
    <path d="M 300.356893 54.668374 
L 282.3188 9.119457 
L 288.343285 -3.961491 
L 306.433183 41.892553 
z
" clip-path="url(#p2c3f03dab6)" style="fill: #0000f5; fill-opacity: 0.1"/>
    <path d="M 174.286643 -95.58442 
L 155.447785 -142.117263 
L 160.849631 -155.965454 
L 179.748152 -109.117521 
z
" clip-path="url(#p2c3f03dab6)" style="fill: #0000f5; fill-opacity: 0.1"/>
    <path d="M 276.353493 22.071912 
L 258.144896 -23.734533 
L 264.056797 -36.994869 
L 282.3188 9.119457 
z
" clip-path="url(#p2c3f03dab6)" style="fill: #0000f5; fill-opacity: 0.1"/>
    <path d="M 252.291138 -10.604612 
L 233.911249 -56.669717 
L 239.70999 -70.11029 
L 258.144896 -23.734533 
z
" clip-path="url(#p2c3f03dab6)" style="fill: #0000f5; fill-opacity: 0.1"/>
    <path d="M 354.484261 107.197255 
L 336.736198 61.860351 
L 343.046268 49.009101 
L 360.843068 94.64942 
z
" clip-path="url(#p2c3f03dab6)" style="fill: #0000f5; fill-opacity: 0.1"/>
    <path d="M 228.169608 -43.361494 
L 209.617638 -89.686396 
L 215.30264 -103.30806 
L 233.911249 -56.669717 
z
" clip-path="url(#p2c3f03dab6)" style="fill: #0000f5; fill-opacity: 0.1"/>
    <path d="M 330.488264 74.585053 
L 312.569678 28.990148 
L 318.767276 15.959268 
L 336.736198 61.860351 
z
" clip-path="url(#p2c3f03dab6)" style="fill: #0000f5; fill-opacity: 0.1"/>
    <path d="M 203.988686 -76.199031 
L 185.26384 -122.784874 
L 190.834518 -136.588487 
L 209.617638 -89.686396 
z
" clip-path="url(#p2c3f03dab6)" style="fill: #0000f5; fill-opacity: 0.1"/>
    <path d="M 306.433183 41.892553 
L 288.343285 -3.961491 
L 294.427833 -17.172854 
L 312.569678 28.990148 
z
" clip-path="url(#p2c3f03dab6)" style="fill: #0000f5; fill-opacity: 0.1"/>
    <path d="M 179.748152 -109.117521 
L 160.849631 -155.965454 
L 166.3054 -169.951879 
L 185.26384 -122.784874 
z
" clip-path="url(#p2c3f03dab6)" style="fill: #0000f5; fill-opacity: 0.1"/>
    <path d="M 282.3188 9.119457 
L 264.056797 -36.994869 
L 270.027713 -50.387572 
L 288.343285 -3.961491 
z
" clip-path="url(#p2c3f03dab6)" style="fill: #0000f5; fill-opacity: 0.1"/>
    <path d="M 258.144896 -23.734533 
L 239.70999 -70.11029 
L 245.566688 -83.685196 
L 264.056797 -36.994869 
z
" clip-path="url(#p2c3f03dab6)" style="fill: #0000f5; fill-opacity: 0.1"/>
    <path d="M 233.911249 -56.669717 
L 215.30264 -103.30806 
L 221.044532 -117.066037 
L 239.70999 -70.11029 
z
" clip-path="url(#p2c3f03dab6)" style="fill: #0000f5; fill-opacity: 0.1"/>
    <path d="M 336.736198 61.860351 
L 318.767276 15.959268 
L 325.026895 2.797986 
L 343.046268 49.009101 
z
" clip-path="url(#p2c3f03dab6)" style="fill: #0000f5; fill-opacity: 0.1"/>
    <path d="M 209.617638 -89.686396 
L 190.834518 -136.588487 
L 196.461013 -150.530407 
L 215.30264 -103.30806 
z
" clip-path="url(#p2c3f03dab6)" style="fill: #0000f5; fill-opacity: 0.1"/>
    <path d="M 312.569678 28.990148 
L 294.427833 -17.172854 
L 300.573346 -30.516591 
L 318.767276 15.959268 
z
" clip-path="url(#p2c3f03dab6)" style="fill: #0000f5; fill-opacity: 0.1"/>
    <path d="M 185.26384 -122.784874 
L 166.3054 -169.951879 
L 171.815902 -184.07862 
L 190.834518 -136.588487 
z
" clip-path="url(#p2c3f03dab6)" style="fill: #0000f5; fill-opacity: 0.1"/>
    <path d="M 288.343285 -3.961491 
L 270.027713 -50.387572 
L 276.05853 -63.914635 
L 294.427833 -17.172854 
z
" clip-path="url(#p2c3f03dab6)" style="fill: #0000f5; fill-opacity: 0.1"/>
    <path d="M 264.056797 -36.994869 
L 245.566688 -83.685196 
L 251.482216 -97.396462 
L 270.027713 -50.387572 
z
" clip-path="url(#p2c3f03dab6)" style="fill: #0000f5; fill-opacity: 0.1"/>
    <path d="M 239.70999 -70.11029 
L 221.044532 -117.066037 
L 226.844173 -130.962386 
L 245.566688 -83.685196 
z
" clip-path="url(#p2c3f03dab6)" style="fill: #0000f5; fill-opacity: 0.1"/>
    <path d="M 215.30264 -103.30806 
L 196.461013 -150.530407 
L 202.144167 -164.612725 
L 221.044532 -117.066037 
z
" clip-path="url(#p2c3f03dab6)" style="fill: #0000f5; fill-opacity: 0.1"/>
    <path d="M 318.767276 15.959268 
L 300.573346 -30.516591 
L 306.780746 -43.994702 
L 325.026895 2.797986 
z
" clip-path="url(#p2c3f03dab6)" style="fill: #0000f5; fill-opacity: 0.1"/>
    <path d="M 190.834518 -136.588487 
L 171.815902 -184.07862 
L 177.381966 -198.347799 
L 196.461013 -150.530407 
z
" clip-path="url(#p2c3f03dab6)" style="fill: #0000f5; fill-opacity: 0.1"/>
    <path d="M 294.427833 -17.172854 
L 276.05853 -63.914635 
L 282.150155 -77.57809 
L 300.573346 -30.516591 
z
" clip-path="url(#p2c3f03dab6)" style="fill: #0000f5; fill-opacity: 0.1"/>
    <path d="M 270.027713 -50.387572 
L 251.482216 -97.396462 
L 257.457465 -111.24615 
L 276.05853 -63.914635 
z
" clip-path="url(#p2c3f03dab6)" style="fill: #0000f5; fill-opacity: 0.1"/>
    <path d="M 245.566688 -83.685196 
L 226.844173 -130.962386 
L 232.702439 -144.999203 
L 251.482216 -97.396462 
z
" clip-path="url(#p2c3f03dab6)" style="fill: #0000f5; fill-opacity: 0.1"/>
    <path d="M 221.044532 -117.066037 
L 202.144167 -164.612725 
L 207.884841 -178.837572 
L 226.844173 -130.962386 
z
" clip-path="url(#p2c3f03dab6)" style="fill: #0000f5; fill-opacity: 0.1"/>
    <path d="M 196.461013 -150.530407 
L 177.381966 -198.347799 
L 183.004435 -212.761579 
L 202.144167 -164.612725 
z
" clip-path="url(#p2c3f03dab6)" style="fill: #0000f5; fill-opacity: 0.1"/>
    <path d="M 300.573346 -30.516591 
L 282.150155 -77.57809 
L 288.303513 -91.380009 
L 306.780746 -43.994702 
z
" clip-path="url(#p2c3f03dab6)" style="fill: #0000f5; fill-opacity: 0.1"/>
    <path d="M 276.05853 -63.914635 
L 257.457465 -111.24615 
L 263.493343 -125.236368 
L 282.150155 -77.57809 
z
" clip-path="url(#p2c3f03dab6)" style="fill: #0000f5; fill-opacity: 0.1"/>
    <path d="M 251.482216 -97.396462 
L 232.702439 -144.999203 
L 238.620223 -159.17863 
L 257.457465 -111.24615 
z
" clip-path="url(#p2c3f03dab6)" style="fill: #0000f5; fill-opacity: 0.1"/>
    <path d="M 226.844173 -130.962386 
L 207.884841 -178.837572 
L 213.683913 -193.207121 
L 232.702439 -144.999203 
z
" clip-path="url(#p2c3f03dab6)" style="fill: #0000f5; fill-opacity: 0.1"/>
    <path d="M 202.144167 -164.612725 
L 183.004435 -212.761579 
L 188.684172 -227.322172 
L 207.884841 -178.837572 
z
" clip-path="url(#p2c3f03dab6)" style="fill: #0000f5; fill-opacity: 0.1"/>
    <path d="M 282.150155 -77.57809 
L 263.493343 -125.236368 
L 269.590778 -139.369266 
L 288.303513 -91.380009 
z
" clip-path="url(#p2c3f03dab6)" style="fill: #0000f5; fill-opacity: 0.1"/>
    <path d="M 257.457465 -111.24615 
L 238.620223 -159.17863 
L 244.598436 -173.502851 
L 263.493343 -125.236368 
z
" clip-path="url(#p2c3f03dab6)" style="fill: #0000f5; fill-opacity: 0.1"/>
    <path d="M 232.702439 -144.999203 
L 213.683913 -193.207121 
L 219.542278 -207.723594 
L 238.620223 -159.17863 
z
" clip-path="url(#p2c3f03dab6)" style="fill: #0000f5; fill-opacity: 0.1"/>
    <path d="M 207.884841 -178.837572 
L 188.684172 -227.322172 
L 194.422057 -242.031831 
L 213.683913 -193.207121 
z
" clip-path="url(#p2c3f03dab6)" style="fill: #0000f5; fill-opacity: 0.1"/>
    <path d="M 263.493343 -125.236368 
L 244.598436 -173.502851 
L 250.63801 -187.974094 
L 269.590778 -139.369266 
z
" clip-path="url(#p2c3f03dab6)" style="fill: #0000f5; fill-opacity: 0.1"/>
    <path d="M 238.620223 -159.17863 
L 219.542278 -207.723594 
L 225.460849 -222.389254 
L 244.598436 -173.502851 
z
" clip-path="url(#p2c3f03dab6)" style="fill: #0000f5; fill-opacity: 0.1"/>
    <path d="M 213.683913 -193.207121 
L 194.422057 -242.031831 
L 200.218986 -256.892857 
L 219.542278 -207.723594 
z
" clip-path="url(#p2c3f03dab6)" style="fill: #0000f5; fill-opacity: 0.1"/>
    <path d="M 244.598436 -173.502851 
L 225.460849 -222.389254 
L 231.440561 -237.206413 
L 250.63801 -187.974094 
z
" clip-path="url(#p2c3f03dab6)" style="fill: #0000f5; fill-opacity: 0.1"/>
    <path d="M 219.542278 -207.723594 
L 200.218986 -256.892857 
L 206.075876 -271.907599 
L 225.460849 -222.389254 
z
" clip-path="url(#p2c3f03dab6)" style="fill: #0000f5; fill-opacity: 0.1"/>
    <path d="M 225.460849 -222.389254 
L 206.075876 -271.907599 
L 211.993662 -287.078454 
L 231.440561 -237.206413 
z
" clip-path="url(#p2c3f03dab6)" style="fill: #0000f5; fill-opacity: 0.1"/>
   </g>
   <g id="legend_1">
    <g id="patch_6">
     <path d="M 357.840076 67.305115 
L 396.2 67.305115 
Q 398.2 67.305115 398.2 65.305115 
L 398.2 7 
Q 398.2 5 396.2 5 
L 357.840076 5 
Q 355.840076 5 355.840076 7 
L 355.840076 65.305115 
Q 355.840076 67.305115 357.840076 67.305115 
z
" style="fill: #ffffff; opacity: 0.8; stroke: #cccccc; stroke-linejoin: miter"/>
    </g>
    <g id="line2d_25">
     <path d="M 359.840076 12.5 
L 369.840076 12.5 
L 379.840076 12.5 
" style="fill: none; stroke: #ff0000; stroke-width: 1.5; stroke-linecap: square"/>
    </g>
    <g id="text_21">
     <!-- $\vec{a}$ -->
     <g transform="translate(387.840076 16)scale(0.1 -0.1)">
      <defs>
       <path id="CMMI12-7e" d="M 3424 3835 
C 3347 3764 3110 3540 3110 3451 
C 3110 3387 3168 3329 3232 3329 
C 3290 3329 3315 3368 3360 3432 
C 3514 3624 3686 3745 3834 3828 
C 3898 3867 3942 3886 3942 3956 
C 3942 4014 3891 4046 3853 4078 
C 3674 4200 3629 4372 3610 4449 
C 3590 4500 3571 4577 3482 4577 
C 3443 4577 3366 4552 3366 4456 
C 3366 4398 3405 4244 3526 4072 
L 1376 4072 
C 1267 4072 1158 4072 1158 3950 
C 1158 3835 1274 3835 1376 3835 
L 3424 3835 
z
" transform="scale(0.015625)"/>
       <path id="CMMI12-61" d="M 1926 760 
C 1894 651 1894 639 1805 517 
C 1664 338 1382 64 1082 64 
C 819 64 672 300 672 677 
C 672 1028 870 1743 992 2012 
C 1210 2459 1510 2689 1760 2689 
C 2182 2689 2266 2165 2266 2114 
C 2266 2108 2246 2024 2240 2012 
L 1926 760 
z
M 2336 2395 
C 2266 2561 2093 2816 1760 2816 
C 1037 2816 256 1884 256 939 
C 256 307 627 -64 1062 -64 
C 1414 -64 1715 211 1894 422 
C 1958 45 2259 -64 2451 -64 
C 2643 -64 2797 51 2912 281 
C 3014 498 3104 888 3104 913 
C 3104 945 3078 971 3040 971 
C 2982 971 2976 939 2950 843 
C 2854 466 2733 64 2470 64 
C 2285 64 2272 230 2272 358 
C 2272 505 2291 575 2349 824 
C 2394 984 2426 1124 2477 1309 
C 2714 2267 2771 2497 2771 2535 
C 2771 2625 2701 2695 2605 2695 
C 2400 2695 2349 2472 2336 2395 
z
" transform="scale(0.015625)"/>
      </defs>
      <use xlink:href="#CMMI12-7e" transform="scale(0.996264)"/>
      <use xlink:href="#CMMI12-61" transform="translate(6.445738 0)scale(0.996264)"/>
     </g>
    </g>
    <g id="line2d_26">
     <path d="M 359.840076 27.24679 
L 369.840076 27.24679 
L 379.840076 27.24679 
" style="fill: none; stroke: #00ff00; stroke-width: 1.5; stroke-linecap: square"/>
    </g>
    <g id="text_22">
     <!-- $\vec{b}$ -->
     <g transform="translate(387.840076 30.74679)scale(0.1 -0.1)">
      <defs>
       <path id="CMMI12-62" d="M 1478 4257 
C 1485 4283 1498 4321 1498 4352 
C 1498 4416 1434 4416 1421 4416 
C 1414 4416 1184 4393 1069 4377 
C 960 4377 864 4358 749 4358 
C 595 4345 550 4339 550 4224 
C 550 4160 614 4160 678 4160 
C 1005 4160 1005 4103 1005 4040 
C 1005 3996 954 3811 928 3696 
L 774 3085 
C 710 2831 346 1387 320 1272 
C 288 1114 288 1005 288 922 
C 288 274 653 -64 1069 -64 
C 1811 -64 2579 888 2579 1814 
C 2579 2401 2246 2816 1766 2816 
C 1434 2816 1133 2542 1011 2414 
L 1478 4257 
z
M 1075 64 
C 870 64 646 217 646 715 
C 646 926 666 1047 781 1494 
C 800 1577 902 1986 928 2069 
C 941 2120 1318 2689 1754 2689 
C 2035 2689 2163 2408 2163 2076 
C 2163 1769 1984 1047 1824 715 
C 1664 370 1370 64 1075 64 
z
" transform="scale(0.015625)"/>
      </defs>
      <use xlink:href="#CMMI12-7e" transform="translate(0 26.29016)scale(0.996264)"/>
      <use xlink:href="#CMMI12-62" transform="translate(11.311737 0)scale(0.996264)"/>
     </g>
    </g>
    <g id="line2d_27">
     <path d="M 359.840076 41.183968 
L 369.840076 41.183968 
L 379.840076 41.183968 
" style="fill: none; stroke: #0016ff; stroke-width: 1.5; stroke-linecap: square"/>
    </g>
    <g id="text_23">
     <!-- $\vec{c}$ -->
     <g transform="translate(387.840076 44.683968)scale(0.1 -0.1)">
      <defs>
       <path id="CMMI12-63" d="M 2502 2431 
C 2381 2431 2323 2431 2234 2355 
C 2195 2323 2125 2227 2125 2125 
C 2125 1997 2221 1920 2342 1920 
C 2496 1920 2669 2044 2669 2292 
C 2669 2588 2374 2816 1933 2816 
C 1094 2816 256 1903 256 996 
C 256 441 602 -64 1254 -64 
C 2125 -64 2675 622 2675 706 
C 2675 744 2637 776 2611 776 
C 2592 776 2586 770 2528 713 
C 2118 162 1510 64 1267 64 
C 826 64 685 446 685 764 
C 685 988 794 1605 1024 2039 
C 1190 2338 1536 2682 1939 2682 
C 2022 2682 2374 2682 2502 2431 
z
" transform="scale(0.015625)"/>
      </defs>
      <use xlink:href="#CMMI12-7e" transform="scale(0.996264)"/>
      <use xlink:href="#CMMI12-63" transform="translate(5.638615 0)scale(0.996264)"/>
     </g>
    </g>
    <g id="line2d_28">
     <path d="M 359.840076 57.867937 
L 369.840076 57.867937 
L 379.840076 57.867937 
" style="fill: none; stroke: #f400ff; stroke-width: 1.5; stroke-linecap: square"/>
    </g>
    <g id="text_24">
     <!-- $\vec{f}$ -->
     <g transform="translate(387.840076 61.367937)scale(0.1 -0.1)">
      <defs>
       <path id="CMMI12-66" d="M 2854 2566 
C 2982 2566 3034 2566 3034 2688 
C 3034 2752 2982 2752 2867 2752 
L 2349 2752 
C 2470 3429 2560 3897 2611 4107 
C 2650 4265 2784 4416 2950 4416 
C 3085 4416 3219 4358 3283 4298 
C 3034 4272 2957 4082 2957 3969 
C 2957 3837 3053 3759 3174 3759 
C 3302 3759 3494 3870 3494 4119 
C 3494 4393 3226 4544 2944 4544 
C 2669 4544 2400 4334 2272 4078 
C 2157 3848 2093 3611 1946 2752 
L 1517 2752 
C 1395 2752 1331 2752 1331 2637 
C 1331 2566 1370 2566 1498 2566 
L 1907 2566 
C 1792 1976 1530 542 1382 -137 
C 1274 -689 1178 -1152 858 -1152 
C 838 -1152 653 -1152 538 -1031 
C 864 -1005 864 -726 864 -720 
C 864 -593 768 -517 646 -517 
C 518 -517 326 -625 326 -867 
C 326 -1140 608 -1280 858 -1280 
C 1510 -1280 1779 -118 1850 199 
C 1965 688 2278 2376 2310 2566 
L 2854 2566 
z
" transform="scale(0.015625)"/>
      </defs>
      <use xlink:href="#CMMI12-7e" transform="translate(13.568792 26.29016)scale(0.996264)"/>
      <use xlink:href="#CMMI12-66" transform="scale(0.996264)"/>
     </g>
    </g>
   </g>
  </g>
 </g>
 <defs>
  <clipPath id="p2c3f03dab6">
   <rect x="57.6" y="0" width="345.6" height="345.6"/>
  </clipPath>
 </defs>
</svg>
