<?xml version="1.0" encoding="utf-8" standalone="no"?>
<!DOCTYPE svg PUBLIC "-//W3C//DTD SVG 1.1//EN"
  "http://www.w3.org/Graphics/SVG/1.1/DTD/svg11.dtd">
<svg xmlns:xlink="http://www.w3.org/1999/xlink" width="460.8pt" height="345.6pt" viewBox="0 0 460.8 345.6" xmlns="http://www.w3.org/2000/svg" version="1.1">
 <metadata>
  <rdf:RDF xmlns:dc="http://purl.org/dc/elements/1.1/" xmlns:cc="http://creativecommons.org/ns#" xmlns:rdf="http://www.w3.org/1999/02/22-rdf-syntax-ns#">
   <cc:Work>
    <dc:type rdf:resource="http://purl.org/dc/dcmitype/StillImage"/>
    <dc:date>2022-07-12T15:41:36.094840</dc:date>
    <dc:format>image/svg+xml</dc:format>
    <dc:creator>
     <cc:Agent>
      <dc:title>Matplotlib v3.5.1, https://matplotlib.org/</dc:title>
     </cc:Agent>
    </dc:creator>
   </cc:Work>
  </rdf:RDF>
 </metadata>
 <defs>
  <style type="text/css">*{stroke-linejoin: round; stroke-linecap: butt}</style>
 </defs>
 <g id="figure_1">
  <g id="patch_1">
   <path d="M 0 345.6 
L 460.8 345.6 
L 460.8 0 
L 0 0 
z
" style="fill: #ffffff"/>
  </g>
  <g id="patch_2">
   <path d="M 57.6 345.6 
L 403.2 345.6 
L 403.2 0 
L 57.6 0 
z
" style="fill: #ffffff"/>
  </g>
  <g id="pane3d_1">
   <g id="patch_3">
    <path d="M 272.710591 245.256182 
L 390.351217 253.384887 
L 390.351217 82.874573 
L 272.710591 91.003278 
" style="fill: #f2f2f2; opacity: 0.5; stroke: #f2f2f2; stroke-linejoin: miter"/>
   </g>
  </g>
  <g id="pane3d_2">
   <g id="patch_4">
    <path d="M 272.710591 245.256182 
L 86.41133 249.749152 
L 86.41133 86.510307 
L 272.710591 91.003278 
" style="fill: #e6e6e6; opacity: 0.5; stroke: #e6e6e6; stroke-linejoin: miter"/>
   </g>
  </g>
  <g id="pane3d_3">
   <g id="patch_5">
    <path d="M 272.710591 245.256182 
L 86.41133 249.749152 
L 190.767034 258.908749 
L 390.351217 253.384887 
" style="fill: #ececec; opacity: 0.5; stroke: #ececec; stroke-linejoin: miter"/>
   </g>
  </g>
  <g id="axis3d_1">
   <g id="line2d_1">
    <path d="M 390.351217 253.384887 
L 190.767034 258.908749 
" style="fill: none; stroke: #000000; stroke-width: 0.8; stroke-linecap: square"/>
   </g>
   <g id="text_1">
    <!-- x -->
    <g transform="translate(307.552249 286.192609)scale(0.16 -0.16)">
     <defs>
      <path id="CMSS17-78" d="M 1587 1414 
L 2656 2739 
L 2099 2739 
L 1363 1777 
L 602 2739 
L 32 2739 
L 1139 1414 
L 0 0 
L 563 0 
L 1363 1121 
L 2195 0 
L 2758 0 
L 1587 1414 
z
" transform="scale(0.015625)"/>
     </defs>
     <use xlink:href="#CMSS17-78" transform="scale(0.996264)"/>
    </g>
   </g>
   <g id="Line3DCollection_1">
    <path d="M 386.597858 253.488768 
L 269.185833 245.341188 
L 269.185833 90.918271 
" style="fill: none; stroke: #b0b0b0; stroke-width: 0.8"/>
    <path d="M 350.094714 254.49906 
L 234.948598 246.166886 
L 234.948598 90.092574 
" style="fill: none; stroke: #b0b0b0; stroke-width: 0.8"/>
    <path d="M 312.717133 255.533554 
L 199.971183 247.010435 
L 199.971183 89.249025 
" style="fill: none; stroke: #b0b0b0; stroke-width: 0.8"/>
    <path d="M 274.433313 256.59313 
L 164.229323 247.872419 
L 164.229323 88.38704 
" style="fill: none; stroke: #b0b0b0; stroke-width: 0.8"/>
    <path d="M 235.209891 257.678711 
L 127.69768 248.753451 
L 127.69768 87.506008 
" style="fill: none; stroke: #b0b0b0; stroke-width: 0.8"/>
    <path d="M 195.011847 258.791266 
L 90.349783 249.654169 
L 90.349783 86.60529 
" style="fill: none; stroke: #b0b0b0; stroke-width: 0.8"/>
   </g>
   <g id="xtick_1">
    <g id="line2d_2">
     <path d="M 385.56032 253.41677 
L 388.678197 253.633129 
" style="fill: none; stroke: #000000; stroke-width: 0.8; stroke-linecap: square"/>
    </g>
    <g id="text_2">
     <!-- $\mathdefault{0}$ -->
     <g transform="translate(392.456364 271.96766)scale(0.1 -0.1)">
      <defs>
       <path id="CMR17-30" d="M 2688 2025 
C 2688 2416 2682 3080 2413 3591 
C 2176 4039 1798 4198 1466 4198 
C 1158 4198 768 4058 525 3597 
C 269 3118 243 2524 243 2025 
C 243 1661 250 1106 448 619 
C 723 -39 1216 -128 1466 -128 
C 1760 -128 2208 -7 2470 600 
C 2662 1042 2688 1559 2688 2025 
z
M 1466 -26 
C 1056 -26 813 325 723 812 
C 653 1188 653 1738 653 2096 
C 653 2588 653 2997 736 3387 
C 858 3929 1216 4096 1466 4096 
C 1728 4096 2067 3923 2189 3400 
C 2272 3036 2278 2607 2278 2096 
C 2278 1680 2278 1169 2202 792 
C 2067 95 1690 -26 1466 -26 
z
" transform="scale(0.015625)"/>
      </defs>
      <use xlink:href="#CMR17-30" transform="scale(0.996264)"/>
     </g>
    </g>
   </g>
   <g id="xtick_2">
    <g id="line2d_3">
     <path d="M 349.07606 254.425349 
L 352.137251 254.646862 
" style="fill: none; stroke: #000000; stroke-width: 0.8; stroke-linecap: square"/>
    </g>
    <g id="text_3">
     <!-- $\mathdefault{1}$ -->
     <g transform="translate(355.802 273.122658)scale(0.1 -0.1)">
      <defs>
       <path id="CMR17-31" d="M 1702 4058 
C 1702 4192 1696 4192 1606 4192 
C 1357 3916 979 3827 621 3827 
C 602 3827 570 3827 563 3808 
C 557 3795 557 3782 557 3648 
C 755 3648 1088 3686 1344 3839 
L 1344 461 
C 1344 236 1331 160 781 160 
L 589 160 
L 589 0 
C 896 0 1216 0 1523 0 
C 1830 0 2150 0 2458 0 
L 2458 160 
L 2266 160 
C 1715 160 1702 230 1702 458 
L 1702 4058 
z
" transform="scale(0.015625)"/>
      </defs>
      <use xlink:href="#CMR17-31" transform="scale(0.996264)"/>
     </g>
    </g>
   </g>
   <g id="xtick_3">
    <g id="line2d_4">
     <path d="M 311.71857 255.458067 
L 314.719447 255.684921 
" style="fill: none; stroke: #000000; stroke-width: 0.8; stroke-linecap: square"/>
    </g>
    <g id="text_4">
     <!-- $\mathdefault{2}$ -->
     <g transform="translate(318.263473 274.305516)scale(0.1 -0.1)">
      <defs>
       <path id="CMR17-32" d="M 2669 989 
L 2554 989 
C 2490 536 2438 459 2413 420 
C 2381 369 1920 369 1830 369 
L 602 369 
C 832 619 1280 1072 1824 1597 
C 2214 1967 2669 2402 2669 3035 
C 2669 3790 2067 4224 1395 4224 
C 691 4224 262 3604 262 3030 
C 262 2780 448 2748 525 2748 
C 589 2748 781 2787 781 3010 
C 781 3207 614 3264 525 3264 
C 486 3264 448 3258 422 3245 
C 544 3790 915 4058 1306 4058 
C 1862 4058 2227 3617 2227 3035 
C 2227 2479 1901 2000 1536 1584 
L 262 146 
L 262 0 
L 2515 0 
L 2669 989 
z
" transform="scale(0.015625)"/>
      </defs>
      <use xlink:href="#CMR17-32" transform="scale(0.996264)"/>
     </g>
    </g>
   </g>
   <g id="xtick_4">
    <g id="line2d_5">
     <path d="M 273.45612 256.515802 
L 276.392837 256.748192 
" style="fill: none; stroke: #000000; stroke-width: 0.8; stroke-linecap: square"/>
    </g>
    <g id="text_5">
     <!-- $\mathdefault{3}$ -->
     <g transform="translate(279.808401 275.517255)scale(0.1 -0.1)">
      <defs>
       <path id="CMR17-33" d="M 1414 2157 
C 1984 2157 2234 1662 2234 1090 
C 2234 320 1824 25 1453 25 
C 1114 25 563 194 390 693 
C 422 680 454 680 486 680 
C 640 680 755 782 755 948 
C 755 1133 614 1216 486 1216 
C 378 1216 211 1165 211 926 
C 211 335 787 -128 1466 -128 
C 2176 -128 2720 430 2720 1085 
C 2720 1707 2208 2157 1600 2227 
C 2086 2328 2554 2756 2554 3329 
C 2554 3820 2048 4179 1472 4179 
C 890 4179 378 3829 378 3329 
C 378 3110 544 3072 627 3072 
C 762 3072 877 3155 877 3321 
C 877 3486 762 3569 627 3569 
C 602 3569 570 3569 544 3557 
C 730 3959 1235 4032 1459 4032 
C 1683 4032 2106 3925 2106 3320 
C 2106 3143 2080 2828 1862 2550 
C 1670 2304 1453 2304 1242 2284 
C 1210 2284 1062 2269 1037 2269 
C 992 2263 966 2257 966 2208 
C 966 2163 973 2157 1101 2157 
L 1414 2157 
z
" transform="scale(0.015625)"/>
      </defs>
      <use xlink:href="#CMR17-33" transform="scale(0.996264)"/>
     </g>
    </g>
   </g>
   <g id="xtick_5">
    <g id="line2d_6">
     <path d="M 234.255424 257.599475 
L 237.123907 257.837605 
" style="fill: none; stroke: #000000; stroke-width: 0.8; stroke-linecap: square"/>
    </g>
    <g id="text_6">
     <!-- $\mathdefault{4}$ -->
     <g transform="translate(240.402801 276.758945)scale(0.1 -0.1)">
      <defs>
       <path id="CMR17-34" d="M 2150 4122 
C 2150 4256 2144 4256 2029 4256 
L 128 1254 
L 128 1088 
L 1779 1088 
L 1779 457 
C 1779 224 1766 160 1318 160 
L 1197 160 
L 1197 0 
C 1402 0 1747 0 1965 0 
C 2182 0 2528 0 2733 0 
L 2733 160 
L 2611 160 
C 2163 160 2150 224 2150 457 
L 2150 1088 
L 2803 1088 
L 2803 1254 
L 2150 1254 
L 2150 4122 
z
M 1798 3703 
L 1798 1254 
L 256 1254 
L 1798 3703 
z
" transform="scale(0.015625)"/>
      </defs>
      <use xlink:href="#CMR17-34" transform="scale(0.996264)"/>
     </g>
    </g>
   </g>
   <g id="xtick_6">
    <g id="line2d_7">
     <path d="M 194.081542 258.71005 
L 196.87747 258.954137 
" style="fill: none; stroke: #000000; stroke-width: 0.8; stroke-linecap: square"/>
    </g>
    <g id="text_7">
     <!-- $\mathdefault{5}$ -->
     <g transform="translate(200.01099 278.031712)scale(0.1 -0.1)">
      <defs>
       <path id="CMR17-35" d="M 730 3692 
C 794 3666 1056 3584 1325 3584 
C 1920 3584 2246 3911 2432 4100 
C 2432 4157 2432 4192 2394 4192 
C 2387 4192 2374 4192 2323 4163 
C 2099 4058 1837 3973 1517 3973 
C 1325 3973 1037 3999 723 4139 
C 653 4171 640 4171 634 4171 
C 602 4171 595 4164 595 4037 
L 595 2203 
C 595 2089 595 2057 659 2057 
C 691 2057 704 2070 736 2114 
C 941 2401 1222 2522 1542 2522 
C 1766 2522 2246 2382 2246 1289 
C 2246 1085 2246 715 2054 421 
C 1894 159 1645 25 1370 25 
C 947 25 518 320 403 814 
C 429 807 480 795 506 795 
C 589 795 749 840 749 1038 
C 749 1210 627 1280 506 1280 
C 358 1280 262 1190 262 1011 
C 262 454 704 -128 1382 -128 
C 2042 -128 2669 440 2669 1264 
C 2669 2030 2170 2624 1549 2624 
C 1222 2624 947 2503 730 2274 
L 730 3692 
z
" transform="scale(0.015625)"/>
      </defs>
      <use xlink:href="#CMR17-35" transform="scale(0.996264)"/>
     </g>
    </g>
   </g>
  </g>
  <g id="axis3d_2">
   <g id="line2d_8">
    <path d="M 86.41133 249.749152 
L 190.767034 258.908749 
" style="fill: none; stroke: #000000; stroke-width: 0.8; stroke-linecap: square"/>
   </g>
   <g id="text_8">
    <!-- y -->
    <g transform="translate(103.586758 282.891221)scale(0.16 -0.16)">
     <defs>
      <path id="CMSS17-79" d="M 2675 2752 
L 2176 2752 
C 1632 1294 1446 702 1434 383 
L 1427 383 
C 1408 696 1126 1460 902 2007 
L 602 2752 
L 83 2752 
L 1216 13 
C 1146 -178 1043 -465 1011 -529 
C 870 -885 774 -885 672 -885 
C 646 -885 442 -885 211 -809 
L 250 -1229 
C 410 -1261 570 -1280 685 -1280 
C 845 -1280 1165 -1280 1459 -497 
L 2675 2752 
z
" transform="scale(0.015625)"/>
     </defs>
     <use xlink:href="#CMSS17-79" transform="scale(0.996264)"/>
    </g>
   </g>
   <g id="Line3DCollection_2">
    <path d="M 285.193854 90.140712 
L 285.193854 246.118747 
L 97.424069 250.715772 
" style="fill: none; stroke: #b0b0b0; stroke-width: 0.8"/>
    <path d="M 306.480932 88.669823 
L 306.480932 247.589637 
L 116.236694 252.36701 
" style="fill: none; stroke: #b0b0b0; stroke-width: 0.8"/>
    <path d="M 328.586402 87.142384 
L 328.586402 249.117076 
L 135.816952 254.085624 
" style="fill: none; stroke: #b0b0b0; stroke-width: 0.8"/>
    <path d="M 351.558386 85.555071 
L 351.558386 250.704389 
L 156.212806 255.875827 
" style="fill: none; stroke: #b0b0b0; stroke-width: 0.8"/>
    <path d="M 375.448851 83.904293 
L 375.448851 252.355166 
L 177.476298 257.742184 
" style="fill: none; stroke: #b0b0b0; stroke-width: 0.8"/>
   </g>
   <g id="xtick_7">
    <g id="line2d_9">
     <path d="M 99.014022 250.676846 
L 94.239662 250.793733 
" style="fill: none; stroke: #000000; stroke-width: 0.8; stroke-linecap: square"/>
    </g>
    <g id="text_9">
     <!-- $\mathdefault{−4}$ -->
     <g transform="translate(78.307484 268.539008)scale(0.1 -0.1)">
      <defs>
       <path id="CMSY10-0" d="M 4218 1472 
C 4326 1472 4442 1472 4442 1600 
C 4442 1728 4326 1728 4218 1728 
L 755 1728 
C 646 1728 531 1728 531 1600 
C 531 1472 646 1472 755 1472 
L 4218 1472 
z
" transform="scale(0.015625)"/>
      </defs>
      <use xlink:href="#CMSY10-0" transform="scale(0.996264)"/>
      <use xlink:href="#CMR17-34" transform="translate(77.487468 0)scale(0.996264)"/>
     </g>
    </g>
   </g>
   <g id="xtick_8">
    <g id="line2d_10">
     <path d="M 117.849377 252.326512 
L 113.00667 252.448121 
" style="fill: none; stroke: #000000; stroke-width: 0.8; stroke-linecap: square"/>
    </g>
    <g id="text_10">
     <!-- $\mathdefault{−2}$ -->
     <g transform="translate(96.936711 270.415485)scale(0.1 -0.1)">
      <use xlink:href="#CMSY10-0" transform="scale(0.996264)"/>
      <use xlink:href="#CMR17-32" transform="translate(77.487468 0)scale(0.996264)"/>
     </g>
    </g>
   </g>
   <g id="xtick_9">
    <g id="line2d_11">
     <path d="M 137.452916 254.043458 
L 132.540203 254.170081 
" style="fill: none; stroke: #000000; stroke-width: 0.8; stroke-linecap: square"/>
    </g>
    <g id="text_11">
     <!-- $\mathdefault{0}$ -->
     <g transform="translate(120.203451 272.36883)scale(0.1 -0.1)">
      <use xlink:href="#CMR17-30" transform="scale(0.996264)"/>
     </g>
    </g>
   </g>
   <g id="xtick_10">
    <g id="line2d_12">
     <path d="M 157.872611 255.831886 
L 152.888201 255.96384 
" style="fill: none; stroke: #000000; stroke-width: 0.8; stroke-linecap: square"/>
    </g>
    <g id="text_12">
     <!-- $\mathdefault{2}$ -->
     <g transform="translate(140.406833 274.403868)scale(0.1 -0.1)">
      <use xlink:href="#CMR17-32" transform="scale(0.996264)"/>
     </g>
    </g>
   </g>
   <g id="xtick_11">
    <g id="line2d_13">
     <path d="M 179.160514 257.696355 
L 174.102689 257.833983 
" style="fill: none; stroke: #000000; stroke-width: 0.8; stroke-linecap: square"/>
    </g>
    <g id="text_13">
     <!-- $\mathdefault{4}$ -->
     <g transform="translate(161.473192 276.52583)scale(0.1 -0.1)">
      <use xlink:href="#CMR17-34" transform="scale(0.996264)"/>
     </g>
    </g>
   </g>
  </g>
  <g id="axis3d_3">
   <g id="line2d_14">
    <path d="M 86.41133 249.749152 
L 86.41133 86.510307 
" style="fill: none; stroke: #000000; stroke-width: 0.8; stroke-linecap: square"/>
   </g>
   <g id="text_14">
    <!-- z -->
    <g transform="translate(42.850227 172.114786)scale(0.16 -0.16)">
     <defs>
      <path id="CMSS17-7a" d="M 2400 2502 
L 2400 2750 
L 250 2750 
L 250 2368 
L 1069 2368 
C 1146 2368 1222 2368 1299 2368 
L 1747 2368 
L 166 261 
L 166 0 
L 2419 0 
L 2419 395 
L 1549 395 
C 1472 395 1395 395 1318 395 
L 826 395 
L 2400 2502 
z
" transform="scale(0.015625)"/>
     </defs>
     <use xlink:href="#CMSS17-7a" transform="scale(0.996264)"/>
    </g>
   </g>
   <g id="Line3DCollection_3">
    <path d="M 86.41133 246.484376 
L 272.710591 242.171124 
L 390.351217 249.97468 
" style="fill: none; stroke: #b0b0b0; stroke-width: 0.8"/>
    <path d="M 86.41133 215.142517 
L 272.710591 212.554566 
L 390.351217 217.2367 
" style="fill: none; stroke: #b0b0b0; stroke-width: 0.8"/>
    <path d="M 86.41133 183.800659 
L 272.710591 182.938008 
L 390.351217 184.49872 
" style="fill: none; stroke: #b0b0b0; stroke-width: 0.8"/>
    <path d="M 86.41133 152.458801 
L 272.710591 153.321451 
L 390.351217 151.76074 
" style="fill: none; stroke: #b0b0b0; stroke-width: 0.8"/>
    <path d="M 86.41133 121.116942 
L 272.710591 123.704893 
L 390.351217 119.022759 
" style="fill: none; stroke: #b0b0b0; stroke-width: 0.8"/>
    <path d="M 86.41133 89.775084 
L 272.710591 94.088336 
L 390.351217 86.284779 
" style="fill: none; stroke: #b0b0b0; stroke-width: 0.8"/>
   </g>
   <g id="xtick_12">
    <g id="line2d_15">
     <path d="M 87.987812 246.447876 
L 83.253955 246.557476 
" style="fill: none; stroke: #000000; stroke-width: 0.8; stroke-linecap: square"/>
    </g>
    <g id="text_15">
     <!-- $\mathdefault{0}$ -->
     <g transform="translate(65.380897 253.189972)scale(0.1 -0.1)">
      <use xlink:href="#CMR17-30" transform="scale(0.996264)"/>
     </g>
    </g>
   </g>
   <g id="xtick_13">
    <g id="line2d_16">
     <path d="M 87.987812 215.120618 
L 83.253955 215.186377 
" style="fill: none; stroke: #000000; stroke-width: 0.8; stroke-linecap: square"/>
    </g>
    <g id="text_16">
     <!-- $\mathdefault{1}$ -->
     <g transform="translate(65.380897 221.933274)scale(0.1 -0.1)">
      <use xlink:href="#CMR17-31" transform="scale(0.996264)"/>
     </g>
    </g>
   </g>
   <g id="xtick_14">
    <g id="line2d_17">
     <path d="M 87.987812 183.793359 
L 83.253955 183.815279 
" style="fill: none; stroke: #000000; stroke-width: 0.8; stroke-linecap: square"/>
    </g>
    <g id="text_17">
     <!-- $\mathdefault{2}$ -->
     <g transform="translate(65.380897 190.676577)scale(0.1 -0.1)">
      <use xlink:href="#CMR17-32" transform="scale(0.996264)"/>
     </g>
    </g>
   </g>
   <g id="xtick_15">
    <g id="line2d_18">
     <path d="M 87.987812 152.4661 
L 83.253955 152.44418 
" style="fill: none; stroke: #000000; stroke-width: 0.8; stroke-linecap: square"/>
    </g>
    <g id="text_18">
     <!-- $\mathdefault{3}$ -->
     <g transform="translate(65.380897 159.419879)scale(0.1 -0.1)">
      <use xlink:href="#CMR17-33" transform="scale(0.996264)"/>
     </g>
    </g>
   </g>
   <g id="xtick_16">
    <g id="line2d_19">
     <path d="M 87.987812 121.138842 
L 83.253955 121.073082 
" style="fill: none; stroke: #000000; stroke-width: 0.8; stroke-linecap: square"/>
    </g>
    <g id="text_19">
     <!-- $\mathdefault{4}$ -->
     <g transform="translate(65.380897 128.163182)scale(0.1 -0.1)">
      <use xlink:href="#CMR17-34" transform="scale(0.996264)"/>
     </g>
    </g>
   </g>
   <g id="xtick_17">
    <g id="line2d_20">
     <path d="M 87.987812 89.811583 
L 83.253955 89.701983 
" style="fill: none; stroke: #000000; stroke-width: 0.8; stroke-linecap: square"/>
    </g>
    <g id="text_20">
     <!-- $\mathdefault{5}$ -->
     <g transform="translate(65.380897 96.906484)scale(0.1 -0.1)">
      <use xlink:href="#CMR17-35" transform="scale(0.996264)"/>
     </g>
    </g>
   </g>
  </g>
  <g id="axes_1">
   <g id="line2d_21">
    <path d="M 324.949664 245.967568 
L 323.675351 87.050454 
" clip-path="url(#p5296749daf)" style="fill: none; stroke: #ff0000; stroke-width: 1.5; stroke-linecap: square"/>
   </g>
   <g id="line2d_22">
    <path d="M 324.949664 245.967568 
L 232.281088 121.287568 
" clip-path="url(#p5296749daf)" style="fill: none; stroke: #00ff00; stroke-width: 1.5; stroke-linecap: square"/>
   </g>
   <g id="line2d_23">
    <path d="M 324.949664 245.967568 
L 241.4451 -1 
" clip-path="url(#p5296749daf)" style="fill: none; stroke: #0016ff; stroke-width: 1.5; stroke-linecap: square"/>
   </g>
   <g id="line2d_24">
    <path d="M 324.949664 245.967568 
L 110.737545 152.135302 
" clip-path="url(#p5296749daf)" style="fill: none; stroke: #f400ff; stroke-width: 1.5; stroke-linecap: square"/>
   </g>
   <g id="Poly3DCollection_1">
    <path d="M 271.313995 353.791661 
L 254.265023 313.71773 
L 259.354458 303.141714 
L 276.454952 343.456766 
z
" clip-path="url(#p5296749daf)" style="fill: #0000f5; fill-opacity: 0.1"/>
    <path d="M 276.454952 343.456766 
L 259.354458 303.141714 
L 264.491305 292.467176 
L 281.643544 333.026109 
z
" clip-path="url(#p5296749daf)" style="fill: #0000f5; fill-opacity: 0.1"/>
    <path d="M 254.265023 313.71773 
L 237.033377 273.214421 
L 242.069885 262.392688 
L 259.354458 303.141714 
z
" clip-path="url(#p5296749daf)" style="fill: #0000f5; fill-opacity: 0.1"/>
    <path d="M 281.643544 333.026109 
L 264.491305 292.467176 
L 269.67623 281.692731 
L 286.880437 322.498353 
z
" clip-path="url(#p5296749daf)" style="fill: #0000f5; fill-opacity: 0.1"/>
    <path d="M 259.354458 303.141714 
L 242.069885 262.392688 
L 247.153565 251.469597 
L 264.491305 292.467176 
z
" clip-path="url(#p5296749daf)" style="fill: #0000f5; fill-opacity: 0.1"/>
    <path d="M 237.033377 273.214421 
L 219.616105 232.274796 
L 224.598243 221.20264 
L 242.069885 262.392688 
z
" clip-path="url(#p5296749daf)" style="fill: #0000f5; fill-opacity: 0.1"/>
    <path d="M 286.880437 322.498353 
L 269.67623 281.692731 
L 274.90991 270.81697 
L 292.166308 311.872136 
z
" clip-path="url(#p5296749daf)" style="fill: #0000f5; fill-opacity: 0.1"/>
    <path d="M 264.491305 292.467176 
L 247.153565 251.469597 
L 252.285084 240.443719 
L 269.67623 281.692731 
z
" clip-path="url(#p5296749daf)" style="fill: #0000f5; fill-opacity: 0.1"/>
    <path d="M 242.069885 262.392688 
L 224.598243 221.20264 
L 229.627298 210.026219 
L 247.153565 251.469597 
z
" clip-path="url(#p5296749daf)" style="fill: #0000f5; fill-opacity: 0.1"/>
    <path d="M 219.616105 232.274796 
L 202.010192 190.891765 
L 206.93648 179.564374 
L 224.598243 221.20264 
z
" clip-path="url(#p5296749daf)" style="fill: #0000f5; fill-opacity: 0.1"/>
    <path d="M 292.166308 311.872136 
L 274.90991 270.81697 
L 280.193036 259.838459 
L 297.501847 301.14607 
z
" clip-path="url(#p5296749daf)" style="fill: #0000f5; fill-opacity: 0.1"/>
    <path d="M 269.67623 281.692731 
L 252.285084 240.443719 
L 257.465119 229.313595 
L 274.90991 270.81697 
z
" clip-path="url(#p5296749daf)" style="fill: #0000f5; fill-opacity: 0.1"/>
    <path d="M 247.153565 251.469597 
L 229.627298 210.026219 
L 234.703935 198.744051 
L 252.285084 240.443719 
z
" clip-path="url(#p5296749daf)" style="fill: #0000f5; fill-opacity: 0.1"/>
    <path d="M 224.598243 221.20264 
L 206.93648 179.564374 
L 211.909411 168.12973 
L 229.627298 210.026219 
z
" clip-path="url(#p5296749daf)" style="fill: #0000f5; fill-opacity: 0.1"/>
    <path d="M 202.010192 190.891765 
L 184.212557 149.058087 
L 189.081474 137.470532 
L 206.93648 179.564374 
z
" clip-path="url(#p5296749daf)" style="fill: #0000f5; fill-opacity: 0.1"/>
    <path d="M 297.501847 301.14607 
L 280.193036 259.838459 
L 285.526313 248.755734 
L 302.887759 290.318742 
z
" clip-path="url(#p5296749daf)" style="fill: #0000f5; fill-opacity: 0.1"/>
    <path d="M 274.90991 270.81697 
L 257.465119 229.313595 
L 262.694362 218.07774 
L 280.193036 259.838459 
z
" clip-path="url(#p5296749daf)" style="fill: #0000f5; fill-opacity: 0.1"/>
    <path d="M 252.285084 240.443719 
L 234.703935 198.744051 
L 239.828834 187.354629 
L 257.465119 229.313595 
z
" clip-path="url(#p5296749daf)" style="fill: #0000f5; fill-opacity: 0.1"/>
    <path d="M 229.627298 210.026219 
L 211.909411 168.12973 
L 216.929653 156.586302 
L 234.703935 198.744051 
z
" clip-path="url(#p5296749daf)" style="fill: #0000f5; fill-opacity: 0.1"/>
    <path d="M 206.93648 179.564374 
L 189.081474 137.470532 
L 193.996746 125.772658 
L 211.909411 168.12973 
z
" clip-path="url(#p5296749daf)" style="fill: #0000f5; fill-opacity: 0.1"/>
    <path d="M 184.212557 149.058087 
L 166.22005 106.76636 
L 171.030038 94.913597 
L 189.081474 137.470532 
z
" clip-path="url(#p5296749daf)" style="fill: #0000f5; fill-opacity: 0.1"/>
    <path d="M 302.887759 290.318742 
L 285.526313 248.755734 
L 290.910457 237.567303 
L 308.324759 279.38871 
z
" clip-path="url(#p5296749daf)" style="fill: #0000f5; fill-opacity: 0.1"/>
    <path d="M 280.193036 259.838459 
L 262.694362 218.07774 
L 267.973518 206.73464 
L 285.526313 248.755734 
z
" clip-path="url(#p5296749daf)" style="fill: #0000f5; fill-opacity: 0.1"/>
    <path d="M 257.465119 229.313595 
L 239.828834 187.354629 
L 245.002685 175.856416 
L 262.694362 218.07774 
z
" clip-path="url(#p5296749daf)" style="fill: #0000f5; fill-opacity: 0.1"/>
    <path d="M 234.703935 198.744051 
L 216.929653 156.586302 
L 221.997884 144.93253 
L 239.828834 187.354629 
z
" clip-path="url(#p5296749daf)" style="fill: #0000f5; fill-opacity: 0.1"/>
    <path d="M 211.909411 168.12973 
L 193.996746 125.772658 
L 198.959038 113.962881 
L 216.929653 156.586302 
z
" clip-path="url(#p5296749daf)" style="fill: #0000f5; fill-opacity: 0.1"/>
    <path d="M 189.081474 137.470532 
L 171.030038 94.913597 
L 175.886072 82.947366 
L 193.996746 125.772658 
z
" clip-path="url(#p5296749daf)" style="fill: #0000f5; fill-opacity: 0.1"/>
    <path d="M 166.22005 106.76636 
L 148.029453 64.00902 
L 152.778911 51.885885 
L 171.030038 94.913597 
z
" clip-path="url(#p5296749daf)" style="fill: #0000f5; fill-opacity: 0.1"/>
    <path d="M 308.324759 279.38871 
L 290.910457 237.567303 
L 296.346201 226.271648 
L 313.813578 268.354506 
z
" clip-path="url(#p5296749daf)" style="fill: #0000f5; fill-opacity: 0.1"/>
    <path d="M 285.526313 248.755734 
L 267.973518 206.73464 
L 273.303304 195.282753 
L 290.910457 237.567303 
z
" clip-path="url(#p5296749daf)" style="fill: #0000f5; fill-opacity: 0.1"/>
    <path d="M 262.694362 218.07774 
L 245.002685 175.856416 
L 250.226194 164.247847 
L 267.973518 206.73464 
z
" clip-path="url(#p5296749daf)" style="fill: #0000f5; fill-opacity: 0.1"/>
    <path d="M 239.828834 187.354629 
L 221.997884 144.93253 
L 227.114794 133.166826 
L 245.002685 175.856416 
z
" clip-path="url(#p5296749daf)" style="fill: #0000f5; fill-opacity: 0.1"/>
    <path d="M 216.929653 156.586302 
L 198.959038 113.962881 
L 203.969027 102.039588 
L 221.997884 144.93253 
z
" clip-path="url(#p5296749daf)" style="fill: #0000f5; fill-opacity: 0.1"/>
    <path d="M 193.996746 125.772658 
L 175.886072 82.947366 
L 180.788818 70.86603 
L 198.959038 113.962881 
z
" clip-path="url(#p5296749daf)" style="fill: #0000f5; fill-opacity: 0.1"/>
    <path d="M 171.030038 94.913597 
L 152.778911 51.885885 
L 157.574088 39.646049 
L 175.886072 82.947366 
z
" clip-path="url(#p5296749daf)" style="fill: #0000f5; fill-opacity: 0.1"/>
    <path d="M 313.813578 268.354506 
L 296.346201 226.271648 
L 301.834289 214.867219 
L 319.35496 257.214634 
z
" clip-path="url(#p5296749daf)" style="fill: #0000f5; fill-opacity: 0.1"/>
    <path d="M 148.029453 64.00902 
L 129.637478 20.778334 
L 134.324762 8.379539 
L 152.778911 51.885885 
z
" clip-path="url(#p5296749daf)" style="fill: #0000f5; fill-opacity: 0.1"/>
    <path d="M 290.910457 237.567303 
L 273.303304 195.282753 
L 278.684452 183.720506 
L 296.346201 226.271648 
z
" clip-path="url(#p5296749daf)" style="fill: #0000f5; fill-opacity: 0.1"/>
    <path d="M 267.973518 206.73464 
L 250.226194 164.247847 
L 255.500078 152.527323 
L 273.303304 195.282753 
z
" clip-path="url(#p5296749daf)" style="fill: #0000f5; fill-opacity: 0.1"/>
    <path d="M 245.002685 175.856416 
L 227.114794 133.166826 
L 232.281088 121.287568 
L 250.226194 164.247847 
z
" clip-path="url(#p5296749daf)" style="fill: #0000f5; fill-opacity: 0.1"/>
    <path d="M 221.997884 144.93253 
L 203.969027 102.039588 
L 209.027405 90.001135 
L 227.114794 133.166826 
z
" clip-path="url(#p5296749daf)" style="fill: #0000f5; fill-opacity: 0.1"/>
    <path d="M 198.959038 113.962881 
L 180.788818 70.86603 
L 185.738952 58.66792 
L 203.969027 102.039588 
z
" clip-path="url(#p5296749daf)" style="fill: #0000f5; fill-opacity: 0.1"/>
    <path d="M 175.886072 82.947366 
L 157.574088 39.646049 
L 162.415649 27.287818 
L 180.788818 70.86603 
z
" clip-path="url(#p5296749daf)" style="fill: #0000f5; fill-opacity: 0.1"/>
    <path d="M 319.35496 257.214634 
L 301.834289 214.867219 
L 307.375481 203.352439 
L 324.949664 245.967568 
z
" clip-path="url(#p5296749daf)" style="fill: #0000f5; fill-opacity: 0.1"/>
    <path d="M 152.778911 51.885885 
L 134.324762 8.379539 
L 139.057419 -4.139277 
L 157.574088 39.646049 
z
" clip-path="url(#p5296749daf)" style="fill: #0000f5; fill-opacity: 0.1"/>
    <path d="M 296.346201 226.271648 
L 278.684452 183.720506 
L 284.117709 172.046295 
L 301.834289 214.867219 
z
" clip-path="url(#p5296749daf)" style="fill: #0000f5; fill-opacity: 0.1"/>
    <path d="M 129.637478 20.778334 
L 111.040761 -22.933601 
L 115.664184 -35.61347 
L 134.324762 8.379539 
z
" clip-path="url(#p5296749daf)" style="fill: #0000f5; fill-opacity: 0.1"/>
    <path d="M 273.303304 195.282753 
L 255.500078 152.527323 
L 260.82507 140.693219 
L 278.684452 183.720506 
z
" clip-path="url(#p5296749daf)" style="fill: #0000f5; fill-opacity: 0.1"/>
    <path d="M 250.226194 164.247847 
L 232.281088 121.287568 
L 237.497486 109.293104 
L 255.500078 152.527323 
z
" clip-path="url(#p5296749daf)" style="fill: #0000f5; fill-opacity: 0.1"/>
    <path d="M 227.114794 133.166826 
L 209.027405 90.001135 
L 214.134877 77.845844 
L 232.281088 121.287568 
z
" clip-path="url(#p5296749daf)" style="fill: #0000f5; fill-opacity: 0.1"/>
    <path d="M 203.969027 102.039588 
L 185.738952 58.66792 
L 190.737164 46.351334 
L 209.027405 90.001135 
z
" clip-path="url(#p5296749daf)" style="fill: #0000f5; fill-opacity: 0.1"/>
    <path d="M 180.788818 70.86603 
L 162.415649 27.287818 
L 167.304269 14.809466 
L 185.738952 58.66792 
z
" clip-path="url(#p5296749daf)" style="fill: #0000f5; fill-opacity: 0.1"/>
    <path d="M 324.949664 245.967568 
L 307.375481 203.352439 
L 312.970551 191.725696 
L 330.598463 234.611754 
z
" clip-path="url(#p5296749daf)" style="fill: #0000f5; fill-opacity: 0.1"/>
    <path d="M 157.574088 39.646049 
L 139.057419 -4.139277 
L 143.836112 -16.779867 
L 162.415649 27.287818 
z
" clip-path="url(#p5296749daf)" style="fill: #0000f5; fill-opacity: 0.1"/>
    <path d="M 301.834289 214.867219 
L 284.117709 172.046295 
L 289.603835 160.258488 
L 307.375481 203.352439 
z
" clip-path="url(#p5296749daf)" style="fill: #0000f5; fill-opacity: 0.1"/>
    <path d="M 134.324762 8.379539 
L 115.664184 -35.61347 
L 120.332614 -48.416771 
L 139.057419 -4.139277 
z
" clip-path="url(#p5296749daf)" style="fill: #0000f5; fill-opacity: 0.1"/>
    <path d="M 278.684452 183.720506 
L 260.82507 140.693219 
L 266.201917 128.743875 
L 284.117709 172.046295 
z
" clip-path="url(#p5296749daf)" style="fill: #0000f5; fill-opacity: 0.1"/>
    <path d="M 255.500078 152.527323 
L 237.497486 109.293104 
L 242.764718 97.181751 
L 260.82507 140.693219 
z
" clip-path="url(#p5296749daf)" style="fill: #0000f5; fill-opacity: 0.1"/>
    <path d="M 232.281088 121.287568 
L 214.134877 77.845844 
L 219.292159 65.572008 
L 237.497486 109.293104 
z
" clip-path="url(#p5296749daf)" style="fill: #0000f5; fill-opacity: 0.1"/>
    <path d="M 209.027405 90.001135 
L 190.737164 46.351334 
L 195.784159 33.914538 
L 214.134877 77.845844 
z
" clip-path="url(#p5296749daf)" style="fill: #0000f5; fill-opacity: 0.1"/>
    <path d="M 185.738952 58.66792 
L 167.304269 14.809466 
L 172.240638 2.209233 
L 190.737164 46.351334 
z
" clip-path="url(#p5296749daf)" style="fill: #0000f5; fill-opacity: 0.1"/>
    <path d="M 330.598463 234.611754 
L 312.970551 191.725696 
L 318.620291 179.985351 
L 336.302146 223.145607 
z
" clip-path="url(#p5296749daf)" style="fill: #0000f5; fill-opacity: 0.1"/>
    <path d="M 162.415649 27.287818 
L 143.836112 -16.779867 
L 148.661516 -29.544016 
L 167.304269 14.809466 
z
" clip-path="url(#p5296749daf)" style="fill: #0000f5; fill-opacity: 0.1"/>
    <path d="M 307.375481 203.352439 
L 289.603835 160.258488 
L 295.143605 148.355416 
L 312.970551 191.725696 
z
" clip-path="url(#p5296749daf)" style="fill: #0000f5; fill-opacity: 0.1"/>
    <path d="M 139.057419 -4.139277 
L 120.332614 -48.416771 
L 125.046711 -61.345317 
L 143.836112 -16.779867 
z
" clip-path="url(#p5296749daf)" style="fill: #0000f5; fill-opacity: 0.1"/>
    <path d="M 284.117709 172.046295 
L 266.201917 128.743875 
L 271.631379 116.6776 
L 289.603835 160.258488 
z
" clip-path="url(#p5296749daf)" style="fill: #0000f5; fill-opacity: 0.1"/>
    <path d="M 260.82507 140.693219 
L 242.764718 97.181751 
L 248.083533 84.951791 
L 266.201917 128.743875 
z
" clip-path="url(#p5296749daf)" style="fill: #0000f5; fill-opacity: 0.1"/>
    <path d="M 237.497486 109.293104 
L 219.292159 65.572008 
L 224.499985 53.177882 
L 242.764718 97.181751 
z
" clip-path="url(#p5296749daf)" style="fill: #0000f5; fill-opacity: 0.1"/>
    <path d="M 214.134877 77.845844 
L 195.784159 33.914538 
L 200.880655 21.355764 
L 219.292159 65.572008 
z
" clip-path="url(#p5296749daf)" style="fill: #0000f5; fill-opacity: 0.1"/>
    <path d="M 190.737164 46.351334 
L 172.240638 2.209233 
L 177.22546 -10.514675 
L 195.784159 33.914538 
z
" clip-path="url(#p5296749daf)" style="fill: #0000f5; fill-opacity: 0.1"/>
    <path d="M 336.302146 223.145607 
L 318.620291 179.985351 
L 324.325503 168.12973 
L 342.061517 211.567511 
z
" clip-path="url(#p5296749daf)" style="fill: #0000f5; fill-opacity: 0.1"/>
    <path d="M 167.304269 14.809466 
L 148.661516 -29.544016 
L 153.534318 -42.433544 
L 172.240638 2.209233 
z
" clip-path="url(#p5296749daf)" style="fill: #0000f5; fill-opacity: 0.1"/>
    <path d="M 312.970551 191.725696 
L 295.143605 148.355416 
L 300.73781 136.335383 
L 318.620291 179.985351 
z
" clip-path="url(#p5296749daf)" style="fill: #0000f5; fill-opacity: 0.1"/>
    <path d="M 143.836112 -16.779867 
L 125.046711 -61.345317 
L 129.807149 -74.400953 
L 148.661516 -29.544016 
z
" clip-path="url(#p5296749daf)" style="fill: #0000f5; fill-opacity: 0.1"/>
    <path d="M 289.603835 160.258488 
L 271.631379 116.6776 
L 277.114234 104.492668 
L 295.143605 148.355416 
z
" clip-path="url(#p5296749daf)" style="fill: #0000f5; fill-opacity: 0.1"/>
    <path d="M 266.201917 128.743875 
L 248.083533 84.951791 
L 253.454692 72.601474 
L 271.631379 116.6776 
z
" clip-path="url(#p5296749daf)" style="fill: #0000f5; fill-opacity: 0.1"/>
    <path d="M 242.764718 97.181751 
L 224.499985 53.177882 
L 229.759102 40.661691 
L 248.083533 84.951791 
z
" clip-path="url(#p5296749daf)" style="fill: #0000f5; fill-opacity: 0.1"/>
    <path d="M 219.292159 65.572008 
L 200.880655 21.355764 
L 206.027382 8.673207 
L 224.499985 53.177882 
z
" clip-path="url(#p5296749daf)" style="fill: #0000f5; fill-opacity: 0.1"/>
    <path d="M 195.784159 33.914538 
L 177.22546 -10.514675 
L 182.25945 -23.364088 
L 200.880655 21.355764 
z
" clip-path="url(#p5296749daf)" style="fill: #0000f5; fill-opacity: 0.1"/>
    <path d="M 342.061517 211.567511 
L 324.325503 168.12973 
L 330.087011 156.157127 
L 347.877395 199.875819 
z
" clip-path="url(#p5296749daf)" style="fill: #0000f5; fill-opacity: 0.1"/>
    <path d="M 172.240638 2.209233 
L 153.534318 -42.433544 
L 158.455221 -55.450307 
L 177.22546 -10.514675 
z
" clip-path="url(#p5296749daf)" style="fill: #0000f5; fill-opacity: 0.1"/>
    <path d="M 318.620291 179.985351 
L 300.73781 136.335383 
L 306.387257 124.196654 
L 324.325503 168.12973 
z
" clip-path="url(#p5296749daf)" style="fill: #0000f5; fill-opacity: 0.1"/>
    <path d="M 148.661516 -29.544016 
L 129.807149 -74.400953 
L 134.614614 -87.585563 
L 153.534318 -42.433544 
z
" clip-path="url(#p5296749daf)" style="fill: #0000f5; fill-opacity: 0.1"/>
    <path d="M 295.143605 148.355416 
L 277.114234 104.492668 
L 282.651271 92.187321 
L 300.73781 136.335383 
z
" clip-path="url(#p5296749daf)" style="fill: #0000f5; fill-opacity: 0.1"/>
    <path d="M 271.631379 116.6776 
L 253.454692 72.601474 
L 258.87897 60.129014 
L 277.114234 104.492668 
z
" clip-path="url(#p5296749daf)" style="fill: #0000f5; fill-opacity: 0.1"/>
    <path d="M 248.083533 84.951791 
L 229.759102 40.661691 
L 235.07027 28.021621 
L 253.454692 72.601474 
z
" clip-path="url(#p5296749daf)" style="fill: #0000f5; fill-opacity: 0.1"/>
    <path d="M 224.499985 53.177882 
L 206.027382 8.673207 
L 211.225088 -4.13497 
L 229.759102 40.661691 
z
" clip-path="url(#p5296749daf)" style="fill: #0000f5; fill-opacity: 0.1"/>
    <path d="M 200.880655 21.355764 
L 182.25945 -23.364088 
L 187.34334 -36.340872 
L 206.027382 8.673207 
z
" clip-path="url(#p5296749daf)" style="fill: #0000f5; fill-opacity: 0.1"/>
    <path d="M 347.877395 199.875819 
L 330.087011 156.157127 
L 335.90565 144.065802 
L 353.750615 188.06885 
z
" clip-path="url(#p5296749daf)" style="fill: #0000f5; fill-opacity: 0.1"/>
    <path d="M 177.22546 -10.514675 
L 158.455221 -55.450307 
L 163.424941 -68.5962 
L 182.25945 -23.364088 
z
" clip-path="url(#p5296749daf)" style="fill: #0000f5; fill-opacity: 0.1"/>
    <path d="M 324.325503 168.12973 
L 306.387257 124.196654 
L 312.092767 111.937464 
L 330.087011 156.157127 
z
" clip-path="url(#p5296749daf)" style="fill: #0000f5; fill-opacity: 0.1"/>
    <path d="M 153.534318 -42.433544 
L 134.614614 -87.585563 
L 139.469807 -100.901067 
L 158.455221 -55.450307 
z
" clip-path="url(#p5296749daf)" style="fill: #0000f5; fill-opacity: 0.1"/>
    <path d="M 300.73781 136.335383 
L 282.651271 92.187321 
L 288.243299 79.759765 
L 306.387257 124.196654 
z
" clip-path="url(#p5296749daf)" style="fill: #0000f5; fill-opacity: 0.1"/>
    <path d="M 277.114234 104.492668 
L 258.87897 60.129014 
L 264.35716 47.53259 
L 282.651271 92.187321 
z
" clip-path="url(#p5296749daf)" style="fill: #0000f5; fill-opacity: 0.1"/>
    <path d="M 253.454692 72.601474 
L 235.07027 28.021621 
L 240.434267 15.255825 
L 258.87897 60.129014 
z
" clip-path="url(#p5296749daf)" style="fill: #0000f5; fill-opacity: 0.1"/>
    <path d="M 229.759102 40.661691 
L 211.225088 -4.13497 
L 216.474534 -17.070643 
L 235.07027 28.021621 
z
" clip-path="url(#p5296749daf)" style="fill: #0000f5; fill-opacity: 0.1"/>
    <path d="M 206.027382 8.673207 
L 187.34334 -36.340872 
L 192.477876 -49.446931 
L 211.225088 -4.13497 
z
" clip-path="url(#p5296749daf)" style="fill: #0000f5; fill-opacity: 0.1"/>
    <path d="M 353.750615 188.06885 
L 335.90565 144.065802 
L 341.782275 131.85398 
L 359.682031 176.144891 
z
" clip-path="url(#p5296749daf)" style="fill: #0000f5; fill-opacity: 0.1"/>
    <path d="M 182.25945 -23.364088 
L 163.424941 -68.5962 
L 168.444207 -81.873154 
L 187.34334 -36.340872 
z
" clip-path="url(#p5296749daf)" style="fill: #0000f5; fill-opacity: 0.1"/>
    <path d="M 330.087011 156.157127 
L 312.092767 111.937464 
L 317.85518 99.55601 
L 335.90565 144.065802 
z
" clip-path="url(#p5296749daf)" style="fill: #0000f5; fill-opacity: 0.1"/>
    <path d="M 158.455221 -55.450307 
L 139.469807 -100.901067 
L 144.373442 -114.349426 
L 163.424941 -68.5962 
z
" clip-path="url(#p5296749daf)" style="fill: #0000f5; fill-opacity: 0.1"/>
    <path d="M 306.387257 124.196654 
L 288.243299 79.759765 
L 293.89114 67.20817 
L 312.092767 111.937464 
z
" clip-path="url(#p5296749daf)" style="fill: #0000f5; fill-opacity: 0.1"/>
    <path d="M 282.651271 92.187321 
L 264.35716 47.53259 
L 269.89007 34.810344 
L 288.243299 79.759765 
z
" clip-path="url(#p5296749daf)" style="fill: #0000f5; fill-opacity: 0.1"/>
    <path d="M 258.87897 60.129014 
L 240.434267 15.255825 
L 245.851884 2.362418 
L 264.35716 47.53259 
z
" clip-path="url(#p5296749daf)" style="fill: #0000f5; fill-opacity: 0.1"/>
    <path d="M 235.07027 28.021621 
L 216.474534 -17.070643 
L 221.776495 -30.135727 
L 240.434267 15.255825 
z
" clip-path="url(#p5296749daf)" style="fill: #0000f5; fill-opacity: 0.1"/>
    <path d="M 211.225088 -4.13497 
L 192.477876 -49.446931 
L 197.663817 -62.684206 
L 216.474534 -17.070643 
z
" clip-path="url(#p5296749daf)" style="fill: #0000f5; fill-opacity: 0.1"/>
    <path d="M 359.682031 176.144891 
L 341.782275 131.85398 
L 347.717757 119.519851 
L 365.67251 164.102195 
z
" clip-path="url(#p5296749daf)" style="fill: #0000f5; fill-opacity: 0.1"/>
    <path d="M 187.34334 -36.340872 
L 168.444207 -81.873154 
L 173.513764 -95.283137 
L 192.477876 -49.446931 
z
" clip-path="url(#p5296749daf)" style="fill: #0000f5; fill-opacity: 0.1"/>
    <path d="M 335.90565 144.065802 
L 317.85518 99.55601 
L 323.675351 87.050454 
L 341.782275 131.85398 
z
" clip-path="url(#p5296749daf)" style="fill: #0000f5; fill-opacity: 0.1"/>
    <path d="M 163.424941 -68.5962 
L 144.373442 -114.349426 
L 149.326248 -127.932636 
L 168.444207 -81.873154 
z
" clip-path="url(#p5296749daf)" style="fill: #0000f5; fill-opacity: 0.1"/>
    <path d="M 312.092767 111.937464 
L 293.89114 67.20817 
L 299.595635 54.53067 
L 317.85518 99.55601 
z
" clip-path="url(#p5296749daf)" style="fill: #0000f5; fill-opacity: 0.1"/>
    <path d="M 288.243299 79.759765 
L 269.89007 34.810344 
L 275.478524 21.960383 
L 293.89114 67.20817 
z
" clip-path="url(#p5296749daf)" style="fill: #0000f5; fill-opacity: 0.1"/>
    <path d="M 264.35716 47.53259 
L 245.851884 2.362418 
L 251.32393 -10.660525 
L 269.89007 34.810344 
z
" clip-path="url(#p5296749daf)" style="fill: #0000f5; fill-opacity: 0.1"/>
    <path d="M 240.434267 15.255825 
L 221.776495 -30.135727 
L 227.131765 -43.332172 
L 245.851884 2.362418 
z
" clip-path="url(#p5296749daf)" style="fill: #0000f5; fill-opacity: 0.1"/>
    <path d="M 216.474534 -17.070643 
L 197.663817 -62.684206 
L 202.901942 -76.054677 
L 221.776495 -30.135727 
z
" clip-path="url(#p5296749daf)" style="fill: #0000f5; fill-opacity: 0.1"/>
    <path d="M 365.67251 164.102195 
L 347.717757 119.519851 
L 353.712985 107.061569 
L 371.722941 151.93898 
z
" clip-path="url(#p5296749daf)" style="fill: #0000f5; fill-opacity: 0.1"/>
    <path d="M 192.477876 -49.446931 
L 173.513764 -95.283137 
L 178.634372 -108.828159 
L 197.663817 -62.684206 
z
" clip-path="url(#p5296749daf)" style="fill: #0000f5; fill-opacity: 0.1"/>
    <path d="M 341.782275 131.85398 
L 323.675351 87.050454 
L 329.554152 74.41892 
L 347.717757 119.519851 
z
" clip-path="url(#p5296749daf)" style="fill: #0000f5; fill-opacity: 0.1"/>
    <path d="M 168.444207 -81.873154 
L 149.326248 -127.932636 
L 154.328968 -141.652736 
L 173.513764 -95.283137 
z
" clip-path="url(#p5296749daf)" style="fill: #0000f5; fill-opacity: 0.1"/>
    <path d="M 317.85518 99.55601 
L 299.595635 54.53067 
L 305.357641 41.725362 
L 323.675351 87.050454 
z
" clip-path="url(#p5296749daf)" style="fill: #0000f5; fill-opacity: 0.1"/>
    <path d="M 293.89114 67.20817 
L 275.478524 21.960383 
L 281.123362 8.980773 
L 299.595635 54.53067 
z
" clip-path="url(#p5296749daf)" style="fill: #0000f5; fill-opacity: 0.1"/>
    <path d="M 269.89007 34.810344 
L 251.32393 -10.660525 
L 256.851228 -23.814964 
L 275.478524 21.960383 
z
" clip-path="url(#p5296749daf)" style="fill: #0000f5; fill-opacity: 0.1"/>
    <path d="M 245.851884 2.362418 
L 227.131765 -43.332172 
L 232.54115 -56.66197 
L 251.32393 -10.660525 
z
" clip-path="url(#p5296749daf)" style="fill: #0000f5; fill-opacity: 0.1"/>
    <path d="M 221.776495 -30.135727 
L 202.901942 -76.054677 
L 208.193039 -89.560366 
L 227.131765 -43.332172 
z
" clip-path="url(#p5296749daf)" style="fill: #0000f5; fill-opacity: 0.1"/>
    <path d="M 371.722941 151.93898 
L 353.712985 107.061569 
L 359.768865 94.477249 
L 377.834227 139.653426 
z
" clip-path="url(#p5296749daf)" style="fill: #0000f5; fill-opacity: 0.1"/>
    <path d="M 197.663817 -62.684206 
L 178.634372 -108.828159 
L 183.806806 -122.510271 
L 202.901942 -76.054677 
z
" clip-path="url(#p5296749daf)" style="fill: #0000f5; fill-opacity: 0.1"/>
    <path d="M 347.717757 119.519851 
L 329.554152 74.41892 
L 335.492475 61.659497 
L 353.712985 107.061569 
z
" clip-path="url(#p5296749daf)" style="fill: #0000f5; fill-opacity: 0.1"/>
    <path d="M 173.513764 -95.283137 
L 154.328968 -141.652736 
L 159.38236 -155.511807 
L 178.634372 -108.828159 
z
" clip-path="url(#p5296749daf)" style="fill: #0000f5; fill-opacity: 0.1"/>
    <path d="M 323.675351 87.050454 
L 305.357641 41.725362 
L 311.17803 28.790301 
L 329.554152 74.41892 
z
" clip-path="url(#p5296749daf)" style="fill: #0000f5; fill-opacity: 0.1"/>
    <path d="M 299.595635 54.53067 
L 281.123362 8.980773 
L 286.825442 -4.130458 
L 305.357641 41.725362 
z
" clip-path="url(#p5296749daf)" style="fill: #0000f5; fill-opacity: 0.1"/>
    <path d="M 275.478524 21.960383 
L 256.851228 -23.814964 
L 262.434621 -37.102902 
L 281.123362 8.980773 
z
" clip-path="url(#p5296749daf)" style="fill: #0000f5; fill-opacity: 0.1"/>
    <path d="M 251.32393 -10.660525 
L 232.54115 -56.66197 
L 238.005477 -70.127152 
L 256.851228 -23.814964 
z
" clip-path="url(#p5296749daf)" style="fill: #0000f5; fill-opacity: 0.1"/>
    <path d="M 227.131765 -43.332172 
L 208.193039 -89.560366 
L 213.537919 -103.203332 
L 232.54115 -56.66197 
z
" clip-path="url(#p5296749daf)" style="fill: #0000f5; fill-opacity: 0.1"/>
    <path d="M 202.901942 -76.054677 
L 183.806806 -122.510271 
L 189.031856 -136.331564 
L 208.193039 -89.560366 
z
" clip-path="url(#p5296749daf)" style="fill: #0000f5; fill-opacity: 0.1"/>
    <path d="M 353.712985 107.061569 
L 335.492475 61.659497 
L 341.491227 48.77023 
L 359.768865 94.477249 
z
" clip-path="url(#p5296749daf)" style="fill: #0000f5; fill-opacity: 0.1"/>
    <path d="M 178.634372 -108.828159 
L 159.38236 -155.511807 
L 164.487198 -169.511971 
L 183.806806 -122.510271 
z
" clip-path="url(#p5296749daf)" style="fill: #0000f5; fill-opacity: 0.1"/>
    <path d="M 329.554152 74.41892 
L 311.17803 28.790301 
L 317.057696 15.723507 
L 335.492475 61.659497 
z
" clip-path="url(#p5296749daf)" style="fill: #0000f5; fill-opacity: 0.1"/>
    <path d="M 305.357641 41.725362 
L 286.825442 -4.130458 
L 292.585639 -17.375321 
L 311.17803 28.790301 
z
" clip-path="url(#p5296749daf)" style="fill: #0000f5; fill-opacity: 0.1"/>
    <path d="M 281.123362 8.980773 
L 262.434621 -37.102902 
L 268.074966 -50.52638 
L 286.825442 -4.130458 
z
" clip-path="url(#p5296749daf)" style="fill: #0000f5; fill-opacity: 0.1"/>
    <path d="M 256.851228 -23.814964 
L 238.005477 -70.127152 
L 243.525585 -83.729792 
L 262.434621 -37.102902 
z
" clip-path="url(#p5296749daf)" style="fill: #0000f5; fill-opacity: 0.1"/>
    <path d="M 232.54115 -56.66197 
L 213.537919 -103.203332 
L 218.937403 -116.985682 
L 238.005477 -70.127152 
z
" clip-path="url(#p5296749daf)" style="fill: #0000f5; fill-opacity: 0.1"/>
    <path d="M 208.193039 -89.560366 
L 189.031856 -136.331564 
L 194.31033 -150.294173 
L 213.537919 -103.203332 
z
" clip-path="url(#p5296749daf)" style="fill: #0000f5; fill-opacity: 0.1"/>
    <path d="M 183.806806 -122.510271 
L 164.487198 -169.511971 
L 169.644272 -183.655392 
L 189.031856 -136.331564 
z
" clip-path="url(#p5296749daf)" style="fill: #0000f5; fill-opacity: 0.1"/>
    <path d="M 335.492475 61.659497 
L 317.057696 15.723507 
L 322.997548 2.522957 
L 341.491227 48.77023 
z
" clip-path="url(#p5296749daf)" style="fill: #0000f5; fill-opacity: 0.1"/>
    <path d="M 311.17803 28.790301 
L 292.585639 -17.375321 
L 298.404847 -30.755872 
L 317.057696 15.723507 
z
" clip-path="url(#p5296749daf)" style="fill: #0000f5; fill-opacity: 0.1"/>
    <path d="M 286.825442 -4.130458 
L 268.074966 -50.52638 
L 273.773139 -64.087484 
L 292.585639 -17.375321 
z
" clip-path="url(#p5296749daf)" style="fill: #0000f5; fill-opacity: 0.1"/>
    <path d="M 262.434621 -37.102902 
L 243.525585 -83.729792 
L 249.102333 -97.472005 
L 268.074966 -50.52638 
z
" clip-path="url(#p5296749daf)" style="fill: #0000f5; fill-opacity: 0.1"/>
    <path d="M 238.005477 -70.127152 
L 218.937403 -116.985682 
L 224.392335 -130.90956 
L 243.525585 -83.729792 
z
" clip-path="url(#p5296749daf)" style="fill: #0000f5; fill-opacity: 0.1"/>
    <path d="M 213.537919 -103.203332 
L 194.31033 -150.294173 
L 199.643051 -164.400277 
L 218.937403 -116.985682 
z
" clip-path="url(#p5296749daf)" style="fill: #0000f5; fill-opacity: 0.1"/>
    <path d="M 189.031856 -136.331564 
L 169.644272 -183.655392 
L 174.854388 -197.944281 
L 194.31033 -150.294173 
z
" clip-path="url(#p5296749daf)" style="fill: #0000f5; fill-opacity: 0.1"/>
    <path d="M 317.057696 15.723507 
L 298.404847 -30.755872 
L 304.283975 -44.274205 
L 322.997548 2.522957 
z
" clip-path="url(#p5296749daf)" style="fill: #0000f5; fill-opacity: 0.1"/>
    <path d="M 292.585639 -17.375321 
L 273.773139 -64.087484 
L 279.530034 -77.788341 
L 298.404847 -30.755872 
z
" clip-path="url(#p5296749daf)" style="fill: #0000f5; fill-opacity: 0.1"/>
    <path d="M 268.074966 -50.52638 
L 249.102333 -97.472005 
L 254.736598 -111.35595 
L 273.773139 -64.087484 
z
" clip-path="url(#p5296749daf)" style="fill: #0000f5; fill-opacity: 0.1"/>
    <path d="M 243.525585 -83.729792 
L 224.392335 -130.90956 
L 229.903571 -144.977159 
L 249.102333 -97.472005 
z
" clip-path="url(#p5296749daf)" style="fill: #0000f5; fill-opacity: 0.1"/>
    <path d="M 218.937403 -116.985682 
L 199.643051 -164.400277 
L 205.030859 -178.652098 
L 224.392335 -130.90956 
z
" clip-path="url(#p5296749daf)" style="fill: #0000f5; fill-opacity: 0.1"/>
    <path d="M 194.31033 -150.294173 
L 174.854388 -197.944281 
L 180.118367 -212.380895 
L 199.643051 -164.400277 
z
" clip-path="url(#p5296749daf)" style="fill: #0000f5; fill-opacity: 0.1"/>
    <path d="M 298.404847 -30.755872 
L 279.530034 -77.788341 
L 285.346564 -91.631122 
L 304.283975 -44.274205 
z
" clip-path="url(#p5296749daf)" style="fill: #0000f5; fill-opacity: 0.1"/>
    <path d="M 273.773139 -64.087484 
L 254.736598 -111.35595 
L 260.429274 -125.383831 
L 279.530034 -77.788341 
z
" clip-path="url(#p5296749daf)" style="fill: #0000f5; fill-opacity: 0.1"/>
    <path d="M 249.102333 -97.472005 
L 229.903571 -144.977159 
L 235.471989 -159.190716 
L 254.736598 -111.35595 
z
" clip-path="url(#p5296749daf)" style="fill: #0000f5; fill-opacity: 0.1"/>
    <path d="M 224.392335 -130.90956 
L 205.030859 -178.652098 
L 210.474614 -193.051907 
L 229.903571 -144.977159 
z
" clip-path="url(#p5296749daf)" style="fill: #0000f5; fill-opacity: 0.1"/>
    <path d="M 199.643051 -164.400277 
L 180.118367 -212.380895 
L 185.437051 -226.967535 
L 205.030859 -178.652098 
z
" clip-path="url(#p5296749daf)" style="fill: #0000f5; fill-opacity: 0.1"/>
    <path d="M 279.530034 -77.788341 
L 260.429274 -125.383831 
L 266.181274 -139.557898 
L 285.346564 -91.631122 
z
" clip-path="url(#p5296749daf)" style="fill: #0000f5; fill-opacity: 0.1"/>
    <path d="M 254.736598 -111.35595 
L 235.471989 -159.190716 
L 241.098483 -173.552513 
L 260.429274 -125.383831 
z
" clip-path="url(#p5296749daf)" style="fill: #0000f5; fill-opacity: 0.1"/>
    <path d="M 229.903571 -144.977159 
L 210.474614 -193.051907 
L 215.97519 -207.60202 
L 235.471989 -159.190716 
z
" clip-path="url(#p5296749daf)" style="fill: #0000f5; fill-opacity: 0.1"/>
    <path d="M 205.030859 -178.652098 
L 185.437051 -226.967535 
L 190.811295 -241.706553 
L 210.474614 -193.051907 
z
" clip-path="url(#p5296749daf)" style="fill: #0000f5; fill-opacity: 0.1"/>
    <path d="M 260.429274 -125.383831 
L 241.098483 -173.552513 
L 246.783966 -188.064882 
L 266.181274 -139.557898 
z
" clip-path="url(#p5296749daf)" style="fill: #0000f5; fill-opacity: 0.1"/>
    <path d="M 235.471989 -159.190716 
L 215.97519 -207.60202 
L 221.533481 -222.304803 
L 241.098483 -173.552513 
z
" clip-path="url(#p5296749daf)" style="fill: #0000f5; fill-opacity: 0.1"/>
    <path d="M 210.474614 -193.051907 
L 190.811295 -241.706553 
L 196.241976 -256.600349 
L 215.97519 -207.60202 
z
" clip-path="url(#p5296749daf)" style="fill: #0000f5; fill-opacity: 0.1"/>
    <path d="M 241.098483 -173.552513 
L 221.533481 -222.304803 
L 227.150403 -237.162672 
L 246.783966 -188.064882 
z
" clip-path="url(#p5296749daf)" style="fill: #0000f5; fill-opacity: 0.1"/>
    <path d="M 215.97519 -207.60202 
L 196.241976 -256.600349 
L 201.729987 -271.651374 
L 221.533481 -222.304803 
z
" clip-path="url(#p5296749daf)" style="fill: #0000f5; fill-opacity: 0.1"/>
    <path d="M 221.533481 -222.304803 
L 201.729987 -271.651374 
L 207.27624 -286.86213 
L 227.150403 -237.162672 
z
" clip-path="url(#p5296749daf)" style="fill: #0000f5; fill-opacity: 0.1"/>
   </g>
   <g id="legend_1">
    <g id="patch_6">
     <path d="M 357.840076 67.305115 
L 396.2 67.305115 
Q 398.2 67.305115 398.2 65.305115 
L 398.2 7 
Q 398.2 5 396.2 5 
L 357.840076 5 
Q 355.840076 5 355.840076 7 
L 355.840076 65.305115 
Q 355.840076 67.305115 357.840076 67.305115 
z
" style="fill: #ffffff; opacity: 0.8; stroke: #cccccc; stroke-linejoin: miter"/>
    </g>
    <g id="line2d_25">
     <path d="M 359.840076 12.5 
L 369.840076 12.5 
L 379.840076 12.5 
" style="fill: none; stroke: #ff0000; stroke-width: 1.5; stroke-linecap: square"/>
    </g>
    <g id="text_21">
     <!-- $\vec{a}$ -->
     <g transform="translate(387.840076 16)scale(0.1 -0.1)">
      <defs>
       <path id="CMMI12-7e" d="M 3424 3835 
C 3347 3764 3110 3540 3110 3451 
C 3110 3387 3168 3329 3232 3329 
C 3290 3329 3315 3368 3360 3432 
C 3514 3624 3686 3745 3834 3828 
C 3898 3867 3942 3886 3942 3956 
C 3942 4014 3891 4046 3853 4078 
C 3674 4200 3629 4372 3610 4449 
C 3590 4500 3571 4577 3482 4577 
C 3443 4577 3366 4552 3366 4456 
C 3366 4398 3405 4244 3526 4072 
L 1376 4072 
C 1267 4072 1158 4072 1158 3950 
C 1158 3835 1274 3835 1376 3835 
L 3424 3835 
z
" transform="scale(0.015625)"/>
       <path id="CMMI12-61" d="M 1926 760 
C 1894 651 1894 639 1805 517 
C 1664 338 1382 64 1082 64 
C 819 64 672 300 672 677 
C 672 1028 870 1743 992 2012 
C 1210 2459 1510 2689 1760 2689 
C 2182 2689 2266 2165 2266 2114 
C 2266 2108 2246 2024 2240 2012 
L 1926 760 
z
M 2336 2395 
C 2266 2561 2093 2816 1760 2816 
C 1037 2816 256 1884 256 939 
C 256 307 627 -64 1062 -64 
C 1414 -64 1715 211 1894 422 
C 1958 45 2259 -64 2451 -64 
C 2643 -64 2797 51 2912 281 
C 3014 498 3104 888 3104 913 
C 3104 945 3078 971 3040 971 
C 2982 971 2976 939 2950 843 
C 2854 466 2733 64 2470 64 
C 2285 64 2272 230 2272 358 
C 2272 505 2291 575 2349 824 
C 2394 984 2426 1124 2477 1309 
C 2714 2267 2771 2497 2771 2535 
C 2771 2625 2701 2695 2605 2695 
C 2400 2695 2349 2472 2336 2395 
z
" transform="scale(0.015625)"/>
      </defs>
      <use xlink:href="#CMMI12-7e" transform="scale(0.996264)"/>
      <use xlink:href="#CMMI12-61" transform="translate(6.445738 0)scale(0.996264)"/>
     </g>
    </g>
    <g id="line2d_26">
     <path d="M 359.840076 27.24679 
L 369.840076 27.24679 
L 379.840076 27.24679 
" style="fill: none; stroke: #00ff00; stroke-width: 1.5; stroke-linecap: square"/>
    </g>
    <g id="text_22">
     <!-- $\vec{b}$ -->
     <g transform="translate(387.840076 30.74679)scale(0.1 -0.1)">
      <defs>
       <path id="CMMI12-62" d="M 1478 4257 
C 1485 4283 1498 4321 1498 4352 
C 1498 4416 1434 4416 1421 4416 
C 1414 4416 1184 4393 1069 4377 
C 960 4377 864 4358 749 4358 
C 595 4345 550 4339 550 4224 
C 550 4160 614 4160 678 4160 
C 1005 4160 1005 4103 1005 4040 
C 1005 3996 954 3811 928 3696 
L 774 3085 
C 710 2831 346 1387 320 1272 
C 288 1114 288 1005 288 922 
C 288 274 653 -64 1069 -64 
C 1811 -64 2579 888 2579 1814 
C 2579 2401 2246 2816 1766 2816 
C 1434 2816 1133 2542 1011 2414 
L 1478 4257 
z
M 1075 64 
C 870 64 646 217 646 715 
C 646 926 666 1047 781 1494 
C 800 1577 902 1986 928 2069 
C 941 2120 1318 2689 1754 2689 
C 2035 2689 2163 2408 2163 2076 
C 2163 1769 1984 1047 1824 715 
C 1664 370 1370 64 1075 64 
z
" transform="scale(0.015625)"/>
      </defs>
      <use xlink:href="#CMMI12-7e" transform="translate(0 26.29016)scale(0.996264)"/>
      <use xlink:href="#CMMI12-62" transform="translate(11.311737 0)scale(0.996264)"/>
     </g>
    </g>
    <g id="line2d_27">
     <path d="M 359.840076 41.183968 
L 369.840076 41.183968 
L 379.840076 41.183968 
" style="fill: none; stroke: #0016ff; stroke-width: 1.5; stroke-linecap: square"/>
    </g>
    <g id="text_23">
     <!-- $\vec{c}$ -->
     <g transform="translate(387.840076 44.683968)scale(0.1 -0.1)">
      <defs>
       <path id="CMMI12-63" d="M 2502 2431 
C 2381 2431 2323 2431 2234 2355 
C 2195 2323 2125 2227 2125 2125 
C 2125 1997 2221 1920 2342 1920 
C 2496 1920 2669 2044 2669 2292 
C 2669 2588 2374 2816 1933 2816 
C 1094 2816 256 1903 256 996 
C 256 441 602 -64 1254 -64 
C 2125 -64 2675 622 2675 706 
C 2675 744 2637 776 2611 776 
C 2592 776 2586 770 2528 713 
C 2118 162 1510 64 1267 64 
C 826 64 685 446 685 764 
C 685 988 794 1605 1024 2039 
C 1190 2338 1536 2682 1939 2682 
C 2022 2682 2374 2682 2502 2431 
z
" transform="scale(0.015625)"/>
      </defs>
      <use xlink:href="#CMMI12-7e" transform="scale(0.996264)"/>
      <use xlink:href="#CMMI12-63" transform="translate(5.638615 0)scale(0.996264)"/>
     </g>
    </g>
    <g id="line2d_28">
     <path d="M 359.840076 57.867937 
L 369.840076 57.867937 
L 379.840076 57.867937 
" style="fill: none; stroke: #f400ff; stroke-width: 1.5; stroke-linecap: square"/>
    </g>
    <g id="text_24">
     <!-- $\vec{f}$ -->
     <g transform="translate(387.840076 61.367937)scale(0.1 -0.1)">
      <defs>
       <path id="CMMI12-66" d="M 2854 2566 
C 2982 2566 3034 2566 3034 2688 
C 3034 2752 2982 2752 2867 2752 
L 2349 2752 
C 2470 3429 2560 3897 2611 4107 
C 2650 4265 2784 4416 2950 4416 
C 3085 4416 3219 4358 3283 4298 
C 3034 4272 2957 4082 2957 3969 
C 2957 3837 3053 3759 3174 3759 
C 3302 3759 3494 3870 3494 4119 
C 3494 4393 3226 4544 2944 4544 
C 2669 4544 2400 4334 2272 4078 
C 2157 3848 2093 3611 1946 2752 
L 1517 2752 
C 1395 2752 1331 2752 1331 2637 
C 1331 2566 1370 2566 1498 2566 
L 1907 2566 
C 1792 1976 1530 542 1382 -137 
C 1274 -689 1178 -1152 858 -1152 
C 838 -1152 653 -1152 538 -1031 
C 864 -1005 864 -726 864 -720 
C 864 -593 768 -517 646 -517 
C 518 -517 326 -625 326 -867 
C 326 -1140 608 -1280 858 -1280 
C 1510 -1280 1779 -118 1850 199 
C 1965 688 2278 2376 2310 2566 
L 2854 2566 
z
" transform="scale(0.015625)"/>
      </defs>
      <use xlink:href="#CMMI12-7e" transform="translate(13.568792 26.29016)scale(0.996264)"/>
      <use xlink:href="#CMMI12-66" transform="scale(0.996264)"/>
     </g>
    </g>
   </g>
  </g>
 </g>
 <defs>
  <clipPath id="p5296749daf">
   <rect x="57.6" y="0" width="345.6" height="345.6"/>
  </clipPath>
 </defs>
</svg>
