<?xml version="1.0" encoding="utf-8" standalone="no"?>
<!DOCTYPE svg PUBLIC "-//W3C//DTD SVG 1.1//EN"
  "http://www.w3.org/Graphics/SVG/1.1/DTD/svg11.dtd">
<svg xmlns:xlink="http://www.w3.org/1999/xlink" width="460.8pt" height="345.6pt" viewBox="0 0 460.8 345.6" xmlns="http://www.w3.org/2000/svg" version="1.1">
 <metadata>
  <rdf:RDF xmlns:dc="http://purl.org/dc/elements/1.1/" xmlns:cc="http://creativecommons.org/ns#" xmlns:rdf="http://www.w3.org/1999/02/22-rdf-syntax-ns#">
   <cc:Work>
    <dc:type rdf:resource="http://purl.org/dc/dcmitype/StillImage"/>
    <dc:date>2022-07-12T15:50:54.200243</dc:date>
    <dc:format>image/svg+xml</dc:format>
    <dc:creator>
     <cc:Agent>
      <dc:title>Matplotlib v3.5.1, https://matplotlib.org/</dc:title>
     </cc:Agent>
    </dc:creator>
   </cc:Work>
  </rdf:RDF>
 </metadata>
 <defs>
  <style type="text/css">*{stroke-linejoin: round; stroke-linecap: butt}</style>
 </defs>
 <g id="figure_1">
  <g id="patch_1">
   <path d="M 0 345.6 
L 460.8 345.6 
L 460.8 0 
L 0 0 
z
" style="fill: #ffffff"/>
  </g>
  <g id="patch_2">
   <path d="M 57.6 345.6 
L 403.2 345.6 
L 403.2 0 
L 57.6 0 
z
" style="fill: #ffffff"/>
  </g>
  <g id="pane3d_1">
   <g id="patch_3">
    <path d="M 277.62206 245.313992 
L 389.249717 253.631761 
L 389.249717 82.627698 
L 277.62206 90.945467 
" style="fill: #f2f2f2; opacity: 0.5; stroke: #f2f2f2; stroke-linejoin: miter"/>
   </g>
  </g>
  <g id="pane3d_2">
   <g id="patch_4">
    <path d="M 277.62206 245.313992 
L 88.297754 249.524161 
L 88.297754 86.735299 
L 277.62206 90.945467 
" style="fill: #e6e6e6; opacity: 0.5; stroke: #e6e6e6; stroke-linejoin: miter"/>
   </g>
  </g>
  <g id="pane3d_3">
   <g id="patch_5">
    <path d="M 277.62206 245.313992 
L 88.297754 249.524161 
L 185.067753 258.828791 
L 389.249717 253.631761 
" style="fill: #ececec; opacity: 0.5; stroke: #ececec; stroke-linejoin: miter"/>
   </g>
  </g>
  <g id="axis3d_1">
   <g id="line2d_1">
    <path d="M 389.249717 253.631761 
L 185.067753 258.828791 
" style="fill: none; stroke: #000000; stroke-width: 0.8; stroke-linecap: square"/>
   </g>
   <g id="text_1">
    <!-- x -->
    <g transform="translate(303.007283 286.350005)scale(0.16 -0.16)">
     <defs>
      <path id="CMSS17-78" d="M 1587 1414 
L 2656 2739 
L 2099 2739 
L 1363 1777 
L 602 2739 
L 32 2739 
L 1139 1414 
L 0 0 
L 563 0 
L 1363 1121 
L 2195 0 
L 2758 0 
L 1587 1414 
z
" transform="scale(0.015625)"/>
     </defs>
     <use xlink:href="#CMSS17-78" transform="scale(0.996264)"/>
    </g>
   </g>
   <g id="Line3DCollection_1">
    <path d="M 385.395652 253.729858 
L 274.027714 245.393923 
L 274.027714 90.865537 
" style="fill: none; stroke: #b0b0b0; stroke-width: 0.8"/>
    <path d="M 347.941658 254.683172 
L 239.139408 246.169764 
L 239.139408 90.089695 
" style="fill: none; stroke: #b0b0b0; stroke-width: 0.8"/>
    <path d="M 309.64403 255.657959 
L 203.54334 246.961345 
L 203.54334 89.298115 
" style="fill: none; stroke: #b0b0b0; stroke-width: 0.8"/>
    <path d="M 270.473942 256.654953 
L 167.217751 247.769148 
L 167.217751 88.490311 
" style="fill: none; stroke: #b0b0b0; stroke-width: 0.8"/>
    <path d="M 230.401235 257.674921 
L 130.139983 248.593679 
L 130.139983 87.665781 
" style="fill: none; stroke: #b0b0b0; stroke-width: 0.8"/>
    <path d="M 189.394347 258.718667 
L 92.28643 249.435461 
L 92.28643 86.823999 
" style="fill: none; stroke: #b0b0b0; stroke-width: 0.8"/>
   </g>
   <g id="xtick_1">
    <g id="line2d_2">
     <path d="M 384.409437 253.65604 
L 387.373198 253.877878 
" style="fill: none; stroke: #000000; stroke-width: 0.8; stroke-linecap: square"/>
    </g>
    <g id="text_2">
     <!-- $\mathdefault{0}$ -->
     <g transform="translate(390.842518 272.256195)scale(0.1 -0.1)">
      <defs>
       <path id="CMR17-30" d="M 2688 2025 
C 2688 2416 2682 3080 2413 3591 
C 2176 4039 1798 4198 1466 4198 
C 1158 4198 768 4058 525 3597 
C 269 3118 243 2524 243 2025 
C 243 1661 250 1106 448 619 
C 723 -39 1216 -128 1466 -128 
C 1760 -128 2208 -7 2470 600 
C 2662 1042 2688 1559 2688 2025 
z
M 1466 -26 
C 1056 -26 813 325 723 812 
C 653 1188 653 1738 653 2096 
C 653 2588 653 2997 736 3387 
C 858 3929 1216 4096 1466 4096 
C 1728 4096 2067 3923 2189 3400 
C 2272 3036 2278 2607 2278 2096 
C 2278 1680 2278 1169 2202 792 
C 2067 95 1690 -26 1466 -26 
z
" transform="scale(0.015625)"/>
      </defs>
      <use xlink:href="#CMR17-30" transform="scale(0.996264)"/>
     </g>
    </g>
   </g>
   <g id="xtick_2">
    <g id="line2d_3">
     <path d="M 346.977127 254.607701 
L 349.875778 254.834511 
" style="fill: none; stroke: #000000; stroke-width: 0.8; stroke-linecap: square"/>
    </g>
    <g id="text_3">
     <!-- $\mathdefault{1}$ -->
     <g transform="translate(353.214669 273.346382)scale(0.1 -0.1)">
      <defs>
       <path id="CMR17-31" d="M 1702 4058 
C 1702 4192 1696 4192 1606 4192 
C 1357 3916 979 3827 621 3827 
C 602 3827 570 3827 563 3808 
C 557 3795 557 3782 557 3648 
C 755 3648 1088 3686 1344 3839 
L 1344 461 
C 1344 236 1331 160 781 160 
L 589 160 
L 589 0 
C 896 0 1216 0 1523 0 
C 1830 0 2150 0 2458 0 
L 2458 160 
L 2266 160 
C 1715 160 1702 230 1702 458 
L 1702 4058 
z
" transform="scale(0.015625)"/>
      </defs>
      <use xlink:href="#CMR17-31" transform="scale(0.996264)"/>
     </g>
    </g>
   </g>
   <g id="xtick_3">
    <g id="line2d_4">
     <path d="M 308.702416 255.580779 
L 311.532253 255.812729 
" style="fill: none; stroke: #000000; stroke-width: 0.8; stroke-linecap: square"/>
    </g>
    <g id="text_4">
     <!-- $\mathdefault{2}$ -->
     <g transform="translate(314.733256 274.461299)scale(0.1 -0.1)">
      <defs>
       <path id="CMR17-32" d="M 2669 989 
L 2554 989 
C 2490 536 2438 459 2413 420 
C 2381 369 1920 369 1830 369 
L 602 369 
C 832 619 1280 1072 1824 1597 
C 2214 1967 2669 2402 2669 3035 
C 2669 3790 2067 4224 1395 4224 
C 691 4224 262 3604 262 3030 
C 262 2780 448 2748 525 2748 
C 589 2748 781 2787 781 3010 
C 781 3207 614 3264 525 3264 
C 486 3264 448 3258 422 3245 
C 544 3790 915 4058 1306 4058 
C 1862 4058 2227 3617 2227 3035 
C 2227 2479 1901 2000 1536 1584 
L 262 146 
L 262 0 
L 2515 0 
L 2669 989 
z
" transform="scale(0.015625)"/>
      </defs>
      <use xlink:href="#CMR17-32" transform="scale(0.996264)"/>
     </g>
    </g>
   </g>
   <g id="xtick_4">
    <g id="line2d_5">
     <path d="M 269.556544 256.576006 
L 272.313659 256.813272 
" style="fill: none; stroke: #000000; stroke-width: 0.8; stroke-linecap: square"/>
    </g>
    <g id="text_5">
     <!-- $\mathdefault{3}$ -->
     <g transform="translate(275.3689 275.601797)scale(0.1 -0.1)">
      <defs>
       <path id="CMR17-33" d="M 1414 2157 
C 1984 2157 2234 1662 2234 1090 
C 2234 320 1824 25 1453 25 
C 1114 25 563 194 390 693 
C 422 680 454 680 486 680 
C 640 680 755 782 755 948 
C 755 1133 614 1216 486 1216 
C 378 1216 211 1165 211 926 
C 211 335 787 -128 1466 -128 
C 2176 -128 2720 430 2720 1085 
C 2720 1707 2208 2157 1600 2227 
C 2086 2328 2554 2756 2554 3329 
C 2554 3820 2048 4179 1472 4179 
C 890 4179 378 3829 378 3329 
C 378 3110 544 3072 627 3072 
C 762 3072 877 3155 877 3321 
C 877 3486 762 3569 627 3569 
C 602 3569 570 3569 544 3557 
C 730 3959 1235 4032 1459 4032 
C 1683 4032 2106 3925 2106 3320 
C 2106 3143 2080 2828 1862 2550 
C 1670 2304 1453 2304 1242 2284 
C 1210 2284 1062 2269 1037 2269 
C 992 2263 966 2257 966 2208 
C 966 2163 973 2157 1101 2157 
L 1414 2157 
z
" transform="scale(0.015625)"/>
      </defs>
      <use xlink:href="#CMR17-33" transform="scale(0.996264)"/>
     </g>
    </g>
   </g>
   <g id="xtick_5">
    <g id="line2d_6">
     <path d="M 229.509425 257.594145 
L 232.189694 257.836912 
" style="fill: none; stroke: #000000; stroke-width: 0.8; stroke-linecap: square"/>
    </g>
    <g id="text_6">
     <!-- $\mathdefault{4}$ -->
     <g transform="translate(235.090861 276.768767)scale(0.1 -0.1)">
      <defs>
       <path id="CMR17-34" d="M 2150 4122 
C 2150 4256 2144 4256 2029 4256 
L 128 1254 
L 128 1088 
L 1779 1088 
L 1779 457 
C 1779 224 1766 160 1318 160 
L 1197 160 
L 1197 0 
C 1402 0 1747 0 1965 0 
C 2182 0 2528 0 2733 0 
L 2733 160 
L 2611 160 
C 2163 160 2150 224 2150 457 
L 2150 1088 
L 2803 1088 
L 2803 1254 
L 2150 1254 
L 2150 4122 
z
M 1798 3703 
L 1798 1254 
L 256 1254 
L 1798 3703 
z
" transform="scale(0.015625)"/>
      </defs>
      <use xlink:href="#CMR17-34" transform="scale(0.996264)"/>
     </g>
    </g>
   </g>
   <g id="xtick_6">
    <g id="line2d_7">
     <path d="M 188.529574 258.635997 
L 191.128641 258.88446 
" style="fill: none; stroke: #000000; stroke-width: 0.8; stroke-linecap: square"/>
    </g>
    <g id="text_7">
     <!-- $\mathdefault{5}$ -->
     <g transform="translate(193.866955 277.963142)scale(0.1 -0.1)">
      <defs>
       <path id="CMR17-35" d="M 730 3692 
C 794 3666 1056 3584 1325 3584 
C 1920 3584 2246 3911 2432 4100 
C 2432 4157 2432 4192 2394 4192 
C 2387 4192 2374 4192 2323 4163 
C 2099 4058 1837 3973 1517 3973 
C 1325 3973 1037 3999 723 4139 
C 653 4171 640 4171 634 4171 
C 602 4171 595 4164 595 4037 
L 595 2203 
C 595 2089 595 2057 659 2057 
C 691 2057 704 2070 736 2114 
C 941 2401 1222 2522 1542 2522 
C 1766 2522 2246 2382 2246 1289 
C 2246 1085 2246 715 2054 421 
C 1894 159 1645 25 1370 25 
C 947 25 518 320 403 814 
C 429 807 480 795 506 795 
C 589 795 749 840 749 1038 
C 749 1210 627 1280 506 1280 
C 358 1280 262 1190 262 1011 
C 262 454 704 -128 1382 -128 
C 2042 -128 2669 440 2669 1264 
C 2669 2030 2170 2624 1549 2624 
C 1222 2624 947 2503 730 2274 
L 730 3692 
z
" transform="scale(0.015625)"/>
      </defs>
      <use xlink:href="#CMR17-35" transform="scale(0.996264)"/>
     </g>
    </g>
   </g>
  </g>
  <g id="axis3d_2">
   <g id="line2d_8">
    <path d="M 88.297754 249.524161 
L 185.067753 258.828791 
" style="fill: none; stroke: #000000; stroke-width: 0.8; stroke-linecap: square"/>
   </g>
   <g id="text_8">
    <!-- y -->
    <g transform="translate(101.401342 282.62448)scale(0.16 -0.16)">
     <defs>
      <path id="CMSS17-79" d="M 2675 2752 
L 2176 2752 
C 1632 1294 1446 702 1434 383 
L 1427 383 
C 1408 696 1126 1460 902 2007 
L 602 2752 
L 83 2752 
L 1216 13 
C 1146 -178 1043 -465 1011 -529 
C 870 -885 774 -885 672 -885 
C 646 -885 442 -885 211 -809 
L 250 -1229 
C 410 -1261 570 -1280 685 -1280 
C 845 -1280 1165 -1280 1459 -497 
L 2675 2752 
z
" transform="scale(0.015625)"/>
     </defs>
     <use xlink:href="#CMSS17-79" transform="scale(0.996264)"/>
    </g>
   </g>
   <g id="Line3DCollection_2">
    <path d="M 289.444602 90.064528 
L 289.444602 246.194931 
L 98.492814 250.504436 
" style="fill: none; stroke: #b0b0b0; stroke-width: 0.8"/>
    <path d="M 309.617378 88.561384 
L 309.617378 247.698076 
L 115.917982 252.179901 
" style="fill: none; stroke: #b0b0b0; stroke-width: 0.8"/>
    <path d="M 330.582258 86.999217 
L 330.582258 249.260243 
L 134.066707 253.924938 
" style="fill: none; stroke: #b0b0b0; stroke-width: 0.8"/>
    <path d="M 352.386833 85.374481 
L 352.386833 250.884978 
L 152.985012 255.743971 
" style="fill: none; stroke: #b0b0b0; stroke-width: 0.8"/>
    <path d="M 375.082579 83.683342 
L 375.082579 252.576118 
L 172.722907 257.641809 
" style="fill: none; stroke: #b0b0b0; stroke-width: 0.8"/>
   </g>
   <g id="xtick_7">
    <g id="line2d_9">
     <path d="M 100.104047 250.468073 
L 95.266075 250.577259 
" style="fill: none; stroke: #000000; stroke-width: 0.8; stroke-linecap: square"/>
    </g>
    <g id="text_9">
     <!-- $\mathdefault{−4}$ -->
     <g transform="translate(79.209043 268.277403)scale(0.1 -0.1)">
      <defs>
       <path id="CMSY10-0" d="M 4218 1472 
C 4326 1472 4442 1472 4442 1600 
C 4442 1728 4326 1728 4218 1728 
L 755 1728 
C 646 1728 531 1728 531 1600 
C 531 1472 646 1472 755 1472 
L 4218 1472 
z
" transform="scale(0.015625)"/>
      </defs>
      <use xlink:href="#CMSY10-0" transform="scale(0.996264)"/>
      <use xlink:href="#CMR17-34" transform="translate(77.487468 0)scale(0.996264)"/>
     </g>
    </g>
   </g>
   <g id="xtick_8">
    <g id="line2d_10">
     <path d="M 117.554124 252.142044 
L 112.641271 252.255718 
" style="fill: none; stroke: #000000; stroke-width: 0.8; stroke-linecap: square"/>
    </g>
    <g id="text_10">
     <!-- $\mathdefault{−2}$ -->
     <g transform="translate(96.433434 270.180492)scale(0.1 -0.1)">
      <use xlink:href="#CMSY10-0" transform="scale(0.996264)"/>
      <use xlink:href="#CMR17-32" transform="translate(77.487468 0)scale(0.996264)"/>
     </g>
    </g>
   </g>
   <g id="xtick_9">
    <g id="line2d_11">
     <path d="M 135.728458 253.885493 
L 130.738614 254.003937 
" style="fill: none; stroke: #000000; stroke-width: 0.8; stroke-linecap: square"/>
    </g>
    <g id="text_11">
     <!-- $\mathdefault{0}$ -->
     <g transform="translate(118.250054 272.162895)scale(0.1 -0.1)">
      <use xlink:href="#CMR17-30" transform="scale(0.996264)"/>
     </g>
    </g>
   </g>
   <g id="xtick_10">
    <g id="line2d_12">
     <path d="M 154.673097 255.702836 
L 149.60408 255.826357 
" style="fill: none; stroke: #000000; stroke-width: 0.8; stroke-linecap: square"/>
    </g>
    <g id="text_12">
     <!-- $\mathdefault{2}$ -->
     <g transform="translate(136.955992 274.229677)scale(0.1 -0.1)">
      <use xlink:href="#CMR17-32" transform="scale(0.996264)"/>
     </g>
    </g>
   </g>
   <g id="xtick_11">
    <g id="line2d_13">
     <path d="M 174.438073 257.598873 
L 169.287632 257.727805 
" style="fill: none; stroke: #000000; stroke-width: 0.8; stroke-linecap: square"/>
    </g>
    <g id="text_13">
     <!-- $\mathdefault{4}$ -->
     <g transform="translate(156.475437 276.386341)scale(0.1 -0.1)">
      <use xlink:href="#CMR17-34" transform="scale(0.996264)"/>
     </g>
    </g>
   </g>
  </g>
  <g id="axis3d_3">
   <g id="line2d_14">
    <path d="M 88.297754 249.524161 
L 88.297754 86.735299 
" style="fill: none; stroke: #000000; stroke-width: 0.8; stroke-linecap: square"/>
   </g>
   <g id="text_14">
    <!-- z -->
    <g transform="translate(45.385253 172.114786)scale(0.16 -0.16)">
     <defs>
      <path id="CMSS17-7a" d="M 2400 2502 
L 2400 2750 
L 250 2750 
L 250 2368 
L 1069 2368 
C 1146 2368 1222 2368 1299 2368 
L 1747 2368 
L 166 261 
L 166 0 
L 2419 0 
L 2419 395 
L 1549 395 
C 1472 395 1395 395 1318 395 
L 826 395 
L 2400 2502 
z
" transform="scale(0.015625)"/>
     </defs>
     <use xlink:href="#CMSS17-7a" transform="scale(0.996264)"/>
    </g>
   </g>
   <g id="Line3DCollection_3">
    <path d="M 88.297754 246.268383 
L 277.62206 242.226622 
L 389.249717 250.21168 
" style="fill: none; stroke: #b0b0b0; stroke-width: 0.8"/>
    <path d="M 88.297754 215.012922 
L 277.62206 212.587865 
L 389.249717 217.3789 
" style="fill: none; stroke: #b0b0b0; stroke-width: 0.8"/>
    <path d="M 88.297754 183.75746 
L 277.62206 182.949108 
L 389.249717 184.54612 
" style="fill: none; stroke: #b0b0b0; stroke-width: 0.8"/>
    <path d="M 88.297754 152.501999 
L 277.62206 153.310351 
L 389.249717 151.71334 
" style="fill: none; stroke: #b0b0b0; stroke-width: 0.8"/>
    <path d="M 88.297754 121.246538 
L 277.62206 123.671595 
L 389.249717 118.88056 
" style="fill: none; stroke: #b0b0b0; stroke-width: 0.8"/>
    <path d="M 88.297754 89.991076 
L 277.62206 94.032838 
L 389.249717 86.04778 
" style="fill: none; stroke: #b0b0b0; stroke-width: 0.8"/>
   </g>
   <g id="xtick_12">
    <g id="line2d_15">
     <path d="M 89.894268 246.2343 
L 85.100541 246.336639 
" style="fill: none; stroke: #000000; stroke-width: 0.8; stroke-linecap: square"/>
    </g>
    <g id="text_15">
     <!-- $\mathdefault{0}$ -->
     <g transform="translate(67.559314 252.947786)scale(0.1 -0.1)">
      <use xlink:href="#CMR17-30" transform="scale(0.996264)"/>
     </g>
    </g>
   </g>
   <g id="xtick_13">
    <g id="line2d_16">
     <path d="M 89.894268 214.992472 
L 85.100541 215.053875 
" style="fill: none; stroke: #000000; stroke-width: 0.8; stroke-linecap: square"/>
    </g>
    <g id="text_16">
     <!-- $\mathdefault{1}$ -->
     <g transform="translate(67.559314 221.787963)scale(0.1 -0.1)">
      <use xlink:href="#CMR17-31" transform="scale(0.996264)"/>
     </g>
    </g>
   </g>
   <g id="xtick_14">
    <g id="line2d_17">
     <path d="M 89.894268 183.750644 
L 85.100541 183.771111 
" style="fill: none; stroke: #000000; stroke-width: 0.8; stroke-linecap: square"/>
    </g>
    <g id="text_17">
     <!-- $\mathdefault{2}$ -->
     <g transform="translate(67.559314 190.62814)scale(0.1 -0.1)">
      <use xlink:href="#CMR17-32" transform="scale(0.996264)"/>
     </g>
    </g>
   </g>
   <g id="xtick_15">
    <g id="line2d_18">
     <path d="M 89.894268 152.508816 
L 85.100541 152.488348 
" style="fill: none; stroke: #000000; stroke-width: 0.8; stroke-linecap: square"/>
    </g>
    <g id="text_18">
     <!-- $\mathdefault{3}$ -->
     <g transform="translate(67.559314 159.468317)scale(0.1 -0.1)">
      <use xlink:href="#CMR17-33" transform="scale(0.996264)"/>
     </g>
    </g>
   </g>
   <g id="xtick_16">
    <g id="line2d_19">
     <path d="M 89.894268 121.266987 
L 85.100541 121.205584 
" style="fill: none; stroke: #000000; stroke-width: 0.8; stroke-linecap: square"/>
    </g>
    <g id="text_19">
     <!-- $\mathdefault{4}$ -->
     <g transform="translate(67.559314 128.308493)scale(0.1 -0.1)">
      <use xlink:href="#CMR17-34" transform="scale(0.996264)"/>
     </g>
    </g>
   </g>
   <g id="xtick_17">
    <g id="line2d_20">
     <path d="M 89.894268 90.025159 
L 85.100541 89.922821 
" style="fill: none; stroke: #000000; stroke-width: 0.8; stroke-linecap: square"/>
    </g>
    <g id="text_20">
     <!-- $\mathdefault{5}$ -->
     <g transform="translate(67.559314 97.14867)scale(0.1 -0.1)">
      <use xlink:href="#CMR17-35" transform="scale(0.996264)"/>
     </g>
    </g>
   </g>
  </g>
  <g id="axes_1">
   <g id="line2d_21">
    <path d="M 326.861593 246.099807 
L 322.937569 86.916651 
" clip-path="url(#pe7cbe2974b)" style="fill: none; stroke: #ff0000; stroke-width: 1.5; stroke-linecap: square"/>
   </g>
   <g id="line2d_22">
    <path d="M 326.861593 246.099807 
L 233.904557 121.289299 
" clip-path="url(#pe7cbe2974b)" style="fill: none; stroke: #00ff00; stroke-width: 1.5; stroke-linecap: square"/>
   </g>
   <g id="line2d_23">
    <path d="M 326.861593 246.099807 
L 240.830872 -1 
" clip-path="url(#pe7cbe2974b)" style="fill: none; stroke: #0016ff; stroke-width: 1.5; stroke-linecap: square"/>
   </g>
   <g id="line2d_24">
    <path d="M 326.861593 246.099807 
L 111.173975 152.172356 
" clip-path="url(#pe7cbe2974b)" style="fill: none; stroke: #f400ff; stroke-width: 1.5; stroke-linecap: square"/>
   </g>
   <g id="Poly3DCollection_1">
    <path d="M 276.04209 353.925658 
L 258.661124 313.775943 
L 263.470133 303.208191 
L 280.908822 343.599711 
z
" clip-path="url(#pe7cbe2974b)" style="fill: #0000f5; fill-opacity: 0.1"/>
    <path d="M 280.908822 343.599711 
L 263.470133 303.208191 
L 268.324844 292.54001 
L 285.821571 333.176126 
z
" clip-path="url(#pe7cbe2974b)" style="fill: #0000f5; fill-opacity: 0.1"/>
    <path d="M 258.661124 313.775943 
L 241.105284 273.222274 
L 245.855156 262.408353 
L 263.470133 303.208191 
z
" clip-path="url(#pe7cbe2974b)" style="fill: #0000f5; fill-opacity: 0.1"/>
    <path d="M 285.821571 333.176126 
L 268.324844 292.54001 
L 273.225911 281.769963 
L 290.780994 322.653514 
z
" clip-path="url(#pe7cbe2974b)" style="fill: #0000f5; fill-opacity: 0.1"/>
    <path d="M 263.470133 303.208191 
L 245.855156 262.408353 
L 250.650397 251.491141 
L 268.324844 292.54001 
z
" clip-path="url(#pe7cbe2974b)" style="fill: #0000f5; fill-opacity: 0.1"/>
    <path d="M 241.105284 273.222274 
L 223.371918 232.258524 
L 228.061205 221.193972 
L 245.855156 262.408353 
z
" clip-path="url(#pe7cbe2974b)" style="fill: #0000f5; fill-opacity: 0.1"/>
    <path d="M 290.780994 322.653514 
L 273.225911 281.769963 
L 278.174001 270.896583 
L 295.787758 312.030454 
z
" clip-path="url(#pe7cbe2974b)" style="fill: #0000f5; fill-opacity: 0.1"/>
    <path d="M 268.324844 292.54001 
L 250.650397 251.491141 
L 255.49166 240.469153 
L 273.225911 281.769963 
z
" clip-path="url(#pe7cbe2974b)" style="fill: #0000f5; fill-opacity: 0.1"/>
    <path d="M 245.855156 262.408353 
L 228.061205 221.193972 
L 232.795509 210.023198 
L 250.650397 251.491141 
z
" clip-path="url(#pe7cbe2974b)" style="fill: #0000f5; fill-opacity: 0.1"/>
    <path d="M 223.371918 232.258524 
L 205.45832 190.87844 
L 210.085536 179.5587 
L 228.061205 221.193972 
z
" clip-path="url(#pe7cbe2974b)" style="fill: #0000f5; fill-opacity: 0.1"/>
    <path d="M 295.787758 312.030454 
L 278.174001 270.896583 
L 283.169794 259.918375 
L 300.842544 301.305504 
z
" clip-path="url(#pe7cbe2974b)" style="fill: #0000f5; fill-opacity: 0.1"/>
    <path d="M 273.225911 281.769963 
L 255.49166 240.469153 
L 260.37961 229.340872 
L 278.174001 270.896583 
z
" clip-path="url(#pe7cbe2974b)" style="fill: #0000f5; fill-opacity: 0.1"/>
    <path d="M 250.650397 251.491141 
L 232.795509 210.023198 
L 237.575484 198.744663 
L 255.49166 240.469153 
z
" clip-path="url(#pe7cbe2974b)" style="fill: #0000f5; fill-opacity: 0.1"/>
    <path d="M 228.061205 221.193972 
L 210.085536 179.5587 
L 214.757403 168.12973 
L 232.795509 210.023198 
z
" clip-path="url(#pe7cbe2974b)" style="fill: #0000f5; fill-opacity: 0.1"/>
    <path d="M 205.45832 190.87844 
L 187.361728 149.075643 
L 191.925354 137.496056 
L 210.085536 179.5587 
z
" clip-path="url(#pe7cbe2974b)" style="fill: #0000f5; fill-opacity: 0.1"/>
    <path d="M 300.842544 301.305504 
L 283.169794 259.918375 
L 288.213983 248.833817 
L 305.946048 290.477188 
z
" clip-path="url(#pe7cbe2974b)" style="fill: #0000f5; fill-opacity: 0.1"/>
    <path d="M 278.174001 270.896583 
L 260.37961 229.340872 
L 265.314927 218.104754 
L 283.169794 259.918375 
z
" clip-path="url(#pe7cbe2974b)" style="fill: #0000f5; fill-opacity: 0.1"/>
    <path d="M 255.49166 240.469153 
L 237.575484 198.744663 
L 242.401793 187.356801 
L 260.37961 229.340872 
z
" clip-path="url(#pe7cbe2974b)" style="fill: #0000f5; fill-opacity: 0.1"/>
    <path d="M 232.795509 210.023198 
L 214.757403 168.12973 
L 219.47457 156.58994 
L 237.575484 198.744663 
z
" clip-path="url(#pe7cbe2974b)" style="fill: #0000f5; fill-opacity: 0.1"/>
    <path d="M 210.085536 179.5587 
L 191.925354 137.496056 
L 196.533244 125.804154 
L 214.757403 168.12973 
z
" clip-path="url(#pe7cbe2974b)" style="fill: #0000f5; fill-opacity: 0.1"/>
    <path d="M 187.361728 149.075643 
L 169.079323 106.843623 
L 173.577801 94.999424 
L 191.925354 137.496056 
z
" clip-path="url(#pe7cbe2974b)" style="fill: #0000f5; fill-opacity: 0.1"/>
    <path d="M 305.946048 290.477188 
L 288.213983 248.833817 
L 293.307276 237.641356 
L 311.098976 279.544007 
z
" clip-path="url(#pe7cbe2974b)" style="fill: #0000f5; fill-opacity: 0.1"/>
    <path d="M 283.169794 259.918375 
L 265.314927 218.104754 
L 270.298301 206.759224 
L 288.213983 248.833817 
z
" clip-path="url(#pe7cbe2974b)" style="fill: #0000f5; fill-opacity: 0.1"/>
    <path d="M 260.37961 229.340872 
L 242.401793 187.356801 
L 247.275114 175.858015 
L 265.314927 218.104754 
z
" clip-path="url(#pe7cbe2974b)" style="fill: #0000f5; fill-opacity: 0.1"/>
    <path d="M 237.575484 198.744663 
L 219.47457 156.58994 
L 224.237699 144.937711 
L 242.401793 187.356801 
z
" clip-path="url(#pe7cbe2974b)" style="fill: #0000f5; fill-opacity: 0.1"/>
    <path d="M 214.757403 168.12973 
L 196.533244 125.804154 
L 201.186045 113.998295 
L 219.47457 156.58994 
z
" clip-path="url(#pe7cbe2974b)" style="fill: #0000f5; fill-opacity: 0.1"/>
    <path d="M 191.925354 137.496056 
L 173.577801 94.999424 
L 178.120137 83.039749 
L 196.533244 125.804154 
z
" clip-path="url(#pe7cbe2974b)" style="fill: #0000f5; fill-opacity: 0.1"/>
    <path d="M 169.079323 106.843623 
L 150.608229 64.175735 
L 155.039964 52.062055 
L 173.577801 94.999424 
z
" clip-path="url(#pe7cbe2974b)" style="fill: #0000f5; fill-opacity: 0.1"/>
    <path d="M 311.098976 279.544007 
L 293.307276 237.641356 
L 298.450392 226.339408 
L 316.30205 268.504428 
z
" clip-path="url(#pe7cbe2974b)" style="fill: #0000f5; fill-opacity: 0.1"/>
    <path d="M 288.213983 248.833817 
L 270.298301 206.759224 
L 275.330439 195.302675 
L 293.307276 237.641356 
z
" clip-path="url(#pe7cbe2974b)" style="fill: #0000f5; fill-opacity: 0.1"/>
    <path d="M 265.314927 218.104754 
L 247.275114 175.858015 
L 252.196135 164.246676 
L 270.298301 206.759224 
z
" clip-path="url(#pe7cbe2974b)" style="fill: #0000f5; fill-opacity: 0.1"/>
    <path d="M 242.401793 187.356801 
L 224.237699 144.937711 
L 229.047465 133.171392 
L 247.275114 175.858015 
z
" clip-path="url(#pe7cbe2974b)" style="fill: #0000f5; fill-opacity: 0.1"/>
    <path d="M 219.47457 156.58994 
L 201.186045 113.998295 
L 205.884417 102.076806 
L 224.237699 144.937711 
z
" clip-path="url(#pe7cbe2974b)" style="fill: #0000f5; fill-opacity: 0.1"/>
    <path d="M 196.533244 125.804154 
L 178.120137 83.039749 
L 182.706976 70.9629 
L 201.186045 113.998295 
z
" clip-path="url(#pe7cbe2974b)" style="fill: #0000f5; fill-opacity: 0.1"/>
    <path d="M 173.577801 94.999424 
L 155.039964 52.062055 
L 159.515131 39.829656 
L 178.120137 83.039749 
z
" clip-path="url(#pe7cbe2974b)" style="fill: #0000f5; fill-opacity: 0.1"/>
    <path d="M 150.608229 64.175735 
L 131.94551 21.065195 
L 136.308866 8.677055 
L 155.039964 52.062055 
z
" clip-path="url(#pe7cbe2974b)" style="fill: #0000f5; fill-opacity: 0.1"/>
    <path d="M 316.30205 268.504428 
L 298.450392 226.339408 
L 303.644066 214.926359 
L 321.556006 257.356892 
z
" clip-path="url(#pe7cbe2974b)" style="fill: #0000f5; fill-opacity: 0.1"/>
    <path d="M 293.307276 237.641356 
L 275.330439 195.302675 
L 280.41206 183.73347 
L 298.450392 226.339408 
z
" clip-path="url(#pe7cbe2974b)" style="fill: #0000f5; fill-opacity: 0.1"/>
    <path d="M 270.298301 206.759224 
L 252.196135 164.246676 
L 257.165561 152.521123 
L 275.330439 195.302675 
z
" clip-path="url(#pe7cbe2974b)" style="fill: #0000f5; fill-opacity: 0.1"/>
    <path d="M 247.275114 175.858015 
L 229.047465 133.171392 
L 233.904557 121.289299 
L 252.196135 164.246676 
z
" clip-path="url(#pe7cbe2974b)" style="fill: #0000f5; fill-opacity: 0.1"/>
    <path d="M 224.237699 144.937711 
L 205.884417 102.076806 
L 210.629033 90.03798 
L 229.047465 133.171392 
z
" clip-path="url(#pe7cbe2974b)" style="fill: #0000f5; fill-opacity: 0.1"/>
    <path d="M 201.186045 113.998295 
L 182.706976 70.9629 
L 187.338976 58.767148 
L 205.884417 102.076806 
z
" clip-path="url(#pe7cbe2974b)" style="fill: #0000f5; fill-opacity: 0.1"/>
    <path d="M 178.120137 83.039749 
L 159.515131 39.829656 
L 164.034372 27.476784 
L 182.706976 70.9629 
z
" clip-path="url(#pe7cbe2974b)" style="fill: #0000f5; fill-opacity: 0.1"/>
    <path d="M 155.039964 52.062055 
L 136.308866 8.677055 
L 140.715208 -3.833129 
L 159.515131 39.829656 
z
" clip-path="url(#pe7cbe2974b)" style="fill: #0000f5; fill-opacity: 0.1"/>
    <path d="M 131.94551 21.065195 
L 113.088168 -22.49492 
L 117.381469 -35.162611 
L 136.308866 8.677055 
z
" clip-path="url(#pe7cbe2974b)" style="fill: #0000f5; fill-opacity: 0.1"/>
    <path d="M 321.556006 257.356892 
L 303.644066 214.926359 
L 308.889047 203.400562 
L 326.861593 246.099807 
z
" clip-path="url(#pe7cbe2974b)" style="fill: #0000f5; fill-opacity: 0.1"/>
    <path d="M 298.450392 226.339408 
L 280.41206 183.73347 
L 285.543896 172.049939 
L 303.644066 214.926359 
z
" clip-path="url(#pe7cbe2974b)" style="fill: #0000f5; fill-opacity: 0.1"/>
    <path d="M 275.330439 195.302675 
L 257.165561 152.521123 
L 262.184111 140.679663 
L 280.41206 183.73347 
z
" clip-path="url(#pe7cbe2974b)" style="fill: #0000f5; fill-opacity: 0.1"/>
    <path d="M 252.196135 164.246676 
L 233.904557 121.289299 
L 238.809676 109.289714 
L 257.165561 152.521123 
z
" clip-path="url(#pe7cbe2974b)" style="fill: #0000f5; fill-opacity: 0.1"/>
    <path d="M 229.047465 133.171392 
L 210.629033 90.03798 
L 215.420579 77.880075 
L 233.904557 121.289299 
z
" clip-path="url(#pe7cbe2974b)" style="fill: #0000f5; fill-opacity: 0.1"/>
    <path d="M 205.884417 102.076806 
L 187.338976 58.767148 
L 192.016806 46.450727 
L 210.629033 90.03798 
z
" clip-path="url(#pe7cbe2974b)" style="fill: #0000f5; fill-opacity: 0.1"/>
    <path d="M 182.706976 70.9629 
L 164.034372 27.476784 
L 168.598342 15.001651 
L 187.338976 58.767148 
z
" clip-path="url(#pe7cbe2974b)" style="fill: #0000f5; fill-opacity: 0.1"/>
    <path d="M 159.515131 39.829656 
L 140.715208 -3.833129 
L 145.165175 -16.467172 
L 164.034372 27.476784 
z
" clip-path="url(#pe7cbe2974b)" style="fill: #0000f5; fill-opacity: 0.1"/>
    <path d="M 136.308866 8.677055 
L 117.381469 -35.162611 
L 121.717289 -47.955759 
L 140.715208 -3.833129 
z
" clip-path="url(#pe7cbe2974b)" style="fill: #0000f5; fill-opacity: 0.1"/>
    <path d="M 326.861593 246.099807 
L 308.889047 203.400562 
L 314.1861 191.760339 
L 332.219577 234.73155 
z
" clip-path="url(#pe7cbe2974b)" style="fill: #0000f5; fill-opacity: 0.1"/>
    <path d="M 303.644066 214.926359 
L 285.543896 172.049939 
L 290.726697 160.250379 
L 308.889047 203.400562 
z
" clip-path="url(#pe7cbe2974b)" style="fill: #0000f5; fill-opacity: 0.1"/>
    <path d="M 280.41206 183.73347 
L 262.184111 140.679663 
L 267.252515 128.720568 
L 285.543896 172.049939 
z
" clip-path="url(#pe7cbe2974b)" style="fill: #0000f5; fill-opacity: 0.1"/>
    <path d="M 257.165561 152.521123 
L 238.809676 109.289714 
L 243.763539 97.170887 
L 262.184111 140.679663 
z
" clip-path="url(#pe7cbe2974b)" style="fill: #0000f5; fill-opacity: 0.1"/>
    <path d="M 233.904557 121.289299 
L 215.420579 77.880075 
L 220.259755 65.601316 
L 238.809676 109.289714 
z
" clip-path="url(#pe7cbe2974b)" style="fill: #0000f5; fill-opacity: 0.1"/>
    <path d="M 210.629033 90.03798 
L 192.016806 46.450727 
L 196.74115 34.011837 
L 215.420579 77.880075 
z
" clip-path="url(#pe7cbe2974b)" style="fill: #0000f5; fill-opacity: 0.1"/>
    <path d="M 187.338976 58.767148 
L 168.598342 15.001651 
L 173.207709 2.402431 
L 192.016806 46.450727 
z
" clip-path="url(#pe7cbe2974b)" style="fill: #0000f5; fill-opacity: 0.1"/>
    <path d="M 164.034372 27.476784 
L 145.165175 -16.467172 
L 149.659418 -29.22692 
L 168.598342 15.001651 
z
" clip-path="url(#pe7cbe2974b)" style="fill: #0000f5; fill-opacity: 0.1"/>
    <path d="M 140.715208 -3.833129 
L 121.717289 -47.955759 
L 126.096264 -60.876235 
L 145.165175 -16.467172 
z
" clip-path="url(#pe7cbe2974b)" style="fill: #0000f5; fill-opacity: 0.1"/>
    <path d="M 332.219577 234.73155 
L 314.1861 191.760339 
L 319.536003 180.003977 
L 337.630737 223.250466 
z
" clip-path="url(#pe7cbe2974b)" style="fill: #0000f5; fill-opacity: 0.1"/>
    <path d="M 308.889047 203.400562 
L 290.726697 160.250379 
L 295.961225 148.333054 
L 314.1861 191.760339 
z
" clip-path="url(#pe7cbe2974b)" style="fill: #0000f5; fill-opacity: 0.1"/>
    <path d="M 285.543896 172.049939 
L 267.252515 128.720568 
L 272.37152 116.642078 
L 290.726697 160.250379 
z
" clip-path="url(#pe7cbe2974b)" style="fill: #0000f5; fill-opacity: 0.1"/>
    <path d="M 262.184111 140.679663 
L 243.763539 97.170887 
L 248.766875 84.93103 
L 267.252515 128.720568 
z
" clip-path="url(#pe7cbe2974b)" style="fill: #0000f5; fill-opacity: 0.1"/>
    <path d="M 238.809676 109.289714 
L 220.259755 65.601316 
L 225.147274 53.199892 
L 243.763539 97.170887 
z
" clip-path="url(#pe7cbe2974b)" style="fill: #0000f5; fill-opacity: 0.1"/>
    <path d="M 215.420579 77.880075 
L 196.74115 34.011837 
L 201.512705 21.448643 
L 220.259755 65.601316 
z
" clip-path="url(#pe7cbe2974b)" style="fill: #0000f5; fill-opacity: 0.1"/>
    <path d="M 192.016806 46.450727 
L 173.207709 2.402431 
L 177.863152 -10.322734 
L 196.74115 34.011837 
z
" clip-path="url(#pe7cbe2974b)" style="fill: #0000f5; fill-opacity: 0.1"/>
    <path d="M 168.598342 15.001651 
L 149.659418 -29.22692 
L 154.198602 -42.114259 
L 173.207709 2.402431 
z
" clip-path="url(#pe7cbe2974b)" style="fill: #0000f5; fill-opacity: 0.1"/>
    <path d="M 145.165175 -16.467172 
L 126.096264 -60.876235 
L 130.519039 -73.925952 
L 149.659418 -29.22692 
z
" clip-path="url(#pe7cbe2974b)" style="fill: #0000f5; fill-opacity: 0.1"/>
    <path d="M 337.630737 223.250466 
L 319.536003 180.003977 
L 324.939553 168.12973 
L 343.09587 211.654867 
z
" clip-path="url(#pe7cbe2974b)" style="fill: #0000f5; fill-opacity: 0.1"/>
    <path d="M 314.1861 191.760339 
L 295.961225 148.333054 
L 301.248258 136.29619 
L 319.536003 180.003977 
z
" clip-path="url(#pe7cbe2974b)" style="fill: #0000f5; fill-opacity: 0.1"/>
    <path d="M 290.726697 160.250379 
L 272.37152 116.642078 
L 277.541889 104.442394 
L 295.961225 148.333054 
z
" clip-path="url(#pe7cbe2974b)" style="fill: #0000f5; fill-opacity: 0.1"/>
    <path d="M 267.252515 128.720568 
L 248.766875 84.93103 
L 253.820429 72.568322 
L 272.37152 116.642078 
z
" clip-path="url(#pe7cbe2974b)" style="fill: #0000f5; fill-opacity: 0.1"/>
    <path d="M 243.763539 97.170887 
L 225.147274 53.199892 
L 230.083865 40.673955 
L 248.766875 84.93103 
z
" clip-path="url(#pe7cbe2974b)" style="fill: #0000f5; fill-opacity: 0.1"/>
    <path d="M 220.259755 65.601316 
L 201.512705 21.448643 
L 206.332182 8.759273 
L 225.147274 53.199892 
z
" clip-path="url(#pe7cbe2974b)" style="fill: #0000f5; fill-opacity: 0.1"/>
    <path d="M 196.74115 34.011837 
L 177.863152 -10.322734 
L 182.565367 -23.175744 
L 201.512705 21.448643 
z
" clip-path="url(#pe7cbe2974b)" style="fill: #0000f5; fill-opacity: 0.1"/>
    <path d="M 173.207709 2.402431 
L 154.198602 -42.114259 
L 158.783403 -55.131114 
L 177.863152 -10.322734 
z
" clip-path="url(#pe7cbe2974b)" style="fill: #0000f5; fill-opacity: 0.1"/>
    <path d="M 149.659418 -29.22692 
L 130.519039 -73.925952 
L 134.986277 -87.106857 
L 154.198602 -42.114259 
z
" clip-path="url(#pe7cbe2974b)" style="fill: #0000f5; fill-opacity: 0.1"/>
    <path d="M 343.09587 211.654867 
L 324.939553 168.12973 
L 330.397558 156.135814 
L 348.615786 199.943032 
z
" clip-path="url(#pe7cbe2974b)" style="fill: #0000f5; fill-opacity: 0.1"/>
    <path d="M 319.536003 180.003977 
L 301.248258 136.29619 
L 306.588591 124.137982 
L 324.939553 168.12973 
z
" clip-path="url(#pe7cbe2974b)" style="fill: #0000f5; fill-opacity: 0.1"/>
    <path d="M 295.961225 148.333054 
L 277.541889 104.442394 
L 282.764397 92.119685 
L 301.248258 136.29619 
z
" clip-path="url(#pe7cbe2974b)" style="fill: #0000f5; fill-opacity: 0.1"/>
    <path d="M 272.37152 116.642078 
L 253.820429 72.568322 
L 258.924962 60.080905 
L 277.541889 104.442394 
z
" clip-path="url(#pe7cbe2974b)" style="fill: #0000f5; fill-opacity: 0.1"/>
    <path d="M 248.766875 84.93103 
L 230.083865 40.673955 
L 235.07027 28.021621 
L 253.820429 72.568322 
z
" clip-path="url(#pe7cbe2974b)" style="fill: #0000f5; fill-opacity: 0.1"/>
    <path d="M 225.147274 53.199892 
L 206.332182 8.759273 
L 211.200308 -4.058185 
L 230.083865 40.673955 
z
" clip-path="url(#pe7cbe2974b)" style="fill: #0000f5; fill-opacity: 0.1"/>
    <path d="M 201.512705 21.448643 
L 182.565367 -23.175744 
L 187.315061 -36.158534 
L 206.332182 8.759273 
z
" clip-path="url(#pe7cbe2974b)" style="fill: #0000f5; fill-opacity: 0.1"/>
    <path d="M 177.863152 -10.322734 
L 158.783403 -55.131114 
L 163.414513 -68.279445 
L 182.565367 -23.175744 
z
" clip-path="url(#pe7cbe2974b)" style="fill: #0000f5; fill-opacity: 0.1"/>
    <path d="M 154.198602 -42.114259 
L 134.986277 -87.106857 
L 139.498651 -100.420938 
L 158.783403 -55.131114 
z
" clip-path="url(#pe7cbe2974b)" style="fill: #0000f5; fill-opacity: 0.1"/>
    <path d="M 348.615786 199.943032 
L 330.397558 156.135814 
L 335.910848 144.020413 
L 354.191313 188.113203 
z
" clip-path="url(#pe7cbe2974b)" style="fill: #0000f5; fill-opacity: 0.1"/>
    <path d="M 324.939553 168.12973 
L 306.588591 124.137982 
L 311.983033 111.856583 
L 330.397558 156.135814 
z
" clip-path="url(#pe7cbe2974b)" style="fill: #0000f5; fill-opacity: 0.1"/>
    <path d="M 301.248258 136.29619 
L 282.764397 92.119685 
L 288.039838 79.672079 
L 306.588591 124.137982 
z
" clip-path="url(#pe7cbe2974b)" style="fill: #0000f5; fill-opacity: 0.1"/>
    <path d="M 277.541889 104.442394 
L 258.924962 60.080905 
L 264.081248 47.46688 
L 282.764397 92.119685 
z
" clip-path="url(#pe7cbe2974b)" style="fill: #0000f5; fill-opacity: 0.1"/>
    <path d="M 253.820429 72.568322 
L 235.07027 28.021621 
L 240.107248 15.240968 
L 258.924962 60.080905 
z
" clip-path="url(#pe7cbe2974b)" style="fill: #0000f5; fill-opacity: 0.1"/>
    <path d="M 230.083865 40.673955 
L 211.200308 -4.058185 
L 216.117822 -17.005679 
L 235.07027 28.021621 
z
" clip-path="url(#pe7cbe2974b)" style="fill: #0000f5; fill-opacity: 0.1"/>
    <path d="M 206.332182 8.759273 
L 187.315061 -36.158534 
L 192.112957 -49.27308 
L 211.200308 -4.058185 
z
" clip-path="url(#pe7cbe2974b)" style="fill: #0000f5; fill-opacity: 0.1"/>
    <path d="M 182.565367 -23.175744 
L 163.414513 -68.279445 
L 168.092638 -81.561255 
L 187.315061 -36.158534 
z
" clip-path="url(#pe7cbe2974b)" style="fill: #0000f5; fill-opacity: 0.1"/>
    <path d="M 158.783403 -55.131114 
L 139.498651 -100.420938 
L 144.056848 -113.870225 
L 163.414513 -68.279445 
z
" clip-path="url(#pe7cbe2974b)" style="fill: #0000f5; fill-opacity: 0.1"/>
    <path d="M 354.191313 188.113203 
L 335.910848 144.020413 
L 341.480266 131.78167 
L 359.823297 176.163588 
z
" clip-path="url(#pe7cbe2974b)" style="fill: #0000f5; fill-opacity: 0.1"/>
    <path d="M 330.397558 156.135814 
L 311.983033 111.856583 
L 317.432411 99.450113 
L 335.910848 144.020413 
z
" clip-path="url(#pe7cbe2974b)" style="fill: #0000f5; fill-opacity: 0.1"/>
    <path d="M 306.588591 124.137982 
L 288.039838 79.672079 
L 293.369021 67.097667 
L 311.983033 111.856583 
z
" clip-path="url(#pe7cbe2974b)" style="fill: #0000f5; fill-opacity: 0.1"/>
    <path d="M 282.764397 92.119685 
L 264.081248 47.46688 
L 269.290079 34.724314 
L 288.039838 79.672079 
z
" clip-path="url(#pe7cbe2974b)" style="fill: #0000f5; fill-opacity: 0.1"/>
    <path d="M 258.924962 60.080905 
L 240.107248 15.240968 
L 245.19557 2.330032 
L 264.081248 47.46688 
z
" clip-path="url(#pe7cbe2974b)" style="fill: #0000f5; fill-opacity: 0.1"/>
    <path d="M 235.07027 28.021621 
L 216.117822 -17.005679 
L 221.08548 -30.085199 
L 240.107248 15.240968 
z
" clip-path="url(#pe7cbe2974b)" style="fill: #0000f5; fill-opacity: 0.1"/>
    <path d="M 211.200308 -4.058185 
L 192.112957 -49.27308 
L 196.959794 -62.521399 
L 216.117822 -17.005679 
z
" clip-path="url(#pe7cbe2974b)" style="fill: #0000f5; fill-opacity: 0.1"/>
    <path d="M 187.315061 -36.158534 
L 168.092638 -81.561255 
L 172.818496 -94.978588 
L 192.112957 -49.27308 
z
" clip-path="url(#pe7cbe2974b)" style="fill: #0000f5; fill-opacity: 0.1"/>
    <path d="M 163.414513 -68.279445 
L 144.056848 -113.870225 
L 148.66157 -127.456787 
L 168.092638 -81.561255 
z
" clip-path="url(#pe7cbe2974b)" style="fill: #0000f5; fill-opacity: 0.1"/>
    <path d="M 359.823297 176.163588 
L 341.480266 131.78167 
L 347.106674 119.417693 
L 365.512599 164.09236 
z
" clip-path="url(#pe7cbe2974b)" style="fill: #0000f5; fill-opacity: 0.1"/>
    <path d="M 335.910848 144.020413 
L 317.432411 99.450113 
L 322.937569 86.916651 
L 341.480266 131.78167 
z
" clip-path="url(#pe7cbe2974b)" style="fill: #0000f5; fill-opacity: 0.1"/>
    <path d="M 311.983033 111.856583 
L 293.369021 67.097667 
L 298.75277 54.394504 
L 317.432411 99.450113 
z
" clip-path="url(#pe7cbe2974b)" style="fill: #0000f5; fill-opacity: 0.1"/>
    <path d="M 288.039838 79.672079 
L 269.290079 34.724314 
L 274.552261 21.851231 
L 293.369021 67.097667 
z
" clip-path="url(#pe7cbe2974b)" style="fill: #0000f5; fill-opacity: 0.1"/>
    <path d="M 264.081248 47.46688 
L 245.19557 2.330032 
L 250.336027 -10.713188 
L 269.290079 34.724314 
z
" clip-path="url(#pe7cbe2974b)" style="fill: #0000f5; fill-opacity: 0.1"/>
    <path d="M 240.107248 15.240968 
L 221.08548 -30.085199 
L 226.104053 -43.298774 
L 245.19557 2.330032 
z
" clip-path="url(#pe7cbe2974b)" style="fill: #0000f5; fill-opacity: 0.1"/>
    <path d="M 216.117822 -17.005679 
L 196.959794 -62.521399 
L 201.856323 -75.905547 
L 221.08548 -30.085199 
z
" clip-path="url(#pe7cbe2974b)" style="fill: #0000f5; fill-opacity: 0.1"/>
    <path d="M 192.112957 -49.27308 
L 172.818496 -94.978588 
L 177.592822 -108.533528 
L 196.959794 -62.521399 
z
" clip-path="url(#pe7cbe2974b)" style="fill: #0000f5; fill-opacity: 0.1"/>
    <path d="M 168.092638 -81.561255 
L 148.66157 -127.456787 
L 153.313534 -141.182738 
L 172.818496 -94.978588 
z
" clip-path="url(#pe7cbe2974b)" style="fill: #0000f5; fill-opacity: 0.1"/>
    <path d="M 365.512599 164.09236 
L 347.106674 119.417693 
L 352.79095 106.92655 
L 371.260099 151.897651 
z
" clip-path="url(#pe7cbe2974b)" style="fill: #0000f5; fill-opacity: 0.1"/>
    <path d="M 341.480266 131.78167 
L 322.937569 86.916651 
L 328.499367 74.254237 
L 347.106674 119.417693 
z
" clip-path="url(#pe7cbe2974b)" style="fill: #0000f5; fill-opacity: 0.1"/>
    <path d="M 317.432411 99.450113 
L 298.75277 54.394504 
L 304.191929 41.560599 
L 322.937569 86.916651 
z
" clip-path="url(#pe7cbe2974b)" style="fill: #0000f5; fill-opacity: 0.1"/>
    <path d="M 293.369021 67.097667 
L 274.552261 21.851231 
L 279.86862 8.845615 
L 298.75277 54.394504 
z
" clip-path="url(#pe7cbe2974b)" style="fill: #0000f5; fill-opacity: 0.1"/>
    <path d="M 269.290079 34.724314 
L 250.336027 -10.713188 
L 255.529424 -23.890736 
L 274.552261 21.851231 
z
" clip-path="url(#pe7cbe2974b)" style="fill: #0000f5; fill-opacity: 0.1"/>
    <path d="M 245.19557 2.330032 
L 226.104053 -43.298774 
L 231.174327 -56.648475 
L 250.336027 -10.713188 
z
" clip-path="url(#pe7cbe2974b)" style="fill: #0000f5; fill-opacity: 0.1"/>
    <path d="M 221.08548 -30.085199 
L 201.856323 -75.905547 
L 206.803313 -89.427624 
L 226.104053 -43.298774 
z
" clip-path="url(#pe7cbe2974b)" style="fill: #0000f5; fill-opacity: 0.1"/>
    <path d="M 196.959794 -62.521399 
L 177.592822 -108.533528 
L 182.416365 -122.228202 
L 201.856323 -75.905547 
z
" clip-path="url(#pe7cbe2974b)" style="fill: #0000f5; fill-opacity: 0.1"/>
    <path d="M 172.818496 -94.978588 
L 153.313534 -141.182738 
L 158.013469 -155.050232 
L 177.592822 -108.533528 
z
" clip-path="url(#pe7cbe2974b)" style="fill: #0000f5; fill-opacity: 0.1"/>
    <path d="M 371.260099 151.897651 
L 352.79095 106.92655 
L 358.533993 94.306268 
L 377.066694 139.577558 
z
" clip-path="url(#pe7cbe2974b)" style="fill: #0000f5; fill-opacity: 0.1"/>
    <path d="M 347.106674 119.417693 
L 328.499367 74.254237 
L 334.118684 61.460871 
L 352.79095 106.92655 
z
" clip-path="url(#pe7cbe2974b)" style="fill: #0000f5; fill-opacity: 0.1"/>
    <path d="M 322.937569 86.916651 
L 304.191929 41.560599 
L 309.687357 28.593926 
L 328.499367 74.254237 
z
" clip-path="url(#pe7cbe2974b)" style="fill: #0000f5; fill-opacity: 0.1"/>
    <path d="M 298.75277 54.394504 
L 279.86862 8.845615 
L 285.239995 -4.29459 
L 304.191929 41.560599 
z
" clip-path="url(#pe7cbe2974b)" style="fill: #0000f5; fill-opacity: 0.1"/>
    <path d="M 274.552261 21.851231 
L 255.529424 -23.890736 
L 260.776583 -37.204698 
L 279.86862 8.845615 
z
" clip-path="url(#pe7cbe2974b)" style="fill: #0000f5; fill-opacity: 0.1"/>
    <path d="M 250.336027 -10.713188 
L 231.174327 -56.648475 
L 236.297106 -70.136418 
L 255.529424 -23.890736 
z
" clip-path="url(#pe7cbe2974b)" style="fill: #0000f5; fill-opacity: 0.1"/>
    <path d="M 226.104053 -43.298774 
L 206.803313 -89.427624 
L 211.801547 -103.089773 
L 231.174327 -56.648475 
z
" clip-path="url(#pe7cbe2974b)" style="fill: #0000f5; fill-opacity: 0.1"/>
    <path d="M 201.856323 -75.905547 
L 182.416365 -122.228202 
L 187.289891 -136.064783 
L 206.803313 -89.427624 
z
" clip-path="url(#pe7cbe2974b)" style="fill: #0000f5; fill-opacity: 0.1"/>
    <path d="M 177.592822 -108.533528 
L 158.013469 -155.050232 
L 162.762121 -169.061471 
L 182.416365 -122.228202 
z
" clip-path="url(#pe7cbe2974b)" style="fill: #0000f5; fill-opacity: 0.1"/>
    <path d="M 352.79095 106.92655 
L 334.118684 61.460871 
L 339.796417 48.534511 
L 358.533993 94.306268 
z
" clip-path="url(#pe7cbe2974b)" style="fill: #0000f5; fill-opacity: 0.1"/>
    <path d="M 328.499367 74.254237 
L 309.687357 28.593926 
L 315.239931 15.492412 
L 334.118684 61.460871 
z
" clip-path="url(#pe7cbe2974b)" style="fill: #0000f5; fill-opacity: 0.1"/>
    <path d="M 304.191929 41.560599 
L 285.239995 -4.29459 
L 290.667246 -17.571485 
L 309.687357 28.593926 
z
" clip-path="url(#pe7cbe2974b)" style="fill: #0000f5; fill-opacity: 0.1"/>
    <path d="M 279.86862 8.845615 
L 260.776583 -37.204698 
L 266.078344 -50.657202 
L 285.239995 -4.29459 
z
" clip-path="url(#pe7cbe2974b)" style="fill: #0000f5; fill-opacity: 0.1"/>
    <path d="M 255.529424 -23.890736 
L 236.297106 -70.136418 
L 241.473209 -83.764761 
L 260.776583 -37.204698 
z
" clip-path="url(#pe7cbe2974b)" style="fill: #0000f5; fill-opacity: 0.1"/>
    <path d="M 231.174327 -56.648475 
L 211.801547 -103.089773 
L 216.851827 -116.894182 
L 236.297106 -70.136418 
z
" clip-path="url(#pe7cbe2974b)" style="fill: #0000f5; fill-opacity: 0.1"/>
    <path d="M 206.803313 -89.427624 
L 187.289891 -136.064783 
L 192.21418 -150.045488 
L 211.801547 -103.089773 
z
" clip-path="url(#pe7cbe2974b)" style="fill: #0000f5; fill-opacity: 0.1"/>
    <path d="M 182.416365 -122.228202 
L 162.762121 -169.061471 
L 167.560253 -183.218701 
L 187.289891 -136.064783 
z
" clip-path="url(#pe7cbe2974b)" style="fill: #0000f5; fill-opacity: 0.1"/>
    <path d="M 334.118684 61.460871 
L 315.239931 15.492412 
L 320.850549 2.253944 
L 339.796417 48.534511 
z
" clip-path="url(#pe7cbe2974b)" style="fill: #0000f5; fill-opacity: 0.1"/>
    <path d="M 309.687357 28.593926 
L 290.667246 -17.571485 
L 296.151248 -30.987214 
L 315.239931 15.492412 
z
" clip-path="url(#pe7cbe2974b)" style="fill: #0000f5; fill-opacity: 0.1"/>
    <path d="M 285.239995 -4.29459 
L 266.078344 -50.657202 
L 271.435562 -64.250424 
L 290.667246 -17.571485 
z
" clip-path="url(#pe7cbe2974b)" style="fill: #0000f5; fill-opacity: 0.1"/>
    <path d="M 260.776583 -37.204698 
L 241.473209 -83.764761 
L 246.703474 -97.535707 
L 266.078344 -50.657202 
z
" clip-path="url(#pe7cbe2974b)" style="fill: #0000f5; fill-opacity: 0.1"/>
    <path d="M 236.297106 -70.136418 
L 216.851827 -116.894182 
L 221.954969 -130.843085 
L 241.473209 -83.764761 
z
" clip-path="url(#pe7cbe2974b)" style="fill: #0000f5; fill-opacity: 0.1"/>
    <path d="M 211.801547 -103.089773 
L 192.21418 -150.045488 
L 197.19003 -164.172581 
L 216.851827 -116.894182 
z
" clip-path="url(#pe7cbe2974b)" style="fill: #0000f5; fill-opacity: 0.1"/>
    <path d="M 187.289891 -136.064783 
L 167.560253 -183.218701 
L 172.40864 -197.524216 
L 192.21418 -150.045488 
z
" clip-path="url(#pe7cbe2974b)" style="fill: #0000f5; fill-opacity: 0.1"/>
    <path d="M 315.239931 15.492412 
L 296.151248 -30.987214 
L 301.692896 -44.543966 
L 320.850549 2.253944 
z
" clip-path="url(#pe7cbe2974b)" style="fill: #0000f5; fill-opacity: 0.1"/>
    <path d="M 290.667246 -17.571485 
L 271.435562 -64.250424 
L 276.849112 -77.986581 
L 296.151248 -30.987214 
z
" clip-path="url(#pe7cbe2974b)" style="fill: #0000f5; fill-opacity: 0.1"/>
    <path d="M 266.078344 -50.657202 
L 246.703474 -97.535707 
L 251.988755 -111.451506 
L 271.435562 -64.250424 
z
" clip-path="url(#pe7cbe2974b)" style="fill: #0000f5; fill-opacity: 0.1"/>
    <path d="M 241.473209 -83.764761 
L 221.954969 -130.843085 
L 227.111808 -144.938762 
L 246.703474 -97.535707 
z
" clip-path="url(#pe7cbe2974b)" style="fill: #0000f5; fill-opacity: 0.1"/>
    <path d="M 216.851827 -116.894182 
L 197.19003 -164.172581 
L 202.218255 -178.448373 
L 221.954969 -130.843085 
z
" clip-path="url(#pe7cbe2974b)" style="fill: #0000f5; fill-opacity: 0.1"/>
    <path d="M 192.21418 -150.045488 
L 172.40864 -197.524216 
L 177.308079 -211.980359 
L 197.19003 -164.172581 
z
" clip-path="url(#pe7cbe2974b)" style="fill: #0000f5; fill-opacity: 0.1"/>
    <path d="M 296.151248 -30.987214 
L 276.849112 -77.986581 
L 282.319888 -91.867942 
L 301.692896 -44.543966 
z
" clip-path="url(#pe7cbe2974b)" style="fill: #0000f5; fill-opacity: 0.1"/>
    <path d="M 271.435562 -64.250424 
L 251.988755 -111.451506 
L 257.329924 -125.514456 
L 276.849112 -77.986581 
z
" clip-path="url(#pe7cbe2974b)" style="fill: #0000f5; fill-opacity: 0.1"/>
    <path d="M 246.703474 -97.535707 
L 227.111808 -144.938762 
L 232.323195 -159.183543 
L 251.988755 -111.451506 
z
" clip-path="url(#pe7cbe2974b)" style="fill: #0000f5; fill-opacity: 0.1"/>
    <path d="M 221.954969 -130.843085 
L 202.218255 -178.448373 
L 207.299685 -192.875223 
L 227.111808 -144.938762 
z
" clip-path="url(#pe7cbe2974b)" style="fill: #0000f5; fill-opacity: 0.1"/>
    <path d="M 197.19003 -164.172581 
L 177.308079 -211.980359 
L 182.259377 -226.58952 
L 202.218255 -178.448373 
z
" clip-path="url(#pe7cbe2974b)" style="fill: #0000f5; fill-opacity: 0.1"/>
    <path d="M 276.849112 -77.986581 
L 257.329924 -125.514456 
L 262.727873 -139.726904 
L 282.319888 -91.867942 
z
" clip-path="url(#pe7cbe2974b)" style="fill: #0000f5; fill-opacity: 0.1"/>
    <path d="M 251.988755 -111.451506 
L 232.323195 -159.183543 
L 237.590001 -173.579804 
L 257.329924 -125.514456 
z
" clip-path="url(#pe7cbe2974b)" style="fill: #0000f5; fill-opacity: 0.1"/>
    <path d="M 227.111808 -144.938762 
L 207.299685 -192.875223 
L 212.435171 -207.455543 
L 232.323195 -159.183543 
z
" clip-path="url(#pe7cbe2974b)" style="fill: #0000f5; fill-opacity: 0.1"/>
    <path d="M 202.218255 -178.448373 
L 182.259377 -226.58952 
L 187.263365 -241.354143 
L 207.299685 -192.875223 
z
" clip-path="url(#pe7cbe2974b)" style="fill: #0000f5; fill-opacity: 0.1"/>
    <path d="M 257.329924 -125.514456 
L 237.590001 -173.579804 
L 242.913115 -188.129977 
L 262.727873 -139.726904 
z
" clip-path="url(#pe7cbe2974b)" style="fill: #0000f5; fill-opacity: 0.1"/>
    <path d="M 232.323195 -159.183543 
L 212.435171 -207.455543 
L 217.625579 -222.191794 
L 237.590001 -173.579804 
z
" clip-path="url(#pe7cbe2974b)" style="fill: #0000f5; fill-opacity: 0.1"/>
    <path d="M 207.299685 -192.875223 
L 187.263365 -241.354143 
L 192.320886 -256.276721 
L 212.435171 -207.455543 
z
" clip-path="url(#pe7cbe2974b)" style="fill: #0000f5; fill-opacity: 0.1"/>
    <path d="M 237.590001 -173.579804 
L 217.625579 -222.191794 
L 222.871795 -237.086491 
L 242.913115 -188.129977 
z
" clip-path="url(#pe7cbe2974b)" style="fill: #0000f5; fill-opacity: 0.1"/>
    <path d="M 212.435171 -207.455543 
L 192.320886 -256.276721 
L 197.432805 -271.359804 
L 217.625579 -222.191794 
z
" clip-path="url(#pe7cbe2974b)" style="fill: #0000f5; fill-opacity: 0.1"/>
    <path d="M 217.625579 -222.191794 
L 197.432805 -271.359804 
L 202.600004 -286.605994 
L 222.871795 -237.086491 
z
" clip-path="url(#pe7cbe2974b)" style="fill: #0000f5; fill-opacity: 0.1"/>
   </g>
   <g id="legend_1">
    <g id="patch_6">
     <path d="M 357.840076 67.305115 
L 396.2 67.305115 
Q 398.2 67.305115 398.2 65.305115 
L 398.2 7 
Q 398.2 5 396.2 5 
L 357.840076 5 
Q 355.840076 5 355.840076 7 
L 355.840076 65.305115 
Q 355.840076 67.305115 357.840076 67.305115 
z
" style="fill: #ffffff; opacity: 0.8; stroke: #cccccc; stroke-linejoin: miter"/>
    </g>
    <g id="line2d_25">
     <path d="M 359.840076 12.5 
L 369.840076 12.5 
L 379.840076 12.5 
" style="fill: none; stroke: #ff0000; stroke-width: 1.5; stroke-linecap: square"/>
    </g>
    <g id="text_21">
     <!-- $\vec{a}$ -->
     <g transform="translate(387.840076 16)scale(0.1 -0.1)">
      <defs>
       <path id="CMMI12-7e" d="M 3424 3835 
C 3347 3764 3110 3540 3110 3451 
C 3110 3387 3168 3329 3232 3329 
C 3290 3329 3315 3368 3360 3432 
C 3514 3624 3686 3745 3834 3828 
C 3898 3867 3942 3886 3942 3956 
C 3942 4014 3891 4046 3853 4078 
C 3674 4200 3629 4372 3610 4449 
C 3590 4500 3571 4577 3482 4577 
C 3443 4577 3366 4552 3366 4456 
C 3366 4398 3405 4244 3526 4072 
L 1376 4072 
C 1267 4072 1158 4072 1158 3950 
C 1158 3835 1274 3835 1376 3835 
L 3424 3835 
z
" transform="scale(0.015625)"/>
       <path id="CMMI12-61" d="M 1926 760 
C 1894 651 1894 639 1805 517 
C 1664 338 1382 64 1082 64 
C 819 64 672 300 672 677 
C 672 1028 870 1743 992 2012 
C 1210 2459 1510 2689 1760 2689 
C 2182 2689 2266 2165 2266 2114 
C 2266 2108 2246 2024 2240 2012 
L 1926 760 
z
M 2336 2395 
C 2266 2561 2093 2816 1760 2816 
C 1037 2816 256 1884 256 939 
C 256 307 627 -64 1062 -64 
C 1414 -64 1715 211 1894 422 
C 1958 45 2259 -64 2451 -64 
C 2643 -64 2797 51 2912 281 
C 3014 498 3104 888 3104 913 
C 3104 945 3078 971 3040 971 
C 2982 971 2976 939 2950 843 
C 2854 466 2733 64 2470 64 
C 2285 64 2272 230 2272 358 
C 2272 505 2291 575 2349 824 
C 2394 984 2426 1124 2477 1309 
C 2714 2267 2771 2497 2771 2535 
C 2771 2625 2701 2695 2605 2695 
C 2400 2695 2349 2472 2336 2395 
z
" transform="scale(0.015625)"/>
      </defs>
      <use xlink:href="#CMMI12-7e" transform="scale(0.996264)"/>
      <use xlink:href="#CMMI12-61" transform="translate(6.445738 0)scale(0.996264)"/>
     </g>
    </g>
    <g id="line2d_26">
     <path d="M 359.840076 27.24679 
L 369.840076 27.24679 
L 379.840076 27.24679 
" style="fill: none; stroke: #00ff00; stroke-width: 1.5; stroke-linecap: square"/>
    </g>
    <g id="text_22">
     <!-- $\vec{b}$ -->
     <g transform="translate(387.840076 30.74679)scale(0.1 -0.1)">
      <defs>
       <path id="CMMI12-62" d="M 1478 4257 
C 1485 4283 1498 4321 1498 4352 
C 1498 4416 1434 4416 1421 4416 
C 1414 4416 1184 4393 1069 4377 
C 960 4377 864 4358 749 4358 
C 595 4345 550 4339 550 4224 
C 550 4160 614 4160 678 4160 
C 1005 4160 1005 4103 1005 4040 
C 1005 3996 954 3811 928 3696 
L 774 3085 
C 710 2831 346 1387 320 1272 
C 288 1114 288 1005 288 922 
C 288 274 653 -64 1069 -64 
C 1811 -64 2579 888 2579 1814 
C 2579 2401 2246 2816 1766 2816 
C 1434 2816 1133 2542 1011 2414 
L 1478 4257 
z
M 1075 64 
C 870 64 646 217 646 715 
C 646 926 666 1047 781 1494 
C 800 1577 902 1986 928 2069 
C 941 2120 1318 2689 1754 2689 
C 2035 2689 2163 2408 2163 2076 
C 2163 1769 1984 1047 1824 715 
C 1664 370 1370 64 1075 64 
z
" transform="scale(0.015625)"/>
      </defs>
      <use xlink:href="#CMMI12-7e" transform="translate(0 26.29016)scale(0.996264)"/>
      <use xlink:href="#CMMI12-62" transform="translate(11.311737 0)scale(0.996264)"/>
     </g>
    </g>
    <g id="line2d_27">
     <path d="M 359.840076 41.183968 
L 369.840076 41.183968 
L 379.840076 41.183968 
" style="fill: none; stroke: #0016ff; stroke-width: 1.5; stroke-linecap: square"/>
    </g>
    <g id="text_23">
     <!-- $\vec{c}$ -->
     <g transform="translate(387.840076 44.683968)scale(0.1 -0.1)">
      <defs>
       <path id="CMMI12-63" d="M 2502 2431 
C 2381 2431 2323 2431 2234 2355 
C 2195 2323 2125 2227 2125 2125 
C 2125 1997 2221 1920 2342 1920 
C 2496 1920 2669 2044 2669 2292 
C 2669 2588 2374 2816 1933 2816 
C 1094 2816 256 1903 256 996 
C 256 441 602 -64 1254 -64 
C 2125 -64 2675 622 2675 706 
C 2675 744 2637 776 2611 776 
C 2592 776 2586 770 2528 713 
C 2118 162 1510 64 1267 64 
C 826 64 685 446 685 764 
C 685 988 794 1605 1024 2039 
C 1190 2338 1536 2682 1939 2682 
C 2022 2682 2374 2682 2502 2431 
z
" transform="scale(0.015625)"/>
      </defs>
      <use xlink:href="#CMMI12-7e" transform="scale(0.996264)"/>
      <use xlink:href="#CMMI12-63" transform="translate(5.638615 0)scale(0.996264)"/>
     </g>
    </g>
    <g id="line2d_28">
     <path d="M 359.840076 57.867937 
L 369.840076 57.867937 
L 379.840076 57.867937 
" style="fill: none; stroke: #f400ff; stroke-width: 1.5; stroke-linecap: square"/>
    </g>
    <g id="text_24">
     <!-- $\vec{f}$ -->
     <g transform="translate(387.840076 61.367937)scale(0.1 -0.1)">
      <defs>
       <path id="CMMI12-66" d="M 2854 2566 
C 2982 2566 3034 2566 3034 2688 
C 3034 2752 2982 2752 2867 2752 
L 2349 2752 
C 2470 3429 2560 3897 2611 4107 
C 2650 4265 2784 4416 2950 4416 
C 3085 4416 3219 4358 3283 4298 
C 3034 4272 2957 4082 2957 3969 
C 2957 3837 3053 3759 3174 3759 
C 3302 3759 3494 3870 3494 4119 
C 3494 4393 3226 4544 2944 4544 
C 2669 4544 2400 4334 2272 4078 
C 2157 3848 2093 3611 1946 2752 
L 1517 2752 
C 1395 2752 1331 2752 1331 2637 
C 1331 2566 1370 2566 1498 2566 
L 1907 2566 
C 1792 1976 1530 542 1382 -137 
C 1274 -689 1178 -1152 858 -1152 
C 838 -1152 653 -1152 538 -1031 
C 864 -1005 864 -726 864 -720 
C 864 -593 768 -517 646 -517 
C 518 -517 326 -625 326 -867 
C 326 -1140 608 -1280 858 -1280 
C 1510 -1280 1779 -118 1850 199 
C 1965 688 2278 2376 2310 2566 
L 2854 2566 
z
" transform="scale(0.015625)"/>
      </defs>
      <use xlink:href="#CMMI12-7e" transform="translate(13.568792 26.29016)scale(0.996264)"/>
      <use xlink:href="#CMMI12-66" transform="scale(0.996264)"/>
     </g>
    </g>
   </g>
  </g>
 </g>
 <defs>
  <clipPath id="pe7cbe2974b">
   <rect x="57.6" y="0" width="345.6" height="345.6"/>
  </clipPath>
 </defs>
</svg>
