<?xml version="1.0" encoding="utf-8" standalone="no"?>
<!DOCTYPE svg PUBLIC "-//W3C//DTD SVG 1.1//EN"
  "http://www.w3.org/Graphics/SVG/1.1/DTD/svg11.dtd">
<svg xmlns:xlink="http://www.w3.org/1999/xlink" width="460.8pt" height="345.6pt" viewBox="0 0 460.8 345.6" xmlns="http://www.w3.org/2000/svg" version="1.1">
 <metadata>
  <rdf:RDF xmlns:dc="http://purl.org/dc/elements/1.1/" xmlns:cc="http://creativecommons.org/ns#" xmlns:rdf="http://www.w3.org/1999/02/22-rdf-syntax-ns#">
   <cc:Work>
    <dc:type rdf:resource="http://purl.org/dc/dcmitype/StillImage"/>
    <dc:date>2022-07-12T15:50:54.354755</dc:date>
    <dc:format>image/svg+xml</dc:format>
    <dc:creator>
     <cc:Agent>
      <dc:title>Matplotlib v3.5.1, https://matplotlib.org/</dc:title>
     </cc:Agent>
    </dc:creator>
   </cc:Work>
  </rdf:RDF>
 </metadata>
 <defs>
  <style type="text/css">*{stroke-linejoin: round; stroke-linecap: butt}</style>
 </defs>
 <g id="figure_1">
  <g id="patch_1">
   <path d="M 0 345.6 
L 460.8 345.6 
L 460.8 0 
L 0 0 
z
" style="fill: #ffffff"/>
  </g>
  <g id="patch_2">
   <path d="M 57.6 345.6 
L 403.2 345.6 
L 403.2 0 
L 57.6 0 
z
" style="fill: #ffffff"/>
  </g>
  <g id="pane3d_1">
   <g id="patch_3">
    <path d="M 282.493324 245.378907 
L 387.948716 253.877425 
L 387.948716 82.382034 
L 282.493324 90.880553 
" style="fill: #f2f2f2; opacity: 0.5; stroke: #f2f2f2; stroke-linejoin: miter"/>
   </g>
  </g>
  <g id="pane3d_2">
   <g id="patch_4">
    <path d="M 282.493324 245.378907 
L 90.34791 249.302775 
L 90.34791 86.956685 
L 282.493324 90.880553 
" style="fill: #e6e6e6; opacity: 0.5; stroke: #e6e6e6; stroke-linejoin: miter"/>
   </g>
  </g>
  <g id="pane3d_3">
   <g id="patch_5">
    <path d="M 282.493324 245.378907 
L 90.34791 249.302775 
L 179.445298 258.739317 
L 387.948716 253.877425 
" style="fill: #ececec; opacity: 0.5; stroke: #ececec; stroke-linejoin: miter"/>
   </g>
  </g>
  <g id="axis3d_1">
   <g id="line2d_1">
    <path d="M 387.948716 253.877425 
L 179.445298 258.739317 
" style="fill: none; stroke: #000000; stroke-width: 0.8; stroke-linecap: square"/>
   </g>
   <g id="text_1">
    <!-- x -->
    <g transform="translate(298.356646 286.49779)scale(0.16 -0.16)">
     <defs>
      <path id="CMSS17-78" d="M 1587 1414 
L 2656 2739 
L 2099 2739 
L 1363 1777 
L 602 2739 
L 32 2739 
L 1139 1414 
L 0 0 
L 563 0 
L 1363 1121 
L 2195 0 
L 2758 0 
L 1587 1414 
z
" transform="scale(0.015625)"/>
     </defs>
     <use xlink:href="#CMSS17-78" transform="scale(0.996264)"/>
    </g>
   </g>
   <g id="Line3DCollection_1">
    <path d="M 383.998164 253.969545 
L 278.832641 245.453663 
L 278.832641 90.805797 
" style="fill: none; stroke: #b0b0b0; stroke-width: 0.8"/>
    <path d="M 345.636484 254.864064 
L 243.326215 246.178752 
L 243.326215 90.080708 
" style="fill: none; stroke: #b0b0b0; stroke-width: 0.8"/>
    <path d="M 306.466866 255.777423 
L 207.147578 246.917568 
L 207.147578 89.341891 
" style="fill: none; stroke: #b0b0b0; stroke-width: 0.8"/>
    <path d="M 266.463515 256.710223 
L 170.277457 247.670506 
L 170.277457 88.588954 
" style="fill: none; stroke: #b0b0b0; stroke-width: 0.8"/>
    <path d="M 225.599524 257.663091 
L 132.695836 248.437973 
L 132.695836 87.821486 
" style="fill: none; stroke: #b0b0b0; stroke-width: 0.8"/>
    <path d="M 183.846818 258.636682 
L 94.38192 249.220395 
L 94.38192 87.039065 
" style="fill: none; stroke: #b0b0b0; stroke-width: 0.8"/>
   </g>
   <g id="xtick_1">
    <g id="line2d_2">
     <path d="M 383.065004 253.893981 
L 385.869424 254.121072 
" style="fill: none; stroke: #000000; stroke-width: 0.8; stroke-linecap: square"/>
    </g>
    <g id="text_2">
     <!-- $\mathdefault{0}$ -->
     <g transform="translate(389.019229 272.542457)scale(0.1 -0.1)">
      <defs>
       <path id="CMR17-30" d="M 2688 2025 
C 2688 2416 2682 3080 2413 3591 
C 2176 4039 1798 4198 1466 4198 
C 1158 4198 768 4058 525 3597 
C 269 3118 243 2524 243 2025 
C 243 1661 250 1106 448 619 
C 723 -39 1216 -128 1466 -128 
C 1760 -128 2208 -7 2470 600 
C 2662 1042 2688 1559 2688 2025 
z
M 1466 -26 
C 1056 -26 813 325 723 812 
C 653 1188 653 1738 653 2096 
C 653 2588 653 2997 736 3387 
C 858 3929 1216 4096 1466 4096 
C 1728 4096 2067 3923 2189 3400 
C 2272 3036 2278 2607 2278 2096 
C 2278 1680 2278 1169 2202 792 
C 2067 95 1690 -26 1466 -26 
z
" transform="scale(0.015625)"/>
      </defs>
      <use xlink:href="#CMR17-30" transform="scale(0.996264)"/>
     </g>
    </g>
   </g>
   <g id="xtick_2">
    <g id="line2d_3">
     <path d="M 344.72773 254.786918 
L 347.458855 255.018768 
" style="fill: none; stroke: #000000; stroke-width: 0.8; stroke-linecap: square"/>
    </g>
    <g id="text_3">
     <!-- $\mathdefault{1}$ -->
     <g transform="translate(350.4617 273.5657)scale(0.1 -0.1)">
      <defs>
       <path id="CMR17-31" d="M 1702 4058 
C 1702 4192 1696 4192 1606 4192 
C 1357 3916 979 3827 621 3827 
C 602 3827 570 3827 563 3808 
C 557 3795 557 3782 557 3648 
C 755 3648 1088 3686 1344 3839 
L 1344 461 
C 1344 236 1331 160 781 160 
L 589 160 
L 589 0 
C 896 0 1216 0 1523 0 
C 1830 0 2150 0 2458 0 
L 2458 160 
L 2266 160 
C 1715 160 1702 230 1702 458 
L 1702 4058 
z
" transform="scale(0.015625)"/>
      </defs>
      <use xlink:href="#CMR17-31" transform="scale(0.996264)"/>
     </g>
    </g>
   </g>
   <g id="xtick_3">
    <g id="line2d_4">
     <path d="M 305.583757 255.698644 
L 308.23786 255.935406 
" style="fill: none; stroke: #000000; stroke-width: 0.8; stroke-linecap: square"/>
    </g>
    <g id="text_4">
     <!-- $\mathdefault{2}$ -->
     <g transform="translate(311.086232 274.610649)scale(0.1 -0.1)">
      <defs>
       <path id="CMR17-32" d="M 2669 989 
L 2554 989 
C 2490 536 2438 459 2413 420 
C 2381 369 1920 369 1830 369 
L 602 369 
C 832 619 1280 1072 1824 1597 
C 2214 1967 2669 2402 2669 3035 
C 2669 3790 2067 4224 1395 4224 
C 691 4224 262 3604 262 3030 
C 262 2780 448 2748 525 2748 
C 589 2748 781 2787 781 3010 
C 781 3207 614 3264 525 3264 
C 486 3264 448 3258 422 3245 
C 544 3790 915 4058 1306 4058 
C 1862 4058 2227 3617 2227 3035 
C 2227 2479 1901 2000 1536 1584 
L 262 146 
L 262 0 
L 2515 0 
L 2669 989 
z
" transform="scale(0.015625)"/>
      </defs>
      <use xlink:href="#CMR17-32" transform="scale(0.996264)"/>
     </g>
    </g>
   </g>
   <g id="xtick_4">
    <g id="line2d_5">
     <path d="M 265.607353 256.629759 
L 268.180517 256.871589 
" style="fill: none; stroke: #000000; stroke-width: 0.8; stroke-linecap: square"/>
    </g>
    <g id="text_5">
     <!-- $\mathdefault{3}$ -->
     <g transform="translate(270.866519 275.678002)scale(0.1 -0.1)">
      <defs>
       <path id="CMR17-33" d="M 1414 2157 
C 1984 2157 2234 1662 2234 1090 
C 2234 320 1824 25 1453 25 
C 1114 25 563 194 390 693 
C 422 680 454 680 486 680 
C 640 680 755 782 755 948 
C 755 1133 614 1216 486 1216 
C 378 1216 211 1165 211 926 
C 211 335 787 -128 1466 -128 
C 2176 -128 2720 430 2720 1085 
C 2720 1707 2208 2157 1600 2227 
C 2086 2328 2554 2756 2554 3329 
C 2554 3820 2048 4179 1472 4179 
C 890 4179 378 3829 378 3329 
C 378 3110 544 3072 627 3072 
C 762 3072 877 3155 877 3321 
C 877 3486 762 3569 627 3569 
C 602 3569 570 3569 544 3557 
C 730 3959 1235 4032 1459 4032 
C 1683 4032 2106 3925 2106 3320 
C 2106 3143 2080 2828 1862 2550 
C 1670 2304 1453 2304 1242 2284 
C 1210 2284 1062 2269 1037 2269 
C 992 2263 966 2257 966 2208 
C 966 2163 973 2157 1101 2157 
L 1414 2157 
z
" transform="scale(0.015625)"/>
      </defs>
      <use xlink:href="#CMR17-33" transform="scale(0.996264)"/>
     </g>
    </g>
   </g>
   <g id="xtick_5">
    <g id="line2d_6">
     <path d="M 224.771679 257.580888 
L 227.259786 257.827951 
" style="fill: none; stroke: #000000; stroke-width: 0.8; stroke-linecap: square"/>
    </g>
    <g id="text_6">
     <!-- $\mathdefault{4}$ -->
     <g transform="translate(229.775114 276.768489)scale(0.1 -0.1)">
      <defs>
       <path id="CMR17-34" d="M 2150 4122 
C 2150 4256 2144 4256 2029 4256 
L 128 1254 
L 128 1088 
L 1779 1088 
L 1779 457 
C 1779 224 1766 160 1318 160 
L 1197 160 
L 1197 0 
C 1402 0 1747 0 1965 0 
C 2182 0 2528 0 2733 0 
L 2733 160 
L 2611 160 
C 2163 160 2150 224 2150 457 
L 2150 1088 
L 2803 1088 
L 2803 1254 
L 2150 1254 
L 2150 4122 
z
M 1798 3703 
L 1798 1254 
L 256 1254 
L 1798 3703 
z
" transform="scale(0.015625)"/>
      </defs>
      <use xlink:href="#CMR17-34" transform="scale(0.996264)"/>
     </g>
    </g>
   </g>
   <g id="xtick_6">
    <g id="line2d_7">
     <path d="M 183.048731 258.552683 
L 185.44745 258.805151 
" style="fill: none; stroke: #000000; stroke-width: 0.8; stroke-linecap: square"/>
    </g>
    <g id="text_7">
     <!-- $\mathdefault{5}$ -->
     <g transform="translate(187.783369 277.882869)scale(0.1 -0.1)">
      <defs>
       <path id="CMR17-35" d="M 730 3692 
C 794 3666 1056 3584 1325 3584 
C 1920 3584 2246 3911 2432 4100 
C 2432 4157 2432 4192 2394 4192 
C 2387 4192 2374 4192 2323 4163 
C 2099 4058 1837 3973 1517 3973 
C 1325 3973 1037 3999 723 4139 
C 653 4171 640 4171 634 4171 
C 602 4171 595 4164 595 4037 
L 595 2203 
C 595 2089 595 2057 659 2057 
C 691 2057 704 2070 736 2114 
C 941 2401 1222 2522 1542 2522 
C 1766 2522 2246 2382 2246 1289 
C 2246 1085 2246 715 2054 421 
C 1894 159 1645 25 1370 25 
C 947 25 518 320 403 814 
C 429 807 480 795 506 795 
C 589 795 749 840 749 1038 
C 749 1210 627 1280 506 1280 
C 358 1280 262 1190 262 1011 
C 262 454 704 -128 1382 -128 
C 2042 -128 2669 440 2669 1264 
C 2669 2030 2170 2624 1549 2624 
C 1222 2624 947 2503 730 2274 
L 730 3692 
z
" transform="scale(0.015625)"/>
      </defs>
      <use xlink:href="#CMR17-35" transform="scale(0.996264)"/>
     </g>
    </g>
   </g>
  </g>
  <g id="axis3d_2">
   <g id="line2d_8">
    <path d="M 90.34791 249.302775 
L 179.445298 258.739317 
" style="fill: none; stroke: #000000; stroke-width: 0.8; stroke-linecap: square"/>
   </g>
   <g id="text_8">
    <!-- y -->
    <g transform="translate(99.390497 282.35406)scale(0.16 -0.16)">
     <defs>
      <path id="CMSS17-79" d="M 2675 2752 
L 2176 2752 
C 1632 1294 1446 702 1434 383 
L 1427 383 
C 1408 696 1126 1460 902 2007 
L 602 2752 
L 83 2752 
L 1216 13 
C 1146 -178 1043 -465 1011 -529 
C 870 -885 774 -885 672 -885 
C 646 -885 442 -885 211 -809 
L 250 -1229 
C 410 -1261 570 -1280 685 -1280 
C 845 -1280 1165 -1280 1459 -497 
L 2675 2752 
z
" transform="scale(0.015625)"/>
     </defs>
     <use xlink:href="#CMSS17-79" transform="scale(0.996264)"/>
    </g>
   </g>
   <g id="Line3DCollection_2">
    <path d="M 293.641918 89.982101 
L 293.641918 246.277358 
L 99.72006 250.295404 
" style="fill: none; stroke: #b0b0b0; stroke-width: 0.8"/>
    <path d="M 312.675795 88.448185 
L 312.675795 247.811274 
L 115.746664 251.992825 
" style="fill: none; stroke: #b0b0b0; stroke-width: 0.8"/>
    <path d="M 332.471842 86.852846 
L 332.471842 249.406613 
L 132.449409 253.761857 
" style="fill: none; stroke: #b0b0b0; stroke-width: 0.8"/>
    <path d="M 353.076775 85.19232 
L 353.076775 251.067139 
L 149.872003 255.607131 
" style="fill: none; stroke: #b0b0b0; stroke-width: 0.8"/>
    <path d="M 374.541206 83.462529 
L 374.541206 252.796931 
L 168.062007 257.533683 
" style="fill: none; stroke: #b0b0b0; stroke-width: 0.8"/>
   </g>
   <g id="xtick_7">
    <g id="line2d_9">
     <path d="M 101.35053 250.261621 
L 96.455093 250.363054 
" style="fill: none; stroke: #000000; stroke-width: 0.8; stroke-linecap: square"/>
    </g>
    <g id="text_9">
     <!-- $\mathdefault{−4}$ -->
     <g transform="translate(80.285619 268.018249)scale(0.1 -0.1)">
      <defs>
       <path id="CMSY10-0" d="M 4218 1472 
C 4326 1472 4442 1472 4442 1600 
C 4442 1728 4326 1728 4218 1728 
L 755 1728 
C 646 1728 531 1728 531 1600 
C 531 1472 646 1472 755 1472 
L 4218 1472 
z
" transform="scale(0.015625)"/>
      </defs>
      <use xlink:href="#CMSY10-0" transform="scale(0.996264)"/>
      <use xlink:href="#CMR17-34" transform="translate(77.487468 0)scale(0.996264)"/>
     </g>
    </g>
   </g>
   <g id="xtick_8">
    <g id="line2d_10">
     <path d="M 117.404078 251.957632 
L 112.42766 252.0633 
" style="fill: none; stroke: #000000; stroke-width: 0.8; stroke-linecap: square"/>
    </g>
    <g id="text_10">
     <!-- $\mathdefault{−2}$ -->
     <g transform="translate(96.095236 269.945332)scale(0.1 -0.1)">
      <use xlink:href="#CMSY10-0" transform="scale(0.996264)"/>
      <use xlink:href="#CMR17-32" transform="translate(77.487468 0)scale(0.996264)"/>
     </g>
    </g>
   </g>
   <g id="xtick_9">
    <g id="line2d_11">
     <path d="M 134.134612 253.725164 
L 129.074664 253.835338 
" style="fill: none; stroke: #000000; stroke-width: 0.8; stroke-linecap: square"/>
    </g>
    <g id="text_11">
     <!-- $\mathdefault{0}$ -->
     <g transform="translate(116.4485 271.953996)scale(0.1 -0.1)">
      <use xlink:href="#CMR17-30" transform="scale(0.996264)"/>
     </g>
    </g>
   </g>
   <g id="xtick_10">
    <g id="line2d_12">
     <path d="M 151.585878 255.568839 
L 146.439745 255.683814 
" style="fill: none; stroke: #000000; stroke-width: 0.8; stroke-linecap: square"/>
    </g>
    <g id="text_12">
     <!-- $\mathdefault{2}$ -->
     <g transform="translate(133.640088 274.049532)scale(0.1 -0.1)">
      <use xlink:href="#CMR17-32" transform="scale(0.996264)"/>
     </g>
    </g>
   </g>
   <g id="xtick_11">
    <g id="line2d_13">
     <path d="M 169.805473 257.493686 
L 164.570389 257.613782 
" style="fill: none; stroke: #000000; stroke-width: 0.8; stroke-linecap: square"/>
    </g>
    <g id="text_13">
     <!-- $\mathdefault{4}$ -->
     <g transform="translate(151.591627 276.237701)scale(0.1 -0.1)">
      <use xlink:href="#CMR17-34" transform="scale(0.996264)"/>
     </g>
    </g>
   </g>
  </g>
  <g id="axis3d_3">
   <g id="line2d_14">
    <path d="M 90.34791 249.302775 
L 90.34791 86.956685 
" style="fill: none; stroke: #000000; stroke-width: 0.8; stroke-linecap: square"/>
   </g>
   <g id="text_14">
    <!-- z -->
    <g transform="translate(48.121993 172.114786)scale(0.16 -0.16)">
     <defs>
      <path id="CMSS17-7a" d="M 2400 2502 
L 2400 2750 
L 250 2750 
L 250 2368 
L 1069 2368 
C 1146 2368 1222 2368 1299 2368 
L 1747 2368 
L 166 261 
L 166 0 
L 2419 0 
L 2419 395 
L 1549 395 
C 1472 395 1395 395 1318 395 
L 826 395 
L 2400 2502 
z
" transform="scale(0.015625)"/>
     </defs>
     <use xlink:href="#CMSS17-7a" transform="scale(0.996264)"/>
    </g>
   </g>
   <g id="Line3DCollection_3">
    <path d="M 90.34791 246.055853 
L 282.493324 242.28894 
L 387.948716 250.447518 
" style="fill: none; stroke: #b0b0b0; stroke-width: 0.8"/>
    <path d="M 90.34791 214.885404 
L 282.493324 212.625256 
L 387.948716 217.520402 
" style="fill: none; stroke: #b0b0b0; stroke-width: 0.8"/>
    <path d="M 90.34791 183.714954 
L 282.493324 182.961572 
L 387.948716 184.593287 
" style="fill: none; stroke: #b0b0b0; stroke-width: 0.8"/>
    <path d="M 90.34791 152.544505 
L 282.493324 153.297888 
L 387.948716 151.666172 
" style="fill: none; stroke: #b0b0b0; stroke-width: 0.8"/>
    <path d="M 90.34791 121.374056 
L 282.493324 123.634204 
L 387.948716 118.739057 
" style="fill: none; stroke: #b0b0b0; stroke-width: 0.8"/>
    <path d="M 90.34791 90.203607 
L 282.493324 93.97052 
L 387.948716 85.811942 
" style="fill: none; stroke: #b0b0b0; stroke-width: 0.8"/>
   </g>
   <g id="xtick_12">
    <g id="line2d_15">
     <path d="M 91.962497 246.0242 
L 87.114795 246.119236 
" style="fill: none; stroke: #000000; stroke-width: 0.8; stroke-linecap: square"/>
    </g>
    <g id="text_15">
     <!-- $\mathdefault{0}$ -->
     <g transform="translate(69.919365 252.709644)scale(0.1 -0.1)">
      <use xlink:href="#CMR17-30" transform="scale(0.996264)"/>
     </g>
    </g>
   </g>
   <g id="xtick_13">
    <g id="line2d_16">
     <path d="M 91.962497 214.866412 
L 87.114795 214.923434 
" style="fill: none; stroke: #000000; stroke-width: 0.8; stroke-linecap: square"/>
    </g>
    <g id="text_16">
     <!-- $\mathdefault{1}$ -->
     <g transform="translate(69.919365 221.645078)scale(0.1 -0.1)">
      <use xlink:href="#CMR17-31" transform="scale(0.996264)"/>
     </g>
    </g>
   </g>
   <g id="xtick_14">
    <g id="line2d_17">
     <path d="M 91.962497 183.708624 
L 87.114795 183.727631 
" style="fill: none; stroke: #000000; stroke-width: 0.8; stroke-linecap: square"/>
    </g>
    <g id="text_17">
     <!-- $\mathdefault{2}$ -->
     <g transform="translate(69.919365 190.580511)scale(0.1 -0.1)">
      <use xlink:href="#CMR17-32" transform="scale(0.996264)"/>
     </g>
    </g>
   </g>
   <g id="xtick_15">
    <g id="line2d_18">
     <path d="M 91.962497 152.550836 
L 87.114795 152.531828 
" style="fill: none; stroke: #000000; stroke-width: 0.8; stroke-linecap: square"/>
    </g>
    <g id="text_18">
     <!-- $\mathdefault{3}$ -->
     <g transform="translate(69.919365 159.515945)scale(0.1 -0.1)">
      <use xlink:href="#CMR17-33" transform="scale(0.996264)"/>
     </g>
    </g>
   </g>
   <g id="xtick_16">
    <g id="line2d_19">
     <path d="M 91.962497 121.393048 
L 87.114795 121.336026 
" style="fill: none; stroke: #000000; stroke-width: 0.8; stroke-linecap: square"/>
    </g>
    <g id="text_19">
     <!-- $\mathdefault{4}$ -->
     <g transform="translate(69.919365 128.451379)scale(0.1 -0.1)">
      <use xlink:href="#CMR17-34" transform="scale(0.996264)"/>
     </g>
    </g>
   </g>
   <g id="xtick_17">
    <g id="line2d_20">
     <path d="M 91.962497 90.23526 
L 87.114795 90.140223 
" style="fill: none; stroke: #000000; stroke-width: 0.8; stroke-linecap: square"/>
    </g>
    <g id="text_20">
     <!-- $\mathdefault{5}$ -->
     <g transform="translate(69.919365 97.386812)scale(0.1 -0.1)">
      <use xlink:href="#CMR17-35" transform="scale(0.996264)"/>
     </g>
    </g>
   </g>
  </g>
  <g id="axes_1">
   <g id="line2d_21">
    <path d="M 328.67099 246.234986 
L 322.088592 86.783833 
" clip-path="url(#pd77b4ac978)" style="fill: none; stroke: #ff0000; stroke-width: 1.5; stroke-linecap: square"/>
   </g>
   <g id="line2d_22">
    <path d="M 328.67099 246.234986 
L 235.52934 121.289608 
" clip-path="url(#pd77b4ac978)" style="fill: none; stroke: #00ff00; stroke-width: 1.5; stroke-linecap: square"/>
   </g>
   <g id="line2d_23">
    <path d="M 328.67099 246.234986 
L 240.209095 -1 
" clip-path="url(#pd77b4ac978)" style="fill: none; stroke: #0016ff; stroke-width: 1.5; stroke-linecap: square"/>
   </g>
   <g id="line2d_24">
    <path d="M 328.67099 246.234986 
L 111.758473 152.209173 
" clip-path="url(#pd77b4ac978)" style="fill: none; stroke: #f400ff; stroke-width: 1.5; stroke-linecap: square"/>
   </g>
   <g id="Poly3DCollection_1">
    <path d="M 280.731055 354.076111 
L 263.034276 313.846118 
L 267.557728 303.285059 
L 285.318196 343.757316 
z
" clip-path="url(#pd77b4ac978)" style="fill: #0000f5; fill-opacity: 0.1"/>
    <path d="M 263.034276 313.846118 
L 245.171215 273.23812 
L 249.629572 262.430681 
L 267.557728 303.285059 
z
" clip-path="url(#pd77b4ac978)" style="fill: #0000f5; fill-opacity: 0.1"/>
    <path d="M 285.318196 343.757316 
L 267.557728 303.285059 
L 272.124968 292.621767 
L 289.949532 333.339101 
z
" clip-path="url(#pd77b4ac978)" style="fill: #0000f5; fill-opacity: 0.1"/>
    <path d="M 245.171215 273.23812 
L 227.139518 232.246763 
L 231.531344 221.188743 
L 249.629572 262.430681 
z
" clip-path="url(#pd77b4ac978)" style="fill: #0000f5; fill-opacity: 0.1"/>
    <path d="M 267.557728 303.285059 
L 249.629572 262.430681 
L 254.131292 251.518127 
L 272.124968 292.621767 
z
" clip-path="url(#pd77b4ac978)" style="fill: #0000f5; fill-opacity: 0.1"/>
    <path d="M 289.949532 333.339101 
L 272.124968 292.621767 
L 276.736634 281.85475 
L 294.625706 322.820025 
z
" clip-path="url(#pd77b4ac978)" style="fill: #0000f5; fill-opacity: 0.1"/>
    <path d="M 227.139518 232.246763 
L 208.936787 190.866594 
L 213.260611 179.553704 
L 231.531344 221.188743 
z
" clip-path="url(#pd77b4ac978)" style="fill: #0000f5; fill-opacity: 0.1"/>
    <path d="M 249.629572 262.430681 
L 231.531344 221.188743 
L 235.966088 210.022658 
L 254.131292 251.518127 
z
" clip-path="url(#pd77b4ac978)" style="fill: #0000f5; fill-opacity: 0.1"/>
    <path d="M 272.124968 292.621767 
L 254.131292 251.518127 
L 258.677011 240.498918 
L 276.736634 281.85475 
z
" clip-path="url(#pd77b4ac978)" style="fill: #0000f5; fill-opacity: 0.1"/>
    <path d="M 294.625706 322.820025 
L 276.736634 281.85475 
L 281.393379 270.982487 
L 299.347372 312.198613 
z
" clip-path="url(#pd77b4ac978)" style="fill: #0000f5; fill-opacity: 0.1"/>
    <path d="M 208.936787 190.866594 
L 190.560576 149.092054 
L 194.814895 137.519918 
L 213.260611 179.553704 
z
" clip-path="url(#pd77b4ac978)" style="fill: #0000f5; fill-opacity: 0.1"/>
    <path d="M 231.531344 221.188743 
L 213.260611 179.553704 
L 217.626892 168.12973 
L 235.966088 210.022658 
z
" clip-path="url(#pd77b4ac978)" style="fill: #0000f5; fill-opacity: 0.1"/>
    <path d="M 254.131292 251.518127 
L 235.966088 210.022658 
L 240.444384 198.746917 
L 258.677011 240.498918 
z
" clip-path="url(#pd77b4ac978)" style="fill: #0000f5; fill-opacity: 0.1"/>
    <path d="M 276.736634 281.85475 
L 258.677011 240.498918 
L 263.267375 229.371482 
L 281.393379 270.982487 
z
" clip-path="url(#pd77b4ac978)" style="fill: #0000f5; fill-opacity: 0.1"/>
    <path d="M 299.347372 312.198613 
L 281.393379 270.982487 
L 286.095867 260.003428 
L 304.115197 301.473367 
z
" clip-path="url(#pd77b4ac978)" style="fill: #0000f5; fill-opacity: 0.1"/>
    <path d="M 190.560576 149.092054 
L 172.008393 106.917478 
L 176.191671 95.081628 
L 194.814895 137.519918 
z
" clip-path="url(#pd77b4ac978)" style="fill: #0000f5; fill-opacity: 0.1"/>
    <path d="M 213.260611 179.553704 
L 194.814895 137.519918 
L 199.11119 125.833604 
L 217.626892 168.12973 
z
" clip-path="url(#pd77b4ac978)" style="fill: #0000f5; fill-opacity: 0.1"/>
    <path d="M 235.966088 210.022658 
L 217.626892 168.12973 
L 222.036257 156.593026 
L 240.444384 198.746917 
z
" clip-path="url(#pd77b4ac978)" style="fill: #0000f5; fill-opacity: 0.1"/>
    <path d="M 258.677011 240.498918 
L 240.444384 198.746917 
L 244.966876 187.359896 
L 263.267375 229.371482 
z
" clip-path="url(#pd77b4ac978)" style="fill: #0000f5; fill-opacity: 0.1"/>
    <path d="M 281.393379 270.982487 
L 263.267375 229.371482 
L 267.903048 218.134217 
L 286.095867 260.003428 
z
" clip-path="url(#pd77b4ac978)" style="fill: #0000f5; fill-opacity: 0.1"/>
    <path d="M 304.115197 301.473367 
L 286.095867 260.003428 
L 290.844774 248.91599 
L 308.929861 290.642756 
z
" clip-path="url(#pd77b4ac978)" style="fill: #0000f5; fill-opacity: 0.1"/>
    <path d="M 172.008393 106.917478 
L 153.277699 64.337093 
L 157.388363 52.232967 
L 176.191671 95.081628 
z
" clip-path="url(#pd77b4ac978)" style="fill: #0000f5; fill-opacity: 0.1"/>
    <path d="M 194.814895 137.519918 
L 176.191671 95.081628 
L 180.416422 83.128433 
L 199.11119 125.833604 
z
" clip-path="url(#pd77b4ac978)" style="fill: #0000f5; fill-opacity: 0.1"/>
    <path d="M 217.626892 168.12973 
L 199.11119 125.833604 
L 203.450084 114.031416 
L 222.036257 156.593026 
z
" clip-path="url(#pd77b4ac978)" style="fill: #0000f5; fill-opacity: 0.1"/>
    <path d="M 240.444384 198.746917 
L 222.036257 156.593026 
L 226.489349 144.941918 
L 244.966876 187.359896 
z
" clip-path="url(#pd77b4ac978)" style="fill: #0000f5; fill-opacity: 0.1"/>
    <path d="M 263.267375 229.371482 
L 244.966876 187.359896 
L 249.534221 175.859941 
L 267.903048 218.134217 
z
" clip-path="url(#pd77b4ac978)" style="fill: #0000f5; fill-opacity: 0.1"/>
    <path d="M 286.095867 260.003428 
L 267.903048 218.134217 
L 272.584701 206.785488 
L 290.844774 248.91599 
z
" clip-path="url(#pd77b4ac978)" style="fill: #0000f5; fill-opacity: 0.1"/>
    <path d="M 308.929861 290.642756 
L 290.844774 248.91599 
L 295.640792 237.718563 
L 313.792058 279.70522 
z
" clip-path="url(#pd77b4ac978)" style="fill: #0000f5; fill-opacity: 0.1"/>
    <path d="M 153.277699 64.337093 
L 134.365904 21.345013 
L 138.402347 8.967953 
L 157.388363 52.232967 
z
" clip-path="url(#pd77b4ac978)" style="fill: #0000f5; fill-opacity: 0.1"/>
    <path d="M 176.191671 95.081628 
L 157.388363 52.232967 
L 161.539979 40.008253 
L 180.416422 83.128433 
z
" clip-path="url(#pd77b4ac978)" style="fill: #0000f5; fill-opacity: 0.1"/>
    <path d="M 199.11119 125.833604 
L 180.416422 83.128433 
L 184.683268 71.056142 
L 203.450084 114.031416 
z
" clip-path="url(#pd77b4ac978)" style="fill: #0000f5; fill-opacity: 0.1"/>
    <path d="M 222.036257 156.593026 
L 203.450084 114.031416 
L 207.832215 102.11162 
L 226.489349 144.941918 
z
" clip-path="url(#pd77b4ac978)" style="fill: #0000f5; fill-opacity: 0.1"/>
    <path d="M 244.966876 187.359896 
L 226.489349 144.941918 
L 230.986821 133.174693 
L 249.534221 175.859941 
z
" clip-path="url(#pd77b4ac978)" style="fill: #0000f5; fill-opacity: 0.1"/>
    <path d="M 267.903048 218.134217 
L 249.534221 175.859941 
L 254.147091 164.245362 
L 272.584701 206.785488 
z
" clip-path="url(#pd77b4ac978)" style="fill: #0000f5; fill-opacity: 0.1"/>
    <path d="M 290.844774 248.91599 
L 272.584701 206.785488 
L 277.313024 195.32363 
L 295.640792 237.718563 
z
" clip-path="url(#pd77b4ac978)" style="fill: #0000f5; fill-opacity: 0.1"/>
    <path d="M 313.792058 279.70522 
L 295.640792 237.718563 
L 300.484625 226.4095 
L 318.702495 268.659167 
z
" clip-path="url(#pd77b4ac978)" style="fill: #0000f5; fill-opacity: 0.1"/>
    <path d="M 134.365904 21.345013 
L 115.270369 -22.064762 
L 119.230947 -34.71951 
L 138.402347 8.967953 
z
" clip-path="url(#pd77b4ac978)" style="fill: #0000f5; fill-opacity: 0.1"/>
    <path d="M 157.388363 52.232967 
L 138.402347 8.967953 
L 142.4792 -3.533014 
L 161.539979 40.008253 
z
" clip-path="url(#pd77b4ac978)" style="fill: #0000f5; fill-opacity: 0.1"/>
    <path d="M 180.416422 83.128433 
L 161.539979 40.008253 
L 165.733163 27.661143 
L 184.683268 71.056142 
z
" clip-path="url(#pd77b4ac978)" style="fill: #0000f5; fill-opacity: 0.1"/>
    <path d="M 203.450084 114.031416 
L 184.683268 71.056142 
L 188.99284 58.862964 
L 207.832215 102.11162 
z
" clip-path="url(#pd77b4ac978)" style="fill: #0000f5; fill-opacity: 0.1"/>
    <path d="M 226.489349 144.941918 
L 207.832215 102.11162 
L 212.258231 90.072451 
L 230.986821 133.174693 
z
" clip-path="url(#pd77b4ac978)" style="fill: #0000f5; fill-opacity: 0.1"/>
    <path d="M 249.534221 175.859941 
L 230.986821 133.174693 
L 235.52934 121.289608 
L 254.147091 164.245362 
z
" clip-path="url(#pd77b4ac978)" style="fill: #0000f5; fill-opacity: 0.1"/>
    <path d="M 272.584701 206.785488 
L 254.147091 164.245362 
L 258.806168 152.514437 
L 277.313024 195.32363 
z
" clip-path="url(#pd77b4ac978)" style="fill: #0000f5; fill-opacity: 0.1"/>
    <path d="M 295.640792 237.718563 
L 277.313024 195.32363 
L 282.088718 183.746941 
L 300.484625 226.4095 
z
" clip-path="url(#pd77b4ac978)" style="fill: #0000f5; fill-opacity: 0.1"/>
    <path d="M 318.702495 268.659167 
L 300.484625 226.4095 
L 305.376991 214.987124 
L 323.661893 257.502974 
z
" clip-path="url(#pd77b4ac978)" style="fill: #0000f5; fill-opacity: 0.1"/>
    <path d="M 138.402347 8.967953 
L 119.230947 -34.71951 
L 123.23137 -47.501568 
L 142.4792 -3.533014 
z
" clip-path="url(#pd77b4ac978)" style="fill: #0000f5; fill-opacity: 0.1"/>
    <path d="M 161.539979 40.008253 
L 142.4792 -3.533014 
L 146.597071 -16.159759 
L 165.733163 27.661143 
z
" clip-path="url(#pd77b4ac978)" style="fill: #0000f5; fill-opacity: 0.1"/>
    <path d="M 184.683268 71.056142 
L 165.733163 27.661143 
L 169.968541 15.189787 
L 188.99284 58.862964 
z
" clip-path="url(#pd77b4ac978)" style="fill: #0000f5; fill-opacity: 0.1"/>
    <path d="M 207.832215 102.11162 
L 188.99284 58.862964 
L 193.345782 46.547075 
L 212.258231 90.072451 
z
" clip-path="url(#pd77b4ac978)" style="fill: #0000f5; fill-opacity: 0.1"/>
    <path d="M 230.986821 133.174693 
L 212.258231 90.072451 
L 216.728796 77.912106 
L 235.52934 121.289608 
z
" clip-path="url(#pd77b4ac978)" style="fill: #0000f5; fill-opacity: 0.1"/>
    <path d="M 254.147091 164.245362 
L 235.52934 121.289608 
L 240.117585 109.284883 
L 258.806168 152.514437 
z
" clip-path="url(#pd77b4ac978)" style="fill: #0000f5; fill-opacity: 0.1"/>
    <path d="M 277.313024 195.32363 
L 258.806168 152.514437 
L 263.512152 140.66541 
L 282.088718 183.746941 
z
" clip-path="url(#pd77b4ac978)" style="fill: #0000f5; fill-opacity: 0.1"/>
    <path d="M 300.484625 226.4095 
L 282.088718 183.746941 
L 286.912497 172.053689 
L 305.376991 214.987124 
z
" clip-path="url(#pd77b4ac978)" style="fill: #0000f5; fill-opacity: 0.1"/>
    <path d="M 323.661893 257.502974 
L 305.376991 214.987124 
L 310.318624 203.449723 
L 328.67099 246.234986 
z
" clip-path="url(#pd77b4ac978)" style="fill: #0000f5; fill-opacity: 0.1"/>
    <path d="M 142.4792 -3.533014 
L 123.23137 -47.501568 
L 127.27224 -60.412866 
L 146.597071 -16.159759 
z
" clip-path="url(#pd77b4ac978)" style="fill: #0000f5; fill-opacity: 0.1"/>
    <path d="M 165.733163 27.661143 
L 146.597071 -16.159759 
L 150.756584 -28.91419 
L 169.968541 15.189787 
z
" clip-path="url(#pd77b4ac978)" style="fill: #0000f5; fill-opacity: 0.1"/>
    <path d="M 188.99284 58.862964 
L 169.968541 15.189787 
L 174.246754 2.592302 
L 193.345782 46.547075 
z
" clip-path="url(#pd77b4ac978)" style="fill: #0000f5; fill-opacity: 0.1"/>
    <path d="M 212.258231 90.072451 
L 193.345782 46.547075 
L 197.742754 34.106613 
L 216.728796 77.912106 
z
" clip-path="url(#pd77b4ac978)" style="fill: #0000f5; fill-opacity: 0.1"/>
    <path d="M 235.52934 121.289608 
L 216.728796 77.912106 
L 221.244586 65.628745 
L 240.117585 109.284883 
z
" clip-path="url(#pd77b4ac978)" style="fill: #0000f5; fill-opacity: 0.1"/>
    <path d="M 258.806168 152.514437 
L 240.117585 109.284883 
L 244.752251 97.158702 
L 263.512152 140.66541 
z
" clip-path="url(#pd77b4ac978)" style="fill: #0000f5; fill-opacity: 0.1"/>
    <path d="M 282.088718 183.746941 
L 263.512152 140.66541 
L 268.265753 128.696487 
L 286.912497 172.053689 
z
" clip-path="url(#pd77b4ac978)" style="fill: #0000f5; fill-opacity: 0.1"/>
    <path d="M 305.376991 214.987124 
L 286.912497 172.053689 
L 291.785092 160.242102 
L 310.318624 203.449723 
z
" clip-path="url(#pd77b4ac978)" style="fill: #0000f5; fill-opacity: 0.1"/>
    <path d="M 328.67099 246.234986 
L 310.318624 203.449723 
L 315.310272 191.795551 
L 333.730535 234.853515 
z
" clip-path="url(#pd77b4ac978)" style="fill: #0000f5; fill-opacity: 0.1"/>
    <path d="M 146.597071 -16.159759 
L 127.27224 -60.412866 
L 131.354176 -73.455374 
L 150.756584 -28.91419 
z
" clip-path="url(#pd77b4ac978)" style="fill: #0000f5; fill-opacity: 0.1"/>
    <path d="M 169.968541 15.189787 
L 150.756584 -28.91419 
L 154.958372 -41.798252 
L 174.246754 2.592302 
z
" clip-path="url(#pd77b4ac978)" style="fill: #0000f5; fill-opacity: 0.1"/>
    <path d="M 193.345782 46.547075 
L 174.246754 2.592302 
L 178.568455 -10.133236 
L 197.742754 34.106613 
z
" clip-path="url(#pd77b4ac978)" style="fill: #0000f5; fill-opacity: 0.1"/>
    <path d="M 216.728796 77.912106 
L 197.742754 34.106613 
L 202.184427 21.539679 
L 221.244586 65.628745 
z
" clip-path="url(#pd77b4ac978)" style="fill: #0000f5; fill-opacity: 0.1"/>
    <path d="M 240.117585 109.284883 
L 221.244586 65.628745 
L 225.80629 53.220494 
L 244.752251 97.158702 
z
" clip-path="url(#pd77b4ac978)" style="fill: #0000f5; fill-opacity: 0.1"/>
    <path d="M 263.512152 140.66541 
L 244.752251 97.158702 
L 249.434046 84.909214 
L 268.265753 128.696487 
z
" clip-path="url(#pd77b4ac978)" style="fill: #0000f5; fill-opacity: 0.1"/>
    <path d="M 286.912497 172.053689 
L 268.265753 128.696487 
L 273.067698 116.60584 
L 291.785092 160.242102 
z
" clip-path="url(#pd77b4ac978)" style="fill: #0000f5; fill-opacity: 0.1"/>
    <path d="M 310.318624 203.449723 
L 291.785092 160.242102 
L 296.707248 148.310376 
L 315.310272 191.795551 
z
" clip-path="url(#pd77b4ac978)" style="fill: #0000f5; fill-opacity: 0.1"/>
    <path d="M 333.730535 234.853515 
L 315.310272 191.795551 
L 320.352698 180.022826 
L 338.841294 223.356835 
z
" clip-path="url(#pd77b4ac978)" style="fill: #0000f5; fill-opacity: 0.1"/>
    <path d="M 150.756584 -28.91419 
L 131.354176 -73.455374 
L 135.477806 -86.631102 
L 154.958372 -41.798252 
z
" clip-path="url(#pd77b4ac978)" style="fill: #0000f5; fill-opacity: 0.1"/>
    <path d="M 174.246754 2.592302 
L 154.958372 -41.798252 
L 159.203085 -54.813933 
L 178.568455 -10.133236 
z
" clip-path="url(#pd77b4ac978)" style="fill: #0000f5; fill-opacity: 0.1"/>
    <path d="M 197.742754 34.106613 
L 178.568455 -10.133236 
L 182.93431 -22.988789 
L 202.184427 21.539679 
z
" clip-path="url(#pd77b4ac978)" style="fill: #0000f5; fill-opacity: 0.1"/>
    <path d="M 221.244586 65.628745 
L 202.184427 21.539679 
L 206.671485 8.844333 
L 225.80629 53.220494 
z
" clip-path="url(#pd77b4ac978)" style="fill: #0000f5; fill-opacity: 0.1"/>
    <path d="M 244.752251 97.158702 
L 225.80629 53.220494 
L 230.414612 40.685437 
L 249.434046 84.909214 
z
" clip-path="url(#pd77b4ac978)" style="fill: #0000f5; fill-opacity: 0.1"/>
    <path d="M 268.265753 128.696487 
L 249.434046 84.909214 
L 254.163692 72.534526 
L 273.067698 116.60584 
z
" clip-path="url(#pd77b4ac978)" style="fill: #0000f5; fill-opacity: 0.1"/>
    <path d="M 291.785092 160.242102 
L 273.067698 116.60584 
L 277.918729 104.391602 
L 296.707248 148.310376 
z
" clip-path="url(#pd77b4ac978)" style="fill: #0000f5; fill-opacity: 0.1"/>
    <path d="M 315.310272 191.795551 
L 296.707248 148.310376 
L 301.679724 136.256669 
L 320.352698 180.022826 
z
" clip-path="url(#pd77b4ac978)" style="fill: #0000f5; fill-opacity: 0.1"/>
    <path d="M 338.841294 223.356835 
L 320.352698 180.022826 
L 325.44668 168.12973 
L 344.00405 211.743191 
z
" clip-path="url(#pd77b4ac978)" style="fill: #0000f5; fill-opacity: 0.1"/>
    <path d="M 154.958372 -41.798252 
L 135.477806 -86.631102 
L 139.643773 -99.942102 
L 159.203085 -54.813933 
z
" clip-path="url(#pd77b4ac978)" style="fill: #0000f5; fill-opacity: 0.1"/>
    <path d="M 178.568455 -10.133236 
L 159.203085 -54.813933 
L 163.491382 -67.96326 
L 182.93431 -22.988789 
z
" clip-path="url(#pd77b4ac978)" style="fill: #0000f5; fill-opacity: 0.1"/>
    <path d="M 202.184427 21.539679 
L 182.93431 -22.988789 
L 187.345 -35.976361 
L 206.671485 8.844333 
z
" clip-path="url(#pd77b4ac978)" style="fill: #0000f5; fill-opacity: 0.1"/>
    <path d="M 225.80629 53.220494 
L 206.671485 8.844333 
L 211.204628 -3.981401 
L 230.414612 40.685437 
z
" clip-path="url(#pd77b4ac978)" style="fill: #0000f5; fill-opacity: 0.1"/>
    <path d="M 249.434046 84.909214 
L 230.414612 40.685437 
L 235.07027 28.021621 
L 254.163692 72.534526 
z
" clip-path="url(#pd77b4ac978)" style="fill: #0000f5; fill-opacity: 0.1"/>
    <path d="M 273.067698 116.60584 
L 254.163692 72.534526 
L 258.941927 60.03271 
L 277.918729 104.391602 
z
" clip-path="url(#pd77b4ac978)" style="fill: #0000f5; fill-opacity: 0.1"/>
    <path d="M 296.707248 148.310376 
L 277.918729 104.391602 
L 282.819602 92.051869 
L 301.679724 136.256669 
z
" clip-path="url(#pd77b4ac978)" style="fill: #0000f5; fill-opacity: 0.1"/>
    <path d="M 320.352698 180.022826 
L 301.679724 136.256669 
L 306.703297 124.0791 
L 325.44668 168.12973 
z
" clip-path="url(#pd77b4ac978)" style="fill: #0000f5; fill-opacity: 0.1"/>
    <path d="M 344.00405 211.743191 
L 325.44668 168.12973 
L 330.593014 156.114407 
L 349.219599 200.010787 
z
" clip-path="url(#pd77b4ac978)" style="fill: #0000f5; fill-opacity: 0.1"/>
    <path d="M 159.203085 -54.813933 
L 139.643773 -99.942102 
L 143.852731 -113.390468 
L 163.491382 -67.96326 
z
" clip-path="url(#pd77b4ac978)" style="fill: #0000f5; fill-opacity: 0.1"/>
    <path d="M 182.93431 -22.988789 
L 163.491382 -67.96326 
L 167.823939 -81.248301 
L 187.345 -35.976361 
z
" clip-path="url(#pd77b4ac978)" style="fill: #0000f5; fill-opacity: 0.1"/>
    <path d="M 206.671485 8.844333 
L 187.345 -35.976361 
L 191.801218 -49.097995 
L 211.204628 -3.981401 
z
" clip-path="url(#pd77b4ac978)" style="fill: #0000f5; fill-opacity: 0.1"/>
    <path d="M 230.414612 40.685437 
L 211.204628 -3.981401 
L 215.78457 -16.939545 
L 235.07027 28.021621 
z
" clip-path="url(#pd77b4ac978)" style="fill: #0000f5; fill-opacity: 0.1"/>
    <path d="M 254.163692 72.534526 
L 235.07027 28.021621 
L 239.773998 15.227052 
L 258.941927 60.03271 
z
" clip-path="url(#pd77b4ac978)" style="fill: #0000f5; fill-opacity: 0.1"/>
    <path d="M 277.918729 104.391602 
L 258.941927 60.03271 
L 263.769504 47.401798 
L 282.819602 92.051869 
z
" clip-path="url(#pd77b4ac978)" style="fill: #0000f5; fill-opacity: 0.1"/>
    <path d="M 301.679724 136.256669 
L 282.819602 92.051869 
L 287.771089 79.584696 
L 306.703297 124.0791 
z
" clip-path="url(#pd77b4ac978)" style="fill: #0000f5; fill-opacity: 0.1"/>
    <path d="M 325.44668 168.12973 
L 306.703297 124.0791 
L 311.778758 111.775751 
L 330.593014 156.114407 
z
" clip-path="url(#pd77b4ac978)" style="fill: #0000f5; fill-opacity: 0.1"/>
    <path d="M 349.219599 200.010787 
L 330.593014 156.114407 
L 335.79251 143.974964 
L 354.488755 188.157792 
z
" clip-path="url(#pd77b4ac978)" style="fill: #0000f5; fill-opacity: 0.1"/>
    <path d="M 163.491382 -67.96326 
L 143.852731 -113.390468 
L 148.105349 -126.978337 
L 167.823939 -81.248301 
z
" clip-path="url(#pd77b4ac978)" style="fill: #0000f5; fill-opacity: 0.1"/>
    <path d="M 187.345 -35.976361 
L 167.823939 -81.248301 
L 172.201444 -94.671169 
L 191.801218 -49.097995 
z
" clip-path="url(#pd77b4ac978)" style="fill: #0000f5; fill-opacity: 0.1"/>
    <path d="M 211.204628 -3.981401 
L 191.801218 -49.097995 
L 196.303674 -62.355777 
L 215.78457 -16.939545 
z
" clip-path="url(#pd77b4ac978)" style="fill: #0000f5; fill-opacity: 0.1"/>
    <path d="M 235.07027 28.021621 
L 215.78457 -16.939545 
L 220.412039 -30.032157 
L 239.773998 15.227052 
z
" clip-path="url(#pd77b4ac978)" style="fill: #0000f5; fill-opacity: 0.1"/>
    <path d="M 258.941927 60.03271 
L 239.773998 15.227052 
L 244.526544 2.299694 
L 263.769504 47.401798 
z
" clip-path="url(#pd77b4ac978)" style="fill: #0000f5; fill-opacity: 0.1"/>
    <path d="M 282.819602 92.051869 
L 263.769504 47.401798 
L 268.64719 34.639778 
L 287.771089 79.584696 
z
" clip-path="url(#pd77b4ac978)" style="fill: #0000f5; fill-opacity: 0.1"/>
    <path d="M 306.703297 124.0791 
L 287.771089 79.584696 
L 292.773979 66.9881 
L 311.778758 111.775751 
z
" clip-path="url(#pd77b4ac978)" style="fill: #0000f5; fill-opacity: 0.1"/>
    <path d="M 330.593014 156.114407 
L 311.778758 111.775751 
L 316.906914 99.344662 
L 335.79251 143.974964 
z
" clip-path="url(#pd77b4ac978)" style="fill: #0000f5; fill-opacity: 0.1"/>
    <path d="M 354.488755 188.157792 
L 335.79251 143.974964 
L 341.045998 131.709467 
L 359.81235 176.182339 
z
" clip-path="url(#pd77b4ac978)" style="fill: #0000f5; fill-opacity: 0.1"/>
    <path d="M 167.823939 -81.248301 
L 148.105349 -126.978337 
L 152.402311 -140.707892 
L 172.201444 -94.671169 
z
" clip-path="url(#pd77b4ac978)" style="fill: #0000f5; fill-opacity: 0.1"/>
    <path d="M 191.801218 -49.097995 
L 172.201444 -94.671169 
L 176.624601 -108.23402 
L 196.303674 -62.355777 
z
" clip-path="url(#pd77b4ac978)" style="fill: #0000f5; fill-opacity: 0.1"/>
    <path d="M 215.78457 -16.939545 
L 196.303674 -62.355777 
L 200.85309 -75.751838 
L 220.412039 -30.032157 
z
" clip-path="url(#pd77b4ac978)" style="fill: #0000f5; fill-opacity: 0.1"/>
    <path d="M 239.773998 15.227052 
L 220.412039 -30.032157 
L 225.087779 -43.261343 
L 244.526544 2.299694 
z
" clip-path="url(#pd77b4ac978)" style="fill: #0000f5; fill-opacity: 0.1"/>
    <path d="M 263.769504 47.401798 
L 244.526544 2.299694 
L 249.328671 -10.762532 
L 268.64719 34.639778 
z
" clip-path="url(#pd77b4ac978)" style="fill: #0000f5; fill-opacity: 0.1"/>
    <path d="M 287.771089 79.584696 
L 268.64719 34.639778 
L 273.575769 21.744599 
L 292.773979 66.9881 
z
" clip-path="url(#pd77b4ac978)" style="fill: #0000f5; fill-opacity: 0.1"/>
    <path d="M 311.778758 111.775751 
L 292.773979 66.9881 
L 297.829075 54.260053 
L 316.906914 99.344662 
z
" clip-path="url(#pd77b4ac978)" style="fill: #0000f5; fill-opacity: 0.1"/>
    <path d="M 335.79251 143.974964 
L 316.906914 99.344662 
L 322.088592 86.783833 
L 341.045998 131.709467 
z
" clip-path="url(#pd77b4ac978)" style="fill: #0000f5; fill-opacity: 0.1"/>
    <path d="M 359.81235 176.182339 
L 341.045998 131.709467 
L 346.354321 119.315942 
L 365.191232 164.082518 
z
" clip-path="url(#pd77b4ac978)" style="fill: #0000f5; fill-opacity: 0.1"/>
    <path d="M 172.201444 -94.671169 
L 152.402311 -140.707892 
L 156.744314 -154.58136 
L 176.624601 -108.23402 
z
" clip-path="url(#pd77b4ac978)" style="fill: #0000f5; fill-opacity: 0.1"/>
    <path d="M 196.303674 -62.355777 
L 176.624601 -108.23402 
L 181.094128 -121.939055 
L 200.85309 -75.751838 
z
" clip-path="url(#pd77b4ac978)" style="fill: #0000f5; fill-opacity: 0.1"/>
    <path d="M 220.412039 -30.032157 
L 200.85309 -75.751838 
L 205.450205 -89.288353 
L 225.087779 -43.261343 
z
" clip-path="url(#pd77b4ac978)" style="fill: #0000f5; fill-opacity: 0.1"/>
    <path d="M 244.526544 2.299694 
L 225.087779 -43.261343 
L 229.812549 -56.629251 
L 249.328671 -10.762532 
z
" clip-path="url(#pd77b4ac978)" style="fill: #0000f5; fill-opacity: 0.1"/>
    <path d="M 268.64719 34.639778 
L 249.328671 -10.762532 
L 254.181161 -23.961746 
L 273.575769 21.744599 
z
" clip-path="url(#pd77b4ac978)" style="fill: #0000f5; fill-opacity: 0.1"/>
    <path d="M 292.773979 66.9881 
L 273.575769 21.744599 
L 278.556044 8.714166 
L 297.829075 54.260053 
z
" clip-path="url(#pd77b4ac978)" style="fill: #0000f5; fill-opacity: 0.1"/>
    <path d="M 316.906914 99.344662 
L 297.829075 54.260053 
L 302.9372 41.398488 
L 322.088592 86.783833 
z
" clip-path="url(#pd77b4ac978)" style="fill: #0000f5; fill-opacity: 0.1"/>
    <path d="M 341.045998 131.709467 
L 322.088592 86.783833 
L 327.324632 74.091223 
L 346.354321 119.315942 
z
" clip-path="url(#pd77b4ac978)" style="fill: #0000f5; fill-opacity: 0.1"/>
    <path d="M 365.191232 164.082518 
L 346.354321 119.315942 
L 351.718343 106.792375 
L 370.626265 151.856383 
z
" clip-path="url(#pd77b4ac978)" style="fill: #0000f5; fill-opacity: 0.1"/>
    <path d="M 176.624601 -108.23402 
L 156.744314 -154.58136 
L 161.13207 -168.601015 
L 181.094128 -121.939055 
z
" clip-path="url(#pd77b4ac978)" style="fill: #0000f5; fill-opacity: 0.1"/>
    <path d="M 200.85309 -75.751838 
L 181.094128 -121.939055 
L 185.610757 -135.788521 
L 205.450205 -89.288353 
z
" clip-path="url(#pd77b4ac978)" style="fill: #0000f5; fill-opacity: 0.1"/>
    <path d="M 225.087779 -43.261343 
L 205.450205 -89.288353 
L 210.095774 -102.967542 
L 229.812549 -56.629251 
z
" clip-path="url(#pd77b4ac978)" style="fill: #0000f5; fill-opacity: 0.1"/>
    <path d="M 249.328671 -10.762532 
L 229.812549 -56.629251 
L 234.587123 -70.138074 
L 254.181161 -23.961746 
z
" clip-path="url(#pd77b4ac978)" style="fill: #0000f5; fill-opacity: 0.1"/>
    <path d="M 273.575769 21.744599 
L 254.181161 -23.961746 
L 259.084808 -37.300114 
L 278.556044 8.714166 
z
" clip-path="url(#pd77b4ac978)" style="fill: #0000f5; fill-opacity: 0.1"/>
    <path d="M 297.829075 54.260053 
L 278.556044 8.714166 
L 283.58883 -4.45366 
L 302.9372 41.398488 
z
" clip-path="url(#pd77b4ac978)" style="fill: #0000f5; fill-opacity: 0.1"/>
    <path d="M 322.088592 86.783833 
L 302.9372 41.398488 
L 308.099192 28.401293 
L 327.324632 74.091223 
z
" clip-path="url(#pd77b4ac978)" style="fill: #0000f5; fill-opacity: 0.1"/>
    <path d="M 346.354321 119.315942 
L 327.324632 74.091223 
L 332.615896 61.264748 
L 351.718343 106.792375 
z
" clip-path="url(#pd77b4ac978)" style="fill: #0000f5; fill-opacity: 0.1"/>
    <path d="M 370.626265 151.856383 
L 351.718343 106.792375 
L 357.138945 94.136707 
L 376.118334 139.501946 
z
" clip-path="url(#pd77b4ac978)" style="fill: #0000f5; fill-opacity: 0.1"/>
    <path d="M 181.094128 -121.939055 
L 161.13207 -168.601015 
L 165.566305 -182.769181 
L 185.610757 -135.788521 
z
" clip-path="url(#pd77b4ac978)" style="fill: #0000f5; fill-opacity: 0.1"/>
    <path d="M 205.450205 -89.288353 
L 185.610757 -135.788521 
L 190.175237 -149.784714 
L 210.095774 -102.967542 
z
" clip-path="url(#pd77b4ac978)" style="fill: #0000f5; fill-opacity: 0.1"/>
    <path d="M 229.812549 -56.629251 
L 210.095774 -102.967542 
L 214.790566 -116.791672 
L 234.587123 -70.138074 
z
" clip-path="url(#pd77b4ac978)" style="fill: #0000f5; fill-opacity: 0.1"/>
    <path d="M 254.181161 -23.961746 
L 234.587123 -70.138074 
L 239.412295 -83.790052 
L 259.084808 -37.300114 
z
" clip-path="url(#pd77b4ac978)" style="fill: #0000f5; fill-opacity: 0.1"/>
    <path d="M 278.556044 8.714166 
L 259.084808 -37.300114 
L 264.040427 -50.77985 
L 283.58883 -4.45366 
z
" clip-path="url(#pd77b4ac978)" style="fill: #0000f5; fill-opacity: 0.1"/>
    <path d="M 302.9372 41.398488 
L 283.58883 -4.45366 
L 288.674964 -17.761064 
L 308.099192 28.401293 
z
" clip-path="url(#pd77b4ac978)" style="fill: #0000f5; fill-opacity: 0.1"/>
    <path d="M 327.324632 74.091223 
L 308.099192 28.401293 
L 313.315908 15.266311 
L 332.615896 61.264748 
z
" clip-path="url(#pd77b4ac978)" style="fill: #0000f5; fill-opacity: 0.1"/>
    <path d="M 351.718343 106.792375 
L 332.615896 61.264748 
L 337.963262 48.302277 
L 357.138945 94.136707 
z
" clip-path="url(#pd77b4ac978)" style="fill: #0000f5; fill-opacity: 0.1"/>
    <path d="M 185.610757 -135.788521 
L 165.566305 -182.769181 
L 170.047762 -197.08823 
L 190.175237 -149.784714 
z
" clip-path="url(#pd77b4ac978)" style="fill: #0000f5; fill-opacity: 0.1"/>
    <path d="M 210.095774 -102.967542 
L 190.175237 -149.784714 
L 194.788332 -163.929978 
L 214.790566 -116.791672 
z
" clip-path="url(#pd77b4ac978)" style="fill: #0000f5; fill-opacity: 0.1"/>
    <path d="M 234.587123 -70.138074 
L 214.790566 -116.791672 
L 219.535368 -130.76306 
L 239.412295 -83.790052 
z
" clip-path="url(#pd77b4ac978)" style="fill: #0000f5; fill-opacity: 0.1"/>
    <path d="M 259.084808 -37.300114 
L 239.412295 -83.790052 
L 244.288872 -97.587473 
L 264.040427 -50.77985 
z
" clip-path="url(#pd77b4ac978)" style="fill: #0000f5; fill-opacity: 0.1"/>
    <path d="M 283.58883 -4.45366 
L 264.040427 -50.77985 
L 269.048848 -64.403213 
L 288.674964 -17.761064 
z
" clip-path="url(#pd77b4ac978)" style="fill: #0000f5; fill-opacity: 0.1"/>
    <path d="M 308.099192 28.401293 
L 288.674964 -17.761064 
L 293.815297 -31.210277 
L 313.315908 15.266311 
z
" clip-path="url(#pd77b4ac978)" style="fill: #0000f5; fill-opacity: 0.1"/>
    <path d="M 332.615896 61.264748 
L 313.315908 15.266311 
L 318.588222 1.991339 
L 337.963262 48.302277 
z
" clip-path="url(#pd77b4ac978)" style="fill: #0000f5; fill-opacity: 0.1"/>
    <path d="M 190.175237 -149.784714 
L 170.047762 -197.08823 
L 174.577199 -211.560585 
L 194.788332 -163.929978 
z
" clip-path="url(#pd77b4ac978)" style="fill: #0000f5; fill-opacity: 0.1"/>
    <path d="M 214.790566 -116.791672 
L 194.788332 -163.929978 
L 199.450824 -178.226708 
L 219.535368 -130.76306 
z
" clip-path="url(#pd77b4ac978)" style="fill: #0000f5; fill-opacity: 0.1"/>
    <path d="M 239.412295 -83.790052 
L 219.535368 -130.76306 
L 224.330983 -144.884071 
L 244.288872 -97.587473 
z
" clip-path="url(#pd77b4ac978)" style="fill: #0000f5; fill-opacity: 0.1"/>
    <path d="M 264.040427 -50.77985 
L 244.288872 -97.587473 
L 249.217681 -111.532673 
L 269.048848 -64.403213 
z
" clip-path="url(#pd77b4ac978)" style="fill: #0000f5; fill-opacity: 0.1"/>
    <path d="M 288.674964 -17.761064 
L 269.048848 -64.403213 
L 274.110919 -78.17251 
L 293.815297 -31.210277 
z
" clip-path="url(#pd77b4ac978)" style="fill: #0000f5; fill-opacity: 0.1"/>
    <path d="M 313.315908 15.266311 
L 293.815297 -31.210277 
L 299.010701 -44.803577 
L 318.588222 1.991339 
z
" clip-path="url(#pd77b4ac978)" style="fill: #0000f5; fill-opacity: 0.1"/>
    <path d="M 194.788332 -163.929978 
L 174.577199 -211.560585 
L 179.155392 -226.188722 
L 199.450824 -178.226708 
z
" clip-path="url(#pd77b4ac978)" style="fill: #0000f5; fill-opacity: 0.1"/>
    <path d="M 219.535368 -130.76306 
L 199.450824 -178.226708 
L 204.163509 -192.677348 
L 224.330983 -144.884071 
z
" clip-path="url(#pd77b4ac978)" style="fill: #0000f5; fill-opacity: 0.1"/>
    <path d="M 244.288872 -97.587473 
L 224.330983 -144.884071 
L 229.178232 -159.157122 
L 249.217681 -111.532673 
z
" clip-path="url(#pd77b4ac978)" style="fill: #0000f5; fill-opacity: 0.1"/>
    <path d="M 269.048848 -64.403213 
L 249.217681 -111.532673 
L 254.199565 -125.62804 
L 274.110919 -78.17251 
z
" clip-path="url(#pd77b4ac978)" style="fill: #0000f5; fill-opacity: 0.1"/>
    <path d="M 293.815297 -31.210277 
L 274.110919 -78.17251 
L 279.227508 -92.090098 
L 299.010701 -44.803577 
z
" clip-path="url(#pd77b4ac978)" style="fill: #0000f5; fill-opacity: 0.1"/>
    <path d="M 199.450824 -178.226708 
L 179.155392 -226.188722 
L 183.783131 -240.975168 
L 204.163509 -192.677348 
z
" clip-path="url(#pd77b4ac978)" style="fill: #0000f5; fill-opacity: 0.1"/>
    <path d="M 224.330983 -144.884071 
L 204.163509 -192.677348 
L 208.927204 -207.284399 
L 229.178232 -159.157122 
z
" clip-path="url(#pd77b4ac978)" style="fill: #0000f5; fill-opacity: 0.1"/>
    <path d="M 249.217681 -111.532673 
L 229.178232 -159.157122 
L 234.077954 -173.584681 
L 254.199565 -125.62804 
z
" clip-path="url(#pd77b4ac978)" style="fill: #0000f5; fill-opacity: 0.1"/>
    <path d="M 274.110919 -78.17251 
L 254.199565 -125.62804 
L 259.235385 -139.876012 
L 279.227508 -92.090098 
z
" clip-path="url(#pd77b4ac978)" style="fill: #0000f5; fill-opacity: 0.1"/>
    <path d="M 204.163509 -192.677348 
L 183.783131 -240.975168 
L 188.461226 -255.922509 
L 208.927204 -207.284399 
z
" clip-path="url(#pd77b4ac978)" style="fill: #0000f5; fill-opacity: 0.1"/>
    <path d="M 229.178232 -159.157122 
L 208.927204 -207.284399 
L 213.74274 -222.050413 
L 234.077954 -173.584681 
z
" clip-path="url(#pd77b4ac978)" style="fill: #0000f5; fill-opacity: 0.1"/>
    <path d="M 254.199565 -125.62804 
L 234.077954 -173.584681 
L 239.031005 -188.169271 
L 259.235385 -139.876012 
z
" clip-path="url(#pd77b4ac978)" style="fill: #0000f5; fill-opacity: 0.1"/>
    <path d="M 208.927204 -207.284399 
L 188.461226 -255.922509 
L 193.190502 -271.033384 
L 213.74274 -222.050413 
z
" clip-path="url(#pd77b4ac978)" style="fill: #0000f5; fill-opacity: 0.1"/>
    <path d="M 234.077954 -173.584681 
L 213.74274 -222.050413 
L 218.610968 -236.977999 
L 239.031005 -188.169271 
z
" clip-path="url(#pd77b4ac978)" style="fill: #0000f5; fill-opacity: 0.1"/>
    <path d="M 213.74274 -222.050413 
L 193.190502 -271.033384 
L 197.971805 -286.310492 
L 218.610968 -236.977999 
z
" clip-path="url(#pd77b4ac978)" style="fill: #0000f5; fill-opacity: 0.1"/>
   </g>
   <g id="legend_1">
    <g id="patch_6">
     <path d="M 357.840076 67.305115 
L 396.2 67.305115 
Q 398.2 67.305115 398.2 65.305115 
L 398.2 7 
Q 398.2 5 396.2 5 
L 357.840076 5 
Q 355.840076 5 355.840076 7 
L 355.840076 65.305115 
Q 355.840076 67.305115 357.840076 67.305115 
z
" style="fill: #ffffff; opacity: 0.8; stroke: #cccccc; stroke-linejoin: miter"/>
    </g>
    <g id="line2d_25">
     <path d="M 359.840076 12.5 
L 369.840076 12.5 
L 379.840076 12.5 
" style="fill: none; stroke: #ff0000; stroke-width: 1.5; stroke-linecap: square"/>
    </g>
    <g id="text_21">
     <!-- $\vec{a}$ -->
     <g transform="translate(387.840076 16)scale(0.1 -0.1)">
      <defs>
       <path id="CMMI12-7e" d="M 3424 3835 
C 3347 3764 3110 3540 3110 3451 
C 3110 3387 3168 3329 3232 3329 
C 3290 3329 3315 3368 3360 3432 
C 3514 3624 3686 3745 3834 3828 
C 3898 3867 3942 3886 3942 3956 
C 3942 4014 3891 4046 3853 4078 
C 3674 4200 3629 4372 3610 4449 
C 3590 4500 3571 4577 3482 4577 
C 3443 4577 3366 4552 3366 4456 
C 3366 4398 3405 4244 3526 4072 
L 1376 4072 
C 1267 4072 1158 4072 1158 3950 
C 1158 3835 1274 3835 1376 3835 
L 3424 3835 
z
" transform="scale(0.015625)"/>
       <path id="CMMI12-61" d="M 1926 760 
C 1894 651 1894 639 1805 517 
C 1664 338 1382 64 1082 64 
C 819 64 672 300 672 677 
C 672 1028 870 1743 992 2012 
C 1210 2459 1510 2689 1760 2689 
C 2182 2689 2266 2165 2266 2114 
C 2266 2108 2246 2024 2240 2012 
L 1926 760 
z
M 2336 2395 
C 2266 2561 2093 2816 1760 2816 
C 1037 2816 256 1884 256 939 
C 256 307 627 -64 1062 -64 
C 1414 -64 1715 211 1894 422 
C 1958 45 2259 -64 2451 -64 
C 2643 -64 2797 51 2912 281 
C 3014 498 3104 888 3104 913 
C 3104 945 3078 971 3040 971 
C 2982 971 2976 939 2950 843 
C 2854 466 2733 64 2470 64 
C 2285 64 2272 230 2272 358 
C 2272 505 2291 575 2349 824 
C 2394 984 2426 1124 2477 1309 
C 2714 2267 2771 2497 2771 2535 
C 2771 2625 2701 2695 2605 2695 
C 2400 2695 2349 2472 2336 2395 
z
" transform="scale(0.015625)"/>
      </defs>
      <use xlink:href="#CMMI12-7e" transform="scale(0.996264)"/>
      <use xlink:href="#CMMI12-61" transform="translate(6.445738 0)scale(0.996264)"/>
     </g>
    </g>
    <g id="line2d_26">
     <path d="M 359.840076 27.24679 
L 369.840076 27.24679 
L 379.840076 27.24679 
" style="fill: none; stroke: #00ff00; stroke-width: 1.5; stroke-linecap: square"/>
    </g>
    <g id="text_22">
     <!-- $\vec{b}$ -->
     <g transform="translate(387.840076 30.74679)scale(0.1 -0.1)">
      <defs>
       <path id="CMMI12-62" d="M 1478 4257 
C 1485 4283 1498 4321 1498 4352 
C 1498 4416 1434 4416 1421 4416 
C 1414 4416 1184 4393 1069 4377 
C 960 4377 864 4358 749 4358 
C 595 4345 550 4339 550 4224 
C 550 4160 614 4160 678 4160 
C 1005 4160 1005 4103 1005 4040 
C 1005 3996 954 3811 928 3696 
L 774 3085 
C 710 2831 346 1387 320 1272 
C 288 1114 288 1005 288 922 
C 288 274 653 -64 1069 -64 
C 1811 -64 2579 888 2579 1814 
C 2579 2401 2246 2816 1766 2816 
C 1434 2816 1133 2542 1011 2414 
L 1478 4257 
z
M 1075 64 
C 870 64 646 217 646 715 
C 646 926 666 1047 781 1494 
C 800 1577 902 1986 928 2069 
C 941 2120 1318 2689 1754 2689 
C 2035 2689 2163 2408 2163 2076 
C 2163 1769 1984 1047 1824 715 
C 1664 370 1370 64 1075 64 
z
" transform="scale(0.015625)"/>
      </defs>
      <use xlink:href="#CMMI12-7e" transform="translate(0 26.29016)scale(0.996264)"/>
      <use xlink:href="#CMMI12-62" transform="translate(11.311737 0)scale(0.996264)"/>
     </g>
    </g>
    <g id="line2d_27">
     <path d="M 359.840076 41.183968 
L 369.840076 41.183968 
L 379.840076 41.183968 
" style="fill: none; stroke: #0016ff; stroke-width: 1.5; stroke-linecap: square"/>
    </g>
    <g id="text_23">
     <!-- $\vec{c}$ -->
     <g transform="translate(387.840076 44.683968)scale(0.1 -0.1)">
      <defs>
       <path id="CMMI12-63" d="M 2502 2431 
C 2381 2431 2323 2431 2234 2355 
C 2195 2323 2125 2227 2125 2125 
C 2125 1997 2221 1920 2342 1920 
C 2496 1920 2669 2044 2669 2292 
C 2669 2588 2374 2816 1933 2816 
C 1094 2816 256 1903 256 996 
C 256 441 602 -64 1254 -64 
C 2125 -64 2675 622 2675 706 
C 2675 744 2637 776 2611 776 
C 2592 776 2586 770 2528 713 
C 2118 162 1510 64 1267 64 
C 826 64 685 446 685 764 
C 685 988 794 1605 1024 2039 
C 1190 2338 1536 2682 1939 2682 
C 2022 2682 2374 2682 2502 2431 
z
" transform="scale(0.015625)"/>
      </defs>
      <use xlink:href="#CMMI12-7e" transform="scale(0.996264)"/>
      <use xlink:href="#CMMI12-63" transform="translate(5.638615 0)scale(0.996264)"/>
     </g>
    </g>
    <g id="line2d_28">
     <path d="M 359.840076 57.867937 
L 369.840076 57.867937 
L 379.840076 57.867937 
" style="fill: none; stroke: #f400ff; stroke-width: 1.5; stroke-linecap: square"/>
    </g>
    <g id="text_24">
     <!-- $\vec{f}$ -->
     <g transform="translate(387.840076 61.367937)scale(0.1 -0.1)">
      <defs>
       <path id="CMMI12-66" d="M 2854 2566 
C 2982 2566 3034 2566 3034 2688 
C 3034 2752 2982 2752 2867 2752 
L 2349 2752 
C 2470 3429 2560 3897 2611 4107 
C 2650 4265 2784 4416 2950 4416 
C 3085 4416 3219 4358 3283 4298 
C 3034 4272 2957 4082 2957 3969 
C 2957 3837 3053 3759 3174 3759 
C 3302 3759 3494 3870 3494 4119 
C 3494 4393 3226 4544 2944 4544 
C 2669 4544 2400 4334 2272 4078 
C 2157 3848 2093 3611 1946 2752 
L 1517 2752 
C 1395 2752 1331 2752 1331 2637 
C 1331 2566 1370 2566 1498 2566 
L 1907 2566 
C 1792 1976 1530 542 1382 -137 
C 1274 -689 1178 -1152 858 -1152 
C 838 -1152 653 -1152 538 -1031 
C 864 -1005 864 -726 864 -720 
C 864 -593 768 -517 646 -517 
C 518 -517 326 -625 326 -867 
C 326 -1140 608 -1280 858 -1280 
C 1510 -1280 1779 -118 1850 199 
C 1965 688 2278 2376 2310 2566 
L 2854 2566 
z
" transform="scale(0.015625)"/>
      </defs>
      <use xlink:href="#CMMI12-7e" transform="translate(13.568792 26.29016)scale(0.996264)"/>
      <use xlink:href="#CMMI12-66" transform="scale(0.996264)"/>
     </g>
    </g>
   </g>
  </g>
 </g>
 <defs>
  <clipPath id="pd77b4ac978">
   <rect x="57.6" y="0" width="345.6" height="345.6"/>
  </clipPath>
 </defs>
</svg>
