<?xml version="1.0" encoding="utf-8" standalone="no"?>
<!DOCTYPE svg PUBLIC "-//W3C//DTD SVG 1.1//EN"
  "http://www.w3.org/Graphics/SVG/1.1/DTD/svg11.dtd">
<svg xmlns:xlink="http://www.w3.org/1999/xlink" width="460.8pt" height="345.6pt" viewBox="0 0 460.8 345.6" xmlns="http://www.w3.org/2000/svg" version="1.1">
 <metadata>
  <rdf:RDF xmlns:dc="http://purl.org/dc/elements/1.1/" xmlns:cc="http://creativecommons.org/ns#" xmlns:rdf="http://www.w3.org/1999/02/22-rdf-syntax-ns#">
   <cc:Work>
    <dc:type rdf:resource="http://purl.org/dc/dcmitype/StillImage"/>
    <dc:date>2022-07-12T15:50:54.502643</dc:date>
    <dc:format>image/svg+xml</dc:format>
    <dc:creator>
     <cc:Agent>
      <dc:title>Matplotlib v3.5.1, https://matplotlib.org/</dc:title>
     </cc:Agent>
    </dc:creator>
   </cc:Work>
  </rdf:RDF>
 </metadata>
 <defs>
  <style type="text/css">*{stroke-linejoin: round; stroke-linecap: butt}</style>
 </defs>
 <g id="figure_1">
  <g id="patch_1">
   <path d="M 0 345.6 
L 460.8 345.6 
L 460.8 0 
L 0 0 
z
" style="fill: #ffffff"/>
  </g>
  <g id="patch_2">
   <path d="M 57.6 345.6 
L 403.2 345.6 
L 403.2 0 
L 57.6 0 
z
" style="fill: #ffffff"/>
  </g>
  <g id="pane3d_1">
   <g id="patch_3">
    <path d="M 287.319659 245.450882 
L 386.448209 254.121545 
L 386.448209 82.137915 
L 287.319659 90.808578 
" style="fill: #f2f2f2; opacity: 0.5; stroke: #f2f2f2; stroke-linejoin: miter"/>
   </g>
  </g>
  <g id="pane3d_2">
   <g id="patch_4">
    <path d="M 287.319659 245.450882 
L 92.558168 249.085214 
L 92.558168 87.174246 
L 287.319659 90.808578 
" style="fill: #e6e6e6; opacity: 0.5; stroke: #e6e6e6; stroke-linejoin: miter"/>
   </g>
  </g>
  <g id="pane3d_3">
   <g id="patch_5">
    <path d="M 287.319659 245.450882 
L 92.558168 249.085214 
L 173.908067 258.640493 
L 386.448209 254.121545 
" style="fill: #ececec; opacity: 0.5; stroke: #ececec; stroke-linejoin: miter"/>
   </g>
  </g>
  <g id="axis3d_1">
   <g id="line2d_1">
    <path d="M 386.448209 254.121545 
L 173.908067 258.640493 
" style="fill: none; stroke: #000000; stroke-width: 0.8; stroke-linecap: square"/>
   </g>
   <g id="text_1">
    <!-- x -->
    <g transform="translate(293.606841 286.635707)scale(0.16 -0.16)">
     <defs>
      <path id="CMSS17-78" d="M 1587 1414 
L 2656 2739 
L 2099 2739 
L 1363 1777 
L 602 2739 
L 32 2739 
L 1139 1414 
L 0 0 
L 563 0 
L 1363 1121 
L 2195 0 
L 2758 0 
L 1587 1414 
z
" transform="scale(0.015625)"/>
     </defs>
     <use xlink:href="#CMSS17-78" transform="scale(0.996264)"/>
    </g>
   </g>
   <g id="Line3DCollection_1">
    <path d="M 382.4056 254.207497 
L 283.595954 245.520368 
L 283.595954 90.739092 
" style="fill: none; stroke: #b0b0b0; stroke-width: 0.8"/>
    <path d="M 343.181384 255.041468 
L 247.504899 246.193842 
L 247.504899 90.065618 
" style="fill: none; stroke: #b0b0b0; stroke-width: 0.8"/>
    <path d="M 303.189678 255.891756 
L 210.780181 246.879141 
L 210.780181 89.380319 
" style="fill: none; stroke: #b0b0b0; stroke-width: 0.8"/>
    <path d="M 262.407734 256.758847 
L 173.404964 247.576578 
L 173.404964 88.682881 
" style="fill: none; stroke: #b0b0b0; stroke-width: 0.8"/>
    <path d="M 220.811897 257.643242 
L 135.361811 248.28648 
L 135.361811 87.97298 
" style="fill: none; stroke: #b0b0b0; stroke-width: 0.8"/>
    <path d="M 178.377556 258.545465 
L 96.632656 249.009182 
L 96.632656 87.250277 
" style="fill: none; stroke: #b0b0b0; stroke-width: 0.8"/>
   </g>
   <g id="xtick_1">
    <g id="line2d_2">
     <path d="M 381.527181 254.130269 
L 384.167181 254.362372 
" style="fill: none; stroke: #000000; stroke-width: 0.8; stroke-linecap: square"/>
    </g>
    <g id="text_2">
     <!-- $\mathdefault{0}$ -->
     <g transform="translate(386.987108 272.82604)scale(0.1 -0.1)">
      <defs>
       <path id="CMR17-30" d="M 2688 2025 
C 2688 2416 2682 3080 2413 3591 
C 2176 4039 1798 4198 1466 4198 
C 1158 4198 768 4058 525 3597 
C 269 3118 243 2524 243 2025 
C 243 1661 250 1106 448 619 
C 723 -39 1216 -128 1466 -128 
C 1760 -128 2208 -7 2470 600 
C 2662 1042 2688 1559 2688 2025 
z
M 1466 -26 
C 1056 -26 813 325 723 812 
C 653 1188 653 1738 653 2096 
C 653 2588 653 2997 736 3387 
C 858 3929 1216 4096 1466 4096 
C 1728 4096 2067 3923 2189 3400 
C 2272 3036 2278 2607 2278 2096 
C 2278 1680 2278 1169 2202 792 
C 2067 95 1690 -26 1466 -26 
z
" transform="scale(0.015625)"/>
      </defs>
      <use xlink:href="#CMR17-30" transform="scale(0.996264)"/>
     </g>
    </g>
   </g>
   <g id="xtick_2">
    <g id="line2d_3">
     <path d="M 342.329993 254.962736 
L 344.888804 255.19936 
" style="fill: none; stroke: #000000; stroke-width: 0.8; stroke-linecap: square"/>
    </g>
    <g id="text_3">
     <!-- $\mathdefault{1}$ -->
     <g transform="translate(347.545815 273.780277)scale(0.1 -0.1)">
      <defs>
       <path id="CMR17-31" d="M 1702 4058 
C 1702 4192 1696 4192 1606 4192 
C 1357 3916 979 3827 621 3827 
C 602 3827 570 3827 563 3808 
C 557 3795 557 3782 557 3648 
C 755 3648 1088 3686 1344 3839 
L 1344 461 
C 1344 236 1331 160 781 160 
L 589 160 
L 589 0 
C 896 0 1216 0 1523 0 
C 1830 0 2150 0 2458 0 
L 2458 160 
L 2266 160 
C 1715 160 1702 230 1702 458 
L 1702 4058 
z
" transform="scale(0.015625)"/>
      </defs>
      <use xlink:href="#CMR17-31" transform="scale(0.996264)"/>
     </g>
    </g>
   </g>
   <g id="xtick_3">
    <g id="line2d_4">
     <path d="M 302.366547 255.811477 
L 304.840468 256.052756 
" style="fill: none; stroke: #000000; stroke-width: 0.8; stroke-linecap: square"/>
    </g>
    <g id="text_4">
     <!-- $\mathdefault{2}$ -->
     <g transform="translate(307.327101 274.753323)scale(0.1 -0.1)">
      <defs>
       <path id="CMR17-32" d="M 2669 989 
L 2554 989 
C 2490 536 2438 459 2413 420 
C 2381 369 1920 369 1830 369 
L 602 369 
C 832 619 1280 1072 1824 1597 
C 2214 1967 2669 2402 2669 3035 
C 2669 3790 2067 4224 1395 4224 
C 691 4224 262 3604 262 3030 
C 262 2780 448 2748 525 2748 
C 589 2748 781 2787 781 3010 
C 781 3207 614 3264 525 3264 
C 486 3264 448 3258 422 3245 
C 544 3790 915 4058 1306 4058 
C 1862 4058 2227 3617 2227 3035 
C 2227 2479 1901 2000 1536 1584 
L 262 146 
L 262 0 
L 2515 0 
L 2669 989 
z
" transform="scale(0.015625)"/>
      </defs>
      <use xlink:href="#CMR17-32" transform="scale(0.996264)"/>
     </g>
    </g>
   </g>
   <g id="xtick_4">
    <g id="line2d_5">
     <path d="M 261.614152 256.676974 
L 263.999309 256.923047 
" style="fill: none; stroke: #000000; stroke-width: 0.8; stroke-linecap: square"/>
    </g>
    <g id="text_5">
     <!-- $\mathdefault{3}$ -->
     <g transform="translate(266.307751 275.745739)scale(0.1 -0.1)">
      <defs>
       <path id="CMR17-33" d="M 1414 2157 
C 1984 2157 2234 1662 2234 1090 
C 2234 320 1824 25 1453 25 
C 1114 25 563 194 390 693 
C 422 680 454 680 486 680 
C 640 680 755 782 755 948 
C 755 1133 614 1216 486 1216 
C 378 1216 211 1165 211 926 
C 211 335 787 -128 1466 -128 
C 2176 -128 2720 430 2720 1085 
C 2720 1707 2208 2157 1600 2227 
C 2086 2328 2554 2756 2554 3329 
C 2554 3820 2048 4179 1472 4179 
C 890 4179 378 3829 378 3329 
C 378 3110 544 3072 627 3072 
C 762 3072 877 3155 877 3321 
C 877 3486 762 3569 627 3569 
C 602 3569 570 3569 544 3557 
C 730 3959 1235 4032 1459 4032 
C 1683 4032 2106 3925 2106 3320 
C 2106 3143 2080 2828 1862 2550 
C 1670 2304 1453 2304 1242 2284 
C 1210 2284 1062 2269 1037 2269 
C 992 2263 966 2257 966 2208 
C 966 2163 973 2157 1101 2157 
L 1414 2157 
z
" transform="scale(0.015625)"/>
      </defs>
      <use xlink:href="#CMR17-33" transform="scale(0.996264)"/>
     </g>
    </g>
   </g>
   <g id="xtick_5">
    <g id="line2d_6">
     <path d="M 220.049211 257.559728 
L 222.34155 257.810738 
" style="fill: none; stroke: #000000; stroke-width: 0.8; stroke-linecap: square"/>
    </g>
    <g id="text_6">
     <!-- $\mathdefault{4}$ -->
     <g transform="translate(224.463619 276.75811)scale(0.1 -0.1)">
      <defs>
       <path id="CMR17-34" d="M 2150 4122 
C 2150 4256 2144 4256 2029 4256 
L 128 1254 
L 128 1088 
L 1779 1088 
L 1779 457 
C 1779 224 1766 160 1318 160 
L 1197 160 
L 1197 0 
C 1402 0 1747 0 1965 0 
C 2182 0 2528 0 2733 0 
L 2733 160 
L 2611 160 
C 2163 160 2150 224 2150 457 
L 2150 1088 
L 2803 1088 
L 2803 1254 
L 2150 1254 
L 2150 4122 
z
M 1798 3703 
L 1798 1254 
L 256 1254 
L 1798 3703 
z
" transform="scale(0.015625)"/>
      </defs>
      <use xlink:href="#CMR17-34" transform="scale(0.996264)"/>
     </g>
    </g>
   </g>
   <g id="xtick_6">
    <g id="line2d_7">
     <path d="M 177.647179 258.460259 
L 179.842451 258.716358 
" style="fill: none; stroke: #000000; stroke-width: 0.8; stroke-linecap: square"/>
    </g>
    <g id="text_7">
     <!-- $\mathdefault{5}$ -->
     <g transform="translate(181.769575 277.791043)scale(0.1 -0.1)">
      <defs>
       <path id="CMR17-35" d="M 730 3692 
C 794 3666 1056 3584 1325 3584 
C 1920 3584 2246 3911 2432 4100 
C 2432 4157 2432 4192 2394 4192 
C 2387 4192 2374 4192 2323 4163 
C 2099 4058 1837 3973 1517 3973 
C 1325 3973 1037 3999 723 4139 
C 653 4171 640 4171 634 4171 
C 602 4171 595 4164 595 4037 
L 595 2203 
C 595 2089 595 2057 659 2057 
C 691 2057 704 2070 736 2114 
C 941 2401 1222 2522 1542 2522 
C 1766 2522 2246 2382 2246 1289 
C 2246 1085 2246 715 2054 421 
C 1894 159 1645 25 1370 25 
C 947 25 518 320 403 814 
C 429 807 480 795 506 795 
C 589 795 749 840 749 1038 
C 749 1210 627 1280 506 1280 
C 358 1280 262 1190 262 1011 
C 262 454 704 -128 1382 -128 
C 2042 -128 2669 440 2669 1264 
C 2669 2030 2170 2624 1549 2624 
C 1222 2624 947 2503 730 2274 
L 730 3692 
z
" transform="scale(0.015625)"/>
      </defs>
      <use xlink:href="#CMR17-35" transform="scale(0.996264)"/>
     </g>
    </g>
   </g>
  </g>
  <g id="axis3d_2">
   <g id="line2d_8">
    <path d="M 92.558168 249.085214 
L 173.908067 258.640493 
" style="fill: none; stroke: #000000; stroke-width: 0.8; stroke-linecap: square"/>
   </g>
   <g id="text_8">
    <!-- y -->
    <g transform="translate(97.555646 282.08035)scale(0.16 -0.16)">
     <defs>
      <path id="CMSS17-79" d="M 2675 2752 
L 2176 2752 
C 1632 1294 1446 702 1434 383 
L 1427 383 
C 1408 696 1126 1460 902 2007 
L 602 2752 
L 83 2752 
L 1216 13 
C 1146 -178 1043 -465 1011 -529 
C 870 -885 774 -885 672 -885 
C 646 -885 442 -885 211 -809 
L 250 -1229 
C 410 -1261 570 -1280 685 -1280 
C 845 -1280 1165 -1280 1459 -497 
L 2675 2752 
z
" transform="scale(0.015625)"/>
     </defs>
     <use xlink:href="#CMSS17-79" transform="scale(0.996264)"/>
    </g>
   </g>
   <g id="Line3DCollection_2">
    <path d="M 297.781487 89.893493 
L 297.781487 246.365966 
L 101.103174 250.088902 
" style="fill: none; stroke: #b0b0b0; stroke-width: 0.8"/>
    <path d="M 315.652623 88.330325 
L 315.652623 247.929134 
L 115.721972 251.806011 
" style="fill: none; stroke: #b0b0b0; stroke-width: 0.8"/>
    <path d="M 334.252452 86.703419 
L 334.252452 249.55604 
L 130.966429 253.59661 
" style="fill: none; stroke: #b0b0b0; stroke-width: 0.8"/>
    <path d="M 353.626471 85.008795 
L 353.626471 251.250664 
L 146.87759 255.46552 
" style="fill: none; stroke: #b0b0b0; stroke-width: 0.8"/>
    <path d="M 373.824045 83.242136 
L 373.824045 253.017323 
L 163.500167 257.417991 
" style="fill: none; stroke: #b0b0b0; stroke-width: 0.8"/>
   </g>
   <g id="xtick_7">
    <g id="line2d_9">
     <path d="M 102.750846 250.057713 
L 97.804063 250.151351 
" style="fill: none; stroke: #000000; stroke-width: 0.8; stroke-linecap: square"/>
    </g>
    <g id="text_9">
     <!-- $\mathdefault{−4}$ -->
     <g transform="translate(81.534491 267.761829)scale(0.1 -0.1)">
      <defs>
       <path id="CMSY10-0" d="M 4218 1472 
C 4326 1472 4442 1472 4442 1600 
C 4442 1728 4326 1728 4218 1728 
L 755 1728 
C 646 1728 531 1728 531 1600 
C 531 1472 646 1472 755 1472 
L 4218 1472 
z
" transform="scale(0.015625)"/>
      </defs>
      <use xlink:href="#CMSY10-0" transform="scale(0.996264)"/>
      <use xlink:href="#CMR17-34" transform="translate(77.487468 0)scale(0.996264)"/>
     </g>
    </g>
   </g>
   <g id="xtick_8">
    <g id="line2d_10">
     <path d="M 117.398471 251.773502 
L 112.365061 251.871106 
" style="fill: none; stroke: #000000; stroke-width: 0.8; stroke-linecap: square"/>
    </g>
    <g id="text_10">
     <!-- $\mathdefault{−2}$ -->
     <g transform="translate(95.921318 269.710301)scale(0.1 -0.1)">
      <use xlink:href="#CMSY10-0" transform="scale(0.996264)"/>
      <use xlink:href="#CMR17-32" transform="translate(77.487468 0)scale(0.996264)"/>
     </g>
    </g>
   </g>
   <g id="xtick_9">
    <g id="line2d_11">
     <path d="M 132.672741 253.562695 
L 127.54974 253.664522 
" style="fill: none; stroke: #000000; stroke-width: 0.8; stroke-linecap: square"/>
    </g>
    <g id="text_11">
     <!-- $\mathdefault{0}$ -->
     <g transform="translate(114.800206 271.742429)scale(0.1 -0.1)">
      <use xlink:href="#CMR17-30" transform="scale(0.996264)"/>
     </g>
    </g>
   </g>
   <g id="xtick_10">
    <g id="line2d_12">
     <path d="M 148.614746 255.430106 
L 143.399046 255.536435 
" style="fill: none; stroke: #000000; stroke-width: 0.8; stroke-linecap: square"/>
    </g>
    <g id="text_12">
     <!-- $\mathdefault{2}$ -->
     <g transform="translate(130.463064 273.863719)scale(0.1 -0.1)">
      <use xlink:href="#CMR17-32" transform="scale(0.996264)"/>
     </g>
    </g>
   </g>
   <g id="xtick_11">
    <g id="line2d_13">
     <path d="M 165.269252 257.380976 
L 159.957592 257.492114 
" style="fill: none; stroke: #000000; stroke-width: 0.8; stroke-linecap: square"/>
    </g>
    <g id="text_13">
     <!-- $\mathdefault{4}$ -->
     <g transform="translate(146.828564 276.080171)scale(0.1 -0.1)">
      <use xlink:href="#CMR17-34" transform="scale(0.996264)"/>
     </g>
    </g>
   </g>
  </g>
  <g id="axis3d_3">
   <g id="line2d_14">
    <path d="M 92.558168 249.085214 
L 92.558168 87.174246 
" style="fill: none; stroke: #000000; stroke-width: 0.8; stroke-linecap: square"/>
   </g>
   <g id="text_14">
    <!-- z -->
    <g transform="translate(51.055369 172.114786)scale(0.16 -0.16)">
     <defs>
      <path id="CMSS17-7a" d="M 2400 2502 
L 2400 2750 
L 250 2750 
L 250 2368 
L 1069 2368 
C 1146 2368 1222 2368 1299 2368 
L 1747 2368 
L 166 261 
L 166 0 
L 2419 0 
L 2419 395 
L 1549 395 
C 1472 395 1395 395 1318 395 
L 826 395 
L 2400 2502 
z
" transform="scale(0.015625)"/>
     </defs>
     <use xlink:href="#CMSS17-7a" transform="scale(0.996264)"/>
    </g>
   </g>
   <g id="Line3DCollection_3">
    <path d="M 92.558168 245.846994 
L 287.319659 242.358036 
L 386.448209 250.681872 
" style="fill: none; stroke: #b0b0b0; stroke-width: 0.8"/>
    <path d="M 92.558168 214.760089 
L 287.319659 212.666713 
L 386.448209 217.661015 
" style="fill: none; stroke: #b0b0b0; stroke-width: 0.8"/>
    <path d="M 92.558168 183.673183 
L 287.319659 182.975391 
L 386.448209 184.640158 
" style="fill: none; stroke: #b0b0b0; stroke-width: 0.8"/>
    <path d="M 92.558168 152.586277 
L 287.319659 153.284069 
L 386.448209 151.619301 
" style="fill: none; stroke: #b0b0b0; stroke-width: 0.8"/>
    <path d="M 92.558168 121.499371 
L 287.319659 123.592746 
L 386.448209 118.598444 
" style="fill: none; stroke: #b0b0b0; stroke-width: 0.8"/>
    <path d="M 92.558168 90.412465 
L 287.319659 93.901424 
L 386.448209 85.577587 
" style="fill: none; stroke: #b0b0b0; stroke-width: 0.8"/>
   </g>
   <g id="xtick_12">
    <g id="line2d_15">
     <path d="M 94.188882 245.817782 
L 89.293059 245.905486 
" style="fill: none; stroke: #000000; stroke-width: 0.8; stroke-linecap: square"/>
    </g>
    <g id="text_15">
     <!-- $\mathdefault{0}$ -->
     <g transform="translate(72.456771 252.475773)scale(0.1 -0.1)">
      <use xlink:href="#CMR17-30" transform="scale(0.996264)"/>
     </g>
    </g>
   </g>
   <g id="xtick_13">
    <g id="line2d_16">
     <path d="M 94.188882 214.742561 
L 89.293059 214.795183 
" style="fill: none; stroke: #000000; stroke-width: 0.8; stroke-linecap: square"/>
    </g>
    <g id="text_16">
     <!-- $\mathdefault{1}$ -->
     <g transform="translate(72.456771 221.504755)scale(0.1 -0.1)">
      <use xlink:href="#CMR17-31" transform="scale(0.996264)"/>
     </g>
    </g>
   </g>
   <g id="xtick_14">
    <g id="line2d_17">
     <path d="M 94.188882 183.66734 
L 89.293059 183.684881 
" style="fill: none; stroke: #000000; stroke-width: 0.8; stroke-linecap: square"/>
    </g>
    <g id="text_17">
     <!-- $\mathdefault{2}$ -->
     <g transform="translate(72.456771 190.533737)scale(0.1 -0.1)">
      <use xlink:href="#CMR17-32" transform="scale(0.996264)"/>
     </g>
    </g>
   </g>
   <g id="xtick_15">
    <g id="line2d_18">
     <path d="M 94.188882 152.592119 
L 89.293059 152.574579 
" style="fill: none; stroke: #000000; stroke-width: 0.8; stroke-linecap: square"/>
    </g>
    <g id="text_18">
     <!-- $\mathdefault{3}$ -->
     <g transform="translate(72.456771 159.562719)scale(0.1 -0.1)">
      <use xlink:href="#CMR17-33" transform="scale(0.996264)"/>
     </g>
    </g>
   </g>
   <g id="xtick_16">
    <g id="line2d_19">
     <path d="M 94.188882 121.516899 
L 89.293059 121.464276 
" style="fill: none; stroke: #000000; stroke-width: 0.8; stroke-linecap: square"/>
    </g>
    <g id="text_19">
     <!-- $\mathdefault{4}$ -->
     <g transform="translate(72.456771 128.591701)scale(0.1 -0.1)">
      <use xlink:href="#CMR17-34" transform="scale(0.996264)"/>
     </g>
    </g>
   </g>
   <g id="xtick_17">
    <g id="line2d_20">
     <path d="M 94.188882 90.441678 
L 89.293059 90.353974 
" style="fill: none; stroke: #000000; stroke-width: 0.8; stroke-linecap: square"/>
    </g>
    <g id="text_20">
     <!-- $\mathdefault{5}$ -->
     <g transform="translate(72.456771 97.620683)scale(0.1 -0.1)">
      <use xlink:href="#CMR17-35" transform="scale(0.996264)"/>
     </g>
    </g>
   </g>
  </g>
  <g id="axes_1">
   <g id="line2d_21">
    <path d="M 330.375278 246.372969 
L 321.128956 86.652175 
" clip-path="url(#p7c95f73499)" style="fill: none; stroke: #ff0000; stroke-width: 1.5; stroke-linecap: square"/>
   </g>
   <g id="line2d_22">
    <path d="M 330.375278 246.372969 
L 237.153605 121.288495 
" clip-path="url(#p7c95f73499)" style="fill: none; stroke: #00ff00; stroke-width: 1.5; stroke-linecap: square"/>
   </g>
   <g id="line2d_23">
    <path d="M 330.375278 246.372969 
L 239.580471 -1 
" clip-path="url(#p7c95f73499)" style="fill: none; stroke: #0016ff; stroke-width: 1.5; stroke-linecap: square"/>
   </g>
   <g id="line2d_24">
    <path d="M 330.375278 246.372969 
L 112.489316 152.245709 
" clip-path="url(#p7c95f73499)" style="fill: none; stroke: #f400ff; stroke-width: 1.5; stroke-linecap: square"/>
   </g>
   <g id="Poly3DCollection_1">
    <path d="M 285.376299 354.242918 
L 267.380182 313.928205 
L 271.613142 303.372261 
L 289.678654 343.929467 
z
" clip-path="url(#p7c95f73499)" style="fill: #0000f5; fill-opacity: 0.1"/>
    <path d="M 267.380182 313.928205 
L 249.227137 273.261946 
L 253.389322 262.459655 
L 271.613142 303.372261 
z
" clip-path="url(#p7c95f73499)" style="fill: #0000f5; fill-opacity: 0.1"/>
    <path d="M 289.678654 343.929467 
L 271.613142 303.372261 
L 275.88778 292.712381 
L 294.023186 333.514911 
z
" clip-path="url(#p7c95f73499)" style="fill: #0000f5; fill-opacity: 0.1"/>
    <path d="M 249.227137 273.261946 
L 230.915105 232.239523 
L 235.005106 221.186956 
L 253.389322 262.459655 
z
" clip-path="url(#p7c95f73499)" style="fill: #0000f5; fill-opacity: 0.1"/>
    <path d="M 271.613142 303.372261 
L 253.389322 262.459655 
L 257.59267 251.550533 
L 275.88778 292.712381 
z
" clip-path="url(#p7c95f73499)" style="fill: #0000f5; fill-opacity: 0.1"/>
    <path d="M 294.023186 333.514911 
L 275.88778 292.712381 
L 280.204716 281.947022 
L 298.410518 322.997755 
z
" clip-path="url(#p7c95f73499)" style="fill: #0000f5; fill-opacity: 0.1"/>
    <path d="M 230.915105 232.239523 
L 212.441986 190.856238 
L 216.458366 179.54939 
L 235.005106 221.186956 
z
" clip-path="url(#p7c95f73499)" style="fill: #0000f5; fill-opacity: 0.1"/>
    <path d="M 253.389322 262.459655 
L 235.005106 221.186956 
L 239.135735 210.0246 
L 257.59267 251.550533 
z
" clip-path="url(#p7c95f73499)" style="fill: #0000f5; fill-opacity: 0.1"/>
    <path d="M 275.88778 292.712381 
L 257.59267 251.550533 
L 261.837793 240.532988 
L 280.204716 281.947022 
z
" clip-path="url(#p7c95f73499)" style="fill: #0000f5; fill-opacity: 0.1"/>
    <path d="M 298.410518 322.997755 
L 280.204716 281.947022 
L 284.564581 271.07461 
L 302.841286 312.376475 
z
" clip-path="url(#p7c95f73499)" style="fill: #0000f5; fill-opacity: 0.1"/>
    <path d="M 212.441986 190.856238 
L 193.805647 149.107306 
L 197.746938 137.542098 
L 216.458366 179.54939 
z
" clip-path="url(#p7c95f73499)" style="fill: #0000f5; fill-opacity: 0.1"/>
    <path d="M 235.005106 221.186956 
L 216.458366 179.54939 
L 220.51482 168.12973 
L 239.135735 210.0246 
z
" clip-path="url(#p7c95f73499)" style="fill: #0000f5; fill-opacity: 0.1"/>
    <path d="M 257.59267 251.550533 
L 239.135735 210.0246 
L 243.3076 198.750811 
L 261.837793 240.532988 
z
" clip-path="url(#p7c95f73499)" style="fill: #0000f5; fill-opacity: 0.1"/>
    <path d="M 280.204716 281.947022 
L 261.837793 240.532988 
L 266.125318 229.405396 
L 284.564581 271.07461 
z
" clip-path="url(#p7c95f73499)" style="fill: #0000f5; fill-opacity: 0.1"/>
    <path d="M 302.841286 312.376475 
L 284.564581 271.07461 
L 288.968017 260.093541 
L 307.316138 301.649519 
z
" clip-path="url(#p7c95f73499)" style="fill: #0000f5; fill-opacity: 0.1"/>
    <path d="M 193.805647 149.107306 
L 175.003913 106.98786 
L 178.868618 95.160131 
L 197.746938 137.542098 
z
" clip-path="url(#p7c95f73499)" style="fill: #0000f5; fill-opacity: 0.1"/>
    <path d="M 216.458366 179.54939 
L 197.746938 137.542098 
L 201.727729 125.860983 
L 220.51482 168.12973 
z
" clip-path="url(#p7c95f73499)" style="fill: #0000f5; fill-opacity: 0.1"/>
    <path d="M 239.135735 210.0246 
L 220.51482 168.12973 
L 224.611949 156.595559 
L 243.3076 198.750811 
z
" clip-path="url(#p7c95f73499)" style="fill: #0000f5; fill-opacity: 0.1"/>
    <path d="M 261.837793 240.532988 
L 243.3076 198.750811 
L 247.521321 187.363912 
L 266.125318 229.405396 
z
" clip-path="url(#p7c95f73499)" style="fill: #0000f5; fill-opacity: 0.1"/>
    <path d="M 284.564581 271.07461 
L 266.125318 229.405396 
L 270.455884 218.1661 
L 288.968017 260.093541 
z
" clip-path="url(#p7c95f73499)" style="fill: #0000f5; fill-opacity: 0.1"/>
    <path d="M 307.316138 301.649519 
L 288.968017 260.093541 
L 293.415681 249.002178 
L 311.835736 290.8153 
z
" clip-path="url(#p7c95f73499)" style="fill: #0000f5; fill-opacity: 0.1"/>
    <path d="M 175.003913 106.98786 
L 156.034574 64.492947 
L 159.821162 52.398456 
L 178.868618 95.160131 
z
" clip-path="url(#p7c95f73499)" style="fill: #0000f5; fill-opacity: 0.1"/>
    <path d="M 197.746938 137.542098 
L 178.868618 95.160131 
L 182.772227 83.213334 
L 201.727729 125.860983 
z
" clip-path="url(#p7c95f73499)" style="fill: #0000f5; fill-opacity: 0.1"/>
    <path d="M 220.51482 168.12973 
L 201.727729 125.860983 
L 205.748616 114.062212 
L 224.611949 156.595559 
z
" clip-path="url(#p7c95f73499)" style="fill: #0000f5; fill-opacity: 0.1"/>
    <path d="M 243.3076 198.750811 
L 224.611949 156.595559 
L 228.75037 144.945146 
L 247.521321 187.363912 
z
" clip-path="url(#p7c95f73499)" style="fill: #0000f5; fill-opacity: 0.1"/>
    <path d="M 266.125318 229.405396 
L 247.521321 187.363912 
L 251.777531 175.862193 
L 270.455884 218.1661 
z
" clip-path="url(#p7c95f73499)" style="fill: #0000f5; fill-opacity: 0.1"/>
    <path d="M 288.968017 260.093541 
L 270.455884 218.1661 
L 274.830141 206.813409 
L 293.415681 249.002178 
z
" clip-path="url(#p7c95f73499)" style="fill: #0000f5; fill-opacity: 0.1"/>
    <path d="M 311.835736 290.8153 
L 293.415681 249.002178 
L 297.908243 237.798851 
L 316.400754 279.872202 
z
" clip-path="url(#p7c95f73499)" style="fill: #0000f5; fill-opacity: 0.1"/>
    <path d="M 156.034574 64.492947 
L 136.895379 21.617522 
L 140.602289 9.251947 
L 159.821162 52.398456 
z
" clip-path="url(#p7c95f73499)" style="fill: #0000f5; fill-opacity: 0.1"/>
    <path d="M 178.868618 95.160131 
L 159.821162 52.398456 
L 163.646041 40.181664 
L 182.772227 83.213334 
z
" clip-path="url(#p7c95f73499)" style="fill: #0000f5; fill-opacity: 0.1"/>
    <path d="M 201.727729 125.860983 
L 182.772227 83.213334 
L 186.715333 71.145661 
L 205.748616 114.062212 
z
" clip-path="url(#p7c95f73499)" style="fill: #0000f5; fill-opacity: 0.1"/>
    <path d="M 224.611949 156.595559 
L 205.748616 114.062212 
L 209.810208 102.143996 
L 228.75037 144.945146 
z
" clip-path="url(#p7c95f73499)" style="fill: #0000f5; fill-opacity: 0.1"/>
    <path d="M 247.521321 187.363912 
L 228.75037 144.945146 
L 232.930708 133.176725 
L 251.777531 175.862193 
z
" clip-path="url(#p7c95f73499)" style="fill: #0000f5; fill-opacity: 0.1"/>
    <path d="M 270.455884 218.1661 
L 251.777531 175.862193 
L 256.076876 164.243907 
L 274.830141 206.813409 
z
" clip-path="url(#p7c95f73499)" style="fill: #0000f5; fill-opacity: 0.1"/>
    <path d="M 293.415681 249.002178 
L 274.830141 206.813409 
L 279.248755 195.345597 
L 297.908243 237.798851 
z
" clip-path="url(#p7c95f73499)" style="fill: #0000f5; fill-opacity: 0.1"/>
    <path d="M 316.400754 279.872202 
L 297.908243 237.798851 
L 302.446387 226.481855 
L 321.011879 268.818575 
z
" clip-path="url(#p7c95f73499)" style="fill: #0000f5; fill-opacity: 0.1"/>
    <path d="M 136.895379 21.617522 
L 117.584035 -21.643547 
L 121.209674 -34.284616 
L 140.602289 9.251947 
z
" clip-path="url(#p7c95f73499)" style="fill: #0000f5; fill-opacity: 0.1"/>
    <path d="M 159.821162 52.398456 
L 140.602289 9.251947 
L 144.346854 -3.239238 
L 163.646041 40.181664 
z
" clip-path="url(#p7c95f73499)" style="fill: #0000f5; fill-opacity: 0.1"/>
    <path d="M 182.772227 83.213334 
L 163.646041 40.181664 
L 167.509795 27.840704 
L 186.715333 71.145661 
z
" clip-path="url(#p7c95f73499)" style="fill: #0000f5; fill-opacity: 0.1"/>
    <path d="M 205.748616 114.062212 
L 186.715333 71.145661 
L 190.698538 58.955269 
L 209.810208 102.143996 
z
" clip-path="url(#p7c95f73499)" style="fill: #0000f5; fill-opacity: 0.1"/>
    <path d="M 228.75037 144.945146 
L 209.810208 102.143996 
L 213.913127 90.104513 
L 232.930708 133.176725 
z
" clip-path="url(#p7c95f73499)" style="fill: #0000f5; fill-opacity: 0.1"/>
    <path d="M 251.777531 175.862193 
L 232.930708 133.176725 
L 237.153605 121.288495 
L 256.076876 164.243907 
z
" clip-path="url(#p7c95f73499)" style="fill: #0000f5; fill-opacity: 0.1"/>
    <path d="M 274.830141 206.813409 
L 256.076876 164.243907 
L 260.420016 152.507274 
L 279.248755 195.345597 
z
" clip-path="url(#p7c95f73499)" style="fill: #0000f5; fill-opacity: 0.1"/>
    <path d="M 297.908243 237.798851 
L 279.248755 195.345597 
L 283.712403 183.760907 
L 302.446387 226.481855 
z
" clip-path="url(#p7c95f73499)" style="fill: #0000f5; fill-opacity: 0.1"/>
    <path d="M 321.011879 268.818575 
L 302.446387 226.481855 
L 307.030809 215.049452 
L 325.669816 257.652737 
z
" clip-path="url(#p7c95f73499)" style="fill: #0000f5; fill-opacity: 0.1"/>
    <path d="M 140.602289 9.251947 
L 121.209674 -34.284616 
L 124.872309 -47.054676 
L 144.346854 -3.239238 
z
" clip-path="url(#p7c95f73499)" style="fill: #0000f5; fill-opacity: 0.1"/>
    <path d="M 163.646041 40.181664 
L 144.346854 -3.239238 
L 148.129651 -15.857955 
L 167.509795 27.840704 
z
" clip-path="url(#p7c95f73499)" style="fill: #0000f5; fill-opacity: 0.1"/>
    <path d="M 186.715333 71.145661 
L 167.509795 27.840704 
L 171.413019 15.373676 
L 190.698538 58.955269 
z
" clip-path="url(#p7c95f73499)" style="fill: #0000f5; fill-opacity: 0.1"/>
    <path d="M 209.810208 102.143996 
L 190.698538 58.955269 
L 194.722456 46.640275 
L 213.913127 90.104513 
z
" clip-path="url(#p7c95f73499)" style="fill: #0000f5; fill-opacity: 0.1"/>
    <path d="M 232.930708 133.176725 
L 213.913127 90.104513 
L 218.058006 77.941903 
L 237.153605 121.288495 
z
" clip-path="url(#p7c95f73499)" style="fill: #0000f5; fill-opacity: 0.1"/>
    <path d="M 256.076876 164.243907 
L 237.153605 121.288495 
L 241.419714 109.278616 
L 260.420016 152.507274 
z
" clip-path="url(#p7c95f73499)" style="fill: #0000f5; fill-opacity: 0.1"/>
    <path d="M 279.248755 195.345597 
L 260.420016 152.507274 
L 264.807623 140.650476 
L 283.712403 183.760907 
z
" clip-path="url(#p7c95f73499)" style="fill: #0000f5; fill-opacity: 0.1"/>
    <path d="M 302.446387 226.481855 
L 283.712403 183.760907 
L 288.221777 172.05754 
L 307.030809 215.049452 
z
" clip-path="url(#p7c95f73499)" style="fill: #0000f5; fill-opacity: 0.1"/>
    <path d="M 325.669816 257.652737 
L 307.030809 215.049452 
L 311.662221 203.499868 
L 330.375278 246.372969 
z
" clip-path="url(#p7c95f73499)" style="fill: #0000f5; fill-opacity: 0.1"/>
    <path d="M 144.346854 -3.239238 
L 124.872309 -47.054676 
L 128.57251 -59.955711 
L 148.129651 -15.857955 
z
" clip-path="url(#p7c95f73499)" style="fill: #0000f5; fill-opacity: 0.1"/>
    <path d="M 167.509795 27.840704 
L 148.129651 -15.857955 
L 151.951267 -28.606168 
L 171.413019 15.373676 
z
" clip-path="url(#p7c95f73499)" style="fill: #0000f5; fill-opacity: 0.1"/>
    <path d="M 190.698538 58.955269 
L 171.413019 15.373676 
L 175.356321 2.778636 
L 194.722456 46.640275 
z
" clip-path="url(#p7c95f73499)" style="fill: #0000f5; fill-opacity: 0.1"/>
    <path d="M 213.913127 90.104513 
L 194.722456 46.640275 
L 198.787714 34.198761 
L 218.058006 77.941903 
z
" clip-path="url(#p7c95f73499)" style="fill: #0000f5; fill-opacity: 0.1"/>
    <path d="M 237.153605 121.288495 
L 218.058006 77.941903 
L 222.245493 65.654266 
L 241.419714 109.278616 
z
" clip-path="url(#p7c95f73499)" style="fill: #0000f5; fill-opacity: 0.1"/>
    <path d="M 260.420016 152.507274 
L 241.419714 109.278616 
L 245.729701 97.145212 
L 264.807623 140.650476 
z
" clip-path="url(#p7c95f73499)" style="fill: #0000f5; fill-opacity: 0.1"/>
    <path d="M 283.712403 183.760907 
L 264.807623 140.650476 
L 269.240383 128.671658 
L 288.221777 172.05754 
z
" clip-path="url(#p7c95f73499)" style="fill: #0000f5; fill-opacity: 0.1"/>
    <path d="M 307.030809 215.049452 
L 288.221777 172.05754 
L 292.777585 160.233665 
L 311.662221 203.499868 
z
" clip-path="url(#p7c95f73499)" style="fill: #0000f5; fill-opacity: 0.1"/>
    <path d="M 330.375278 246.372969 
L 311.662221 203.499868 
L 316.34135 191.831292 
L 335.128999 234.97752 
z
" clip-path="url(#p7c95f73499)" style="fill: #0000f5; fill-opacity: 0.1"/>
    <path d="M 148.129651 -15.857955 
L 128.57251 -59.955711 
L 132.310857 -72.989747 
L 151.951267 -28.606168 
z
" clip-path="url(#p7c95f73499)" style="fill: #0000f5; fill-opacity: 0.1"/>
    <path d="M 171.413019 15.373676 
L 151.951267 -28.606168 
L 155.812304 -41.485881 
L 175.356321 2.778636 
z
" clip-path="url(#p7c95f73499)" style="fill: #0000f5; fill-opacity: 0.1"/>
    <path d="M 194.722456 46.640275 
L 175.356321 2.778636 
L 179.340321 -9.946397 
L 198.787714 34.198761 
z
" clip-path="url(#p7c95f73499)" style="fill: #0000f5; fill-opacity: 0.1"/>
    <path d="M 218.058006 77.941903 
L 198.787714 34.198761 
L 202.894954 21.628765 
L 222.245493 65.654266 
z
" clip-path="url(#p7c95f73499)" style="fill: #0000f5; fill-opacity: 0.1"/>
    <path d="M 241.419714 109.278616 
L 222.245493 65.654266 
L 226.476248 53.239666 
L 245.729701 97.145212 
z
" clip-path="url(#p7c95f73499)" style="fill: #0000f5; fill-opacity: 0.1"/>
    <path d="M 264.807623 140.650476 
L 245.729701 97.145212 
L 250.084247 84.886367 
L 269.240383 128.671658 
z
" clip-path="url(#p7c95f73499)" style="fill: #0000f5; fill-opacity: 0.1"/>
    <path d="M 288.221777 172.05754 
L 269.240383 128.671658 
L 273.718998 116.568928 
L 292.777585 160.233665 
z
" clip-path="url(#p7c95f73499)" style="fill: #0000f5; fill-opacity: 0.1"/>
    <path d="M 311.662221 203.499868 
L 292.777585 160.233665 
L 297.380545 148.28741 
L 316.34135 191.831292 
z
" clip-path="url(#p7c95f73499)" style="fill: #0000f5; fill-opacity: 0.1"/>
    <path d="M 335.128999 234.97752 
L 316.34135 191.831292 
L 321.068935 180.041875 
L 339.931723 223.4646 
z
" clip-path="url(#p7c95f73499)" style="fill: #0000f5; fill-opacity: 0.1"/>
    <path d="M 151.951267 -28.606168 
L 132.310857 -72.989747 
L 136.087943 -86.158851 
L 155.812304 -41.485881 
z
" clip-path="url(#p7c95f73499)" style="fill: #0000f5; fill-opacity: 0.1"/>
    <path d="M 175.356321 2.778636 
L 155.812304 -41.485881 
L 159.713374 -54.499138 
L 179.340321 -9.946397 
z
" clip-path="url(#p7c95f73499)" style="fill: #0000f5; fill-opacity: 0.1"/>
    <path d="M 198.787714 34.198761 
L 179.340321 -9.946397 
L 183.365654 -22.803446 
L 202.894954 21.628765 
z
" clip-path="url(#p7c95f73499)" style="fill: #0000f5; fill-opacity: 0.1"/>
    <path d="M 222.245493 65.654266 
L 202.894954 21.628765 
L 207.044828 8.928288 
L 226.476248 53.239666 
z
" clip-path="url(#p7c95f73499)" style="fill: #0000f5; fill-opacity: 0.1"/>
    <path d="M 245.729701 97.145212 
L 226.476248 53.239666 
L 230.750944 40.696124 
L 250.084247 84.886367 
z
" clip-path="url(#p7c95f73499)" style="fill: #0000f5; fill-opacity: 0.1"/>
    <path d="M 269.240383 128.671658 
L 250.084247 84.886367 
L 254.484046 72.500125 
L 273.718998 116.568928 
z
" clip-path="url(#p7c95f73499)" style="fill: #0000f5; fill-opacity: 0.1"/>
    <path d="M 292.777585 160.233665 
L 273.718998 116.568928 
L 278.244181 104.340351 
L 297.380545 148.28741 
z
" clip-path="url(#p7c95f73499)" style="fill: #0000f5; fill-opacity: 0.1"/>
    <path d="M 316.34135 191.831292 
L 297.380545 148.28741 
L 302.031396 136.216865 
L 321.068935 180.041875 
z
" clip-path="url(#p7c95f73499)" style="fill: #0000f5; fill-opacity: 0.1"/>
    <path d="M 339.931723 223.4646 
L 321.068935 180.041875 
L 325.845735 168.12973 
L 344.784214 211.832383 
z
" clip-path="url(#p7c95f73499)" style="fill: #0000f5; fill-opacity: 0.1"/>
    <path d="M 155.812304 -41.485881 
L 136.087943 -86.158851 
L 139.904375 -99.465134 
L 159.713374 -54.499138 
z
" clip-path="url(#p7c95f73499)" style="fill: #0000f5; fill-opacity: 0.1"/>
    <path d="M 179.340321 -9.946397 
L 159.713374 -54.499138 
L 163.655104 -67.648028 
L 183.365654 -22.803446 
z
" clip-path="url(#p7c95f73499)" style="fill: #0000f5; fill-opacity: 0.1"/>
    <path d="M 202.894954 21.628765 
L 183.365654 -22.803446 
L 187.432965 -35.794575 
L 207.044828 8.928288 
z
" clip-path="url(#p7c95f73499)" style="fill: #0000f5; fill-opacity: 0.1"/>
    <path d="M 226.476248 53.239666 
L 207.044828 8.928288 
L 211.238005 -3.904713 
L 230.750944 40.696124 
z
" clip-path="url(#p7c95f73499)" style="fill: #0000f5; fill-opacity: 0.1"/>
    <path d="M 250.084247 84.886367 
L 230.750944 40.696124 
L 235.07027 28.021621 
L 254.484046 72.500125 
z
" clip-path="url(#p7c95f73499)" style="fill: #0000f5; fill-opacity: 0.1"/>
    <path d="M 273.718998 116.568928 
L 254.484046 72.500125 
L 258.929808 59.98449 
L 278.244181 104.340351 
z
" clip-path="url(#p7c95f73499)" style="fill: #0000f5; fill-opacity: 0.1"/>
    <path d="M 297.380545 148.28741 
L 278.244181 104.340351 
L 282.816664 91.983956 
L 302.031396 136.216865 
z
" clip-path="url(#p7c95f73499)" style="fill: #0000f5; fill-opacity: 0.1"/>
    <path d="M 321.068935 180.041875 
L 302.031396 136.216865 
L 306.730887 124.020082 
L 325.845735 168.12973 
z
" clip-path="url(#p7c95f73499)" style="fill: #0000f5; fill-opacity: 0.1"/>
    <path d="M 344.784214 211.832383 
L 325.845735 168.12973 
L 330.672522 156.092931 
L 349.687247 200.079006 
z
" clip-path="url(#p7c95f73499)" style="fill: #0000f5; fill-opacity: 0.1"/>
    <path d="M 159.713374 -54.499138 
L 139.904375 -99.465134 
L 143.760769 -112.91075 
L 163.655104 -67.648028 
z
" clip-path="url(#p7c95f73499)" style="fill: #0000f5; fill-opacity: 0.1"/>
    <path d="M 183.365654 -22.803446 
L 163.655104 -67.648028 
L 167.638132 -80.934682 
L 187.432965 -35.794575 
z
" clip-path="url(#p7c95f73499)" style="fill: #0000f5; fill-opacity: 0.1"/>
    <path d="M 207.044828 8.928288 
L 187.432965 -35.794575 
L 191.542915 -48.921894 
L 211.238005 -3.904713 
z
" clip-path="url(#p7c95f73499)" style="fill: #0000f5; fill-opacity: 0.1"/>
    <path d="M 230.750944 40.696124 
L 211.238005 -3.904713 
L 215.475165 -16.872323 
L 235.07027 28.021621 
z
" clip-path="url(#p7c95f73499)" style="fill: #0000f5; fill-opacity: 0.1"/>
    <path d="M 254.484046 72.500125 
L 235.07027 28.021621 
L 239.434929 15.214096 
L 258.929808 59.98449 
z
" clip-path="url(#p7c95f73499)" style="fill: #0000f5; fill-opacity: 0.1"/>
    <path d="M 278.244181 104.340351 
L 258.929808 59.98449 
L 263.422256 47.337424 
L 282.816664 91.983956 
z
" clip-path="url(#p7c95f73499)" style="fill: #0000f5; fill-opacity: 0.1"/>
    <path d="M 302.031396 136.216865 
L 282.816664 91.983956 
L 287.437192 79.497727 
L 306.730887 124.020082 
z
" clip-path="url(#p7c95f73499)" style="fill: #0000f5; fill-opacity: 0.1"/>
    <path d="M 325.845735 168.12973 
L 306.730887 124.020082 
L 311.479785 111.695068 
L 330.672522 156.092931 
z
" clip-path="url(#p7c95f73499)" style="fill: #0000f5; fill-opacity: 0.1"/>
    <path d="M 349.687247 200.079006 
L 330.672522 156.092931 
L 335.550084 143.929511 
L 354.641617 188.202566 
z
" clip-path="url(#p7c95f73499)" style="fill: #0000f5; fill-opacity: 0.1"/>
    <path d="M 163.655104 -67.648028 
L 143.760769 -112.91075 
L 147.657757 -126.497898 
L 167.638132 -80.934682 
z
" clip-path="url(#p7c95f73499)" style="fill: #0000f5; fill-opacity: 0.1"/>
    <path d="M 187.432965 -35.794575 
L 167.638132 -80.934682 
L 171.663111 -94.361276 
L 191.542915 -48.921894 
z
" clip-path="url(#p7c95f73499)" style="fill: #0000f5; fill-opacity: 0.1"/>
    <path d="M 211.238005 -3.904713 
L 191.542915 -48.921894 
L 195.696177 -62.187555 
L 215.475165 -16.872323 
z
" clip-path="url(#p7c95f73499)" style="fill: #0000f5; fill-opacity: 0.1"/>
    <path d="M 235.07027 28.021621 
L 215.475165 -16.872323 
L 219.757004 -29.97667 
L 239.434929 15.214096 
z
" clip-path="url(#p7c95f73499)" style="fill: #0000f5; fill-opacity: 0.1"/>
    <path d="M 258.929808 59.98449 
L 239.434929 15.214096 
L 243.845639 2.271442 
L 263.422256 47.337424 
z
" clip-path="url(#p7c95f73499)" style="fill: #0000f5; fill-opacity: 0.1"/>
    <path d="M 282.816664 91.983956 
L 263.422256 47.337424 
L 267.96213 34.556846 
L 287.437192 79.497727 
z
" clip-path="url(#p7c95f73499)" style="fill: #0000f5; fill-opacity: 0.1"/>
    <path d="M 306.730887 124.020082 
L 287.437192 79.497727 
L 292.106526 66.879608 
L 311.479785 111.695068 
z
" clip-path="url(#p7c95f73499)" style="fill: #0000f5; fill-opacity: 0.1"/>
    <path d="M 330.672522 156.092931 
L 311.479785 111.695068 
L 316.278875 99.239791 
L 335.550084 143.929511 
z
" clip-path="url(#p7c95f73499)" style="fill: #0000f5; fill-opacity: 0.1"/>
    <path d="M 354.641617 188.202566 
L 335.550084 143.929511 
L 340.479226 131.637461 
L 359.648135 176.20112 
z
" clip-path="url(#p7c95f73499)" style="fill: #0000f5; fill-opacity: 0.1"/>
    <path d="M 167.638132 -80.934682 
L 147.657757 -126.497898 
L 151.595983 -140.228827 
L 171.663111 -94.361276 
z
" clip-path="url(#p7c95f73499)" style="fill: #0000f5; fill-opacity: 0.1"/>
    <path d="M 191.542915 -48.921894 
L 171.663111 -94.361276 
L 175.730707 -107.930034 
L 195.696177 -62.187555 
z
" clip-path="url(#p7c95f73499)" style="fill: #0000f5; fill-opacity: 0.1"/>
    <path d="M 215.475165 -16.872323 
L 195.696177 -62.187555 
L 199.893441 -75.593757 
L 219.757004 -29.97667 
z
" clip-path="url(#p7c95f73499)" style="fill: #0000f5; fill-opacity: 0.1"/>
    <path d="M 239.434929 15.214096 
L 219.757004 -29.97667 
L 224.084232 -43.219931 
L 243.845639 2.271442 
z
" clip-path="url(#p7c95f73499)" style="fill: #0000f5; fill-opacity: 0.1"/>
    <path d="M 263.422256 47.337424 
L 243.845639 2.271442 
L 248.30313 -10.80849 
L 267.96213 34.556846 
z
" clip-path="url(#p7c95f73499)" style="fill: #0000f5; fill-opacity: 0.1"/>
    <path d="M 287.437192 79.497727 
L 267.96213 34.556846 
L 272.550184 21.640631 
L 292.106526 66.879608 
z
" clip-path="url(#p7c95f73499)" style="fill: #0000f5; fill-opacity: 0.1"/>
    <path d="M 311.479785 111.695068 
L 292.106526 66.879608 
L 296.825443 54.127497 
L 316.278875 99.239791 
z
" clip-path="url(#p7c95f73499)" style="fill: #0000f5; fill-opacity: 0.1"/>
    <path d="M 335.550084 143.929511 
L 316.278875 99.239791 
L 321.128956 86.652175 
L 340.479226 131.637461 
z
" clip-path="url(#p7c95f73499)" style="fill: #0000f5; fill-opacity: 0.1"/>
    <path d="M 359.648135 176.20112 
L 340.479226 131.637461 
L 345.460773 119.214731 
L 364.707628 164.072683 
z
" clip-path="url(#p7c95f73499)" style="fill: #0000f5; fill-opacity: 0.1"/>
    <path d="M 171.663111 -94.361276 
L 151.595983 -140.228827 
L 155.576105 -154.10583 
L 175.730707 -107.930034 
z
" clip-path="url(#p7c95f73499)" style="fill: #0000f5; fill-opacity: 0.1"/>
    <path d="M 195.696177 -62.187555 
L 175.730707 -107.930034 
L 179.841601 -121.643224 
L 199.893441 -75.593757 
z
" clip-path="url(#p7c95f73499)" style="fill: #0000f5; fill-opacity: 0.1"/>
    <path d="M 219.757004 -29.97667 
L 199.893441 -75.593757 
L 204.135408 -89.142744 
L 224.084232 -43.219931 
z
" clip-path="url(#p7c95f73499)" style="fill: #0000f5; fill-opacity: 0.1"/>
    <path d="M 243.845639 2.271442 
L 224.084232 -43.219931 
L 228.457576 -56.604323 
L 248.30313 -10.80849 
z
" clip-path="url(#p7c95f73499)" style="fill: #0000f5; fill-opacity: 0.1"/>
    <path d="M 267.96213 34.556846 
L 248.30313 -10.80849 
L 252.808153 -24.027895 
L 272.550184 21.640631 
z
" clip-path="url(#p7c95f73499)" style="fill: #0000f5; fill-opacity: 0.1"/>
    <path d="M 292.106526 66.879608 
L 272.550184 21.640631 
L 277.187191 8.586607 
L 296.825443 54.127497 
z
" clip-path="url(#p7c95f73499)" style="fill: #0000f5; fill-opacity: 0.1"/>
    <path d="M 316.278875 99.239791 
L 296.825443 54.127497 
L 301.594738 41.239249 
L 321.128956 86.652175 
z
" clip-path="url(#p7c95f73499)" style="fill: #0000f5; fill-opacity: 0.1"/>
    <path d="M 340.479226 131.637461 
L 321.128956 86.652175 
L 326.030845 73.930099 
L 345.460773 119.214731 
z
" clip-path="url(#p7c95f73499)" style="fill: #0000f5; fill-opacity: 0.1"/>
    <path d="M 364.707628 164.072683 
L 345.460773 119.214731 
L 350.495562 106.659224 
L 369.820942 151.81523 
z
" clip-path="url(#p7c95f73499)" style="fill: #0000f5; fill-opacity: 0.1"/>
    <path d="M 175.730707 -107.930034 
L 155.576105 -154.10583 
L 159.598795 -168.13125 
L 179.841601 -121.643224 
z
" clip-path="url(#p7c95f73499)" style="fill: #0000f5; fill-opacity: 0.1"/>
    <path d="M 199.893441 -75.593757 
L 179.841601 -121.643224 
L 183.996488 -135.503166 
L 204.135408 -89.142744 
z
" clip-path="url(#p7c95f73499)" style="fill: #0000f5; fill-opacity: 0.1"/>
    <path d="M 224.084232 -43.219931 
L 204.135408 -89.142744 
L 208.422798 -102.836811 
L 228.457576 -56.604323 
z
" clip-path="url(#p7c95f73499)" style="fill: #0000f5; fill-opacity: 0.1"/>
    <path d="M 248.30313 -10.80849 
L 228.457576 -56.604323 
L 232.877776 -70.132117 
L 252.808153 -24.027895 
z
" clip-path="url(#p7c95f73499)" style="fill: #0000f5; fill-opacity: 0.1"/>
    <path d="M 272.550184 21.640631 
L 252.808153 -24.027895 
L 257.361472 -37.389017 
L 277.187191 8.586607 
z
" clip-path="url(#p7c95f73499)" style="fill: #0000f5; fill-opacity: 0.1"/>
    <path d="M 296.825443 54.127497 
L 277.187191 8.586607 
L 281.873937 -4.607443 
L 301.594738 41.239249 
z
" clip-path="url(#p7c95f73499)" style="fill: #0000f5; fill-opacity: 0.1"/>
    <path d="M 321.128956 86.652175 
L 301.594738 41.239249 
L 306.415221 28.212673 
L 326.030845 73.930099 
z
" clip-path="url(#p7c95f73499)" style="fill: #0000f5; fill-opacity: 0.1"/>
    <path d="M 345.460773 119.214731 
L 326.030845 73.930099 
L 330.985377 61.071398 
L 350.495562 106.659224 
z
" clip-path="url(#p7c95f73499)" style="fill: #0000f5; fill-opacity: 0.1"/>
    <path d="M 369.820942 151.81523 
L 350.495562 106.659224 
L 355.584453 93.968802 
L 374.988939 139.426691 
z
" clip-path="url(#p7c95f73499)" style="fill: #0000f5; fill-opacity: 0.1"/>
    <path d="M 179.841601 -121.643224 
L 159.598795 -168.13125 
L 163.66474 -182.307482 
L 183.996488 -135.503166 
z
" clip-path="url(#p7c95f73499)" style="fill: #0000f5; fill-opacity: 0.1"/>
    <path d="M 204.135408 -89.142744 
L 183.996488 -135.503166 
L 188.196077 -149.512228 
L 208.422798 -102.836811 
z
" clip-path="url(#p7c95f73499)" style="fill: #0000f5; fill-opacity: 0.1"/>
    <path d="M 228.457576 -56.604323 
L 208.422798 -102.836811 
L 212.756343 -116.6783 
L 232.877776 -70.132117 
z
" clip-path="url(#p7c95f73499)" style="fill: #0000f5; fill-opacity: 0.1"/>
    <path d="M 252.808153 -24.027895 
L 232.877776 -70.132117 
L 237.345589 -83.805629 
L 257.361472 -37.389017 
z
" clip-path="url(#p7c95f73499)" style="fill: #0000f5; fill-opacity: 0.1"/>
    <path d="M 277.187191 8.586607 
L 257.361472 -37.389017 
L 261.963866 -50.894147 
L 281.873937 -4.607443 
z
" clip-path="url(#p7c95f73499)" style="fill: #0000f5; fill-opacity: 0.1"/>
    <path d="M 301.594738 41.239249 
L 281.873937 -4.607443 
L 286.611227 -17.943784 
L 306.415221 28.212673 
z
" clip-path="url(#p7c95f73499)" style="fill: #0000f5; fill-opacity: 0.1"/>
    <path d="M 326.030845 73.930099 
L 306.415221 28.212673 
L 311.287722 15.045528 
L 330.985377 61.071398 
z
" clip-path="url(#p7c95f73499)" style="fill: #0000f5; fill-opacity: 0.1"/>
    <path d="M 350.495562 106.659224 
L 330.985377 61.071398 
L 335.993403 48.073859 
L 355.584453 93.968802 
z
" clip-path="url(#p7c95f73499)" style="fill: #0000f5; fill-opacity: 0.1"/>
    <path d="M 183.996488 -135.503166 
L 163.66474 -182.307482 
L 167.774642 -196.63697 
L 188.196077 -149.512228 
z
" clip-path="url(#p7c95f73499)" style="fill: #0000f5; fill-opacity: 0.1"/>
    <path d="M 208.422798 -102.836811 
L 188.196077 -149.512228 
L 192.441094 -163.672829 
L 212.756343 -116.6783 
z
" clip-path="url(#p7c95f73499)" style="fill: #0000f5; fill-opacity: 0.1"/>
    <path d="M 232.877776 -70.132117 
L 212.756343 -116.6783 
L 217.136792 -130.669604 
L 237.345589 -83.805629 
z
" clip-path="url(#p7c95f73499)" style="fill: #0000f5; fill-opacity: 0.1"/>
    <path d="M 257.361472 -37.389017 
L 237.345589 -83.805629 
L 241.861788 -97.627226 
L 261.963866 -50.894147 
z
" clip-path="url(#p7c95f73499)" style="fill: #0000f5; fill-opacity: 0.1"/>
    <path d="M 281.873937 -4.607443 
L 261.963866 -50.894147 
L 266.616134 -64.545624 
L 286.611227 -17.943784 
z
" clip-path="url(#p7c95f73499)" style="fill: #0000f5; fill-opacity: 0.1"/>
    <path d="M 306.415221 28.212673 
L 286.611227 -17.943784 
L 291.399883 -31.424729 
L 311.287722 15.045528 
z
" clip-path="url(#p7c95f73499)" style="fill: #0000f5; fill-opacity: 0.1"/>
    <path d="M 330.985377 61.071398 
L 311.287722 15.045528 
L 316.213086 1.735528 
L 335.993403 48.073859 
z
" clip-path="url(#p7c95f73499)" style="fill: #0000f5; fill-opacity: 0.1"/>
    <path d="M 188.196077 -149.512228 
L 167.774642 -196.63697 
L 171.929216 -211.122214 
L 192.441094 -163.672829 
z
" clip-path="url(#p7c95f73499)" style="fill: #0000f5; fill-opacity: 0.1"/>
    <path d="M 212.756343 -116.6783 
L 192.441094 -163.672829 
L 196.73228 -177.987442 
L 217.136792 -130.669604 
z
" clip-path="url(#p7c95f73499)" style="fill: #0000f5; fill-opacity: 0.1"/>
    <path d="M 237.345589 -83.805629 
L 217.136792 -130.669604 
L 221.564912 -144.81317 
L 241.861788 -97.627226 
z
" clip-path="url(#p7c95f73499)" style="fill: #0000f5; fill-opacity: 0.1"/>
    <path d="M 261.963866 -50.894147 
L 241.861788 -97.627226 
L 246.427165 -111.599327 
L 266.616134 -64.545624 
z
" clip-path="url(#p7c95f73499)" style="fill: #0000f5; fill-opacity: 0.1"/>
    <path d="M 286.611227 -17.943784 
L 266.616134 -64.545624 
L 271.319092 -78.345842 
L 291.399883 -31.424729 
z
" clip-path="url(#p7c95f73499)" style="fill: #0000f5; fill-opacity: 0.1"/>
    <path d="M 311.287722 15.045528 
L 291.399883 -31.424729 
L 296.240745 -45.052645 
L 316.213086 1.735528 
z
" clip-path="url(#p7c95f73499)" style="fill: #0000f5; fill-opacity: 0.1"/>
    <path d="M 192.441094 -163.672829 
L 171.929216 -211.122214 
L 176.129196 -225.765768 
L 196.73228 -177.987442 
z
" clip-path="url(#p7c95f73499)" style="fill: #0000f5; fill-opacity: 0.1"/>
    <path d="M 217.136792 -130.669604 
L 196.73228 -177.987442 
L 201.070393 -192.458593 
L 221.564912 -144.81317 
z
" clip-path="url(#p7c95f73499)" style="fill: #0000f5; fill-opacity: 0.1"/>
    <path d="M 241.861788 -97.627226 
L 221.564912 -144.81317 
L 226.041485 -159.111496 
L 246.427165 -111.599327 
z
" clip-path="url(#p7c95f73499)" style="fill: #0000f5; fill-opacity: 0.1"/>
    <path d="M 266.616134 -64.545624 
L 246.427165 -111.599327 
L 251.042527 -125.724404 
L 271.319092 -78.345842 
z
" clip-path="url(#p7c95f73499)" style="fill: #0000f5; fill-opacity: 0.1"/>
    <path d="M 291.399883 -31.424729 
L 271.319092 -78.345842 
L 276.073571 -92.297245 
L 296.240745 -45.052645 
z
" clip-path="url(#p7c95f73499)" style="fill: #0000f5; fill-opacity: 0.1"/>
    <path d="M 196.73228 -177.987442 
L 176.129196 -225.765768 
L 180.375329 -240.57024 
L 201.070393 -192.458593 
z
" clip-path="url(#p7c95f73499)" style="fill: #0000f5; fill-opacity: 0.1"/>
    <path d="M 221.564912 -144.81317 
L 201.070393 -192.458593 
L 205.456206 -207.088864 
L 226.041485 -159.111496 
z
" clip-path="url(#p7c95f73499)" style="fill: #0000f5; fill-opacity: 0.1"/>
    <path d="M 246.427165 -111.599327 
L 226.041485 -159.111496 
L 230.567311 -173.567136 
L 251.042527 -125.724404 
z
" clip-path="url(#p7c95f73499)" style="fill: #0000f5; fill-opacity: 0.1"/>
    <path d="M 271.319092 -78.345842 
L 251.042527 -125.724404 
L 255.708698 -140.004982 
L 276.073571 -92.297245 
z
" clip-path="url(#p7c95f73499)" style="fill: #0000f5; fill-opacity: 0.1"/>
    <path d="M 201.070393 -192.458593 
L 180.375329 -240.57024 
L 184.668381 -255.538297 
L 205.456206 -207.088864 
z
" clip-path="url(#p7c95f73499)" style="fill: #0000f5; fill-opacity: 0.1"/>
    <path d="M 226.041485 -159.111496 
L 205.456206 -207.088864 
L 209.890511 -221.880893 
L 230.567311 -173.567136 
z
" clip-path="url(#p7c95f73499)" style="fill: #0000f5; fill-opacity: 0.1"/>
    <path d="M 251.042527 -125.724404 
L 230.567311 -173.567136 
L 235.143206 -188.1827 
L 255.708698 -140.004982 
z
" clip-path="url(#p7c95f73499)" style="fill: #0000f5; fill-opacity: 0.1"/>
    <path d="M 205.456206 -207.088864 
L 184.668381 -255.538297 
L 189.009134 -270.672667 
L 209.890511 -221.880893 
z
" clip-path="url(#p7c95f73499)" style="fill: #0000f5; fill-opacity: 0.1"/>
    <path d="M 230.567311 -173.567136 
L 209.890511 -221.880893 
L 214.374115 -236.837379 
L 235.143206 -188.1827 
z
" clip-path="url(#p7c95f73499)" style="fill: #0000f5; fill-opacity: 0.1"/>
    <path d="M 209.890511 -221.880893 
L 189.009134 -270.672667 
L 193.398387 -285.976137 
L 214.374115 -236.837379 
z
" clip-path="url(#p7c95f73499)" style="fill: #0000f5; fill-opacity: 0.1"/>
   </g>
   <g id="legend_1">
    <g id="patch_6">
     <path d="M 357.840076 67.305115 
L 396.2 67.305115 
Q 398.2 67.305115 398.2 65.305115 
L 398.2 7 
Q 398.2 5 396.2 5 
L 357.840076 5 
Q 355.840076 5 355.840076 7 
L 355.840076 65.305115 
Q 355.840076 67.305115 357.840076 67.305115 
z
" style="fill: #ffffff; opacity: 0.8; stroke: #cccccc; stroke-linejoin: miter"/>
    </g>
    <g id="line2d_25">
     <path d="M 359.840076 12.5 
L 369.840076 12.5 
L 379.840076 12.5 
" style="fill: none; stroke: #ff0000; stroke-width: 1.5; stroke-linecap: square"/>
    </g>
    <g id="text_21">
     <!-- $\vec{a}$ -->
     <g transform="translate(387.840076 16)scale(0.1 -0.1)">
      <defs>
       <path id="CMMI12-7e" d="M 3424 3835 
C 3347 3764 3110 3540 3110 3451 
C 3110 3387 3168 3329 3232 3329 
C 3290 3329 3315 3368 3360 3432 
C 3514 3624 3686 3745 3834 3828 
C 3898 3867 3942 3886 3942 3956 
C 3942 4014 3891 4046 3853 4078 
C 3674 4200 3629 4372 3610 4449 
C 3590 4500 3571 4577 3482 4577 
C 3443 4577 3366 4552 3366 4456 
C 3366 4398 3405 4244 3526 4072 
L 1376 4072 
C 1267 4072 1158 4072 1158 3950 
C 1158 3835 1274 3835 1376 3835 
L 3424 3835 
z
" transform="scale(0.015625)"/>
       <path id="CMMI12-61" d="M 1926 760 
C 1894 651 1894 639 1805 517 
C 1664 338 1382 64 1082 64 
C 819 64 672 300 672 677 
C 672 1028 870 1743 992 2012 
C 1210 2459 1510 2689 1760 2689 
C 2182 2689 2266 2165 2266 2114 
C 2266 2108 2246 2024 2240 2012 
L 1926 760 
z
M 2336 2395 
C 2266 2561 2093 2816 1760 2816 
C 1037 2816 256 1884 256 939 
C 256 307 627 -64 1062 -64 
C 1414 -64 1715 211 1894 422 
C 1958 45 2259 -64 2451 -64 
C 2643 -64 2797 51 2912 281 
C 3014 498 3104 888 3104 913 
C 3104 945 3078 971 3040 971 
C 2982 971 2976 939 2950 843 
C 2854 466 2733 64 2470 64 
C 2285 64 2272 230 2272 358 
C 2272 505 2291 575 2349 824 
C 2394 984 2426 1124 2477 1309 
C 2714 2267 2771 2497 2771 2535 
C 2771 2625 2701 2695 2605 2695 
C 2400 2695 2349 2472 2336 2395 
z
" transform="scale(0.015625)"/>
      </defs>
      <use xlink:href="#CMMI12-7e" transform="scale(0.996264)"/>
      <use xlink:href="#CMMI12-61" transform="translate(6.445738 0)scale(0.996264)"/>
     </g>
    </g>
    <g id="line2d_26">
     <path d="M 359.840076 27.24679 
L 369.840076 27.24679 
L 379.840076 27.24679 
" style="fill: none; stroke: #00ff00; stroke-width: 1.5; stroke-linecap: square"/>
    </g>
    <g id="text_22">
     <!-- $\vec{b}$ -->
     <g transform="translate(387.840076 30.74679)scale(0.1 -0.1)">
      <defs>
       <path id="CMMI12-62" d="M 1478 4257 
C 1485 4283 1498 4321 1498 4352 
C 1498 4416 1434 4416 1421 4416 
C 1414 4416 1184 4393 1069 4377 
C 960 4377 864 4358 749 4358 
C 595 4345 550 4339 550 4224 
C 550 4160 614 4160 678 4160 
C 1005 4160 1005 4103 1005 4040 
C 1005 3996 954 3811 928 3696 
L 774 3085 
C 710 2831 346 1387 320 1272 
C 288 1114 288 1005 288 922 
C 288 274 653 -64 1069 -64 
C 1811 -64 2579 888 2579 1814 
C 2579 2401 2246 2816 1766 2816 
C 1434 2816 1133 2542 1011 2414 
L 1478 4257 
z
M 1075 64 
C 870 64 646 217 646 715 
C 646 926 666 1047 781 1494 
C 800 1577 902 1986 928 2069 
C 941 2120 1318 2689 1754 2689 
C 2035 2689 2163 2408 2163 2076 
C 2163 1769 1984 1047 1824 715 
C 1664 370 1370 64 1075 64 
z
" transform="scale(0.015625)"/>
      </defs>
      <use xlink:href="#CMMI12-7e" transform="translate(0 26.29016)scale(0.996264)"/>
      <use xlink:href="#CMMI12-62" transform="translate(11.311737 0)scale(0.996264)"/>
     </g>
    </g>
    <g id="line2d_27">
     <path d="M 359.840076 41.183968 
L 369.840076 41.183968 
L 379.840076 41.183968 
" style="fill: none; stroke: #0016ff; stroke-width: 1.5; stroke-linecap: square"/>
    </g>
    <g id="text_23">
     <!-- $\vec{c}$ -->
     <g transform="translate(387.840076 44.683968)scale(0.1 -0.1)">
      <defs>
       <path id="CMMI12-63" d="M 2502 2431 
C 2381 2431 2323 2431 2234 2355 
C 2195 2323 2125 2227 2125 2125 
C 2125 1997 2221 1920 2342 1920 
C 2496 1920 2669 2044 2669 2292 
C 2669 2588 2374 2816 1933 2816 
C 1094 2816 256 1903 256 996 
C 256 441 602 -64 1254 -64 
C 2125 -64 2675 622 2675 706 
C 2675 744 2637 776 2611 776 
C 2592 776 2586 770 2528 713 
C 2118 162 1510 64 1267 64 
C 826 64 685 446 685 764 
C 685 988 794 1605 1024 2039 
C 1190 2338 1536 2682 1939 2682 
C 2022 2682 2374 2682 2502 2431 
z
" transform="scale(0.015625)"/>
      </defs>
      <use xlink:href="#CMMI12-7e" transform="scale(0.996264)"/>
      <use xlink:href="#CMMI12-63" transform="translate(5.638615 0)scale(0.996264)"/>
     </g>
    </g>
    <g id="line2d_28">
     <path d="M 359.840076 57.867937 
L 369.840076 57.867937 
L 379.840076 57.867937 
" style="fill: none; stroke: #f400ff; stroke-width: 1.5; stroke-linecap: square"/>
    </g>
    <g id="text_24">
     <!-- $\vec{f}$ -->
     <g transform="translate(387.840076 61.367937)scale(0.1 -0.1)">
      <defs>
       <path id="CMMI12-66" d="M 2854 2566 
C 2982 2566 3034 2566 3034 2688 
C 3034 2752 2982 2752 2867 2752 
L 2349 2752 
C 2470 3429 2560 3897 2611 4107 
C 2650 4265 2784 4416 2950 4416 
C 3085 4416 3219 4358 3283 4298 
C 3034 4272 2957 4082 2957 3969 
C 2957 3837 3053 3759 3174 3759 
C 3302 3759 3494 3870 3494 4119 
C 3494 4393 3226 4544 2944 4544 
C 2669 4544 2400 4334 2272 4078 
C 2157 3848 2093 3611 1946 2752 
L 1517 2752 
C 1395 2752 1331 2752 1331 2637 
C 1331 2566 1370 2566 1498 2566 
L 1907 2566 
C 1792 1976 1530 542 1382 -137 
C 1274 -689 1178 -1152 858 -1152 
C 838 -1152 653 -1152 538 -1031 
C 864 -1005 864 -726 864 -720 
C 864 -593 768 -517 646 -517 
C 518 -517 326 -625 326 -867 
C 326 -1140 608 -1280 858 -1280 
C 1510 -1280 1779 -118 1850 199 
C 1965 688 2278 2376 2310 2566 
L 2854 2566 
z
" transform="scale(0.015625)"/>
      </defs>
      <use xlink:href="#CMMI12-7e" transform="translate(13.568792 26.29016)scale(0.996264)"/>
      <use xlink:href="#CMMI12-66" transform="scale(0.996264)"/>
     </g>
    </g>
   </g>
  </g>
 </g>
 <defs>
  <clipPath id="p7c95f73499">
   <rect x="57.6" y="0" width="345.6" height="345.6"/>
  </clipPath>
 </defs>
</svg>
