<?xml version="1.0" encoding="utf-8" standalone="no"?>
<!DOCTYPE svg PUBLIC "-//W3C//DTD SVG 1.1//EN"
  "http://www.w3.org/Graphics/SVG/1.1/DTD/svg11.dtd">
<svg xmlns:xlink="http://www.w3.org/1999/xlink" width="460.8pt" height="345.6pt" viewBox="0 0 460.8 345.6" xmlns="http://www.w3.org/2000/svg" version="1.1">
 <metadata>
  <rdf:RDF xmlns:dc="http://purl.org/dc/elements/1.1/" xmlns:cc="http://creativecommons.org/ns#" xmlns:rdf="http://www.w3.org/1999/02/22-rdf-syntax-ns#">
   <cc:Work>
    <dc:type rdf:resource="http://purl.org/dc/dcmitype/StillImage"/>
    <dc:date>2022-07-12T15:50:54.653446</dc:date>
    <dc:format>image/svg+xml</dc:format>
    <dc:creator>
     <cc:Agent>
      <dc:title>Matplotlib v3.5.1, https://matplotlib.org/</dc:title>
     </cc:Agent>
    </dc:creator>
   </cc:Work>
  </rdf:RDF>
 </metadata>
 <defs>
  <style type="text/css">*{stroke-linejoin: round; stroke-linecap: butt}</style>
 </defs>
 <g id="figure_1">
  <g id="patch_1">
   <path d="M 0 345.6 
L 460.8 345.6 
L 460.8 0 
L 0 0 
z
" style="fill: #ffffff"/>
  </g>
  <g id="patch_2">
   <path d="M 57.6 345.6 
L 403.2 345.6 
L 403.2 0 
L 57.6 0 
z
" style="fill: #ffffff"/>
  </g>
  <g id="pane3d_1">
   <g id="patch_3">
    <path d="M 292.096346 245.529868 
L 384.748489 254.363781 
L 384.748489 81.895679 
L 292.096346 90.729591 
" style="fill: #f2f2f2; opacity: 0.5; stroke: #f2f2f2; stroke-linejoin: miter"/>
   </g>
  </g>
  <g id="pane3d_2">
   <g id="patch_4">
    <path d="M 292.096346 245.529868 
L 94.924789 248.871689 
L 94.924789 87.387771 
L 292.096346 90.729591 
" style="fill: #e6e6e6; opacity: 0.5; stroke: #e6e6e6; stroke-linejoin: miter"/>
   </g>
  </g>
  <g id="pane3d_3">
   <g id="patch_5">
    <path d="M 292.096346 245.529868 
L 94.924789 248.871689 
L 168.46425 258.5325 
L 384.748489 254.363781 
" style="fill: #ececec; opacity: 0.5; stroke: #ececec; stroke-linejoin: miter"/>
   </g>
  </g>
  <g id="axis3d_1">
   <g id="line2d_1">
    <path d="M 384.748489 254.363781 
L 168.46425 258.5325 
" style="fill: none; stroke: #000000; stroke-width: 0.8; stroke-linecap: square"/>
   </g>
   <g id="text_1">
    <!-- x -->
    <g transform="translate(288.764593 286.763514)scale(0.16 -0.16)">
     <defs>
      <path id="CMSS17-78" d="M 1587 1414 
L 2656 2739 
L 2099 2739 
L 1363 1777 
L 602 2739 
L 32 2739 
L 1139 1414 
L 0 0 
L 563 0 
L 1363 1121 
L 2195 0 
L 2758 0 
L 1587 1414 
z
" transform="scale(0.015625)"/>
     </defs>
     <use xlink:href="#CMSS17-78" transform="scale(0.996264)"/>
    </g>
   </g>
   <g id="Line3DCollection_1">
    <path d="M 380.618465 254.443384 
L 288.312997 245.593991 
L 288.312997 90.665468 
" style="fill: none; stroke: #b0b0b0; stroke-width: 0.8"/>
    <path d="M 340.578805 255.215119 
L 251.67134 246.215023 
L 251.67134 90.044436 
" style="fill: none; stroke: #b0b0b0; stroke-width: 0.8"/>
    <path d="M 299.816693 256.000779 
L 214.437421 246.846093 
L 214.437421 89.413366 
" style="fill: none; stroke: #b0b0b0; stroke-width: 0.8"/>
    <path d="M 258.312396 256.800744 
L 176.596764 247.487447 
L 176.596764 88.772012 
" style="fill: none; stroke: #b0b0b0; stroke-width: 0.8"/>
    <path d="M 216.045459 257.615408 
L 138.134417 248.139338 
L 138.134417 88.120122 
" style="fill: none; stroke: #b0b0b0; stroke-width: 0.8"/>
    <path d="M 172.994666 258.44518 
L 99.034932 248.802027 
L 99.034932 87.457433 
" style="fill: none; stroke: #b0b0b0; stroke-width: 0.8"/>
   </g>
   <g id="xtick_1">
    <g id="line2d_2">
     <path d="M 379.796414 254.364573 
L 382.267083 254.601438 
" style="fill: none; stroke: #000000; stroke-width: 0.8; stroke-linecap: square"/>
    </g>
    <g id="text_2">
     <!-- $\mathdefault{0}$ -->
     <g transform="translate(384.7471 273.106534)scale(0.1 -0.1)">
      <defs>
       <path id="CMR17-30" d="M 2688 2025 
C 2688 2416 2682 3080 2413 3591 
C 2176 4039 1798 4198 1466 4198 
C 1158 4198 768 4058 525 3597 
C 269 3118 243 2524 243 2025 
C 243 1661 250 1106 448 619 
C 723 -39 1216 -128 1466 -128 
C 1760 -128 2208 -7 2470 600 
C 2662 1042 2688 1559 2688 2025 
z
M 1466 -26 
C 1056 -26 813 325 723 812 
C 653 1188 653 1738 653 2096 
C 653 2588 653 2997 736 3387 
C 858 3929 1216 4096 1466 4096 
C 1728 4096 2067 3923 2189 3400 
C 2272 3036 2278 2607 2278 2096 
C 2278 1680 2278 1169 2202 792 
C 2067 95 1690 -26 1466 -26 
z
" transform="scale(0.015625)"/>
      </defs>
      <use xlink:href="#CMR17-30" transform="scale(0.996264)"/>
     </g>
    </g>
   </g>
   <g id="xtick_2">
    <g id="line2d_3">
     <path d="M 339.786297 255.134893 
L 342.168215 255.376015 
" style="fill: none; stroke: #000000; stroke-width: 0.8; stroke-linecap: square"/>
    </g>
    <g id="text_3">
     <!-- $\mathdefault{1}$ -->
     <g transform="translate(344.470031 273.989783)scale(0.1 -0.1)">
      <defs>
       <path id="CMR17-31" d="M 1702 4058 
C 1702 4192 1696 4192 1606 4192 
C 1357 3916 979 3827 621 3827 
C 602 3827 570 3827 563 3808 
C 557 3795 557 3782 557 3648 
C 755 3648 1088 3686 1344 3839 
L 1344 461 
C 1344 236 1331 160 781 160 
L 589 160 
L 589 0 
C 896 0 1216 0 1523 0 
C 1830 0 2150 0 2458 0 
L 2458 160 
L 2266 160 
C 1715 160 1702 230 1702 458 
L 1702 4058 
z
" transform="scale(0.015625)"/>
      </defs>
      <use xlink:href="#CMR17-31" transform="scale(0.996264)"/>
     </g>
    </g>
   </g>
   <g id="xtick_3">
    <g id="line2d_4">
     <path d="M 299.054931 255.9191 
L 301.344477 256.164594 
" style="fill: none; stroke: #000000; stroke-width: 0.8; stroke-linecap: square"/>
    </g>
    <g id="text_4">
     <!-- $\mathdefault{2}$ -->
     <g transform="translate(303.460785 274.889088)scale(0.1 -0.1)">
      <defs>
       <path id="CMR17-32" d="M 2669 989 
L 2554 989 
C 2490 536 2438 459 2413 420 
C 2381 369 1920 369 1830 369 
L 602 369 
C 832 619 1280 1072 1824 1597 
C 2214 1967 2669 2402 2669 3035 
C 2669 3790 2067 4224 1395 4224 
C 691 4224 262 3604 262 3030 
C 262 2780 448 2748 525 2748 
C 589 2748 781 2787 781 3010 
C 781 3207 614 3264 525 3264 
C 486 3264 448 3258 422 3245 
C 544 3790 915 4058 1306 4058 
C 1862 4058 2227 3617 2227 3035 
C 2227 2479 1901 2000 1536 1584 
L 262 146 
L 262 0 
L 2515 0 
L 2669 989 
z
" transform="scale(0.015625)"/>
      </defs>
      <use xlink:href="#CMR17-32" transform="scale(0.996264)"/>
     </g>
    </g>
   </g>
   <g id="xtick_4">
    <g id="line2d_5">
     <path d="M 257.582636 256.717571 
L 259.776035 256.967557 
" style="fill: none; stroke: #000000; stroke-width: 0.8; stroke-linecap: square"/>
    </g>
    <g id="text_5">
     <!-- $\mathdefault{3}$ -->
     <g transform="translate(261.699214 275.80489)scale(0.1 -0.1)">
      <defs>
       <path id="CMR17-33" d="M 1414 2157 
C 1984 2157 2234 1662 2234 1090 
C 2234 320 1824 25 1453 25 
C 1114 25 563 194 390 693 
C 422 680 454 680 486 680 
C 640 680 755 782 755 948 
C 755 1133 614 1216 486 1216 
C 378 1216 211 1165 211 926 
C 211 335 787 -128 1466 -128 
C 2176 -128 2720 430 2720 1085 
C 2720 1707 2208 2157 1600 2227 
C 2086 2328 2554 2756 2554 3329 
C 2554 3820 2048 4179 1472 4179 
C 890 4179 378 3829 378 3329 
C 378 3110 544 3072 627 3072 
C 762 3072 877 3155 877 3321 
C 877 3486 762 3569 627 3569 
C 602 3569 570 3569 544 3557 
C 730 3959 1235 4032 1459 4032 
C 1683 4032 2106 3925 2106 3320 
C 2106 3143 2080 2828 1862 2550 
C 1670 2304 1453 2304 1242 2284 
C 1210 2284 1062 2269 1037 2269 
C 992 2263 966 2257 966 2208 
C 966 2163 973 2157 1101 2157 
L 1414 2157 
z
" transform="scale(0.015625)"/>
      </defs>
      <use xlink:href="#CMR17-33" transform="scale(0.996264)"/>
     </g>
    </g>
   </g>
   <g id="xtick_5">
    <g id="line2d_6">
     <path d="M 215.349011 257.530701 
L 217.442323 257.785304 
" style="fill: none; stroke: #000000; stroke-width: 0.8; stroke-linecap: square"/>
    </g>
    <g id="text_6">
     <!-- $\mathdefault{4}$ -->
     <g transform="translate(219.164425 276.737649)scale(0.1 -0.1)">
      <defs>
       <path id="CMR17-34" d="M 2150 4122 
C 2150 4256 2144 4256 2029 4256 
L 128 1254 
L 128 1088 
L 1779 1088 
L 1779 457 
C 1779 224 1766 160 1318 160 
L 1197 160 
L 1197 0 
C 1402 0 1747 0 1965 0 
C 2182 0 2528 0 2733 0 
L 2733 160 
L 2611 160 
C 2163 160 2150 224 2150 457 
L 2150 1088 
L 2803 1088 
L 2803 1254 
L 2150 1254 
L 2150 4122 
z
M 1798 3703 
L 1798 1254 
L 256 1254 
L 1798 3703 
z
" transform="scale(0.015625)"/>
      </defs>
      <use xlink:href="#CMR17-34" transform="scale(0.996264)"/>
     </g>
    </g>
   </g>
   <g id="xtick_6">
    <g id="line2d_7">
     <path d="M 172.332895 258.358896 
L 174.322013 258.618245 
" style="fill: none; stroke: #000000; stroke-width: 0.8; stroke-linecap: square"/>
    </g>
    <g id="text_7">
     <!-- $\mathdefault{5}$ -->
     <g transform="translate(175.834741 277.68784)scale(0.1 -0.1)">
      <defs>
       <path id="CMR17-35" d="M 730 3692 
C 794 3666 1056 3584 1325 3584 
C 1920 3584 2246 3911 2432 4100 
C 2432 4157 2432 4192 2394 4192 
C 2387 4192 2374 4192 2323 4163 
C 2099 4058 1837 3973 1517 3973 
C 1325 3973 1037 3999 723 4139 
C 653 4171 640 4171 634 4171 
C 602 4171 595 4164 595 4037 
L 595 2203 
C 595 2089 595 2057 659 2057 
C 691 2057 704 2070 736 2114 
C 941 2401 1222 2522 1542 2522 
C 1766 2522 2246 2382 2246 1289 
C 2246 1085 2246 715 2054 421 
C 1894 159 1645 25 1370 25 
C 947 25 518 320 403 814 
C 429 807 480 795 506 795 
C 589 795 749 840 749 1038 
C 749 1210 627 1280 506 1280 
C 358 1280 262 1190 262 1011 
C 262 454 704 -128 1382 -128 
C 2042 -128 2669 440 2669 1264 
C 2669 2030 2170 2624 1549 2624 
C 1222 2624 947 2503 730 2274 
L 730 3692 
z
" transform="scale(0.015625)"/>
      </defs>
      <use xlink:href="#CMR17-35" transform="scale(0.996264)"/>
     </g>
    </g>
   </g>
  </g>
  <g id="axis3d_2">
   <g id="line2d_8">
    <path d="M 94.924789 248.871689 
L 168.46425 258.5325 
" style="fill: none; stroke: #000000; stroke-width: 0.8; stroke-linecap: square"/>
   </g>
   <g id="text_8">
    <!-- y -->
    <g transform="translate(95.897931 281.80374)scale(0.16 -0.16)">
     <defs>
      <path id="CMSS17-79" d="M 2675 2752 
L 2176 2752 
C 1632 1294 1446 702 1434 383 
L 1427 383 
C 1408 696 1126 1460 902 2007 
L 602 2752 
L 83 2752 
L 1216 13 
C 1146 -178 1043 -465 1011 -529 
C 870 -885 774 -885 672 -885 
C 646 -885 442 -885 211 -809 
L 250 -1229 
C 410 -1261 570 -1280 685 -1280 
C 845 -1280 1165 -1280 1459 -497 
L 2675 2752 
z
" transform="scale(0.015625)"/>
     </defs>
     <use xlink:href="#CMSS17-79" transform="scale(0.996264)"/>
    </g>
   </g>
   <g id="Line3DCollection_2">
    <path d="M 301.859004 89.798771 
L 301.859004 246.460688 
L 102.639386 249.885148 
" style="fill: none; stroke: #b0b0b0; stroke-width: 0.8"/>
    <path d="M 318.544341 88.207909 
L 318.544341 248.051551 
L 115.842958 251.61969 
" style="fill: none; stroke: #b0b0b0; stroke-width: 0.8"/>
    <path d="M 335.92147 86.551088 
L 335.92147 249.708372 
L 129.618934 253.429427 
" style="fill: none; stroke: #b0b0b0; stroke-width: 0.8"/>
    <path d="M 354.034325 84.824119 
L 354.034325 251.435341 
L 144.005362 255.319359 
" style="fill: none; stroke: #b0b0b0; stroke-width: 0.8"/>
    <path d="M 372.93064 83.022451 
L 372.93064 253.237009 
L 159.043736 257.294936 
" style="fill: none; stroke: #b0b0b0; stroke-width: 0.8"/>
   </g>
   <g id="xtick_7">
    <g id="line2d_9">
     <path d="M 104.302237 249.856565 
L 99.310192 249.942375 
" style="fill: none; stroke: #000000; stroke-width: 0.8; stroke-linecap: square"/>
    </g>
    <g id="text_9">
     <!-- $\mathdefault{−4}$ -->
     <g transform="translate(82.952781 267.508422)scale(0.1 -0.1)">
      <defs>
       <path id="CMSY10-0" d="M 4218 1472 
C 4326 1472 4442 1472 4442 1600 
C 4442 1728 4326 1728 4218 1728 
L 755 1728 
C 646 1728 531 1728 531 1600 
C 531 1472 646 1472 755 1472 
L 4218 1472 
z
" transform="scale(0.015625)"/>
      </defs>
      <use xlink:href="#CMSY10-0" transform="scale(0.996264)"/>
      <use xlink:href="#CMR17-34" transform="translate(77.487468 0)scale(0.996264)"/>
     </g>
    </g>
   </g>
   <g id="xtick_8">
    <g id="line2d_10">
     <path d="M 117.536361 251.589881 
L 112.452519 251.679371 
" style="fill: none; stroke: #000000; stroke-width: 0.8; stroke-linecap: square"/>
    </g>
    <g id="text_10">
     <!-- $\mathdefault{−2}$ -->
     <g transform="translate(95.91068 269.475689)scale(0.1 -0.1)">
      <use xlink:href="#CMSY10-0" transform="scale(0.996264)"/>
      <use xlink:href="#CMR17-32" transform="translate(77.487468 0)scale(0.996264)"/>
     </g>
    </g>
   </g>
   <g id="xtick_9">
    <g id="line2d_11">
     <path d="M 131.344006 253.398312 
L 126.165011 253.491725 
" style="fill: none; stroke: #000000; stroke-width: 0.8; stroke-linecap: square"/>
    </g>
    <g id="text_11">
     <!-- $\mathdefault{0}$ -->
     <g transform="translate(113.306347 271.528491)scale(0.1 -0.1)">
      <use xlink:href="#CMR17-30" transform="scale(0.996264)"/>
     </g>
    </g>
   </g>
   <g id="xtick_10">
    <g id="line2d_12">
     <path d="M 145.763277 255.28685 
L 140.485595 255.384449 
" style="fill: none; stroke: #000000; stroke-width: 0.8; stroke-linecap: square"/>
    </g>
    <g id="text_12">
     <!-- $\mathdefault{2}$ -->
     <g transform="translate(127.428597 273.67253)scale(0.1 -0.1)">
      <use xlink:href="#CMR17-32" transform="scale(0.996264)"/>
     </g>
    </g>
   </g>
   <g id="xtick_11">
    <g id="line2d_13">
     <path d="M 160.835733 257.260938 
L 155.455638 257.363011 
" style="fill: none; stroke: #000000; stroke-width: 0.8; stroke-linecap: square"/>
    </g>
    <g id="text_13">
     <!-- $\mathdefault{4}$ -->
     <g transform="translate(142.192778 275.914027)scale(0.1 -0.1)">
      <use xlink:href="#CMR17-34" transform="scale(0.996264)"/>
     </g>
    </g>
   </g>
  </g>
  <g id="axis3d_3">
   <g id="line2d_14">
    <path d="M 94.924789 248.871689 
L 94.924789 87.387771 
" style="fill: none; stroke: #000000; stroke-width: 0.8; stroke-linecap: square"/>
   </g>
   <g id="text_14">
    <!-- z -->
    <g transform="translate(54.180206 172.114786)scale(0.16 -0.16)">
     <defs>
      <path id="CMSS17-7a" d="M 2400 2502 
L 2400 2750 
L 250 2750 
L 250 2368 
L 1069 2368 
C 1146 2368 1222 2368 1299 2368 
L 1747 2368 
L 166 261 
L 166 0 
L 2419 0 
L 2419 395 
L 1549 395 
C 1472 395 1395 395 1318 395 
L 826 395 
L 2400 2502 
z
" transform="scale(0.015625)"/>
     </defs>
     <use xlink:href="#CMSS17-7a" transform="scale(0.996264)"/>
    </g>
   </g>
   <g id="Line3DCollection_3">
    <path d="M 94.924789 245.642011 
L 292.096346 242.433862 
L 384.748489 250.914419 
" style="fill: none; stroke: #b0b0b0; stroke-width: 0.8"/>
    <path d="M 94.924789 214.637098 
L 292.096346 212.712209 
L 384.748489 217.800543 
" style="fill: none; stroke: #b0b0b0; stroke-width: 0.8"/>
    <path d="M 94.924789 183.632186 
L 292.096346 182.990556 
L 384.748489 184.686668 
" style="fill: none; stroke: #b0b0b0; stroke-width: 0.8"/>
    <path d="M 94.924789 152.627274 
L 292.096346 153.268903 
L 384.748489 151.572792 
" style="fill: none; stroke: #b0b0b0; stroke-width: 0.8"/>
    <path d="M 94.924789 121.622361 
L 292.096346 123.54725 
L 384.748489 118.458916 
" style="fill: none; stroke: #b0b0b0; stroke-width: 0.8"/>
    <path d="M 94.924789 90.617449 
L 292.096346 93.825597 
L 384.748489 85.345041 
" style="fill: none; stroke: #b0b0b0; stroke-width: 0.8"/>
   </g>
   <g id="xtick_12">
    <g id="line2d_15">
     <path d="M 96.569697 245.615246 
L 91.63156 245.695594 
" style="fill: none; stroke: #000000; stroke-width: 0.8; stroke-linecap: square"/>
    </g>
    <g id="text_15">
     <!-- $\mathdefault{0}$ -->
     <g transform="translate(75.167149 252.246392)scale(0.1 -0.1)">
      <use xlink:href="#CMR17-30" transform="scale(0.996264)"/>
     </g>
    </g>
   </g>
   <g id="xtick_13">
    <g id="line2d_16">
     <path d="M 96.569697 214.62104 
L 91.63156 214.669248 
" style="fill: none; stroke: #000000; stroke-width: 0.8; stroke-linecap: square"/>
    </g>
    <g id="text_16">
     <!-- $\mathdefault{1}$ -->
     <g transform="translate(75.167149 221.367126)scale(0.1 -0.1)">
      <use xlink:href="#CMR17-31" transform="scale(0.996264)"/>
     </g>
    </g>
   </g>
   <g id="xtick_14">
    <g id="line2d_17">
     <path d="M 96.569697 183.626833 
L 91.63156 183.642903 
" style="fill: none; stroke: #000000; stroke-width: 0.8; stroke-linecap: square"/>
    </g>
    <g id="text_17">
     <!-- $\mathdefault{2}$ -->
     <g transform="translate(75.167149 190.487861)scale(0.1 -0.1)">
      <use xlink:href="#CMR17-32" transform="scale(0.996264)"/>
     </g>
    </g>
   </g>
   <g id="xtick_15">
    <g id="line2d_18">
     <path d="M 96.569697 152.632626 
L 91.63156 152.616557 
" style="fill: none; stroke: #000000; stroke-width: 0.8; stroke-linecap: square"/>
    </g>
    <g id="text_18">
     <!-- $\mathdefault{3}$ -->
     <g transform="translate(75.167149 159.608595)scale(0.1 -0.1)">
      <use xlink:href="#CMR17-33" transform="scale(0.996264)"/>
     </g>
    </g>
   </g>
   <g id="xtick_16">
    <g id="line2d_19">
     <path d="M 96.569697 121.63842 
L 91.63156 121.590211 
" style="fill: none; stroke: #000000; stroke-width: 0.8; stroke-linecap: square"/>
    </g>
    <g id="text_19">
     <!-- $\mathdefault{4}$ -->
     <g transform="translate(75.167149 128.72933)scale(0.1 -0.1)">
      <use xlink:href="#CMR17-34" transform="scale(0.996264)"/>
     </g>
    </g>
   </g>
   <g id="xtick_17">
    <g id="line2d_20">
     <path d="M 96.569697 90.644213 
L 91.63156 90.563865 
" style="fill: none; stroke: #000000; stroke-width: 0.8; stroke-linecap: square"/>
    </g>
    <g id="text_20">
     <!-- $\mathdefault{5}$ -->
     <g transform="translate(75.167149 97.850064)scale(0.1 -0.1)">
      <use xlink:href="#CMR17-35" transform="scale(0.996264)"/>
     </g>
    </g>
   </g>
  </g>
  <g id="axes_1">
   <g id="line2d_21">
    <path d="M 331.971965 246.513613 
L 320.059356 86.521851 
" clip-path="url(#p93448fc908)" style="fill: none; stroke: #ff0000; stroke-width: 1.5; stroke-linecap: square"/>
   </g>
   <g id="line2d_22">
    <path d="M 331.971965 246.513613 
L 238.775522 121.285962 
" clip-path="url(#p93448fc908)" style="fill: none; stroke: #00ff00; stroke-width: 1.5; stroke-linecap: square"/>
   </g>
   <g id="line2d_23">
    <path d="M 331.971965 246.513613 
L 238.945709 -1 
" clip-path="url(#p93448fc908)" style="fill: none; stroke: #0016ff; stroke-width: 1.5; stroke-linecap: square"/>
   </g>
   <g id="line2d_24">
    <path d="M 331.971965 246.513613 
L 113.364631 152.281923 
" clip-path="url(#p93448fc908)" style="fill: none; stroke: #f400ff; stroke-width: 1.5; stroke-linecap: square"/>
   </g>
   <g id="Poly3DCollection_1">
    <path d="M 289.973236 354.425961 
L 271.694552 314.022142 
L 275.632285 303.469729 
L 293.985786 344.116039 
z
" clip-path="url(#p93448fc908)" style="fill: #0000f5; fill-opacity: 0.1"/>
    <path d="M 271.694552 314.022142 
L 253.269023 273.293734 
L 257.130602 262.495251 
L 275.632285 303.469729 
z
" clip-path="url(#p93448fc908)" style="fill: #0000f5; fill-opacity: 0.1"/>
    <path d="M 293.985786 344.116039 
L 275.632285 303.469729 
L 279.609399 292.811779 
L 298.038304 333.70342 
z
" clip-path="url(#p93448fc908)" style="fill: #0000f5; fill-opacity: 0.1"/>
    <path d="M 253.269023 273.293734 
L 234.694874 232.23681 
L 238.478935 221.188614 
L 257.130602 262.495251 
z
" clip-path="url(#p93448fc908)" style="fill: #0000f5; fill-opacity: 0.1"/>
    <path d="M 275.632285 303.469729 
L 257.130602 262.495251 
L 261.030957 251.588332 
L 279.609399 292.811779 
z
" clip-path="url(#p93448fc908)" style="fill: #0000f5; fill-opacity: 0.1"/>
    <path d="M 298.038304 333.70342 
L 279.609399 292.811779 
L 283.62649 282.046701 
L 302.131391 323.186563 
z
" clip-path="url(#p93448fc908)" style="fill: #0000f5; fill-opacity: 0.1"/>
    <path d="M 234.694874 232.23681 
L 215.970299 190.847378 
L 219.675454 179.545762 
L 238.478935 221.188614 
z
" clip-path="url(#p93448fc908)" style="fill: #0000f5; fill-opacity: 0.1"/>
    <path d="M 257.130602 262.495251 
L 238.478935 221.188614 
L 242.30115 210.029022 
L 261.030957 251.588332 
z
" clip-path="url(#p93448fc908)" style="fill: #0000f5; fill-opacity: 0.1"/>
    <path d="M 279.609399 292.811779 
L 261.030957 251.588332 
L 264.970677 240.571335 
L 283.62649 282.046701 
z
" clip-path="url(#p93448fc908)" style="fill: #0000f5; fill-opacity: 0.1"/>
    <path d="M 302.131391 323.186563 
L 283.62649 282.046701 
L 287.684163 271.172872 
L 306.26566 312.563893 
z
" clip-path="url(#p93448fc908)" style="fill: #0000f5; fill-opacity: 0.1"/>
    <path d="M 215.970299 190.847378 
L 197.093463 149.121385 
L 200.718298 137.562576 
L 219.675454 179.545762 
z
" clip-path="url(#p93448fc908)" style="fill: #0000f5; fill-opacity: 0.1"/>
    <path d="M 238.478935 221.188614 
L 219.675454 179.545762 
L 223.418121 168.12973 
L 242.30115 210.029022 
z
" clip-path="url(#p93448fc908)" style="fill: #0000f5; fill-opacity: 0.1"/>
    <path d="M 261.030957 251.588332 
L 242.30115 210.029022 
L 246.162099 198.756342 
L 264.970677 240.571335 
z
" clip-path="url(#p93448fc908)" style="fill: #0000f5; fill-opacity: 0.1"/>
    <path d="M 283.62649 282.046701 
L 264.970677 240.571335 
L 268.95036 229.442585 
L 287.684163 271.172872 
z
" clip-path="url(#p93448fc908)" style="fill: #0000f5; fill-opacity: 0.1"/>
    <path d="M 306.26566 312.563893 
L 287.684163 271.172872 
L 291.783035 260.188635 
L 310.441734 301.833806 
z
" clip-path="url(#p93448fc908)" style="fill: #0000f5; fill-opacity: 0.1"/>
    <path d="M 197.093463 149.121385 
L 178.062501 107.054706 
L 181.605574 95.234863 
L 200.718298 137.562576 
z
" clip-path="url(#p93448fc908)" style="fill: #0000f5; fill-opacity: 0.1"/>
    <path d="M 219.675454 179.545762 
L 200.718298 137.562576 
L 204.379981 125.886265 
L 223.418121 168.12973 
z
" clip-path="url(#p93448fc908)" style="fill: #0000f5; fill-opacity: 0.1"/>
    <path d="M 242.30115 210.029022 
L 223.418121 168.12973 
L 227.198871 156.597534 
L 246.162099 198.756342 
z
" clip-path="url(#p93448fc908)" style="fill: #0000f5; fill-opacity: 0.1"/>
    <path d="M 264.970677 240.571335 
L 246.162099 198.756342 
L 250.062372 187.368845 
L 268.95036 229.442585 
z
" clip-path="url(#p93448fc908)" style="fill: #0000f5; fill-opacity: 0.1"/>
    <path d="M 287.684163 271.172872 
L 268.95036 229.442585 
L 272.970617 218.200374 
L 291.783035 260.188635 
z
" clip-path="url(#p93448fc908)" style="fill: #0000f5; fill-opacity: 0.1"/>
    <path d="M 178.062501 107.054706 
L 158.875518 64.643154 
L 162.335359 52.558368 
L 181.605574 95.234863 
z
" clip-path="url(#p93448fc908)" style="fill: #0000f5; fill-opacity: 0.1"/>
    <path d="M 310.441734 301.833806 
L 291.783035 260.188635 
L 295.923737 249.0923 
L 314.660252 290.994665 
z
" clip-path="url(#p93448fc908)" style="fill: #0000f5; fill-opacity: 0.1"/>
    <path d="M 200.718298 137.562576 
L 181.605574 95.234863 
L 185.184812 83.29437 
L 204.379981 125.886265 
z
" clip-path="url(#p93448fc908)" style="fill: #0000f5; fill-opacity: 0.1"/>
    <path d="M 223.418121 168.12973 
L 204.379981 125.886265 
L 208.079078 114.090653 
L 227.198871 156.597534 
z
" clip-path="url(#p93448fc908)" style="fill: #0000f5; fill-opacity: 0.1"/>
    <path d="M 246.162099 198.756342 
L 227.198871 156.597534 
L 231.018288 144.947393 
L 250.062372 187.368845 
z
" clip-path="url(#p93448fc908)" style="fill: #0000f5; fill-opacity: 0.1"/>
    <path d="M 268.95036 229.442585 
L 250.062372 187.368845 
L 254.002575 175.864768 
L 272.970617 218.200374 
z
" clip-path="url(#p93448fc908)" style="fill: #0000f5; fill-opacity: 0.1"/>
    <path d="M 158.875518 64.643154 
L 139.530587 21.882468 
L 142.9057 9.52876 
L 162.335359 52.558368 
z
" clip-path="url(#p93448fc908)" style="fill: #0000f5; fill-opacity: 0.1"/>
    <path d="M 291.783035 260.188635 
L 272.970617 218.200374 
L 277.032072 206.842958 
L 295.923737 249.0923 
z
" clip-path="url(#p93448fc908)" style="fill: #0000f5; fill-opacity: 0.1"/>
    <path d="M 181.605574 95.234863 
L 162.335359 52.558368 
L 165.830663 40.349717 
L 185.184812 83.29437 
z
" clip-path="url(#p93448fc908)" style="fill: #0000f5; fill-opacity: 0.1"/>
    <path d="M 314.660252 290.994665 
L 295.923737 249.0923 
L 300.106914 237.882142 
L 318.921864 280.044798 
z
" clip-path="url(#p93448fc908)" style="fill: #0000f5; fill-opacity: 0.1"/>
    <path d="M 204.379981 125.886265 
L 185.184812 83.29437 
L 188.800773 71.23137 
L 208.079078 114.090653 
z
" clip-path="url(#p93448fc908)" style="fill: #0000f5; fill-opacity: 0.1"/>
    <path d="M 227.198871 156.597534 
L 208.079078 114.090653 
L 211.816163 102.1739 
L 231.018288 144.947393 
z
" clip-path="url(#p93448fc908)" style="fill: #0000f5; fill-opacity: 0.1"/>
    <path d="M 250.062372 187.368845 
L 231.018288 144.947393 
L 234.876969 133.177487 
L 254.002575 175.864768 
z
" clip-path="url(#p93448fc908)" style="fill: #0000f5; fill-opacity: 0.1"/>
    <path d="M 139.530587 21.882468 
L 120.025751 -21.231678 
L 123.314608 -33.858361 
L 142.9057 9.52876 
z
" clip-path="url(#p93448fc908)" style="fill: #0000f5; fill-opacity: 0.1"/>
    <path d="M 272.970617 218.200374 
L 254.002575 175.864768 
L 257.983323 164.242312 
L 277.032072 206.842958 
z
" clip-path="url(#p93448fc908)" style="fill: #0000f5; fill-opacity: 0.1"/>
    <path d="M 162.335359 52.558368 
L 142.9057 9.52876 
L 146.31555 -2.952097 
L 165.830663 40.349717 
z
" clip-path="url(#p93448fc908)" style="fill: #0000f5; fill-opacity: 0.1"/>
    <path d="M 295.923737 249.0923 
L 277.032072 206.842958 
L 281.135362 195.368556 
L 300.106914 237.882142 
z
" clip-path="url(#p93448fc908)" style="fill: #0000f5; fill-opacity: 0.1"/>
    <path d="M 185.184812 83.29437 
L 165.830663 40.349717 
L 169.361977 28.015285 
L 188.800773 71.23137 
z
" clip-path="url(#p93448fc908)" style="fill: #0000f5; fill-opacity: 0.1"/>
    <path d="M 318.921864 280.044798 
L 300.106914 237.882142 
L 304.333221 226.556401 
L 323.227232 268.9825 
z
" clip-path="url(#p93448fc908)" style="fill: #0000f5; fill-opacity: 0.1"/>
    <path d="M 208.079078 114.090653 
L 188.800773 71.23137 
L 192.454024 59.043968 
L 211.816163 102.1739 
z
" clip-path="url(#p93448fc908)" style="fill: #0000f5; fill-opacity: 0.1"/>
    <path d="M 231.018288 144.947393 
L 211.816163 102.1739 
L 215.591827 90.134132 
L 234.876969 133.177487 
z
" clip-path="url(#p93448fc908)" style="fill: #0000f5; fill-opacity: 0.1"/>
    <path d="M 254.002575 175.864768 
L 234.876969 133.177487 
L 238.775522 121.285962 
L 257.983323 164.242312 
z
" clip-path="url(#p93448fc908)" style="fill: #0000f5; fill-opacity: 0.1"/>
    <path d="M 142.9057 9.52876 
L 123.314608 -33.858361 
L 126.637457 -46.615544 
L 146.31555 -2.952097 
z
" clip-path="url(#p93448fc908)" style="fill: #0000f5; fill-opacity: 0.1"/>
    <path d="M 277.032072 206.842958 
L 257.983323 164.242312 
L 262.005246 152.49964 
L 281.135362 195.368556 
z
" clip-path="url(#p93448fc908)" style="fill: #0000f5; fill-opacity: 0.1"/>
    <path d="M 165.830663 40.349717 
L 146.31555 -2.952097 
L 149.760677 -15.562076 
L 169.361977 28.015285 
z
" clip-path="url(#p93448fc908)" style="fill: #0000f5; fill-opacity: 0.1"/>
    <path d="M 300.106914 237.882142 
L 281.135362 195.368556 
L 285.281136 183.775351 
L 304.333221 226.556401 
z
" clip-path="url(#p93448fc908)" style="fill: #0000f5; fill-opacity: 0.1"/>
    <path d="M 188.800773 71.23137 
L 169.361977 28.015285 
L 172.92986 15.553121 
L 192.454024 59.043968 
z
" clip-path="url(#p93448fc908)" style="fill: #0000f5; fill-opacity: 0.1"/>
    <path d="M 323.227232 268.9825 
L 304.333221 226.556401 
L 308.60333 215.11328 
L 327.577036 257.806031 
z
" clip-path="url(#p93448fc908)" style="fill: #0000f5; fill-opacity: 0.1"/>
    <path d="M 211.816163 102.1739 
L 192.454024 59.043968 
L 196.145145 46.730229 
L 215.591827 90.134132 
z
" clip-path="url(#p93448fc908)" style="fill: #0000f5; fill-opacity: 0.1"/>
    <path d="M 234.876969 133.177487 
L 215.591827 90.134132 
L 219.406668 77.969434 
L 238.775522 121.285962 
z
" clip-path="url(#p93448fc908)" style="fill: #0000f5; fill-opacity: 0.1"/>
    <path d="M 257.983323 164.242312 
L 238.775522 121.285962 
L 242.714569 109.270921 
L 262.005246 152.49964 
z
" clip-path="url(#p93448fc908)" style="fill: #0000f5; fill-opacity: 0.1"/>
    <path d="M 146.31555 -2.952097 
L 126.637457 -46.615544 
L 129.994827 -59.505262 
L 149.760677 -15.562076 
z
" clip-path="url(#p93448fc908)" style="fill: #0000f5; fill-opacity: 0.1"/>
    <path d="M 281.135362 195.368556 
L 262.005246 152.49964 
L 266.068986 140.634877 
L 285.281136 183.775351 
z
" clip-path="url(#p93448fc908)" style="fill: #0000f5; fill-opacity: 0.1"/>
    <path d="M 169.361977 28.015285 
L 149.760677 -15.562076 
L 153.241631 -28.30319 
L 172.92986 15.553121 
z
" clip-path="url(#p93448fc908)" style="fill: #0000f5; fill-opacity: 0.1"/>
    <path d="M 304.333221 226.556401 
L 285.281136 183.775351 
L 289.470057 172.061489 
L 308.60333 215.11328 
z
" clip-path="url(#p93448fc908)" style="fill: #0000f5; fill-opacity: 0.1"/>
    <path d="M 192.454024 59.043968 
L 172.92986 15.553121 
L 176.534885 2.961228 
L 196.145145 46.730229 
z
" clip-path="url(#p93448fc908)" style="fill: #0000f5; fill-opacity: 0.1"/>
    <path d="M 327.577036 257.806031 
L 308.60333 215.11328 
L 312.917924 203.550945 
L 331.971965 246.513613 
z
" clip-path="url(#p93448fc908)" style="fill: #0000f5; fill-opacity: 0.1"/>
    <path d="M 215.591827 90.134132 
L 196.145145 46.730229 
L 199.874728 34.288179 
L 219.406668 77.969434 
z
" clip-path="url(#p93448fc908)" style="fill: #0000f5; fill-opacity: 0.1"/>
    <path d="M 238.775522 121.285962 
L 219.406668 77.969434 
L 223.261301 65.67785 
L 242.714569 109.270921 
z
" clip-path="url(#p93448fc908)" style="fill: #0000f5; fill-opacity: 0.1"/>
    <path d="M 262.005246 152.49964 
L 242.714569 109.270921 
L 246.694744 97.130431 
L 266.068986 140.634877 
z
" clip-path="url(#p93448fc908)" style="fill: #0000f5; fill-opacity: 0.1"/>
    <path d="M 149.760677 -15.562076 
L 129.994827 -59.505262 
L 133.387258 -72.52959 
L 153.241631 -28.30319 
z
" clip-path="url(#p93448fc908)" style="fill: #0000f5; fill-opacity: 0.1"/>
    <path d="M 285.281136 183.775351 
L 266.068986 140.634877 
L 270.175197 128.646109 
L 289.470057 172.061489 
z
" clip-path="url(#p93448fc908)" style="fill: #0000f5; fill-opacity: 0.1"/>
    <path d="M 172.92986 15.553121 
L 153.241631 -28.30319 
L 156.758974 -41.177496 
L 176.534885 2.961228 
z
" clip-path="url(#p93448fc908)" style="fill: #0000f5; fill-opacity: 0.1"/>
    <path d="M 308.60333 215.11328 
L 289.470057 172.061489 
L 293.702803 160.225077 
L 312.917924 203.550945 
z
" clip-path="url(#p93448fc908)" style="fill: #0000f5; fill-opacity: 0.1"/>
    <path d="M 196.145145 46.730229 
L 176.534885 2.961228 
L 180.177633 -9.762429 
L 199.874728 34.288179 
z
" clip-path="url(#p93448fc908)" style="fill: #0000f5; fill-opacity: 0.1"/>
    <path d="M 331.971965 246.513613 
L 312.917924 203.550945 
L 317.277704 191.867523 
L 336.412727 235.103434 
z
" clip-path="url(#p93448fc908)" style="fill: #0000f5; fill-opacity: 0.1"/>
    <path d="M 219.406668 77.969434 
L 199.874728 34.288179 
L 203.643378 21.715802 
L 223.261301 65.67785 
z
" clip-path="url(#p93448fc908)" style="fill: #0000f5; fill-opacity: 0.1"/>
    <path d="M 242.714569 109.270921 
L 223.261301 65.67785 
L 227.156351 53.257386 
L 246.694744 97.130431 
z
" clip-path="url(#p93448fc908)" style="fill: #0000f5; fill-opacity: 0.1"/>
    <path d="M 266.068986 140.634877 
L 246.694744 97.130431 
L 250.716694 84.862516 
L 270.175197 128.646109 
z
" clip-path="url(#p93448fc908)" style="fill: #0000f5; fill-opacity: 0.1"/>
    <path d="M 153.241631 -28.30319 
L 133.387258 -72.52959 
L 136.815304 -85.690649 
L 156.758974 -41.177496 
z
" clip-path="url(#p93448fc908)" style="fill: #0000f5; fill-opacity: 0.1"/>
    <path d="M 289.470057 172.061489 
L 270.175197 128.646109 
L 274.324551 116.531383 
L 293.702803 160.225077 
z
" clip-path="url(#p93448fc908)" style="fill: #0000f5; fill-opacity: 0.1"/>
    <path d="M 176.534885 2.961228 
L 156.758974 -41.177496 
L 160.313279 -54.187094 
L 180.177633 -9.762429 
z
" clip-path="url(#p93448fc908)" style="fill: #0000f5; fill-opacity: 0.1"/>
    <path d="M 312.917924 203.550945 
L 293.702803 160.225077 
L 297.980065 148.26418 
L 317.277704 191.867523 
z
" clip-path="url(#p93448fc908)" style="fill: #0000f5; fill-opacity: 0.1"/>
    <path d="M 199.874728 34.288179 
L 180.177633 -9.762429 
L 183.8587 -22.619929 
L 203.643378 21.715802 
z
" clip-path="url(#p93448fc908)" style="fill: #0000f5; fill-opacity: 0.1"/>
    <path d="M 336.412727 235.103434 
L 317.277704 191.867523 
L 321.683382 180.061102 
L 340.900042 223.573641 
z
" clip-path="url(#p93448fc908)" style="fill: #0000f5; fill-opacity: 0.1"/>
    <path d="M 223.261301 65.67785 
L 203.643378 21.715802 
L 207.451711 9.011039 
L 227.156351 53.257386 
z
" clip-path="url(#p93448fc908)" style="fill: #0000f5; fill-opacity: 0.1"/>
    <path d="M 246.694744 97.130431 
L 227.156351 53.257386 
L 231.092456 40.706003 
L 250.716694 84.862516 
z
" clip-path="url(#p93448fc908)" style="fill: #0000f5; fill-opacity: 0.1"/>
    <path d="M 270.175197 128.646109 
L 250.716694 84.862516 
L 254.78108 72.465159 
L 274.324551 116.531383 
z
" clip-path="url(#p93448fc908)" style="fill: #0000f5; fill-opacity: 0.1"/>
    <path d="M 156.758974 -41.177496 
L 136.815304 -85.690649 
L 140.279527 -98.990602 
L 160.313279 -54.187094 
z
" clip-path="url(#p93448fc908)" style="fill: #0000f5; fill-opacity: 0.1"/>
    <path d="M 293.702803 160.225077 
L 274.324551 116.531383 
L 278.517729 104.288701 
L 297.980065 148.26418 
z
" clip-path="url(#p93448fc908)" style="fill: #0000f5; fill-opacity: 0.1"/>
    <path d="M 180.177633 -9.762429 
L 160.313279 -54.187094 
L 163.905133 -67.334127 
L 183.8587 -22.619929 
z
" clip-path="url(#p93448fc908)" style="fill: #0000f5; fill-opacity: 0.1"/>
    <path d="M 317.277704 191.867523 
L 297.980065 148.26418 
L 302.302549 136.176826 
L 321.683382 180.061102 
z
" clip-path="url(#p93448fc908)" style="fill: #0000f5; fill-opacity: 0.1"/>
    <path d="M 203.643378 21.715802 
L 183.8587 -22.619929 
L 187.578695 -35.613396 
L 207.451711 9.011039 
z
" clip-path="url(#p93448fc908)" style="fill: #0000f5; fill-opacity: 0.1"/>
    <path d="M 340.900042 223.573641 
L 321.683382 180.061102 
L 326.135686 168.12973 
L 345.434645 211.922343 
z
" clip-path="url(#p93448fc908)" style="fill: #0000f5; fill-opacity: 0.1"/>
    <path d="M 227.156351 53.257386 
L 207.451711 9.011039 
L 211.300358 -3.828212 
L 231.092456 40.706003 
z
" clip-path="url(#p93448fc908)" style="fill: #0000f5; fill-opacity: 0.1"/>
    <path d="M 250.716694 84.862516 
L 231.092456 40.706003 
L 235.07027 28.021621 
L 254.78108 72.465159 
z
" clip-path="url(#p93448fc908)" style="fill: #0000f5; fill-opacity: 0.1"/>
    <path d="M 274.324551 116.531383 
L 254.78108 72.465159 
L 258.888578 59.936302 
L 278.517729 104.288701 
z
" clip-path="url(#p93448fc908)" style="fill: #0000f5; fill-opacity: 0.1"/>
    <path d="M 160.313279 -54.187094 
L 140.279527 -98.990602 
L 143.780504 -112.43166 
L 163.905133 -67.334127 
z
" clip-path="url(#p93448fc908)" style="fill: #0000f5; fill-opacity: 0.1"/>
    <path d="M 297.980065 148.26418 
L 278.517729 104.288701 
L 282.755431 91.916027 
L 302.302549 136.176826 
z
" clip-path="url(#p93448fc908)" style="fill: #0000f5; fill-opacity: 0.1"/>
    <path d="M 183.8587 -22.619929 
L 163.905133 -67.334127 
L 167.535133 -80.620786 
L 187.578695 -35.613396 
z
" clip-path="url(#p93448fc908)" style="fill: #0000f5; fill-opacity: 0.1"/>
    <path d="M 321.683382 180.061102 
L 302.302549 136.176826 
L 306.670975 123.960997 
L 326.135686 168.12973 
z
" clip-path="url(#p93448fc908)" style="fill: #0000f5; fill-opacity: 0.1"/>
    <path d="M 207.451711 9.011039 
L 187.578695 -35.613396 
L 191.338236 -48.744998 
L 211.300358 -3.828212 
z
" clip-path="url(#p93448fc908)" style="fill: #0000f5; fill-opacity: 0.1"/>
    <path d="M 345.434645 211.922343 
L 326.135686 168.12973 
L 330.635362 156.071411 
L 350.017289 200.14761 
z
" clip-path="url(#p93448fc908)" style="fill: #0000f5; fill-opacity: 0.1"/>
    <path d="M 231.092456 40.706003 
L 211.300358 -3.828212 
L 215.189962 -16.804098 
L 235.07027 28.021621 
z
" clip-path="url(#p93448fc908)" style="fill: #0000f5; fill-opacity: 0.1"/>
    <path d="M 254.78108 72.465159 
L 235.07027 28.021621 
L 239.090459 15.202115 
L 258.888578 59.936302 
z
" clip-path="url(#p93448fc908)" style="fill: #0000f5; fill-opacity: 0.1"/>
    <path d="M 278.517729 104.288701 
L 258.888578 59.936302 
L 263.039878 47.27384 
L 282.755431 91.916027 
z
" clip-path="url(#p93448fc908)" style="fill: #0000f5; fill-opacity: 0.1"/>
    <path d="M 163.905133 -67.334127 
L 143.780504 -112.43166 
L 147.318822 -126.01608 
L 167.535133 -80.620786 
z
" clip-path="url(#p93448fc908)" style="fill: #0000f5; fill-opacity: 0.1"/>
    <path d="M 302.302549 136.176826 
L 282.755431 91.916027 
L 287.038368 79.411279 
L 306.670975 123.960997 
z
" clip-path="url(#p93448fc908)" style="fill: #0000f5; fill-opacity: 0.1"/>
    <path d="M 187.578695 -35.613396 
L 167.535133 -80.620786 
L 171.203891 -94.049305 
L 191.338236 -48.744998 
z
" clip-path="url(#p93448fc908)" style="fill: #0000f5; fill-opacity: 0.1"/>
    <path d="M 326.135686 168.12973 
L 306.670975 123.960997 
L 311.086081 111.614635 
L 330.635362 156.071411 
z
" clip-path="url(#p93448fc908)" style="fill: #0000f5; fill-opacity: 0.1"/>
    <path d="M 211.300358 -3.828212 
L 191.338236 -48.744998 
L 195.13796 -62.016949 
L 215.189962 -16.804098 
z
" clip-path="url(#p93448fc908)" style="fill: #0000f5; fill-opacity: 0.1"/>
    <path d="M 350.017289 200.14761 
L 330.635362 156.071411 
L 335.183169 143.88411 
L 354.64874 188.24747 
z
" clip-path="url(#p93448fc908)" style="fill: #0000f5; fill-opacity: 0.1"/>
    <path d="M 235.07027 28.021621 
L 215.189962 -16.804098 
L 219.12118 -29.918811 
L 239.090459 15.202115 
z
" clip-path="url(#p93448fc908)" style="fill: #0000f5; fill-opacity: 0.1"/>
    <path d="M 258.888578 59.936302 
L 239.090459 15.202115 
L 243.153704 2.245313 
L 263.039878 47.27384 
z
" clip-path="url(#p93448fc908)" style="fill: #0000f5; fill-opacity: 0.1"/>
    <path d="M 282.755431 91.916027 
L 263.039878 47.27384 
L 267.235683 34.475625 
L 287.038368 79.411279 
z
" clip-path="url(#p93448fc908)" style="fill: #0000f5; fill-opacity: 0.1"/>
    <path d="M 167.535133 -80.620786 
L 147.318822 -126.01608 
L 150.895083 -139.74617 
L 171.203891 -94.049305 
z
" clip-path="url(#p93448fc908)" style="fill: #0000f5; fill-opacity: 0.1"/>
    <path d="M 306.670975 123.960997 
L 287.038368 79.411279 
L 291.36727 66.772331 
L 311.086081 111.614635 
z
" clip-path="url(#p93448fc908)" style="fill: #0000f5; fill-opacity: 0.1"/>
    <path d="M 191.338236 -48.744998 
L 171.203891 -94.049305 
L 174.91203 -107.621969 
L 195.13796 -62.016949 
z
" clip-path="url(#p93448fc908)" style="fill: #0000f5; fill-opacity: 0.1"/>
    <path d="M 330.635362 156.071411 
L 311.086081 111.614635 
L 315.548619 99.135636 
L 335.183169 143.88411 
z
" clip-path="url(#p93448fc908)" style="fill: #0000f5; fill-opacity: 0.1"/>
    <path d="M 215.189962 -16.804098 
L 195.13796 -62.016949 
L 198.978512 -75.431511 
L 219.12118 -29.918811 
z
" clip-path="url(#p93448fc908)" style="fill: #0000f5; fill-opacity: 0.1"/>
    <path d="M 354.64874 188.24747 
L 335.183169 143.88411 
L 339.779883 131.565746 
L 359.329783 176.219908 
z
" clip-path="url(#p93448fc908)" style="fill: #0000f5; fill-opacity: 0.1"/>
    <path d="M 239.090459 15.202115 
L 219.12118 -29.918811 
L 223.094684 -43.174591 
L 243.153704 2.245313 
z
" clip-path="url(#p93448fc908)" style="fill: #0000f5; fill-opacity: 0.1"/>
    <path d="M 263.039878 47.27384 
L 243.153704 2.245313 
L 247.2607 -10.851002 
L 267.235683 34.475625 
z
" clip-path="url(#p93448fc908)" style="fill: #0000f5; fill-opacity: 0.1"/>
    <path d="M 287.038368 79.411279 
L 267.235683 34.475625 
L 271.476713 21.539463 
L 291.36727 66.772331 
z
" clip-path="url(#p93448fc908)" style="fill: #0000f5; fill-opacity: 0.1"/>
    <path d="M 171.203891 -94.049305 
L 150.895083 -139.74617 
L 154.509899 -153.624283 
L 174.91203 -107.621969 
z
" clip-path="url(#p93448fc908)" style="fill: #0000f5; fill-opacity: 0.1"/>
    <path d="M 311.086081 111.614635 
L 291.36727 66.772331 
L 295.74288 53.997011 
L 315.548619 99.135636 
z
" clip-path="url(#p93448fc908)" style="fill: #0000f5; fill-opacity: 0.1"/>
    <path d="M 195.13796 -62.016949 
L 174.91203 -107.621969 
L 178.660187 -121.341112 
L 198.978512 -75.431511 
z
" clip-path="url(#p93448fc908)" style="fill: #0000f5; fill-opacity: 0.1"/>
    <path d="M 335.183169 143.88411 
L 315.548619 99.135636 
L 320.059356 86.521851 
L 339.779883 131.565746 
z
" clip-path="url(#p93448fc908)" style="fill: #0000f5; fill-opacity: 0.1"/>
    <path d="M 219.12118 -29.918811 
L 198.978512 -75.431511 
L 202.860556 -88.990996 
L 223.094684 -43.174591 
z
" clip-path="url(#p93448fc908)" style="fill: #0000f5; fill-opacity: 0.1"/>
    <path d="M 359.329783 176.219908 
L 339.779883 131.565746 
L 344.426298 119.114192 
L 364.061218 164.062867 
z
" clip-path="url(#p93448fc908)" style="fill: #0000f5; fill-opacity: 0.1"/>
    <path d="M 243.153704 2.245313 
L 223.094684 -43.174591 
L 227.11116 -56.573727 
L 247.2607 -10.851002 
z
" clip-path="url(#p93448fc908)" style="fill: #0000f5; fill-opacity: 0.1"/>
    <path d="M 267.235683 34.475625 
L 247.2607 -10.851002 
L 251.412157 -24.089095 
L 271.476713 21.539463 
z
" clip-path="url(#p93448fc908)" style="fill: #0000f5; fill-opacity: 0.1"/>
    <path d="M 291.36727 66.772331 
L 271.476713 21.539463 
L 275.763704 8.46311 
L 295.74288 53.997011 
z
" clip-path="url(#p93448fc908)" style="fill: #0000f5; fill-opacity: 0.1"/>
    <path d="M 174.91203 -107.621969 
L 154.509899 -153.624283 
L 158.163897 -167.652827 
L 178.660187 -121.341112 
z
" clip-path="url(#p93448fc908)" style="fill: #0000f5; fill-opacity: 0.1"/>
    <path d="M 315.548619 99.135636 
L 295.74288 53.997011 
L 300.165958 41.083099 
L 320.059356 86.521851 
z
" clip-path="url(#p93448fc908)" style="fill: #0000f5; fill-opacity: 0.1"/>
    <path d="M 198.978512 -75.431511 
L 178.660187 -121.341112 
L 182.449015 -135.209118 
L 202.860556 -88.990996 
z
" clip-path="url(#p93448fc908)" style="fill: #0000f5; fill-opacity: 0.1"/>
    <path d="M 339.779883 131.565746 
L 320.059356 86.521851 
L 324.619078 73.771084 
L 344.426298 119.114192 
z
" clip-path="url(#p93448fc908)" style="fill: #0000f5; fill-opacity: 0.1"/>
    <path d="M 223.094684 -43.174591 
L 202.860556 -88.990996 
L 206.784766 -102.697764 
L 227.11116 -56.573727 
z
" clip-path="url(#p93448fc908)" style="fill: #0000f5; fill-opacity: 0.1"/>
    <path d="M 364.061218 164.062867 
L 344.426298 119.114192 
L 349.123224 106.527278 
L 368.843863 151.774245 
z
" clip-path="url(#p93448fc908)" style="fill: #0000f5; fill-opacity: 0.1"/>
    <path d="M 247.2607 -10.851002 
L 227.11116 -56.573727 
L 231.171309 -70.118556 
L 251.412157 -24.089095 
z
" clip-path="url(#p93448fc908)" style="fill: #0000f5; fill-opacity: 0.1"/>
    <path d="M 271.476713 21.539463 
L 251.412157 -24.089095 
L 255.608802 -37.471281 
L 275.763704 8.46311 
z
" clip-path="url(#p93448fc908)" style="fill: #0000f5; fill-opacity: 0.1"/>
    <path d="M 295.74288 53.997011 
L 275.763704 8.46311 
L 280.097406 -4.755724 
L 300.165958 41.083099 
z
" clip-path="url(#p93448fc908)" style="fill: #0000f5; fill-opacity: 0.1"/>
    <path d="M 178.660187 -121.341112 
L 158.163897 -167.652827 
L 161.857719 -181.834262 
L 182.449015 -135.209118 
z
" clip-path="url(#p93448fc908)" style="fill: #0000f5; fill-opacity: 0.1"/>
    <path d="M 320.059356 86.521851 
L 300.165958 41.083099 
L 304.637281 28.028329 
L 324.619078 73.771084 
z
" clip-path="url(#p93448fc908)" style="fill: #0000f5; fill-opacity: 0.1"/>
    <path d="M 202.860556 -88.990996 
L 182.449015 -135.209118 
L 186.279179 -149.228422 
L 206.784766 -102.697764 
z
" clip-path="url(#p93448fc908)" style="fill: #0000f5; fill-opacity: 0.1"/>
    <path d="M 344.426298 119.114192 
L 324.619078 73.771084 
L 329.228588 60.881093 
L 349.123224 106.527278 
z
" clip-path="url(#p93448fc908)" style="fill: #0000f5; fill-opacity: 0.1"/>
    <path d="M 227.11116 -56.573727 
L 206.784766 -102.697764 
L 210.751834 -116.554229 
L 231.171309 -70.118556 
z
" clip-path="url(#p93448fc908)" style="fill: #0000f5; fill-opacity: 0.1"/>
    <path d="M 368.843863 151.774245 
L 349.123224 106.527278 
L 353.87149 93.802784 
L 373.678555 139.351894 
z
" clip-path="url(#p93448fc908)" style="fill: #0000f5; fill-opacity: 0.1"/>
    <path d="M 251.412157 -24.089095 
L 231.171309 -70.118556 
L 235.275846 -83.811469 
L 255.608802 -37.471281 
z
" clip-path="url(#p93448fc908)" style="fill: #0000f5; fill-opacity: 0.1"/>
    <path d="M 275.763704 8.46311 
L 255.608802 -37.471281 
L 259.851376 -50.999925 
L 280.097406 -4.755724 
z
" clip-path="url(#p93448fc908)" style="fill: #0000f5; fill-opacity: 0.1"/>
    <path d="M 300.165958 41.083099 
L 280.097406 -4.755724 
L 284.478587 -18.11938 
L 304.637281 28.028329 
z
" clip-path="url(#p93448fc908)" style="fill: #0000f5; fill-opacity: 0.1"/>
    <path d="M 182.449015 -135.209118 
L 161.857719 -181.834262 
L 165.592019 -196.1711 
L 186.279179 -149.228422 
z
" clip-path="url(#p93448fc908)" style="fill: #0000f5; fill-opacity: 0.1"/>
    <path d="M 324.619078 73.771084 
L 304.637281 28.028329 
L 309.157642 14.830383 
L 329.228588 60.881093 
z
" clip-path="url(#p93448fc908)" style="fill: #0000f5; fill-opacity: 0.1"/>
    <path d="M 206.784766 -102.697764 
L 186.279179 -149.228422 
L 190.151359 -163.401515 
L 210.751834 -116.554229 
z
" clip-path="url(#p93448fc908)" style="fill: #0000f5; fill-opacity: 0.1"/>
    <path d="M 349.123224 106.527278 
L 329.228588 60.881093 
L 333.888705 47.849583 
L 353.87149 93.802784 
z
" clip-path="url(#p93448fc908)" style="fill: #0000f5; fill-opacity: 0.1"/>
    <path d="M 231.171309 -70.118556 
L 210.751834 -116.554229 
L 214.762466 -130.562857 
L 235.275846 -83.811469 
z
" clip-path="url(#p93448fc908)" style="fill: #0000f5; fill-opacity: 0.1"/>
    <path d="M 255.608802 -37.471281 
L 235.275846 -83.811469 
L 239.425504 -97.654907 
L 259.851376 -50.999925 
z
" clip-path="url(#p93448fc908)" style="fill: #0000f5; fill-opacity: 0.1"/>
    <path d="M 280.097406 -4.755724 
L 259.851376 -50.999925 
L 264.140638 -64.677446 
L 284.478587 -18.11938 
z
" clip-path="url(#p93448fc908)" style="fill: #0000f5; fill-opacity: 0.1"/>
    <path d="M 304.637281 28.028329 
L 284.478587 -18.11938 
L 288.908032 -31.630253 
L 309.157642 14.830383 
z
" clip-path="url(#p93448fc908)" style="fill: #0000f5; fill-opacity: 0.1"/>
    <path d="M 186.279179 -149.228422 
L 165.592019 -196.1711 
L 169.367465 -210.66591 
L 190.151359 -163.401515 
z
" clip-path="url(#p93448fc908)" style="fill: #0000f5; fill-opacity: 0.1"/>
    <path d="M 329.228588 60.881093 
L 309.157642 14.830383 
L 313.727853 1.486892 
L 333.888705 47.849583 
z
" clip-path="url(#p93448fc908)" style="fill: #0000f5; fill-opacity: 0.1"/>
    <path d="M 210.751834 -116.554229 
L 190.151359 -163.401515 
L 194.06625 -177.73094 
L 214.762466 -130.562857 
z
" clip-path="url(#p93448fc908)" style="fill: #0000f5; fill-opacity: 0.1"/>
    <path d="M 235.275846 -83.811469 
L 214.762466 -130.562857 
L 218.817383 -144.726166 
L 239.425504 -97.654907 
z
" clip-path="url(#p93448fc908)" style="fill: #0000f5; fill-opacity: 0.1"/>
    <path d="M 259.851376 -50.999925 
L 239.425504 -97.654907 
L 243.621031 -111.651365 
L 264.140638 -64.677446 
z
" clip-path="url(#p93448fc908)" style="fill: #0000f5; fill-opacity: 0.1"/>
    <path d="M 284.478587 -18.11938 
L 264.140638 -64.677446 
L 268.477362 -78.506314 
L 288.908032 -31.630253 
z
" clip-path="url(#p93448fc908)" style="fill: #0000f5; fill-opacity: 0.1"/>
    <path d="M 309.157642 14.830383 
L 288.908032 -31.630253 
L 293.386543 -45.290789 
L 313.727853 1.486892 
z
" clip-path="url(#p93448fc908)" style="fill: #0000f5; fill-opacity: 0.1"/>
    <path d="M 190.151359 -163.401515 
L 169.367465 -210.66591 
L 173.184742 -225.321317 
L 194.06625 -177.73094 
z
" clip-path="url(#p93448fc908)" style="fill: #0000f5; fill-opacity: 0.1"/>
    <path d="M 214.762466 -130.562857 
L 194.06625 -177.73094 
L 198.024562 -192.2193 
L 218.817383 -144.726166 
z
" clip-path="url(#p93448fc908)" style="fill: #0000f5; fill-opacity: 0.1"/>
    <path d="M 239.425504 -97.654907 
L 218.817383 -144.726166 
L 222.917323 -159.046735 
L 243.621031 -111.651365 
z
" clip-path="url(#p93448fc908)" style="fill: #0000f5; fill-opacity: 0.1"/>
    <path d="M 264.140638 -64.677446 
L 243.621031 -111.651365 
L 247.863192 -125.803396 
L 268.477362 -78.506314 
z
" clip-path="url(#p93448fc908)" style="fill: #0000f5; fill-opacity: 0.1"/>
    <path d="M 288.908032 -31.630253 
L 268.477362 -78.506314 
L 272.862341 -92.489055 
L 293.386543 -45.290789 
z
" clip-path="url(#p93448fc908)" style="fill: #0000f5; fill-opacity: 0.1"/>
    <path d="M 194.06625 -177.73094 
L 173.184742 -225.321317 
L 177.044548 -240.140005 
L 198.024562 -192.2193 
z
" clip-path="url(#p93448fc908)" style="fill: #0000f5; fill-opacity: 0.1"/>
    <path d="M 218.817383 -144.726166 
L 198.024562 -192.2193 
L 202.027023 -206.869252 
L 222.917323 -159.046735 
z
" clip-path="url(#p93448fc908)" style="fill: #0000f5; fill-opacity: 0.1"/>
    <path d="M 243.621031 -111.651365 
L 222.917323 -159.046735 
L 227.063039 -173.527196 
L 247.863192 -125.803396 
z
" clip-path="url(#p93448fc908)" style="fill: #0000f5; fill-opacity: 0.1"/>
    <path d="M 268.477362 -78.506314 
L 247.863192 -125.803396 
L 252.152768 -140.113606 
L 272.862341 -92.489055 
z
" clip-path="url(#p93448fc908)" style="fill: #0000f5; fill-opacity: 0.1"/>
    <path d="M 198.024562 -192.2193 
L 177.044548 -240.140005 
L 180.947599 -255.124718 
L 202.027023 -206.869252 
z
" clip-path="url(#p93448fc908)" style="fill: #0000f5; fill-opacity: 0.1"/>
    <path d="M 222.917323 -159.046735 
L 202.027023 -206.869252 
L 206.074375 -221.683516 
L 227.063039 -173.527196 
z
" clip-path="url(#p93448fc908)" style="fill: #0000f5; fill-opacity: 0.1"/>
    <path d="M 247.863192 -125.803396 
L 227.063039 -173.527196 
L 231.255303 -188.170242 
L 252.152768 -140.113606 
z
" clip-path="url(#p93448fc908)" style="fill: #0000f5; fill-opacity: 0.1"/>
    <path d="M 202.027023 -206.869252 
L 180.947599 -255.124718 
L 184.894625 -270.278262 
L 206.074375 -221.683516 
z
" clip-path="url(#p93448fc908)" style="fill: #0000f5; fill-opacity: 0.1"/>
    <path d="M 227.063039 -173.527196 
L 206.074375 -221.683516 
L 210.167377 -236.66487 
L 231.255303 -188.170242 
z
" clip-path="url(#p93448fc908)" style="fill: #0000f5; fill-opacity: 0.1"/>
    <path d="M 206.074375 -221.683516 
L 184.894625 -270.278262 
L 188.886374 -285.603507 
L 210.167377 -236.66487 
z
" clip-path="url(#p93448fc908)" style="fill: #0000f5; fill-opacity: 0.1"/>
   </g>
   <g id="legend_1">
    <g id="patch_6">
     <path d="M 357.840076 67.305115 
L 396.2 67.305115 
Q 398.2 67.305115 398.2 65.305115 
L 398.2 7 
Q 398.2 5 396.2 5 
L 357.840076 5 
Q 355.840076 5 355.840076 7 
L 355.840076 65.305115 
Q 355.840076 67.305115 357.840076 67.305115 
z
" style="fill: #ffffff; opacity: 0.8; stroke: #cccccc; stroke-linejoin: miter"/>
    </g>
    <g id="line2d_25">
     <path d="M 359.840076 12.5 
L 369.840076 12.5 
L 379.840076 12.5 
" style="fill: none; stroke: #ff0000; stroke-width: 1.5; stroke-linecap: square"/>
    </g>
    <g id="text_21">
     <!-- $\vec{a}$ -->
     <g transform="translate(387.840076 16)scale(0.1 -0.1)">
      <defs>
       <path id="CMMI12-7e" d="M 3424 3835 
C 3347 3764 3110 3540 3110 3451 
C 3110 3387 3168 3329 3232 3329 
C 3290 3329 3315 3368 3360 3432 
C 3514 3624 3686 3745 3834 3828 
C 3898 3867 3942 3886 3942 3956 
C 3942 4014 3891 4046 3853 4078 
C 3674 4200 3629 4372 3610 4449 
C 3590 4500 3571 4577 3482 4577 
C 3443 4577 3366 4552 3366 4456 
C 3366 4398 3405 4244 3526 4072 
L 1376 4072 
C 1267 4072 1158 4072 1158 3950 
C 1158 3835 1274 3835 1376 3835 
L 3424 3835 
z
" transform="scale(0.015625)"/>
       <path id="CMMI12-61" d="M 1926 760 
C 1894 651 1894 639 1805 517 
C 1664 338 1382 64 1082 64 
C 819 64 672 300 672 677 
C 672 1028 870 1743 992 2012 
C 1210 2459 1510 2689 1760 2689 
C 2182 2689 2266 2165 2266 2114 
C 2266 2108 2246 2024 2240 2012 
L 1926 760 
z
M 2336 2395 
C 2266 2561 2093 2816 1760 2816 
C 1037 2816 256 1884 256 939 
C 256 307 627 -64 1062 -64 
C 1414 -64 1715 211 1894 422 
C 1958 45 2259 -64 2451 -64 
C 2643 -64 2797 51 2912 281 
C 3014 498 3104 888 3104 913 
C 3104 945 3078 971 3040 971 
C 2982 971 2976 939 2950 843 
C 2854 466 2733 64 2470 64 
C 2285 64 2272 230 2272 358 
C 2272 505 2291 575 2349 824 
C 2394 984 2426 1124 2477 1309 
C 2714 2267 2771 2497 2771 2535 
C 2771 2625 2701 2695 2605 2695 
C 2400 2695 2349 2472 2336 2395 
z
" transform="scale(0.015625)"/>
      </defs>
      <use xlink:href="#CMMI12-7e" transform="scale(0.996264)"/>
      <use xlink:href="#CMMI12-61" transform="translate(6.445738 0)scale(0.996264)"/>
     </g>
    </g>
    <g id="line2d_26">
     <path d="M 359.840076 27.24679 
L 369.840076 27.24679 
L 379.840076 27.24679 
" style="fill: none; stroke: #00ff00; stroke-width: 1.5; stroke-linecap: square"/>
    </g>
    <g id="text_22">
     <!-- $\vec{b}$ -->
     <g transform="translate(387.840076 30.74679)scale(0.1 -0.1)">
      <defs>
       <path id="CMMI12-62" d="M 1478 4257 
C 1485 4283 1498 4321 1498 4352 
C 1498 4416 1434 4416 1421 4416 
C 1414 4416 1184 4393 1069 4377 
C 960 4377 864 4358 749 4358 
C 595 4345 550 4339 550 4224 
C 550 4160 614 4160 678 4160 
C 1005 4160 1005 4103 1005 4040 
C 1005 3996 954 3811 928 3696 
L 774 3085 
C 710 2831 346 1387 320 1272 
C 288 1114 288 1005 288 922 
C 288 274 653 -64 1069 -64 
C 1811 -64 2579 888 2579 1814 
C 2579 2401 2246 2816 1766 2816 
C 1434 2816 1133 2542 1011 2414 
L 1478 4257 
z
M 1075 64 
C 870 64 646 217 646 715 
C 646 926 666 1047 781 1494 
C 800 1577 902 1986 928 2069 
C 941 2120 1318 2689 1754 2689 
C 2035 2689 2163 2408 2163 2076 
C 2163 1769 1984 1047 1824 715 
C 1664 370 1370 64 1075 64 
z
" transform="scale(0.015625)"/>
      </defs>
      <use xlink:href="#CMMI12-7e" transform="translate(0 26.29016)scale(0.996264)"/>
      <use xlink:href="#CMMI12-62" transform="translate(11.311737 0)scale(0.996264)"/>
     </g>
    </g>
    <g id="line2d_27">
     <path d="M 359.840076 41.183968 
L 369.840076 41.183968 
L 379.840076 41.183968 
" style="fill: none; stroke: #0016ff; stroke-width: 1.5; stroke-linecap: square"/>
    </g>
    <g id="text_23">
     <!-- $\vec{c}$ -->
     <g transform="translate(387.840076 44.683968)scale(0.1 -0.1)">
      <defs>
       <path id="CMMI12-63" d="M 2502 2431 
C 2381 2431 2323 2431 2234 2355 
C 2195 2323 2125 2227 2125 2125 
C 2125 1997 2221 1920 2342 1920 
C 2496 1920 2669 2044 2669 2292 
C 2669 2588 2374 2816 1933 2816 
C 1094 2816 256 1903 256 996 
C 256 441 602 -64 1254 -64 
C 2125 -64 2675 622 2675 706 
C 2675 744 2637 776 2611 776 
C 2592 776 2586 770 2528 713 
C 2118 162 1510 64 1267 64 
C 826 64 685 446 685 764 
C 685 988 794 1605 1024 2039 
C 1190 2338 1536 2682 1939 2682 
C 2022 2682 2374 2682 2502 2431 
z
" transform="scale(0.015625)"/>
      </defs>
      <use xlink:href="#CMMI12-7e" transform="scale(0.996264)"/>
      <use xlink:href="#CMMI12-63" transform="translate(5.638615 0)scale(0.996264)"/>
     </g>
    </g>
    <g id="line2d_28">
     <path d="M 359.840076 57.867937 
L 369.840076 57.867937 
L 379.840076 57.867937 
" style="fill: none; stroke: #f400ff; stroke-width: 1.5; stroke-linecap: square"/>
    </g>
    <g id="text_24">
     <!-- $\vec{f}$ -->
     <g transform="translate(387.840076 61.367937)scale(0.1 -0.1)">
      <defs>
       <path id="CMMI12-66" d="M 2854 2566 
C 2982 2566 3034 2566 3034 2688 
C 3034 2752 2982 2752 2867 2752 
L 2349 2752 
C 2470 3429 2560 3897 2611 4107 
C 2650 4265 2784 4416 2950 4416 
C 3085 4416 3219 4358 3283 4298 
C 3034 4272 2957 4082 2957 3969 
C 2957 3837 3053 3759 3174 3759 
C 3302 3759 3494 3870 3494 4119 
C 3494 4393 3226 4544 2944 4544 
C 2669 4544 2400 4334 2272 4078 
C 2157 3848 2093 3611 1946 2752 
L 1517 2752 
C 1395 2752 1331 2752 1331 2637 
C 1331 2566 1370 2566 1498 2566 
L 1907 2566 
C 1792 1976 1530 542 1382 -137 
C 1274 -689 1178 -1152 858 -1152 
C 838 -1152 653 -1152 538 -1031 
C 864 -1005 864 -726 864 -720 
C 864 -593 768 -517 646 -517 
C 518 -517 326 -625 326 -867 
C 326 -1140 608 -1280 858 -1280 
C 1510 -1280 1779 -118 1850 199 
C 1965 688 2278 2376 2310 2566 
L 2854 2566 
z
" transform="scale(0.015625)"/>
      </defs>
      <use xlink:href="#CMMI12-7e" transform="translate(13.568792 26.29016)scale(0.996264)"/>
      <use xlink:href="#CMMI12-66" transform="scale(0.996264)"/>
     </g>
    </g>
   </g>
  </g>
 </g>
 <defs>
  <clipPath id="p93448fc908">
   <rect x="57.6" y="0" width="345.6" height="345.6"/>
  </clipPath>
 </defs>
</svg>
