<?xml version="1.0" encoding="utf-8" standalone="no"?>
<!DOCTYPE svg PUBLIC "-//W3C//DTD SVG 1.1//EN"
  "http://www.w3.org/Graphics/SVG/1.1/DTD/svg11.dtd">
<svg xmlns:xlink="http://www.w3.org/1999/xlink" width="460.8pt" height="345.6pt" viewBox="0 0 460.8 345.6" xmlns="http://www.w3.org/2000/svg" version="1.1">
 <metadata>
  <rdf:RDF xmlns:dc="http://purl.org/dc/elements/1.1/" xmlns:cc="http://creativecommons.org/ns#" xmlns:rdf="http://www.w3.org/1999/02/22-rdf-syntax-ns#">
   <cc:Work>
    <dc:type rdf:resource="http://purl.org/dc/dcmitype/StillImage"/>
    <dc:date>2022-07-12T15:41:36.845886</dc:date>
    <dc:format>image/svg+xml</dc:format>
    <dc:creator>
     <cc:Agent>
      <dc:title>Matplotlib v3.5.1, https://matplotlib.org/</dc:title>
     </cc:Agent>
    </dc:creator>
   </cc:Work>
  </rdf:RDF>
 </metadata>
 <defs>
  <style type="text/css">*{stroke-linejoin: round; stroke-linecap: butt}</style>
 </defs>
 <g id="figure_1">
  <g id="patch_1">
   <path d="M 0 345.6 
L 460.8 345.6 
L 460.8 0 
L 0 0 
z
" style="fill: #ffffff"/>
  </g>
  <g id="patch_2">
   <path d="M 57.6 345.6 
L 403.2 345.6 
L 403.2 0 
L 57.6 0 
z
" style="fill: #ffffff"/>
  </g>
  <g id="pane3d_1">
   <g id="patch_3">
    <path d="M 296.818669 245.615812 
L 382.85015 254.603792 
L 382.85015 81.655667 
L 296.818669 90.643647 
" style="fill: #f2f2f2; opacity: 0.5; stroke: #f2f2f2; stroke-linejoin: miter"/>
   </g>
  </g>
  <g id="pane3d_2">
   <g id="patch_4">
    <path d="M 296.818669 245.615812 
L 97.443929 248.662404 
L 97.443929 87.597056 
L 296.818669 90.643647 
" style="fill: #e6e6e6; opacity: 0.5; stroke: #e6e6e6; stroke-linejoin: miter"/>
   </g>
  </g>
  <g id="pane3d_3">
   <g id="patch_5">
    <path d="M 296.818669 245.615812 
L 97.443929 248.662404 
L 163.121814 258.415537 
L 382.85015 254.603792 
" style="fill: #ececec; opacity: 0.5; stroke: #ececec; stroke-linejoin: miter"/>
   </g>
  </g>
  <g id="axis3d_1">
   <g id="line2d_1">
    <path d="M 382.85015 254.603792 
L 163.121814 258.415537 
" style="fill: none; stroke: #000000; stroke-width: 0.8; stroke-linecap: square"/>
   </g>
   <g id="text_1">
    <!-- x -->
    <g transform="translate(283.836837 286.880986)scale(0.16 -0.16)">
     <defs>
      <path id="CMSS17-78" d="M 1587 1414 
L 2656 2739 
L 2099 2739 
L 1363 1777 
L 602 2739 
L 32 2739 
L 1139 1414 
L 0 0 
L 563 0 
L 1363 1121 
L 2195 0 
L 2758 0 
L 1587 1414 
z
" transform="scale(0.015625)"/>
     </defs>
     <use xlink:href="#CMSS17-78" transform="scale(0.996264)"/>
    </g>
   </g>
   <g id="Line3DCollection_1">
    <path d="M 378.637559 254.67687 
L 292.979118 245.674483 
L 292.979118 90.584976 
" style="fill: none; stroke: #b0b0b0; stroke-width: 0.8"/>
    <path d="M 337.831456 255.384756 
L 255.821422 246.24228 
L 255.821422 90.01718 
" style="fill: none; stroke: #b0b0b0; stroke-width: 0.8"/>
    <path d="M 296.352326 256.104316 
L 218.115561 246.818453 
L 218.115561 89.441006 
" style="fill: none; stroke: #b0b0b0; stroke-width: 0.8"/>
    <path d="M 254.183382 256.835843 
L 179.849316 247.403189 
L 179.849316 88.85627 
" style="fill: none; stroke: #b0b0b0; stroke-width: 0.8"/>
    <path d="M 211.307269 257.579638 
L 141.0101 247.996681 
L 141.0101 88.262779 
" style="fill: none; stroke: #b0b0b0; stroke-width: 0.8"/>
    <path d="M 167.706051 258.336011 
L 101.584947 248.599126 
L 101.584947 87.660334 
" style="fill: none; stroke: #b0b0b0; stroke-width: 0.8"/>
   </g>
   <g id="xtick_1">
    <g id="line2d_2">
     <path d="M 377.873446 254.596565 
L 380.17005 254.83793 
" style="fill: none; stroke: #000000; stroke-width: 0.8; stroke-linecap: square"/>
    </g>
    <g id="text_2">
     <!-- $\mathdefault{0}$ -->
     <g transform="translate(382.300487 273.383527)scale(0.1 -0.1)">
      <defs>
       <path id="CMR17-30" d="M 2688 2025 
C 2688 2416 2682 3080 2413 3591 
C 2176 4039 1798 4198 1466 4198 
C 1158 4198 768 4058 525 3597 
C 269 3118 243 2524 243 2025 
C 243 1661 250 1106 448 619 
C 723 -39 1216 -128 1466 -128 
C 1760 -128 2208 -7 2470 600 
C 2662 1042 2688 1559 2688 2025 
z
M 1466 -26 
C 1056 -26 813 325 723 812 
C 653 1188 653 1738 653 2096 
C 653 2588 653 2997 736 3387 
C 858 3929 1216 4096 1466 4096 
C 1728 4096 2067 3923 2189 3400 
C 2272 3036 2278 2607 2278 2096 
C 2278 1680 2278 1169 2202 792 
C 2067 95 1690 -26 1466 -26 
z
" transform="scale(0.015625)"/>
      </defs>
      <use xlink:href="#CMR17-30" transform="scale(0.996264)"/>
     </g>
    </g>
   </g>
   <g id="xtick_2">
    <g id="line2d_3">
     <path d="M 337.099272 255.303132 
L 339.299945 255.548463 
" style="fill: none; stroke: #000000; stroke-width: 0.8; stroke-linecap: square"/>
    </g>
    <g id="text_3">
     <!-- $\mathdefault{1}$ -->
     <g transform="translate(341.23766 274.193889)scale(0.1 -0.1)">
      <defs>
       <path id="CMR17-31" d="M 1702 4058 
C 1702 4192 1696 4192 1606 4192 
C 1357 3916 979 3827 621 3827 
C 602 3827 570 3827 563 3808 
C 557 3795 557 3782 557 3648 
C 755 3648 1088 3686 1344 3839 
L 1344 461 
C 1344 236 1331 160 781 160 
L 589 160 
L 589 0 
C 896 0 1216 0 1523 0 
C 1830 0 2150 0 2458 0 
L 2458 160 
L 2266 160 
C 1715 160 1702 230 1702 458 
L 1702 4058 
z
" transform="scale(0.015625)"/>
      </defs>
      <use xlink:href="#CMR17-31" transform="scale(0.996264)"/>
     </g>
    </g>
   </g>
   <g id="xtick_3">
    <g id="line2d_4">
     <path d="M 295.653232 256.021341 
L 297.754482 256.270737 
" style="fill: none; stroke: #000000; stroke-width: 0.8; stroke-linecap: square"/>
    </g>
    <g id="text_4">
     <!-- $\mathdefault{2}$ -->
     <g transform="translate(299.492427 275.017719)scale(0.1 -0.1)">
      <defs>
       <path id="CMR17-32" d="M 2669 989 
L 2554 989 
C 2490 536 2438 459 2413 420 
C 2381 369 1920 369 1830 369 
L 602 369 
C 832 619 1280 1072 1824 1597 
C 2214 1967 2669 2402 2669 3035 
C 2669 3790 2067 4224 1395 4224 
C 691 4224 262 3604 262 3030 
C 262 2780 448 2748 525 2748 
C 589 2748 781 2787 781 3010 
C 781 3207 614 3264 525 3264 
C 486 3264 448 3258 422 3245 
C 544 3790 915 4058 1306 4058 
C 1862 4058 2227 3617 2227 3035 
C 2227 2479 1901 2000 1536 1584 
L 262 146 
L 262 0 
L 2515 0 
L 2669 989 
z
" transform="scale(0.015625)"/>
      </defs>
      <use xlink:href="#CMR17-32" transform="scale(0.996264)"/>
     </g>
    </g>
   </g>
   <g id="xtick_4">
    <g id="line2d_5">
     <path d="M 253.518582 256.751483 
L 255.516784 257.005046 
" style="fill: none; stroke: #000000; stroke-width: 0.8; stroke-linecap: square"/>
    </g>
    <g id="text_5">
     <!-- $\mathdefault{3}$ -->
     <g transform="translate(257.047635 275.855354)scale(0.1 -0.1)">
      <defs>
       <path id="CMR17-33" d="M 1414 2157 
C 1984 2157 2234 1662 2234 1090 
C 2234 320 1824 25 1453 25 
C 1114 25 563 194 390 693 
C 422 680 454 680 486 680 
C 640 680 755 782 755 948 
C 755 1133 614 1216 486 1216 
C 378 1216 211 1165 211 926 
C 211 335 787 -128 1466 -128 
C 2176 -128 2720 430 2720 1085 
C 2720 1707 2208 2157 1600 2227 
C 2086 2328 2554 2756 2554 3329 
C 2554 3820 2048 4179 1472 4179 
C 890 4179 378 3829 378 3329 
C 378 3110 544 3072 627 3072 
C 762 3072 877 3155 877 3321 
C 877 3486 762 3569 627 3569 
C 602 3569 570 3569 544 3557 
C 730 3959 1235 4032 1459 4032 
C 1683 4032 2106 3925 2106 3320 
C 2106 3143 2080 2828 1862 2550 
C 1670 2304 1453 2304 1242 2284 
C 1210 2284 1062 2269 1037 2269 
C 992 2263 966 2257 966 2208 
C 966 2163 973 2157 1101 2157 
L 1414 2157 
z
" transform="scale(0.015625)"/>
      </defs>
      <use xlink:href="#CMR17-33" transform="scale(0.996264)"/>
     </g>
    </g>
   </g>
   <g id="xtick_5">
    <g id="line2d_6">
     <path d="M 210.678018 257.493858 
L 212.569402 257.751693 
" style="fill: none; stroke: #000000; stroke-width: 0.8; stroke-linecap: square"/>
    </g>
    <g id="text_6">
     <!-- $\mathdefault{4}$ -->
     <g transform="translate(213.885552 276.707144)scale(0.1 -0.1)">
      <defs>
       <path id="CMR17-34" d="M 2150 4122 
C 2150 4256 2144 4256 2029 4256 
L 128 1254 
L 128 1088 
L 1779 1088 
L 1779 457 
C 1779 224 1766 160 1318 160 
L 1197 160 
L 1197 0 
C 1402 0 1747 0 1965 0 
C 2182 0 2528 0 2733 0 
L 2733 160 
L 2611 160 
C 2163 160 2150 224 2150 457 
L 2150 1088 
L 2803 1088 
L 2803 1254 
L 2150 1254 
L 2150 4122 
z
M 1798 3703 
L 1798 1254 
L 256 1254 
L 1798 3703 
z
" transform="scale(0.015625)"/>
      </defs>
      <use xlink:href="#CMR17-34" transform="scale(0.996264)"/>
     </g>
    </g>
   </g>
   <g id="xtick_6">
    <g id="line2d_7">
     <path d="M 167.113649 258.248775 
L 168.8943 258.510991 
" style="fill: none; stroke: #000000; stroke-width: 0.8; stroke-linecap: square"/>
    </g>
    <g id="text_7">
     <!-- $\mathdefault{5}$ -->
     <g transform="translate(169.987838 277.573452)scale(0.1 -0.1)">
      <defs>
       <path id="CMR17-35" d="M 730 3692 
C 794 3666 1056 3584 1325 3584 
C 1920 3584 2246 3911 2432 4100 
C 2432 4157 2432 4192 2394 4192 
C 2387 4192 2374 4192 2323 4163 
C 2099 4058 1837 3973 1517 3973 
C 1325 3973 1037 3999 723 4139 
C 653 4171 640 4171 634 4171 
C 602 4171 595 4164 595 4037 
L 595 2203 
C 595 2089 595 2057 659 2057 
C 691 2057 704 2070 736 2114 
C 941 2401 1222 2522 1542 2522 
C 1766 2522 2246 2382 2246 1289 
C 2246 1085 2246 715 2054 421 
C 1894 159 1645 25 1370 25 
C 947 25 518 320 403 814 
C 429 807 480 795 506 795 
C 589 795 749 840 749 1038 
C 749 1210 627 1280 506 1280 
C 358 1280 262 1190 262 1011 
C 262 454 704 -128 1382 -128 
C 2042 -128 2669 440 2669 1264 
C 2669 2030 2170 2624 1549 2624 
C 1222 2624 947 2503 730 2274 
L 730 3692 
z
" transform="scale(0.015625)"/>
      </defs>
      <use xlink:href="#CMR17-35" transform="scale(0.996264)"/>
     </g>
    </g>
   </g>
  </g>
  <g id="axis3d_2">
   <g id="line2d_8">
    <path d="M 97.443929 248.662404 
L 163.121814 258.415537 
" style="fill: none; stroke: #000000; stroke-width: 0.8; stroke-linecap: square"/>
   </g>
   <g id="text_8">
    <!-- y -->
    <g transform="translate(94.418218 281.524618)scale(0.16 -0.16)">
     <defs>
      <path id="CMSS17-79" d="M 2675 2752 
L 2176 2752 
C 1632 1294 1446 702 1434 383 
L 1427 383 
C 1408 696 1126 1460 902 2007 
L 602 2752 
L 83 2752 
L 1216 13 
C 1146 -178 1043 -465 1011 -529 
C 870 -885 774 -885 672 -885 
C 646 -885 442 -885 211 -809 
L 250 -1229 
C 410 -1261 570 -1280 685 -1280 
C 845 -1280 1165 -1280 1459 -497 
L 2675 2752 
z
" transform="scale(0.015625)"/>
     </defs>
     <use xlink:href="#CMSS17-79" transform="scale(0.996264)"/>
    </g>
   </g>
   <g id="Line3DCollection_2">
    <path d="M 305.870184 89.698007 
L 305.870184 246.561452 
L 104.325796 249.684357 
" style="fill: none; stroke: #b0b0b0; stroke-width: 0.8"/>
    <path d="M 321.347477 88.081045 
L 321.347477 248.178414 
L 116.108503 251.434084 
" style="fill: none; stroke: #b0b0b0; stroke-width: 0.8"/>
    <path d="M 337.476369 86.396009 
L 337.476369 249.86345 
L 128.407884 253.260535 
" style="fill: none; stroke: #b0b0b0; stroke-width: 0.8"/>
    <path d="M 354.298893 84.638507 
L 354.298893 251.620952 
L 141.258683 255.168873 
" style="fill: none; stroke: #b0b0b0; stroke-width: 0.8"/>
    <path d="M 371.860777 82.803762 
L 371.860777 253.455698 
L 154.698834 257.164728 
" style="fill: none; stroke: #b0b0b0; stroke-width: 0.8"/>
   </g>
   <g id="xtick_7">
    <g id="line2d_9">
     <path d="M 106.001816 249.658388 
L 100.97055 249.736347 
" style="fill: none; stroke: #000000; stroke-width: 0.8; stroke-linecap: square"/>
    </g>
    <g id="text_9">
     <!-- $\mathdefault{−4}$ -->
     <g transform="translate(84.537463 267.258294)scale(0.1 -0.1)">
      <defs>
       <path id="CMSY10-0" d="M 4218 1472 
C 4326 1472 4442 1472 4442 1600 
C 4442 1728 4326 1728 4218 1728 
L 755 1728 
C 646 1728 531 1728 531 1600 
C 531 1472 646 1472 755 1472 
L 4218 1472 
z
" transform="scale(0.015625)"/>
      </defs>
      <use xlink:href="#CMSY10-0" transform="scale(0.996264)"/>
      <use xlink:href="#CMR17-34" transform="translate(77.487468 0)scale(0.996264)"/>
     </g>
    </g>
   </g>
   <g id="xtick_8">
    <g id="line2d_10">
     <path d="M 117.816638 251.406988 
L 112.688898 251.488328 
" style="fill: none; stroke: #000000; stroke-width: 0.8; stroke-linecap: square"/>
    </g>
    <g id="text_10">
     <!-- $\mathdefault{−2}$ -->
     <g transform="translate(96.062124 269.241783)scale(0.1 -0.1)">
      <use xlink:href="#CMSY10-0" transform="scale(0.996264)"/>
      <use xlink:href="#CMR17-32" transform="translate(77.487468 0)scale(0.996264)"/>
     </g>
    </g>
   </g>
   <g id="xtick_9">
    <g id="line2d_11">
     <path d="M 130.149368 253.232239 
L 124.921438 253.317185 
" style="fill: none; stroke: #000000; stroke-width: 0.8; stroke-linecap: square"/>
    </g>
    <g id="text_11">
     <!-- $\mathdefault{0}$ -->
     <g transform="translate(111.967861 271.312479)scale(0.1 -0.1)">
      <use xlink:href="#CMR17-30" transform="scale(0.996264)"/>
     </g>
    </g>
   </g>
   <g id="xtick_10">
    <g id="line2d_12">
     <path d="M 143.034825 255.139293 
L 137.702773 255.228092 
" style="fill: none; stroke: #000000; stroke-width: 0.8; stroke-linecap: square"/>
    </g>
    <g id="text_12">
     <!-- $\mathdefault{2}$ -->
     <g transform="translate(124.540096 273.476264)scale(0.1 -0.1)">
      <use xlink:href="#CMR17-32" transform="scale(0.996264)"/>
     </g>
    </g>
   </g>
   <g id="xtick_11">
    <g id="line2d_13">
     <path d="M 156.511018 257.133777 
L 151.070683 257.226695 
" style="fill: none; stroke: #000000; stroke-width: 0.8; stroke-linecap: square"/>
    </g>
    <g id="text_13">
     <!-- $\mathdefault{4}$ -->
     <g transform="translate(137.690515 275.739559)scale(0.1 -0.1)">
      <use xlink:href="#CMR17-34" transform="scale(0.996264)"/>
     </g>
    </g>
   </g>
  </g>
  <g id="axis3d_3">
   <g id="line2d_14">
    <path d="M 97.443929 248.662404 
L 97.443929 87.597056 
" style="fill: none; stroke: #000000; stroke-width: 0.8; stroke-linecap: square"/>
   </g>
   <g id="text_14">
    <!-- z -->
    <g transform="translate(57.491246 172.114786)scale(0.16 -0.16)">
     <defs>
      <path id="CMSS17-7a" d="M 2400 2502 
L 2400 2750 
L 250 2750 
L 250 2368 
L 1069 2368 
C 1146 2368 1222 2368 1299 2368 
L 1747 2368 
L 166 261 
L 166 0 
L 2419 0 
L 2419 395 
L 1549 395 
C 1472 395 1395 395 1318 395 
L 826 395 
L 2400 2502 
z
" transform="scale(0.015625)"/>
     </defs>
     <use xlink:href="#CMSS17-7a" transform="scale(0.996264)"/>
    </g>
   </g>
   <g id="Line3DCollection_3">
    <path d="M 97.443929 245.441097 
L 296.818669 242.516369 
L 382.85015 251.14483 
" style="fill: none; stroke: #b0b0b0; stroke-width: 0.8"/>
    <path d="M 97.443929 214.51655 
L 296.818669 212.761713 
L 382.85015 217.93879 
" style="fill: none; stroke: #b0b0b0; stroke-width: 0.8"/>
    <path d="M 97.443929 183.592003 
L 296.818669 183.007058 
L 382.85015 184.73275 
" style="fill: none; stroke: #b0b0b0; stroke-width: 0.8"/>
    <path d="M 97.443929 152.667456 
L 296.818669 153.252402 
L 382.85015 151.52671 
" style="fill: none; stroke: #b0b0b0; stroke-width: 0.8"/>
    <path d="M 97.443929 121.74291 
L 296.818669 123.497746 
L 382.85015 118.32067 
" style="fill: none; stroke: #b0b0b0; stroke-width: 0.8"/>
    <path d="M 97.443929 90.818363 
L 296.818669 93.743091 
L 382.85015 85.11463 
" style="fill: none; stroke: #b0b0b0; stroke-width: 0.8"/>
   </g>
   <g id="xtick_12">
    <g id="line2d_15">
     <path d="M 99.101118 245.416787 
L 94.126422 245.489763 
" style="fill: none; stroke: #000000; stroke-width: 0.8; stroke-linecap: square"/>
    </g>
    <g id="text_15">
     <!-- $\mathdefault{0}$ -->
     <g transform="translate(78.046018 252.02171)scale(0.1 -0.1)">
      <use xlink:href="#CMR17-30" transform="scale(0.996264)"/>
     </g>
    </g>
   </g>
   <g id="xtick_13">
    <g id="line2d_16">
     <path d="M 99.101118 214.501964 
L 94.126422 214.54575 
" style="fill: none; stroke: #000000; stroke-width: 0.8; stroke-linecap: square"/>
    </g>
    <g id="text_16">
     <!-- $\mathdefault{1}$ -->
     <g transform="translate(78.046018 221.232317)scale(0.1 -0.1)">
      <use xlink:href="#CMR17-31" transform="scale(0.996264)"/>
     </g>
    </g>
   </g>
   <g id="xtick_14">
    <g id="line2d_17">
     <path d="M 99.101118 183.587141 
L 94.126422 183.601736 
" style="fill: none; stroke: #000000; stroke-width: 0.8; stroke-linecap: square"/>
    </g>
    <g id="text_17">
     <!-- $\mathdefault{2}$ -->
     <g transform="translate(78.046018 190.442925)scale(0.1 -0.1)">
      <use xlink:href="#CMR17-32" transform="scale(0.996264)"/>
     </g>
    </g>
   </g>
   <g id="xtick_15">
    <g id="line2d_18">
     <path d="M 99.101118 152.672318 
L 94.126422 152.657723 
" style="fill: none; stroke: #000000; stroke-width: 0.8; stroke-linecap: square"/>
    </g>
    <g id="text_18">
     <!-- $\mathdefault{3}$ -->
     <g transform="translate(78.046018 159.653532)scale(0.1 -0.1)">
      <use xlink:href="#CMR17-33" transform="scale(0.996264)"/>
     </g>
    </g>
   </g>
   <g id="xtick_16">
    <g id="line2d_19">
     <path d="M 99.101118 121.757496 
L 94.126422 121.71371 
" style="fill: none; stroke: #000000; stroke-width: 0.8; stroke-linecap: square"/>
    </g>
    <g id="text_19">
     <!-- $\mathdefault{4}$ -->
     <g transform="translate(78.046018 128.864139)scale(0.1 -0.1)">
      <use xlink:href="#CMR17-34" transform="scale(0.996264)"/>
     </g>
    </g>
   </g>
   <g id="xtick_17">
    <g id="line2d_20">
     <path d="M 99.101118 90.842673 
L 94.126422 90.769697 
" style="fill: none; stroke: #000000; stroke-width: 0.8; stroke-linecap: square"/>
    </g>
    <g id="text_20">
     <!-- $\mathdefault{5}$ -->
     <g transform="translate(78.046018 98.074746)scale(0.1 -0.1)">
      <use xlink:href="#CMR17-35" transform="scale(0.996264)"/>
     </g>
    </g>
   </g>
  </g>
  <g id="axes_1">
   <g id="line2d_21">
    <path d="M 333.458647 246.656773 
L 318.880642 86.393036 
" clip-path="url(#p98b711068b)" style="fill: none; stroke: #ff0000; stroke-width: 1.5; stroke-linecap: square"/>
   </g>
   <g id="line2d_22">
    <path d="M 333.458647 246.656773 
L 240.393261 121.28201 
" clip-path="url(#p98b711068b)" style="fill: none; stroke: #00ff00; stroke-width: 1.5; stroke-linecap: square"/>
   </g>
   <g id="line2d_23">
    <path d="M 333.458647 246.656773 
L 238.305534 -1 
" clip-path="url(#p98b711068b)" style="fill: none; stroke: #0016ff; stroke-width: 1.5; stroke-linecap: square"/>
   </g>
   <g id="line2d_24">
    <path d="M 333.458647 246.656773 
L 114.382399 152.317776 
" clip-path="url(#p98b711068b)" style="fill: none; stroke: #f400ff; stroke-width: 1.5; stroke-linecap: square"/>
   </g>
   <g id="Poly3DCollection_1">
    <path d="M 294.517288 354.625112 
L 275.973102 314.127861 
L 279.611076 303.577389 
L 298.235192 344.316895 
z
" clip-path="url(#p98b711068b)" style="fill: #0000f5; fill-opacity: 0.1"/>
    <path d="M 275.973102 314.127861 
L 257.292848 273.33346 
L 260.849612 262.537441 
L 279.611076 303.577389 
z
" clip-path="url(#p98b711068b)" style="fill: #0000f5; fill-opacity: 0.1"/>
    <path d="M 298.235192 344.316895 
L 279.611076 303.577389 
L 283.285957 292.919883 
L 301.990676 333.904486 
z
" clip-path="url(#p98b711068b)" style="fill: #0000f5; fill-opacity: 0.1"/>
    <path d="M 257.292848 273.33346 
L 238.475021 232.238624 
L 241.949275 221.193714 
L 260.849612 262.537441 
z
" clip-path="url(#p98b711068b)" style="fill: #0000f5; fill-opacity: 0.1"/>
    <path d="M 279.611076 303.577389 
L 260.849612 262.537441 
L 264.442593 251.631491 
L 283.285957 292.919883 
z
" clip-path="url(#p98b711068b)" style="fill: #0000f5; fill-opacity: 0.1"/>
    <path d="M 301.990676 333.904486 
L 283.285957 292.919883 
L 286.998309 282.153706 
L 305.784312 323.386297 
z
" clip-path="url(#p98b711068b)" style="fill: #0000f5; fill-opacity: 0.1"/>
    <path d="M 238.475021 232.238624 
L 219.518097 190.840024 
L 222.908518 179.542824 
L 241.949275 221.193714 
z
" clip-path="url(#p98b711068b)" style="fill: #0000f5; fill-opacity: 0.1"/>
    <path d="M 260.849612 262.537441 
L 241.949275 221.193714 
L 245.459037 210.035921 
L 264.442593 251.631491 
z
" clip-path="url(#p98b711068b)" style="fill: #0000f5; fill-opacity: 0.1"/>
    <path d="M 283.285957 292.919883 
L 264.442593 251.631491 
L 268.072346 240.613924 
L 286.998309 282.153706 
z
" clip-path="url(#p98b711068b)" style="fill: #0000f5; fill-opacity: 0.1"/>
    <path d="M 219.518097 190.840024 
L 200.420528 149.134279 
L 203.725769 137.581333 
L 222.908518 179.542824 
z
" clip-path="url(#p98b711068b)" style="fill: #0000f5; fill-opacity: 0.1"/>
    <path d="M 305.784312 323.386297 
L 286.998309 282.153706 
L 290.748709 271.277188 
L 309.616684 312.76071 
z
" clip-path="url(#p98b711068b)" style="fill: #0000f5; fill-opacity: 0.1"/>
    <path d="M 241.949275 221.193714 
L 222.908518 179.542824 
L 226.333719 168.12973 
L 245.459037 210.035921 
z
" clip-path="url(#p98b711068b)" style="fill: #0000f5; fill-opacity: 0.1"/>
    <path d="M 264.442593 251.631491 
L 245.459037 210.035921 
L 249.004854 198.763504 
L 268.072346 240.613924 
z
" clip-path="url(#p98b711068b)" style="fill: #0000f5; fill-opacity: 0.1"/>
    <path d="M 200.420528 149.134279 
L 181.180741 107.117958 
L 184.399436 95.305756 
L 203.725769 137.581333 
z
" clip-path="url(#p98b711068b)" style="fill: #0000f5; fill-opacity: 0.1"/>
    <path d="M 286.998309 282.153706 
L 268.072346 240.613924 
L 271.73944 229.483015 
L 290.748709 271.277188 
z
" clip-path="url(#p98b711068b)" style="fill: #0000f5; fill-opacity: 0.1"/>
    <path d="M 222.908518 179.542824 
L 203.725769 137.581333 
L 207.065045 125.909426 
L 226.333719 168.12973 
z
" clip-path="url(#p98b711068b)" style="fill: #0000f5; fill-opacity: 0.1"/>
    <path d="M 309.616684 312.76071 
L 290.748709 271.277188 
L 294.537744 260.288623 
L 313.488388 302.02607 
z
" clip-path="url(#p98b711068b)" style="fill: #0000f5; fill-opacity: 0.1"/>
    <path d="M 245.459037 210.035921 
L 226.333719 168.12973 
L 229.794239 156.59895 
L 249.004854 198.763504 
z
" clip-path="url(#p98b711068b)" style="fill: #0000f5; fill-opacity: 0.1"/>
    <path d="M 181.180741 107.117958 
L 161.797144 64.787579 
L 164.927898 52.712551 
L 184.399436 95.305756 
z
" clip-path="url(#p98b711068b)" style="fill: #0000f5; fill-opacity: 0.1"/>
    <path d="M 268.072346 240.613924 
L 249.004854 198.763504 
L 252.587285 187.37469 
L 271.73944 229.483015 
z
" clip-path="url(#p98b711068b)" style="fill: #0000f5; fill-opacity: 0.1"/>
    <path d="M 203.725769 137.581333 
L 184.399436 95.305756 
L 187.651397 83.371465 
L 207.065045 125.909426 
z
" clip-path="url(#p98b711068b)" style="fill: #0000f5; fill-opacity: 0.1"/>
    <path d="M 290.748709 271.277188 
L 271.73944 229.483015 
L 275.444454 218.237008 
L 294.537744 260.288623 
z
" clip-path="url(#p98b711068b)" style="fill: #0000f5; fill-opacity: 0.1"/>
    <path d="M 226.333719 168.12973 
L 207.065045 125.909426 
L 210.438883 114.116712 
L 229.794239 156.59895 
z
" clip-path="url(#p98b711068b)" style="fill: #0000f5; fill-opacity: 0.1"/>
    <path d="M 313.488388 302.02607 
L 294.537744 260.288623 
L 298.366015 249.186271 
L 317.400034 291.18069 
z
" clip-path="url(#p98b711068b)" style="fill: #0000f5; fill-opacity: 0.1"/>
    <path d="M 161.797144 64.787579 
L 142.268117 22.139607 
L 145.309515 9.798127 
L 164.927898 52.712551 
z
" clip-path="url(#p98b711068b)" style="fill: #0000f5; fill-opacity: 0.1"/>
    <path d="M 249.004854 198.763504 
L 229.794239 156.59895 
L 233.290627 144.948656 
L 252.587285 187.37469 
z
" clip-path="url(#p98b711068b)" style="fill: #0000f5; fill-opacity: 0.1"/>
    <path d="M 184.399436 95.305756 
L 164.927898 52.712551 
L 168.091134 40.512248 
L 187.651397 83.371465 
z
" clip-path="url(#p98b711068b)" style="fill: #0000f5; fill-opacity: 0.1"/>
    <path d="M 271.73944 229.483015 
L 252.587285 187.37469 
L 256.206901 175.867664 
L 275.444454 218.237008 
z
" clip-path="url(#p98b711068b)" style="fill: #0000f5; fill-opacity: 0.1"/>
    <path d="M 207.065045 125.909426 
L 187.651397 83.371465 
L 190.937145 71.313184 
L 210.438883 114.116712 
z
" clip-path="url(#p98b711068b)" style="fill: #0000f5; fill-opacity: 0.1"/>
    <path d="M 294.537744 260.288623 
L 275.444454 218.237008 
L 279.187978 206.874107 
L 298.366015 249.186271 
z
" clip-path="url(#p98b711068b)" style="fill: #0000f5; fill-opacity: 0.1"/>
    <path d="M 142.268117 22.139607 
L 122.592018 -20.829546 
L 125.542618 -33.441165 
L 145.309515 9.798127 
z
" clip-path="url(#p98b711068b)" style="fill: #0000f5; fill-opacity: 0.1"/>
    <path d="M 229.794239 156.59895 
L 210.438883 114.116712 
L 213.847824 102.201304 
L 233.290627 144.948656 
z
" clip-path="url(#p98b711068b)" style="fill: #0000f5; fill-opacity: 0.1"/>
    <path d="M 317.400034 291.18069 
L 298.366015 249.186271 
L 302.234134 237.968355 
L 321.352241 280.222847 
z
" clip-path="url(#p98b711068b)" style="fill: #0000f5; fill-opacity: 0.1"/>
    <path d="M 164.927898 52.712551 
L 145.309515 9.798127 
L 148.382586 -2.671878 
L 168.091134 40.512248 
z
" clip-path="url(#p98b711068b)" style="fill: #0000f5; fill-opacity: 0.1"/>
    <path d="M 252.587285 187.37469 
L 233.290627 144.948656 
L 236.823444 133.176978 
L 256.206901 175.867664 
z
" clip-path="url(#p98b711068b)" style="fill: #0000f5; fill-opacity: 0.1"/>
    <path d="M 187.651397 83.371465 
L 168.091134 40.512248 
L 171.287358 28.18471 
L 190.937145 71.313184 
z
" clip-path="url(#p98b711068b)" style="fill: #0000f5; fill-opacity: 0.1"/>
    <path d="M 275.444454 218.237008 
L 256.206901 175.867664 
L 259.864282 164.240579 
L 279.187978 206.874107 
z
" clip-path="url(#p98b711068b)" style="fill: #0000f5; fill-opacity: 0.1"/>
    <path d="M 210.438883 114.116712 
L 190.937145 71.313184 
L 194.257208 59.128971 
L 213.847824 102.201304 
z
" clip-path="url(#p98b711068b)" style="fill: #0000f5; fill-opacity: 0.1"/>
    <path d="M 298.366015 249.186271 
L 279.187978 206.874107 
L 282.970616 195.392481 
L 302.234134 237.968355 
z
" clip-path="url(#p98b711068b)" style="fill: #0000f5; fill-opacity: 0.1"/>
    <path d="M 145.309515 9.798127 
L 125.542618 -33.441165 
L 128.524063 -46.184622 
L 148.382586 -2.671878 
z
" clip-path="url(#p98b711068b)" style="fill: #0000f5; fill-opacity: 0.1"/>
    <path d="M 233.290627 144.948656 
L 213.847824 102.201304 
L 217.292416 90.161279 
L 236.823444 133.176978 
z
" clip-path="url(#p98b711068b)" style="fill: #0000f5; fill-opacity: 0.1"/>
    <path d="M 321.352241 280.222847 
L 302.234134 237.968355 
L 306.142726 226.633063 
L 325.345646 269.150783 
z
" clip-path="url(#p98b711068b)" style="fill: #0000f5; fill-opacity: 0.1"/>
    <path d="M 168.091134 40.512248 
L 148.382586 -2.671878 
L 151.487828 -15.272426 
L 171.287358 28.18471 
z
" clip-path="url(#p98b711068b)" style="fill: #0000f5; fill-opacity: 0.1"/>
    <path d="M 256.206901 175.867664 
L 236.823444 133.176978 
L 240.393261 121.28201 
L 259.864282 164.240579 
z
" clip-path="url(#p98b711068b)" style="fill: #0000f5; fill-opacity: 0.1"/>
    <path d="M 190.937145 71.313184 
L 171.287358 28.18471 
L 174.51709 15.727935 
L 194.257208 59.128971 
z
" clip-path="url(#p98b711068b)" style="fill: #0000f5; fill-opacity: 0.1"/>
    <path d="M 279.187978 206.874107 
L 259.864282 164.240579 
L 263.560023 152.491543 
L 282.970616 195.392481 
z
" clip-path="url(#p98b711068b)" style="fill: #0000f5; fill-opacity: 0.1"/>
    <path d="M 213.847824 102.201304 
L 194.257208 59.128971 
L 197.612127 46.816841 
L 217.292416 90.161279 
z
" clip-path="url(#p98b711068b)" style="fill: #0000f5; fill-opacity: 0.1"/>
    <path d="M 302.234134 237.968355 
L 282.970616 195.392481 
L 286.792985 183.790259 
L 306.142726 226.633063 
z
" clip-path="url(#p98b711068b)" style="fill: #0000f5; fill-opacity: 0.1"/>
    <path d="M 148.382586 -2.671878 
L 128.524063 -46.184622 
L 131.536839 -59.061995 
L 151.487828 -15.272426 
z
" clip-path="url(#p98b711068b)" style="fill: #0000f5; fill-opacity: 0.1"/>
    <path d="M 236.823444 133.176978 
L 217.292416 90.161279 
L 220.773224 77.99467 
L 240.393261 121.28201 
z
" clip-path="url(#p98b711068b)" style="fill: #0000f5; fill-opacity: 0.1"/>
    <path d="M 325.345646 269.150783 
L 306.142726 226.633063 
L 310.092431 215.178541 
L 329.380894 257.962702 
z
" clip-path="url(#p98b711068b)" style="fill: #0000f5; fill-opacity: 0.1"/>
    <path d="M 171.287358 28.18471 
L 151.487828 -15.272426 
L 154.625749 -28.005579 
L 174.51709 15.727935 
z
" clip-path="url(#p98b711068b)" style="fill: #0000f5; fill-opacity: 0.1"/>
    <path d="M 259.864282 164.240579 
L 240.393261 121.28201 
L 244.000663 109.261805 
L 263.560023 152.491543 
z
" clip-path="url(#p98b711068b)" style="fill: #0000f5; fill-opacity: 0.1"/>
    <path d="M 194.257208 59.128971 
L 174.51709 15.727935 
L 177.780859 3.139881 
L 197.612127 46.816841 
z
" clip-path="url(#p98b711068b)" style="fill: #0000f5; fill-opacity: 0.1"/>
    <path d="M 282.970616 195.392481 
L 263.560023 152.491543 
L 267.294731 140.61863 
L 286.792985 183.790259 
z
" clip-path="url(#p98b711068b)" style="fill: #0000f5; fill-opacity: 0.1"/>
    <path d="M 217.292416 90.161279 
L 197.612127 46.816841 
L 201.002454 34.37477 
L 220.773224 77.99467 
z
" clip-path="url(#p98b711068b)" style="fill: #0000f5; fill-opacity: 0.1"/>
    <path d="M 306.142726 226.633063 
L 286.792985 183.790259 
L 290.655714 172.065532 
L 310.092431 215.178541 
z
" clip-path="url(#p98b711068b)" style="fill: #0000f5; fill-opacity: 0.1"/>
    <path d="M 151.487828 -15.272426 
L 131.536839 -59.061995 
L 134.581443 -72.075408 
L 154.625749 -28.005579 
z
" clip-path="url(#p98b711068b)" style="fill: #0000f5; fill-opacity: 0.1"/>
    <path d="M 240.393261 121.28201 
L 220.773224 77.99467 
L 224.290821 65.699471 
L 244.000663 109.261805 
z
" clip-path="url(#p98b711068b)" style="fill: #0000f5; fill-opacity: 0.1"/>
    <path d="M 329.380894 257.962702 
L 310.092431 215.178541 
L 314.0839 203.602899 
L 333.458647 246.656773 
z
" clip-path="url(#p98b711068b)" style="fill: #0000f5; fill-opacity: 0.1"/>
    <path d="M 174.51709 15.727935 
L 154.625749 -28.005579 
L 157.796867 -40.873441 
L 177.780859 3.139881 
z
" clip-path="url(#p98b711068b)" style="fill: #0000f5; fill-opacity: 0.1"/>
    <path d="M 263.560023 152.491543 
L 244.000663 109.261805 
L 247.646248 97.114374 
L 267.294731 140.61863 
z
" clip-path="url(#p98b711068b)" style="fill: #0000f5; fill-opacity: 0.1"/>
    <path d="M 197.612127 46.816841 
L 177.780859 3.139881 
L 181.079207 -9.581538 
L 201.002454 34.37477 
z
" clip-path="url(#p98b711068b)" style="fill: #0000f5; fill-opacity: 0.1"/>
    <path d="M 286.792985 183.790259 
L 267.294731 140.61863 
L 271.069025 128.619869 
L 290.655714 172.065532 
z
" clip-path="url(#p98b711068b)" style="fill: #0000f5; fill-opacity: 0.1"/>
    <path d="M 220.773224 77.99467 
L 201.002454 34.37477 
L 204.428751 21.800689 
L 224.290821 65.699471 
z
" clip-path="url(#p98b711068b)" style="fill: #0000f5; fill-opacity: 0.1"/>
    <path d="M 310.092431 215.178541 
L 290.655714 172.065532 
L 294.559444 160.216348 
L 314.0839 203.602899 
z
" clip-path="url(#p98b711068b)" style="fill: #0000f5; fill-opacity: 0.1"/>
    <path d="M 154.625749 -28.005579 
L 134.581443 -72.075408 
L 137.65838 -85.227026 
L 157.796867 -40.873441 
z
" clip-path="url(#p98b711068b)" style="fill: #0000f5; fill-opacity: 0.1"/>
    <path d="M 244.000663 109.261805 
L 224.290821 65.699471 
L 227.845792 53.273633 
L 247.646248 97.114374 
z
" clip-path="url(#p98b711068b)" style="fill: #0000f5; fill-opacity: 0.1"/>
    <path d="M 333.458647 246.656773 
L 314.0839 203.602899 
L 318.117799 191.904205 
L 337.579581 235.231122 
z
" clip-path="url(#p98b711068b)" style="fill: #0000f5; fill-opacity: 0.1"/>
    <path d="M 177.780859 3.139881 
L 157.796867 -40.873441 
L 161.001711 -53.87816 
L 181.079207 -9.581538 
z
" clip-path="url(#p98b711068b)" style="fill: #0000f5; fill-opacity: 0.1"/>
    <path d="M 267.294731 140.61863 
L 247.646248 97.114374 
L 251.330623 84.837688 
L 271.069025 128.619869 
z
" clip-path="url(#p98b711068b)" style="fill: #0000f5; fill-opacity: 0.1"/>
    <path d="M 201.002454 34.37477 
L 181.079207 -9.581538 
L 184.412685 -22.438454 
L 204.428751 21.800689 
z
" clip-path="url(#p98b711068b)" style="fill: #0000f5; fill-opacity: 0.1"/>
    <path d="M 290.655714 172.065532 
L 271.069025 128.619869 
L 274.883538 116.493249 
L 294.559444 160.216348 
z
" clip-path="url(#p98b711068b)" style="fill: #0000f5; fill-opacity: 0.1"/>
    <path d="M 224.290821 65.699471 
L 204.428751 21.800689 
L 207.891595 9.092488 
L 227.845792 53.273633 
z
" clip-path="url(#p98b711068b)" style="fill: #0000f5; fill-opacity: 0.1"/>
    <path d="M 314.0839 203.602899 
L 294.559444 160.216348 
L 298.504834 148.240715 
L 318.117799 191.904205 
z
" clip-path="url(#p98b711068b)" style="fill: #0000f5; fill-opacity: 0.1"/>
    <path d="M 157.796867 -40.873441 
L 137.65838 -85.227026 
L 140.76817 -98.519063 
L 161.001711 -53.87816 
z
" clip-path="url(#p98b711068b)" style="fill: #0000f5; fill-opacity: 0.1"/>
    <path d="M 247.646248 97.114374 
L 227.845792 53.273633 
L 231.438738 40.715063 
L 251.330623 84.837688 
z
" clip-path="url(#p98b711068b)" style="fill: #0000f5; fill-opacity: 0.1"/>
    <path d="M 337.579581 235.231122 
L 318.117799 191.904205 
L 322.194809 180.080487 
L 341.744385 223.683838 
z
" clip-path="url(#p98b711068b)" style="fill: #0000f5; fill-opacity: 0.1"/>
    <path d="M 181.079207 -9.581538 
L 161.001711 -53.87816 
L 164.240824 -67.021932 
L 184.412685 -22.438454 
z
" clip-path="url(#p98b711068b)" style="fill: #0000f5; fill-opacity: 0.1"/>
    <path d="M 271.069025 128.619869 
L 251.330623 84.837688 
L 255.054412 72.429671 
L 274.883538 116.493249 
z
" clip-path="url(#p98b711068b)" style="fill: #0000f5; fill-opacity: 0.1"/>
    <path d="M 204.428751 21.800689 
L 184.412685 -22.438454 
L 187.781859 -35.433042 
L 207.891595 9.092488 
z
" clip-path="url(#p98b711068b)" style="fill: #0000f5; fill-opacity: 0.1"/>
    <path d="M 294.559444 160.216348 
L 274.883538 116.493249 
L 278.738917 104.236714 
L 298.504834 148.240715 
z
" clip-path="url(#p98b711068b)" style="fill: #0000f5; fill-opacity: 0.1"/>
    <path d="M 227.845792 53.273633 
L 207.891595 9.092488 
L 211.391574 -3.751992 
L 231.438738 40.715063 
z
" clip-path="url(#p98b711068b)" style="fill: #0000f5; fill-opacity: 0.1"/>
    <path d="M 318.117799 191.904205 
L 298.504834 148.240715 
L 302.492553 136.136598 
L 322.194809 180.080487 
z
" clip-path="url(#p98b711068b)" style="fill: #0000f5; fill-opacity: 0.1"/>
    <path d="M 161.001711 -53.87816 
L 140.76817 -98.519063 
L 143.911342 -111.953781 
L 164.240824 -67.021932 
z
" clip-path="url(#p98b711068b)" style="fill: #0000f5; fill-opacity: 0.1"/>
    <path d="M 251.330623 84.837688 
L 231.438738 40.715063 
L 235.07027 28.021621 
L 255.054412 72.429671 
z
" clip-path="url(#p98b711068b)" style="fill: #0000f5; fill-opacity: 0.1"/>
    <path d="M 341.744385 223.683838 
L 322.194809 180.080487 
L 326.315624 168.12973 
L 345.953763 212.012968 
z
" clip-path="url(#p98b711068b)" style="fill: #0000f5; fill-opacity: 0.1"/>
    <path d="M 184.412685 -22.438454 
L 164.240824 -67.021932 
L 167.514757 -80.306999 
L 187.781859 -35.433042 
z
" clip-path="url(#p98b711068b)" style="fill: #0000f5; fill-opacity: 0.1"/>
    <path d="M 274.883538 116.493249 
L 255.054412 72.429671 
L 258.818251 59.888205 
L 278.738917 104.236714 
z
" clip-path="url(#p98b711068b)" style="fill: #0000f5; fill-opacity: 0.1"/>
    <path d="M 207.891595 9.092488 
L 187.781859 -35.433042 
L 191.187304 -48.567526 
L 211.391574 -3.751992 
z
" clip-path="url(#p98b711068b)" style="fill: #0000f5; fill-opacity: 0.1"/>
    <path d="M 298.504834 148.240715 
L 278.738917 104.236714 
L 282.635821 91.848167 
L 302.492553 136.136598 
z
" clip-path="url(#p98b711068b)" style="fill: #0000f5; fill-opacity: 0.1"/>
    <path d="M 231.438738 40.715063 
L 211.391574 -3.751992 
L 214.929287 -16.734955 
L 235.07027 28.021621 
z
" clip-path="url(#p98b711068b)" style="fill: #0000f5; fill-opacity: 0.1"/>
    <path d="M 322.194809 180.080487 
L 302.492553 136.136598 
L 306.523285 123.901919 
L 326.315624 168.12973 
z
" clip-path="url(#p98b711068b)" style="fill: #0000f5; fill-opacity: 0.1"/>
    <path d="M 164.240824 -67.021932 
L 143.911342 -111.953781 
L 147.088435 -125.533488 
L 167.514757 -80.306999 
z
" clip-path="url(#p98b711068b)" style="fill: #0000f5; fill-opacity: 0.1"/>
    <path d="M 255.054412 72.429671 
L 235.07027 28.021621 
L 238.741013 15.191125 
L 258.818251 59.888205 
z
" clip-path="url(#p98b711068b)" style="fill: #0000f5; fill-opacity: 0.1"/>
    <path d="M 345.953763 212.012968 
L 326.315624 168.12973 
L 330.480953 156.049875 
L 350.208434 200.216518 
z
" clip-path="url(#p98b711068b)" style="fill: #0000f5; fill-opacity: 0.1"/>
    <path d="M 187.781859 -35.433042 
L 167.514757 -80.306999 
L 170.824074 -93.735651 
L 191.187304 -48.567526 
z
" clip-path="url(#p98b711068b)" style="fill: #0000f5; fill-opacity: 0.1"/>
    <path d="M 278.738917 104.236714 
L 258.818251 59.888205 
L 262.622789 47.211126 
L 282.635821 91.848167 
z
" clip-path="url(#p98b711068b)" style="fill: #0000f5; fill-opacity: 0.1"/>
    <path d="M 211.391574 -3.751992 
L 191.187304 -48.567526 
L 194.629609 -61.844177 
L 214.929287 -16.734955 
z
" clip-path="url(#p98b711068b)" style="fill: #0000f5; fill-opacity: 0.1"/>
    <path d="M 302.492553 136.136598 
L 282.635821 91.848167 
L 286.574925 79.325463 
L 306.523285 123.901919 
z
" clip-path="url(#p98b711068b)" style="fill: #0000f5; fill-opacity: 0.1"/>
    <path d="M 235.07027 28.021621 
L 214.929287 -16.734955 
L 218.505349 -29.858652 
L 238.741013 15.191125 
z
" clip-path="url(#p98b711068b)" style="fill: #0000f5; fill-opacity: 0.1"/>
    <path d="M 326.315624 168.12973 
L 306.523285 123.901919 
L 310.597732 111.534554 
L 330.480953 156.049875 
z
" clip-path="url(#p98b711068b)" style="fill: #0000f5; fill-opacity: 0.1"/>
    <path d="M 167.514757 -80.306999 
L 147.088435 -125.533488 
L 150.300002 -139.260545 
L 170.824074 -93.735651 
z
" clip-path="url(#p98b711068b)" style="fill: #0000f5; fill-opacity: 0.1"/>
    <path d="M 258.818251 59.888205 
L 238.741013 15.191125 
L 242.451605 2.221341 
L 262.622789 47.211126 
z
" clip-path="url(#p98b711068b)" style="fill: #0000f5; fill-opacity: 0.1"/>
    <path d="M 350.208434 200.216518 
L 330.480953 156.049875 
L 334.691523 143.838819 
L 354.509134 188.292449 
z
" clip-path="url(#p98b711068b)" style="fill: #0000f5; fill-opacity: 0.1"/>
    <path d="M 191.187304 -48.567526 
L 170.824074 -93.735651 
L 174.169353 -107.31023 
L 194.629609 -61.844177 
z
" clip-path="url(#p98b711068b)" style="fill: #0000f5; fill-opacity: 0.1"/>
    <path d="M 282.635821 91.848167 
L 262.622789 47.211126 
L 266.46869 34.396221 
L 286.574925 79.325463 
z
" clip-path="url(#p98b711068b)" style="fill: #0000f5; fill-opacity: 0.1"/>
    <path d="M 214.929287 -16.734955 
L 194.629609 -61.844177 
L 198.109377 -75.265317 
L 218.505349 -29.858652 
z
" clip-path="url(#p98b711068b)" style="fill: #0000f5; fill-opacity: 0.1"/>
    <path d="M 306.523285 123.901919 
L 286.574925 79.325463 
L 290.556918 66.66641 
L 310.597732 111.534554 
z
" clip-path="url(#p98b711068b)" style="fill: #0000f5; fill-opacity: 0.1"/>
    <path d="M 238.741013 15.191125 
L 218.505349 -29.858652 
L 222.120386 -43.125384 
L 242.451605 2.221341 
z
" clip-path="url(#p98b711068b)" style="fill: #0000f5; fill-opacity: 0.1"/>
    <path d="M 330.480953 156.049875 
L 310.597732 111.534554 
L 314.716607 99.032332 
L 334.691523 143.838819 
z
" clip-path="url(#p98b711068b)" style="fill: #0000f5; fill-opacity: 0.1"/>
    <path d="M 170.824074 -93.735651 
L 150.300002 -139.260545 
L 153.546607 -153.137364 
L 174.169353 -107.31023 
z
" clip-path="url(#p98b711068b)" style="fill: #0000f5; fill-opacity: 0.1"/>
    <path d="M 262.622789 47.211126 
L 242.451605 2.221341 
L 246.202699 -10.89001 
L 266.46869 34.396221 
z
" clip-path="url(#p98b711068b)" style="fill: #0000f5; fill-opacity: 0.1"/>
    <path d="M 354.509134 188.292449 
L 334.691523 143.838819 
L 338.948074 131.494413 
L 358.856614 176.23868 
z
" clip-path="url(#p98b711068b)" style="fill: #0000f5; fill-opacity: 0.1"/>
    <path d="M 194.629609 -61.844177 
L 174.169353 -107.31023 
L 177.551183 -121.033126 
L 198.109377 -75.265317 
z
" clip-path="url(#p98b711068b)" style="fill: #0000f5; fill-opacity: 0.1"/>
    <path d="M 286.574925 79.325463 
L 266.46869 34.396221 
L 270.356632 21.441232 
L 290.556918 66.66641 
z
" clip-path="url(#p98b711068b)" style="fill: #0000f5; fill-opacity: 0.1"/>
    <path d="M 218.505349 -29.858652 
L 198.109377 -75.265317 
L 201.627221 -88.833315 
L 222.120386 -43.125384 
z
" clip-path="url(#p98b711068b)" style="fill: #0000f5; fill-opacity: 0.1"/>
    <path d="M 310.597732 111.534554 
L 290.556918 66.66641 
L 294.582505 53.86877 
L 314.716607 99.032332 
z
" clip-path="url(#p98b711068b)" style="fill: #0000f5; fill-opacity: 0.1"/>
    <path d="M 242.451605 2.221341 
L 222.120386 -43.125384 
L 225.77504 -56.537503 
L 246.202699 -10.89001 
z
" clip-path="url(#p98b711068b)" style="fill: #0000f5; fill-opacity: 0.1"/>
    <path d="M 334.691523 143.838819 
L 314.716607 99.032332 
L 318.880642 86.393036 
L 338.948074 131.494413 
z
" clip-path="url(#p98b711068b)" style="fill: #0000f5; fill-opacity: 0.1"/>
    <path d="M 174.169353 -107.31023 
L 153.546607 -153.137364 
L 156.828826 -167.166408 
L 177.551183 -121.033126 
z
" clip-path="url(#p98b711068b)" style="fill: #0000f5; fill-opacity: 0.1"/>
    <path d="M 266.46869 34.396221 
L 246.202699 -10.89001 
L 249.994961 -24.145259 
L 270.356632 21.441232 
z
" clip-path="url(#p98b711068b)" style="fill: #0000f5; fill-opacity: 0.1"/>
    <path d="M 358.856614 176.23868 
L 338.948074 131.494413 
L 343.251364 119.014461 
L 363.251641 164.053083 
z
" clip-path="url(#p98b711068b)" style="fill: #0000f5; fill-opacity: 0.1"/>
    <path d="M 198.109377 -75.265317 
L 177.551183 -121.033126 
L 180.970167 -134.906785 
L 201.627221 -88.833315 
z
" clip-path="url(#p98b711068b)" style="fill: #0000f5; fill-opacity: 0.1"/>
    <path d="M 290.556918 66.66641 
L 270.356632 21.441232 
L 274.287308 8.343848 
L 294.582505 53.86877 
z
" clip-path="url(#p98b711068b)" style="fill: #0000f5; fill-opacity: 0.1"/>
    <path d="M 222.120386 -43.125384 
L 201.627221 -88.833315 
L 205.183771 -102.550597 
L 225.77504 -56.537503 
z
" clip-path="url(#p98b711068b)" style="fill: #0000f5; fill-opacity: 0.1"/>
    <path d="M 314.716607 99.032332 
L 294.582505 53.86877 
L 298.652406 40.930255 
L 318.880642 86.393036 
z
" clip-path="url(#p98b711068b)" style="fill: #0000f5; fill-opacity: 0.1"/>
    <path d="M 246.202699 -10.89001 
L 225.77504 -56.537503 
L 229.469965 -70.097411 
L 249.994961 -24.145259 
z
" clip-path="url(#p98b711068b)" style="fill: #0000f5; fill-opacity: 0.1"/>
    <path d="M 338.948074 131.494413 
L 318.880642 86.393036 
L 323.090582 73.614398 
L 343.251364 119.014461 
z
" clip-path="url(#p98b711068b)" style="fill: #0000f5; fill-opacity: 0.1"/>
    <path d="M 177.551183 -121.033126 
L 156.828826 -167.166408 
L 160.147249 -181.350195 
L 180.970167 -134.906785 
z
" clip-path="url(#p98b711068b)" style="fill: #0000f5; fill-opacity: 0.1"/>
    <path d="M 270.356632 21.441232 
L 249.994961 -24.145259 
L 253.829074 -37.546788 
L 274.287308 8.343848 
z
" clip-path="url(#p98b711068b)" style="fill: #0000f5; fill-opacity: 0.1"/>
    <path d="M 363.251641 164.053083 
L 343.251364 119.014461 
L 347.602166 106.396718 
L 367.694999 151.733483 
z
" clip-path="url(#p98b711068b)" style="fill: #0000f5; fill-opacity: 0.1"/>
    <path d="M 201.627221 -88.833315 
L 180.970167 -134.906785 
L 184.426919 -148.933703 
L 205.183771 -102.550597 
z
" clip-path="url(#p98b711068b)" style="fill: #0000f5; fill-opacity: 0.1"/>
    <path d="M 294.582505 53.86877 
L 274.287308 8.343848 
L 278.261427 -4.898291 
L 298.652406 40.930255 
z
" clip-path="url(#p98b711068b)" style="fill: #0000f5; fill-opacity: 0.1"/>
    <path d="M 225.77504 -56.537503 
L 205.183771 -102.550597 
L 208.779669 -116.41964 
L 229.469965 -70.097411 
z
" clip-path="url(#p98b711068b)" style="fill: #0000f5; fill-opacity: 0.1"/>
    <path d="M 318.880642 86.393036 
L 298.652406 40.930255 
L 302.767356 27.848524 
L 323.090582 73.614398 
z
" clip-path="url(#p98b711068b)" style="fill: #0000f5; fill-opacity: 0.1"/>
    <path d="M 249.994961 -24.145259 
L 229.469965 -70.097411 
L 233.205829 -83.807564 
L 253.829074 -37.546788 
z
" clip-path="url(#p98b711068b)" style="fill: #0000f5; fill-opacity: 0.1"/>
    <path d="M 343.251364 119.014461 
L 323.090582 73.614398 
L 327.347193 60.694101 
L 347.602166 106.396718 
z
" clip-path="url(#p98b711068b)" style="fill: #0000f5; fill-opacity: 0.1"/>
    <path d="M 180.970167 -134.906785 
L 160.147249 -181.350195 
L 163.502478 -195.691302 
L 184.426919 -148.933703 
z
" clip-path="url(#p98b711068b)" style="fill: #0000f5; fill-opacity: 0.1"/>
    <path d="M 274.287308 8.343848 
L 253.829074 -37.546788 
L 257.705732 -51.097032 
L 278.261427 -4.898291 
z
" clip-path="url(#p98b711068b)" style="fill: #0000f5; fill-opacity: 0.1"/>
    <path d="M 367.694999 151.733483 
L 347.602166 106.396718 
L 352.001273 93.638888 
L 372.187489 139.277658 
z
" clip-path="url(#p98b711068b)" style="fill: #0000f5; fill-opacity: 0.1"/>
    <path d="M 205.183771 -102.550597 
L 184.426919 -148.933703 
L 187.92207 -163.116435 
L 208.779669 -116.41964 
z
" clip-path="url(#p98b711068b)" style="fill: #0000f5; fill-opacity: 0.1"/>
    <path d="M 298.652406 40.930255 
L 278.261427 -4.898291 
L 282.279713 -18.287598 
L 302.767356 27.848524 
z
" clip-path="url(#p98b711068b)" style="fill: #0000f5; fill-opacity: 0.1"/>
    <path d="M 229.469965 -70.097411 
L 208.779669 -116.41964 
L 212.415571 -130.442975 
L 233.205829 -83.807564 
z
" clip-path="url(#p98b711068b)" style="fill: #0000f5; fill-opacity: 0.1"/>
    <path d="M 323.090582 73.614398 
L 302.767356 27.848524 
L 306.928107 14.621188 
L 327.347193 60.694101 
z
" clip-path="url(#p98b711068b)" style="fill: #0000f5; fill-opacity: 0.1"/>
    <path d="M 253.829074 -37.546788 
L 233.205829 -83.807564 
L 236.983319 -97.670474 
L 257.705732 -51.097032 
z
" clip-path="url(#p98b711068b)" style="fill: #0000f5; fill-opacity: 0.1"/>
    <path d="M 347.602166 106.396718 
L 327.347193 60.694101 
L 331.651253 47.629778 
L 352.001273 93.638888 
z
" clip-path="url(#p98b711068b)" style="fill: #0000f5; fill-opacity: 0.1"/>
    <path d="M 184.426919 -148.933703 
L 163.502478 -195.691302 
L 166.895129 -210.192359 
L 187.92207 -163.116435 
z
" clip-path="url(#p98b711068b)" style="fill: #0000f5; fill-opacity: 0.1"/>
    <path d="M 278.261427 -4.898291 
L 257.705732 -51.097032 
L 261.62565 -64.798481 
L 282.279713 -18.287598 
z
" clip-path="url(#p98b711068b)" style="fill: #0000f5; fill-opacity: 0.1"/>
    <path d="M 208.779669 -116.41964 
L 187.92207 -163.116435 
L 191.456262 -177.457592 
L 212.415571 -130.442975 
z
" clip-path="url(#p98b711068b)" style="fill: #0000f5; fill-opacity: 0.1"/>
    <path d="M 302.767356 27.848524 
L 282.279713 -18.287598 
L 286.342906 -31.826541 
L 306.928107 14.621188 
z
" clip-path="url(#p98b711068b)" style="fill: #0000f5; fill-opacity: 0.1"/>
    <path d="M 233.205829 -83.807564 
L 212.415571 -130.442975 
L 216.092149 -144.623193 
L 236.983319 -97.670474 
z
" clip-path="url(#p98b711068b)" style="fill: #0000f5; fill-opacity: 0.1"/>
    <path d="M 327.347193 60.694101 
L 306.928107 14.621188 
L 311.135428 1.245802 
L 331.651253 47.629778 
z
" clip-path="url(#p98b711068b)" style="fill: #0000f5; fill-opacity: 0.1"/>
    <path d="M 257.705732 -51.097032 
L 236.983319 -97.670474 
L 240.803132 -111.688708 
L 261.62565 -64.798481 
z
" clip-path="url(#p98b711068b)" style="fill: #0000f5; fill-opacity: 0.1"/>
    <path d="M 187.92207 -163.116435 
L 166.895129 -210.192359 
L 170.325831 -224.856057 
L 191.456262 -177.457592 
z
" clip-path="url(#p98b711068b)" style="fill: #0000f5; fill-opacity: 0.1"/>
    <path d="M 282.279713 -18.287598 
L 261.62565 -64.798481 
L 265.589555 -78.653678 
L 286.342906 -31.826541 
z
" clip-path="url(#p98b711068b)" style="fill: #0000f5; fill-opacity: 0.1"/>
    <path d="M 212.415571 -130.442975 
L 191.456262 -177.457592 
L 195.030154 -191.959842 
L 216.092149 -144.623193 
z
" clip-path="url(#p98b711068b)" style="fill: #0000f5; fill-opacity: 0.1"/>
    <path d="M 306.928107 14.621188 
L 286.342906 -31.826541 
L 290.451763 -45.517642 
L 311.135428 1.245802 
z
" clip-path="url(#p98b711068b)" style="fill: #0000f5; fill-opacity: 0.1"/>
    <path d="M 236.983319 -97.670474 
L 216.092149 -144.623193 
L 219.810089 -158.962941 
L 240.803132 -111.688708 
z
" clip-path="url(#p98b711068b)" style="fill: #0000f5; fill-opacity: 0.1"/>
    <path d="M 261.62565 -64.798481 
L 240.803132 -111.688708 
L 244.665985 -125.864892 
L 265.589555 -78.653678 
z
" clip-path="url(#p98b711068b)" style="fill: #0000f5; fill-opacity: 0.1"/>
    <path d="M 191.456262 -177.457592 
L 170.325831 -224.856057 
L 173.795229 -239.685148 
L 195.030154 -191.959842 
z
" clip-path="url(#p98b711068b)" style="fill: #0000f5; fill-opacity: 0.1"/>
    <path d="M 286.342906 -31.826541 
L 265.589555 -78.653678 
L 269.598191 -92.665227 
L 290.451763 -45.517642 
z
" clip-path="url(#p98b711068b)" style="fill: #0000f5; fill-opacity: 0.1"/>
    <path d="M 216.092149 -144.623193 
L 195.030154 -191.959842 
L 198.644418 -206.625916 
L 219.810089 -158.962941 
z
" clip-path="url(#p98b711068b)" style="fill: #0000f5; fill-opacity: 0.1"/>
    <path d="M 240.803132 -111.688708 
L 219.810089 -158.962941 
L 223.570093 -173.464926 
L 244.665985 -125.864892 
z
" clip-path="url(#p98b711068b)" style="fill: #0000f5; fill-opacity: 0.1"/>
    <path d="M 265.589555 -78.653678 
L 244.665985 -125.864892 
L 248.572609 -140.201709 
L 269.598191 -92.665227 
z
" clip-path="url(#p98b711068b)" style="fill: #0000f5; fill-opacity: 0.1"/>
    <path d="M 195.030154 -191.959842 
L 173.795229 -239.685148 
L 177.30398 -254.682447 
L 198.644418 -206.625916 
z
" clip-path="url(#p98b711068b)" style="fill: #0000f5; fill-opacity: 0.1"/>
    <path d="M 219.810089 -158.962941 
L 198.644418 -206.625916 
L 202.299742 -221.458605 
L 223.570093 -173.464926 
z
" clip-path="url(#p98b711068b)" style="fill: #0000f5; fill-opacity: 0.1"/>
    <path d="M 244.665985 -125.864892 
L 223.570093 -173.464926 
L 227.372879 -188.131917 
L 248.572609 -140.201709 
z
" clip-path="url(#p98b711068b)" style="fill: #0000f5; fill-opacity: 0.1"/>
    <path d="M 198.644418 -206.625916 
L 177.30398 -254.682447 
L 180.852758 -269.850831 
L 202.299742 -221.458605 
z
" clip-path="url(#p98b711068b)" style="fill: #0000f5; fill-opacity: 0.1"/>
    <path d="M 223.570093 -173.464926 
L 202.299742 -221.458605 
L 205.99683 -236.460764 
L 227.372879 -188.131917 
z
" clip-path="url(#p98b711068b)" style="fill: #0000f5; fill-opacity: 0.1"/>
    <path d="M 202.299742 -221.458605 
L 180.852758 -269.850831 
L 184.442252 -285.193244 
L 205.99683 -236.460764 
z
" clip-path="url(#p98b711068b)" style="fill: #0000f5; fill-opacity: 0.1"/>
   </g>
   <g id="legend_1">
    <g id="patch_6">
     <path d="M 357.840076 67.305115 
L 396.2 67.305115 
Q 398.2 67.305115 398.2 65.305115 
L 398.2 7 
Q 398.2 5 396.2 5 
L 357.840076 5 
Q 355.840076 5 355.840076 7 
L 355.840076 65.305115 
Q 355.840076 67.305115 357.840076 67.305115 
z
" style="fill: #ffffff; opacity: 0.8; stroke: #cccccc; stroke-linejoin: miter"/>
    </g>
    <g id="line2d_25">
     <path d="M 359.840076 12.5 
L 369.840076 12.5 
L 379.840076 12.5 
" style="fill: none; stroke: #ff0000; stroke-width: 1.5; stroke-linecap: square"/>
    </g>
    <g id="text_21">
     <!-- $\vec{a}$ -->
     <g transform="translate(387.840076 16)scale(0.1 -0.1)">
      <defs>
       <path id="CMMI12-7e" d="M 3424 3835 
C 3347 3764 3110 3540 3110 3451 
C 3110 3387 3168 3329 3232 3329 
C 3290 3329 3315 3368 3360 3432 
C 3514 3624 3686 3745 3834 3828 
C 3898 3867 3942 3886 3942 3956 
C 3942 4014 3891 4046 3853 4078 
C 3674 4200 3629 4372 3610 4449 
C 3590 4500 3571 4577 3482 4577 
C 3443 4577 3366 4552 3366 4456 
C 3366 4398 3405 4244 3526 4072 
L 1376 4072 
C 1267 4072 1158 4072 1158 3950 
C 1158 3835 1274 3835 1376 3835 
L 3424 3835 
z
" transform="scale(0.015625)"/>
       <path id="CMMI12-61" d="M 1926 760 
C 1894 651 1894 639 1805 517 
C 1664 338 1382 64 1082 64 
C 819 64 672 300 672 677 
C 672 1028 870 1743 992 2012 
C 1210 2459 1510 2689 1760 2689 
C 2182 2689 2266 2165 2266 2114 
C 2266 2108 2246 2024 2240 2012 
L 1926 760 
z
M 2336 2395 
C 2266 2561 2093 2816 1760 2816 
C 1037 2816 256 1884 256 939 
C 256 307 627 -64 1062 -64 
C 1414 -64 1715 211 1894 422 
C 1958 45 2259 -64 2451 -64 
C 2643 -64 2797 51 2912 281 
C 3014 498 3104 888 3104 913 
C 3104 945 3078 971 3040 971 
C 2982 971 2976 939 2950 843 
C 2854 466 2733 64 2470 64 
C 2285 64 2272 230 2272 358 
C 2272 505 2291 575 2349 824 
C 2394 984 2426 1124 2477 1309 
C 2714 2267 2771 2497 2771 2535 
C 2771 2625 2701 2695 2605 2695 
C 2400 2695 2349 2472 2336 2395 
z
" transform="scale(0.015625)"/>
      </defs>
      <use xlink:href="#CMMI12-7e" transform="scale(0.996264)"/>
      <use xlink:href="#CMMI12-61" transform="translate(6.445738 0)scale(0.996264)"/>
     </g>
    </g>
    <g id="line2d_26">
     <path d="M 359.840076 27.24679 
L 369.840076 27.24679 
L 379.840076 27.24679 
" style="fill: none; stroke: #00ff00; stroke-width: 1.5; stroke-linecap: square"/>
    </g>
    <g id="text_22">
     <!-- $\vec{b}$ -->
     <g transform="translate(387.840076 30.74679)scale(0.1 -0.1)">
      <defs>
       <path id="CMMI12-62" d="M 1478 4257 
C 1485 4283 1498 4321 1498 4352 
C 1498 4416 1434 4416 1421 4416 
C 1414 4416 1184 4393 1069 4377 
C 960 4377 864 4358 749 4358 
C 595 4345 550 4339 550 4224 
C 550 4160 614 4160 678 4160 
C 1005 4160 1005 4103 1005 4040 
C 1005 3996 954 3811 928 3696 
L 774 3085 
C 710 2831 346 1387 320 1272 
C 288 1114 288 1005 288 922 
C 288 274 653 -64 1069 -64 
C 1811 -64 2579 888 2579 1814 
C 2579 2401 2246 2816 1766 2816 
C 1434 2816 1133 2542 1011 2414 
L 1478 4257 
z
M 1075 64 
C 870 64 646 217 646 715 
C 646 926 666 1047 781 1494 
C 800 1577 902 1986 928 2069 
C 941 2120 1318 2689 1754 2689 
C 2035 2689 2163 2408 2163 2076 
C 2163 1769 1984 1047 1824 715 
C 1664 370 1370 64 1075 64 
z
" transform="scale(0.015625)"/>
      </defs>
      <use xlink:href="#CMMI12-7e" transform="translate(0 26.29016)scale(0.996264)"/>
      <use xlink:href="#CMMI12-62" transform="translate(11.311737 0)scale(0.996264)"/>
     </g>
    </g>
    <g id="line2d_27">
     <path d="M 359.840076 41.183968 
L 369.840076 41.183968 
L 379.840076 41.183968 
" style="fill: none; stroke: #0016ff; stroke-width: 1.5; stroke-linecap: square"/>
    </g>
    <g id="text_23">
     <!-- $\vec{c}$ -->
     <g transform="translate(387.840076 44.683968)scale(0.1 -0.1)">
      <defs>
       <path id="CMMI12-63" d="M 2502 2431 
C 2381 2431 2323 2431 2234 2355 
C 2195 2323 2125 2227 2125 2125 
C 2125 1997 2221 1920 2342 1920 
C 2496 1920 2669 2044 2669 2292 
C 2669 2588 2374 2816 1933 2816 
C 1094 2816 256 1903 256 996 
C 256 441 602 -64 1254 -64 
C 2125 -64 2675 622 2675 706 
C 2675 744 2637 776 2611 776 
C 2592 776 2586 770 2528 713 
C 2118 162 1510 64 1267 64 
C 826 64 685 446 685 764 
C 685 988 794 1605 1024 2039 
C 1190 2338 1536 2682 1939 2682 
C 2022 2682 2374 2682 2502 2431 
z
" transform="scale(0.015625)"/>
      </defs>
      <use xlink:href="#CMMI12-7e" transform="scale(0.996264)"/>
      <use xlink:href="#CMMI12-63" transform="translate(5.638615 0)scale(0.996264)"/>
     </g>
    </g>
    <g id="line2d_28">
     <path d="M 359.840076 57.867937 
L 369.840076 57.867937 
L 379.840076 57.867937 
" style="fill: none; stroke: #f400ff; stroke-width: 1.5; stroke-linecap: square"/>
    </g>
    <g id="text_24">
     <!-- $\vec{f}$ -->
     <g transform="translate(387.840076 61.367937)scale(0.1 -0.1)">
      <defs>
       <path id="CMMI12-66" d="M 2854 2566 
C 2982 2566 3034 2566 3034 2688 
C 3034 2752 2982 2752 2867 2752 
L 2349 2752 
C 2470 3429 2560 3897 2611 4107 
C 2650 4265 2784 4416 2950 4416 
C 3085 4416 3219 4358 3283 4298 
C 3034 4272 2957 4082 2957 3969 
C 2957 3837 3053 3759 3174 3759 
C 3302 3759 3494 3870 3494 4119 
C 3494 4393 3226 4544 2944 4544 
C 2669 4544 2400 4334 2272 4078 
C 2157 3848 2093 3611 1946 2752 
L 1517 2752 
C 1395 2752 1331 2752 1331 2637 
C 1331 2566 1370 2566 1498 2566 
L 1907 2566 
C 1792 1976 1530 542 1382 -137 
C 1274 -689 1178 -1152 858 -1152 
C 838 -1152 653 -1152 538 -1031 
C 864 -1005 864 -726 864 -720 
C 864 -593 768 -517 646 -517 
C 518 -517 326 -625 326 -867 
C 326 -1140 608 -1280 858 -1280 
C 1510 -1280 1779 -118 1850 199 
C 1965 688 2278 2376 2310 2566 
L 2854 2566 
z
" transform="scale(0.015625)"/>
      </defs>
      <use xlink:href="#CMMI12-7e" transform="translate(13.568792 26.29016)scale(0.996264)"/>
      <use xlink:href="#CMMI12-66" transform="scale(0.996264)"/>
     </g>
    </g>
   </g>
  </g>
 </g>
 <defs>
  <clipPath id="p98b711068b">
   <rect x="57.6" y="0" width="345.6" height="345.6"/>
  </clipPath>
 </defs>
</svg>
