<?xml version="1.0" encoding="utf-8" standalone="no"?>
<!DOCTYPE svg PUBLIC "-//W3C//DTD SVG 1.1//EN"
  "http://www.w3.org/Graphics/SVG/1.1/DTD/svg11.dtd">
<svg xmlns:xlink="http://www.w3.org/1999/xlink" width="460.8pt" height="345.6pt" viewBox="0 0 460.8 345.6" xmlns="http://www.w3.org/2000/svg" version="1.1">
 <metadata>
  <rdf:RDF xmlns:dc="http://purl.org/dc/elements/1.1/" xmlns:cc="http://creativecommons.org/ns#" xmlns:rdf="http://www.w3.org/1999/02/22-rdf-syntax-ns#">
   <cc:Work>
    <dc:type rdf:resource="http://purl.org/dc/dcmitype/StillImage"/>
    <dc:date>2022-07-12T15:50:55.107070</dc:date>
    <dc:format>image/svg+xml</dc:format>
    <dc:creator>
     <cc:Agent>
      <dc:title>Matplotlib v3.5.1, https://matplotlib.org/</dc:title>
     </cc:Agent>
    </dc:creator>
   </cc:Work>
  </rdf:RDF>
 </metadata>
 <defs>
  <style type="text/css">*{stroke-linejoin: round; stroke-linecap: butt}</style>
 </defs>
 <g id="figure_1">
  <g id="patch_1">
   <path d="M 0 345.6 
L 460.8 345.6 
L 460.8 0 
L 0 0 
z
" style="fill: #ffffff"/>
  </g>
  <g id="patch_2">
   <path d="M 57.6 345.6 
L 403.2 345.6 
L 403.2 0 
L 57.6 0 
z
" style="fill: #ffffff"/>
  </g>
  <g id="pane3d_1">
   <g id="patch_3">
    <path d="M 306.08139 245.808331 
L 378.461563 255.075766 
L 378.461563 81.183694 
L 306.08139 90.451129 
" style="fill: #f2f2f2; opacity: 0.5; stroke: #f2f2f2; stroke-linejoin: miter"/>
   </g>
  </g>
  <g id="pane3d_2">
   <g id="patch_4">
    <path d="M 306.08139 245.808331 
L 102.923936 248.257328 
L 102.923936 88.002131 
L 306.08139 90.451129 
" style="fill: #e6e6e6; opacity: 0.5; stroke: #e6e6e6; stroke-linejoin: miter"/>
   </g>
  </g>
  <g id="pane3d_3">
   <g id="patch_5">
    <path d="M 306.08139 245.808331 
L 102.923936 248.257328 
L 152.771736 258.15556 
L 378.461563 255.075766 
" style="fill: #ececec; opacity: 0.5; stroke: #ececec; stroke-linejoin: miter"/>
   </g>
  </g>
  <g id="axis3d_1">
   <g id="line2d_1">
    <path d="M 378.461563 255.075766 
L 152.771736 258.15556 
" style="fill: none; stroke: #000000; stroke-width: 0.8; stroke-linecap: square"/>
   </g>
   <g id="text_1">
    <!-- x -->
    <g transform="translate(273.753488 287.084111)scale(0.16 -0.16)">
     <defs>
      <path id="CMSS17-78" d="M 1587 1414 
L 2656 2739 
L 2099 2739 
L 1363 1777 
L 602 2739 
L 32 2739 
L 1139 1414 
L 0 0 
L 563 0 
L 1363 1121 
L 2195 0 
L 2758 0 
L 1587 1414 
z
" transform="scale(0.015625)"/>
     </defs>
     <use xlink:href="#CMSS17-78" transform="scale(0.996264)"/>
    </g>
   </g>
   <g id="Line3DCollection_1">
    <path d="M 374.099199 255.135295 
L 302.140016 245.855843 
L 302.140016 90.403617 
" style="fill: none; stroke: #b0b0b0; stroke-width: 0.8"/>
    <path d="M 331.914561 255.710952 
L 264.056067 246.314932 
L 264.056067 89.944527 
" style="fill: none; stroke: #b0b0b0; stroke-width: 0.8"/>
    <path d="M 289.16799 256.294278 
L 225.519558 246.779478 
L 225.519558 89.479982 
" style="fill: none; stroke: #b0b0b0; stroke-width: 0.8"/>
    <path d="M 245.848183 256.885426 
L 186.522375 247.249576 
L 186.522375 89.009884 
" style="fill: none; stroke: #b0b0b0; stroke-width: 0.8"/>
    <path d="M 201.943532 257.484555 
L 147.056207 247.725328 
L 147.056207 88.534132 
" style="fill: none; stroke: #b0b0b0; stroke-width: 0.8"/>
    <path d="M 157.442111 258.091827 
L 107.112544 248.206836 
L 107.112544 88.052624 
" style="fill: none; stroke: #b0b0b0; stroke-width: 0.8"/>
   </g>
   <g id="xtick_1">
    <g id="line2d_2">
     <path d="M 373.455413 255.052276 
L 375.390468 255.30181 
" style="fill: none; stroke: #000000; stroke-width: 0.8; stroke-linecap: square"/>
    </g>
    <g id="text_2">
     <!-- $\mathdefault{0}$ -->
     <g transform="translate(376.794345 273.925354)scale(0.1 -0.1)">
      <defs>
       <path id="CMR17-30" d="M 2688 2025 
C 2688 2416 2682 3080 2413 3591 
C 2176 4039 1798 4198 1466 4198 
C 1158 4198 768 4058 525 3597 
C 269 3118 243 2524 243 2025 
C 243 1661 250 1106 448 619 
C 723 -39 1216 -128 1466 -128 
C 1760 -128 2208 -7 2470 600 
C 2662 1042 2688 1559 2688 2025 
z
M 1466 -26 
C 1056 -26 813 325 723 812 
C 653 1188 653 1738 653 2096 
C 653 2588 653 2997 736 3387 
C 858 3929 1216 4096 1466 4096 
C 1728 4096 2067 3923 2189 3400 
C 2272 3036 2278 2607 2278 2096 
C 2278 1680 2278 1169 2202 792 
C 2067 95 1690 -26 1466 -26 
z
" transform="scale(0.015625)"/>
      </defs>
      <use xlink:href="#CMR17-30" transform="scale(0.996264)"/>
     </g>
    </g>
   </g>
   <g id="xtick_2">
    <g id="line2d_3">
     <path d="M 331.307037 255.626832 
L 333.13312 255.87968 
" style="fill: none; stroke: #000000; stroke-width: 0.8; stroke-linecap: square"/>
    </g>
    <g id="text_3">
     <!-- $\mathdefault{1}$ -->
     <g transform="translate(334.317886 274.584619)scale(0.1 -0.1)">
      <defs>
       <path id="CMR17-31" d="M 1702 4058 
C 1702 4192 1696 4192 1606 4192 
C 1357 3916 979 3827 621 3827 
C 602 3827 570 3827 563 3808 
C 557 3795 557 3782 557 3648 
C 755 3648 1088 3686 1344 3839 
L 1344 461 
C 1344 236 1331 160 781 160 
L 589 160 
L 589 0 
C 896 0 1216 0 1523 0 
C 1830 0 2150 0 2458 0 
L 2458 160 
L 2266 160 
C 1715 160 1702 230 1702 458 
L 1702 4058 
z
" transform="scale(0.015625)"/>
      </defs>
      <use xlink:href="#CMR17-31" transform="scale(0.996264)"/>
     </g>
    </g>
   </g>
   <g id="xtick_3">
    <g id="line2d_4">
     <path d="M 288.597755 256.209034 
L 290.311779 256.465263 
" style="fill: none; stroke: #000000; stroke-width: 0.8; stroke-linecap: square"/>
    </g>
    <g id="text_4">
     <!-- $\mathdefault{2}$ -->
     <g transform="translate(291.2712 275.252735)scale(0.1 -0.1)">
      <defs>
       <path id="CMR17-32" d="M 2669 989 
L 2554 989 
C 2490 536 2438 459 2413 420 
C 2381 369 1920 369 1830 369 
L 602 369 
C 832 619 1280 1072 1824 1597 
C 2214 1967 2669 2402 2669 3035 
C 2669 3790 2067 4224 1395 4224 
C 691 4224 262 3604 262 3030 
C 262 2780 448 2748 525 2748 
C 589 2748 781 2787 781 3010 
C 781 3207 614 3264 525 3264 
C 486 3264 448 3258 422 3245 
C 544 3790 915 4058 1306 4058 
C 1862 4058 2227 3617 2227 3035 
C 2227 2479 1901 2000 1536 1584 
L 262 146 
L 262 0 
L 2515 0 
L 2669 989 
z
" transform="scale(0.015625)"/>
      </defs>
      <use xlink:href="#CMR17-32" transform="scale(0.996264)"/>
     </g>
    </g>
   </g>
   <g id="xtick_4">
    <g id="line2d_5">
     <path d="M 245.316294 256.799035 
L 246.915078 257.058714 
" style="fill: none; stroke: #000000; stroke-width: 0.8; stroke-linecap: square"/>
    </g>
    <g id="text_5">
     <!-- $\mathdefault{3}$ -->
     <g transform="translate(247.642727 275.92988)scale(0.1 -0.1)">
      <defs>
       <path id="CMR17-33" d="M 1414 2157 
C 1984 2157 2234 1662 2234 1090 
C 2234 320 1824 25 1453 25 
C 1114 25 563 194 390 693 
C 422 680 454 680 486 680 
C 640 680 755 782 755 948 
C 755 1133 614 1216 486 1216 
C 378 1216 211 1165 211 926 
C 211 335 787 -128 1466 -128 
C 2176 -128 2720 430 2720 1085 
C 2720 1707 2208 2157 1600 2227 
C 2086 2328 2554 2756 2554 3329 
C 2554 3820 2048 4179 1472 4179 
C 890 4179 378 3829 378 3329 
C 378 3110 544 3072 627 3072 
C 762 3072 877 3155 877 3321 
C 877 3486 762 3569 627 3569 
C 602 3569 570 3569 544 3557 
C 730 3959 1235 4032 1459 4032 
C 1683 4032 2106 3925 2106 3320 
C 2106 3143 2080 2828 1862 2550 
C 1670 2304 1453 2304 1242 2284 
C 1210 2284 1062 2269 1037 2269 
C 992 2263 966 2257 966 2208 
C 966 2163 973 2157 1101 2157 
L 1414 2157 
z
" transform="scale(0.015625)"/>
      </defs>
      <use xlink:href="#CMR17-33" transform="scale(0.996264)"/>
     </g>
    </g>
   </g>
   <g id="xtick_5">
    <g id="line2d_6">
     <path d="M 201.451078 257.396994 
L 202.931343 257.660192 
" style="fill: none; stroke: #000000; stroke-width: 0.8; stroke-linecap: square"/>
    </g>
    <g id="text_6">
     <!-- $\mathdefault{4}$ -->
     <g transform="translate(203.420591 276.61624)scale(0.1 -0.1)">
      <defs>
       <path id="CMR17-34" d="M 2150 4122 
C 2150 4256 2144 4256 2029 4256 
L 128 1254 
L 128 1088 
L 1779 1088 
L 1779 457 
C 1779 224 1766 160 1318 160 
L 1197 160 
L 1197 0 
C 1402 0 1747 0 1965 0 
C 2182 0 2528 0 2733 0 
L 2733 160 
L 2611 160 
C 2163 160 2150 224 2150 457 
L 2150 1088 
L 2803 1088 
L 2803 1254 
L 2150 1254 
L 2150 4122 
z
M 1798 3703 
L 1798 1254 
L 256 1254 
L 1798 3703 
z
" transform="scale(0.015625)"/>
      </defs>
      <use xlink:href="#CMR17-34" transform="scale(0.996264)"/>
     </g>
    </g>
   </g>
   <g id="xtick_6">
    <g id="line2d_7">
     <path d="M 156.990218 258.003073 
L 158.348581 258.269863 
" style="fill: none; stroke: #000000; stroke-width: 0.8; stroke-linecap: square"/>
    </g>
    <g id="text_7">
     <!-- $\mathdefault{5}$ -->
     <g transform="translate(158.592593 277.312003)scale(0.1 -0.1)">
      <defs>
       <path id="CMR17-35" d="M 730 3692 
C 794 3666 1056 3584 1325 3584 
C 1920 3584 2246 3911 2432 4100 
C 2432 4157 2432 4192 2394 4192 
C 2387 4192 2374 4192 2323 4163 
C 2099 4058 1837 3973 1517 3973 
C 1325 3973 1037 3999 723 4139 
C 653 4171 640 4171 634 4171 
C 602 4171 595 4164 595 4037 
L 595 2203 
C 595 2089 595 2057 659 2057 
C 691 2057 704 2070 736 2114 
C 941 2401 1222 2522 1542 2522 
C 1766 2522 2246 2382 2246 1289 
C 2246 1085 2246 715 2054 421 
C 1894 159 1645 25 1370 25 
C 947 25 518 320 403 814 
C 429 807 480 795 506 795 
C 589 795 749 840 749 1038 
C 749 1210 627 1280 506 1280 
C 358 1280 262 1190 262 1011 
C 262 454 704 -128 1382 -128 
C 2042 -128 2669 440 2669 1264 
C 2669 2030 2170 2624 1549 2624 
C 1222 2624 947 2503 730 2274 
L 730 3692 
z
" transform="scale(0.015625)"/>
      </defs>
      <use xlink:href="#CMR17-35" transform="scale(0.996264)"/>
     </g>
    </g>
   </g>
  </g>
  <g id="axis3d_2">
   <g id="line2d_8">
    <path d="M 102.923936 248.257328 
L 152.771736 258.15556 
" style="fill: none; stroke: #000000; stroke-width: 0.8; stroke-linecap: square"/>
   </g>
   <g id="text_8">
    <!-- y -->
    <g transform="translate(91.994895 280.960384)scale(0.16 -0.16)">
     <defs>
      <path id="CMSS17-79" d="M 2675 2752 
L 2176 2752 
C 1632 1294 1446 702 1434 383 
L 1427 383 
C 1408 696 1126 1460 902 2007 
L 602 2752 
L 83 2752 
L 1216 13 
C 1146 -178 1043 -465 1011 -529 
C 870 -885 774 -885 672 -885 
C 646 -885 442 -885 211 -809 
L 250 -1229 
C 410 -1261 570 -1280 685 -1280 
C 845 -1280 1165 -1280 1459 -497 
L 2675 2752 
z
" transform="scale(0.015625)"/>
     </defs>
     <use xlink:href="#CMSS17-79" transform="scale(0.996264)"/>
    </g>
   </g>
   <g id="Line3DCollection_2">
    <path d="M 313.676471 89.478667 
L 313.676471 246.780792 
L 108.137007 249.292483 
" style="fill: none; stroke: #b0b0b0; stroke-width: 0.8"/>
    <path d="M 326.674349 87.814441 
L 326.674349 248.445018 
L 117.067978 251.065898 
" style="fill: none; stroke: #b0b0b0; stroke-width: 0.8"/>
    <path d="M 340.234179 86.078263 
L 340.234179 250.181196 
L 126.397953 252.918542 
" style="fill: none; stroke: #b0b0b0; stroke-width: 0.8"/>
    <path d="M 354.393208 84.265365 
L 354.393208 251.994094 
L 136.154282 254.855847 
" style="fill: none; stroke: #b0b0b0; stroke-width: 0.8"/>
    <path d="M 369.192051 82.370546 
L 369.192051 253.888913 
L 146.366872 256.883752 
" style="fill: none; stroke: #b0b0b0; stroke-width: 0.8"/>
   </g>
   <g id="xtick_7">
    <g id="line2d_9">
     <path d="M 109.8334 249.271753 
L 104.74162 249.333974 
" style="fill: none; stroke: #000000; stroke-width: 0.8; stroke-linecap: square"/>
    </g>
    <g id="text_9">
     <!-- $\mathdefault{−4}$ -->
     <g transform="translate(88.19322 266.768912)scale(0.1 -0.1)">
      <defs>
       <path id="CMSY10-0" d="M 4218 1472 
C 4326 1472 4442 1472 4442 1600 
C 4442 1728 4326 1728 4218 1728 
L 755 1728 
C 646 1728 531 1728 531 1600 
C 531 1472 646 1472 755 1472 
L 4218 1472 
z
" transform="scale(0.015625)"/>
      </defs>
      <use xlink:href="#CMSY10-0" transform="scale(0.996264)"/>
      <use xlink:href="#CMR17-34" transform="translate(77.487468 0)scale(0.996264)"/>
     </g>
    </g>
   </g>
   <g id="xtick_8">
    <g id="line2d_10">
     <path d="M 118.799097 251.044252 
L 113.603028 251.109223 
" style="fill: none; stroke: #000000; stroke-width: 0.8; stroke-linecap: square"/>
    </g>
    <g id="text_10">
     <!-- $\mathdefault{−2}$ -->
     <g transform="translate(96.845533 268.777206)scale(0.1 -0.1)">
      <use xlink:href="#CMSY10-0" transform="scale(0.996264)"/>
      <use xlink:href="#CMR17-32" transform="translate(77.487468 0)scale(0.996264)"/>
     </g>
    </g>
   </g>
   <g id="xtick_9">
    <g id="line2d_11">
     <path d="M 128.165242 252.895919 
L 122.860544 252.963825 
" style="fill: none; stroke: #000000; stroke-width: 0.8; stroke-linecap: square"/>
    </g>
    <g id="text_11">
     <!-- $\mathdefault{0}$ -->
     <g transform="translate(109.759598 270.875414)scale(0.1 -0.1)">
      <use xlink:href="#CMR17-30" transform="scale(0.996264)"/>
     </g>
    </g>
   </g>
   <g id="xtick_10">
    <g id="line2d_12">
     <path d="M 137.959278 254.832179 
L 132.541333 254.903224 
" style="fill: none; stroke: #000000; stroke-width: 0.8; stroke-linecap: square"/>
    </g>
    <g id="text_12">
     <!-- $\mathdefault{2}$ -->
     <g transform="translate(119.213282 273.069715)scale(0.1 -0.1)">
      <use xlink:href="#CMR17-32" transform="scale(0.996264)"/>
     </g>
    </g>
   </g>
   <g id="xtick_11">
    <g id="line2d_13">
     <path d="M 148.21121 256.858964 
L 142.675105 256.933371 
" style="fill: none; stroke: #000000; stroke-width: 0.8; stroke-linecap: square"/>
    </g>
    <g id="text_13">
     <!-- $\mathdefault{4}$ -->
     <g transform="translate(129.110063 275.366863)scale(0.1 -0.1)">
      <use xlink:href="#CMR17-34" transform="scale(0.996264)"/>
     </g>
    </g>
   </g>
  </g>
  <g id="axis3d_3">
   <g id="line2d_14">
    <path d="M 102.923936 248.257328 
L 102.923936 88.002131 
" style="fill: none; stroke: #000000; stroke-width: 0.8; stroke-linecap: square"/>
   </g>
   <g id="text_14">
    <!-- z -->
    <g transform="translate(64.650524 172.114786)scale(0.16 -0.16)">
     <defs>
      <path id="CMSS17-7a" d="M 2400 2502 
L 2400 2750 
L 250 2750 
L 250 2368 
L 1069 2368 
C 1146 2368 1222 2368 1299 2368 
L 1747 2368 
L 166 261 
L 166 0 
L 2419 0 
L 2419 395 
L 1549 395 
C 1472 395 1395 395 1318 395 
L 826 395 
L 2400 2502 
z
" transform="scale(0.015625)"/>
     </defs>
     <use xlink:href="#CMSS17-7a" transform="scale(0.996264)"/>
    </g>
   </g>
   <g id="Line3DCollection_3">
    <path d="M 102.923936 245.052224 
L 306.08139 242.701187 
L 378.461563 251.597924 
" style="fill: none; stroke: #b0b0b0; stroke-width: 0.8"/>
    <path d="M 102.923936 214.283226 
L 306.08139 212.872604 
L 378.461563 218.210646 
" style="fill: none; stroke: #b0b0b0; stroke-width: 0.8"/>
    <path d="M 102.923936 183.514229 
L 306.08139 183.044021 
L 378.461563 184.823369 
" style="fill: none; stroke: #b0b0b0; stroke-width: 0.8"/>
    <path d="M 102.923936 152.745231 
L 306.08139 153.215438 
L 378.461563 151.436091 
" style="fill: none; stroke: #b0b0b0; stroke-width: 0.8"/>
    <path d="M 102.923936 121.976233 
L 306.08139 123.386856 
L 378.461563 118.048813 
" style="fill: none; stroke: #b0b0b0; stroke-width: 0.8"/>
    <path d="M 102.923936 91.207235 
L 306.08139 93.558273 
L 378.461563 84.661535 
" style="fill: none; stroke: #b0b0b0; stroke-width: 0.8"/>
   </g>
   <g id="xtick_12">
    <g id="line2d_15">
     <path d="M 104.600013 245.032828 
L 99.569245 245.091046 
" style="fill: none; stroke: #000000; stroke-width: 0.8; stroke-linecap: square"/>
    </g>
    <g id="text_15">
     <!-- $\mathdefault{0}$ -->
     <g transform="translate(84.290869 251.587242)scale(0.1 -0.1)">
      <use xlink:href="#CMR17-30" transform="scale(0.996264)"/>
     </g>
    </g>
   </g>
   <g id="xtick_13">
    <g id="line2d_16">
     <path d="M 104.600013 214.271589 
L 99.569245 214.30652 
" style="fill: none; stroke: #000000; stroke-width: 0.8; stroke-linecap: square"/>
    </g>
    <g id="text_16">
     <!-- $\mathdefault{1}$ -->
     <g transform="translate(84.290869 220.971636)scale(0.1 -0.1)">
      <use xlink:href="#CMR17-31" transform="scale(0.996264)"/>
     </g>
    </g>
   </g>
   <g id="xtick_14">
    <g id="line2d_17">
     <path d="M 104.600013 183.510349 
L 99.569245 183.521993 
" style="fill: none; stroke: #000000; stroke-width: 0.8; stroke-linecap: square"/>
    </g>
    <g id="text_17">
     <!-- $\mathdefault{2}$ -->
     <g transform="translate(84.290869 190.356031)scale(0.1 -0.1)">
      <use xlink:href="#CMR17-32" transform="scale(0.996264)"/>
     </g>
    </g>
   </g>
   <g id="xtick_15">
    <g id="line2d_18">
     <path d="M 104.600013 152.74911 
L 99.569245 152.737466 
" style="fill: none; stroke: #000000; stroke-width: 0.8; stroke-linecap: square"/>
    </g>
    <g id="text_18">
     <!-- $\mathdefault{3}$ -->
     <g transform="translate(84.290869 159.740425)scale(0.1 -0.1)">
      <use xlink:href="#CMR17-33" transform="scale(0.996264)"/>
     </g>
    </g>
   </g>
   <g id="xtick_16">
    <g id="line2d_19">
     <path d="M 104.600013 121.987871 
L 99.569245 121.95294 
" style="fill: none; stroke: #000000; stroke-width: 0.8; stroke-linecap: square"/>
    </g>
    <g id="text_19">
     <!-- $\mathdefault{4}$ -->
     <g transform="translate(84.290869 129.12482)scale(0.1 -0.1)">
      <use xlink:href="#CMR17-34" transform="scale(0.996264)"/>
     </g>
    </g>
   </g>
   <g id="xtick_17">
    <g id="line2d_20">
     <path d="M 104.600013 91.226632 
L 99.569245 91.168413 
" style="fill: none; stroke: #000000; stroke-width: 0.8; stroke-linecap: square"/>
    </g>
    <g id="text_20">
     <!-- $\mathdefault{5}$ -->
     <g transform="translate(84.290869 98.509214)scale(0.1 -0.1)">
      <use xlink:href="#CMR17-35" transform="scale(0.996264)"/>
     </g>
    </g>
   </g>
  </g>
  <g id="axes_1">
   <g id="line2d_21">
    <path d="M 336.092852 246.950031 
L 316.200066 86.140626 
" clip-path="url(#p513c5edb80)" style="fill: none; stroke: #ff0000; stroke-width: 1.5; stroke-linecap: square"/>
   </g>
   <g id="line2d_22">
    <path d="M 336.092852 246.950031 
L 243.608907 121.26987 
" clip-path="url(#p513c5edb80)" style="fill: none; stroke: #00ff00; stroke-width: 1.5; stroke-linecap: square"/>
   </g>
   <g id="line2d_23">
    <path d="M 336.092852 246.950031 
L 237.011903 -1 
" clip-path="url(#p513c5edb80)" style="fill: none; stroke: #0016ff; stroke-width: 1.5; stroke-linecap: square"/>
   </g>
   <g id="line2d_24">
    <path d="M 336.092852 246.950031 
L 116.836528 152.388236 
" clip-path="url(#p513c5edb80)" style="fill: none; stroke: #f400ff; stroke-width: 1.5; stroke-linecap: square"/>
   </g>
   <g id="Poly3DCollection_1">
    <path d="M 303.428454 355.07116 
L 284.405647 314.374324 
L 287.43134 303.822943 
L 306.543295 344.760847 
z
" clip-path="url(#p513c5edb80)" style="fill: #0000f5; fill-opacity: 0.1"/>
    <path d="M 284.405647 314.374324 
L 265.27024 273.436596 
L 268.20567 262.641462 
L 287.43134 303.822943 
z
" clip-path="url(#p513c5edb80)" style="fill: #0000f5; fill-opacity: 0.1"/>
    <path d="M 306.543295 344.760847 
L 287.43134 303.822943 
L 290.488494 293.16185 
L 309.690428 334.343648 
z
" clip-path="url(#p513c5edb80)" style="fill: #0000f5; fill-opacity: 0.1"/>
    <path d="M 265.27024 273.436596 
L 246.02123 232.255829 
L 248.865268 221.214224 
L 268.20567 262.641462 
z
" clip-path="url(#p513c5edb80)" style="fill: #0000f5; fill-opacity: 0.1"/>
    <path d="M 287.43134 303.822943 
L 268.20567 262.641462 
L 271.171714 251.733746 
L 290.488494 293.16185 
z
" clip-path="url(#p513c5edb80)" style="fill: #0000f5; fill-opacity: 0.1"/>
    <path d="M 246.02123 232.255829 
L 226.657603 190.829853 
L 229.409103 179.539022 
L 248.865268 221.214224 
z
" clip-path="url(#p513c5edb80)" style="fill: #0000f5; fill-opacity: 0.1"/>
    <path d="M 309.690428 334.343648 
L 290.488494 293.16185 
L 293.577602 282.389324 
L 312.870357 323.81789 
z
" clip-path="url(#p513c5edb80)" style="fill: #0000f5; fill-opacity: 0.1"/>
    <path d="M 268.20567 262.641462 
L 248.865268 221.214224 
L 251.739055 210.05712 
L 271.171714 251.733746 
z
" clip-path="url(#p513c5edb80)" style="fill: #0000f5; fill-opacity: 0.1"/>
    <path d="M 226.657603 190.829853 
L 207.178332 149.156472 
L 209.836133 137.613623 
L 229.409103 179.539022 
z
" clip-path="url(#p513c5edb80)" style="fill: #0000f5; fill-opacity: 0.1"/>
    <path d="M 290.488494 293.16185 
L 271.171714 251.733746 
L 274.168853 240.711677 
L 293.577602 282.389324 
z
" clip-path="url(#p513c5edb80)" style="fill: #0000f5; fill-opacity: 0.1"/>
    <path d="M 248.865268 221.214224 
L 229.409103 179.539022 
L 232.189472 168.12973 
L 251.739055 210.05712 
z
" clip-path="url(#p513c5edb80)" style="fill: #0000f5; fill-opacity: 0.1"/>
    <path d="M 207.178332 149.156472 
L 187.582377 107.233463 
L 190.145304 95.435768 
L 209.836133 137.613623 
z
" clip-path="url(#p513c5edb80)" style="fill: #0000f5; fill-opacity: 0.1"/>
    <path d="M 312.870357 323.81789 
L 293.577602 282.389324 
L 296.699168 271.503609 
L 316.083598 313.181869 
z
" clip-path="url(#p513c5edb80)" style="fill: #0000f5; fill-opacity: 0.1"/>
    <path d="M 271.171714 251.733746 
L 251.739055 210.05712 
L 254.643061 198.782697 
L 274.168853 240.711677 
z
" clip-path="url(#p513c5edb80)" style="fill: #0000f5; fill-opacity: 0.1"/>
    <path d="M 229.409103 179.539022 
L 209.836133 137.613623 
L 212.521905 125.949304 
L 232.189472 168.12973 
z
" clip-path="url(#p513c5edb80)" style="fill: #0000f5; fill-opacity: 0.1"/>
    <path d="M 187.582377 107.233463 
L 167.868688 65.058575 
L 170.335547 53.003169 
L 190.145304 95.435768 
z
" clip-path="url(#p513c5edb80)" style="fill: #0000f5; fill-opacity: 0.1"/>
    <path d="M 293.577602 282.389324 
L 274.168853 240.711677 
L 277.197579 229.573448 
L 296.699168 271.503609 
z
" clip-path="url(#p513c5edb80)" style="fill: #0000f5; fill-opacity: 0.1"/>
    <path d="M 251.739055 210.05712 
L 232.189472 168.12973 
L 234.999165 156.600103 
L 254.643061 198.782697 
z
" clip-path="url(#p513c5edb80)" style="fill: #0000f5; fill-opacity: 0.1"/>
    <path d="M 209.836133 137.613623 
L 190.145304 95.435768 
L 192.735283 83.513545 
L 212.521905 125.949304 
z
" clip-path="url(#p513c5edb80)" style="fill: #0000f5; fill-opacity: 0.1"/>
    <path d="M 316.083598 313.181869 
L 296.699168 271.503609 
L 299.853706 260.502913 
L 319.330677 302.433842 
z
" clip-path="url(#p513c5edb80)" style="fill: #0000f5; fill-opacity: 0.1"/>
    <path d="M 167.868688 65.058575 
L 148.0362 22.629532 
L 150.405781 10.313511 
L 170.335547 53.003169 
z
" clip-path="url(#p513c5edb80)" style="fill: #0000f5; fill-opacity: 0.1"/>
    <path d="M 274.168853 240.711677 
L 254.643061 198.782697 
L 257.577765 187.389093 
L 277.197579 229.573448 
z
" clip-path="url(#p513c5edb80)" style="fill: #0000f5; fill-opacity: 0.1"/>
    <path d="M 232.189472 168.12973 
L 212.521905 125.949304 
L 215.236089 114.161587 
L 234.999165 156.600103 
z
" clip-path="url(#p513c5edb80)" style="fill: #0000f5; fill-opacity: 0.1"/>
    <path d="M 190.145304 95.435768 
L 170.335547 53.003169 
L 172.828522 40.820128 
L 192.735283 83.513545 
z
" clip-path="url(#p513c5edb80)" style="fill: #0000f5; fill-opacity: 0.1"/>
    <path d="M 296.699168 271.503609 
L 277.197579 229.573448 
L 280.258393 218.317211 
L 299.853706 260.502913 
z
" clip-path="url(#p513c5edb80)" style="fill: #0000f5; fill-opacity: 0.1"/>
    <path d="M 148.0362 22.629532 
L 128.083836 -20.055971 
L 130.354913 -32.635549 
L 150.405781 10.313511 
z
" clip-path="url(#p513c5edb80)" style="fill: #0000f5; fill-opacity: 0.1"/>
    <path d="M 254.643061 198.782697 
L 234.999165 156.600103 
L 237.838649 144.948227 
L 257.577765 187.389093 
z
" clip-path="url(#p513c5edb80)" style="fill: #0000f5; fill-opacity: 0.1"/>
    <path d="M 212.521905 125.949304 
L 192.735283 83.513545 
L 195.352745 71.464813 
L 215.236089 114.161587 
z
" clip-path="url(#p513c5edb80)" style="fill: #0000f5; fill-opacity: 0.1"/>
    <path d="M 319.330677 302.433842 
L 299.853706 260.502913 
L 303.041741 249.385402 
L 322.612131 291.572032 
z
" clip-path="url(#p513c5edb80)" style="fill: #0000f5; fill-opacity: 0.1"/>
    <path d="M 170.335547 53.003169 
L 150.405781 10.313511 
L 152.800526 -2.133301 
L 172.828522 40.820128 
z
" clip-path="url(#p513c5edb80)" style="fill: #0000f5; fill-opacity: 0.1"/>
    <path d="M 277.197579 229.573448 
L 257.577765 187.389093 
L 260.543656 175.874409 
L 280.258393 218.317211 
z
" clip-path="url(#p513c5edb80)" style="fill: #0000f5; fill-opacity: 0.1"/>
    <path d="M 234.999165 156.600103 
L 215.236089 114.161587 
L 217.979139 102.248503 
L 237.838649 144.948227 
z
" clip-path="url(#p513c5edb80)" style="fill: #0000f5; fill-opacity: 0.1"/>
    <path d="M 192.735283 83.513545 
L 172.828522 40.820128 
L 175.348033 28.507416 
L 195.352745 71.464813 
z
" clip-path="url(#p513c5edb80)" style="fill: #0000f5; fill-opacity: 0.1"/>
    <path d="M 299.853706 260.502913 
L 280.258393 218.317211 
L 283.351808 206.941083 
L 303.041741 249.385402 
z
" clip-path="url(#p513c5edb80)" style="fill: #0000f5; fill-opacity: 0.1"/>
    <path d="M 150.405781 10.313511 
L 130.354913 -32.635549 
L 132.650181 -45.349124 
L 152.800526 -2.133301 
z
" clip-path="url(#p513c5edb80)" style="fill: #0000f5; fill-opacity: 0.1"/>
    <path d="M 257.577765 187.389093 
L 237.838649 144.948227 
L 240.708401 133.172148 
L 260.543656 175.874409 
z
" clip-path="url(#p513c5edb80)" style="fill: #0000f5; fill-opacity: 0.1"/>
    <path d="M 215.236089 114.161587 
L 195.352745 71.464813 
L 197.99813 59.287546 
L 217.979139 102.248503 
z
" clip-path="url(#p513c5edb80)" style="fill: #0000f5; fill-opacity: 0.1"/>
    <path d="M 322.612131 291.572032 
L 303.041741 249.385402 
L 306.26381 238.149208 
L 325.928509 280.594621 
z
" clip-path="url(#p513c5edb80)" style="fill: #0000f5; fill-opacity: 0.1"/>
    <path d="M 172.828522 40.820128 
L 152.800526 -2.133301 
L 155.220837 -14.712997 
L 175.348033 28.507416 
z
" clip-path="url(#p513c5edb80)" style="fill: #0000f5; fill-opacity: 0.1"/>
    <path d="M 280.258393 218.317211 
L 260.543656 175.874409 
L 263.541234 164.236704 
L 283.351808 206.941083 
z
" clip-path="url(#p513c5edb80)" style="fill: #0000f5; fill-opacity: 0.1"/>
    <path d="M 237.838649 144.948227 
L 217.979139 102.248503 
L 220.751518 90.208043 
L 240.708401 133.172148 
z
" clip-path="url(#p513c5edb80)" style="fill: #0000f5; fill-opacity: 0.1"/>
    <path d="M 195.352745 71.464813 
L 175.348033 28.507416 
L 177.894503 16.06295 
L 197.99813 59.287546 
z
" clip-path="url(#p513c5edb80)" style="fill: #0000f5; fill-opacity: 0.1"/>
    <path d="M 303.041741 249.385402 
L 283.351808 206.941083 
L 286.478349 195.443137 
L 306.26381 238.149208 
z
" clip-path="url(#p513c5edb80)" style="fill: #0000f5; fill-opacity: 0.1"/>
    <path d="M 152.800526 -2.133301 
L 132.650181 -45.349124 
L 134.97003 -58.19885 
L 155.220837 -14.712997 
z
" clip-path="url(#p513c5edb80)" style="fill: #0000f5; fill-opacity: 0.1"/>
    <path d="M 260.543656 175.874409 
L 240.708401 133.172148 
L 243.608907 121.26987 
L 263.541234 164.236704 
z
" clip-path="url(#p513c5edb80)" style="fill: #0000f5; fill-opacity: 0.1"/>
    <path d="M 217.979139 102.248503 
L 197.99813 59.287546 
L 200.671886 46.979677 
L 220.751518 90.208043 
z
" clip-path="url(#p513c5edb80)" style="fill: #0000f5; fill-opacity: 0.1"/>
    <path d="M 325.928509 280.594621 
L 306.26381 238.149208 
L 309.52046 226.792419 
L 329.280371 269.499754 
z
" clip-path="url(#p513c5edb80)" style="fill: #0000f5; fill-opacity: 0.1"/>
    <path d="M 175.348033 28.507416 
L 155.220837 -14.712997 
L 157.667127 -27.427718 
L 177.894503 16.06295 
z
" clip-path="url(#p513c5edb80)" style="fill: #0000f5; fill-opacity: 0.1"/>
    <path d="M 283.351808 206.941083 
L 263.541234 164.236704 
L 266.57101 152.473997 
L 286.478349 195.443137 
z
" clip-path="url(#p513c5edb80)" style="fill: #0000f5; fill-opacity: 0.1"/>
    <path d="M 240.708401 133.172148 
L 220.751518 90.208043 
L 223.5537 78.038152 
L 243.608907 121.26987 
z
" clip-path="url(#p513c5edb80)" style="fill: #0000f5; fill-opacity: 0.1"/>
    <path d="M 197.99813 59.287546 
L 177.894503 16.06295 
L 180.468369 3.484605 
L 200.671886 46.979677 
z
" clip-path="url(#p513c5edb80)" style="fill: #0000f5; fill-opacity: 0.1"/>
    <path d="M 306.26381 238.149208 
L 286.478349 195.443137 
L 289.638549 183.821406 
L 309.52046 226.792419 
z
" clip-path="url(#p513c5edb80)" style="fill: #0000f5; fill-opacity: 0.1"/>
    <path d="M 155.220837 -14.712997 
L 134.97003 -58.19885 
L 137.314855 -71.186924 
L 157.667127 -27.427718 
z
" clip-path="url(#p513c5edb80)" style="fill: #0000f5; fill-opacity: 0.1"/>
    <path d="M 263.541234 164.236704 
L 243.608907 121.26987 
L 246.540664 109.239352 
L 266.57101 152.473997 
z
" clip-path="url(#p513c5edb80)" style="fill: #0000f5; fill-opacity: 0.1"/>
    <path d="M 220.751518 90.208043 
L 200.671886 46.979677 
L 203.374474 34.539094 
L 223.5537 78.038152 
z
" clip-path="url(#p513c5edb80)" style="fill: #0000f5; fill-opacity: 0.1"/>
    <path d="M 329.280371 269.499754 
L 309.52046 226.792419 
L 312.812251 215.313084 
L 332.66829 258.285536 
z
" clip-path="url(#p513c5edb80)" style="fill: #0000f5; fill-opacity: 0.1"/>
    <path d="M 177.894503 16.06295 
L 157.667127 -27.427718 
L 160.139816 -40.27965 
L 180.468369 3.484605 
z
" clip-path="url(#p513c5edb80)" style="fill: #0000f5; fill-opacity: 0.1"/>
    <path d="M 286.478349 195.443137 
L 266.57101 152.473997 
L 269.633505 140.584263 
L 289.638549 183.821406 
z
" clip-path="url(#p513c5edb80)" style="fill: #0000f5; fill-opacity: 0.1"/>
    <path d="M 243.608907 121.26987 
L 223.5537 78.038152 
L 226.386167 65.736731 
L 246.540664 109.239352 
z
" clip-path="url(#p513c5edb80)" style="fill: #0000f5; fill-opacity: 0.1"/>
    <path d="M 200.671886 46.979677 
L 180.468369 3.484605 
L 183.070075 -9.229792 
L 203.374474 34.539094 
z
" clip-path="url(#p513c5edb80)" style="fill: #0000f5; fill-opacity: 0.1"/>
    <path d="M 309.52046 226.792419 
L 289.638549 183.821406 
L 292.832955 172.07388 
L 312.812251 215.313084 
z
" clip-path="url(#p513c5edb80)" style="fill: #0000f5; fill-opacity: 0.1"/>
    <path d="M 157.667127 -27.427718 
L 137.314855 -71.186924 
L 139.685064 -84.315593 
L 160.139816 -40.27965 
z
" clip-path="url(#p513c5edb80)" style="fill: #0000f5; fill-opacity: 0.1"/>
    <path d="M 266.57101 152.473997 
L 246.540664 109.239352 
L 249.50418 97.07851 
L 269.633505 140.584263 
z
" clip-path="url(#p513c5edb80)" style="fill: #0000f5; fill-opacity: 0.1"/>
    <path d="M 223.5537 78.038152 
L 203.374474 34.539094 
L 206.106361 21.963638 
L 226.386167 65.736731 
z
" clip-path="url(#p513c5edb80)" style="fill: #0000f5; fill-opacity: 0.1"/>
    <path d="M 332.66829 258.285536 
L 312.812251 215.313084 
L 316.139756 203.709208 
L 336.092852 246.950031 
z
" clip-path="url(#p513c5edb80)" style="fill: #0000f5; fill-opacity: 0.1"/>
    <path d="M 180.468369 3.484605 
L 160.139816 -40.27965 
L 162.639334 -53.271025 
L 183.070075 -9.229792 
z
" clip-path="url(#p513c5edb80)" style="fill: #0000f5; fill-opacity: 0.1"/>
    <path d="M 289.638549 183.821406 
L 269.633505 140.584263 
L 272.729251 128.565432 
L 292.832955 172.07388 
z
" clip-path="url(#p513c5edb80)" style="fill: #0000f5; fill-opacity: 0.1"/>
    <path d="M 246.540664 109.239352 
L 226.386167 65.736731 
L 229.249413 53.301638 
L 249.50418 97.07851 
z
" clip-path="url(#p513c5edb80)" style="fill: #0000f5; fill-opacity: 0.1"/>
    <path d="M 203.374474 34.539094 
L 183.070075 -9.229792 
L 185.700074 -22.08246 
L 206.106361 21.963638 
z
" clip-path="url(#p513c5edb80)" style="fill: #0000f5; fill-opacity: 0.1"/>
    <path d="M 312.812251 215.313084 
L 292.832955 172.07388 
L 296.062126 160.198506 
L 316.139756 203.709208 
z
" clip-path="url(#p513c5edb80)" style="fill: #0000f5; fill-opacity: 0.1"/>
    <path d="M 160.139816 -40.27965 
L 139.685064 -84.315593 
L 142.081069 -97.587153 
L 162.639334 -53.271025 
z
" clip-path="url(#p513c5edb80)" style="fill: #0000f5; fill-opacity: 0.1"/>
    <path d="M 269.633505 140.584263 
L 249.50418 97.07851 
L 252.499974 84.785217 
L 272.729251 128.565432 
z
" clip-path="url(#p513c5edb80)" style="fill: #0000f5; fill-opacity: 0.1"/>
    <path d="M 226.386167 65.736731 
L 206.106361 21.963638 
L 208.868027 9.251104 
L 229.249413 53.301638 
z
" clip-path="url(#p513c5edb80)" style="fill: #0000f5; fill-opacity: 0.1"/>
    <path d="M 336.092852 246.950031 
L 316.139756 203.709208 
L 319.503558 191.978752 
L 339.554653 235.49126 
z
" clip-path="url(#p513c5edb80)" style="fill: #0000f5; fill-opacity: 0.1"/>
    <path d="M 183.070075 -9.229792 
L 162.639334 -53.271025 
L 165.166119 -66.404125 
L 185.700074 -22.08246 
z
" clip-path="url(#p513c5edb80)" style="fill: #0000f5; fill-opacity: 0.1"/>
    <path d="M 292.832955 172.07388 
L 272.729251 128.565432 
L 275.858794 116.41539 
L 296.062126 160.198506 
z
" clip-path="url(#p513c5edb80)" style="fill: #0000f5; fill-opacity: 0.1"/>
    <path d="M 249.50418 97.07851 
L 229.249413 53.301638 
L 232.143942 40.730681 
L 252.499974 84.785217 
z
" clip-path="url(#p513c5edb80)" style="fill: #0000f5; fill-opacity: 0.1"/>
    <path d="M 206.106361 21.963638 
L 185.700074 -22.08246 
L 188.358832 -35.075668 
L 208.868027 9.251104 
z
" clip-path="url(#p513c5edb80)" style="fill: #0000f5; fill-opacity: 0.1"/>
    <path d="M 316.139756 203.709208 
L 296.062126 160.198506 
L 299.326633 148.193185 
L 319.503558 191.978752 
z
" clip-path="url(#p513c5edb80)" style="fill: #0000f5; fill-opacity: 0.1"/>
    <path d="M 162.639334 -53.271025 
L 142.081069 -97.587153 
L 144.503294 -111.003949 
L 165.166119 -66.404125 
z
" clip-path="url(#p513c5edb80)" style="fill: #0000f5; fill-opacity: 0.1"/>
    <path d="M 272.729251 128.565432 
L 252.499974 84.785217 
L 255.528575 72.357295 
L 275.858794 116.41539 
z
" clip-path="url(#p513c5edb80)" style="fill: #0000f5; fill-opacity: 0.1"/>
    <path d="M 229.249413 53.301638 
L 208.868027 9.251104 
L 211.659962 -3.600762 
L 232.143942 40.730681 
z
" clip-path="url(#p513c5edb80)" style="fill: #0000f5; fill-opacity: 0.1"/>
    <path d="M 339.554653 235.49126 
L 319.503558 191.978752 
L 322.904254 180.119636 
L 343.054304 223.907201 
z
" clip-path="url(#p513c5edb80)" style="fill: #0000f5; fill-opacity: 0.1"/>
    <path d="M 185.700074 -22.08246 
L 165.166119 -66.404125 
L 167.720621 -79.681282 
L 188.358832 -35.075668 
z
" clip-path="url(#p513c5edb80)" style="fill: #0000f5; fill-opacity: 0.1"/>
    <path d="M 296.062126 160.198506 
L 275.858794 116.41539 
L 279.02269 104.131978 
L 299.326633 148.193185 
z
" clip-path="url(#p513c5edb80)" style="fill: #0000f5; fill-opacity: 0.1"/>
    <path d="M 252.499974 84.785217 
L 232.143942 40.730681 
L 235.07027 28.021621 
L 255.528575 72.357295 
z
" clip-path="url(#p513c5edb80)" style="fill: #0000f5; fill-opacity: 0.1"/>
    <path d="M 208.868027 9.251104 
L 188.358832 -35.075668 
L 191.046822 -48.211731 
L 211.659962 -3.600762 
z
" clip-path="url(#p513c5edb80)" style="fill: #0000f5; fill-opacity: 0.1"/>
    <path d="M 319.503558 191.978752 
L 299.326633 148.193185 
L 302.627058 136.055772 
L 322.904254 180.119636 
z
" clip-path="url(#p513c5edb80)" style="fill: #0000f5; fill-opacity: 0.1"/>
    <path d="M 165.166119 -66.404125 
L 144.503294 -111.003949 
L 146.952173 -124.568378 
L 167.720621 -79.681282 
z
" clip-path="url(#p513c5edb80)" style="fill: #0000f5; fill-opacity: 0.1"/>
    <path d="M 275.858794 116.41539 
L 255.528575 72.357295 
L 258.590527 59.792521 
L 279.02269 104.131978 
z
" clip-path="url(#p513c5edb80)" style="fill: #0000f5; fill-opacity: 0.1"/>
    <path d="M 232.143942 40.730681 
L 211.659962 -3.600762 
L 214.482665 -16.594262 
L 235.07027 28.021621 
z
" clip-path="url(#p513c5edb80)" style="fill: #0000f5; fill-opacity: 0.1"/>
    <path d="M 343.054304 223.907201 
L 322.904254 180.119636 
L 326.342456 168.12973 
L 346.592431 212.19579 
z
" clip-path="url(#p513c5edb80)" style="fill: #0000f5; fill-opacity: 0.1"/>
    <path d="M 188.358832 -35.075668 
L 167.720621 -79.681282 
L 170.303298 -93.104879 
L 191.046822 -48.211731 
z
" clip-path="url(#p513c5edb80)" style="fill: #0000f5; fill-opacity: 0.1"/>
    <path d="M 299.326633 148.193185 
L 279.02269 104.131978 
L 282.221508 91.712987 
L 302.627058 136.055772 
z
" clip-path="url(#p513c5edb80)" style="fill: #0000f5; fill-opacity: 0.1"/>
    <path d="M 255.528575 72.357295 
L 235.07027 28.021621 
L 238.028924 15.172171 
L 258.590527 59.792521 
z
" clip-path="url(#p513c5edb80)" style="fill: #0000f5; fill-opacity: 0.1"/>
    <path d="M 211.659962 -3.600762 
L 191.046822 -48.211731 
L 193.764529 -61.493021 
L 214.482665 -16.594262 
z
" clip-path="url(#p513c5edb80)" style="fill: #0000f5; fill-opacity: 0.1"/>
    <path d="M 322.904254 180.119636 
L 302.627058 136.055772 
L 305.963998 123.784076 
L 326.342456 168.12973 
z
" clip-path="url(#p513c5edb80)" style="fill: #0000f5; fill-opacity: 0.1"/>
    <path d="M 167.720621 -79.681282 
L 146.952173 -124.568378 
L 149.428148 -138.282891 
L 170.303298 -93.104879 
z
" clip-path="url(#p513c5edb80)" style="fill: #0000f5; fill-opacity: 0.1"/>
    <path d="M 279.02269 104.131978 
L 258.590527 59.792521 
L 261.686382 47.088623 
L 282.221508 91.712987 
z
" clip-path="url(#p513c5edb80)" style="fill: #0000f5; fill-opacity: 0.1"/>
    <path d="M 235.07027 28.021621 
L 214.482665 -16.594262 
L 217.336648 -29.731752 
L 238.028924 15.172171 
z
" clip-path="url(#p513c5edb80)" style="fill: #0000f5; fill-opacity: 0.1"/>
    <path d="M 346.592431 212.19579 
L 326.342456 168.12973 
L 329.818786 156.006858 
L 350.16967 200.354913 
z
" clip-path="url(#p513c5edb80)" style="fill: #0000f5; fill-opacity: 0.1"/>
    <path d="M 191.046822 -48.211731 
L 170.303298 -93.104879 
L 172.914618 -106.677353 
L 193.764529 -61.493021 
z
" clip-path="url(#p513c5edb80)" style="fill: #0000f5; fill-opacity: 0.1"/>
    <path d="M 302.627058 136.055772 
L 282.221508 91.712987 
L 285.455829 79.156159 
L 305.963998 123.784076 
z
" clip-path="url(#p513c5edb80)" style="fill: #0000f5; fill-opacity: 0.1"/>
    <path d="M 258.590527 59.792521 
L 238.028924 15.172171 
L 241.020442 2.17999 
L 261.686382 47.088623 
z
" clip-path="url(#p513c5edb80)" style="fill: #0000f5; fill-opacity: 0.1"/>
    <path d="M 214.482665 -16.594262 
L 193.764529 -61.493021 
L 196.512449 -74.921958 
L 217.336648 -29.731752 
z
" clip-path="url(#p513c5edb80)" style="fill: #0000f5; fill-opacity: 0.1"/>
    <path d="M 326.342456 168.12973 
L 305.963998 123.784076 
L 309.338061 111.375856 
L 329.818786 156.006858 
z
" clip-path="url(#p513c5edb80)" style="fill: #0000f5; fill-opacity: 0.1"/>
    <path d="M 170.303298 -93.104879 
L 149.428148 -138.282891 
L 151.93167 -152.149992 
L 172.914618 -106.677353 
z
" clip-path="url(#p513c5edb80)" style="fill: #0000f5; fill-opacity: 0.1"/>
    <path d="M 282.221508 91.712987 
L 261.686382 47.088623 
L 264.816708 34.243276 
L 285.455829 79.156159 
z
" clip-path="url(#p513c5edb80)" style="fill: #0000f5; fill-opacity: 0.1"/>
    <path d="M 238.028924 15.172171 
L 217.336648 -29.731752 
L 220.222434 -43.015637 
L 241.020442 2.17999 
z
" clip-path="url(#p513c5edb80)" style="fill: #0000f5; fill-opacity: 0.1"/>
    <path d="M 350.16967 200.354913 
L 329.818786 156.006858 
L 333.333884 143.748797 
L 353.786673 188.382412 
z
" clip-path="url(#p513c5edb80)" style="fill: #0000f5; fill-opacity: 0.1"/>
    <path d="M 193.764529 -61.493021 
L 172.914618 -106.677353 
L 175.555061 -120.401194 
L 196.512449 -74.921958 
z
" clip-path="url(#p513c5edb80)" style="fill: #0000f5; fill-opacity: 0.1"/>
    <path d="M 305.963998 123.784076 
L 285.455829 79.156159 
L 288.726247 66.459188 
L 309.338061 111.375856 
z
" clip-path="url(#p513c5edb80)" style="fill: #0000f5; fill-opacity: 0.1"/>
    <path d="M 261.686382 47.088623 
L 241.020442 2.17999 
L 244.045376 -10.957313 
L 264.816708 34.243276 
z
" clip-path="url(#p513c5edb80)" style="fill: #0000f5; fill-opacity: 0.1"/>
    <path d="M 217.336648 -29.731752 
L 196.512449 -74.921958 
L 199.291088 -88.501018 
L 220.222434 -43.015637 
z
" clip-path="url(#p513c5edb80)" style="fill: #0000f5; fill-opacity: 0.1"/>
    <path d="M 329.818786 156.006858 
L 309.338061 111.375856 
L 312.749872 98.82882 
L 333.333884 143.748797 
z
" clip-path="url(#p513c5edb80)" style="fill: #0000f5; fill-opacity: 0.1"/>
    <path d="M 172.914618 -106.677353 
L 151.93167 -152.149992 
L 154.463203 -166.172242 
L 175.555061 -120.401194 
z
" clip-path="url(#p513c5edb80)" style="fill: #0000f5; fill-opacity: 0.1"/>
    <path d="M 285.455829 79.156159 
L 264.816708 34.243276 
L 267.982082 21.254105 
L 288.726247 66.459188 
z
" clip-path="url(#p513c5edb80)" style="fill: #0000f5; fill-opacity: 0.1"/>
    <path d="M 241.020442 2.17999 
L 220.222434 -43.015637 
L 223.140558 -56.448379 
L 244.045376 -10.957313 
z
" clip-path="url(#p513c5edb80)" style="fill: #0000f5; fill-opacity: 0.1"/>
    <path d="M 353.786673 188.382412 
L 333.333884 143.748797 
L 336.8884 131.353273 
L 357.444109 176.27608 
z
" clip-path="url(#p513c5edb80)" style="fill: #0000f5; fill-opacity: 0.1"/>
    <path d="M 196.512449 -74.921958 
L 175.555061 -120.401194 
L 178.225117 -134.278948 
L 199.291088 -88.501018 
z
" clip-path="url(#p513c5edb80)" style="fill: #0000f5; fill-opacity: 0.1"/>
    <path d="M 309.338061 111.375856 
L 288.726247 66.459188 
L 292.033371 53.619714 
L 312.749872 98.82882 
z
" clip-path="url(#p513c5edb80)" style="fill: #0000f5; fill-opacity: 0.1"/>
    <path d="M 264.816708 34.243276 
L 244.045376 -10.957313 
L 247.104287 -24.242182 
L 267.982082 21.254105 
z
" clip-path="url(#p513c5edb80)" style="fill: #0000f5; fill-opacity: 0.1"/>
    <path d="M 220.222434 -43.015637 
L 199.291088 -88.501018 
L 202.100964 -102.232733 
L 223.140558 -56.448379 
z
" clip-path="url(#p513c5edb80)" style="fill: #0000f5; fill-opacity: 0.1"/>
    <path d="M 333.333884 143.748797 
L 312.749872 98.82882 
L 316.200066 86.140626 
L 336.8884 131.353273 
z
" clip-path="url(#p513c5edb80)" style="fill: #0000f5; fill-opacity: 0.1"/>
    <path d="M 175.555061 -120.401194 
L 154.463203 -166.172242 
L 157.023218 -180.352259 
L 178.225117 -134.278948 
z
" clip-path="url(#p513c5edb80)" style="fill: #0000f5; fill-opacity: 0.1"/>
    <path d="M 288.726247 66.459188 
L 267.982082 21.254105 
L 271.183097 8.118681 
L 292.033371 53.619714 
z
" clip-path="url(#p513c5edb80)" style="fill: #0000f5; fill-opacity: 0.1"/>
    <path d="M 244.045376 -10.957313 
L 223.140558 -56.448379 
L 226.091566 -70.032494 
L 247.104287 -24.242182 
z
" clip-path="url(#p513c5edb80)" style="fill: #0000f5; fill-opacity: 0.1"/>
    <path d="M 357.444109 176.27608 
L 336.8884 131.353273 
L 340.483001 118.817959 
L 361.142657 164.033661 
z
" clip-path="url(#p513c5edb80)" style="fill: #0000f5; fill-opacity: 0.1"/>
    <path d="M 199.291088 -88.501018 
L 178.225117 -134.278948 
L 180.925286 -148.31322 
L 202.100964 -102.232733 
z
" clip-path="url(#p513c5edb80)" style="fill: #0000f5; fill-opacity: 0.1"/>
    <path d="M 312.749872 98.82882 
L 292.033371 53.619714 
L 295.377821 40.635325 
L 316.200066 86.140626 
z
" clip-path="url(#p513c5edb80)" style="fill: #0000f5; fill-opacity: 0.1"/>
    <path d="M 267.982082 21.254105 
L 247.104287 -24.242182 
L 250.197752 -37.677118 
L 271.183097 8.118681 
z
" clip-path="url(#p513c5edb80)" style="fill: #0000f5; fill-opacity: 0.1"/>
    <path d="M 223.140558 -56.448379 
L 202.100964 -102.232733 
L 204.942607 -116.119692 
L 226.091566 -70.032494 
z
" clip-path="url(#p513c5edb80)" style="fill: #0000f5; fill-opacity: 0.1"/>
    <path d="M 336.8884 131.353273 
L 316.200066 86.140626 
L 319.689296 73.308878 
L 340.483001 118.817959 
z
" clip-path="url(#p513c5edb80)" style="fill: #0000f5; fill-opacity: 0.1"/>
    <path d="M 178.225117 -134.278948 
L 157.023218 -180.352259 
L 159.612199 -194.692722 
L 180.925286 -148.31322 
z
" clip-path="url(#p513c5edb80)" style="fill: #0000f5; fill-opacity: 0.1"/>
    <path d="M 292.033371 53.619714 
L 271.183097 8.118681 
L 274.420359 -5.165481 
L 295.377821 40.635325 
z
" clip-path="url(#p513c5edb80)" style="fill: #0000f5; fill-opacity: 0.1"/>
    <path d="M 247.104287 -24.242182 
L 226.091566 -70.032494 
L 229.076017 -83.770555 
L 250.197752 -37.677118 
z
" clip-path="url(#p513c5edb80)" style="fill: #0000f5; fill-opacity: 0.1"/>
    <path d="M 361.142657 164.033661 
L 340.483001 118.817959 
L 344.11837 106.140479 
L 364.883016 151.652847 
z
" clip-path="url(#p513c5edb80)" style="fill: #0000f5; fill-opacity: 0.1"/>
    <path d="M 202.100964 -102.232733 
L 180.925286 -148.31322 
L 183.656081 -162.506672 
L 204.942607 -116.119692 
z
" clip-path="url(#p513c5edb80)" style="fill: #0000f5; fill-opacity: 0.1"/>
    <path d="M 316.200066 86.140626 
L 295.377821 40.635325 
L 298.760233 27.503552 
L 319.689296 73.308878 
z
" clip-path="url(#p513c5edb80)" style="fill: #0000f5; fill-opacity: 0.1"/>
    <path d="M 271.183097 8.118681 
L 250.197752 -37.677118 
L 253.326359 -51.264678 
L 274.420359 -5.165481 
z
" clip-path="url(#p513c5edb80)" style="fill: #0000f5; fill-opacity: 0.1"/>
    <path d="M 226.091566 -70.032494 
L 204.942607 -116.119692 
L 207.816559 -130.164542 
L 229.076017 -83.770555 
z
" clip-path="url(#p513c5edb80)" style="fill: #0000f5; fill-opacity: 0.1"/>
    <path d="M 340.483001 118.817959 
L 319.689296 73.308878 
L 323.218227 60.331127 
L 344.11837 106.140479 
z
" clip-path="url(#p513c5edb80)" style="fill: #0000f5; fill-opacity: 0.1"/>
    <path d="M 180.925286 -148.31322 
L 159.612199 -194.692722 
L 162.230642 -209.196368 
L 183.656081 -162.506672 
z
" clip-path="url(#p513c5edb80)" style="fill: #0000f5; fill-opacity: 0.1"/>
    <path d="M 295.377821 40.635325 
L 274.420359 -5.165481 
L 277.694486 -18.60092 
L 298.760233 27.503552 
z
" clip-path="url(#p513c5edb80)" style="fill: #0000f5; fill-opacity: 0.1"/>
    <path d="M 250.197752 -37.677118 
L 229.076017 -83.770555 
L 232.094483 -97.665194 
L 253.326359 -51.264678 
z
" clip-path="url(#p513c5edb80)" style="fill: #0000f5; fill-opacity: 0.1"/>
    <path d="M 364.883016 151.652847 
L 344.11837 106.140479 
L 347.795204 93.3184 
L 368.665898 139.131277 
z
" clip-path="url(#p513c5edb80)" style="fill: #0000f5; fill-opacity: 0.1"/>
    <path d="M 204.942607 -116.119692 
L 183.656081 -162.506672 
L 186.418026 -176.862027 
L 207.816559 -130.164542 
z
" clip-path="url(#p513c5edb80)" style="fill: #0000f5; fill-opacity: 0.1"/>
    <path d="M 319.689296 73.308878 
L 298.760233 27.503552 
L 302.181257 14.221873 
L 323.218227 60.331127 
z
" clip-path="url(#p513c5edb80)" style="fill: #0000f5; fill-opacity: 0.1"/>
    <path d="M 274.420359 -5.165481 
L 253.326359 -51.264678 
L 256.490711 -65.007479 
L 277.694486 -18.60092 
z
" clip-path="url(#p513c5edb80)" style="fill: #0000f5; fill-opacity: 0.1"/>
    <path d="M 229.076017 -83.770555 
L 207.816559 -130.164542 
L 210.723374 -144.369991 
L 232.094483 -97.665194 
z
" clip-path="url(#p513c5edb80)" style="fill: #0000f5; fill-opacity: 0.1"/>
    <path d="M 344.11837 106.140479 
L 323.218227 60.331127 
L 326.787542 47.204866 
L 347.795204 93.3184 
z
" clip-path="url(#p513c5edb80)" style="fill: #0000f5; fill-opacity: 0.1"/>
    <path d="M 183.656081 -162.506672 
L 162.230642 -209.196368 
L 164.87905 -223.866 
L 186.418026 -176.862027 
z
" clip-path="url(#p513c5edb80)" style="fill: #0000f5; fill-opacity: 0.1"/>
    <path d="M 298.760233 27.503552 
L 277.694486 -18.60092 
L 281.006112 -32.190236 
L 302.181257 14.221873 
z
" clip-path="url(#p513c5edb80)" style="fill: #0000f5; fill-opacity: 0.1"/>
    <path d="M 253.326359 -51.264678 
L 232.094483 -97.665194 
L 235.147549 -111.719103 
L 256.490711 -65.007479 
z
" clip-path="url(#p513c5edb80)" style="fill: #0000f5; fill-opacity: 0.1"/>
    <path d="M 207.816559 -130.164542 
L 186.418026 -176.862027 
L 189.211658 -191.382073 
L 210.723374 -144.369991 
z
" clip-path="url(#p513c5edb80)" style="fill: #0000f5; fill-opacity: 0.1"/>
    <path d="M 323.218227 60.331127 
L 302.181257 14.221873 
L 305.641559 0.787706 
L 326.787542 47.204866 
z
" clip-path="url(#p513c5edb80)" style="fill: #0000f5; fill-opacity: 0.1"/>
    <path d="M 277.694486 -18.60092 
L 256.490711 -65.007479 
L 259.691425 -78.908195 
L 281.006112 -32.190236 
z
" clip-path="url(#p513c5edb80)" style="fill: #0000f5; fill-opacity: 0.1"/>
    <path d="M 232.094483 -97.665194 
L 210.723374 -144.369991 
L 213.663618 -158.73881 
L 235.147549 -111.719103 
z
" clip-path="url(#p513c5edb80)" style="fill: #0000f5; fill-opacity: 0.1"/>
    <path d="M 186.418026 -176.862027 
L 164.87905 -223.866 
L 167.557943 -238.704482 
L 189.211658 -191.382073 
z
" clip-path="url(#p513c5edb80)" style="fill: #0000f5; fill-opacity: 0.1"/>
    <path d="M 302.181257 14.221873 
L 281.006112 -32.190236 
L 284.355884 -45.936088 
L 305.641559 0.787706 
z
" clip-path="url(#p513c5edb80)" style="fill: #0000f5; fill-opacity: 0.1"/>
    <path d="M 256.490711 -65.007479 
L 235.147549 -111.719103 
L 238.235813 -125.935036 
L 259.691425 -78.908195 
z
" clip-path="url(#p513c5edb80)" style="fill: #0000f5; fill-opacity: 0.1"/>
    <path d="M 210.723374 -144.369991 
L 189.211658 -191.382073 
L 192.037523 -206.069659 
L 213.663618 -158.73881 
z
" clip-path="url(#p513c5edb80)" style="fill: #0000f5; fill-opacity: 0.1"/>
    <path d="M 281.006112 -32.190236 
L 259.691425 -78.908195 
L 262.929129 -92.969564 
L 284.355884 -45.936088 
z
" clip-path="url(#p513c5edb80)" style="fill: #0000f5; fill-opacity: 0.1"/>
    <path d="M 235.147549 -111.719103 
L 213.663618 -158.73881 
L 216.637873 -173.273834 
L 238.235813 -125.935036 
z
" clip-path="url(#p513c5edb80)" style="fill: #0000f5; fill-opacity: 0.1"/>
    <path d="M 189.211658 -191.382073 
L 167.557943 -238.704482 
L 170.267848 -253.714748 
L 192.037523 -206.069659 
z
" clip-path="url(#p513c5edb80)" style="fill: #0000f5; fill-opacity: 0.1"/>
    <path d="M 259.691425 -78.908195 
L 238.235813 -125.935036 
L 241.359887 -140.315812 
L 262.929129 -92.969564 
z
" clip-path="url(#p513c5edb80)" style="fill: #0000f5; fill-opacity: 0.1"/>
    <path d="M 213.663618 -158.73881 
L 192.037523 -206.069659 
L 194.896185 -220.927702 
L 216.637873 -173.273834 
z
" clip-path="url(#p513c5edb80)" style="fill: #0000f5; fill-opacity: 0.1"/>
    <path d="M 238.235813 -125.935036 
L 216.637873 -173.273834 
L 219.646731 -187.977962 
L 241.359887 -140.315812 
z
" clip-path="url(#p513c5edb80)" style="fill: #0000f5; fill-opacity: 0.1"/>
    <path d="M 192.037523 -206.069659 
L 170.267848 -253.714748 
L 173.009309 -268.899797 
L 194.896185 -220.927702 
z
" clip-path="url(#p513c5edb80)" style="fill: #0000f5; fill-opacity: 0.1"/>
    <path d="M 216.637873 -173.273834 
L 194.896185 -220.927702 
L 197.788216 -235.959186 
L 219.646731 -187.977962 
z
" clip-path="url(#p513c5edb80)" style="fill: #0000f5; fill-opacity: 0.1"/>
    <path d="M 194.896185 -220.927702 
L 173.009309 -268.899797 
L 175.782878 -284.2627 
L 197.788216 -235.959186 
z
" clip-path="url(#p513c5edb80)" style="fill: #0000f5; fill-opacity: 0.1"/>
   </g>
   <g id="legend_1">
    <g id="patch_6">
     <path d="M 357.840076 67.305115 
L 396.2 67.305115 
Q 398.2 67.305115 398.2 65.305115 
L 398.2 7 
Q 398.2 5 396.2 5 
L 357.840076 5 
Q 355.840076 5 355.840076 7 
L 355.840076 65.305115 
Q 355.840076 67.305115 357.840076 67.305115 
z
" style="fill: #ffffff; opacity: 0.8; stroke: #cccccc; stroke-linejoin: miter"/>
    </g>
    <g id="line2d_25">
     <path d="M 359.840076 12.5 
L 369.840076 12.5 
L 379.840076 12.5 
" style="fill: none; stroke: #ff0000; stroke-width: 1.5; stroke-linecap: square"/>
    </g>
    <g id="text_21">
     <!-- $\vec{a}$ -->
     <g transform="translate(387.840076 16)scale(0.1 -0.1)">
      <defs>
       <path id="CMMI12-7e" d="M 3424 3835 
C 3347 3764 3110 3540 3110 3451 
C 3110 3387 3168 3329 3232 3329 
C 3290 3329 3315 3368 3360 3432 
C 3514 3624 3686 3745 3834 3828 
C 3898 3867 3942 3886 3942 3956 
C 3942 4014 3891 4046 3853 4078 
C 3674 4200 3629 4372 3610 4449 
C 3590 4500 3571 4577 3482 4577 
C 3443 4577 3366 4552 3366 4456 
C 3366 4398 3405 4244 3526 4072 
L 1376 4072 
C 1267 4072 1158 4072 1158 3950 
C 1158 3835 1274 3835 1376 3835 
L 3424 3835 
z
" transform="scale(0.015625)"/>
       <path id="CMMI12-61" d="M 1926 760 
C 1894 651 1894 639 1805 517 
C 1664 338 1382 64 1082 64 
C 819 64 672 300 672 677 
C 672 1028 870 1743 992 2012 
C 1210 2459 1510 2689 1760 2689 
C 2182 2689 2266 2165 2266 2114 
C 2266 2108 2246 2024 2240 2012 
L 1926 760 
z
M 2336 2395 
C 2266 2561 2093 2816 1760 2816 
C 1037 2816 256 1884 256 939 
C 256 307 627 -64 1062 -64 
C 1414 -64 1715 211 1894 422 
C 1958 45 2259 -64 2451 -64 
C 2643 -64 2797 51 2912 281 
C 3014 498 3104 888 3104 913 
C 3104 945 3078 971 3040 971 
C 2982 971 2976 939 2950 843 
C 2854 466 2733 64 2470 64 
C 2285 64 2272 230 2272 358 
C 2272 505 2291 575 2349 824 
C 2394 984 2426 1124 2477 1309 
C 2714 2267 2771 2497 2771 2535 
C 2771 2625 2701 2695 2605 2695 
C 2400 2695 2349 2472 2336 2395 
z
" transform="scale(0.015625)"/>
      </defs>
      <use xlink:href="#CMMI12-7e" transform="scale(0.996264)"/>
      <use xlink:href="#CMMI12-61" transform="translate(6.445738 0)scale(0.996264)"/>
     </g>
    </g>
    <g id="line2d_26">
     <path d="M 359.840076 27.24679 
L 369.840076 27.24679 
L 379.840076 27.24679 
" style="fill: none; stroke: #00ff00; stroke-width: 1.5; stroke-linecap: square"/>
    </g>
    <g id="text_22">
     <!-- $\vec{b}$ -->
     <g transform="translate(387.840076 30.74679)scale(0.1 -0.1)">
      <defs>
       <path id="CMMI12-62" d="M 1478 4257 
C 1485 4283 1498 4321 1498 4352 
C 1498 4416 1434 4416 1421 4416 
C 1414 4416 1184 4393 1069 4377 
C 960 4377 864 4358 749 4358 
C 595 4345 550 4339 550 4224 
C 550 4160 614 4160 678 4160 
C 1005 4160 1005 4103 1005 4040 
C 1005 3996 954 3811 928 3696 
L 774 3085 
C 710 2831 346 1387 320 1272 
C 288 1114 288 1005 288 922 
C 288 274 653 -64 1069 -64 
C 1811 -64 2579 888 2579 1814 
C 2579 2401 2246 2816 1766 2816 
C 1434 2816 1133 2542 1011 2414 
L 1478 4257 
z
M 1075 64 
C 870 64 646 217 646 715 
C 646 926 666 1047 781 1494 
C 800 1577 902 1986 928 2069 
C 941 2120 1318 2689 1754 2689 
C 2035 2689 2163 2408 2163 2076 
C 2163 1769 1984 1047 1824 715 
C 1664 370 1370 64 1075 64 
z
" transform="scale(0.015625)"/>
      </defs>
      <use xlink:href="#CMMI12-7e" transform="translate(0 26.29016)scale(0.996264)"/>
      <use xlink:href="#CMMI12-62" transform="translate(11.311737 0)scale(0.996264)"/>
     </g>
    </g>
    <g id="line2d_27">
     <path d="M 359.840076 41.183968 
L 369.840076 41.183968 
L 379.840076 41.183968 
" style="fill: none; stroke: #0016ff; stroke-width: 1.5; stroke-linecap: square"/>
    </g>
    <g id="text_23">
     <!-- $\vec{c}$ -->
     <g transform="translate(387.840076 44.683968)scale(0.1 -0.1)">
      <defs>
       <path id="CMMI12-63" d="M 2502 2431 
C 2381 2431 2323 2431 2234 2355 
C 2195 2323 2125 2227 2125 2125 
C 2125 1997 2221 1920 2342 1920 
C 2496 1920 2669 2044 2669 2292 
C 2669 2588 2374 2816 1933 2816 
C 1094 2816 256 1903 256 996 
C 256 441 602 -64 1254 -64 
C 2125 -64 2675 622 2675 706 
C 2675 744 2637 776 2611 776 
C 2592 776 2586 770 2528 713 
C 2118 162 1510 64 1267 64 
C 826 64 685 446 685 764 
C 685 988 794 1605 1024 2039 
C 1190 2338 1536 2682 1939 2682 
C 2022 2682 2374 2682 2502 2431 
z
" transform="scale(0.015625)"/>
      </defs>
      <use xlink:href="#CMMI12-7e" transform="scale(0.996264)"/>
      <use xlink:href="#CMMI12-63" transform="translate(5.638615 0)scale(0.996264)"/>
     </g>
    </g>
    <g id="line2d_28">
     <path d="M 359.840076 57.867937 
L 369.840076 57.867937 
L 379.840076 57.867937 
" style="fill: none; stroke: #f400ff; stroke-width: 1.5; stroke-linecap: square"/>
    </g>
    <g id="text_24">
     <!-- $\vec{f}$ -->
     <g transform="translate(387.840076 61.367937)scale(0.1 -0.1)">
      <defs>
       <path id="CMMI12-66" d="M 2854 2566 
C 2982 2566 3034 2566 3034 2688 
C 3034 2752 2982 2752 2867 2752 
L 2349 2752 
C 2470 3429 2560 3897 2611 4107 
C 2650 4265 2784 4416 2950 4416 
C 3085 4416 3219 4358 3283 4298 
C 3034 4272 2957 4082 2957 3969 
C 2957 3837 3053 3759 3174 3759 
C 3302 3759 3494 3870 3494 4119 
C 3494 4393 3226 4544 2944 4544 
C 2669 4544 2400 4334 2272 4078 
C 2157 3848 2093 3611 1946 2752 
L 1517 2752 
C 1395 2752 1331 2752 1331 2637 
C 1331 2566 1370 2566 1498 2566 
L 1907 2566 
C 1792 1976 1530 542 1382 -137 
C 1274 -689 1178 -1152 858 -1152 
C 838 -1152 653 -1152 538 -1031 
C 864 -1005 864 -726 864 -720 
C 864 -593 768 -517 646 -517 
C 518 -517 326 -625 326 -867 
C 326 -1140 608 -1280 858 -1280 
C 1510 -1280 1779 -118 1850 199 
C 1965 688 2278 2376 2310 2566 
L 2854 2566 
z
" transform="scale(0.015625)"/>
      </defs>
      <use xlink:href="#CMMI12-7e" transform="translate(13.568792 26.29016)scale(0.996264)"/>
      <use xlink:href="#CMMI12-66" transform="scale(0.996264)"/>
     </g>
    </g>
   </g>
  </g>
 </g>
 <defs>
  <clipPath id="p513c5edb80">
   <rect x="57.6" y="0" width="345.6" height="345.6"/>
  </clipPath>
 </defs>
</svg>
