<?xml version="1.0" encoding="utf-8" standalone="no"?>
<!DOCTYPE svg PUBLIC "-//W3C//DTD SVG 1.1//EN"
  "http://www.w3.org/Graphics/SVG/1.1/DTD/svg11.dtd">
<svg xmlns:xlink="http://www.w3.org/1999/xlink" width="460.8pt" height="345.6pt" viewBox="0 0 460.8 345.6" xmlns="http://www.w3.org/2000/svg" version="1.1">
 <metadata>
  <rdf:RDF xmlns:dc="http://purl.org/dc/elements/1.1/" xmlns:cc="http://creativecommons.org/ns#" xmlns:rdf="http://www.w3.org/1999/02/22-rdf-syntax-ns#">
   <cc:Work>
    <dc:type rdf:resource="http://purl.org/dc/dcmitype/StillImage"/>
    <dc:date>2022-07-12T15:41:37.277120</dc:date>
    <dc:format>image/svg+xml</dc:format>
    <dc:creator>
     <cc:Agent>
      <dc:title>Matplotlib v3.5.1, https://matplotlib.org/</dc:title>
     </cc:Agent>
    </dc:creator>
   </cc:Work>
  </rdf:RDF>
 </metadata>
 <defs>
  <style type="text/css">*{stroke-linejoin: round; stroke-linecap: butt}</style>
 </defs>
 <g id="figure_1">
  <g id="patch_1">
   <path d="M 0 345.6 
L 460.8 345.6 
L 460.8 0 
L 0 0 
z
" style="fill: #ffffff"/>
  </g>
  <g id="patch_2">
   <path d="M 57.6 345.6 
L 403.2 345.6 
L 403.2 0 
L 57.6 0 
z
" style="fill: #ffffff"/>
  </g>
  <g id="pane3d_1">
   <g id="patch_3">
    <path d="M 310.612388 245.914771 
L 375.974094 255.307036 
L 375.974094 80.952423 
L 310.612388 90.344689 
" style="fill: #f2f2f2; opacity: 0.5; stroke: #f2f2f2; stroke-linejoin: miter"/>
   </g>
  </g>
  <g id="pane3d_2">
   <g id="patch_4">
    <path d="M 310.612388 245.914771 
L 105.876678 248.061907 
L 105.876678 88.197552 
L 310.612388 90.344689 
" style="fill: #e6e6e6; opacity: 0.5; stroke: #e6e6e6; stroke-linejoin: miter"/>
   </g>
  </g>
  <g id="pane3d_3">
   <g id="patch_5">
    <path d="M 310.612388 245.914771 
L 105.876678 248.061907 
L 147.77876 258.013015 
L 375.974094 255.307036 
" style="fill: #ececec; opacity: 0.5; stroke: #ececec; stroke-linejoin: miter"/>
   </g>
  </g>
  <g id="axis3d_1">
   <g id="line2d_1">
    <path d="M 375.974094 255.307036 
L 147.77876 258.013015 
" style="fill: none; stroke: #000000; stroke-width: 0.8; stroke-linecap: square"/>
   </g>
   <g id="text_1">
    <!-- x -->
    <g transform="translate(268.612675 287.169402)scale(0.16 -0.16)">
     <defs>
      <path id="CMSS17-78" d="M 1587 1414 
L 2656 2739 
L 2099 2739 
L 1363 1777 
L 602 2739 
L 32 2739 
L 1139 1414 
L 0 0 
L 563 0 
L 1363 1121 
L 2195 0 
L 2758 0 
L 1587 1414 
z
" transform="scale(0.015625)"/>
     </defs>
     <use xlink:href="#CMSS17-78" transform="scale(0.996264)"/>
    </g>
   </g>
   <g id="Line3DCollection_1">
    <path d="M 371.544919 255.359558 
L 306.625524 245.956582 
L 306.625524 90.302877 
" style="fill: none; stroke: #b0b0b0; stroke-width: 0.8"/>
    <path d="M 328.751717 255.867007 
L 268.132422 246.360273 
L 268.132422 89.899186 
" style="fill: none; stroke: #b0b0b0; stroke-width: 0.8"/>
    <path d="M 285.457714 256.380395 
L 229.237907 246.768174 
L 229.237907 89.491286 
" style="fill: none; stroke: #b0b0b0; stroke-width: 0.8"/>
    <path d="M 241.654066 256.899826 
L 189.935668 247.18035 
L 189.935668 89.079109 
" style="fill: none; stroke: #b0b0b0; stroke-width: 0.8"/>
    <path d="M 197.331721 257.425407 
L 150.219259 247.596871 
L 150.219259 88.662589 
" style="fill: none; stroke: #b0b0b0; stroke-width: 0.8"/>
    <path d="M 152.481411 257.95725 
L 110.082099 248.017803 
L 110.082099 88.241656 
" style="fill: none; stroke: #b0b0b0; stroke-width: 0.8"/>
   </g>
   <g id="xtick_1">
    <g id="line2d_2">
     <path d="M 370.963377 255.275327 
L 372.71138 255.52851 
" style="fill: none; stroke: #000000; stroke-width: 0.8; stroke-linecap: square"/>
    </g>
    <g id="text_2">
     <!-- $\mathdefault{0}$ -->
     <g transform="translate(373.739155 274.189361)scale(0.1 -0.1)">
      <defs>
       <path id="CMR17-30" d="M 2688 2025 
C 2688 2416 2682 3080 2413 3591 
C 2176 4039 1798 4198 1466 4198 
C 1158 4198 768 4058 525 3597 
C 269 3118 243 2524 243 2025 
C 243 1661 250 1106 448 619 
C 723 -39 1216 -128 1466 -128 
C 1760 -128 2208 -7 2470 600 
C 2662 1042 2688 1559 2688 2025 
z
M 1466 -26 
C 1056 -26 813 325 723 812 
C 653 1188 653 1738 653 2096 
C 653 2588 653 2997 736 3387 
C 858 3929 1216 4096 1466 4096 
C 1728 4096 2067 3923 2189 3400 
C 2272 3036 2278 2607 2278 2096 
C 2278 1680 2278 1169 2202 792 
C 2067 95 1690 -26 1466 -26 
z
" transform="scale(0.015625)"/>
      </defs>
      <use xlink:href="#CMR17-30" transform="scale(0.996264)"/>
     </g>
    </g>
   </g>
   <g id="xtick_2">
    <g id="line2d_3">
     <path d="M 328.208358 255.781794 
L 329.84161 256.037932 
" style="fill: none; stroke: #000000; stroke-width: 0.8; stroke-linecap: square"/>
    </g>
    <g id="text_3">
     <!-- $\mathdefault{1}$ -->
     <g transform="translate(330.638578 274.770615)scale(0.1 -0.1)">
      <defs>
       <path id="CMR17-31" d="M 1702 4058 
C 1702 4192 1696 4192 1606 4192 
C 1357 3916 979 3827 621 3827 
C 602 3827 570 3827 563 3808 
C 557 3795 557 3782 557 3648 
C 755 3648 1088 3686 1344 3839 
L 1344 461 
C 1344 236 1331 160 781 160 
L 589 160 
L 589 0 
C 896 0 1216 0 1523 0 
C 1830 0 2150 0 2458 0 
L 2458 160 
L 2266 160 
C 1715 160 1702 230 1702 458 
L 1702 4058 
z
" transform="scale(0.015625)"/>
      </defs>
      <use xlink:href="#CMR17-31" transform="scale(0.996264)"/>
     </g>
    </g>
   </g>
   <g id="xtick_3">
    <g id="line2d_4">
     <path d="M 284.953473 256.294182 
L 286.46916 256.553327 
" style="fill: none; stroke: #000000; stroke-width: 0.8; stroke-linecap: square"/>
    </g>
    <g id="text_4">
     <!-- $\mathdefault{2}$ -->
     <g transform="translate(287.029633 275.358725)scale(0.1 -0.1)">
      <defs>
       <path id="CMR17-32" d="M 2669 989 
L 2554 989 
C 2490 536 2438 459 2413 420 
C 2381 369 1920 369 1830 369 
L 602 369 
C 832 619 1280 1072 1824 1597 
C 2214 1967 2669 2402 2669 3035 
C 2669 3790 2067 4224 1395 4224 
C 691 4224 262 3604 262 3030 
C 262 2780 448 2748 525 2748 
C 589 2748 781 2787 781 3010 
C 781 3207 614 3264 525 3264 
C 486 3264 448 3258 422 3245 
C 544 3790 915 4058 1306 4058 
C 1862 4058 2227 3617 2227 3035 
C 2227 2479 1901 2000 1536 1584 
L 262 146 
L 262 0 
L 2515 0 
L 2669 989 
z
" transform="scale(0.015625)"/>
      </defs>
      <use xlink:href="#CMR17-32" transform="scale(0.996264)"/>
     </g>
    </g>
   </g>
   <g id="xtick_4">
    <g id="line2d_5">
     <path d="M 241.189904 256.812595 
L 242.585135 257.074802 
" style="fill: none; stroke: #000000; stroke-width: 0.8; stroke-linecap: square"/>
    </g>
    <g id="text_5">
     <!-- $\mathdefault{3}$ -->
     <g transform="translate(242.903271 275.953813)scale(0.1 -0.1)">
      <defs>
       <path id="CMR17-33" d="M 1414 2157 
C 1984 2157 2234 1662 2234 1090 
C 2234 320 1824 25 1453 25 
C 1114 25 563 194 390 693 
C 422 680 454 680 486 680 
C 640 680 755 782 755 948 
C 755 1133 614 1216 486 1216 
C 378 1216 211 1165 211 926 
C 211 335 787 -128 1466 -128 
C 2176 -128 2720 430 2720 1085 
C 2720 1707 2208 2157 1600 2227 
C 2086 2328 2554 2756 2554 3329 
C 2554 3820 2048 4179 1472 4179 
C 890 4179 378 3829 378 3329 
C 378 3110 544 3072 627 3072 
C 762 3072 877 3155 877 3321 
C 877 3486 762 3569 627 3569 
C 602 3569 570 3569 544 3557 
C 730 3959 1235 4032 1459 4032 
C 1683 4032 2106 3925 2106 3320 
C 2106 3143 2080 2828 1862 2550 
C 1670 2304 1453 2304 1242 2284 
C 1210 2284 1062 2269 1037 2269 
C 992 2263 966 2257 966 2208 
C 966 2163 973 2157 1101 2157 
L 1414 2157 
z
" transform="scale(0.015625)"/>
      </defs>
      <use xlink:href="#CMR17-33" transform="scale(0.996264)"/>
     </g>
    </g>
   </g>
   <g id="xtick_5">
    <g id="line2d_6">
     <path d="M 196.908625 257.337142 
L 198.18043 257.602464 
" style="fill: none; stroke: #000000; stroke-width: 0.8; stroke-linecap: square"/>
    </g>
    <g id="text_6">
     <!-- $\mathdefault{4}$ -->
     <g transform="translate(198.250229 276.556004)scale(0.1 -0.1)">
      <defs>
       <path id="CMR17-34" d="M 2150 4122 
C 2150 4256 2144 4256 2029 4256 
L 128 1254 
L 128 1088 
L 1779 1088 
L 1779 457 
C 1779 224 1766 160 1318 160 
L 1197 160 
L 1197 0 
C 1402 0 1747 0 1965 0 
C 2182 0 2528 0 2733 0 
L 2733 160 
L 2611 160 
C 2163 160 2150 224 2150 457 
L 2150 1088 
L 2803 1088 
L 2803 1254 
L 2150 1254 
L 2150 4122 
z
M 1798 3703 
L 1798 1254 
L 256 1254 
L 1798 3703 
z
" transform="scale(0.015625)"/>
      </defs>
      <use xlink:href="#CMR17-34" transform="scale(0.996264)"/>
     </g>
    </g>
   </g>
   <g id="xtick_6">
    <g id="line2d_7">
     <path d="M 152.100394 257.86793 
L 153.245725 258.136424 
" style="fill: none; stroke: #000000; stroke-width: 0.8; stroke-linecap: square"/>
    </g>
    <g id="text_7">
     <!-- $\mathdefault{5}$ -->
     <g transform="translate(153.06102 277.165426)scale(0.1 -0.1)">
      <defs>
       <path id="CMR17-35" d="M 730 3692 
C 794 3666 1056 3584 1325 3584 
C 1920 3584 2246 3911 2432 4100 
C 2432 4157 2432 4192 2394 4192 
C 2387 4192 2374 4192 2323 4163 
C 2099 4058 1837 3973 1517 3973 
C 1325 3973 1037 3999 723 4139 
C 653 4171 640 4171 634 4171 
C 602 4171 595 4164 595 4037 
L 595 2203 
C 595 2089 595 2057 659 2057 
C 691 2057 704 2070 736 2114 
C 941 2401 1222 2522 1542 2522 
C 1766 2522 2246 2382 2246 1289 
C 2246 1085 2246 715 2054 421 
C 1894 159 1645 25 1370 25 
C 947 25 518 320 403 814 
C 429 807 480 795 506 795 
C 589 795 749 840 749 1038 
C 749 1210 627 1280 506 1280 
C 358 1280 262 1190 262 1011 
C 262 454 704 -128 1382 -128 
C 2042 -128 2669 440 2669 1264 
C 2669 2030 2170 2624 1549 2624 
C 1222 2624 947 2503 730 2274 
L 730 3692 
z
" transform="scale(0.015625)"/>
      </defs>
      <use xlink:href="#CMR17-35" transform="scale(0.996264)"/>
     </g>
    </g>
   </g>
  </g>
  <g id="axis3d_2">
   <g id="line2d_8">
    <path d="M 105.876678 248.061907 
L 147.77876 258.013015 
" style="fill: none; stroke: #000000; stroke-width: 0.8; stroke-linecap: square"/>
   </g>
   <g id="text_8">
    <!-- y -->
    <g transform="translate(91.051679 280.676035)scale(0.16 -0.16)">
     <defs>
      <path id="CMSS17-79" d="M 2675 2752 
L 2176 2752 
C 1632 1294 1446 702 1434 383 
L 1427 383 
C 1408 696 1126 1460 902 2007 
L 602 2752 
L 83 2752 
L 1216 13 
C 1146 -178 1043 -465 1011 -529 
C 870 -885 774 -885 672 -885 
C 646 -885 442 -885 211 -809 
L 250 -1229 
C 410 -1261 570 -1280 685 -1280 
C 845 -1280 1165 -1280 1459 -497 
L 2675 2752 
z
" transform="scale(0.015625)"/>
     </defs>
     <use xlink:href="#CMSS17-79" transform="scale(0.996264)"/>
    </g>
   </g>
   <g id="Line3DCollection_2">
    <path d="M 317.463102 89.360263 
L 317.463102 246.899196 
L 110.255426 249.101793 
" style="fill: none; stroke: #b0b0b0; stroke-width: 0.8"/>
    <path d="M 329.191396 87.674945 
L 329.191396 248.584514 
L 117.758868 250.883746 
" style="fill: none; stroke: #b0b0b0; stroke-width: 0.8"/>
    <path d="M 341.43253 85.915934 
L 341.43253 250.343525 
L 125.599998 252.745896 
" style="fill: none; stroke: #b0b0b0; stroke-width: 0.8"/>
    <path d="M 354.220892 84.078288 
L 354.220892 252.181172 
L 133.802138 254.693779 
" style="fill: none; stroke: #b0b0b0; stroke-width: 0.8"/>
    <path d="M 367.594018 82.156613 
L 367.594018 254.102847 
L 142.390805 256.733457 
" style="fill: none; stroke: #b0b0b0; stroke-width: 0.8"/>
   </g>
   <g id="xtick_7">
    <g id="line2d_9">
     <path d="M 111.959058 249.083683 
L 106.845872 249.138036 
" style="fill: none; stroke: #000000; stroke-width: 0.8; stroke-linecap: square"/>
    </g>
    <g id="text_9">
     <!-- $\mathdefault{−4}$ -->
     <g transform="translate(90.257587 266.530154)scale(0.1 -0.1)">
      <defs>
       <path id="CMSY10-0" d="M 4218 1472 
C 4326 1472 4442 1472 4442 1600 
C 4442 1728 4326 1728 4218 1728 
L 755 1728 
C 646 1728 531 1728 531 1600 
C 531 1472 646 1472 755 1472 
L 4218 1472 
z
" transform="scale(0.015625)"/>
      </defs>
      <use xlink:href="#CMSY10-0" transform="scale(0.996264)"/>
      <use xlink:href="#CMR17-34" transform="translate(77.487468 0)scale(0.996264)"/>
     </g>
    </g>
   </g>
   <g id="xtick_8">
    <g id="line2d_10">
     <path d="M 119.498269 250.864831 
L 114.277679 250.921603 
" style="fill: none; stroke: #000000; stroke-width: 0.8; stroke-linecap: square"/>
    </g>
    <g id="text_10">
     <!-- $\mathdefault{−2}$ -->
     <g transform="translate(97.474188 268.547081)scale(0.1 -0.1)">
      <use xlink:href="#CMSY10-0" transform="scale(0.996264)"/>
      <use xlink:href="#CMR17-32" transform="translate(77.487468 0)scale(0.996264)"/>
     </g>
    </g>
   </g>
   <g id="xtick_9">
    <g id="line2d_11">
     <path d="M 127.376698 252.72612 
L 122.044105 252.785475 
" style="fill: none; stroke: #000000; stroke-width: 0.8; stroke-linecap: square"/>
    </g>
    <g id="text_11">
     <!-- $\mathdefault{0}$ -->
     <g transform="translate(108.890547 270.654948)scale(0.1 -0.1)">
      <use xlink:href="#CMR17-30" transform="scale(0.996264)"/>
     </g>
    </g>
   </g>
   <g id="xtick_10">
    <g id="line2d_12">
     <path d="M 135.617766 254.673082 
L 130.168273 254.735202 
" style="fill: none; stroke: #000000; stroke-width: 0.8; stroke-linecap: square"/>
    </g>
    <g id="text_12">
     <!-- $\mathdefault{2}$ -->
     <g transform="translate(116.780436 272.860048)scale(0.1 -0.1)">
      <use xlink:href="#CMR17-32" transform="scale(0.996264)"/>
     </g>
    </g>
   </g>
   <g id="xtick_11">
    <g id="line2d_13">
     <path d="M 144.247103 256.711774 
L 138.675483 256.776856 
" style="fill: none; stroke: #000000; stroke-width: 0.8; stroke-linecap: square"/>
    </g>
    <g id="text_13">
     <!-- $\mathdefault{4}$ -->
     <g transform="translate(125.042866 275.169267)scale(0.1 -0.1)">
      <use xlink:href="#CMR17-34" transform="scale(0.996264)"/>
     </g>
    </g>
   </g>
  </g>
  <g id="axis3d_3">
   <g id="line2d_14">
    <path d="M 105.876678 248.061907 
L 105.876678 88.197552 
" style="fill: none; stroke: #000000; stroke-width: 0.8; stroke-linecap: square"/>
   </g>
   <g id="text_14">
    <!-- z -->
    <g transform="translate(68.487901 172.114786)scale(0.16 -0.16)">
     <defs>
      <path id="CMSS17-7a" d="M 2400 2502 
L 2400 2750 
L 250 2750 
L 250 2368 
L 1069 2368 
C 1146 2368 1222 2368 1299 2368 
L 1747 2368 
L 166 261 
L 166 0 
L 2419 0 
L 2419 395 
L 1549 395 
C 1472 395 1395 395 1318 395 
L 826 395 
L 2400 2502 
z
" transform="scale(0.015625)"/>
     </defs>
     <use xlink:href="#CMSS17-7a" transform="scale(0.996264)"/>
    </g>
   </g>
   <g id="Line3DCollection_3">
    <path d="M 105.876678 244.86462 
L 310.612388 242.803369 
L 375.974094 251.819944 
" style="fill: none; stroke: #b0b0b0; stroke-width: 0.8"/>
    <path d="M 105.876678 214.170664 
L 310.612388 212.933913 
L 375.974094 218.343858 
" style="fill: none; stroke: #b0b0b0; stroke-width: 0.8"/>
    <path d="M 105.876678 183.476708 
L 310.612388 183.064458 
L 375.974094 184.867773 
" style="fill: none; stroke: #b0b0b0; stroke-width: 0.8"/>
    <path d="M 105.876678 152.782752 
L 310.612388 153.195002 
L 375.974094 151.391687 
" style="fill: none; stroke: #b0b0b0; stroke-width: 0.8"/>
    <path d="M 105.876678 122.088796 
L 310.612388 123.325546 
L 375.974094 117.915601 
" style="fill: none; stroke: #b0b0b0; stroke-width: 0.8"/>
    <path d="M 105.876678 91.39484 
L 310.612388 93.45609 
L 375.974094 84.439515 
" style="fill: none; stroke: #b0b0b0; stroke-width: 0.8"/>
   </g>
   <g id="xtick_12">
    <g id="line2d_15">
     <path d="M 107.559404 244.847678 
L 102.508997 244.898525 
" style="fill: none; stroke: #000000; stroke-width: 0.8; stroke-linecap: square"/>
    </g>
    <g id="text_15">
     <!-- $\mathdefault{0}$ -->
     <g transform="translate(87.647483 251.377833)scale(0.1 -0.1)">
      <use xlink:href="#CMR17-30" transform="scale(0.996264)"/>
     </g>
    </g>
   </g>
   <g id="xtick_13">
    <g id="line2d_16">
     <path d="M 107.559404 214.160499 
L 102.508997 214.191007 
" style="fill: none; stroke: #000000; stroke-width: 0.8; stroke-linecap: square"/>
    </g>
    <g id="text_16">
     <!-- $\mathdefault{1}$ -->
     <g transform="translate(87.647483 220.845991)scale(0.1 -0.1)">
      <use xlink:href="#CMR17-31" transform="scale(0.996264)"/>
     </g>
    </g>
   </g>
   <g id="xtick_14">
    <g id="line2d_17">
     <path d="M 107.559404 183.473319 
L 102.508997 183.483489 
" style="fill: none; stroke: #000000; stroke-width: 0.8; stroke-linecap: square"/>
    </g>
    <g id="text_17">
     <!-- $\mathdefault{2}$ -->
     <g transform="translate(87.647483 190.314149)scale(0.1 -0.1)">
      <use xlink:href="#CMR17-32" transform="scale(0.996264)"/>
     </g>
    </g>
   </g>
   <g id="xtick_15">
    <g id="line2d_18">
     <path d="M 107.559404 152.78614 
L 102.508997 152.775971 
" style="fill: none; stroke: #000000; stroke-width: 0.8; stroke-linecap: square"/>
    </g>
    <g id="text_18">
     <!-- $\mathdefault{3}$ -->
     <g transform="translate(87.647483 159.782307)scale(0.1 -0.1)">
      <use xlink:href="#CMR17-33" transform="scale(0.996264)"/>
     </g>
    </g>
   </g>
   <g id="xtick_16">
    <g id="line2d_19">
     <path d="M 107.559404 122.09896 
L 102.508997 122.068452 
" style="fill: none; stroke: #000000; stroke-width: 0.8; stroke-linecap: square"/>
    </g>
    <g id="text_19">
     <!-- $\mathdefault{4}$ -->
     <g transform="translate(87.647483 129.250465)scale(0.1 -0.1)">
      <use xlink:href="#CMR17-34" transform="scale(0.996264)"/>
     </g>
    </g>
   </g>
   <g id="xtick_17">
    <g id="line2d_20">
     <path d="M 107.559404 91.411781 
L 102.508997 91.360934 
" style="fill: none; stroke: #000000; stroke-width: 0.8; stroke-linecap: square"/>
    </g>
    <g id="text_20">
     <!-- $\mathdefault{5}$ -->
     <g transform="translate(87.647483 98.718623)scale(0.1 -0.1)">
      <use xlink:href="#CMR17-35" transform="scale(0.996264)"/>
     </g>
    </g>
   </g>
  </g>
  <g id="axes_1">
   <g id="line2d_21">
    <path d="M 337.236052 247.099815 
L 314.700703 86.017377 
" clip-path="url(#p8651cbf5ac)" style="fill: none; stroke: #ff0000; stroke-width: 1.5; stroke-linecap: square"/>
   </g>
   <g id="line2d_22">
    <path d="M 337.236052 247.099815 
L 245.20318 121.261694 
" clip-path="url(#p8651cbf5ac)" style="fill: none; stroke: #00ff00; stroke-width: 1.5; stroke-linecap: square"/>
   </g>
   <g id="line2d_23">
    <path d="M 337.236052 247.099815 
L 236.35995 -1 
" clip-path="url(#p8651cbf5ac)" style="fill: none; stroke: #0016ff; stroke-width: 1.5; stroke-linecap: square"/>
   </g>
   <g id="line2d_24">
    <path d="M 337.236052 247.099815 
L 118.268184 152.422768 
" clip-path="url(#p8651cbf5ac)" style="fill: none; stroke: #f400ff; stroke-width: 1.5; stroke-linecap: square"/>
   </g>
   <g id="Poly3DCollection_1">
    <path d="M 307.786454 355.317736 
L 288.551117 314.514884 
L 291.264715 303.960646 
L 310.593262 345.00361 
z
" clip-path="url(#p8651cbf5ac)" style="fill: #0000f5; fill-opacity: 0.1"/>
    <path d="M 288.551117 314.514884 
L 269.215788 273.499927 
L 271.835166 262.70321 
L 291.264715 303.960646 
z
" clip-path="url(#p8651cbf5ac)" style="fill: #0000f5; fill-opacity: 0.1"/>
    <path d="M 269.215788 273.499927 
L 249.779686 232.271206 
L 252.303822 221.229616 
L 271.835166 262.70321 
z
" clip-path="url(#p8651cbf5ac)" style="fill: #0000f5; fill-opacity: 0.1"/>
    <path d="M 310.593262 345.00361 
L 291.264715 303.960646 
L 294.006825 293.295516 
L 313.429483 334.581399 
z
" clip-path="url(#p8651cbf5ac)" style="fill: #0000f5; fill-opacity: 0.1"/>
    <path d="M 249.779686 232.271206 
L 230.242022 190.827045 
L 232.669879 179.538163 
L 252.303822 221.229616 
z
" clip-path="url(#p8651cbf5ac)" style="fill: #0000f5; fill-opacity: 0.1"/>
    <path d="M 291.264715 303.960646 
L 271.835166 262.70321 
L 274.482139 251.792755 
L 294.006825 293.295516 
z
" clip-path="url(#p8651cbf5ac)" style="fill: #0000f5; fill-opacity: 0.1"/>
    <path d="M 230.242022 190.827045 
L 210.601996 149.165752 
L 212.932528 137.627127 
L 232.669879 179.538163 
z
" clip-path="url(#p8651cbf5ac)" style="fill: #0000f5; fill-opacity: 0.1"/>
    <path d="M 271.835166 262.70321 
L 252.303822 221.229616 
L 254.854618 210.071404 
L 274.482139 251.792755 
z
" clip-path="url(#p8651cbf5ac)" style="fill: #0000f5; fill-opacity: 0.1"/>
    <path d="M 313.429483 334.581399 
L 294.006825 293.295516 
L 296.777898 282.517737 
L 316.295582 324.049393 
z
" clip-path="url(#p8651cbf5ac)" style="fill: #0000f5; fill-opacity: 0.1"/>
    <path d="M 210.601996 149.165752 
L 190.858804 107.285616 
L 193.090949 95.494771 
L 212.932528 137.627127 
z
" clip-path="url(#p8651cbf5ac)" style="fill: #0000f5; fill-opacity: 0.1"/>
    <path d="M 252.303822 221.229616 
L 232.669879 179.538163 
L 235.123448 168.12973 
L 254.854618 210.071404 
z
" clip-path="url(#p8651cbf5ac)" style="fill: #0000f5; fill-opacity: 0.1"/>
    <path d="M 294.006825 293.295516 
L 274.482139 251.792755 
L 277.157143 240.766756 
L 296.777898 282.517737 
z
" clip-path="url(#p8651cbf5ac)" style="fill: #0000f5; fill-opacity: 0.1"/>
    <path d="M 190.858804 107.285616 
L 171.011628 65.184908 
L 173.144315 53.139336 
L 193.090949 95.494771 
z
" clip-path="url(#p8651cbf5ac)" style="fill: #0000f5; fill-opacity: 0.1"/>
    <path d="M 232.669879 179.538163 
L 212.932528 137.627127 
L 215.287806 125.965984 
L 235.123448 168.12973 
z
" clip-path="url(#p8651cbf5ac)" style="fill: #0000f5; fill-opacity: 0.1"/>
    <path d="M 274.482139 251.792755 
L 254.854618 210.071404 
L 257.432499 198.79471 
L 277.157143 240.766756 
z
" clip-path="url(#p8651cbf5ac)" style="fill: #0000f5; fill-opacity: 0.1"/>
    <path d="M 316.295582 324.049393 
L 296.777898 282.517737 
L 299.578395 271.625515 
L 319.192035 313.40585 
z
" clip-path="url(#p8651cbf5ac)" style="fill: #0000f5; fill-opacity: 0.1"/>
    <path d="M 171.011628 65.184908 
L 151.059647 22.86188 
L 153.091789 10.559046 
L 173.144315 53.139336 
z
" clip-path="url(#p8651cbf5ac)" style="fill: #0000f5; fill-opacity: 0.1"/>
    <path d="M 212.932528 137.627127 
L 193.090949 95.494771 
L 195.346859 83.578397 
L 215.287806 125.965984 
z
" clip-path="url(#p8651cbf5ac)" style="fill: #0000f5; fill-opacity: 0.1"/>
    <path d="M 254.854618 210.071404 
L 235.123448 168.12973 
L 237.603138 156.599838 
L 257.432499 198.79471 
z
" clip-path="url(#p8651cbf5ac)" style="fill: #0000f5; fill-opacity: 0.1"/>
    <path d="M 296.777898 282.517737 
L 277.157143 240.766756 
L 279.860627 229.623368 
L 299.578395 271.625515 
z
" clip-path="url(#p8651cbf5ac)" style="fill: #0000f5; fill-opacity: 0.1"/>
    <path d="M 151.059647 22.86188 
L 131.002028 -19.685233 
L 132.932525 -32.247894 
L 153.091789 10.559046 
z
" clip-path="url(#p8651cbf5ac)" style="fill: #0000f5; fill-opacity: 0.1"/>
    <path d="M 193.090949 95.494771 
L 173.144315 53.139336 
L 175.299768 40.965183 
L 195.346859 83.578397 
z
" clip-path="url(#p8651cbf5ac)" style="fill: #0000f5; fill-opacity: 0.1"/>
    <path d="M 235.123448 168.12973 
L 215.287806 125.965984 
L 217.668225 114.18036 
L 237.603138 156.599838 
z
" clip-path="url(#p8651cbf5ac)" style="fill: #0000f5; fill-opacity: 0.1"/>
    <path d="M 277.157143 240.766756 
L 257.432499 198.79471 
L 260.037899 187.397638 
L 279.860627 229.623368 
z
" clip-path="url(#p8651cbf5ac)" style="fill: #0000f5; fill-opacity: 0.1"/>
    <path d="M 319.192035 313.40585 
L 299.578395 271.625515 
L 302.408788 260.617017 
L 322.119325 302.648988 
z
" clip-path="url(#p8651cbf5ac)" style="fill: #0000f5; fill-opacity: 0.1"/>
    <path d="M 173.144315 53.139336 
L 153.091789 10.559046 
L 155.145681 -1.875466 
L 175.299768 40.965183 
z
" clip-path="url(#p8651cbf5ac)" style="fill: #0000f5; fill-opacity: 0.1"/>
    <path d="M 215.287806 125.965984 
L 195.346859 83.578397 
L 197.626914 71.534479 
L 217.668225 114.18036 
z
" clip-path="url(#p8651cbf5ac)" style="fill: #0000f5; fill-opacity: 0.1"/>
    <path d="M 257.432499 198.79471 
L 237.603138 156.599838 
L 240.10937 144.946536 
L 260.037899 187.397638 
z
" clip-path="url(#p8651cbf5ac)" style="fill: #0000f5; fill-opacity: 0.1"/>
    <path d="M 299.578395 271.625515 
L 279.860627 229.623368 
L 282.593048 218.360705 
L 302.408788 260.617017 
z
" clip-path="url(#p8651cbf5ac)" style="fill: #0000f5; fill-opacity: 0.1"/>
    <path d="M 153.091789 10.559046 
L 132.932525 -32.247894 
L 134.883741 -44.945374 
L 155.145681 -1.875466 
z
" clip-path="url(#p8651cbf5ac)" style="fill: #0000f5; fill-opacity: 0.1"/>
    <path d="M 195.346859 83.578397 
L 175.299768 40.965183 
L 177.478352 28.660377 
L 197.626914 71.534479 
z
" clip-path="url(#p8651cbf5ac)" style="fill: #0000f5; fill-opacity: 0.1"/>
    <path d="M 237.603138 156.599838 
L 217.668225 114.18036 
L 220.074192 102.268252 
L 240.10937 144.946536 
z
" clip-path="url(#p8651cbf5ac)" style="fill: #0000f5; fill-opacity: 0.1"/>
    <path d="M 279.860627 229.623368 
L 260.037899 187.397638 
L 262.67126 175.878251 
L 282.593048 218.360705 
z
" clip-path="url(#p8651cbf5ac)" style="fill: #0000f5; fill-opacity: 0.1"/>
    <path d="M 322.119325 302.648988 
L 302.408788 260.617017 
L 305.269558 249.490372 
L 325.077948 291.776987 
z
" clip-path="url(#p8651cbf5ac)" style="fill: #0000f5; fill-opacity: 0.1"/>
    <path d="M 175.299768 40.965183 
L 155.145681 -1.875466 
L 157.221675 -14.443782 
L 177.478352 28.660377 
z
" clip-path="url(#p8651cbf5ac)" style="fill: #0000f5; fill-opacity: 0.1"/>
    <path d="M 217.668225 114.18036 
L 197.626914 71.534479 
L 199.931505 59.360958 
L 220.074192 102.268252 
z
" clip-path="url(#p8651cbf5ac)" style="fill: #0000f5; fill-opacity: 0.1"/>
    <path d="M 260.037899 187.397638 
L 240.10937 144.946536 
L 242.642571 133.167833 
L 262.67126 175.878251 
z
" clip-path="url(#p8651cbf5ac)" style="fill: #0000f5; fill-opacity: 0.1"/>
    <path d="M 302.408788 260.617017 
L 282.593048 218.360705 
L 285.354873 206.976843 
L 305.269558 249.490372 
z
" clip-path="url(#p8651cbf5ac)" style="fill: #0000f5; fill-opacity: 0.1"/>
    <path d="M 155.145681 -1.875466 
L 134.883741 -44.945374 
L 136.85601 -57.779856 
L 157.221675 -14.443782 
z
" clip-path="url(#p8651cbf5ac)" style="fill: #0000f5; fill-opacity: 0.1"/>
    <path d="M 197.626914 71.534479 
L 177.478352 28.660377 
L 179.680443 16.222805 
L 199.931505 59.360958 
z
" clip-path="url(#p8651cbf5ac)" style="fill: #0000f5; fill-opacity: 0.1"/>
    <path d="M 240.10937 144.946536 
L 220.074192 102.268252 
L 222.506118 90.227613 
L 242.642571 133.167833 
z
" clip-path="url(#p8651cbf5ac)" style="fill: #0000f5; fill-opacity: 0.1"/>
    <path d="M 282.593048 218.360705 
L 262.67126 175.878251 
L 265.333036 164.234567 
L 285.354873 206.976843 
z
" clip-path="url(#p8651cbf5ac)" style="fill: #0000f5; fill-opacity: 0.1"/>
    <path d="M 325.077948 291.776987 
L 305.269558 249.490372 
L 308.161196 238.243668 
L 328.06841 280.787988 
z
" clip-path="url(#p8651cbf5ac)" style="fill: #0000f5; fill-opacity: 0.1"/>
    <path d="M 177.478352 28.660377 
L 157.221675 -14.443782 
L 159.320128 -27.148074 
L 179.680443 16.222805 
z
" clip-path="url(#p8651cbf5ac)" style="fill: #0000f5; fill-opacity: 0.1"/>
    <path d="M 220.074192 102.268252 
L 199.931505 59.360958 
L 202.26103 47.055731 
L 222.506118 90.227613 
z
" clip-path="url(#p8651cbf5ac)" style="fill: #0000f5; fill-opacity: 0.1"/>
    <path d="M 262.67126 175.878251 
L 242.642571 133.167833 
L 245.20318 121.261694 
L 265.333036 164.234567 
z
" clip-path="url(#p8651cbf5ac)" style="fill: #0000f5; fill-opacity: 0.1"/>
    <path d="M 305.269558 249.490372 
L 285.354873 206.976843 
L 288.146579 195.469815 
L 308.161196 238.243668 
z
" clip-path="url(#p8651cbf5ac)" style="fill: #0000f5; fill-opacity: 0.1"/>
    <path d="M 157.221675 -14.443782 
L 136.85601 -57.779856 
L 138.849674 -70.753569 
L 159.320128 -27.148074 
z
" clip-path="url(#p8651cbf5ac)" style="fill: #0000f5; fill-opacity: 0.1"/>
    <path d="M 199.931505 59.360958 
L 179.680443 16.222805 
L 181.906423 3.650307 
L 202.26103 47.055731 
z
" clip-path="url(#p8651cbf5ac)" style="fill: #0000f5; fill-opacity: 0.1"/>
    <path d="M 242.642571 133.167833 
L 222.506118 90.227613 
L 224.964428 78.056351 
L 245.20318 121.261694 
z
" clip-path="url(#p8651cbf5ac)" style="fill: #0000f5; fill-opacity: 0.1"/>
    <path d="M 285.354873 206.976843 
L 265.333036 164.234567 
L 268.023689 152.464566 
L 288.146579 195.469815 
z
" clip-path="url(#p8651cbf5ac)" style="fill: #0000f5; fill-opacity: 0.1"/>
    <path d="M 328.06841 280.787988 
L 308.161196 238.243668 
L 311.084205 226.87495 
L 331.091227 269.680094 
z
" clip-path="url(#p8651cbf5ac)" style="fill: #0000f5; fill-opacity: 0.1"/>
    <path d="M 179.680443 16.222805 
L 159.320128 -27.148074 
L 161.441408 -39.99056 
L 181.906423 3.650307 
z
" clip-path="url(#p8651cbf5ac)" style="fill: #0000f5; fill-opacity: 0.1"/>
    <path d="M 222.506118 90.227613 
L 202.26103 47.055731 
L 204.615894 34.616648 
L 224.964428 78.056351 
z
" clip-path="url(#p8651cbf5ac)" style="fill: #0000f5; fill-opacity: 0.1"/>
    <path d="M 265.333036 164.234567 
L 245.20318 121.261694 
L 247.791643 109.226039 
L 268.023689 152.464566 
z
" clip-path="url(#p8651cbf5ac)" style="fill: #0000f5; fill-opacity: 0.1"/>
    <path d="M 308.161196 238.243668 
L 288.146579 195.469815 
L 290.968654 183.83761 
L 311.084205 226.87495 
z
" clip-path="url(#p8651cbf5ac)" style="fill: #0000f5; fill-opacity: 0.1"/>
    <path d="M 159.320128 -27.148074 
L 138.849674 -70.753569 
L 140.865083 -83.86879 
L 161.441408 -39.99056 
z
" clip-path="url(#p8651cbf5ac)" style="fill: #0000f5; fill-opacity: 0.1"/>
    <path d="M 202.26103 47.055731 
L 181.906423 3.650307 
L 184.156683 -9.059327 
L 204.615894 34.616648 
z
" clip-path="url(#p8651cbf5ac)" style="fill: #0000f5; fill-opacity: 0.1"/>
    <path d="M 245.20318 121.261694 
L 224.964428 78.056351 
L 227.449552 65.75233 
L 247.791643 109.226039 
z
" clip-path="url(#p8651cbf5ac)" style="fill: #0000f5; fill-opacity: 0.1"/>
    <path d="M 288.146579 195.469815 
L 268.023689 152.464566 
L 270.74369 140.566179 
L 290.968654 183.83761 
z
" clip-path="url(#p8651cbf5ac)" style="fill: #0000f5; fill-opacity: 0.1"/>
    <path d="M 331.091227 269.680094 
L 311.084205 226.87495 
L 314.039098 215.382223 
L 334.146928 258.451364 
z
" clip-path="url(#p8651cbf5ac)" style="fill: #0000f5; fill-opacity: 0.1"/>
    <path d="M 181.906423 3.650307 
L 161.441408 -39.99056 
L 163.585889 -52.973508 
L 184.156683 -9.059327 
z
" clip-path="url(#p8651cbf5ac)" style="fill: #0000f5; fill-opacity: 0.1"/>
    <path d="M 224.964428 78.056351 
L 204.615894 34.616648 
L 206.996515 22.041515 
L 227.449552 65.75233 
z
" clip-path="url(#p8651cbf5ac)" style="fill: #0000f5; fill-opacity: 0.1"/>
    <path d="M 268.023689 152.464566 
L 247.791643 109.226039 
L 250.408418 97.058743 
L 270.74369 140.566179 
z
" clip-path="url(#p8651cbf5ac)" style="fill: #0000f5; fill-opacity: 0.1"/>
    <path d="M 311.084205 226.87495 
L 290.968654 183.83761 
L 293.821597 172.078176 
L 314.039098 215.382223 
z
" clip-path="url(#p8651cbf5ac)" style="fill: #0000f5; fill-opacity: 0.1"/>
    <path d="M 161.441408 -39.99056 
L 140.865083 -83.86879 
L 142.902596 -97.127848 
L 163.585889 -52.973508 
z
" clip-path="url(#p8651cbf5ac)" style="fill: #0000f5; fill-opacity: 0.1"/>
    <path d="M 204.615894 34.616648 
L 184.156683 -9.059327 
L 186.431622 -21.908351 
L 206.996515 22.041515 
z
" clip-path="url(#p8651cbf5ac)" style="fill: #0000f5; fill-opacity: 0.1"/>
    <path d="M 247.791643 109.226039 
L 227.449552 65.75233 
L 229.961931 53.313364 
L 250.408418 97.058743 
z
" clip-path="url(#p8651cbf5ac)" style="fill: #0000f5; fill-opacity: 0.1"/>
    <path d="M 290.968654 183.83761 
L 270.74369 140.566179 
L 273.493524 128.537296 
L 293.821597 172.078176 
z
" clip-path="url(#p8651cbf5ac)" style="fill: #0000f5; fill-opacity: 0.1"/>
    <path d="M 334.146928 258.451364 
L 314.039098 215.382223 
L 317.0264 203.763446 
L 337.236052 247.099815 
z
" clip-path="url(#p8651cbf5ac)" style="fill: #0000f5; fill-opacity: 0.1"/>
    <path d="M 184.156683 -9.059327 
L 163.585889 -52.973508 
L 165.753953 -66.099234 
L 186.431622 -21.908351 
z
" clip-path="url(#p8651cbf5ac)" style="fill: #0000f5; fill-opacity: 0.1"/>
    <path d="M 227.449552 65.75233 
L 206.996515 22.041515 
L 209.403317 9.328085 
L 229.961931 53.313364 
z
" clip-path="url(#p8651cbf5ac)" style="fill: #0000f5; fill-opacity: 0.1"/>
    <path d="M 270.74369 140.566179 
L 250.408418 97.058743 
L 253.053971 84.757634 
L 273.493524 128.537296 
z
" clip-path="url(#p8651cbf5ac)" style="fill: #0000f5; fill-opacity: 0.1"/>
    <path d="M 314.039098 215.382223 
L 293.821597 172.078176 
L 296.705915 160.189413 
L 317.0264 203.763446 
z
" clip-path="url(#p8651cbf5ac)" style="fill: #0000f5; fill-opacity: 0.1"/>
    <path d="M 163.585889 -52.973508 
L 142.902596 -97.127848 
L 144.962578 -110.533122 
L 165.753953 -66.099234 
z
" clip-path="url(#p8651cbf5ac)" style="fill: #0000f5; fill-opacity: 0.1"/>
    <path d="M 206.996515 22.041515 
L 186.431622 -21.908351 
L 188.731649 -34.899071 
L 209.403317 9.328085 
z
" clip-path="url(#p8651cbf5ac)" style="fill: #0000f5; fill-opacity: 0.1"/>
    <path d="M 250.408418 97.058743 
L 229.961931 53.313364 
L 232.502017 40.737221 
L 253.053971 84.757634 
z
" clip-path="url(#p8651cbf5ac)" style="fill: #0000f5; fill-opacity: 0.1"/>
    <path d="M 293.821597 172.078176 
L 273.493524 128.537296 
L 276.273683 116.375756 
L 296.705915 160.189413 
z
" clip-path="url(#p8651cbf5ac)" style="fill: #0000f5; fill-opacity: 0.1"/>
    <path d="M 337.236052 247.099815 
L 317.0264 203.763446 
L 320.046647 192.016533 
L 340.35915 235.623421 
z
" clip-path="url(#p8651cbf5ac)" style="fill: #0000f5; fill-opacity: 0.1"/>
    <path d="M 186.431622 -21.908351 
L 165.753953 -66.099234 
L 167.945992 -79.370106 
L 188.731649 -34.899071 
z
" clip-path="url(#p8651cbf5ac)" style="fill: #0000f5; fill-opacity: 0.1"/>
    <path d="M 229.961931 53.313364 
L 209.403317 9.328085 
L 211.836734 -3.525934 
L 232.502017 40.737221 
z
" clip-path="url(#p8651cbf5ac)" style="fill: #0000f5; fill-opacity: 0.1"/>
    <path d="M 273.493524 128.537296 
L 253.053971 84.757634 
L 255.72878 72.320494 
L 276.273683 116.375756 
z
" clip-path="url(#p8651cbf5ac)" style="fill: #0000f5; fill-opacity: 0.1"/>
    <path d="M 317.0264 203.763446 
L 296.705915 160.189413 
L 299.62213 148.169176 
L 320.046647 192.016533 
z
" clip-path="url(#p8651cbf5ac)" style="fill: #0000f5; fill-opacity: 0.1"/>
    <path d="M 165.753953 -66.099234 
L 144.962578 -110.533122 
L 147.045402 -124.087043 
L 167.945992 -79.370106 
z
" clip-path="url(#p8651cbf5ac)" style="fill: #0000f5; fill-opacity: 0.1"/>
    <path d="M 209.403317 9.328085 
L 188.731649 -34.899071 
L 191.05718 -48.033845 
L 211.836734 -3.525934 
z
" clip-path="url(#p8651cbf5ac)" style="fill: #0000f5; fill-opacity: 0.1"/>
    <path d="M 253.053971 84.757634 
L 232.502017 40.737221 
L 235.07027 28.021621 
L 255.72878 72.320494 
z
" clip-path="url(#p8651cbf5ac)" style="fill: #0000f5; fill-opacity: 0.1"/>
    <path d="M 296.705915 160.189413 
L 276.273683 116.375756 
L 279.084672 104.079354 
L 299.62213 148.169176 
z
" clip-path="url(#p8651cbf5ac)" style="fill: #0000f5; fill-opacity: 0.1"/>
    <path d="M 340.35915 235.623421 
L 320.046647 192.016533 
L 323.100386 180.139354 
L 343.516786 224.020112 
z
" clip-path="url(#p8651cbf5ac)" style="fill: #0000f5; fill-opacity: 0.1"/>
    <path d="M 188.731649 -34.899071 
L 167.945992 -79.370106 
L 170.162407 -92.788547 
L 191.05718 -48.033845 
z
" clip-path="url(#p8651cbf5ac)" style="fill: #0000f5; fill-opacity: 0.1"/>
    <path d="M 232.502017 40.737221 
L 211.836734 -3.525934 
L 214.29721 -16.522887 
L 235.07027 28.021621 
z
" clip-path="url(#p8651cbf5ac)" style="fill: #0000f5; fill-opacity: 0.1"/>
    <path d="M 276.273683 116.375756 
L 255.72878 72.320494 
L 258.433333 59.745052 
L 279.084672 104.079354 
z
" clip-path="url(#p8651cbf5ac)" style="fill: #0000f5; fill-opacity: 0.1"/>
    <path d="M 320.046647 192.016533 
L 299.62213 148.169176 
L 302.570774 136.015271 
L 323.100386 180.139354 
z
" clip-path="url(#p8651cbf5ac)" style="fill: #0000f5; fill-opacity: 0.1"/>
    <path d="M 167.945992 -79.370106 
L 147.045402 -124.087043 
L 149.151452 -137.792099 
L 170.162407 -92.788547 
z
" clip-path="url(#p8651cbf5ac)" style="fill: #0000f5; fill-opacity: 0.1"/>
    <path d="M 211.836734 -3.525934 
L 191.05718 -48.033845 
L 193.408643 -61.315081 
L 214.29721 -16.522887 
z
" clip-path="url(#p8651cbf5ac)" style="fill: #0000f5; fill-opacity: 0.1"/>
    <path d="M 255.72878 72.320494 
L 235.07027 28.021621 
L 237.667162 15.16423 
L 258.433333 59.745052 
z
" clip-path="url(#p8651cbf5ac)" style="fill: #0000f5; fill-opacity: 0.1"/>
    <path d="M 299.62213 148.169176 
L 279.084672 104.079354 
L 281.927007 91.645834 
L 302.570774 136.015271 
z
" clip-path="url(#p8651cbf5ac)" style="fill: #0000f5; fill-opacity: 0.1"/>
    <path d="M 343.516786 224.020112 
L 323.100386 180.139354 
L 326.188178 168.12973 
L 346.709536 212.28777 
z
" clip-path="url(#p8651cbf5ac)" style="fill: #0000f5; fill-opacity: 0.1"/>
    <path d="M 191.05718 -48.033845 
L 170.162407 -92.788547 
L 172.403604 -106.35703 
L 193.408643 -61.315081 
z
" clip-path="url(#p8651cbf5ac)" style="fill: #0000f5; fill-opacity: 0.1"/>
    <path d="M 235.07027 28.021621 
L 214.29721 -16.522887 
L 216.785199 -29.665173 
L 237.667162 15.16423 
z
" clip-path="url(#p8651cbf5ac)" style="fill: #0000f5; fill-opacity: 0.1"/>
    <path d="M 279.084672 104.079354 
L 258.433333 59.745052 
L 261.168128 47.02899 
L 281.927007 91.645834 
z
" clip-path="url(#p8651cbf5ac)" style="fill: #0000f5; fill-opacity: 0.1"/>
    <path d="M 323.100386 180.139354 
L 302.570774 136.015271 
L 305.552391 123.725458 
L 326.188178 168.12973 
z
" clip-path="url(#p8651cbf5ac)" style="fill: #0000f5; fill-opacity: 0.1"/>
    <path d="M 170.162407 -92.788547 
L 149.151452 -137.792099 
L 151.281116 -151.650831 
L 172.403604 -106.35703 
z
" clip-path="url(#p8651cbf5ac)" style="fill: #0000f5; fill-opacity: 0.1"/>
    <path d="M 214.29721 -16.522887 
L 193.408643 -61.315081 
L 195.786474 -74.745243 
L 216.785199 -29.665173 
z
" clip-path="url(#p8651cbf5ac)" style="fill: #0000f5; fill-opacity: 0.1"/>
    <path d="M 258.433333 59.745052 
L 237.667162 15.16423 
L 240.293173 2.162664 
L 261.168128 47.02899 
z
" clip-path="url(#p8651cbf5ac)" style="fill: #0000f5; fill-opacity: 0.1"/>
    <path d="M 302.570774 136.015271 
L 281.927007 91.645834 
L 284.801214 79.072889 
L 305.552391 123.725458 
z
" clip-path="url(#p8651cbf5ac)" style="fill: #0000f5; fill-opacity: 0.1"/>
    <path d="M 346.709536 212.28777 
L 326.188178 168.12973 
L 329.310597 155.985432 
L 349.937988 200.424231 
z
" clip-path="url(#p8651cbf5ac)" style="fill: #0000f5; fill-opacity: 0.1"/>
    <path d="M 193.408643 -61.315081 
L 172.403604 -106.35703 
L 174.670004 -120.078087 
L 195.786474 -74.745243 
z
" clip-path="url(#p8651cbf5ac)" style="fill: #0000f5; fill-opacity: 0.1"/>
    <path d="M 237.667162 15.16423 
L 216.785199 -29.665173 
L 219.301166 -42.955242 
L 240.293173 2.162664 
z
" clip-path="url(#p8651cbf5ac)" style="fill: #0000f5; fill-opacity: 0.1"/>
    <path d="M 281.927007 91.645834 
L 261.168128 47.02899 
L 263.933677 34.169935 
L 284.801214 79.072889 
z
" clip-path="url(#p8651cbf5ac)" style="fill: #0000f5; fill-opacity: 0.1"/>
    <path d="M 326.188178 168.12973 
L 305.552391 123.725458 
L 308.567537 111.297443 
L 329.310597 155.985432 
z
" clip-path="url(#p8651cbf5ac)" style="fill: #0000f5; fill-opacity: 0.1"/>
    <path d="M 172.403604 -106.35703 
L 151.281116 -151.650831 
L 153.434795 -165.665839 
L 174.670004 -120.078087 
z
" clip-path="url(#p8651cbf5ac)" style="fill: #0000f5; fill-opacity: 0.1"/>
    <path d="M 216.785199 -29.665173 
L 195.786474 -74.745243 
L 198.191118 -88.32685 
L 219.301166 -42.955242 
z
" clip-path="url(#p8651cbf5ac)" style="fill: #0000f5; fill-opacity: 0.1"/>
    <path d="M 261.168128 47.02899 
L 240.293173 2.162664 
L 242.948798 -10.985517 
L 263.933677 34.169935 
z
" clip-path="url(#p8651cbf5ac)" style="fill: #0000f5; fill-opacity: 0.1"/>
    <path d="M 305.552391 123.725458 
L 284.801214 79.072889 
L 287.707834 66.358161 
L 308.567537 111.297443 
z
" clip-path="url(#p8651cbf5ac)" style="fill: #0000f5; fill-opacity: 0.1"/>
    <path d="M 349.937988 200.424231 
L 329.310597 155.985432 
L 332.468226 143.704183 
L 353.202746 188.427282 
z
" clip-path="url(#p8651cbf5ac)" style="fill: #0000f5; fill-opacity: 0.1"/>
    <path d="M 195.786474 -74.745243 
L 174.670004 -120.078087 
L 176.962032 -133.954306 
L 198.191118 -88.32685 
z
" clip-path="url(#p8651cbf5ac)" style="fill: #0000f5; fill-opacity: 0.1"/>
    <path d="M 240.293173 2.162664 
L 219.301166 -42.955242 
L 221.845584 -56.395601 
L 242.948798 -10.985517 
z
" clip-path="url(#p8651cbf5ac)" style="fill: #0000f5; fill-opacity: 0.1"/>
    <path d="M 284.801214 79.072889 
L 263.933677 34.169935 
L 266.7305 21.165461 
L 287.707834 66.358161 
z
" clip-path="url(#p8651cbf5ac)" style="fill: #0000f5; fill-opacity: 0.1"/>
    <path d="M 329.310597 155.985432 
L 308.567537 111.297443 
L 311.61678 98.728881 
L 332.468226 143.704183 
z
" clip-path="url(#p8651cbf5ac)" style="fill: #0000f5; fill-opacity: 0.1"/>
    <path d="M 174.670004 -120.078087 
L 153.434795 -165.665839 
L 155.612898 -179.839781 
L 176.962032 -133.954306 
z
" clip-path="url(#p8651cbf5ac)" style="fill: #0000f5; fill-opacity: 0.1"/>
    <path d="M 219.301166 -42.955242 
L 198.191118 -88.32685 
L 200.623032 -102.062479 
L 221.845584 -56.395601 
z
" clip-path="url(#p8651cbf5ac)" style="fill: #0000f5; fill-opacity: 0.1"/>
    <path d="M 263.933677 34.169935 
L 242.948798 -10.985517 
L 245.634538 -24.282806 
L 266.7305 21.165461 
z
" clip-path="url(#p8651cbf5ac)" style="fill: #0000f5; fill-opacity: 0.1"/>
    <path d="M 308.567537 111.297443 
L 287.707834 66.358161 
L 290.647416 53.499238 
L 311.61678 98.728881 
z
" clip-path="url(#p8651cbf5ac)" style="fill: #0000f5; fill-opacity: 0.1"/>
    <path d="M 353.202746 188.427282 
L 332.468226 143.704183 
L 335.661667 131.283653 
L 356.504425 176.29466 
z
" clip-path="url(#p8651cbf5ac)" style="fill: #0000f5; fill-opacity: 0.1"/>
    <path d="M 198.191118 -88.32685 
L 176.962032 -133.954306 
L 179.280127 -147.988333 
L 200.623032 -102.062479 
z
" clip-path="url(#p8651cbf5ac)" style="fill: #0000f5; fill-opacity: 0.1"/>
    <path d="M 242.948798 -10.985517 
L 221.845584 -56.395601 
L 224.418939 -69.988815 
L 245.634538 -24.282806 
z
" clip-path="url(#p8651cbf5ac)" style="fill: #0000f5; fill-opacity: 0.1"/>
    <path d="M 287.707834 66.358161 
L 266.7305 21.165461 
L 269.559131 8.013089 
L 290.647416 53.499238 
z
" clip-path="url(#p8651cbf5ac)" style="fill: #0000f5; fill-opacity: 0.1"/>
    <path d="M 332.468226 143.704183 
L 311.61678 98.728881 
L 314.700703 86.017377 
L 335.661667 131.283653 
z
" clip-path="url(#p8651cbf5ac)" style="fill: #0000f5; fill-opacity: 0.1"/>
    <path d="M 176.962032 -133.954306 
L 155.612898 -179.839781 
L 157.815842 -194.175375 
L 179.280127 -147.988333 
z
" clip-path="url(#p8651cbf5ac)" style="fill: #0000f5; fill-opacity: 0.1"/>
    <path d="M 221.845584 -56.395601 
L 200.623032 -102.062479 
L 203.082682 -115.954764 
L 224.418939 -69.988815 
z
" clip-path="url(#p8651cbf5ac)" style="fill: #0000f5; fill-opacity: 0.1"/>
    <path d="M 266.7305 21.165461 
L 245.634538 -24.282806 
L 248.35091 -37.731754 
L 269.559131 8.013089 
z
" clip-path="url(#p8651cbf5ac)" style="fill: #0000f5; fill-opacity: 0.1"/>
    <path d="M 311.61678 98.728881 
L 290.647416 53.499238 
L 293.620526 40.493653 
L 314.700703 86.017377 
z
" clip-path="url(#p8651cbf5ac)" style="fill: #0000f5; fill-opacity: 0.1"/>
    <path d="M 356.504425 176.29466 
L 335.661667 131.283653 
L 338.89153 118.721459 
L 359.843655 164.024049 
z
" clip-path="url(#p8651cbf5ac)" style="fill: #0000f5; fill-opacity: 0.1"/>
    <path d="M 200.623032 -102.062479 
L 179.280127 -147.988333 
L 181.624735 -162.182877 
L 203.082682 -115.954764 
z
" clip-path="url(#p8651cbf5ac)" style="fill: #0000f5; fill-opacity: 0.1"/>
    <path d="M 245.634538 -24.282806 
L 224.418939 -69.988815 
L 227.021728 -83.737504 
L 248.35091 -37.731754 
z
" clip-path="url(#p8651cbf5ac)" style="fill: #0000f5; fill-opacity: 0.1"/>
    <path d="M 290.647416 53.499238 
L 269.559131 8.013089 
L 272.420116 -5.28972 
L 293.620526 40.493653 
z
" clip-path="url(#p8651cbf5ac)" style="fill: #0000f5; fill-opacity: 0.1"/>
    <path d="M 335.661667 131.283653 
L 314.700703 86.017377 
L 317.819901 73.160476 
L 338.89153 118.721459 
z
" clip-path="url(#p8651cbf5ac)" style="fill: #0000f5; fill-opacity: 0.1"/>
    <path d="M 179.280127 -147.988333 
L 157.815842 -194.175375 
L 160.044054 -208.675403 
L 181.624735 -162.182877 
z
" clip-path="url(#p8651cbf5ac)" style="fill: #0000f5; fill-opacity: 0.1"/>
    <path d="M 224.418939 -69.988815 
L 203.082682 -115.954764 
L 205.570546 -130.0064 
L 227.021728 -83.737504 
z
" clip-path="url(#p8651cbf5ac)" style="fill: #0000f5; fill-opacity: 0.1"/>
    <path d="M 269.559131 8.013089 
L 248.35091 -37.731754 
L 251.098441 -51.334971 
L 272.420116 -5.28972 
z
" clip-path="url(#p8651cbf5ac)" style="fill: #0000f5; fill-opacity: 0.1"/>
    <path d="M 314.700703 86.017377 
L 293.620526 40.493653 
L 296.627741 27.338883 
L 317.819901 73.160476 
z
" clip-path="url(#p8651cbf5ac)" style="fill: #0000f5; fill-opacity: 0.1"/>
    <path d="M 359.843655 164.024049 
L 338.89153 118.721459 
L 342.158444 106.015163 
L 363.221081 151.613084 
z
" clip-path="url(#p8651cbf5ac)" style="fill: #0000f5; fill-opacity: 0.1"/>
    <path d="M 203.082682 -115.954764 
L 181.624735 -162.182877 
L 183.996314 -176.540706 
L 205.570546 -130.0064 
z
" clip-path="url(#p8651cbf5ac)" style="fill: #0000f5; fill-opacity: 0.1"/>
    <path d="M 248.35091 -37.731754 
L 227.021728 -83.737504 
L 229.654458 -97.644354 
L 251.098441 -51.334971 
z
" clip-path="url(#p8651cbf5ac)" style="fill: #0000f5; fill-opacity: 0.1"/>
    <path d="M 293.620526 40.493653 
L 272.420116 -5.28972 
L 275.314014 -18.745562 
L 296.627741 27.338883 
z
" clip-path="url(#p8651cbf5ac)" style="fill: #0000f5; fill-opacity: 0.1"/>
    <path d="M 338.89153 118.721459 
L 317.819901 73.160476 
L 320.974981 60.15567 
L 342.158444 106.015163 
z
" clip-path="url(#p8651cbf5ac)" style="fill: #0000f5; fill-opacity: 0.1"/>
    <path d="M 181.624735 -162.182877 
L 160.044054 -208.675403 
L 162.297972 -223.342711 
L 183.996314 -176.540706 
z
" clip-path="url(#p8651cbf5ac)" style="fill: #0000f5; fill-opacity: 0.1"/>
    <path d="M 227.021728 -83.737504 
L 205.570546 -130.0064 
L 208.087111 -144.220146 
L 229.654458 -97.644354 
z
" clip-path="url(#p8651cbf5ac)" style="fill: #0000f5; fill-opacity: 0.1"/>
    <path d="M 272.420116 -5.28972 
L 251.098441 -51.334971 
L 253.87767 -65.095127 
L 275.314014 -18.745562 
z
" clip-path="url(#p8651cbf5ac)" style="fill: #0000f5; fill-opacity: 0.1"/>
    <path d="M 317.819901 73.160476 
L 296.627741 27.338883 
L 299.669649 14.032346 
L 320.974981 60.15567 
z
" clip-path="url(#p8651cbf5ac)" style="fill: #0000f5; fill-opacity: 0.1"/>
    <path d="M 363.221081 151.613084 
L 342.158444 106.015163 
L 345.463048 93.162272 
L 366.63736 139.059341 
z
" clip-path="url(#p8651cbf5ac)" style="fill: #0000f5; fill-opacity: 0.1"/>
    <path d="M 205.570546 -130.0064 
L 183.996314 -176.540706 
L 186.395333 -191.064654 
L 208.087111 -144.220146 
z
" clip-path="url(#p8651cbf5ac)" style="fill: #0000f5; fill-opacity: 0.1"/>
    <path d="M 251.098441 -51.334971 
L 229.654458 -97.644354 
L 232.317649 -111.712107 
L 253.87767 -65.095127 
z
" clip-path="url(#p8651cbf5ac)" style="fill: #0000f5; fill-opacity: 0.1"/>
    <path d="M 296.627741 27.338883 
L 275.314014 -18.745562 
L 278.241394 -32.357092 
L 299.669649 14.032346 
z
" clip-path="url(#p8651cbf5ac)" style="fill: #0000f5; fill-opacity: 0.1"/>
    <path d="M 342.158444 106.015163 
L 320.974981 60.15567 
L 324.166567 47.000391 
L 345.463048 93.162272 
z
" clip-path="url(#p8651cbf5ac)" style="fill: #0000f5; fill-opacity: 0.1"/>
    <path d="M 183.996314 -176.540706 
L 162.297972 -223.342711 
L 164.578043 -238.180211 
L 186.395333 -191.064654 
z
" clip-path="url(#p8651cbf5ac)" style="fill: #0000f5; fill-opacity: 0.1"/>
    <path d="M 229.654458 -97.644354 
L 208.087111 -144.220146 
L 210.632878 -158.598823 
L 232.317649 -111.712107 
z
" clip-path="url(#p8651cbf5ac)" style="fill: #0000f5; fill-opacity: 0.1"/>
    <path d="M 275.314014 -18.745562 
L 253.87767 -65.095127 
L 256.689148 -79.014953 
L 278.241394 -32.357092 
z
" clip-path="url(#p8651cbf5ac)" style="fill: #0000f5; fill-opacity: 0.1"/>
    <path d="M 320.974981 60.15567 
L 299.669649 14.032346 
L 302.746856 0.5714 
L 324.166567 47.000391 
z
" clip-path="url(#p8651cbf5ac)" style="fill: #0000f5; fill-opacity: 0.1"/>
    <path d="M 208.087111 -144.220146 
L 186.395333 -191.064654 
L 188.822269 -205.757622 
L 210.632878 -158.598823 
z
" clip-path="url(#p8651cbf5ac)" style="fill: #0000f5; fill-opacity: 0.1"/>
    <path d="M 253.87767 -65.095127 
L 232.317649 -111.712107 
L 235.011833 -125.943573 
L 256.689148 -79.014953 
z
" clip-path="url(#p8651cbf5ac)" style="fill: #0000f5; fill-opacity: 0.1"/>
    <path d="M 299.669649 14.032346 
L 278.241394 -32.357092 
L 281.202842 -46.127028 
L 302.746856 0.5714 
z
" clip-path="url(#p8651cbf5ac)" style="fill: #0000f5; fill-opacity: 0.1"/>
    <path d="M 186.395333 -191.064654 
L 164.578043 -238.180211 
L 166.884725 -253.19088 
L 188.822269 -205.757622 
z
" clip-path="url(#p8651cbf5ac)" style="fill: #0000f5; fill-opacity: 0.1"/>
    <path d="M 232.317649 -111.712107 
L 210.632878 -158.598823 
L 213.208357 -173.145318 
L 235.011833 -125.943573 
z
" clip-path="url(#p8651cbf5ac)" style="fill: #0000f5; fill-opacity: 0.1"/>
    <path d="M 278.241394 -32.357092 
L 256.689148 -79.014953 
L 259.533441 -93.097244 
L 281.202842 -46.127028 
z
" clip-path="url(#p8651cbf5ac)" style="fill: #0000f5; fill-opacity: 0.1"/>
    <path d="M 210.632878 -158.598823 
L 188.822269 -205.757622 
L 191.277614 -220.622577 
L 213.208357 -173.145318 
z
" clip-path="url(#p8651cbf5ac)" style="fill: #0000f5; fill-opacity: 0.1"/>
    <path d="M 256.689148 -79.014953 
L 235.011833 -125.943573 
L 237.737554 -140.341627 
L 259.533441 -93.097244 
z
" clip-path="url(#p8651cbf5ac)" style="fill: #0000f5; fill-opacity: 0.1"/>
    <path d="M 188.822269 -205.757622 
L 166.884725 -253.19088 
L 169.218487 -268.37777 
L 191.277614 -220.622577 
z
" clip-path="url(#p8651cbf5ac)" style="fill: #0000f5; fill-opacity: 0.1"/>
    <path d="M 235.011833 -125.943573 
L 213.208357 -173.145318 
L 215.814071 -187.862586 
L 237.737554 -140.341627 
z
" clip-path="url(#p8651cbf5ac)" style="fill: #0000f5; fill-opacity: 0.1"/>
    <path d="M 213.208357 -173.145318 
L 191.277614 -220.622577 
L 193.761868 -235.662556 
L 215.814071 -187.862586 
z
" clip-path="url(#p8651cbf5ac)" style="fill: #0000f5; fill-opacity: 0.1"/>
    <path d="M 191.277614 -220.622577 
L 169.218487 -268.37777 
L 171.579808 -283.744002 
L 193.761868 -235.662556 
z
" clip-path="url(#p8651cbf5ac)" style="fill: #0000f5; fill-opacity: 0.1"/>
   </g>
   <g id="legend_1">
    <g id="patch_6">
     <path d="M 357.840076 67.305115 
L 396.2 67.305115 
Q 398.2 67.305115 398.2 65.305115 
L 398.2 7 
Q 398.2 5 396.2 5 
L 357.840076 5 
Q 355.840076 5 355.840076 7 
L 355.840076 65.305115 
Q 355.840076 67.305115 357.840076 67.305115 
z
" style="fill: #ffffff; opacity: 0.8; stroke: #cccccc; stroke-linejoin: miter"/>
    </g>
    <g id="line2d_25">
     <path d="M 359.840076 12.5 
L 369.840076 12.5 
L 379.840076 12.5 
" style="fill: none; stroke: #ff0000; stroke-width: 1.5; stroke-linecap: square"/>
    </g>
    <g id="text_21">
     <!-- $\vec{a}$ -->
     <g transform="translate(387.840076 16)scale(0.1 -0.1)">
      <defs>
       <path id="CMMI12-7e" d="M 3424 3835 
C 3347 3764 3110 3540 3110 3451 
C 3110 3387 3168 3329 3232 3329 
C 3290 3329 3315 3368 3360 3432 
C 3514 3624 3686 3745 3834 3828 
C 3898 3867 3942 3886 3942 3956 
C 3942 4014 3891 4046 3853 4078 
C 3674 4200 3629 4372 3610 4449 
C 3590 4500 3571 4577 3482 4577 
C 3443 4577 3366 4552 3366 4456 
C 3366 4398 3405 4244 3526 4072 
L 1376 4072 
C 1267 4072 1158 4072 1158 3950 
C 1158 3835 1274 3835 1376 3835 
L 3424 3835 
z
" transform="scale(0.015625)"/>
       <path id="CMMI12-61" d="M 1926 760 
C 1894 651 1894 639 1805 517 
C 1664 338 1382 64 1082 64 
C 819 64 672 300 672 677 
C 672 1028 870 1743 992 2012 
C 1210 2459 1510 2689 1760 2689 
C 2182 2689 2266 2165 2266 2114 
C 2266 2108 2246 2024 2240 2012 
L 1926 760 
z
M 2336 2395 
C 2266 2561 2093 2816 1760 2816 
C 1037 2816 256 1884 256 939 
C 256 307 627 -64 1062 -64 
C 1414 -64 1715 211 1894 422 
C 1958 45 2259 -64 2451 -64 
C 2643 -64 2797 51 2912 281 
C 3014 498 3104 888 3104 913 
C 3104 945 3078 971 3040 971 
C 2982 971 2976 939 2950 843 
C 2854 466 2733 64 2470 64 
C 2285 64 2272 230 2272 358 
C 2272 505 2291 575 2349 824 
C 2394 984 2426 1124 2477 1309 
C 2714 2267 2771 2497 2771 2535 
C 2771 2625 2701 2695 2605 2695 
C 2400 2695 2349 2472 2336 2395 
z
" transform="scale(0.015625)"/>
      </defs>
      <use xlink:href="#CMMI12-7e" transform="scale(0.996264)"/>
      <use xlink:href="#CMMI12-61" transform="translate(6.445738 0)scale(0.996264)"/>
     </g>
    </g>
    <g id="line2d_26">
     <path d="M 359.840076 27.24679 
L 369.840076 27.24679 
L 379.840076 27.24679 
" style="fill: none; stroke: #00ff00; stroke-width: 1.5; stroke-linecap: square"/>
    </g>
    <g id="text_22">
     <!-- $\vec{b}$ -->
     <g transform="translate(387.840076 30.74679)scale(0.1 -0.1)">
      <defs>
       <path id="CMMI12-62" d="M 1478 4257 
C 1485 4283 1498 4321 1498 4352 
C 1498 4416 1434 4416 1421 4416 
C 1414 4416 1184 4393 1069 4377 
C 960 4377 864 4358 749 4358 
C 595 4345 550 4339 550 4224 
C 550 4160 614 4160 678 4160 
C 1005 4160 1005 4103 1005 4040 
C 1005 3996 954 3811 928 3696 
L 774 3085 
C 710 2831 346 1387 320 1272 
C 288 1114 288 1005 288 922 
C 288 274 653 -64 1069 -64 
C 1811 -64 2579 888 2579 1814 
C 2579 2401 2246 2816 1766 2816 
C 1434 2816 1133 2542 1011 2414 
L 1478 4257 
z
M 1075 64 
C 870 64 646 217 646 715 
C 646 926 666 1047 781 1494 
C 800 1577 902 1986 928 2069 
C 941 2120 1318 2689 1754 2689 
C 2035 2689 2163 2408 2163 2076 
C 2163 1769 1984 1047 1824 715 
C 1664 370 1370 64 1075 64 
z
" transform="scale(0.015625)"/>
      </defs>
      <use xlink:href="#CMMI12-7e" transform="translate(0 26.29016)scale(0.996264)"/>
      <use xlink:href="#CMMI12-62" transform="translate(11.311737 0)scale(0.996264)"/>
     </g>
    </g>
    <g id="line2d_27">
     <path d="M 359.840076 41.183968 
L 369.840076 41.183968 
L 379.840076 41.183968 
" style="fill: none; stroke: #0016ff; stroke-width: 1.5; stroke-linecap: square"/>
    </g>
    <g id="text_23">
     <!-- $\vec{c}$ -->
     <g transform="translate(387.840076 44.683968)scale(0.1 -0.1)">
      <defs>
       <path id="CMMI12-63" d="M 2502 2431 
C 2381 2431 2323 2431 2234 2355 
C 2195 2323 2125 2227 2125 2125 
C 2125 1997 2221 1920 2342 1920 
C 2496 1920 2669 2044 2669 2292 
C 2669 2588 2374 2816 1933 2816 
C 1094 2816 256 1903 256 996 
C 256 441 602 -64 1254 -64 
C 2125 -64 2675 622 2675 706 
C 2675 744 2637 776 2611 776 
C 2592 776 2586 770 2528 713 
C 2118 162 1510 64 1267 64 
C 826 64 685 446 685 764 
C 685 988 794 1605 1024 2039 
C 1190 2338 1536 2682 1939 2682 
C 2022 2682 2374 2682 2502 2431 
z
" transform="scale(0.015625)"/>
      </defs>
      <use xlink:href="#CMMI12-7e" transform="scale(0.996264)"/>
      <use xlink:href="#CMMI12-63" transform="translate(5.638615 0)scale(0.996264)"/>
     </g>
    </g>
    <g id="line2d_28">
     <path d="M 359.840076 57.867937 
L 369.840076 57.867937 
L 379.840076 57.867937 
" style="fill: none; stroke: #f400ff; stroke-width: 1.5; stroke-linecap: square"/>
    </g>
    <g id="text_24">
     <!-- $\vec{f}$ -->
     <g transform="translate(387.840076 61.367937)scale(0.1 -0.1)">
      <defs>
       <path id="CMMI12-66" d="M 2854 2566 
C 2982 2566 3034 2566 3034 2688 
C 3034 2752 2982 2752 2867 2752 
L 2349 2752 
C 2470 3429 2560 3897 2611 4107 
C 2650 4265 2784 4416 2950 4416 
C 3085 4416 3219 4358 3283 4298 
C 3034 4272 2957 4082 2957 3969 
C 2957 3837 3053 3759 3174 3759 
C 3302 3759 3494 3870 3494 4119 
C 3494 4393 3226 4544 2944 4544 
C 2669 4544 2400 4334 2272 4078 
C 2157 3848 2093 3611 1946 2752 
L 1517 2752 
C 1395 2752 1331 2752 1331 2637 
C 1331 2566 1370 2566 1498 2566 
L 1907 2566 
C 1792 1976 1530 542 1382 -137 
C 1274 -689 1178 -1152 858 -1152 
C 838 -1152 653 -1152 538 -1031 
C 864 -1005 864 -726 864 -720 
C 864 -593 768 -517 646 -517 
C 518 -517 326 -625 326 -867 
C 326 -1140 608 -1280 858 -1280 
C 1510 -1280 1779 -118 1850 199 
C 1965 688 2278 2376 2310 2566 
L 2854 2566 
z
" transform="scale(0.015625)"/>
      </defs>
      <use xlink:href="#CMMI12-7e" transform="translate(13.568792 26.29016)scale(0.996264)"/>
      <use xlink:href="#CMMI12-66" transform="scale(0.996264)"/>
     </g>
    </g>
   </g>
  </g>
 </g>
 <defs>
  <clipPath id="p8651cbf5ac">
   <rect x="57.6" y="0" width="345.6" height="345.6"/>
  </clipPath>
 </defs>
</svg>
