<?xml version="1.0" encoding="utf-8" standalone="no"?>
<!DOCTYPE svg PUBLIC "-//W3C//DTD SVG 1.1//EN"
  "http://www.w3.org/Graphics/SVG/1.1/DTD/svg11.dtd">
<svg xmlns:xlink="http://www.w3.org/1999/xlink" width="460.8pt" height="345.6pt" viewBox="0 0 460.8 345.6" xmlns="http://www.w3.org/2000/svg" version="1.1">
 <metadata>
  <rdf:RDF xmlns:dc="http://purl.org/dc/elements/1.1/" xmlns:cc="http://creativecommons.org/ns#" xmlns:rdf="http://www.w3.org/1999/02/22-rdf-syntax-ns#">
   <cc:Work>
    <dc:type rdf:resource="http://purl.org/dc/dcmitype/StillImage"/>
    <dc:date>2022-07-12T15:50:50.103734</dc:date>
    <dc:format>image/svg+xml</dc:format>
    <dc:creator>
     <cc:Agent>
      <dc:title>Matplotlib v3.5.1, https://matplotlib.org/</dc:title>
     </cc:Agent>
    </dc:creator>
   </cc:Work>
  </rdf:RDF>
 </metadata>
 <defs>
  <style type="text/css">*{stroke-linejoin: round; stroke-linecap: butt}</style>
 </defs>
 <g id="figure_1">
  <g id="patch_1">
   <path d="M 0 345.6 
L 460.8 345.6 
L 460.8 0 
L 0 0 
z
" style="fill: #ffffff"/>
  </g>
  <g id="patch_2">
   <path d="M 57.6 345.6 
L 403.2 345.6 
L 403.2 0 
L 57.6 0 
z
" style="fill: #ffffff"/>
  </g>
  <g id="pane3d_1">
   <g id="patch_3">
    <path d="M 142.18244 246.406569 
L 351.132772 247.331629 
L 351.132772 88.92783 
L 142.18244 89.852891 
" style="fill: #f2f2f2; opacity: 0.5; stroke: #f2f2f2; stroke-linejoin: miter"/>
   </g>
  </g>
  <g id="pane3d_2">
   <g id="patch_4">
    <path d="M 142.18244 246.406569 
L 106.022876 256.192615 
L 106.022876 80.066844 
L 142.18244 89.852891 
" style="fill: #e6e6e6; opacity: 0.5; stroke: #e6e6e6; stroke-linejoin: miter"/>
   </g>
  </g>
  <g id="pane3d_3">
   <g id="patch_5">
    <path d="M 142.18244 246.406569 
L 106.022876 256.192615 
L 340.962206 257.365166 
L 351.132772 247.331629 
" style="fill: #ececec; opacity: 0.5; stroke: #ececec; stroke-linejoin: miter"/>
   </g>
  </g>
  <g id="axis3d_1">
   <g id="line2d_1">
    <path d="M 351.132772 247.331629 
L 340.962206 257.365166 
" style="fill: none; stroke: #000000; stroke-width: 0.8; stroke-linecap: square"/>
   </g>
   <g id="text_1">
    <!-- x -->
    <g transform="translate(373.939379 279.53249)scale(0.16 -0.16)">
     <defs>
      <path id="CMSS17-78" d="M 1587 1414 
L 2656 2739 
L 2099 2739 
L 1363 1777 
L 602 2739 
L 32 2739 
L 1139 1414 
L 0 0 
L 563 0 
L 1363 1121 
L 2195 0 
L 2758 0 
L 1587 1414 
z
" transform="scale(0.015625)"/>
     </defs>
     <use xlink:href="#CMSS17-78" transform="scale(0.996264)"/>
    </g>
   </g>
   <g id="Line3DCollection_1">
    <path d="M 350.951825 247.510138 
L 141.538182 246.580928 
L 141.538182 89.678532 
" style="fill: none; stroke: #b0b0b0; stroke-width: 0.8"/>
    <path d="M 349.172317 249.265671 
L 135.204082 248.295157 
L 135.204082 87.964302 
" style="fill: none; stroke: #b0b0b0; stroke-width: 0.8"/>
    <path d="M 347.312319 251.100608 
L 128.586987 250.085975 
L 128.586987 86.173484 
" style="fill: none; stroke: #b0b0b0; stroke-width: 0.8"/>
    <path d="M 345.366245 253.020463 
L 121.667497 251.958632 
L 121.667497 84.300828 
" style="fill: none; stroke: #b0b0b0; stroke-width: 0.8"/>
    <path d="M 343.327978 255.031268 
L 114.4244 253.918868 
L 114.4244 82.340591 
" style="fill: none; stroke: #b0b0b0; stroke-width: 0.8"/>
    <path d="M 341.190807 257.139645 
L 106.83445 255.972975 
L 106.83445 80.286485 
" style="fill: none; stroke: #b0b0b0; stroke-width: 0.8"/>
   </g>
   <g id="xtick_1">
    <g id="line2d_2">
     <path d="M 349.256833 247.502617 
L 354.342772 247.525185 
" style="fill: none; stroke: #000000; stroke-width: 0.8; stroke-linecap: square"/>
    </g>
    <g id="text_2">
     <!-- $\mathdefault{0}$ -->
     <g transform="translate(362.009084 264.639485)scale(0.1 -0.1)">
      <defs>
       <path id="CMR17-30" d="M 2688 2025 
C 2688 2416 2682 3080 2413 3591 
C 2176 4039 1798 4198 1466 4198 
C 1158 4198 768 4058 525 3597 
C 269 3118 243 2524 243 2025 
C 243 1661 250 1106 448 619 
C 723 -39 1216 -128 1466 -128 
C 1760 -128 2208 -7 2470 600 
C 2662 1042 2688 1559 2688 2025 
z
M 1466 -26 
C 1056 -26 813 325 723 812 
C 653 1188 653 1738 653 2096 
C 653 2588 653 2997 736 3387 
C 858 3929 1216 4096 1466 4096 
C 1728 4096 2067 3923 2189 3400 
C 2272 3036 2278 2607 2278 2096 
C 2278 1680 2278 1169 2202 792 
C 2067 95 1690 -26 1466 -26 
z
" transform="scale(0.015625)"/>
      </defs>
      <use xlink:href="#CMR17-30" transform="scale(0.996264)"/>
     </g>
    </g>
   </g>
   <g id="xtick_2">
    <g id="line2d_3">
     <path d="M 347.440016 249.257814 
L 352.637926 249.28139 
" style="fill: none; stroke: #000000; stroke-width: 0.8; stroke-linecap: square"/>
    </g>
    <g id="text_3">
     <!-- $\mathdefault{1}$ -->
     <g transform="translate(360.528048 266.622369)scale(0.1 -0.1)">
      <defs>
       <path id="CMR17-31" d="M 1702 4058 
C 1702 4192 1696 4192 1606 4192 
C 1357 3916 979 3827 621 3827 
C 602 3827 570 3827 563 3808 
C 557 3795 557 3782 557 3648 
C 755 3648 1088 3686 1344 3839 
L 1344 461 
C 1344 236 1331 160 781 160 
L 589 160 
L 589 0 
C 896 0 1216 0 1523 0 
C 1830 0 2150 0 2458 0 
L 2458 160 
L 2266 160 
C 1715 160 1702 230 1702 458 
L 1702 4058 
z
" transform="scale(0.015625)"/>
      </defs>
      <use xlink:href="#CMR17-31" transform="scale(0.996264)"/>
     </g>
    </g>
   </g>
   <g id="xtick_3">
    <g id="line2d_4">
     <path d="M 345.541029 251.092392 
L 350.855952 251.117047 
" style="fill: none; stroke: #000000; stroke-width: 0.8; stroke-linecap: square"/>
    </g>
    <g id="text_4">
     <!-- $\mathdefault{2}$ -->
     <g transform="translate(358.979971 268.695012)scale(0.1 -0.1)">
      <defs>
       <path id="CMR17-32" d="M 2669 989 
L 2554 989 
C 2490 536 2438 459 2413 420 
C 2381 369 1920 369 1830 369 
L 602 369 
C 832 619 1280 1072 1824 1597 
C 2214 1967 2669 2402 2669 3035 
C 2669 3790 2067 4224 1395 4224 
C 691 4224 262 3604 262 3030 
C 262 2780 448 2748 525 2748 
C 589 2748 781 2787 781 3010 
C 781 3207 614 3264 525 3264 
C 486 3264 448 3258 422 3245 
C 544 3790 915 4058 1306 4058 
C 1862 4058 2227 3617 2227 3035 
C 2227 2479 1901 2000 1536 1584 
L 262 146 
L 262 0 
L 2515 0 
L 2669 989 
z
" transform="scale(0.015625)"/>
      </defs>
      <use xlink:href="#CMR17-32" transform="scale(0.996264)"/>
     </g>
    </g>
   </g>
   <g id="xtick_4">
    <g id="line2d_5">
     <path d="M 343.554171 253.011861 
L 348.991496 253.037671 
" style="fill: none; stroke: #000000; stroke-width: 0.8; stroke-linecap: square"/>
    </g>
    <g id="text_5">
     <!-- $\mathdefault{3}$ -->
     <g transform="translate(357.360194 270.86365)scale(0.1 -0.1)">
      <defs>
       <path id="CMR17-33" d="M 1414 2157 
C 1984 2157 2234 1662 2234 1090 
C 2234 320 1824 25 1453 25 
C 1114 25 563 194 390 693 
C 422 680 454 680 486 680 
C 640 680 755 782 755 948 
C 755 1133 614 1216 486 1216 
C 378 1216 211 1165 211 926 
C 211 335 787 -128 1466 -128 
C 2176 -128 2720 430 2720 1085 
C 2720 1707 2208 2157 1600 2227 
C 2086 2328 2554 2756 2554 3329 
C 2554 3820 2048 4179 1472 4179 
C 890 4179 378 3829 378 3329 
C 378 3110 544 3072 627 3072 
C 762 3072 877 3155 877 3321 
C 877 3486 762 3569 627 3569 
C 602 3569 570 3569 544 3557 
C 730 3959 1235 4032 1459 4032 
C 1683 4032 2106 3925 2106 3320 
C 2106 3143 2080 2828 1862 2550 
C 1670 2304 1453 2304 1242 2284 
C 1210 2284 1062 2269 1037 2269 
C 992 2263 966 2257 966 2208 
C 966 2163 973 2157 1101 2157 
L 1414 2157 
z
" transform="scale(0.015625)"/>
      </defs>
      <use xlink:href="#CMR17-33" transform="scale(0.996264)"/>
     </g>
    </g>
   </g>
   <g id="xtick_5">
    <g id="line2d_6">
     <path d="M 341.473197 255.022255 
L 347.038695 255.049301 
" style="fill: none; stroke: #000000; stroke-width: 0.8; stroke-linecap: square"/>
    </g>
    <g id="text_6">
     <!-- $\mathdefault{4}$ -->
     <g transform="translate(355.663618 273.13511)scale(0.1 -0.1)">
      <defs>
       <path id="CMR17-34" d="M 2150 4122 
C 2150 4256 2144 4256 2029 4256 
L 128 1254 
L 128 1088 
L 1779 1088 
L 1779 457 
C 1779 224 1766 160 1318 160 
L 1197 160 
L 1197 0 
C 1402 0 1747 0 1965 0 
C 2182 0 2528 0 2733 0 
L 2733 160 
L 2611 160 
C 2163 160 2150 224 2150 457 
L 2150 1088 
L 2803 1088 
L 2803 1254 
L 2150 1254 
L 2150 4122 
z
M 1798 3703 
L 1798 1254 
L 256 1254 
L 1798 3703 
z
" transform="scale(0.015625)"/>
      </defs>
      <use xlink:href="#CMR17-34" transform="scale(0.996264)"/>
     </g>
    </g>
   </g>
   <g id="xtick_6">
    <g id="line2d_7">
     <path d="M 339.291257 257.130188 
L 344.991117 257.158563 
" style="fill: none; stroke: #000000; stroke-width: 0.8; stroke-linecap: square"/>
    </g>
    <g id="text_7">
     <!-- $\mathdefault{5}$ -->
     <g transform="translate(353.884648 275.516882)scale(0.1 -0.1)">
      <defs>
       <path id="CMR17-35" d="M 730 3692 
C 794 3666 1056 3584 1325 3584 
C 1920 3584 2246 3911 2432 4100 
C 2432 4157 2432 4192 2394 4192 
C 2387 4192 2374 4192 2323 4163 
C 2099 4058 1837 3973 1517 3973 
C 1325 3973 1037 3999 723 4139 
C 653 4171 640 4171 634 4171 
C 602 4171 595 4164 595 4037 
L 595 2203 
C 595 2089 595 2057 659 2057 
C 691 2057 704 2070 736 2114 
C 941 2401 1222 2522 1542 2522 
C 1766 2522 2246 2382 2246 1289 
C 2246 1085 2246 715 2054 421 
C 1894 159 1645 25 1370 25 
C 947 25 518 320 403 814 
C 429 807 480 795 506 795 
C 589 795 749 840 749 1038 
C 749 1210 627 1280 506 1280 
C 358 1280 262 1190 262 1011 
C 262 454 704 -128 1382 -128 
C 2042 -128 2669 440 2669 1264 
C 2669 2030 2170 2624 1549 2624 
C 1222 2624 947 2503 730 2274 
L 730 3692 
z
" transform="scale(0.015625)"/>
      </defs>
      <use xlink:href="#CMR17-35" transform="scale(0.996264)"/>
     </g>
    </g>
   </g>
  </g>
  <g id="axis3d_2">
   <g id="line2d_8">
    <path d="M 106.022876 256.192615 
L 340.962206 257.365166 
" style="fill: none; stroke: #000000; stroke-width: 0.8; stroke-linecap: square"/>
   </g>
   <g id="text_8">
    <!-- y -->
    <g transform="translate(215.433093 287.39875)scale(0.16 -0.16)">
     <defs>
      <path id="CMSS17-79" d="M 2675 2752 
L 2176 2752 
C 1632 1294 1446 702 1434 383 
L 1427 383 
C 1408 696 1126 1460 902 2007 
L 602 2752 
L 83 2752 
L 1216 13 
C 1146 -178 1043 -465 1011 -529 
C 870 -885 774 -885 672 -885 
C 646 -885 442 -885 211 -809 
L 250 -1229 
C 410 -1261 570 -1280 685 -1280 
C 845 -1280 1165 -1280 1459 -497 
L 2675 2752 
z
" transform="scale(0.015625)"/>
     </defs>
     <use xlink:href="#CMSS17-79" transform="scale(0.996264)"/>
    </g>
   </g>
   <g id="Line3DCollection_2">
    <path d="M 166.170081 89.746693 
L 166.170081 246.512766 
L 132.958792 256.327049 
" style="fill: none; stroke: #b0b0b0; stroke-width: 0.8"/>
    <path d="M 206.017107 89.570283 
L 206.017107 246.689176 
L 177.723545 256.550463 
" style="fill: none; stroke: #b0b0b0; stroke-width: 0.8"/>
    <path d="M 246.043899 89.393077 
L 246.043899 246.866382 
L 222.715663 256.775013 
" style="fill: none; stroke: #b0b0b0; stroke-width: 0.8"/>
    <path d="M 286.251674 89.21507 
L 286.251674 247.044389 
L 267.936884 257.000706 
" style="fill: none; stroke: #b0b0b0; stroke-width: 0.8"/>
    <path d="M 326.641665 89.036257 
L 326.641665 247.223203 
L 313.38896 257.227551 
" style="fill: none; stroke: #b0b0b0; stroke-width: 0.8"/>
   </g>
   <g id="xtick_7">
    <g id="line2d_9">
     <path d="M 133.25745 256.238792 
L 132.359677 256.504093 
" style="fill: none; stroke: #000000; stroke-width: 0.8; stroke-linecap: square"/>
    </g>
    <g id="text_9">
     <!-- $\mathdefault{−4}$ -->
     <g transform="translate(124.186994 275.317305)scale(0.1 -0.1)">
      <defs>
       <path id="CMSY10-0" d="M 4218 1472 
C 4326 1472 4442 1472 4442 1600 
C 4442 1728 4326 1728 4218 1728 
L 755 1728 
C 646 1728 531 1728 531 1600 
C 531 1472 646 1472 755 1472 
L 4218 1472 
z
" transform="scale(0.015625)"/>
      </defs>
      <use xlink:href="#CMSY10-0" transform="scale(0.996264)"/>
      <use xlink:href="#CMR17-34" transform="translate(77.487468 0)scale(0.996264)"/>
     </g>
    </g>
   </g>
   <g id="xtick_8">
    <g id="line2d_10">
     <path d="M 177.978051 256.461759 
L 177.212997 256.728407 
" style="fill: none; stroke: #000000; stroke-width: 0.8; stroke-linecap: square"/>
    </g>
    <g id="text_10">
     <!-- $\mathdefault{−2}$ -->
     <g transform="translate(169.307506 275.573353)scale(0.1 -0.1)">
      <use xlink:href="#CMSY10-0" transform="scale(0.996264)"/>
      <use xlink:href="#CMR17-32" transform="translate(77.487468 0)scale(0.996264)"/>
     </g>
    </g>
   </g>
   <g id="xtick_9">
    <g id="line2d_11">
     <path d="M 222.925564 256.685858 
L 222.294592 256.953863 
" style="fill: none; stroke: #000000; stroke-width: 0.8; stroke-linecap: square"/>
    </g>
    <g id="text_11">
     <!-- $\mathdefault{0}$ -->
     <g transform="translate(218.533419 275.830711)scale(0.1 -0.1)">
      <use xlink:href="#CMR17-30" transform="scale(0.996264)"/>
     </g>
    </g>
   </g>
   <g id="xtick_10">
    <g id="line2d_12">
     <path d="M 268.101721 256.911097 
L 267.606208 257.180468 
" style="fill: none; stroke: #000000; stroke-width: 0.8; stroke-linecap: square"/>
    </g>
    <g id="text_12">
     <!-- $\mathdefault{2}$ -->
     <g transform="translate(264.117768 276.089391)scale(0.1 -0.1)">
      <use xlink:href="#CMR17-32" transform="scale(0.996264)"/>
     </g>
    </g>
   </g>
   <g id="xtick_11">
    <g id="line2d_13">
     <path d="M 313.508272 257.137484 
L 313.149612 257.408233 
" style="fill: none; stroke: #000000; stroke-width: 0.8; stroke-linecap: square"/>
    </g>
    <g id="text_13">
     <!-- $\mathdefault{4}$ -->
     <g transform="translate(309.936724 276.349402)scale(0.1 -0.1)">
      <use xlink:href="#CMR17-34" transform="scale(0.996264)"/>
     </g>
    </g>
   </g>
  </g>
  <g id="axis3d_3">
   <g id="line2d_14">
    <path d="M 106.022876 256.192615 
L 106.022876 80.066844 
" style="fill: none; stroke: #000000; stroke-width: 0.8; stroke-linecap: square"/>
   </g>
   <g id="text_14">
    <!-- z -->
    <g transform="translate(64.188289 172.114786)scale(0.16 -0.16)">
     <defs>
      <path id="CMSS17-7a" d="M 2400 2502 
L 2400 2750 
L 250 2750 
L 250 2368 
L 1069 2368 
C 1146 2368 1222 2368 1299 2368 
L 1747 2368 
L 166 261 
L 166 0 
L 2419 0 
L 2419 395 
L 1549 395 
C 1472 395 1395 395 1318 395 
L 826 395 
L 2400 2502 
z
" transform="scale(0.015625)"/>
     </defs>
     <use xlink:href="#CMSS17-7a" transform="scale(0.996264)"/>
    </g>
   </g>
   <g id="Line3DCollection_3">
    <path d="M 106.022876 252.6701 
L 142.18244 243.275495 
L 351.132772 244.163553 
" style="fill: none; stroke: #b0b0b0; stroke-width: 0.8"/>
    <path d="M 106.022876 218.853952 
L 142.18244 213.217189 
L 351.132772 213.750024 
" style="fill: none; stroke: #b0b0b0; stroke-width: 0.8"/>
    <path d="M 106.022876 185.037804 
L 142.18244 183.158883 
L 351.132772 183.336494 
" style="fill: none; stroke: #b0b0b0; stroke-width: 0.8"/>
    <path d="M 106.022876 151.221656 
L 142.18244 153.100577 
L 351.132772 152.922965 
" style="fill: none; stroke: #b0b0b0; stroke-width: 0.8"/>
    <path d="M 106.022876 117.405508 
L 142.18244 123.04227 
L 351.132772 122.509436 
" style="fill: none; stroke: #b0b0b0; stroke-width: 0.8"/>
    <path d="M 106.022876 83.58936 
L 142.18244 92.983964 
L 351.132772 92.095906 
" style="fill: none; stroke: #b0b0b0; stroke-width: 0.8"/>
   </g>
   <g id="xtick_12">
    <g id="line2d_15">
     <path d="M 106.347992 252.585631 
L 105.370689 252.839544 
" style="fill: none; stroke: #000000; stroke-width: 0.8; stroke-linecap: square"/>
    </g>
    <g id="text_15">
     <!-- $\mathdefault{0}$ -->
     <g transform="translate(85.995064 260.197225)scale(0.1 -0.1)">
      <use xlink:href="#CMR17-30" transform="scale(0.996264)"/>
     </g>
    </g>
   </g>
   <g id="xtick_13">
    <g id="line2d_16">
     <path d="M 106.347992 218.803271 
L 105.370689 218.955618 
" style="fill: none; stroke: #000000; stroke-width: 0.8; stroke-linecap: square"/>
    </g>
    <g id="text_16">
     <!-- $\mathdefault{1}$ -->
     <g transform="translate(85.995064 226.137626)scale(0.1 -0.1)">
      <use xlink:href="#CMR17-31" transform="scale(0.996264)"/>
     </g>
    </g>
   </g>
   <g id="xtick_14">
    <g id="line2d_17">
     <path d="M 106.347992 185.02091 
L 105.370689 185.071693 
" style="fill: none; stroke: #000000; stroke-width: 0.8; stroke-linecap: square"/>
    </g>
    <g id="text_17">
     <!-- $\mathdefault{2}$ -->
     <g transform="translate(85.995064 192.078028)scale(0.1 -0.1)">
      <use xlink:href="#CMR17-32" transform="scale(0.996264)"/>
     </g>
    </g>
   </g>
   <g id="xtick_15">
    <g id="line2d_18">
     <path d="M 106.347992 151.238549 
L 105.370689 151.187767 
" style="fill: none; stroke: #000000; stroke-width: 0.8; stroke-linecap: square"/>
    </g>
    <g id="text_18">
     <!-- $\mathdefault{3}$ -->
     <g transform="translate(85.995064 158.018429)scale(0.1 -0.1)">
      <use xlink:href="#CMR17-33" transform="scale(0.996264)"/>
     </g>
    </g>
   </g>
   <g id="xtick_16">
    <g id="line2d_19">
     <path d="M 106.347992 117.456189 
L 105.370689 117.303841 
" style="fill: none; stroke: #000000; stroke-width: 0.8; stroke-linecap: square"/>
    </g>
    <g id="text_19">
     <!-- $\mathdefault{4}$ -->
     <g transform="translate(85.995064 123.95883)scale(0.1 -0.1)">
      <use xlink:href="#CMR17-34" transform="scale(0.996264)"/>
     </g>
    </g>
   </g>
   <g id="xtick_17">
    <g id="line2d_20">
     <path d="M 106.347992 83.673828 
L 105.370689 83.419915 
" style="fill: none; stroke: #000000; stroke-width: 0.8; stroke-linecap: square"/>
    </g>
    <g id="text_20">
     <!-- $\mathdefault{5}$ -->
     <g transform="translate(85.995064 89.899231)scale(0.1 -0.1)">
      <use xlink:href="#CMR17-35" transform="scale(0.996264)"/>
     </g>
    </g>
   </g>
  </g>
  <g id="axes_1">
   <g id="line2d_21">
    <path d="M 245.628557 243.886275 
L 303.37942 90.438625 
" clip-path="url(#pddc8f0200a)" style="fill: none; stroke: #ff0000; stroke-width: 1.5; stroke-linecap: square"/>
   </g>
   <g id="line2d_22">
    <path d="M 245.628557 243.886275 
L 195.382149 120.744457 
" clip-path="url(#pddc8f0200a)" style="fill: none; stroke: #00ff00; stroke-width: 1.5; stroke-linecap: square"/>
   </g>
   <g id="line2d_23">
    <path d="M 245.628557 243.886275 
L 253.050049 -1 
" clip-path="url(#pddc8f0200a)" style="fill: none; stroke: #0016ff; stroke-width: 1.5; stroke-linecap: square"/>
   </g>
   <g id="line2d_24">
    <path d="M 245.628557 243.886275 
L 156.003413 151.21683 
" clip-path="url(#pddc8f0200a)" style="fill: none; stroke: #f400ff; stroke-width: 1.5; stroke-linecap: square"/>
   </g>
   <g id="Poly3DCollection_1">
    <path d="M 145.678397 356.456695 
L 142.589589 316.612688 
L 152.639825 305.268829 
L 155.622829 345.256624 
z
" clip-path="url(#pddc8f0200a)" style="fill: #0000f5; fill-opacity: 0.1"/>
    <path d="M 155.622829 345.256624 
L 152.639825 305.268829 
L 162.701492 293.912066 
L 165.578451 334.04395 
z
" clip-path="url(#pddc8f0200a)" style="fill: #0000f5; fill-opacity: 0.1"/>
    <path d="M 165.578451 334.04395 
L 162.701492 293.912066 
L 172.774611 282.542379 
L 175.545283 322.818651 
z
" clip-path="url(#pddc8f0200a)" style="fill: #0000f5; fill-opacity: 0.1"/>
    <path d="M 175.545283 322.818651 
L 172.774611 282.542379 
L 182.859201 271.159743 
L 185.523342 311.580707 
z
" clip-path="url(#pddc8f0200a)" style="fill: #0000f5; fill-opacity: 0.1"/>
    <path d="M 185.523342 311.580707 
L 182.859201 271.159743 
L 192.955281 259.764139 
L 195.512649 300.330095 
z
" clip-path="url(#pddc8f0200a)" style="fill: #0000f5; fill-opacity: 0.1"/>
    <path d="M 195.512649 300.330095 
L 192.955281 259.764139 
L 203.062872 248.355543 
L 205.513222 289.066794 
z
" clip-path="url(#pddc8f0200a)" style="fill: #0000f5; fill-opacity: 0.1"/>
    <path d="M 205.513222 289.066794 
L 203.062872 248.355543 
L 213.181992 236.933932 
L 215.52508 277.790784 
z
" clip-path="url(#pddc8f0200a)" style="fill: #0000f5; fill-opacity: 0.1"/>
    <path d="M 215.52508 277.790784 
L 213.181992 236.933932 
L 223.312662 225.499286 
L 225.548243 266.502041 
z
" clip-path="url(#pddc8f0200a)" style="fill: #0000f5; fill-opacity: 0.1"/>
    <path d="M 225.548243 266.502041 
L 223.312662 225.499286 
L 233.454901 214.051582 
L 235.582729 255.200546 
z
" clip-path="url(#pddc8f0200a)" style="fill: #0000f5; fill-opacity: 0.1"/>
    <path d="M 235.582729 255.200546 
L 233.454901 214.051582 
L 243.608729 202.590796 
L 245.628557 243.886275 
z
" clip-path="url(#pddc8f0200a)" style="fill: #0000f5; fill-opacity: 0.1"/>
    <path d="M 245.628557 243.886275 
L 243.608729 202.590796 
L 253.774166 191.116907 
L 255.685748 232.559208 
z
" clip-path="url(#pddc8f0200a)" style="fill: #0000f5; fill-opacity: 0.1"/>
    <path d="M 255.685748 232.559208 
L 253.774166 191.116907 
L 263.951232 179.629893 
L 265.75432 221.219322 
z
" clip-path="url(#pddc8f0200a)" style="fill: #0000f5; fill-opacity: 0.1"/>
    <path d="M 265.75432 221.219322 
L 263.951232 179.629893 
L 274.139947 168.12973 
L 275.834292 209.866597 
z
" clip-path="url(#pddc8f0200a)" style="fill: #0000f5; fill-opacity: 0.1"/>
    <path d="M 275.834292 209.866597 
L 274.139947 168.12973 
L 284.340331 156.616396 
L 285.925685 198.50101 
z
" clip-path="url(#pddc8f0200a)" style="fill: #0000f5; fill-opacity: 0.1"/>
    <path d="M 285.925685 198.50101 
L 284.340331 156.616396 
L 294.552404 145.089869 
L 296.028516 187.122538 
z
" clip-path="url(#pddc8f0200a)" style="fill: #0000f5; fill-opacity: 0.1"/>
    <path d="M 296.028516 187.122538 
L 294.552404 145.089869 
L 304.776186 133.550125 
L 306.142807 175.731162 
z
" clip-path="url(#pddc8f0200a)" style="fill: #0000f5; fill-opacity: 0.1"/>
    <path d="M 306.142807 175.731162 
L 304.776186 133.550125 
L 315.011698 121.997143 
L 316.268576 164.326857 
z
" clip-path="url(#pddc8f0200a)" style="fill: #0000f5; fill-opacity: 0.1"/>
    <path d="M 316.268576 164.326857 
L 315.011698 121.997143 
L 325.258958 110.430898 
L 326.405842 152.909603 
z
" clip-path="url(#pddc8f0200a)" style="fill: #0000f5; fill-opacity: 0.1"/>
    <path d="M 326.405842 152.909603 
L 325.258958 110.430898 
L 335.517989 98.85137 
L 336.554627 141.479377 
z
" clip-path="url(#pddc8f0200a)" style="fill: #0000f5; fill-opacity: 0.1"/>
    <path d="M 142.589589 316.612688 
L 139.433271 275.897846 
L 149.591586 264.406553 
L 152.639825 305.268829 
z
" clip-path="url(#pddc8f0200a)" style="fill: #0000f5; fill-opacity: 0.1"/>
    <path d="M 152.639825 305.268829 
L 149.591586 264.406553 
L 159.761582 252.902046 
L 162.701492 293.912066 
z
" clip-path="url(#pddc8f0200a)" style="fill: #0000f5; fill-opacity: 0.1"/>
    <path d="M 162.701492 293.912066 
L 159.761582 252.902046 
L 169.943279 241.384303 
L 172.774611 282.542379 
z
" clip-path="url(#pddc8f0200a)" style="fill: #0000f5; fill-opacity: 0.1"/>
    <path d="M 172.774611 282.542379 
L 169.943279 241.384303 
L 180.136698 229.8533 
L 182.859201 271.159743 
z
" clip-path="url(#pddc8f0200a)" style="fill: #0000f5; fill-opacity: 0.1"/>
    <path d="M 182.859201 271.159743 
L 180.136698 229.8533 
L 190.341859 218.309015 
L 192.955281 259.764139 
z
" clip-path="url(#pddc8f0200a)" style="fill: #0000f5; fill-opacity: 0.1"/>
    <path d="M 192.955281 259.764139 
L 190.341859 218.309015 
L 200.558781 206.751424 
L 203.062872 248.355543 
z
" clip-path="url(#pddc8f0200a)" style="fill: #0000f5; fill-opacity: 0.1"/>
    <path d="M 203.062872 248.355543 
L 200.558781 206.751424 
L 210.787487 195.180504 
L 213.181992 236.933932 
z
" clip-path="url(#pddc8f0200a)" style="fill: #0000f5; fill-opacity: 0.1"/>
    <path d="M 213.181992 236.933932 
L 210.787487 195.180504 
L 221.027994 183.596233 
L 223.312662 225.499286 
z
" clip-path="url(#pddc8f0200a)" style="fill: #0000f5; fill-opacity: 0.1"/>
    <path d="M 223.312662 225.499286 
L 221.027994 183.596233 
L 231.280325 171.998588 
L 233.454901 214.051582 
z
" clip-path="url(#pddc8f0200a)" style="fill: #0000f5; fill-opacity: 0.1"/>
    <path d="M 233.454901 214.051582 
L 231.280325 171.998588 
L 241.5445 160.387544 
L 243.608729 202.590796 
z
" clip-path="url(#pddc8f0200a)" style="fill: #0000f5; fill-opacity: 0.1"/>
    <path d="M 243.608729 202.590796 
L 241.5445 160.387544 
L 251.820539 148.76308 
L 253.774166 191.116907 
z
" clip-path="url(#pddc8f0200a)" style="fill: #0000f5; fill-opacity: 0.1"/>
    <path d="M 253.774166 191.116907 
L 251.820539 148.76308 
L 262.108463 137.125171 
L 263.951232 179.629893 
z
" clip-path="url(#pddc8f0200a)" style="fill: #0000f5; fill-opacity: 0.1"/>
    <path d="M 263.951232 179.629893 
L 262.108463 137.125171 
L 272.408292 125.473794 
L 274.139947 168.12973 
z
" clip-path="url(#pddc8f0200a)" style="fill: #0000f5; fill-opacity: 0.1"/>
    <path d="M 274.139947 168.12973 
L 272.408292 125.473794 
L 282.720048 113.808927 
L 284.340331 156.616396 
z
" clip-path="url(#pddc8f0200a)" style="fill: #0000f5; fill-opacity: 0.1"/>
    <path d="M 284.340331 156.616396 
L 282.720048 113.808927 
L 293.04375 102.130545 
L 294.552404 145.089869 
z
" clip-path="url(#pddc8f0200a)" style="fill: #0000f5; fill-opacity: 0.1"/>
    <path d="M 294.552404 145.089869 
L 293.04375 102.130545 
L 303.37942 90.438625 
L 304.776186 133.550125 
z
" clip-path="url(#pddc8f0200a)" style="fill: #0000f5; fill-opacity: 0.1"/>
    <path d="M 304.776186 133.550125 
L 303.37942 90.438625 
L 313.727078 78.733143 
L 315.011698 121.997143 
z
" clip-path="url(#pddc8f0200a)" style="fill: #0000f5; fill-opacity: 0.1"/>
    <path d="M 315.011698 121.997143 
L 313.727078 78.733143 
L 324.086746 67.014076 
L 325.258958 110.430898 
z
" clip-path="url(#pddc8f0200a)" style="fill: #0000f5; fill-opacity: 0.1"/>
    <path d="M 325.258958 110.430898 
L 324.086746 67.014076 
L 334.458444 55.2814 
L 335.517989 98.85137 
z
" clip-path="url(#pddc8f0200a)" style="fill: #0000f5; fill-opacity: 0.1"/>
    <path d="M 139.433271 275.897846 
L 136.207205 234.283302 
L 146.475949 222.640794 
L 149.591586 264.406553 
z
" clip-path="url(#pddc8f0200a)" style="fill: #0000f5; fill-opacity: 0.1"/>
    <path d="M 149.591586 264.406553 
L 146.475949 222.640794 
L 156.756631 210.984749 
L 159.761582 252.902046 
z
" clip-path="url(#pddc8f0200a)" style="fill: #0000f5; fill-opacity: 0.1"/>
    <path d="M 159.761582 252.902046 
L 156.756631 210.984749 
L 167.049272 199.315145 
L 169.943279 241.384303 
z
" clip-path="url(#pddc8f0200a)" style="fill: #0000f5; fill-opacity: 0.1"/>
    <path d="M 169.943279 241.384303 
L 167.049272 199.315145 
L 177.353894 187.631958 
L 180.136698 229.8533 
z
" clip-path="url(#pddc8f0200a)" style="fill: #0000f5; fill-opacity: 0.1"/>
    <path d="M 180.136698 229.8533 
L 177.353894 187.631958 
L 187.670517 175.935164 
L 190.341859 218.309015 
z
" clip-path="url(#pddc8f0200a)" style="fill: #0000f5; fill-opacity: 0.1"/>
    <path d="M 190.341859 218.309015 
L 187.670517 175.935164 
L 197.999163 164.224739 
L 200.558781 206.751424 
z
" clip-path="url(#pddc8f0200a)" style="fill: #0000f5; fill-opacity: 0.1"/>
    <path d="M 200.558781 206.751424 
L 197.999163 164.224739 
L 208.339852 152.500659 
L 210.787487 195.180504 
z
" clip-path="url(#pddc8f0200a)" style="fill: #0000f5; fill-opacity: 0.1"/>
    <path d="M 210.787487 195.180504 
L 208.339852 152.500659 
L 218.692606 140.762902 
L 221.027994 183.596233 
z
" clip-path="url(#pddc8f0200a)" style="fill: #0000f5; fill-opacity: 0.1"/>
    <path d="M 221.027994 183.596233 
L 218.692606 140.762902 
L 229.057445 129.011441 
L 231.280325 171.998588 
z
" clip-path="url(#pddc8f0200a)" style="fill: #0000f5; fill-opacity: 0.1"/>
    <path d="M 231.280325 171.998588 
L 229.057445 129.011441 
L 239.43439 117.246255 
L 241.5445 160.387544 
z
" clip-path="url(#pddc8f0200a)" style="fill: #0000f5; fill-opacity: 0.1"/>
    <path d="M 241.5445 160.387544 
L 239.43439 117.246255 
L 249.823464 105.467318 
L 251.820539 148.76308 
z
" clip-path="url(#pddc8f0200a)" style="fill: #0000f5; fill-opacity: 0.1"/>
    <path d="M 251.820539 148.76308 
L 249.823464 105.467318 
L 260.224687 93.674606 
L 262.108463 137.125171 
z
" clip-path="url(#pddc8f0200a)" style="fill: #0000f5; fill-opacity: 0.1"/>
    <path d="M 262.108463 137.125171 
L 260.224687 93.674606 
L 270.638081 81.868096 
L 272.408292 125.473794 
z
" clip-path="url(#pddc8f0200a)" style="fill: #0000f5; fill-opacity: 0.1"/>
    <path d="M 272.408292 125.473794 
L 270.638081 81.868096 
L 281.063666 70.047762 
L 282.720048 113.808927 
z
" clip-path="url(#pddc8f0200a)" style="fill: #0000f5; fill-opacity: 0.1"/>
    <path d="M 282.720048 113.808927 
L 281.063666 70.047762 
L 291.501465 58.213581 
L 293.04375 102.130545 
z
" clip-path="url(#pddc8f0200a)" style="fill: #0000f5; fill-opacity: 0.1"/>
    <path d="M 293.04375 102.130545 
L 291.501465 58.213581 
L 301.951499 46.365529 
L 303.37942 90.438625 
z
" clip-path="url(#pddc8f0200a)" style="fill: #0000f5; fill-opacity: 0.1"/>
    <path d="M 303.37942 90.438625 
L 301.951499 46.365529 
L 312.413789 34.503581 
L 313.727078 78.733143 
z
" clip-path="url(#pddc8f0200a)" style="fill: #0000f5; fill-opacity: 0.1"/>
    <path d="M 313.727078 78.733143 
L 312.413789 34.503581 
L 322.888357 22.627712 
L 324.086746 67.014076 
z
" clip-path="url(#pddc8f0200a)" style="fill: #0000f5; fill-opacity: 0.1"/>
    <path d="M 324.086746 67.014076 
L 322.888357 22.627712 
L 333.375224 10.737898 
L 334.458444 55.2814 
z
" clip-path="url(#pddc8f0200a)" style="fill: #0000f5; fill-opacity: 0.1"/>
    <path d="M 136.207205 234.283302 
L 132.909055 191.738903 
L 143.290654 179.941251 
L 146.475949 222.640794 
z
" clip-path="url(#pddc8f0200a)" style="fill: #0000f5; fill-opacity: 0.1"/>
    <path d="M 146.475949 222.640794 
L 143.290654 179.941251 
L 153.684457 168.12973 
L 156.756631 210.984749 
z
" clip-path="url(#pddc8f0200a)" style="fill: #0000f5; fill-opacity: 0.1"/>
    <path d="M 156.756631 210.984749 
L 153.684457 168.12973 
L 164.090486 156.304314 
L 167.049272 199.315145 
z
" clip-path="url(#pddc8f0200a)" style="fill: #0000f5; fill-opacity: 0.1"/>
    <path d="M 167.049272 199.315145 
L 164.090486 156.304314 
L 174.508763 144.46498 
L 177.353894 187.631958 
z
" clip-path="url(#pddc8f0200a)" style="fill: #0000f5; fill-opacity: 0.1"/>
    <path d="M 177.353894 187.631958 
L 174.508763 144.46498 
L 184.939311 132.611703 
L 187.670517 175.935164 
z
" clip-path="url(#pddc8f0200a)" style="fill: #0000f5; fill-opacity: 0.1"/>
    <path d="M 187.670517 175.935164 
L 184.939311 132.611703 
L 195.382149 120.744457 
L 197.999163 164.224739 
z
" clip-path="url(#pddc8f0200a)" style="fill: #0000f5; fill-opacity: 0.1"/>
    <path d="M 197.999163 164.224739 
L 195.382149 120.744457 
L 205.837301 108.863219 
L 208.339852 152.500659 
z
" clip-path="url(#pddc8f0200a)" style="fill: #0000f5; fill-opacity: 0.1"/>
    <path d="M 208.339852 152.500659 
L 205.837301 108.863219 
L 216.304788 96.967964 
L 218.692606 140.762902 
z
" clip-path="url(#pddc8f0200a)" style="fill: #0000f5; fill-opacity: 0.1"/>
    <path d="M 218.692606 140.762902 
L 216.304788 96.967964 
L 226.784631 85.058666 
L 229.057445 129.011441 
z
" clip-path="url(#pddc8f0200a)" style="fill: #0000f5; fill-opacity: 0.1"/>
    <path d="M 229.057445 129.011441 
L 226.784631 85.058666 
L 237.276853 73.135302 
L 239.43439 117.246255 
z
" clip-path="url(#pddc8f0200a)" style="fill: #0000f5; fill-opacity: 0.1"/>
    <path d="M 239.43439 117.246255 
L 237.276853 73.135302 
L 247.781475 61.197845 
L 249.823464 105.467318 
z
" clip-path="url(#pddc8f0200a)" style="fill: #0000f5; fill-opacity: 0.1"/>
    <path d="M 249.823464 105.467318 
L 247.781475 61.197845 
L 258.298521 49.246271 
L 260.224687 93.674606 
z
" clip-path="url(#pddc8f0200a)" style="fill: #0000f5; fill-opacity: 0.1"/>
    <path d="M 260.224687 93.674606 
L 258.298521 49.246271 
L 268.82801 37.280555 
L 270.638081 81.868096 
z
" clip-path="url(#pddc8f0200a)" style="fill: #0000f5; fill-opacity: 0.1"/>
    <path d="M 270.638081 81.868096 
L 268.82801 37.280555 
L 279.369967 25.300672 
L 281.063666 70.047762 
z
" clip-path="url(#pddc8f0200a)" style="fill: #0000f5; fill-opacity: 0.1"/>
    <path d="M 281.063666 70.047762 
L 279.369967 25.300672 
L 289.924412 13.306597 
L 291.501465 58.213581 
z
" clip-path="url(#pddc8f0200a)" style="fill: #0000f5; fill-opacity: 0.1"/>
    <path d="M 291.501465 58.213581 
L 289.924412 13.306597 
L 300.491369 1.298304 
L 301.951499 46.365529 
z
" clip-path="url(#pddc8f0200a)" style="fill: #0000f5; fill-opacity: 0.1"/>
    <path d="M 301.951499 46.365529 
L 300.491369 1.298304 
L 311.070859 -10.724232 
L 312.413789 34.503581 
z
" clip-path="url(#pddc8f0200a)" style="fill: #0000f5; fill-opacity: 0.1"/>
    <path d="M 312.413789 34.503581 
L 311.070859 -10.724232 
L 321.662904 -22.761036 
L 322.888357 22.627712 
z
" clip-path="url(#pddc8f0200a)" style="fill: #0000f5; fill-opacity: 0.1"/>
    <path d="M 322.888357 22.627712 
L 321.662904 -22.761036 
L 332.267528 -34.812134 
L 333.375224 10.737898 
z
" clip-path="url(#pddc8f0200a)" style="fill: #0000f5; fill-opacity: 0.1"/>
    <path d="M 132.909055 191.738903 
L 129.536377 148.233129 
L 140.033338 136.276256 
L 143.290654 179.941251 
z
" clip-path="url(#pddc8f0200a)" style="fill: #0000f5; fill-opacity: 0.1"/>
    <path d="M 143.290654 179.941251 
L 140.033338 136.276256 
L 150.542778 124.305166 
L 153.684457 168.12973 
z
" clip-path="url(#pddc8f0200a)" style="fill: #0000f5; fill-opacity: 0.1"/>
    <path d="M 153.684457 168.12973 
L 150.542778 124.305166 
L 161.064721 112.319835 
L 164.090486 156.304314 
z
" clip-path="url(#pddc8f0200a)" style="fill: #0000f5; fill-opacity: 0.1"/>
    <path d="M 164.090486 156.304314 
L 161.064721 112.319835 
L 171.599188 100.320238 
L 174.508763 144.46498 
z
" clip-path="url(#pddc8f0200a)" style="fill: #0000f5; fill-opacity: 0.1"/>
    <path d="M 174.508763 144.46498 
L 171.599188 100.320238 
L 182.146203 88.306348 
L 184.939311 132.611703 
z
" clip-path="url(#pddc8f0200a)" style="fill: #0000f5; fill-opacity: 0.1"/>
    <path d="M 184.939311 132.611703 
L 182.146203 88.306348 
L 192.705787 76.278141 
L 195.382149 120.744457 
z
" clip-path="url(#pddc8f0200a)" style="fill: #0000f5; fill-opacity: 0.1"/>
    <path d="M 195.382149 120.744457 
L 192.705787 76.278141 
L 203.277964 64.23559 
L 205.837301 108.863219 
z
" clip-path="url(#pddc8f0200a)" style="fill: #0000f5; fill-opacity: 0.1"/>
    <path d="M 205.837301 108.863219 
L 203.277964 64.23559 
L 213.862754 52.178671 
L 216.304788 96.967964 
z
" clip-path="url(#pddc8f0200a)" style="fill: #0000f5; fill-opacity: 0.1"/>
    <path d="M 216.304788 96.967964 
L 213.862754 52.178671 
L 224.460182 40.107356 
L 226.784631 85.058666 
z
" clip-path="url(#pddc8f0200a)" style="fill: #0000f5; fill-opacity: 0.1"/>
    <path d="M 226.784631 85.058666 
L 224.460182 40.107356 
L 235.07027 28.021621 
L 237.276853 73.135302 
z
" clip-path="url(#pddc8f0200a)" style="fill: #0000f5; fill-opacity: 0.1"/>
    <path d="M 237.276853 73.135302 
L 235.07027 28.021621 
L 245.693041 15.92144 
L 247.781475 61.197845 
z
" clip-path="url(#pddc8f0200a)" style="fill: #0000f5; fill-opacity: 0.1"/>
    <path d="M 247.781475 61.197845 
L 245.693041 15.92144 
L 256.328516 3.806786 
L 258.298521 49.246271 
z
" clip-path="url(#pddc8f0200a)" style="fill: #0000f5; fill-opacity: 0.1"/>
    <path d="M 258.298521 49.246271 
L 256.328516 3.806786 
L 266.97672 -8.322365 
L 268.82801 37.280555 
z
" clip-path="url(#pddc8f0200a)" style="fill: #0000f5; fill-opacity: 0.1"/>
    <path d="M 268.82801 37.280555 
L 266.97672 -8.322365 
L 277.637674 -20.466042 
L 279.369967 25.300672 
z
" clip-path="url(#pddc8f0200a)" style="fill: #0000f5; fill-opacity: 0.1"/>
    <path d="M 279.369967 25.300672 
L 277.637674 -20.466042 
L 288.311403 -32.624268 
L 289.924412 13.306597 
z
" clip-path="url(#pddc8f0200a)" style="fill: #0000f5; fill-opacity: 0.1"/>
    <path d="M 289.924412 13.306597 
L 288.311403 -32.624268 
L 298.997928 -44.797071 
L 300.491369 1.298304 
z
" clip-path="url(#pddc8f0200a)" style="fill: #0000f5; fill-opacity: 0.1"/>
    <path d="M 300.491369 1.298304 
L 298.997928 -44.797071 
L 309.697273 -56.984477 
L 311.070859 -10.724232 
z
" clip-path="url(#pddc8f0200a)" style="fill: #0000f5; fill-opacity: 0.1"/>
    <path d="M 311.070859 -10.724232 
L 309.697273 -56.984477 
L 320.409461 -69.186513 
L 321.662904 -22.761036 
z
" clip-path="url(#pddc8f0200a)" style="fill: #0000f5; fill-opacity: 0.1"/>
    <path d="M 321.662904 -22.761036 
L 320.409461 -69.186513 
L 331.134515 -81.403203 
L 332.267528 -34.812134 
z
" clip-path="url(#pddc8f0200a)" style="fill: #0000f5; fill-opacity: 0.1"/>
    <path d="M 129.536377 148.233129 
L 126.086616 103.733023 
L 136.70153 91.612689 
L 140.033338 136.276256 
z
" clip-path="url(#pddc8f0200a)" style="fill: #0000f5; fill-opacity: 0.1"/>
    <path d="M 140.033338 136.276256 
L 136.70153 91.612689 
L 147.32921 79.477779 
L 150.542778 124.305166 
z
" clip-path="url(#pddc8f0200a)" style="fill: #0000f5; fill-opacity: 0.1"/>
    <path d="M 150.542778 124.305166 
L 147.32921 79.477779 
L 157.969677 67.328268 
L 161.064721 112.319835 
z
" clip-path="url(#pddc8f0200a)" style="fill: #0000f5; fill-opacity: 0.1"/>
    <path d="M 161.064721 112.319835 
L 157.969677 67.328268 
L 168.622954 55.16413 
L 171.599188 100.320238 
z
" clip-path="url(#pddc8f0200a)" style="fill: #0000f5; fill-opacity: 0.1"/>
    <path d="M 171.599188 100.320238 
L 168.622954 55.16413 
L 179.289066 42.985337 
L 182.146203 88.306348 
z
" clip-path="url(#pddc8f0200a)" style="fill: #0000f5; fill-opacity: 0.1"/>
    <path d="M 182.146203 88.306348 
L 179.289066 42.985337 
L 189.968036 30.791863 
L 192.705787 76.278141 
z
" clip-path="url(#pddc8f0200a)" style="fill: #0000f5; fill-opacity: 0.1"/>
    <path d="M 192.705787 76.278141 
L 189.968036 30.791863 
L 200.659885 18.583683 
L 203.277964 64.23559 
z
" clip-path="url(#pddc8f0200a)" style="fill: #0000f5; fill-opacity: 0.1"/>
    <path d="M 203.277964 64.23559 
L 200.659885 18.583683 
L 211.364639 6.360768 
L 213.862754 52.178671 
z
" clip-path="url(#pddc8f0200a)" style="fill: #0000f5; fill-opacity: 0.1"/>
    <path d="M 213.862754 52.178671 
L 211.364639 6.360768 
L 222.08232 -5.876907 
L 224.460182 40.107356 
z
" clip-path="url(#pddc8f0200a)" style="fill: #0000f5; fill-opacity: 0.1"/>
    <path d="M 224.460182 40.107356 
L 222.08232 -5.876907 
L 232.812951 -18.12937 
L 235.07027 28.021621 
z
" clip-path="url(#pddc8f0200a)" style="fill: #0000f5; fill-opacity: 0.1"/>
    <path d="M 235.07027 28.021621 
L 232.812951 -18.12937 
L 243.556557 -30.396647 
L 245.693041 15.92144 
z
" clip-path="url(#pddc8f0200a)" style="fill: #0000f5; fill-opacity: 0.1"/>
    <path d="M 245.693041 15.92144 
L 243.556557 -30.396647 
L 254.31316 -42.678765 
L 256.328516 3.806786 
z
" clip-path="url(#pddc8f0200a)" style="fill: #0000f5; fill-opacity: 0.1"/>
    <path d="M 256.328516 3.806786 
L 254.31316 -42.678765 
L 265.082785 -54.97575 
L 266.97672 -8.322365 
z
" clip-path="url(#pddc8f0200a)" style="fill: #0000f5; fill-opacity: 0.1"/>
    <path d="M 266.97672 -8.322365 
L 265.082785 -54.97575 
L 275.865454 -67.287631 
L 277.637674 -20.466042 
z
" clip-path="url(#pddc8f0200a)" style="fill: #0000f5; fill-opacity: 0.1"/>
    <path d="M 277.637674 -20.466042 
L 275.865454 -67.287631 
L 286.661192 -79.614434 
L 288.311403 -32.624268 
z
" clip-path="url(#pddc8f0200a)" style="fill: #0000f5; fill-opacity: 0.1"/>
    <path d="M 288.311403 -32.624268 
L 286.661192 -79.614434 
L 297.470023 -91.956186 
L 298.997928 -44.797071 
z
" clip-path="url(#pddc8f0200a)" style="fill: #0000f5; fill-opacity: 0.1"/>
    <path d="M 298.997928 -44.797071 
L 297.470023 -91.956186 
L 308.29197 -104.312915 
L 309.697273 -56.984477 
z
" clip-path="url(#pddc8f0200a)" style="fill: #0000f5; fill-opacity: 0.1"/>
    <path d="M 309.697273 -56.984477 
L 308.29197 -104.312915 
L 319.127057 -116.684647 
L 320.409461 -69.186513 
z
" clip-path="url(#pddc8f0200a)" style="fill: #0000f5; fill-opacity: 0.1"/>
    <path d="M 320.409461 -69.186513 
L 319.127057 -116.684647 
L 329.975308 -129.07141 
L 331.134515 -81.403203 
z
" clip-path="url(#pddc8f0200a)" style="fill: #0000f5; fill-opacity: 0.1"/>
    <path d="M 126.086616 103.733023 
L 122.557099 58.204102 
L 133.292647 45.9159 
L 136.70153 91.612689 
z
" clip-path="url(#pddc8f0200a)" style="fill: #0000f5; fill-opacity: 0.1"/>
    <path d="M 136.70153 91.612689 
L 133.292647 45.9159 
L 144.041255 33.61275 
L 147.32921 79.477779 
z
" clip-path="url(#pddc8f0200a)" style="fill: #0000f5; fill-opacity: 0.1"/>
    <path d="M 147.32921 79.477779 
L 144.041255 33.61275 
L 154.802946 21.294625 
L 157.969677 67.328268 
z
" clip-path="url(#pddc8f0200a)" style="fill: #0000f5; fill-opacity: 0.1"/>
    <path d="M 157.969677 67.328268 
L 154.802946 21.294625 
L 165.577744 8.961497 
L 168.622954 55.16413 
z
" clip-path="url(#pddc8f0200a)" style="fill: #0000f5; fill-opacity: 0.1"/>
    <path d="M 168.622954 55.16413 
L 165.577744 8.961497 
L 176.365673 -3.38666 
L 179.289066 42.985337 
z
" clip-path="url(#pddc8f0200a)" style="fill: #0000f5; fill-opacity: 0.1"/>
    <path d="M 179.289066 42.985337 
L 176.365673 -3.38666 
L 187.166757 -15.749876 
L 189.968036 30.791863 
z
" clip-path="url(#pddc8f0200a)" style="fill: #0000f5; fill-opacity: 0.1"/>
    <path d="M 189.968036 30.791863 
L 187.166757 -15.749876 
L 197.98102 -28.128176 
L 200.659885 18.583683 
z
" clip-path="url(#pddc8f0200a)" style="fill: #0000f5; fill-opacity: 0.1"/>
    <path d="M 200.659885 18.583683 
L 197.98102 -28.128176 
L 208.808486 -40.52159 
L 211.364639 6.360768 
z
" clip-path="url(#pddc8f0200a)" style="fill: #0000f5; fill-opacity: 0.1"/>
    <path d="M 211.364639 6.360768 
L 208.808486 -40.52159 
L 219.64918 -52.930143 
L 222.08232 -5.876907 
z
" clip-path="url(#pddc8f0200a)" style="fill: #0000f5; fill-opacity: 0.1"/>
    <path d="M 222.08232 -5.876907 
L 219.64918 -52.930143 
L 230.503125 -65.353865 
L 232.812951 -18.12937 
z
" clip-path="url(#pddc8f0200a)" style="fill: #0000f5; fill-opacity: 0.1"/>
    <path d="M 232.812951 -18.12937 
L 230.503125 -65.353865 
L 241.370346 -77.792783 
L 243.556557 -30.396647 
z
" clip-path="url(#pddc8f0200a)" style="fill: #0000f5; fill-opacity: 0.1"/>
    <path d="M 243.556557 -30.396647 
L 241.370346 -77.792783 
L 252.250868 -90.246925 
L 254.31316 -42.678765 
z
" clip-path="url(#pddc8f0200a)" style="fill: #0000f5; fill-opacity: 0.1"/>
    <path d="M 254.31316 -42.678765 
L 252.250868 -90.246925 
L 263.144714 -102.716319 
L 265.082785 -54.97575 
z
" clip-path="url(#pddc8f0200a)" style="fill: #0000f5; fill-opacity: 0.1"/>
    <path d="M 265.082785 -54.97575 
L 263.144714 -102.716319 
L 274.05191 -115.200992 
L 275.865454 -67.287631 
z
" clip-path="url(#pddc8f0200a)" style="fill: #0000f5; fill-opacity: 0.1"/>
    <path d="M 275.865454 -67.287631 
L 274.05191 -115.200992 
L 284.972479 -127.700974 
L 286.661192 -79.614434 
z
" clip-path="url(#pddc8f0200a)" style="fill: #0000f5; fill-opacity: 0.1"/>
    <path d="M 286.661192 -79.614434 
L 284.972479 -127.700974 
L 295.906447 -140.216292 
L 297.470023 -91.956186 
z
" clip-path="url(#pddc8f0200a)" style="fill: #0000f5; fill-opacity: 0.1"/>
    <path d="M 297.470023 -91.956186 
L 295.906447 -140.216292 
L 306.853838 -152.746974 
L 308.29197 -104.312915 
z
" clip-path="url(#pddc8f0200a)" style="fill: #0000f5; fill-opacity: 0.1"/>
    <path d="M 308.29197 -104.312915 
L 306.853838 -152.746974 
L 317.814677 -165.293049 
L 319.127057 -116.684647 
z
" clip-path="url(#pddc8f0200a)" style="fill: #0000f5; fill-opacity: 0.1"/>
    <path d="M 319.127057 -116.684647 
L 317.814677 -165.293049 
L 328.788988 -177.854545 
L 329.975308 -129.07141 
z
" clip-path="url(#pddc8f0200a)" style="fill: #0000f5; fill-opacity: 0.1"/>
    <path d="M 122.557099 58.204102 
L 118.945026 11.61027 
L 129.803982 -0.850383 
L 133.292647 45.9159 
z
" clip-path="url(#pddc8f0200a)" style="fill: #0000f5; fill-opacity: 0.1"/>
    <path d="M 133.292647 45.9159 
L 129.803982 -0.850383 
L 140.676301 -13.326371 
L 144.041255 33.61275 
z
" clip-path="url(#pddc8f0200a)" style="fill: #0000f5; fill-opacity: 0.1"/>
    <path d="M 144.041255 33.61275 
L 140.676301 -13.326371 
L 151.56201 -25.817723 
L 154.802946 21.294625 
z
" clip-path="url(#pddc8f0200a)" style="fill: #0000f5; fill-opacity: 0.1"/>
    <path d="M 154.802946 21.294625 
L 151.56201 -25.817723 
L 162.461131 -38.324467 
L 165.577744 8.961497 
z
" clip-path="url(#pddc8f0200a)" style="fill: #0000f5; fill-opacity: 0.1"/>
    <path d="M 165.577744 8.961497 
L 162.461131 -38.324467 
L 173.373692 -50.846631 
L 176.365673 -3.38666 
z
" clip-path="url(#pddc8f0200a)" style="fill: #0000f5; fill-opacity: 0.1"/>
    <path d="M 176.365673 -3.38666 
L 173.373692 -50.846631 
L 184.299715 -63.384244 
L 187.166757 -15.749876 
z
" clip-path="url(#pddc8f0200a)" style="fill: #0000f5; fill-opacity: 0.1"/>
    <path d="M 187.166757 -15.749876 
L 184.299715 -63.384244 
L 195.239226 -75.937335 
L 197.98102 -28.128176 
z
" clip-path="url(#pddc8f0200a)" style="fill: #0000f5; fill-opacity: 0.1"/>
    <path d="M 197.98102 -28.128176 
L 195.239226 -75.937335 
L 206.192251 -88.505932 
L 208.808486 -40.52159 
z
" clip-path="url(#pddc8f0200a)" style="fill: #0000f5; fill-opacity: 0.1"/>
    <path d="M 208.808486 -40.52159 
L 206.192251 -88.505932 
L 217.158813 -101.090065 
L 219.64918 -52.930143 
z
" clip-path="url(#pddc8f0200a)" style="fill: #0000f5; fill-opacity: 0.1"/>
    <path d="M 219.64918 -52.930143 
L 217.158813 -101.090065 
L 228.138939 -113.689761 
L 230.503125 -65.353865 
z
" clip-path="url(#pddc8f0200a)" style="fill: #0000f5; fill-opacity: 0.1"/>
    <path d="M 230.503125 -65.353865 
L 228.138939 -113.689761 
L 239.132653 -126.305049 
L 241.370346 -77.792783 
z
" clip-path="url(#pddc8f0200a)" style="fill: #0000f5; fill-opacity: 0.1"/>
    <path d="M 241.370346 -77.792783 
L 239.132653 -126.305049 
L 250.139981 -138.93596 
L 252.250868 -90.246925 
z
" clip-path="url(#pddc8f0200a)" style="fill: #0000f5; fill-opacity: 0.1"/>
    <path d="M 252.250868 -90.246925 
L 250.139981 -138.93596 
L 261.160948 -151.582521 
L 263.144714 -102.716319 
z
" clip-path="url(#pddc8f0200a)" style="fill: #0000f5; fill-opacity: 0.1"/>
    <path d="M 263.144714 -102.716319 
L 261.160948 -151.582521 
L 272.195579 -164.244762 
L 274.05191 -115.200992 
z
" clip-path="url(#pddc8f0200a)" style="fill: #0000f5; fill-opacity: 0.1"/>
    <path d="M 274.05191 -115.200992 
L 272.195579 -164.244762 
L 283.2439 -176.922712 
L 284.972479 -127.700974 
z
" clip-path="url(#pddc8f0200a)" style="fill: #0000f5; fill-opacity: 0.1"/>
    <path d="M 284.972479 -127.700974 
L 283.2439 -176.922712 
L 294.305936 -189.6164 
L 295.906447 -140.216292 
z
" clip-path="url(#pddc8f0200a)" style="fill: #0000f5; fill-opacity: 0.1"/>
    <path d="M 295.906447 -140.216292 
L 294.305936 -189.6164 
L 305.381714 -202.325856 
L 306.853838 -152.746974 
z
" clip-path="url(#pddc8f0200a)" style="fill: #0000f5; fill-opacity: 0.1"/>
    <path d="M 306.853838 -152.746974 
L 305.381714 -202.325856 
L 316.471257 -215.051109 
L 317.814677 -165.293049 
z
" clip-path="url(#pddc8f0200a)" style="fill: #0000f5; fill-opacity: 0.1"/>
    <path d="M 317.814677 -165.293049 
L 316.471257 -215.051109 
L 327.574593 -227.792188 
L 328.788988 -177.854545 
z
" clip-path="url(#pddc8f0200a)" style="fill: #0000f5; fill-opacity: 0.1"/>
    <path d="M 118.945026 11.61027 
L 115.247469 -36.086276 
L 126.232701 -48.72415 
L 129.803982 -0.850383 
z
" clip-path="url(#pddc8f0200a)" style="fill: #0000f5; fill-opacity: 0.1"/>
    <path d="M 129.803982 -0.850383 
L 126.232701 -48.72415 
L 137.231612 -61.377762 
L 140.676301 -13.326371 
z
" clip-path="url(#pddc8f0200a)" style="fill: #0000f5; fill-opacity: 0.1"/>
    <path d="M 140.676301 -13.326371 
L 137.231612 -61.377762 
L 148.244228 -74.047141 
L 151.56201 -25.817723 
z
" clip-path="url(#pddc8f0200a)" style="fill: #0000f5; fill-opacity: 0.1"/>
    <path d="M 151.56201 -25.817723 
L 148.244228 -74.047141 
L 159.270576 -86.732317 
L 162.461131 -38.324467 
z
" clip-path="url(#pddc8f0200a)" style="fill: #0000f5; fill-opacity: 0.1"/>
    <path d="M 162.461131 -38.324467 
L 159.270576 -86.732317 
L 170.310679 -99.433318 
L 173.373692 -50.846631 
z
" clip-path="url(#pddc8f0200a)" style="fill: #0000f5; fill-opacity: 0.1"/>
    <path d="M 173.373692 -50.846631 
L 170.310679 -99.433318 
L 181.364565 -112.150176 
L 184.299715 -63.384244 
z
" clip-path="url(#pddc8f0200a)" style="fill: #0000f5; fill-opacity: 0.1"/>
    <path d="M 184.299715 -63.384244 
L 181.364565 -112.150176 
L 192.43226 -124.882918 
L 195.239226 -75.937335 
z
" clip-path="url(#pddc8f0200a)" style="fill: #0000f5; fill-opacity: 0.1"/>
    <path d="M 195.239226 -75.937335 
L 192.43226 -124.882918 
L 203.513788 -137.631576 
L 206.192251 -88.505932 
z
" clip-path="url(#pddc8f0200a)" style="fill: #0000f5; fill-opacity: 0.1"/>
    <path d="M 206.192251 -88.505932 
L 203.513788 -137.631576 
L 214.609176 -150.39618 
L 217.158813 -101.090065 
z
" clip-path="url(#pddc8f0200a)" style="fill: #0000f5; fill-opacity: 0.1"/>
    <path d="M 217.158813 -101.090065 
L 214.609176 -150.39618 
L 225.71845 -163.176758 
L 228.138939 -113.689761 
z
" clip-path="url(#pddc8f0200a)" style="fill: #0000f5; fill-opacity: 0.1"/>
    <path d="M 228.138939 -113.689761 
L 225.71845 -163.176758 
L 236.841637 -175.973341 
L 239.132653 -126.305049 
z
" clip-path="url(#pddc8f0200a)" style="fill: #0000f5; fill-opacity: 0.1"/>
    <path d="M 239.132653 -126.305049 
L 236.841637 -175.973341 
L 247.978761 -188.785959 
L 250.139981 -138.93596 
z
" clip-path="url(#pddc8f0200a)" style="fill: #0000f5; fill-opacity: 0.1"/>
    <path d="M 250.139981 -138.93596 
L 247.978761 -188.785959 
L 259.12985 -201.614643 
L 261.160948 -151.582521 
z
" clip-path="url(#pddc8f0200a)" style="fill: #0000f5; fill-opacity: 0.1"/>
    <path d="M 261.160948 -151.582521 
L 259.12985 -201.614643 
L 270.29493 -214.459422 
L 272.195579 -164.244762 
z
" clip-path="url(#pddc8f0200a)" style="fill: #0000f5; fill-opacity: 0.1"/>
    <path d="M 272.195579 -164.244762 
L 270.29493 -214.459422 
L 281.474026 -227.320326 
L 283.2439 -176.922712 
z
" clip-path="url(#pddc8f0200a)" style="fill: #0000f5; fill-opacity: 0.1"/>
    <path d="M 283.2439 -176.922712 
L 281.474026 -227.320326 
L 292.667167 -240.197387 
L 294.305936 -189.6164 
z
" clip-path="url(#pddc8f0200a)" style="fill: #0000f5; fill-opacity: 0.1"/>
    <path d="M 294.305936 -189.6164 
L 292.667167 -240.197387 
L 303.874377 -253.090635 
L 305.381714 -202.325856 
z
" clip-path="url(#pddc8f0200a)" style="fill: #0000f5; fill-opacity: 0.1"/>
    <path d="M 305.381714 -202.325856 
L 303.874377 -253.090635 
L 315.095683 -266.0001 
L 316.471257 -215.051109 
z
" clip-path="url(#pddc8f0200a)" style="fill: #0000f5; fill-opacity: 0.1"/>
    <path d="M 316.471257 -215.051109 
L 315.095683 -266.0001 
L 326.331113 -278.925813 
L 327.574593 -227.792188 
z
" clip-path="url(#pddc8f0200a)" style="fill: #0000f5; fill-opacity: 0.1"/>
   </g>
   <g id="legend_1">
    <g id="patch_6">
     <path d="M 357.840076 67.305115 
L 396.2 67.305115 
Q 398.2 67.305115 398.2 65.305115 
L 398.2 7 
Q 398.2 5 396.2 5 
L 357.840076 5 
Q 355.840076 5 355.840076 7 
L 355.840076 65.305115 
Q 355.840076 67.305115 357.840076 67.305115 
z
" style="fill: #ffffff; opacity: 0.8; stroke: #cccccc; stroke-linejoin: miter"/>
    </g>
    <g id="line2d_25">
     <path d="M 359.840076 12.5 
L 369.840076 12.5 
L 379.840076 12.5 
" style="fill: none; stroke: #ff0000; stroke-width: 1.5; stroke-linecap: square"/>
    </g>
    <g id="text_21">
     <!-- $\vec{a}$ -->
     <g transform="translate(387.840076 16)scale(0.1 -0.1)">
      <defs>
       <path id="CMMI12-7e" d="M 3424 3835 
C 3347 3764 3110 3540 3110 3451 
C 3110 3387 3168 3329 3232 3329 
C 3290 3329 3315 3368 3360 3432 
C 3514 3624 3686 3745 3834 3828 
C 3898 3867 3942 3886 3942 3956 
C 3942 4014 3891 4046 3853 4078 
C 3674 4200 3629 4372 3610 4449 
C 3590 4500 3571 4577 3482 4577 
C 3443 4577 3366 4552 3366 4456 
C 3366 4398 3405 4244 3526 4072 
L 1376 4072 
C 1267 4072 1158 4072 1158 3950 
C 1158 3835 1274 3835 1376 3835 
L 3424 3835 
z
" transform="scale(0.015625)"/>
       <path id="CMMI12-61" d="M 1926 760 
C 1894 651 1894 639 1805 517 
C 1664 338 1382 64 1082 64 
C 819 64 672 300 672 677 
C 672 1028 870 1743 992 2012 
C 1210 2459 1510 2689 1760 2689 
C 2182 2689 2266 2165 2266 2114 
C 2266 2108 2246 2024 2240 2012 
L 1926 760 
z
M 2336 2395 
C 2266 2561 2093 2816 1760 2816 
C 1037 2816 256 1884 256 939 
C 256 307 627 -64 1062 -64 
C 1414 -64 1715 211 1894 422 
C 1958 45 2259 -64 2451 -64 
C 2643 -64 2797 51 2912 281 
C 3014 498 3104 888 3104 913 
C 3104 945 3078 971 3040 971 
C 2982 971 2976 939 2950 843 
C 2854 466 2733 64 2470 64 
C 2285 64 2272 230 2272 358 
C 2272 505 2291 575 2349 824 
C 2394 984 2426 1124 2477 1309 
C 2714 2267 2771 2497 2771 2535 
C 2771 2625 2701 2695 2605 2695 
C 2400 2695 2349 2472 2336 2395 
z
" transform="scale(0.015625)"/>
      </defs>
      <use xlink:href="#CMMI12-7e" transform="scale(0.996264)"/>
      <use xlink:href="#CMMI12-61" transform="translate(6.445738 0)scale(0.996264)"/>
     </g>
    </g>
    <g id="line2d_26">
     <path d="M 359.840076 27.24679 
L 369.840076 27.24679 
L 379.840076 27.24679 
" style="fill: none; stroke: #00ff00; stroke-width: 1.5; stroke-linecap: square"/>
    </g>
    <g id="text_22">
     <!-- $\vec{b}$ -->
     <g transform="translate(387.840076 30.74679)scale(0.1 -0.1)">
      <defs>
       <path id="CMMI12-62" d="M 1478 4257 
C 1485 4283 1498 4321 1498 4352 
C 1498 4416 1434 4416 1421 4416 
C 1414 4416 1184 4393 1069 4377 
C 960 4377 864 4358 749 4358 
C 595 4345 550 4339 550 4224 
C 550 4160 614 4160 678 4160 
C 1005 4160 1005 4103 1005 4040 
C 1005 3996 954 3811 928 3696 
L 774 3085 
C 710 2831 346 1387 320 1272 
C 288 1114 288 1005 288 922 
C 288 274 653 -64 1069 -64 
C 1811 -64 2579 888 2579 1814 
C 2579 2401 2246 2816 1766 2816 
C 1434 2816 1133 2542 1011 2414 
L 1478 4257 
z
M 1075 64 
C 870 64 646 217 646 715 
C 646 926 666 1047 781 1494 
C 800 1577 902 1986 928 2069 
C 941 2120 1318 2689 1754 2689 
C 2035 2689 2163 2408 2163 2076 
C 2163 1769 1984 1047 1824 715 
C 1664 370 1370 64 1075 64 
z
" transform="scale(0.015625)"/>
      </defs>
      <use xlink:href="#CMMI12-7e" transform="translate(0 26.29016)scale(0.996264)"/>
      <use xlink:href="#CMMI12-62" transform="translate(11.311737 0)scale(0.996264)"/>
     </g>
    </g>
    <g id="line2d_27">
     <path d="M 359.840076 41.183968 
L 369.840076 41.183968 
L 379.840076 41.183968 
" style="fill: none; stroke: #0016ff; stroke-width: 1.5; stroke-linecap: square"/>
    </g>
    <g id="text_23">
     <!-- $\vec{c}$ -->
     <g transform="translate(387.840076 44.683968)scale(0.1 -0.1)">
      <defs>
       <path id="CMMI12-63" d="M 2502 2431 
C 2381 2431 2323 2431 2234 2355 
C 2195 2323 2125 2227 2125 2125 
C 2125 1997 2221 1920 2342 1920 
C 2496 1920 2669 2044 2669 2292 
C 2669 2588 2374 2816 1933 2816 
C 1094 2816 256 1903 256 996 
C 256 441 602 -64 1254 -64 
C 2125 -64 2675 622 2675 706 
C 2675 744 2637 776 2611 776 
C 2592 776 2586 770 2528 713 
C 2118 162 1510 64 1267 64 
C 826 64 685 446 685 764 
C 685 988 794 1605 1024 2039 
C 1190 2338 1536 2682 1939 2682 
C 2022 2682 2374 2682 2502 2431 
z
" transform="scale(0.015625)"/>
      </defs>
      <use xlink:href="#CMMI12-7e" transform="scale(0.996264)"/>
      <use xlink:href="#CMMI12-63" transform="translate(5.638615 0)scale(0.996264)"/>
     </g>
    </g>
    <g id="line2d_28">
     <path d="M 359.840076 57.867937 
L 369.840076 57.867937 
L 379.840076 57.867937 
" style="fill: none; stroke: #f400ff; stroke-width: 1.5; stroke-linecap: square"/>
    </g>
    <g id="text_24">
     <!-- $\vec{f}$ -->
     <g transform="translate(387.840076 61.367937)scale(0.1 -0.1)">
      <defs>
       <path id="CMMI12-66" d="M 2854 2566 
C 2982 2566 3034 2566 3034 2688 
C 3034 2752 2982 2752 2867 2752 
L 2349 2752 
C 2470 3429 2560 3897 2611 4107 
C 2650 4265 2784 4416 2950 4416 
C 3085 4416 3219 4358 3283 4298 
C 3034 4272 2957 4082 2957 3969 
C 2957 3837 3053 3759 3174 3759 
C 3302 3759 3494 3870 3494 4119 
C 3494 4393 3226 4544 2944 4544 
C 2669 4544 2400 4334 2272 4078 
C 2157 3848 2093 3611 1946 2752 
L 1517 2752 
C 1395 2752 1331 2752 1331 2637 
C 1331 2566 1370 2566 1498 2566 
L 1907 2566 
C 1792 1976 1530 542 1382 -137 
C 1274 -689 1178 -1152 858 -1152 
C 838 -1152 653 -1152 538 -1031 
C 864 -1005 864 -726 864 -720 
C 864 -593 768 -517 646 -517 
C 518 -517 326 -625 326 -867 
C 326 -1140 608 -1280 858 -1280 
C 1510 -1280 1779 -118 1850 199 
C 1965 688 2278 2376 2310 2566 
L 2854 2566 
z
" transform="scale(0.015625)"/>
      </defs>
      <use xlink:href="#CMMI12-7e" transform="translate(13.568792 26.29016)scale(0.996264)"/>
      <use xlink:href="#CMMI12-66" transform="scale(0.996264)"/>
     </g>
    </g>
   </g>
  </g>
 </g>
 <defs>
  <clipPath id="pddc8f0200a">
   <rect x="57.6" y="0" width="345.6" height="345.6"/>
  </clipPath>
 </defs>
</svg>
