<?xml version="1.0" encoding="utf-8" standalone="no"?>
<!DOCTYPE svg PUBLIC "-//W3C//DTD SVG 1.1//EN"
  "http://www.w3.org/Graphics/SVG/1.1/DTD/svg11.dtd">
<svg xmlns:xlink="http://www.w3.org/1999/xlink" width="460.8pt" height="345.6pt" viewBox="0 0 460.8 345.6" xmlns="http://www.w3.org/2000/svg" version="1.1">
 <metadata>
  <rdf:RDF xmlns:dc="http://purl.org/dc/elements/1.1/" xmlns:cc="http://creativecommons.org/ns#" xmlns:rdf="http://www.w3.org/1999/02/22-rdf-syntax-ns#">
   <cc:Work>
    <dc:type rdf:resource="http://purl.org/dc/dcmitype/StillImage"/>
    <dc:date>2022-07-12T15:50:55.411096</dc:date>
    <dc:format>image/svg+xml</dc:format>
    <dc:creator>
     <cc:Agent>
      <dc:title>Matplotlib v3.5.1, https://matplotlib.org/</dc:title>
     </cc:Agent>
    </dc:creator>
   </cc:Work>
  </rdf:RDF>
 </metadata>
 <defs>
  <style type="text/css">*{stroke-linejoin: round; stroke-linecap: butt}</style>
 </defs>
 <g id="figure_1">
  <g id="patch_1">
   <path d="M 0 345.6 
L 460.8 345.6 
L 460.8 0 
L 0 0 
z
" style="fill: #ffffff"/>
  </g>
  <g id="patch_2">
   <path d="M 57.6 345.6 
L 403.2 345.6 
L 403.2 0 
L 57.6 0 
z
" style="fill: #ffffff"/>
  </g>
  <g id="pane3d_1">
   <g id="patch_3">
    <path d="M 315.070226 246.027899 
L 373.293576 255.534702 
L 373.293576 80.724758 
L 315.070226 90.231561 
" style="fill: #f2f2f2; opacity: 0.5; stroke: #f2f2f2; stroke-linejoin: miter"/>
   </g>
  </g>
  <g id="pane3d_2">
   <g id="patch_4">
    <path d="M 315.070226 246.027899 
L 108.965704 247.871464 
L 108.965704 88.387995 
L 315.070226 90.231561 
" style="fill: #e6e6e6; opacity: 0.5; stroke: #e6e6e6; stroke-linejoin: miter"/>
   </g>
  </g>
  <g id="pane3d_3">
   <g id="patch_5">
    <path d="M 315.070226 246.027899 
L 108.965704 247.871464 
L 142.916471 257.862431 
L 373.293576 255.534702 
" style="fill: #ececec; opacity: 0.5; stroke: #ececec; stroke-linejoin: miter"/>
   </g>
  </g>
  <g id="axis3d_1">
   <g id="line2d_1">
    <path d="M 373.293576 255.534702 
L 142.916471 257.862431 
" style="fill: none; stroke: #000000; stroke-width: 0.8; stroke-linecap: square"/>
   </g>
   <g id="text_1">
    <!-- x -->
    <g transform="translate(263.415879 287.243635)scale(0.16 -0.16)">
     <defs>
      <path id="CMSS17-78" d="M 1587 1414 
L 2656 2739 
L 2099 2739 
L 1363 1777 
L 602 2739 
L 32 2739 
L 1139 1414 
L 0 0 
L 563 0 
L 1363 1121 
L 2195 0 
L 2758 0 
L 1587 1414 
z
" transform="scale(0.015625)"/>
     </defs>
     <use xlink:href="#CMSS17-78" transform="scale(0.996264)"/>
    </g>
   </g>
   <g id="Line3DCollection_1">
    <path d="M 368.803227 255.580072 
L 311.041572 246.063934 
L 311.041572 90.195525 
" style="fill: none; stroke: #b0b0b0; stroke-width: 0.8"/>
    <path d="M 325.457501 256.018037 
L 272.176005 246.411579 
L 272.176005 89.84788 
" style="fill: none; stroke: #b0b0b0; stroke-width: 0.8"/>
    <path d="M 281.675426 256.460411 
L 232.962146 246.76234 
L 232.962146 89.49712 
" style="fill: none; stroke: #b0b0b0; stroke-width: 0.8"/>
    <path d="M 237.450378 256.907261 
L 193.39529 247.116258 
L 193.39529 89.143202 
" style="fill: none; stroke: #b0b0b0; stroke-width: 0.8"/>
    <path d="M 192.775602 257.358655 
L 153.470651 247.473376 
L 153.470651 88.786084 
" style="fill: none; stroke: #b0b0b0; stroke-width: 0.8"/>
    <path d="M 147.644201 257.814663 
L 113.183353 247.833738 
L 113.183353 88.425721 
" style="fill: none; stroke: #b0b0b0; stroke-width: 0.8"/>
   </g>
   <g id="xtick_1">
    <g id="line2d_2">
     <path d="M 368.285216 255.494731 
L 369.842291 255.751256 
" style="fill: none; stroke: #000000; stroke-width: 0.8; stroke-linecap: square"/>
    </g>
    <g id="text_2">
     <!-- $\mathdefault{0}$ -->
     <g transform="translate(370.486052 274.448214)scale(0.1 -0.1)">
      <defs>
       <path id="CMR17-30" d="M 2688 2025 
C 2688 2416 2682 3080 2413 3591 
C 2176 4039 1798 4198 1466 4198 
C 1158 4198 768 4058 525 3597 
C 269 3118 243 2524 243 2025 
C 243 1661 250 1106 448 619 
C 723 -39 1216 -128 1466 -128 
C 1760 -128 2208 -7 2470 600 
C 2662 1042 2688 1559 2688 2025 
z
M 1466 -26 
C 1056 -26 813 325 723 812 
C 653 1188 653 1738 653 2096 
C 653 2588 653 2997 736 3387 
C 858 3929 1216 4096 1466 4096 
C 1728 4096 2067 3923 2189 3400 
C 2272 3036 2278 2607 2278 2096 
C 2278 1680 2278 1169 2202 792 
C 2067 95 1690 -26 1466 -26 
z
" transform="scale(0.015625)"/>
      </defs>
      <use xlink:href="#CMR17-30" transform="scale(0.996264)"/>
     </g>
    </g>
   </g>
   <g id="xtick_2">
    <g id="line2d_3">
     <path d="M 324.979411 255.931839 
L 326.416504 256.190942 
" style="fill: none; stroke: #000000; stroke-width: 0.8; stroke-linecap: square"/>
    </g>
    <g id="text_3">
     <!-- $\mathdefault{1}$ -->
     <g transform="translate(326.818868 274.949959)scale(0.1 -0.1)">
      <defs>
       <path id="CMR17-31" d="M 1702 4058 
C 1702 4192 1696 4192 1606 4192 
C 1357 3916 979 3827 621 3827 
C 602 3827 570 3827 563 3808 
C 557 3795 557 3782 557 3648 
C 755 3648 1088 3686 1344 3839 
L 1344 461 
C 1344 236 1331 160 781 160 
L 589 160 
L 589 0 
C 896 0 1216 0 1523 0 
C 1830 0 2150 0 2458 0 
L 2458 160 
L 2266 160 
C 1715 160 1702 230 1702 458 
L 1702 4058 
z
" transform="scale(0.015625)"/>
      </defs>
      <use xlink:href="#CMR17-31" transform="scale(0.996264)"/>
     </g>
    </g>
   </g>
   <g id="xtick_3">
    <g id="line2d_4">
     <path d="M 281.238087 256.373344 
L 282.552698 256.635063 
" style="fill: none; stroke: #000000; stroke-width: 0.8; stroke-linecap: square"/>
    </g>
    <g id="text_4">
     <!-- $\mathdefault{2}$ -->
     <g transform="translate(282.708607 275.456794)scale(0.1 -0.1)">
      <defs>
       <path id="CMR17-32" d="M 2669 989 
L 2554 989 
C 2490 536 2438 459 2413 420 
C 2381 369 1920 369 1830 369 
L 602 369 
C 832 619 1280 1072 1824 1597 
C 2214 1967 2669 2402 2669 3035 
C 2669 3790 2067 4224 1395 4224 
C 691 4224 262 3604 262 3030 
C 262 2780 448 2748 525 2748 
C 589 2748 781 2787 781 3010 
C 781 3207 614 3264 525 3264 
C 486 3264 448 3258 422 3245 
C 544 3790 915 4058 1306 4058 
C 1862 4058 2227 3617 2227 3035 
C 2227 2479 1901 2000 1536 1584 
L 262 146 
L 262 0 
L 2515 0 
L 2669 989 
z
" transform="scale(0.015625)"/>
      </defs>
      <use xlink:href="#CMR17-32" transform="scale(0.996264)"/>
     </g>
    </g>
   </g>
   <g id="xtick_4">
    <g id="line2d_5">
     <path d="M 237.054642 256.819311 
L 238.24421 257.083686 
" style="fill: none; stroke: #000000; stroke-width: 0.8; stroke-linecap: square"/>
    </g>
    <g id="text_5">
     <!-- $\mathdefault{3}$ -->
     <g transform="translate(238.148491 275.968799)scale(0.1 -0.1)">
      <defs>
       <path id="CMR17-33" d="M 1414 2157 
C 1984 2157 2234 1662 2234 1090 
C 2234 320 1824 25 1453 25 
C 1114 25 563 194 390 693 
C 422 680 454 680 486 680 
C 640 680 755 782 755 948 
C 755 1133 614 1216 486 1216 
C 378 1216 211 1165 211 926 
C 211 335 787 -128 1466 -128 
C 2176 -128 2720 430 2720 1085 
C 2720 1707 2208 2157 1600 2227 
C 2086 2328 2554 2756 2554 3329 
C 2554 3820 2048 4179 1472 4179 
C 890 4179 378 3829 378 3329 
C 378 3110 544 3072 627 3072 
C 762 3072 877 3155 877 3321 
C 877 3486 762 3569 627 3569 
C 602 3569 570 3569 544 3557 
C 730 3959 1235 4032 1459 4032 
C 1683 4032 2106 3925 2106 3320 
C 2106 3143 2080 2828 1862 2550 
C 1670 2304 1453 2304 1242 2284 
C 1210 2284 1062 2269 1037 2269 
C 992 2263 966 2257 966 2208 
C 966 2163 973 2157 1101 2157 
L 1414 2157 
z
" transform="scale(0.015625)"/>
      </defs>
      <use xlink:href="#CMR17-33" transform="scale(0.996264)"/>
     </g>
    </g>
   </g>
   <g id="xtick_5">
    <g id="line2d_6">
     <path d="M 192.422339 257.269809 
L 193.484245 257.53688 
" style="fill: none; stroke: #000000; stroke-width: 0.8; stroke-linecap: square"/>
    </g>
    <g id="text_6">
     <!-- $\mathdefault{4}$ -->
     <g transform="translate(193.131602 276.486052)scale(0.1 -0.1)">
      <defs>
       <path id="CMR17-34" d="M 2150 4122 
C 2150 4256 2144 4256 2029 4256 
L 128 1254 
L 128 1088 
L 1779 1088 
L 1779 457 
C 1779 224 1766 160 1318 160 
L 1197 160 
L 1197 0 
C 1402 0 1747 0 1965 0 
C 2182 0 2528 0 2733 0 
L 2733 160 
L 2611 160 
C 2163 160 2150 224 2150 457 
L 2150 1088 
L 2803 1088 
L 2803 1254 
L 2150 1254 
L 2150 4122 
z
M 1798 3703 
L 1798 1254 
L 256 1254 
L 1798 3703 
z
" transform="scale(0.015625)"/>
      </defs>
      <use xlink:href="#CMR17-34" transform="scale(0.996264)"/>
     </g>
    </g>
   </g>
   <g id="xtick_6">
    <g id="line2d_7">
     <path d="M 147.334302 257.724906 
L 148.265866 257.994716 
" style="fill: none; stroke: #000000; stroke-width: 0.8; stroke-linecap: square"/>
    </g>
    <g id="text_7">
     <!-- $\mathdefault{5}$ -->
     <g transform="translate(147.650882 277.008634)scale(0.1 -0.1)">
      <defs>
       <path id="CMR17-35" d="M 730 3692 
C 794 3666 1056 3584 1325 3584 
C 1920 3584 2246 3911 2432 4100 
C 2432 4157 2432 4192 2394 4192 
C 2387 4192 2374 4192 2323 4163 
C 2099 4058 1837 3973 1517 3973 
C 1325 3973 1037 3999 723 4139 
C 653 4171 640 4171 634 4171 
C 602 4171 595 4164 595 4037 
L 595 2203 
C 595 2089 595 2057 659 2057 
C 691 2057 704 2070 736 2114 
C 941 2401 1222 2522 1542 2522 
C 1766 2522 2246 2382 2246 1289 
C 2246 1085 2246 715 2054 421 
C 1894 159 1645 25 1370 25 
C 947 25 518 320 403 814 
C 429 807 480 795 506 795 
C 589 795 749 840 749 1038 
C 749 1210 627 1280 506 1280 
C 358 1280 262 1190 262 1011 
C 262 454 704 -128 1382 -128 
C 2042 -128 2669 440 2669 1264 
C 2669 2030 2170 2624 1549 2624 
C 1222 2624 947 2503 730 2274 
L 730 3692 
z
" transform="scale(0.015625)"/>
      </defs>
      <use xlink:href="#CMR17-35" transform="scale(0.996264)"/>
     </g>
    </g>
   </g>
  </g>
  <g id="axis3d_2">
   <g id="line2d_8">
    <path d="M 108.965704 247.871464 
L 142.916471 257.862431 
" style="fill: none; stroke: #000000; stroke-width: 0.8; stroke-linecap: square"/>
   </g>
   <g id="text_8">
    <!-- y -->
    <g transform="translate(90.287264 280.390702)scale(0.16 -0.16)">
     <defs>
      <path id="CMSS17-79" d="M 2675 2752 
L 2176 2752 
C 1632 1294 1446 702 1434 383 
L 1427 383 
C 1408 696 1126 1460 902 2007 
L 602 2752 
L 83 2752 
L 1216 13 
C 1146 -178 1043 -465 1011 -529 
C 870 -885 774 -885 672 -885 
C 646 -885 442 -885 211 -809 
L 250 -1229 
C 410 -1261 570 -1280 685 -1280 
C 845 -1280 1165 -1280 1459 -497 
L 2675 2752 
z
" transform="scale(0.015625)"/>
     </defs>
     <use xlink:href="#CMSS17-79" transform="scale(0.996264)"/>
    </g>
   </g>
   <g id="Line3DCollection_2">
    <path d="M 321.166446 89.23616 
L 321.166446 247.023299 
L 112.511291 248.914853 
" style="fill: none; stroke: #b0b0b0; stroke-width: 0.8"/>
    <path d="M 331.606487 87.531493 
L 331.606487 248.727966 
L 118.588248 250.703168 
" style="fill: none; stroke: #b0b0b0; stroke-width: 0.8"/>
    <path d="M 342.50765 85.751534 
L 342.50765 250.507926 
L 124.940344 252.572451 
" style="fill: none; stroke: #b0b0b0; stroke-width: 0.8"/>
    <path d="M 353.901177 83.89118 
L 353.901177 252.368279 
L 131.586695 254.528326 
" style="fill: none; stroke: #b0b0b0; stroke-width: 0.8"/>
    <path d="M 365.821196 81.94486 
L 365.821196 254.3146 
L 138.548235 256.576955 
" style="fill: none; stroke: #b0b0b0; stroke-width: 0.8"/>
   </g>
   <g id="xtick_7">
    <g id="line2d_9">
     <path d="M 114.220227 248.899361 
L 109.091454 248.945855 
" style="fill: none; stroke: #000000; stroke-width: 0.8; stroke-linecap: square"/>
    </g>
    <g id="text_9">
     <!-- $\mathdefault{−4}$ -->
     <g transform="translate(92.474946 266.295668)scale(0.1 -0.1)">
      <defs>
       <path id="CMSY10-0" d="M 4218 1472 
C 4326 1472 4442 1472 4442 1600 
C 4442 1728 4326 1728 4218 1728 
L 755 1728 
C 646 1728 531 1728 531 1600 
C 531 1472 646 1472 755 1472 
L 4218 1472 
z
" transform="scale(0.015625)"/>
      </defs>
      <use xlink:href="#CMSY10-0" transform="scale(0.996264)"/>
      <use xlink:href="#CMR17-34" transform="translate(77.487468 0)scale(0.996264)"/>
     </g>
    </g>
   </g>
   <g id="xtick_8">
    <g id="line2d_10">
     <path d="M 120.333815 250.686983 
L 115.095061 250.735559 
" style="fill: none; stroke: #000000; stroke-width: 0.8; stroke-linecap: square"/>
    </g>
    <g id="text_10">
     <!-- $\mathdefault{−2}$ -->
     <g transform="translate(98.258321 268.318752)scale(0.1 -0.1)">
      <use xlink:href="#CMSY10-0" transform="scale(0.996264)"/>
      <use xlink:href="#CMR17-32" transform="translate(77.487468 0)scale(0.996264)"/>
     </g>
    </g>
   </g>
   <g id="xtick_9">
    <g id="line2d_11">
     <path d="M 126.724145 252.555524 
L 121.370594 252.606325 
" style="fill: none; stroke: #000000; stroke-width: 0.8; stroke-linecap: square"/>
    </g>
    <g id="text_11">
     <!-- $\mathdefault{0}$ -->
     <g transform="translate(108.178333 270.433579)scale(0.1 -0.1)">
      <use xlink:href="#CMR17-30" transform="scale(0.996264)"/>
     </g>
    </g>
   </g>
   <g id="xtick_10">
    <g id="line2d_12">
     <path d="M 133.410442 254.510607 
L 127.936957 254.563788 
" style="fill: none; stroke: #000000; stroke-width: 0.8; stroke-linecap: square"/>
    </g>
    <g id="text_12">
     <!-- $\mathdefault{2}$ -->
     <g transform="translate(114.504493 272.646535)scale(0.1 -0.1)">
      <use xlink:href="#CMR17-32" transform="scale(0.996264)"/>
     </g>
    </g>
   </g>
   <g id="xtick_11">
    <g id="line2d_13">
     <path d="M 140.413754 256.558385 
L 134.814845 256.614119 
" style="fill: none; stroke: #000000; stroke-width: 0.8; stroke-linecap: square"/>
    </g>
    <g id="text_13">
     <!-- $\mathdefault{4}$ -->
     <g transform="translate(121.131161 274.964612)scale(0.1 -0.1)">
      <use xlink:href="#CMR17-34" transform="scale(0.996264)"/>
     </g>
    </g>
   </g>
  </g>
  <g id="axis3d_3">
   <g id="line2d_14">
    <path d="M 108.965704 247.871464 
L 108.965704 88.387995 
" style="fill: none; stroke: #000000; stroke-width: 0.8; stroke-linecap: square"/>
   </g>
   <g id="text_14">
    <!-- z -->
    <g transform="translate(72.489777 172.114786)scale(0.16 -0.16)">
     <defs>
      <path id="CMSS17-7a" d="M 2400 2502 
L 2400 2750 
L 250 2750 
L 250 2368 
L 1069 2368 
C 1146 2368 1222 2368 1299 2368 
L 1747 2368 
L 166 261 
L 166 0 
L 2419 0 
L 2419 395 
L 1549 395 
C 1472 395 1395 395 1318 395 
L 826 395 
L 2400 2502 
z
" transform="scale(0.015625)"/>
     </defs>
     <use xlink:href="#CMSS17-7a" transform="scale(0.996264)"/>
    </g>
   </g>
   <g id="Line3DCollection_3">
    <path d="M 108.965704 244.681795 
L 315.070226 242.911972 
L 373.293576 252.038503 
" style="fill: none; stroke: #b0b0b0; stroke-width: 0.8"/>
    <path d="M 108.965704 214.060969 
L 315.070226 212.999075 
L 373.293576 218.474994 
" style="fill: none; stroke: #b0b0b0; stroke-width: 0.8"/>
    <path d="M 108.965704 183.440143 
L 315.070226 183.086178 
L 373.293576 184.911484 
" style="fill: none; stroke: #b0b0b0; stroke-width: 0.8"/>
    <path d="M 108.965704 152.819317 
L 315.070226 153.173281 
L 373.293576 151.347975 
" style="fill: none; stroke: #b0b0b0; stroke-width: 0.8"/>
    <path d="M 108.965704 122.198491 
L 315.070226 123.260384 
L 373.293576 117.784466 
" style="fill: none; stroke: #b0b0b0; stroke-width: 0.8"/>
    <path d="M 108.965704 91.577665 
L 315.070226 93.347488 
L 373.293576 84.220956 
" style="fill: none; stroke: #b0b0b0; stroke-width: 0.8"/>
   </g>
   <g id="xtick_12">
    <g id="line2d_15">
     <path d="M 110.653242 244.667304 
L 105.588709 244.710793 
" style="fill: none; stroke: #000000; stroke-width: 0.8; stroke-linecap: square"/>
    </g>
    <g id="text_15">
     <!-- $\mathdefault{0}$ -->
     <g transform="translate(91.153866 251.173878)scale(0.1 -0.1)">
      <use xlink:href="#CMR17-30" transform="scale(0.996264)"/>
     </g>
    </g>
   </g>
   <g id="xtick_13">
    <g id="line2d_16">
     <path d="M 110.653242 214.052274 
L 105.588709 214.078368 
" style="fill: none; stroke: #000000; stroke-width: 0.8; stroke-linecap: square"/>
    </g>
    <g id="text_16">
     <!-- $\mathdefault{1}$ -->
     <g transform="translate(91.153866 220.723618)scale(0.1 -0.1)">
      <use xlink:href="#CMR17-31" transform="scale(0.996264)"/>
     </g>
    </g>
   </g>
   <g id="xtick_14">
    <g id="line2d_17">
     <path d="M 110.653242 183.437245 
L 105.588709 183.445942 
" style="fill: none; stroke: #000000; stroke-width: 0.8; stroke-linecap: square"/>
    </g>
    <g id="text_17">
     <!-- $\mathdefault{2}$ -->
     <g transform="translate(91.153866 190.273358)scale(0.1 -0.1)">
      <use xlink:href="#CMR17-32" transform="scale(0.996264)"/>
     </g>
    </g>
   </g>
   <g id="xtick_15">
    <g id="line2d_18">
     <path d="M 110.653242 152.822215 
L 105.588709 152.813517 
" style="fill: none; stroke: #000000; stroke-width: 0.8; stroke-linecap: square"/>
    </g>
    <g id="text_18">
     <!-- $\mathdefault{3}$ -->
     <g transform="translate(91.153866 159.823098)scale(0.1 -0.1)">
      <use xlink:href="#CMR17-33" transform="scale(0.996264)"/>
     </g>
    </g>
   </g>
   <g id="xtick_16">
    <g id="line2d_19">
     <path d="M 110.653242 122.207185 
L 105.588709 122.181092 
" style="fill: none; stroke: #000000; stroke-width: 0.8; stroke-linecap: square"/>
    </g>
    <g id="text_19">
     <!-- $\mathdefault{4}$ -->
     <g transform="translate(91.153866 129.372838)scale(0.1 -0.1)">
      <use xlink:href="#CMR17-34" transform="scale(0.996264)"/>
     </g>
    </g>
   </g>
   <g id="xtick_17">
    <g id="line2d_20">
     <path d="M 110.653242 91.592156 
L 105.588709 91.548666 
" style="fill: none; stroke: #000000; stroke-width: 0.8; stroke-linecap: square"/>
    </g>
    <g id="text_20">
     <!-- $\mathdefault{5}$ -->
     <g transform="translate(91.153866 98.922578)scale(0.1 -0.1)">
      <use xlink:href="#CMR17-35" transform="scale(0.996264)"/>
     </g>
    </g>
   </g>
  </g>
  <g id="axes_1">
   <g id="line2d_21">
    <path d="M 338.260613 247.251487 
L 313.097224 85.896326 
" clip-path="url(#p6c1587aab9)" style="fill: none; stroke: #ff0000; stroke-width: 1.5; stroke-linecap: square"/>
   </g>
   <g id="line2d_22">
    <path d="M 338.260613 247.251487 
L 246.786009 121.252125 
" clip-path="url(#p6c1587aab9)" style="fill: none; stroke: #00ff00; stroke-width: 1.5; stroke-linecap: square"/>
   </g>
   <g id="line2d_23">
    <path d="M 338.260613 247.251487 
L 235.705593 -1 
" clip-path="url(#p6c1587aab9)" style="fill: none; stroke: #0016ff; stroke-width: 1.5; stroke-linecap: square"/>
   </g>
   <g id="line2d_24">
    <path d="M 338.260613 247.251487 
L 119.832894 152.456785 
" clip-path="url(#p6c1587aab9)" style="fill: none; stroke: #f400ff; stroke-width: 1.5; stroke-linecap: square"/>
   </g>
   <g id="Poly3DCollection_1">
    <path d="M 312.073341 355.579778 
L 292.64372 314.666858 
L 295.041547 304.108157 
L 314.568046 345.259988 
z
" clip-path="url(#p6c1587aab9)" style="fill: #0000f5; fill-opacity: 0.1"/>
    <path d="M 292.64372 314.666858 
L 273.127238 273.571036 
L 275.427292 262.771383 
L 295.041547 304.108157 
z
" clip-path="url(#p6c1587aab9)" style="fill: #0000f5; fill-opacity: 0.1"/>
    <path d="M 273.127238 273.571036 
L 253.523312 232.291083 
L 255.72469 221.248417 
L 275.427292 262.771383 
z
" clip-path="url(#p6c1587aab9)" style="fill: #0000f5; fill-opacity: 0.1"/>
    <path d="M 314.568046 345.259988 
L 295.041547 304.108157 
L 297.4648 293.437492 
L 317.089146 334.831014 
z
" clip-path="url(#p6c1587aab9)" style="fill: #0000f5; fill-opacity: 0.1"/>
    <path d="M 253.523312 232.291083 
L 233.831352 190.825759 
L 235.933141 179.537999 
L 255.72469 221.248417 
z
" clip-path="url(#p6c1587aab9)" style="fill: #0000f5; fill-opacity: 0.1"/>
    <path d="M 295.041547 304.108157 
L 275.427292 262.771383 
L 277.751791 251.856953 
L 297.4648 293.437492 
z
" clip-path="url(#p6c1587aab9)" style="fill: #0000f5; fill-opacity: 0.1"/>
    <path d="M 233.831352 190.825759 
L 214.050765 149.173811 
L 216.052042 137.638855 
L 235.933141 179.537999 
z
" clip-path="url(#p6c1587aab9)" style="fill: #0000f5; fill-opacity: 0.1"/>
    <path d="M 275.427292 262.771383 
L 255.72469 221.248417 
L 257.949516 210.088126 
L 277.751791 251.856953 
z
" clip-path="url(#p6c1587aab9)" style="fill: #0000f5; fill-opacity: 0.1"/>
    <path d="M 317.089146 334.831014 
L 297.4648 293.437492 
L 299.913886 282.653074 
L 319.63706 324.291114 
z
" clip-path="url(#p6c1587aab9)" style="fill: #0000f5; fill-opacity: 0.1"/>
    <path d="M 214.050765 149.173811 
L 194.180951 107.333977 
L 196.080784 95.549701 
L 216.052042 137.638855 
z
" clip-path="url(#p6c1587aab9)" style="fill: #0000f5; fill-opacity: 0.1"/>
    <path d="M 255.72469 221.248417 
L 235.933141 179.537999 
L 238.057368 168.12973 
L 257.949516 210.088126 
z
" clip-path="url(#p6c1587aab9)" style="fill: #0000f5; fill-opacity: 0.1"/>
    <path d="M 297.4648 293.437492 
L 277.751791 251.856953 
L 280.101126 240.825906 
L 299.913886 282.653074 
z
" clip-path="url(#p6c1587aab9)" style="fill: #0000f5; fill-opacity: 0.1"/>
    <path d="M 194.180951 107.333977 
L 174.221304 65.304983 
L 176.018752 53.269244 
L 196.080784 95.549701 
z
" clip-path="url(#p6c1587aab9)" style="fill: #0000f5; fill-opacity: 0.1"/>
    <path d="M 235.933141 179.537999 
L 216.052042 137.638855 
L 218.074733 125.98047 
L 238.057368 168.12973 
z
" clip-path="url(#p6c1587aab9)" style="fill: #0000f5; fill-opacity: 0.1"/>
    <path d="M 277.751791 251.856953 
L 257.949516 210.088126 
L 260.198168 198.80832 
L 280.101126 240.825906 
z
" clip-path="url(#p6c1587aab9)" style="fill: #0000f5; fill-opacity: 0.1"/>
    <path d="M 174.221304 65.304983 
L 154.171213 23.085543 
L 155.865327 10.796174 
L 176.018752 53.269244 
z
" clip-path="url(#p6c1587aab9)" style="fill: #0000f5; fill-opacity: 0.1"/>
    <path d="M 319.63706 324.291114 
L 299.913886 282.653074 
L 302.38922 271.753073 
L 322.21222 313.638509 
z
" clip-path="url(#p6c1587aab9)" style="fill: #0000f5; fill-opacity: 0.1"/>
    <path d="M 216.052042 137.638855 
L 196.080784 95.549701 
L 198.000993 83.639043 
L 218.074733 125.98047 
z
" clip-path="url(#p6c1587aab9)" style="fill: #0000f5; fill-opacity: 0.1"/>
    <path d="M 257.949516 210.088126 
L 238.057368 168.12973 
L 240.204395 156.599012 
L 260.198168 198.80832 
z
" clip-path="url(#p6c1587aab9)" style="fill: #0000f5; fill-opacity: 0.1"/>
    <path d="M 154.171213 23.085543 
L 134.030064 -19.32564 
L 135.619881 -31.870826 
L 155.865327 10.796174 
z
" clip-path="url(#p6c1587aab9)" style="fill: #0000f5; fill-opacity: 0.1"/>
    <path d="M 299.913886 282.653074 
L 280.101126 240.825906 
L 282.475698 229.676364 
L 302.38922 271.753073 
z
" clip-path="url(#p6c1587aab9)" style="fill: #0000f5; fill-opacity: 0.1"/>
    <path d="M 196.080784 95.549701 
L 176.018752 53.269244 
L 177.835523 41.10413 
L 198.000993 83.639043 
z
" clip-path="url(#p6c1587aab9)" style="fill: #0000f5; fill-opacity: 0.1"/>
    <path d="M 238.057368 168.12973 
L 218.074733 125.98047 
L 220.119184 114.196666 
L 240.204395 156.599012 
z
" clip-path="url(#p6c1587aab9)" style="fill: #0000f5; fill-opacity: 0.1"/>
    <path d="M 280.101126 240.825906 
L 260.198168 198.80832 
L 262.471031 187.407068 
L 282.475698 229.676364 
z
" clip-path="url(#p6c1587aab9)" style="fill: #0000f5; fill-opacity: 0.1"/>
    <path d="M 176.018752 53.269244 
L 155.865327 10.796174 
L 157.577692 -1.625598 
L 177.835523 41.10413 
z
" clip-path="url(#p6c1587aab9)" style="fill: #0000f5; fill-opacity: 0.1"/>
    <path d="M 322.21222 313.638509 
L 302.38922 271.753073 
L 304.891227 260.735622 
L 324.815064 302.871382 
z
" clip-path="url(#p6c1587aab9)" style="fill: #0000f5; fill-opacity: 0.1"/>
    <path d="M 218.074733 125.98047 
L 198.000993 83.639043 
L 199.941906 71.599956 
L 220.119184 114.196666 
z
" clip-path="url(#p6c1587aab9)" style="fill: #0000f5; fill-opacity: 0.1"/>
    <path d="M 260.198168 198.80832 
L 240.204395 156.599012 
L 242.374592 144.943862 
L 262.471031 187.407068 
z
" clip-path="url(#p6c1587aab9)" style="fill: #0000f5; fill-opacity: 0.1"/>
    <path d="M 155.865327 10.796174 
L 135.619881 -31.870826 
L 137.226865 -44.551483 
L 157.577692 -1.625598 
z
" clip-path="url(#p6c1587aab9)" style="fill: #0000f5; fill-opacity: 0.1"/>
    <path d="M 302.38922 271.753073 
L 282.475698 229.676364 
L 284.875915 218.406406 
L 304.891227 260.735622 
z
" clip-path="url(#p6c1587aab9)" style="fill: #0000f5; fill-opacity: 0.1"/>
    <path d="M 198.000993 83.639043 
L 177.835523 41.10413 
L 179.671927 28.807543 
L 199.941906 71.599956 
z
" clip-path="url(#p6c1587aab9)" style="fill: #0000f5; fill-opacity: 0.1"/>
    <path d="M 240.204395 156.599012 
L 220.119184 114.196666 
L 222.185748 102.285407 
L 242.374592 144.943862 
z
" clip-path="url(#p6c1587aab9)" style="fill: #0000f5; fill-opacity: 0.1"/>
    <path d="M 282.475698 229.676364 
L 262.471031 187.407068 
L 264.768497 175.8824 
L 284.875915 218.406406 
z
" clip-path="url(#p6c1587aab9)" style="fill: #0000f5; fill-opacity: 0.1"/>
    <path d="M 177.835523 41.10413 
L 157.577692 -1.625598 
L 159.308606 -14.181927 
L 179.671927 28.807543 
z
" clip-path="url(#p6c1587aab9)" style="fill: #0000f5; fill-opacity: 0.1"/>
    <path d="M 324.815064 302.871382 
L 304.891227 260.735622 
L 307.420339 249.598811 
L 327.446042 291.987876 
z
" clip-path="url(#p6c1587aab9)" style="fill: #0000f5; fill-opacity: 0.1"/>
    <path d="M 220.119184 114.196666 
L 199.941906 71.599956 
L 201.903861 59.430354 
L 222.185748 102.285407 
z
" clip-path="url(#p6c1587aab9)" style="fill: #0000f5; fill-opacity: 0.1"/>
    <path d="M 262.471031 187.407068 
L 242.374592 144.943862 
L 244.568335 133.162256 
L 264.768497 175.8824 
z
" clip-path="url(#p6c1587aab9)" style="fill: #0000f5; fill-opacity: 0.1"/>
    <path d="M 157.577692 -1.625598 
L 137.226865 -44.551483 
L 138.851297 -57.369816 
L 159.308606 -14.181927 
z
" clip-path="url(#p6c1587aab9)" style="fill: #0000f5; fill-opacity: 0.1"/>
    <path d="M 304.891227 260.735622 
L 284.875915 218.406406 
L 287.302195 207.014072 
L 307.420339 249.598811 
z
" clip-path="url(#p6c1587aab9)" style="fill: #0000f5; fill-opacity: 0.1"/>
    <path d="M 199.941906 71.599956 
L 179.671927 28.807543 
L 181.528286 16.377341 
L 201.903861 59.430354 
z
" clip-path="url(#p6c1587aab9)" style="fill: #0000f5; fill-opacity: 0.1"/>
    <path d="M 242.374592 144.943862 
L 222.185748 102.285407 
L 224.274786 90.244615 
L 244.568335 133.162256 
z
" clip-path="url(#p6c1587aab9)" style="fill: #0000f5; fill-opacity: 0.1"/>
    <path d="M 284.875915 218.406406 
L 264.768497 175.8824 
L 267.090968 164.2323 
L 287.302195 207.014072 
z
" clip-path="url(#p6c1587aab9)" style="fill: #0000f5; fill-opacity: 0.1"/>
    <path d="M 179.671927 28.807543 
L 159.308606 -14.181927 
L 161.058372 -26.875009 
L 181.528286 16.377341 
z
" clip-path="url(#p6c1587aab9)" style="fill: #0000f5; fill-opacity: 0.1"/>
    <path d="M 327.446042 291.987876 
L 307.420339 249.598811 
L 309.977001 238.340691 
L 330.105612 280.986093 
z
" clip-path="url(#p6c1587aab9)" style="fill: #0000f5; fill-opacity: 0.1"/>
    <path d="M 222.185748 102.285407 
L 201.903861 59.430354 
L 203.887202 47.128102 
L 224.274786 90.244615 
z
" clip-path="url(#p6c1587aab9)" style="fill: #0000f5; fill-opacity: 0.1"/>
    <path d="M 264.768497 175.8824 
L 244.568335 133.162256 
L 246.786009 121.252125 
L 267.090968 164.2323 
z
" clip-path="url(#p6c1587aab9)" style="fill: #0000f5; fill-opacity: 0.1"/>
    <path d="M 159.308606 -14.181927 
L 138.851297 -57.369816 
L 140.493462 -70.328081 
L 161.058372 -26.875009 
z
" clip-path="url(#p6c1587aab9)" style="fill: #0000f5; fill-opacity: 0.1"/>
    <path d="M 307.420339 249.598811 
L 287.302195 207.014072 
L 289.754965 195.497357 
L 309.977001 238.340691 
z
" clip-path="url(#p6c1587aab9)" style="fill: #0000f5; fill-opacity: 0.1"/>
    <path d="M 201.903861 59.430354 
L 181.528286 16.377341 
L 183.404927 3.811333 
L 203.887202 47.128102 
z
" clip-path="url(#p6c1587aab9)" style="fill: #0000f5; fill-opacity: 0.1"/>
    <path d="M 244.568335 133.162256 
L 224.274786 90.244615 
L 226.386666 78.072163 
L 246.786009 121.252125 
z
" clip-path="url(#p6c1587aab9)" style="fill: #0000f5; fill-opacity: 0.1"/>
    <path d="M 287.302195 207.014072 
L 267.090968 164.2323 
L 269.438854 152.454709 
L 289.754965 195.497357 
z
" clip-path="url(#p6c1587aab9)" style="fill: #0000f5; fill-opacity: 0.1"/>
    <path d="M 181.528286 16.377341 
L 161.058372 -26.875009 
L 162.827299 -39.70709 
L 183.404927 3.811333 
z
" clip-path="url(#p6c1587aab9)" style="fill: #0000f5; fill-opacity: 0.1"/>
    <path d="M 330.105612 280.986093 
L 309.977001 238.340691 
L 312.561663 226.959269 
L 332.794243 269.864095 
z
" clip-path="url(#p6c1587aab9)" style="fill: #0000f5; fill-opacity: 0.1"/>
    <path d="M 224.274786 90.244615 
L 203.887202 47.128102 
L 205.89228 34.691019 
L 226.386666 78.072163 
z
" clip-path="url(#p6c1587aab9)" style="fill: #0000f5; fill-opacity: 0.1"/>
    <path d="M 267.090968 164.2323 
L 246.786009 121.252125 
L 249.028009 109.211353 
L 269.438854 152.454709 
z
" clip-path="url(#p6c1587aab9)" style="fill: #0000f5; fill-opacity: 0.1"/>
    <path d="M 161.058372 -26.875009 
L 140.493462 -70.328081 
L 142.153653 -83.42858 
L 162.827299 -39.70709 
z
" clip-path="url(#p6c1587aab9)" style="fill: #0000f5; fill-opacity: 0.1"/>
    <path d="M 309.977001 238.340691 
L 289.754965 195.497357 
L 292.234662 183.854213 
L 312.561663 226.959269 
z
" clip-path="url(#p6c1587aab9)" style="fill: #0000f5; fill-opacity: 0.1"/>
    <path d="M 203.887202 47.128102 
L 183.404927 3.811333 
L 185.302183 -8.892717 
L 205.89228 34.691019 
z
" clip-path="url(#p6c1587aab9)" style="fill: #0000f5; fill-opacity: 0.1"/>
    <path d="M 246.786009 121.252125 
L 226.386666 78.072163 
L 228.521765 65.765883 
L 249.028009 109.211353 
z
" clip-path="url(#p6c1587aab9)" style="fill: #0000f5; fill-opacity: 0.1"/>
    <path d="M 289.754965 195.497357 
L 269.438854 152.454709 
L 271.812576 140.547523 
L 292.234662 183.854213 
z
" clip-path="url(#p6c1587aab9)" style="fill: #0000f5; fill-opacity: 0.1"/>
    <path d="M 183.404927 3.811333 
L 162.827299 -39.70709 
L 164.615705 -52.680468 
L 185.302183 -8.892717 
z
" clip-path="url(#p6c1587aab9)" style="fill: #0000f5; fill-opacity: 0.1"/>
    <path d="M 332.794243 269.864095 
L 312.561663 226.959269 
L 315.174789 215.452508 
L 335.512413 258.619902 
z
" clip-path="url(#p6c1587aab9)" style="fill: #0000f5; fill-opacity: 0.1"/>
    <path d="M 226.386666 78.072163 
L 205.89228 34.691019 
L 207.919454 22.116877 
L 228.521765 65.765883 
z
" clip-path="url(#p6c1587aab9)" style="fill: #0000f5; fill-opacity: 0.1"/>
    <path d="M 269.438854 152.454709 
L 249.028009 109.211353 
L 251.294736 97.03778 
L 271.812576 140.547523 
z
" clip-path="url(#p6c1587aab9)" style="fill: #0000f5; fill-opacity: 0.1"/>
    <path d="M 162.827299 -39.70709 
L 142.153653 -83.42858 
L 143.832166 -96.67367 
L 164.615705 -52.680468 
z
" clip-path="url(#p6c1587aab9)" style="fill: #0000f5; fill-opacity: 0.1"/>
    <path d="M 312.561663 226.959269 
L 292.234662 183.854213 
L 294.74173 172.082547 
L 315.174789 215.452508 
z
" clip-path="url(#p6c1587aab9)" style="fill: #0000f5; fill-opacity: 0.1"/>
    <path d="M 205.89228 34.691019 
L 185.302183 -8.892717 
L 187.220397 -21.737098 
L 207.919454 22.116877 
z
" clip-path="url(#p6c1587aab9)" style="fill: #0000f5; fill-opacity: 0.1"/>
    <path d="M 249.028009 109.211353 
L 228.521765 65.765883 
L 230.680469 53.323553 
L 251.294736 97.03778 
z
" clip-path="url(#p6c1587aab9)" style="fill: #0000f5; fill-opacity: 0.1"/>
    <path d="M 292.234662 183.854213 
L 271.812576 140.547523 
L 274.212561 128.508591 
L 294.74173 172.082547 
z
" clip-path="url(#p6c1587aab9)" style="fill: #0000f5; fill-opacity: 0.1"/>
    <path d="M 185.302183 -8.892717 
L 164.615705 -52.680468 
L 166.423911 -65.797488 
L 187.220397 -21.737098 
z
" clip-path="url(#p6c1587aab9)" style="fill: #0000f5; fill-opacity: 0.1"/>
    <path d="M 335.512413 258.619902 
L 315.174789 215.452508 
L 317.816853 203.818326 
L 338.260613 247.251487 
z
" clip-path="url(#p6c1587aab9)" style="fill: #0000f5; fill-opacity: 0.1"/>
    <path d="M 228.521765 65.765883 
L 207.919454 22.116877 
L 209.969091 9.403397 
L 230.680469 53.323553 
z
" clip-path="url(#p6c1587aab9)" style="fill: #0000f5; fill-opacity: 0.1"/>
    <path d="M 271.812576 140.547523 
L 251.294736 97.03778 
L 253.586603 84.729196 
L 274.212561 128.508591 
z
" clip-path="url(#p6c1587aab9)" style="fill: #0000f5; fill-opacity: 0.1"/>
    <path d="M 164.615705 -52.680468 
L 143.832166 -96.67367 
L 145.529308 -110.065756 
L 166.423911 -65.797488 
z
" clip-path="url(#p6c1587aab9)" style="fill: #0000f5; fill-opacity: 0.1"/>
    <path d="M 315.174789 215.452508 
L 294.74173 172.082547 
L 297.276626 160.180219 
L 317.816853 203.818326 
z
" clip-path="url(#p6c1587aab9)" style="fill: #0000f5; fill-opacity: 0.1"/>
    <path d="M 207.919454 22.116877 
L 187.220397 -21.737098 
L 189.159917 -34.724147 
L 209.969091 9.403397 
z
" clip-path="url(#p6c1587aab9)" style="fill: #0000f5; fill-opacity: 0.1"/>
    <path d="M 251.294736 97.03778 
L 230.680469 53.323553 
L 232.863169 40.742906 
L 253.586603 84.729196 
z
" clip-path="url(#p6c1587aab9)" style="fill: #0000f5; fill-opacity: 0.1"/>
    <path d="M 294.74173 172.082547 
L 274.212561 128.508591 
L 276.639248 116.335714 
L 297.276626 160.180219 
z
" clip-path="url(#p6c1587aab9)" style="fill: #0000f5; fill-opacity: 0.1"/>
    <path d="M 187.220397 -21.737098 
L 166.423911 -65.797488 
L 168.25225 -79.06055 
L 189.159917 -34.724147 
z
" clip-path="url(#p6c1587aab9)" style="fill: #0000f5; fill-opacity: 0.1"/>
    <path d="M 338.260613 247.251487 
L 317.816853 203.818326 
L 320.488336 192.054594 
L 341.039342 235.756781 
z
" clip-path="url(#p6c1587aab9)" style="fill: #0000f5; fill-opacity: 0.1"/>
    <path d="M 230.680469 53.323553 
L 209.969091 9.403397 
L 212.041568 -3.45175 
L 232.863169 40.742906 
z
" clip-path="url(#p6c1587aab9)" style="fill: #0000f5; fill-opacity: 0.1"/>
    <path d="M 274.212561 128.508591 
L 253.586603 84.729196 
L 255.904029 72.283342 
L 276.639248 116.335714 
z
" clip-path="url(#p6c1587aab9)" style="fill: #0000f5; fill-opacity: 0.1"/>
    <path d="M 166.423911 -65.797488 
L 145.529308 -110.065756 
L 147.245391 -123.6073 
L 168.25225 -79.06055 
z
" clip-path="url(#p6c1587aab9)" style="fill: #0000f5; fill-opacity: 0.1"/>
    <path d="M 317.816853 203.818326 
L 297.276626 160.180219 
L 299.839816 148.145042 
L 320.488336 192.054594 
z
" clip-path="url(#p6c1587aab9)" style="fill: #0000f5; fill-opacity: 0.1"/>
    <path d="M 209.969091 9.403397 
L 189.159917 -34.724147 
L 191.1211 -47.856254 
L 212.041568 -3.45175 
z
" clip-path="url(#p6c1587aab9)" style="fill: #0000f5; fill-opacity: 0.1"/>
    <path d="M 253.586603 84.729196 
L 232.863169 40.742906 
L 235.07027 28.021621 
L 255.904029 72.283342 
z
" clip-path="url(#p6c1587aab9)" style="fill: #0000f5; fill-opacity: 0.1"/>
    <path d="M 297.276626 160.180219 
L 276.639248 116.335714 
L 279.093086 104.026645 
L 299.839816 148.145042 
z
" clip-path="url(#p6c1587aab9)" style="fill: #0000f5; fill-opacity: 0.1"/>
    <path d="M 189.159917 -34.724147 
L 168.25225 -79.06055 
L 170.101059 -92.472106 
L 191.1211 -47.856254 
z
" clip-path="url(#p6c1587aab9)" style="fill: #0000f5; fill-opacity: 0.1"/>
    <path d="M 341.039342 235.756781 
L 320.488336 192.054594 
L 323.189733 180.159137 
L 343.849112 224.133667 
z
" clip-path="url(#p6c1587aab9)" style="fill: #0000f5; fill-opacity: 0.1"/>
    <path d="M 232.863169 40.742906 
L 212.041568 -3.45175 
L 214.137268 -16.450944 
L 235.07027 28.021621 
z
" clip-path="url(#p6c1587aab9)" style="fill: #0000f5; fill-opacity: 0.1"/>
    <path d="M 276.639248 116.335714 
L 255.904029 72.283342 
L 258.247445 59.69791 
L 279.093086 104.026645 
z
" clip-path="url(#p6c1587aab9)" style="fill: #0000f5; fill-opacity: 0.1"/>
    <path d="M 168.25225 -79.06055 
L 147.245391 -123.6073 
L 148.980732 -137.300817 
L 170.101059 -92.472106 
z
" clip-path="url(#p6c1587aab9)" style="fill: #0000f5; fill-opacity: 0.1"/>
    <path d="M 320.488336 192.054594 
L 299.839816 148.145042 
L 302.431775 135.974778 
L 323.189733 180.159137 
z
" clip-path="url(#p6c1587aab9)" style="fill: #0000f5; fill-opacity: 0.1"/>
    <path d="M 212.041568 -3.45175 
L 191.1211 -47.856254 
L 193.104312 -61.135864 
L 214.137268 -16.450944 
z
" clip-path="url(#p6c1587aab9)" style="fill: #0000f5; fill-opacity: 0.1"/>
    <path d="M 255.904029 72.283342 
L 235.07027 28.021621 
L 237.302183 15.157329 
L 258.247445 59.69791 
z
" clip-path="url(#p6c1587aab9)" style="fill: #0000f5; fill-opacity: 0.1"/>
    <path d="M 299.839816 148.145042 
L 279.093086 104.026645 
L 281.574532 91.579085 
L 302.431775 135.974778 
z
" clip-path="url(#p6c1587aab9)" style="fill: #0000f5; fill-opacity: 0.1"/>
    <path d="M 191.1211 -47.856254 
L 170.101059 -92.472106 
L 171.970684 -106.034663 
L 193.104312 -61.135864 
z
" clip-path="url(#p6c1587aab9)" style="fill: #0000f5; fill-opacity: 0.1"/>
    <path d="M 343.849112 224.133667 
L 323.189733 180.159137 
L 325.921549 168.12973 
L 346.690447 212.379983 
z
" clip-path="url(#p6c1587aab9)" style="fill: #0000f5; fill-opacity: 0.1"/>
    <path d="M 235.07027 28.021621 
L 214.137268 -16.450944 
L 216.256584 -29.596621 
L 237.302183 15.157329 
z
" clip-path="url(#p6c1587aab9)" style="fill: #0000f5; fill-opacity: 0.1"/>
    <path d="M 279.093086 104.026645 
L 258.247445 59.69791 
L 260.61729 46.970538 
L 281.574532 91.579085 
z
" clip-path="url(#p6c1587aab9)" style="fill: #0000f5; fill-opacity: 0.1"/>
    <path d="M 170.101059 -92.472106 
L 148.980732 -137.300817 
L 150.735659 -151.148881 
L 171.970684 -106.034663 
z
" clip-path="url(#p6c1587aab9)" style="fill: #0000f5; fill-opacity: 0.1"/>
    <path d="M 323.189733 180.159137 
L 302.431775 135.974778 
L 305.052992 123.66714 
L 325.921549 168.12973 
z
" clip-path="url(#p6c1587aab9)" style="fill: #0000f5; fill-opacity: 0.1"/>
    <path d="M 214.137268 -16.450944 
L 193.104312 -61.135864 
L 195.109925 -74.565476 
L 216.256584 -29.596621 
z
" clip-path="url(#p6c1587aab9)" style="fill: #0000f5; fill-opacity: 0.1"/>
    <path d="M 258.247445 59.69791 
L 237.302183 15.157329 
L 239.559327 2.147602 
L 260.61729 46.970538 
z
" clip-path="url(#p6c1587aab9)" style="fill: #0000f5; fill-opacity: 0.1"/>
    <path d="M 302.431775 135.974778 
L 281.574532 91.579085 
L 284.084056 78.990683 
L 305.052992 123.66714 
z
" clip-path="url(#p6c1587aab9)" style="fill: #0000f5; fill-opacity: 0.1"/>
    <path d="M 193.104312 -61.135864 
L 171.970684 -106.034663 
L 173.861478 -119.750787 
L 195.109925 -74.565476 
z
" clip-path="url(#p6c1587aab9)" style="fill: #0000f5; fill-opacity: 0.1"/>
    <path d="M 346.690447 212.379983 
L 325.921549 168.12973 
L 328.684302 155.964097 
L 349.56388 200.493515 
z
" clip-path="url(#p6c1587aab9)" style="fill: #0000f5; fill-opacity: 0.1"/>
    <path d="M 237.302183 15.157329 
L 216.256584 -29.596621 
L 218.399916 -42.89127 
L 239.559327 2.147602 
z
" clip-path="url(#p6c1587aab9)" style="fill: #0000f5; fill-opacity: 0.1"/>
    <path d="M 281.574532 91.579085 
L 260.61729 46.970538 
L 263.014014 34.098811 
L 284.084056 78.990683 
z
" clip-path="url(#p6c1587aab9)" style="fill: #0000f5; fill-opacity: 0.1"/>
    <path d="M 171.970684 -106.034663 
L 150.735659 -151.148881 
L 152.510505 -165.154122 
L 173.861478 -119.750787 
z
" clip-path="url(#p6c1587aab9)" style="fill: #0000f5; fill-opacity: 0.1"/>
    <path d="M 325.921549 168.12973 
L 305.052992 123.66714 
L 307.703964 111.21979 
L 328.684302 155.964097 
z
" clip-path="url(#p6c1587aab9)" style="fill: #0000f5; fill-opacity: 0.1"/>
    <path d="M 216.256584 -29.596621 
L 195.109925 -74.565476 
L 197.138322 -88.147645 
L 218.399916 -42.89127 
z
" clip-path="url(#p6c1587aab9)" style="fill: #0000f5; fill-opacity: 0.1"/>
    <path d="M 260.61729 46.970538 
L 239.559327 2.147602 
L 241.842134 -11.010037 
L 263.014014 34.098811 
z
" clip-path="url(#p6c1587aab9)" style="fill: #0000f5; fill-opacity: 0.1"/>
    <path d="M 305.052992 123.66714 
L 284.084056 78.990683 
L 286.622135 66.259036 
L 307.703964 111.21979 
z
" clip-path="url(#p6c1587aab9)" style="fill: #0000f5; fill-opacity: 0.1"/>
    <path d="M 195.109925 -74.565476 
L 173.861478 -119.750787 
L 175.773803 -133.623101 
L 197.138322 -88.147645 
z
" clip-path="url(#p6c1587aab9)" style="fill: #0000f5; fill-opacity: 0.1"/>
    <path d="M 349.56388 200.493515 
L 328.684302 155.964097 
L 331.478519 143.659911 
L 352.46996 188.472001 
z
" clip-path="url(#p6c1587aab9)" style="fill: #0000f5; fill-opacity: 0.1"/>
    <path d="M 239.559327 2.147602 
L 218.399916 -42.89127 
L 220.567676 -56.337439 
L 241.842134 -11.010037 
z
" clip-path="url(#p6c1587aab9)" style="fill: #0000f5; fill-opacity: 0.1"/>
    <path d="M 284.084056 78.990683 
L 263.014014 34.098811 
L 265.438077 21.08026 
L 286.622135 66.259036 
z
" clip-path="url(#p6c1587aab9)" style="fill: #0000f5; fill-opacity: 0.1"/>
    <path d="M 173.861478 -119.750787 
L 152.510505 -165.154122 
L 154.30561 -179.319233 
L 175.773803 -133.623101 
z
" clip-path="url(#p6c1587aab9)" style="fill: #0000f5; fill-opacity: 0.1"/>
    <path d="M 328.684302 155.964097 
L 307.703964 111.21979 
L 310.385201 98.630335 
L 331.478519 143.659911 
z
" clip-path="url(#p6c1587aab9)" style="fill: #0000f5; fill-opacity: 0.1"/>
    <path d="M 218.399916 -42.89127 
L 197.138322 -88.147645 
L 199.189893 -101.884987 
L 220.567676 -56.337439 
z
" clip-path="url(#p6c1587aab9)" style="fill: #0000f5; fill-opacity: 0.1"/>
    <path d="M 263.014014 34.098811 
L 241.842134 -11.010037 
L 244.151044 -24.318128 
L 265.438077 21.08026 
z
" clip-path="url(#p6c1587aab9)" style="fill: #0000f5; fill-opacity: 0.1"/>
    <path d="M 307.703964 111.21979 
L 286.622135 66.259036 
L 289.189261 53.381684 
L 310.385201 98.630335 
z
" clip-path="url(#p6c1587aab9)" style="fill: #0000f5; fill-opacity: 0.1"/>
    <path d="M 197.138322 -88.147645 
L 175.773803 -133.623101 
L 177.708029 -147.654288 
L 199.189893 -101.884987 
z
" clip-path="url(#p6c1587aab9)" style="fill: #0000f5; fill-opacity: 0.1"/>
    <path d="M 352.46996 188.472001 
L 331.478519 143.659911 
L 334.304742 131.214792 
L 355.409245 176.313126 
z
" clip-path="url(#p6c1587aab9)" style="fill: #0000f5; fill-opacity: 0.1"/>
    <path d="M 241.842134 -11.010037 
L 220.567676 -56.337439 
L 222.760284 -69.937733 
L 244.151044 -24.318128 
z
" clip-path="url(#p6c1587aab9)" style="fill: #0000f5; fill-opacity: 0.1"/>
    <path d="M 286.622135 66.259036 
L 265.438077 21.08026 
L 267.889949 7.912357 
L 289.189261 53.381684 
z
" clip-path="url(#p6c1587aab9)" style="fill: #0000f5; fill-opacity: 0.1"/>
    <path d="M 175.773803 -133.623101 
L 154.30561 -179.319233 
L 156.121324 -193.646965 
L 177.708029 -147.654288 
z
" clip-path="url(#p6c1587aab9)" style="fill: #0000f5; fill-opacity: 0.1"/>
    <path d="M 331.478519 143.659911 
L 310.385201 98.630335 
L 313.097224 85.896326 
L 334.304742 131.214792 
z
" clip-path="url(#p6c1587aab9)" style="fill: #0000f5; fill-opacity: 0.1"/>
    <path d="M 220.567676 -56.337439 
L 199.189893 -101.884987 
L 201.265037 -115.780175 
L 222.760284 -69.937733 
z
" clip-path="url(#p6c1587aab9)" style="fill: #0000f5; fill-opacity: 0.1"/>
    <path d="M 265.438077 21.08026 
L 244.151044 -24.318128 
L 246.486507 -37.779265 
L 267.889949 7.912357 
z
" clip-path="url(#p6c1587aab9)" style="fill: #0000f5; fill-opacity: 0.1"/>
    <path d="M 310.385201 98.630335 
L 289.189261 53.381684 
L 291.785935 40.356112 
L 313.097224 85.896326 
z
" clip-path="url(#p6c1587aab9)" style="fill: #0000f5; fill-opacity: 0.1"/>
    <path d="M 199.189893 -101.884987 
L 177.708029 -147.654288 
L 179.664535 -161.847092 
L 201.265037 -115.780175 
z
" clip-path="url(#p6c1587aab9)" style="fill: #0000f5; fill-opacity: 0.1"/>
    <path d="M 355.409245 176.313126 
L 334.304742 131.214792 
L 337.163523 118.626305 
L 358.382309 164.014521 
z
" clip-path="url(#p6c1587aab9)" style="fill: #0000f5; fill-opacity: 0.1"/>
    <path d="M 244.151044 -24.318128 
L 222.760284 -69.937733 
L 224.978169 -83.694816 
L 246.486507 -37.779265 
z
" clip-path="url(#p6c1587aab9)" style="fill: #0000f5; fill-opacity: 0.1"/>
    <path d="M 289.189261 53.381684 
L 267.889949 7.912357 
L 270.370112 -5.407482 
L 291.785935 40.356112 
z
" clip-path="url(#p6c1587aab9)" style="fill: #0000f5; fill-opacity: 0.1"/>
    <path d="M 177.708029 -147.654288 
L 156.121324 -193.646965 
L 157.958003 -208.140136 
L 179.664535 -161.847092 
z
" clip-path="url(#p6c1587aab9)" style="fill: #0000f5; fill-opacity: 0.1"/>
    <path d="M 334.304742 131.214792 
L 313.097224 85.896326 
L 315.840566 73.015262 
L 337.163523 118.626305 
z
" clip-path="url(#p6c1587aab9)" style="fill: #0000f5; fill-opacity: 0.1"/>
    <path d="M 222.760284 -69.937733 
L 201.265037 -115.780175 
L 203.364163 -129.835946 
L 224.978169 -83.694816 
z
" clip-path="url(#p6c1587aab9)" style="fill: #0000f5; fill-opacity: 0.1"/>
    <path d="M 267.889949 7.912357 
L 246.486507 -37.779265 
L 248.848983 -51.396103 
L 270.370112 -5.407482 
z
" clip-path="url(#p6c1587aab9)" style="fill: #0000f5; fill-opacity: 0.1"/>
    <path d="M 313.097224 85.896326 
L 291.785935 40.356112 
L 294.41267 27.179747 
L 315.840566 73.015262 
z
" clip-path="url(#p6c1587aab9)" style="fill: #0000f5; fill-opacity: 0.1"/>
    <path d="M 201.265037 -115.780175 
L 179.664535 -161.847092 
L 181.643707 -176.204322 
L 203.364163 -129.835946 
z
" clip-path="url(#p6c1587aab9)" style="fill: #0000f5; fill-opacity: 0.1"/>
    <path d="M 358.382309 164.014521 
L 337.163523 118.626305 
L 340.055428 105.891957 
L 361.389736 151.573765 
z
" clip-path="url(#p6c1587aab9)" style="fill: #0000f5; fill-opacity: 0.1"/>
    <path d="M 246.486507 -37.779265 
L 224.978169 -83.694816 
L 227.221771 -97.611416 
L 248.848983 -51.396103 
z
" clip-path="url(#p6c1587aab9)" style="fill: #0000f5; fill-opacity: 0.1"/>
    <path d="M 291.785935 40.356112 
L 270.370112 -5.407482 
L 272.879058 -18.881901 
L 294.41267 27.179747 
z
" clip-path="url(#p6c1587aab9)" style="fill: #0000f5; fill-opacity: 0.1"/>
    <path d="M 179.664535 -161.847092 
L 157.958003 -208.140136 
L 159.816013 -222.801627 
L 181.643707 -176.204322 
z
" clip-path="url(#p6c1587aab9)" style="fill: #0000f5; fill-opacity: 0.1"/>
    <path d="M 337.163523 118.626305 
L 315.840566 73.015262 
L 318.615774 59.984578 
L 340.055428 105.891957 
z
" clip-path="url(#p6c1587aab9)" style="fill: #0000f5; fill-opacity: 0.1"/>
    <path d="M 224.978169 -83.694816 
L 203.364163 -129.835946 
L 205.487688 -144.0551 
L 227.221771 -97.611416 
z
" clip-path="url(#p6c1587aab9)" style="fill: #0000f5; fill-opacity: 0.1"/>
    <path d="M 270.370112 -5.407482 
L 248.848983 -51.396103 
L 251.238945 -65.17136 
L 272.879058 -18.881901 
z
" clip-path="url(#p6c1587aab9)" style="fill: #0000f5; fill-opacity: 0.1"/>
    <path d="M 315.840566 73.015262 
L 294.41267 27.179747 
L 297.069991 13.849953 
L 318.615774 59.984578 
z
" clip-path="url(#p6c1587aab9)" style="fill: #0000f5; fill-opacity: 0.1"/>
    <path d="M 203.364163 -129.835946 
L 181.643707 -176.204322 
L 183.645942 -190.728853 
L 205.487688 -144.0551 
z
" clip-path="url(#p6c1587aab9)" style="fill: #0000f5; fill-opacity: 0.1"/>
    <path d="M 361.389736 151.573765 
L 340.055428 105.891957 
L 342.981036 93.009198 
L 364.432126 138.988379 
z
" clip-path="url(#p6c1587aab9)" style="fill: #0000f5; fill-opacity: 0.1"/>
    <path d="M 248.848983 -51.396103 
L 227.221771 -97.611416 
L 229.49154 -111.690323 
L 251.238945 -65.17136 
z
" clip-path="url(#p6c1587aab9)" style="fill: #0000f5; fill-opacity: 0.1"/>
    <path d="M 294.41267 27.179747 
L 272.879058 -18.881901 
L 275.417291 -32.513609 
L 297.069991 13.849953 
z
" clip-path="url(#p6c1587aab9)" style="fill: #0000f5; fill-opacity: 0.1"/>
    <path d="M 181.643707 -176.204322 
L 159.816013 -222.801627 
L 161.695728 -237.634388 
L 183.645942 -190.728853 
z
" clip-path="url(#p6c1587aab9)" style="fill: #0000f5; fill-opacity: 0.1"/>
    <path d="M 340.055428 105.891957 
L 318.615774 59.984578 
L 321.423405 46.801653 
L 342.981036 93.009198 
z
" clip-path="url(#p6c1587aab9)" style="fill: #0000f5; fill-opacity: 0.1"/>
    <path d="M 227.221771 -97.611416 
L 205.487688 -144.0551 
L 207.636042 -158.440502 
L 229.49154 -111.690323 
z
" clip-path="url(#p6c1587aab9)" style="fill: #0000f5; fill-opacity: 0.1"/>
    <path d="M 272.879058 -18.881901 
L 251.238945 -65.17136 
L 253.656874 -79.107816 
L 275.417291 -32.513609 
z
" clip-path="url(#p6c1587aab9)" style="fill: #0000f5; fill-opacity: 0.1"/>
    <path d="M 318.615774 59.984578 
L 297.069991 13.849953 
L 299.758436 0.364036 
L 321.423405 46.801653 
z
" clip-path="url(#p6c1587aab9)" style="fill: #0000f5; fill-opacity: 0.1"/>
    <path d="M 205.487688 -144.0551 
L 183.645942 -190.728853 
L 185.671644 -205.423625 
L 207.636042 -158.440502 
z
" clip-path="url(#p6c1587aab9)" style="fill: #0000f5; fill-opacity: 0.1"/>
    <path d="M 251.238945 -65.17136 
L 229.49154 -111.690323 
L 231.787936 -125.934394 
L 253.656874 -79.107816 
z
" clip-path="url(#p6c1587aab9)" style="fill: #0000f5; fill-opacity: 0.1"/>
    <path d="M 297.069991 13.849953 
L 275.417291 -32.513609 
L 277.985326 -46.305374 
L 299.758436 0.364036 
z
" clip-path="url(#p6c1587aab9)" style="fill: #0000f5; fill-opacity: 0.1"/>
    <path d="M 183.645942 -190.728853 
L 161.695728 -237.634388 
L 163.59753 -252.641438 
L 185.671644 -205.423625 
z
" clip-path="url(#p6c1587aab9)" style="fill: #0000f5; fill-opacity: 0.1"/>
    <path d="M 229.49154 -111.690323 
L 207.636042 -158.440502 
L 209.809662 -172.995085 
L 231.787936 -125.934394 
z
" clip-path="url(#p6c1587aab9)" style="fill: #0000f5; fill-opacity: 0.1"/>
    <path d="M 275.417291 -32.513609 
L 253.656874 -79.107816 
L 256.103265 -93.208318 
L 277.985326 -46.305374 
z
" clip-path="url(#p6c1587aab9)" style="fill: #0000f5; fill-opacity: 0.1"/>
    <path d="M 207.636042 -158.440502 
L 185.671644 -205.423625 
L 187.72123 -220.29165 
L 209.809662 -172.995085 
z
" clip-path="url(#p6c1587aab9)" style="fill: #0000f5; fill-opacity: 0.1"/>
    <path d="M 253.656874 -79.107816 
L 231.787936 -125.934394 
L 234.11143 -140.346552 
L 256.103265 -93.208318 
z
" clip-path="url(#p6c1587aab9)" style="fill: #0000f5; fill-opacity: 0.1"/>
    <path d="M 185.671644 -205.423625 
L 163.59753 -252.641438 
L 165.521811 -267.825867 
L 187.72123 -220.29165 
z
" clip-path="url(#p6c1587aab9)" style="fill: #0000f5; fill-opacity: 0.1"/>
    <path d="M 231.787936 -125.934394 
L 209.809662 -172.995085 
L 212.008996 -187.721851 
L 234.11143 -140.346552 
z
" clip-path="url(#p6c1587aab9)" style="fill: #0000f5; fill-opacity: 0.1"/>
    <path d="M 209.809662 -172.995085 
L 187.72123 -220.29165 
L 189.795124 -235.33601 
L 212.008996 -187.721851 
z
" clip-path="url(#p6c1587aab9)" style="fill: #0000f5; fill-opacity: 0.1"/>
    <path d="M 187.72123 -220.29165 
L 165.521811 -267.825867 
L 167.468971 -283.190837 
L 189.795124 -235.33601 
z
" clip-path="url(#p6c1587aab9)" style="fill: #0000f5; fill-opacity: 0.1"/>
   </g>
   <g id="legend_1">
    <g id="patch_6">
     <path d="M 357.840076 67.305115 
L 396.2 67.305115 
Q 398.2 67.305115 398.2 65.305115 
L 398.2 7 
Q 398.2 5 396.2 5 
L 357.840076 5 
Q 355.840076 5 355.840076 7 
L 355.840076 65.305115 
Q 355.840076 67.305115 357.840076 67.305115 
z
" style="fill: #ffffff; opacity: 0.8; stroke: #cccccc; stroke-linejoin: miter"/>
    </g>
    <g id="line2d_25">
     <path d="M 359.840076 12.5 
L 369.840076 12.5 
L 379.840076 12.5 
" style="fill: none; stroke: #ff0000; stroke-width: 1.5; stroke-linecap: square"/>
    </g>
    <g id="text_21">
     <!-- $\vec{a}$ -->
     <g transform="translate(387.840076 16)scale(0.1 -0.1)">
      <defs>
       <path id="CMMI12-7e" d="M 3424 3835 
C 3347 3764 3110 3540 3110 3451 
C 3110 3387 3168 3329 3232 3329 
C 3290 3329 3315 3368 3360 3432 
C 3514 3624 3686 3745 3834 3828 
C 3898 3867 3942 3886 3942 3956 
C 3942 4014 3891 4046 3853 4078 
C 3674 4200 3629 4372 3610 4449 
C 3590 4500 3571 4577 3482 4577 
C 3443 4577 3366 4552 3366 4456 
C 3366 4398 3405 4244 3526 4072 
L 1376 4072 
C 1267 4072 1158 4072 1158 3950 
C 1158 3835 1274 3835 1376 3835 
L 3424 3835 
z
" transform="scale(0.015625)"/>
       <path id="CMMI12-61" d="M 1926 760 
C 1894 651 1894 639 1805 517 
C 1664 338 1382 64 1082 64 
C 819 64 672 300 672 677 
C 672 1028 870 1743 992 2012 
C 1210 2459 1510 2689 1760 2689 
C 2182 2689 2266 2165 2266 2114 
C 2266 2108 2246 2024 2240 2012 
L 1926 760 
z
M 2336 2395 
C 2266 2561 2093 2816 1760 2816 
C 1037 2816 256 1884 256 939 
C 256 307 627 -64 1062 -64 
C 1414 -64 1715 211 1894 422 
C 1958 45 2259 -64 2451 -64 
C 2643 -64 2797 51 2912 281 
C 3014 498 3104 888 3104 913 
C 3104 945 3078 971 3040 971 
C 2982 971 2976 939 2950 843 
C 2854 466 2733 64 2470 64 
C 2285 64 2272 230 2272 358 
C 2272 505 2291 575 2349 824 
C 2394 984 2426 1124 2477 1309 
C 2714 2267 2771 2497 2771 2535 
C 2771 2625 2701 2695 2605 2695 
C 2400 2695 2349 2472 2336 2395 
z
" transform="scale(0.015625)"/>
      </defs>
      <use xlink:href="#CMMI12-7e" transform="scale(0.996264)"/>
      <use xlink:href="#CMMI12-61" transform="translate(6.445738 0)scale(0.996264)"/>
     </g>
    </g>
    <g id="line2d_26">
     <path d="M 359.840076 27.24679 
L 369.840076 27.24679 
L 379.840076 27.24679 
" style="fill: none; stroke: #00ff00; stroke-width: 1.5; stroke-linecap: square"/>
    </g>
    <g id="text_22">
     <!-- $\vec{b}$ -->
     <g transform="translate(387.840076 30.74679)scale(0.1 -0.1)">
      <defs>
       <path id="CMMI12-62" d="M 1478 4257 
C 1485 4283 1498 4321 1498 4352 
C 1498 4416 1434 4416 1421 4416 
C 1414 4416 1184 4393 1069 4377 
C 960 4377 864 4358 749 4358 
C 595 4345 550 4339 550 4224 
C 550 4160 614 4160 678 4160 
C 1005 4160 1005 4103 1005 4040 
C 1005 3996 954 3811 928 3696 
L 774 3085 
C 710 2831 346 1387 320 1272 
C 288 1114 288 1005 288 922 
C 288 274 653 -64 1069 -64 
C 1811 -64 2579 888 2579 1814 
C 2579 2401 2246 2816 1766 2816 
C 1434 2816 1133 2542 1011 2414 
L 1478 4257 
z
M 1075 64 
C 870 64 646 217 646 715 
C 646 926 666 1047 781 1494 
C 800 1577 902 1986 928 2069 
C 941 2120 1318 2689 1754 2689 
C 2035 2689 2163 2408 2163 2076 
C 2163 1769 1984 1047 1824 715 
C 1664 370 1370 64 1075 64 
z
" transform="scale(0.015625)"/>
      </defs>
      <use xlink:href="#CMMI12-7e" transform="translate(0 26.29016)scale(0.996264)"/>
      <use xlink:href="#CMMI12-62" transform="translate(11.311737 0)scale(0.996264)"/>
     </g>
    </g>
    <g id="line2d_27">
     <path d="M 359.840076 41.183968 
L 369.840076 41.183968 
L 379.840076 41.183968 
" style="fill: none; stroke: #0016ff; stroke-width: 1.5; stroke-linecap: square"/>
    </g>
    <g id="text_23">
     <!-- $\vec{c}$ -->
     <g transform="translate(387.840076 44.683968)scale(0.1 -0.1)">
      <defs>
       <path id="CMMI12-63" d="M 2502 2431 
C 2381 2431 2323 2431 2234 2355 
C 2195 2323 2125 2227 2125 2125 
C 2125 1997 2221 1920 2342 1920 
C 2496 1920 2669 2044 2669 2292 
C 2669 2588 2374 2816 1933 2816 
C 1094 2816 256 1903 256 996 
C 256 441 602 -64 1254 -64 
C 2125 -64 2675 622 2675 706 
C 2675 744 2637 776 2611 776 
C 2592 776 2586 770 2528 713 
C 2118 162 1510 64 1267 64 
C 826 64 685 446 685 764 
C 685 988 794 1605 1024 2039 
C 1190 2338 1536 2682 1939 2682 
C 2022 2682 2374 2682 2502 2431 
z
" transform="scale(0.015625)"/>
      </defs>
      <use xlink:href="#CMMI12-7e" transform="scale(0.996264)"/>
      <use xlink:href="#CMMI12-63" transform="translate(5.638615 0)scale(0.996264)"/>
     </g>
    </g>
    <g id="line2d_28">
     <path d="M 359.840076 57.867937 
L 369.840076 57.867937 
L 379.840076 57.867937 
" style="fill: none; stroke: #f400ff; stroke-width: 1.5; stroke-linecap: square"/>
    </g>
    <g id="text_24">
     <!-- $\vec{f}$ -->
     <g transform="translate(387.840076 61.367937)scale(0.1 -0.1)">
      <defs>
       <path id="CMMI12-66" d="M 2854 2566 
C 2982 2566 3034 2566 3034 2688 
C 3034 2752 2982 2752 2867 2752 
L 2349 2752 
C 2470 3429 2560 3897 2611 4107 
C 2650 4265 2784 4416 2950 4416 
C 3085 4416 3219 4358 3283 4298 
C 3034 4272 2957 4082 2957 3969 
C 2957 3837 3053 3759 3174 3759 
C 3302 3759 3494 3870 3494 4119 
C 3494 4393 3226 4544 2944 4544 
C 2669 4544 2400 4334 2272 4078 
C 2157 3848 2093 3611 1946 2752 
L 1517 2752 
C 1395 2752 1331 2752 1331 2637 
C 1331 2566 1370 2566 1498 2566 
L 1907 2566 
C 1792 1976 1530 542 1382 -137 
C 1274 -689 1178 -1152 858 -1152 
C 838 -1152 653 -1152 538 -1031 
C 864 -1005 864 -726 864 -720 
C 864 -593 768 -517 646 -517 
C 518 -517 326 -625 326 -867 
C 326 -1140 608 -1280 858 -1280 
C 1510 -1280 1779 -118 1850 199 
C 1965 688 2278 2376 2310 2566 
L 2854 2566 
z
" transform="scale(0.015625)"/>
      </defs>
      <use xlink:href="#CMMI12-7e" transform="translate(13.568792 26.29016)scale(0.996264)"/>
      <use xlink:href="#CMMI12-66" transform="scale(0.996264)"/>
     </g>
    </g>
   </g>
  </g>
 </g>
 <defs>
  <clipPath id="p6c1587aab9">
   <rect x="57.6" y="0" width="345.6" height="345.6"/>
  </clipPath>
 </defs>
</svg>
