<?xml version="1.0" encoding="utf-8" standalone="no"?>
<!DOCTYPE svg PUBLIC "-//W3C//DTD SVG 1.1//EN"
  "http://www.w3.org/Graphics/SVG/1.1/DTD/svg11.dtd">
<svg xmlns:xlink="http://www.w3.org/1999/xlink" width="460.8pt" height="345.6pt" viewBox="0 0 460.8 345.6" xmlns="http://www.w3.org/2000/svg" version="1.1">
 <metadata>
  <rdf:RDF xmlns:dc="http://purl.org/dc/elements/1.1/" xmlns:cc="http://creativecommons.org/ns#" xmlns:rdf="http://www.w3.org/1999/02/22-rdf-syntax-ns#">
   <cc:Work>
    <dc:type rdf:resource="http://purl.org/dc/dcmitype/StillImage"/>
    <dc:date>2022-07-12T15:50:55.594606</dc:date>
    <dc:format>image/svg+xml</dc:format>
    <dc:creator>
     <cc:Agent>
      <dc:title>Matplotlib v3.5.1, https://matplotlib.org/</dc:title>
     </cc:Agent>
    </dc:creator>
   </cc:Work>
  </rdf:RDF>
 </metadata>
 <defs>
  <style type="text/css">*{stroke-linejoin: round; stroke-linecap: butt}</style>
 </defs>
 <g id="figure_1">
  <g id="patch_1">
   <path d="M 0 345.6 
L 460.8 345.6 
L 460.8 0 
L 0 0 
z
" style="fill: #ffffff"/>
  </g>
  <g id="patch_2">
   <path d="M 57.6 345.6 
L 403.2 345.6 
L 403.2 0 
L 57.6 0 
z
" style="fill: #ffffff"/>
  </g>
  <g id="pane3d_1">
   <g id="patch_3">
    <path d="M 319.45023 246.147633 
L 370.422232 255.758416 
L 370.422232 80.501043 
L 319.45023 90.111826 
" style="fill: #f2f2f2; opacity: 0.5; stroke: #f2f2f2; stroke-linejoin: miter"/>
   </g>
  </g>
  <g id="pane3d_2">
   <g id="patch_4">
    <path d="M 319.45023 246.147633 
L 112.186771 247.686165 
L 112.186771 88.573294 
L 319.45023 90.111826 
" style="fill: #e6e6e6; opacity: 0.5; stroke: #e6e6e6; stroke-linejoin: miter"/>
   </g>
  </g>
  <g id="pane3d_3">
   <g id="patch_5">
    <path d="M 319.45023 246.147633 
L 112.186771 247.686165 
L 138.191485 257.704076 
L 370.422232 255.758416 
" style="fill: #ececec; opacity: 0.5; stroke: #ececec; stroke-linejoin: miter"/>
   </g>
  </g>
  <g id="axis3d_1">
   <g id="line2d_1">
    <path d="M 370.422232 255.758416 
L 138.191485 257.704076 
" style="fill: none; stroke: #000000; stroke-width: 0.8; stroke-linecap: square"/>
   </g>
   <g id="text_1">
    <!-- x -->
    <g transform="translate(258.17085 287.306677)scale(0.16 -0.16)">
     <defs>
      <path id="CMSS17-78" d="M 1587 1414 
L 2656 2739 
L 2099 2739 
L 1363 1777 
L 602 2739 
L 32 2739 
L 1139 1414 
L 0 0 
L 563 0 
L 1363 1121 
L 2195 0 
L 2758 0 
L 1587 1414 
z
" transform="scale(0.015625)"/>
     </defs>
     <use xlink:href="#CMSS17-78" transform="scale(0.996264)"/>
    </g>
   </g>
   <g id="Line3DCollection_1">
    <path d="M 365.876529 255.796501 
L 315.383552 246.177821 
L 315.383552 90.081639 
" style="fill: none; stroke: #b0b0b0; stroke-width: 0.8"/>
    <path d="M 322.035897 256.163803 
L 276.182734 246.468811 
L 276.182734 89.790648 
" style="fill: none; stroke: #b0b0b0; stroke-width: 0.8"/>
    <path d="M 277.826356 256.534197 
L 236.688513 246.76198 
L 236.688513 89.49748 
" style="fill: none; stroke: #b0b0b0; stroke-width: 0.8"/>
    <path d="M 233.24323 256.90772 
L 196.897582 247.057351 
L 196.897582 89.202109 
" style="fill: none; stroke: #b0b0b0; stroke-width: 0.8"/>
    <path d="M 188.281763 257.284413 
L 156.806587 247.354949 
L 156.806587 88.90451 
" style="fill: none; stroke: #b0b0b0; stroke-width: 0.8"/>
    <path d="M 142.937119 257.664316 
L 116.412119 247.6548 
L 116.412119 88.604659 
" style="fill: none; stroke: #b0b0b0; stroke-width: 0.8"/>
   </g>
   <g id="xtick_1">
    <g id="line2d_2">
     <path d="M 365.42325 255.710153 
L 366.785774 255.969708 
" style="fill: none; stroke: #000000; stroke-width: 0.8; stroke-linecap: square"/>
    </g>
    <g id="text_2">
     <!-- $\mathdefault{0}$ -->
     <g transform="translate(367.038125 274.701504)scale(0.1 -0.1)">
      <defs>
       <path id="CMR17-30" d="M 2688 2025 
C 2688 2416 2682 3080 2413 3591 
C 2176 4039 1798 4198 1466 4198 
C 1158 4198 768 4058 525 3597 
C 269 3118 243 2524 243 2025 
C 243 1661 250 1106 448 619 
C 723 -39 1216 -128 1466 -128 
C 1760 -128 2208 -7 2470 600 
C 2662 1042 2688 1559 2688 2025 
z
M 1466 -26 
C 1056 -26 813 325 723 812 
C 653 1188 653 1738 653 2096 
C 653 2588 653 2997 736 3387 
C 858 3929 1216 4096 1466 4096 
C 1728 4096 2067 3923 2189 3400 
C 2272 3036 2278 2607 2278 2096 
C 2278 1680 2278 1169 2202 792 
C 2067 95 1690 -26 1466 -26 
z
" transform="scale(0.015625)"/>
      </defs>
      <use xlink:href="#CMR17-30" transform="scale(0.996264)"/>
     </g>
    </g>
   </g>
   <g id="xtick_2">
    <g id="line2d_3">
     <path d="M 321.624082 256.076731 
L 322.861978 256.338466 
" style="fill: none; stroke: #000000; stroke-width: 0.8; stroke-linecap: square"/>
    </g>
    <g id="text_3">
     <!-- $\mathdefault{1}$ -->
     <g transform="translate(322.86352 275.122354)scale(0.1 -0.1)">
      <defs>
       <path id="CMR17-31" d="M 1702 4058 
C 1702 4192 1696 4192 1606 4192 
C 1357 3916 979 3827 621 3827 
C 602 3827 570 3827 563 3808 
C 557 3795 557 3782 557 3648 
C 755 3648 1088 3686 1344 3839 
L 1344 461 
C 1344 236 1331 160 781 160 
L 589 160 
L 589 0 
C 896 0 1216 0 1523 0 
C 1830 0 2150 0 2458 0 
L 2458 160 
L 2266 160 
C 1715 160 1702 230 1702 458 
L 1702 4058 
z
" transform="scale(0.015625)"/>
      </defs>
      <use xlink:href="#CMR17-31" transform="scale(0.996264)"/>
     </g>
    </g>
   </g>
   <g id="xtick_3">
    <g id="line2d_4">
     <path d="M 277.456721 256.44639 
L 278.567836 256.710334 
" style="fill: none; stroke: #000000; stroke-width: 0.8; stroke-linecap: square"/>
    </g>
    <g id="text_4">
     <!-- $\mathdefault{2}$ -->
     <g transform="translate(278.314221 275.546775)scale(0.1 -0.1)">
      <defs>
       <path id="CMR17-32" d="M 2669 989 
L 2554 989 
C 2490 536 2438 459 2413 420 
C 2381 369 1920 369 1830 369 
L 602 369 
C 832 619 1280 1072 1824 1597 
C 2214 1967 2669 2402 2669 3035 
C 2669 3790 2067 4224 1395 4224 
C 691 4224 262 3604 262 3030 
C 262 2780 448 2748 525 2748 
C 589 2748 781 2787 781 3010 
C 781 3207 614 3264 525 3264 
C 486 3264 448 3258 422 3245 
C 544 3790 915 4058 1306 4058 
C 1862 4058 2227 3617 2227 3035 
C 2227 2479 1901 2000 1536 1584 
L 262 146 
L 262 0 
L 2515 0 
L 2669 989 
z
" transform="scale(0.015625)"/>
      </defs>
      <use xlink:href="#CMR17-32" transform="scale(0.996264)"/>
     </g>
    </g>
   </g>
   <g id="xtick_4">
    <g id="line2d_5">
     <path d="M 232.916503 256.819171 
L 233.898645 257.08535 
" style="fill: none; stroke: #000000; stroke-width: 0.8; stroke-linecap: square"/>
    </g>
    <g id="text_5">
     <!-- $\mathdefault{3}$ -->
     <g transform="translate(233.38544 275.97481)scale(0.1 -0.1)">
      <defs>
       <path id="CMR17-33" d="M 1414 2157 
C 1984 2157 2234 1662 2234 1090 
C 2234 320 1824 25 1453 25 
C 1114 25 563 194 390 693 
C 422 680 454 680 486 680 
C 640 680 755 782 755 948 
C 755 1133 614 1216 486 1216 
C 378 1216 211 1165 211 926 
C 211 335 787 -128 1466 -128 
C 2176 -128 2720 430 2720 1085 
C 2720 1707 2208 2157 1600 2227 
C 2086 2328 2554 2756 2554 3329 
C 2554 3820 2048 4179 1472 4179 
C 890 4179 378 3829 378 3329 
C 378 3110 544 3072 627 3072 
C 762 3072 877 3155 877 3321 
C 877 3486 762 3569 627 3569 
C 602 3569 570 3569 544 3557 
C 730 3959 1235 4032 1459 4032 
C 1683 4032 2106 3925 2106 3320 
C 2106 3143 2080 2828 1862 2550 
C 1670 2304 1453 2304 1242 2284 
C 1210 2284 1062 2269 1037 2269 
C 992 2263 966 2257 966 2208 
C 966 2163 973 2157 1101 2157 
L 1414 2157 
z
" transform="scale(0.015625)"/>
      </defs>
      <use xlink:href="#CMR17-33" transform="scale(0.996264)"/>
     </g>
    </g>
   </g>
   <g id="xtick_5">
    <g id="line2d_6">
     <path d="M 187.998687 257.195111 
L 188.849622 257.463555 
" style="fill: none; stroke: #000000; stroke-width: 0.8; stroke-linecap: square"/>
    </g>
    <g id="text_6">
     <!-- $\mathdefault{4}$ -->
     <g transform="translate(188.072308 276.406508)scale(0.1 -0.1)">
      <defs>
       <path id="CMR17-34" d="M 2150 4122 
C 2150 4256 2144 4256 2029 4256 
L 128 1254 
L 128 1088 
L 1779 1088 
L 1779 457 
C 1779 224 1766 160 1318 160 
L 1197 160 
L 1197 0 
C 1402 0 1747 0 1965 0 
C 2182 0 2528 0 2733 0 
L 2733 160 
L 2611 160 
C 2163 160 2150 224 2150 457 
L 2150 1088 
L 2803 1088 
L 2803 1254 
L 2150 1254 
L 2150 4122 
z
M 1798 3703 
L 1798 1254 
L 256 1254 
L 1798 3703 
z
" transform="scale(0.015625)"/>
      </defs>
      <use xlink:href="#CMR17-34" transform="scale(0.996264)"/>
     </g>
    </g>
   </g>
   <g id="xtick_6">
    <g id="line2d_7">
     <path d="M 142.698451 257.574252 
L 143.415901 257.84499 
" style="fill: none; stroke: #000000; stroke-width: 0.8; stroke-linecap: square"/>
    </g>
    <g id="text_7">
     <!-- $\mathdefault{5}$ -->
     <g transform="translate(142.369871 276.841914)scale(0.1 -0.1)">
      <defs>
       <path id="CMR17-35" d="M 730 3692 
C 794 3666 1056 3584 1325 3584 
C 1920 3584 2246 3911 2432 4100 
C 2432 4157 2432 4192 2394 4192 
C 2387 4192 2374 4192 2323 4163 
C 2099 4058 1837 3973 1517 3973 
C 1325 3973 1037 3999 723 4139 
C 653 4171 640 4171 634 4171 
C 602 4171 595 4164 595 4037 
L 595 2203 
C 595 2089 595 2057 659 2057 
C 691 2057 704 2070 736 2114 
C 941 2401 1222 2522 1542 2522 
C 1766 2522 2246 2382 2246 1289 
C 2246 1085 2246 715 2054 421 
C 1894 159 1645 25 1370 25 
C 947 25 518 320 403 814 
C 429 807 480 795 506 795 
C 589 795 749 840 749 1038 
C 749 1210 627 1280 506 1280 
C 358 1280 262 1190 262 1011 
C 262 454 704 -128 1382 -128 
C 2042 -128 2669 440 2669 1264 
C 2669 2030 2170 2624 1549 2624 
C 1222 2624 947 2503 730 2274 
L 730 3692 
z
" transform="scale(0.015625)"/>
      </defs>
      <use xlink:href="#CMR17-35" transform="scale(0.996264)"/>
     </g>
    </g>
   </g>
  </g>
  <g id="axis3d_2">
   <g id="line2d_8">
    <path d="M 112.186771 247.686165 
L 138.191485 257.704076 
" style="fill: none; stroke: #000000; stroke-width: 0.8; stroke-linecap: square"/>
   </g>
   <g id="text_8">
    <!-- y -->
    <g transform="translate(89.701221 280.104756)scale(0.16 -0.16)">
     <defs>
      <path id="CMSS17-79" d="M 2675 2752 
L 2176 2752 
C 1632 1294 1446 702 1434 383 
L 1427 383 
C 1408 696 1126 1460 902 2007 
L 602 2752 
L 83 2752 
L 1216 13 
C 1146 -178 1043 -465 1011 -529 
C 870 -885 774 -885 672 -885 
C 646 -885 442 -885 211 -809 
L 250 -1229 
C 410 -1261 570 -1280 685 -1280 
C 845 -1280 1165 -1280 1459 -497 
L 2675 2752 
z
" transform="scale(0.015625)"/>
     </defs>
     <use xlink:href="#CMSS17-79" transform="scale(0.996264)"/>
    </g>
   </g>
   <g id="Line3DCollection_2">
    <path d="M 324.782331 89.106457 
L 324.782331 247.153002 
L 114.901164 248.731843 
" style="fill: none; stroke: #b0b0b0; stroke-width: 0.8"/>
    <path d="M 333.91643 87.384221 
L 333.91643 248.875239 
L 119.554236 250.524367 
" style="fill: none; stroke: #b0b0b0; stroke-width: 0.8"/>
    <path d="M 343.457538 85.585243 
L 343.457538 250.674217 
L 124.418976 252.398432 
" style="fill: none; stroke: #b0b0b0; stroke-width: 0.8"/>
    <path d="M 353.433478 83.704277 
L 353.433478 252.555183 
L 129.510163 254.359732 
" style="fill: none; stroke: #b0b0b0; stroke-width: 0.8"/>
    <path d="M 363.874669 81.735588 
L 363.874669 254.523872 
L 134.843985 256.414504 
" style="fill: none; stroke: #b0b0b0; stroke-width: 0.8"/>
   </g>
   <g id="xtick_7">
    <g id="line2d_9">
     <path d="M 116.613487 248.718962 
L 111.474878 248.757618 
" style="fill: none; stroke: #000000; stroke-width: 0.8; stroke-linecap: square"/>
    </g>
    <g id="text_9">
     <!-- $\mathdefault{−4}$ -->
     <g transform="translate(94.841664 266.065681)scale(0.1 -0.1)">
      <defs>
       <path id="CMSY10-0" d="M 4218 1472 
C 4326 1472 4442 1472 4442 1600 
C 4442 1728 4326 1728 4218 1728 
L 755 1728 
C 646 1728 531 1728 531 1600 
C 531 1472 646 1472 755 1472 
L 4218 1472 
z
" transform="scale(0.015625)"/>
      </defs>
      <use xlink:href="#CMSY10-0" transform="scale(0.996264)"/>
      <use xlink:href="#CMR17-34" transform="translate(77.487468 0)scale(0.996264)"/>
     </g>
    </g>
   </g>
   <g id="xtick_8">
    <g id="line2d_10">
     <path d="M 121.303872 250.510906 
L 116.053248 250.5513 
" style="fill: none; stroke: #000000; stroke-width: 0.8; stroke-linecap: square"/>
    </g>
    <g id="text_10">
     <!-- $\mathdefault{−2}$ -->
     <g transform="translate(99.195864 268.092477)scale(0.1 -0.1)">
      <use xlink:href="#CMSY10-0" transform="scale(0.996264)"/>
      <use xlink:href="#CMR17-32" transform="translate(77.487468 0)scale(0.996264)"/>
     </g>
    </g>
   </g>
   <g id="xtick_9">
    <g id="line2d_11">
     <path d="M 126.207588 252.384352 
L 120.839957 252.426605 
" style="fill: none; stroke: #000000; stroke-width: 0.8; stroke-linecap: square"/>
    </g>
    <g id="text_11">
     <!-- $\mathdefault{0}$ -->
     <g transform="translate(107.622773 270.211596)scale(0.1 -0.1)">
      <use xlink:href="#CMR17-30" transform="scale(0.996264)"/>
     </g>
    </g>
   </g>
   <g id="xtick_10">
    <g id="line2d_12">
     <path d="M 131.339526 254.34499 
L 125.849558 254.389232 
" style="fill: none; stroke: #000000; stroke-width: 0.8; stroke-linecap: square"/>
    </g>
    <g id="text_12">
     <!-- $\mathdefault{2}$ -->
     <g transform="translate(112.387514 272.429491)scale(0.1 -0.1)">
      <use xlink:href="#CMR17-32" transform="scale(0.996264)"/>
     </g>
    </g>
   </g>
   <g id="xtick_11">
    <g id="line2d_13">
     <path d="M 136.716 256.399051 
L 131.09799 256.445427 
" style="fill: none; stroke: #000000; stroke-width: 0.8; stroke-linecap: square"/>
    </g>
    <g id="text_13">
     <!-- $\mathdefault{4}$ -->
     <g transform="translate(117.379652 274.753235)scale(0.1 -0.1)">
      <use xlink:href="#CMR17-34" transform="scale(0.996264)"/>
     </g>
    </g>
   </g>
  </g>
  <g id="axis3d_3">
   <g id="line2d_14">
    <path d="M 112.186771 247.686165 
L 112.186771 88.573294 
" style="fill: none; stroke: #000000; stroke-width: 0.8; stroke-linecap: square"/>
   </g>
   <g id="text_14">
    <!-- z -->
    <g transform="translate(76.650603 172.114786)scale(0.16 -0.16)">
     <defs>
      <path id="CMSS17-7a" d="M 2400 2502 
L 2400 2750 
L 250 2750 
L 250 2368 
L 1069 2368 
C 1146 2368 1222 2368 1299 2368 
L 1747 2368 
L 166 261 
L 166 0 
L 2419 0 
L 2419 395 
L 1549 395 
C 1472 395 1395 395 1318 395 
L 826 395 
L 2400 2502 
z
" transform="scale(0.015625)"/>
     </defs>
     <use xlink:href="#CMSS17-7a" transform="scale(0.996264)"/>
    </g>
   </g>
   <g id="Line3DCollection_3">
    <path d="M 112.186771 244.503908 
L 319.45023 243.026917 
L 370.422232 252.253269 
" style="fill: none; stroke: #b0b0b0; stroke-width: 0.8"/>
    <path d="M 112.186771 213.954237 
L 319.45023 213.068042 
L 370.422232 218.603853 
" style="fill: none; stroke: #b0b0b0; stroke-width: 0.8"/>
    <path d="M 112.186771 183.404565 
L 319.45023 183.109167 
L 370.422232 184.954438 
" style="fill: none; stroke: #b0b0b0; stroke-width: 0.8"/>
    <path d="M 112.186771 152.854894 
L 319.45023 153.150292 
L 370.422232 151.305022 
" style="fill: none; stroke: #b0b0b0; stroke-width: 0.8"/>
    <path d="M 112.186771 122.305223 
L 319.45023 123.191417 
L 370.422232 117.655606 
" style="fill: none; stroke: #b0b0b0; stroke-width: 0.8"/>
    <path d="M 112.186771 91.755551 
L 319.45023 93.232542 
L 370.422232 84.006191 
" style="fill: none; stroke: #b0b0b0; stroke-width: 0.8"/>
   </g>
   <g id="xtick_12">
    <g id="line2d_15">
     <path d="M 113.87731 244.491861 
L 108.804091 244.528013 
" style="fill: none; stroke: #000000; stroke-width: 0.8; stroke-linecap: square"/>
    </g>
    <g id="text_15">
     <!-- $\mathdefault{0}$ -->
     <g transform="translate(94.805176 250.975546)scale(0.1 -0.1)">
      <use xlink:href="#CMR17-30" transform="scale(0.996264)"/>
     </g>
    </g>
   </g>
   <g id="xtick_13">
    <g id="line2d_16">
     <path d="M 113.87731 213.947008 
L 108.804091 213.9687 
" style="fill: none; stroke: #000000; stroke-width: 0.8; stroke-linecap: square"/>
    </g>
    <g id="text_16">
     <!-- $\mathdefault{1}$ -->
     <g transform="translate(94.805176 220.604619)scale(0.1 -0.1)">
      <use xlink:href="#CMR17-31" transform="scale(0.996264)"/>
     </g>
    </g>
   </g>
   <g id="xtick_14">
    <g id="line2d_17">
     <path d="M 113.87731 183.402156 
L 108.804091 183.409386 
" style="fill: none; stroke: #000000; stroke-width: 0.8; stroke-linecap: square"/>
    </g>
    <g id="text_17">
     <!-- $\mathdefault{2}$ -->
     <g transform="translate(94.805176 190.233692)scale(0.1 -0.1)">
      <use xlink:href="#CMR17-32" transform="scale(0.996264)"/>
     </g>
    </g>
   </g>
   <g id="xtick_15">
    <g id="line2d_18">
     <path d="M 113.87731 152.857303 
L 108.804091 152.850073 
" style="fill: none; stroke: #000000; stroke-width: 0.8; stroke-linecap: square"/>
    </g>
    <g id="text_18">
     <!-- $\mathdefault{3}$ -->
     <g transform="translate(94.805176 159.862765)scale(0.1 -0.1)">
      <use xlink:href="#CMR17-33" transform="scale(0.996264)"/>
     </g>
    </g>
   </g>
   <g id="xtick_16">
    <g id="line2d_19">
     <path d="M 113.87731 122.312451 
L 108.804091 122.290759 
" style="fill: none; stroke: #000000; stroke-width: 0.8; stroke-linecap: square"/>
    </g>
    <g id="text_19">
     <!-- $\mathdefault{4}$ -->
     <g transform="translate(94.805176 129.491837)scale(0.1 -0.1)">
      <use xlink:href="#CMR17-34" transform="scale(0.996264)"/>
     </g>
    </g>
   </g>
   <g id="xtick_17">
    <g id="line2d_20">
     <path d="M 113.87731 91.767599 
L 108.804091 91.731446 
" style="fill: none; stroke: #000000; stroke-width: 0.8; stroke-linecap: square"/>
    </g>
    <g id="text_20">
     <!-- $\mathdefault{5}$ -->
     <g transform="translate(94.805176 99.12091)scale(0.1 -0.1)">
      <use xlink:href="#CMR17-35" transform="scale(0.996264)"/>
     </g>
    </g>
   </g>
  </g>
  <g id="axes_1">
   <g id="line2d_21">
    <path d="M 339.164645 247.404878 
L 311.39128 85.777644 
" clip-path="url(#p2c5e771181)" style="fill: none; stroke: #ff0000; stroke-width: 1.5; stroke-linecap: square"/>
   </g>
   <g id="line2d_22">
    <path d="M 339.164645 247.404878 
L 248.355599 121.241173 
" clip-path="url(#p2c5e771181)" style="fill: none; stroke: #00ff00; stroke-width: 1.5; stroke-linecap: square"/>
   </g>
   <g id="line2d_23">
    <path d="M 339.164645 247.404878 
L 235.049608 -1 
" clip-path="url(#p2c5e771181)" style="fill: none; stroke: #0016ff; stroke-width: 1.5; stroke-linecap: square"/>
   </g>
   <g id="line2d_24">
    <path d="M 339.164645 247.404878 
L 121.528012 152.490252 
" clip-path="url(#p2c5e771181)" style="fill: none; stroke: #f400ff; stroke-width: 1.5; stroke-linecap: square"/>
   </g>
   <g id="Poly3DCollection_1">
    <path d="M 316.284589 355.857092 
L 296.679225 314.830131 
L 298.757829 304.265359 
L 318.463331 345.529781 
z
" clip-path="url(#p2c5e771181)" style="fill: #0000f5; fill-opacity: 0.1"/>
    <path d="M 296.679225 314.830131 
L 277.000604 273.649869 
L 278.978304 262.845927 
L 298.757829 304.265359 
z
" clip-path="url(#p2c5e771181)" style="fill: #0000f5; fill-opacity: 0.1"/>
    <path d="M 277.000604 273.649869 
L 257.248315 232.315446 
L 259.124338 221.270612 
L 278.978304 262.845927 
z
" clip-path="url(#p2c5e771181)" style="fill: #0000f5; fill-opacity: 0.1"/>
    <path d="M 318.463331 345.529781 
L 298.757829 304.265359 
L 300.858652 293.587661 
L 320.665318 335.092291 
z
" clip-path="url(#p2c5e771181)" style="fill: #0000f5; fill-opacity: 0.1"/>
    <path d="M 257.248315 232.315446 
L 237.421944 190.825995 
L 239.195509 179.53853 
L 259.124338 221.270612 
z
" clip-path="url(#p2c5e771181)" style="fill: #0000f5; fill-opacity: 0.1"/>
    <path d="M 298.757829 304.265359 
L 278.978304 262.845927 
L 280.977183 251.926285 
L 300.858652 293.587661 
z
" clip-path="url(#p2c5e771181)" style="fill: #0000f5; fill-opacity: 0.1"/>
    <path d="M 237.421944 190.825995 
L 217.521071 149.180641 
L 219.191394 137.648795 
L 239.195509 179.53853 
z
" clip-path="url(#p2c5e771181)" style="fill: #0000f5; fill-opacity: 0.1"/>
    <path d="M 278.978304 262.845927 
L 259.124338 221.270612 
L 261.020489 210.107274 
L 280.977183 251.926285 
z
" clip-path="url(#p2c5e771181)" style="fill: #0000f5; fill-opacity: 0.1"/>
    <path d="M 217.521071 149.180641 
L 197.545278 107.378504 
L 199.111565 95.60051 
L 219.191394 137.648795 
z
" clip-path="url(#p2c5e771181)" style="fill: #0000f5; fill-opacity: 0.1"/>
    <path d="M 320.665318 335.092291 
L 300.858652 293.587661 
L 302.98205 282.795218 
L 322.890924 324.542848 
z
" clip-path="url(#p2c5e771181)" style="fill: #0000f5; fill-opacity: 0.1"/>
    <path d="M 259.124338 221.270612 
L 239.195509 179.53853 
L 240.98814 168.12973 
L 261.020489 210.107274 
z
" clip-path="url(#p2c5e771181)" style="fill: #0000f5; fill-opacity: 0.1"/>
    <path d="M 197.545278 107.378504 
L 177.49414 65.418697 
L 178.955591 53.392775 
L 199.111565 95.60051 
z
" clip-path="url(#p2c5e771181)" style="fill: #0000f5; fill-opacity: 0.1"/>
    <path d="M 300.858652 293.587661 
L 280.977183 251.926285 
L 282.997584 240.889075 
L 302.98205 282.795218 
z
" clip-path="url(#p2c5e771181)" style="fill: #0000f5; fill-opacity: 0.1"/>
    <path d="M 239.195509 179.53853 
L 219.191394 137.648795 
L 220.879706 125.99275 
L 240.98814 168.12973 
z
" clip-path="url(#p2c5e771181)" style="fill: #0000f5; fill-opacity: 0.1"/>
    <path d="M 177.49414 65.418697 
L 157.367229 23.300326 
L 158.723039 11.024679 
L 178.955591 53.392775 
z
" clip-path="url(#p2c5e771181)" style="fill: #0000f5; fill-opacity: 0.1"/>
    <path d="M 280.977183 251.926285 
L 261.020489 210.107274 
L 262.937094 198.823514 
L 282.997584 240.889075 
z
" clip-path="url(#p2c5e771181)" style="fill: #0000f5; fill-opacity: 0.1"/>
    <path d="M 219.191394 137.648795 
L 199.111565 95.60051 
L 200.694753 83.695426 
L 220.879706 125.99275 
z
" clip-path="url(#p2c5e771181)" style="fill: #0000f5; fill-opacity: 0.1"/>
    <path d="M 157.367229 23.300326 
L 137.164116 -18.977508 
L 138.413471 -31.504691 
L 158.723039 11.024679 
z
" clip-path="url(#p2c5e771181)" style="fill: #0000f5; fill-opacity: 0.1"/>
    <path d="M 322.890924 324.542848 
L 302.98205 282.795218 
L 305.12839 271.886169 
L 325.14053 313.879642 
z
" clip-path="url(#p2c5e771181)" style="fill: #0000f5; fill-opacity: 0.1"/>
    <path d="M 261.020489 210.107274 
L 240.98814 168.12973 
L 242.800145 156.597626 
L 262.937094 198.823514 
z
" clip-path="url(#p2c5e771181)" style="fill: #0000f5; fill-opacity: 0.1"/>
    <path d="M 199.111565 95.60051 
L 178.955591 53.392775 
L 180.432843 41.236839 
L 200.694753 83.695426 
z
" clip-path="url(#p2c5e771181)" style="fill: #0000f5; fill-opacity: 0.1"/>
    <path d="M 302.98205 282.795218 
L 282.997584 240.889075 
L 285.039855 229.732386 
L 305.12839 271.886169 
z
" clip-path="url(#p2c5e771181)" style="fill: #0000f5; fill-opacity: 0.1"/>
    <path d="M 240.98814 168.12973 
L 220.879706 125.99275 
L 222.5863 114.21049 
L 242.800145 156.597626 
z
" clip-path="url(#p2c5e771181)" style="fill: #0000f5; fill-opacity: 0.1"/>
    <path d="M 178.955591 53.392775 
L 158.723039 11.024679 
L 160.093535 -1.383935 
L 180.432843 41.236839 
z
" clip-path="url(#p2c5e771181)" style="fill: #0000f5; fill-opacity: 0.1"/>
    <path d="M 282.997584 240.889075 
L 262.937094 198.823514 
L 264.874486 187.417375 
L 285.039855 229.732386 
z
" clip-path="url(#p2c5e771181)" style="fill: #0000f5; fill-opacity: 0.1"/>
    <path d="M 220.879706 125.99275 
L 200.694753 83.695426 
L 202.295117 71.661182 
L 222.5863 114.21049 
z
" clip-path="url(#p2c5e771181)" style="fill: #0000f5; fill-opacity: 0.1"/>
    <path d="M 158.723039 11.024679 
L 138.413471 -31.504691 
L 139.676384 -44.167826 
L 160.093535 -1.383935 
z
" clip-path="url(#p2c5e771181)" style="fill: #0000f5; fill-opacity: 0.1"/>
    <path d="M 325.14053 313.879642 
L 305.12839 271.886169 
L 307.298046 260.858614 
L 327.414527 303.100823 
z
" clip-path="url(#p2c5e771181)" style="fill: #0000f5; fill-opacity: 0.1"/>
    <path d="M 262.937094 198.823514 
L 242.800145 156.597626 
L 244.63184 144.940208 
L 264.874486 187.417375 
z
" clip-path="url(#p2c5e771181)" style="fill: #0000f5; fill-opacity: 0.1"/>
    <path d="M 200.694753 83.695426 
L 180.432843 41.236839 
L 181.926152 28.948769 
L 202.295117 71.661182 
z
" clip-path="url(#p2c5e771181)" style="fill: #0000f5; fill-opacity: 0.1"/>
    <path d="M 305.12839 271.886169 
L 285.039855 229.732386 
L 287.104354 218.45427 
L 307.298046 260.858614 
z
" clip-path="url(#p2c5e771181)" style="fill: #0000f5; fill-opacity: 0.1"/>
    <path d="M 242.800145 156.597626 
L 222.5863 114.21049 
L 224.311474 102.299952 
L 244.63184 144.940208 
z
" clip-path="url(#p2c5e771181)" style="fill: #0000f5; fill-opacity: 0.1"/>
    <path d="M 180.432843 41.236839 
L 160.093535 -1.383935 
L 161.478956 -13.927689 
L 181.926152 28.948769 
z
" clip-path="url(#p2c5e771181)" style="fill: #0000f5; fill-opacity: 0.1"/>
    <path d="M 285.039855 229.732386 
L 264.874486 187.417375 
L 266.833004 175.886854 
L 287.104354 218.45427 
z
" clip-path="url(#p2c5e771181)" style="fill: #0000f5; fill-opacity: 0.1"/>
    <path d="M 222.5863 114.21049 
L 202.295117 71.661182 
L 203.912939 59.495665 
L 224.311474 102.299952 
z
" clip-path="url(#p2c5e771181)" style="fill: #0000f5; fill-opacity: 0.1"/>
    <path d="M 160.093535 -1.383935 
L 139.676384 -44.167826 
L 140.953078 -56.969137 
L 161.478956 -13.927689 
z
" clip-path="url(#p2c5e771181)" style="fill: #0000f5; fill-opacity: 0.1"/>
    <path d="M 327.414527 303.100823 
L 307.298046 260.858614 
L 309.4914 249.710612 
L 329.713313 292.204499 
z
" clip-path="url(#p2c5e771181)" style="fill: #0000f5; fill-opacity: 0.1"/>
    <path d="M 264.874486 187.417375 
L 244.63184 144.940208 
L 246.483548 133.155423 
L 266.833004 175.886854 
z
" clip-path="url(#p2c5e771181)" style="fill: #0000f5; fill-opacity: 0.1"/>
    <path d="M 202.295117 71.661182 
L 181.926152 28.948769 
L 183.435782 16.526399 
L 203.912939 59.495665 
z
" clip-path="url(#p2c5e771181)" style="fill: #0000f5; fill-opacity: 0.1"/>
    <path d="M 307.298046 260.858614 
L 287.104354 218.45427 
L 289.191446 207.052731 
L 309.4914 249.710612 
z
" clip-path="url(#p2c5e771181)" style="fill: #0000f5; fill-opacity: 0.1"/>
    <path d="M 244.63184 144.940208 
L 224.311474 102.299952 
L 226.055534 90.25903 
L 246.483548 133.155423 
z
" clip-path="url(#p2c5e771181)" style="fill: #0000f5; fill-opacity: 0.1"/>
    <path d="M 181.926152 28.948769 
L 161.478956 -13.927689 
L 162.879548 -26.608801 
L 183.435782 16.526399 
z
" clip-path="url(#p2c5e771181)" style="fill: #0000f5; fill-opacity: 0.1"/>
    <path d="M 287.104354 218.45427 
L 266.833004 175.886854 
L 268.812998 164.229904 
L 289.191446 207.052731 
z
" clip-path="url(#p2c5e771181)" style="fill: #0000f5; fill-opacity: 0.1"/>
    <path d="M 224.311474 102.299952 
L 203.912939 59.495665 
L 205.548504 47.196715 
L 226.055534 90.25903 
z
" clip-path="url(#p2c5e771181)" style="fill: #0000f5; fill-opacity: 0.1"/>
    <path d="M 161.478956 -13.927689 
L 140.953078 -56.969137 
L 142.243779 -69.910899 
L 162.879548 -26.608801 
z
" clip-path="url(#p2c5e771181)" style="fill: #0000f5; fill-opacity: 0.1"/>
    <path d="M 329.713313 292.204499 
L 309.4914 249.710612 
L 311.708843 238.440179 
L 332.037297 281.188739 
z
" clip-path="url(#p2c5e771181)" style="fill: #0000f5; fill-opacity: 0.1"/>
    <path d="M 266.833004 175.886854 
L 246.483548 133.155423 
L 248.355599 121.241173 
L 268.812998 164.229904 
z
" clip-path="url(#p2c5e771181)" style="fill: #0000f5; fill-opacity: 0.1"/>
    <path d="M 203.912939 59.495665 
L 183.435782 16.526399 
L 184.962001 3.967515 
L 205.548504 47.196715 
z
" clip-path="url(#p2c5e771181)" style="fill: #0000f5; fill-opacity: 0.1"/>
    <path d="M 309.4914 249.710612 
L 289.191446 207.052731 
L 291.301504 195.525734 
L 311.708843 238.440179 
z
" clip-path="url(#p2c5e771181)" style="fill: #0000f5; fill-opacity: 0.1"/>
    <path d="M 246.483548 133.155423 
L 226.055534 90.25903 
L 227.81879 78.085571 
L 248.355599 121.241173 
z
" clip-path="url(#p2c5e771181)" style="fill: #0000f5; fill-opacity: 0.1"/>
    <path d="M 183.435782 16.526399 
L 162.879548 -26.608801 
L 164.295562 -39.429542 
L 184.962001 3.967515 
z
" clip-path="url(#p2c5e771181)" style="fill: #0000f5; fill-opacity: 0.1"/>
    <path d="M 289.191446 207.052731 
L 268.812998 164.229904 
L 270.81482 152.444437 
L 291.301504 195.525734 
z
" clip-path="url(#p2c5e771181)" style="fill: #0000f5; fill-opacity: 0.1"/>
    <path d="M 226.055534 90.25903 
L 205.548504 47.196715 
L 207.202108 34.762126 
L 227.81879 78.085571 
z
" clip-path="url(#p2c5e771181)" style="fill: #0000f5; fill-opacity: 0.1"/>
    <path d="M 162.879548 -26.608801 
L 142.243779 -69.910899 
L 143.548719 -82.995436 
L 164.295562 -39.429542 
z
" clip-path="url(#p2c5e771181)" style="fill: #0000f5; fill-opacity: 0.1"/>
    <path d="M 332.037297 281.188739 
L 311.708843 238.440179 
L 313.950772 227.045287 
L 334.386895 270.051569 
z
" clip-path="url(#p2c5e771181)" style="fill: #0000f5; fill-opacity: 0.1"/>
    <path d="M 268.812998 164.229904 
L 248.355599 121.241173 
L 250.248329 109.195311 
L 270.81482 152.444437 
z
" clip-path="url(#p2c5e771181)" style="fill: #0000f5; fill-opacity: 0.1"/>
    <path d="M 205.548504 47.196715 
L 184.962001 3.967515 
L 186.505086 -8.730145 
L 207.202108 34.762126 
z
" clip-path="url(#p2c5e771181)" style="fill: #0000f5; fill-opacity: 0.1"/>
    <path d="M 311.708843 238.440179 
L 291.301504 195.525734 
L 293.434908 183.871196 
L 313.950772 227.045287 
z
" clip-path="url(#p2c5e771181)" style="fill: #0000f5; fill-opacity: 0.1"/>
    <path d="M 248.355599 121.241173 
L 227.81879 78.085571 
L 229.601563 65.777376 
L 250.248329 109.195311 
z
" clip-path="url(#p2c5e771181)" style="fill: #0000f5; fill-opacity: 0.1"/>
    <path d="M 184.962001 3.967515 
L 164.295562 -39.429542 
L 165.727253 -52.392229 
L 186.505086 -8.730145 
z
" clip-path="url(#p2c5e771181)" style="fill: #0000f5; fill-opacity: 0.1"/>
    <path d="M 291.301504 195.525734 
L 270.81482 152.444437 
L 272.838836 140.528313 
L 293.434908 183.871196 
z
" clip-path="url(#p2c5e771181)" style="fill: #0000f5; fill-opacity: 0.1"/>
    <path d="M 227.81879 78.085571 
L 207.202108 34.762126 
L 208.87405 22.18964 
L 229.601563 65.777376 
z
" clip-path="url(#p2c5e771181)" style="fill: #0000f5; fill-opacity: 0.1"/>
    <path d="M 164.295562 -39.429542 
L 143.548719 -82.995436 
L 144.868136 -96.225124 
L 165.727253 -52.392229 
z
" clip-path="url(#p2c5e771181)" style="fill: #0000f5; fill-opacity: 0.1"/>
    <path d="M 334.386895 270.051569 
L 313.950772 227.045287 
L 316.217596 215.523862 
L 336.762532 258.79097 
z
" clip-path="url(#p2c5e771181)" style="fill: #0000f5; fill-opacity: 0.1"/>
    <path d="M 270.81482 152.444437 
L 250.248329 109.195311 
L 252.162084 97.015646 
L 272.838836 140.528313 
z
" clip-path="url(#p2c5e771181)" style="fill: #0000f5; fill-opacity: 0.1"/>
    <path d="M 207.202108 34.762126 
L 186.505086 -8.730145 
L 188.065317 -21.568895 
L 208.87405 22.18964 
z
" clip-path="url(#p2c5e771181)" style="fill: #0000f5; fill-opacity: 0.1"/>
    <path d="M 313.950772 227.045287 
L 293.434908 183.871196 
L 295.592049 172.086989 
L 316.217596 215.523862 
z
" clip-path="url(#p2c5e771181)" style="fill: #0000f5; fill-opacity: 0.1"/>
    <path d="M 250.248329 109.195311 
L 229.601563 65.777376 
L 231.404177 53.332194 
L 252.162084 97.015646 
z
" clip-path="url(#p2c5e771181)" style="fill: #0000f5; fill-opacity: 0.1"/>
    <path d="M 186.505086 -8.730145 
L 165.727253 -52.392229 
L 167.174884 -65.499234 
L 188.065317 -21.568895 
z
" clip-path="url(#p2c5e771181)" style="fill: #0000f5; fill-opacity: 0.1"/>
    <path d="M 293.434908 183.871196 
L 272.838836 140.528313 
L 274.885415 128.479349 
L 295.592049 172.086989 
z
" clip-path="url(#p2c5e771181)" style="fill: #0000f5; fill-opacity: 0.1"/>
    <path d="M 229.601563 65.777376 
L 208.87405 22.18964 
L 210.564637 9.476951 
L 231.404177 53.332194 
z
" clip-path="url(#p2c5e771181)" style="fill: #0000f5; fill-opacity: 0.1"/>
    <path d="M 165.727253 -52.392229 
L 144.868136 -96.225124 
L 146.20227 -109.602391 
L 167.174884 -65.499234 
z
" clip-path="url(#p2c5e771181)" style="fill: #0000f5; fill-opacity: 0.1"/>
    <path d="M 336.762532 258.79097 
L 316.217596 215.523862 
L 318.509733 203.873785 
L 339.164645 247.404878 
z
" clip-path="url(#p2c5e771181)" style="fill: #0000f5; fill-opacity: 0.1"/>
    <path d="M 272.838836 140.528313 
L 252.162084 97.015646 
L 254.097215 84.699934 
L 274.885415 128.479349 
z
" clip-path="url(#p2c5e771181)" style="fill: #0000f5; fill-opacity: 0.1"/>
    <path d="M 208.87405 22.18964 
L 188.065317 -21.568895 
L 189.64298 -34.551099 
L 210.564637 9.476951 
z
" clip-path="url(#p2c5e771181)" style="fill: #0000f5; fill-opacity: 0.1"/>
    <path d="M 316.217596 215.523862 
L 295.592049 172.086989 
L 297.773324 160.170936 
L 318.509733 203.873785 
z
" clip-path="url(#p2c5e771181)" style="fill: #0000f5; fill-opacity: 0.1"/>
    <path d="M 252.162084 97.015646 
L 231.404177 53.332194 
L 233.226966 40.747726 
L 254.097215 84.699934 
z
" clip-path="url(#p2c5e771181)" style="fill: #0000f5; fill-opacity: 0.1"/>
    <path d="M 188.065317 -21.568895 
L 167.174884 -65.499234 
L 168.638722 -78.752979 
L 189.64298 -34.551099 
z
" clip-path="url(#p2c5e771181)" style="fill: #0000f5; fill-opacity: 0.1"/>
    <path d="M 295.592049 172.086989 
L 274.885415 128.479349 
L 276.954937 116.295311 
L 297.773324 160.170936 
z
" clip-path="url(#p2c5e771181)" style="fill: #0000f5; fill-opacity: 0.1"/>
    <path d="M 231.404177 53.332194 
L 210.564637 9.476951 
L 212.274182 -3.378299 
L 233.226966 40.747726 
z
" clip-path="url(#p2c5e771181)" style="fill: #0000f5; fill-opacity: 0.1"/>
    <path d="M 167.174884 -65.499234 
L 146.20227 -109.602391 
L 147.551371 -123.129721 
L 168.638722 -78.752979 
z
" clip-path="url(#p2c5e771181)" style="fill: #0000f5; fill-opacity: 0.1"/>
    <path d="M 339.164645 247.404878 
L 318.509733 203.873785 
L 320.827608 192.09289 
L 341.593677 235.891185 
z
" clip-path="url(#p2c5e771181)" style="fill: #0000f5; fill-opacity: 0.1"/>
    <path d="M 274.885415 128.479349 
L 254.097215 84.699934 
L 256.054082 72.245885 
L 276.954937 116.295311 
z
" clip-path="url(#p2c5e771181)" style="fill: #0000f5; fill-opacity: 0.1"/>
    <path d="M 210.564637 9.476951 
L 189.64298 -34.551099 
L 191.238371 -47.679175 
L 212.274182 -3.378299 
z
" clip-path="url(#p2c5e771181)" style="fill: #0000f5; fill-opacity: 0.1"/>
    <path d="M 318.509733 203.873785 
L 297.773324 160.170936 
L 299.979142 148.120812 
L 320.827608 192.09289 
z
" clip-path="url(#p2c5e771181)" style="fill: #0000f5; fill-opacity: 0.1"/>
    <path d="M 254.097215 84.699934 
L 233.226966 40.747726 
L 235.07027 28.021621 
L 256.054082 72.245885 
z
" clip-path="url(#p2c5e771181)" style="fill: #0000f5; fill-opacity: 0.1"/>
    <path d="M 189.64298 -34.551099 
L 168.638722 -78.752979 
L 170.119041 -92.155943 
L 191.238371 -47.679175 
z
" clip-path="url(#p2c5e771181)" style="fill: #0000f5; fill-opacity: 0.1"/>
    <path d="M 297.773324 160.170936 
L 276.954937 116.295311 
L 279.04779 103.973915 
L 299.979142 148.120812 
z
" clip-path="url(#p2c5e771181)" style="fill: #0000f5; fill-opacity: 0.1"/>
    <path d="M 233.226966 40.747726 
L 212.274182 -3.378299 
L 214.003006 -16.378522 
L 235.07027 28.021621 
z
" clip-path="url(#p2c5e771181)" style="fill: #0000f5; fill-opacity: 0.1"/>
    <path d="M 168.638722 -78.752979 
L 147.551371 -123.129721 
L 148.915691 -136.809652 
L 170.119041 -92.155943 
z
" clip-path="url(#p2c5e771181)" style="fill: #0000f5; fill-opacity: 0.1"/>
    <path d="M 341.593677 235.891185 
L 320.827608 192.09289 
L 323.171657 180.17896 
L 344.050085 224.247733 
z
" clip-path="url(#p2c5e771181)" style="fill: #0000f5; fill-opacity: 0.1"/>
    <path d="M 276.954937 116.295311 
L 256.054082 72.245885 
L 258.033055 59.651153 
L 279.04779 103.973915 
z
" clip-path="url(#p2c5e771181)" style="fill: #0000f5; fill-opacity: 0.1"/>
    <path d="M 212.274182 -3.378299 
L 191.238371 -47.679175 
L 192.85179 -60.955595 
L 214.003006 -16.378522 
z
" clip-path="url(#p2c5e771181)" style="fill: #0000f5; fill-opacity: 0.1"/>
    <path d="M 320.827608 192.09289 
L 299.979142 148.120812 
L 302.209919 135.934342 
L 323.171657 180.17896 
z
" clip-path="url(#p2c5e771181)" style="fill: #0000f5; fill-opacity: 0.1"/>
    <path d="M 256.054082 72.245885 
L 235.07027 28.021621 
L 236.934438 15.151474 
L 258.033055 59.651153 
z
" clip-path="url(#p2c5e771181)" style="fill: #0000f5; fill-opacity: 0.1"/>
    <path d="M 191.238371 -47.679175 
L 170.119041 -92.155943 
L 171.61612 -105.71066 
L 192.85179 -60.955595 
z
" clip-path="url(#p2c5e771181)" style="fill: #0000f5; fill-opacity: 0.1"/>
    <path d="M 299.979142 148.120812 
L 279.04779 103.973915 
L 281.164371 91.512823 
L 302.209919 135.934342 
z
" clip-path="url(#p2c5e771181)" style="fill: #0000f5; fill-opacity: 0.1"/>
    <path d="M 235.07027 28.021621 
L 214.003006 -16.378522 
L 215.751437 -29.526184 
L 236.934438 15.151474 
z
" clip-path="url(#p2c5e771181)" style="fill: #0000f5; fill-opacity: 0.1"/>
    <path d="M 170.119041 -92.155943 
L 148.915691 -136.809652 
L 150.295489 -150.644783 
L 171.61612 -105.71066 
z
" clip-path="url(#p2c5e771181)" style="fill: #0000f5; fill-opacity: 0.1"/>
    <path d="M 344.050085 224.247733 
L 323.171657 180.17896 
L 325.542326 168.12973 
L 346.534333 212.472316 
z
" clip-path="url(#p2c5e771181)" style="fill: #0000f5; fill-opacity: 0.1"/>
    <path d="M 279.04779 103.973915 
L 258.033055 59.651153 
L 260.034509 46.913342 
L 281.164371 91.512823 
z
" clip-path="url(#p2c5e771181)" style="fill: #0000f5; fill-opacity: 0.1"/>
    <path d="M 214.003006 -16.378522 
L 192.85179 -60.955595 
L 194.483543 -74.382889 
L 215.751437 -29.526184 
z
" clip-path="url(#p2c5e771181)" style="fill: #0000f5; fill-opacity: 0.1"/>
    <path d="M 323.171657 180.17896 
L 302.209919 135.934342 
L 304.46608 123.609198 
L 325.542326 168.12973 
z
" clip-path="url(#p2c5e771181)" style="fill: #0000f5; fill-opacity: 0.1"/>
    <path d="M 258.033055 59.651153 
L 236.934438 15.151474 
L 238.819826 2.134825 
L 260.034509 46.913342 
z
" clip-path="url(#p2c5e771181)" style="fill: #0000f5; fill-opacity: 0.1"/>
    <path d="M 192.85179 -60.955595 
L 171.61612 -105.71066 
L 173.130246 -119.419722 
L 194.483543 -74.382889 
z
" clip-path="url(#p2c5e771181)" style="fill: #0000f5; fill-opacity: 0.1"/>
    <path d="M 302.209919 135.934342 
L 281.164371 91.512823 
L 283.305085 78.909649 
L 304.46608 123.609198 
z
" clip-path="url(#p2c5e771181)" style="fill: #0000f5; fill-opacity: 0.1"/>
    <path d="M 236.934438 15.151474 
L 215.751437 -29.526184 
L 217.519811 -42.823807 
L 238.819826 2.134825 
z
" clip-path="url(#p2c5e771181)" style="fill: #0000f5; fill-opacity: 0.1"/>
    <path d="M 171.61612 -105.71066 
L 150.295489 -150.644783 
L 151.69103 -164.637769 
L 173.130246 -119.419722 
z
" clip-path="url(#p2c5e771181)" style="fill: #0000f5; fill-opacity: 0.1"/>
    <path d="M 346.534333 212.472316 
L 325.542326 168.12973 
L 327.940072 155.94288 
L 349.046897 200.562678 
z
" clip-path="url(#p2c5e771181)" style="fill: #0000f5; fill-opacity: 0.1"/>
    <path d="M 281.164371 91.512823 
L 260.034509 46.913342 
L 262.05883 34.029999 
L 283.305085 78.909649 
z
" clip-path="url(#p2c5e771181)" style="fill: #0000f5; fill-opacity: 0.1"/>
    <path d="M 215.751437 -29.526184 
L 194.483543 -74.382889 
L 196.133946 -87.963643 
L 217.519811 -42.823807 
z
" clip-path="url(#p2c5e771181)" style="fill: #0000f5; fill-opacity: 0.1"/>
    <path d="M 325.542326 168.12973 
L 304.46608 123.609198 
L 306.748062 111.143 
L 327.940072 155.94288 
z
" clip-path="url(#p2c5e771181)" style="fill: #0000f5; fill-opacity: 0.1"/>
    <path d="M 260.034509 46.913342 
L 238.819826 2.134825 
L 240.726799 -11.030842 
L 262.05883 34.029999 
z
" clip-path="url(#p2c5e771181)" style="fill: #0000f5; fill-opacity: 0.1"/>
    <path d="M 194.483543 -74.382889 
L 173.130246 -119.419722 
L 174.661712 -133.285781 
L 196.133946 -87.963643 
z
" clip-path="url(#p2c5e771181)" style="fill: #0000f5; fill-opacity: 0.1"/>
    <path d="M 304.46608 123.609198 
L 283.305085 78.909649 
L 285.470349 66.161946 
L 306.748062 111.143 
z
" clip-path="url(#p2c5e771181)" style="fill: #0000f5; fill-opacity: 0.1"/>
    <path d="M 238.819826 2.134825 
L 217.519811 -42.823807 
L 219.30847 -56.273973 
L 240.726799 -11.030842 
z
" clip-path="url(#p2c5e771181)" style="fill: #0000f5; fill-opacity: 0.1"/>
    <path d="M 173.130246 -119.419722 
L 151.69103 -164.637769 
L 153.102586 -178.791327 
L 174.661712 -133.285781 
z
" clip-path="url(#p2c5e771181)" style="fill: #0000f5; fill-opacity: 0.1"/>
    <path d="M 349.046897 200.562678 
L 327.940072 155.94288 
L 330.365361 143.616041 
L 351.588265 188.516511 
z
" clip-path="url(#p2c5e771181)" style="fill: #0000f5; fill-opacity: 0.1"/>
    <path d="M 283.305085 78.909649 
L 262.05883 34.029999 
L 264.106413 20.998616 
L 285.470349 66.161946 
z
" clip-path="url(#p2c5e771181)" style="fill: #0000f5; fill-opacity: 0.1"/>
    <path d="M 217.519811 -42.823807 
L 196.133946 -87.963643 
L 197.803319 -101.700502 
L 219.30847 -56.273973 
z
" clip-path="url(#p2c5e771181)" style="fill: #0000f5; fill-opacity: 0.1"/>
    <path d="M 327.940072 155.94288 
L 306.748062 111.143 
L 309.056309 98.533313 
L 330.365361 143.616041 
z
" clip-path="url(#p2c5e771181)" style="fill: #0000f5; fill-opacity: 0.1"/>
    <path d="M 262.05883 34.029999 
L 240.726799 -11.030842 
L 242.655728 -24.3481 
L 264.106413 20.998616 
z
" clip-path="url(#p2c5e771181)" style="fill: #0000f5; fill-opacity: 0.1"/>
    <path d="M 196.133946 -87.963643 
L 174.661712 -133.285781 
L 176.210818 -147.311548 
L 197.803319 -101.700502 
z
" clip-path="url(#p2c5e771181)" style="fill: #0000f5; fill-opacity: 0.1"/>
    <path d="M 306.748062 111.143 
L 285.470349 66.161946 
L 287.660585 53.267215 
L 309.056309 98.533313 
z
" clip-path="url(#p2c5e771181)" style="fill: #0000f5; fill-opacity: 0.1"/>
    <path d="M 240.726799 -11.030842 
L 219.30847 -56.273973 
L 221.117766 -69.87932 
L 242.655728 -24.3481 
z
" clip-path="url(#p2c5e771181)" style="fill: #0000f5; fill-opacity: 0.1"/>
    <path d="M 174.661712 -133.285781 
L 153.102586 -178.791327 
L 154.530432 -193.108236 
L 176.210818 -147.311548 
z
" clip-path="url(#p2c5e771181)" style="fill: #0000f5; fill-opacity: 0.1"/>
    <path d="M 351.588265 188.516511 
L 330.365361 143.616041 
L 332.81867 131.146785 
L 354.158935 176.331454 
z
" clip-path="url(#p2c5e771181)" style="fill: #0000f5; fill-opacity: 0.1"/>
    <path d="M 285.470349 66.161946 
L 264.106413 20.998616 
L 266.177659 7.816627 
L 287.660585 53.267215 
z
" clip-path="url(#p2c5e771181)" style="fill: #0000f5; fill-opacity: 0.1"/>
    <path d="M 219.30847 -56.273973 
L 197.803319 -101.700502 
L 199.491993 -115.596175 
L 221.117766 -69.87932 
z
" clip-path="url(#p2c5e771181)" style="fill: #0000f5; fill-opacity: 0.1"/>
    <path d="M 330.365361 143.616041 
L 309.056309 98.533313 
L 311.39128 85.777644 
L 332.81867 131.146785 
z
" clip-path="url(#p2c5e771181)" style="fill: #0000f5; fill-opacity: 0.1"/>
    <path d="M 264.106413 20.998616 
L 242.655728 -24.3481 
L 244.606996 -37.819582 
L 266.177659 7.816627 
z
" clip-path="url(#p2c5e771181)" style="fill: #0000f5; fill-opacity: 0.1"/>
    <path d="M 197.803319 -101.700502 
L 176.210818 -147.311548 
L 177.777869 -161.4998 
L 199.491993 -115.596175 
z
" clip-path="url(#p2c5e771181)" style="fill: #0000f5; fill-opacity: 0.1"/>
    <path d="M 309.056309 98.533313 
L 287.660585 53.267215 
L 289.87623 40.222898 
L 311.39128 85.777644 
z
" clip-path="url(#p2c5e771181)" style="fill: #0000f5; fill-opacity: 0.1"/>
    <path d="M 242.655728 -24.3481 
L 221.117766 -69.87932 
L 222.948058 -83.642551 
L 244.606996 -37.819582 
z
" clip-path="url(#p2c5e771181)" style="fill: #0000f5; fill-opacity: 0.1"/>
    <path d="M 176.210818 -147.311548 
L 154.530432 -193.108236 
L 155.974854 -207.591343 
L 177.777869 -161.4998 
z
" clip-path="url(#p2c5e771181)" style="fill: #0000f5; fill-opacity: 0.1"/>
    <path d="M 354.158935 176.331454 
L 332.81867 131.146785 
L 335.300487 118.532632 
L 356.759416 164.00509 
z
" clip-path="url(#p2c5e771181)" style="fill: #0000f5; fill-opacity: 0.1"/>
    <path d="M 287.660585 53.267215 
L 266.177659 7.816627 
L 268.272983 -5.518594 
L 289.87623 40.222898 
z
" clip-path="url(#p2c5e771181)" style="fill: #0000f5; fill-opacity: 0.1"/>
    <path d="M 221.117766 -69.87932 
L 199.491993 -115.596175 
L 201.200302 -129.65343 
L 222.948058 -83.642551 
z
" clip-path="url(#p2c5e771181)" style="fill: #0000f5; fill-opacity: 0.1"/>
    <path d="M 332.81867 131.146785 
L 311.39128 85.777644 
L 313.753439 72.873445 
L 335.300487 118.532632 
z
" clip-path="url(#p2c5e771181)" style="fill: #0000f5; fill-opacity: 0.1"/>
    <path d="M 266.177659 7.816627 
L 244.606996 -37.819582 
L 246.580993 -51.447983 
L 268.272983 -5.518594 
z
" clip-path="url(#p2c5e771181)" style="fill: #0000f5; fill-opacity: 0.1"/>
    <path d="M 199.491993 -115.596175 
L 177.777869 -161.4998 
L 179.36318 -175.853375 
L 201.200302 -129.65343 
z
" clip-path="url(#p2c5e771181)" style="fill: #0000f5; fill-opacity: 0.1"/>
    <path d="M 311.39128 85.777644 
L 289.87623 40.222898 
L 292.117728 27.026377 
L 313.753439 72.873445 
z
" clip-path="url(#p2c5e771181)" style="fill: #0000f5; fill-opacity: 0.1"/>
    <path d="M 244.606996 -37.819582 
L 222.948058 -83.642551 
L 224.799714 -97.566429 
L 246.580993 -51.447983 
z
" clip-path="url(#p2c5e771181)" style="fill: #0000f5; fill-opacity: 0.1"/>
    <path d="M 177.777869 -161.4998 
L 155.974854 -207.591343 
L 157.436141 -222.243556 
L 179.36318 -175.853375 
z
" clip-path="url(#p2c5e771181)" style="fill: #0000f5; fill-opacity: 0.1"/>
    <path d="M 356.759416 164.00509 
L 335.300487 118.532632 
L 337.811313 105.771039 
L 359.390229 151.534947 
z
" clip-path="url(#p2c5e771181)" style="fill: #0000f5; fill-opacity: 0.1"/>
    <path d="M 289.87623 40.222898 
L 268.272983 -5.518594 
L 270.392805 -19.009735 
L 292.117728 27.026377 
z
" clip-path="url(#p2c5e771181)" style="fill: #0000f5; fill-opacity: 0.1"/>
    <path d="M 222.948058 -83.642551 
L 201.200302 -129.65343 
L 202.928592 -143.875102 
L 224.799714 -97.566429 
z
" clip-path="url(#p2c5e771181)" style="fill: #0000f5; fill-opacity: 0.1"/>
    <path d="M 335.300487 118.532632 
L 313.753439 72.873445 
L 316.143265 59.818104 
L 337.811313 105.771039 
z
" clip-path="url(#p2c5e771181)" style="fill: #0000f5; fill-opacity: 0.1"/>
    <path d="M 268.272983 -5.518594 
L 246.580993 -51.447983 
L 248.578118 -65.236061 
L 270.392805 -19.009735 
z
" clip-path="url(#p2c5e771181)" style="fill: #0000f5; fill-opacity: 0.1"/>
    <path d="M 201.200302 -129.65343 
L 179.36318 -175.853375 
L 180.967072 -190.375182 
L 202.928592 -143.875102 
z
" clip-path="url(#p2c5e771181)" style="fill: #0000f5; fill-opacity: 0.1"/>
    <path d="M 313.753439 72.873445 
L 292.117728 27.026377 
L 294.385534 13.67497 
L 316.143265 59.818104 
z
" clip-path="url(#p2c5e771181)" style="fill: #0000f5; fill-opacity: 0.1"/>
    <path d="M 246.580993 -51.447983 
L 224.799714 -97.566429 
L 226.673109 -111.653784 
L 248.578118 -65.236061 
z
" clip-path="url(#p2c5e771181)" style="fill: #0000f5; fill-opacity: 0.1"/>
    <path d="M 179.36318 -175.853375 
L 157.436141 -222.243556 
L 158.91459 -237.067856 
L 180.967072 -190.375182 
z
" clip-path="url(#p2c5e771181)" style="fill: #0000f5; fill-opacity: 0.1"/>
    <path d="M 359.390229 151.534947 
L 337.811313 105.771039 
L 340.351658 92.859407 
L 362.05191 138.918495 
z
" clip-path="url(#p2c5e771181)" style="fill: #0000f5; fill-opacity: 0.1"/>
    <path d="M 292.117728 27.026377 
L 270.392805 -19.009735 
L 272.53756 -32.659546 
L 294.385534 13.67497 
z
" clip-path="url(#p2c5e771181)" style="fill: #0000f5; fill-opacity: 0.1"/>
    <path d="M 224.799714 -97.566429 
L 202.928592 -143.875102 
L 204.677216 -158.264095 
L 226.673109 -111.653784 
z
" clip-path="url(#p2c5e771181)" style="fill: #0000f5; fill-opacity: 0.1"/>
    <path d="M 337.811313 105.771039 
L 316.143265 59.818104 
L 318.561247 46.608953 
L 340.351658 92.859407 
z
" clip-path="url(#p2c5e771181)" style="fill: #0000f5; fill-opacity: 0.1"/>
    <path d="M 270.392805 -19.009735 
L 248.578118 -65.236061 
L 250.598781 -79.18664 
L 272.53756 -32.659546 
z
" clip-path="url(#p2c5e771181)" style="fill: #0000f5; fill-opacity: 0.1"/>
    <path d="M 202.928592 -143.875102 
L 180.967072 -190.375182 
L 182.589873 -205.068193 
L 204.677216 -158.264095 
z
" clip-path="url(#p2c5e771181)" style="fill: #0000f5; fill-opacity: 0.1"/>
    <path d="M 316.143265 59.818104 
L 294.385534 13.67497 
L 296.680113 0.165937 
L 318.561247 46.608953 
z
" clip-path="url(#p2c5e771181)" style="fill: #0000f5; fill-opacity: 0.1"/>
    <path d="M 248.578118 -65.236061 
L 226.673109 -111.653784 
L 228.56863 -125.907512 
L 250.598781 -79.18664 
z
" clip-path="url(#p2c5e771181)" style="fill: #0000f5; fill-opacity: 0.1"/>
    <path d="M 180.967072 -190.375182 
L 158.91459 -237.067856 
L 160.410506 -252.067292 
L 182.589873 -205.068193 
z
" clip-path="url(#p2c5e771181)" style="fill: #0000f5; fill-opacity: 0.1"/>
    <path d="M 294.385534 13.67497 
L 272.53756 -32.659546 
L 274.707688 -46.470844 
L 296.680113 0.165937 
z
" clip-path="url(#p2c5e771181)" style="fill: #0000f5; fill-opacity: 0.1"/>
    <path d="M 226.673109 -111.653784 
L 204.677216 -158.264095 
L 206.446535 -172.823376 
L 228.56863 -125.907512 
z
" clip-path="url(#p2c5e771181)" style="fill: #0000f5; fill-opacity: 0.1"/>
    <path d="M 272.53756 -32.659546 
L 250.598781 -79.18664 
L 252.643399 -93.302607 
L 274.707688 -46.470844 
z
" clip-path="url(#p2c5e771181)" style="fill: #0000f5; fill-opacity: 0.1"/>
    <path d="M 204.677216 -158.264095 
L 182.589873 -205.068193 
L 184.231919 -219.935457 
L 206.446535 -172.823376 
z
" clip-path="url(#p2c5e771181)" style="fill: #0000f5; fill-opacity: 0.1"/>
    <path d="M 250.598781 -79.18664 
L 228.56863 -125.907512 
L 230.486669 -140.330577 
L 252.643399 -93.302607 
z
" clip-path="url(#p2c5e771181)" style="fill: #0000f5; fill-opacity: 0.1"/>
    <path d="M 182.589873 -205.068193 
L 160.410506 -252.067292 
L 161.9242 -267.244986 
L 184.231919 -219.935457 
z
" clip-path="url(#p2c5e771181)" style="fill: #0000f5; fill-opacity: 0.1"/>
    <path d="M 228.56863 -125.907512 
L 206.446535 -172.823376 
L 208.236917 -187.555989 
L 230.486669 -140.330577 
z
" clip-path="url(#p2c5e771181)" style="fill: #0000f5; fill-opacity: 0.1"/>
    <path d="M 206.446535 -172.823376 
L 184.231919 -219.935457 
L 185.893555 -234.980089 
L 208.236917 -187.555989 
z
" clip-path="url(#p2c5e771181)" style="fill: #0000f5; fill-opacity: 0.1"/>
    <path d="M 184.231919 -219.935457 
L 161.9242 -267.244986 
L 163.455991 -282.604134 
L 185.893555 -234.980089 
z
" clip-path="url(#p2c5e771181)" style="fill: #0000f5; fill-opacity: 0.1"/>
   </g>
   <g id="legend_1">
    <g id="patch_6">
     <path d="M 357.840076 67.305115 
L 396.2 67.305115 
Q 398.2 67.305115 398.2 65.305115 
L 398.2 7 
Q 398.2 5 396.2 5 
L 357.840076 5 
Q 355.840076 5 355.840076 7 
L 355.840076 65.305115 
Q 355.840076 67.305115 357.840076 67.305115 
z
" style="fill: #ffffff; opacity: 0.8; stroke: #cccccc; stroke-linejoin: miter"/>
    </g>
    <g id="line2d_25">
     <path d="M 359.840076 12.5 
L 369.840076 12.5 
L 379.840076 12.5 
" style="fill: none; stroke: #ff0000; stroke-width: 1.5; stroke-linecap: square"/>
    </g>
    <g id="text_21">
     <!-- $\vec{a}$ -->
     <g transform="translate(387.840076 16)scale(0.1 -0.1)">
      <defs>
       <path id="CMMI12-7e" d="M 3424 3835 
C 3347 3764 3110 3540 3110 3451 
C 3110 3387 3168 3329 3232 3329 
C 3290 3329 3315 3368 3360 3432 
C 3514 3624 3686 3745 3834 3828 
C 3898 3867 3942 3886 3942 3956 
C 3942 4014 3891 4046 3853 4078 
C 3674 4200 3629 4372 3610 4449 
C 3590 4500 3571 4577 3482 4577 
C 3443 4577 3366 4552 3366 4456 
C 3366 4398 3405 4244 3526 4072 
L 1376 4072 
C 1267 4072 1158 4072 1158 3950 
C 1158 3835 1274 3835 1376 3835 
L 3424 3835 
z
" transform="scale(0.015625)"/>
       <path id="CMMI12-61" d="M 1926 760 
C 1894 651 1894 639 1805 517 
C 1664 338 1382 64 1082 64 
C 819 64 672 300 672 677 
C 672 1028 870 1743 992 2012 
C 1210 2459 1510 2689 1760 2689 
C 2182 2689 2266 2165 2266 2114 
C 2266 2108 2246 2024 2240 2012 
L 1926 760 
z
M 2336 2395 
C 2266 2561 2093 2816 1760 2816 
C 1037 2816 256 1884 256 939 
C 256 307 627 -64 1062 -64 
C 1414 -64 1715 211 1894 422 
C 1958 45 2259 -64 2451 -64 
C 2643 -64 2797 51 2912 281 
C 3014 498 3104 888 3104 913 
C 3104 945 3078 971 3040 971 
C 2982 971 2976 939 2950 843 
C 2854 466 2733 64 2470 64 
C 2285 64 2272 230 2272 358 
C 2272 505 2291 575 2349 824 
C 2394 984 2426 1124 2477 1309 
C 2714 2267 2771 2497 2771 2535 
C 2771 2625 2701 2695 2605 2695 
C 2400 2695 2349 2472 2336 2395 
z
" transform="scale(0.015625)"/>
      </defs>
      <use xlink:href="#CMMI12-7e" transform="scale(0.996264)"/>
      <use xlink:href="#CMMI12-61" transform="translate(6.445738 0)scale(0.996264)"/>
     </g>
    </g>
    <g id="line2d_26">
     <path d="M 359.840076 27.24679 
L 369.840076 27.24679 
L 379.840076 27.24679 
" style="fill: none; stroke: #00ff00; stroke-width: 1.5; stroke-linecap: square"/>
    </g>
    <g id="text_22">
     <!-- $\vec{b}$ -->
     <g transform="translate(387.840076 30.74679)scale(0.1 -0.1)">
      <defs>
       <path id="CMMI12-62" d="M 1478 4257 
C 1485 4283 1498 4321 1498 4352 
C 1498 4416 1434 4416 1421 4416 
C 1414 4416 1184 4393 1069 4377 
C 960 4377 864 4358 749 4358 
C 595 4345 550 4339 550 4224 
C 550 4160 614 4160 678 4160 
C 1005 4160 1005 4103 1005 4040 
C 1005 3996 954 3811 928 3696 
L 774 3085 
C 710 2831 346 1387 320 1272 
C 288 1114 288 1005 288 922 
C 288 274 653 -64 1069 -64 
C 1811 -64 2579 888 2579 1814 
C 2579 2401 2246 2816 1766 2816 
C 1434 2816 1133 2542 1011 2414 
L 1478 4257 
z
M 1075 64 
C 870 64 646 217 646 715 
C 646 926 666 1047 781 1494 
C 800 1577 902 1986 928 2069 
C 941 2120 1318 2689 1754 2689 
C 2035 2689 2163 2408 2163 2076 
C 2163 1769 1984 1047 1824 715 
C 1664 370 1370 64 1075 64 
z
" transform="scale(0.015625)"/>
      </defs>
      <use xlink:href="#CMMI12-7e" transform="translate(0 26.29016)scale(0.996264)"/>
      <use xlink:href="#CMMI12-62" transform="translate(11.311737 0)scale(0.996264)"/>
     </g>
    </g>
    <g id="line2d_27">
     <path d="M 359.840076 41.183968 
L 369.840076 41.183968 
L 379.840076 41.183968 
" style="fill: none; stroke: #0016ff; stroke-width: 1.5; stroke-linecap: square"/>
    </g>
    <g id="text_23">
     <!-- $\vec{c}$ -->
     <g transform="translate(387.840076 44.683968)scale(0.1 -0.1)">
      <defs>
       <path id="CMMI12-63" d="M 2502 2431 
C 2381 2431 2323 2431 2234 2355 
C 2195 2323 2125 2227 2125 2125 
C 2125 1997 2221 1920 2342 1920 
C 2496 1920 2669 2044 2669 2292 
C 2669 2588 2374 2816 1933 2816 
C 1094 2816 256 1903 256 996 
C 256 441 602 -64 1254 -64 
C 2125 -64 2675 622 2675 706 
C 2675 744 2637 776 2611 776 
C 2592 776 2586 770 2528 713 
C 2118 162 1510 64 1267 64 
C 826 64 685 446 685 764 
C 685 988 794 1605 1024 2039 
C 1190 2338 1536 2682 1939 2682 
C 2022 2682 2374 2682 2502 2431 
z
" transform="scale(0.015625)"/>
      </defs>
      <use xlink:href="#CMMI12-7e" transform="scale(0.996264)"/>
      <use xlink:href="#CMMI12-63" transform="translate(5.638615 0)scale(0.996264)"/>
     </g>
    </g>
    <g id="line2d_28">
     <path d="M 359.840076 57.867937 
L 369.840076 57.867937 
L 379.840076 57.867937 
" style="fill: none; stroke: #f400ff; stroke-width: 1.5; stroke-linecap: square"/>
    </g>
    <g id="text_24">
     <!-- $\vec{f}$ -->
     <g transform="translate(387.840076 61.367937)scale(0.1 -0.1)">
      <defs>
       <path id="CMMI12-66" d="M 2854 2566 
C 2982 2566 3034 2566 3034 2688 
C 3034 2752 2982 2752 2867 2752 
L 2349 2752 
C 2470 3429 2560 3897 2611 4107 
C 2650 4265 2784 4416 2950 4416 
C 3085 4416 3219 4358 3283 4298 
C 3034 4272 2957 4082 2957 3969 
C 2957 3837 3053 3759 3174 3759 
C 3302 3759 3494 3870 3494 4119 
C 3494 4393 3226 4544 2944 4544 
C 2669 4544 2400 4334 2272 4078 
C 2157 3848 2093 3611 1946 2752 
L 1517 2752 
C 1395 2752 1331 2752 1331 2637 
C 1331 2566 1370 2566 1498 2566 
L 1907 2566 
C 1792 1976 1530 542 1382 -137 
C 1274 -689 1178 -1152 858 -1152 
C 838 -1152 653 -1152 538 -1031 
C 864 -1005 864 -726 864 -720 
C 864 -593 768 -517 646 -517 
C 518 -517 326 -625 326 -867 
C 326 -1140 608 -1280 858 -1280 
C 1510 -1280 1779 -118 1850 199 
C 1965 688 2278 2376 2310 2566 
L 2854 2566 
z
" transform="scale(0.015625)"/>
      </defs>
      <use xlink:href="#CMMI12-7e" transform="translate(13.568792 26.29016)scale(0.996264)"/>
      <use xlink:href="#CMMI12-66" transform="scale(0.996264)"/>
     </g>
    </g>
   </g>
  </g>
 </g>
 <defs>
  <clipPath id="p2c5e771181">
   <rect x="57.6" y="0" width="345.6" height="345.6"/>
  </clipPath>
 </defs>
</svg>
