<?xml version="1.0" encoding="utf-8" standalone="no"?>
<!DOCTYPE svg PUBLIC "-//W3C//DTD SVG 1.1//EN"
  "http://www.w3.org/Graphics/SVG/1.1/DTD/svg11.dtd">
<svg xmlns:xlink="http://www.w3.org/1999/xlink" width="460.8pt" height="345.6pt" viewBox="0 0 460.8 345.6" xmlns="http://www.w3.org/2000/svg" version="1.1">
 <metadata>
  <rdf:RDF xmlns:dc="http://purl.org/dc/elements/1.1/" xmlns:cc="http://creativecommons.org/ns#" xmlns:rdf="http://www.w3.org/1999/02/22-rdf-syntax-ns#">
   <cc:Work>
    <dc:type rdf:resource="http://purl.org/dc/dcmitype/StillImage"/>
    <dc:date>2022-07-12T15:50:55.744980</dc:date>
    <dc:format>image/svg+xml</dc:format>
    <dc:creator>
     <cc:Agent>
      <dc:title>Matplotlib v3.5.1, https://matplotlib.org/</dc:title>
     </cc:Agent>
    </dc:creator>
   </cc:Work>
  </rdf:RDF>
 </metadata>
 <defs>
  <style type="text/css">*{stroke-linejoin: round; stroke-linecap: butt}</style>
 </defs>
 <g id="figure_1">
  <g id="patch_1">
   <path d="M 0 345.6 
L 460.8 345.6 
L 460.8 0 
L 0 0 
z
" style="fill: #ffffff"/>
  </g>
  <g id="patch_2">
   <path d="M 57.6 345.6 
L 403.2 345.6 
L 403.2 0 
L 57.6 0 
z
" style="fill: #ffffff"/>
  </g>
  <g id="pane3d_1">
   <g id="patch_3">
    <path d="M 323.747736 246.273888 
L 367.362626 255.977835 
L 367.362626 80.281625 
L 323.747736 89.985572 
" style="fill: #f2f2f2; opacity: 0.5; stroke: #f2f2f2; stroke-linejoin: miter"/>
   </g>
  </g>
  <g id="pane3d_2">
   <g id="patch_4">
    <path d="M 323.747736 246.273888 
L 115.535578 247.50617 
L 115.535578 88.75329 
L 323.747736 89.985572 
" style="fill: #e6e6e6; opacity: 0.5; stroke: #e6e6e6; stroke-linejoin: miter"/>
   </g>
  </g>
  <g id="pane3d_3">
   <g id="patch_5">
    <path d="M 323.747736 246.273888 
L 115.535578 247.50617 
L 133.61011 257.538225 
L 367.362626 255.977835 
" style="fill: #ececec; opacity: 0.5; stroke: #ececec; stroke-linejoin: miter"/>
   </g>
  </g>
  <g id="axis3d_1">
   <g id="line2d_1">
    <path d="M 367.362626 255.977835 
L 133.61011 257.538225 
" style="fill: none; stroke: #000000; stroke-width: 0.8; stroke-linecap: square"/>
   </g>
   <g id="text_1">
    <!-- x -->
    <g transform="translate(252.885451 287.358413)scale(0.16 -0.16)">
     <defs>
      <path id="CMSS17-78" d="M 1587 1414 
L 2656 2739 
L 2099 2739 
L 1363 1777 
L 602 2739 
L 32 2739 
L 1139 1414 
L 0 0 
L 563 0 
L 1363 1121 
L 2195 0 
L 2758 0 
L 1587 1414 
z
" transform="scale(0.015625)"/>
     </defs>
     <use xlink:href="#CMSS17-78" transform="scale(0.996264)"/>
    </g>
   </g>
   <g id="Line3DCollection_1">
    <path d="M 362.767562 256.008509 
L 319.646868 246.298158 
L 319.646868 89.961301 
" style="fill: none; stroke: #b0b0b0; stroke-width: 0.8"/>
    <path d="M 318.491134 256.304071 
L 280.148533 246.531925 
L 280.148533 89.727534 
" style="fill: none; stroke: #b0b0b0; stroke-width: 0.8"/>
    <path d="M 273.915871 256.601629 
L 240.413246 246.767094 
L 240.413246 89.492365 
" style="fill: none; stroke: #b0b0b0; stroke-width: 0.8"/>
    <path d="M 229.038738 256.901201 
L 200.438868 247.003679 
L 200.438868 89.255781 
" style="fill: none; stroke: #b0b0b0; stroke-width: 0.8"/>
    <path d="M 183.856657 257.202809 
L 160.223234 247.241691 
L 160.223234 89.017769 
" style="fill: none; stroke: #b0b0b0; stroke-width: 0.8"/>
    <path d="M 138.36651 257.506474 
L 119.764155 247.481144 
L 119.764155 88.778316 
" style="fill: none; stroke: #b0b0b0; stroke-width: 0.8"/>
   </g>
   <g id="xtick_1">
    <g id="line2d_2">
     <path d="M 362.380129 255.921263 
L 363.544744 256.183522 
" style="fill: none; stroke: #000000; stroke-width: 0.8; stroke-linecap: square"/>
    </g>
    <g id="text_2">
     <!-- $\mathdefault{0}$ -->
     <g transform="translate(363.398832 274.948823)scale(0.1 -0.1)">
      <defs>
       <path id="CMR17-30" d="M 2688 2025 
C 2688 2416 2682 3080 2413 3591 
C 2176 4039 1798 4198 1466 4198 
C 1158 4198 768 4058 525 3597 
C 269 3118 243 2524 243 2025 
C 243 1661 250 1106 448 619 
C 723 -39 1216 -128 1466 -128 
C 1760 -128 2208 -7 2470 600 
C 2662 1042 2688 1559 2688 2025 
z
M 1466 -26 
C 1056 -26 813 325 723 812 
C 653 1188 653 1738 653 2096 
C 653 2588 653 2997 736 3387 
C 858 3929 1216 4096 1466 4096 
C 1728 4096 2067 3923 2189 3400 
C 2272 3036 2278 2607 2278 2096 
C 2278 1680 2278 1169 2202 792 
C 2067 95 1690 -26 1466 -26 
z
" transform="scale(0.015625)"/>
      </defs>
      <use xlink:href="#CMR17-30" transform="scale(0.996264)"/>
     </g>
    </g>
   </g>
   <g id="xtick_2">
    <g id="line2d_3">
     <path d="M 318.146504 256.216238 
L 319.182459 256.480265 
" style="fill: none; stroke: #000000; stroke-width: 0.8; stroke-linecap: square"/>
    </g>
    <g id="text_3">
     <!-- $\mathdefault{1}$ -->
     <g transform="translate(318.777577 275.287516)scale(0.1 -0.1)">
      <defs>
       <path id="CMR17-31" d="M 1702 4058 
C 1702 4192 1696 4192 1606 4192 
C 1357 3916 979 3827 621 3827 
C 602 3827 570 3827 563 3808 
C 557 3795 557 3782 557 3648 
C 755 3648 1088 3686 1344 3839 
L 1344 461 
C 1344 236 1331 160 781 160 
L 589 160 
L 589 0 
C 896 0 1216 0 1523 0 
C 1830 0 2150 0 2458 0 
L 2458 160 
L 2266 160 
C 1715 160 1702 230 1702 458 
L 1702 4058 
z
" transform="scale(0.015625)"/>
      </defs>
      <use xlink:href="#CMR17-31" transform="scale(0.996264)"/>
     </g>
    </g>
   </g>
   <g id="xtick_3">
    <g id="line2d_4">
     <path d="M 273.614632 256.513201 
L 274.520161 256.779015 
" style="fill: none; stroke: #000000; stroke-width: 0.8; stroke-linecap: square"/>
    </g>
    <g id="text_4">
     <!-- $\mathdefault{2}$ -->
     <g transform="translate(273.852733 275.628513)scale(0.1 -0.1)">
      <defs>
       <path id="CMR17-32" d="M 2669 989 
L 2554 989 
C 2490 536 2438 459 2413 420 
C 2381 369 1920 369 1830 369 
L 602 369 
C 832 619 1280 1072 1824 1597 
C 2214 1967 2669 2402 2669 3035 
C 2669 3790 2067 4224 1395 4224 
C 691 4224 262 3604 262 3030 
C 262 2780 448 2748 525 2748 
C 589 2748 781 2787 781 3010 
C 781 3207 614 3264 525 3264 
C 486 3264 448 3258 422 3245 
C 544 3790 915 4058 1306 4058 
C 1862 4058 2227 3617 2227 3035 
C 2227 2479 1901 2000 1536 1584 
L 262 146 
L 262 0 
L 2515 0 
L 2669 989 
z
" transform="scale(0.015625)"/>
      </defs>
      <use xlink:href="#CMR17-32" transform="scale(0.996264)"/>
     </g>
    </g>
   </g>
   <g id="xtick_4">
    <g id="line2d_5">
     <path d="M 228.781486 256.812174 
L 229.554794 257.079792 
" style="fill: none; stroke: #000000; stroke-width: 0.8; stroke-linecap: square"/>
    </g>
    <g id="text_5">
     <!-- $\mathdefault{3}$ -->
     <g transform="translate(228.621193 275.971837)scale(0.1 -0.1)">
      <defs>
       <path id="CMR17-33" d="M 1414 2157 
C 1984 2157 2234 1662 2234 1090 
C 2234 320 1824 25 1453 25 
C 1114 25 563 194 390 693 
C 422 680 454 680 486 680 
C 640 680 755 782 755 948 
C 755 1133 614 1216 486 1216 
C 378 1216 211 1165 211 926 
C 211 335 787 -128 1466 -128 
C 2176 -128 2720 430 2720 1085 
C 2720 1707 2208 2157 1600 2227 
C 2086 2328 2554 2756 2554 3329 
C 2554 3820 2048 4179 1472 4179 
C 890 4179 378 3829 378 3329 
C 378 3110 544 3072 627 3072 
C 762 3072 877 3155 877 3321 
C 877 3486 762 3569 627 3569 
C 602 3569 570 3569 544 3557 
C 730 3959 1235 4032 1459 4032 
C 1683 4032 2106 3925 2106 3320 
C 2106 3143 2080 2828 1862 2550 
C 1670 2304 1453 2304 1242 2284 
C 1210 2284 1062 2269 1037 2269 
C 992 2263 966 2257 966 2208 
C 966 2163 973 2157 1101 2157 
L 1414 2157 
z
" transform="scale(0.015625)"/>
      </defs>
      <use xlink:href="#CMR17-33" transform="scale(0.996264)"/>
     </g>
    </g>
   </g>
   <g id="xtick_5">
    <g id="line2d_6">
     <path d="M 183.643998 257.113177 
L 184.283263 257.382617 
" style="fill: none; stroke: #000000; stroke-width: 0.8; stroke-linecap: square"/>
    </g>
    <g id="text_6">
     <!-- $\mathdefault{4}$ -->
     <g transform="translate(183.079805 276.317514)scale(0.1 -0.1)">
      <defs>
       <path id="CMR17-34" d="M 2150 4122 
C 2150 4256 2144 4256 2029 4256 
L 128 1254 
L 128 1088 
L 1779 1088 
L 1779 457 
C 1779 224 1766 160 1318 160 
L 1197 160 
L 1197 0 
C 1402 0 1747 0 1965 0 
C 2182 0 2528 0 2733 0 
L 2733 160 
L 2611 160 
C 2163 160 2150 224 2150 457 
L 2150 1088 
L 2803 1088 
L 2803 1254 
L 2150 1254 
L 2150 4122 
z
M 1798 3703 
L 1798 1254 
L 256 1254 
L 1798 3703 
z
" transform="scale(0.015625)"/>
      </defs>
      <use xlink:href="#CMR17-34" transform="scale(0.996264)"/>
     </g>
    </g>
   </g>
   <g id="xtick_6">
    <g id="line2d_7">
     <path d="M 138.199059 257.41623 
L 138.702431 257.687511 
" style="fill: none; stroke: #000000; stroke-width: 0.8; stroke-linecap: square"/>
    </g>
    <g id="text_7">
     <!-- $\mathdefault{5}$ -->
     <g transform="translate(137.225374 276.665567)scale(0.1 -0.1)">
      <defs>
       <path id="CMR17-35" d="M 730 3692 
C 794 3666 1056 3584 1325 3584 
C 1920 3584 2246 3911 2432 4100 
C 2432 4157 2432 4192 2394 4192 
C 2387 4192 2374 4192 2323 4163 
C 2099 4058 1837 3973 1517 3973 
C 1325 3973 1037 3999 723 4139 
C 653 4171 640 4171 634 4171 
C 602 4171 595 4164 595 4037 
L 595 2203 
C 595 2089 595 2057 659 2057 
C 691 2057 704 2070 736 2114 
C 941 2401 1222 2522 1542 2522 
C 1766 2522 2246 2382 2246 1289 
C 2246 1085 2246 715 2054 421 
C 1894 159 1645 25 1370 25 
C 947 25 518 320 403 814 
C 429 807 480 795 506 795 
C 589 795 749 840 749 1038 
C 749 1210 627 1280 506 1280 
C 358 1280 262 1190 262 1011 
C 262 454 704 -128 1382 -128 
C 2042 -128 2669 440 2669 1264 
C 2669 2030 2170 2624 1549 2624 
C 1222 2624 947 2503 730 2274 
L 730 3692 
z
" transform="scale(0.015625)"/>
      </defs>
      <use xlink:href="#CMR17-35" transform="scale(0.996264)"/>
     </g>
    </g>
   </g>
  </g>
  <g id="axis3d_2">
   <g id="line2d_8">
    <path d="M 115.535578 247.50617 
L 133.61011 257.538225 
" style="fill: none; stroke: #000000; stroke-width: 0.8; stroke-linecap: square"/>
   </g>
   <g id="text_8">
    <!-- y -->
    <g transform="translate(89.292883 279.818565)scale(0.16 -0.16)">
     <defs>
      <path id="CMSS17-79" d="M 2675 2752 
L 2176 2752 
C 1632 1294 1446 702 1434 383 
L 1427 383 
C 1408 696 1126 1460 902 2007 
L 602 2752 
L 83 2752 
L 1216 13 
C 1146 -178 1043 -465 1011 -529 
C 870 -885 774 -885 672 -885 
C 646 -885 442 -885 211 -809 
L 250 -1229 
C 410 -1261 570 -1280 685 -1280 
C 845 -1280 1165 -1280 1459 -497 
L 2675 2752 
z
" transform="scale(0.015625)"/>
     </defs>
     <use xlink:href="#CMSS17-79" transform="scale(0.996264)"/>
    </g>
   </g>
   <g id="Line3DCollection_2">
    <path d="M 328.306612 88.97126 
L 328.306612 247.288199 
L 117.421517 248.552938 
" style="fill: none; stroke: #b0b0b0; stroke-width: 0.8"/>
    <path d="M 336.118104 87.233269 
L 336.118104 249.026191 
L 120.654811 250.34754 
" style="fill: none; stroke: #b0b0b0; stroke-width: 0.8"/>
    <path d="M 344.280313 85.417246 
L 344.280313 250.842214 
L 124.035697 252.22406 
" style="fill: none; stroke: #b0b0b0; stroke-width: 0.8"/>
    <path d="M 352.817399 83.517816 
L 352.817399 252.741644 
L 127.574516 254.18824 
" style="fill: none; stroke: #b0b0b0; stroke-width: 0.8"/>
    <path d="M 361.755797 81.529097 
L 361.755797 254.730362 
L 131.282601 256.246369 
" style="fill: none; stroke: #b0b0b0; stroke-width: 0.8"/>
   </g>
   <g id="xtick_7">
    <g id="line2d_9">
     <path d="M 119.135333 248.54266 
L 113.992569 248.573502 
" style="fill: none; stroke: #000000; stroke-width: 0.8; stroke-linecap: square"/>
    </g>
    <g id="text_9">
     <!-- $\mathdefault{−4}$ -->
     <g transform="translate(97.35401 265.840413)scale(0.1 -0.1)">
      <defs>
       <path id="CMSY10-0" d="M 4218 1472 
C 4326 1472 4442 1472 4442 1600 
C 4442 1728 4326 1728 4218 1728 
L 755 1728 
C 646 1728 531 1728 531 1600 
C 531 1472 646 1472 755 1472 
L 4218 1472 
z
" transform="scale(0.015625)"/>
      </defs>
      <use xlink:href="#CMSY10-0" transform="scale(0.996264)"/>
      <use xlink:href="#CMR17-34" transform="translate(77.487468 0)scale(0.996264)"/>
     </g>
    </g>
   </g>
   <g id="xtick_8">
    <g id="line2d_10">
     <path d="M 122.406443 250.336798 
L 117.150173 250.369032 
" style="fill: none; stroke: #000000; stroke-width: 0.8; stroke-linecap: square"/>
    </g>
    <g id="text_10">
     <!-- $\mathdefault{−2}$ -->
     <g transform="translate(100.284599 267.86851)scale(0.1 -0.1)">
      <use xlink:href="#CMSY10-0" transform="scale(0.996264)"/>
      <use xlink:href="#CMR17-32" transform="translate(77.487468 0)scale(0.996264)"/>
     </g>
    </g>
   </g>
   <g id="xtick_9">
    <g id="line2d_11">
     <path d="M 125.82685 252.212822 
L 120.451952 252.246545 
" style="fill: none; stroke: #000000; stroke-width: 0.8; stroke-linecap: square"/>
    </g>
    <g id="text_11">
     <!-- $\mathdefault{0}$ -->
     <g transform="translate(107.223477 269.989282)scale(0.1 -0.1)">
      <use xlink:href="#CMR17-30" transform="scale(0.996264)"/>
     </g>
    </g>
   </g>
   <g id="xtick_10">
    <g id="line2d_12">
     <path d="M 129.407016 254.176471 
L 123.908012 254.211788 
" style="fill: none; stroke: #000000; stroke-width: 0.8; stroke-linecap: square"/>
    </g>
    <g id="text_12">
     <!-- $\mathdefault{2}$ -->
     <g transform="translate(110.431294 272.209233)scale(0.1 -0.1)">
      <use xlink:href="#CMR17-32" transform="scale(0.996264)"/>
     </g>
    </g>
   </g>
   <g id="xtick_11">
    <g id="line2d_13">
     <path d="M 133.1584 256.23403 
L 127.529425 256.271056 
" style="fill: none; stroke: #000000; stroke-width: 0.8; stroke-linecap: square"/>
    </g>
    <g id="text_13">
     <!-- $\mathdefault{4}$ -->
     <g transform="translate(113.792715 274.535484)scale(0.1 -0.1)">
      <use xlink:href="#CMR17-34" transform="scale(0.996264)"/>
     </g>
    </g>
   </g>
  </g>
  <g id="axis3d_3">
   <g id="line2d_14">
    <path d="M 115.535578 247.50617 
L 115.535578 88.75329 
" style="fill: none; stroke: #000000; stroke-width: 0.8; stroke-linecap: square"/>
   </g>
   <g id="text_14">
    <!-- z -->
    <g transform="translate(80.964797 172.114786)scale(0.16 -0.16)">
     <defs>
      <path id="CMSS17-7a" d="M 2400 2502 
L 2400 2750 
L 250 2750 
L 250 2368 
L 1069 2368 
C 1146 2368 1222 2368 1299 2368 
L 1747 2368 
L 166 261 
L 166 0 
L 2419 0 
L 2419 395 
L 1549 395 
C 1472 395 1395 395 1318 395 
L 826 395 
L 2400 2502 
z
" transform="scale(0.015625)"/>
     </defs>
     <use xlink:href="#CMSS17-7a" transform="scale(0.996264)"/>
    </g>
   </g>
   <g id="Line3DCollection_3">
    <path d="M 115.535578 244.331112 
L 323.747736 243.148121 
L 367.362626 252.463911 
" style="fill: none; stroke: #b0b0b0; stroke-width: 0.8"/>
    <path d="M 115.535578 213.850559 
L 323.747736 213.140765 
L 367.362626 218.730238 
" style="fill: none; stroke: #b0b0b0; stroke-width: 0.8"/>
    <path d="M 115.535578 183.370006 
L 323.747736 183.133408 
L 367.362626 184.996566 
" style="fill: none; stroke: #b0b0b0; stroke-width: 0.8"/>
    <path d="M 115.535578 152.889453 
L 323.747736 153.126051 
L 367.362626 151.262894 
" style="fill: none; stroke: #b0b0b0; stroke-width: 0.8"/>
    <path d="M 115.535578 122.4089 
L 323.747736 123.118695 
L 367.362626 117.529221 
" style="fill: none; stroke: #b0b0b0; stroke-width: 0.8"/>
    <path d="M 115.535578 91.928347 
L 323.747736 93.111338 
L 367.362626 83.795549 
" style="fill: none; stroke: #b0b0b0; stroke-width: 0.8"/>
   </g>
   <g id="xtick_12">
    <g id="line2d_15">
     <path d="M 117.227328 244.3215 
L 112.150795 244.350344 
" style="fill: none; stroke: #000000; stroke-width: 0.8; stroke-linecap: square"/>
    </g>
    <g id="text_15">
     <!-- $\mathdefault{0}$ -->
     <g transform="translate(98.596522 250.782998)scale(0.1 -0.1)">
      <use xlink:href="#CMR17-30" transform="scale(0.996264)"/>
     </g>
    </g>
   </g>
   <g id="xtick_13">
    <g id="line2d_16">
     <path d="M 117.227328 213.844792 
L 112.150795 213.862098 
" style="fill: none; stroke: #000000; stroke-width: 0.8; stroke-linecap: square"/>
    </g>
    <g id="text_16">
     <!-- $\mathdefault{1}$ -->
     <g transform="translate(98.596522 220.48909)scale(0.1 -0.1)">
      <use xlink:href="#CMR17-31" transform="scale(0.996264)"/>
     </g>
    </g>
   </g>
   <g id="xtick_14">
    <g id="line2d_17">
     <path d="M 117.227328 183.368084 
L 112.150795 183.373852 
" style="fill: none; stroke: #000000; stroke-width: 0.8; stroke-linecap: square"/>
    </g>
    <g id="text_17">
     <!-- $\mathdefault{2}$ -->
     <g transform="translate(98.596522 190.195182)scale(0.1 -0.1)">
      <use xlink:href="#CMR17-32" transform="scale(0.996264)"/>
     </g>
    </g>
   </g>
   <g id="xtick_15">
    <g id="line2d_18">
     <path d="M 117.227328 152.891376 
L 112.150795 152.885607 
" style="fill: none; stroke: #000000; stroke-width: 0.8; stroke-linecap: square"/>
    </g>
    <g id="text_18">
     <!-- $\mathdefault{3}$ -->
     <g transform="translate(98.596522 159.901274)scale(0.1 -0.1)">
      <use xlink:href="#CMR17-33" transform="scale(0.996264)"/>
     </g>
    </g>
   </g>
   <g id="xtick_16">
    <g id="line2d_19">
     <path d="M 117.227328 122.414667 
L 112.150795 122.397361 
" style="fill: none; stroke: #000000; stroke-width: 0.8; stroke-linecap: square"/>
    </g>
    <g id="text_19">
     <!-- $\mathdefault{4}$ -->
     <g transform="translate(98.596522 129.607366)scale(0.1 -0.1)">
      <use xlink:href="#CMR17-34" transform="scale(0.996264)"/>
     </g>
    </g>
   </g>
   <g id="xtick_17">
    <g id="line2d_20">
     <path d="M 117.227328 91.937959 
L 112.150795 91.909116 
" style="fill: none; stroke: #000000; stroke-width: 0.8; stroke-linecap: square"/>
    </g>
    <g id="text_20">
     <!-- $\mathdefault{5}$ -->
     <g transform="translate(98.596522 99.313459)scale(0.1 -0.1)">
      <use xlink:href="#CMR17-35" transform="scale(0.996264)"/>
     </g>
    </g>
   </g>
  </g>
  <g id="axes_1">
   <g id="line2d_21">
    <path d="M 339.946378 247.559818 
L 309.584684 85.661498 
" clip-path="url(#pe5a466a72c)" style="fill: none; stroke: #ff0000; stroke-width: 1.5; stroke-linecap: square"/>
   </g>
   <g id="line2d_22">
    <path d="M 339.946378 247.559818 
L 249.910165 121.228849 
" clip-path="url(#pe5a466a72c)" style="fill: none; stroke: #00ff00; stroke-width: 1.5; stroke-linecap: square"/>
   </g>
   <g id="line2d_23">
    <path d="M 339.946378 247.559818 
L 234.392779 -1 
" clip-path="url(#pe5a466a72c)" style="fill: none; stroke: #0016ff; stroke-width: 1.5; stroke-linecap: square"/>
   </g>
   <g id="line2d_24">
    <path d="M 339.946378 247.559818 
L 123.350781 152.523135 
" clip-path="url(#pe5a466a72c)" style="fill: none; stroke: #f400ff; stroke-width: 1.5; stroke-linecap: square"/>
   </g>
   <g id="Poly3DCollection_1">
    <path d="M 320.415687 356.149471 
L 300.653415 315.004577 
L 302.409577 304.432126 
L 322.274821 345.81278 
z
" clip-path="url(#pe5a466a72c)" style="fill: #0000f5; fill-opacity: 0.1"/>
    <path d="M 300.653415 315.004577 
L 280.831912 273.736363 
L 282.484474 262.926781 
L 302.409577 304.432126 
z
" clip-path="url(#pe5a466a72c)" style="fill: #0000f5; fill-opacity: 0.1"/>
    <path d="M 280.831912 273.736363 
L 260.95091 232.344274 
L 262.499241 221.29618 
L 282.484474 262.926781 
z
" clip-path="url(#pe5a466a72c)" style="fill: #0000f5; fill-opacity: 0.1"/>
    <path d="M 260.95091 232.344274 
L 241.010142 190.827753 
L 242.453605 179.539757 
L 262.499241 221.29618 
z
" clip-path="url(#pe5a466a72c)" style="fill: #0000f5; fill-opacity: 0.1"/>
    <path d="M 322.274821 345.81278 
L 302.409577 304.432126 
L 304.184638 293.745897 
L 324.153932 335.365017 
z
" clip-path="url(#pe5a466a72c)" style="fill: #0000f5; fill-opacity: 0.1"/>
    <path d="M 241.010142 190.827753 
L 221.009338 149.186236 
L 222.347292 137.65694 
L 242.453605 179.539757 
z
" clip-path="url(#pe5a466a72c)" style="fill: #0000f5; fill-opacity: 0.1"/>
    <path d="M 302.409577 304.432126 
L 282.484474 262.926781 
L 284.154848 252.000693 
L 304.184638 293.745897 
z
" clip-path="url(#pe5a466a72c)" style="fill: #0000f5; fill-opacity: 0.1"/>
    <path d="M 221.009338 149.186236 
L 200.948227 107.419159 
L 202.180026 95.647153 
L 222.347292 137.65694 
z
" clip-path="url(#pe5a466a72c)" style="fill: #0000f5; fill-opacity: 0.1"/>
    <path d="M 282.484474 262.926781 
L 262.499241 221.29618 
L 264.064285 210.128829 
L 284.154848 252.000693 
z
" clip-path="url(#pe5a466a72c)" style="fill: #0000f5; fill-opacity: 0.1"/>
    <path d="M 200.948227 107.419159 
L 180.826534 65.525953 
L 181.95153 53.509819 
L 202.180026 95.647153 
z
" clip-path="url(#pe5a466a72c)" style="fill: #0000f5; fill-opacity: 0.1"/>
    <path d="M 262.499241 221.29618 
L 242.453605 179.539757 
L 243.912673 168.12973 
L 264.064285 210.128829 
z
" clip-path="url(#pe5a466a72c)" style="fill: #0000f5; fill-opacity: 0.1"/>
    <path d="M 180.826534 65.525953 
L 160.643985 23.506045 
L 161.661524 11.244356 
L 181.95153 53.509819 
z
" clip-path="url(#pe5a466a72c)" style="fill: #0000f5; fill-opacity: 0.1"/>
    <path d="M 324.153932 335.365017 
L 304.184638 293.745897 
L 305.978906 282.944045 
L 326.053344 324.804381 
z
" clip-path="url(#pe5a466a72c)" style="fill: #0000f5; fill-opacity: 0.1"/>
    <path d="M 242.453605 179.539757 
L 222.347292 137.65694 
L 223.699732 126.002813 
L 243.912673 168.12973 
z
" clip-path="url(#pe5a466a72c)" style="fill: #0000f5; fill-opacity: 0.1"/>
    <path d="M 160.643985 23.506045 
L 140.400304 -18.64114 
L 141.309727 -31.149821 
L 161.661524 11.244356 
z
" clip-path="url(#pe5a466a72c)" style="fill: #0000f5; fill-opacity: 0.1"/>
    <path d="M 304.184638 293.745897 
L 284.154848 252.000693 
L 285.843322 240.956205 
L 305.978906 282.944045 
z
" clip-path="url(#pe5a466a72c)" style="fill: #0000f5; fill-opacity: 0.1"/>
    <path d="M 222.347292 137.65694 
L 202.180026 95.647153 
L 203.425184 83.747495 
L 223.699732 126.002813 
z
" clip-path="url(#pe5a466a72c)" style="fill: #0000f5; fill-opacity: 0.1"/>
    <path d="M 284.154848 252.000693 
L 264.064285 210.128829 
L 265.646314 198.84028 
L 285.843322 240.956205 
z
" clip-path="url(#pe5a466a72c)" style="fill: #0000f5; fill-opacity: 0.1"/>
    <path d="M 202.180026 95.647153 
L 181.95153 53.509819 
L 183.088745 41.363187 
L 203.425184 83.747495 
z
" clip-path="url(#pe5a466a72c)" style="fill: #0000f5; fill-opacity: 0.1"/>
    <path d="M 264.064285 210.128829 
L 243.912673 168.12973 
L 245.387599 156.595681 
L 265.646314 198.84028 
z
" clip-path="url(#pe5a466a72c)" style="fill: #0000f5; fill-opacity: 0.1"/>
    <path d="M 181.95153 53.509819 
L 161.661524 11.244356 
L 162.690131 -1.150702 
L 183.088745 41.363187 
z
" clip-path="url(#pe5a466a72c)" style="fill: #0000f5; fill-opacity: 0.1"/>
    <path d="M 326.053344 324.804381 
L 305.978906 282.944045 
L 307.792693 272.024681 
L 327.973388 314.129033 
z
" clip-path="url(#pe5a466a72c)" style="fill: #0000f5; fill-opacity: 0.1"/>
    <path d="M 243.912673 168.12973 
L 223.699732 126.002813 
L 225.066895 114.221818 
L 245.387599 156.595681 
z
" clip-path="url(#pe5a466a72c)" style="fill: #0000f5; fill-opacity: 0.1"/>
    <path d="M 161.661524 11.244356 
L 141.309727 -31.149821 
L 142.229058 -43.794766 
L 162.690131 -1.150702 
z
" clip-path="url(#pe5a466a72c)" style="fill: #0000f5; fill-opacity: 0.1"/>
    <path d="M 305.978906 282.944045 
L 285.843322 240.956205 
L 287.550194 229.791384 
L 307.792693 272.024681 
z
" clip-path="url(#pe5a466a72c)" style="fill: #0000f5; fill-opacity: 0.1"/>
    <path d="M 223.699732 126.002813 
L 203.425184 83.747495 
L 204.683917 71.718096 
L 225.066895 114.221818 
z
" clip-path="url(#pe5a466a72c)" style="fill: #0000f5; fill-opacity: 0.1"/>
    <path d="M 285.843322 240.956205 
L 265.646314 198.84028 
L 267.245607 187.428548 
L 287.550194 229.791384 
z
" clip-path="url(#pe5a466a72c)" style="fill: #0000f5; fill-opacity: 0.1"/>
    <path d="M 203.425184 83.747495 
L 183.088745 41.363187 
L 184.238377 29.083919 
L 204.683917 71.718096 
z
" clip-path="url(#pe5a466a72c)" style="fill: #0000f5; fill-opacity: 0.1"/>
    <path d="M 265.646314 198.84028 
L 245.387599 156.595681 
L 246.878646 144.935577 
L 267.245607 187.428548 
z
" clip-path="url(#pe5a466a72c)" style="fill: #0000f5; fill-opacity: 0.1"/>
    <path d="M 183.088745 41.363187 
L 162.690131 -1.150702 
L 163.729987 -13.681316 
L 184.238377 29.083919 
z
" clip-path="url(#pe5a466a72c)" style="fill: #0000f5; fill-opacity: 0.1"/>
    <path d="M 327.973388 314.129033 
L 307.792693 272.024681 
L 309.626319 260.985878 
L 329.914402 303.337095 
z
" clip-path="url(#pe5a466a72c)" style="fill: #0000f5; fill-opacity: 0.1"/>
    <path d="M 245.387599 156.595681 
L 225.066895 114.221818 
L 226.449023 102.311871 
L 246.878646 144.935577 
z
" clip-path="url(#pe5a466a72c)" style="fill: #0000f5; fill-opacity: 0.1"/>
    <path d="M 162.690131 -1.150702 
L 142.229058 -43.794766 
L 143.158458 -56.578214 
L 163.729987 -13.681316 
z
" clip-path="url(#pe5a466a72c)" style="fill: #0000f5; fill-opacity: 0.1"/>
    <path d="M 307.792693 272.024681 
L 287.550194 229.791384 
L 289.275764 218.50425 
L 309.626319 260.985878 
z
" clip-path="url(#pe5a466a72c)" style="fill: #0000f5; fill-opacity: 0.1"/>
    <path d="M 225.066895 114.221818 
L 204.683917 71.718096 
L 205.956448 59.556825 
L 226.449023 102.311871 
z
" clip-path="url(#pe5a466a72c)" style="fill: #0000f5; fill-opacity: 0.1"/>
    <path d="M 287.550194 229.791384 
L 267.245607 187.428548 
L 268.862447 175.891606 
L 289.275764 218.50425 
z
" clip-path="url(#pe5a466a72c)" style="fill: #0000f5; fill-opacity: 0.1"/>
    <path d="M 204.683917 71.718096 
L 184.238377 29.083919 
L 185.400631 16.669831 
L 205.956448 59.556825 
z
" clip-path="url(#pe5a466a72c)" style="fill: #0000f5; fill-opacity: 0.1"/>
    <path d="M 267.245607 187.428548 
L 246.878646 144.935577 
L 248.386077 133.147341 
L 268.862447 175.891606 
z
" clip-path="url(#pe5a466a72c)" style="fill: #0000f5; fill-opacity: 0.1"/>
    <path d="M 184.238377 29.083919 
L 163.729987 -13.681316 
L 164.781278 -26.349723 
L 185.400631 16.669831 
z
" clip-path="url(#pe5a466a72c)" style="fill: #0000f5; fill-opacity: 0.1"/>
    <path d="M 329.914402 303.337095 
L 309.626319 260.985878 
L 311.480113 249.825666 
L 331.876731 292.426646 
z
" clip-path="url(#pe5a466a72c)" style="fill: #0000f5; fill-opacity: 0.1"/>
    <path d="M 246.878646 144.935577 
L 226.449023 102.311871 
L 227.846362 90.270844 
L 248.386077 133.147341 
z
" clip-path="url(#pe5a466a72c)" style="fill: #0000f5; fill-opacity: 0.1"/>
    <path d="M 163.729987 -13.681316 
L 143.158458 -56.578214 
L 144.098094 -69.502452 
L 164.781278 -26.349723 
z
" clip-path="url(#pe5a466a72c)" style="fill: #0000f5; fill-opacity: 0.1"/>
    <path d="M 309.626319 260.985878 
L 289.275764 218.50425 
L 291.020342 207.092783 
L 311.480113 249.825666 
z
" clip-path="url(#pe5a466a72c)" style="fill: #0000f5; fill-opacity: 0.1"/>
    <path d="M 226.449023 102.311871 
L 205.956448 59.556825 
L 207.243008 47.2615 
L 227.846362 90.270844 
z
" clip-path="url(#pe5a466a72c)" style="fill: #0000f5; fill-opacity: 0.1"/>
    <path d="M 289.275764 218.50425 
L 268.862447 175.891606 
L 270.497124 164.227383 
L 291.020342 207.092783 
z
" clip-path="url(#pe5a466a72c)" style="fill: #0000f5; fill-opacity: 0.1"/>
    <path d="M 205.956448 59.556825 
L 185.400631 16.669831 
L 186.575717 4.11869 
L 207.243008 47.2615 
z
" clip-path="url(#pe5a466a72c)" style="fill: #0000f5; fill-opacity: 0.1"/>
    <path d="M 268.862447 175.891606 
L 248.386077 133.147341 
L 249.910165 121.228849 
L 270.497124 164.227383 
z
" clip-path="url(#pe5a466a72c)" style="fill: #0000f5; fill-opacity: 0.1"/>
    <path d="M 185.400631 16.669831 
L 164.781278 -26.349723 
L 165.844193 -39.158208 
L 186.575717 4.11869 
z
" clip-path="url(#pe5a466a72c)" style="fill: #0000f5; fill-opacity: 0.1"/>
    <path d="M 331.876731 292.426646 
L 311.480113 249.825666 
L 313.354408 238.54203 
L 333.860728 281.395723 
z
" clip-path="url(#pe5a466a72c)" style="fill: #0000f5; fill-opacity: 0.1"/>
    <path d="M 248.386077 133.147341 
L 227.846362 90.270844 
L 229.259165 78.096561 
L 249.910165 121.228849 
z
" clip-path="url(#pe5a466a72c)" style="fill: #0000f5; fill-opacity: 0.1"/>
    <path d="M 164.781278 -26.349723 
L 144.098094 -69.502452 
L 145.048136 -82.569819 
L 165.844193 -39.158208 
z
" clip-path="url(#pe5a466a72c)" style="fill: #0000f5; fill-opacity: 0.1"/>
    <path d="M 311.480113 249.825666 
L 291.020342 207.092783 
L 292.784244 195.554917 
L 313.354408 238.54203 
z
" clip-path="url(#pe5a466a72c)" style="fill: #0000f5; fill-opacity: 0.1"/>
    <path d="M 227.846362 90.270844 
L 207.243008 47.2615 
L 208.543827 34.829892 
L 229.259165 78.096561 
z
" clip-path="url(#pe5a466a72c)" style="fill: #0000f5; fill-opacity: 0.1"/>
    <path d="M 291.020342 207.092783 
L 270.497124 164.227383 
L 272.149937 152.43376 
L 292.784244 195.554917 
z
" clip-path="url(#pe5a466a72c)" style="fill: #0000f5; fill-opacity: 0.1"/>
    <path d="M 207.243008 47.2615 
L 186.575717 4.11869 
L 187.763848 -8.571786 
L 208.543827 34.829892 
z
" clip-path="url(#pe5a466a72c)" style="fill: #0000f5; fill-opacity: 0.1"/>
    <path d="M 270.497124 164.227383 
L 249.910165 121.228849 
L 251.451187 109.17793 
L 272.149937 152.43376 
z
" clip-path="url(#pe5a466a72c)" style="fill: #0000f5; fill-opacity: 0.1"/>
    <path d="M 186.575717 4.11869 
L 165.844193 -39.158208 
L 166.918927 -52.109107 
L 187.763848 -8.571786 
z
" clip-path="url(#pe5a466a72c)" style="fill: #0000f5; fill-opacity: 0.1"/>
    <path d="M 333.860728 281.395723 
L 313.354408 238.54203 
L 315.249547 227.132912 
L 335.866754 270.242319 
z
" clip-path="url(#pe5a466a72c)" style="fill: #0000f5; fill-opacity: 0.1"/>
    <path d="M 249.910165 121.228849 
L 229.259165 78.096561 
L 230.687691 65.786797 
L 251.451187 109.17793 
z
" clip-path="url(#pe5a466a72c)" style="fill: #0000f5; fill-opacity: 0.1"/>
    <path d="M 165.844193 -39.158208 
L 145.048136 -82.569819 
L 146.008757 -95.782706 
L 166.918927 -52.109107 
z
" clip-path="url(#pe5a466a72c)" style="fill: #0000f5; fill-opacity: 0.1"/>
    <path d="M 313.354408 238.54203 
L 292.784244 195.554917 
L 294.567792 183.888541 
L 315.249547 227.132912 
z
" clip-path="url(#pe5a466a72c)" style="fill: #0000f5; fill-opacity: 0.1"/>
    <path d="M 229.259165 78.096561 
L 208.543827 34.829892 
L 209.859145 22.259723 
L 230.687691 65.786797 
z
" clip-path="url(#pe5a466a72c)" style="fill: #0000f5; fill-opacity: 0.1"/>
    <path d="M 292.784244 195.554917 
L 272.149937 152.43376 
L 273.821188 140.508572 
L 294.567792 183.888541 
z
" clip-path="url(#pe5a466a72c)" style="fill: #0000f5; fill-opacity: 0.1"/>
    <path d="M 208.543827 34.829892 
L 187.763848 -8.571786 
L 188.965243 -21.403931 
L 209.859145 22.259723 
z
" clip-path="url(#pe5a466a72c)" style="fill: #0000f5; fill-opacity: 0.1"/>
    <path d="M 272.149937 152.43376 
L 251.451187 109.17793 
L 253.009427 96.992365 
L 273.821188 140.508572 
z
" clip-path="url(#pe5a466a72c)" style="fill: #0000f5; fill-opacity: 0.1"/>
    <path d="M 187.763848 -8.571786 
L 166.918927 -52.109107 
L 168.005677 -65.204808 
L 188.965243 -21.403931 
z
" clip-path="url(#pe5a466a72c)" style="fill: #0000f5; fill-opacity: 0.1"/>
    <path d="M 335.866754 270.242319 
L 315.249547 227.132912 
L 317.165879 215.596207 
L 337.895178 258.964383 
z
" clip-path="url(#pe5a466a72c)" style="fill: #0000f5; fill-opacity: 0.1"/>
    <path d="M 251.451187 109.17793 
L 230.687691 65.786797 
L 232.132203 53.339278 
L 253.009427 96.992365 
z
" clip-path="url(#pe5a466a72c)" style="fill: #0000f5; fill-opacity: 0.1"/>
    <path d="M 166.918927 -52.109107 
L 146.008757 -95.782706 
L 146.980137 -109.143557 
L 168.005677 -65.204808 
z
" clip-path="url(#pe5a466a72c)" style="fill: #0000f5; fill-opacity: 0.1"/>
    <path d="M 315.249547 227.132912 
L 294.567792 183.888541 
L 296.371318 172.091496 
L 317.165879 215.596207 
z
" clip-path="url(#pe5a466a72c)" style="fill: #0000f5; fill-opacity: 0.1"/>
    <path d="M 230.687691 65.786797 
L 209.859145 22.259723 
L 211.189206 9.548663 
L 232.132203 53.339278 
z
" clip-path="url(#pe5a466a72c)" style="fill: #0000f5; fill-opacity: 0.1"/>
    <path d="M 294.567792 183.888541 
L 273.821188 140.508572 
L 275.511187 128.449605 
L 296.371318 172.091496 
z
" clip-path="url(#pe5a466a72c)" style="fill: #0000f5; fill-opacity: 0.1"/>
    <path d="M 209.859145 22.259723 
L 188.965243 -21.403931 
L 190.180125 -34.380129 
L 211.189206 9.548663 
z
" clip-path="url(#pe5a466a72c)" style="fill: #0000f5; fill-opacity: 0.1"/>
    <path d="M 273.821188 140.508572 
L 253.009427 96.992365 
L 254.585175 84.669884 
L 275.511187 128.449605 
z
" clip-path="url(#pe5a466a72c)" style="fill: #0000f5; fill-opacity: 0.1"/>
    <path d="M 188.965243 -21.403931 
L 168.005677 -65.204808 
L 169.104646 -78.447754 
L 190.180125 -34.380129 
z
" clip-path="url(#pe5a466a72c)" style="fill: #0000f5; fill-opacity: 0.1"/>
    <path d="M 337.895178 258.964383 
L 317.165879 215.596207 
L 319.103761 203.929762 
L 339.946378 247.559818 
z
" clip-path="url(#pe5a466a72c)" style="fill: #0000f5; fill-opacity: 0.1"/>
    <path d="M 253.009427 96.992365 
L 232.132203 53.339278 
L 233.59297 40.751679 
L 254.585175 84.669884 
z
" clip-path="url(#pe5a466a72c)" style="fill: #0000f5; fill-opacity: 0.1"/>
    <path d="M 168.005677 -65.204808 
L 146.980137 -109.143557 
L 147.962455 -122.654872 
L 169.104646 -78.447754 
z
" clip-path="url(#pe5a466a72c)" style="fill: #0000f5; fill-opacity: 0.1"/>
    <path d="M 317.165879 215.596207 
L 296.371318 172.091496 
L 298.195157 160.161573 
L 319.103761 203.929762 
z
" clip-path="url(#pe5a466a72c)" style="fill: #0000f5; fill-opacity: 0.1"/>
    <path d="M 232.132203 53.339278 
L 211.189206 9.548663 
L 212.534258 -3.305669 
L 233.59297 40.751679 
z
" clip-path="url(#pe5a466a72c)" style="fill: #0000f5; fill-opacity: 0.1"/>
    <path d="M 296.371318 172.091496 
L 275.511187 128.449605 
L 277.220251 116.254595 
L 298.195157 160.161573 
z
" clip-path="url(#pe5a466a72c)" style="fill: #0000f5; fill-opacity: 0.1"/>
    <path d="M 211.189206 9.548663 
L 190.180125 -34.380129 
L 191.408721 -47.50282 
L 212.534258 -3.305669 
z
" clip-path="url(#pe5a466a72c)" style="fill: #0000f5; fill-opacity: 0.1"/>
    <path d="M 275.511187 128.449605 
L 254.585175 84.669884 
L 256.178728 72.208166 
L 277.220251 116.254595 
z
" clip-path="url(#pe5a466a72c)" style="fill: #0000f5; fill-opacity: 0.1"/>
    <path d="M 190.180125 -34.380129 
L 169.104646 -78.447754 
L 170.216042 -91.840443 
L 191.408721 -47.50282 
z
" clip-path="url(#pe5a466a72c)" style="fill: #0000f5; fill-opacity: 0.1"/>
    <path d="M 339.946378 247.559818 
L 319.103761 203.929762 
L 321.06356 192.131377 
L 342.020738 236.026479 
z
" clip-path="url(#pe5a466a72c)" style="fill: #0000f5; fill-opacity: 0.1"/>
    <path d="M 254.585175 84.669884 
L 233.59297 40.751679 
L 235.07027 28.021621 
L 256.178728 72.208166 
z
" clip-path="url(#pe5a466a72c)" style="fill: #0000f5; fill-opacity: 0.1"/>
    <path d="M 169.104646 -78.447754 
L 147.962455 -122.654872 
L 148.955899 -136.319207 
L 170.216042 -91.840443 
z
" clip-path="url(#pe5a466a72c)" style="fill: #0000f5; fill-opacity: 0.1"/>
    <path d="M 319.103761 203.929762 
L 298.195157 160.161573 
L 300.039656 148.096516 
L 321.06356 192.131377 
z
" clip-path="url(#pe5a466a72c)" style="fill: #0000f5; fill-opacity: 0.1"/>
    <path d="M 233.59297 40.751679 
L 212.534258 -3.305669 
L 213.894557 -16.305709 
L 235.07027 28.021621 
z
" clip-path="url(#pe5a466a72c)" style="fill: #0000f5; fill-opacity: 0.1"/>
    <path d="M 298.195157 160.161573 
L 277.220251 116.254595 
L 278.948706 103.921227 
L 300.039656 148.096516 
z
" clip-path="url(#pe5a466a72c)" style="fill: #0000f5; fill-opacity: 0.1"/>
    <path d="M 212.534258 -3.305669 
L 191.408721 -47.50282 
L 192.651267 -60.7745 
L 213.894557 -16.305709 
z
" clip-path="url(#pe5a466a72c)" style="fill: #0000f5; fill-opacity: 0.1"/>
    <path d="M 277.220251 116.254595 
L 256.178728 72.208166 
L 257.79039 59.604839 
L 278.948706 103.921227 
z
" clip-path="url(#pe5a466a72c)" style="fill: #0000f5; fill-opacity: 0.1"/>
    <path d="M 191.408721 -47.50282 
L 170.216042 -91.840443 
L 171.340076 -105.385428 
L 192.651267 -60.7745 
z
" clip-path="url(#pe5a466a72c)" style="fill: #0000f5; fill-opacity: 0.1"/>
    <path d="M 342.020738 236.026479 
L 321.06356 192.131377 
L 323.045649 180.1988 
L 344.118654 224.362173 
z
" clip-path="url(#pe5a466a72c)" style="fill: #0000f5; fill-opacity: 0.1"/>
    <path d="M 256.178728 72.208166 
L 235.07027 28.021621 
L 236.564384 15.146674 
L 257.79039 59.604839 
z
" clip-path="url(#pe5a466a72c)" style="fill: #0000f5; fill-opacity: 0.1"/>
    <path d="M 170.216042 -91.840443 
L 148.955899 -136.319207 
L 149.960657 -150.139177 
L 171.340076 -105.385428 
z
" clip-path="url(#pe5a466a72c)" style="fill: #0000f5; fill-opacity: 0.1"/>
    <path d="M 321.06356 192.131377 
L 300.039656 148.096516 
L 301.905167 135.894014 
L 323.045649 180.1988 
z
" clip-path="url(#pe5a466a72c)" style="fill: #0000f5; fill-opacity: 0.1"/>
    <path d="M 235.07027 28.021621 
L 213.894557 -16.305709 
L 215.270364 -29.453951 
L 236.564384 15.146674 
z
" clip-path="url(#pe5a466a72c)" style="fill: #0000f5; fill-opacity: 0.1"/>
    <path d="M 300.039656 148.096516 
L 278.948706 103.921227 
L 280.696883 91.447134 
L 301.905167 135.894014 
z
" clip-path="url(#pe5a466a72c)" style="fill: #0000f5; fill-opacity: 0.1"/>
    <path d="M 213.894557 -16.305709 
L 192.651267 -60.7745 
L 193.908 -74.197719 
L 215.270364 -29.453951 
z
" clip-path="url(#pe5a466a72c)" style="fill: #0000f5; fill-opacity: 0.1"/>
    <path d="M 278.948706 103.921227 
L 257.79039 59.604839 
L 259.420471 46.857474 
L 280.696883 91.447134 
z
" clip-path="url(#pe5a466a72c)" style="fill: #0000f5; fill-opacity: 0.1"/>
    <path d="M 192.651267 -60.7745 
L 171.340076 -105.385428 
L 172.476965 -119.085322 
L 193.908 -74.197719 
z
" clip-path="url(#pe5a466a72c)" style="fill: #0000f5; fill-opacity: 0.1"/>
    <path d="M 344.118654 224.362173 
L 323.045649 180.1988 
L 325.050411 168.12973 
L 346.240529 212.564655 
z
" clip-path="url(#pe5a466a72c)" style="fill: #0000f5; fill-opacity: 0.1"/>
    <path d="M 257.79039 59.604839 
L 236.564384 15.146674 
L 238.075601 2.124348 
L 259.420471 46.857474 
z
" clip-path="url(#pe5a466a72c)" style="fill: #0000f5; fill-opacity: 0.1"/>
    <path d="M 171.340076 -105.385428 
L 149.960657 -150.139177 
L 150.976926 -164.117454 
L 172.476965 -119.085322 
z
" clip-path="url(#pe5a466a72c)" style="fill: #0000f5; fill-opacity: 0.1"/>
    <path d="M 323.045649 180.1988 
L 301.905167 135.894014 
L 303.792051 123.551706 
L 325.050411 168.12973 
z
" clip-path="url(#pe5a466a72c)" style="fill: #0000f5; fill-opacity: 0.1"/>
    <path d="M 236.564384 15.146674 
L 215.270364 -29.453951 
L 216.661944 -42.752941 
L 238.075601 2.124348 
z
" clip-path="url(#pe5a466a72c)" style="fill: #0000f5; fill-opacity: 0.1"/>
    <path d="M 301.905167 135.894014 
L 280.696883 91.447134 
L 282.465121 78.829891 
L 303.792051 123.551706 
z
" clip-path="url(#pe5a466a72c)" style="fill: #0000f5; fill-opacity: 0.1"/>
    <path d="M 215.270364 -29.453951 
L 193.908 -74.197719 
L 195.179166 -87.775088 
L 216.661944 -42.752941 
z
" clip-path="url(#pe5a466a72c)" style="fill: #0000f5; fill-opacity: 0.1"/>
    <path d="M 280.696883 91.447134 
L 259.420471 46.857474 
L 261.069288 33.963589 
L 282.465121 78.829891 
z
" clip-path="url(#pe5a466a72c)" style="fill: #0000f5; fill-opacity: 0.1"/>
    <path d="M 193.908 -74.197719 
L 172.476965 -119.085322 
L 173.626931 -132.942798 
L 195.179166 -87.775088 
z
" clip-path="url(#pe5a466a72c)" style="fill: #0000f5; fill-opacity: 0.1"/>
    <path d="M 346.240529 212.564655 
L 325.050411 168.12973 
L 327.078236 155.92181 
L 348.386776 200.631632 
z
" clip-path="url(#pe5a466a72c)" style="fill: #0000f5; fill-opacity: 0.1"/>
    <path d="M 259.420471 46.857474 
L 238.075601 2.124348 
L 239.604217 -11.047902 
L 261.069288 33.963589 
z
" clip-path="url(#pe5a466a72c)" style="fill: #0000f5; fill-opacity: 0.1"/>
    <path d="M 172.476965 -119.085322 
L 150.976926 -164.117454 
L 152.004902 -178.256776 
L 173.626931 -132.942798 
z
" clip-path="url(#pe5a466a72c)" style="fill: #0000f5; fill-opacity: 0.1"/>
    <path d="M 325.050411 168.12973 
L 303.792051 123.551706 
L 305.700679 111.067175 
L 327.078236 155.92181 
z
" clip-path="url(#pe5a466a72c)" style="fill: #0000f5; fill-opacity: 0.1"/>
    <path d="M 238.075601 2.124348 
L 216.661944 -42.752941 
L 218.069572 -56.205288 
L 239.604217 -11.047902 
z
" clip-path="url(#pe5a466a72c)" style="fill: #0000f5; fill-opacity: 0.1"/>
    <path d="M 303.792051 123.551706 
L 282.465121 78.829891 
L 284.253768 66.067022 
L 305.700679 111.067175 
z
" clip-path="url(#pe5a466a72c)" style="fill: #0000f5; fill-opacity: 0.1"/>
    <path d="M 216.661944 -42.752941 
L 195.179166 -87.775088 
L 196.465013 -101.509279 
L 218.069572 -56.205288 
z
" clip-path="url(#pe5a466a72c)" style="fill: #0000f5; fill-opacity: 0.1"/>
    <path d="M 282.465121 78.829891 
L 261.069288 33.963589 
L 262.737166 20.920643 
L 284.253768 66.067022 
z
" clip-path="url(#pe5a466a72c)" style="fill: #0000f5; fill-opacity: 0.1"/>
    <path d="M 195.179166 -87.775088 
L 173.626931 -132.942798 
L 174.790201 -146.96059 
L 196.465013 -101.509279 
z
" clip-path="url(#pe5a466a72c)" style="fill: #0000f5; fill-opacity: 0.1"/>
    <path d="M 348.386776 200.631632 
L 327.078236 155.92181 
L 329.129526 143.572631 
L 350.557817 188.560754 
z
" clip-path="url(#pe5a466a72c)" style="fill: #0000f5; fill-opacity: 0.1"/>
    <path d="M 261.069288 33.963589 
L 239.604217 -11.047902 
L 241.150533 -24.372678 
L 262.737166 20.920643 
z
" clip-path="url(#pe5a466a72c)" style="fill: #0000f5; fill-opacity: 0.1"/>
    <path d="M 173.626931 -132.942798 
L 152.004902 -178.256776 
L 153.044791 -192.559942 
L 174.790201 -146.96059 
z
" clip-path="url(#pe5a466a72c)" style="fill: #0000f5; fill-opacity: 0.1"/>
    <path d="M 327.078236 155.92181 
L 305.700679 111.067175 
L 307.631427 98.437949 
L 329.129526 143.572631 
z
" clip-path="url(#pe5a466a72c)" style="fill: #0000f5; fill-opacity: 0.1"/>
    <path d="M 239.604217 -11.047902 
L 218.069572 -56.205288 
L 219.493525 -69.813659 
L 241.150533 -24.372678 
z
" clip-path="url(#pe5a466a72c)" style="fill: #0000f5; fill-opacity: 0.1"/>
    <path d="M 305.700679 111.067175 
L 284.253768 66.067022 
L 286.06318 53.155991 
L 307.631427 98.437949 
z
" clip-path="url(#pe5a466a72c)" style="fill: #0000f5; fill-opacity: 0.1"/>
    <path d="M 218.069572 -56.205288 
L 196.465013 -101.509279 
L 197.765799 -115.403023 
L 219.493525 -69.813659 
z
" clip-path="url(#pe5a466a72c)" style="fill: #0000f5; fill-opacity: 0.1"/>
    <path d="M 284.253768 66.067022 
L 262.737166 20.920643 
L 264.424439 7.726034 
L 286.06318 53.155991 
z
" clip-path="url(#pe5a466a72c)" style="fill: #0000f5; fill-opacity: 0.1"/>
    <path d="M 196.465013 -101.509279 
L 174.790201 -146.96059 
L 175.967007 -161.141497 
L 197.765799 -115.403023 
z
" clip-path="url(#pe5a466a72c)" style="fill: #0000f5; fill-opacity: 0.1"/>
    <path d="M 350.557817 188.560754 
L 329.129526 143.572631 
L 331.20469 131.079726 
L 352.754084 176.349619 
z
" clip-path="url(#pe5a466a72c)" style="fill: #0000f5; fill-opacity: 0.1"/>
    <path d="M 262.737166 20.920643 
L 241.150533 -24.372678 
L 242.714859 -37.852647 
L 264.424439 7.726034 
z
" clip-path="url(#pe5a466a72c)" style="fill: #0000f5; fill-opacity: 0.1"/>
    <path d="M 174.790201 -146.96059 
L 153.044791 -192.559942 
L 154.0968 -207.029815 
L 175.967007 -161.141497 
z
" clip-path="url(#pe5a466a72c)" style="fill: #0000f5; fill-opacity: 0.1"/>
    <path d="M 329.129526 143.572631 
L 307.631427 98.437949 
L 309.584684 85.661498 
L 331.20469 131.079726 
z
" clip-path="url(#pe5a466a72c)" style="fill: #0000f5; fill-opacity: 0.1"/>
    <path d="M 241.150533 -24.372678 
L 219.493525 -69.813659 
L 220.934091 -83.580786 
L 242.714859 -37.852647 
z
" clip-path="url(#pe5a466a72c)" style="fill: #0000f5; fill-opacity: 0.1"/>
    <path d="M 307.631427 98.437949 
L 286.06318 53.155991 
L 287.893719 40.094202 
L 309.584684 85.661498 
z
" clip-path="url(#pe5a466a72c)" style="fill: #0000f5; fill-opacity: 0.1"/>
    <path d="M 219.493525 -69.813659 
L 197.765799 -115.403023 
L 199.081784 -129.459117 
L 220.934091 -83.580786 
z
" clip-path="url(#pe5a466a72c)" style="fill: #0000f5; fill-opacity: 0.1"/>
    <path d="M 286.06318 53.155991 
L 264.424439 7.726034 
L 266.131445 -5.622896 
L 287.893719 40.094202 
z
" clip-path="url(#pe5a466a72c)" style="fill: #0000f5; fill-opacity: 0.1"/>
    <path d="M 197.765799 -115.403023 
L 175.967007 -161.141497 
L 177.157587 -175.488382 
L 199.081784 -129.459117 
z
" clip-path="url(#pe5a466a72c)" style="fill: #0000f5; fill-opacity: 0.1"/>
    <path d="M 352.754084 176.349619 
L 331.20469 131.079726 
L 333.304146 118.440573 
L 354.97602 163.995768 
z
" clip-path="url(#pe5a466a72c)" style="fill: #0000f5; fill-opacity: 0.1"/>
    <path d="M 264.424439 7.726034 
L 242.714859 -37.852647 
L 244.297511 -51.490535 
L 266.131445 -5.622896 
z
" clip-path="url(#pe5a466a72c)" style="fill: #0000f5; fill-opacity: 0.1"/>
    <path d="M 175.967007 -161.141497 
L 154.0968 -207.029815 
L 155.161142 -221.669328 
L 177.157587 -175.488382 
z
" clip-path="url(#pe5a466a72c)" style="fill: #0000f5; fill-opacity: 0.1"/>
    <path d="M 331.20469 131.079726 
L 309.584684 85.661498 
L 311.560843 72.735231 
L 333.304146 118.440573 
z
" clip-path="url(#pe5a466a72c)" style="fill: #0000f5; fill-opacity: 0.1"/>
    <path d="M 242.714859 -37.852647 
L 220.934091 -83.580786 
L 222.39156 -97.509461 
L 244.297511 -51.490535 
z
" clip-path="url(#pe5a466a72c)" style="fill: #0000f5; fill-opacity: 0.1"/>
    <path d="M 309.584684 85.661498 
L 287.893719 40.094202 
L 289.745758 26.878999 
L 311.560843 72.735231 
z
" clip-path="url(#pe5a466a72c)" style="fill: #0000f5; fill-opacity: 0.1"/>
    <path d="M 220.934091 -83.580786 
L 199.081784 -129.459117 
L 200.413238 -143.680424 
L 222.39156 -97.509461 
z
" clip-path="url(#pe5a466a72c)" style="fill: #0000f5; fill-opacity: 0.1"/>
    <path d="M 287.893719 40.094202 
L 266.131445 -5.622896 
L 267.858534 -19.128871 
L 289.745758 26.878999 
z
" clip-path="url(#pe5a466a72c)" style="fill: #0000f5; fill-opacity: 0.1"/>
    <path d="M 199.081784 -129.459117 
L 177.157587 -175.488382 
L 178.362184 -190.004177 
L 200.413238 -143.680424 
z
" clip-path="url(#pe5a466a72c)" style="fill: #0000f5; fill-opacity: 0.1"/>
    <path d="M 354.97602 163.995768 
L 333.304146 118.440573 
L 335.428325 105.652587 
L 357.224077 151.496685 
z
" clip-path="url(#pe5a466a72c)" style="fill: #0000f5; fill-opacity: 0.1"/>
    <path d="M 266.131445 -5.622896 
L 244.297511 -51.490535 
L 245.898813 -65.289134 
L 267.858534 -19.128871 
z
" clip-path="url(#pe5a466a72c)" style="fill: #0000f5; fill-opacity: 0.1"/>
    <path d="M 177.157587 -175.488382 
L 155.161142 -221.669328 
L 156.238036 -236.481481 
L 178.362184 -190.004177 
z
" clip-path="url(#pe5a466a72c)" style="fill: #0000f5; fill-opacity: 0.1"/>
    <path d="M 333.304146 118.440573 
L 311.560843 72.735231 
L 313.560312 59.656499 
L 335.428325 105.652587 
z
" clip-path="url(#pe5a466a72c)" style="fill: #0000f5; fill-opacity: 0.1"/>
    <path d="M 244.297511 -51.490535 
L 222.39156 -97.509461 
L 223.866234 -111.602546 
L 245.898813 -65.289134 
z
" clip-path="url(#pe5a466a72c)" style="fill: #0000f5; fill-opacity: 0.1"/>
    <path d="M 311.560843 72.735231 
L 289.745758 26.878999 
L 291.619678 13.507664 
L 313.560312 59.656499 
z
" clip-path="url(#pe5a466a72c)" style="fill: #0000f5; fill-opacity: 0.1"/>
    <path d="M 222.39156 -97.509461 
L 200.413238 -143.680424 
L 201.760433 -158.069873 
L 223.866234 -111.602546 
z
" clip-path="url(#pe5a466a72c)" style="fill: #0000f5; fill-opacity: 0.1"/>
    <path d="M 289.745758 26.878999 
L 267.858534 -19.128871 
L 269.606061 -32.79468 
L 291.619678 13.507664 
z
" clip-path="url(#pe5a466a72c)" style="fill: #0000f5; fill-opacity: 0.1"/>
    <path d="M 200.413238 -143.680424 
L 178.362184 -190.004177 
L 179.581046 -204.691882 
L 201.760433 -158.069873 
z
" clip-path="url(#pe5a466a72c)" style="fill: #0000f5; fill-opacity: 0.1"/>
    <path d="M 357.224077 151.496685 
L 335.428325 105.652587 
L 337.577665 92.713124 
L 359.498719 138.849793 
z
" clip-path="url(#pe5a466a72c)" style="fill: #0000f5; fill-opacity: 0.1"/>
    <path d="M 267.858534 -19.128871 
L 245.898813 -65.289134 
L 247.519097 -79.2513 
L 269.606061 -32.79468 
z
" clip-path="url(#pe5a466a72c)" style="fill: #0000f5; fill-opacity: 0.1"/>
    <path d="M 178.362184 -190.004177 
L 156.238036 -236.481481 
L 157.327705 -251.469347 
L 179.581046 -204.691882 
z
" clip-path="url(#pe5a466a72c)" style="fill: #0000f5; fill-opacity: 0.1"/>
    <path d="M 335.428325 105.652587 
L 313.560312 59.656499 
L 315.583504 46.422588 
L 337.577665 92.713124 
z
" clip-path="url(#pe5a466a72c)" style="fill: #0000f5; fill-opacity: 0.1"/>
    <path d="M 245.898813 -65.289134 
L 223.866234 -111.602546 
L 225.358417 -125.86297 
L 247.519097 -79.2513 
z
" clip-path="url(#pe5a466a72c)" style="fill: #0000f5; fill-opacity: 0.1"/>
    <path d="M 313.560312 59.656499 
L 291.619678 13.507664 
L 293.51587 -0.022587 
L 315.583504 46.422588 
z
" clip-path="url(#pe5a466a72c)" style="fill: #0000f5; fill-opacity: 0.1"/>
    <path d="M 223.866234 -111.602546 
L 201.760433 -158.069873 
L 203.123652 -172.630465 
L 225.358417 -125.86297 
z
" clip-path="url(#pe5a466a72c)" style="fill: #0000f5; fill-opacity: 0.1"/>
    <path d="M 291.619678 13.507664 
L 269.606061 -32.79468 
L 271.374393 -46.623176 
L 293.51587 -0.022587 
z
" clip-path="url(#pe5a466a72c)" style="fill: #0000f5; fill-opacity: 0.1"/>
    <path d="M 201.760433 -158.069873 
L 179.581046 -204.691882 
L 180.81443 -219.554569 
L 203.123652 -172.630465 
z
" clip-path="url(#pe5a466a72c)" style="fill: #0000f5; fill-opacity: 0.1"/>
    <path d="M 269.606061 -32.79468 
L 247.519097 -79.2513 
L 249.158702 -93.379961 
L 271.374393 -46.623176 
z
" clip-path="url(#pe5a466a72c)" style="fill: #0000f5; fill-opacity: 0.1"/>
    <path d="M 179.581046 -204.691882 
L 157.327705 -251.469347 
L 158.430377 -266.63607 
L 180.81443 -219.554569 
z
" clip-path="url(#pe5a466a72c)" style="fill: #0000f5; fill-opacity: 0.1"/>
    <path d="M 247.519097 -79.2513 
L 225.358417 -125.86297 
L 226.868423 -140.293729 
L 249.158702 -93.379961 
z
" clip-path="url(#pe5a466a72c)" style="fill: #0000f5; fill-opacity: 0.1"/>
    <path d="M 225.358417 -125.86297 
L 203.123652 -172.630465 
L 204.503181 -187.365271 
L 226.868423 -140.293729 
z
" clip-path="url(#pe5a466a72c)" style="fill: #0000f5; fill-opacity: 0.1"/>
    <path d="M 203.123652 -172.630465 
L 180.81443 -219.554569 
L 182.062596 -234.595384 
L 204.503181 -187.365271 
z
" clip-path="url(#pe5a466a72c)" style="fill: #0000f5; fill-opacity: 0.1"/>
    <path d="M 180.81443 -219.554569 
L 158.430377 -266.63607 
L 159.546287 -281.984872 
L 182.062596 -234.595384 
z
" clip-path="url(#pe5a466a72c)" style="fill: #0000f5; fill-opacity: 0.1"/>
   </g>
   <g id="legend_1">
    <g id="patch_6">
     <path d="M 357.840076 67.305115 
L 396.2 67.305115 
Q 398.2 67.305115 398.2 65.305115 
L 398.2 7 
Q 398.2 5 396.2 5 
L 357.840076 5 
Q 355.840076 5 355.840076 7 
L 355.840076 65.305115 
Q 355.840076 67.305115 357.840076 67.305115 
z
" style="fill: #ffffff; opacity: 0.8; stroke: #cccccc; stroke-linejoin: miter"/>
    </g>
    <g id="line2d_25">
     <path d="M 359.840076 12.5 
L 369.840076 12.5 
L 379.840076 12.5 
" style="fill: none; stroke: #ff0000; stroke-width: 1.5; stroke-linecap: square"/>
    </g>
    <g id="text_21">
     <!-- $\vec{a}$ -->
     <g transform="translate(387.840076 16)scale(0.1 -0.1)">
      <defs>
       <path id="CMMI12-7e" d="M 3424 3835 
C 3347 3764 3110 3540 3110 3451 
C 3110 3387 3168 3329 3232 3329 
C 3290 3329 3315 3368 3360 3432 
C 3514 3624 3686 3745 3834 3828 
C 3898 3867 3942 3886 3942 3956 
C 3942 4014 3891 4046 3853 4078 
C 3674 4200 3629 4372 3610 4449 
C 3590 4500 3571 4577 3482 4577 
C 3443 4577 3366 4552 3366 4456 
C 3366 4398 3405 4244 3526 4072 
L 1376 4072 
C 1267 4072 1158 4072 1158 3950 
C 1158 3835 1274 3835 1376 3835 
L 3424 3835 
z
" transform="scale(0.015625)"/>
       <path id="CMMI12-61" d="M 1926 760 
C 1894 651 1894 639 1805 517 
C 1664 338 1382 64 1082 64 
C 819 64 672 300 672 677 
C 672 1028 870 1743 992 2012 
C 1210 2459 1510 2689 1760 2689 
C 2182 2689 2266 2165 2266 2114 
C 2266 2108 2246 2024 2240 2012 
L 1926 760 
z
M 2336 2395 
C 2266 2561 2093 2816 1760 2816 
C 1037 2816 256 1884 256 939 
C 256 307 627 -64 1062 -64 
C 1414 -64 1715 211 1894 422 
C 1958 45 2259 -64 2451 -64 
C 2643 -64 2797 51 2912 281 
C 3014 498 3104 888 3104 913 
C 3104 945 3078 971 3040 971 
C 2982 971 2976 939 2950 843 
C 2854 466 2733 64 2470 64 
C 2285 64 2272 230 2272 358 
C 2272 505 2291 575 2349 824 
C 2394 984 2426 1124 2477 1309 
C 2714 2267 2771 2497 2771 2535 
C 2771 2625 2701 2695 2605 2695 
C 2400 2695 2349 2472 2336 2395 
z
" transform="scale(0.015625)"/>
      </defs>
      <use xlink:href="#CMMI12-7e" transform="scale(0.996264)"/>
      <use xlink:href="#CMMI12-61" transform="translate(6.445738 0)scale(0.996264)"/>
     </g>
    </g>
    <g id="line2d_26">
     <path d="M 359.840076 27.24679 
L 369.840076 27.24679 
L 379.840076 27.24679 
" style="fill: none; stroke: #00ff00; stroke-width: 1.5; stroke-linecap: square"/>
    </g>
    <g id="text_22">
     <!-- $\vec{b}$ -->
     <g transform="translate(387.840076 30.74679)scale(0.1 -0.1)">
      <defs>
       <path id="CMMI12-62" d="M 1478 4257 
C 1485 4283 1498 4321 1498 4352 
C 1498 4416 1434 4416 1421 4416 
C 1414 4416 1184 4393 1069 4377 
C 960 4377 864 4358 749 4358 
C 595 4345 550 4339 550 4224 
C 550 4160 614 4160 678 4160 
C 1005 4160 1005 4103 1005 4040 
C 1005 3996 954 3811 928 3696 
L 774 3085 
C 710 2831 346 1387 320 1272 
C 288 1114 288 1005 288 922 
C 288 274 653 -64 1069 -64 
C 1811 -64 2579 888 2579 1814 
C 2579 2401 2246 2816 1766 2816 
C 1434 2816 1133 2542 1011 2414 
L 1478 4257 
z
M 1075 64 
C 870 64 646 217 646 715 
C 646 926 666 1047 781 1494 
C 800 1577 902 1986 928 2069 
C 941 2120 1318 2689 1754 2689 
C 2035 2689 2163 2408 2163 2076 
C 2163 1769 1984 1047 1824 715 
C 1664 370 1370 64 1075 64 
z
" transform="scale(0.015625)"/>
      </defs>
      <use xlink:href="#CMMI12-7e" transform="translate(0 26.29016)scale(0.996264)"/>
      <use xlink:href="#CMMI12-62" transform="translate(11.311737 0)scale(0.996264)"/>
     </g>
    </g>
    <g id="line2d_27">
     <path d="M 359.840076 41.183968 
L 369.840076 41.183968 
L 379.840076 41.183968 
" style="fill: none; stroke: #0016ff; stroke-width: 1.5; stroke-linecap: square"/>
    </g>
    <g id="text_23">
     <!-- $\vec{c}$ -->
     <g transform="translate(387.840076 44.683968)scale(0.1 -0.1)">
      <defs>
       <path id="CMMI12-63" d="M 2502 2431 
C 2381 2431 2323 2431 2234 2355 
C 2195 2323 2125 2227 2125 2125 
C 2125 1997 2221 1920 2342 1920 
C 2496 1920 2669 2044 2669 2292 
C 2669 2588 2374 2816 1933 2816 
C 1094 2816 256 1903 256 996 
C 256 441 602 -64 1254 -64 
C 2125 -64 2675 622 2675 706 
C 2675 744 2637 776 2611 776 
C 2592 776 2586 770 2528 713 
C 2118 162 1510 64 1267 64 
C 826 64 685 446 685 764 
C 685 988 794 1605 1024 2039 
C 1190 2338 1536 2682 1939 2682 
C 2022 2682 2374 2682 2502 2431 
z
" transform="scale(0.015625)"/>
      </defs>
      <use xlink:href="#CMMI12-7e" transform="scale(0.996264)"/>
      <use xlink:href="#CMMI12-63" transform="translate(5.638615 0)scale(0.996264)"/>
     </g>
    </g>
    <g id="line2d_28">
     <path d="M 359.840076 57.867937 
L 369.840076 57.867937 
L 379.840076 57.867937 
" style="fill: none; stroke: #f400ff; stroke-width: 1.5; stroke-linecap: square"/>
    </g>
    <g id="text_24">
     <!-- $\vec{f}$ -->
     <g transform="translate(387.840076 61.367937)scale(0.1 -0.1)">
      <defs>
       <path id="CMMI12-66" d="M 2854 2566 
C 2982 2566 3034 2566 3034 2688 
C 3034 2752 2982 2752 2867 2752 
L 2349 2752 
C 2470 3429 2560 3897 2611 4107 
C 2650 4265 2784 4416 2950 4416 
C 3085 4416 3219 4358 3283 4298 
C 3034 4272 2957 4082 2957 3969 
C 2957 3837 3053 3759 3174 3759 
C 3302 3759 3494 3870 3494 4119 
C 3494 4393 3226 4544 2944 4544 
C 2669 4544 2400 4334 2272 4078 
C 2157 3848 2093 3611 1946 2752 
L 1517 2752 
C 1395 2752 1331 2752 1331 2637 
C 1331 2566 1370 2566 1498 2566 
L 1907 2566 
C 1792 1976 1530 542 1382 -137 
C 1274 -689 1178 -1152 858 -1152 
C 838 -1152 653 -1152 538 -1031 
C 864 -1005 864 -726 864 -720 
C 864 -593 768 -517 646 -517 
C 518 -517 326 -625 326 -867 
C 326 -1140 608 -1280 858 -1280 
C 1510 -1280 1779 -118 1850 199 
C 1965 688 2278 2376 2310 2566 
L 2854 2566 
z
" transform="scale(0.015625)"/>
      </defs>
      <use xlink:href="#CMMI12-7e" transform="translate(13.568792 26.29016)scale(0.996264)"/>
      <use xlink:href="#CMMI12-66" transform="scale(0.996264)"/>
     </g>
    </g>
   </g>
  </g>
 </g>
 <defs>
  <clipPath id="pe5a466a72c">
   <rect x="57.6" y="0" width="345.6" height="345.6"/>
  </clipPath>
 </defs>
</svg>
