<?xml version="1.0" encoding="utf-8" standalone="no"?>
<!DOCTYPE svg PUBLIC "-//W3C//DTD SVG 1.1//EN"
  "http://www.w3.org/Graphics/SVG/1.1/DTD/svg11.dtd">
<svg xmlns:xlink="http://www.w3.org/1999/xlink" width="460.8pt" height="345.6pt" viewBox="0 0 460.8 345.6" xmlns="http://www.w3.org/2000/svg" version="1.1">
 <metadata>
  <rdf:RDF xmlns:dc="http://purl.org/dc/elements/1.1/" xmlns:cc="http://creativecommons.org/ns#" xmlns:rdf="http://www.w3.org/1999/02/22-rdf-syntax-ns#">
   <cc:Work>
    <dc:type rdf:resource="http://purl.org/dc/dcmitype/StillImage"/>
    <dc:date>2022-07-12T15:41:32.341636</dc:date>
    <dc:format>image/svg+xml</dc:format>
    <dc:creator>
     <cc:Agent>
      <dc:title>Matplotlib v3.5.1, https://matplotlib.org/</dc:title>
     </cc:Agent>
    </dc:creator>
   </cc:Work>
  </rdf:RDF>
 </metadata>
 <defs>
  <style type="text/css">*{stroke-linejoin: round; stroke-linecap: butt}</style>
 </defs>
 <g id="figure_1">
  <g id="patch_1">
   <path d="M 0 345.6 
L 460.8 345.6 
L 460.8 0 
L 0 0 
z
" style="fill: #ffffff"/>
  </g>
  <g id="patch_2">
   <path d="M 57.6 345.6 
L 403.2 345.6 
L 403.2 0 
L 57.6 0 
z
" style="fill: #ffffff"/>
  </g>
  <g id="pane3d_1">
   <g id="patch_3">
    <path d="M 146.392804 246.273888 
L 354.604963 247.50617 
L 354.604963 88.75329 
L 146.392804 89.985572 
" style="fill: #f2f2f2; opacity: 0.5; stroke: #f2f2f2; stroke-linejoin: miter"/>
   </g>
  </g>
  <g id="pane3d_2">
   <g id="patch_4">
    <path d="M 146.392804 246.273888 
L 102.777915 255.977835 
L 102.777915 80.281625 
L 146.392804 89.985572 
" style="fill: #e6e6e6; opacity: 0.5; stroke: #e6e6e6; stroke-linejoin: miter"/>
   </g>
  </g>
  <g id="pane3d_3">
   <g id="patch_5">
    <path d="M 146.392804 246.273888 
L 102.777915 255.977835 
L 336.530431 257.538225 
L 354.604963 247.50617 
" style="fill: #ececec; opacity: 0.5; stroke: #ececec; stroke-linejoin: miter"/>
   </g>
  </g>
  <g id="axis3d_1">
   <g id="line2d_1">
    <path d="M 354.604963 247.50617 
L 336.530431 257.538225 
" style="fill: none; stroke: #000000; stroke-width: 0.8; stroke-linecap: square"/>
   </g>
   <g id="text_1">
    <!-- x -->
    <g transform="translate(373.707851 279.818565)scale(0.16 -0.16)">
     <defs>
      <path id="CMSS17-78" d="M 1587 1414 
L 2656 2739 
L 2099 2739 
L 1363 1777 
L 602 2739 
L 32 2739 
L 1139 1414 
L 0 0 
L 563 0 
L 1363 1121 
L 2195 0 
L 2758 0 
L 1587 1414 
z
" transform="scale(0.015625)"/>
     </defs>
     <use xlink:href="#CMSS17-78" transform="scale(0.996264)"/>
    </g>
   </g>
   <g id="Line3DCollection_1">
    <path d="M 354.283311 247.684699 
L 145.615145 246.44691 
L 145.615145 89.812549 
" style="fill: none; stroke: #b0b0b0; stroke-width: 0.8"/>
    <path d="M 351.120215 249.440338 
L 137.970594 248.147759 
L 137.970594 88.111701 
" style="fill: none; stroke: #b0b0b0; stroke-width: 0.8"/>
    <path d="M 347.81436 251.275213 
L 129.986631 249.924124 
L 129.986631 86.335336 
" style="fill: none; stroke: #b0b0b0; stroke-width: 0.8"/>
    <path d="M 344.35586 253.194813 
L 121.64014 251.781148 
L 121.64014 84.478312 
" style="fill: none; stroke: #b0b0b0; stroke-width: 0.8"/>
    <path d="M 340.73389 255.205145 
L 112.905855 253.724453 
L 112.905855 82.535006 
" style="fill: none; stroke: #b0b0b0; stroke-width: 0.8"/>
    <path d="M 336.936582 257.312796 
L 103.756105 255.760196 
L 103.756105 80.499264 
" style="fill: none; stroke: #b0b0b0; stroke-width: 0.8"/>
   </g>
   <g id="xtick_1">
    <g id="line2d_2">
     <path d="M 352.587797 247.674641 
L 357.675627 247.704822 
" style="fill: none; stroke: #000000; stroke-width: 0.8; stroke-linecap: square"/>
    </g>
    <g id="text_2">
     <!-- $\mathdefault{0}$ -->
     <g transform="translate(365.348612 264.859241)scale(0.1 -0.1)">
      <defs>
       <path id="CMR17-30" d="M 2688 2025 
C 2688 2416 2682 3080 2413 3591 
C 2176 4039 1798 4198 1466 4198 
C 1158 4198 768 4058 525 3597 
C 269 3118 243 2524 243 2025 
C 243 1661 250 1106 448 619 
C 723 -39 1216 -128 1466 -128 
C 1760 -128 2208 -7 2470 600 
C 2662 1042 2688 1559 2688 2025 
z
M 1466 -26 
C 1056 -26 813 325 723 812 
C 653 1188 653 1738 653 2096 
C 653 2588 653 2997 736 3387 
C 858 3929 1216 4096 1466 4096 
C 1728 4096 2067 3923 2189 3400 
C 2272 3036 2278 2607 2278 2096 
C 2278 1680 2278 1169 2202 792 
C 2067 95 1690 -26 1466 -26 
z
" transform="scale(0.015625)"/>
      </defs>
      <use xlink:href="#CMR17-30" transform="scale(0.996264)"/>
     </g>
    </g>
   </g>
   <g id="xtick_2">
    <g id="line2d_3">
     <path d="M 349.387697 249.429832 
L 354.586595 249.461359 
" style="fill: none; stroke: #000000; stroke-width: 0.8; stroke-linecap: square"/>
    </g>
    <g id="text_3">
     <!-- $\mathdefault{1}$ -->
     <g transform="translate(362.481714 266.843261)scale(0.1 -0.1)">
      <defs>
       <path id="CMR17-31" d="M 1702 4058 
C 1702 4192 1696 4192 1606 4192 
C 1357 3916 979 3827 621 3827 
C 602 3827 570 3827 563 3808 
C 557 3795 557 3782 557 3648 
C 755 3648 1088 3686 1344 3839 
L 1344 461 
C 1344 236 1331 160 781 160 
L 589 160 
L 589 0 
C 896 0 1216 0 1523 0 
C 1830 0 2150 0 2458 0 
L 2458 160 
L 2266 160 
C 1715 160 1702 230 1702 458 
L 1702 4058 
z
" transform="scale(0.015625)"/>
      </defs>
      <use xlink:href="#CMR17-31" transform="scale(0.996264)"/>
     </g>
    </g>
   </g>
   <g id="xtick_3">
    <g id="line2d_4">
     <path d="M 346.043188 251.264228 
L 351.35811 251.297194 
" style="fill: none; stroke: #000000; stroke-width: 0.8; stroke-linecap: square"/>
    </g>
    <g id="text_4">
     <!-- $\mathdefault{2}$ -->
     <g transform="translate(359.485288 268.916919)scale(0.1 -0.1)">
      <defs>
       <path id="CMR17-32" d="M 2669 989 
L 2554 989 
C 2490 536 2438 459 2413 420 
C 2381 369 1920 369 1830 369 
L 602 369 
C 832 619 1280 1072 1824 1597 
C 2214 1967 2669 2402 2669 3035 
C 2669 3790 2067 4224 1395 4224 
C 691 4224 262 3604 262 3030 
C 262 2780 448 2748 525 2748 
C 589 2748 781 2787 781 3010 
C 781 3207 614 3264 525 3264 
C 486 3264 448 3258 422 3245 
C 544 3790 915 4058 1306 4058 
C 1862 4058 2227 3617 2227 3035 
C 2227 2479 1901 2000 1536 1584 
L 262 146 
L 262 0 
L 2515 0 
L 2669 989 
z
" transform="scale(0.015625)"/>
      </defs>
      <use xlink:href="#CMR17-32" transform="scale(0.996264)"/>
     </g>
    </g>
   </g>
   <g id="xtick_4">
    <g id="line2d_5">
     <path d="M 342.544268 253.183314 
L 347.980512 253.21782 
" style="fill: none; stroke: #000000; stroke-width: 0.8; stroke-linecap: square"/>
    </g>
    <g id="text_5">
     <!-- $\mathdefault{3}$ -->
     <g transform="translate(356.350355 271.086431)scale(0.1 -0.1)">
      <defs>
       <path id="CMR17-33" d="M 1414 2157 
C 1984 2157 2234 1662 2234 1090 
C 2234 320 1824 25 1453 25 
C 1114 25 563 194 390 693 
C 422 680 454 680 486 680 
C 640 680 755 782 755 948 
C 755 1133 614 1216 486 1216 
C 378 1216 211 1165 211 926 
C 211 335 787 -128 1466 -128 
C 2176 -128 2720 430 2720 1085 
C 2720 1707 2208 2157 1600 2227 
C 2086 2328 2554 2756 2554 3329 
C 2554 3820 2048 4179 1472 4179 
C 890 4179 378 3829 378 3329 
C 378 3110 544 3072 627 3072 
C 762 3072 877 3155 877 3321 
C 877 3486 762 3569 627 3569 
C 602 3569 570 3569 544 3557 
C 730 3959 1235 4032 1459 4032 
C 1683 4032 2106 3925 2106 3320 
C 2106 3143 2080 2828 1862 2550 
C 1670 2304 1453 2304 1242 2284 
C 1210 2284 1062 2269 1037 2269 
C 992 2263 966 2257 966 2208 
C 966 2163 973 2157 1101 2157 
L 1414 2157 
z
" transform="scale(0.015625)"/>
      </defs>
      <use xlink:href="#CMR17-33" transform="scale(0.996264)"/>
     </g>
    </g>
   </g>
   <g id="xtick_5">
    <g id="line2d_6">
     <path d="M 338.879993 255.193096 
L 344.443224 255.229252 
" style="fill: none; stroke: #000000; stroke-width: 0.8; stroke-linecap: square"/>
    </g>
    <g id="text_6">
     <!-- $\mathdefault{4}$ -->
     <g transform="translate(353.067083 273.358599)scale(0.1 -0.1)">
      <defs>
       <path id="CMR17-34" d="M 2150 4122 
C 2150 4256 2144 4256 2029 4256 
L 128 1254 
L 128 1088 
L 1779 1088 
L 1779 457 
C 1779 224 1766 160 1318 160 
L 1197 160 
L 1197 0 
C 1402 0 1747 0 1965 0 
C 2182 0 2528 0 2733 0 
L 2733 160 
L 2611 160 
C 2163 160 2150 224 2150 457 
L 2150 1088 
L 2803 1088 
L 2803 1254 
L 2150 1254 
L 2150 4122 
z
M 1798 3703 
L 1798 1254 
L 256 1254 
L 1798 3703 
z
" transform="scale(0.015625)"/>
      </defs>
      <use xlink:href="#CMR17-34" transform="scale(0.996264)"/>
     </g>
    </g>
   </g>
   <g id="xtick_6">
    <g id="line2d_7">
     <path d="M 335.038356 257.300156 
L 340.734649 257.338084 
" style="fill: none; stroke: #000000; stroke-width: 0.8; stroke-linecap: square"/>
    </g>
    <g id="text_7">
     <!-- $\mathdefault{5}$ -->
     <g transform="translate(349.624688 275.740888)scale(0.1 -0.1)">
      <defs>
       <path id="CMR17-35" d="M 730 3692 
C 794 3666 1056 3584 1325 3584 
C 1920 3584 2246 3911 2432 4100 
C 2432 4157 2432 4192 2394 4192 
C 2387 4192 2374 4192 2323 4163 
C 2099 4058 1837 3973 1517 3973 
C 1325 3973 1037 3999 723 4139 
C 653 4171 640 4171 634 4171 
C 602 4171 595 4164 595 4037 
L 595 2203 
C 595 2089 595 2057 659 2057 
C 691 2057 704 2070 736 2114 
C 941 2401 1222 2522 1542 2522 
C 1766 2522 2246 2382 2246 1289 
C 2246 1085 2246 715 2054 421 
C 1894 159 1645 25 1370 25 
C 947 25 518 320 403 814 
C 429 807 480 795 506 795 
C 589 795 749 840 749 1038 
C 749 1210 627 1280 506 1280 
C 358 1280 262 1190 262 1011 
C 262 454 704 -128 1382 -128 
C 2042 -128 2669 440 2669 1264 
C 2669 2030 2170 2624 1549 2624 
C 1222 2624 947 2503 730 2274 
L 730 3692 
z
" transform="scale(0.015625)"/>
      </defs>
      <use xlink:href="#CMR17-35" transform="scale(0.996264)"/>
     </g>
    </g>
   </g>
  </g>
  <g id="axis3d_2">
   <g id="line2d_8">
    <path d="M 102.777915 255.977835 
L 336.530431 257.538225 
" style="fill: none; stroke: #000000; stroke-width: 0.8; stroke-linecap: square"/>
   </g>
   <g id="text_8">
    <!-- y -->
    <g transform="translate(210.115283 287.358413)scale(0.16 -0.16)">
     <defs>
      <path id="CMSS17-79" d="M 2675 2752 
L 2176 2752 
C 1632 1294 1446 702 1434 383 
L 1427 383 
C 1408 696 1126 1460 902 2007 
L 602 2752 
L 83 2752 
L 1216 13 
C 1146 -178 1043 -465 1011 -529 
C 870 -885 774 -885 672 -885 
C 646 -885 442 -885 211 -809 
L 250 -1229 
C 410 -1261 570 -1280 685 -1280 
C 845 -1280 1165 -1280 1459 -497 
L 2675 2752 
z
" transform="scale(0.015625)"/>
     </defs>
     <use xlink:href="#CMSS17-79" transform="scale(0.996264)"/>
    </g>
   </g>
   <g id="Line3DCollection_2">
    <path d="M 170.213354 89.844592 
L 170.213354 246.414867 
L 129.474026 256.156042 
" style="fill: none; stroke: #b0b0b0; stroke-width: 0.8"/>
    <path d="M 209.829899 89.610126 
L 209.829899 246.649334 
L 173.899495 256.452599 
" style="fill: none; stroke: #b0b0b0; stroke-width: 0.8"/>
    <path d="M 249.684463 89.374251 
L 249.684463 246.885209 
L 218.625311 256.751162 
" style="fill: none; stroke: #b0b0b0; stroke-width: 0.8"/>
    <path d="M 289.779196 89.136954 
L 289.779196 247.122505 
L 263.654531 257.05175 
" style="fill: none; stroke: #b0b0b0; stroke-width: 0.8"/>
    <path d="M 330.116277 88.898223 
L 330.116277 247.361236 
L 308.990252 257.354383 
" style="fill: none; stroke: #b0b0b0; stroke-width: 0.8"/>
   </g>
   <g id="xtick_7">
    <g id="line2d_9">
     <path d="M 129.840131 256.068503 
L 128.739626 256.331644 
" style="fill: none; stroke: #000000; stroke-width: 0.8; stroke-linecap: square"/>
    </g>
    <g id="text_9">
     <!-- $\mathdefault{−4}$ -->
     <g transform="translate(120.158873 275.117883)scale(0.1 -0.1)">
      <defs>
       <path id="CMSY10-0" d="M 4218 1472 
C 4326 1472 4442 1472 4442 1600 
C 4442 1728 4326 1728 4218 1728 
L 755 1728 
C 646 1728 531 1728 531 1600 
C 531 1472 646 1472 755 1472 
L 4218 1472 
z
" transform="scale(0.015625)"/>
      </defs>
      <use xlink:href="#CMSY10-0" transform="scale(0.996264)"/>
      <use xlink:href="#CMR17-34" transform="translate(77.487468 0)scale(0.996264)"/>
     </g>
    </g>
   </g>
   <g id="xtick_8">
    <g id="line2d_10">
     <path d="M 174.222503 256.36447 
L 173.251539 256.629388 
" style="fill: none; stroke: #000000; stroke-width: 0.8; stroke-linecap: square"/>
    </g>
    <g id="text_10">
     <!-- $\mathdefault{−2}$ -->
     <g transform="translate(164.931537 275.457724)scale(0.1 -0.1)">
      <use xlink:href="#CMSY10-0" transform="scale(0.996264)"/>
      <use xlink:href="#CMR17-32" transform="translate(77.487468 0)scale(0.996264)"/>
     </g>
    </g>
   </g>
   <g id="xtick_9">
    <g id="line2d_11">
     <path d="M 218.904631 256.662436 
L 218.064987 256.929149 
" style="fill: none; stroke: #000000; stroke-width: 0.8; stroke-linecap: square"/>
    </g>
    <g id="text_11">
     <!-- $\mathdefault{0}$ -->
     <g transform="translate(213.883709 275.799882)scale(0.1 -0.1)">
      <use xlink:href="#CMR17-30" transform="scale(0.996264)"/>
     </g>
    </g>
   </g>
   <g id="xtick_10">
    <g id="line2d_12">
     <path d="M 263.889562 256.962421 
L 263.183047 257.230947 
" style="fill: none; stroke: #000000; stroke-width: 0.8; stroke-linecap: square"/>
    </g>
    <g id="text_12">
     <!-- $\mathdefault{2}$ -->
     <g transform="translate(259.269777 276.14438)scale(0.1 -0.1)">
      <use xlink:href="#CMR17-32" transform="scale(0.996264)"/>
     </g>
    </g>
   </g>
   <g id="xtick_11">
    <g id="line2d_13">
     <path d="M 309.180385 257.264446 
L 308.608833 257.534804 
" style="fill: none; stroke: #000000; stroke-width: 0.8; stroke-linecap: square"/>
    </g>
    <g id="text_13">
     <!-- $\mathdefault{4}$ -->
     <g transform="translate(304.967284 276.491242)scale(0.1 -0.1)">
      <use xlink:href="#CMR17-34" transform="scale(0.996264)"/>
     </g>
    </g>
   </g>
  </g>
  <g id="axis3d_3">
   <g id="line2d_14">
    <path d="M 102.777915 255.977835 
L 102.777915 80.281625 
" style="fill: none; stroke: #000000; stroke-width: 0.8; stroke-linecap: square"/>
   </g>
   <g id="text_14">
    <!-- z -->
    <g transform="translate(60.10119 172.114786)scale(0.16 -0.16)">
     <defs>
      <path id="CMSS17-7a" d="M 2400 2502 
L 2400 2750 
L 250 2750 
L 250 2368 
L 1069 2368 
C 1146 2368 1222 2368 1299 2368 
L 1747 2368 
L 166 261 
L 166 0 
L 2419 0 
L 2419 395 
L 1549 395 
C 1472 395 1395 395 1318 395 
L 826 395 
L 2400 2502 
z
" transform="scale(0.015625)"/>
     </defs>
     <use xlink:href="#CMSS17-7a" transform="scale(0.996264)"/>
    </g>
   </g>
   <g id="Line3DCollection_3">
    <path d="M 102.777915 252.463911 
L 146.392804 243.148121 
L 354.604963 244.331112 
" style="fill: none; stroke: #b0b0b0; stroke-width: 0.8"/>
    <path d="M 102.777915 218.730238 
L 146.392804 213.140765 
L 354.604963 213.850559 
" style="fill: none; stroke: #b0b0b0; stroke-width: 0.8"/>
    <path d="M 102.777915 184.996566 
L 146.392804 183.133408 
L 354.604963 183.370006 
" style="fill: none; stroke: #b0b0b0; stroke-width: 0.8"/>
    <path d="M 102.777915 151.262894 
L 146.392804 153.126051 
L 354.604963 152.889453 
" style="fill: none; stroke: #b0b0b0; stroke-width: 0.8"/>
    <path d="M 102.777915 117.529221 
L 146.392804 123.118695 
L 354.604963 122.4089 
" style="fill: none; stroke: #b0b0b0; stroke-width: 0.8"/>
    <path d="M 102.777915 83.795549 
L 146.392804 93.111338 
L 354.604963 91.928347 
" style="fill: none; stroke: #b0b0b0; stroke-width: 0.8"/>
   </g>
   <g id="xtick_12">
    <g id="line2d_15">
     <path d="M 103.169774 252.380213 
L 101.991857 252.631806 
" style="fill: none; stroke: #000000; stroke-width: 0.8; stroke-linecap: square"/>
    </g>
    <g id="text_15">
     <!-- $\mathdefault{0}$ -->
     <g transform="translate(82.358912 259.961408)scale(0.1 -0.1)">
      <use xlink:href="#CMR17-30" transform="scale(0.996264)"/>
     </g>
    </g>
   </g>
   <g id="xtick_13">
    <g id="line2d_16">
     <path d="M 103.169774 218.68002 
L 101.991857 218.830976 
" style="fill: none; stroke: #000000; stroke-width: 0.8; stroke-linecap: square"/>
    </g>
    <g id="text_16">
     <!-- $\mathdefault{1}$ -->
     <g transform="translate(82.358912 225.996136)scale(0.1 -0.1)">
      <use xlink:href="#CMR17-31" transform="scale(0.996264)"/>
     </g>
    </g>
   </g>
   <g id="xtick_14">
    <g id="line2d_17">
     <path d="M 103.169774 184.979826 
L 101.991857 185.030145 
" style="fill: none; stroke: #000000; stroke-width: 0.8; stroke-linecap: square"/>
    </g>
    <g id="text_17">
     <!-- $\mathdefault{2}$ -->
     <g transform="translate(82.358912 192.030864)scale(0.1 -0.1)">
      <use xlink:href="#CMR17-32" transform="scale(0.996264)"/>
     </g>
    </g>
   </g>
   <g id="xtick_15">
    <g id="line2d_18">
     <path d="M 103.169774 151.279633 
L 101.991857 151.229314 
" style="fill: none; stroke: #000000; stroke-width: 0.8; stroke-linecap: square"/>
    </g>
    <g id="text_18">
     <!-- $\mathdefault{3}$ -->
     <g transform="translate(82.358912 158.065592)scale(0.1 -0.1)">
      <use xlink:href="#CMR17-33" transform="scale(0.996264)"/>
     </g>
    </g>
   </g>
   <g id="xtick_16">
    <g id="line2d_19">
     <path d="M 103.169774 117.57944 
L 101.991857 117.428484 
" style="fill: none; stroke: #000000; stroke-width: 0.8; stroke-linecap: square"/>
    </g>
    <g id="text_19">
     <!-- $\mathdefault{4}$ -->
     <g transform="translate(82.358912 124.10032)scale(0.1 -0.1)">
      <use xlink:href="#CMR17-34" transform="scale(0.996264)"/>
     </g>
    </g>
   </g>
   <g id="xtick_17">
    <g id="line2d_20">
     <path d="M 103.169774 83.879247 
L 101.991857 83.627653 
" style="fill: none; stroke: #000000; stroke-width: 0.8; stroke-linecap: square"/>
    </g>
    <g id="text_20">
     <!-- $\mathdefault{5}$ -->
     <g transform="translate(82.358912 90.135049)scale(0.1 -0.1)">
      <use xlink:href="#CMR17-35" transform="scale(0.996264)"/>
     </g>
    </g>
   </g>
  </g>
  <g id="axes_1">
   <g id="line2d_21">
    <path d="M 249.131202 243.903703 
L 305.359262 90.337949 
" clip-path="url(#p46f5f555de)" style="fill: none; stroke: #ff0000; stroke-width: 1.5; stroke-linecap: square"/>
   </g>
   <g id="line2d_22">
    <path d="M 249.131202 243.903703 
L 196.319353 120.779174 
" clip-path="url(#p46f5f555de)" style="fill: none; stroke: #00ff00; stroke-width: 1.5; stroke-linecap: square"/>
   </g>
   <g id="line2d_23">
    <path d="M 249.131202 243.903703 
L 252.845377 -1 
" clip-path="url(#p46f5f555de)" style="fill: none; stroke: #0016ff; stroke-width: 1.5; stroke-linecap: square"/>
   </g>
   <g id="line2d_24">
    <path d="M 249.131202 243.903703 
L 152.509695 151.242353 
" clip-path="url(#p46f5f555de)" style="fill: none; stroke: #f400ff; stroke-width: 1.5; stroke-linecap: square"/>
   </g>
   <g id="Poly3DCollection_1">
    <path d="M 149.724854 356.149471 
L 145.986609 316.361007 
L 155.96371 305.061997 
L 159.598602 345.00042 
z
" clip-path="url(#p46f5f555de)" style="fill: #0000f5; fill-opacity: 0.1"/>
    <path d="M 159.598602 345.00042 
L 155.96371 305.061997 
L 165.955902 293.745897 
L 169.487126 333.834685 
z
" clip-path="url(#p46f5f555de)" style="fill: #0000f5; fill-opacity: 0.1"/>
    <path d="M 169.487126 333.834685 
L 165.955902 293.745897 
L 175.963218 282.41267 
L 179.390457 322.65223 
z
" clip-path="url(#p46f5f555de)" style="fill: #0000f5; fill-opacity: 0.1"/>
    <path d="M 179.390457 322.65223 
L 175.963218 282.41267 
L 185.985693 271.062275 
L 189.308629 311.453018 
z
" clip-path="url(#p46f5f555de)" style="fill: #0000f5; fill-opacity: 0.1"/>
    <path d="M 189.308629 311.453018 
L 185.985693 271.062275 
L 196.02336 259.694675 
L 199.241676 300.237009 
z
" clip-path="url(#p46f5f555de)" style="fill: #0000f5; fill-opacity: 0.1"/>
    <path d="M 199.241676 300.237009 
L 196.02336 259.694675 
L 206.076256 248.309829 
L 209.18963 289.004167 
z
" clip-path="url(#p46f5f555de)" style="fill: #0000f5; fill-opacity: 0.1"/>
    <path d="M 209.18963 289.004167 
L 206.076256 248.309829 
L 216.144413 236.907699 
L 219.152527 277.754453 
z
" clip-path="url(#p46f5f555de)" style="fill: #0000f5; fill-opacity: 0.1"/>
    <path d="M 219.152527 277.754453 
L 216.144413 236.907699 
L 226.227868 225.488245 
L 229.130398 266.48783 
z
" clip-path="url(#p46f5f555de)" style="fill: #0000f5; fill-opacity: 0.1"/>
    <path d="M 229.130398 266.48783 
L 226.227868 225.488245 
L 236.326655 214.051428 
L 239.123279 255.20426 
z
" clip-path="url(#p46f5f555de)" style="fill: #0000f5; fill-opacity: 0.1"/>
    <path d="M 239.123279 255.20426 
L 236.326655 214.051428 
L 246.440808 202.597207 
L 249.131202 243.903703 
z
" clip-path="url(#p46f5f555de)" style="fill: #0000f5; fill-opacity: 0.1"/>
    <path d="M 249.131202 243.903703 
L 246.440808 202.597207 
L 256.570364 191.125544 
L 259.154203 232.586123 
z
" clip-path="url(#p46f5f555de)" style="fill: #0000f5; fill-opacity: 0.1"/>
    <path d="M 259.154203 232.586123 
L 256.570364 191.125544 
L 266.715357 179.636398 
L 269.192314 221.251479 
z
" clip-path="url(#p46f5f555de)" style="fill: #0000f5; fill-opacity: 0.1"/>
    <path d="M 269.192314 221.251479 
L 266.715357 179.636398 
L 276.875822 168.12973 
L 279.245571 209.899734 
z
" clip-path="url(#p46f5f555de)" style="fill: #0000f5; fill-opacity: 0.1"/>
    <path d="M 279.245571 209.899734 
L 276.875822 168.12973 
L 287.051796 156.605499 
L 289.314007 198.530849 
z
" clip-path="url(#p46f5f555de)" style="fill: #0000f5; fill-opacity: 0.1"/>
    <path d="M 289.314007 198.530849 
L 287.051796 156.605499 
L 297.243313 145.063664 
L 299.397657 187.144785 
z
" clip-path="url(#p46f5f555de)" style="fill: #0000f5; fill-opacity: 0.1"/>
    <path d="M 145.986609 316.361007 
L 142.167152 275.708164 
L 152.249792 264.255275 
L 155.96371 305.061997 
z
" clip-path="url(#p46f5f555de)" style="fill: #0000f5; fill-opacity: 0.1"/>
    <path d="M 299.397657 187.144785 
L 297.243313 145.063664 
L 307.450409 133.504187 
L 309.496556 175.741503 
z
" clip-path="url(#p46f5f555de)" style="fill: #0000f5; fill-opacity: 0.1"/>
    <path d="M 155.96371 305.061997 
L 152.249792 264.255275 
L 162.347848 252.784875 
L 165.955902 293.745897 
z
" clip-path="url(#p46f5f555de)" style="fill: #0000f5; fill-opacity: 0.1"/>
    <path d="M 309.496556 175.741503 
L 307.450409 133.504187 
L 317.673121 121.927026 
L 319.610737 164.320963 
z
" clip-path="url(#p46f5f555de)" style="fill: #0000f5; fill-opacity: 0.1"/>
    <path d="M 165.955902 293.745897 
L 162.347848 252.784875 
L 172.461354 241.296925 
L 175.963218 282.41267 
z
" clip-path="url(#p46f5f555de)" style="fill: #0000f5; fill-opacity: 0.1"/>
    <path d="M 319.610737 164.320963 
L 317.673121 121.927026 
L 327.911483 110.33214 
L 329.740237 152.883128 
z
" clip-path="url(#p46f5f555de)" style="fill: #0000f5; fill-opacity: 0.1"/>
    <path d="M 175.963218 282.41267 
L 172.461354 241.296925 
L 182.590347 229.791384 
L 185.985693 271.062275 
z
" clip-path="url(#p46f5f555de)" style="fill: #0000f5; fill-opacity: 0.1"/>
    <path d="M 329.740237 152.883128 
L 327.911483 110.33214 
L 338.165532 98.719489 
L 339.885089 141.427957 
z
" clip-path="url(#p46f5f555de)" style="fill: #0000f5; fill-opacity: 0.1"/>
    <path d="M 185.985693 271.062275 
L 182.590347 229.791384 
L 192.734862 218.268211 
L 196.02336 259.694675 
z
" clip-path="url(#p46f5f555de)" style="fill: #0000f5; fill-opacity: 0.1"/>
    <path d="M 196.02336 259.694675 
L 192.734862 218.268211 
L 202.894934 206.727366 
L 206.076256 248.309829 
z
" clip-path="url(#p46f5f555de)" style="fill: #0000f5; fill-opacity: 0.1"/>
    <path d="M 206.076256 248.309829 
L 202.894934 206.727366 
L 213.0706 195.168809 
L 216.144413 236.907699 
z
" clip-path="url(#p46f5f555de)" style="fill: #0000f5; fill-opacity: 0.1"/>
    <path d="M 216.144413 236.907699 
L 213.0706 195.168809 
L 223.261895 183.592498 
L 226.227868 225.488245 
z
" clip-path="url(#p46f5f555de)" style="fill: #0000f5; fill-opacity: 0.1"/>
    <path d="M 226.227868 225.488245 
L 223.261895 183.592498 
L 233.468856 171.998393 
L 236.326655 214.051428 
z
" clip-path="url(#p46f5f555de)" style="fill: #0000f5; fill-opacity: 0.1"/>
    <path d="M 236.326655 214.051428 
L 233.468856 171.998393 
L 243.691518 160.386452 
L 246.440808 202.597207 
z
" clip-path="url(#p46f5f555de)" style="fill: #0000f5; fill-opacity: 0.1"/>
    <path d="M 246.440808 202.597207 
L 243.691518 160.386452 
L 253.929918 148.756635 
L 256.570364 191.125544 
z
" clip-path="url(#p46f5f555de)" style="fill: #0000f5; fill-opacity: 0.1"/>
    <path d="M 256.570364 191.125544 
L 253.929918 148.756635 
L 264.184092 137.1089 
L 266.715357 179.636398 
z
" clip-path="url(#p46f5f555de)" style="fill: #0000f5; fill-opacity: 0.1"/>
    <path d="M 266.715357 179.636398 
L 264.184092 137.1089 
L 274.454077 125.443205 
L 276.875822 168.12973 
z
" clip-path="url(#p46f5f555de)" style="fill: #0000f5; fill-opacity: 0.1"/>
    <path d="M 276.875822 168.12973 
L 274.454077 125.443205 
L 284.739909 113.75951 
L 287.051796 156.605499 
z
" clip-path="url(#p46f5f555de)" style="fill: #0000f5; fill-opacity: 0.1"/>
    <path d="M 287.051796 156.605499 
L 284.739909 113.75951 
L 295.041625 102.057771 
L 297.243313 145.063664 
z
" clip-path="url(#p46f5f555de)" style="fill: #0000f5; fill-opacity: 0.1"/>
    <path d="M 142.167152 275.708164 
L 138.26381 234.162467 
L 148.454243 222.551627 
L 152.249792 264.255275 
z
" clip-path="url(#p46f5f555de)" style="fill: #0000f5; fill-opacity: 0.1"/>
    <path d="M 297.243313 145.063664 
L 295.041625 102.057771 
L 305.359262 90.337949 
L 307.450409 133.504187 
z
" clip-path="url(#p46f5f555de)" style="fill: #0000f5; fill-opacity: 0.1"/>
    <path d="M 152.249792 264.255275 
L 148.454243 222.551627 
L 158.660428 210.922839 
L 162.347848 252.784875 
z
" clip-path="url(#p46f5f555de)" style="fill: #0000f5; fill-opacity: 0.1"/>
    <path d="M 307.450409 133.504187 
L 305.359262 90.337949 
L 315.692857 78.6 
L 317.673121 121.927026 
z
" clip-path="url(#p46f5f555de)" style="fill: #0000f5; fill-opacity: 0.1"/>
    <path d="M 162.347848 252.784875 
L 158.660428 210.922839 
L 168.882401 199.276063 
L 172.461354 241.296925 
z
" clip-path="url(#p46f5f555de)" style="fill: #0000f5; fill-opacity: 0.1"/>
    <path d="M 317.673121 121.927026 
L 315.692857 78.6 
L 326.042447 66.843882 
L 327.911483 110.33214 
z
" clip-path="url(#p46f5f555de)" style="fill: #0000f5; fill-opacity: 0.1"/>
    <path d="M 172.461354 241.296925 
L 168.882401 199.276063 
L 179.120199 187.611256 
L 182.590347 229.791384 
z
" clip-path="url(#p46f5f555de)" style="fill: #0000f5; fill-opacity: 0.1"/>
    <path d="M 327.911483 110.33214 
L 326.042447 66.843882 
L 336.408068 55.069553 
L 338.165532 98.719489 
z
" clip-path="url(#p46f5f555de)" style="fill: #0000f5; fill-opacity: 0.1"/>
    <path d="M 182.590347 229.791384 
L 179.120199 187.611256 
L 189.373858 175.928377 
L 192.734862 218.268211 
z
" clip-path="url(#p46f5f555de)" style="fill: #0000f5; fill-opacity: 0.1"/>
    <path d="M 192.734862 218.268211 
L 189.373858 175.928377 
L 199.643416 164.227383 
L 202.894934 206.727366 
z
" clip-path="url(#p46f5f555de)" style="fill: #0000f5; fill-opacity: 0.1"/>
    <path d="M 202.894934 206.727366 
L 199.643416 164.227383 
L 209.92891 152.508233 
L 213.0706 195.168809 
z
" clip-path="url(#p46f5f555de)" style="fill: #0000f5; fill-opacity: 0.1"/>
    <path d="M 213.0706 195.168809 
L 209.92891 152.508233 
L 220.230376 140.770883 
L 223.261895 183.592498 
z
" clip-path="url(#p46f5f555de)" style="fill: #0000f5; fill-opacity: 0.1"/>
    <path d="M 223.261895 183.592498 
L 220.230376 140.770883 
L 230.547852 129.015292 
L 233.468856 171.998393 
z
" clip-path="url(#p46f5f555de)" style="fill: #0000f5; fill-opacity: 0.1"/>
    <path d="M 233.468856 171.998393 
L 230.547852 129.015292 
L 240.881375 117.241417 
L 243.691518 160.386452 
z
" clip-path="url(#p46f5f555de)" style="fill: #0000f5; fill-opacity: 0.1"/>
    <path d="M 243.691518 160.386452 
L 240.881375 117.241417 
L 251.230983 105.449215 
L 253.929918 148.756635 
z
" clip-path="url(#p46f5f555de)" style="fill: #0000f5; fill-opacity: 0.1"/>
    <path d="M 253.929918 148.756635 
L 251.230983 105.449215 
L 261.596714 93.638644 
L 264.184092 137.1089 
z
" clip-path="url(#p46f5f555de)" style="fill: #0000f5; fill-opacity: 0.1"/>
    <path d="M 264.184092 137.1089 
L 261.596714 93.638644 
L 271.978604 81.80966 
L 274.454077 125.443205 
z
" clip-path="url(#p46f5f555de)" style="fill: #0000f5; fill-opacity: 0.1"/>
    <path d="M 274.454077 125.443205 
L 271.978604 81.80966 
L 282.376692 69.962221 
L 284.739909 113.75951 
z
" clip-path="url(#p46f5f555de)" style="fill: #0000f5; fill-opacity: 0.1"/>
    <path d="M 284.739909 113.75951 
L 282.376692 69.962221 
L 292.791016 58.096283 
L 295.041625 102.057771 
z
" clip-path="url(#p46f5f555de)" style="fill: #0000f5; fill-opacity: 0.1"/>
    <path d="M 138.26381 234.162467 
L 134.273787 191.694173 
L 144.574341 179.921152 
L 148.454243 222.551627 
z
" clip-path="url(#p46f5f555de)" style="fill: #0000f5; fill-opacity: 0.1"/>
    <path d="M 295.041625 102.057771 
L 292.791016 58.096283 
L 303.221614 46.211803 
L 305.359262 90.337949 
z
" clip-path="url(#p46f5f555de)" style="fill: #0000f5; fill-opacity: 0.1"/>
    <path d="M 148.454243 222.551627 
L 144.574341 179.921152 
L 154.890994 168.12973 
L 158.660428 210.922839 
z
" clip-path="url(#p46f5f555de)" style="fill: #0000f5; fill-opacity: 0.1"/>
    <path d="M 305.359262 90.337949 
L 303.221614 46.211803 
L 313.668523 34.308737 
L 315.692857 78.6 
z
" clip-path="url(#p46f5f555de)" style="fill: #0000f5; fill-opacity: 0.1"/>
    <path d="M 158.660428 210.922839 
L 154.890994 168.12973 
L 165.223784 156.319864 
L 168.882401 199.276063 
z
" clip-path="url(#p46f5f555de)" style="fill: #0000f5; fill-opacity: 0.1"/>
    <path d="M 315.692857 78.6 
L 313.668523 34.308737 
L 324.131783 22.387042 
L 326.042447 66.843882 
z
" clip-path="url(#p46f5f555de)" style="fill: #0000f5; fill-opacity: 0.1"/>
    <path d="M 168.882401 199.276063 
L 165.223784 156.319864 
L 175.572748 144.491512 
L 179.120199 187.611256 
z
" clip-path="url(#p46f5f555de)" style="fill: #0000f5; fill-opacity: 0.1"/>
    <path d="M 326.042447 66.843882 
L 324.131783 22.387042 
L 334.611432 10.446673 
L 336.408068 55.069553 
z
" clip-path="url(#p46f5f555de)" style="fill: #0000f5; fill-opacity: 0.1"/>
    <path d="M 179.120199 187.611256 
L 175.572748 144.491512 
L 185.937925 132.64463 
L 189.373858 175.928377 
z
" clip-path="url(#p46f5f555de)" style="fill: #0000f5; fill-opacity: 0.1"/>
    <path d="M 189.373858 175.928377 
L 185.937925 132.64463 
L 196.319353 120.779174 
L 199.643416 164.227383 
z
" clip-path="url(#p46f5f555de)" style="fill: #0000f5; fill-opacity: 0.1"/>
    <path d="M 199.643416 164.227383 
L 196.319353 120.779174 
L 206.71707 108.8951 
L 209.92891 152.508233 
z
" clip-path="url(#p46f5f555de)" style="fill: #0000f5; fill-opacity: 0.1"/>
    <path d="M 209.92891 152.508233 
L 206.71707 108.8951 
L 217.131114 96.992365 
L 220.230376 140.770883 
z
" clip-path="url(#p46f5f555de)" style="fill: #0000f5; fill-opacity: 0.1"/>
    <path d="M 220.230376 140.770883 
L 217.131114 96.992365 
L 227.561524 85.070925 
L 230.547852 129.015292 
z
" clip-path="url(#p46f5f555de)" style="fill: #0000f5; fill-opacity: 0.1"/>
    <path d="M 230.547852 129.015292 
L 227.561524 85.070925 
L 238.008338 73.130735 
L 240.881375 117.241417 
z
" clip-path="url(#p46f5f555de)" style="fill: #0000f5; fill-opacity: 0.1"/>
    <path d="M 240.881375 117.241417 
L 238.008338 73.130735 
L 248.471595 61.171752 
L 251.230983 105.449215 
z
" clip-path="url(#p46f5f555de)" style="fill: #0000f5; fill-opacity: 0.1"/>
    <path d="M 251.230983 105.449215 
L 248.471595 61.171752 
L 258.951335 49.19393 
L 261.596714 93.638644 
z
" clip-path="url(#p46f5f555de)" style="fill: #0000f5; fill-opacity: 0.1"/>
    <path d="M 261.596714 93.638644 
L 258.951335 49.19393 
L 269.447595 37.197226 
L 271.978604 81.80966 
z
" clip-path="url(#p46f5f555de)" style="fill: #0000f5; fill-opacity: 0.1"/>
    <path d="M 271.978604 81.80966 
L 269.447595 37.197226 
L 279.960416 25.181594 
L 282.376692 69.962221 
z
" clip-path="url(#p46f5f555de)" style="fill: #0000f5; fill-opacity: 0.1"/>
    <path d="M 282.376692 69.962221 
L 279.960416 25.181594 
L 290.489836 13.14699 
L 292.791016 58.096283 
z
" clip-path="url(#p46f5f555de)" style="fill: #0000f5; fill-opacity: 0.1"/>
    <path d="M 134.273787 191.694173 
L 130.194163 148.272208 
L 140.607242 136.332606 
L 144.574341 179.921152 
z
" clip-path="url(#p46f5f555de)" style="fill: #0000f5; fill-opacity: 0.1"/>
    <path d="M 292.791016 58.096283 
L 290.489836 13.14699 
L 301.035894 1.09337 
L 303.221614 46.211803 
z
" clip-path="url(#p46f5f555de)" style="fill: #0000f5; fill-opacity: 0.1"/>
    <path d="M 144.574341 179.921152 
L 140.607242 136.332606 
L 151.036779 124.374135 
L 154.890994 168.12973 
z
" clip-path="url(#p46f5f555de)" style="fill: #0000f5; fill-opacity: 0.1"/>
    <path d="M 303.221614 46.211803 
L 301.035894 1.09337 
L 311.598631 -10.979314 
L 313.668523 34.308737 
z
" clip-path="url(#p46f5f555de)" style="fill: #0000f5; fill-opacity: 0.1"/>
    <path d="M 154.890994 168.12973 
L 151.036779 124.374135 
L 161.482814 112.396748 
L 165.223784 156.319864 
z
" clip-path="url(#p46f5f555de)" style="fill: #0000f5; fill-opacity: 0.1"/>
    <path d="M 313.668523 34.308737 
L 311.598631 -10.979314 
L 322.178085 -23.071104 
L 324.131783 22.387042 
z
" clip-path="url(#p46f5f555de)" style="fill: #0000f5; fill-opacity: 0.1"/>
    <path d="M 165.223784 156.319864 
L 161.482814 112.396748 
L 171.945384 100.400401 
L 175.572748 144.491512 
z
" clip-path="url(#p46f5f555de)" style="fill: #0000f5; fill-opacity: 0.1"/>
    <path d="M 324.131783 22.387042 
L 322.178085 -23.071104 
L 332.774297 -35.182048 
L 334.611432 10.446673 
z
" clip-path="url(#p46f5f555de)" style="fill: #0000f5; fill-opacity: 0.1"/>
    <path d="M 175.572748 144.491512 
L 171.945384 100.400401 
L 182.424529 88.385048 
L 185.937925 132.64463 
z
" clip-path="url(#p46f5f555de)" style="fill: #0000f5; fill-opacity: 0.1"/>
    <path d="M 185.937925 132.64463 
L 182.424529 88.385048 
L 192.920289 76.350645 
L 196.319353 120.779174 
z
" clip-path="url(#p46f5f555de)" style="fill: #0000f5; fill-opacity: 0.1"/>
    <path d="M 196.319353 120.779174 
L 192.920289 76.350645 
L 203.432704 64.297147 
L 206.71707 108.8951 
z
" clip-path="url(#p46f5f555de)" style="fill: #0000f5; fill-opacity: 0.1"/>
    <path d="M 206.71707 108.8951 
L 203.432704 64.297147 
L 213.961812 52.224507 
L 217.131114 96.992365 
z
" clip-path="url(#p46f5f555de)" style="fill: #0000f5; fill-opacity: 0.1"/>
    <path d="M 217.131114 96.992365 
L 213.961812 52.224507 
L 224.507654 40.132681 
L 227.561524 85.070925 
z
" clip-path="url(#p46f5f555de)" style="fill: #0000f5; fill-opacity: 0.1"/>
    <path d="M 227.561524 85.070925 
L 224.507654 40.132681 
L 235.07027 28.021621 
L 238.008338 73.130735 
z
" clip-path="url(#p46f5f555de)" style="fill: #0000f5; fill-opacity: 0.1"/>
    <path d="M 238.008338 73.130735 
L 235.07027 28.021621 
L 245.6497 15.891283 
L 248.471595 61.171752 
z
" clip-path="url(#p46f5f555de)" style="fill: #0000f5; fill-opacity: 0.1"/>
    <path d="M 248.471595 61.171752 
L 245.6497 15.891283 
L 256.245983 3.741621 
L 258.951335 49.19393 
z
" clip-path="url(#p46f5f555de)" style="fill: #0000f5; fill-opacity: 0.1"/>
    <path d="M 258.951335 49.19393 
L 256.245983 3.741621 
L 266.859161 -8.427412 
L 269.447595 37.197226 
z
" clip-path="url(#p46f5f555de)" style="fill: #0000f5; fill-opacity: 0.1"/>
    <path d="M 269.447595 37.197226 
L 266.859161 -8.427412 
L 277.489274 -20.615863 
L 279.960416 25.181594 
z
" clip-path="url(#p46f5f555de)" style="fill: #0000f5; fill-opacity: 0.1"/>
    <path d="M 279.960416 25.181594 
L 277.489274 -20.615863 
L 288.136361 -32.823777 
L 290.489836 13.14699 
z
" clip-path="url(#p46f5f555de)" style="fill: #0000f5; fill-opacity: 0.1"/>
    <path d="M 130.194163 148.272208 
L 126.021886 103.86408 
L 136.549975 91.753326 
L 140.607242 136.332606 
z
" clip-path="url(#p46f5f555de)" style="fill: #0000f5; fill-opacity: 0.1"/>
    <path d="M 290.489836 13.14699 
L 288.136361 -32.823777 
L 298.800465 -45.051202 
L 301.035894 1.09337 
z
" clip-path="url(#p46f5f555de)" style="fill: #0000f5; fill-opacity: 0.1"/>
    <path d="M 140.607242 136.332606 
L 136.549975 91.753326 
L 147.094892 79.623213 
L 151.036779 124.374135 
z
" clip-path="url(#p46f5f555de)" style="fill: #0000f5; fill-opacity: 0.1"/>
    <path d="M 301.035894 1.09337 
L 298.800465 -45.051202 
L 309.481625 -57.298184 
L 311.598631 -10.979314 
z
" clip-path="url(#p46f5f555de)" style="fill: #0000f5; fill-opacity: 0.1"/>
    <path d="M 151.036779 124.374135 
L 147.094892 79.623213 
L 157.656678 67.473694 
L 161.482814 112.396748 
z
" clip-path="url(#p46f5f555de)" style="fill: #0000f5; fill-opacity: 0.1"/>
    <path d="M 311.598631 -10.979314 
L 309.481625 -57.298184 
L 320.179883 -69.56477 
L 322.178085 -23.071104 
z
" clip-path="url(#p46f5f555de)" style="fill: #0000f5; fill-opacity: 0.1"/>
    <path d="M 161.482814 112.396748 
L 157.656678 67.473694 
L 168.235374 55.304724 
L 171.945384 100.400401 
z
" clip-path="url(#p46f5f555de)" style="fill: #0000f5; fill-opacity: 0.1"/>
    <path d="M 322.178085 -23.071104 
L 320.179883 -69.56477 
L 330.89528 -81.851007 
L 332.774297 -35.182048 
z
" clip-path="url(#p46f5f555de)" style="fill: #0000f5; fill-opacity: 0.1"/>
    <path d="M 171.945384 100.400401 
L 168.235374 55.304724 
L 178.83102 43.116256 
L 182.424529 88.385048 
z
" clip-path="url(#p46f5f555de)" style="fill: #0000f5; fill-opacity: 0.1"/>
    <path d="M 182.424529 88.385048 
L 178.83102 43.116256 
L 189.443658 30.908242 
L 192.920289 76.350645 
z
" clip-path="url(#p46f5f555de)" style="fill: #0000f5; fill-opacity: 0.1"/>
    <path d="M 192.920289 76.350645 
L 189.443658 30.908242 
L 200.073327 18.680635 
L 203.432704 64.297147 
z
" clip-path="url(#p46f5f555de)" style="fill: #0000f5; fill-opacity: 0.1"/>
    <path d="M 203.432704 64.297147 
L 200.073327 18.680635 
L 210.72007 6.433389 
L 213.961812 52.224507 
z
" clip-path="url(#p46f5f555de)" style="fill: #0000f5; fill-opacity: 0.1"/>
    <path d="M 213.961812 52.224507 
L 210.72007 6.433389 
L 221.383927 -5.833544 
L 224.507654 40.132681 
z
" clip-path="url(#p46f5f555de)" style="fill: #0000f5; fill-opacity: 0.1"/>
    <path d="M 224.507654 40.132681 
L 221.383927 -5.833544 
L 232.064939 -18.120211 
L 235.07027 28.021621 
z
" clip-path="url(#p46f5f555de)" style="fill: #0000f5; fill-opacity: 0.1"/>
    <path d="M 235.07027 28.021621 
L 232.064939 -18.120211 
L 242.763148 -30.426661 
L 245.6497 15.891283 
z
" clip-path="url(#p46f5f555de)" style="fill: #0000f5; fill-opacity: 0.1"/>
    <path d="M 245.6497 15.891283 
L 242.763148 -30.426661 
L 253.478596 -42.752941 
L 256.245983 3.741621 
z
" clip-path="url(#p46f5f555de)" style="fill: #0000f5; fill-opacity: 0.1"/>
    <path d="M 256.245983 3.741621 
L 253.478596 -42.752941 
L 264.211325 -55.099098 
L 266.859161 -8.427412 
z
" clip-path="url(#p46f5f555de)" style="fill: #0000f5; fill-opacity: 0.1"/>
    <path d="M 266.859161 -8.427412 
L 264.211325 -55.099098 
L 274.961375 -67.465182 
L 277.489274 -20.615863 
z
" clip-path="url(#p46f5f555de)" style="fill: #0000f5; fill-opacity: 0.1"/>
    <path d="M 277.489274 -20.615863 
L 274.961375 -67.465182 
L 285.728789 -79.85124 
L 288.136361 -32.823777 
z
" clip-path="url(#p46f5f555de)" style="fill: #0000f5; fill-opacity: 0.1"/>
    <path d="M 126.021886 103.86408 
L 121.753765 58.435811 
L 132.399428 46.149144 
L 136.549975 91.753326 
z
" clip-path="url(#p46f5f555de)" style="fill: #0000f5; fill-opacity: 0.1"/>
    <path d="M 288.136361 -32.823777 
L 285.728789 -79.85124 
L 296.51361 -92.257321 
L 298.800465 -45.051202 
z
" clip-path="url(#p46f5f555de)" style="fill: #0000f5; fill-opacity: 0.1"/>
    <path d="M 136.549975 91.753326 
L 132.399428 46.149144 
L 143.062304 33.842612 
L 147.094892 79.623213 
z
" clip-path="url(#p46f5f555de)" style="fill: #0000f5; fill-opacity: 0.1"/>
    <path d="M 298.800465 -45.051202 
L 296.51361 -92.257321 
L 307.315879 -104.683473 
L 309.481625 -57.298184 
z
" clip-path="url(#p46f5f555de)" style="fill: #0000f5; fill-opacity: 0.1"/>
    <path d="M 147.094892 79.623213 
L 143.062304 33.842612 
L 153.742435 21.516165 
L 157.656678 67.473694 
z
" clip-path="url(#p46f5f555de)" style="fill: #0000f5; fill-opacity: 0.1"/>
    <path d="M 309.481625 -57.298184 
L 307.315879 -104.683473 
L 318.135638 -117.129746 
L 320.179883 -69.56477 
z
" clip-path="url(#p46f5f555de)" style="fill: #0000f5; fill-opacity: 0.1"/>
    <path d="M 157.656678 67.473694 
L 153.742435 21.516165 
L 164.439862 9.169756 
L 168.235374 55.304724 
z
" clip-path="url(#p46f5f555de)" style="fill: #0000f5; fill-opacity: 0.1"/>
    <path d="M 320.179883 -69.56477 
L 318.135638 -117.129746 
L 328.972931 -129.596187 
L 330.89528 -81.851007 
z
" clip-path="url(#p46f5f555de)" style="fill: #0000f5; fill-opacity: 0.1"/>
    <path d="M 168.235374 55.304724 
L 164.439862 9.169756 
L 175.154627 -3.196664 
L 178.83102 43.116256 
z
" clip-path="url(#p46f5f555de)" style="fill: #0000f5; fill-opacity: 0.1"/>
    <path d="M 178.83102 43.116256 
L 175.154627 -3.196664 
L 185.886772 -15.583143 
L 189.443658 30.908242 
z
" clip-path="url(#p46f5f555de)" style="fill: #0000f5; fill-opacity: 0.1"/>
    <path d="M 189.443658 30.908242 
L 185.886772 -15.583143 
L 196.636341 -27.989732 
L 200.073327 18.680635 
z
" clip-path="url(#p46f5f555de)" style="fill: #0000f5; fill-opacity: 0.1"/>
    <path d="M 200.073327 18.680635 
L 196.636341 -27.989732 
L 207.403374 -40.416477 
L 210.72007 6.433389 
z
" clip-path="url(#p46f5f555de)" style="fill: #0000f5; fill-opacity: 0.1"/>
    <path d="M 210.72007 6.433389 
L 207.403374 -40.416477 
L 218.187916 -52.863429 
L 221.383927 -5.833544 
z
" clip-path="url(#p46f5f555de)" style="fill: #0000f5; fill-opacity: 0.1"/>
    <path d="M 221.383927 -5.833544 
L 218.187916 -52.863429 
L 228.990008 -65.330638 
L 232.064939 -18.120211 
z
" clip-path="url(#p46f5f555de)" style="fill: #0000f5; fill-opacity: 0.1"/>
    <path d="M 232.064939 -18.120211 
L 228.990008 -65.330638 
L 239.809693 -77.818151 
L 242.763148 -30.426661 
z
" clip-path="url(#p46f5f555de)" style="fill: #0000f5; fill-opacity: 0.1"/>
    <path d="M 242.763148 -30.426661 
L 239.809693 -77.818151 
L 250.647015 -90.32602 
L 253.478596 -42.752941 
z
" clip-path="url(#p46f5f555de)" style="fill: #0000f5; fill-opacity: 0.1"/>
    <path d="M 253.478596 -42.752941 
L 250.647015 -90.32602 
L 261.502017 -102.854294 
L 264.211325 -55.099098 
z
" clip-path="url(#p46f5f555de)" style="fill: #0000f5; fill-opacity: 0.1"/>
    <path d="M 264.211325 -55.099098 
L 261.502017 -102.854294 
L 272.374742 -115.403023 
L 274.961375 -67.465182 
z
" clip-path="url(#p46f5f555de)" style="fill: #0000f5; fill-opacity: 0.1"/>
    <path d="M 274.961375 -67.465182 
L 272.374742 -115.403023 
L 283.265233 -127.972256 
L 285.728789 -79.85124 
z
" clip-path="url(#p46f5f555de)" style="fill: #0000f5; fill-opacity: 0.1"/>
    <path d="M 121.753765 58.435811 
L 117.386456 11.951839 
L 128.152349 -0.515694 
L 132.399428 46.149144 
z
" clip-path="url(#p46f5f555de)" style="fill: #0000f5; fill-opacity: 0.1"/>
    <path d="M 285.728789 -79.85124 
L 283.265233 -127.972256 
L 294.173534 -140.562045 
L 296.51361 -92.257321 
z
" clip-path="url(#p46f5f555de)" style="fill: #0000f5; fill-opacity: 0.1"/>
    <path d="M 132.399428 46.149144 
L 128.152349 -0.515694 
L 138.935851 -13.00362 
L 143.062304 33.842612 
z
" clip-path="url(#p46f5f555de)" style="fill: #0000f5; fill-opacity: 0.1"/>
    <path d="M 296.51361 -92.257321 
L 294.173534 -140.562045 
L 305.099688 -153.17244 
L 307.315879 -104.683473 
z
" clip-path="url(#p46f5f555de)" style="fill: #0000f5; fill-opacity: 0.1"/>
    <path d="M 143.062304 33.842612 
L 138.935851 -13.00362 
L 149.737006 -25.511989 
L 153.742435 21.516165 
z
" clip-path="url(#p46f5f555de)" style="fill: #0000f5; fill-opacity: 0.1"/>
    <path d="M 307.315879 -104.683473 
L 305.099688 -153.17244 
L 316.043741 -165.803492 
L 318.135638 -117.129746 
z
" clip-path="url(#p46f5f555de)" style="fill: #0000f5; fill-opacity: 0.1"/>
    <path d="M 153.742435 21.516165 
L 149.737006 -25.511989 
L 160.555857 -38.040851 
L 164.439862 9.169756 
z
" clip-path="url(#p46f5f555de)" style="fill: #0000f5; fill-opacity: 0.1"/>
    <path d="M 318.135638 -117.129746 
L 316.043741 -165.803492 
L 327.005734 -178.45525 
L 328.972931 -129.596187 
z
" clip-path="url(#p46f5f555de)" style="fill: #0000f5; fill-opacity: 0.1"/>
    <path d="M 164.439862 9.169756 
L 160.555857 -38.040851 
L 171.392448 -50.590256 
L 175.154627 -3.196664 
z
" clip-path="url(#p46f5f555de)" style="fill: #0000f5; fill-opacity: 0.1"/>
    <path d="M 175.154627 -3.196664 
L 171.392448 -50.590256 
L 182.246822 -63.160256 
L 185.886772 -15.583143 
z
" clip-path="url(#p46f5f555de)" style="fill: #0000f5; fill-opacity: 0.1"/>
    <path d="M 185.886772 -15.583143 
L 182.246822 -63.160256 
L 193.119023 -75.750901 
L 196.636341 -27.989732 
z
" clip-path="url(#p46f5f555de)" style="fill: #0000f5; fill-opacity: 0.1"/>
    <path d="M 196.636341 -27.989732 
L 193.119023 -75.750901 
L 204.009095 -88.362241 
L 207.403374 -40.416477 
z
" clip-path="url(#p46f5f555de)" style="fill: #0000f5; fill-opacity: 0.1"/>
    <path d="M 207.403374 -40.416477 
L 204.009095 -88.362241 
L 214.917083 -100.994328 
L 218.187916 -52.863429 
z
" clip-path="url(#p46f5f555de)" style="fill: #0000f5; fill-opacity: 0.1"/>
    <path d="M 218.187916 -52.863429 
L 214.917083 -100.994328 
L 225.84303 -113.647214 
L 228.990008 -65.330638 
z
" clip-path="url(#p46f5f555de)" style="fill: #0000f5; fill-opacity: 0.1"/>
    <path d="M 228.990008 -65.330638 
L 225.84303 -113.647214 
L 236.786981 -126.320949 
L 239.809693 -77.818151 
z
" clip-path="url(#p46f5f555de)" style="fill: #0000f5; fill-opacity: 0.1"/>
    <path d="M 239.809693 -77.818151 
L 236.786981 -126.320949 
L 247.74898 -139.015585 
L 250.647015 -90.32602 
z
" clip-path="url(#p46f5f555de)" style="fill: #0000f5; fill-opacity: 0.1"/>
    <path d="M 250.647015 -90.32602 
L 247.74898 -139.015585 
L 258.729072 -151.731174 
L 261.502017 -102.854294 
z
" clip-path="url(#p46f5f555de)" style="fill: #0000f5; fill-opacity: 0.1"/>
    <path d="M 261.502017 -102.854294 
L 258.729072 -151.731174 
L 269.727303 -164.467767 
L 272.374742 -115.403023 
z
" clip-path="url(#p46f5f555de)" style="fill: #0000f5; fill-opacity: 0.1"/>
    <path d="M 272.374742 -115.403023 
L 269.727303 -164.467767 
L 280.743716 -177.225418 
L 283.265233 -127.972256 
z
" clip-path="url(#p46f5f555de)" style="fill: #0000f5; fill-opacity: 0.1"/>
    <path d="M 117.386456 11.951839 
L 112.916463 -35.625068 
L 123.805329 -48.278627 
L 128.152349 -0.515694 
z
" clip-path="url(#p46f5f555de)" style="fill: #0000f5; fill-opacity: 0.1"/>
    <path d="M 283.265233 -127.972256 
L 280.743716 -177.225418 
L 291.778357 -190.004177 
L 294.173534 -140.562045 
z
" clip-path="url(#p46f5f555de)" style="fill: #0000f5; fill-opacity: 0.1"/>
    <path d="M 128.152349 -0.515694 
L 123.805329 -48.278627 
L 134.712216 -60.953127 
L 138.935851 -13.00362 
z
" clip-path="url(#p46f5f555de)" style="fill: #0000f5; fill-opacity: 0.1"/>
    <path d="M 294.173534 -140.562045 
L 291.778357 -190.004177 
L 302.831271 -202.804098 
L 305.099688 -153.17244 
z
" clip-path="url(#p46f5f555de)" style="fill: #0000f5; fill-opacity: 0.1"/>
    <path d="M 138.935851 -13.00362 
L 134.712216 -60.953127 
L 145.637167 -73.64862 
L 149.737006 -25.511989 
z
" clip-path="url(#p46f5f555de)" style="fill: #0000f5; fill-opacity: 0.1"/>
    <path d="M 305.099688 -153.17244 
L 302.831271 -202.804098 
L 313.902504 -215.625233 
L 316.043741 -165.803492 
z
" clip-path="url(#p46f5f555de)" style="fill: #0000f5; fill-opacity: 0.1"/>
    <path d="M 149.737006 -25.511989 
L 145.637167 -73.64862 
L 156.580228 -86.365158 
L 160.555857 -38.040851 
z
" clip-path="url(#p46f5f555de)" style="fill: #0000f5; fill-opacity: 0.1"/>
    <path d="M 316.043741 -165.803492 
L 313.902504 -215.625233 
L 324.992102 -228.467636 
L 327.005734 -178.45525 
z
" clip-path="url(#p46f5f555de)" style="fill: #0000f5; fill-opacity: 0.1"/>
    <path d="M 160.555857 -38.040851 
L 156.580228 -86.365158 
L 167.541445 -99.102793 
L 171.392448 -50.590256 
z
" clip-path="url(#p46f5f555de)" style="fill: #0000f5; fill-opacity: 0.1"/>
    <path d="M 171.392448 -50.590256 
L 167.541445 -99.102793 
L 178.520862 -111.861578 
L 182.246822 -63.160256 
z
" clip-path="url(#p46f5f555de)" style="fill: #0000f5; fill-opacity: 0.1"/>
    <path d="M 182.246822 -63.160256 
L 178.520862 -111.861578 
L 189.518525 -124.641566 
L 193.119023 -75.750901 
z
" clip-path="url(#p46f5f555de)" style="fill: #0000f5; fill-opacity: 0.1"/>
    <path d="M 193.119023 -75.750901 
L 189.518525 -124.641566 
L 200.534479 -137.44281 
L 204.009095 -88.362241 
z
" clip-path="url(#p46f5f555de)" style="fill: #0000f5; fill-opacity: 0.1"/>
    <path d="M 204.009095 -88.362241 
L 200.534479 -137.44281 
L 211.56877 -150.265362 
L 214.917083 -100.994328 
z
" clip-path="url(#p46f5f555de)" style="fill: #0000f5; fill-opacity: 0.1"/>
    <path d="M 214.917083 -100.994328 
L 211.56877 -150.265362 
L 222.621444 -163.109277 
L 225.84303 -113.647214 
z
" clip-path="url(#p46f5f555de)" style="fill: #0000f5; fill-opacity: 0.1"/>
    <path d="M 225.84303 -113.647214 
L 222.621444 -163.109277 
L 233.692547 -175.974606 
L 236.786981 -126.320949 
z
" clip-path="url(#p46f5f555de)" style="fill: #0000f5; fill-opacity: 0.1"/>
    <path d="M 236.786981 -126.320949 
L 233.692547 -175.974606 
L 244.782124 -188.861405 
L 247.74898 -139.015585 
z
" clip-path="url(#p46f5f555de)" style="fill: #0000f5; fill-opacity: 0.1"/>
    <path d="M 247.74898 -139.015585 
L 244.782124 -188.861405 
L 255.890223 -201.769727 
L 258.729072 -151.731174 
z
" clip-path="url(#p46f5f555de)" style="fill: #0000f5; fill-opacity: 0.1"/>
    <path d="M 258.729072 -151.731174 
L 255.890223 -201.769727 
L 267.016889 -214.699625 
L 269.727303 -164.467767 
z
" clip-path="url(#p46f5f555de)" style="fill: #0000f5; fill-opacity: 0.1"/>
    <path d="M 269.727303 -164.467767 
L 267.016889 -214.699625 
L 278.162169 -227.651154 
L 280.743716 -177.225418 
z
" clip-path="url(#p46f5f555de)" style="fill: #0000f5; fill-opacity: 0.1"/>
    <path d="M 280.743716 -177.225418 
L 278.162169 -227.651154 
L 289.32611 -240.624368 
L 291.778357 -190.004177 
z
" clip-path="url(#p46f5f555de)" style="fill: #0000f5; fill-opacity: 0.1"/>
    <path d="M 291.778357 -190.004177 
L 289.32611 -240.624368 
L 300.508759 -253.619322 
L 302.831271 -202.804098 
z
" clip-path="url(#p46f5f555de)" style="fill: #0000f5; fill-opacity: 0.1"/>
    <path d="M 302.831271 -202.804098 
L 300.508759 -253.619322 
L 311.710164 -266.63607 
L 313.902504 -215.625233 
z
" clip-path="url(#p46f5f555de)" style="fill: #0000f5; fill-opacity: 0.1"/>
    <path d="M 313.902504 -215.625233 
L 311.710164 -266.63607 
L 322.93037 -279.674668 
L 324.992102 -228.467636 
z
" clip-path="url(#p46f5f555de)" style="fill: #0000f5; fill-opacity: 0.1"/>
   </g>
   <g id="legend_1">
    <g id="patch_6">
     <path d="M 357.840076 67.305115 
L 396.2 67.305115 
Q 398.2 67.305115 398.2 65.305115 
L 398.2 7 
Q 398.2 5 396.2 5 
L 357.840076 5 
Q 355.840076 5 355.840076 7 
L 355.840076 65.305115 
Q 355.840076 67.305115 357.840076 67.305115 
z
" style="fill: #ffffff; opacity: 0.8; stroke: #cccccc; stroke-linejoin: miter"/>
    </g>
    <g id="line2d_25">
     <path d="M 359.840076 12.5 
L 369.840076 12.5 
L 379.840076 12.5 
" style="fill: none; stroke: #ff0000; stroke-width: 1.5; stroke-linecap: square"/>
    </g>
    <g id="text_21">
     <!-- $\vec{a}$ -->
     <g transform="translate(387.840076 16)scale(0.1 -0.1)">
      <defs>
       <path id="CMMI12-7e" d="M 3424 3835 
C 3347 3764 3110 3540 3110 3451 
C 3110 3387 3168 3329 3232 3329 
C 3290 3329 3315 3368 3360 3432 
C 3514 3624 3686 3745 3834 3828 
C 3898 3867 3942 3886 3942 3956 
C 3942 4014 3891 4046 3853 4078 
C 3674 4200 3629 4372 3610 4449 
C 3590 4500 3571 4577 3482 4577 
C 3443 4577 3366 4552 3366 4456 
C 3366 4398 3405 4244 3526 4072 
L 1376 4072 
C 1267 4072 1158 4072 1158 3950 
C 1158 3835 1274 3835 1376 3835 
L 3424 3835 
z
" transform="scale(0.015625)"/>
       <path id="CMMI12-61" d="M 1926 760 
C 1894 651 1894 639 1805 517 
C 1664 338 1382 64 1082 64 
C 819 64 672 300 672 677 
C 672 1028 870 1743 992 2012 
C 1210 2459 1510 2689 1760 2689 
C 2182 2689 2266 2165 2266 2114 
C 2266 2108 2246 2024 2240 2012 
L 1926 760 
z
M 2336 2395 
C 2266 2561 2093 2816 1760 2816 
C 1037 2816 256 1884 256 939 
C 256 307 627 -64 1062 -64 
C 1414 -64 1715 211 1894 422 
C 1958 45 2259 -64 2451 -64 
C 2643 -64 2797 51 2912 281 
C 3014 498 3104 888 3104 913 
C 3104 945 3078 971 3040 971 
C 2982 971 2976 939 2950 843 
C 2854 466 2733 64 2470 64 
C 2285 64 2272 230 2272 358 
C 2272 505 2291 575 2349 824 
C 2394 984 2426 1124 2477 1309 
C 2714 2267 2771 2497 2771 2535 
C 2771 2625 2701 2695 2605 2695 
C 2400 2695 2349 2472 2336 2395 
z
" transform="scale(0.015625)"/>
      </defs>
      <use xlink:href="#CMMI12-7e" transform="scale(0.996264)"/>
      <use xlink:href="#CMMI12-61" transform="translate(6.445738 0)scale(0.996264)"/>
     </g>
    </g>
    <g id="line2d_26">
     <path d="M 359.840076 27.24679 
L 369.840076 27.24679 
L 379.840076 27.24679 
" style="fill: none; stroke: #00ff00; stroke-width: 1.5; stroke-linecap: square"/>
    </g>
    <g id="text_22">
     <!-- $\vec{b}$ -->
     <g transform="translate(387.840076 30.74679)scale(0.1 -0.1)">
      <defs>
       <path id="CMMI12-62" d="M 1478 4257 
C 1485 4283 1498 4321 1498 4352 
C 1498 4416 1434 4416 1421 4416 
C 1414 4416 1184 4393 1069 4377 
C 960 4377 864 4358 749 4358 
C 595 4345 550 4339 550 4224 
C 550 4160 614 4160 678 4160 
C 1005 4160 1005 4103 1005 4040 
C 1005 3996 954 3811 928 3696 
L 774 3085 
C 710 2831 346 1387 320 1272 
C 288 1114 288 1005 288 922 
C 288 274 653 -64 1069 -64 
C 1811 -64 2579 888 2579 1814 
C 2579 2401 2246 2816 1766 2816 
C 1434 2816 1133 2542 1011 2414 
L 1478 4257 
z
M 1075 64 
C 870 64 646 217 646 715 
C 646 926 666 1047 781 1494 
C 800 1577 902 1986 928 2069 
C 941 2120 1318 2689 1754 2689 
C 2035 2689 2163 2408 2163 2076 
C 2163 1769 1984 1047 1824 715 
C 1664 370 1370 64 1075 64 
z
" transform="scale(0.015625)"/>
      </defs>
      <use xlink:href="#CMMI12-7e" transform="translate(0 26.29016)scale(0.996264)"/>
      <use xlink:href="#CMMI12-62" transform="translate(11.311737 0)scale(0.996264)"/>
     </g>
    </g>
    <g id="line2d_27">
     <path d="M 359.840076 41.183968 
L 369.840076 41.183968 
L 379.840076 41.183968 
" style="fill: none; stroke: #0016ff; stroke-width: 1.5; stroke-linecap: square"/>
    </g>
    <g id="text_23">
     <!-- $\vec{c}$ -->
     <g transform="translate(387.840076 44.683968)scale(0.1 -0.1)">
      <defs>
       <path id="CMMI12-63" d="M 2502 2431 
C 2381 2431 2323 2431 2234 2355 
C 2195 2323 2125 2227 2125 2125 
C 2125 1997 2221 1920 2342 1920 
C 2496 1920 2669 2044 2669 2292 
C 2669 2588 2374 2816 1933 2816 
C 1094 2816 256 1903 256 996 
C 256 441 602 -64 1254 -64 
C 2125 -64 2675 622 2675 706 
C 2675 744 2637 776 2611 776 
C 2592 776 2586 770 2528 713 
C 2118 162 1510 64 1267 64 
C 826 64 685 446 685 764 
C 685 988 794 1605 1024 2039 
C 1190 2338 1536 2682 1939 2682 
C 2022 2682 2374 2682 2502 2431 
z
" transform="scale(0.015625)"/>
      </defs>
      <use xlink:href="#CMMI12-7e" transform="scale(0.996264)"/>
      <use xlink:href="#CMMI12-63" transform="translate(5.638615 0)scale(0.996264)"/>
     </g>
    </g>
    <g id="line2d_28">
     <path d="M 359.840076 57.867937 
L 369.840076 57.867937 
L 379.840076 57.867937 
" style="fill: none; stroke: #f400ff; stroke-width: 1.5; stroke-linecap: square"/>
    </g>
    <g id="text_24">
     <!-- $\vec{f}$ -->
     <g transform="translate(387.840076 61.367937)scale(0.1 -0.1)">
      <defs>
       <path id="CMMI12-66" d="M 2854 2566 
C 2982 2566 3034 2566 3034 2688 
C 3034 2752 2982 2752 2867 2752 
L 2349 2752 
C 2470 3429 2560 3897 2611 4107 
C 2650 4265 2784 4416 2950 4416 
C 3085 4416 3219 4358 3283 4298 
C 3034 4272 2957 4082 2957 3969 
C 2957 3837 3053 3759 3174 3759 
C 3302 3759 3494 3870 3494 4119 
C 3494 4393 3226 4544 2944 4544 
C 2669 4544 2400 4334 2272 4078 
C 2157 3848 2093 3611 1946 2752 
L 1517 2752 
C 1395 2752 1331 2752 1331 2637 
C 1331 2566 1370 2566 1498 2566 
L 1907 2566 
C 1792 1976 1530 542 1382 -137 
C 1274 -689 1178 -1152 858 -1152 
C 838 -1152 653 -1152 538 -1031 
C 864 -1005 864 -726 864 -720 
C 864 -593 768 -517 646 -517 
C 518 -517 326 -625 326 -867 
C 326 -1140 608 -1280 858 -1280 
C 1510 -1280 1779 -118 1850 199 
C 1965 688 2278 2376 2310 2566 
L 2854 2566 
z
" transform="scale(0.015625)"/>
      </defs>
      <use xlink:href="#CMMI12-7e" transform="translate(13.568792 26.29016)scale(0.996264)"/>
      <use xlink:href="#CMMI12-66" transform="scale(0.996264)"/>
     </g>
    </g>
   </g>
  </g>
 </g>
 <defs>
  <clipPath id="p46f5f555de">
   <rect x="57.6" y="0" width="345.6" height="345.6"/>
  </clipPath>
 </defs>
</svg>
