<?xml version="1.0" encoding="utf-8" standalone="no"?>
<!DOCTYPE svg PUBLIC "-//W3C//DTD SVG 1.1//EN"
  "http://www.w3.org/Graphics/SVG/1.1/DTD/svg11.dtd">
<svg xmlns:xlink="http://www.w3.org/1999/xlink" width="460.8pt" height="345.6pt" viewBox="0 0 460.8 345.6" xmlns="http://www.w3.org/2000/svg" version="1.1">
 <metadata>
  <rdf:RDF xmlns:dc="http://purl.org/dc/elements/1.1/" xmlns:cc="http://creativecommons.org/ns#" xmlns:rdf="http://www.w3.org/1999/02/22-rdf-syntax-ns#">
   <cc:Work>
    <dc:type rdf:resource="http://purl.org/dc/dcmitype/StillImage"/>
    <dc:date>2022-07-12T15:41:39.107529</dc:date>
    <dc:format>image/svg+xml</dc:format>
    <dc:creator>
     <cc:Agent>
      <dc:title>Matplotlib v3.5.1, https://matplotlib.org/</dc:title>
     </cc:Agent>
    </dc:creator>
   </cc:Work>
  </rdf:RDF>
 </metadata>
 <defs>
  <style type="text/css">*{stroke-linejoin: round; stroke-linecap: butt}</style>
 </defs>
 <g id="figure_1">
  <g id="patch_1">
   <path d="M 0 345.6 
L 460.8 345.6 
L 460.8 0 
L 0 0 
z
" style="fill: #ffffff"/>
  </g>
  <g id="patch_2">
   <path d="M 57.6 345.6 
L 403.2 345.6 
L 403.2 0 
L 57.6 0 
z
" style="fill: #ffffff"/>
  </g>
  <g id="pane3d_1">
   <g id="patch_3">
    <path d="M 146.392804 246.273888 
L 102.777915 255.977835 
L 102.777915 80.281625 
L 146.392804 89.985572 
" style="fill: #f2f2f2; opacity: 0.5; stroke: #f2f2f2; stroke-linejoin: miter"/>
   </g>
  </g>
  <g id="pane3d_2">
   <g id="patch_4">
    <path d="M 354.604963 247.50617 
L 146.392804 246.273888 
L 146.392804 89.985572 
L 354.604963 88.75329 
" style="fill: #e6e6e6; opacity: 0.5; stroke: #e6e6e6; stroke-linejoin: miter"/>
   </g>
  </g>
  <g id="pane3d_3">
   <g id="patch_5">
    <path d="M 354.604963 247.50617 
L 146.392804 246.273888 
L 102.777915 255.977835 
L 336.530431 257.538225 
" style="fill: #ececec; opacity: 0.5; stroke: #ececec; stroke-linejoin: miter"/>
   </g>
  </g>
  <g id="axis3d_1">
   <g id="line2d_1">
    <path d="M 102.777915 255.977835 
L 336.530431 257.538225 
" style="fill: none; stroke: #000000; stroke-width: 0.8; stroke-linecap: square"/>
   </g>
   <g id="text_1">
    <!-- x -->
    <g transform="translate(210.115283 287.358413)scale(0.16 -0.16)">
     <defs>
      <path id="CMSS17-78" d="M 1587 1414 
L 2656 2739 
L 2099 2739 
L 1363 1777 
L 602 2739 
L 32 2739 
L 1139 1414 
L 0 0 
L 563 0 
L 1363 1121 
L 2195 0 
L 2758 0 
L 1587 1414 
z
" transform="scale(0.015625)"/>
     </defs>
     <use xlink:href="#CMSS17-78" transform="scale(0.996264)"/>
    </g>
   </g>
   <g id="Line3DCollection_1">
    <path d="M 331.77403 257.506474 
L 350.376386 247.481144 
L 350.376386 88.778316 
" style="fill: none; stroke: #b0b0b0; stroke-width: 0.8"/>
    <path d="M 286.283883 257.202809 
L 309.917306 247.241691 
L 309.917306 89.017769 
" style="fill: none; stroke: #b0b0b0; stroke-width: 0.8"/>
    <path d="M 241.101803 256.901201 
L 269.701673 247.003679 
L 269.701673 89.255781 
" style="fill: none; stroke: #b0b0b0; stroke-width: 0.8"/>
    <path d="M 196.224669 256.601629 
L 229.727295 246.767094 
L 229.727295 89.492365 
" style="fill: none; stroke: #b0b0b0; stroke-width: 0.8"/>
    <path d="M 151.649406 256.304071 
L 189.992007 246.531925 
L 189.992007 89.727534 
" style="fill: none; stroke: #b0b0b0; stroke-width: 0.8"/>
    <path d="M 107.372978 256.008509 
L 150.493673 246.298158 
L 150.493673 89.961301 
" style="fill: none; stroke: #b0b0b0; stroke-width: 0.8"/>
   </g>
   <g id="xtick_1">
    <g id="line2d_2">
     <path d="M 331.941482 257.41623 
L 331.43811 257.687511 
" style="fill: none; stroke: #000000; stroke-width: 0.8; stroke-linecap: square"/>
    </g>
    <g id="text_2">
     <!-- $\mathdefault{0}$ -->
     <g transform="translate(327.933831 276.665567)scale(0.1 -0.1)">
      <defs>
       <path id="CMR17-30" d="M 2688 2025 
C 2688 2416 2682 3080 2413 3591 
C 2176 4039 1798 4198 1466 4198 
C 1158 4198 768 4058 525 3597 
C 269 3118 243 2524 243 2025 
C 243 1661 250 1106 448 619 
C 723 -39 1216 -128 1466 -128 
C 1760 -128 2208 -7 2470 600 
C 2662 1042 2688 1559 2688 2025 
z
M 1466 -26 
C 1056 -26 813 325 723 812 
C 653 1188 653 1738 653 2096 
C 653 2588 653 2997 736 3387 
C 858 3929 1216 4096 1466 4096 
C 1728 4096 2067 3923 2189 3400 
C 2272 3036 2278 2607 2278 2096 
C 2278 1680 2278 1169 2202 792 
C 2067 95 1690 -26 1466 -26 
z
" transform="scale(0.015625)"/>
      </defs>
      <use xlink:href="#CMR17-30" transform="scale(0.996264)"/>
     </g>
    </g>
   </g>
   <g id="xtick_2">
    <g id="line2d_3">
     <path d="M 286.496542 257.113177 
L 285.857278 257.382617 
" style="fill: none; stroke: #000000; stroke-width: 0.8; stroke-linecap: square"/>
    </g>
    <g id="text_3">
     <!-- $\mathdefault{1}$ -->
     <g transform="translate(282.0794 276.317514)scale(0.1 -0.1)">
      <defs>
       <path id="CMR17-31" d="M 1702 4058 
C 1702 4192 1696 4192 1606 4192 
C 1357 3916 979 3827 621 3827 
C 602 3827 570 3827 563 3808 
C 557 3795 557 3782 557 3648 
C 755 3648 1088 3686 1344 3839 
L 1344 461 
C 1344 236 1331 160 781 160 
L 589 160 
L 589 0 
C 896 0 1216 0 1523 0 
C 1830 0 2150 0 2458 0 
L 2458 160 
L 2266 160 
C 1715 160 1702 230 1702 458 
L 1702 4058 
z
" transform="scale(0.015625)"/>
      </defs>
      <use xlink:href="#CMR17-31" transform="scale(0.996264)"/>
     </g>
    </g>
   </g>
   <g id="xtick_3">
    <g id="line2d_4">
     <path d="M 241.359054 256.812174 
L 240.585747 257.079792 
" style="fill: none; stroke: #000000; stroke-width: 0.8; stroke-linecap: square"/>
    </g>
    <g id="text_4">
     <!-- $\mathdefault{2}$ -->
     <g transform="translate(236.538012 275.971837)scale(0.1 -0.1)">
      <defs>
       <path id="CMR17-32" d="M 2669 989 
L 2554 989 
C 2490 536 2438 459 2413 420 
C 2381 369 1920 369 1830 369 
L 602 369 
C 832 619 1280 1072 1824 1597 
C 2214 1967 2669 2402 2669 3035 
C 2669 3790 2067 4224 1395 4224 
C 691 4224 262 3604 262 3030 
C 262 2780 448 2748 525 2748 
C 589 2748 781 2787 781 3010 
C 781 3207 614 3264 525 3264 
C 486 3264 448 3258 422 3245 
C 544 3790 915 4058 1306 4058 
C 1862 4058 2227 3617 2227 3035 
C 2227 2479 1901 2000 1536 1584 
L 262 146 
L 262 0 
L 2515 0 
L 2669 989 
z
" transform="scale(0.015625)"/>
      </defs>
      <use xlink:href="#CMR17-32" transform="scale(0.996264)"/>
     </g>
    </g>
   </g>
   <g id="xtick_4">
    <g id="line2d_5">
     <path d="M 196.525908 256.513201 
L 195.62038 256.779015 
" style="fill: none; stroke: #000000; stroke-width: 0.8; stroke-linecap: square"/>
    </g>
    <g id="text_5">
     <!-- $\mathdefault{3}$ -->
     <g transform="translate(191.306472 275.628513)scale(0.1 -0.1)">
      <defs>
       <path id="CMR17-33" d="M 1414 2157 
C 1984 2157 2234 1662 2234 1090 
C 2234 320 1824 25 1453 25 
C 1114 25 563 194 390 693 
C 422 680 454 680 486 680 
C 640 680 755 782 755 948 
C 755 1133 614 1216 486 1216 
C 378 1216 211 1165 211 926 
C 211 335 787 -128 1466 -128 
C 2176 -128 2720 430 2720 1085 
C 2720 1707 2208 2157 1600 2227 
C 2086 2328 2554 2756 2554 3329 
C 2554 3820 2048 4179 1472 4179 
C 890 4179 378 3829 378 3329 
C 378 3110 544 3072 627 3072 
C 762 3072 877 3155 877 3321 
C 877 3486 762 3569 627 3569 
C 602 3569 570 3569 544 3557 
C 730 3959 1235 4032 1459 4032 
C 1683 4032 2106 3925 2106 3320 
C 2106 3143 2080 2828 1862 2550 
C 1670 2304 1453 2304 1242 2284 
C 1210 2284 1062 2269 1037 2269 
C 992 2263 966 2257 966 2208 
C 966 2163 973 2157 1101 2157 
L 1414 2157 
z
" transform="scale(0.015625)"/>
      </defs>
      <use xlink:href="#CMR17-33" transform="scale(0.996264)"/>
     </g>
    </g>
   </g>
   <g id="xtick_5">
    <g id="line2d_6">
     <path d="M 151.994036 256.216238 
L 150.958081 256.480265 
" style="fill: none; stroke: #000000; stroke-width: 0.8; stroke-linecap: square"/>
    </g>
    <g id="text_6">
     <!-- $\mathdefault{4}$ -->
     <g transform="translate(146.381629 275.287516)scale(0.1 -0.1)">
      <defs>
       <path id="CMR17-34" d="M 2150 4122 
C 2150 4256 2144 4256 2029 4256 
L 128 1254 
L 128 1088 
L 1779 1088 
L 1779 457 
C 1779 224 1766 160 1318 160 
L 1197 160 
L 1197 0 
C 1402 0 1747 0 1965 0 
C 2182 0 2528 0 2733 0 
L 2733 160 
L 2611 160 
C 2163 160 2150 224 2150 457 
L 2150 1088 
L 2803 1088 
L 2803 1254 
L 2150 1254 
L 2150 4122 
z
M 1798 3703 
L 1798 1254 
L 256 1254 
L 1798 3703 
z
" transform="scale(0.015625)"/>
      </defs>
      <use xlink:href="#CMR17-34" transform="scale(0.996264)"/>
     </g>
    </g>
   </g>
   <g id="xtick_6">
    <g id="line2d_7">
     <path d="M 107.760412 255.921263 
L 106.595797 256.183522 
" style="fill: none; stroke: #000000; stroke-width: 0.8; stroke-linecap: square"/>
    </g>
    <g id="text_7">
     <!-- $\mathdefault{5}$ -->
     <g transform="translate(101.760373 274.948823)scale(0.1 -0.1)">
      <defs>
       <path id="CMR17-35" d="M 730 3692 
C 794 3666 1056 3584 1325 3584 
C 1920 3584 2246 3911 2432 4100 
C 2432 4157 2432 4192 2394 4192 
C 2387 4192 2374 4192 2323 4163 
C 2099 4058 1837 3973 1517 3973 
C 1325 3973 1037 3999 723 4139 
C 653 4171 640 4171 634 4171 
C 602 4171 595 4164 595 4037 
L 595 2203 
C 595 2089 595 2057 659 2057 
C 691 2057 704 2070 736 2114 
C 941 2401 1222 2522 1542 2522 
C 1766 2522 2246 2382 2246 1289 
C 2246 1085 2246 715 2054 421 
C 1894 159 1645 25 1370 25 
C 947 25 518 320 403 814 
C 429 807 480 795 506 795 
C 589 795 749 840 749 1038 
C 749 1210 627 1280 506 1280 
C 358 1280 262 1190 262 1011 
C 262 454 704 -128 1382 -128 
C 2042 -128 2669 440 2669 1264 
C 2669 2030 2170 2624 1549 2624 
C 1222 2624 947 2503 730 2274 
L 730 3692 
z
" transform="scale(0.015625)"/>
      </defs>
      <use xlink:href="#CMR17-35" transform="scale(0.996264)"/>
     </g>
    </g>
   </g>
  </g>
  <g id="axis3d_2">
   <g id="line2d_8">
    <path d="M 354.604963 247.50617 
L 336.530431 257.538225 
" style="fill: none; stroke: #000000; stroke-width: 0.8; stroke-linecap: square"/>
   </g>
   <g id="text_8">
    <!-- y -->
    <g transform="translate(373.707851 279.818565)scale(0.16 -0.16)">
     <defs>
      <path id="CMSS17-79" d="M 2675 2752 
L 2176 2752 
C 1632 1294 1446 702 1434 383 
L 1427 383 
C 1408 696 1126 1460 902 2007 
L 602 2752 
L 83 2752 
L 1216 13 
C 1146 -178 1043 -465 1011 -529 
C 870 -885 774 -885 672 -885 
C 646 -885 442 -885 211 -809 
L 250 -1229 
C 410 -1261 570 -1280 685 -1280 
C 845 -1280 1165 -1280 1459 -497 
L 2675 2752 
z
" transform="scale(0.015625)"/>
     </defs>
     <use xlink:href="#CMSS17-79" transform="scale(0.996264)"/>
    </g>
   </g>
   <g id="Line3DCollection_2">
    <path d="M 141.833928 88.97126 
L 141.833928 247.288199 
L 352.719024 248.552938 
" style="fill: none; stroke: #b0b0b0; stroke-width: 0.8"/>
    <path d="M 134.022436 87.233269 
L 134.022436 249.026191 
L 349.48573 250.34754 
" style="fill: none; stroke: #b0b0b0; stroke-width: 0.8"/>
    <path d="M 125.860228 85.417246 
L 125.860228 250.842214 
L 346.104844 252.22406 
" style="fill: none; stroke: #b0b0b0; stroke-width: 0.8"/>
    <path d="M 117.323142 83.517816 
L 117.323142 252.741644 
L 342.566024 254.18824 
" style="fill: none; stroke: #b0b0b0; stroke-width: 0.8"/>
    <path d="M 108.384744 81.529097 
L 108.384744 254.730362 
L 338.85794 256.246369 
" style="fill: none; stroke: #b0b0b0; stroke-width: 0.8"/>
   </g>
   <g id="xtick_7">
    <g id="line2d_9">
     <path d="M 351.005207 248.54266 
L 356.147972 248.573502 
" style="fill: none; stroke: #000000; stroke-width: 0.8; stroke-linecap: square"/>
    </g>
    <g id="text_9">
     <!-- $\mathdefault{−4}$ -->
     <g transform="translate(360.056451 265.840413)scale(0.1 -0.1)">
      <defs>
       <path id="CMSY10-0" d="M 4218 1472 
C 4326 1472 4442 1472 4442 1600 
C 4442 1728 4326 1728 4218 1728 
L 755 1728 
C 646 1728 531 1728 531 1600 
C 531 1472 646 1472 755 1472 
L 4218 1472 
z
" transform="scale(0.015625)"/>
      </defs>
      <use xlink:href="#CMSY10-0" transform="scale(0.996264)"/>
      <use xlink:href="#CMR17-34" transform="translate(77.487468 0)scale(0.996264)"/>
     </g>
    </g>
   </g>
   <g id="xtick_8">
    <g id="line2d_10">
     <path d="M 347.734098 250.336798 
L 352.990368 250.369032 
" style="fill: none; stroke: #000000; stroke-width: 0.8; stroke-linecap: square"/>
    </g>
    <g id="text_10">
     <!-- $\mathdefault{−2}$ -->
     <g transform="translate(357.125863 267.86851)scale(0.1 -0.1)">
      <use xlink:href="#CMSY10-0" transform="scale(0.996264)"/>
      <use xlink:href="#CMR17-32" transform="translate(77.487468 0)scale(0.996264)"/>
     </g>
    </g>
   </g>
   <g id="xtick_9">
    <g id="line2d_11">
     <path d="M 344.31369 252.212822 
L 349.688589 252.246545 
" style="fill: none; stroke: #000000; stroke-width: 0.8; stroke-linecap: square"/>
    </g>
    <g id="text_11">
     <!-- $\mathdefault{0}$ -->
     <g transform="translate(357.935729 269.989282)scale(0.1 -0.1)">
      <use xlink:href="#CMR17-30" transform="scale(0.996264)"/>
     </g>
    </g>
   </g>
   <g id="xtick_10">
    <g id="line2d_12">
     <path d="M 340.733524 254.176471 
L 346.232529 254.211788 
" style="fill: none; stroke: #000000; stroke-width: 0.8; stroke-linecap: square"/>
    </g>
    <g id="text_12">
     <!-- $\mathdefault{2}$ -->
     <g transform="translate(354.727912 272.209233)scale(0.1 -0.1)">
      <use xlink:href="#CMR17-32" transform="scale(0.996264)"/>
     </g>
    </g>
   </g>
   <g id="xtick_11">
    <g id="line2d_13">
     <path d="M 336.98214 256.23403 
L 342.611116 256.271056 
" style="fill: none; stroke: #000000; stroke-width: 0.8; stroke-linecap: square"/>
    </g>
    <g id="text_13">
     <!-- $\mathdefault{4}$ -->
     <g transform="translate(351.36649 274.535484)scale(0.1 -0.1)">
      <use xlink:href="#CMR17-34" transform="scale(0.996264)"/>
     </g>
    </g>
   </g>
  </g>
  <g id="axis3d_3">
   <g id="line2d_14">
    <path d="M 354.604963 247.50617 
L 354.604963 88.75329 
" style="fill: none; stroke: #000000; stroke-width: 0.8; stroke-linecap: square"/>
   </g>
   <g id="text_14">
    <!-- z -->
    <g transform="translate(382.404915 172.114786)scale(0.16 -0.16)">
     <defs>
      <path id="CMSS17-7a" d="M 2400 2502 
L 2400 2750 
L 250 2750 
L 250 2368 
L 1069 2368 
C 1146 2368 1222 2368 1299 2368 
L 1747 2368 
L 166 261 
L 166 0 
L 2419 0 
L 2419 395 
L 1549 395 
C 1472 395 1395 395 1318 395 
L 826 395 
L 2400 2502 
z
" transform="scale(0.015625)"/>
     </defs>
     <use xlink:href="#CMSS17-7a" transform="scale(0.996264)"/>
    </g>
   </g>
   <g id="Line3DCollection_3">
    <path d="M 354.604963 244.331112 
L 146.392804 243.148121 
L 102.777915 252.463911 
" style="fill: none; stroke: #b0b0b0; stroke-width: 0.8"/>
    <path d="M 354.604963 213.850559 
L 146.392804 213.140765 
L 102.777915 218.730238 
" style="fill: none; stroke: #b0b0b0; stroke-width: 0.8"/>
    <path d="M 354.604963 183.370006 
L 146.392804 183.133408 
L 102.777915 184.996566 
" style="fill: none; stroke: #b0b0b0; stroke-width: 0.8"/>
    <path d="M 354.604963 152.889453 
L 146.392804 153.126051 
L 102.777915 151.262894 
" style="fill: none; stroke: #b0b0b0; stroke-width: 0.8"/>
    <path d="M 354.604963 122.4089 
L 146.392804 123.118695 
L 102.777915 117.529221 
" style="fill: none; stroke: #b0b0b0; stroke-width: 0.8"/>
    <path d="M 354.604963 91.928347 
L 146.392804 93.111338 
L 102.777915 83.795549 
" style="fill: none; stroke: #b0b0b0; stroke-width: 0.8"/>
   </g>
   <g id="xtick_12">
    <g id="line2d_15">
     <path d="M 352.913212 244.3215 
L 357.989745 244.350344 
" style="fill: none; stroke: #000000; stroke-width: 0.8; stroke-linecap: square"/>
    </g>
    <g id="text_15">
     <!-- $\mathdefault{0}$ -->
     <g transform="translate(366.562683 250.782998)scale(0.1 -0.1)">
      <use xlink:href="#CMR17-30" transform="scale(0.996264)"/>
     </g>
    </g>
   </g>
   <g id="xtick_13">
    <g id="line2d_16">
     <path d="M 352.913212 213.844792 
L 357.989745 213.862098 
" style="fill: none; stroke: #000000; stroke-width: 0.8; stroke-linecap: square"/>
    </g>
    <g id="text_16">
     <!-- $\mathdefault{1}$ -->
     <g transform="translate(366.562683 220.48909)scale(0.1 -0.1)">
      <use xlink:href="#CMR17-31" transform="scale(0.996264)"/>
     </g>
    </g>
   </g>
   <g id="xtick_14">
    <g id="line2d_17">
     <path d="M 352.913212 183.368084 
L 357.989745 183.373852 
" style="fill: none; stroke: #000000; stroke-width: 0.8; stroke-linecap: square"/>
    </g>
    <g id="text_17">
     <!-- $\mathdefault{2}$ -->
     <g transform="translate(366.562683 190.195182)scale(0.1 -0.1)">
      <use xlink:href="#CMR17-32" transform="scale(0.996264)"/>
     </g>
    </g>
   </g>
   <g id="xtick_15">
    <g id="line2d_18">
     <path d="M 352.913212 152.891376 
L 357.989745 152.885607 
" style="fill: none; stroke: #000000; stroke-width: 0.8; stroke-linecap: square"/>
    </g>
    <g id="text_18">
     <!-- $\mathdefault{3}$ -->
     <g transform="translate(366.562683 159.901274)scale(0.1 -0.1)">
      <use xlink:href="#CMR17-33" transform="scale(0.996264)"/>
     </g>
    </g>
   </g>
   <g id="xtick_16">
    <g id="line2d_19">
     <path d="M 352.913212 122.414667 
L 357.989745 122.397361 
" style="fill: none; stroke: #000000; stroke-width: 0.8; stroke-linecap: square"/>
    </g>
    <g id="text_19">
     <!-- $\mathdefault{4}$ -->
     <g transform="translate(366.562683 129.607366)scale(0.1 -0.1)">
      <use xlink:href="#CMR17-34" transform="scale(0.996264)"/>
     </g>
    </g>
   </g>
   <g id="xtick_17">
    <g id="line2d_20">
     <path d="M 352.913212 91.937959 
L 357.989745 91.909116 
" style="fill: none; stroke: #000000; stroke-width: 0.8; stroke-linecap: square"/>
    </g>
    <g id="text_20">
     <!-- $\mathdefault{5}$ -->
     <g transform="translate(366.562683 99.313459)scale(0.1 -0.1)">
      <use xlink:href="#CMR17-35" transform="scale(0.996264)"/>
     </g>
    </g>
   </g>
  </g>
  <g id="axes_1">
   <g id="line2d_21">
    <path d="M 341.627857 248.833321 
L 291.778357 84.842775 
" clip-path="url(#p429d257cdf)" style="fill: none; stroke: #ff0000; stroke-width: 1.5; stroke-linecap: square"/>
   </g>
   <g id="line2d_22">
    <path d="M 341.627857 248.833321 
L 261.596714 121.082728 
" clip-path="url(#p429d257cdf)" style="fill: none; stroke: #00ff00; stroke-width: 1.5; stroke-linecap: square"/>
   </g>
   <g id="line2d_23">
    <path d="M 341.627857 248.833321 
L 229.203883 -1 
" clip-path="url(#p429d257cdf)" style="fill: none; stroke: #0016ff; stroke-width: 1.5; stroke-linecap: square"/>
   </g>
   <g id="line2d_24">
    <path d="M 341.627857 248.833321 
L 142.167152 152.761382 
" clip-path="url(#p429d257cdf)" style="fill: none; stroke: #f400ff; stroke-width: 1.5; stroke-linecap: square"/>
   </g>
   <g id="Poly3DCollection_1">
    <path d="M 189.308629 24.806442 
L 169.487126 -16.405334 
L 167.730964 -28.751509 
L 187.656067 12.662566 
z
" clip-path="url(#p429d257cdf)" style="fill: #0000f5; fill-opacity: 0.1"/>
    <path d="M 209.18963 66.141923 
L 189.308629 24.806442 
L 187.656067 12.662566 
L 207.6413 54.201621 
z
" clip-path="url(#p429d257cdf)" style="fill: #0000f5; fill-opacity: 0.1"/>
    <path d="M 229.130398 107.601668 
L 209.18963 66.141923 
L 207.6413 54.201621 
L 227.686935 95.866222 
z
" clip-path="url(#p429d257cdf)" style="fill: #0000f5; fill-opacity: 0.1"/>
    <path d="M 249.131202 149.186236 
L 229.130398 107.601668 
L 227.686935 95.866222 
L 247.793248 137.65694 
z
" clip-path="url(#p429d257cdf)" style="fill: #0000f5; fill-opacity: 0.1"/>
    <path d="M 187.656067 12.662566 
L 167.730964 -28.751509 
L 165.955902 -41.23055 
L 185.985693 0.387804 
z
" clip-path="url(#p429d257cdf)" style="fill: #0000f5; fill-opacity: 0.1"/>
    <path d="M 269.192314 190.896194 
L 249.131202 149.186236 
L 247.793248 137.65694 
L 267.960514 179.574347 
z
" clip-path="url(#p429d257cdf)" style="fill: #0000f5; fill-opacity: 0.1"/>
    <path d="M 207.6413 54.201621 
L 187.656067 12.662566 
L 185.985693 0.387804 
L 206.076256 42.132431 
z
" clip-path="url(#p429d257cdf)" style="fill: #0000f5; fill-opacity: 0.1"/>
    <path d="M 289.314007 232.732108 
L 269.192314 190.896194 
L 267.960514 179.574347 
L 288.18901 221.619021 
z
" clip-path="url(#p429d257cdf)" style="fill: #0000f5; fill-opacity: 0.1"/>
    <path d="M 227.686935 95.866222 
L 207.6413 54.201621 
L 206.076256 42.132431 
L 226.227868 84.003907 
z
" clip-path="url(#p429d257cdf)" style="fill: #0000f5; fill-opacity: 0.1"/>
    <path d="M 309.496556 274.69455 
L 289.314007 232.732108 
L 288.18901 221.619021 
L 308.479016 263.791543 
z
" clip-path="url(#p429d257cdf)" style="fill: #0000f5; fill-opacity: 0.1"/>
    <path d="M 247.793248 137.65694 
L 227.686935 95.866222 
L 226.227868 84.003907 
L 246.440808 126.002813 
z
" clip-path="url(#p429d257cdf)" style="fill: #0000f5; fill-opacity: 0.1"/>
    <path d="M 329.740237 316.784095 
L 309.496556 274.69455 
L 308.479016 263.791543 
L 328.830813 306.092496 
z
" clip-path="url(#p429d257cdf)" style="fill: #0000f5; fill-opacity: 0.1"/>
    <path d="M 185.985693 0.387804 
L 165.955902 -41.23055 
L 164.161635 -53.844612 
L 184.297218 -12.019973 
z
" clip-path="url(#p429d257cdf)" style="fill: #0000f5; fill-opacity: 0.1"/>
    <path d="M 267.960514 179.574347 
L 247.793248 137.65694 
L 246.440808 126.002813 
L 266.715357 168.12973 
z
" clip-path="url(#p429d257cdf)" style="fill: #0000f5; fill-opacity: 0.1"/>
    <path d="M 350.045328 359.001322 
L 329.740237 316.784095 
L 328.830813 306.092496 
L 349.244683 348.522468 
z
" clip-path="url(#p429d257cdf)" style="fill: #0000f5; fill-opacity: 0.1"/>
    <path d="M 206.076256 42.132431 
L 185.985693 0.387804 
L 184.297218 -12.019973 
L 204.494227 29.932254 
z
" clip-path="url(#p429d257cdf)" style="fill: #0000f5; fill-opacity: 0.1"/>
    <path d="M 288.18901 221.619021 
L 267.960514 179.574347 
L 266.715357 168.12973 
L 287.051796 210.385244 
z
" clip-path="url(#p429d257cdf)" style="fill: #0000f5; fill-opacity: 0.1"/>
    <path d="M 226.227868 84.003907 
L 206.076256 42.132431 
L 204.494227 29.932254 
L 224.752941 72.012655 
z
" clip-path="url(#p429d257cdf)" style="fill: #0000f5; fill-opacity: 0.1"/>
    <path d="M 308.479016 263.791543 
L 288.18901 221.619021 
L 287.051796 210.385244 
L 307.450409 252.769945 
z
" clip-path="url(#p429d257cdf)" style="fill: #0000f5; fill-opacity: 0.1"/>
    <path d="M 246.440808 126.002813 
L 226.227868 84.003907 
L 224.752941 72.012655 
L 245.073645 114.221818 
z
" clip-path="url(#p429d257cdf)" style="fill: #0000f5; fill-opacity: 0.1"/>
    <path d="M 328.830813 306.092496 
L 308.479016 263.791543 
L 307.450409 252.769945 
L 327.911483 295.284427 
z
" clip-path="url(#p429d257cdf)" style="fill: #0000f5; fill-opacity: 0.1"/>
    <path d="M 184.297218 -12.019973 
L 164.161635 -53.844612 
L 162.347848 -66.595901 
L 182.590347 -24.562938 
z
" clip-path="url(#p429d257cdf)" style="fill: #0000f5; fill-opacity: 0.1"/>
    <path d="M 266.715357 168.12973 
L 246.440808 126.002813 
L 245.073645 114.221818 
L 265.456624 156.560334 
z
" clip-path="url(#p429d257cdf)" style="fill: #0000f5; fill-opacity: 0.1"/>
    <path d="M 349.244683 348.522468 
L 328.830813 306.092496 
L 327.911483 295.284427 
L 348.435303 337.929287 
z
" clip-path="url(#p429d257cdf)" style="fill: #0000f5; fill-opacity: 0.1"/>
    <path d="M 204.494227 29.932254 
L 184.297218 -12.019973 
L 182.590347 -24.562938 
L 202.894934 17.598948 
z
" clip-path="url(#p429d257cdf)" style="fill: #0000f5; fill-opacity: 0.1"/>
    <path d="M 287.051796 210.385244 
L 266.715357 168.12973 
L 265.456624 156.560334 
L 285.902164 199.028799 
z
" clip-path="url(#p429d257cdf)" style="fill: #0000f5; fill-opacity: 0.1"/>
    <path d="M 224.752941 72.012655 
L 204.494227 29.932254 
L 202.894934 17.598948 
L 223.261895 59.890352 
z
" clip-path="url(#p429d257cdf)" style="fill: #0000f5; fill-opacity: 0.1"/>
    <path d="M 307.450409 252.769945 
L 287.051796 210.385244 
L 285.902164 199.028799 
L 306.410553 241.627812 
z
" clip-path="url(#p429d257cdf)" style="fill: #0000f5; fill-opacity: 0.1"/>
    <path d="M 245.073645 114.221818 
L 224.752941 72.012655 
L 223.261895 59.890352 
L 243.691518 102.311871 
z
" clip-path="url(#p429d257cdf)" style="fill: #0000f5; fill-opacity: 0.1"/>
    <path d="M 327.911483 295.284427 
L 307.450409 252.769945 
L 306.410553 241.627812 
L 326.982083 284.357976 
z
" clip-path="url(#p429d257cdf)" style="fill: #0000f5; fill-opacity: 0.1"/>
    <path d="M 182.590347 -24.562938 
L 162.347848 -66.595901 
L 160.514221 -79.486666 
L 180.864777 -37.243313 
z
" clip-path="url(#p429d257cdf)" style="fill: #0000f5; fill-opacity: 0.1"/>
    <path d="M 265.456624 156.560334 
L 245.073645 114.221818 
L 243.691518 102.311871 
L 264.184092 144.864107 
z
" clip-path="url(#p429d257cdf)" style="fill: #0000f5; fill-opacity: 0.1"/>
    <path d="M 348.435303 337.929287 
L 327.911483 295.284427 
L 326.982083 284.357976 
L 347.617044 327.219899 
z
" clip-path="url(#p429d257cdf)" style="fill: #0000f5; fill-opacity: 0.1"/>
    <path d="M 202.894934 17.598948 
L 182.590347 -24.562938 
L 180.864777 -37.243313 
L 201.278094 5.13032 
z
" clip-path="url(#p429d257cdf)" style="fill: #0000f5; fill-opacity: 0.1"/>
    <path d="M 285.902164 199.028799 
L 265.456624 156.560334 
L 264.184092 144.864107 
L 284.739909 187.547665 
z
" clip-path="url(#p429d257cdf)" style="fill: #0000f5; fill-opacity: 0.1"/>
    <path d="M 223.261895 59.890352 
L 202.894934 17.598948 
L 201.278094 5.13032 
L 221.754464 47.634837 
z
" clip-path="url(#p429d257cdf)" style="fill: #0000f5; fill-opacity: 0.1"/>
    <path d="M 306.410553 241.627812 
L 285.902164 199.028799 
L 284.739909 187.547665 
L 305.359262 230.363155 
z
" clip-path="url(#p429d257cdf)" style="fill: #0000f5; fill-opacity: 0.1"/>
    <path d="M 243.691518 102.311871 
L 223.261895 59.890352 
L 221.754464 47.634837 
L 242.294179 90.270844 
z
" clip-path="url(#p429d257cdf)" style="fill: #0000f5; fill-opacity: 0.1"/>
    <path d="M 326.982083 284.357976 
L 306.410553 241.627812 
L 305.359262 230.363155 
L 326.042447 273.311187 
z
" clip-path="url(#p429d257cdf)" style="fill: #0000f5; fill-opacity: 0.1"/>
    <path d="M 180.864777 -37.243313 
L 160.514221 -79.486666 
L 158.660428 -92.51921 
L 179.120199 -50.063368 
z
" clip-path="url(#p429d257cdf)" style="fill: #0000f5; fill-opacity: 0.1"/>
    <path d="M 264.184092 144.864107 
L 243.691518 102.311871 
L 242.294179 90.270844 
L 262.897533 133.038953 
z
" clip-path="url(#p429d257cdf)" style="fill: #0000f5; fill-opacity: 0.1"/>
    <path d="M 347.617044 327.219899 
L 326.982083 284.357976 
L 326.042447 273.311187 
L 346.789759 316.39238 
z
" clip-path="url(#p429d257cdf)" style="fill: #0000f5; fill-opacity: 0.1"/>
    <path d="M 201.278094 5.13032 
L 180.864777 -37.243313 
L 179.120199 -50.063368 
L 199.643416 -7.475868 
z
" clip-path="url(#p429d257cdf)" style="fill: #0000f5; fill-opacity: 0.1"/>
    <path d="M 284.739909 187.547665 
L 264.184092 144.864107 
L 262.897533 133.038953 
L 283.564823 175.939779 
z
" clip-path="url(#p429d257cdf)" style="fill: #0000f5; fill-opacity: 0.1"/>
    <path d="M 221.754464 47.634837 
L 201.278094 5.13032 
L 199.643416 -7.475868 
L 220.230376 35.243902 
z
" clip-path="url(#p429d257cdf)" style="fill: #0000f5; fill-opacity: 0.1"/>
    <path d="M 305.359262 230.363155 
L 284.739909 187.547665 
L 283.564823 175.939779 
L 304.296347 218.973941 
z
" clip-path="url(#p429d257cdf)" style="fill: #0000f5; fill-opacity: 0.1"/>
    <path d="M 242.294179 90.270844 
L 221.754464 47.634837 
L 220.230376 35.243902 
L 240.881375 78.096561 
z
" clip-path="url(#p429d257cdf)" style="fill: #0000f5; fill-opacity: 0.1"/>
    <path d="M 326.042447 273.311187 
L 305.359262 230.363155 
L 304.296347 218.973941 
L 325.092405 262.14206 
z
" clip-path="url(#p429d257cdf)" style="fill: #0000f5; fill-opacity: 0.1"/>
    <path d="M 179.120199 -50.063368 
L 158.660428 -92.51921 
L 156.786133 -105.695884 
L 177.356297 -63.025423 
z
" clip-path="url(#p429d257cdf)" style="fill: #0000f5; fill-opacity: 0.1"/>
    <path d="M 262.897533 133.038953 
L 242.294179 90.270844 
L 240.881375 78.096561 
L 261.596714 121.082728 
z
" clip-path="url(#p429d257cdf)" style="fill: #0000f5; fill-opacity: 0.1"/>
    <path d="M 346.789759 316.39238 
L 326.042447 273.311187 
L 325.092405 262.14206 
L 345.953298 305.444765 
z
" clip-path="url(#p429d257cdf)" style="fill: #0000f5; fill-opacity: 0.1"/>
    <path d="M 199.643416 -7.475868 
L 179.120199 -50.063368 
L 177.356297 -63.025423 
L 197.990604 -20.221906 
z
" clip-path="url(#p429d257cdf)" style="fill: #0000f5; fill-opacity: 0.1"/>
    <path d="M 283.564823 175.939779 
L 262.897533 133.038953 
L 261.596714 121.082728 
L 282.376692 164.203029 
z
" clip-path="url(#p429d257cdf)" style="fill: #0000f5; fill-opacity: 0.1"/>
    <path d="M 220.230376 35.243902 
L 199.643416 -7.475868 
L 197.990604 -20.221906 
L 218.689354 22.715292 
z
" clip-path="url(#p429d257cdf)" style="fill: #0000f5; fill-opacity: 0.1"/>
    <path d="M 304.296347 218.973941 
L 283.564823 175.939779 
L 282.376692 164.203029 
L 303.221614 207.458093 
z
" clip-path="url(#p429d257cdf)" style="fill: #0000f5; fill-opacity: 0.1"/>
    <path d="M 240.881375 78.096561 
L 220.230376 35.243902 
L 218.689354 22.715292 
L 239.45285 65.786797 
z
" clip-path="url(#p429d257cdf)" style="fill: #0000f5; fill-opacity: 0.1"/>
    <path d="M 325.092405 262.14206 
L 304.296347 218.973941 
L 303.221614 207.458093 
L 324.131783 250.848553 
z
" clip-path="url(#p429d257cdf)" style="fill: #0000f5; fill-opacity: 0.1"/>
    <path d="M 177.356297 -63.025423 
L 156.786133 -105.695884 
L 154.890994 -119.019092 
L 175.572748 -76.131852 
z
" clip-path="url(#p429d257cdf)" style="fill: #0000f5; fill-opacity: 0.1"/>
    <path d="M 261.596714 121.082728 
L 240.881375 78.096561 
L 239.45285 65.786797 
L 260.281396 108.99324 
z
" clip-path="url(#p429d257cdf)" style="fill: #0000f5; fill-opacity: 0.1"/>
    <path d="M 345.953298 305.444765 
L 325.092405 262.14206 
L 324.131783 250.848553 
L 345.107507 294.375044 
z
" clip-path="url(#p429d257cdf)" style="fill: #0000f5; fill-opacity: 0.1"/>
    <path d="M 197.990604 -20.221906 
L 177.356297 -63.025423 
L 175.572748 -76.131852 
L 196.319353 -33.110134 
z
" clip-path="url(#p429d257cdf)" style="fill: #0000f5; fill-opacity: 0.1"/>
    <path d="M 282.376692 164.203029 
L 261.596714 121.082728 
L 260.281396 108.99324 
L 281.175297 152.335258 
z
" clip-path="url(#p429d257cdf)" style="fill: #0000f5; fill-opacity: 0.1"/>
    <path d="M 218.689354 22.715292 
L 197.990604 -20.221906 
L 196.319353 -33.110134 
L 217.131114 10.046697 
z
" clip-path="url(#p429d257cdf)" style="fill: #0000f5; fill-opacity: 0.1"/>
    <path d="M 303.221614 207.458093 
L 282.376692 164.203029 
L 281.175297 152.335258 
L 302.134864 195.813488 
z
" clip-path="url(#p429d257cdf)" style="fill: #0000f5; fill-opacity: 0.1"/>
    <path d="M 239.45285 65.786797 
L 218.689354 22.715292 
L 217.131114 10.046697 
L 238.008338 53.339278 
z
" clip-path="url(#p429d257cdf)" style="fill: #0000f5; fill-opacity: 0.1"/>
    <path d="M 324.131783 250.848553 
L 303.221614 207.458093 
L 302.134864 195.813488 
L 323.160404 239.428575 
z
" clip-path="url(#p429d257cdf)" style="fill: #0000f5; fill-opacity: 0.1"/>
    <path d="M 175.572748 -76.131852 
L 154.890994 -119.019092 
L 152.974662 -132.491293 
L 173.769223 -89.38508 
z
" clip-path="url(#p429d257cdf)" style="fill: #0000f5; fill-opacity: 0.1"/>
    <path d="M 260.281396 108.99324 
L 239.45285 65.786797 
L 238.008338 53.339278 
L 258.951335 96.76825 
z
" clip-path="url(#p429d257cdf)" style="fill: #0000f5; fill-opacity: 0.1"/>
    <path d="M 345.107507 294.375044 
L 324.131783 250.848553 
L 323.160404 239.428575 
L 344.25223 283.181165 
z
" clip-path="url(#p429d257cdf)" style="fill: #0000f5; fill-opacity: 0.1"/>
    <path d="M 196.319353 -33.110134 
L 175.572748 -76.131852 
L 173.769223 -89.38508 
L 194.629354 -46.142944 
z
" clip-path="url(#p429d257cdf)" style="fill: #0000f5; fill-opacity: 0.1"/>
    <path d="M 281.175297 152.335258 
L 260.281396 108.99324 
L 258.951335 96.76825 
L 279.960416 140.334259 
z
" clip-path="url(#p429d257cdf)" style="fill: #0000f5; fill-opacity: 0.1"/>
    <path d="M 217.131114 10.046697 
L 196.319353 -33.110134 
L 194.629354 -46.142944 
L 215.555365 -2.76424 
z
" clip-path="url(#p429d257cdf)" style="fill: #0000f5; fill-opacity: 0.1"/>
    <path d="M 302.134864 195.813488 
L 281.175297 152.335258 
L 279.960416 140.334259 
L 301.035894 184.037955 
z
" clip-path="url(#p429d257cdf)" style="fill: #0000f5; fill-opacity: 0.1"/>
    <path d="M 238.008338 53.339278 
L 217.131114 10.046697 
L 215.555365 -2.76424 
L 236.54757 40.751679 
z
" clip-path="url(#p429d257cdf)" style="fill: #0000f5; fill-opacity: 0.1"/>
    <path d="M 323.160404 239.428575 
L 302.134864 195.813488 
L 301.035894 184.037955 
L 322.178085 227.87999 
z
" clip-path="url(#p429d257cdf)" style="fill: #0000f5; fill-opacity: 0.1"/>
    <path d="M 173.769223 -89.38508 
L 152.974662 -132.491293 
L 151.036779 -146.114999 
L 171.945384 -102.787587 
z
" clip-path="url(#p429d257cdf)" style="fill: #0000f5; fill-opacity: 0.1"/>
    <path d="M 258.951335 96.76825 
L 238.008338 53.339278 
L 236.54757 40.751679 
L 257.606283 84.405465 
z
" clip-path="url(#p429d257cdf)" style="fill: #0000f5; fill-opacity: 0.1"/>
    <path d="M 344.25223 283.181165 
L 323.160404 239.428575 
L 322.178085 227.87999 
L 343.387306 271.861024 
z
" clip-path="url(#p429d257cdf)" style="fill: #0000f5; fill-opacity: 0.1"/>
    <path d="M 194.629354 -46.142944 
L 173.769223 -89.38508 
L 171.945384 -102.787587 
L 192.920289 -59.322784 
z
" clip-path="url(#p429d257cdf)" style="fill: #0000f5; fill-opacity: 0.1"/>
    <path d="M 279.960416 140.334259 
L 258.951335 96.76825 
L 257.606283 84.405465 
L 278.731819 128.197776 
z
" clip-path="url(#p429d257cdf)" style="fill: #0000f5; fill-opacity: 0.1"/>
    <path d="M 215.555365 -2.76424 
L 194.629354 -46.142944 
L 192.920289 -59.322784 
L 213.961812 -15.719934 
z
" clip-path="url(#p429d257cdf)" style="fill: #0000f5; fill-opacity: 0.1"/>
    <path d="M 301.035894 184.037955 
L 279.960416 140.334259 
L 278.731819 128.197776 
L 299.924499 172.129271 
z
" clip-path="url(#p429d257cdf)" style="fill: #0000f5; fill-opacity: 0.1"/>
    <path d="M 236.54757 40.751679 
L 215.555365 -2.76424 
L 213.961812 -15.719934 
L 235.07027 28.021621 
z
" clip-path="url(#p429d257cdf)" style="fill: #0000f5; fill-opacity: 0.1"/>
    <path d="M 322.178085 227.87999 
L 301.035894 184.037955 
L 299.924499 172.129271 
L 321.184642 216.200615 
z
" clip-path="url(#p429d257cdf)" style="fill: #0000f5; fill-opacity: 0.1"/>
    <path d="M 171.945384 -102.787587 
L 151.036779 -146.114999 
L 149.076981 -159.892781 
L 170.100885 -116.34191 
z
" clip-path="url(#p429d257cdf)" style="fill: #0000f5; fill-opacity: 0.1"/>
    <path d="M 257.606283 84.405465 
L 236.54757 40.751679 
L 235.07027 28.021621 
L 256.245983 71.902544 
z
" clip-path="url(#p429d257cdf)" style="fill: #0000f5; fill-opacity: 0.1"/>
    <path d="M 343.387306 271.861024 
L 322.178085 227.87999 
L 321.184642 216.200615 
L 342.512571 260.412476 
z
" clip-path="url(#p429d257cdf)" style="fill: #0000f5; fill-opacity: 0.1"/>
    <path d="M 192.920289 -59.322784 
L 171.945384 -102.787587 
L 170.100885 -116.34191 
L 191.191834 -72.652154 
z
" clip-path="url(#p429d257cdf)" style="fill: #0000f5; fill-opacity: 0.1"/>
    <path d="M 278.731819 128.197776 
L 257.606283 84.405465 
L 256.245983 71.902544 
L 277.489274 115.923502 
z
" clip-path="url(#p429d257cdf)" style="fill: #0000f5; fill-opacity: 0.1"/>
    <path d="M 213.961812 -15.719934 
L 192.920289 -59.322784 
L 191.191834 -72.652154 
L 212.35015 -28.82285 
z
" clip-path="url(#p429d257cdf)" style="fill: #0000f5; fill-opacity: 0.1"/>
    <path d="M 299.924499 172.129271 
L 278.731819 128.197776 
L 277.489274 115.923502 
L 298.800465 160.085166 
z
" clip-path="url(#p429d257cdf)" style="fill: #0000f5; fill-opacity: 0.1"/>
    <path d="M 235.07027 28.021621 
L 213.961812 -15.719934 
L 212.35015 -28.82285 
L 233.576156 15.146674 
z
" clip-path="url(#p429d257cdf)" style="fill: #0000f5; fill-opacity: 0.1"/>
    <path d="M 321.184642 216.200615 
L 299.924499 172.129271 
L 298.800465 160.085166 
L 320.179883 204.388213 
z
" clip-path="url(#p429d257cdf)" style="fill: #0000f5; fill-opacity: 0.1"/>
    <path d="M 170.100885 -116.34191 
L 149.076981 -159.892781 
L 147.094892 -173.827268 
L 168.235374 -130.050642 
z
" clip-path="url(#p429d257cdf)" style="fill: #0000f5; fill-opacity: 0.1"/>
    <path d="M 256.245983 71.902544 
L 235.07027 28.021621 
L 233.576156 15.146674 
L 254.870177 59.25709 
z
" clip-path="url(#p429d257cdf)" style="fill: #0000f5; fill-opacity: 0.1"/>
    <path d="M 342.512571 260.412476 
L 321.184642 216.200615 
L 320.179883 204.388213 
L 341.627857 248.833321 
z
" clip-path="url(#p429d257cdf)" style="fill: #0000f5; fill-opacity: 0.1"/>
    <path d="M 191.191834 -72.652154 
L 170.100885 -116.34191 
L 168.235374 -130.050642 
L 189.443658 -86.133616 
z
" clip-path="url(#p429d257cdf)" style="fill: #0000f5; fill-opacity: 0.1"/>
    <path d="M 277.489274 115.923502 
L 256.245983 71.902544 
L 254.870177 59.25709 
L 276.23254 103.509077 
z
" clip-path="url(#p429d257cdf)" style="fill: #0000f5; fill-opacity: 0.1"/>
    <path d="M 212.35015 -28.82285 
L 191.191834 -72.652154 
L 189.443658 -86.133616 
L 210.72007 -42.075513 
z
" clip-path="url(#p429d257cdf)" style="fill: #0000f5; fill-opacity: 0.1"/>
    <path d="M 298.800465 160.085166 
L 277.489274 115.923502 
L 276.23254 103.509077 
L 297.663576 147.903318 
z
" clip-path="url(#p429d257cdf)" style="fill: #0000f5; fill-opacity: 0.1"/>
    <path d="M 233.576156 15.146674 
L 212.35015 -28.82285 
L 210.72007 -42.075513 
L 232.064939 2.124348 
z
" clip-path="url(#p429d257cdf)" style="fill: #0000f5; fill-opacity: 0.1"/>
    <path d="M 320.179883 204.388213 
L 298.800465 160.085166 
L 297.663576 147.903318 
L 319.163615 192.440499 
z
" clip-path="url(#p429d257cdf)" style="fill: #0000f5; fill-opacity: 0.1"/>
    <path d="M 168.235374 -130.050642 
L 147.094892 -173.827268 
L 145.09013 -187.921148 
L 166.348489 -143.916437 
z
" clip-path="url(#p429d257cdf)" style="fill: #0000f5; fill-opacity: 0.1"/>
    <path d="M 254.870177 59.25709 
L 233.576156 15.146674 
L 232.064939 2.124348 
L 253.478596 46.466651 
z
" clip-path="url(#p429d257cdf)" style="fill: #0000f5; fill-opacity: 0.1"/>
    <path d="M 341.627857 248.833321 
L 320.179883 204.388213 
L 319.163615 192.440499 
L 340.732992 237.121313 
z
" clip-path="url(#p429d257cdf)" style="fill: #0000f5; fill-opacity: 0.1"/>
    <path d="M 189.443658 -86.133616 
L 168.235374 -130.050642 
L 166.348489 -143.916437 
L 187.675419 -99.769786 
z
" clip-path="url(#p429d257cdf)" style="fill: #0000f5; fill-opacity: 0.1"/>
    <path d="M 276.23254 103.509077 
L 254.870177 59.25709 
L 253.478596 46.466651 
L 274.961375 90.952086 
z
" clip-path="url(#p429d257cdf)" style="fill: #0000f5; fill-opacity: 0.1"/>
    <path d="M 210.72007 -42.075513 
L 189.443658 -86.133616 
L 187.675419 -99.769786 
L 209.071253 -55.480504 
z
" clip-path="url(#p429d257cdf)" style="fill: #0000f5; fill-opacity: 0.1"/>
    <path d="M 297.663576 147.903318 
L 276.23254 103.509077 
L 274.961375 90.952086 
L 296.51361 135.581348 
z
" clip-path="url(#p429d257cdf)" style="fill: #0000f5; fill-opacity: 0.1"/>
    <path d="M 232.064939 2.124348 
L 210.72007 -42.075513 
L 209.071253 -55.480504 
L 230.536324 -11.047902 
z
" clip-path="url(#p429d257cdf)" style="fill: #0000f5; fill-opacity: 0.1"/>
    <path d="M 319.163615 192.440499 
L 297.663576 147.903318 
L 296.51361 135.581348 
L 318.135638 180.355136 
z
" clip-path="url(#p429d257cdf)" style="fill: #0000f5; fill-opacity: 0.1"/>
    <path d="M 166.348489 -143.916437 
L 145.09013 -187.921148 
L 143.062304 -202.177171 
L 164.439862 -157.942011 
z
" clip-path="url(#p429d257cdf)" style="fill: #0000f5; fill-opacity: 0.1"/>
    <path d="M 253.478596 46.466651 
L 232.064939 2.124348 
L 230.536324 -11.047902 
L 252.070969 33.528719 
z
" clip-path="url(#p429d257cdf)" style="fill: #0000f5; fill-opacity: 0.1"/>
    <path d="M 340.732992 237.121313 
L 319.163615 192.440499 
L 318.135638 180.355136 
L 339.8278 225.274152 
z
" clip-path="url(#p429d257cdf)" style="fill: #0000f5; fill-opacity: 0.1"/>
    <path d="M 187.675419 -99.769786 
L 166.348489 -143.916437 
L 164.439862 -157.942011 
L 185.886772 -113.563342 
z
" clip-path="url(#p429d257cdf)" style="fill: #0000f5; fill-opacity: 0.1"/>
    <path d="M 274.961375 90.952086 
L 253.478596 46.466651 
L 252.070969 33.528719 
L 273.675527 78.25006 
z
" clip-path="url(#p429d257cdf)" style="fill: #0000f5; fill-opacity: 0.1"/>
    <path d="M 209.071253 -55.480504 
L 187.675419 -99.769786 
L 185.886772 -113.563342 
L 207.403374 -69.040466 
z
" clip-path="url(#p429d257cdf)" style="fill: #0000f5; fill-opacity: 0.1"/>
    <path d="M 296.51361 135.581348 
L 274.961375 90.952086 
L 273.675527 78.25006 
L 295.35034 123.116827 
z
" clip-path="url(#p429d257cdf)" style="fill: #0000f5; fill-opacity: 0.1"/>
    <path d="M 230.536324 -11.047902 
L 209.071253 -55.480504 
L 207.403374 -69.040466 
L 228.990008 -24.372678 
z
" clip-path="url(#p429d257cdf)" style="fill: #0000f5; fill-opacity: 0.1"/>
    <path d="M 318.135638 180.355136 
L 296.51361 135.581348 
L 295.35034 123.116827 
L 317.09575 168.12973 
z
" clip-path="url(#p429d257cdf)" style="fill: #0000f5; fill-opacity: 0.1"/>
    <path d="M 164.439862 -157.942011 
L 143.062304 -202.177171 
L 141.011015 -216.598153 
L 162.509113 -172.130141 
z
" clip-path="url(#p429d257cdf)" style="fill: #0000f5; fill-opacity: 0.1"/>
    <path d="M 252.070969 33.528719 
L 230.536324 -11.047902 
L 228.990008 -24.372678 
L 250.647015 20.44073 
z
" clip-path="url(#p429d257cdf)" style="fill: #0000f5; fill-opacity: 0.1"/>
    <path d="M 339.8278 225.274152 
L 318.135638 180.355136 
L 317.09575 168.12973 
L 338.912102 213.289484 
z
" clip-path="url(#p429d257cdf)" style="fill: #0000f5; fill-opacity: 0.1"/>
    <path d="M 185.886772 -113.563342 
L 164.439862 -157.942011 
L 162.509113 -172.130141 
L 184.077361 -127.517027 
z
" clip-path="url(#p429d257cdf)" style="fill: #0000f5; fill-opacity: 0.1"/>
    <path d="M 273.675527 78.25006 
L 252.070969 33.528719 
L 250.647015 20.44073 
L 272.374742 65.400472 
z
" clip-path="url(#p429d257cdf)" style="fill: #0000f5; fill-opacity: 0.1"/>
    <path d="M 207.403374 -69.040466 
L 185.886772 -113.563342 
L 184.077361 -127.517027 
L 205.716102 -82.758101 
z
" clip-path="url(#p429d257cdf)" style="fill: #0000f5; fill-opacity: 0.1"/>
    <path d="M 295.35034 123.116827 
L 273.675527 78.25006 
L 272.374742 65.400472 
L 294.173534 110.507265 
z
" clip-path="url(#p429d257cdf)" style="fill: #0000f5; fill-opacity: 0.1"/>
    <path d="M 228.990008 -24.372678 
L 207.403374 -69.040466 
L 205.716102 -82.758101 
L 227.425682 -37.852647 
z
" clip-path="url(#p429d257cdf)" style="fill: #0000f5; fill-opacity: 0.1"/>
    <path d="M 317.09575 168.12973 
L 295.35034 123.116827 
L 294.173534 110.507265 
L 316.043741 155.761833 
z
" clip-path="url(#p429d257cdf)" style="fill: #0000f5; fill-opacity: 0.1"/>
    <path d="M 162.509113 -172.130141 
L 141.011015 -216.598153 
L 138.935851 -231.186973 
L 160.555857 -186.483669 
z
" clip-path="url(#p429d257cdf)" style="fill: #0000f5; fill-opacity: 0.1"/>
    <path d="M 250.647015 20.44073 
L 228.990008 -24.372678 
L 227.425682 -37.852647 
L 249.20645 7.200056 
z
" clip-path="url(#p429d257cdf)" style="fill: #0000f5; fill-opacity: 0.1"/>
    <path d="M 338.912102 213.289484 
L 317.09575 168.12973 
L 316.043741 155.761833 
L 337.985714 201.164902 
z
" clip-path="url(#p429d257cdf)" style="fill: #0000f5; fill-opacity: 0.1"/>
    <path d="M 184.077361 -127.517027 
L 162.509113 -172.130141 
L 160.555857 -186.483669 
L 182.246822 -141.633644 
z
" clip-path="url(#p429d257cdf)" style="fill: #0000f5; fill-opacity: 0.1"/>
    <path d="M 272.374742 65.400472 
L 250.647015 20.44073 
L 249.20645 7.200056 
L 271.058756 52.400734 
z
" clip-path="url(#p429d257cdf)" style="fill: #0000f5; fill-opacity: 0.1"/>
    <path d="M 205.716102 -82.758101 
L 184.077361 -127.517027 
L 182.246822 -141.633644 
L 204.009095 -96.636176 
z
" clip-path="url(#p429d257cdf)" style="fill: #0000f5; fill-opacity: 0.1"/>
    <path d="M 294.173534 110.507265 
L 272.374742 65.400472 
L 271.058756 52.400734 
L 292.982954 97.750116 
z
" clip-path="url(#p429d257cdf)" style="fill: #0000f5; fill-opacity: 0.1"/>
    <path d="M 227.425682 -37.852647 
L 205.716102 -82.758101 
L 204.009095 -96.636176 
L 225.84303 -51.490535 
z
" clip-path="url(#p429d257cdf)" style="fill: #0000f5; fill-opacity: 0.1"/>
    <path d="M 316.043741 155.761833 
L 294.173534 110.507265 
L 292.982954 97.750116 
L 314.979398 143.248939 
z
" clip-path="url(#p429d257cdf)" style="fill: #0000f5; fill-opacity: 0.1"/>
    <path d="M 160.555857 -186.483669 
L 138.935851 -231.186973 
L 136.836394 -245.946578 
L 158.579697 -201.005504 
z
" clip-path="url(#p429d257cdf)" style="fill: #0000f5; fill-opacity: 0.1"/>
    <path d="M 249.20645 7.200056 
L 227.425682 -37.852647 
L 225.84303 -51.490535 
L 247.74898 -6.195989 
z
" clip-path="url(#p429d257cdf)" style="fill: #0000f5; fill-opacity: 0.1"/>
    <path d="M 337.985714 201.164902 
L 316.043741 155.761833 
L 314.979398 143.248939 
L 337.048447 188.897941 
z
" clip-path="url(#p429d257cdf)" style="fill: #0000f5; fill-opacity: 0.1"/>
    <path d="M 182.246822 -141.633644 
L 160.555857 -186.483669 
L 158.579697 -201.005504 
L 180.394783 -155.916064 
z
" clip-path="url(#p429d257cdf)" style="fill: #0000f5; fill-opacity: 0.1"/>
    <path d="M 271.058756 52.400734 
L 249.20645 7.200056 
L 247.74898 -6.195989 
L 269.727303 39.2482 
z
" clip-path="url(#p429d257cdf)" style="fill: #0000f5; fill-opacity: 0.1"/>
    <path d="M 204.009095 -96.636176 
L 182.246822 -141.633644 
L 180.394783 -155.916064 
L 202.282007 -110.677521 
z
" clip-path="url(#p429d257cdf)" style="fill: #0000f5; fill-opacity: 0.1"/>
    <path d="M 292.982954 97.750116 
L 271.058756 52.400734 
L 269.727303 39.2482 
L 291.778357 84.842775 
z
" clip-path="url(#p429d257cdf)" style="fill: #0000f5; fill-opacity: 0.1"/>
    <path d="M 225.84303 -51.490535 
L 204.009095 -96.636176 
L 202.282007 -110.677521 
L 224.241728 -65.289134 
z
" clip-path="url(#p429d257cdf)" style="fill: #0000f5; fill-opacity: 0.1"/>
    <path d="M 314.979398 143.248939 
L 292.982954 97.750116 
L 291.778357 84.842775 
L 313.902504 130.588483 
z
" clip-path="url(#p429d257cdf)" style="fill: #0000f5; fill-opacity: 0.1"/>
    <path d="M 158.579697 -201.005504 
L 136.836394 -245.946578 
L 134.712216 -260.879984 
L 156.580228 -215.698625 
z
" clip-path="url(#p429d257cdf)" style="fill: #0000f5; fill-opacity: 0.1"/>
    <path d="M 247.74898 -6.195989 
L 225.84303 -51.490535 
L 224.241728 -65.289134 
L 246.274307 -19.750157 
z
" clip-path="url(#p429d257cdf)" style="fill: #0000f5; fill-opacity: 0.1"/>
    <path d="M 337.048447 188.897941 
L 314.979398 143.248939 
L 313.902504 130.588483 
L 336.100109 176.486078 
z
" clip-path="url(#p429d257cdf)" style="fill: #0000f5; fill-opacity: 0.1"/>
    <path d="M 180.394783 -155.916064 
L 158.579697 -201.005504 
L 156.580228 -215.698625 
L 178.520862 -170.367225 
z
" clip-path="url(#p429d257cdf)" style="fill: #0000f5; fill-opacity: 0.1"/>
    <path d="M 269.727303 39.2482 
L 247.74898 -6.195989 
L 246.274307 -19.750157 
L 268.380107 25.940159 
z
" clip-path="url(#p429d257cdf)" style="fill: #0000f5; fill-opacity: 0.1"/>
    <path d="M 202.282007 -110.677521 
L 180.394783 -155.916064 
L 178.520862 -170.367225 
L 200.534479 -124.885034 
z
" clip-path="url(#p429d257cdf)" style="fill: #0000f5; fill-opacity: 0.1"/>
    <path d="M 291.778357 84.842775 
L 269.727303 39.2482 
L 268.380107 25.940159 
L 290.559494 71.782572 
z
" clip-path="url(#p429d257cdf)" style="fill: #0000f5; fill-opacity: 0.1"/>
    <path d="M 224.241728 -65.289134 
L 202.282007 -110.677521 
L 200.534479 -124.885034 
L 222.621444 -79.2513 
z
" clip-path="url(#p429d257cdf)" style="fill: #0000f5; fill-opacity: 0.1"/>
    <path d="M 313.902504 130.588483 
L 291.778357 84.842775 
L 290.559494 71.782572 
L 312.812836 117.777841 
z
" clip-path="url(#p429d257cdf)" style="fill: #0000f5; fill-opacity: 0.1"/>
    <path d="M 156.580228 -215.698625 
L 134.712216 -260.879984 
L 132.562875 -275.990281 
L 154.557036 -230.56608 
z
" clip-path="url(#p429d257cdf)" style="fill: #0000f5; fill-opacity: 0.1"/>
    <path d="M 246.274307 -19.750157 
L 224.241728 -65.289134 
L 222.621444 -79.2513 
L 244.782124 -33.465264 
z
" clip-path="url(#p429d257cdf)" style="fill: #0000f5; fill-opacity: 0.1"/>
    <path d="M 336.100109 176.486078 
L 313.902504 130.588483 
L 312.812836 117.777841 
L 335.140503 163.926732 
z
" clip-path="url(#p429d257cdf)" style="fill: #0000f5; fill-opacity: 0.1"/>
    <path d="M 178.520862 -170.367225 
L 156.580228 -215.698625 
L 154.557036 -230.56608 
L 176.624671 -184.990135 
z
" clip-path="url(#p429d257cdf)" style="fill: #0000f5; fill-opacity: 0.1"/>
    <path d="M 268.380107 25.940159 
L 246.274307 -19.750157 
L 244.782124 -33.465264 
L 267.016889 12.473838 
z
" clip-path="url(#p429d257cdf)" style="fill: #0000f5; fill-opacity: 0.1"/>
    <path d="M 200.534479 -124.885034 
L 178.520862 -170.367225 
L 176.624671 -184.990135 
L 198.766148 -139.261684 
z
" clip-path="url(#p429d257cdf)" style="fill: #0000f5; fill-opacity: 0.1"/>
    <path d="M 290.559494 71.782572 
L 268.380107 25.940159 
L 267.016889 12.473838 
L 289.32611 58.566776 
z
" clip-path="url(#p429d257cdf)" style="fill: #0000f5; fill-opacity: 0.1"/>
    <path d="M 222.621444 -79.2513 
L 200.534479 -124.885034 
L 198.766148 -139.261684 
L 220.981839 -93.379961 
z
" clip-path="url(#p429d257cdf)" style="fill: #0000f5; fill-opacity: 0.1"/>
    <path d="M 312.812836 117.777841 
L 290.559494 71.782572 
L 289.32611 58.566776 
L 311.710164 104.814322 
z
" clip-path="url(#p429d257cdf)" style="fill: #0000f5; fill-opacity: 0.1"/>
    <path d="M 244.782124 -33.465264 
L 222.621444 -79.2513 
L 220.981839 -93.379961 
L 243.272117 -47.344193 
z
" clip-path="url(#p429d257cdf)" style="fill: #0000f5; fill-opacity: 0.1"/>
    <path d="M 335.140503 163.926732 
L 312.812836 117.777841 
L 311.710164 104.814322 
L 334.169425 151.217256 
z
" clip-path="url(#p429d257cdf)" style="fill: #0000f5; fill-opacity: 0.1"/>
    <path d="M 267.016889 12.473838 
L 244.782124 -33.465264 
L 243.272117 -47.344193 
L 265.63736 -1.153604 
z
" clip-path="url(#p429d257cdf)" style="fill: #0000f5; fill-opacity: 0.1"/>
    <path d="M 289.32611 58.566776 
L 267.016889 12.473838 
L 265.63736 -1.153604 
L 288.077945 45.19259 
z
" clip-path="url(#p429d257cdf)" style="fill: #0000f5; fill-opacity: 0.1"/>
    <path d="M 311.710164 104.814322 
L 289.32611 58.566776 
L 288.077945 45.19259 
L 310.594254 91.695175 
z
" clip-path="url(#p429d257cdf)" style="fill: #0000f5; fill-opacity: 0.1"/>
    <path d="M 334.169425 151.217256 
L 311.710164 104.814322 
L 310.594254 91.695175 
L 333.18667 138.354944 
z
" clip-path="url(#p429d257cdf)" style="fill: #0000f5; fill-opacity: 0.1"/>
   </g>
   <g id="legend_1">
    <g id="patch_6">
     <path d="M 357.840076 67.305115 
L 396.2 67.305115 
Q 398.2 67.305115 398.2 65.305115 
L 398.2 7 
Q 398.2 5 396.2 5 
L 357.840076 5 
Q 355.840076 5 355.840076 7 
L 355.840076 65.305115 
Q 355.840076 67.305115 357.840076 67.305115 
z
" style="fill: #ffffff; opacity: 0.8; stroke: #cccccc; stroke-linejoin: miter"/>
    </g>
    <g id="line2d_25">
     <path d="M 359.840076 12.5 
L 369.840076 12.5 
L 379.840076 12.5 
" style="fill: none; stroke: #ff0000; stroke-width: 1.5; stroke-linecap: square"/>
    </g>
    <g id="text_21">
     <!-- $\vec{a}$ -->
     <g transform="translate(387.840076 16)scale(0.1 -0.1)">
      <defs>
       <path id="CMMI12-7e" d="M 3424 3835 
C 3347 3764 3110 3540 3110 3451 
C 3110 3387 3168 3329 3232 3329 
C 3290 3329 3315 3368 3360 3432 
C 3514 3624 3686 3745 3834 3828 
C 3898 3867 3942 3886 3942 3956 
C 3942 4014 3891 4046 3853 4078 
C 3674 4200 3629 4372 3610 4449 
C 3590 4500 3571 4577 3482 4577 
C 3443 4577 3366 4552 3366 4456 
C 3366 4398 3405 4244 3526 4072 
L 1376 4072 
C 1267 4072 1158 4072 1158 3950 
C 1158 3835 1274 3835 1376 3835 
L 3424 3835 
z
" transform="scale(0.015625)"/>
       <path id="CMMI12-61" d="M 1926 760 
C 1894 651 1894 639 1805 517 
C 1664 338 1382 64 1082 64 
C 819 64 672 300 672 677 
C 672 1028 870 1743 992 2012 
C 1210 2459 1510 2689 1760 2689 
C 2182 2689 2266 2165 2266 2114 
C 2266 2108 2246 2024 2240 2012 
L 1926 760 
z
M 2336 2395 
C 2266 2561 2093 2816 1760 2816 
C 1037 2816 256 1884 256 939 
C 256 307 627 -64 1062 -64 
C 1414 -64 1715 211 1894 422 
C 1958 45 2259 -64 2451 -64 
C 2643 -64 2797 51 2912 281 
C 3014 498 3104 888 3104 913 
C 3104 945 3078 971 3040 971 
C 2982 971 2976 939 2950 843 
C 2854 466 2733 64 2470 64 
C 2285 64 2272 230 2272 358 
C 2272 505 2291 575 2349 824 
C 2394 984 2426 1124 2477 1309 
C 2714 2267 2771 2497 2771 2535 
C 2771 2625 2701 2695 2605 2695 
C 2400 2695 2349 2472 2336 2395 
z
" transform="scale(0.015625)"/>
      </defs>
      <use xlink:href="#CMMI12-7e" transform="scale(0.996264)"/>
      <use xlink:href="#CMMI12-61" transform="translate(6.445738 0)scale(0.996264)"/>
     </g>
    </g>
    <g id="line2d_26">
     <path d="M 359.840076 27.24679 
L 369.840076 27.24679 
L 379.840076 27.24679 
" style="fill: none; stroke: #00ff00; stroke-width: 1.5; stroke-linecap: square"/>
    </g>
    <g id="text_22">
     <!-- $\vec{b}$ -->
     <g transform="translate(387.840076 30.74679)scale(0.1 -0.1)">
      <defs>
       <path id="CMMI12-62" d="M 1478 4257 
C 1485 4283 1498 4321 1498 4352 
C 1498 4416 1434 4416 1421 4416 
C 1414 4416 1184 4393 1069 4377 
C 960 4377 864 4358 749 4358 
C 595 4345 550 4339 550 4224 
C 550 4160 614 4160 678 4160 
C 1005 4160 1005 4103 1005 4040 
C 1005 3996 954 3811 928 3696 
L 774 3085 
C 710 2831 346 1387 320 1272 
C 288 1114 288 1005 288 922 
C 288 274 653 -64 1069 -64 
C 1811 -64 2579 888 2579 1814 
C 2579 2401 2246 2816 1766 2816 
C 1434 2816 1133 2542 1011 2414 
L 1478 4257 
z
M 1075 64 
C 870 64 646 217 646 715 
C 646 926 666 1047 781 1494 
C 800 1577 902 1986 928 2069 
C 941 2120 1318 2689 1754 2689 
C 2035 2689 2163 2408 2163 2076 
C 2163 1769 1984 1047 1824 715 
C 1664 370 1370 64 1075 64 
z
" transform="scale(0.015625)"/>
      </defs>
      <use xlink:href="#CMMI12-7e" transform="translate(0 26.29016)scale(0.996264)"/>
      <use xlink:href="#CMMI12-62" transform="translate(11.311737 0)scale(0.996264)"/>
     </g>
    </g>
    <g id="line2d_27">
     <path d="M 359.840076 41.183968 
L 369.840076 41.183968 
L 379.840076 41.183968 
" style="fill: none; stroke: #0016ff; stroke-width: 1.5; stroke-linecap: square"/>
    </g>
    <g id="text_23">
     <!-- $\vec{c}$ -->
     <g transform="translate(387.840076 44.683968)scale(0.1 -0.1)">
      <defs>
       <path id="CMMI12-63" d="M 2502 2431 
C 2381 2431 2323 2431 2234 2355 
C 2195 2323 2125 2227 2125 2125 
C 2125 1997 2221 1920 2342 1920 
C 2496 1920 2669 2044 2669 2292 
C 2669 2588 2374 2816 1933 2816 
C 1094 2816 256 1903 256 996 
C 256 441 602 -64 1254 -64 
C 2125 -64 2675 622 2675 706 
C 2675 744 2637 776 2611 776 
C 2592 776 2586 770 2528 713 
C 2118 162 1510 64 1267 64 
C 826 64 685 446 685 764 
C 685 988 794 1605 1024 2039 
C 1190 2338 1536 2682 1939 2682 
C 2022 2682 2374 2682 2502 2431 
z
" transform="scale(0.015625)"/>
      </defs>
      <use xlink:href="#CMMI12-7e" transform="scale(0.996264)"/>
      <use xlink:href="#CMMI12-63" transform="translate(5.638615 0)scale(0.996264)"/>
     </g>
    </g>
    <g id="line2d_28">
     <path d="M 359.840076 57.867937 
L 369.840076 57.867937 
L 379.840076 57.867937 
" style="fill: none; stroke: #f400ff; stroke-width: 1.5; stroke-linecap: square"/>
    </g>
    <g id="text_24">
     <!-- $\vec{f}$ -->
     <g transform="translate(387.840076 61.367937)scale(0.1 -0.1)">
      <defs>
       <path id="CMMI12-66" d="M 2854 2566 
C 2982 2566 3034 2566 3034 2688 
C 3034 2752 2982 2752 2867 2752 
L 2349 2752 
C 2470 3429 2560 3897 2611 4107 
C 2650 4265 2784 4416 2950 4416 
C 3085 4416 3219 4358 3283 4298 
C 3034 4272 2957 4082 2957 3969 
C 2957 3837 3053 3759 3174 3759 
C 3302 3759 3494 3870 3494 4119 
C 3494 4393 3226 4544 2944 4544 
C 2669 4544 2400 4334 2272 4078 
C 2157 3848 2093 3611 1946 2752 
L 1517 2752 
C 1395 2752 1331 2752 1331 2637 
C 1331 2566 1370 2566 1498 2566 
L 1907 2566 
C 1792 1976 1530 542 1382 -137 
C 1274 -689 1178 -1152 858 -1152 
C 838 -1152 653 -1152 538 -1031 
C 864 -1005 864 -726 864 -720 
C 864 -593 768 -517 646 -517 
C 518 -517 326 -625 326 -867 
C 326 -1140 608 -1280 858 -1280 
C 1510 -1280 1779 -118 1850 199 
C 1965 688 2278 2376 2310 2566 
L 2854 2566 
z
" transform="scale(0.015625)"/>
      </defs>
      <use xlink:href="#CMMI12-7e" transform="translate(13.568792 26.29016)scale(0.996264)"/>
      <use xlink:href="#CMMI12-66" transform="scale(0.996264)"/>
     </g>
    </g>
   </g>
  </g>
 </g>
 <defs>
  <clipPath id="p429d257cdf">
   <rect x="57.6" y="0" width="345.6" height="345.6"/>
  </clipPath>
 </defs>
</svg>
