<?xml version="1.0" encoding="utf-8" standalone="no"?>
<!DOCTYPE svg PUBLIC "-//W3C//DTD SVG 1.1//EN"
  "http://www.w3.org/Graphics/SVG/1.1/DTD/svg11.dtd">
<svg xmlns:xlink="http://www.w3.org/1999/xlink" width="460.8pt" height="345.6pt" viewBox="0 0 460.8 345.6" xmlns="http://www.w3.org/2000/svg" version="1.1">
 <metadata>
  <rdf:RDF xmlns:dc="http://purl.org/dc/elements/1.1/" xmlns:cc="http://creativecommons.org/ns#" xmlns:rdf="http://www.w3.org/1999/02/22-rdf-syntax-ns#">
   <cc:Work>
    <dc:type rdf:resource="http://purl.org/dc/dcmitype/StillImage"/>
    <dc:date>2022-07-12T15:41:39.264110</dc:date>
    <dc:format>image/svg+xml</dc:format>
    <dc:creator>
     <cc:Agent>
      <dc:title>Matplotlib v3.5.1, https://matplotlib.org/</dc:title>
     </cc:Agent>
    </dc:creator>
   </cc:Work>
  </rdf:RDF>
 </metadata>
 <defs>
  <style type="text/css">*{stroke-linejoin: round; stroke-linecap: butt}</style>
 </defs>
 <g id="figure_1">
  <g id="patch_1">
   <path d="M 0 345.6 
L 460.8 345.6 
L 460.8 0 
L 0 0 
z
" style="fill: #ffffff"/>
  </g>
  <g id="patch_2">
   <path d="M 57.6 345.6 
L 403.2 345.6 
L 403.2 0 
L 57.6 0 
z
" style="fill: #ffffff"/>
  </g>
  <g id="pane3d_1">
   <g id="patch_3">
    <path d="M 150.690311 246.147633 
L 99.718308 255.758416 
L 99.718308 80.501043 
L 150.690311 90.111826 
" style="fill: #f2f2f2; opacity: 0.5; stroke: #f2f2f2; stroke-linejoin: miter"/>
   </g>
  </g>
  <g id="pane3d_2">
   <g id="patch_4">
    <path d="M 357.95377 247.686165 
L 150.690311 246.147633 
L 150.690311 90.111826 
L 357.95377 88.573294 
" style="fill: #e6e6e6; opacity: 0.5; stroke: #e6e6e6; stroke-linejoin: miter"/>
   </g>
  </g>
  <g id="pane3d_3">
   <g id="patch_5">
    <path d="M 357.95377 247.686165 
L 150.690311 246.147633 
L 99.718308 255.758416 
L 331.949055 257.704076 
" style="fill: #ececec; opacity: 0.5; stroke: #ececec; stroke-linejoin: miter"/>
   </g>
  </g>
  <g id="axis3d_1">
   <g id="line2d_1">
    <path d="M 99.718308 255.758416 
L 331.949055 257.704076 
" style="fill: none; stroke: #000000; stroke-width: 0.8; stroke-linecap: square"/>
   </g>
   <g id="text_1">
    <!-- x -->
    <g transform="translate(204.829885 287.306677)scale(0.16 -0.16)">
     <defs>
      <path id="CMSS17-78" d="M 1587 1414 
L 2656 2739 
L 2099 2739 
L 1363 1777 
L 602 2739 
L 32 2739 
L 1139 1414 
L 0 0 
L 563 0 
L 1363 1121 
L 2195 0 
L 2758 0 
L 1587 1414 
z
" transform="scale(0.015625)"/>
     </defs>
     <use xlink:href="#CMSS17-78" transform="scale(0.996264)"/>
    </g>
   </g>
   <g id="Line3DCollection_1">
    <path d="M 327.203421 257.664316 
L 353.728422 247.6548 
L 353.728422 88.604659 
" style="fill: none; stroke: #b0b0b0; stroke-width: 0.8"/>
    <path d="M 281.858777 257.284413 
L 313.333954 247.354949 
L 313.333954 88.90451 
" style="fill: none; stroke: #b0b0b0; stroke-width: 0.8"/>
    <path d="M 236.897311 256.90772 
L 273.242958 247.057351 
L 273.242958 89.202109 
" style="fill: none; stroke: #b0b0b0; stroke-width: 0.8"/>
    <path d="M 192.314185 256.534197 
L 233.452028 246.76198 
L 233.452028 89.49748 
" style="fill: none; stroke: #b0b0b0; stroke-width: 0.8"/>
    <path d="M 148.104644 256.163803 
L 193.957807 246.468811 
L 193.957807 89.790648 
" style="fill: none; stroke: #b0b0b0; stroke-width: 0.8"/>
    <path d="M 104.264011 255.796501 
L 154.756988 246.177821 
L 154.756988 90.081639 
" style="fill: none; stroke: #b0b0b0; stroke-width: 0.8"/>
   </g>
   <g id="xtick_1">
    <g id="line2d_2">
     <path d="M 327.44209 257.574252 
L 326.724639 257.84499 
" style="fill: none; stroke: #000000; stroke-width: 0.8; stroke-linecap: square"/>
    </g>
    <g id="text_2">
     <!-- $\mathdefault{0}$ -->
     <g transform="translate(322.789334 276.841914)scale(0.1 -0.1)">
      <defs>
       <path id="CMR17-30" d="M 2688 2025 
C 2688 2416 2682 3080 2413 3591 
C 2176 4039 1798 4198 1466 4198 
C 1158 4198 768 4058 525 3597 
C 269 3118 243 2524 243 2025 
C 243 1661 250 1106 448 619 
C 723 -39 1216 -128 1466 -128 
C 1760 -128 2208 -7 2470 600 
C 2662 1042 2688 1559 2688 2025 
z
M 1466 -26 
C 1056 -26 813 325 723 812 
C 653 1188 653 1738 653 2096 
C 653 2588 653 2997 736 3387 
C 858 3929 1216 4096 1466 4096 
C 1728 4096 2067 3923 2189 3400 
C 2272 3036 2278 2607 2278 2096 
C 2278 1680 2278 1169 2202 792 
C 2067 95 1690 -26 1466 -26 
z
" transform="scale(0.015625)"/>
      </defs>
      <use xlink:href="#CMR17-30" transform="scale(0.996264)"/>
     </g>
    </g>
   </g>
   <g id="xtick_2">
    <g id="line2d_3">
     <path d="M 282.141854 257.195111 
L 281.290918 257.463555 
" style="fill: none; stroke: #000000; stroke-width: 0.8; stroke-linecap: square"/>
    </g>
    <g id="text_3">
     <!-- $\mathdefault{1}$ -->
     <g transform="translate(277.086897 276.406508)scale(0.1 -0.1)">
      <defs>
       <path id="CMR17-31" d="M 1702 4058 
C 1702 4192 1696 4192 1606 4192 
C 1357 3916 979 3827 621 3827 
C 602 3827 570 3827 563 3808 
C 557 3795 557 3782 557 3648 
C 755 3648 1088 3686 1344 3839 
L 1344 461 
C 1344 236 1331 160 781 160 
L 589 160 
L 589 0 
C 896 0 1216 0 1523 0 
C 1830 0 2150 0 2458 0 
L 2458 160 
L 2266 160 
C 1715 160 1702 230 1702 458 
L 1702 4058 
z
" transform="scale(0.015625)"/>
      </defs>
      <use xlink:href="#CMR17-31" transform="scale(0.996264)"/>
     </g>
    </g>
   </g>
   <g id="xtick_3">
    <g id="line2d_4">
     <path d="M 237.224038 256.819171 
L 236.241895 257.08535 
" style="fill: none; stroke: #000000; stroke-width: 0.8; stroke-linecap: square"/>
    </g>
    <g id="text_4">
     <!-- $\mathdefault{2}$ -->
     <g transform="translate(231.773765 275.97481)scale(0.1 -0.1)">
      <defs>
       <path id="CMR17-32" d="M 2669 989 
L 2554 989 
C 2490 536 2438 459 2413 420 
C 2381 369 1920 369 1830 369 
L 602 369 
C 832 619 1280 1072 1824 1597 
C 2214 1967 2669 2402 2669 3035 
C 2669 3790 2067 4224 1395 4224 
C 691 4224 262 3604 262 3030 
C 262 2780 448 2748 525 2748 
C 589 2748 781 2787 781 3010 
C 781 3207 614 3264 525 3264 
C 486 3264 448 3258 422 3245 
C 544 3790 915 4058 1306 4058 
C 1862 4058 2227 3617 2227 3035 
C 2227 2479 1901 2000 1536 1584 
L 262 146 
L 262 0 
L 2515 0 
L 2669 989 
z
" transform="scale(0.015625)"/>
      </defs>
      <use xlink:href="#CMR17-32" transform="scale(0.996264)"/>
     </g>
    </g>
   </g>
   <g id="xtick_4">
    <g id="line2d_5">
     <path d="M 192.68382 256.44639 
L 191.572705 256.710334 
" style="fill: none; stroke: #000000; stroke-width: 0.8; stroke-linecap: square"/>
    </g>
    <g id="text_5">
     <!-- $\mathdefault{3}$ -->
     <g transform="translate(186.844984 275.546775)scale(0.1 -0.1)">
      <defs>
       <path id="CMR17-33" d="M 1414 2157 
C 1984 2157 2234 1662 2234 1090 
C 2234 320 1824 25 1453 25 
C 1114 25 563 194 390 693 
C 422 680 454 680 486 680 
C 640 680 755 782 755 948 
C 755 1133 614 1216 486 1216 
C 378 1216 211 1165 211 926 
C 211 335 787 -128 1466 -128 
C 2176 -128 2720 430 2720 1085 
C 2720 1707 2208 2157 1600 2227 
C 2086 2328 2554 2756 2554 3329 
C 2554 3820 2048 4179 1472 4179 
C 890 4179 378 3829 378 3329 
C 378 3110 544 3072 627 3072 
C 762 3072 877 3155 877 3321 
C 877 3486 762 3569 627 3569 
C 602 3569 570 3569 544 3557 
C 730 3959 1235 4032 1459 4032 
C 1683 4032 2106 3925 2106 3320 
C 2106 3143 2080 2828 1862 2550 
C 1670 2304 1453 2304 1242 2284 
C 1210 2284 1062 2269 1037 2269 
C 992 2263 966 2257 966 2208 
C 966 2163 973 2157 1101 2157 
L 1414 2157 
z
" transform="scale(0.015625)"/>
      </defs>
      <use xlink:href="#CMR17-33" transform="scale(0.996264)"/>
     </g>
    </g>
   </g>
   <g id="xtick_5">
    <g id="line2d_6">
     <path d="M 148.516458 256.076731 
L 147.278563 256.338466 
" style="fill: none; stroke: #000000; stroke-width: 0.8; stroke-linecap: square"/>
    </g>
    <g id="text_6">
     <!-- $\mathdefault{4}$ -->
     <g transform="translate(142.295685 275.122354)scale(0.1 -0.1)">
      <defs>
       <path id="CMR17-34" d="M 2150 4122 
C 2150 4256 2144 4256 2029 4256 
L 128 1254 
L 128 1088 
L 1779 1088 
L 1779 457 
C 1779 224 1766 160 1318 160 
L 1197 160 
L 1197 0 
C 1402 0 1747 0 1965 0 
C 2182 0 2528 0 2733 0 
L 2733 160 
L 2611 160 
C 2163 160 2150 224 2150 457 
L 2150 1088 
L 2803 1088 
L 2803 1254 
L 2150 1254 
L 2150 4122 
z
M 1798 3703 
L 1798 1254 
L 256 1254 
L 1798 3703 
z
" transform="scale(0.015625)"/>
      </defs>
      <use xlink:href="#CMR17-34" transform="scale(0.996264)"/>
     </g>
    </g>
   </g>
   <g id="xtick_6">
    <g id="line2d_7">
     <path d="M 104.717291 255.710153 
L 103.354767 255.969708 
" style="fill: none; stroke: #000000; stroke-width: 0.8; stroke-linecap: square"/>
    </g>
    <g id="text_7">
     <!-- $\mathdefault{5}$ -->
     <g transform="translate(98.121081 274.701504)scale(0.1 -0.1)">
      <defs>
       <path id="CMR17-35" d="M 730 3692 
C 794 3666 1056 3584 1325 3584 
C 1920 3584 2246 3911 2432 4100 
C 2432 4157 2432 4192 2394 4192 
C 2387 4192 2374 4192 2323 4163 
C 2099 4058 1837 3973 1517 3973 
C 1325 3973 1037 3999 723 4139 
C 653 4171 640 4171 634 4171 
C 602 4171 595 4164 595 4037 
L 595 2203 
C 595 2089 595 2057 659 2057 
C 691 2057 704 2070 736 2114 
C 941 2401 1222 2522 1542 2522 
C 1766 2522 2246 2382 2246 1289 
C 2246 1085 2246 715 2054 421 
C 1894 159 1645 25 1370 25 
C 947 25 518 320 403 814 
C 429 807 480 795 506 795 
C 589 795 749 840 749 1038 
C 749 1210 627 1280 506 1280 
C 358 1280 262 1190 262 1011 
C 262 454 704 -128 1382 -128 
C 2042 -128 2669 440 2669 1264 
C 2669 2030 2170 2624 1549 2624 
C 1222 2624 947 2503 730 2274 
L 730 3692 
z
" transform="scale(0.015625)"/>
      </defs>
      <use xlink:href="#CMR17-35" transform="scale(0.996264)"/>
     </g>
    </g>
   </g>
  </g>
  <g id="axis3d_2">
   <g id="line2d_8">
    <path d="M 357.95377 247.686165 
L 331.949055 257.704076 
" style="fill: none; stroke: #000000; stroke-width: 0.8; stroke-linecap: square"/>
   </g>
   <g id="text_8">
    <!-- y -->
    <g transform="translate(373.299514 280.104756)scale(0.16 -0.16)">
     <defs>
      <path id="CMSS17-79" d="M 2675 2752 
L 2176 2752 
C 1632 1294 1446 702 1434 383 
L 1427 383 
C 1408 696 1126 1460 902 2007 
L 602 2752 
L 83 2752 
L 1216 13 
C 1146 -178 1043 -465 1011 -529 
C 870 -885 774 -885 672 -885 
C 646 -885 442 -885 211 -809 
L 250 -1229 
C 410 -1261 570 -1280 685 -1280 
C 845 -1280 1165 -1280 1459 -497 
L 2675 2752 
z
" transform="scale(0.015625)"/>
     </defs>
     <use xlink:href="#CMSS17-79" transform="scale(0.996264)"/>
    </g>
   </g>
   <g id="Line3DCollection_2">
    <path d="M 145.358209 89.106457 
L 145.358209 247.153002 
L 355.239376 248.731843 
" style="fill: none; stroke: #b0b0b0; stroke-width: 0.8"/>
    <path d="M 136.22411 87.384221 
L 136.22411 248.875239 
L 350.586304 250.524367 
" style="fill: none; stroke: #b0b0b0; stroke-width: 0.8"/>
    <path d="M 126.683002 85.585243 
L 126.683002 250.674217 
L 345.721565 252.398432 
" style="fill: none; stroke: #b0b0b0; stroke-width: 0.8"/>
    <path d="M 116.707063 83.704277 
L 116.707063 252.555183 
L 340.630378 254.359732 
" style="fill: none; stroke: #b0b0b0; stroke-width: 0.8"/>
    <path d="M 106.265872 81.735588 
L 106.265872 254.523872 
L 335.296555 256.414504 
" style="fill: none; stroke: #b0b0b0; stroke-width: 0.8"/>
   </g>
   <g id="xtick_7">
    <g id="line2d_9">
     <path d="M 353.527054 248.718962 
L 358.665663 248.757618 
" style="fill: none; stroke: #000000; stroke-width: 0.8; stroke-linecap: square"/>
    </g>
    <g id="text_9">
     <!-- $\mathdefault{−4}$ -->
     <g transform="translate(362.568797 266.065681)scale(0.1 -0.1)">
      <defs>
       <path id="CMSY10-0" d="M 4218 1472 
C 4326 1472 4442 1472 4442 1600 
C 4442 1728 4326 1728 4218 1728 
L 755 1728 
C 646 1728 531 1728 531 1600 
C 531 1472 646 1472 755 1472 
L 4218 1472 
z
" transform="scale(0.015625)"/>
      </defs>
      <use xlink:href="#CMSY10-0" transform="scale(0.996264)"/>
      <use xlink:href="#CMR17-34" transform="translate(77.487468 0)scale(0.996264)"/>
     </g>
    </g>
   </g>
   <g id="xtick_8">
    <g id="line2d_10">
     <path d="M 348.836668 250.510906 
L 354.087293 250.5513 
" style="fill: none; stroke: #000000; stroke-width: 0.8; stroke-linecap: square"/>
    </g>
    <g id="text_10">
     <!-- $\mathdefault{−2}$ -->
     <g transform="translate(358.214598 268.092477)scale(0.1 -0.1)">
      <use xlink:href="#CMSY10-0" transform="scale(0.996264)"/>
      <use xlink:href="#CMR17-32" transform="translate(77.487468 0)scale(0.996264)"/>
     </g>
    </g>
   </g>
   <g id="xtick_9">
    <g id="line2d_11">
     <path d="M 343.932952 252.384352 
L 349.300583 252.426605 
" style="fill: none; stroke: #000000; stroke-width: 0.8; stroke-linecap: square"/>
    </g>
    <g id="text_11">
     <!-- $\mathdefault{0}$ -->
     <g transform="translate(357.536432 270.211596)scale(0.1 -0.1)">
      <use xlink:href="#CMR17-30" transform="scale(0.996264)"/>
     </g>
    </g>
   </g>
   <g id="xtick_10">
    <g id="line2d_12">
     <path d="M 338.801014 254.34499 
L 344.290983 254.389232 
" style="fill: none; stroke: #000000; stroke-width: 0.8; stroke-linecap: square"/>
    </g>
    <g id="text_12">
     <!-- $\mathdefault{2}$ -->
     <g transform="translate(352.771691 272.429491)scale(0.1 -0.1)">
      <use xlink:href="#CMR17-32" transform="scale(0.996264)"/>
     </g>
    </g>
   </g>
   <g id="xtick_11">
    <g id="line2d_13">
     <path d="M 333.424541 256.399051 
L 339.042551 256.445427 
" style="fill: none; stroke: #000000; stroke-width: 0.8; stroke-linecap: square"/>
    </g>
    <g id="text_13">
     <!-- $\mathdefault{4}$ -->
     <g transform="translate(347.779554 274.753235)scale(0.1 -0.1)">
      <use xlink:href="#CMR17-34" transform="scale(0.996264)"/>
     </g>
    </g>
   </g>
  </g>
  <g id="axis3d_3">
   <g id="line2d_14">
    <path d="M 357.95377 247.686165 
L 357.95377 88.573294 
" style="fill: none; stroke: #000000; stroke-width: 0.8; stroke-linecap: square"/>
   </g>
   <g id="text_14">
    <!-- z -->
    <g transform="translate(386.71911 172.114786)scale(0.16 -0.16)">
     <defs>
      <path id="CMSS17-7a" d="M 2400 2502 
L 2400 2750 
L 250 2750 
L 250 2368 
L 1069 2368 
C 1146 2368 1222 2368 1299 2368 
L 1747 2368 
L 166 261 
L 166 0 
L 2419 0 
L 2419 395 
L 1549 395 
C 1472 395 1395 395 1318 395 
L 826 395 
L 2400 2502 
z
" transform="scale(0.015625)"/>
     </defs>
     <use xlink:href="#CMSS17-7a" transform="scale(0.996264)"/>
    </g>
   </g>
   <g id="Line3DCollection_3">
    <path d="M 357.95377 244.503908 
L 150.690311 243.026917 
L 99.718308 252.253269 
" style="fill: none; stroke: #b0b0b0; stroke-width: 0.8"/>
    <path d="M 357.95377 213.954237 
L 150.690311 213.068042 
L 99.718308 218.603853 
" style="fill: none; stroke: #b0b0b0; stroke-width: 0.8"/>
    <path d="M 357.95377 183.404565 
L 150.690311 183.109167 
L 99.718308 184.954438 
" style="fill: none; stroke: #b0b0b0; stroke-width: 0.8"/>
    <path d="M 357.95377 152.854894 
L 150.690311 153.150292 
L 99.718308 151.305022 
" style="fill: none; stroke: #b0b0b0; stroke-width: 0.8"/>
    <path d="M 357.95377 122.305223 
L 150.690311 123.191417 
L 99.718308 117.655606 
" style="fill: none; stroke: #b0b0b0; stroke-width: 0.8"/>
    <path d="M 357.95377 91.755551 
L 150.690311 93.232542 
L 99.718308 84.006191 
" style="fill: none; stroke: #b0b0b0; stroke-width: 0.8"/>
   </g>
   <g id="xtick_12">
    <g id="line2d_15">
     <path d="M 356.263231 244.491861 
L 361.336449 244.528013 
" style="fill: none; stroke: #000000; stroke-width: 0.8; stroke-linecap: square"/>
    </g>
    <g id="text_15">
     <!-- $\mathdefault{0}$ -->
     <g transform="translate(370.35403 250.975546)scale(0.1 -0.1)">
      <use xlink:href="#CMR17-30" transform="scale(0.996264)"/>
     </g>
    </g>
   </g>
   <g id="xtick_13">
    <g id="line2d_16">
     <path d="M 356.263231 213.947008 
L 361.336449 213.9687 
" style="fill: none; stroke: #000000; stroke-width: 0.8; stroke-linecap: square"/>
    </g>
    <g id="text_16">
     <!-- $\mathdefault{1}$ -->
     <g transform="translate(370.35403 220.604619)scale(0.1 -0.1)">
      <use xlink:href="#CMR17-31" transform="scale(0.996264)"/>
     </g>
    </g>
   </g>
   <g id="xtick_14">
    <g id="line2d_17">
     <path d="M 356.263231 183.402156 
L 361.336449 183.409386 
" style="fill: none; stroke: #000000; stroke-width: 0.8; stroke-linecap: square"/>
    </g>
    <g id="text_17">
     <!-- $\mathdefault{2}$ -->
     <g transform="translate(370.35403 190.233692)scale(0.1 -0.1)">
      <use xlink:href="#CMR17-32" transform="scale(0.996264)"/>
     </g>
    </g>
   </g>
   <g id="xtick_15">
    <g id="line2d_18">
     <path d="M 356.263231 152.857303 
L 361.336449 152.850073 
" style="fill: none; stroke: #000000; stroke-width: 0.8; stroke-linecap: square"/>
    </g>
    <g id="text_18">
     <!-- $\mathdefault{3}$ -->
     <g transform="translate(370.35403 159.862765)scale(0.1 -0.1)">
      <use xlink:href="#CMR17-33" transform="scale(0.996264)"/>
     </g>
    </g>
   </g>
   <g id="xtick_16">
    <g id="line2d_19">
     <path d="M 356.263231 122.312451 
L 361.336449 122.290759 
" style="fill: none; stroke: #000000; stroke-width: 0.8; stroke-linecap: square"/>
    </g>
    <g id="text_19">
     <!-- $\mathdefault{4}$ -->
     <g transform="translate(370.35403 129.491837)scale(0.1 -0.1)">
      <use xlink:href="#CMR17-34" transform="scale(0.996264)"/>
     </g>
    </g>
   </g>
   <g id="xtick_17">
    <g id="line2d_20">
     <path d="M 356.263231 91.767599 
L 361.336449 91.731446 
" style="fill: none; stroke: #000000; stroke-width: 0.8; stroke-linecap: square"/>
    </g>
    <g id="text_20">
     <!-- $\mathdefault{5}$ -->
     <g transform="translate(370.35403 99.12091)scale(0.1 -0.1)">
      <use xlink:href="#CMR17-35" transform="scale(0.996264)"/>
     </g>
    </g>
   </g>
  </g>
  <g id="axes_1">
   <g id="line2d_21">
    <path d="M 341.251154 248.993901 
L 289.173469 84.756495 
" clip-path="url(#pb06f67eb27)" style="fill: none; stroke: #ff0000; stroke-width: 1.5; stroke-linecap: square"/>
   </g>
   <g id="line2d_22">
    <path d="M 341.251154 248.993901 
L 262.938432 121.058811 
" clip-path="url(#pb06f67eb27)" style="fill: none; stroke: #00ff00; stroke-width: 1.5; stroke-linecap: square"/>
   </g>
   <g id="line2d_23">
    <path d="M 341.251154 248.993901 
L 228.575654 -1 
" clip-path="url(#pb06f67eb27)" style="fill: none; stroke: #0016ff; stroke-width: 1.5; stroke-linecap: square"/>
   </g>
   <g id="line2d_24">
    <path d="M 341.251154 248.993901 
L 145.000011 152.787634 
" clip-path="url(#pb06f67eb27)" style="fill: none; stroke: #f400ff; stroke-width: 1.5; stroke-linecap: square"/>
   </g>
   <g id="Poly3DCollection_1">
    <path d="M 193.139936 24.923826 
L 173.461315 -16.186159 
L 171.382711 -28.510623 
L 191.162236 12.795166 
z
" clip-path="url(#pb06f67eb27)" style="fill: #0000f5; fill-opacity: 0.1"/>
    <path d="M 212.892225 66.18771 
L 193.139936 24.923826 
L 191.162236 12.795166 
L 211.016203 54.256411 
z
" clip-path="url(#pb06f67eb27)" style="fill: #0000f5; fill-opacity: 0.1"/>
    <path d="M 232.718597 107.606357 
L 212.892225 66.18771 
L 211.016203 54.256411 
L 230.945031 95.873992 
z
" clip-path="url(#pb06f67eb27)" style="fill: #0000f5; fill-opacity: 0.1"/>
    <path d="M 191.162236 12.795166 
L 171.382711 -28.510623 
L 169.281889 -40.966823 
L 189.163357 0.536619 
z
" clip-path="url(#pb06f67eb27)" style="fill: #0000f5; fill-opacity: 0.1"/>
    <path d="M 252.619469 149.180641 
L 232.718597 107.606357 
L 230.945031 95.873992 
L 250.949147 137.648795 
z
" clip-path="url(#pb06f67eb27)" style="fill: #0000f5; fill-opacity: 0.1"/>
    <path d="M 211.016203 54.256411 
L 191.162236 12.795166 
L 189.163357 0.536619 
L 209.120052 42.197098 
z
" clip-path="url(#pb06f67eb27)" style="fill: #0000f5; fill-opacity: 0.1"/>
    <path d="M 272.595263 190.91144 
L 252.619469 149.180641 
L 250.949147 137.648795 
L 271.028976 179.581712 
z
" clip-path="url(#pb06f67eb27)" style="fill: #0000f5; fill-opacity: 0.1"/>
    <path d="M 230.945031 95.873992 
L 211.016203 54.256411 
L 209.120052 42.197098 
L 229.152401 84.015509 
z
" clip-path="url(#pb06f67eb27)" style="fill: #0000f5; fill-opacity: 0.1"/>
    <path d="M 292.646401 232.799639 
L 272.595263 190.91144 
L 271.028976 179.581712 
L 291.184949 221.673642 
z
" clip-path="url(#pb06f67eb27)" style="fill: #0000f5; fill-opacity: 0.1"/>
    <path d="M 189.163357 0.536619 
L 169.281889 -40.966823 
L 167.158491 -53.55688 
L 187.142957 -11.853913 
z
" clip-path="url(#pb06f67eb27)" style="fill: #0000f5; fill-opacity: 0.1"/>
    <path d="M 250.949147 137.648795 
L 230.945031 95.873992 
L 229.152401 84.015509 
L 249.260834 125.99275 
z
" clip-path="url(#pb06f67eb27)" style="fill: #0000f5; fill-opacity: 0.1"/>
    <path d="M 312.773311 274.846132 
L 292.646401 232.799639 
L 291.184949 221.673642 
L 311.417502 263.925492 
z
" clip-path="url(#pb06f67eb27)" style="fill: #0000f5; fill-opacity: 0.1"/>
    <path d="M 209.120052 42.197098 
L 189.163357 0.536619 
L 187.142957 -11.853913 
L 207.203447 30.007699 
z
" clip-path="url(#pb06f67eb27)" style="fill: #0000f5; fill-opacity: 0.1"/>
    <path d="M 271.028976 179.581712 
L 250.949147 137.648795 
L 249.260834 125.99275 
L 269.445788 168.12973 
z
" clip-path="url(#pb06f67eb27)" style="fill: #0000f5; fill-opacity: 0.1"/>
    <path d="M 332.976424 317.051817 
L 312.773311 274.846132 
L 311.417502 263.925492 
L 331.72707 306.338175 
z
" clip-path="url(#pb06f67eb27)" style="fill: #0000f5; fill-opacity: 0.1"/>
    <path d="M 229.152401 84.015509 
L 209.120052 42.197098 
L 207.203447 30.007699 
L 227.340396 72.028862 
z
" clip-path="url(#pb06f67eb27)" style="fill: #0000f5; fill-opacity: 0.1"/>
    <path d="M 291.184949 221.673642 
L 271.028976 179.581712 
L 269.445788 168.12973 
L 289.707698 210.42736 
z
" clip-path="url(#pb06f67eb27)" style="fill: #0000f5; fill-opacity: 0.1"/>
    <path d="M 353.256173 359.4176 
L 332.976424 317.051817 
L 331.72707 306.338175 
L 352.114094 348.912611 
z
" clip-path="url(#pb06f67eb27)" style="fill: #0000f5; fill-opacity: 0.1"/>
    <path d="M 187.142957 -11.853913 
L 167.158491 -53.55688 
L 165.01215 -66.282966 
L 185.100686 -24.378572 
z
" clip-path="url(#pb06f67eb27)" style="fill: #0000f5; fill-opacity: 0.1"/>
    <path d="M 249.260834 125.99275 
L 229.152401 84.015509 
L 227.340396 72.028862 
L 247.554241 114.21049 
z
" clip-path="url(#pb06f67eb27)" style="fill: #0000f5; fill-opacity: 0.1"/>
    <path d="M 311.417502 263.925492 
L 291.184949 221.673642 
L 289.707698 210.42736 
L 310.047006 252.886562 
z
" clip-path="url(#pb06f67eb27)" style="fill: #0000f5; fill-opacity: 0.1"/>
    <path d="M 207.203447 30.007699 
L 187.142957 -11.853913 
L 185.100686 -24.378572 
L 205.266055 17.686097 
z
" clip-path="url(#pb06f67eb27)" style="fill: #0000f5; fill-opacity: 0.1"/>
    <path d="M 269.445788 168.12973 
L 249.260834 125.99275 
L 247.554241 114.21049 
L 267.845423 156.553504 
z
" clip-path="url(#pb06f67eb27)" style="fill: #0000f5; fill-opacity: 0.1"/>
    <path d="M 331.72707 306.338175 
L 311.417502 263.925492 
L 310.047006 252.886562 
L 330.464156 295.508263 
z
" clip-path="url(#pb06f67eb27)" style="fill: #0000f5; fill-opacity: 0.1"/>
    <path d="M 227.340396 72.028862 
L 207.203447 30.007699 
L 205.266055 17.686097 
L 225.5087 59.911962 
z
" clip-path="url(#pb06f67eb27)" style="fill: #0000f5; fill-opacity: 0.1"/>
    <path d="M 289.707698 210.42736 
L 269.445788 168.12973 
L 267.845423 156.553504 
L 288.214389 199.058832 
z
" clip-path="url(#pb06f67eb27)" style="fill: #0000f5; fill-opacity: 0.1"/>
    <path d="M 352.114094 348.912611 
L 331.72707 306.338175 
L 330.464156 295.508263 
L 350.959597 338.293398 
z
" clip-path="url(#pb06f67eb27)" style="fill: #0000f5; fill-opacity: 0.1"/>
    <path d="M 185.100686 -24.378572 
L 165.01215 -66.282966 
L 162.842494 -79.147295 
L 183.036186 -37.039548 
z
" clip-path="url(#pb06f67eb27)" style="fill: #0000f5; fill-opacity: 0.1"/>
    <path d="M 247.554241 114.21049 
L 227.340396 72.028862 
L 225.5087 59.911962 
L 245.829067 102.299952 
z
" clip-path="url(#pb06f67eb27)" style="fill: #0000f5; fill-opacity: 0.1"/>
    <path d="M 310.047006 252.886562 
L 289.707698 210.42736 
L 288.214389 199.058832 
L 308.661585 241.727409 
z
" clip-path="url(#pb06f67eb27)" style="fill: #0000f5; fill-opacity: 0.1"/>
    <path d="M 205.266055 17.686097 
L 185.100686 -24.378572 
L 183.036186 -37.039548 
L 203.307536 5.23013 
z
" clip-path="url(#pb06f67eb27)" style="fill: #0000f5; fill-opacity: 0.1"/>
    <path d="M 267.845423 156.553504 
L 247.554241 114.21049 
L 245.829067 102.299952 
L 266.227602 144.851002 
z
" clip-path="url(#pb06f67eb27)" style="fill: #0000f5; fill-opacity: 0.1"/>
    <path d="M 330.464156 295.508263 
L 310.047006 252.886562 
L 308.661585 241.727409 
L 329.187463 284.560178 
z
" clip-path="url(#pb06f67eb27)" style="fill: #0000f5; fill-opacity: 0.1"/>
    <path d="M 225.5087 59.911962 
L 205.266055 17.686097 
L 203.307536 5.23013 
L 223.656992 47.662675 
z
" clip-path="url(#pb06f67eb27)" style="fill: #0000f5; fill-opacity: 0.1"/>
    <path d="M 288.214389 199.058832 
L 267.845423 156.553504 
L 266.227602 144.851002 
L 286.704759 187.566054 
z
" clip-path="url(#pb06f67eb27)" style="fill: #0000f5; fill-opacity: 0.1"/>
    <path d="M 350.959597 338.293398 
L 330.464156 295.508263 
L 329.187463 284.560178 
L 349.792478 327.558088 
z
" clip-path="url(#pb06f67eb27)" style="fill: #0000f5; fill-opacity: 0.1"/>
    <path d="M 183.036186 -37.039548 
L 162.842494 -79.147295 
L 160.64914 -92.152134 
L 180.949094 -49.839079 
z
" clip-path="url(#pb06f67eb27)" style="fill: #0000f5; fill-opacity: 0.1"/>
    <path d="M 245.829067 102.299952 
L 225.5087 59.911962 
L 223.656992 47.662675 
L 244.085007 90.25903 
z
" clip-path="url(#pb06f67eb27)" style="fill: #0000f5; fill-opacity: 0.1"/>
    <path d="M 308.661585 241.727409 
L 288.214389 199.058832 
L 286.704759 187.566054 
L 307.260992 230.44606 
z
" clip-path="url(#pb06f67eb27)" style="fill: #0000f5; fill-opacity: 0.1"/>
    <path d="M 203.307536 5.23013 
L 183.036186 -37.039548 
L 180.949094 -49.839079 
L 201.327543 -7.362412 
z
" clip-path="url(#pb06f67eb27)" style="fill: #0000f5; fill-opacity: 0.1"/>
    <path d="M 266.227602 144.851002 
L 245.829067 102.299952 
L 244.085007 90.25903 
L 264.592036 133.020145 
z
" clip-path="url(#pb06f67eb27)" style="fill: #0000f5; fill-opacity: 0.1"/>
    <path d="M 329.187463 284.560178 
L 308.661585 241.727409 
L 307.260992 230.44606 
L 327.896761 273.491975 
z
" clip-path="url(#pb06f67eb27)" style="fill: #0000f5; fill-opacity: 0.1"/>
    <path d="M 223.656992 47.662675 
L 203.307536 5.23013 
L 201.327543 -7.362412 
L 221.784942 35.278819 
z
" clip-path="url(#pb06f67eb27)" style="fill: #0000f5; fill-opacity: 0.1"/>
    <path d="M 286.704759 187.566054 
L 266.227602 144.851002 
L 264.592036 133.020145 
L 285.178539 175.946978 
z
" clip-path="url(#pb06f67eb27)" style="fill: #0000f5; fill-opacity: 0.1"/>
    <path d="M 349.792478 327.558088 
L 329.187463 284.560178 
L 327.896761 273.491975 
L 348.612529 316.704766 
z
" clip-path="url(#pb06f67eb27)" style="fill: #0000f5; fill-opacity: 0.1"/>
    <path d="M 180.949094 -49.839079 
L 160.64914 -92.152134 
L 158.431698 -105.299796 
L 178.839037 -62.779452 
z
" clip-path="url(#pb06f67eb27)" style="fill: #0000f5; fill-opacity: 0.1"/>
    <path d="M 244.085007 90.25903 
L 223.656992 47.662675 
L 221.784942 35.278819 
L 242.32175 78.085571 
z
" clip-path="url(#pb06f67eb27)" style="fill: #0000f5; fill-opacity: 0.1"/>
    <path d="M 307.260992 230.44606 
L 286.704759 187.566054 
L 285.178539 175.946978 
L 305.844979 219.040495 
z
" clip-path="url(#pb06f67eb27)" style="fill: #0000f5; fill-opacity: 0.1"/>
    <path d="M 201.327543 -7.362412 
L 180.949094 -49.839079 
L 178.839037 -62.779452 
L 199.32572 -20.093787 
z
" clip-path="url(#pb06f67eb27)" style="fill: #0000f5; fill-opacity: 0.1"/>
    <path d="M 264.592036 133.020145 
L 244.085007 90.25903 
L 242.32175 78.085571 
L 262.938432 121.058811 
z
" clip-path="url(#pb06f67eb27)" style="fill: #0000f5; fill-opacity: 0.1"/>
    <path d="M 327.896761 273.491975 
L 307.260992 230.44606 
L 305.844979 219.040495 
L 326.591821 262.301667 
z
" clip-path="url(#pb06f67eb27)" style="fill: #0000f5; fill-opacity: 0.1"/>
    <path d="M 221.784942 35.278819 
L 201.327543 -7.362412 
L 199.32572 -20.093787 
L 219.892211 22.758165 
z
" clip-path="url(#pb06f67eb27)" style="fill: #0000f5; fill-opacity: 0.1"/>
    <path d="M 285.178539 175.946978 
L 264.592036 133.020145 
L 262.938432 121.058811 
L 283.635454 164.19951 
z
" clip-path="url(#pb06f67eb27)" style="fill: #0000f5; fill-opacity: 0.1"/>
    <path d="M 348.612529 316.704766 
L 327.896761 273.491975 
L 326.591821 262.301667 
L 347.419537 305.731476 
z
" clip-path="url(#pb06f67eb27)" style="fill: #0000f5; fill-opacity: 0.1"/>
    <path d="M 178.839037 -62.779452 
L 158.431698 -105.299796 
L 156.189769 -118.592648 
L 176.705633 -75.863004 
z
" clip-path="url(#pb06f67eb27)" style="fill: #0000f5; fill-opacity: 0.1"/>
    <path d="M 242.32175 78.085571 
L 221.784942 35.278819 
L 219.892211 22.758165 
L 240.538978 65.777376 
z
" clip-path="url(#pb06f67eb27)" style="fill: #0000f5; fill-opacity: 0.1"/>
    <path d="M 305.844979 219.040495 
L 285.178539 175.946978 
L 283.635454 164.19951 
L 304.413287 207.508651 
z
" clip-path="url(#pb06f67eb27)" style="fill: #0000f5; fill-opacity: 0.1"/>
    <path d="M 199.32572 -20.093787 
L 178.839037 -62.779452 
L 176.705633 -75.863004 
L 197.301705 -32.966304 
z
" clip-path="url(#pb06f67eb27)" style="fill: #0000f5; fill-opacity: 0.1"/>
    <path d="M 262.938432 121.058811 
L 242.32175 78.085571 
L 240.538978 65.777376 
L 261.266491 108.964828 
z
" clip-path="url(#pb06f67eb27)" style="fill: #0000f5; fill-opacity: 0.1"/>
    <path d="M 326.591821 262.301667 
L 305.844979 219.040495 
L 304.413287 207.508651 
L 325.272405 250.987221 
z
" clip-path="url(#pb06f67eb27)" style="fill: #0000f5; fill-opacity: 0.1"/>
    <path d="M 219.892211 22.758165 
L 199.32572 -20.093787 
L 197.301705 -32.966304 
L 217.978457 10.098432 
z
" clip-path="url(#pb06f67eb27)" style="fill: #0000f5; fill-opacity: 0.1"/>
    <path d="M 283.635454 164.19951 
L 262.938432 121.058811 
L 261.266491 108.964828 
L 282.075224 152.321511 
z
" clip-path="url(#pb06f67eb27)" style="fill: #0000f5; fill-opacity: 0.1"/>
    <path d="M 347.419537 305.731476 
L 326.591821 262.301667 
L 325.272405 250.987221 
L 346.213285 294.636217 
z
" clip-path="url(#pb06f67eb27)" style="fill: #0000f5; fill-opacity: 0.1"/>
    <path d="M 176.705633 -75.863004 
L 156.189769 -118.592648 
L 153.922944 -132.033108 
L 174.548492 -89.092125 
z
" clip-path="url(#pb06f67eb27)" style="fill: #0000f5; fill-opacity: 0.1"/>
    <path d="M 240.538978 65.777376 
L 219.892211 22.758165 
L 217.978457 10.098432 
L 238.736364 53.332194 
z
" clip-path="url(#pb06f67eb27)" style="fill: #0000f5; fill-opacity: 0.1"/>
    <path d="M 304.413287 207.508651 
L 283.635454 164.19951 
L 282.075224 152.321511 
L 302.965656 195.84842 
z
" clip-path="url(#pb06f67eb27)" style="fill: #0000f5; fill-opacity: 0.1"/>
    <path d="M 197.301705 -32.966304 
L 176.705633 -75.863004 
L 174.548492 -89.092125 
L 195.255126 -45.982324 
z
" clip-path="url(#pb06f67eb27)" style="fill: #0000f5; fill-opacity: 0.1"/>
    <path d="M 261.266491 108.964828 
L 240.538978 65.777376 
L 238.736364 53.332194 
L 259.575904 96.735979 
z
" clip-path="url(#pb06f67eb27)" style="fill: #0000f5; fill-opacity: 0.1"/>
    <path d="M 325.272405 250.987221 
L 304.413287 207.508651 
L 302.965656 195.84842 
L 323.93827 239.546561 
z
" clip-path="url(#pb06f67eb27)" style="fill: #0000f5; fill-opacity: 0.1"/>
    <path d="M 217.978457 10.098432 
L 197.301705 -32.966304 
L 195.255126 -45.982324 
L 216.043326 -2.702709 
z
" clip-path="url(#pb06f67eb27)" style="fill: #0000f5; fill-opacity: 0.1"/>
    <path d="M 282.075224 152.321511 
L 261.266491 108.964828 
L 259.575904 96.735979 
L 280.49756 140.310792 
z
" clip-path="url(#pb06f67eb27)" style="fill: #0000f5; fill-opacity: 0.1"/>
    <path d="M 346.213285 294.636217 
L 325.272405 250.987221 
L 323.93827 239.546561 
L 344.993551 283.416945 
z
" clip-path="url(#pb06f67eb27)" style="fill: #0000f5; fill-opacity: 0.1"/>
    <path d="M 174.548492 -89.092125 
L 153.922944 -132.033108 
L 151.630808 -145.623649 
L 172.367216 -102.469257 
z
" clip-path="url(#pb06f67eb27)" style="fill: #0000f5; fill-opacity: 0.1"/>
    <path d="M 238.736364 53.332194 
L 217.978457 10.098432 
L 216.043326 -2.702709 
L 236.913575 40.747726 
z
" clip-path="url(#pb06f67eb27)" style="fill: #0000f5; fill-opacity: 0.1"/>
    <path d="M 302.965656 195.84842 
L 282.075224 152.321511 
L 280.49756 140.310792 
L 301.501819 184.057646 
z
" clip-path="url(#pb06f67eb27)" style="fill: #0000f5; fill-opacity: 0.1"/>
    <path d="M 195.255126 -45.982324 
L 174.548492 -89.092125 
L 172.367216 -102.469257 
L 193.185604 -59.144259 
z
" clip-path="url(#pb06f67eb27)" style="fill: #0000f5; fill-opacity: 0.1"/>
    <path d="M 259.575904 96.735979 
L 238.736364 53.332194 
L 236.913575 40.747726 
L 257.866359 84.369995 
z
" clip-path="url(#pb06f67eb27)" style="fill: #0000f5; fill-opacity: 0.1"/>
    <path d="M 323.93827 239.546561 
L 302.965656 195.84842 
L 301.501819 184.057646 
L 322.589169 227.977562 
z
" clip-path="url(#pb06f67eb27)" style="fill: #0000f5; fill-opacity: 0.1"/>
    <path d="M 216.043326 -2.702709 
L 195.255126 -45.982324 
L 193.185604 -59.144259 
L 214.086458 -15.64764 
z
" clip-path="url(#pb06f67eb27)" style="fill: #0000f5; fill-opacity: 0.1"/>
    <path d="M 280.49756 140.310792 
L 259.575904 96.735979 
L 257.866359 84.369995 
L 278.902169 128.165118 
z
" clip-path="url(#pb06f67eb27)" style="fill: #0000f5; fill-opacity: 0.1"/>
    <path d="M 344.993551 283.416945 
L 323.93827 239.546561 
L 322.589169 227.977562 
L 343.760107 272.071568 
z
" clip-path="url(#pb06f67eb27)" style="fill: #0000f5; fill-opacity: 0.1"/>
    <path d="M 172.367216 -102.469257 
L 151.630808 -145.623649 
L 149.312933 -159.366797 
L 170.161398 -115.9969 
z
" clip-path="url(#pb06f67eb27)" style="fill: #0000f5; fill-opacity: 0.1"/>
    <path d="M 236.913575 40.747726 
L 216.043326 -2.702709 
L 214.086458 -15.64764 
L 235.07027 28.021621 
z
" clip-path="url(#pb06f67eb27)" style="fill: #0000f5; fill-opacity: 0.1"/>
    <path d="M 301.501819 184.057646 
L 280.49756 140.310792 
L 278.902169 128.165118 
L 300.0215 172.134125 
z
" clip-path="url(#pb06f67eb27)" style="fill: #0000f5; fill-opacity: 0.1"/>
    <path d="M 193.185604 -59.144259 
L 172.367216 -102.469257 
L 170.161398 -115.9969 
L 191.092751 -72.454577 
z
" clip-path="url(#pb06f67eb27)" style="fill: #0000f5; fill-opacity: 0.1"/>
    <path d="M 257.866359 84.369995 
L 236.913575 40.747726 
L 235.07027 28.021621 
L 256.137535 71.864555 
z
" clip-path="url(#pb06f67eb27)" style="fill: #0000f5; fill-opacity: 0.1"/>
    <path d="M 322.589169 227.977562 
L 301.501819 184.057646 
L 300.0215 172.134125 
L 321.22485 216.278053 
z
" clip-path="url(#pb06f67eb27)" style="fill: #0000f5; fill-opacity: 0.1"/>
    <path d="M 214.086458 -15.64764 
L 193.185604 -59.144259 
L 191.092751 -72.454577 
L 212.107486 -28.738799 
z
" clip-path="url(#pb06f67eb27)" style="fill: #0000f5; fill-opacity: 0.1"/>
    <path d="M 278.902169 128.165118 
L 257.866359 84.369995 
L 256.137535 71.864555 
L 277.288751 115.882199 
z
" clip-path="url(#pb06f67eb27)" style="fill: #0000f5; fill-opacity: 0.1"/>
    <path d="M 343.760107 272.071568 
L 322.589169 227.977562 
L 321.22485 216.278053 
L 342.512721 260.597949 
z
" clip-path="url(#pb06f67eb27)" style="fill: #0000f5; fill-opacity: 0.1"/>
    <path d="M 170.161398 -115.9969 
L 149.312933 -159.366797 
L 146.968884 -173.265138 
L 167.930622 -129.677607 
z
" clip-path="url(#pb06f67eb27)" style="fill: #0000f5; fill-opacity: 0.1"/>
    <path d="M 235.07027 28.021621 
L 214.086458 -15.64764 
L 212.107486 -28.738799 
L 233.206102 15.151474 
z
" clip-path="url(#pb06f67eb27)" style="fill: #0000f5; fill-opacity: 0.1"/>
    <path d="M 300.0215 172.134125 
L 278.902169 128.165118 
L 277.288751 115.882199 
L 298.524421 160.075601 
z
" clip-path="url(#pb06f67eb27)" style="fill: #0000f5; fill-opacity: 0.1"/>
    <path d="M 191.092751 -72.454577 
L 170.161398 -115.9969 
L 167.930622 -129.677607 
L 188.97617 -85.915802 
z
" clip-path="url(#pb06f67eb27)" style="fill: #0000f5; fill-opacity: 0.1"/>
    <path d="M 256.137535 71.864555 
L 235.07027 28.021621 
L 233.206102 15.151474 
L 254.389104 59.217288 
z
" clip-path="url(#pb06f67eb27)" style="fill: #0000f5; fill-opacity: 0.1"/>
    <path d="M 321.22485 216.278053 
L 300.0215 172.134125 
L 298.524421 160.075601 
L 319.845051 204.445813 
z
" clip-path="url(#pb06f67eb27)" style="fill: #0000f5; fill-opacity: 0.1"/>
    <path d="M 212.107486 -28.738799 
L 191.092751 -72.454577 
L 188.97617 -85.915802 
L 210.106031 -41.978676 
z
" clip-path="url(#pb06f67eb27)" style="fill: #0000f5; fill-opacity: 0.1"/>
    <path d="M 277.288751 115.882199 
L 256.137535 71.864555 
L 254.389104 59.217288 
L 275.656997 103.459698 
z
" clip-path="url(#pb06f67eb27)" style="fill: #0000f5; fill-opacity: 0.1"/>
    <path d="M 342.512721 260.597949 
L 321.22485 216.278053 
L 319.845051 204.445813 
L 341.251154 248.993901 
z
" clip-path="url(#pb06f67eb27)" style="fill: #0000f5; fill-opacity: 0.1"/>
    <path d="M 167.930622 -129.677607 
L 146.968884 -173.265138 
L 144.598214 -187.321317 
L 165.674461 -143.51399 
z
" clip-path="url(#pb06f67eb27)" style="fill: #0000f5; fill-opacity: 0.1"/>
    <path d="M 233.206102 15.151474 
L 212.107486 -28.738799 
L 210.106031 -41.978676 
L 231.320714 2.134825 
z
" clip-path="url(#pb06f67eb27)" style="fill: #0000f5; fill-opacity: 0.1"/>
    <path d="M 298.524421 160.075601 
L 277.288751 115.882199 
L 275.656997 103.459698 
L 297.010294 147.879768 
z
" clip-path="url(#pb06f67eb27)" style="fill: #0000f5; fill-opacity: 0.1"/>
    <path d="M 188.97617 -85.915802 
L 167.930622 -129.677607 
L 165.674461 -143.51399 
L 186.835455 -99.530514 
z
" clip-path="url(#pb06f67eb27)" style="fill: #0000f5; fill-opacity: 0.1"/>
    <path d="M 254.389104 59.217288 
L 233.206102 15.151474 
L 231.320714 2.134825 
L 252.62073 46.425766 
z
" clip-path="url(#pb06f67eb27)" style="fill: #0000f5; fill-opacity: 0.1"/>
    <path d="M 319.845051 204.445813 
L 298.524421 160.075601 
L 297.010294 147.879768 
L 318.44951 192.478571 
z
" clip-path="url(#pb06f67eb27)" style="fill: #0000f5; fill-opacity: 0.1"/>
    <path d="M 210.106031 -41.978676 
L 188.97617 -85.915802 
L 186.835455 -99.530514 
L 208.08171 -55.369822 
z
" clip-path="url(#pb06f67eb27)" style="fill: #0000f5; fill-opacity: 0.1"/>
    <path d="M 275.656997 103.459698 
L 254.389104 59.217288 
L 252.62073 46.425766 
L 274.006595 90.89522 
z
" clip-path="url(#pb06f67eb27)" style="fill: #0000f5; fill-opacity: 0.1"/>
    <path d="M 341.251154 248.993901 
L 319.845051 204.445813 
L 318.44951 192.478571 
L 339.975165 237.257187 
z
" clip-path="url(#pb06f67eb27)" style="fill: #0000f5; fill-opacity: 0.1"/>
    <path d="M 165.674461 -143.51399 
L 144.598214 -187.321317 
L 142.200468 -201.538036 
L 163.392479 -157.508724 
z
" clip-path="url(#pb06f67eb27)" style="fill: #0000f5; fill-opacity: 0.1"/>
    <path d="M 231.320714 2.134825 
L 210.106031 -41.978676 
L 208.08171 -55.369822 
L 229.413742 -11.030842 
z
" clip-path="url(#pb06f67eb27)" style="fill: #0000f5; fill-opacity: 0.1"/>
    <path d="M 297.010294 147.879768 
L 275.656997 103.459698 
L 274.006595 90.89522 
L 295.478828 135.544269 
z
" clip-path="url(#pb06f67eb27)" style="fill: #0000f5; fill-opacity: 0.1"/>
    <path d="M 186.835455 -99.530514 
L 165.674461 -143.51399 
L 163.392479 -157.508724 
L 184.670192 -113.301353 
z
" clip-path="url(#pb06f67eb27)" style="fill: #0000f5; fill-opacity: 0.1"/>
    <path d="M 252.62073 46.425766 
L 231.320714 2.134825 
L 229.413742 -11.030842 
L 250.832071 33.487508 
z
" clip-path="url(#pb06f67eb27)" style="fill: #0000f5; fill-opacity: 0.1"/>
    <path d="M 318.44951 192.478571 
L 297.010294 147.879768 
L 295.478828 135.544269 
L 317.037955 180.374002 
z
" clip-path="url(#pb06f67eb27)" style="fill: #0000f5; fill-opacity: 0.1"/>
    <path d="M 208.08171 -55.369822 
L 186.835455 -99.530514 
L 184.670192 -113.301353 
L 206.034128 -68.914842 
z
" clip-path="url(#pb06f67eb27)" style="fill: #0000f5; fill-opacity: 0.1"/>
    <path d="M 274.006595 90.89522 
L 252.62073 46.425766 
L 250.832071 33.487508 
L 272.337221 78.186319 
z
" clip-path="url(#pb06f67eb27)" style="fill: #0000f5; fill-opacity: 0.1"/>
    <path d="M 339.975165 237.257187 
L 318.44951 192.478571 
L 317.037955 180.374002 
L 338.684504 225.385519 
z
" clip-path="url(#pb06f67eb27)" style="fill: #0000f5; fill-opacity: 0.1"/>
    <path d="M 163.392479 -157.508724 
L 142.200468 -201.538036 
L 139.77518 -215.918062 
L 161.084231 -171.66454 
z
" clip-path="url(#pb06f67eb27)" style="fill: #0000f5; fill-opacity: 0.1"/>
    <path d="M 229.413742 -11.030842 
L 208.08171 -55.369822 
L 206.034128 -68.914842 
L 227.484812 -24.3481 
z
" clip-path="url(#pb06f67eb27)" style="fill: #0000f5; fill-opacity: 0.1"/>
    <path d="M 295.478828 135.544269 
L 274.006595 90.89522 
L 272.337221 78.186319 
L 293.929723 123.06669 
z
" clip-path="url(#pb06f67eb27)" style="fill: #0000f5; fill-opacity: 0.1"/>
    <path d="M 184.670192 -113.301353 
L 163.392479 -157.508724 
L 161.084231 -171.66454 
L 182.479955 -127.231021 
z
" clip-path="url(#pb06f67eb27)" style="fill: #0000f5; fill-opacity: 0.1"/>
    <path d="M 250.832071 33.487508 
L 229.413742 -11.030842 
L 227.484812 -24.3481 
L 249.022774 20.399975 
z
" clip-path="url(#pb06f67eb27)" style="fill: #0000f5; fill-opacity: 0.1"/>
    <path d="M 317.037955 180.374002 
L 295.478828 135.544269 
L 293.929723 123.06669 
L 315.610108 168.12973 
z
" clip-path="url(#pb06f67eb27)" style="fill: #0000f5; fill-opacity: 0.1"/>
    <path d="M 206.034128 -68.914842 
L 184.670192 -113.301353 
L 182.479955 -127.231021 
L 203.962881 -82.616405 
z
" clip-path="url(#pb06f67eb27)" style="fill: #0000f5; fill-opacity: 0.1"/>
    <path d="M 272.337221 78.186319 
L 250.832071 33.487508 
L 249.022774 20.399975 
L 270.648548 65.330489 
z
" clip-path="url(#pb06f67eb27)" style="fill: #0000f5; fill-opacity: 0.1"/>
    <path d="M 338.684504 225.385519 
L 317.037955 180.374002 
L 315.610108 168.12973 
L 337.378916 213.376556 
z
" clip-path="url(#pb06f67eb27)" style="fill: #0000f5; fill-opacity: 0.1"/>
    <path d="M 161.084231 -171.66454 
L 139.77518 -215.918062 
L 137.321871 -230.464226 
L 158.749261 -185.984237 
z
" clip-path="url(#pb06f67eb27)" style="fill: #0000f5; fill-opacity: 0.1"/>
    <path d="M 227.484812 -24.3481 
L 206.034128 -68.914842 
L 203.962881 -82.616405 
L 225.533544 -37.819582 
z
" clip-path="url(#pb06f67eb27)" style="fill: #0000f5; fill-opacity: 0.1"/>
    <path d="M 293.929723 123.06669 
L 272.337221 78.186319 
L 270.648548 65.330489 
L 292.362671 110.444562 
z
" clip-path="url(#pb06f67eb27)" style="fill: #0000f5; fill-opacity: 0.1"/>
    <path d="M 182.479955 -127.231021 
L 161.084231 -171.66454 
L 158.749261 -185.984237 
L 180.26431 -141.322282 
z
" clip-path="url(#pb06f67eb27)" style="fill: #0000f5; fill-opacity: 0.1"/>
    <path d="M 249.022774 20.399975 
L 227.484812 -24.3481 
L 225.533544 -37.819582 
L 247.192482 7.160567 
z
" clip-path="url(#pb06f67eb27)" style="fill: #0000f5; fill-opacity: 0.1"/>
    <path d="M 315.610108 168.12973 
L 293.929723 123.06669 
L 292.362671 110.444562 
L 314.165687 155.743321 
z
" clip-path="url(#pb06f67eb27)" style="fill: #0000f5; fill-opacity: 0.1"/>
    <path d="M 203.962881 -82.616405 
L 182.479955 -127.231021 
L 180.26431 -141.322282 
L 201.867558 -96.47724 
z
" clip-path="url(#pb06f67eb27)" style="fill: #0000f5; fill-opacity: 0.1"/>
    <path d="M 270.648548 65.330489 
L 249.022774 20.399975 
L 247.192482 7.160567 
L 268.940238 52.325168 
z
" clip-path="url(#pb06f67eb27)" style="fill: #0000f5; fill-opacity: 0.1"/>
    <path d="M 337.378916 213.376556 
L 315.610108 168.12973 
L 314.165687 155.743321 
L 336.058141 201.227901 
z
" clip-path="url(#pb06f67eb27)" style="fill: #0000f5; fill-opacity: 0.1"/>
    <path d="M 158.749261 -185.984237 
L 137.321871 -230.464226 
L 134.840054 -245.179422 
L 156.387102 -200.470678 
z
" clip-path="url(#pb06f67eb27)" style="fill: #0000f5; fill-opacity: 0.1"/>
    <path d="M 225.533544 -37.819582 
L 203.962881 -82.616405 
L 201.867558 -96.47724 
L 223.559547 -51.447983 
z
" clip-path="url(#pb06f67eb27)" style="fill: #0000f5; fill-opacity: 0.1"/>
    <path d="M 292.362671 110.444562 
L 270.648548 65.330489 
L 268.940238 52.325168 
L 290.77736 97.675359 
z
" clip-path="url(#pb06f67eb27)" style="fill: #0000f5; fill-opacity: 0.1"/>
    <path d="M 180.26431 -141.322282 
L 158.749261 -185.984237 
L 156.387102 -200.470678 
L 178.022813 -155.577963 
z
" clip-path="url(#pb06f67eb27)" style="fill: #0000f5; fill-opacity: 0.1"/>
    <path d="M 247.192482 7.160567 
L 225.533544 -37.819582 
L 223.559547 -51.447983 
L 245.340827 -6.233375 
z
" clip-path="url(#pb06f67eb27)" style="fill: #0000f5; fill-opacity: 0.1"/>
    <path d="M 314.165687 155.743321 
L 292.362671 110.444562 
L 290.77736 97.675359 
L 312.7044 143.212286 
z
" clip-path="url(#pb06f67eb27)" style="fill: #0000f5; fill-opacity: 0.1"/>
    <path d="M 201.867558 -96.47724 
L 180.26431 -141.322282 
L 178.022813 -155.577963 
L 199.747735 -110.50014 
z
" clip-path="url(#pb06f67eb27)" style="fill: #0000f5; fill-opacity: 0.1"/>
    <path d="M 268.940238 52.325168 
L 247.192482 7.160567 
L 245.340827 -6.233375 
L 267.211948 39.167732 
z
" clip-path="url(#pb06f67eb27)" style="fill: #0000f5; fill-opacity: 0.1"/>
    <path d="M 336.058141 201.227901 
L 314.165687 155.743321 
L 312.7044 143.212286 
L 334.721913 188.937105 
z
" clip-path="url(#pb06f67eb27)" style="fill: #0000f5; fill-opacity: 0.1"/>
    <path d="M 156.387102 -200.470678 
L 134.840054 -245.179422 
L 132.329228 -260.066615 
L 153.997275 -215.126791 
z
" clip-path="url(#pb06f67eb27)" style="fill: #0000f5; fill-opacity: 0.1"/>
    <path d="M 223.559547 -51.447983 
L 201.867558 -96.47724 
L 199.747735 -110.50014 
L 221.562422 -65.236061 
z
" clip-path="url(#pb06f67eb27)" style="fill: #0000f5; fill-opacity: 0.1"/>
    <path d="M 290.77736 97.675359 
L 268.940238 52.325168 
L 267.211948 39.167732 
L 289.173469 84.756495 
z
" clip-path="url(#pb06f67eb27)" style="fill: #0000f5; fill-opacity: 0.1"/>
    <path d="M 178.022813 -155.577963 
L 156.387102 -200.470678 
L 153.997275 -215.126791 
L 175.755007 -170.000959 
z
" clip-path="url(#pb06f67eb27)" style="fill: #0000f5; fill-opacity: 0.1"/>
    <path d="M 245.340827 -6.233375 
L 223.559547 -51.447983 
L 221.562422 -65.236061 
L 243.467431 -19.784571 
z
" clip-path="url(#pb06f67eb27)" style="fill: #0000f5; fill-opacity: 0.1"/>
    <path d="M 312.7044 143.212286 
L 290.77736 97.675359 
L 289.173469 84.756495 
L 311.22595 130.534077 
z
" clip-path="url(#pb06f67eb27)" style="fill: #0000f5; fill-opacity: 0.1"/>
    <path d="M 199.747735 -110.50014 
L 178.022813 -155.577963 
L 175.755007 -170.000959 
L 197.602981 -124.687965 
z
" clip-path="url(#pb06f67eb27)" style="fill: #0000f5; fill-opacity: 0.1"/>
    <path d="M 267.211948 39.167732 
L 245.340827 -6.233375 
L 243.467431 -19.784571 
L 265.463324 25.855499 
z
" clip-path="url(#pb06f67eb27)" style="fill: #0000f5; fill-opacity: 0.1"/>
    <path d="M 334.721913 188.937105 
L 312.7044 143.212286 
L 311.22595 130.534077 
L 333.369959 176.501657 
z
" clip-path="url(#pb06f67eb27)" style="fill: #0000f5; fill-opacity: 0.1"/>
    <path d="M 153.997275 -215.126791 
L 132.329228 -260.066615 
L 129.788882 -275.128838 
L 151.579293 -229.955574 
z
" clip-path="url(#pb06f67eb27)" style="fill: #0000f5; fill-opacity: 0.1"/>
    <path d="M 221.562422 -65.236061 
L 199.747735 -110.50014 
L 197.602981 -124.687965 
L 219.54176 -79.18664 
z
" clip-path="url(#pb06f67eb27)" style="fill: #0000f5; fill-opacity: 0.1"/>
    <path d="M 289.173469 84.756495 
L 267.211948 39.167732 
L 265.463324 25.855499 
L 287.550668 71.685323 
z
" clip-path="url(#pb06f67eb27)" style="fill: #0000f5; fill-opacity: 0.1"/>
    <path d="M 175.755007 -170.000959 
L 153.997275 -215.126791 
L 151.579293 -229.955574 
L 173.460428 -184.594234 
z
" clip-path="url(#pb06f67eb27)" style="fill: #0000f5; fill-opacity: 0.1"/>
    <path d="M 243.467431 -19.784571 
L 221.562422 -65.236061 
L 219.54176 -79.18664 
L 241.571911 -33.495807 
z
" clip-path="url(#pb06f67eb27)" style="fill: #0000f5; fill-opacity: 0.1"/>
    <path d="M 311.22595 130.534077 
L 289.173469 84.756495 
L 287.550668 71.685323 
L 309.730034 117.706087 
z
" clip-path="url(#pb06f67eb27)" style="fill: #0000f5; fill-opacity: 0.1"/>
    <path d="M 197.602981 -124.687965 
L 175.755007 -170.000959 
L 173.460428 -184.594234 
L 195.432853 -139.043641 
z
" clip-path="url(#pb06f67eb27)" style="fill: #0000f5; fill-opacity: 0.1"/>
    <path d="M 265.463324 25.855499 
L 243.467431 -19.784571 
L 241.571911 -33.495807 
L 263.694006 12.385718 
z
" clip-path="url(#pb06f67eb27)" style="fill: #0000f5; fill-opacity: 0.1"/>
    <path d="M 333.369959 176.501657 
L 311.22595 130.534077 
L 309.730034 117.706087 
L 332.001999 163.918988 
z
" clip-path="url(#pb06f67eb27)" style="fill: #0000f5; fill-opacity: 0.1"/>
    <path d="M 219.54176 -79.18664 
L 197.602981 -124.687965 
L 195.432853 -139.043641 
L 217.497142 -93.302607 
z
" clip-path="url(#pb06f67eb27)" style="fill: #0000f5; fill-opacity: 0.1"/>
    <path d="M 287.550668 71.685323 
L 265.463324 25.855499 
L 263.694006 12.385718 
L 285.908622 58.459134 
z
" clip-path="url(#pb06f67eb27)" style="fill: #0000f5; fill-opacity: 0.1"/>
    <path d="M 241.571911 -33.495807 
L 219.54176 -79.18664 
L 217.497142 -93.302607 
L 239.653871 -47.369936 
z
" clip-path="url(#pb06f67eb27)" style="fill: #0000f5; fill-opacity: 0.1"/>
    <path d="M 309.730034 117.706087 
L 287.550668 71.685323 
L 285.908622 58.459134 
L 308.21634 104.725645 
z
" clip-path="url(#pb06f67eb27)" style="fill: #0000f5; fill-opacity: 0.1"/>
    <path d="M 263.694006 12.385718 
L 241.571911 -33.495807 
L 239.653871 -47.369936 
L 261.903623 -1.244422 
z
" clip-path="url(#pb06f67eb27)" style="fill: #0000f5; fill-opacity: 0.1"/>
    <path d="M 332.001999 163.918988 
L 309.730034 117.706087 
L 308.21634 104.725645 
L 330.617748 151.186469 
z
" clip-path="url(#pb06f67eb27)" style="fill: #0000f5; fill-opacity: 0.1"/>
    <path d="M 285.908622 58.459134 
L 263.694006 12.385718 
L 261.903623 -1.244422 
L 284.246986 45.075153 
z
" clip-path="url(#pb06f67eb27)" style="fill: #0000f5; fill-opacity: 0.1"/>
    <path d="M 308.21634 104.725645 
L 285.908622 58.459134 
L 284.246986 45.075153 
L 306.68455 91.590017 
z
" clip-path="url(#pb06f67eb27)" style="fill: #0000f5; fill-opacity: 0.1"/>
    <path d="M 330.617748 151.186469 
L 308.21634 104.725645 
L 306.68455 91.590017 
L 329.216913 138.301406 
z
" clip-path="url(#pb06f67eb27)" style="fill: #0000f5; fill-opacity: 0.1"/>
   </g>
   <g id="legend_1">
    <g id="patch_6">
     <path d="M 357.840076 67.305115 
L 396.2 67.305115 
Q 398.2 67.305115 398.2 65.305115 
L 398.2 7 
Q 398.2 5 396.2 5 
L 357.840076 5 
Q 355.840076 5 355.840076 7 
L 355.840076 65.305115 
Q 355.840076 67.305115 357.840076 67.305115 
z
" style="fill: #ffffff; opacity: 0.8; stroke: #cccccc; stroke-linejoin: miter"/>
    </g>
    <g id="line2d_25">
     <path d="M 359.840076 12.5 
L 369.840076 12.5 
L 379.840076 12.5 
" style="fill: none; stroke: #ff0000; stroke-width: 1.5; stroke-linecap: square"/>
    </g>
    <g id="text_21">
     <!-- $\vec{a}$ -->
     <g transform="translate(387.840076 16)scale(0.1 -0.1)">
      <defs>
       <path id="CMMI12-7e" d="M 3424 3835 
C 3347 3764 3110 3540 3110 3451 
C 3110 3387 3168 3329 3232 3329 
C 3290 3329 3315 3368 3360 3432 
C 3514 3624 3686 3745 3834 3828 
C 3898 3867 3942 3886 3942 3956 
C 3942 4014 3891 4046 3853 4078 
C 3674 4200 3629 4372 3610 4449 
C 3590 4500 3571 4577 3482 4577 
C 3443 4577 3366 4552 3366 4456 
C 3366 4398 3405 4244 3526 4072 
L 1376 4072 
C 1267 4072 1158 4072 1158 3950 
C 1158 3835 1274 3835 1376 3835 
L 3424 3835 
z
" transform="scale(0.015625)"/>
       <path id="CMMI12-61" d="M 1926 760 
C 1894 651 1894 639 1805 517 
C 1664 338 1382 64 1082 64 
C 819 64 672 300 672 677 
C 672 1028 870 1743 992 2012 
C 1210 2459 1510 2689 1760 2689 
C 2182 2689 2266 2165 2266 2114 
C 2266 2108 2246 2024 2240 2012 
L 1926 760 
z
M 2336 2395 
C 2266 2561 2093 2816 1760 2816 
C 1037 2816 256 1884 256 939 
C 256 307 627 -64 1062 -64 
C 1414 -64 1715 211 1894 422 
C 1958 45 2259 -64 2451 -64 
C 2643 -64 2797 51 2912 281 
C 3014 498 3104 888 3104 913 
C 3104 945 3078 971 3040 971 
C 2982 971 2976 939 2950 843 
C 2854 466 2733 64 2470 64 
C 2285 64 2272 230 2272 358 
C 2272 505 2291 575 2349 824 
C 2394 984 2426 1124 2477 1309 
C 2714 2267 2771 2497 2771 2535 
C 2771 2625 2701 2695 2605 2695 
C 2400 2695 2349 2472 2336 2395 
z
" transform="scale(0.015625)"/>
      </defs>
      <use xlink:href="#CMMI12-7e" transform="scale(0.996264)"/>
      <use xlink:href="#CMMI12-61" transform="translate(6.445738 0)scale(0.996264)"/>
     </g>
    </g>
    <g id="line2d_26">
     <path d="M 359.840076 27.24679 
L 369.840076 27.24679 
L 379.840076 27.24679 
" style="fill: none; stroke: #00ff00; stroke-width: 1.5; stroke-linecap: square"/>
    </g>
    <g id="text_22">
     <!-- $\vec{b}$ -->
     <g transform="translate(387.840076 30.74679)scale(0.1 -0.1)">
      <defs>
       <path id="CMMI12-62" d="M 1478 4257 
C 1485 4283 1498 4321 1498 4352 
C 1498 4416 1434 4416 1421 4416 
C 1414 4416 1184 4393 1069 4377 
C 960 4377 864 4358 749 4358 
C 595 4345 550 4339 550 4224 
C 550 4160 614 4160 678 4160 
C 1005 4160 1005 4103 1005 4040 
C 1005 3996 954 3811 928 3696 
L 774 3085 
C 710 2831 346 1387 320 1272 
C 288 1114 288 1005 288 922 
C 288 274 653 -64 1069 -64 
C 1811 -64 2579 888 2579 1814 
C 2579 2401 2246 2816 1766 2816 
C 1434 2816 1133 2542 1011 2414 
L 1478 4257 
z
M 1075 64 
C 870 64 646 217 646 715 
C 646 926 666 1047 781 1494 
C 800 1577 902 1986 928 2069 
C 941 2120 1318 2689 1754 2689 
C 2035 2689 2163 2408 2163 2076 
C 2163 1769 1984 1047 1824 715 
C 1664 370 1370 64 1075 64 
z
" transform="scale(0.015625)"/>
      </defs>
      <use xlink:href="#CMMI12-7e" transform="translate(0 26.29016)scale(0.996264)"/>
      <use xlink:href="#CMMI12-62" transform="translate(11.311737 0)scale(0.996264)"/>
     </g>
    </g>
    <g id="line2d_27">
     <path d="M 359.840076 41.183968 
L 369.840076 41.183968 
L 379.840076 41.183968 
" style="fill: none; stroke: #0016ff; stroke-width: 1.5; stroke-linecap: square"/>
    </g>
    <g id="text_23">
     <!-- $\vec{c}$ -->
     <g transform="translate(387.840076 44.683968)scale(0.1 -0.1)">
      <defs>
       <path id="CMMI12-63" d="M 2502 2431 
C 2381 2431 2323 2431 2234 2355 
C 2195 2323 2125 2227 2125 2125 
C 2125 1997 2221 1920 2342 1920 
C 2496 1920 2669 2044 2669 2292 
C 2669 2588 2374 2816 1933 2816 
C 1094 2816 256 1903 256 996 
C 256 441 602 -64 1254 -64 
C 2125 -64 2675 622 2675 706 
C 2675 744 2637 776 2611 776 
C 2592 776 2586 770 2528 713 
C 2118 162 1510 64 1267 64 
C 826 64 685 446 685 764 
C 685 988 794 1605 1024 2039 
C 1190 2338 1536 2682 1939 2682 
C 2022 2682 2374 2682 2502 2431 
z
" transform="scale(0.015625)"/>
      </defs>
      <use xlink:href="#CMMI12-7e" transform="scale(0.996264)"/>
      <use xlink:href="#CMMI12-63" transform="translate(5.638615 0)scale(0.996264)"/>
     </g>
    </g>
    <g id="line2d_28">
     <path d="M 359.840076 57.867937 
L 369.840076 57.867937 
L 379.840076 57.867937 
" style="fill: none; stroke: #f400ff; stroke-width: 1.5; stroke-linecap: square"/>
    </g>
    <g id="text_24">
     <!-- $\vec{f}$ -->
     <g transform="translate(387.840076 61.367937)scale(0.1 -0.1)">
      <defs>
       <path id="CMMI12-66" d="M 2854 2566 
C 2982 2566 3034 2566 3034 2688 
C 3034 2752 2982 2752 2867 2752 
L 2349 2752 
C 2470 3429 2560 3897 2611 4107 
C 2650 4265 2784 4416 2950 4416 
C 3085 4416 3219 4358 3283 4298 
C 3034 4272 2957 4082 2957 3969 
C 2957 3837 3053 3759 3174 3759 
C 3302 3759 3494 3870 3494 4119 
C 3494 4393 3226 4544 2944 4544 
C 2669 4544 2400 4334 2272 4078 
C 2157 3848 2093 3611 1946 2752 
L 1517 2752 
C 1395 2752 1331 2752 1331 2637 
C 1331 2566 1370 2566 1498 2566 
L 1907 2566 
C 1792 1976 1530 542 1382 -137 
C 1274 -689 1178 -1152 858 -1152 
C 838 -1152 653 -1152 538 -1031 
C 864 -1005 864 -726 864 -720 
C 864 -593 768 -517 646 -517 
C 518 -517 326 -625 326 -867 
C 326 -1140 608 -1280 858 -1280 
C 1510 -1280 1779 -118 1850 199 
C 1965 688 2278 2376 2310 2566 
L 2854 2566 
z
" transform="scale(0.015625)"/>
      </defs>
      <use xlink:href="#CMMI12-7e" transform="translate(13.568792 26.29016)scale(0.996264)"/>
      <use xlink:href="#CMMI12-66" transform="scale(0.996264)"/>
     </g>
    </g>
   </g>
  </g>
 </g>
 <defs>
  <clipPath id="pb06f67eb27">
   <rect x="57.6" y="0" width="345.6" height="345.6"/>
  </clipPath>
 </defs>
</svg>
