<?xml version="1.0" encoding="utf-8" standalone="no"?>
<!DOCTYPE svg PUBLIC "-//W3C//DTD SVG 1.1//EN"
  "http://www.w3.org/Graphics/SVG/1.1/DTD/svg11.dtd">
<svg xmlns:xlink="http://www.w3.org/1999/xlink" width="460.8pt" height="345.6pt" viewBox="0 0 460.8 345.6" xmlns="http://www.w3.org/2000/svg" version="1.1">
 <metadata>
  <rdf:RDF xmlns:dc="http://purl.org/dc/elements/1.1/" xmlns:cc="http://creativecommons.org/ns#" xmlns:rdf="http://www.w3.org/1999/02/22-rdf-syntax-ns#">
   <cc:Work>
    <dc:type rdf:resource="http://purl.org/dc/dcmitype/StillImage"/>
    <dc:date>2022-07-12T15:50:57.552728</dc:date>
    <dc:format>image/svg+xml</dc:format>
    <dc:creator>
     <cc:Agent>
      <dc:title>Matplotlib v3.5.1, https://matplotlib.org/</dc:title>
     </cc:Agent>
    </dc:creator>
   </cc:Work>
  </rdf:RDF>
 </metadata>
 <defs>
  <style type="text/css">*{stroke-linejoin: round; stroke-linecap: butt}</style>
 </defs>
 <g id="figure_1">
  <g id="patch_1">
   <path d="M 0 345.6 
L 460.8 345.6 
L 460.8 0 
L 0 0 
z
" style="fill: #ffffff"/>
  </g>
  <g id="patch_2">
   <path d="M 57.6 345.6 
L 403.2 345.6 
L 403.2 0 
L 57.6 0 
z
" style="fill: #ffffff"/>
  </g>
  <g id="pane3d_1">
   <g id="patch_3">
    <path d="M 164.059151 245.808331 
L 91.678978 255.075766 
L 91.678978 81.183694 
L 164.059151 90.451129 
" style="fill: #f2f2f2; opacity: 0.5; stroke: #f2f2f2; stroke-linejoin: miter"/>
   </g>
  </g>
  <g id="pane3d_2">
   <g id="patch_4">
    <path d="M 367.216604 248.257328 
L 164.059151 245.808331 
L 164.059151 90.451129 
L 367.216604 88.002131 
" style="fill: #e6e6e6; opacity: 0.5; stroke: #e6e6e6; stroke-linejoin: miter"/>
   </g>
  </g>
  <g id="pane3d_3">
   <g id="patch_5">
    <path d="M 367.216604 248.257328 
L 164.059151 245.808331 
L 91.678978 255.075766 
L 317.368804 258.15556 
" style="fill: #ececec; opacity: 0.5; stroke: #ececec; stroke-linejoin: miter"/>
   </g>
  </g>
  <g id="axis3d_1">
   <g id="line2d_1">
    <path d="M 91.678978 255.075766 
L 317.368804 258.15556 
" style="fill: none; stroke: #000000; stroke-width: 0.8; stroke-linecap: square"/>
   </g>
   <g id="text_1">
    <!-- x -->
    <g transform="translate(189.247246 287.084111)scale(0.16 -0.16)">
     <defs>
      <path id="CMSS17-78" d="M 1587 1414 
L 2656 2739 
L 2099 2739 
L 1363 1777 
L 602 2739 
L 32 2739 
L 1139 1414 
L 0 0 
L 563 0 
L 1363 1121 
L 2195 0 
L 2758 0 
L 1587 1414 
z
" transform="scale(0.015625)"/>
     </defs>
     <use xlink:href="#CMSS17-78" transform="scale(0.996264)"/>
    </g>
   </g>
   <g id="Line3DCollection_1">
    <path d="M 312.698429 258.091827 
L 363.027996 248.206836 
L 363.027996 88.052624 
" style="fill: none; stroke: #b0b0b0; stroke-width: 0.8"/>
    <path d="M 268.197009 257.484555 
L 323.084333 247.725328 
L 323.084333 88.534132 
" style="fill: none; stroke: #b0b0b0; stroke-width: 0.8"/>
    <path d="M 224.292357 256.885426 
L 283.618166 247.249576 
L 283.618166 89.009884 
" style="fill: none; stroke: #b0b0b0; stroke-width: 0.8"/>
    <path d="M 180.97255 256.294278 
L 244.620983 246.779478 
L 244.620983 89.479982 
" style="fill: none; stroke: #b0b0b0; stroke-width: 0.8"/>
    <path d="M 138.22598 255.710952 
L 206.084474 246.314932 
L 206.084474 89.944527 
" style="fill: none; stroke: #b0b0b0; stroke-width: 0.8"/>
    <path d="M 96.041342 255.135295 
L 168.000524 245.855843 
L 168.000524 90.403617 
" style="fill: none; stroke: #b0b0b0; stroke-width: 0.8"/>
   </g>
   <g id="xtick_1">
    <g id="line2d_2">
     <path d="M 313.150322 258.003073 
L 311.79196 258.269863 
" style="fill: none; stroke: #000000; stroke-width: 0.8; stroke-linecap: square"/>
    </g>
    <g id="text_2">
     <!-- $\mathdefault{0}$ -->
     <g transform="translate(306.566613 277.312003)scale(0.1 -0.1)">
      <defs>
       <path id="CMR17-30" d="M 2688 2025 
C 2688 2416 2682 3080 2413 3591 
C 2176 4039 1798 4198 1466 4198 
C 1158 4198 768 4058 525 3597 
C 269 3118 243 2524 243 2025 
C 243 1661 250 1106 448 619 
C 723 -39 1216 -128 1466 -128 
C 1760 -128 2208 -7 2470 600 
C 2662 1042 2688 1559 2688 2025 
z
M 1466 -26 
C 1056 -26 813 325 723 812 
C 653 1188 653 1738 653 2096 
C 653 2588 653 2997 736 3387 
C 858 3929 1216 4096 1466 4096 
C 1728 4096 2067 3923 2189 3400 
C 2272 3036 2278 2607 2278 2096 
C 2278 1680 2278 1169 2202 792 
C 2067 95 1690 -26 1466 -26 
z
" transform="scale(0.015625)"/>
      </defs>
      <use xlink:href="#CMR17-30" transform="scale(0.996264)"/>
     </g>
    </g>
   </g>
   <g id="xtick_2">
    <g id="line2d_3">
     <path d="M 268.689462 257.396994 
L 267.209198 257.660192 
" style="fill: none; stroke: #000000; stroke-width: 0.8; stroke-linecap: square"/>
    </g>
    <g id="text_3">
     <!-- $\mathdefault{1}$ -->
     <g transform="translate(261.738614 276.61624)scale(0.1 -0.1)">
      <defs>
       <path id="CMR17-31" d="M 1702 4058 
C 1702 4192 1696 4192 1606 4192 
C 1357 3916 979 3827 621 3827 
C 602 3827 570 3827 563 3808 
C 557 3795 557 3782 557 3648 
C 755 3648 1088 3686 1344 3839 
L 1344 461 
C 1344 236 1331 160 781 160 
L 589 160 
L 589 0 
C 896 0 1216 0 1523 0 
C 1830 0 2150 0 2458 0 
L 2458 160 
L 2266 160 
C 1715 160 1702 230 1702 458 
L 1702 4058 
z
" transform="scale(0.015625)"/>
      </defs>
      <use xlink:href="#CMR17-31" transform="scale(0.996264)"/>
     </g>
    </g>
   </g>
   <g id="xtick_3">
    <g id="line2d_4">
     <path d="M 224.824247 256.799035 
L 223.225463 257.058714 
" style="fill: none; stroke: #000000; stroke-width: 0.8; stroke-linecap: square"/>
    </g>
    <g id="text_4">
     <!-- $\mathdefault{2}$ -->
     <g transform="translate(217.516478 275.92988)scale(0.1 -0.1)">
      <defs>
       <path id="CMR17-32" d="M 2669 989 
L 2554 989 
C 2490 536 2438 459 2413 420 
C 2381 369 1920 369 1830 369 
L 602 369 
C 832 619 1280 1072 1824 1597 
C 2214 1967 2669 2402 2669 3035 
C 2669 3790 2067 4224 1395 4224 
C 691 4224 262 3604 262 3030 
C 262 2780 448 2748 525 2748 
C 589 2748 781 2787 781 3010 
C 781 3207 614 3264 525 3264 
C 486 3264 448 3258 422 3245 
C 544 3790 915 4058 1306 4058 
C 1862 4058 2227 3617 2227 3035 
C 2227 2479 1901 2000 1536 1584 
L 262 146 
L 262 0 
L 2515 0 
L 2669 989 
z
" transform="scale(0.015625)"/>
      </defs>
      <use xlink:href="#CMR17-32" transform="scale(0.996264)"/>
     </g>
    </g>
   </g>
   <g id="xtick_4">
    <g id="line2d_5">
     <path d="M 181.542786 256.209034 
L 179.828762 256.465263 
" style="fill: none; stroke: #000000; stroke-width: 0.8; stroke-linecap: square"/>
    </g>
    <g id="text_5">
     <!-- $\mathdefault{3}$ -->
     <g transform="translate(173.888005 275.252735)scale(0.1 -0.1)">
      <defs>
       <path id="CMR17-33" d="M 1414 2157 
C 1984 2157 2234 1662 2234 1090 
C 2234 320 1824 25 1453 25 
C 1114 25 563 194 390 693 
C 422 680 454 680 486 680 
C 640 680 755 782 755 948 
C 755 1133 614 1216 486 1216 
C 378 1216 211 1165 211 926 
C 211 335 787 -128 1466 -128 
C 2176 -128 2720 430 2720 1085 
C 2720 1707 2208 2157 1600 2227 
C 2086 2328 2554 2756 2554 3329 
C 2554 3820 2048 4179 1472 4179 
C 890 4179 378 3829 378 3329 
C 378 3110 544 3072 627 3072 
C 762 3072 877 3155 877 3321 
C 877 3486 762 3569 627 3569 
C 602 3569 570 3569 544 3557 
C 730 3959 1235 4032 1459 4032 
C 1683 4032 2106 3925 2106 3320 
C 2106 3143 2080 2828 1862 2550 
C 1670 2304 1453 2304 1242 2284 
C 1210 2284 1062 2269 1037 2269 
C 992 2263 966 2257 966 2208 
C 966 2163 973 2157 1101 2157 
L 1414 2157 
z
" transform="scale(0.015625)"/>
      </defs>
      <use xlink:href="#CMR17-33" transform="scale(0.996264)"/>
     </g>
    </g>
   </g>
   <g id="xtick_5">
    <g id="line2d_6">
     <path d="M 138.833503 255.626832 
L 137.007421 255.87968 
" style="fill: none; stroke: #000000; stroke-width: 0.8; stroke-linecap: square"/>
    </g>
    <g id="text_6">
     <!-- $\mathdefault{4}$ -->
     <g transform="translate(130.841319 274.584619)scale(0.1 -0.1)">
      <defs>
       <path id="CMR17-34" d="M 2150 4122 
C 2150 4256 2144 4256 2029 4256 
L 128 1254 
L 128 1088 
L 1779 1088 
L 1779 457 
C 1779 224 1766 160 1318 160 
L 1197 160 
L 1197 0 
C 1402 0 1747 0 1965 0 
C 2182 0 2528 0 2733 0 
L 2733 160 
L 2611 160 
C 2163 160 2150 224 2150 457 
L 2150 1088 
L 2803 1088 
L 2803 1254 
L 2150 1254 
L 2150 4122 
z
M 1798 3703 
L 1798 1254 
L 256 1254 
L 1798 3703 
z
" transform="scale(0.015625)"/>
      </defs>
      <use xlink:href="#CMR17-34" transform="scale(0.996264)"/>
     </g>
    </g>
   </g>
   <g id="xtick_6">
    <g id="line2d_7">
     <path d="M 96.685128 255.052276 
L 94.750073 255.30181 
" style="fill: none; stroke: #000000; stroke-width: 0.8; stroke-linecap: square"/>
    </g>
    <g id="text_7">
     <!-- $\mathdefault{5}$ -->
     <g transform="translate(88.36486 273.925354)scale(0.1 -0.1)">
      <defs>
       <path id="CMR17-35" d="M 730 3692 
C 794 3666 1056 3584 1325 3584 
C 1920 3584 2246 3911 2432 4100 
C 2432 4157 2432 4192 2394 4192 
C 2387 4192 2374 4192 2323 4163 
C 2099 4058 1837 3973 1517 3973 
C 1325 3973 1037 3999 723 4139 
C 653 4171 640 4171 634 4171 
C 602 4171 595 4164 595 4037 
L 595 2203 
C 595 2089 595 2057 659 2057 
C 691 2057 704 2070 736 2114 
C 941 2401 1222 2522 1542 2522 
C 1766 2522 2246 2382 2246 1289 
C 2246 1085 2246 715 2054 421 
C 1894 159 1645 25 1370 25 
C 947 25 518 320 403 814 
C 429 807 480 795 506 795 
C 589 795 749 840 749 1038 
C 749 1210 627 1280 506 1280 
C 358 1280 262 1190 262 1011 
C 262 454 704 -128 1382 -128 
C 2042 -128 2669 440 2669 1264 
C 2669 2030 2170 2624 1549 2624 
C 1222 2624 947 2503 730 2274 
L 730 3692 
z
" transform="scale(0.015625)"/>
      </defs>
      <use xlink:href="#CMR17-35" transform="scale(0.996264)"/>
     </g>
    </g>
   </g>
  </g>
  <g id="axis3d_2">
   <g id="line2d_8">
    <path d="M 367.216604 248.257328 
L 317.368804 258.15556 
" style="fill: none; stroke: #000000; stroke-width: 0.8; stroke-linecap: square"/>
   </g>
   <g id="text_8">
    <!-- y -->
    <g transform="translate(371.00584 280.960384)scale(0.16 -0.16)">
     <defs>
      <path id="CMSS17-79" d="M 2675 2752 
L 2176 2752 
C 1632 1294 1446 702 1434 383 
L 1427 383 
C 1408 696 1126 1460 902 2007 
L 602 2752 
L 83 2752 
L 1216 13 
C 1146 -178 1043 -465 1011 -529 
C 870 -885 774 -885 672 -885 
C 646 -885 442 -885 211 -809 
L 250 -1229 
C 410 -1261 570 -1280 685 -1280 
C 845 -1280 1165 -1280 1459 -497 
L 2675 2752 
z
" transform="scale(0.015625)"/>
     </defs>
     <use xlink:href="#CMSS17-79" transform="scale(0.996264)"/>
    </g>
   </g>
   <g id="Line3DCollection_2">
    <path d="M 156.46407 89.478667 
L 156.46407 246.780792 
L 362.003533 249.292483 
" style="fill: none; stroke: #b0b0b0; stroke-width: 0.8"/>
    <path d="M 143.466191 87.814441 
L 143.466191 248.445018 
L 353.072562 251.065898 
" style="fill: none; stroke: #b0b0b0; stroke-width: 0.8"/>
    <path d="M 129.906361 86.078263 
L 129.906361 250.181196 
L 343.742587 252.918542 
" style="fill: none; stroke: #b0b0b0; stroke-width: 0.8"/>
    <path d="M 115.747332 84.265365 
L 115.747332 251.994094 
L 333.986258 254.855847 
" style="fill: none; stroke: #b0b0b0; stroke-width: 0.8"/>
    <path d="M 100.948489 82.370546 
L 100.948489 253.888913 
L 323.773668 256.883752 
" style="fill: none; stroke: #b0b0b0; stroke-width: 0.8"/>
   </g>
   <g id="xtick_7">
    <g id="line2d_9">
     <path d="M 360.307141 249.271753 
L 365.398921 249.333974 
" style="fill: none; stroke: #000000; stroke-width: 0.8; stroke-linecap: square"/>
    </g>
    <g id="text_9">
     <!-- $\mathdefault{−4}$ -->
     <g transform="translate(369.217241 266.768912)scale(0.1 -0.1)">
      <defs>
       <path id="CMSY10-0" d="M 4218 1472 
C 4326 1472 4442 1472 4442 1600 
C 4442 1728 4326 1728 4218 1728 
L 755 1728 
C 646 1728 531 1728 531 1600 
C 531 1472 646 1472 755 1472 
L 4218 1472 
z
" transform="scale(0.015625)"/>
      </defs>
      <use xlink:href="#CMSY10-0" transform="scale(0.996264)"/>
      <use xlink:href="#CMR17-34" transform="translate(77.487468 0)scale(0.996264)"/>
     </g>
    </g>
   </g>
   <g id="xtick_8">
    <g id="line2d_10">
     <path d="M 351.341443 251.044252 
L 356.537512 251.109223 
" style="fill: none; stroke: #000000; stroke-width: 0.8; stroke-linecap: square"/>
    </g>
    <g id="text_10">
     <!-- $\mathdefault{−2}$ -->
     <g transform="translate(360.564928 268.777206)scale(0.1 -0.1)">
      <use xlink:href="#CMSY10-0" transform="scale(0.996264)"/>
      <use xlink:href="#CMR17-32" transform="translate(77.487468 0)scale(0.996264)"/>
     </g>
    </g>
   </g>
   <g id="xtick_9">
    <g id="line2d_11">
     <path d="M 341.975298 252.895919 
L 347.279997 252.963825 
" style="fill: none; stroke: #000000; stroke-width: 0.8; stroke-linecap: square"/>
    </g>
    <g id="text_11">
     <!-- $\mathdefault{0}$ -->
     <g transform="translate(355.399607 270.875414)scale(0.1 -0.1)">
      <use xlink:href="#CMR17-30" transform="scale(0.996264)"/>
     </g>
    </g>
   </g>
   <g id="xtick_10">
    <g id="line2d_12">
     <path d="M 332.181263 254.832179 
L 337.599207 254.903224 
" style="fill: none; stroke: #000000; stroke-width: 0.8; stroke-linecap: square"/>
    </g>
    <g id="text_12">
     <!-- $\mathdefault{2}$ -->
     <g transform="translate(345.945923 273.069715)scale(0.1 -0.1)">
      <use xlink:href="#CMR17-32" transform="scale(0.996264)"/>
     </g>
    </g>
   </g>
   <g id="xtick_11">
    <g id="line2d_13">
     <path d="M 321.929331 256.858964 
L 327.465436 256.933371 
" style="fill: none; stroke: #000000; stroke-width: 0.8; stroke-linecap: square"/>
    </g>
    <g id="text_13">
     <!-- $\mathdefault{4}$ -->
     <g transform="translate(336.049143 275.366863)scale(0.1 -0.1)">
      <use xlink:href="#CMR17-34" transform="scale(0.996264)"/>
     </g>
    </g>
   </g>
  </g>
  <g id="axis3d_3">
   <g id="line2d_14">
    <path d="M 367.216604 248.257328 
L 367.216604 88.002131 
" style="fill: none; stroke: #000000; stroke-width: 0.8; stroke-linecap: square"/>
   </g>
   <g id="text_14">
    <!-- z -->
    <g transform="translate(398.719188 172.114786)scale(0.16 -0.16)">
     <defs>
      <path id="CMSS17-7a" d="M 2400 2502 
L 2400 2750 
L 250 2750 
L 250 2368 
L 1069 2368 
C 1146 2368 1222 2368 1299 2368 
L 1747 2368 
L 166 261 
L 166 0 
L 2419 0 
L 2419 395 
L 1549 395 
C 1472 395 1395 395 1318 395 
L 826 395 
L 2400 2502 
z
" transform="scale(0.015625)"/>
     </defs>
     <use xlink:href="#CMSS17-7a" transform="scale(0.996264)"/>
    </g>
   </g>
   <g id="Line3DCollection_3">
    <path d="M 367.216604 245.052224 
L 164.059151 242.701187 
L 91.678978 251.597924 
" style="fill: none; stroke: #b0b0b0; stroke-width: 0.8"/>
    <path d="M 367.216604 214.283226 
L 164.059151 212.872604 
L 91.678978 218.210646 
" style="fill: none; stroke: #b0b0b0; stroke-width: 0.8"/>
    <path d="M 367.216604 183.514229 
L 164.059151 183.044021 
L 91.678978 184.823369 
" style="fill: none; stroke: #b0b0b0; stroke-width: 0.8"/>
    <path d="M 367.216604 152.745231 
L 164.059151 153.215438 
L 91.678978 151.436091 
" style="fill: none; stroke: #b0b0b0; stroke-width: 0.8"/>
    <path d="M 367.216604 121.976233 
L 164.059151 123.386856 
L 91.678978 118.048813 
" style="fill: none; stroke: #b0b0b0; stroke-width: 0.8"/>
    <path d="M 367.216604 91.207235 
L 164.059151 93.558273 
L 91.678978 84.661535 
" style="fill: none; stroke: #b0b0b0; stroke-width: 0.8"/>
   </g>
   <g id="xtick_12">
    <g id="line2d_15">
     <path d="M 365.540527 245.032828 
L 370.571296 245.091046 
" style="fill: none; stroke: #000000; stroke-width: 0.8; stroke-linecap: square"/>
    </g>
    <g id="text_15">
     <!-- $\mathdefault{0}$ -->
     <g transform="translate(380.868336 251.587242)scale(0.1 -0.1)">
      <use xlink:href="#CMR17-30" transform="scale(0.996264)"/>
     </g>
    </g>
   </g>
   <g id="xtick_13">
    <g id="line2d_16">
     <path d="M 365.540527 214.271589 
L 370.571296 214.30652 
" style="fill: none; stroke: #000000; stroke-width: 0.8; stroke-linecap: square"/>
    </g>
    <g id="text_16">
     <!-- $\mathdefault{1}$ -->
     <g transform="translate(380.868336 220.971636)scale(0.1 -0.1)">
      <use xlink:href="#CMR17-31" transform="scale(0.996264)"/>
     </g>
    </g>
   </g>
   <g id="xtick_14">
    <g id="line2d_17">
     <path d="M 365.540527 183.510349 
L 370.571296 183.521993 
" style="fill: none; stroke: #000000; stroke-width: 0.8; stroke-linecap: square"/>
    </g>
    <g id="text_17">
     <!-- $\mathdefault{2}$ -->
     <g transform="translate(380.868336 190.356031)scale(0.1 -0.1)">
      <use xlink:href="#CMR17-32" transform="scale(0.996264)"/>
     </g>
    </g>
   </g>
   <g id="xtick_15">
    <g id="line2d_18">
     <path d="M 365.540527 152.74911 
L 370.571296 152.737466 
" style="fill: none; stroke: #000000; stroke-width: 0.8; stroke-linecap: square"/>
    </g>
    <g id="text_18">
     <!-- $\mathdefault{3}$ -->
     <g transform="translate(380.868336 159.740425)scale(0.1 -0.1)">
      <use xlink:href="#CMR17-33" transform="scale(0.996264)"/>
     </g>
    </g>
   </g>
   <g id="xtick_16">
    <g id="line2d_19">
     <path d="M 365.540527 121.987871 
L 370.571296 121.95294 
" style="fill: none; stroke: #000000; stroke-width: 0.8; stroke-linecap: square"/>
    </g>
    <g id="text_19">
     <!-- $\mathdefault{4}$ -->
     <g transform="translate(380.868336 129.12482)scale(0.1 -0.1)">
      <use xlink:href="#CMR17-34" transform="scale(0.996264)"/>
     </g>
    </g>
   </g>
   <g id="xtick_17">
    <g id="line2d_20">
     <path d="M 365.540527 91.226632 
L 370.571296 91.168413 
" style="fill: none; stroke: #000000; stroke-width: 0.8; stroke-linecap: square"/>
    </g>
    <g id="text_20">
     <!-- $\mathdefault{5}$ -->
     <g transform="translate(380.868336 98.509214)scale(0.1 -0.1)">
      <use xlink:href="#CMR17-35" transform="scale(0.996264)"/>
     </g>
    </g>
   </g>
  </g>
  <g id="axes_1">
   <g id="line2d_21">
    <path d="M 339.326132 249.472715 
L 280.928883 84.522334 
" clip-path="url(#pfd14123a03)" style="fill: none; stroke: #ff0000; stroke-width: 1.5; stroke-linecap: square"/>
   </g>
   <g id="line2d_22">
    <path d="M 339.326132 249.472715 
L 266.766066 120.980093 
" clip-path="url(#pfd14123a03)" style="fill: none; stroke: #00ff00; stroke-width: 1.5; stroke-linecap: square"/>
   </g>
   <g id="line2d_23">
    <path d="M 339.326132 249.472715 
L 226.737665 -1 
" clip-path="url(#pfd14123a03)" style="fill: none; stroke: #0016ff; stroke-width: 1.5; stroke-linecap: square"/>
   </g>
   <g id="line2d_24">
    <path d="M 339.326132 249.472715 
L 154.056942 152.861084 
" clip-path="url(#pfd14123a03)" style="fill: none; stroke: #f400ff; stroke-width: 1.5; stroke-linecap: square"/>
   </g>
   <g id="Poly3DCollection_1">
    <path d="M 204.870301 25.213269 
L 185.734894 -15.613479 
L 182.709201 -27.871579 
L 201.93487 13.130488 
z
" clip-path="url(#pfd14123a03)" style="fill: #0000f5; fill-opacity: 0.1"/>
    <path d="M 224.119311 66.282395 
L 204.870301 25.213269 
L 201.93487 13.130488 
L 221.275273 54.377242 
z
" clip-path="url(#pfd14123a03)" style="fill: #0000f5; fill-opacity: 0.1"/>
    <path d="M 201.93487 13.130488 
L 182.709201 -27.871579 
L 179.652047 -40.257137 
L 198.968826 0.921697 
z
" clip-path="url(#pfd14123a03)" style="fill: #0000f5; fill-opacity: 0.1"/>
    <path d="M 243.482938 107.596066 
L 224.119311 66.282395 
L 221.275273 54.377242 
L 240.731437 95.870879 
z
" clip-path="url(#pfd14123a03)" style="fill: #0000f5; fill-opacity: 0.1"/>
    <path d="M 221.275273 54.377242 
L 201.93487 13.130488 
L 198.968826 0.921697 
L 218.401485 42.347557 
z
" clip-path="url(#pfd14123a03)" style="fill: #0000f5; fill-opacity: 0.1"/>
    <path d="M 262.962209 149.156472 
L 243.482938 107.596066 
L 240.731437 95.870879 
L 260.304407 137.613623 
z
" clip-path="url(#pfd14123a03)" style="fill: #0000f5; fill-opacity: 0.1"/>
    <path d="M 198.968826 0.921697 
L 179.652047 -40.257137 
L 176.562938 -52.772152 
L 195.971687 -11.415088 
z
" clip-path="url(#pfd14123a03)" style="fill: #0000f5; fill-opacity: 0.1"/>
    <path d="M 240.731437 95.870879 
L 221.275273 54.377242 
L 218.401485 42.347557 
L 237.951069 84.022674 
z
" clip-path="url(#pfd14123a03)" style="fill: #0000f5; fill-opacity: 0.1"/>
    <path d="M 282.558163 190.96583 
L 262.962209 149.156472 
L 260.304407 137.613623 
L 279.995237 179.607724 
z
" clip-path="url(#pfd14123a03)" style="fill: #0000f5; fill-opacity: 0.1"/>
    <path d="M 218.401485 42.347557 
L 198.968826 0.921697 
L 195.971687 -11.415088 
L 215.497479 30.191377 
z
" clip-path="url(#pfd14123a03)" style="fill: #0000f5; fill-opacity: 0.1"/>
    <path d="M 260.304407 137.613623 
L 240.731437 95.870879 
L 237.951069 84.022674 
L 257.618636 125.949304 
z
" clip-path="url(#pfd14123a03)" style="fill: #0000f5; fill-opacity: 0.1"/>
    <path d="M 302.271853 233.026383 
L 282.558163 190.96583 
L 279.995237 179.607724 
L 299.804994 221.855458 
z
" clip-path="url(#pfd14123a03)" style="fill: #0000f5; fill-opacity: 0.1"/>
    <path d="M 195.971687 -11.415088 
L 176.562938 -52.772152 
L 173.441373 -65.418665 
L 192.942962 -23.881888 
z
" clip-path="url(#pfd14123a03)" style="fill: #0000f5; fill-opacity: 0.1"/>
    <path d="M 237.951069 84.022674 
L 218.401485 42.347557 
L 215.497479 30.191377 
L 235.141376 72.049505 
z
" clip-path="url(#pfd14123a03)" style="fill: #0000f5; fill-opacity: 0.1"/>
    <path d="M 279.995237 179.607724 
L 260.304407 137.613623 
L 257.618636 125.949304 
L 277.405258 168.12973 
z
" clip-path="url(#pfd14123a03)" style="fill: #0000f5; fill-opacity: 0.1"/>
    <path d="M 322.104341 275.340402 
L 302.271853 233.026383 
L 299.804994 221.855458 
L 319.73476 264.359132 
z
" clip-path="url(#pfd14123a03)" style="fill: #0000f5; fill-opacity: 0.1"/>
    <path d="M 215.497479 30.191377 
L 195.971687 -11.415088 
L 192.942962 -23.881888 
L 212.562775 17.906696 
z
" clip-path="url(#pfd14123a03)" style="fill: #0000f5; fill-opacity: 0.1"/>
    <path d="M 257.618636 125.949304 
L 237.951069 84.022674 
L 235.141376 72.049505 
L 254.904452 114.161587 
z
" clip-path="url(#pfd14123a03)" style="fill: #0000f5; fill-opacity: 0.1"/>
    <path d="M 299.804994 221.855458 
L 279.995237 179.607724 
L 277.405258 168.12973 
L 297.312018 210.566264 
z
" clip-path="url(#pfd14123a03)" style="fill: #0000f5; fill-opacity: 0.1"/>
    <path d="M 192.942962 -23.881888 
L 173.441373 -65.418665 
L 170.286835 -78.198758 
L 189.882148 -36.480772 
z
" clip-path="url(#pfd14123a03)" style="fill: #0000f5; fill-opacity: 0.1"/>
    <path d="M 342.056705 317.910185 
L 322.104341 275.340402 
L 319.73476 264.359132 
L 339.785628 307.121076 
z
" clip-path="url(#pfd14123a03)" style="fill: #0000f5; fill-opacity: 0.1"/>
    <path d="M 235.141376 72.049505 
L 215.497479 30.191377 
L 212.562775 17.906696 
L 232.301891 59.949385 
z
" clip-path="url(#pfd14123a03)" style="fill: #0000f5; fill-opacity: 0.1"/>
    <path d="M 277.405258 168.12973 
L 257.618636 125.949304 
L 254.904452 114.161587 
L 274.787796 156.52994 
z
" clip-path="url(#pfd14123a03)" style="fill: #0000f5; fill-opacity: 0.1"/>
    <path d="M 319.73476 264.359132 
L 299.804994 221.855458 
L 297.312018 210.566264 
L 317.340015 253.261245 
z
" clip-path="url(#pfd14123a03)" style="fill: #0000f5; fill-opacity: 0.1"/>
    <path d="M 212.562775 17.906696 
L 192.942962 -23.881888 
L 189.882148 -36.480772 
L 209.596884 5.491465 
z
" clip-path="url(#pfd14123a03)" style="fill: #0000f5; fill-opacity: 0.1"/>
    <path d="M 362.130035 360.738058 
L 342.056705 317.910185 
L 339.785628 307.121076 
L 359.958705 350.143654 
z
" clip-path="url(#pfd14123a03)" style="fill: #0000f5; fill-opacity: 0.1"/>
    <path d="M 254.904452 114.161587 
L 235.141376 72.049505 
L 232.301891 59.949385 
L 252.161402 102.248503 
z
" clip-path="url(#pfd14123a03)" style="fill: #0000f5; fill-opacity: 0.1"/>
    <path d="M 297.312018 210.566264 
L 277.405258 168.12973 
L 274.787796 156.52994 
L 294.792508 199.156911 
z
" clip-path="url(#pfd14123a03)" style="fill: #0000f5; fill-opacity: 0.1"/>
    <path d="M 189.882148 -36.480772 
L 170.286835 -78.198758 
L 167.0988 -91.11456 
L 186.788732 -49.213848 
z
" clip-path="url(#pfd14123a03)" style="fill: #0000f5; fill-opacity: 0.1"/>
    <path d="M 339.785628 307.121076 
L 319.73476 264.359132 
L 317.340015 253.261245 
L 337.490359 296.217042 
z
" clip-path="url(#pfd14123a03)" style="fill: #0000f5; fill-opacity: 0.1"/>
    <path d="M 232.301891 59.949385 
L 212.562775 17.906696 
L 209.596884 5.491465 
L 229.432139 47.720283 
z
" clip-path="url(#pfd14123a03)" style="fill: #0000f5; fill-opacity: 0.1"/>
    <path d="M 274.787796 156.52994 
L 254.904452 114.161587 
L 252.161402 102.248503 
L 272.142411 144.806405 
z
" clip-path="url(#pfd14123a03)" style="fill: #0000f5; fill-opacity: 0.1"/>
    <path d="M 317.340015 253.261245 
L 297.312018 210.566264 
L 294.792508 199.156911 
L 314.919703 242.044875 
z
" clip-path="url(#pfd14123a03)" style="fill: #0000f5; fill-opacity: 0.1"/>
    <path d="M 209.596884 5.491465 
L 189.882148 -36.480772 
L 186.788732 -49.213848 
L 206.599306 -7.056408 
z
" clip-path="url(#pfd14123a03)" style="fill: #0000f5; fill-opacity: 0.1"/>
    <path d="M 359.958705 350.143654 
L 339.785628 307.121076 
L 337.490359 296.217042 
L 357.764175 339.436052 
z
" clip-path="url(#pfd14123a03)" style="fill: #0000f5; fill-opacity: 0.1"/>
    <path d="M 252.161402 102.248503 
L 232.301891 59.949385 
L 229.432139 47.720283 
L 249.389022 90.208043 
z
" clip-path="url(#pfd14123a03)" style="fill: #0000f5; fill-opacity: 0.1"/>
    <path d="M 294.792508 199.156911 
L 274.787796 156.52994 
L 272.142411 144.806405 
L 292.246037 187.625471 
z
" clip-path="url(#pfd14123a03)" style="fill: #0000f5; fill-opacity: 0.1"/>
    <path d="M 186.788732 -49.213848 
L 167.0988 -91.11456 
L 163.876731 -104.168243 
L 183.662192 -62.083272 
z
" clip-path="url(#pfd14123a03)" style="fill: #0000f5; fill-opacity: 0.1"/>
    <path d="M 337.490359 296.217042 
L 317.340015 253.261245 
L 314.919703 242.044875 
L 335.170511 285.196236 
z
" clip-path="url(#pfd14123a03)" style="fill: #0000f5; fill-opacity: 0.1"/>
    <path d="M 229.432139 47.720283 
L 209.596884 5.491465 
L 206.599306 -7.056408 
L 226.531634 35.360126 
z
" clip-path="url(#pfd14123a03)" style="fill: #0000f5; fill-opacity: 0.1"/>
    <path d="M 272.142411 144.806405 
L 252.161402 102.248503 
L 249.389022 90.208043 
L 269.468654 132.957134 
z
" clip-path="url(#pfd14123a03)" style="fill: #0000f5; fill-opacity: 0.1"/>
    <path d="M 314.919703 242.044875 
L 294.792508 199.156911 
L 292.246037 187.625471 
L 312.473413 230.708113 
z
" clip-path="url(#pfd14123a03)" style="fill: #0000f5; fill-opacity: 0.1"/>
    <path d="M 206.599306 -7.056408 
L 186.788732 -49.213848 
L 183.662192 -62.083272 
L 203.56953 -19.73906 
z
" clip-path="url(#pfd14123a03)" style="fill: #0000f5; fill-opacity: 0.1"/>
    <path d="M 357.764175 339.436052 
L 337.490359 296.217042 
L 335.170511 285.196236 
L 355.546072 328.613429 
z
" clip-path="url(#pfd14123a03)" style="fill: #0000f5; fill-opacity: 0.1"/>
    <path d="M 249.389022 90.208043 
L 229.432139 47.720283 
L 226.531634 35.360126 
L 246.58684 78.038152 
z
" clip-path="url(#pfd14123a03)" style="fill: #0000f5; fill-opacity: 0.1"/>
    <path d="M 292.246037 187.625471 
L 272.142411 144.806405 
L 269.468654 132.957134 
L 289.672171 175.969974 
z
" clip-path="url(#pfd14123a03)" style="fill: #0000f5; fill-opacity: 0.1"/>
    <path d="M 183.662192 -62.083272 
L 163.876731 -104.168243 
L 160.620081 -117.362027 
L 180.501992 -75.091247 
z
" clip-path="url(#pfd14123a03)" style="fill: #0000f5; fill-opacity: 0.1"/>
    <path d="M 335.170511 285.196236 
L 314.919703 242.044875 
L 312.473413 230.708113 
L 332.825685 274.056773 
z
" clip-path="url(#pfd14123a03)" style="fill: #0000f5; fill-opacity: 0.1"/>
    <path d="M 226.531634 35.360126 
L 206.599306 -7.056408 
L 203.56953 -19.73906 
L 223.599876 22.866797 
z
" clip-path="url(#pfd14123a03)" style="fill: #0000f5; fill-opacity: 0.1"/>
    <path d="M 269.468654 132.957134 
L 249.389022 90.208043 
L 246.58684 78.038152 
L 266.766066 120.980093 
z
" clip-path="url(#pfd14123a03)" style="fill: #0000f5; fill-opacity: 0.1"/>
    <path d="M 312.473413 230.708113 
L 292.246037 187.625471 
L 289.672171 175.969974 
L 310.000724 219.249012 
z
" clip-path="url(#pfd14123a03)" style="fill: #0000f5; fill-opacity: 0.1"/>
    <path d="M 203.56953 -19.73906 
L 183.662192 -62.083272 
L 180.501992 -75.091247 
L 200.507036 -32.558674 
z
" clip-path="url(#pfd14123a03)" style="fill: #0000f5; fill-opacity: 0.1"/>
    <path d="M 355.546072 328.613429 
L 335.170511 285.196236 
L 332.825685 274.056773 
L 353.304013 317.673922 
z
" clip-path="url(#pfd14123a03)" style="fill: #0000f5; fill-opacity: 0.1"/>
    <path d="M 246.58684 78.038152 
L 226.531634 35.360126 
L 223.599876 22.866797 
L 243.754373 65.736731 
z
" clip-path="url(#pfd14123a03)" style="fill: #0000f5; fill-opacity: 0.1"/>
    <path d="M 289.672171 175.969974 
L 269.468654 132.957134 
L 266.766066 120.980093 
L 287.070466 164.188407 
z
" clip-path="url(#pfd14123a03)" style="fill: #0000f5; fill-opacity: 0.1"/>
    <path d="M 180.501992 -75.091247 
L 160.620081 -117.362027 
L 157.328289 -130.698181 
L 177.307585 -88.240021 
z
" clip-path="url(#pfd14123a03)" style="fill: #0000f5; fill-opacity: 0.1"/>
    <path d="M 332.825685 274.056773 
L 312.473413 230.708113 
L 310.000724 219.249012 
L 330.455477 262.796726 
z
" clip-path="url(#pfd14123a03)" style="fill: #0000f5; fill-opacity: 0.1"/>
    <path d="M 223.599876 22.866797 
L 203.56953 -19.73906 
L 200.507036 -32.558674 
L 220.636361 10.238131 
z
" clip-path="url(#pfd14123a03)" style="fill: #0000f5; fill-opacity: 0.1"/>
    <path d="M 266.766066 120.980093 
L 246.58684 78.038152 
L 243.754373 65.736731 
L 264.034179 108.873206 
z
" clip-path="url(#pfd14123a03)" style="fill: #0000f5; fill-opacity: 0.1"/>
    <path d="M 310.000724 219.249012 
L 289.672171 175.969974 
L 287.070466 164.188407 
L 307.501207 207.665579 
z
" clip-path="url(#pfd14123a03)" style="fill: #0000f5; fill-opacity: 0.1"/>
    <path d="M 200.507036 -32.558674 
L 180.501992 -75.091247 
L 177.307585 -88.240021 
L 197.411289 -45.51748 
z
" clip-path="url(#pfd14123a03)" style="fill: #0000f5; fill-opacity: 0.1"/>
    <path d="M 353.304013 317.673922 
L 332.825685 274.056773 
L 330.455477 262.796726 
L 351.037608 306.615626 
z
" clip-path="url(#pfd14123a03)" style="fill: #0000f5; fill-opacity: 0.1"/>
    <path d="M 243.754373 65.736731 
L 223.599876 22.866797 
L 220.636361 10.238131 
L 240.891128 53.301638 
z
" clip-path="url(#pfd14123a03)" style="fill: #0000f5; fill-opacity: 0.1"/>
    <path d="M 287.070466 164.188407 
L 266.766066 120.980093 
L 264.034179 108.873206 
L 284.440466 152.278714 
z
" clip-path="url(#pfd14123a03)" style="fill: #0000f5; fill-opacity: 0.1"/>
    <path d="M 177.307585 -88.240021 
L 157.328289 -130.698181 
L 154.000785 -144.17902 
L 174.078414 -101.531893 
z
" clip-path="url(#pfd14123a03)" style="fill: #0000f5; fill-opacity: 0.1"/>
    <path d="M 330.455477 262.796726 
L 310.000724 219.249012 
L 307.501207 207.665579 
L 328.059472 251.414126 
z
" clip-path="url(#pfd14123a03)" style="fill: #0000f5; fill-opacity: 0.1"/>
    <path d="M 220.636361 10.238131 
L 200.507036 -32.558674 
L 197.411289 -45.51748 
L 217.640567 -2.528083 
z
" clip-path="url(#pfd14123a03)" style="fill: #0000f5; fill-opacity: 0.1"/>
    <path d="M 264.034179 108.873206 
L 243.754373 65.736731 
L 240.891128 53.301638 
L 261.272513 96.634348 
z
" clip-path="url(#pfd14123a03)" style="fill: #0000f5; fill-opacity: 0.1"/>
    <path d="M 307.501207 207.665579 
L 287.070466 164.188407 
L 284.440466 152.278714 
L 304.974421 195.95578 
z
" clip-path="url(#pfd14123a03)" style="fill: #0000f5; fill-opacity: 0.1"/>
    <path d="M 197.411289 -45.51748 
L 177.307585 -88.240021 
L 174.078414 -101.531893 
L 194.281746 -58.617759 
z
" clip-path="url(#pfd14123a03)" style="fill: #0000f5; fill-opacity: 0.1"/>
    <path d="M 351.037608 306.615626 
L 330.455477 262.796726 
L 328.059472 251.414126 
L 348.746459 295.436597 
z
" clip-path="url(#pfd14123a03)" style="fill: #0000f5; fill-opacity: 0.1"/>
    <path d="M 240.891128 53.301638 
L 220.636361 10.238131 
L 217.640567 -2.528083 
L 237.996598 40.730681 
z
" clip-path="url(#pfd14123a03)" style="fill: #0000f5; fill-opacity: 0.1"/>
    <path d="M 284.440466 152.278714 
L 264.034179 108.873206 
L 261.272513 96.634348 
L 281.781708 140.238793 
z
" clip-path="url(#pfd14123a03)" style="fill: #0000f5; fill-opacity: 0.1"/>
    <path d="M 174.078414 -101.531893 
L 154.000785 -144.17902 
L 150.636983 -157.806912 
L 170.813908 -114.969212 
z
" clip-path="url(#pfd14123a03)" style="fill: #0000f5; fill-opacity: 0.1"/>
    <path d="M 328.059472 251.414126 
L 307.501207 207.665579 
L 304.974421 195.95578 
L 325.637246 239.906961 
z
" clip-path="url(#pfd14123a03)" style="fill: #0000f5; fill-opacity: 0.1"/>
    <path d="M 217.640567 -2.528083 
L 197.411289 -45.51748 
L 194.281746 -58.617759 
L 214.611965 -15.434104 
z
" clip-path="url(#pfd14123a03)" style="fill: #0000f5; fill-opacity: 0.1"/>
    <path d="M 261.272513 96.634348 
L 240.891128 53.301638 
L 237.996598 40.730681 
L 258.480579 84.26135 
z
" clip-path="url(#pfd14123a03)" style="fill: #0000f5; fill-opacity: 0.1"/>
    <path d="M 304.974421 195.95578 
L 284.440466 152.278714 
L 281.781708 140.238793 
L 302.419919 184.117537 
z
" clip-path="url(#pfd14123a03)" style="fill: #0000f5; fill-opacity: 0.1"/>
    <path d="M 194.281746 -58.617759 
L 174.078414 -101.531893 
L 170.813908 -114.969212 
L 191.11785 -71.86184 
z
" clip-path="url(#pfd14123a03)" style="fill: #0000f5; fill-opacity: 0.1"/>
    <path d="M 348.746459 295.436597 
L 328.059472 251.414126 
L 325.637246 239.906961 
L 346.430158 284.134846 
z
" clip-path="url(#pfd14123a03)" style="fill: #0000f5; fill-opacity: 0.1"/>
    <path d="M 237.996598 40.730681 
L 217.640567 -2.528083 
L 214.611965 -15.434104 
L 235.07027 28.021621 
z
" clip-path="url(#pfd14123a03)" style="fill: #0000f5; fill-opacity: 0.1"/>
    <path d="M 281.781708 140.238793 
L 261.272513 96.634348 
L 258.480579 84.26135 
L 279.093719 128.066496 
z
" clip-path="url(#pfd14123a03)" style="fill: #0000f5; fill-opacity: 0.1"/>
    <path d="M 170.813908 -114.969212 
L 150.636983 -157.806912 
L 147.236286 -171.584277 
L 167.513483 -128.554378 
z
" clip-path="url(#pfd14123a03)" style="fill: #0000f5; fill-opacity: 0.1"/>
    <path d="M 325.637246 239.906961 
L 304.974421 195.95578 
L 302.419919 184.117537 
L 323.188367 228.273177 
z
" clip-path="url(#pfd14123a03)" style="fill: #0000f5; fill-opacity: 0.1"/>
    <path d="M 214.611965 -15.434104 
L 194.281746 -58.617759 
L 191.11785 -71.86184 
L 211.550014 -28.482241 
z
" clip-path="url(#pfd14123a03)" style="fill: #0000f5; fill-opacity: 0.1"/>
    <path d="M 258.480579 84.26135 
L 237.996598 40.730681 
L 235.07027 28.021621 
L 255.657876 71.751995 
z
" clip-path="url(#pfd14123a03)" style="fill: #0000f5; fill-opacity: 0.1"/>
    <path d="M 302.419919 184.117537 
L 281.781708 140.238793 
L 279.093719 128.066496 
L 299.837243 172.148724 
z
" clip-path="url(#pfd14123a03)" style="fill: #0000f5; fill-opacity: 0.1"/>
    <path d="M 191.11785 -71.86184 
L 170.813908 -114.969212 
L 167.513483 -128.554378 
L 187.919032 -85.252103 
z
" clip-path="url(#pfd14123a03)" style="fill: #0000f5; fill-opacity: 0.1"/>
    <path d="M 346.430158 284.134846 
L 325.637246 239.906961 
L 323.188367 228.273177 
L 344.088288 272.708341 
z
" clip-path="url(#pfd14123a03)" style="fill: #0000f5; fill-opacity: 0.1"/>
    <path d="M 235.07027 28.021621 
L 214.611965 -15.434104 
L 211.550014 -28.482241 
L 232.111616 15.172171 
z
" clip-path="url(#pfd14123a03)" style="fill: #0000f5; fill-opacity: 0.1"/>
    <path d="M 279.093719 128.066496 
L 258.480579 84.26135 
L 255.657876 71.751995 
L 276.376011 115.759629 
z
" clip-path="url(#pfd14123a03)" style="fill: #0000f5; fill-opacity: 0.1"/>
    <path d="M 167.513483 -128.554378 
L 147.236286 -171.584277 
L 143.798085 -185.513588 
L 164.176543 -142.289846 
z
" clip-path="url(#pfd14123a03)" style="fill: #0000f5; fill-opacity: 0.1"/>
    <path d="M 323.188367 228.273177 
L 302.419919 184.117537 
L 299.837243 172.148724 
L 320.712393 216.51067 
z
" clip-path="url(#pfd14123a03)" style="fill: #0000f5; fill-opacity: 0.1"/>
    <path d="M 211.550014 -28.482241 
L 191.11785 -71.86184 
L 187.919032 -85.252103 
L 208.454158 -41.674856 
z
" clip-path="url(#pfd14123a03)" style="fill: #0000f5; fill-opacity: 0.1"/>
    <path d="M 255.657876 71.751995 
L 235.07027 28.021621 
L 232.111616 15.172171 
L 252.803893 59.104015 
z
" clip-path="url(#pfd14123a03)" style="fill: #0000f5; fill-opacity: 0.1"/>
    <path d="M 299.837243 172.148724 
L 279.093719 128.066496 
L 276.376011 115.759629 
L 297.225923 160.047168 
z
" clip-path="url(#pfd14123a03)" style="fill: #0000f5; fill-opacity: 0.1"/>
    <path d="M 187.919032 -85.252103 
L 167.513483 -128.554378 
L 164.176543 -142.289846 
L 184.684711 -98.790982 
z
" clip-path="url(#pfd14123a03)" style="fill: #0000f5; fill-opacity: 0.1"/>
    <path d="M 344.088288 272.708341 
L 323.188367 228.273177 
L 320.712393 216.51067 
L 341.720425 261.155005 
z
" clip-path="url(#pfd14123a03)" style="fill: #0000f5; fill-opacity: 0.1"/>
    <path d="M 232.111616 15.172171 
L 211.550014 -28.482241 
L 208.454158 -41.674856 
L 229.120098 2.17999 
z
" clip-path="url(#pfd14123a03)" style="fill: #0000f5; fill-opacity: 0.1"/>
    <path d="M 276.376011 115.759629 
L 255.657876 71.751995 
L 252.803893 59.104015 
L 273.628092 103.315946 
z
" clip-path="url(#pfd14123a03)" style="fill: #0000f5; fill-opacity: 0.1"/>
    <path d="M 164.176543 -142.289846 
L 143.798085 -185.513588 
L 140.321754 -199.597371 
L 160.802479 -156.178122 
z
" clip-path="url(#pfd14123a03)" style="fill: #0000f5; fill-opacity: 0.1"/>
    <path d="M 320.712393 216.51067 
L 299.837243 172.148724 
L 297.225923 160.047168 
L 318.20887 204.617293 
z
" clip-path="url(#pfd14123a03)" style="fill: #0000f5; fill-opacity: 0.1"/>
    <path d="M 208.454158 -41.674856 
L 187.919032 -85.252103 
L 184.684711 -98.790982 
L 205.323833 -55.01436 
z
" clip-path="url(#pfd14123a03)" style="fill: #0000f5; fill-opacity: 0.1"/>
    <path d="M 252.803893 59.104015 
L 232.111616 15.172171 
L 229.120098 2.17999 
L 249.918106 46.315095 
z
" clip-path="url(#pfd14123a03)" style="fill: #0000f5; fill-opacity: 0.1"/>
    <path d="M 297.225923 160.047168 
L 276.376011 115.759629 
L 273.628092 103.315946 
L 294.58548 147.810651 
z
" clip-path="url(#pfd14123a03)" style="fill: #0000f5; fill-opacity: 0.1"/>
    <path d="M 184.684711 -98.790982 
L 164.176543 -142.289846 
L 160.802479 -156.178122 
L 181.414293 -112.480965 
z
" clip-path="url(#pfd14123a03)" style="fill: #0000f5; fill-opacity: 0.1"/>
    <path d="M 341.720425 261.155005 
L 320.712393 216.51067 
L 318.20887 204.617293 
L 339.326132 249.472715 
z
" clip-path="url(#pfd14123a03)" style="fill: #0000f5; fill-opacity: 0.1"/>
    <path d="M 229.120098 2.17999 
L 208.454158 -41.674856 
L 205.323833 -55.01436 
L 226.095165 -10.957313 
z
" clip-path="url(#pfd14123a03)" style="fill: #0000f5; fill-opacity: 0.1"/>
    <path d="M 273.628092 103.315946 
L 252.803893 59.104015 
L 249.918106 46.315095 
L 270.849453 90.733155 
z
" clip-path="url(#pfd14123a03)" style="fill: #0000f5; fill-opacity: 0.1"/>
    <path d="M 160.802479 -156.178122 
L 140.321754 -199.597371 
L 136.806657 -213.838211 
L 157.390669 -170.221772 
z
" clip-path="url(#pfd14123a03)" style="fill: #0000f5; fill-opacity: 0.1"/>
    <path d="M 318.20887 204.617293 
L 297.225923 160.047168 
L 294.58548 147.810651 
L 315.677338 192.59085 
z
" clip-path="url(#pfd14123a03)" style="fill: #0000f5; fill-opacity: 0.1"/>
    <path d="M 205.323833 -55.01436 
L 184.684711 -98.790982 
L 181.414293 -112.480965 
L 202.158458 -68.503221 
z
" clip-path="url(#pfd14123a03)" style="fill: #0000f5; fill-opacity: 0.1"/>
    <path d="M 249.918106 46.315095 
L 229.120098 2.17999 
L 226.095165 -10.957313 
L 246.999983 33.382864 
z
" clip-path="url(#pfd14123a03)" style="fill: #0000f5; fill-opacity: 0.1"/>
    <path d="M 294.58548 147.810651 
L 273.628092 103.315946 
L 270.849453 90.733155 
L 291.915424 135.4369 
z
" clip-path="url(#pfd14123a03)" style="fill: #0000f5; fill-opacity: 0.1"/>
    <path d="M 181.414293 -112.480965 
L 160.802479 -156.178122 
L 157.390669 -170.221772 
L 178.10717 -126.324595 
z
" clip-path="url(#pfd14123a03)" style="fill: #0000f5; fill-opacity: 0.1"/>
    <path d="M 339.326132 249.472715 
L 318.20887 204.617293 
L 315.677338 192.59085 
L 336.904965 237.6593 
z
" clip-path="url(#pfd14123a03)" style="fill: #0000f5; fill-opacity: 0.1"/>
    <path d="M 226.095165 -10.957313 
L 205.323833 -55.01436 
L 202.158458 -68.503221 
L 223.036254 -24.242182 
z
" clip-path="url(#pfd14123a03)" style="fill: #0000f5; fill-opacity: 0.1"/>
    <path d="M 270.849453 90.733155 
L 249.918106 46.315095 
L 246.999983 33.382864 
L 268.039577 78.008909 
z
" clip-path="url(#pfd14123a03)" style="fill: #0000f5; fill-opacity: 0.1"/>
    <path d="M 157.390669 -170.221772 
L 136.806657 -213.838211 
L 133.252141 -228.23875 
L 153.940474 -184.423417 
z
" clip-path="url(#pfd14123a03)" style="fill: #0000f5; fill-opacity: 0.1"/>
    <path d="M 315.677338 192.59085 
L 294.58548 147.810651 
L 291.915424 135.4369 
L 313.117323 180.429094 
z
" clip-path="url(#pfd14123a03)" style="fill: #0000f5; fill-opacity: 0.1"/>
    <path d="M 202.158458 -68.503221 
L 181.414293 -112.480965 
L 178.10717 -126.324595 
L 198.957443 -82.143962 
z
" clip-path="url(#pfd14123a03)" style="fill: #0000f5; fill-opacity: 0.1"/>
    <path d="M 246.999983 33.382864 
L 226.095165 -10.957313 
L 223.036254 -24.242182 
L 244.048975 20.304901 
z
" clip-path="url(#pfd14123a03)" style="fill: #0000f5; fill-opacity: 0.1"/>
    <path d="M 291.915424 135.4369 
L 270.849453 90.733155 
L 268.039577 78.008909 
L 289.215255 122.923594 
z
" clip-path="url(#pfd14123a03)" style="fill: #0000f5; fill-opacity: 0.1"/>
    <path d="M 178.10717 -126.324595 
L 157.390669 -170.221772 
L 153.940474 -184.423417 
L 174.76272 -140.324476 
z
" clip-path="url(#pfd14123a03)" style="fill: #0000f5; fill-opacity: 0.1"/>
    <path d="M 336.904965 237.6593 
L 315.677338 192.59085 
L 313.117323 180.429094 
L 334.456469 225.712539 
z
" clip-path="url(#pfd14123a03)" style="fill: #0000f5; fill-opacity: 0.1"/>
    <path d="M 223.036254 -24.242182 
L 202.158458 -68.503221 
L 198.957443 -82.143962 
L 219.942789 -37.677118 
z
" clip-path="url(#pfd14123a03)" style="fill: #0000f5; fill-opacity: 0.1"/>
    <path d="M 268.039577 78.008909 
L 246.999983 33.382864 
L 244.048975 20.304901 
L 265.197934 65.140809 
z
" clip-path="url(#pfd14123a03)" style="fill: #0000f5; fill-opacity: 0.1"/>
    <path d="M 153.940474 -184.423417 
L 133.252141 -228.23875 
L 129.657539 -242.801689 
L 150.451245 -198.785739 
z
" clip-path="url(#pfd14123a03)" style="fill: #0000f5; fill-opacity: 0.1"/>
    <path d="M 313.117323 180.429094 
L 291.915424 135.4369 
L 289.215255 122.923594 
L 310.528341 168.12973 
z
" clip-path="url(#pfd14123a03)" style="fill: #0000f5; fill-opacity: 0.1"/>
    <path d="M 198.957443 -82.143962 
L 178.10717 -126.324595 
L 174.76272 -140.324476 
L 195.720182 -95.939162 
z
" clip-path="url(#pfd14123a03)" style="fill: #0000f5; fill-opacity: 0.1"/>
    <path d="M 244.048975 20.304901 
L 223.036254 -24.242182 
L 219.942789 -37.677118 
L 241.064524 7.078728 
z
" clip-path="url(#pfd14123a03)" style="fill: #0000f5; fill-opacity: 0.1"/>
    <path d="M 289.215255 122.923594 
L 268.039577 78.008909 
L 265.197934 65.140809 
L 286.484459 110.268359 
z
" clip-path="url(#pfd14123a03)" style="fill: #0000f5; fill-opacity: 0.1"/>
    <path d="M 174.76272 -140.324476 
L 153.940474 -184.423417 
L 150.451245 -198.785739 
L 171.380308 -154.483265 
z
" clip-path="url(#pfd14123a03)" style="fill: #0000f5; fill-opacity: 0.1"/>
    <path d="M 334.456469 225.712539 
L 313.117323 180.429094 
L 310.528341 168.12973 
L 331.980178 213.630162 
z
" clip-path="url(#pfd14123a03)" style="fill: #0000f5; fill-opacity: 0.1"/>
    <path d="M 219.942789 -37.677118 
L 198.957443 -82.143962 
L 195.720182 -95.939162 
L 216.814181 -51.264678 
z
" clip-path="url(#pfd14123a03)" style="fill: #0000f5; fill-opacity: 0.1"/>
    <path d="M 265.197934 65.140809 
L 244.048975 20.304901 
L 241.064524 7.078728 
L 262.323982 52.126402 
z
" clip-path="url(#pfd14123a03)" style="fill: #0000f5; fill-opacity: 0.1"/>
    <path d="M 150.451245 -198.785739 
L 129.657539 -242.801689 
L 126.02217 -257.529791 
L 146.922313 -213.311481 
z
" clip-path="url(#pfd14123a03)" style="fill: #0000f5; fill-opacity: 0.1"/>
    <path d="M 310.528341 168.12973 
L 289.215255 122.923594 
L 286.484459 110.268359 
L 307.909899 155.690408 
z
" clip-path="url(#pfd14123a03)" style="fill: #0000f5; fill-opacity: 0.1"/>
    <path d="M 195.720182 -95.939162 
L 174.76272 -140.324476 
L 171.380308 -154.483265 
L 192.446055 -109.89146 
z
" clip-path="url(#pfd14123a03)" style="fill: #0000f5; fill-opacity: 0.1"/>
    <path d="M 241.064524 7.078728 
L 219.942789 -37.677118 
L 216.814181 -51.264678 
L 238.046058 -6.298189 
z
" clip-path="url(#pfd14123a03)" style="fill: #0000f5; fill-opacity: 0.1"/>
    <path d="M 286.484459 110.268359 
L 265.197934 65.140809 
L 262.323982 52.126402 
L 283.722514 97.468767 
z
" clip-path="url(#pfd14123a03)" style="fill: #0000f5; fill-opacity: 0.1"/>
    <path d="M 171.380308 -154.483265 
L 150.451245 -198.785739 
L 146.922313 -213.311481 
L 167.959283 -168.803686 
z
" clip-path="url(#pfd14123a03)" style="fill: #0000f5; fill-opacity: 0.1"/>
    <path d="M 331.980178 213.630162 
L 310.528341 168.12973 
L 307.909899 155.690408 
L 329.475616 201.409846 
z
" clip-path="url(#pfd14123a03)" style="fill: #0000f5; fill-opacity: 0.1"/>
    <path d="M 216.814181 -51.264678 
L 195.720182 -95.939162 
L 192.446055 -109.89146 
L 213.649829 -65.007479 
z
" clip-path="url(#pfd14123a03)" style="fill: #0000f5; fill-opacity: 0.1"/>
    <path d="M 262.323982 52.126402 
L 241.064524 7.078728 
L 238.046058 -6.298189 
L 259.417167 38.963178 
z
" clip-path="url(#pfd14123a03)" style="fill: #0000f5; fill-opacity: 0.1"/>
    <path d="M 146.922313 -213.311481 
L 126.02217 -257.529791 
L 122.345336 -272.425881 
L 143.352999 -228.003446 
z
" clip-path="url(#pfd14123a03)" style="fill: #0000f5; fill-opacity: 0.1"/>
    <path d="M 307.909899 155.690408 
L 286.484459 110.268359 
L 283.722514 97.468767 
L 305.26149 143.108726 
z
" clip-path="url(#pfd14123a03)" style="fill: #0000f5; fill-opacity: 0.1"/>
    <path d="M 192.446055 -109.89146 
L 171.380308 -154.483265 
L 167.959283 -168.803686 
L 189.134429 -124.003553 
z
" clip-path="url(#pfd14123a03)" style="fill: #0000f5; fill-opacity: 0.1"/>
    <path d="M 238.046058 -6.298189 
L 216.814181 -51.264678 
L 213.649829 -65.007479 
L 234.992992 -19.828441 
z
" clip-path="url(#pfd14123a03)" style="fill: #0000f5; fill-opacity: 0.1"/>
    <path d="M 283.722514 97.468767 
L 262.323982 52.126402 
L 259.417167 38.963178 
L 280.928883 84.522334 
z
" clip-path="url(#pfd14123a03)" style="fill: #0000f5; fill-opacity: 0.1"/>
    <path d="M 167.959283 -168.803686 
L 146.922313 -213.311481 
L 143.352999 -228.003446 
L 164.498982 -183.28852 
z
" clip-path="url(#pfd14123a03)" style="fill: #0000f5; fill-opacity: 0.1"/>
    <path d="M 329.475616 201.409846 
L 307.909899 155.690408 
L 305.26149 143.108726 
L 326.942297 189.049216 
z
" clip-path="url(#pfd14123a03)" style="fill: #0000f5; fill-opacity: 0.1"/>
    <path d="M 213.649829 -65.007479 
L 192.446055 -109.89146 
L 189.134429 -124.003553 
L 210.449116 -78.908195 
z
" clip-path="url(#pfd14123a03)" style="fill: #0000f5; fill-opacity: 0.1"/>
    <path d="M 259.417167 38.963178 
L 238.046058 -6.298189 
L 234.992992 -19.828441 
L 256.476922 25.648571 
z
" clip-path="url(#pfd14123a03)" style="fill: #0000f5; fill-opacity: 0.1"/>
    <path d="M 305.26149 143.108726 
L 283.722514 97.468767 
L 280.928883 84.522334 
L 302.582598 130.382226 
z
" clip-path="url(#pfd14123a03)" style="fill: #0000f5; fill-opacity: 0.1"/>
    <path d="M 189.134429 -124.003553 
L 167.959283 -168.803686 
L 164.498982 -183.28852 
L 185.784656 -138.278205 
z
" clip-path="url(#pfd14123a03)" style="fill: #0000f5; fill-opacity: 0.1"/>
    <path d="M 234.992992 -19.828441 
L 213.649829 -65.007479 
L 210.449116 -78.908195 
L 231.904728 -33.514681 
z
" clip-path="url(#pfd14123a03)" style="fill: #0000f5; fill-opacity: 0.1"/>
    <path d="M 280.928883 84.522334 
L 259.417167 38.963178 
L 256.476922 25.648571 
L 278.103017 71.426517 
z
" clip-path="url(#pfd14123a03)" style="fill: #0000f5; fill-opacity: 0.1"/>
    <path d="M 326.942297 189.049216 
L 305.26149 143.108726 
L 302.582598 130.382226 
L 324.379723 176.545841 
z
" clip-path="url(#pfd14123a03)" style="fill: #0000f5; fill-opacity: 0.1"/>
    <path d="M 210.449116 -78.908195 
L 189.134429 -124.003553 
L 185.784656 -138.278205 
L 207.211411 -92.969564 
z
" clip-path="url(#pfd14123a03)" style="fill: #0000f5; fill-opacity: 0.1"/>
    <path d="M 256.476922 25.648571 
L 234.992992 -19.828441 
L 231.904728 -33.514681 
L 253.502668 12.179954 
z
" clip-path="url(#pfd14123a03)" style="fill: #0000f5; fill-opacity: 0.1"/>
    <path d="M 302.582598 130.382226 
L 280.928883 84.522334 
L 278.103017 71.426517 
L 299.872692 117.508392 
z
" clip-path="url(#pfd14123a03)" style="fill: #0000f5; fill-opacity: 0.1"/>
    <path d="M 231.904728 -33.514681 
L 210.449116 -78.908195 
L 207.211411 -92.969564 
L 228.780654 -47.359621 
z
" clip-path="url(#pfd14123a03)" style="fill: #0000f5; fill-opacity: 0.1"/>
    <path d="M 278.103017 71.426517 
L 256.476922 25.648571 
L 253.502668 12.179954 
L 275.244356 58.178716 
z
" clip-path="url(#pfd14123a03)" style="fill: #0000f5; fill-opacity: 0.1"/>
    <path d="M 324.379723 176.545841 
L 302.582598 130.382226 
L 299.872692 117.508392 
L 321.787383 163.897235 
z
" clip-path="url(#pfd14123a03)" style="fill: #0000f5; fill-opacity: 0.1"/>
    <path d="M 253.502668 12.179954 
L 231.904728 -33.514681 
L 228.780654 -47.359621 
L 250.49381 -1.445362 
z
" clip-path="url(#pfd14123a03)" style="fill: #0000f5; fill-opacity: 0.1"/>
    <path d="M 299.872692 117.508392 
L 278.103017 71.426517 
L 275.244356 58.178716 
L 297.131232 104.484653 
z
" clip-path="url(#pfd14123a03)" style="fill: #0000f5; fill-opacity: 0.1"/>
    <path d="M 275.244356 58.178716 
L 253.502668 12.179954 
L 250.49381 -1.445362 
L 272.352324 44.776271 
z
" clip-path="url(#pfd14123a03)" style="fill: #0000f5; fill-opacity: 0.1"/>
    <path d="M 321.787383 163.897235 
L 299.872692 117.508392 
L 297.131232 104.484653 
L 319.164756 151.100851 
z
" clip-path="url(#pfd14123a03)" style="fill: #0000f5; fill-opacity: 0.1"/>
    <path d="M 297.131232 104.484653 
L 275.244356 58.178716 
L 272.352324 44.776271 
L 294.357662 91.308374 
z
" clip-path="url(#pfd14123a03)" style="fill: #0000f5; fill-opacity: 0.1"/>
    <path d="M 319.164756 151.100851 
L 297.131232 104.484653 
L 294.357662 91.308374 
L 316.511308 138.154085 
z
" clip-path="url(#pfd14123a03)" style="fill: #0000f5; fill-opacity: 0.1"/>
   </g>
   <g id="legend_1">
    <g id="patch_6">
     <path d="M 357.840076 67.305115 
L 396.2 67.305115 
Q 398.2 67.305115 398.2 65.305115 
L 398.2 7 
Q 398.2 5 396.2 5 
L 357.840076 5 
Q 355.840076 5 355.840076 7 
L 355.840076 65.305115 
Q 355.840076 67.305115 357.840076 67.305115 
z
" style="fill: #ffffff; opacity: 0.8; stroke: #cccccc; stroke-linejoin: miter"/>
    </g>
    <g id="line2d_25">
     <path d="M 359.840076 12.5 
L 369.840076 12.5 
L 379.840076 12.5 
" style="fill: none; stroke: #ff0000; stroke-width: 1.5; stroke-linecap: square"/>
    </g>
    <g id="text_21">
     <!-- $\vec{a}$ -->
     <g transform="translate(387.840076 16)scale(0.1 -0.1)">
      <defs>
       <path id="CMMI12-7e" d="M 3424 3835 
C 3347 3764 3110 3540 3110 3451 
C 3110 3387 3168 3329 3232 3329 
C 3290 3329 3315 3368 3360 3432 
C 3514 3624 3686 3745 3834 3828 
C 3898 3867 3942 3886 3942 3956 
C 3942 4014 3891 4046 3853 4078 
C 3674 4200 3629 4372 3610 4449 
C 3590 4500 3571 4577 3482 4577 
C 3443 4577 3366 4552 3366 4456 
C 3366 4398 3405 4244 3526 4072 
L 1376 4072 
C 1267 4072 1158 4072 1158 3950 
C 1158 3835 1274 3835 1376 3835 
L 3424 3835 
z
" transform="scale(0.015625)"/>
       <path id="CMMI12-61" d="M 1926 760 
C 1894 651 1894 639 1805 517 
C 1664 338 1382 64 1082 64 
C 819 64 672 300 672 677 
C 672 1028 870 1743 992 2012 
C 1210 2459 1510 2689 1760 2689 
C 2182 2689 2266 2165 2266 2114 
C 2266 2108 2246 2024 2240 2012 
L 1926 760 
z
M 2336 2395 
C 2266 2561 2093 2816 1760 2816 
C 1037 2816 256 1884 256 939 
C 256 307 627 -64 1062 -64 
C 1414 -64 1715 211 1894 422 
C 1958 45 2259 -64 2451 -64 
C 2643 -64 2797 51 2912 281 
C 3014 498 3104 888 3104 913 
C 3104 945 3078 971 3040 971 
C 2982 971 2976 939 2950 843 
C 2854 466 2733 64 2470 64 
C 2285 64 2272 230 2272 358 
C 2272 505 2291 575 2349 824 
C 2394 984 2426 1124 2477 1309 
C 2714 2267 2771 2497 2771 2535 
C 2771 2625 2701 2695 2605 2695 
C 2400 2695 2349 2472 2336 2395 
z
" transform="scale(0.015625)"/>
      </defs>
      <use xlink:href="#CMMI12-7e" transform="scale(0.996264)"/>
      <use xlink:href="#CMMI12-61" transform="translate(6.445738 0)scale(0.996264)"/>
     </g>
    </g>
    <g id="line2d_26">
     <path d="M 359.840076 27.24679 
L 369.840076 27.24679 
L 379.840076 27.24679 
" style="fill: none; stroke: #00ff00; stroke-width: 1.5; stroke-linecap: square"/>
    </g>
    <g id="text_22">
     <!-- $\vec{b}$ -->
     <g transform="translate(387.840076 30.74679)scale(0.1 -0.1)">
      <defs>
       <path id="CMMI12-62" d="M 1478 4257 
C 1485 4283 1498 4321 1498 4352 
C 1498 4416 1434 4416 1421 4416 
C 1414 4416 1184 4393 1069 4377 
C 960 4377 864 4358 749 4358 
C 595 4345 550 4339 550 4224 
C 550 4160 614 4160 678 4160 
C 1005 4160 1005 4103 1005 4040 
C 1005 3996 954 3811 928 3696 
L 774 3085 
C 710 2831 346 1387 320 1272 
C 288 1114 288 1005 288 922 
C 288 274 653 -64 1069 -64 
C 1811 -64 2579 888 2579 1814 
C 2579 2401 2246 2816 1766 2816 
C 1434 2816 1133 2542 1011 2414 
L 1478 4257 
z
M 1075 64 
C 870 64 646 217 646 715 
C 646 926 666 1047 781 1494 
C 800 1577 902 1986 928 2069 
C 941 2120 1318 2689 1754 2689 
C 2035 2689 2163 2408 2163 2076 
C 2163 1769 1984 1047 1824 715 
C 1664 370 1370 64 1075 64 
z
" transform="scale(0.015625)"/>
      </defs>
      <use xlink:href="#CMMI12-7e" transform="translate(0 26.29016)scale(0.996264)"/>
      <use xlink:href="#CMMI12-62" transform="translate(11.311737 0)scale(0.996264)"/>
     </g>
    </g>
    <g id="line2d_27">
     <path d="M 359.840076 41.183968 
L 369.840076 41.183968 
L 379.840076 41.183968 
" style="fill: none; stroke: #0016ff; stroke-width: 1.5; stroke-linecap: square"/>
    </g>
    <g id="text_23">
     <!-- $\vec{c}$ -->
     <g transform="translate(387.840076 44.683968)scale(0.1 -0.1)">
      <defs>
       <path id="CMMI12-63" d="M 2502 2431 
C 2381 2431 2323 2431 2234 2355 
C 2195 2323 2125 2227 2125 2125 
C 2125 1997 2221 1920 2342 1920 
C 2496 1920 2669 2044 2669 2292 
C 2669 2588 2374 2816 1933 2816 
C 1094 2816 256 1903 256 996 
C 256 441 602 -64 1254 -64 
C 2125 -64 2675 622 2675 706 
C 2675 744 2637 776 2611 776 
C 2592 776 2586 770 2528 713 
C 2118 162 1510 64 1267 64 
C 826 64 685 446 685 764 
C 685 988 794 1605 1024 2039 
C 1190 2338 1536 2682 1939 2682 
C 2022 2682 2374 2682 2502 2431 
z
" transform="scale(0.015625)"/>
      </defs>
      <use xlink:href="#CMMI12-7e" transform="scale(0.996264)"/>
      <use xlink:href="#CMMI12-63" transform="translate(5.638615 0)scale(0.996264)"/>
     </g>
    </g>
    <g id="line2d_28">
     <path d="M 359.840076 57.867937 
L 369.840076 57.867937 
L 379.840076 57.867937 
" style="fill: none; stroke: #f400ff; stroke-width: 1.5; stroke-linecap: square"/>
    </g>
    <g id="text_24">
     <!-- $\vec{f}$ -->
     <g transform="translate(387.840076 61.367937)scale(0.1 -0.1)">
      <defs>
       <path id="CMMI12-66" d="M 2854 2566 
C 2982 2566 3034 2566 3034 2688 
C 3034 2752 2982 2752 2867 2752 
L 2349 2752 
C 2470 3429 2560 3897 2611 4107 
C 2650 4265 2784 4416 2950 4416 
C 3085 4416 3219 4358 3283 4298 
C 3034 4272 2957 4082 2957 3969 
C 2957 3837 3053 3759 3174 3759 
C 3302 3759 3494 3870 3494 4119 
C 3494 4393 3226 4544 2944 4544 
C 2669 4544 2400 4334 2272 4078 
C 2157 3848 2093 3611 1946 2752 
L 1517 2752 
C 1395 2752 1331 2752 1331 2637 
C 1331 2566 1370 2566 1498 2566 
L 1907 2566 
C 1792 1976 1530 542 1382 -137 
C 1274 -689 1178 -1152 858 -1152 
C 838 -1152 653 -1152 538 -1031 
C 864 -1005 864 -726 864 -720 
C 864 -593 768 -517 646 -517 
C 518 -517 326 -625 326 -867 
C 326 -1140 608 -1280 858 -1280 
C 1510 -1280 1779 -118 1850 199 
C 1965 688 2278 2376 2310 2566 
L 2854 2566 
z
" transform="scale(0.015625)"/>
      </defs>
      <use xlink:href="#CMMI12-7e" transform="translate(13.568792 26.29016)scale(0.996264)"/>
      <use xlink:href="#CMMI12-66" transform="scale(0.996264)"/>
     </g>
    </g>
   </g>
  </g>
 </g>
 <defs>
  <clipPath id="pfd14123a03">
   <rect x="57.6" y="0" width="345.6" height="345.6"/>
  </clipPath>
 </defs>
</svg>
