<?xml version="1.0" encoding="utf-8" standalone="no"?>
<!DOCTYPE svg PUBLIC "-//W3C//DTD SVG 1.1//EN"
  "http://www.w3.org/Graphics/SVG/1.1/DTD/svg11.dtd">
<svg xmlns:xlink="http://www.w3.org/1999/xlink" width="460.8pt" height="345.6pt" viewBox="0 0 460.8 345.6" xmlns="http://www.w3.org/2000/svg" version="1.1">
 <metadata>
  <rdf:RDF xmlns:dc="http://purl.org/dc/elements/1.1/" xmlns:cc="http://creativecommons.org/ns#" xmlns:rdf="http://www.w3.org/1999/02/22-rdf-syntax-ns#">
   <cc:Work>
    <dc:type rdf:resource="http://purl.org/dc/dcmitype/StillImage"/>
    <dc:date>2022-07-12T15:50:58.182202</dc:date>
    <dc:format>image/svg+xml</dc:format>
    <dc:creator>
     <cc:Agent>
      <dc:title>Matplotlib v3.5.1, https://matplotlib.org/</dc:title>
     </cc:Agent>
    </dc:creator>
   </cc:Work>
  </rdf:RDF>
 </metadata>
 <defs>
  <style type="text/css">*{stroke-linejoin: round; stroke-linecap: butt}</style>
 </defs>
 <g id="figure_1">
  <g id="patch_1">
   <path d="M 0 345.6 
L 460.8 345.6 
L 460.8 0 
L 0 0 
z
" style="fill: #ffffff"/>
  </g>
  <g id="patch_2">
   <path d="M 57.6 345.6 
L 403.2 345.6 
L 403.2 0 
L 57.6 0 
z
" style="fill: #ffffff"/>
  </g>
  <g id="pane3d_1">
   <g id="patch_3">
    <path d="M 182.820882 245.450882 
L 83.692331 254.121545 
L 83.692331 82.137915 
L 182.820882 90.808578 
" style="fill: #f2f2f2; opacity: 0.5; stroke: #f2f2f2; stroke-linejoin: miter"/>
   </g>
  </g>
  <g id="pane3d_2">
   <g id="patch_4">
    <path d="M 377.582372 249.085214 
L 182.820882 245.450882 
L 182.820882 90.808578 
L 377.582372 87.174246 
" style="fill: #e6e6e6; opacity: 0.5; stroke: #e6e6e6; stroke-linejoin: miter"/>
   </g>
  </g>
  <g id="pane3d_3">
   <g id="patch_5">
    <path d="M 377.582372 249.085214 
L 182.820882 245.450882 
L 83.692331 254.121545 
L 296.232474 258.640493 
" style="fill: #ececec; opacity: 0.5; stroke: #ececec; stroke-linejoin: miter"/>
   </g>
  </g>
  <g id="axis3d_1">
   <g id="line2d_1">
    <path d="M 83.692331 254.121545 
L 296.232474 258.640493 
" style="fill: none; stroke: #000000; stroke-width: 0.8; stroke-linecap: square"/>
   </g>
   <g id="text_1">
    <!-- x -->
    <g transform="translate(169.393894 286.635707)scale(0.16 -0.16)">
     <defs>
      <path id="CMSS17-78" d="M 1587 1414 
L 2656 2739 
L 2099 2739 
L 1363 1777 
L 602 2739 
L 32 2739 
L 1139 1414 
L 0 0 
L 563 0 
L 1363 1121 
L 2195 0 
L 2758 0 
L 1587 1414 
z
" transform="scale(0.015625)"/>
     </defs>
     <use xlink:href="#CMSS17-78" transform="scale(0.996264)"/>
    </g>
   </g>
   <g id="Line3DCollection_1">
    <path d="M 291.762985 258.545465 
L 373.507885 249.009182 
L 373.507885 87.250277 
" style="fill: none; stroke: #b0b0b0; stroke-width: 0.8"/>
    <path d="M 249.328644 257.643242 
L 334.778729 248.28648 
L 334.778729 87.97298 
" style="fill: none; stroke: #b0b0b0; stroke-width: 0.8"/>
    <path d="M 207.732806 256.758847 
L 296.735576 247.576578 
L 296.735576 88.682881 
" style="fill: none; stroke: #b0b0b0; stroke-width: 0.8"/>
    <path d="M 166.950863 255.891756 
L 259.36036 246.879141 
L 259.36036 89.380319 
" style="fill: none; stroke: #b0b0b0; stroke-width: 0.8"/>
    <path d="M 126.959157 255.041468 
L 222.635642 246.193842 
L 222.635642 90.065618 
" style="fill: none; stroke: #b0b0b0; stroke-width: 0.8"/>
    <path d="M 87.73494 254.207497 
L 186.544587 245.520368 
L 186.544587 90.739092 
" style="fill: none; stroke: #b0b0b0; stroke-width: 0.8"/>
   </g>
   <g id="xtick_1">
    <g id="line2d_2">
     <path d="M 292.493362 258.460259 
L 290.29809 258.716358 
" style="fill: none; stroke: #000000; stroke-width: 0.8; stroke-linecap: square"/>
    </g>
    <g id="text_2">
     <!-- $\mathdefault{0}$ -->
     <g transform="translate(283.389631 277.791043)scale(0.1 -0.1)">
      <defs>
       <path id="CMR17-30" d="M 2688 2025 
C 2688 2416 2682 3080 2413 3591 
C 2176 4039 1798 4198 1466 4198 
C 1158 4198 768 4058 525 3597 
C 269 3118 243 2524 243 2025 
C 243 1661 250 1106 448 619 
C 723 -39 1216 -128 1466 -128 
C 1760 -128 2208 -7 2470 600 
C 2662 1042 2688 1559 2688 2025 
z
M 1466 -26 
C 1056 -26 813 325 723 812 
C 653 1188 653 1738 653 2096 
C 653 2588 653 2997 736 3387 
C 858 3929 1216 4096 1466 4096 
C 1728 4096 2067 3923 2189 3400 
C 2272 3036 2278 2607 2278 2096 
C 2278 1680 2278 1169 2202 792 
C 2067 95 1690 -26 1466 -26 
z
" transform="scale(0.015625)"/>
      </defs>
      <use xlink:href="#CMR17-30" transform="scale(0.996264)"/>
     </g>
    </g>
   </g>
   <g id="xtick_2">
    <g id="line2d_3">
     <path d="M 250.091329 257.559728 
L 247.798991 257.810738 
" style="fill: none; stroke: #000000; stroke-width: 0.8; stroke-linecap: square"/>
    </g>
    <g id="text_3">
     <!-- $\mathdefault{1}$ -->
     <g transform="translate(240.695587 276.75811)scale(0.1 -0.1)">
      <defs>
       <path id="CMR17-31" d="M 1702 4058 
C 1702 4192 1696 4192 1606 4192 
C 1357 3916 979 3827 621 3827 
C 602 3827 570 3827 563 3808 
C 557 3795 557 3782 557 3648 
C 755 3648 1088 3686 1344 3839 
L 1344 461 
C 1344 236 1331 160 781 160 
L 589 160 
L 589 0 
C 896 0 1216 0 1523 0 
C 1830 0 2150 0 2458 0 
L 2458 160 
L 2266 160 
C 1715 160 1702 230 1702 458 
L 1702 4058 
z
" transform="scale(0.015625)"/>
      </defs>
      <use xlink:href="#CMR17-31" transform="scale(0.996264)"/>
     </g>
    </g>
   </g>
   <g id="xtick_3">
    <g id="line2d_4">
     <path d="M 208.526389 256.676974 
L 206.141231 256.923047 
" style="fill: none; stroke: #000000; stroke-width: 0.8; stroke-linecap: square"/>
    </g>
    <g id="text_4">
     <!-- $\mathdefault{2}$ -->
     <g transform="translate(198.851454 275.745739)scale(0.1 -0.1)">
      <defs>
       <path id="CMR17-32" d="M 2669 989 
L 2554 989 
C 2490 536 2438 459 2413 420 
C 2381 369 1920 369 1830 369 
L 602 369 
C 832 619 1280 1072 1824 1597 
C 2214 1967 2669 2402 2669 3035 
C 2669 3790 2067 4224 1395 4224 
C 691 4224 262 3604 262 3030 
C 262 2780 448 2748 525 2748 
C 589 2748 781 2787 781 3010 
C 781 3207 614 3264 525 3264 
C 486 3264 448 3258 422 3245 
C 544 3790 915 4058 1306 4058 
C 1862 4058 2227 3617 2227 3035 
C 2227 2479 1901 2000 1536 1584 
L 262 146 
L 262 0 
L 2515 0 
L 2669 989 
z
" transform="scale(0.015625)"/>
      </defs>
      <use xlink:href="#CMR17-32" transform="scale(0.996264)"/>
     </g>
    </g>
   </g>
   <g id="xtick_4">
    <g id="line2d_5">
     <path d="M 167.773993 255.811477 
L 165.300073 256.052756 
" style="fill: none; stroke: #000000; stroke-width: 0.8; stroke-linecap: square"/>
    </g>
    <g id="text_5">
     <!-- $\mathdefault{3}$ -->
     <g transform="translate(157.832105 274.753323)scale(0.1 -0.1)">
      <defs>
       <path id="CMR17-33" d="M 1414 2157 
C 1984 2157 2234 1662 2234 1090 
C 2234 320 1824 25 1453 25 
C 1114 25 563 194 390 693 
C 422 680 454 680 486 680 
C 640 680 755 782 755 948 
C 755 1133 614 1216 486 1216 
C 378 1216 211 1165 211 926 
C 211 335 787 -128 1466 -128 
C 2176 -128 2720 430 2720 1085 
C 2720 1707 2208 2157 1600 2227 
C 2086 2328 2554 2756 2554 3329 
C 2554 3820 2048 4179 1472 4179 
C 890 4179 378 3829 378 3329 
C 378 3110 544 3072 627 3072 
C 762 3072 877 3155 877 3321 
C 877 3486 762 3569 627 3569 
C 602 3569 570 3569 544 3557 
C 730 3959 1235 4032 1459 4032 
C 1683 4032 2106 3925 2106 3320 
C 2106 3143 2080 2828 1862 2550 
C 1670 2304 1453 2304 1242 2284 
C 1210 2284 1062 2269 1037 2269 
C 992 2263 966 2257 966 2208 
C 966 2163 973 2157 1101 2157 
L 1414 2157 
z
" transform="scale(0.015625)"/>
      </defs>
      <use xlink:href="#CMR17-33" transform="scale(0.996264)"/>
     </g>
    </g>
   </g>
   <g id="xtick_5">
    <g id="line2d_6">
     <path d="M 127.810547 254.962736 
L 125.251737 255.19936 
" style="fill: none; stroke: #000000; stroke-width: 0.8; stroke-linecap: square"/>
    </g>
    <g id="text_6">
     <!-- $\mathdefault{4}$ -->
     <g transform="translate(117.61339 273.780277)scale(0.1 -0.1)">
      <defs>
       <path id="CMR17-34" d="M 2150 4122 
C 2150 4256 2144 4256 2029 4256 
L 128 1254 
L 128 1088 
L 1779 1088 
L 1779 457 
C 1779 224 1766 160 1318 160 
L 1197 160 
L 1197 0 
C 1402 0 1747 0 1965 0 
C 2182 0 2528 0 2733 0 
L 2733 160 
L 2611 160 
C 2163 160 2150 224 2150 457 
L 2150 1088 
L 2803 1088 
L 2803 1254 
L 2150 1254 
L 2150 4122 
z
M 1798 3703 
L 1798 1254 
L 256 1254 
L 1798 3703 
z
" transform="scale(0.015625)"/>
      </defs>
      <use xlink:href="#CMR17-34" transform="scale(0.996264)"/>
     </g>
    </g>
   </g>
   <g id="xtick_6">
    <g id="line2d_7">
     <path d="M 88.61336 254.130269 
L 85.973359 254.362372 
" style="fill: none; stroke: #000000; stroke-width: 0.8; stroke-linecap: square"/>
    </g>
    <g id="text_7">
     <!-- $\mathdefault{5}$ -->
     <g transform="translate(78.172097 272.82604)scale(0.1 -0.1)">
      <defs>
       <path id="CMR17-35" d="M 730 3692 
C 794 3666 1056 3584 1325 3584 
C 1920 3584 2246 3911 2432 4100 
C 2432 4157 2432 4192 2394 4192 
C 2387 4192 2374 4192 2323 4163 
C 2099 4058 1837 3973 1517 3973 
C 1325 3973 1037 3999 723 4139 
C 653 4171 640 4171 634 4171 
C 602 4171 595 4164 595 4037 
L 595 2203 
C 595 2089 595 2057 659 2057 
C 691 2057 704 2070 736 2114 
C 941 2401 1222 2522 1542 2522 
C 1766 2522 2246 2382 2246 1289 
C 2246 1085 2246 715 2054 421 
C 1894 159 1645 25 1370 25 
C 947 25 518 320 403 814 
C 429 807 480 795 506 795 
C 589 795 749 840 749 1038 
C 749 1210 627 1280 506 1280 
C 358 1280 262 1190 262 1011 
C 262 454 704 -128 1382 -128 
C 2042 -128 2669 440 2669 1264 
C 2669 2030 2170 2624 1549 2624 
C 1222 2624 947 2503 730 2274 
L 730 3692 
z
" transform="scale(0.015625)"/>
      </defs>
      <use xlink:href="#CMR17-35" transform="scale(0.996264)"/>
     </g>
    </g>
   </g>
  </g>
  <g id="axis3d_2">
   <g id="line2d_8">
    <path d="M 377.582372 249.085214 
L 296.232474 258.640493 
" style="fill: none; stroke: #000000; stroke-width: 0.8; stroke-linecap: square"/>
   </g>
   <g id="text_8">
    <!-- y -->
    <g transform="translate(365.445089 282.08035)scale(0.16 -0.16)">
     <defs>
      <path id="CMSS17-79" d="M 2675 2752 
L 2176 2752 
C 1632 1294 1446 702 1434 383 
L 1427 383 
C 1408 696 1126 1460 902 2007 
L 602 2752 
L 83 2752 
L 1216 13 
C 1146 -178 1043 -465 1011 -529 
C 870 -885 774 -885 672 -885 
C 646 -885 442 -885 211 -809 
L 250 -1229 
C 410 -1261 570 -1280 685 -1280 
C 845 -1280 1165 -1280 1459 -497 
L 2675 2752 
z
" transform="scale(0.015625)"/>
     </defs>
     <use xlink:href="#CMSS17-79" transform="scale(0.996264)"/>
    </g>
   </g>
   <g id="Line3DCollection_2">
    <path d="M 172.359054 89.893493 
L 172.359054 246.365966 
L 369.037367 250.088902 
" style="fill: none; stroke: #b0b0b0; stroke-width: 0.8"/>
    <path d="M 154.487918 88.330325 
L 154.487918 247.929134 
L 354.418569 251.806011 
" style="fill: none; stroke: #b0b0b0; stroke-width: 0.8"/>
    <path d="M 135.888089 86.703419 
L 135.888089 249.55604 
L 339.174111 253.59661 
" style="fill: none; stroke: #b0b0b0; stroke-width: 0.8"/>
    <path d="M 116.514069 85.008795 
L 116.514069 251.250664 
L 323.262951 255.46552 
" style="fill: none; stroke: #b0b0b0; stroke-width: 0.8"/>
    <path d="M 96.316496 83.242136 
L 96.316496 253.017323 
L 306.640374 257.417991 
" style="fill: none; stroke: #b0b0b0; stroke-width: 0.8"/>
   </g>
   <g id="xtick_7">
    <g id="line2d_9">
     <path d="M 367.389695 250.057713 
L 372.336477 250.151351 
" style="fill: none; stroke: #000000; stroke-width: 0.8; stroke-linecap: square"/>
    </g>
    <g id="text_9">
     <!-- $\mathdefault{−4}$ -->
     <g transform="translate(375.875971 267.761829)scale(0.1 -0.1)">
      <defs>
       <path id="CMSY10-0" d="M 4218 1472 
C 4326 1472 4442 1472 4442 1600 
C 4442 1728 4326 1728 4218 1728 
L 755 1728 
C 646 1728 531 1728 531 1600 
C 531 1472 646 1472 755 1472 
L 4218 1472 
z
" transform="scale(0.015625)"/>
      </defs>
      <use xlink:href="#CMSY10-0" transform="scale(0.996264)"/>
      <use xlink:href="#CMR17-34" transform="translate(77.487468 0)scale(0.996264)"/>
     </g>
    </g>
   </g>
   <g id="xtick_8">
    <g id="line2d_10">
     <path d="M 352.742069 251.773502 
L 357.775479 251.871106 
" style="fill: none; stroke: #000000; stroke-width: 0.8; stroke-linecap: square"/>
    </g>
    <g id="text_10">
     <!-- $\mathdefault{−2}$ -->
     <g transform="translate(361.489144 269.710301)scale(0.1 -0.1)">
      <use xlink:href="#CMSY10-0" transform="scale(0.996264)"/>
      <use xlink:href="#CMR17-32" transform="translate(77.487468 0)scale(0.996264)"/>
     </g>
    </g>
   </g>
   <g id="xtick_9">
    <g id="line2d_11">
     <path d="M 337.4678 253.562695 
L 342.590801 253.664522 
" style="fill: none; stroke: #000000; stroke-width: 0.8; stroke-linecap: square"/>
    </g>
    <g id="text_11">
     <!-- $\mathdefault{0}$ -->
     <g transform="translate(350.358999 271.742429)scale(0.1 -0.1)">
      <use xlink:href="#CMR17-30" transform="scale(0.996264)"/>
     </g>
    </g>
   </g>
   <g id="xtick_10">
    <g id="line2d_12">
     <path d="M 321.525795 255.430106 
L 326.741495 255.536435 
" style="fill: none; stroke: #000000; stroke-width: 0.8; stroke-linecap: square"/>
    </g>
    <g id="text_12">
     <!-- $\mathdefault{2}$ -->
     <g transform="translate(334.696141 273.863719)scale(0.1 -0.1)">
      <use xlink:href="#CMR17-32" transform="scale(0.996264)"/>
     </g>
    </g>
   </g>
   <g id="xtick_11">
    <g id="line2d_13">
     <path d="M 304.871289 257.380976 
L 310.182949 257.492114 
" style="fill: none; stroke: #000000; stroke-width: 0.8; stroke-linecap: square"/>
    </g>
    <g id="text_13">
     <!-- $\mathdefault{4}$ -->
     <g transform="translate(318.330641 276.080171)scale(0.1 -0.1)">
      <use xlink:href="#CMR17-34" transform="scale(0.996264)"/>
     </g>
    </g>
   </g>
  </g>
  <g id="axis3d_3">
   <g id="line2d_14">
    <path d="M 377.582372 249.085214 
L 377.582372 87.174246 
" style="fill: none; stroke: #000000; stroke-width: 0.8; stroke-linecap: square"/>
   </g>
   <g id="text_14">
    <!-- z -->
    <g transform="translate(412.314344 172.114786)scale(0.16 -0.16)">
     <defs>
      <path id="CMSS17-7a" d="M 2400 2502 
L 2400 2750 
L 250 2750 
L 250 2368 
L 1069 2368 
C 1146 2368 1222 2368 1299 2368 
L 1747 2368 
L 166 261 
L 166 0 
L 2419 0 
L 2419 395 
L 1549 395 
C 1472 395 1395 395 1318 395 
L 826 395 
L 2400 2502 
z
" transform="scale(0.015625)"/>
     </defs>
     <use xlink:href="#CMSS17-7a" transform="scale(0.996264)"/>
    </g>
   </g>
   <g id="Line3DCollection_3">
    <path d="M 377.582372 245.846994 
L 182.820882 242.358036 
L 83.692331 250.681872 
" style="fill: none; stroke: #b0b0b0; stroke-width: 0.8"/>
    <path d="M 377.582372 214.760089 
L 182.820882 212.666713 
L 83.692331 217.661015 
" style="fill: none; stroke: #b0b0b0; stroke-width: 0.8"/>
    <path d="M 377.582372 183.673183 
L 182.820882 182.975391 
L 83.692331 184.640158 
" style="fill: none; stroke: #b0b0b0; stroke-width: 0.8"/>
    <path d="M 377.582372 152.586277 
L 182.820882 153.284069 
L 83.692331 151.619301 
" style="fill: none; stroke: #b0b0b0; stroke-width: 0.8"/>
    <path d="M 377.582372 121.499371 
L 182.820882 123.592746 
L 83.692331 118.598444 
" style="fill: none; stroke: #b0b0b0; stroke-width: 0.8"/>
    <path d="M 377.582372 90.412465 
L 182.820882 93.901424 
L 83.692331 85.577587 
" style="fill: none; stroke: #b0b0b0; stroke-width: 0.8"/>
   </g>
   <g id="xtick_12">
    <g id="line2d_15">
     <path d="M 375.951658 245.817782 
L 380.847482 245.905486 
" style="fill: none; stroke: #000000; stroke-width: 0.8; stroke-linecap: square"/>
    </g>
    <g id="text_15">
     <!-- $\mathdefault{0}$ -->
     <g transform="translate(392.702434 252.475773)scale(0.1 -0.1)">
      <use xlink:href="#CMR17-30" transform="scale(0.996264)"/>
     </g>
    </g>
   </g>
   <g id="xtick_13">
    <g id="line2d_16">
     <path d="M 375.951658 214.742561 
L 380.847482 214.795183 
" style="fill: none; stroke: #000000; stroke-width: 0.8; stroke-linecap: square"/>
    </g>
    <g id="text_16">
     <!-- $\mathdefault{1}$ -->
     <g transform="translate(392.702434 221.504755)scale(0.1 -0.1)">
      <use xlink:href="#CMR17-31" transform="scale(0.996264)"/>
     </g>
    </g>
   </g>
   <g id="xtick_14">
    <g id="line2d_17">
     <path d="M 375.951658 183.66734 
L 380.847482 183.684881 
" style="fill: none; stroke: #000000; stroke-width: 0.8; stroke-linecap: square"/>
    </g>
    <g id="text_17">
     <!-- $\mathdefault{2}$ -->
     <g transform="translate(392.702434 190.533737)scale(0.1 -0.1)">
      <use xlink:href="#CMR17-32" transform="scale(0.996264)"/>
     </g>
    </g>
   </g>
   <g id="xtick_15">
    <g id="line2d_18">
     <path d="M 375.951658 152.592119 
L 380.847482 152.574579 
" style="fill: none; stroke: #000000; stroke-width: 0.8; stroke-linecap: square"/>
    </g>
    <g id="text_18">
     <!-- $\mathdefault{3}$ -->
     <g transform="translate(392.702434 159.562719)scale(0.1 -0.1)">
      <use xlink:href="#CMR17-33" transform="scale(0.996264)"/>
     </g>
    </g>
   </g>
   <g id="xtick_16">
    <g id="line2d_19">
     <path d="M 375.951658 121.516899 
L 380.847482 121.464276 
" style="fill: none; stroke: #000000; stroke-width: 0.8; stroke-linecap: square"/>
    </g>
    <g id="text_19">
     <!-- $\mathdefault{4}$ -->
     <g transform="translate(392.702434 128.591701)scale(0.1 -0.1)">
      <use xlink:href="#CMR17-34" transform="scale(0.996264)"/>
     </g>
    </g>
   </g>
   <g id="xtick_17">
    <g id="line2d_20">
     <path d="M 375.951658 90.441678 
L 380.847482 90.353974 
" style="fill: none; stroke: #000000; stroke-width: 0.8; stroke-linecap: square"/>
    </g>
    <g id="text_20">
     <!-- $\mathdefault{5}$ -->
     <g transform="translate(392.702434 97.620683)scale(0.1 -0.1)">
      <use xlink:href="#CMR17-35" transform="scale(0.996264)"/>
     </g>
    </g>
   </g>
  </g>
  <g id="axes_1">
   <g id="line2d_21">
    <path d="M 334.910871 250.096587 
L 269.070148 84.27198 
" clip-path="url(#p66860a3c96)" style="fill: none; stroke: #ff0000; stroke-width: 1.5; stroke-linecap: square"/>
   </g>
   <g id="line2d_22">
    <path d="M 334.910871 250.096587 
L 271.352826 120.859976 
" clip-path="url(#p66860a3c96)" style="fill: none; stroke: #00ff00; stroke-width: 1.5; stroke-linecap: square"/>
   </g>
   <g id="line2d_23">
    <path d="M 334.910871 250.096587 
L 224.42587 -1 
" clip-path="url(#p66860a3c96)" style="fill: none; stroke: #0016ff; stroke-width: 1.5; stroke-linecap: square"/>
   </g>
   <g id="line2d_24">
    <path d="M 334.910871 250.096587 
L 167.299255 152.945862 
" clip-path="url(#p66860a3c96)" style="fill: none; stroke: #f400ff; stroke-width: 1.5; stroke-linecap: square"/>
   </g>
   <g id="Poly3DCollection_1">
    <path d="M 220.913403 25.450293 
L 202.760359 -15.05297 
L 198.527399 -27.220593 
L 216.751218 13.428653 
z
" clip-path="url(#p66860a3c96)" style="fill: #0000f5; fill-opacity: 0.1"/>
    <path d="M 239.225436 66.308293 
L 220.913403 25.450293 
L 216.751218 13.428653 
L 235.135434 54.435673 
z
" clip-path="url(#p66860a3c96)" style="fill: #0000f5; fill-opacity: 0.1"/>
    <path d="M 216.751218 13.428653 
L 198.527399 -27.220593 
L 194.25276 -39.508022 
L 212.547871 1.288123 
z
" clip-path="url(#p66860a3c96)" style="fill: #0000f5; fill-opacity: 0.1"/>
    <path d="M 257.698554 107.525709 
L 239.225436 66.308293 
L 235.135434 54.435673 
L 253.682174 95.805212 
z
" clip-path="url(#p66860a3c96)" style="fill: #0000f5; fill-opacity: 0.1"/>
    <path d="M 235.135434 54.435673 
L 216.751218 13.428653 
L 212.547871 1.288123 
L 231.004805 42.445119 
z
" clip-path="url(#p66860a3c96)" style="fill: #0000f5; fill-opacity: 0.1"/>
    <path d="M 212.547871 1.288123 
L 194.25276 -39.508022 
L 189.935824 -51.917034 
L 208.302747 -10.973068 
z
" clip-path="url(#p66860a3c96)" style="fill: #0000f5; fill-opacity: 0.1"/>
    <path d="M 276.334894 149.107306 
L 257.698554 107.525709 
L 253.682174 95.805212 
L 272.393603 137.542098 
z
" clip-path="url(#p66860a3c96)" style="fill: #0000f5; fill-opacity: 0.1"/>
    <path d="M 253.682174 95.805212 
L 235.135434 54.435673 
L 231.004805 42.445119 
L 249.625721 83.967774 
z
" clip-path="url(#p66860a3c96)" style="fill: #0000f5; fill-opacity: 0.1"/>
    <path d="M 231.004805 42.445119 
L 212.547871 1.288123 
L 208.302747 -10.973068 
L 226.832941 30.334864 
z
" clip-path="url(#p66860a3c96)" style="fill: #0000f5; fill-opacity: 0.1"/>
    <path d="M 208.302747 -10.973068 
L 189.935824 -51.917034 
L 185.57596 -64.449444 
L 204.015222 -23.356729 
z
" clip-path="url(#p66860a3c96)" style="fill: #0000f5; fill-opacity: 0.1"/>
    <path d="M 295.136627 191.057931 
L 276.334894 149.107306 
L 272.393603 137.542098 
L 291.271923 179.651245 
z
" clip-path="url(#p66860a3c96)" style="fill: #0000f5; fill-opacity: 0.1"/>
    <path d="M 272.393603 137.542098 
L 253.682174 95.805212 
L 249.625721 83.967774 
L 268.412812 125.860983 
z
" clip-path="url(#p66860a3c96)" style="fill: #0000f5; fill-opacity: 0.1"/>
    <path d="M 249.625721 83.967774 
L 231.004805 42.445119 
L 226.832941 30.334864 
L 245.528591 72.011636 
z
" clip-path="url(#p66860a3c96)" style="fill: #0000f5; fill-opacity: 0.1"/>
    <path d="M 226.832941 30.334864 
L 208.302747 -10.973068 
L 204.015222 -23.356729 
L 222.61922 18.103107 
z
" clip-path="url(#p66860a3c96)" style="fill: #0000f5; fill-opacity: 0.1"/>
    <path d="M 204.015222 -23.356729 
L 185.57596 -64.449444 
L 181.172524 -77.107101 
L 199.684657 -35.864703 
z
" clip-path="url(#p66860a3c96)" style="fill: #0000f5; fill-opacity: 0.1"/>
    <path d="M 314.105966 233.382519 
L 295.136627 191.057931 
L 291.271923 179.651245 
L 310.319378 222.137657 
z
" clip-path="url(#p66860a3c96)" style="fill: #0000f5; fill-opacity: 0.1"/>
    <path d="M 291.271923 179.651245 
L 272.393603 137.542098 
L 268.412812 125.860983 
L 287.368313 168.12973 
z
" clip-path="url(#p66860a3c96)" style="fill: #0000f5; fill-opacity: 0.1"/>
    <path d="M 268.412812 125.860983 
L 249.625721 83.967774 
L 245.528591 72.011636 
L 264.391925 114.062212 
z
" clip-path="url(#p66860a3c96)" style="fill: #0000f5; fill-opacity: 0.1"/>
    <path d="M 245.528591 72.011636 
L 226.832941 30.334864 
L 222.61922 18.103107 
L 241.390171 59.935005 
z
" clip-path="url(#p66860a3c96)" style="fill: #0000f5; fill-opacity: 0.1"/>
    <path d="M 222.61922 18.103107 
L 204.015222 -23.356729 
L 199.684657 -35.864703 
L 218.36301 5.74801 
z
" clip-path="url(#p66860a3c96)" style="fill: #0000f5; fill-opacity: 0.1"/>
    <path d="M 199.684657 -35.864703 
L 181.172524 -77.107101 
L 176.72486 -89.891891 
L 195.310399 -48.498872 
z
" clip-path="url(#p66860a3c96)" style="fill: #0000f5; fill-opacity: 0.1"/>
    <path d="M 333.245162 276.086093 
L 314.105966 233.382519 
L 310.319378 222.137657 
L 329.538251 265.006427 
z
" clip-path="url(#p66860a3c96)" style="fill: #0000f5; fill-opacity: 0.1"/>
    <path d="M 310.319378 222.137657 
L 291.271923 179.651245 
L 287.368313 168.12973 
L 306.494499 210.779085 
z
" clip-path="url(#p66860a3c96)" style="fill: #0000f5; fill-opacity: 0.1"/>
    <path d="M 287.368313 168.12973 
L 268.412812 125.860983 
L 264.391925 114.062212 
L 283.425207 156.491641 
z
" clip-path="url(#p66860a3c96)" style="fill: #0000f5; fill-opacity: 0.1"/>
    <path d="M 264.391925 114.062212 
L 245.528591 72.011636 
L 241.390171 59.935005 
L 260.330332 102.143996 
z
" clip-path="url(#p66860a3c96)" style="fill: #0000f5; fill-opacity: 0.1"/>
    <path d="M 241.390171 59.935005 
L 222.61922 18.103107 
L 218.36301 5.74801 
L 237.209832 47.736048 
z
" clip-path="url(#p66860a3c96)" style="fill: #0000f5; fill-opacity: 0.1"/>
    <path d="M 218.36301 5.74801 
L 199.684657 -35.864703 
L 195.310399 -48.498872 
L 214.063664 -6.732302 
z
" clip-path="url(#p66860a3c96)" style="fill: #0000f5; fill-opacity: 0.1"/>
    <path d="M 195.310399 -48.498872 
L 176.72486 -89.891891 
L 172.232297 -102.80574 
L 190.891786 -61.261155 
z
" clip-path="url(#p66860a3c96)" style="fill: #0000f5; fill-opacity: 0.1"/>
    <path d="M 352.556505 319.173766 
L 333.245162 276.086093 
L 329.538251 265.006427 
L 348.930867 308.262738 
z
" clip-path="url(#p66860a3c96)" style="fill: #0000f5; fill-opacity: 0.1"/>
    <path d="M 329.538251 265.006427 
L 310.319378 222.137657 
L 306.494499 210.779085 
L 325.793686 253.814214 
z
" clip-path="url(#p66860a3c96)" style="fill: #0000f5; fill-opacity: 0.1"/>
    <path d="M 306.494499 210.779085 
L 287.368313 168.12973 
L 283.425207 156.491641 
L 302.630746 199.305069 
z
" clip-path="url(#p66860a3c96)" style="fill: #0000f5; fill-opacity: 0.1"/>
    <path d="M 283.425207 156.491641 
L 264.391925 114.062212 
L 260.330332 102.143996 
L 279.442003 144.735202 
z
" clip-path="url(#p66860a3c96)" style="fill: #0000f5; fill-opacity: 0.1"/>
    <path d="M 260.330332 102.143996 
L 241.390171 59.935005 
L 237.209832 47.736048 
L 256.227413 90.104513 
z
" clip-path="url(#p66860a3c96)" style="fill: #0000f5; fill-opacity: 0.1"/>
    <path d="M 237.209832 47.736048 
L 218.36301 5.74801 
L 214.063664 -6.732302 
L 232.986935 35.412899 
z
" clip-path="url(#p66860a3c96)" style="fill: #0000f5; fill-opacity: 0.1"/>
    <path d="M 214.063664 -6.732302 
L 195.310399 -48.498872 
L 190.891786 -61.261155 
L 209.720524 -19.339742 
z
" clip-path="url(#p66860a3c96)" style="fill: #0000f5; fill-opacity: 0.1"/>
    <path d="M 190.891786 -61.261155 
L 172.232297 -102.80574 
L 167.694154 -115.850613 
L 186.428138 -74.153512 
z
" clip-path="url(#p66860a3c96)" style="fill: #0000f5; fill-opacity: 0.1"/>
    <path d="M 372.042331 362.650744 
L 352.556505 319.173766 
L 348.930867 308.262738 
L 368.499591 351.911871 
z
" clip-path="url(#p66860a3c96)" style="fill: #0000f5; fill-opacity: 0.1"/>
    <path d="M 348.930867 308.262738 
L 329.538251 265.006427 
L 325.793686 253.814214 
L 345.268232 297.240373 
z
" clip-path="url(#p66860a3c96)" style="fill: #0000f5; fill-opacity: 0.1"/>
    <path d="M 325.793686 253.814214 
L 306.494499 210.779085 
L 302.630746 199.305069 
L 322.01089 242.50773 
z
" clip-path="url(#p66860a3c96)" style="fill: #0000f5; fill-opacity: 0.1"/>
    <path d="M 302.630746 199.305069 
L 283.425207 156.491641 
L 279.442003 144.735202 
L 298.727522 187.713839 
z
" clip-path="url(#p66860a3c96)" style="fill: #0000f5; fill-opacity: 0.1"/>
    <path d="M 279.442003 144.735202 
L 260.330332 102.143996 
L 256.227413 90.104513 
L 275.418085 132.858598 
z
" clip-path="url(#p66860a3c96)" style="fill: #0000f5; fill-opacity: 0.1"/>
    <path d="M 256.227413 90.104513 
L 237.209832 47.736048 
L 232.986935 35.412899 
L 252.082534 77.941903 
z
" clip-path="url(#p66860a3c96)" style="fill: #0000f5; fill-opacity: 0.1"/>
    <path d="M 232.986935 35.412899 
L 214.063664 -6.732302 
L 209.720524 -19.339742 
L 228.720826 22.96365 
z
" clip-path="url(#p66860a3c96)" style="fill: #0000f5; fill-opacity: 0.1"/>
    <path d="M 209.720524 -19.339742 
L 190.891786 -61.261155 
L 186.428138 -74.153512 
L 205.332917 -32.076263 
z
" clip-path="url(#p66860a3c96)" style="fill: #0000f5; fill-opacity: 0.1"/>
    <path d="M 186.428138 -74.153512 
L 167.694154 -115.850613 
L 163.109731 -129.028513 
L 181.918763 -87.17794 
z
" clip-path="url(#p66860a3c96)" style="fill: #0000f5; fill-opacity: 0.1"/>
    <path d="M 368.499591 351.911871 
L 348.930867 308.262738 
L 345.268232 297.240373 
L 364.920537 341.062918 
z
" clip-path="url(#p66860a3c96)" style="fill: #0000f5; fill-opacity: 0.1"/>
    <path d="M 345.268232 297.240373 
L 325.793686 253.814214 
L 322.01089 242.50773 
L 341.568031 286.104958 
z
" clip-path="url(#p66860a3c96)" style="fill: #0000f5; fill-opacity: 0.1"/>
    <path d="M 322.01089 242.50773 
L 302.630746 199.305069 
L 298.727522 187.713839 
L 318.189273 231.085217 
z
" clip-path="url(#p66860a3c96)" style="fill: #0000f5; fill-opacity: 0.1"/>
    <path d="M 298.727522 187.713839 
L 279.442003 144.735202 
L 275.418085 132.858598 
L 294.78422 176.003591 
z
" clip-path="url(#p66860a3c96)" style="fill: #0000f5; fill-opacity: 0.1"/>
    <path d="M 275.418085 132.858598 
L 256.227413 90.104513 
L 252.082534 77.941903 
L 271.352826 120.859976 
z
" clip-path="url(#p66860a3c96)" style="fill: #0000f5; fill-opacity: 0.1"/>
    <path d="M 252.082534 77.941903 
L 232.986935 35.412899 
L 228.720826 22.96365 
L 247.895048 65.654266 
z
" clip-path="url(#p66860a3c96)" style="fill: #0000f5; fill-opacity: 0.1"/>
    <path d="M 228.720826 22.96365 
L 209.720524 -19.339742 
L 205.332917 -32.076263 
L 224.410839 10.386357 
z
" clip-path="url(#p66860a3c96)" style="fill: #0000f5; fill-opacity: 0.1"/>
    <path d="M 205.332917 -32.076263 
L 186.428138 -74.153512 
L 181.918763 -87.17794 
L 200.900157 -44.943856 
z
" clip-path="url(#p66860a3c96)" style="fill: #0000f5; fill-opacity: 0.1"/>
    <path d="M 181.918763 -87.17794 
L 163.109731 -129.028513 
L 158.478319 -142.341486 
L 177.362956 -100.336479 
z
" clip-path="url(#p66860a3c96)" style="fill: #0000f5; fill-opacity: 0.1"/>
    <path d="M 364.920537 341.062918 
L 345.268232 297.240373 
L 341.568031 286.104958 
L 361.304605 330.102182 
z
" clip-path="url(#p66860a3c96)" style="fill: #0000f5; fill-opacity: 0.1"/>
    <path d="M 341.568031 286.104958 
L 322.01089 242.50773 
L 318.189273 231.085217 
L 337.829684 274.854744 
z
" clip-path="url(#p66860a3c96)" style="fill: #0000f5; fill-opacity: 0.1"/>
    <path d="M 318.189273 231.085217 
L 298.727522 187.713839 
L 294.78422 176.003591 
L 314.328237 219.54488 
z
" clip-path="url(#p66860a3c96)" style="fill: #0000f5; fill-opacity: 0.1"/>
    <path d="M 294.78422 176.003591 
L 275.418085 132.858598 
L 271.352826 120.859976 
L 290.800219 164.172482 
z
" clip-path="url(#p66860a3c96)" style="fill: #0000f5; fill-opacity: 0.1"/>
    <path d="M 271.352826 120.859976 
L 252.082534 77.941903 
L 247.895048 65.654266 
L 267.245587 108.737447 
z
" clip-path="url(#p66860a3c96)" style="fill: #0000f5; fill-opacity: 0.1"/>
    <path d="M 247.895048 65.654266 
L 228.720826 22.96365 
L 224.410839 10.386357 
L 243.664293 53.239666 
z
" clip-path="url(#p66860a3c96)" style="fill: #0000f5; fill-opacity: 0.1"/>
    <path d="M 224.410839 10.386357 
L 205.332917 -32.076263 
L 200.900157 -44.943856 
L 220.056294 -2.320966 
z
" clip-path="url(#p66860a3c96)" style="fill: #0000f5; fill-opacity: 0.1"/>
    <path d="M 200.900157 -44.943856 
L 181.918763 -87.17794 
L 177.362956 -100.336479 
L 196.421543 -57.944557 
z
" clip-path="url(#p66860a3c96)" style="fill: #0000f5; fill-opacity: 0.1"/>
    <path d="M 177.362956 -100.336479 
L 158.478319 -142.341486 
L 153.799191 -155.791618 
L 172.759995 -113.631213 
z
" clip-path="url(#p66860a3c96)" style="fill: #0000f5; fill-opacity: 0.1"/>
    <path d="M 361.304605 330.102182 
L 341.568031 286.104958 
L 337.829684 274.854744 
L 357.651224 319.027928 
z
" clip-path="url(#p66860a3c96)" style="fill: #0000f5; fill-opacity: 0.1"/>
    <path d="M 337.829684 274.854744 
L 318.189273 231.085217 
L 314.328237 219.54488 
L 334.052597 263.487948 
z
" clip-path="url(#p66860a3c96)" style="fill: #0000f5; fill-opacity: 0.1"/>
    <path d="M 314.328237 219.54488 
L 294.78422 176.003591 
L 290.800219 164.172482 
L 310.427166 207.884885 
z
" clip-path="url(#p66860a3c96)" style="fill: #0000f5; fill-opacity: 0.1"/>
    <path d="M 290.800219 164.172482 
L 271.352826 120.859976 
L 267.245587 108.737447 
L 286.774887 152.218632 
z
" clip-path="url(#p66860a3c96)" style="fill: #0000f5; fill-opacity: 0.1"/>
    <path d="M 267.245587 108.737447 
L 247.895048 65.654266 
L 243.664293 53.239666 
L 263.095712 96.489081 
z
" clip-path="url(#p66860a3c96)" style="fill: #0000f5; fill-opacity: 0.1"/>
    <path d="M 243.664293 53.239666 
L 224.410839 10.386357 
L 220.056294 -2.320966 
L 239.389597 40.696124 
z
" clip-path="url(#p66860a3c96)" style="fill: #0000f5; fill-opacity: 0.1"/>
    <path d="M 220.056294 -2.320966 
L 200.900157 -44.943856 
L 196.421543 -57.944557 
L 215.656494 -15.160347 
z
" clip-path="url(#p66860a3c96)" style="fill: #0000f5; fill-opacity: 0.1"/>
    <path d="M 196.421543 -57.944557 
L 177.362956 -100.336479 
L 172.759995 -113.631213 
L 191.896359 -71.08044 
z
" clip-path="url(#p66860a3c96)" style="fill: #0000f5; fill-opacity: 0.1"/>
    <path d="M 172.759995 -113.631213 
L 153.799191 -155.791618 
L 149.071605 -169.381041 
L 168.109145 -127.064265 
z
" clip-path="url(#p66860a3c96)" style="fill: #0000f5; fill-opacity: 0.1"/>
    <path d="M 357.651224 319.027928 
L 337.829684 274.854744 
L 334.052597 263.487948 
L 353.959809 307.838383 
z
" clip-path="url(#p66860a3c96)" style="fill: #0000f5; fill-opacity: 0.1"/>
    <path d="M 334.052597 263.487948 
L 314.328237 219.54488 
L 310.427166 207.884885 
L 330.236166 252.002747 
z
" clip-path="url(#p66860a3c96)" style="fill: #0000f5; fill-opacity: 0.1"/>
    <path d="M 310.427166 207.884885 
L 290.800219 164.172482 
L 286.774887 152.218632 
L 306.485437 196.103362 
z
" clip-path="url(#p66860a3c96)" style="fill: #0000f5; fill-opacity: 0.1"/>
    <path d="M 286.774887 152.218632 
L 267.245587 108.737447 
L 263.095712 96.489081 
L 282.707576 140.140119 
z
" clip-path="url(#p66860a3c96)" style="fill: #0000f5; fill-opacity: 0.1"/>
    <path d="M 263.095712 96.489081 
L 243.664293 53.239666 
L 239.389597 40.696124 
L 258.902536 84.112909 
z
" clip-path="url(#p66860a3c96)" style="fill: #0000f5; fill-opacity: 0.1"/>
    <path d="M 239.389597 40.696124 
L 220.056294 -2.320966 
L 215.656494 -15.160347 
L 235.07027 28.021621 
z
" clip-path="url(#p66860a3c96)" style="fill: #0000f5; fill-opacity: 0.1"/>
    <path d="M 215.656494 -15.160347 
L 196.421543 -57.944557 
L 191.896359 -71.08044 
L 211.210733 -28.133854 
z
" clip-path="url(#p66860a3c96)" style="fill: #0000f5; fill-opacity: 0.1"/>
    <path d="M 191.896359 -71.08044 
L 172.759995 -113.631213 
L 168.109145 -127.064265 
L 187.323876 -84.353626 
z
" clip-path="url(#p66860a3c96)" style="fill: #0000f5; fill-opacity: 0.1"/>
    <path d="M 168.109145 -127.064265 
L 149.071605 -169.381041 
L 144.294805 -183.111931 
L 163.409654 -140.637807 
z
" clip-path="url(#p66860a3c96)" style="fill: #0000f5; fill-opacity: 0.1"/>
    <path d="M 353.959809 307.838383 
L 334.052597 263.487948 
L 330.236166 252.002747 
L 350.229762 296.531736 
z
" clip-path="url(#p66860a3c96)" style="fill: #0000f5; fill-opacity: 0.1"/>
    <path d="M 330.236166 252.002747 
L 310.427166 207.884885 
L 306.485437 196.103362 
L 326.379772 240.397282 
z
" clip-path="url(#p66860a3c96)" style="fill: #0000f5; fill-opacity: 0.1"/>
    <path d="M 306.485437 196.103362 
L 286.774887 152.218632 
L 282.707576 140.140119 
L 302.502409 184.198401 
z
" clip-path="url(#p66860a3c96)" style="fill: #0000f5; fill-opacity: 0.1"/>
    <path d="M 282.707576 140.140119 
L 263.095712 96.489081 
L 258.902536 84.112909 
L 278.597626 127.934985 
z
" clip-path="url(#p66860a3c96)" style="fill: #0000f5; fill-opacity: 0.1"/>
    <path d="M 258.902536 84.112909 
L 239.389597 40.696124 
L 235.07027 28.021621 
L 254.665376 71.60692 
z
" clip-path="url(#p66860a3c96)" style="fill: #0000f5; fill-opacity: 0.1"/>
    <path d="M 235.07027 28.021621 
L 215.656494 -15.160347 
L 211.210733 -28.133854 
L 230.705611 15.214096 
z
" clip-path="url(#p66860a3c96)" style="fill: #0000f5; fill-opacity: 0.1"/>
    <path d="M 211.210733 -28.133854 
L 191.896359 -71.08044 
L 187.323876 -84.353626 
L 206.718285 -41.2436 
z
" clip-path="url(#p66860a3c96)" style="fill: #0000f5; fill-opacity: 0.1"/>
    <path d="M 187.323876 -84.353626 
L 168.109145 -127.064265 
L 163.409654 -140.637807 
L 182.703349 -97.766279 
z
" clip-path="url(#p66860a3c96)" style="fill: #0000f5; fill-opacity: 0.1"/>
    <path d="M 163.409654 -140.637807 
L 144.294805 -183.111931 
L 139.468019 -196.986506 
L 158.660755 -154.354053 
z
" clip-path="url(#p66860a3c96)" style="fill: #0000f5; fill-opacity: 0.1"/>
    <path d="M 350.229762 296.531736 
L 330.236166 252.002747 
L 326.379772 240.397282 
L 346.460474 285.10614 
z
" clip-path="url(#p66860a3c96)" style="fill: #0000f5; fill-opacity: 0.1"/>
    <path d="M 326.379772 240.397282 
L 306.485437 196.103362 
L 302.502409 184.198401 
L 322.482784 228.669653 
z
" clip-path="url(#p66860a3c96)" style="fill: #0000f5; fill-opacity: 0.1"/>
    <path d="M 302.502409 184.198401 
L 282.707576 140.140119 
L 278.597626 127.934985 
L 298.47743 172.168053 
z
" clip-path="url(#p66860a3c96)" style="fill: #0000f5; fill-opacity: 0.1"/>
    <path d="M 278.597626 127.934985 
L 258.902536 84.112909 
L 254.665376 71.60692 
L 274.444363 115.601226 
z
" clip-path="url(#p66860a3c96)" style="fill: #0000f5; fill-opacity: 0.1"/>
    <path d="M 254.665376 71.60692 
L 235.07027 28.021621 
L 230.705611 15.214096 
L 250.383537 58.96906 
z
" clip-path="url(#p66860a3c96)" style="fill: #0000f5; fill-opacity: 0.1"/>
    <path d="M 230.705611 15.214096 
L 211.210733 -28.133854 
L 206.718285 -41.2436 
L 226.294902 2.271442 
z
" clip-path="url(#p66860a3c96)" style="fill: #0000f5; fill-opacity: 0.1"/>
    <path d="M 206.718285 -41.2436 
L 187.323876 -84.353626 
L 182.703349 -97.766279 
L 202.178411 -54.491743 
z
" clip-path="url(#p66860a3c96)" style="fill: #0000f5; fill-opacity: 0.1"/>
    <path d="M 182.703349 -97.766279 
L 163.409654 -140.637807 
L 158.660755 -154.354053 
L 178.034015 -111.320607 
z
" clip-path="url(#p66860a3c96)" style="fill: #0000f5; fill-opacity: 0.1"/>
    <path d="M 158.660755 -154.354053 
L 139.468019 -196.986506 
L 134.590457 -211.007035 
L 153.861665 -168.215266 
z
" clip-path="url(#p66860a3c96)" style="fill: #0000f5; fill-opacity: 0.1"/>
    <path d="M 346.460474 285.10614 
L 326.379772 240.397282 
L 322.482784 228.669653 
L 342.651322 273.559709 
z
" clip-path="url(#p66860a3c96)" style="fill: #0000f5; fill-opacity: 0.1"/>
    <path d="M 322.482784 228.669653 
L 302.502409 184.198401 
L 298.47743 172.168053 
L 318.544558 216.817923 
z
" clip-path="url(#p66860a3c96)" style="fill: #0000f5; fill-opacity: 0.1"/>
    <path d="M 298.47743 172.168053 
L 278.597626 127.934985 
L 274.444363 115.601226 
L 294.409833 160.010325 
z
" clip-path="url(#p66860a3c96)" style="fill: #0000f5; fill-opacity: 0.1"/>
    <path d="M 274.444363 115.601226 
L 254.665376 71.60692 
L 250.383537 58.96906 
L 270.2471 103.1368 
z
" clip-path="url(#p66860a3c96)" style="fill: #0000f5; fill-opacity: 0.1"/>
    <path d="M 250.383537 58.96906 
L 230.705611 15.214096 
L 226.294902 2.271442 
L 246.056308 46.197233 
z
" clip-path="url(#p66860a3c96)" style="fill: #0000f5; fill-opacity: 0.1"/>
    <path d="M 226.294902 2.271442 
L 206.718285 -41.2436 
L 202.178411 -54.491743 
L 221.83741 -10.80849 
z
" clip-path="url(#p66860a3c96)" style="fill: #0000f5; fill-opacity: 0.1"/>
    <path d="M 202.178411 -54.491743 
L 182.703349 -97.766279 
L 178.034015 -111.320607 
L 197.590356 -67.880486 
z
" clip-path="url(#p66860a3c96)" style="fill: #0000f5; fill-opacity: 0.1"/>
    <path d="M 178.034015 -111.320607 
L 158.660755 -154.354053 
L 153.861665 -168.215266 
L 173.315097 -125.018869 
z
" clip-path="url(#p66860a3c96)" style="fill: #0000f5; fill-opacity: 0.1"/>
    <path d="M 153.861665 -168.215266 
L 134.590457 -211.007035 
L 129.661314 -225.175832 
L 149.011584 -182.223756 
z
" clip-path="url(#p66860a3c96)" style="fill: #0000f5; fill-opacity: 0.1"/>
    <path d="M 342.651322 273.559709 
L 322.482784 228.669653 
L 318.544558 216.817923 
L 338.801671 261.890514 
z
" clip-path="url(#p66860a3c96)" style="fill: #0000f5; fill-opacity: 0.1"/>
    <path d="M 318.544558 216.817923 
L 298.47743 172.168053 
L 294.409833 160.010325 
L 314.564436 204.84011 
z
" clip-path="url(#p66860a3c96)" style="fill: #0000f5; fill-opacity: 0.1"/>
    <path d="M 294.409833 160.010325 
L 274.444363 115.601226 
L 270.2471 103.1368 
L 290.298939 147.723184 
z
" clip-path="url(#p66860a3c96)" style="fill: #0000f5; fill-opacity: 0.1"/>
    <path d="M 270.2471 103.1368 
L 250.383537 58.96906 
L 246.056308 46.197233 
L 266.005132 90.539619 
z
" clip-path="url(#p66860a3c96)" style="fill: #0000f5; fill-opacity: 0.1"/>
    <path d="M 246.056308 46.197233 
L 226.294902 2.271442 
L 221.83741 -10.80849 
L 241.682965 33.289298 
z
" clip-path="url(#p66860a3c96)" style="fill: #0000f5; fill-opacity: 0.1"/>
    <path d="M 221.83741 -10.80849 
L 202.178411 -54.491743 
L 197.590356 -67.880486 
L 217.332387 -24.027895 
z
" clip-path="url(#p66860a3c96)" style="fill: #0000f5; fill-opacity: 0.1"/>
    <path d="M 197.590356 -67.880486 
L 178.034015 -111.320607 
L 173.315097 -125.018869 
L 192.95335 -81.412078 
z
" clip-path="url(#p66860a3c96)" style="fill: #0000f5; fill-opacity: 0.1"/>
    <path d="M 173.315097 -125.018869 
L 153.861665 -168.215266 
L 149.011584 -182.223756 
L 168.545803 -138.863369 
z
" clip-path="url(#p66860a3c96)" style="fill: #0000f5; fill-opacity: 0.1"/>
    <path d="M 149.011584 -182.223756 
L 129.661314 -225.175832 
L 124.679768 -239.495263 
L 144.109695 -196.381884 
z
" clip-path="url(#p66860a3c96)" style="fill: #0000f5; fill-opacity: 0.1"/>
    <path d="M 338.801671 261.890514 
L 318.544558 216.817923 
L 314.564436 204.84011 
L 334.910871 250.096587 
z
" clip-path="url(#p66860a3c96)" style="fill: #0000f5; fill-opacity: 0.1"/>
    <path d="M 314.564436 204.84011 
L 294.409833 160.010325 
L 290.298939 147.723184 
L 310.541745 192.734192 
z
" clip-path="url(#p66860a3c96)" style="fill: #0000f5; fill-opacity: 0.1"/>
    <path d="M 290.298939 147.723184 
L 270.2471 103.1368 
L 266.005132 90.539619 
L 286.144053 135.304552 
z
" clip-path="url(#p66860a3c96)" style="fill: #0000f5; fill-opacity: 0.1"/>
    <path d="M 266.005132 90.539619 
L 246.056308 46.197233 
L 241.682965 33.289298 
L 261.717743 77.807549 
z
" clip-path="url(#p66860a3c96)" style="fill: #0000f5; fill-opacity: 0.1"/>
    <path d="M 241.682965 33.289298 
L 221.83741 -10.80849 
L 217.332387 -24.027895 
L 237.262765 20.243066 
z
" clip-path="url(#p66860a3c96)" style="fill: #0000f5; fill-opacity: 0.1"/>
    <path d="M 217.332387 -24.027895 
L 197.590356 -67.880486 
L 192.95335 -81.412078 
L 212.779069 -37.389017 
z
" clip-path="url(#p66860a3c96)" style="fill: #0000f5; fill-opacity: 0.1"/>
    <path d="M 192.95335 -81.412078 
L 173.315097 -125.018869 
L 168.545803 -138.863369 
L 188.266604 -95.088819 
z
" clip-path="url(#p66860a3c96)" style="fill: #0000f5; fill-opacity: 0.1"/>
    <path d="M 168.545803 -138.863369 
L 149.011584 -182.223756 
L 144.109695 -196.381884 
L 163.725319 -152.85646 
z
" clip-path="url(#p66860a3c96)" style="fill: #0000f5; fill-opacity: 0.1"/>
    <path d="M 144.109695 -196.381884 
L 124.679768 -239.495263 
L 119.644978 -253.967742 
L 139.155164 -210.692059 
z
" clip-path="url(#p66860a3c96)" style="fill: #0000f5; fill-opacity: 0.1"/>
    <path d="M 334.910871 250.096587 
L 314.564436 204.84011 
L 310.541745 192.734192 
L 330.978259 238.175919 
z
" clip-path="url(#p66860a3c96)" style="fill: #0000f5; fill-opacity: 0.1"/>
    <path d="M 310.541745 192.734192 
L 290.298939 147.723184 
L 286.144053 135.304552 
L 306.4758 180.498102 
z
" clip-path="url(#p66860a3c96)" style="fill: #0000f5; fill-opacity: 0.1"/>
    <path d="M 286.144053 135.304552 
L 266.005132 90.539619 
L 261.717743 77.807549 
L 281.944464 122.752307 
z
" clip-path="url(#p66860a3c96)" style="fill: #0000f5; fill-opacity: 0.1"/>
    <path d="M 261.717743 77.807549 
L 241.682965 33.289298 
L 237.262765 20.243066 
L 257.384198 64.938415 
z
" clip-path="url(#p66860a3c96)" style="fill: #0000f5; fill-opacity: 0.1"/>
    <path d="M 237.262765 20.243066 
L 217.332387 -24.027895 
L 212.779069 -37.389017 
L 232.794952 7.056304 
z
" clip-path="url(#p66860a3c96)" style="fill: #0000f5; fill-opacity: 0.1"/>
    <path d="M 212.779069 -37.389017 
L 192.95335 -81.412078 
L 188.266604 -95.088819 
L 208.176674 -50.894147 
z
" clip-path="url(#p66860a3c96)" style="fill: #0000f5; fill-opacity: 0.1"/>
    <path d="M 188.266604 -95.088819 
L 168.545803 -138.863369 
L 163.725319 -152.85646 
L 183.529314 -108.913057 
z
" clip-path="url(#p66860a3c96)" style="fill: #0000f5; fill-opacity: 0.1"/>
    <path d="M 163.725319 -152.85646 
L 144.109695 -196.381884 
L 139.155164 -210.692059 
L 158.852819 -167.000549 
z
" clip-path="url(#p66860a3c96)" style="fill: #0000f5; fill-opacity: 0.1"/>
    <path d="M 139.155164 -210.692059 
L 119.644978 -253.967742 
L 114.556087 -268.595736 
L 134.147137 -225.156745 
z
" clip-path="url(#p66860a3c96)" style="fill: #0000f5; fill-opacity: 0.1"/>
    <path d="M 330.978259 238.175919 
L 310.541745 192.734192 
L 306.4758 180.498102 
L 327.003157 226.126454 
z
" clip-path="url(#p66860a3c96)" style="fill: #0000f5; fill-opacity: 0.1"/>
    <path d="M 306.4758 180.498102 
L 286.144053 135.304552 
L 281.944464 122.752307 
L 302.365899 168.12973 
z
" clip-path="url(#p66860a3c96)" style="fill: #0000f5; fill-opacity: 0.1"/>
    <path d="M 281.944464 122.752307 
L 261.717743 77.807549 
L 257.384198 64.938415 
L 277.699447 110.064282 
z
" clip-path="url(#p66860a3c96)" style="fill: #0000f5; fill-opacity: 0.1"/>
    <path d="M 257.384198 64.938415 
L 237.262765 20.243066 
L 232.794952 7.056304 
L 253.003748 51.929989 
z
" clip-path="url(#p66860a3c96)" style="fill: #0000f5; fill-opacity: 0.1"/>
    <path d="M 232.794952 7.056304 
L 212.779069 -37.389017 
L 208.176674 -50.894147 
L 228.278752 -6.273272 
z
" clip-path="url(#p66860a3c96)" style="fill: #0000f5; fill-opacity: 0.1"/>
    <path d="M 208.176674 -50.894147 
L 188.266604 -95.088819 
L 183.529314 -108.913057 
L 203.524406 -64.545624 
z
" clip-path="url(#p66860a3c96)" style="fill: #0000f5; fill-opacity: 0.1"/>
    <path d="M 183.529314 -108.913057 
L 163.725319 -152.85646 
L 158.852819 -167.000549 
L 178.740658 -122.88719 
z
" clip-path="url(#p66860a3c96)" style="fill: #0000f5; fill-opacity: 0.1"/>
    <path d="M 158.852819 -167.000549 
L 139.155164 -210.692059 
L 134.147137 -225.156745 
L 153.927455 -181.298093 
z
" clip-path="url(#p66860a3c96)" style="fill: #0000f5; fill-opacity: 0.1"/>
    <path d="M 327.003157 226.126454 
L 306.4758 180.498102 
L 302.365899 168.12973 
L 322.984874 213.946095 
z
" clip-path="url(#p66860a3c96)" style="fill: #0000f5; fill-opacity: 0.1"/>
    <path d="M 302.365899 168.12973 
L 281.944464 122.752307 
L 277.699447 110.064282 
L 298.211325 155.626918 
z
" clip-path="url(#p66860a3c96)" style="fill: #0000f5; fill-opacity: 0.1"/>
    <path d="M 277.699447 110.064282 
L 257.384198 64.938415 
L 253.003748 51.929989 
L 273.40826 97.238261 
z
" clip-path="url(#p66860a3c96)" style="fill: #0000f5; fill-opacity: 0.1"/>
    <path d="M 253.003748 51.929989 
L 232.794952 7.056304 
L 228.278752 -6.273272 
L 248.575628 38.779998 
z
" clip-path="url(#p66860a3c96)" style="fill: #0000f5; fill-opacity: 0.1"/>
    <path d="M 228.278752 -6.273272 
L 208.176674 -50.894147 
L 203.524406 -64.545624 
L 223.713375 -19.747995 
z
" clip-path="url(#p66860a3c96)" style="fill: #0000f5; fill-opacity: 0.1"/>
    <path d="M 203.524406 -64.545624 
L 183.529314 -108.913057 
L 178.740658 -122.88719 
L 198.821449 -78.345842 
z
" clip-path="url(#p66860a3c96)" style="fill: #0000f5; fill-opacity: 0.1"/>
    <path d="M 178.740658 -122.88719 
L 158.852819 -167.000549 
L 153.927455 -181.298093 
L 173.899795 -137.01367 
z
" clip-path="url(#p66860a3c96)" style="fill: #0000f5; fill-opacity: 0.1"/>
    <path d="M 322.984874 213.946095 
L 302.365899 168.12973 
L 298.211325 155.626918 
L 318.922701 201.632696 
z
" clip-path="url(#p66860a3c96)" style="fill: #0000f5; fill-opacity: 0.1"/>
    <path d="M 298.211325 155.626918 
L 277.699447 110.064282 
L 273.40826 97.238261 
L 294.011345 142.987464 
z
" clip-path="url(#p66860a3c96)" style="fill: #0000f5; fill-opacity: 0.1"/>
    <path d="M 273.40826 97.238261 
L 253.003748 51.929989 
L 248.575628 38.779998 
L 269.070148 84.27198 
z
" clip-path="url(#p66860a3c96)" style="fill: #0000f5; fill-opacity: 0.1"/>
    <path d="M 248.575628 38.779998 
L 228.278752 -6.273272 
L 223.713375 -19.747995 
L 244.099055 25.486119 
z
" clip-path="url(#p66860a3c96)" style="fill: #0000f5; fill-opacity: 0.1"/>
    <path d="M 223.713375 -19.747995 
L 203.524406 -64.545624 
L 198.821449 -78.345842 
L 219.098014 -33.370247 
z
" clip-path="url(#p66860a3c96)" style="fill: #0000f5; fill-opacity: 0.1"/>
    <path d="M 198.821449 -78.345842 
L 178.740658 -122.88719 
L 173.899795 -137.01367 
L 194.06697 -92.297245 
z
" clip-path="url(#p66860a3c96)" style="fill: #0000f5; fill-opacity: 0.1"/>
    <path d="M 318.922701 201.632696 
L 298.211325 155.626918 
L 294.011345 142.987464 
L 314.815915 189.184066 
z
" clip-path="url(#p66860a3c96)" style="fill: #0000f5; fill-opacity: 0.1"/>
    <path d="M 294.011345 142.987464 
L 273.40826 97.238261 
L 269.070148 84.27198 
L 289.765211 130.209114 
z
" clip-path="url(#p66860a3c96)" style="fill: #0000f5; fill-opacity: 0.1"/>
    <path d="M 269.070148 84.27198 
L 248.575628 38.779998 
L 244.099055 25.486119 
L 264.684334 71.163127 
z
" clip-path="url(#p66860a3c96)" style="fill: #0000f5; fill-opacity: 0.1"/>
    <path d="M 244.099055 25.486119 
L 223.713375 -19.747995 
L 219.098014 -33.370247 
L 239.57323 12.045976 
z
" clip-path="url(#p66860a3c96)" style="fill: #0000f5; fill-opacity: 0.1"/>
    <path d="M 219.098014 -33.370247 
L 198.821449 -78.345842 
L 194.06697 -92.297245 
L 214.431842 -47.142466 
z
" clip-path="url(#p66860a3c96)" style="fill: #0000f5; fill-opacity: 0.1"/>
    <path d="M 314.815915 189.184066 
L 294.011345 142.987464 
L 289.765211 130.209114 
L 310.663778 176.597965 
z
" clip-path="url(#p66860a3c96)" style="fill: #0000f5; fill-opacity: 0.1"/>
    <path d="M 289.765211 130.209114 
L 269.070148 84.27198 
L 264.684334 71.163127 
L 285.472159 117.289566 
z
" clip-path="url(#p66860a3c96)" style="fill: #0000f5; fill-opacity: 0.1"/>
    <path d="M 264.684334 71.163127 
L 244.099055 25.486119 
L 239.57323 12.045976 
L 260.25003 57.909336 
z
" clip-path="url(#p66860a3c96)" style="fill: #0000f5; fill-opacity: 0.1"/>
    <path d="M 239.57323 12.045976 
L 219.098014 -33.370247 
L 214.431842 -47.142466 
L 234.997334 -1.542856 
z
" clip-path="url(#p66860a3c96)" style="fill: #0000f5; fill-opacity: 0.1"/>
    <path d="M 310.663778 176.597965 
L 289.765211 130.209114 
L 285.472159 117.289566 
L 306.465534 163.872103 
z
" clip-path="url(#p66860a3c96)" style="fill: #0000f5; fill-opacity: 0.1"/>
    <path d="M 285.472159 117.289566 
L 264.684334 71.163127 
L 260.25003 57.909336 
L 281.131406 104.226468 
z
" clip-path="url(#p66860a3c96)" style="fill: #0000f5; fill-opacity: 0.1"/>
    <path d="M 260.25003 57.909336 
L 239.57323 12.045976 
L 234.997334 -1.542856 
L 255.766425 44.508191 
z
" clip-path="url(#p66860a3c96)" style="fill: #0000f5; fill-opacity: 0.1"/>
    <path d="M 306.465534 163.872103 
L 285.472159 117.289566 
L 281.131406 104.226468 
L 302.22041 151.00414 
z
" clip-path="url(#p66860a3c96)" style="fill: #0000f5; fill-opacity: 0.1"/>
    <path d="M 281.131406 104.226468 
L 260.25003 57.909336 
L 255.766425 44.508191 
L 276.742153 91.017413 
z
" clip-path="url(#p66860a3c96)" style="fill: #0000f5; fill-opacity: 0.1"/>
    <path d="M 302.22041 151.00414 
L 281.131406 104.226468 
L 276.742153 91.017413 
L 297.927618 137.991681 
z
" clip-path="url(#p66860a3c96)" style="fill: #0000f5; fill-opacity: 0.1"/>
   </g>
   <g id="legend_1">
    <g id="patch_6">
     <path d="M 357.840076 67.305115 
L 396.2 67.305115 
Q 398.2 67.305115 398.2 65.305115 
L 398.2 7 
Q 398.2 5 396.2 5 
L 357.840076 5 
Q 355.840076 5 355.840076 7 
L 355.840076 65.305115 
Q 355.840076 67.305115 357.840076 67.305115 
z
" style="fill: #ffffff; opacity: 0.8; stroke: #cccccc; stroke-linejoin: miter"/>
    </g>
    <g id="line2d_25">
     <path d="M 359.840076 12.5 
L 369.840076 12.5 
L 379.840076 12.5 
" style="fill: none; stroke: #ff0000; stroke-width: 1.5; stroke-linecap: square"/>
    </g>
    <g id="text_21">
     <!-- $\vec{a}$ -->
     <g transform="translate(387.840076 16)scale(0.1 -0.1)">
      <defs>
       <path id="CMMI12-7e" d="M 3424 3835 
C 3347 3764 3110 3540 3110 3451 
C 3110 3387 3168 3329 3232 3329 
C 3290 3329 3315 3368 3360 3432 
C 3514 3624 3686 3745 3834 3828 
C 3898 3867 3942 3886 3942 3956 
C 3942 4014 3891 4046 3853 4078 
C 3674 4200 3629 4372 3610 4449 
C 3590 4500 3571 4577 3482 4577 
C 3443 4577 3366 4552 3366 4456 
C 3366 4398 3405 4244 3526 4072 
L 1376 4072 
C 1267 4072 1158 4072 1158 3950 
C 1158 3835 1274 3835 1376 3835 
L 3424 3835 
z
" transform="scale(0.015625)"/>
       <path id="CMMI12-61" d="M 1926 760 
C 1894 651 1894 639 1805 517 
C 1664 338 1382 64 1082 64 
C 819 64 672 300 672 677 
C 672 1028 870 1743 992 2012 
C 1210 2459 1510 2689 1760 2689 
C 2182 2689 2266 2165 2266 2114 
C 2266 2108 2246 2024 2240 2012 
L 1926 760 
z
M 2336 2395 
C 2266 2561 2093 2816 1760 2816 
C 1037 2816 256 1884 256 939 
C 256 307 627 -64 1062 -64 
C 1414 -64 1715 211 1894 422 
C 1958 45 2259 -64 2451 -64 
C 2643 -64 2797 51 2912 281 
C 3014 498 3104 888 3104 913 
C 3104 945 3078 971 3040 971 
C 2982 971 2976 939 2950 843 
C 2854 466 2733 64 2470 64 
C 2285 64 2272 230 2272 358 
C 2272 505 2291 575 2349 824 
C 2394 984 2426 1124 2477 1309 
C 2714 2267 2771 2497 2771 2535 
C 2771 2625 2701 2695 2605 2695 
C 2400 2695 2349 2472 2336 2395 
z
" transform="scale(0.015625)"/>
      </defs>
      <use xlink:href="#CMMI12-7e" transform="scale(0.996264)"/>
      <use xlink:href="#CMMI12-61" transform="translate(6.445738 0)scale(0.996264)"/>
     </g>
    </g>
    <g id="line2d_26">
     <path d="M 359.840076 27.24679 
L 369.840076 27.24679 
L 379.840076 27.24679 
" style="fill: none; stroke: #00ff00; stroke-width: 1.5; stroke-linecap: square"/>
    </g>
    <g id="text_22">
     <!-- $\vec{b}$ -->
     <g transform="translate(387.840076 30.74679)scale(0.1 -0.1)">
      <defs>
       <path id="CMMI12-62" d="M 1478 4257 
C 1485 4283 1498 4321 1498 4352 
C 1498 4416 1434 4416 1421 4416 
C 1414 4416 1184 4393 1069 4377 
C 960 4377 864 4358 749 4358 
C 595 4345 550 4339 550 4224 
C 550 4160 614 4160 678 4160 
C 1005 4160 1005 4103 1005 4040 
C 1005 3996 954 3811 928 3696 
L 774 3085 
C 710 2831 346 1387 320 1272 
C 288 1114 288 1005 288 922 
C 288 274 653 -64 1069 -64 
C 1811 -64 2579 888 2579 1814 
C 2579 2401 2246 2816 1766 2816 
C 1434 2816 1133 2542 1011 2414 
L 1478 4257 
z
M 1075 64 
C 870 64 646 217 646 715 
C 646 926 666 1047 781 1494 
C 800 1577 902 1986 928 2069 
C 941 2120 1318 2689 1754 2689 
C 2035 2689 2163 2408 2163 2076 
C 2163 1769 1984 1047 1824 715 
C 1664 370 1370 64 1075 64 
z
" transform="scale(0.015625)"/>
      </defs>
      <use xlink:href="#CMMI12-7e" transform="translate(0 26.29016)scale(0.996264)"/>
      <use xlink:href="#CMMI12-62" transform="translate(11.311737 0)scale(0.996264)"/>
     </g>
    </g>
    <g id="line2d_27">
     <path d="M 359.840076 41.183968 
L 369.840076 41.183968 
L 379.840076 41.183968 
" style="fill: none; stroke: #0016ff; stroke-width: 1.5; stroke-linecap: square"/>
    </g>
    <g id="text_23">
     <!-- $\vec{c}$ -->
     <g transform="translate(387.840076 44.683968)scale(0.1 -0.1)">
      <defs>
       <path id="CMMI12-63" d="M 2502 2431 
C 2381 2431 2323 2431 2234 2355 
C 2195 2323 2125 2227 2125 2125 
C 2125 1997 2221 1920 2342 1920 
C 2496 1920 2669 2044 2669 2292 
C 2669 2588 2374 2816 1933 2816 
C 1094 2816 256 1903 256 996 
C 256 441 602 -64 1254 -64 
C 2125 -64 2675 622 2675 706 
C 2675 744 2637 776 2611 776 
C 2592 776 2586 770 2528 713 
C 2118 162 1510 64 1267 64 
C 826 64 685 446 685 764 
C 685 988 794 1605 1024 2039 
C 1190 2338 1536 2682 1939 2682 
C 2022 2682 2374 2682 2502 2431 
z
" transform="scale(0.015625)"/>
      </defs>
      <use xlink:href="#CMMI12-7e" transform="scale(0.996264)"/>
      <use xlink:href="#CMMI12-63" transform="translate(5.638615 0)scale(0.996264)"/>
     </g>
    </g>
    <g id="line2d_28">
     <path d="M 359.840076 57.867937 
L 369.840076 57.867937 
L 379.840076 57.867937 
" style="fill: none; stroke: #f400ff; stroke-width: 1.5; stroke-linecap: square"/>
    </g>
    <g id="text_24">
     <!-- $\vec{f}$ -->
     <g transform="translate(387.840076 61.367937)scale(0.1 -0.1)">
      <defs>
       <path id="CMMI12-66" d="M 2854 2566 
C 2982 2566 3034 2566 3034 2688 
C 3034 2752 2982 2752 2867 2752 
L 2349 2752 
C 2470 3429 2560 3897 2611 4107 
C 2650 4265 2784 4416 2950 4416 
C 3085 4416 3219 4358 3283 4298 
C 3034 4272 2957 4082 2957 3969 
C 2957 3837 3053 3759 3174 3759 
C 3302 3759 3494 3870 3494 4119 
C 3494 4393 3226 4544 2944 4544 
C 2669 4544 2400 4334 2272 4078 
C 2157 3848 2093 3611 1946 2752 
L 1517 2752 
C 1395 2752 1331 2752 1331 2637 
C 1331 2566 1370 2566 1498 2566 
L 1907 2566 
C 1792 1976 1530 542 1382 -137 
C 1274 -689 1178 -1152 858 -1152 
C 838 -1152 653 -1152 538 -1031 
C 864 -1005 864 -726 864 -720 
C 864 -593 768 -517 646 -517 
C 518 -517 326 -625 326 -867 
C 326 -1140 608 -1280 858 -1280 
C 1510 -1280 1779 -118 1850 199 
C 1965 688 2278 2376 2310 2566 
L 2854 2566 
z
" transform="scale(0.015625)"/>
      </defs>
      <use xlink:href="#CMMI12-7e" transform="translate(13.568792 26.29016)scale(0.996264)"/>
      <use xlink:href="#CMMI12-66" transform="scale(0.996264)"/>
     </g>
    </g>
   </g>
  </g>
 </g>
 <defs>
  <clipPath id="p66860a3c96">
   <rect x="57.6" y="0" width="345.6" height="345.6"/>
  </clipPath>
 </defs>
</svg>
