<?xml version="1.0" encoding="utf-8" standalone="no"?>
<!DOCTYPE svg PUBLIC "-//W3C//DTD SVG 1.1//EN"
  "http://www.w3.org/Graphics/SVG/1.1/DTD/svg11.dtd">
<svg xmlns:xlink="http://www.w3.org/1999/xlink" width="460.8pt" height="345.6pt" viewBox="0 0 460.8 345.6" xmlns="http://www.w3.org/2000/svg" version="1.1">
 <metadata>
  <rdf:RDF xmlns:dc="http://purl.org/dc/elements/1.1/" xmlns:cc="http://creativecommons.org/ns#" xmlns:rdf="http://www.w3.org/1999/02/22-rdf-syntax-ns#">
   <cc:Work>
    <dc:type rdf:resource="http://purl.org/dc/dcmitype/StillImage"/>
    <dc:date>2022-07-12T15:50:58.331800</dc:date>
    <dc:format>image/svg+xml</dc:format>
    <dc:creator>
     <cc:Agent>
      <dc:title>Matplotlib v3.5.1, https://matplotlib.org/</dc:title>
     </cc:Agent>
    </dc:creator>
   </cc:Work>
  </rdf:RDF>
 </metadata>
 <defs>
  <style type="text/css">*{stroke-linejoin: round; stroke-linecap: butt}</style>
 </defs>
 <g id="figure_1">
  <g id="patch_1">
   <path d="M 0 345.6 
L 460.8 345.6 
L 460.8 0 
L 0 0 
z
" style="fill: #ffffff"/>
  </g>
  <g id="patch_2">
   <path d="M 57.6 345.6 
L 403.2 345.6 
L 403.2 0 
L 57.6 0 
z
" style="fill: #ffffff"/>
  </g>
  <g id="pane3d_1">
   <g id="patch_3">
    <path d="M 187.647217 245.378907 
L 82.191825 253.877425 
L 82.191825 82.382034 
L 187.647217 90.880553 
" style="fill: #f2f2f2; opacity: 0.5; stroke: #f2f2f2; stroke-linejoin: miter"/>
   </g>
  </g>
  <g id="pane3d_2">
   <g id="patch_4">
    <path d="M 379.792631 249.302775 
L 187.647217 245.378907 
L 187.647217 90.880553 
L 379.792631 86.956685 
" style="fill: #e6e6e6; opacity: 0.5; stroke: #e6e6e6; stroke-linejoin: miter"/>
   </g>
  </g>
  <g id="pane3d_3">
   <g id="patch_5">
    <path d="M 379.792631 249.302775 
L 187.647217 245.378907 
L 82.191825 253.877425 
L 290.695242 258.739317 
" style="fill: #ececec; opacity: 0.5; stroke: #ececec; stroke-linejoin: miter"/>
   </g>
  </g>
  <g id="axis3d_1">
   <g id="line2d_1">
    <path d="M 82.191825 253.877425 
L 290.695242 258.739317 
" style="fill: none; stroke: #000000; stroke-width: 0.8; stroke-linecap: square"/>
   </g>
   <g id="text_1">
    <!-- x -->
    <g transform="translate(164.644089 286.49779)scale(0.16 -0.16)">
     <defs>
      <path id="CMSS17-78" d="M 1587 1414 
L 2656 2739 
L 2099 2739 
L 1363 1777 
L 602 2739 
L 32 2739 
L 1139 1414 
L 0 0 
L 563 0 
L 1363 1121 
L 2195 0 
L 2758 0 
L 1587 1414 
z
" transform="scale(0.015625)"/>
     </defs>
     <use xlink:href="#CMSS17-78" transform="scale(0.996264)"/>
    </g>
   </g>
   <g id="Line3DCollection_1">
    <path d="M 286.293723 258.636682 
L 375.75862 249.220395 
L 375.75862 87.039065 
" style="fill: none; stroke: #b0b0b0; stroke-width: 0.8"/>
    <path d="M 244.541017 257.663091 
L 337.444704 248.437973 
L 337.444704 87.821486 
" style="fill: none; stroke: #b0b0b0; stroke-width: 0.8"/>
    <path d="M 203.677026 256.710223 
L 299.863084 247.670506 
L 299.863084 88.588954 
" style="fill: none; stroke: #b0b0b0; stroke-width: 0.8"/>
    <path d="M 163.673674 255.777423 
L 262.992963 246.917568 
L 262.992963 89.341891 
" style="fill: none; stroke: #b0b0b0; stroke-width: 0.8"/>
    <path d="M 124.504057 254.864064 
L 226.814325 246.178752 
L 226.814325 90.080708 
" style="fill: none; stroke: #b0b0b0; stroke-width: 0.8"/>
    <path d="M 86.142377 253.969545 
L 191.3079 245.453663 
L 191.3079 90.805797 
" style="fill: none; stroke: #b0b0b0; stroke-width: 0.8"/>
   </g>
   <g id="xtick_1">
    <g id="line2d_2">
     <path d="M 287.09181 258.552683 
L 284.693091 258.805151 
" style="fill: none; stroke: #000000; stroke-width: 0.8; stroke-linecap: square"/>
    </g>
    <g id="text_2">
     <!-- $\mathdefault{0}$ -->
     <g transform="translate(277.375837 277.882869)scale(0.1 -0.1)">
      <defs>
       <path id="CMR17-30" d="M 2688 2025 
C 2688 2416 2682 3080 2413 3591 
C 2176 4039 1798 4198 1466 4198 
C 1158 4198 768 4058 525 3597 
C 269 3118 243 2524 243 2025 
C 243 1661 250 1106 448 619 
C 723 -39 1216 -128 1466 -128 
C 1760 -128 2208 -7 2470 600 
C 2662 1042 2688 1559 2688 2025 
z
M 1466 -26 
C 1056 -26 813 325 723 812 
C 653 1188 653 1738 653 2096 
C 653 2588 653 2997 736 3387 
C 858 3929 1216 4096 1466 4096 
C 1728 4096 2067 3923 2189 3400 
C 2272 3036 2278 2607 2278 2096 
C 2278 1680 2278 1169 2202 792 
C 2067 95 1690 -26 1466 -26 
z
" transform="scale(0.015625)"/>
      </defs>
      <use xlink:href="#CMR17-30" transform="scale(0.996264)"/>
     </g>
    </g>
   </g>
   <g id="xtick_2">
    <g id="line2d_3">
     <path d="M 245.368861 257.580888 
L 242.880755 257.827951 
" style="fill: none; stroke: #000000; stroke-width: 0.8; stroke-linecap: square"/>
    </g>
    <g id="text_3">
     <!-- $\mathdefault{1}$ -->
     <g transform="translate(235.384091 276.768489)scale(0.1 -0.1)">
      <defs>
       <path id="CMR17-31" d="M 1702 4058 
C 1702 4192 1696 4192 1606 4192 
C 1357 3916 979 3827 621 3827 
C 602 3827 570 3827 563 3808 
C 557 3795 557 3782 557 3648 
C 755 3648 1088 3686 1344 3839 
L 1344 461 
C 1344 236 1331 160 781 160 
L 589 160 
L 589 0 
C 896 0 1216 0 1523 0 
C 1830 0 2150 0 2458 0 
L 2458 160 
L 2266 160 
C 1715 160 1702 230 1702 458 
L 1702 4058 
z
" transform="scale(0.015625)"/>
      </defs>
      <use xlink:href="#CMR17-31" transform="scale(0.996264)"/>
     </g>
    </g>
   </g>
   <g id="xtick_3">
    <g id="line2d_4">
     <path d="M 204.533187 256.629759 
L 201.960024 256.871589 
" style="fill: none; stroke: #000000; stroke-width: 0.8; stroke-linecap: square"/>
    </g>
    <g id="text_4">
     <!-- $\mathdefault{2}$ -->
     <g transform="translate(194.292686 275.678002)scale(0.1 -0.1)">
      <defs>
       <path id="CMR17-32" d="M 2669 989 
L 2554 989 
C 2490 536 2438 459 2413 420 
C 2381 369 1920 369 1830 369 
L 602 369 
C 832 619 1280 1072 1824 1597 
C 2214 1967 2669 2402 2669 3035 
C 2669 3790 2067 4224 1395 4224 
C 691 4224 262 3604 262 3030 
C 262 2780 448 2748 525 2748 
C 589 2748 781 2787 781 3010 
C 781 3207 614 3264 525 3264 
C 486 3264 448 3258 422 3245 
C 544 3790 915 4058 1306 4058 
C 1862 4058 2227 3617 2227 3035 
C 2227 2479 1901 2000 1536 1584 
L 262 146 
L 262 0 
L 2515 0 
L 2669 989 
z
" transform="scale(0.015625)"/>
      </defs>
      <use xlink:href="#CMR17-32" transform="scale(0.996264)"/>
     </g>
    </g>
   </g>
   <g id="xtick_4">
    <g id="line2d_5">
     <path d="M 164.556784 255.698644 
L 161.902681 255.935406 
" style="fill: none; stroke: #000000; stroke-width: 0.8; stroke-linecap: square"/>
    </g>
    <g id="text_5">
     <!-- $\mathdefault{3}$ -->
     <g transform="translate(154.072973 274.610649)scale(0.1 -0.1)">
      <defs>
       <path id="CMR17-33" d="M 1414 2157 
C 1984 2157 2234 1662 2234 1090 
C 2234 320 1824 25 1453 25 
C 1114 25 563 194 390 693 
C 422 680 454 680 486 680 
C 640 680 755 782 755 948 
C 755 1133 614 1216 486 1216 
C 378 1216 211 1165 211 926 
C 211 335 787 -128 1466 -128 
C 2176 -128 2720 430 2720 1085 
C 2720 1707 2208 2157 1600 2227 
C 2086 2328 2554 2756 2554 3329 
C 2554 3820 2048 4179 1472 4179 
C 890 4179 378 3829 378 3329 
C 378 3110 544 3072 627 3072 
C 762 3072 877 3155 877 3321 
C 877 3486 762 3569 627 3569 
C 602 3569 570 3569 544 3557 
C 730 3959 1235 4032 1459 4032 
C 1683 4032 2106 3925 2106 3320 
C 2106 3143 2080 2828 1862 2550 
C 1670 2304 1453 2304 1242 2284 
C 1210 2284 1062 2269 1037 2269 
C 992 2263 966 2257 966 2208 
C 966 2163 973 2157 1101 2157 
L 1414 2157 
z
" transform="scale(0.015625)"/>
      </defs>
      <use xlink:href="#CMR17-33" transform="scale(0.996264)"/>
     </g>
    </g>
   </g>
   <g id="xtick_5">
    <g id="line2d_6">
     <path d="M 125.412811 254.786918 
L 122.681686 255.018768 
" style="fill: none; stroke: #000000; stroke-width: 0.8; stroke-linecap: square"/>
    </g>
    <g id="text_6">
     <!-- $\mathdefault{4}$ -->
     <g transform="translate(114.697505 273.5657)scale(0.1 -0.1)">
      <defs>
       <path id="CMR17-34" d="M 2150 4122 
C 2150 4256 2144 4256 2029 4256 
L 128 1254 
L 128 1088 
L 1779 1088 
L 1779 457 
C 1779 224 1766 160 1318 160 
L 1197 160 
L 1197 0 
C 1402 0 1747 0 1965 0 
C 2182 0 2528 0 2733 0 
L 2733 160 
L 2611 160 
C 2163 160 2150 224 2150 457 
L 2150 1088 
L 2803 1088 
L 2803 1254 
L 2150 1254 
L 2150 4122 
z
M 1798 3703 
L 1798 1254 
L 256 1254 
L 1798 3703 
z
" transform="scale(0.015625)"/>
      </defs>
      <use xlink:href="#CMR17-34" transform="scale(0.996264)"/>
     </g>
    </g>
   </g>
   <g id="xtick_6">
    <g id="line2d_7">
     <path d="M 87.075536 253.893981 
L 84.271117 254.121072 
" style="fill: none; stroke: #000000; stroke-width: 0.8; stroke-linecap: square"/>
    </g>
    <g id="text_7">
     <!-- $\mathdefault{5}$ -->
     <g transform="translate(76.139976 272.542457)scale(0.1 -0.1)">
      <defs>
       <path id="CMR17-35" d="M 730 3692 
C 794 3666 1056 3584 1325 3584 
C 1920 3584 2246 3911 2432 4100 
C 2432 4157 2432 4192 2394 4192 
C 2387 4192 2374 4192 2323 4163 
C 2099 4058 1837 3973 1517 3973 
C 1325 3973 1037 3999 723 4139 
C 653 4171 640 4171 634 4171 
C 602 4171 595 4164 595 4037 
L 595 2203 
C 595 2089 595 2057 659 2057 
C 691 2057 704 2070 736 2114 
C 941 2401 1222 2522 1542 2522 
C 1766 2522 2246 2382 2246 1289 
C 2246 1085 2246 715 2054 421 
C 1894 159 1645 25 1370 25 
C 947 25 518 320 403 814 
C 429 807 480 795 506 795 
C 589 795 749 840 749 1038 
C 749 1210 627 1280 506 1280 
C 358 1280 262 1190 262 1011 
C 262 454 704 -128 1382 -128 
C 2042 -128 2669 440 2669 1264 
C 2669 2030 2170 2624 1549 2624 
C 1222 2624 947 2503 730 2274 
L 730 3692 
z
" transform="scale(0.015625)"/>
      </defs>
      <use xlink:href="#CMR17-35" transform="scale(0.996264)"/>
     </g>
    </g>
   </g>
  </g>
  <g id="axis3d_2">
   <g id="line2d_8">
    <path d="M 379.792631 249.302775 
L 290.695242 258.739317 
" style="fill: none; stroke: #000000; stroke-width: 0.8; stroke-linecap: square"/>
   </g>
   <g id="text_8">
    <!-- y -->
    <g transform="translate(363.610238 282.35406)scale(0.16 -0.16)">
     <defs>
      <path id="CMSS17-79" d="M 2675 2752 
L 2176 2752 
C 1632 1294 1446 702 1434 383 
L 1427 383 
C 1408 696 1126 1460 902 2007 
L 602 2752 
L 83 2752 
L 1216 13 
C 1146 -178 1043 -465 1011 -529 
C 870 -885 774 -885 672 -885 
C 646 -885 442 -885 211 -809 
L 250 -1229 
C 410 -1261 570 -1280 685 -1280 
C 845 -1280 1165 -1280 1459 -497 
L 2675 2752 
z
" transform="scale(0.015625)"/>
     </defs>
     <use xlink:href="#CMSS17-79" transform="scale(0.996264)"/>
    </g>
   </g>
   <g id="Line3DCollection_2">
    <path d="M 176.498622 89.982101 
L 176.498622 246.277358 
L 370.420481 250.295404 
" style="fill: none; stroke: #b0b0b0; stroke-width: 0.8"/>
    <path d="M 157.464746 88.448185 
L 157.464746 247.811274 
L 354.393876 251.992825 
" style="fill: none; stroke: #b0b0b0; stroke-width: 0.8"/>
    <path d="M 137.668698 86.852846 
L 137.668698 249.406613 
L 337.691132 253.761857 
" style="fill: none; stroke: #b0b0b0; stroke-width: 0.8"/>
    <path d="M 117.063765 85.19232 
L 117.063765 251.067139 
L 320.268538 255.607131 
" style="fill: none; stroke: #b0b0b0; stroke-width: 0.8"/>
    <path d="M 95.599335 83.462529 
L 95.599335 252.796931 
L 302.078534 257.533683 
" style="fill: none; stroke: #b0b0b0; stroke-width: 0.8"/>
   </g>
   <g id="xtick_7">
    <g id="line2d_9">
     <path d="M 368.790011 250.261621 
L 373.685448 250.363054 
" style="fill: none; stroke: #000000; stroke-width: 0.8; stroke-linecap: square"/>
    </g>
    <g id="text_9">
     <!-- $\mathdefault{−4}$ -->
     <g transform="translate(377.124842 268.018249)scale(0.1 -0.1)">
      <defs>
       <path id="CMSY10-0" d="M 4218 1472 
C 4326 1472 4442 1472 4442 1600 
C 4442 1728 4326 1728 4218 1728 
L 755 1728 
C 646 1728 531 1728 531 1600 
C 531 1472 646 1472 755 1472 
L 4218 1472 
z
" transform="scale(0.015625)"/>
      </defs>
      <use xlink:href="#CMSY10-0" transform="scale(0.996264)"/>
      <use xlink:href="#CMR17-34" transform="translate(77.487468 0)scale(0.996264)"/>
     </g>
    </g>
   </g>
   <g id="xtick_8">
    <g id="line2d_10">
     <path d="M 352.736463 251.957632 
L 357.712881 252.0633 
" style="fill: none; stroke: #000000; stroke-width: 0.8; stroke-linecap: square"/>
    </g>
    <g id="text_10">
     <!-- $\mathdefault{−2}$ -->
     <g transform="translate(361.315226 269.945332)scale(0.1 -0.1)">
      <use xlink:href="#CMSY10-0" transform="scale(0.996264)"/>
      <use xlink:href="#CMR17-32" transform="translate(77.487468 0)scale(0.996264)"/>
     </g>
    </g>
   </g>
   <g id="xtick_9">
    <g id="line2d_11">
     <path d="M 336.005929 253.725164 
L 341.065876 253.835338 
" style="fill: none; stroke: #000000; stroke-width: 0.8; stroke-linecap: square"/>
    </g>
    <g id="text_11">
     <!-- $\mathdefault{0}$ -->
     <g transform="translate(348.710705 271.953996)scale(0.1 -0.1)">
      <use xlink:href="#CMR17-30" transform="scale(0.996264)"/>
     </g>
    </g>
   </g>
   <g id="xtick_10">
    <g id="line2d_12">
     <path d="M 318.554663 255.568839 
L 323.700795 255.683814 
" style="fill: none; stroke: #000000; stroke-width: 0.8; stroke-linecap: square"/>
    </g>
    <g id="text_12">
     <!-- $\mathdefault{2}$ -->
     <g transform="translate(331.519117 274.049532)scale(0.1 -0.1)">
      <use xlink:href="#CMR17-32" transform="scale(0.996264)"/>
     </g>
    </g>
   </g>
   <g id="xtick_11">
    <g id="line2d_13">
     <path d="M 300.335068 257.493686 
L 305.570152 257.613782 
" style="fill: none; stroke: #000000; stroke-width: 0.8; stroke-linecap: square"/>
    </g>
    <g id="text_13">
     <!-- $\mathdefault{4}$ -->
     <g transform="translate(313.567578 276.237701)scale(0.1 -0.1)">
      <use xlink:href="#CMR17-34" transform="scale(0.996264)"/>
     </g>
    </g>
   </g>
  </g>
  <g id="axis3d_3">
   <g id="line2d_14">
    <path d="M 379.792631 249.302775 
L 379.792631 86.956685 
" style="fill: none; stroke: #000000; stroke-width: 0.8; stroke-linecap: square"/>
   </g>
   <g id="text_14">
    <!-- z -->
    <g transform="translate(415.247719 172.114786)scale(0.16 -0.16)">
     <defs>
      <path id="CMSS17-7a" d="M 2400 2502 
L 2400 2750 
L 250 2750 
L 250 2368 
L 1069 2368 
C 1146 2368 1222 2368 1299 2368 
L 1747 2368 
L 166 261 
L 166 0 
L 2419 0 
L 2419 395 
L 1549 395 
C 1472 395 1395 395 1318 395 
L 826 395 
L 2400 2502 
z
" transform="scale(0.015625)"/>
     </defs>
     <use xlink:href="#CMSS17-7a" transform="scale(0.996264)"/>
    </g>
   </g>
   <g id="Line3DCollection_3">
    <path d="M 379.792631 246.055853 
L 187.647217 242.28894 
L 82.191825 250.447518 
" style="fill: none; stroke: #b0b0b0; stroke-width: 0.8"/>
    <path d="M 379.792631 214.885404 
L 187.647217 212.625256 
L 82.191825 217.520402 
" style="fill: none; stroke: #b0b0b0; stroke-width: 0.8"/>
    <path d="M 379.792631 183.714954 
L 187.647217 182.961572 
L 82.191825 184.593287 
" style="fill: none; stroke: #b0b0b0; stroke-width: 0.8"/>
    <path d="M 379.792631 152.544505 
L 187.647217 153.297888 
L 82.191825 151.666172 
" style="fill: none; stroke: #b0b0b0; stroke-width: 0.8"/>
    <path d="M 379.792631 121.374056 
L 187.647217 123.634204 
L 82.191825 118.739057 
" style="fill: none; stroke: #b0b0b0; stroke-width: 0.8"/>
    <path d="M 379.792631 90.203607 
L 187.647217 93.97052 
L 82.191825 85.811942 
" style="fill: none; stroke: #b0b0b0; stroke-width: 0.8"/>
   </g>
   <g id="xtick_12">
    <g id="line2d_15">
     <path d="M 378.178043 246.0242 
L 383.025745 246.119236 
" style="fill: none; stroke: #000000; stroke-width: 0.8; stroke-linecap: square"/>
    </g>
    <g id="text_15">
     <!-- $\mathdefault{0}$ -->
     <g transform="translate(395.23984 252.709644)scale(0.1 -0.1)">
      <use xlink:href="#CMR17-30" transform="scale(0.996264)"/>
     </g>
    </g>
   </g>
   <g id="xtick_13">
    <g id="line2d_16">
     <path d="M 378.178043 214.866412 
L 383.025745 214.923434 
" style="fill: none; stroke: #000000; stroke-width: 0.8; stroke-linecap: square"/>
    </g>
    <g id="text_16">
     <!-- $\mathdefault{1}$ -->
     <g transform="translate(395.23984 221.645078)scale(0.1 -0.1)">
      <use xlink:href="#CMR17-31" transform="scale(0.996264)"/>
     </g>
    </g>
   </g>
   <g id="xtick_14">
    <g id="line2d_17">
     <path d="M 378.178043 183.708624 
L 383.025745 183.727631 
" style="fill: none; stroke: #000000; stroke-width: 0.8; stroke-linecap: square"/>
    </g>
    <g id="text_17">
     <!-- $\mathdefault{2}$ -->
     <g transform="translate(395.23984 190.580511)scale(0.1 -0.1)">
      <use xlink:href="#CMR17-32" transform="scale(0.996264)"/>
     </g>
    </g>
   </g>
   <g id="xtick_15">
    <g id="line2d_18">
     <path d="M 378.178043 152.550836 
L 383.025745 152.531828 
" style="fill: none; stroke: #000000; stroke-width: 0.8; stroke-linecap: square"/>
    </g>
    <g id="text_18">
     <!-- $\mathdefault{3}$ -->
     <g transform="translate(395.23984 159.515945)scale(0.1 -0.1)">
      <use xlink:href="#CMR17-33" transform="scale(0.996264)"/>
     </g>
    </g>
   </g>
   <g id="xtick_16">
    <g id="line2d_19">
     <path d="M 378.178043 121.393048 
L 383.025745 121.336026 
" style="fill: none; stroke: #000000; stroke-width: 0.8; stroke-linecap: square"/>
    </g>
    <g id="text_19">
     <!-- $\mathdefault{4}$ -->
     <g transform="translate(395.23984 128.451379)scale(0.1 -0.1)">
      <use xlink:href="#CMR17-34" transform="scale(0.996264)"/>
     </g>
    </g>
   </g>
   <g id="xtick_17">
    <g id="line2d_20">
     <path d="M 378.178043 90.23526 
L 383.025745 90.140223 
" style="fill: none; stroke: #000000; stroke-width: 0.8; stroke-linecap: square"/>
    </g>
    <g id="text_20">
     <!-- $\mathdefault{5}$ -->
     <g transform="translate(395.23984 97.386812)scale(0.1 -0.1)">
      <use xlink:href="#CMR17-35" transform="scale(0.996264)"/>
     </g>
    </g>
   </g>
  </g>
  <g id="axes_1">
   <g id="line2d_21">
    <path d="M 333.48083 250.248565 
L 265.977031 84.221107 
" clip-path="url(#pe46663e675)" style="fill: none; stroke: #ff0000; stroke-width: 1.5; stroke-linecap: square"/>
   </g>
   <g id="line2d_22">
    <path d="M 333.48083 250.248565 
L 272.397786 120.827453 
" clip-path="url(#pe46663e675)" style="fill: none; stroke: #00ff00; stroke-width: 1.5; stroke-linecap: square"/>
   </g>
   <g id="line2d_23">
    <path d="M 333.48083 250.248565 
L 223.877943 -1 
" clip-path="url(#pe46663e675)" style="fill: none; stroke: #0016ff; stroke-width: 1.5; stroke-linecap: square"/>
   </g>
   <g id="line2d_24">
    <path d="M 333.48083 250.248565 
L 170.793169 152.964584 
" clip-path="url(#pe46663e675)" style="fill: none; stroke: #f400ff; stroke-width: 1.5; stroke-linecap: square"/>
   </g>
   <g id="Poly3DCollection_1">
    <path d="M 224.969326 25.482629 
L 207.106265 -14.949836 
L 202.582813 -27.094635 
L 220.510968 13.47617 
z
" clip-path="url(#pe46663e675)" style="fill: #0000f5; fill-opacity: 0.1"/>
    <path d="M 243.001022 66.296794 
L 224.969326 25.482629 
L 220.510968 13.47617 
L 238.609197 54.431844 
z
" clip-path="url(#pe46663e675)" style="fill: #0000f5; fill-opacity: 0.1"/>
    <path d="M 220.510968 13.47617 
L 202.582813 -27.094635 
L 198.015573 -39.356999 
L 216.009248 1.352935 
z
" clip-path="url(#pe46663e675)" style="fill: #0000f5; fill-opacity: 0.1"/>
    <path d="M 261.203753 107.498091 
L 243.001022 66.296794 
L 238.609197 54.431844 
L 256.87993 95.777891 
z
" clip-path="url(#pe46663e675)" style="fill: #0000f5; fill-opacity: 0.1"/>
    <path d="M 238.609197 54.431844 
L 220.510968 13.47617 
L 216.009248 1.352935 
L 234.174452 42.450945 
z
" clip-path="url(#pe46663e675)" style="fill: #0000f5; fill-opacity: 0.1"/>
    <path d="M 216.009248 1.352935 
L 198.015573 -39.356999 
L 193.403906 -51.738643 
L 211.46353 -10.888789 
z
" clip-path="url(#pe46663e675)" style="fill: #0000f5; fill-opacity: 0.1"/>
    <path d="M 279.579964 149.092054 
L 261.203753 107.498091 
L 256.87993 95.777891 
L 275.325645 137.519918 
z
" clip-path="url(#pe46663e675)" style="fill: #0000f5; fill-opacity: 0.1"/>
    <path d="M 256.87993 95.777891 
L 238.609197 54.431844 
L 234.174452 42.450945 
L 252.513649 83.942607 
z
" clip-path="url(#pe46663e675)" style="fill: #0000f5; fill-opacity: 0.1"/>
    <path d="M 234.174452 42.450945 
L 216.009248 1.352935 
L 211.46353 -10.888789 
L 229.696156 30.352388 
z
" clip-path="url(#pe46663e675)" style="fill: #0000f5; fill-opacity: 0.1"/>
    <path d="M 211.46353 -10.888789 
L 193.403906 -51.738643 
L 188.747161 -64.241314 
L 206.873165 -23.250746 
z
" clip-path="url(#pe46663e675)" style="fill: #0000f5; fill-opacity: 0.1"/>
    <path d="M 298.132147 191.084324 
L 279.579964 149.092054 
L 275.325645 137.519918 
L 293.94887 179.663641 
z
" clip-path="url(#pe46663e675)" style="fill: #0000f5; fill-opacity: 0.1"/>
    <path d="M 275.325645 137.519918 
L 256.87993 95.777891 
L 252.513649 83.942607 
L 271.029351 125.833604 
z
" clip-path="url(#pe46663e675)" style="fill: #0000f5; fill-opacity: 0.1"/>
    <path d="M 252.513649 83.942607 
L 234.174452 42.450945 
L 229.696156 30.352388 
L 248.104283 71.990536 
z
" clip-path="url(#pe46663e675)" style="fill: #0000f5; fill-opacity: 0.1"/>
    <path d="M 229.696156 30.352388 
L 211.46353 -10.888789 
L 206.873165 -23.250746 
L 225.173664 18.13443 
z
" clip-path="url(#pe46663e675)" style="fill: #0000f5; fill-opacity: 0.1"/>
    <path d="M 206.873165 -23.250746 
L 188.747161 -64.241314 
L 184.044674 -76.866798 
L 202.237493 -35.734717 
z
" clip-path="url(#pe46663e675)" style="fill: #0000f5; fill-opacity: 0.1"/>
    <path d="M 316.862842 233.480649 
L 298.132147 191.084324 
L 293.94887 179.663641 
L 312.752177 222.214886 
z
" clip-path="url(#pe46663e675)" style="fill: #0000f5; fill-opacity: 0.1"/>
    <path d="M 293.94887 179.663641 
L 275.325645 137.519918 
L 271.029351 125.833604 
L 289.724118 168.12973 
z
" clip-path="url(#pe46663e675)" style="fill: #0000f5; fill-opacity: 0.1"/>
    <path d="M 271.029351 125.833604 
L 252.513649 83.942607 
L 248.104283 71.990536 
L 266.690457 114.031416 
z
" clip-path="url(#pe46663e675)" style="fill: #0000f5; fill-opacity: 0.1"/>
    <path d="M 248.104283 71.990536 
L 229.696156 30.352388 
L 225.173664 18.13443 
L 243.651191 59.91994 
z
" clip-path="url(#pe46663e675)" style="fill: #0000f5; fill-opacity: 0.1"/>
    <path d="M 225.173664 18.13443 
L 206.873165 -23.250746 
L 202.237493 -35.734717 
L 220.606319 5.795297 
z
" clip-path="url(#pe46663e675)" style="fill: #0000f5; fill-opacity: 0.1"/>
    <path d="M 202.237493 -35.734717 
L 184.044674 -76.866798 
L 179.295766 -89.616911 
L 197.555839 -48.342518 
z
" clip-path="url(#pe46663e675)" style="fill: #0000f5; fill-opacity: 0.1"/>
    <path d="M 335.774637 276.286889 
L 316.862842 233.480649 
L 312.752177 222.214886 
L 331.738193 265.179593 
z
" clip-path="url(#pe46663e675)" style="fill: #0000f5; fill-opacity: 0.1"/>
    <path d="M 312.752177 222.214886 
L 293.94887 179.663641 
L 289.724118 168.12973 
L 308.600561 210.836889 
z
" clip-path="url(#pe46663e675)" style="fill: #0000f5; fill-opacity: 0.1"/>
    <path d="M 289.724118 168.12973 
L 271.029351 125.833604 
L 266.690457 114.031416 
L 285.457273 156.480899 
z
" clip-path="url(#pe46663e675)" style="fill: #0000f5; fill-opacity: 0.1"/>
    <path d="M 266.690457 114.031416 
L 248.104283 71.990536 
L 243.651191 59.91994 
L 262.308326 102.11162 
z
" clip-path="url(#pe46663e675)" style="fill: #0000f5; fill-opacity: 0.1"/>
    <path d="M 243.651191 59.91994 
L 225.173664 18.13443 
L 220.606319 5.795297 
L 239.153719 47.729048 
z
" clip-path="url(#pe46663e675)" style="fill: #0000f5; fill-opacity: 0.1"/>
    <path d="M 220.606319 5.795297 
L 202.237493 -35.734717 
L 197.555839 -48.342518 
L 215.99345 -6.666824 
z
" clip-path="url(#pe46663e675)" style="fill: #0000f5; fill-opacity: 0.1"/>
    <path d="M 197.555839 -48.342518 
L 179.295766 -89.616911 
L 174.499749 -102.49351 
L 192.827516 -61.076 
z
" clip-path="url(#pe46663e675)" style="fill: #0000f5; fill-opacity: 0.1"/>
    <path d="M 354.870172 319.509019 
L 335.774637 276.286889 
L 331.738193 265.179593 
L 350.909593 308.563819 
z
" clip-path="url(#pe46663e675)" style="fill: #0000f5; fill-opacity: 0.1"/>
    <path d="M 331.738193 265.179593 
L 312.752177 222.214886 
L 308.600561 210.836889 
L 327.661341 253.961102 
z
" clip-path="url(#pe46663e675)" style="fill: #0000f5; fill-opacity: 0.1"/>
    <path d="M 308.600561 210.836889 
L 289.724118 168.12973 
L 285.457273 156.480899 
L 304.407377 199.344971 
z
" clip-path="url(#pe46663e675)" style="fill: #0000f5; fill-opacity: 0.1"/>
    <path d="M 285.457273 156.480899 
L 266.690457 114.031416 
L 262.308326 102.11162 
L 281.147701 144.715423 
z
" clip-path="url(#pe46663e675)" style="fill: #0000f5; fill-opacity: 0.1"/>
    <path d="M 262.308326 102.11162 
L 243.651191 59.91994 
L 239.153719 47.729048 
L 257.882309 90.072451 
z
" clip-path="url(#pe46663e675)" style="fill: #0000f5; fill-opacity: 0.1"/>
    <path d="M 239.153719 47.729048 
L 220.606319 5.795297 
L 215.99345 -6.666824 
L 234.611201 35.416052 
z
" clip-path="url(#pe46663e675)" style="fill: #0000f5; fill-opacity: 0.1"/>
    <path d="M 215.99345 -6.666824 
L 197.555839 -48.342518 
L 192.827516 -61.076 
L 211.334372 -19.253781 
z
" clip-path="url(#pe46663e675)" style="fill: #0000f5; fill-opacity: 0.1"/>
    <path d="M 192.827516 -61.076 
L 174.499749 -102.49351 
L 169.655916 -115.498484 
L 188.051823 -73.937051 
z
" clip-path="url(#pe46663e675)" style="fill: #0000f5; fill-opacity: 0.1"/>
    <path d="M 374.152137 363.153128 
L 354.870172 319.509019 
L 350.909593 308.563819 
L 370.269106 352.373737 
z
" clip-path="url(#pe46663e675)" style="fill: #0000f5; fill-opacity: 0.1"/>
    <path d="M 350.909593 308.563819 
L 331.738193 265.179593 
L 327.661341 253.961102 
L 346.909171 297.508508 
z
" clip-path="url(#pe46663e675)" style="fill: #0000f5; fill-opacity: 0.1"/>
    <path d="M 327.661341 253.961102 
L 308.600561 210.836889 
L 304.407377 199.344971 
L 323.543469 242.629736 
z
" clip-path="url(#pe46663e675)" style="fill: #0000f5; fill-opacity: 0.1"/>
    <path d="M 304.407377 199.344971 
L 285.457273 156.480899 
L 281.147701 144.715423 
L 300.171999 187.737415 
z
" clip-path="url(#pe46663e675)" style="fill: #0000f5; fill-opacity: 0.1"/>
    <path d="M 281.147701 144.715423 
L 262.308326 102.11162 
L 257.882309 90.072451 
L 276.794758 132.83154 
z
" clip-path="url(#pe46663e675)" style="fill: #0000f5; fill-opacity: 0.1"/>
    <path d="M 257.882309 90.072451 
L 239.153719 47.729048 
L 234.611201 35.416052 
L 253.411744 77.912106 
z
" clip-path="url(#pe46663e675)" style="fill: #0000f5; fill-opacity: 0.1"/>
    <path d="M 234.611201 35.416052 
L 215.99345 -6.666824 
L 211.334372 -19.253781 
L 230.022955 22.979108 
z
" clip-path="url(#pe46663e675)" style="fill: #0000f5; fill-opacity: 0.1"/>
    <path d="M 211.334372 -19.253781 
L 192.827516 -61.076 
L 188.051823 -73.937051 
L 206.628389 -31.967459 
z
" clip-path="url(#pe46663e675)" style="fill: #0000f5; fill-opacity: 0.1"/>
    <path d="M 188.051823 -73.937051 
L 169.655916 -115.498484 
L 164.76355 -128.633765 
L 183.228043 -86.927599 
z
" clip-path="url(#pe46663e675)" style="fill: #0000f5; fill-opacity: 0.1"/>
    <path d="M 370.269106 352.373737 
L 350.909593 308.563819 
L 346.909171 297.508508 
L 366.346818 341.485369 
z
" clip-path="url(#pe46663e675)" style="fill: #0000f5; fill-opacity: 0.1"/>
    <path d="M 346.909171 297.508508 
L 327.661341 253.961102 
L 323.543469 242.629736 
L 342.8683 286.341417 
z
" clip-path="url(#pe46663e675)" style="fill: #0000f5; fill-opacity: 0.1"/>
    <path d="M 323.543469 242.629736 
L 304.407377 199.344971 
L 300.171999 187.737415 
L 319.383957 231.183784 
z
" clip-path="url(#pe46663e675)" style="fill: #0000f5; fill-opacity: 0.1"/>
    <path d="M 300.171999 187.737415 
L 281.147701 144.715423 
L 276.794758 132.83154 
L 295.893786 176.012464 
z
" clip-path="url(#pe46663e675)" style="fill: #0000f5; fill-opacity: 0.1"/>
    <path d="M 276.794758 132.83154 
L 257.882309 90.072451 
L 253.411744 77.912106 
L 272.397786 120.827453 
z
" clip-path="url(#pe46663e675)" style="fill: #0000f5; fill-opacity: 0.1"/>
    <path d="M 253.411744 77.912106 
L 234.611201 35.416052 
L 230.022955 22.979108 
L 248.895955 65.628745 
z
" clip-path="url(#pe46663e675)" style="fill: #0000f5; fill-opacity: 0.1"/>
    <path d="M 230.022955 22.979108 
L 211.334372 -19.253781 
L 206.628389 -31.967459 
L 225.388289 10.416336 
z
" clip-path="url(#pe46663e675)" style="fill: #0000f5; fill-opacity: 0.1"/>
    <path d="M 206.628389 -31.967459 
L 188.051823 -73.937051 
L 183.228043 -86.927599 
L 201.874788 -44.809781 
z
" clip-path="url(#pe46663e675)" style="fill: #0000f5; fill-opacity: 0.1"/>
    <path d="M 183.228043 -86.927599 
L 164.76355 -128.633765 
L 159.821916 -141.901319 
L 178.355448 -100.049609 
z
" clip-path="url(#pe46663e675)" style="fill: #0000f5; fill-opacity: 0.1"/>
    <path d="M 366.346818 341.485369 
L 346.909171 297.508508 
L 342.8683 286.341417 
L 362.384676 330.486362 
z
" clip-path="url(#pe46663e675)" style="fill: #0000f5; fill-opacity: 0.1"/>
    <path d="M 342.8683 286.341417 
L 323.543469 242.629736 
L 319.383957 231.183784 
L 338.786364 275.060841 
z
" clip-path="url(#pe46663e675)" style="fill: #0000f5; fill-opacity: 0.1"/>
    <path d="M 319.383957 231.183784 
L 300.171999 187.737415 
L 295.893786 176.012464 
L 315.182168 219.621499 
z
" clip-path="url(#pe46663e675)" style="fill: #0000f5; fill-opacity: 0.1"/>
    <path d="M 295.893786 176.012464 
L 276.794758 132.83154 
L 272.397786 120.827453 
L 291.572085 164.16833 
z
" clip-path="url(#pe46663e675)" style="fill: #0000f5; fill-opacity: 0.1"/>
    <path d="M 272.397786 120.827453 
L 253.411744 77.912106 
L 248.895955 65.628745 
L 267.956114 108.701331 
z
" clip-path="url(#pe46663e675)" style="fill: #0000f5; fill-opacity: 0.1"/>
    <path d="M 248.895955 65.628745 
L 230.022955 22.979108 
L 225.388289 10.416336 
L 244.334251 53.220494 
z
" clip-path="url(#pe46663e675)" style="fill: #0000f5; fill-opacity: 0.1"/>
    <path d="M 225.388289 10.416336 
L 206.628389 -31.967459 
L 201.874788 -44.809781 
L 220.706494 -2.274184 
z
" clip-path="url(#pe46663e675)" style="fill: #0000f5; fill-opacity: 0.1"/>
    <path d="M 201.874788 -44.809781 
L 183.228043 -86.927599 
L 178.355448 -100.049609 
L 197.072842 -57.78271 
z
" clip-path="url(#pe46663e675)" style="fill: #0000f5; fill-opacity: 0.1"/>
    <path d="M 178.355448 -100.049609 
L 159.821916 -141.901319 
L 154.830268 -155.303155 
L 173.433293 -113.305087 
z
" clip-path="url(#pe46663e675)" style="fill: #0000f5; fill-opacity: 0.1"/>
    <path d="M 362.384676 330.486362 
L 342.8683 286.341417 
L 338.786364 275.060841 
L 358.382068 319.375022 
z
" clip-path="url(#pe46663e675)" style="fill: #0000f5; fill-opacity: 0.1"/>
    <path d="M 338.786364 275.060841 
L 319.383957 231.183784 
L 315.182168 219.621499 
L 334.662734 263.665041 
z
" clip-path="url(#pe46663e675)" style="fill: #0000f5; fill-opacity: 0.1"/>
    <path d="M 315.182168 219.621499 
L 295.893786 176.012464 
L 291.572085 164.16833 
L 310.937456 207.941098 
z
" clip-path="url(#pe46663e675)" style="fill: #0000f5; fill-opacity: 0.1"/>
    <path d="M 291.572085 164.16833 
L 272.397786 120.827453 
L 267.956114 108.701331 
L 287.20623 152.203186 
z
" clip-path="url(#pe46663e675)" style="fill: #0000f5; fill-opacity: 0.1"/>
    <path d="M 267.956114 108.701331 
L 248.895955 65.628745 
L 244.334251 53.220494 
L 263.469055 96.451301 
z
" clip-path="url(#pe46663e675)" style="fill: #0000f5; fill-opacity: 0.1"/>
    <path d="M 244.334251 53.220494 
L 225.388289 10.416336 
L 220.706494 -2.274184 
L 239.725929 40.685437 
z
" clip-path="url(#pe46663e675)" style="fill: #0000f5; fill-opacity: 0.1"/>
    <path d="M 220.706494 -2.274184 
L 201.874788 -44.809781 
L 197.072842 -57.78271 
L 215.976848 -15.094411 
z
" clip-path="url(#pe46663e675)" style="fill: #0000f5; fill-opacity: 0.1"/>
    <path d="M 197.072842 -57.78271 
L 178.355448 -100.049609 
L 173.433293 -113.305087 
L 192.221811 -70.888248 
z
" clip-path="url(#pe46663e675)" style="fill: #0000f5; fill-opacity: 0.1"/>
    <path d="M 173.433293 -113.305087 
L 154.830268 -155.303155 
L 149.787843 -168.841323 
L 168.460816 -126.69608 
z
" clip-path="url(#pe46663e675)" style="fill: #0000f5; fill-opacity: 0.1"/>
    <path d="M 358.382068 319.375022 
L 338.786364 275.060841 
L 334.662734 263.665041 
L 354.338371 308.149619 
z
" clip-path="url(#pe46663e675)" style="fill: #0000f5; fill-opacity: 0.1"/>
    <path d="M 334.662734 263.665041 
L 315.182168 219.621499 
L 310.937456 207.941098 
L 330.496768 252.152244 
z
" clip-path="url(#pe46663e675)" style="fill: #0000f5; fill-opacity: 0.1"/>
    <path d="M 310.937456 207.941098 
L 291.572085 164.16833 
L 287.20623 152.203186 
L 306.649159 196.140762 
z
" clip-path="url(#pe46663e675)" style="fill: #0000f5; fill-opacity: 0.1"/>
    <path d="M 287.20623 152.203186 
L 267.956114 108.701331 
L 263.469055 96.451301 
L 282.795541 140.115168 
z
" clip-path="url(#pe46663e675)" style="fill: #0000f5; fill-opacity: 0.1"/>
    <path d="M 263.469055 96.451301 
L 244.334251 53.220494 
L 239.725929 40.685437 
L 258.935912 84.075456 
z
" clip-path="url(#pe46663e675)" style="fill: #0000f5; fill-opacity: 0.1"/>
    <path d="M 239.725929 40.685437 
L 220.706494 -2.274184 
L 215.976848 -15.094411 
L 235.07027 28.021621 
z
" clip-path="url(#pe46663e675)" style="fill: #0000f5; fill-opacity: 0.1"/>
    <path d="M 215.976848 -15.094411 
L 197.072842 -57.78271 
L 192.221811 -70.888248 
L 211.198613 -28.046342 
z
" clip-path="url(#pe46663e675)" style="fill: #0000f5; fill-opacity: 0.1"/>
    <path d="M 192.221811 -70.888248 
L 173.433293 -113.305087 
L 168.460816 -126.69608 
L 187.320938 -84.12844 
z
" clip-path="url(#pe46663e675)" style="fill: #0000f5; fill-opacity: 0.1"/>
    <path d="M 168.460816 -126.69608 
L 149.787843 -168.841323 
L 144.69386 -182.517912 
L 163.437244 -140.224676 
z
" clip-path="url(#pe46663e675)" style="fill: #0000f5; fill-opacity: 0.1"/>
    <path d="M 354.338371 308.149619 
L 334.662734 263.665041 
L 330.496768 252.152244 
L 350.25295 296.808387 
z
" clip-path="url(#pe46663e675)" style="fill: #0000f5; fill-opacity: 0.1"/>
    <path d="M 330.496768 252.152244 
L 310.937456 207.941098 
L 306.649159 196.140762 
L 326.28781 240.520638 
z
" clip-path="url(#pe46663e675)" style="fill: #0000f5; fill-opacity: 0.1"/>
    <path d="M 306.649159 196.140762 
L 287.20623 152.203186 
L 282.795541 140.115168 
L 302.316602 184.218635 
z
" clip-path="url(#pe46663e675)" style="fill: #0000f5; fill-opacity: 0.1"/>
    <path d="M 282.795541 140.115168 
L 263.469055 96.451301 
L 258.935912 84.075456 
L 278.339323 127.902373 
z
" clip-path="url(#pe46663e675)" style="fill: #0000f5; fill-opacity: 0.1"/>
    <path d="M 258.935912 84.075456 
L 239.725929 40.685437 
L 235.07027 28.021621 
L 254.35597 71.571847 
z
" clip-path="url(#pe46663e675)" style="fill: #0000f5; fill-opacity: 0.1"/>
    <path d="M 235.07027 28.021621 
L 215.976848 -15.094411 
L 211.198613 -28.046342 
L 230.366542 15.227052 
z
" clip-path="url(#pe46663e675)" style="fill: #0000f5; fill-opacity: 0.1"/>
    <path d="M 211.198613 -28.046342 
L 192.221811 -70.888248 
L 187.320938 -84.12844 
L 206.371037 -41.132019 
z
" clip-path="url(#pe46663e675)" style="fill: #0000f5; fill-opacity: 0.1"/>
    <path d="M 187.320938 -84.12844 
L 168.460816 -126.69608 
L 163.437244 -140.224676 
L 182.369451 -97.50537 
z
" clip-path="url(#pe46663e675)" style="fill: #0000f5; fill-opacity: 0.1"/>
    <path d="M 163.437244 -140.224676 
L 144.69386 -182.517912 
L 139.547527 -196.335057 
L 158.361783 -153.893007 
z
" clip-path="url(#pe46663e675)" style="fill: #0000f5; fill-opacity: 0.1"/>
    <path d="M 350.25295 296.808387 
L 330.496768 252.152244 
L 326.28781 240.520638 
L 346.125155 285.349525 
z
" clip-path="url(#pe46663e675)" style="fill: #0000f5; fill-opacity: 0.1"/>
    <path d="M 326.28781 240.520638 
L 306.649159 196.140762 
L 302.316602 184.218635 
L 322.035191 228.768374 
z
" clip-path="url(#pe46663e675)" style="fill: #0000f5; fill-opacity: 0.1"/>
    <path d="M 302.316602 184.218635 
L 282.795541 140.115168 
L 278.339323 127.902373 
L 297.939096 172.17282 
z
" clip-path="url(#pe46663e675)" style="fill: #0000f5; fill-opacity: 0.1"/>
    <path d="M 278.339323 127.902373 
L 258.935912 84.075456 
L 254.35597 71.571847 
L 273.836867 115.56286 
z
" clip-path="url(#pe46663e675)" style="fill: #0000f5; fill-opacity: 0.1"/>
    <path d="M 254.35597 71.571847 
L 235.07027 28.021621 
L 230.366542 15.227052 
L 249.728501 58.938486 
z
" clip-path="url(#pe46663e675)" style="fill: #0000f5; fill-opacity: 0.1"/>
    <path d="M 230.366542 15.227052 
L 211.198613 -28.046342 
L 206.371037 -41.132019 
L 225.613997 2.299694 
z
" clip-path="url(#pe46663e675)" style="fill: #0000f5; fill-opacity: 0.1"/>
    <path d="M 206.371037 -41.132019 
L 187.320938 -84.12844 
L 182.369451 -97.50537 
L 201.493351 -54.353523 
z
" clip-path="url(#pe46663e675)" style="fill: #0000f5; fill-opacity: 0.1"/>
    <path d="M 182.369451 -97.50537 
L 163.437244 -140.224676 
L 158.361783 -153.893007 
L 177.366562 -111.021169 
z
" clip-path="url(#pe46663e675)" style="fill: #0000f5; fill-opacity: 0.1"/>
    <path d="M 158.361783 -153.893007 
L 139.547527 -196.335057 
L 134.34803 -210.294936 
L 153.233626 -167.70325 
z
" clip-path="url(#pe46663e675)" style="fill: #0000f5; fill-opacity: 0.1"/>
    <path d="M 346.125155 285.349525 
L 326.28781 240.520638 
L 322.035191 228.768374 
L 341.954323 273.771192 
z
" clip-path="url(#pe46663e675)" style="fill: #0000f5; fill-opacity: 0.1"/>
    <path d="M 322.035191 228.768374 
L 302.316602 184.218635 
L 297.939096 172.17282 
L 317.738229 216.893565 
z
" clip-path="url(#pe46663e675)" style="fill: #0000f5; fill-opacity: 0.1"/>
    <path d="M 297.939096 172.17282 
L 278.339323 127.902373 
L 273.836867 115.56286 
L 293.515939 160.001384 
z
" clip-path="url(#pe46663e675)" style="fill: #0000f5; fill-opacity: 0.1"/>
    <path d="M 273.836867 115.56286 
L 254.35597 71.571847 
L 249.728501 58.938486 
L 269.287451 103.094645 
z
" clip-path="url(#pe46663e675)" style="fill: #0000f5; fill-opacity: 0.1"/>
    <path d="M 249.728501 58.938486 
L 230.366542 15.227052 
L 225.613997 2.299694 
L 245.052762 46.173341 
z
" clip-path="url(#pe46663e675)" style="fill: #0000f5; fill-opacity: 0.1"/>
    <path d="M 225.613997 2.299694 
L 206.371037 -41.132019 
L 201.493351 -54.353523 
L 220.811869 -10.762532 
z
" clip-path="url(#pe46663e675)" style="fill: #0000f5; fill-opacity: 0.1"/>
    <path d="M 201.493351 -54.353523 
L 182.369451 -97.50537 
L 177.366562 -111.021169 
L 196.564771 -67.71298 
z
" clip-path="url(#pe46663e675)" style="fill: #0000f5; fill-opacity: 0.1"/>
    <path d="M 177.366562 -111.021169 
L 158.361783 -153.893007 
L 153.233626 -167.70325 
L 172.311465 -124.67801 
z
" clip-path="url(#pe46663e675)" style="fill: #0000f5; fill-opacity: 0.1"/>
    <path d="M 153.233626 -167.70325 
L 134.34803 -210.294936 
L 129.094543 -224.399772 
L 148.051949 -181.657626 
z
" clip-path="url(#pe46663e675)" style="fill: #0000f5; fill-opacity: 0.1"/>
    <path d="M 341.954323 273.771192 
L 322.035191 228.768374 
L 317.738229 216.893565 
L 337.739779 262.071512 
z
" clip-path="url(#pe46663e675)" style="fill: #0000f5; fill-opacity: 0.1"/>
    <path d="M 317.738229 216.893565 
L 297.939096 172.17282 
L 293.515939 160.001384 
L 313.396226 204.894284 
z
" clip-path="url(#pe46663e675)" style="fill: #0000f5; fill-opacity: 0.1"/>
    <path d="M 293.515939 160.001384 
L 273.836867 115.56286 
L 269.287451 103.094645 
L 289.046413 147.702351 
z
" clip-path="url(#pe46663e675)" style="fill: #0000f5; fill-opacity: 0.1"/>
    <path d="M 269.287451 103.094645 
L 249.728501 58.938486 
L 245.052762 46.173341 
L 264.690335 90.495705 
z
" clip-path="url(#pe46663e675)" style="fill: #0000f5; fill-opacity: 0.1"/>
    <path d="M 245.052762 46.173341 
L 225.613997 2.299694 
L 220.811869 -10.762532 
L 240.327992 33.274341 
z
" clip-path="url(#pe46663e675)" style="fill: #0000f5; fill-opacity: 0.1"/>
    <path d="M 220.811869 -10.762532 
L 201.493351 -54.353523 
L 196.564771 -67.71298 
L 215.95938 -23.961746 
z
" clip-path="url(#pe46663e675)" style="fill: #0000f5; fill-opacity: 0.1"/>
    <path d="M 196.564771 -67.71298 
L 177.366562 -111.021169 
L 172.311465 -124.67801 
L 191.584497 -81.212562 
z
" clip-path="url(#pe46663e675)" style="fill: #0000f5; fill-opacity: 0.1"/>
    <path d="M 172.311465 -124.67801 
L 153.233626 -167.70325 
L 148.051949 -181.657626 
L 167.20334 -138.478112 
z
" clip-path="url(#pe46663e675)" style="fill: #0000f5; fill-opacity: 0.1"/>
    <path d="M 148.051949 -181.657626 
L 129.094543 -224.399772 
L 123.78622 -238.651835 
L 142.815908 -195.758404 
z
" clip-path="url(#pe46663e675)" style="fill: #0000f5; fill-opacity: 0.1"/>
    <path d="M 337.739779 262.071512 
L 317.738229 216.893565 
L 313.396226 204.894284 
L 333.48083 250.248565 
z
" clip-path="url(#pe46663e675)" style="fill: #0000f5; fill-opacity: 0.1"/>
    <path d="M 313.396226 204.894284 
L 293.515939 160.001384 
L 289.046413 147.702351 
L 309.008471 192.768565 
z
" clip-path="url(#pe46663e675)" style="fill: #0000f5; fill-opacity: 0.1"/>
    <path d="M 289.046413 147.702351 
L 269.287451 103.094645 
L 264.690335 90.495705 
L 284.529784 135.273703 
z
" clip-path="url(#pe46663e675)" style="fill: #0000f5; fill-opacity: 0.1"/>
    <path d="M 264.690335 90.495705 
L 245.052762 46.173341 
L 240.327992 33.274341 
L 260.044767 77.763973 
z
" clip-path="url(#pe46663e675)" style="fill: #0000f5; fill-opacity: 0.1"/>
    <path d="M 240.327992 33.274341 
L 220.811869 -10.762532 
L 215.95938 -23.961746 
L 235.553417 20.239369 
z
" clip-path="url(#pe46663e675)" style="fill: #0000f5; fill-opacity: 0.1"/>
    <path d="M 215.95938 -23.961746 
L 196.564771 -67.71298 
L 191.584497 -81.212562 
L 211.055733 -37.300114 
z
" clip-path="url(#pe46663e675)" style="fill: #0000f5; fill-opacity: 0.1"/>
    <path d="M 191.584497 -81.212562 
L 172.311465 -124.67801 
L 167.20334 -138.478112 
L 186.551711 -94.854483 
z
" clip-path="url(#pe46663e675)" style="fill: #0000f5; fill-opacity: 0.1"/>
    <path d="M 167.20334 -138.478112 
L 148.051949 -181.657626 
L 142.815908 -195.758404 
L 162.041349 -152.423742 
z
" clip-path="url(#pe46663e675)" style="fill: #0000f5; fill-opacity: 0.1"/>
    <path d="M 142.815908 -195.758404 
L 123.78622 -238.651835 
L 118.422198 -253.053441 
L 137.524644 -210.007898 
z
" clip-path="url(#pe46663e675)" style="fill: #0000f5; fill-opacity: 0.1"/>
    <path d="M 333.48083 250.248565 
L 313.396226 204.894284 
L 309.008471 192.768565 
L 329.176773 238.300393 
z
" clip-path="url(#pe46663e675)" style="fill: #0000f5; fill-opacity: 0.1"/>
    <path d="M 309.008471 192.768565 
L 289.046413 147.702351 
L 284.529784 135.273703 
L 304.574236 180.514397 
z
" clip-path="url(#pe46663e675)" style="fill: #0000f5; fill-opacity: 0.1"/>
    <path d="M 284.529784 135.273703 
L 264.690335 90.495705 
L 260.044767 77.763973 
L 279.965304 122.713381 
z
" clip-path="url(#pe46663e675)" style="fill: #0000f5; fill-opacity: 0.1"/>
    <path d="M 260.044767 77.763973 
L 240.327992 33.274341 
L 235.553417 20.239369 
L 255.349975 64.897338 
z
" clip-path="url(#pe46663e675)" style="fill: #0000f5; fill-opacity: 0.1"/>
    <path d="M 235.553417 20.239369 
L 215.95938 -23.961746 
L 211.055733 -37.300114 
L 230.728245 7.066263 
z
" clip-path="url(#pe46663e675)" style="fill: #0000f5; fill-opacity: 0.1"/>
    <path d="M 211.055733 -37.300114 
L 191.584497 -81.212562 
L 186.551711 -94.854483 
L 206.100114 -50.77985 
z
" clip-path="url(#pe46663e675)" style="fill: #0000f5; fill-opacity: 0.1"/>
    <path d="M 186.551711 -94.854483 
L 167.20334 -138.478112 
L 162.041349 -152.423742 
L 181.465577 -108.641007 
z
" clip-path="url(#pe46663e675)" style="fill: #0000f5; fill-opacity: 0.1"/>
    <path d="M 162.041349 -152.423742 
L 142.815908 -195.758404 
L 137.524644 -210.007898 
L 156.824633 -166.517214 
z
" clip-path="url(#pe46663e675)" style="fill: #0000f5; fill-opacity: 0.1"/>
    <path d="M 137.524644 -210.007898 
L 118.422198 -253.053441 
L 113.001595 -267.606957 
L 132.177279 -224.408476 
z
" clip-path="url(#pe46663e675)" style="fill: #0000f5; fill-opacity: 0.1"/>
    <path d="M 329.176773 238.300393 
L 309.008471 192.768565 
L 304.574236 180.514397 
L 324.826885 226.224997 
z
" clip-path="url(#pe46663e675)" style="fill: #0000f5; fill-opacity: 0.1"/>
    <path d="M 304.574236 180.514397 
L 284.529784 135.273703 
L 279.965304 122.713381 
L 300.092779 168.12973 
z
" clip-path="url(#pe46663e675)" style="fill: #0000f5; fill-opacity: 0.1"/>
    <path d="M 279.965304 122.713381 
L 260.044767 77.763973 
L 255.349975 64.897338 
L 275.352209 110.019281 
z
" clip-path="url(#pe46663e675)" style="fill: #0000f5; fill-opacity: 0.1"/>
    <path d="M 255.349975 64.897338 
L 235.553417 20.239369 
L 230.728245 7.066263 
L 250.605173 51.893645 
z
" clip-path="url(#pe46663e675)" style="fill: #0000f5; fill-opacity: 0.1"/>
    <path d="M 230.728245 7.066263 
L 211.055733 -37.300114 
L 206.100114 -50.77985 
L 225.851668 -6.247184 
z
" clip-path="url(#pe46663e675)" style="fill: #0000f5; fill-opacity: 0.1"/>
    <path d="M 206.100114 -50.77985 
L 186.551711 -94.854483 
L 181.465577 -108.641007 
L 201.091693 -64.403213 
z
" clip-path="url(#pe46663e675)" style="fill: #0000f5; fill-opacity: 0.1"/>
    <path d="M 181.465577 -108.641007 
L 162.041349 -152.423742 
L 156.824633 -166.517214 
L 176.325244 -122.574446 
z
" clip-path="url(#pe46663e675)" style="fill: #0000f5; fill-opacity: 0.1"/>
    <path d="M 156.824633 -166.517214 
L 137.524644 -210.007898 
L 132.177279 -224.408476 
L 151.552319 -180.76089 
z
" clip-path="url(#pe46663e675)" style="fill: #0000f5; fill-opacity: 0.1"/>
    <path d="M 324.826885 226.224997 
L 304.574236 180.514397 
L 300.092779 168.12973 
L 320.430432 214.020334 
z
" clip-path="url(#pe46663e675)" style="fill: #0000f5; fill-opacity: 0.1"/>
    <path d="M 300.092779 168.12973 
L 279.965304 122.713381 
L 275.352209 110.019281 
L 295.563341 155.612467 
z
" clip-path="url(#pe46663e675)" style="fill: #0000f5; fill-opacity: 0.1"/>
    <path d="M 275.352209 110.019281 
L 255.349975 64.897338 
L 250.605173 51.893645 
L 270.689717 97.189255 
z
" clip-path="url(#pe46663e675)" style="fill: #0000f5; fill-opacity: 0.1"/>
    <path d="M 250.605173 51.893645 
L 230.728245 7.066263 
L 225.851668 -6.247184 
L 245.809557 38.750692 
z
" clip-path="url(#pe46663e675)" style="fill: #0000f5; fill-opacity: 0.1"/>
    <path d="M 225.851668 -6.247184 
L 206.100114 -50.77985 
L 201.091693 -64.403213 
L 220.92286 -19.703227 
z
" clip-path="url(#pe46663e675)" style="fill: #0000f5; fill-opacity: 0.1"/>
    <path d="M 201.091693 -64.403213 
L 181.465577 -108.641007 
L 176.325244 -122.574446 
L 196.029621 -78.17251 
z
" clip-path="url(#pe46663e675)" style="fill: #0000f5; fill-opacity: 0.1"/>
    <path d="M 176.325244 -122.574446 
L 156.824633 -166.517214 
L 151.552319 -180.76089 
L 171.129839 -136.657161 
z
" clip-path="url(#pe46663e675)" style="fill: #0000f5; fill-opacity: 0.1"/>
    <path d="M 320.430432 214.020334 
L 300.092779 168.12973 
L 295.563341 155.612467 
L 315.986662 201.684316 
z
" clip-path="url(#pe46663e675)" style="fill: #0000f5; fill-opacity: 0.1"/>
    <path d="M 295.563341 155.612467 
L 275.352209 110.019281 
L 270.689717 97.189255 
L 290.985148 142.960467 
z
" clip-path="url(#pe46663e675)" style="fill: #0000f5; fill-opacity: 0.1"/>
    <path d="M 270.689717 97.189255 
L 250.605173 51.893645 
L 245.809557 38.750692 
L 265.977031 84.221107 
z
" clip-path="url(#pe46663e675)" style="fill: #0000f5; fill-opacity: 0.1"/>
    <path d="M 245.809557 38.750692 
L 225.851668 -6.247184 
L 220.92286 -19.703227 
L 240.962308 25.46623 
z
" clip-path="url(#pe46663e675)" style="fill: #0000f5; fill-opacity: 0.1"/>
    <path d="M 220.92286 -19.703227 
L 201.091693 -64.403213 
L 196.029621 -78.17251 
L 215.940976 -33.304169 
z
" clip-path="url(#pe46663e675)" style="fill: #0000f5; fill-opacity: 0.1"/>
    <path d="M 196.029621 -78.17251 
L 176.325244 -122.574446 
L 171.129839 -136.657161 
L 190.913032 -92.090098 
z
" clip-path="url(#pe46663e675)" style="fill: #0000f5; fill-opacity: 0.1"/>
    <path d="M 315.986662 201.684316 
L 295.563341 155.612467 
L 290.985148 142.960467 
L 311.494806 189.214812 
z
" clip-path="url(#pe46663e675)" style="fill: #0000f5; fill-opacity: 0.1"/>
    <path d="M 290.985148 142.960467 
L 270.689717 97.189255 
L 265.977031 84.221107 
L 286.357409 130.171543 
z
" clip-path="url(#pe46663e675)" style="fill: #0000f5; fill-opacity: 0.1"/>
    <path d="M 265.977031 84.221107 
L 245.809557 38.750692 
L 240.962308 25.46623 
L 261.213337 71.112595 
z
" clip-path="url(#pe46663e675)" style="fill: #0000f5; fill-opacity: 0.1"/>
    <path d="M 240.962308 25.46623 
L 220.92286 -19.703227 
L 215.940976 -33.304169 
L 236.062587 12.037962 
z
" clip-path="url(#pe46663e675)" style="fill: #0000f5; fill-opacity: 0.1"/>
    <path d="M 215.940976 -33.304169 
L 196.029621 -78.17251 
L 190.913032 -92.090098 
L 210.905155 -47.052364 
z
" clip-path="url(#pe46663e675)" style="fill: #0000f5; fill-opacity: 0.1"/>
    <path d="M 311.494806 189.214812 
L 290.985148 142.960467 
L 286.357409 130.171543 
L 306.95408 176.609643 
z
" clip-path="url(#pe46663e675)" style="fill: #0000f5; fill-opacity: 0.1"/>
    <path d="M 286.357409 130.171543 
L 265.977031 84.221107 
L 261.213337 71.112595 
L 281.679314 117.243461 
z
" clip-path="url(#pe46663e675)" style="fill: #0000f5; fill-opacity: 0.1"/>
    <path d="M 261.213337 71.112595 
L 240.962308 25.46623 
L 236.062587 12.037962 
L 256.397801 57.861429 
z
" clip-path="url(#pe46663e675)" style="fill: #0000f5; fill-opacity: 0.1"/>
    <path d="M 236.062587 12.037962 
L 215.940976 -33.304169 
L 210.905155 -47.052364 
L 231.109536 -1.536461 
z
" clip-path="url(#pe46663e675)" style="fill: #0000f5; fill-opacity: 0.1"/>
    <path d="M 306.95408 176.609643 
L 286.357409 130.171543 
L 281.679314 117.243461 
L 302.363681 163.866582 
z
" clip-path="url(#pe46663e675)" style="fill: #0000f5; fill-opacity: 0.1"/>
    <path d="M 281.679314 117.243461 
L 261.213337 71.112595 
L 256.397801 57.861429 
L 276.950038 104.173936 
z
" clip-path="url(#pe46663e675)" style="fill: #0000f5; fill-opacity: 0.1"/>
    <path d="M 256.397801 57.861429 
L 236.062587 12.037962 
L 231.109536 -1.536461 
L 251.529572 44.465265 
z
" clip-path="url(#pe46663e675)" style="fill: #0000f5; fill-opacity: 0.1"/>
    <path d="M 302.363681 163.866582 
L 281.679314 117.243461 
L 276.950038 104.173936 
L 297.722791 150.983356 
z
" clip-path="url(#pe46663e675)" style="fill: #0000f5; fill-opacity: 0.1"/>
    <path d="M 276.950038 104.173936 
L 256.397801 57.861429 
L 251.529572 44.465265 
L 272.168736 90.960635 
z
" clip-path="url(#pe46663e675)" style="fill: #0000f5; fill-opacity: 0.1"/>
    <path d="M 297.722791 150.983356 
L 276.950038 104.173936 
L 272.168736 90.960635 
L 293.030572 137.957638 
z
" clip-path="url(#pe46663e675)" style="fill: #0000f5; fill-opacity: 0.1"/>
   </g>
   <g id="legend_1">
    <g id="patch_6">
     <path d="M 357.840076 67.305115 
L 396.2 67.305115 
Q 398.2 67.305115 398.2 65.305115 
L 398.2 7 
Q 398.2 5 396.2 5 
L 357.840076 5 
Q 355.840076 5 355.840076 7 
L 355.840076 65.305115 
Q 355.840076 67.305115 357.840076 67.305115 
z
" style="fill: #ffffff; opacity: 0.8; stroke: #cccccc; stroke-linejoin: miter"/>
    </g>
    <g id="line2d_25">
     <path d="M 359.840076 12.5 
L 369.840076 12.5 
L 379.840076 12.5 
" style="fill: none; stroke: #ff0000; stroke-width: 1.5; stroke-linecap: square"/>
    </g>
    <g id="text_21">
     <!-- $\vec{a}$ -->
     <g transform="translate(387.840076 16)scale(0.1 -0.1)">
      <defs>
       <path id="CMMI12-7e" d="M 3424 3835 
C 3347 3764 3110 3540 3110 3451 
C 3110 3387 3168 3329 3232 3329 
C 3290 3329 3315 3368 3360 3432 
C 3514 3624 3686 3745 3834 3828 
C 3898 3867 3942 3886 3942 3956 
C 3942 4014 3891 4046 3853 4078 
C 3674 4200 3629 4372 3610 4449 
C 3590 4500 3571 4577 3482 4577 
C 3443 4577 3366 4552 3366 4456 
C 3366 4398 3405 4244 3526 4072 
L 1376 4072 
C 1267 4072 1158 4072 1158 3950 
C 1158 3835 1274 3835 1376 3835 
L 3424 3835 
z
" transform="scale(0.015625)"/>
       <path id="CMMI12-61" d="M 1926 760 
C 1894 651 1894 639 1805 517 
C 1664 338 1382 64 1082 64 
C 819 64 672 300 672 677 
C 672 1028 870 1743 992 2012 
C 1210 2459 1510 2689 1760 2689 
C 2182 2689 2266 2165 2266 2114 
C 2266 2108 2246 2024 2240 2012 
L 1926 760 
z
M 2336 2395 
C 2266 2561 2093 2816 1760 2816 
C 1037 2816 256 1884 256 939 
C 256 307 627 -64 1062 -64 
C 1414 -64 1715 211 1894 422 
C 1958 45 2259 -64 2451 -64 
C 2643 -64 2797 51 2912 281 
C 3014 498 3104 888 3104 913 
C 3104 945 3078 971 3040 971 
C 2982 971 2976 939 2950 843 
C 2854 466 2733 64 2470 64 
C 2285 64 2272 230 2272 358 
C 2272 505 2291 575 2349 824 
C 2394 984 2426 1124 2477 1309 
C 2714 2267 2771 2497 2771 2535 
C 2771 2625 2701 2695 2605 2695 
C 2400 2695 2349 2472 2336 2395 
z
" transform="scale(0.015625)"/>
      </defs>
      <use xlink:href="#CMMI12-7e" transform="scale(0.996264)"/>
      <use xlink:href="#CMMI12-61" transform="translate(6.445738 0)scale(0.996264)"/>
     </g>
    </g>
    <g id="line2d_26">
     <path d="M 359.840076 27.24679 
L 369.840076 27.24679 
L 379.840076 27.24679 
" style="fill: none; stroke: #00ff00; stroke-width: 1.5; stroke-linecap: square"/>
    </g>
    <g id="text_22">
     <!-- $\vec{b}$ -->
     <g transform="translate(387.840076 30.74679)scale(0.1 -0.1)">
      <defs>
       <path id="CMMI12-62" d="M 1478 4257 
C 1485 4283 1498 4321 1498 4352 
C 1498 4416 1434 4416 1421 4416 
C 1414 4416 1184 4393 1069 4377 
C 960 4377 864 4358 749 4358 
C 595 4345 550 4339 550 4224 
C 550 4160 614 4160 678 4160 
C 1005 4160 1005 4103 1005 4040 
C 1005 3996 954 3811 928 3696 
L 774 3085 
C 710 2831 346 1387 320 1272 
C 288 1114 288 1005 288 922 
C 288 274 653 -64 1069 -64 
C 1811 -64 2579 888 2579 1814 
C 2579 2401 2246 2816 1766 2816 
C 1434 2816 1133 2542 1011 2414 
L 1478 4257 
z
M 1075 64 
C 870 64 646 217 646 715 
C 646 926 666 1047 781 1494 
C 800 1577 902 1986 928 2069 
C 941 2120 1318 2689 1754 2689 
C 2035 2689 2163 2408 2163 2076 
C 2163 1769 1984 1047 1824 715 
C 1664 370 1370 64 1075 64 
z
" transform="scale(0.015625)"/>
      </defs>
      <use xlink:href="#CMMI12-7e" transform="translate(0 26.29016)scale(0.996264)"/>
      <use xlink:href="#CMMI12-62" transform="translate(11.311737 0)scale(0.996264)"/>
     </g>
    </g>
    <g id="line2d_27">
     <path d="M 359.840076 41.183968 
L 369.840076 41.183968 
L 379.840076 41.183968 
" style="fill: none; stroke: #0016ff; stroke-width: 1.5; stroke-linecap: square"/>
    </g>
    <g id="text_23">
     <!-- $\vec{c}$ -->
     <g transform="translate(387.840076 44.683968)scale(0.1 -0.1)">
      <defs>
       <path id="CMMI12-63" d="M 2502 2431 
C 2381 2431 2323 2431 2234 2355 
C 2195 2323 2125 2227 2125 2125 
C 2125 1997 2221 1920 2342 1920 
C 2496 1920 2669 2044 2669 2292 
C 2669 2588 2374 2816 1933 2816 
C 1094 2816 256 1903 256 996 
C 256 441 602 -64 1254 -64 
C 2125 -64 2675 622 2675 706 
C 2675 744 2637 776 2611 776 
C 2592 776 2586 770 2528 713 
C 2118 162 1510 64 1267 64 
C 826 64 685 446 685 764 
C 685 988 794 1605 1024 2039 
C 1190 2338 1536 2682 1939 2682 
C 2022 2682 2374 2682 2502 2431 
z
" transform="scale(0.015625)"/>
      </defs>
      <use xlink:href="#CMMI12-7e" transform="scale(0.996264)"/>
      <use xlink:href="#CMMI12-63" transform="translate(5.638615 0)scale(0.996264)"/>
     </g>
    </g>
    <g id="line2d_28">
     <path d="M 359.840076 57.867937 
L 369.840076 57.867937 
L 379.840076 57.867937 
" style="fill: none; stroke: #f400ff; stroke-width: 1.5; stroke-linecap: square"/>
    </g>
    <g id="text_24">
     <!-- $\vec{f}$ -->
     <g transform="translate(387.840076 61.367937)scale(0.1 -0.1)">
      <defs>
       <path id="CMMI12-66" d="M 2854 2566 
C 2982 2566 3034 2566 3034 2688 
C 3034 2752 2982 2752 2867 2752 
L 2349 2752 
C 2470 3429 2560 3897 2611 4107 
C 2650 4265 2784 4416 2950 4416 
C 3085 4416 3219 4358 3283 4298 
C 3034 4272 2957 4082 2957 3969 
C 2957 3837 3053 3759 3174 3759 
C 3302 3759 3494 3870 3494 4119 
C 3494 4393 3226 4544 2944 4544 
C 2669 4544 2400 4334 2272 4078 
C 2157 3848 2093 3611 1946 2752 
L 1517 2752 
C 1395 2752 1331 2752 1331 2637 
C 1331 2566 1370 2566 1498 2566 
L 1907 2566 
C 1792 1976 1530 542 1382 -137 
C 1274 -689 1178 -1152 858 -1152 
C 838 -1152 653 -1152 538 -1031 
C 864 -1005 864 -726 864 -720 
C 864 -593 768 -517 646 -517 
C 518 -517 326 -625 326 -867 
C 326 -1140 608 -1280 858 -1280 
C 1510 -1280 1779 -118 1850 199 
C 1965 688 2278 2376 2310 2566 
L 2854 2566 
z
" transform="scale(0.015625)"/>
      </defs>
      <use xlink:href="#CMMI12-7e" transform="translate(13.568792 26.29016)scale(0.996264)"/>
      <use xlink:href="#CMMI12-66" transform="scale(0.996264)"/>
     </g>
    </g>
   </g>
  </g>
 </g>
 <defs>
  <clipPath id="pe46663e675">
   <rect x="57.6" y="0" width="345.6" height="345.6"/>
  </clipPath>
 </defs>
</svg>
