<?xml version="1.0" encoding="utf-8" standalone="no"?>
<!DOCTYPE svg PUBLIC "-//W3C//DTD SVG 1.1//EN"
  "http://www.w3.org/Graphics/SVG/1.1/DTD/svg11.dtd">
<svg xmlns:xlink="http://www.w3.org/1999/xlink" width="460.8pt" height="345.6pt" viewBox="0 0 460.8 345.6" xmlns="http://www.w3.org/2000/svg" version="1.1">
 <metadata>
  <rdf:RDF xmlns:dc="http://purl.org/dc/elements/1.1/" xmlns:cc="http://creativecommons.org/ns#" xmlns:rdf="http://www.w3.org/1999/02/22-rdf-syntax-ns#">
   <cc:Work>
    <dc:type rdf:resource="http://purl.org/dc/dcmitype/StillImage"/>
    <dc:date>2022-07-12T15:41:32.515171</dc:date>
    <dc:format>image/svg+xml</dc:format>
    <dc:creator>
     <cc:Agent>
      <dc:title>Matplotlib v3.5.1, https://matplotlib.org/</dc:title>
     </cc:Agent>
    </dc:creator>
   </cc:Work>
  </rdf:RDF>
 </metadata>
 <defs>
  <style type="text/css">*{stroke-linejoin: round; stroke-linecap: butt}</style>
 </defs>
 <g id="figure_1">
  <g id="patch_1">
   <path d="M 0 345.6 
L 460.8 345.6 
L 460.8 0 
L 0 0 
z
" style="fill: #ffffff"/>
  </g>
  <g id="patch_2">
   <path d="M 57.6 345.6 
L 403.2 345.6 
L 403.2 0 
L 57.6 0 
z
" style="fill: #ffffff"/>
  </g>
  <g id="pane3d_1">
   <g id="patch_3">
    <path d="M 150.690311 246.147633 
L 357.95377 247.686165 
L 357.95377 88.573294 
L 150.690311 90.111826 
" style="fill: #f2f2f2; opacity: 0.5; stroke: #f2f2f2; stroke-linejoin: miter"/>
   </g>
  </g>
  <g id="pane3d_2">
   <g id="patch_4">
    <path d="M 150.690311 246.147633 
L 99.718308 255.758416 
L 99.718308 80.501043 
L 150.690311 90.111826 
" style="fill: #e6e6e6; opacity: 0.5; stroke: #e6e6e6; stroke-linejoin: miter"/>
   </g>
  </g>
  <g id="pane3d_3">
   <g id="patch_5">
    <path d="M 150.690311 246.147633 
L 99.718308 255.758416 
L 331.949055 257.704076 
L 357.95377 247.686165 
" style="fill: #ececec; opacity: 0.5; stroke: #ececec; stroke-linejoin: miter"/>
   </g>
  </g>
  <g id="axis3d_1">
   <g id="line2d_1">
    <path d="M 357.95377 247.686165 
L 331.949055 257.704076 
" style="fill: none; stroke: #000000; stroke-width: 0.8; stroke-linecap: square"/>
   </g>
   <g id="text_1">
    <!-- x -->
    <g transform="translate(373.299514 280.104756)scale(0.16 -0.16)">
     <defs>
      <path id="CMSS17-78" d="M 1587 1414 
L 2656 2739 
L 2099 2739 
L 1363 1777 
L 602 2739 
L 32 2739 
L 1139 1414 
L 0 0 
L 563 0 
L 1363 1121 
L 2195 0 
L 2758 0 
L 1587 1414 
z
" transform="scale(0.015625)"/>
     </defs>
     <use xlink:href="#CMSS17-78" transform="scale(0.996264)"/>
    </g>
   </g>
   <g id="Line3DCollection_1">
    <path d="M 357.490807 247.864515 
L 149.780684 246.319144 
L 149.780684 89.940316 
" style="fill: none; stroke: #b0b0b0; stroke-width: 0.8"/>
    <path d="M 352.938426 249.618248 
L 140.840391 248.004838 
L 140.840391 88.254621 
" style="fill: none; stroke: #b0b0b0; stroke-width: 0.8"/>
    <path d="M 348.181286 251.450862 
L 131.506114 249.764818 
L 131.506114 86.494641 
" style="fill: none; stroke: #b0b0b0; stroke-width: 0.8"/>
    <path d="M 343.205254 253.367801 
L 121.751223 251.604105 
L 121.751223 84.655354 
" style="fill: none; stroke: #b0b0b0; stroke-width: 0.8"/>
    <path d="M 337.994867 255.375021 
L 111.546634 253.528183 
L 111.546634 82.731277 
" style="fill: none; stroke: #b0b0b0; stroke-width: 0.8"/>
    <path d="M 332.53317 257.479055 
L 100.860516 255.543053 
L 100.860516 80.716407 
" style="fill: none; stroke: #b0b0b0; stroke-width: 0.8"/>
   </g>
   <g id="xtick_1">
    <g id="line2d_2">
     <path d="M 355.796552 247.851909 
L 360.880925 247.889737 
" style="fill: none; stroke: #000000; stroke-width: 0.8; stroke-linecap: square"/>
    </g>
    <g id="text_2">
     <!-- $\mathdefault{0}$ -->
     <g transform="translate(368.5499 265.085039)scale(0.1 -0.1)">
      <defs>
       <path id="CMR17-30" d="M 2688 2025 
C 2688 2416 2682 3080 2413 3591 
C 2176 4039 1798 4198 1466 4198 
C 1158 4198 768 4058 525 3597 
C 269 3118 243 2524 243 2025 
C 243 1661 250 1106 448 619 
C 723 -39 1216 -128 1466 -128 
C 1760 -128 2208 -7 2470 600 
C 2662 1042 2688 1559 2688 2025 
z
M 1466 -26 
C 1056 -26 813 325 723 812 
C 653 1188 653 1738 653 2096 
C 653 2588 653 2997 736 3387 
C 858 3929 1216 4096 1466 4096 
C 1728 4096 2067 3923 2189 3400 
C 2272 3036 2278 2607 2278 2096 
C 2278 1680 2278 1169 2202 792 
C 2067 95 1690 -26 1466 -26 
z
" transform="scale(0.015625)"/>
      </defs>
      <use xlink:href="#CMR17-30" transform="scale(0.996264)"/>
     </g>
    </g>
   </g>
   <g id="xtick_2">
    <g id="line2d_3">
     <path d="M 351.207648 249.605083 
L 356.401661 249.644593 
" style="fill: none; stroke: #000000; stroke-width: 0.8; stroke-linecap: square"/>
    </g>
    <g id="text_3">
     <!-- $\mathdefault{1}$ -->
     <g transform="translate(364.290043 267.06792)scale(0.1 -0.1)">
      <defs>
       <path id="CMR17-31" d="M 1702 4058 
C 1702 4192 1696 4192 1606 4192 
C 1357 3916 979 3827 621 3827 
C 602 3827 570 3827 563 3808 
C 557 3795 557 3782 557 3648 
C 755 3648 1088 3686 1344 3839 
L 1344 461 
C 1344 236 1331 160 781 160 
L 589 160 
L 589 0 
C 896 0 1216 0 1523 0 
C 1830 0 2150 0 2458 0 
L 2458 160 
L 2266 160 
C 1715 160 1702 230 1702 458 
L 1702 4058 
z
" transform="scale(0.015625)"/>
      </defs>
      <use xlink:href="#CMR17-31" transform="scale(0.996264)"/>
     </g>
    </g>
   </g>
   <g id="xtick_3">
    <g id="line2d_4">
     <path d="M 346.412376 251.437098 
L 351.720859 251.478405 
" style="fill: none; stroke: #000000; stroke-width: 0.8; stroke-linecap: square"/>
    </g>
    <g id="text_4">
     <!-- $\mathdefault{2}$ -->
     <g transform="translate(359.838331 269.140107)scale(0.1 -0.1)">
      <defs>
       <path id="CMR17-32" d="M 2669 989 
L 2554 989 
C 2490 536 2438 459 2413 420 
C 2381 369 1920 369 1830 369 
L 602 369 
C 832 619 1280 1072 1824 1597 
C 2214 1967 2669 2402 2669 3035 
C 2669 3790 2067 4224 1395 4224 
C 691 4224 262 3604 262 3030 
C 262 2780 448 2748 525 2748 
C 589 2748 781 2787 781 3010 
C 781 3207 614 3264 525 3264 
C 486 3264 448 3258 422 3245 
C 544 3790 915 4058 1306 4058 
C 1862 4058 2227 3617 2227 3035 
C 2227 2479 1901 2000 1536 1584 
L 262 146 
L 262 0 
L 2515 0 
L 2669 989 
z
" transform="scale(0.015625)"/>
      </defs>
      <use xlink:href="#CMR17-32" transform="scale(0.996264)"/>
     </g>
    </g>
   </g>
   <g id="xtick_4">
    <g id="line2d_5">
     <path d="M 341.396495 253.353396 
L 346.824606 253.396626 
" style="fill: none; stroke: #000000; stroke-width: 0.8; stroke-linecap: square"/>
    </g>
    <g id="text_5">
     <!-- $\mathdefault{3}$ -->
     <g transform="translate(355.181504 271.30777)scale(0.1 -0.1)">
      <defs>
       <path id="CMR17-33" d="M 1414 2157 
C 1984 2157 2234 1662 2234 1090 
C 2234 320 1824 25 1453 25 
C 1114 25 563 194 390 693 
C 422 680 454 680 486 680 
C 640 680 755 782 755 948 
C 755 1133 614 1216 486 1216 
C 378 1216 211 1165 211 926 
C 211 335 787 -128 1466 -128 
C 2176 -128 2720 430 2720 1085 
C 2720 1707 2208 2157 1600 2227 
C 2086 2328 2554 2756 2554 3329 
C 2554 3820 2048 4179 1472 4179 
C 890 4179 378 3829 378 3329 
C 378 3110 544 3072 627 3072 
C 762 3072 877 3155 877 3321 
C 877 3486 762 3569 627 3569 
C 602 3569 570 3569 544 3557 
C 730 3959 1235 4032 1459 4032 
C 1683 4032 2106 3925 2106 3320 
C 2106 3143 2080 2828 1862 2550 
C 1670 2304 1453 2304 1242 2284 
C 1210 2284 1062 2269 1037 2269 
C 992 2263 966 2257 966 2208 
C 966 2163 973 2157 1101 2157 
L 1414 2157 
z
" transform="scale(0.015625)"/>
      </defs>
      <use xlink:href="#CMR17-33" transform="scale(0.996264)"/>
     </g>
    </g>
   </g>
   <g id="xtick_5">
    <g id="line2d_6">
     <path d="M 336.144424 255.35993 
L 341.697675 255.40522 
" style="fill: none; stroke: #000000; stroke-width: 0.8; stroke-linecap: square"/>
    </g>
    <g id="text_6">
     <!-- $\mathdefault{4}$ -->
     <g transform="translate(350.305052 273.577664)scale(0.1 -0.1)">
      <defs>
       <path id="CMR17-34" d="M 2150 4122 
C 2150 4256 2144 4256 2029 4256 
L 128 1254 
L 128 1088 
L 1779 1088 
L 1779 457 
C 1779 224 1766 160 1318 160 
L 1197 160 
L 1197 0 
C 1402 0 1747 0 1965 0 
C 2182 0 2528 0 2733 0 
L 2733 160 
L 2611 160 
C 2163 160 2150 224 2150 457 
L 2150 1088 
L 2803 1088 
L 2803 1254 
L 2150 1254 
L 2150 4122 
z
M 1798 3703 
L 1798 1254 
L 256 1254 
L 1798 3703 
z
" transform="scale(0.015625)"/>
      </defs>
      <use xlink:href="#CMR17-34" transform="scale(0.996264)"/>
     </g>
    </g>
   </g>
   <g id="xtick_6">
    <g id="line2d_7">
     <path d="M 330.639076 257.463227 
L 336.323372 257.510728 
" style="fill: none; stroke: #000000; stroke-width: 0.8; stroke-linecap: square"/>
    </g>
    <g id="text_7">
     <!-- $\mathdefault{5}$ -->
     <g transform="translate(345.193063 275.957197)scale(0.1 -0.1)">
      <defs>
       <path id="CMR17-35" d="M 730 3692 
C 794 3666 1056 3584 1325 3584 
C 1920 3584 2246 3911 2432 4100 
C 2432 4157 2432 4192 2394 4192 
C 2387 4192 2374 4192 2323 4163 
C 2099 4058 1837 3973 1517 3973 
C 1325 3973 1037 3999 723 4139 
C 653 4171 640 4171 634 4171 
C 602 4171 595 4164 595 4037 
L 595 2203 
C 595 2089 595 2057 659 2057 
C 691 2057 704 2070 736 2114 
C 941 2401 1222 2522 1542 2522 
C 1766 2522 2246 2382 2246 1289 
C 2246 1085 2246 715 2054 421 
C 1894 159 1645 25 1370 25 
C 947 25 518 320 403 814 
C 429 807 480 795 506 795 
C 589 795 749 840 749 1038 
C 749 1210 627 1280 506 1280 
C 358 1280 262 1190 262 1011 
C 262 454 704 -128 1382 -128 
C 2042 -128 2669 440 2669 1264 
C 2669 2030 2170 2624 1549 2624 
C 1222 2624 947 2503 730 2274 
L 730 3692 
z
" transform="scale(0.015625)"/>
      </defs>
      <use xlink:href="#CMR17-35" transform="scale(0.996264)"/>
     </g>
    </g>
   </g>
  </g>
  <g id="axis3d_2">
   <g id="line2d_8">
    <path d="M 99.718308 255.758416 
L 331.949055 257.704076 
" style="fill: none; stroke: #000000; stroke-width: 0.8; stroke-linecap: square"/>
   </g>
   <g id="text_8">
    <!-- y -->
    <g transform="translate(204.829885 287.306677)scale(0.16 -0.16)">
     <defs>
      <path id="CMSS17-79" d="M 2675 2752 
L 2176 2752 
C 1632 1294 1446 702 1434 383 
L 1427 383 
C 1408 696 1126 1460 902 2007 
L 602 2752 
L 83 2752 
L 1216 13 
C 1146 -178 1043 -465 1011 -529 
C 870 -885 774 -885 672 -885 
C 646 -885 442 -885 211 -809 
L 250 -1229 
C 410 -1261 570 -1280 685 -1280 
C 845 -1280 1165 -1280 1459 -497 
L 2675 2752 
z
" transform="scale(0.015625)"/>
     </defs>
     <use xlink:href="#CMSS17-79" transform="scale(0.996264)"/>
    </g>
   </g>
   <g id="Line3DCollection_2">
    <path d="M 174.320927 89.936414 
L 174.320927 246.323045 
L 126.138503 255.979768 
" style="fill: none; stroke: #b0b0b0; stroke-width: 0.8"/>
    <path d="M 213.668036 89.644338 
L 213.668036 246.615122 
L 170.16301 256.348611 
" style="fill: none; stroke: #b0b0b0; stroke-width: 0.8"/>
    <path d="M 253.310196 89.350071 
L 253.310196 246.909388 
L 214.558754 256.720565 
" style="fill: none; stroke: #b0b0b0; stroke-width: 0.8"/>
    <path d="M 293.250736 89.053589 
L 293.250736 247.20587 
L 259.330451 257.095668 
" style="fill: none; stroke: #b0b0b0; stroke-width: 0.8"/>
    <path d="M 333.493039 88.754868 
L 333.493039 247.504592 
L 304.482897 257.473961 
" style="fill: none; stroke: #b0b0b0; stroke-width: 0.8"/>
   </g>
   <g id="xtick_7">
    <g id="line2d_9">
     <path d="M 126.571139 255.893059 
L 125.270663 256.153701 
" style="fill: none; stroke: #000000; stroke-width: 0.8; stroke-linecap: square"/>
    </g>
    <g id="text_9">
     <!-- $\mathdefault{−4}$ -->
     <g transform="translate(116.28747 274.911486)scale(0.1 -0.1)">
      <defs>
       <path id="CMSY10-0" d="M 4218 1472 
C 4326 1472 4442 1472 4442 1600 
C 4442 1728 4326 1728 4218 1728 
L 755 1728 
C 646 1728 531 1728 531 1600 
C 531 1472 646 1472 755 1472 
L 4218 1472 
z
" transform="scale(0.015625)"/>
      </defs>
      <use xlink:href="#CMSY10-0" transform="scale(0.996264)"/>
      <use xlink:href="#CMR17-34" transform="translate(77.487468 0)scale(0.996264)"/>
     </g>
    </g>
   </g>
   <g id="xtick_8">
    <g id="line2d_10">
     <path d="M 170.553825 256.261173 
L 169.379049 256.524009 
" style="fill: none; stroke: #000000; stroke-width: 0.8; stroke-linecap: square"/>
    </g>
    <g id="text_10">
     <!-- $\mathdefault{−2}$ -->
     <g transform="translate(160.648829 275.334115)scale(0.1 -0.1)">
      <use xlink:href="#CMSY10-0" transform="scale(0.996264)"/>
      <use xlink:href="#CMR17-32" transform="translate(77.487468 0)scale(0.996264)"/>
     </g>
    </g>
   </g>
   <g id="xtick_9">
    <g id="line2d_11">
     <path d="M 214.907027 256.632388 
L 213.860122 256.897446 
" style="fill: none; stroke: #000000; stroke-width: 0.8; stroke-linecap: square"/>
    </g>
    <g id="text_11">
     <!-- $\mathdefault{0}$ -->
     <g transform="translate(209.261637 275.760338)scale(0.1 -0.1)">
      <use xlink:href="#CMR17-30" transform="scale(0.996264)"/>
     </g>
    </g>
   </g>
   <g id="xtick_10">
    <g id="line2d_12">
     <path d="M 259.635447 257.006743 
L 258.718625 257.274052 
" style="fill: none; stroke: #000000; stroke-width: 0.8; stroke-linecap: square"/>
    </g>
    <g id="text_12">
     <!-- $\mathdefault{2}$ -->
     <g transform="translate(254.38198 276.190199)scale(0.1 -0.1)">
      <use xlink:href="#CMR17-32" transform="scale(0.996264)"/>
     </g>
    </g>
   </g>
   <g id="xtick_11">
    <g id="line2d_13">
     <path d="M 304.743865 257.384279 
L 303.959384 257.653867 
" style="fill: none; stroke: #000000; stroke-width: 0.8; stroke-linecap: square"/>
    </g>
    <g id="text_13">
     <!-- $\mathdefault{4}$ -->
     <g transform="translate(299.88914 276.623744)scale(0.1 -0.1)">
      <use xlink:href="#CMR17-34" transform="scale(0.996264)"/>
     </g>
    </g>
   </g>
  </g>
  <g id="axis3d_3">
   <g id="line2d_14">
    <path d="M 99.718308 255.758416 
L 99.718308 80.501043 
" style="fill: none; stroke: #000000; stroke-width: 0.8; stroke-linecap: square"/>
   </g>
   <g id="text_14">
    <!-- z -->
    <g transform="translate(56.263001 172.114786)scale(0.16 -0.16)">
     <defs>
      <path id="CMSS17-7a" d="M 2400 2502 
L 2400 2750 
L 250 2750 
L 250 2368 
L 1069 2368 
C 1146 2368 1222 2368 1299 2368 
L 1747 2368 
L 166 261 
L 166 0 
L 2419 0 
L 2419 395 
L 1549 395 
C 1472 395 1395 395 1318 395 
L 826 395 
L 2400 2502 
z
" transform="scale(0.015625)"/>
     </defs>
     <use xlink:href="#CMSS17-7a" transform="scale(0.996264)"/>
    </g>
   </g>
   <g id="Line3DCollection_3">
    <path d="M 99.718308 252.253269 
L 150.690311 243.026917 
L 357.95377 244.503908 
" style="fill: none; stroke: #b0b0b0; stroke-width: 0.8"/>
    <path d="M 99.718308 218.603853 
L 150.690311 213.068042 
L 357.95377 213.954237 
" style="fill: none; stroke: #b0b0b0; stroke-width: 0.8"/>
    <path d="M 99.718308 184.954438 
L 150.690311 183.109167 
L 357.95377 183.404565 
" style="fill: none; stroke: #b0b0b0; stroke-width: 0.8"/>
    <path d="M 99.718308 151.305022 
L 150.690311 153.150292 
L 357.95377 152.854894 
" style="fill: none; stroke: #b0b0b0; stroke-width: 0.8"/>
    <path d="M 99.718308 117.655606 
L 150.690311 123.191417 
L 357.95377 122.305223 
" style="fill: none; stroke: #b0b0b0; stroke-width: 0.8"/>
    <path d="M 99.718308 84.006191 
L 150.690311 93.232542 
L 357.95377 91.755551 
" style="fill: none; stroke: #b0b0b0; stroke-width: 0.8"/>
   </g>
   <g id="xtick_12">
    <g id="line2d_15">
     <path d="M 100.175866 252.170447 
L 98.800482 252.419403 
" style="fill: none; stroke: #000000; stroke-width: 0.8; stroke-linecap: square"/>
    </g>
    <g id="text_15">
     <!-- $\mathdefault{0}$ -->
     <g transform="translate(78.936672 259.720659)scale(0.1 -0.1)">
      <use xlink:href="#CMR17-30" transform="scale(0.996264)"/>
     </g>
    </g>
   </g>
   <g id="xtick_13">
    <g id="line2d_16">
     <path d="M 100.175866 218.55416 
L 98.800482 218.703534 
" style="fill: none; stroke: #000000; stroke-width: 0.8; stroke-linecap: square"/>
    </g>
    <g id="text_16">
     <!-- $\mathdefault{1}$ -->
     <g transform="translate(78.936672 225.851687)scale(0.1 -0.1)">
      <use xlink:href="#CMR17-31" transform="scale(0.996264)"/>
     </g>
    </g>
   </g>
   <g id="xtick_14">
    <g id="line2d_17">
     <path d="M 100.175866 184.937873 
L 98.800482 184.987664 
" style="fill: none; stroke: #000000; stroke-width: 0.8; stroke-linecap: square"/>
    </g>
    <g id="text_17">
     <!-- $\mathdefault{2}$ -->
     <g transform="translate(78.936672 191.982714)scale(0.1 -0.1)">
      <use xlink:href="#CMR17-32" transform="scale(0.996264)"/>
     </g>
    </g>
   </g>
   <g id="xtick_15">
    <g id="line2d_18">
     <path d="M 100.175866 151.321586 
L 98.800482 151.271795 
" style="fill: none; stroke: #000000; stroke-width: 0.8; stroke-linecap: square"/>
    </g>
    <g id="text_18">
     <!-- $\mathdefault{3}$ -->
     <g transform="translate(78.936672 158.113742)scale(0.1 -0.1)">
      <use xlink:href="#CMR17-33" transform="scale(0.996264)"/>
     </g>
    </g>
   </g>
   <g id="xtick_16">
    <g id="line2d_19">
     <path d="M 100.175866 117.705299 
L 98.800482 117.555926 
" style="fill: none; stroke: #000000; stroke-width: 0.8; stroke-linecap: square"/>
    </g>
    <g id="text_19">
     <!-- $\mathdefault{4}$ -->
     <g transform="translate(78.936672 124.24477)scale(0.1 -0.1)">
      <use xlink:href="#CMR17-34" transform="scale(0.996264)"/>
     </g>
    </g>
   </g>
   <g id="xtick_17">
    <g id="line2d_20">
     <path d="M 100.175866 84.089012 
L 98.800482 83.840057 
" style="fill: none; stroke: #000000; stroke-width: 0.8; stroke-linecap: square"/>
    </g>
    <g id="text_20">
     <!-- $\mathdefault{5}$ -->
     <g transform="translate(78.936672 90.375797)scale(0.1 -0.1)">
      <use xlink:href="#CMR17-35" transform="scale(0.996264)"/>
     </g>
    </g>
   </g>
  </g>
  <g id="axes_1">
   <g id="line2d_21">
    <path d="M 252.619469 243.926087 
L 307.260992 90.234317 
" clip-path="url(#p29c6339f52)" style="fill: none; stroke: #ff0000; stroke-width: 1.5; stroke-linecap: square"/>
   </g>
   <g id="line2d_22">
    <path d="M 252.619469 243.926087 
L 197.301705 120.813016 
" clip-path="url(#p29c6339f52)" style="fill: none; stroke: #00ff00; stroke-width: 1.5; stroke-linecap: square"/>
   </g>
   <g id="line2d_23">
    <path d="M 252.619469 243.926087 
L 252.620546 -1 
" clip-path="url(#p29c6339f52)" style="fill: none; stroke: #0016ff; stroke-width: 1.5; stroke-linecap: square"/>
   </g>
   <g id="line2d_24">
    <path d="M 252.619469 243.926087 
L 149.132655 151.26892 
" clip-path="url(#p29c6339f52)" style="fill: none; stroke: #f400ff; stroke-width: 1.5; stroke-linecap: square"/>
   </g>
   <g id="Poly3DCollection_1">
    <path d="M 153.855952 355.857092 
L 149.475222 316.119273 
L 159.369232 304.864073 
L 163.649502 344.757832 
z
" clip-path="url(#p29c6339f52)" style="fill: #0000f5; fill-opacity: 0.1"/>
    <path d="M 163.649502 344.757832 
L 159.369232 304.864073 
L 169.281889 293.587661 
L 173.461315 333.637874 
z
" clip-path="url(#p29c6339f52)" style="fill: #0000f5; fill-opacity: 0.1"/>
    <path d="M 173.461315 333.637874 
L 169.281889 293.587661 
L 179.213246 282.289976 
L 183.291443 322.497161 
z
" clip-path="url(#p29c6339f52)" style="fill: #0000f5; fill-opacity: 0.1"/>
    <path d="M 183.291443 322.497161 
L 179.213246 282.289976 
L 189.163357 270.970957 
L 193.139936 311.335633 
z
" clip-path="url(#p29c6339f52)" style="fill: #0000f5; fill-opacity: 0.1"/>
    <path d="M 193.139936 311.335633 
L 189.163357 270.970957 
L 199.132275 259.630544 
L 203.006846 300.153233 
z
" clip-path="url(#p29c6339f52)" style="fill: #0000f5; fill-opacity: 0.1"/>
    <path d="M 203.006846 300.153233 
L 199.132275 259.630544 
L 209.120052 248.268677 
L 212.892225 288.949902 
z
" clip-path="url(#p29c6339f52)" style="fill: #0000f5; fill-opacity: 0.1"/>
    <path d="M 212.892225 288.949902 
L 209.120052 248.268677 
L 219.126743 236.885294 
L 222.796125 277.725581 
z
" clip-path="url(#p29c6339f52)" style="fill: #0000f5; fill-opacity: 0.1"/>
    <path d="M 222.796125 277.725581 
L 219.126743 236.885294 
L 229.152401 225.480335 
L 232.718597 266.480211 
z
" clip-path="url(#p29c6339f52)" style="fill: #0000f5; fill-opacity: 0.1"/>
    <path d="M 232.718597 266.480211 
L 229.152401 225.480335 
L 239.19708 214.053737 
L 242.659694 255.213732 
z
" clip-path="url(#p29c6339f52)" style="fill: #0000f5; fill-opacity: 0.1"/>
    <path d="M 242.659694 255.213732 
L 239.19708 214.053737 
L 249.260834 202.60544 
L 252.619469 243.926087 
z
" clip-path="url(#p29c6339f52)" style="fill: #0000f5; fill-opacity: 0.1"/>
    <path d="M 252.619469 243.926087 
L 249.260834 202.60544 
L 259.343719 191.135381 
L 262.597974 232.617213 
z
" clip-path="url(#p29c6339f52)" style="fill: #0000f5; fill-opacity: 0.1"/>
    <path d="M 262.597974 232.617213 
L 259.343719 191.135381 
L 269.445788 179.643498 
L 272.595263 221.287053 
z
" clip-path="url(#p29c6339f52)" style="fill: #0000f5; fill-opacity: 0.1"/>
    <path d="M 149.475222 316.119273 
L 145.000011 275.524402 
L 154.996558 264.109081 
L 159.369232 304.864073 
z
" clip-path="url(#p29c6339f52)" style="fill: #0000f5; fill-opacity: 0.1"/>
    <path d="M 272.595263 221.287053 
L 269.445788 179.643498 
L 279.567096 168.12973 
L 282.611387 209.935544 
z
" clip-path="url(#p29c6339f52)" style="fill: #0000f5; fill-opacity: 0.1"/>
    <path d="M 159.369232 304.864073 
L 154.996558 264.109081 
L 165.01215 252.672013 
L 169.281889 293.587661 
z
" clip-path="url(#p29c6339f52)" style="fill: #0000f5; fill-opacity: 0.1"/>
    <path d="M 282.611387 209.935544 
L 279.567096 168.12973 
L 289.707698 156.594012 
L 292.646401 198.562628 
z
" clip-path="url(#p29c6339f52)" style="fill: #0000f5; fill-opacity: 0.1"/>
    <path d="M 169.281889 293.587661 
L 165.01215 252.672013 
L 175.046841 241.213136 
L 179.213246 282.289976 
z
" clip-path="url(#p29c6339f52)" style="fill: #0000f5; fill-opacity: 0.1"/>
    <path d="M 292.646401 198.562628 
L 289.707698 156.594012 
L 299.867649 145.036284 
L 302.700358 187.168244 
z
" clip-path="url(#p29c6339f52)" style="fill: #0000f5; fill-opacity: 0.1"/>
    <path d="M 179.213246 282.289976 
L 175.046841 241.213136 
L 185.100686 229.732386 
L 189.163357 270.970957 
z
" clip-path="url(#p29c6339f52)" style="fill: #0000f5; fill-opacity: 0.1"/>
    <path d="M 302.700358 187.168244 
L 299.867649 145.036284 
L 310.047006 133.45648 
L 312.773311 175.75233 
z
" clip-path="url(#p29c6339f52)" style="fill: #0000f5; fill-opacity: 0.1"/>
    <path d="M 189.163357 270.970957 
L 185.100686 229.732386 
L 195.173738 218.229702 
L 199.132275 259.630544 
z
" clip-path="url(#p29c6339f52)" style="fill: #0000f5; fill-opacity: 0.1"/>
    <path d="M 312.773311 175.75233 
L 310.047006 133.45648 
L 320.245823 121.854539 
L 322.865315 164.314826 
z
" clip-path="url(#p29c6339f52)" style="fill: #0000f5; fill-opacity: 0.1"/>
    <path d="M 199.132275 259.630544 
L 195.173738 218.229702 
L 205.266055 206.70502 
L 209.120052 248.268677 
z
" clip-path="url(#p29c6339f52)" style="fill: #0000f5; fill-opacity: 0.1"/>
    <path d="M 322.865315 164.314826 
L 320.245823 121.854539 
L 330.464156 110.230396 
L 332.976424 152.855669 
z
" clip-path="url(#p29c6339f52)" style="fill: #0000f5; fill-opacity: 0.1"/>
    <path d="M 209.120052 248.268677 
L 205.266055 206.70502 
L 215.37769 195.158278 
L 219.126743 236.885294 
z
" clip-path="url(#p29c6339f52)" style="fill: #0000f5; fill-opacity: 0.1"/>
    <path d="M 332.976424 152.855669 
L 330.464156 110.230396 
L 340.702062 98.583989 
L 343.106692 141.3748 
z
" clip-path="url(#p29c6339f52)" style="fill: #0000f5; fill-opacity: 0.1"/>
    <path d="M 219.126743 236.885294 
L 215.37769 195.158278 
L 225.5087 183.589411 
L 229.152401 225.480335 
z
" clip-path="url(#p29c6339f52)" style="fill: #0000f5; fill-opacity: 0.1"/>
    <path d="M 229.152401 225.480335 
L 225.5087 183.589411 
L 235.65914 171.998356 
L 239.19708 214.053737 
z
" clip-path="url(#p29c6339f52)" style="fill: #0000f5; fill-opacity: 0.1"/>
    <path d="M 239.19708 214.053737 
L 235.65914 171.998356 
L 245.829067 160.38505 
L 249.260834 202.60544 
z
" clip-path="url(#p29c6339f52)" style="fill: #0000f5; fill-opacity: 0.1"/>
    <path d="M 249.260834 202.60544 
L 245.829067 160.38505 
L 256.018535 148.749428 
L 259.343719 191.135381 
z
" clip-path="url(#p29c6339f52)" style="fill: #0000f5; fill-opacity: 0.1"/>
    <path d="M 259.343719 191.135381 
L 256.018535 148.749428 
L 266.227602 137.091425 
L 269.445788 179.643498 
z
" clip-path="url(#p29c6339f52)" style="fill: #0000f5; fill-opacity: 0.1"/>
    <path d="M 145.000011 275.524402 
L 140.427227 234.044451 
L 150.528457 222.464663 
L 154.996558 264.109081 
z
" clip-path="url(#p29c6339f52)" style="fill: #0000f5; fill-opacity: 0.1"/>
    <path d="M 269.445788 179.643498 
L 266.227602 137.091425 
L 276.456324 125.410978 
L 279.567096 168.12973 
z
" clip-path="url(#p29c6339f52)" style="fill: #0000f5; fill-opacity: 0.1"/>
    <path d="M 154.996558 264.109081 
L 150.528457 222.464663 
L 160.64914 210.862573 
L 165.01215 252.672013 
z
" clip-path="url(#p29c6339f52)" style="fill: #0000f5; fill-opacity: 0.1"/>
    <path d="M 279.567096 168.12973 
L 276.456324 125.410978 
L 286.704759 113.708021 
L 289.707698 156.594012 
z
" clip-path="url(#p29c6339f52)" style="fill: #0000f5; fill-opacity: 0.1"/>
    <path d="M 165.01215 252.672013 
L 160.64914 210.862573 
L 170.789334 199.238117 
L 175.046841 241.213136 
z
" clip-path="url(#p29c6339f52)" style="fill: #0000f5; fill-opacity: 0.1"/>
    <path d="M 289.707698 156.594012 
L 286.704759 113.708021 
L 296.972962 101.982489 
L 299.867649 145.036284 
z
" clip-path="url(#p29c6339f52)" style="fill: #0000f5; fill-opacity: 0.1"/>
    <path d="M 175.046841 241.213136 
L 170.789334 199.238117 
L 180.949094 187.591231 
L 185.100686 229.732386 
z
" clip-path="url(#p29c6339f52)" style="fill: #0000f5; fill-opacity: 0.1"/>
    <path d="M 299.867649 145.036284 
L 296.972962 101.982489 
L 307.260992 90.234317 
L 310.047006 133.45648 
z
" clip-path="url(#p29c6339f52)" style="fill: #0000f5; fill-opacity: 0.1"/>
    <path d="M 185.100686 229.732386 
L 180.949094 187.591231 
L 191.128479 175.921848 
L 195.173738 218.229702 
z
" clip-path="url(#p29c6339f52)" style="fill: #0000f5; fill-opacity: 0.1"/>
    <path d="M 310.047006 133.45648 
L 307.260992 90.234317 
L 317.568906 78.463439 
L 320.245823 121.854539 
z
" clip-path="url(#p29c6339f52)" style="fill: #0000f5; fill-opacity: 0.1"/>
    <path d="M 195.173738 218.229702 
L 191.128479 175.921848 
L 201.327543 164.229904 
L 205.266055 206.70502 
z
" clip-path="url(#p29c6339f52)" style="fill: #0000f5; fill-opacity: 0.1"/>
    <path d="M 320.245823 121.854539 
L 317.568906 78.463439 
L 327.896761 66.669789 
L 330.464156 110.230396 
z
" clip-path="url(#p29c6339f52)" style="fill: #0000f5; fill-opacity: 0.1"/>
    <path d="M 205.266055 206.70502 
L 201.327543 164.229904 
L 211.546345 152.515334 
L 215.37769 195.158278 
z
" clip-path="url(#p29c6339f52)" style="fill: #0000f5; fill-opacity: 0.1"/>
    <path d="M 330.464156 110.230396 
L 327.896761 66.669789 
L 338.244616 54.853302 
L 340.702062 98.583989 
z
" clip-path="url(#p29c6339f52)" style="fill: #0000f5; fill-opacity: 0.1"/>
    <path d="M 215.37769 195.158278 
L 211.546345 152.515334 
L 221.784942 140.778072 
L 225.5087 183.589411 
z
" clip-path="url(#p29c6339f52)" style="fill: #0000f5; fill-opacity: 0.1"/>
    <path d="M 225.5087 183.589411 
L 221.784942 140.778072 
L 232.043391 129.018051 
L 235.65914 171.998356 
z
" clip-path="url(#p29c6339f52)" style="fill: #0000f5; fill-opacity: 0.1"/>
    <path d="M 235.65914 171.998356 
L 232.043391 129.018051 
L 242.32175 117.235205 
L 245.829067 160.38505 
z
" clip-path="url(#p29c6339f52)" style="fill: #0000f5; fill-opacity: 0.1"/>
    <path d="M 245.829067 160.38505 
L 242.32175 117.235205 
L 252.620078 105.429469 
L 256.018535 148.749428 
z
" clip-path="url(#p29c6339f52)" style="fill: #0000f5; fill-opacity: 0.1"/>
    <path d="M 256.018535 148.749428 
L 252.620078 105.429469 
L 262.938432 93.600775 
L 266.227602 137.091425 
z
" clip-path="url(#p29c6339f52)" style="fill: #0000f5; fill-opacity: 0.1"/>
    <path d="M 140.427227 234.044451 
L 135.753646 191.650154 
L 145.961769 179.90138 
L 150.528457 222.464663 
z
" clip-path="url(#p29c6339f52)" style="fill: #0000f5; fill-opacity: 0.1"/>
    <path d="M 266.227602 137.091425 
L 262.938432 93.600775 
L 273.276872 81.749055 
L 276.456324 125.410978 
z
" clip-path="url(#p29c6339f52)" style="fill: #0000f5; fill-opacity: 0.1"/>
    <path d="M 150.528457 222.464663 
L 145.961769 179.90138 
L 156.189769 168.12973 
L 160.64914 210.862573 
z
" clip-path="url(#p29c6339f52)" style="fill: #0000f5; fill-opacity: 0.1"/>
    <path d="M 276.456324 125.410978 
L 273.276872 81.749055 
L 283.635454 69.874244 
L 286.704759 113.708021 
z
" clip-path="url(#p29c6339f52)" style="fill: #0000f5; fill-opacity: 0.1"/>
    <path d="M 160.64914 210.862573 
L 156.189769 168.12973 
L 166.437704 156.335135 
L 170.789334 199.238117 
z
" clip-path="url(#p29c6339f52)" style="fill: #0000f5; fill-opacity: 0.1"/>
    <path d="M 286.704759 113.708021 
L 283.635454 69.874244 
L 294.01424 57.976273 
L 296.972962 101.982489 
z
" clip-path="url(#p29c6339f52)" style="fill: #0000f5; fill-opacity: 0.1"/>
    <path d="M 170.789334 199.238117 
L 166.437704 156.335135 
L 176.705633 144.51753 
L 180.949094 187.591231 
z
" clip-path="url(#p29c6339f52)" style="fill: #0000f5; fill-opacity: 0.1"/>
    <path d="M 296.972962 101.982489 
L 294.01424 57.976273 
L 304.413287 46.055074 
L 307.260992 90.234317 
z
" clip-path="url(#p29c6339f52)" style="fill: #0000f5; fill-opacity: 0.1"/>
    <path d="M 180.949094 187.591231 
L 176.705633 144.51753 
L 186.993613 132.676846 
L 191.128479 175.921848 
z
" clip-path="url(#p29c6339f52)" style="fill: #0000f5; fill-opacity: 0.1"/>
    <path d="M 307.260992 90.234317 
L 304.413287 46.055074 
L 314.832656 34.110579 
L 317.568906 78.463439 
z
" clip-path="url(#p29c6339f52)" style="fill: #0000f5; fill-opacity: 0.1"/>
    <path d="M 191.128479 175.921848 
L 186.993613 132.676846 
L 197.301705 120.813016 
L 201.327543 164.229904 
z
" clip-path="url(#p29c6339f52)" style="fill: #0000f5; fill-opacity: 0.1"/>
    <path d="M 317.568906 78.463439 
L 314.832656 34.110579 
L 325.272405 22.142721 
L 327.896761 66.669789 
z
" clip-path="url(#p29c6339f52)" style="fill: #0000f5; fill-opacity: 0.1"/>
    <path d="M 201.327543 164.229904 
L 197.301705 120.813016 
L 207.629966 108.925972 
L 211.546345 152.515334 
z
" clip-path="url(#p29c6339f52)" style="fill: #0000f5; fill-opacity: 0.1"/>
    <path d="M 327.896761 66.669789 
L 325.272405 22.142721 
L 335.732595 10.15143 
L 338.244616 54.853302 
z
" clip-path="url(#p29c6339f52)" style="fill: #0000f5; fill-opacity: 0.1"/>
    <path d="M 211.546345 152.515334 
L 207.629966 108.925972 
L 217.978457 97.015646 
L 221.784942 140.778072 
z
" clip-path="url(#p29c6339f52)" style="fill: #0000f5; fill-opacity: 0.1"/>
    <path d="M 221.784942 140.778072 
L 217.978457 97.015646 
L 228.347236 85.081969 
L 232.043391 129.018051 
z
" clip-path="url(#p29c6339f52)" style="fill: #0000f5; fill-opacity: 0.1"/>
    <path d="M 232.043391 129.018051 
L 228.347236 85.081969 
L 238.736364 73.124873 
L 242.32175 117.235205 
z
" clip-path="url(#p29c6339f52)" style="fill: #0000f5; fill-opacity: 0.1"/>
    <path d="M 242.32175 117.235205 
L 238.736364 73.124873 
L 249.1459 61.144288 
L 252.620078 105.429469 
z
" clip-path="url(#p29c6339f52)" style="fill: #0000f5; fill-opacity: 0.1"/>
    <path d="M 252.620078 105.429469 
L 249.1459 61.144288 
L 259.575904 49.140146 
L 262.938432 93.600775 
z
" clip-path="url(#p29c6339f52)" style="fill: #0000f5; fill-opacity: 0.1"/>
    <path d="M 135.753646 191.650154 
L 130.975896 148.310943 
L 141.293195 136.388484 
L 145.961769 179.90138 
z
" clip-path="url(#p29c6339f52)" style="fill: #0000f5; fill-opacity: 0.1"/>
    <path d="M 262.938432 93.600775 
L 259.575904 49.140146 
L 270.026437 37.112376 
L 273.276872 81.749055 
z
" clip-path="url(#p29c6339f52)" style="fill: #0000f5; fill-opacity: 0.1"/>
    <path d="M 145.961769 179.90138 
L 141.293195 136.388484 
L 151.630808 124.44255 
L 156.189769 168.12973 
z
" clip-path="url(#p29c6339f52)" style="fill: #0000f5; fill-opacity: 0.1"/>
    <path d="M 273.276872 81.749055 
L 270.026437 37.112376 
L 280.49756 25.06091 
L 283.635454 69.874244 
z
" clip-path="url(#p29c6339f52)" style="fill: #0000f5; fill-opacity: 0.1"/>
    <path d="M 156.189769 168.12973 
L 151.630808 124.44255 
L 161.988795 112.473073 
L 166.437704 156.335135 
z
" clip-path="url(#p29c6339f52)" style="fill: #0000f5; fill-opacity: 0.1"/>
    <path d="M 283.635454 69.874244 
L 280.49756 25.06091 
L 290.989334 12.985676 
L 294.01424 57.976273 
z
" clip-path="url(#p29c6339f52)" style="fill: #0000f5; fill-opacity: 0.1"/>
    <path d="M 166.437704 156.335135 
L 161.988795 112.473073 
L 172.367216 100.479983 
L 176.705633 144.51753 
z
" clip-path="url(#p29c6339f52)" style="fill: #0000f5; fill-opacity: 0.1"/>
    <path d="M 294.01424 57.976273 
L 290.989334 12.985676 
L 301.501819 0.886605 
L 304.413287 46.055074 
z
" clip-path="url(#p29c6339f52)" style="fill: #0000f5; fill-opacity: 0.1"/>
    <path d="M 176.705633 144.51753 
L 172.367216 100.479983 
L 182.766132 88.463209 
L 186.993613 132.676846 
z
" clip-path="url(#p29c6339f52)" style="fill: #0000f5; fill-opacity: 0.1"/>
    <path d="M 304.413287 46.055074 
L 301.501819 0.886605 
L 312.035077 -11.236375 
L 314.832656 34.110579 
z
" clip-path="url(#p29c6339f52)" style="fill: #0000f5; fill-opacity: 0.1"/>
    <path d="M 186.993613 132.676846 
L 182.766132 88.463209 
L 193.185604 76.422682 
L 197.301705 120.813016 
z
" clip-path="url(#p29c6339f52)" style="fill: #0000f5; fill-opacity: 0.1"/>
    <path d="M 314.832656 34.110579 
L 312.035077 -11.236375 
L 322.589169 -23.383334 
L 325.272405 22.142721 
z
" clip-path="url(#p29c6339f52)" style="fill: #0000f5; fill-opacity: 0.1"/>
    <path d="M 197.301705 120.813016 
L 193.185604 76.422682 
L 203.625692 64.35833 
L 207.629966 108.925972 
z
" clip-path="url(#p29c6339f52)" style="fill: #0000f5; fill-opacity: 0.1"/>
    <path d="M 325.272405 22.142721 
L 322.589169 -23.383334 
L 333.164159 -35.554343 
L 335.732595 10.15143 
z
" clip-path="url(#p29c6339f52)" style="fill: #0000f5; fill-opacity: 0.1"/>
    <path d="M 207.629966 108.925972 
L 203.625692 64.35833 
L 214.086458 52.270083 
L 217.978457 97.015646 
z
" clip-path="url(#p29c6339f52)" style="fill: #0000f5; fill-opacity: 0.1"/>
    <path d="M 217.978457 97.015646 
L 214.086458 52.270083 
L 224.567964 40.157871 
L 228.347236 85.081969 
z
" clip-path="url(#p29c6339f52)" style="fill: #0000f5; fill-opacity: 0.1"/>
    <path d="M 228.347236 85.081969 
L 224.567964 40.157871 
L 235.07027 28.021621 
L 238.736364 73.124873 
z
" clip-path="url(#p29c6339f52)" style="fill: #0000f5; fill-opacity: 0.1"/>
    <path d="M 238.736364 73.124873 
L 235.07027 28.021621 
L 245.59344 15.861263 
L 249.1459 61.144288 
z
" clip-path="url(#p29c6339f52)" style="fill: #0000f5; fill-opacity: 0.1"/>
    <path d="M 249.1459 61.144288 
L 245.59344 15.861263 
L 256.137535 3.676723 
L 259.575904 49.140146 
z
" clip-path="url(#p29c6339f52)" style="fill: #0000f5; fill-opacity: 0.1"/>
    <path d="M 130.975896 148.310943 
L 126.090456 103.994869 
L 136.519287 91.893834 
L 141.293195 136.388484 
z
" clip-path="url(#p29c6339f52)" style="fill: #0000f5; fill-opacity: 0.1"/>
    <path d="M 259.575904 49.140146 
L 256.137535 3.676723 
L 266.702617 -8.532069 
L 270.026437 37.112376 
z
" clip-path="url(#p29c6339f52)" style="fill: #0000f5; fill-opacity: 0.1"/>
    <path d="M 141.293195 136.388484 
L 136.519287 91.893834 
L 146.968884 79.768705 
L 151.630808 124.44255 
z
" clip-path="url(#p29c6339f52)" style="fill: #0000f5; fill-opacity: 0.1"/>
    <path d="M 270.026437 37.112376 
L 266.702617 -8.532069 
L 277.288751 -20.765188 
L 280.49756 25.06091 
z
" clip-path="url(#p29c6339f52)" style="fill: #0000f5; fill-opacity: 0.1"/>
    <path d="M 151.630808 124.44255 
L 146.968884 79.768705 
L 157.439308 67.619409 
L 161.988795 112.473073 
z
" clip-path="url(#p29c6339f52)" style="fill: #0000f5; fill-opacity: 0.1"/>
    <path d="M 280.49756 25.06091 
L 277.288751 -20.765188 
L 287.895997 -33.022704 
L 290.989334 12.985676 
z
" clip-path="url(#p29c6339f52)" style="fill: #0000f5; fill-opacity: 0.1"/>
    <path d="M 161.988795 112.473073 
L 157.439308 67.619409 
L 167.930622 55.445873 
L 172.367216 100.479983 
z
" clip-path="url(#p29c6339f52)" style="fill: #0000f5; fill-opacity: 0.1"/>
    <path d="M 290.989334 12.985676 
L 287.895997 -33.022704 
L 298.524421 -45.304692 
L 301.501819 0.886605 
z
" clip-path="url(#p29c6339f52)" style="fill: #0000f5; fill-opacity: 0.1"/>
    <path d="M 172.367216 100.479983 
L 167.930622 55.445873 
L 178.442888 43.248025 
L 182.766132 88.463209 
z
" clip-path="url(#p29c6339f52)" style="fill: #0000f5; fill-opacity: 0.1"/>
    <path d="M 301.501819 0.886605 
L 298.524421 -45.304692 
L 309.174084 -57.611224 
L 312.035077 -11.236375 
z
" clip-path="url(#p29c6339f52)" style="fill: #0000f5; fill-opacity: 0.1"/>
    <path d="M 182.766132 88.463209 
L 178.442888 43.248025 
L 188.97617 31.025792 
L 193.185604 76.422682 
z
" clip-path="url(#p29c6339f52)" style="fill: #0000f5; fill-opacity: 0.1"/>
    <path d="M 312.035077 -11.236375 
L 309.174084 -57.611224 
L 319.845051 -69.942375 
L 322.589169 -23.383334 
z
" clip-path="url(#p29c6339f52)" style="fill: #0000f5; fill-opacity: 0.1"/>
    <path d="M 193.185604 76.422682 
L 188.97617 31.025792 
L 199.53053 18.779101 
L 203.625692 64.35833 
z
" clip-path="url(#p29c6339f52)" style="fill: #0000f5; fill-opacity: 0.1"/>
    <path d="M 322.589169 -23.383334 
L 319.845051 -69.942375 
L 330.537387 -82.298218 
L 333.164159 -35.554343 
z
" clip-path="url(#p29c6339f52)" style="fill: #0000f5; fill-opacity: 0.1"/>
    <path d="M 203.625692 64.35833 
L 199.53053 18.779101 
L 210.106031 6.507879 
L 214.086458 52.270083 
z
" clip-path="url(#p29c6339f52)" style="fill: #0000f5; fill-opacity: 0.1"/>
    <path d="M 214.086458 52.270083 
L 210.106031 6.507879 
L 220.702738 -5.787949 
L 224.567964 40.157871 
z
" clip-path="url(#p29c6339f52)" style="fill: #0000f5; fill-opacity: 0.1"/>
    <path d="M 224.567964 40.157871 
L 220.702738 -5.787949 
L 231.320714 -18.108456 
L 235.07027 28.021621 
z
" clip-path="url(#p29c6339f52)" style="fill: #0000f5; fill-opacity: 0.1"/>
    <path d="M 235.07027 28.021621 
L 231.320714 -18.108456 
L 241.960023 -30.453717 
L 245.59344 15.861263 
z
" clip-path="url(#p29c6339f52)" style="fill: #0000f5; fill-opacity: 0.1"/>
    <path d="M 245.59344 15.861263 
L 241.960023 -30.453717 
L 252.62073 -42.823807 
L 256.137535 3.676723 
z
" clip-path="url(#p29c6339f52)" style="fill: #0000f5; fill-opacity: 0.1"/>
    <path d="M 126.090456 103.994869 
L 121.093643 58.668528 
L 131.63644 46.383827 
L 136.519287 91.893834 
z
" clip-path="url(#p29c6339f52)" style="fill: #0000f5; fill-opacity: 0.1"/>
    <path d="M 256.137535 3.676723 
L 252.62073 -42.823807 
L 263.302899 -55.2188 
L 266.702617 -8.532069 
z
" clip-path="url(#p29c6339f52)" style="fill: #0000f5; fill-opacity: 0.1"/>
    <path d="M 136.519287 91.893834 
L 131.63644 46.383827 
L 142.200468 34.074386 
L 146.968884 79.768705 
z
" clip-path="url(#p29c6339f52)" style="fill: #0000f5; fill-opacity: 0.1"/>
    <path d="M 266.702617 -8.532069 
L 263.302899 -55.2188 
L 274.006595 -67.638772 
L 277.288751 -20.765188 
z
" clip-path="url(#p29c6339f52)" style="fill: #0000f5; fill-opacity: 0.1"/>
    <path d="M 146.968884 79.768705 
L 142.200468 34.074386 
L 152.785793 21.74013 
L 157.439308 67.619409 
z
" clip-path="url(#p29c6339f52)" style="fill: #0000f5; fill-opacity: 0.1"/>
    <path d="M 277.288751 -20.765188 
L 274.006595 -67.638772 
L 284.731883 -80.083798 
L 287.895997 -33.022704 
z
" clip-path="url(#p29c6339f52)" style="fill: #0000f5; fill-opacity: 0.1"/>
    <path d="M 157.439308 67.619409 
L 152.785793 21.74013 
L 163.392479 9.380984 
L 167.930622 55.445873 
z
" clip-path="url(#p29c6339f52)" style="fill: #0000f5; fill-opacity: 0.1"/>
    <path d="M 287.895997 -33.022704 
L 284.731883 -80.083798 
L 295.478828 -92.553955 
L 298.524421 -45.304692 
z
" clip-path="url(#p29c6339f52)" style="fill: #0000f5; fill-opacity: 0.1"/>
    <path d="M 167.930622 55.445873 
L 163.392479 9.380984 
L 174.02059 -3.003128 
L 178.442888 43.248025 
z
" clip-path="url(#p29c6339f52)" style="fill: #0000f5; fill-opacity: 0.1"/>
    <path d="M 298.524421 -45.304692 
L 295.478828 -92.553955 
L 306.247497 -105.049318 
L 309.174084 -57.611224 
z
" clip-path="url(#p29c6339f52)" style="fill: #0000f5; fill-opacity: 0.1"/>
    <path d="M 178.442888 43.248025 
L 174.02059 -3.003128 
L 184.670192 -15.412281 
L 188.97617 31.025792 
z
" clip-path="url(#p29c6339f52)" style="fill: #0000f5; fill-opacity: 0.1"/>
    <path d="M 309.174084 -57.611224 
L 306.247497 -105.049318 
L 317.037955 -117.569964 
L 319.845051 -69.942375 
z
" clip-path="url(#p29c6339f52)" style="fill: #0000f5; fill-opacity: 0.1"/>
    <path d="M 188.97617 31.025792 
L 184.670192 -15.412281 
L 195.341349 -27.846551 
L 199.53053 18.779101 
z
" clip-path="url(#p29c6339f52)" style="fill: #0000f5; fill-opacity: 0.1"/>
    <path d="M 319.845051 -69.942375 
L 317.037955 -117.569964 
L 327.850268 -130.115969 
L 330.537387 -82.298218 
z
" clip-path="url(#p29c6339f52)" style="fill: #0000f5; fill-opacity: 0.1"/>
    <path d="M 199.53053 18.779101 
L 195.341349 -27.846551 
L 206.034128 -40.306014 
L 210.106031 6.507879 
z
" clip-path="url(#p29c6339f52)" style="fill: #0000f5; fill-opacity: 0.1"/>
    <path d="M 210.106031 6.507879 
L 206.034128 -40.306014 
L 216.748594 -52.790748 
L 220.702738 -5.787949 
z
" clip-path="url(#p29c6339f52)" style="fill: #0000f5; fill-opacity: 0.1"/>
    <path d="M 220.702738 -5.787949 
L 216.748594 -52.790748 
L 227.484812 -65.300829 
L 231.320714 -18.108456 
z
" clip-path="url(#p29c6339f52)" style="fill: #0000f5; fill-opacity: 0.1"/>
    <path d="M 231.320714 -18.108456 
L 227.484812 -65.300829 
L 238.24285 -77.836335 
L 241.960023 -30.453717 
z
" clip-path="url(#p29c6339f52)" style="fill: #0000f5; fill-opacity: 0.1"/>
    <path d="M 241.960023 -30.453717 
L 238.24285 -77.836335 
L 249.022774 -90.397342 
L 252.62073 -42.823807 
z
" clip-path="url(#p29c6339f52)" style="fill: #0000f5; fill-opacity: 0.1"/>
    <path d="M 121.093643 58.668528 
L 115.981606 12.296977 
L 126.640881 -0.176694 
L 131.63644 46.383827 
z
" clip-path="url(#p29c6339f52)" style="fill: #0000f5; fill-opacity: 0.1"/>
    <path d="M 252.62073 -42.823807 
L 249.022774 -90.397342 
L 259.824651 -102.983929 
L 263.302899 -55.2188 
z
" clip-path="url(#p29c6339f52)" style="fill: #0000f5; fill-opacity: 0.1"/>
    <path d="M 131.63644 46.383827 
L 126.640881 -0.176694 
L 137.321871 -12.675776 
L 142.200468 34.074386 
z
" clip-path="url(#p29c6339f52)" style="fill: #0000f5; fill-opacity: 0.1"/>
    <path d="M 263.302899 -55.2188 
L 259.824651 -102.983929 
L 270.648548 -115.596175 
L 274.006595 -67.638772 
z
" clip-path="url(#p29c6339f52)" style="fill: #0000f5; fill-opacity: 0.1"/>
    <path d="M 142.200468 34.074386 
L 137.321871 -12.675776 
L 148.024642 -25.200346 
L 152.785793 21.74013 
z
" clip-path="url(#p29c6339f52)" style="fill: #0000f5; fill-opacity: 0.1"/>
    <path d="M 274.006595 -67.638772 
L 270.648548 -115.596175 
L 281.494532 -128.234157 
L 284.731883 -80.083798 
z
" clip-path="url(#p29c6339f52)" style="fill: #0000f5; fill-opacity: 0.1"/>
    <path d="M 152.785793 21.74013 
L 148.024642 -25.200346 
L 158.749261 -37.750484 
L 163.392479 9.380984 
z
" clip-path="url(#p29c6339f52)" style="fill: #0000f5; fill-opacity: 0.1"/>
    <path d="M 284.731883 -80.083798 
L 281.494532 -128.234157 
L 292.362671 -140.897954 
L 295.478828 -92.553955 
z
" clip-path="url(#p29c6339f52)" style="fill: #0000f5; fill-opacity: 0.1"/>
    <path d="M 163.392479 9.380984 
L 158.749261 -37.750484 
L 169.495795 -50.326266 
L 174.02059 -3.003128 
z
" clip-path="url(#p29c6339f52)" style="fill: #0000f5; fill-opacity: 0.1"/>
    <path d="M 295.478828 -92.553955 
L 292.362671 -140.897954 
L 303.253033 -153.587646 
L 306.247497 -105.049318 
z
" clip-path="url(#p29c6339f52)" style="fill: #0000f5; fill-opacity: 0.1"/>
    <path d="M 174.02059 -3.003128 
L 169.495795 -50.326266 
L 180.26431 -62.927772 
L 184.670192 -15.412281 
z
" clip-path="url(#p29c6339f52)" style="fill: #0000f5; fill-opacity: 0.1"/>
    <path d="M 306.247497 -105.049318 
L 303.253033 -153.587646 
L 314.165687 -166.303313 
L 317.037955 -117.569964 
z
" clip-path="url(#p29c6339f52)" style="fill: #0000f5; fill-opacity: 0.1"/>
    <path d="M 184.670192 -15.412281 
L 180.26431 -62.927772 
L 191.054875 -75.555081 
L 195.341349 -27.846551 
z
" clip-path="url(#p29c6339f52)" style="fill: #0000f5; fill-opacity: 0.1"/>
    <path d="M 317.037955 -117.569964 
L 314.165687 -166.303313 
L 325.1007 -179.045033 
L 327.850268 -130.115969 
z
" clip-path="url(#p29c6339f52)" style="fill: #0000f5; fill-opacity: 0.1"/>
    <path d="M 195.341349 -27.846551 
L 191.054875 -75.555081 
L 201.867558 -88.208272 
L 206.034128 -40.306014 
z
" clip-path="url(#p29c6339f52)" style="fill: #0000f5; fill-opacity: 0.1"/>
    <path d="M 206.034128 -40.306014 
L 201.867558 -88.208272 
L 212.702426 -100.887424 
L 216.748594 -52.790748 
z
" clip-path="url(#p29c6339f52)" style="fill: #0000f5; fill-opacity: 0.1"/>
    <path d="M 216.748594 -52.790748 
L 212.702426 -100.887424 
L 223.559547 -113.592619 
L 227.484812 -65.300829 
z
" clip-path="url(#p29c6339f52)" style="fill: #0000f5; fill-opacity: 0.1"/>
    <path d="M 227.484812 -65.300829 
L 223.559547 -113.592619 
L 234.438991 -126.323935 
L 238.24285 -77.836335 
z
" clip-path="url(#p29c6339f52)" style="fill: #0000f5; fill-opacity: 0.1"/>
    <path d="M 238.24285 -77.836335 
L 234.438991 -126.323935 
L 245.340827 -139.081454 
L 249.022774 -90.397342 
z
" clip-path="url(#p29c6339f52)" style="fill: #0000f5; fill-opacity: 0.1"/>
    <path d="M 115.981606 12.296977 
L 110.750311 -35.15636 
L 121.528663 -47.824528 
L 126.640881 -0.176694 
z
" clip-path="url(#p29c6339f52)" style="fill: #0000f5; fill-opacity: 0.1"/>
    <path d="M 249.022774 -90.397342 
L 245.340827 -139.081454 
L 256.265122 -151.865257 
L 259.824651 -102.983929 
z
" clip-path="url(#p29c6339f52)" style="fill: #0000f5; fill-opacity: 0.1"/>
    <path d="M 126.640881 -0.176694 
L 121.528663 -47.824528 
L 132.329228 -60.518804 
L 137.321871 -12.675776 
z
" clip-path="url(#p29c6339f52)" style="fill: #0000f5; fill-opacity: 0.1"/>
    <path d="M 259.824651 -102.983929 
L 256.265122 -151.865257 
L 267.211948 -164.675425 
L 270.648548 -115.596175 
z
" clip-path="url(#p29c6339f52)" style="fill: #0000f5; fill-opacity: 0.1"/>
    <path d="M 137.321871 -12.675776 
L 132.329228 -60.518804 
L 143.152076 -73.23927 
L 148.024642 -25.200346 
z
" clip-path="url(#p29c6339f52)" style="fill: #0000f5; fill-opacity: 0.1"/>
    <path d="M 270.648548 -115.596175 
L 267.211948 -164.675425 
L 278.181373 -177.512039 
L 281.494532 -128.234157 
z
" clip-path="url(#p29c6339f52)" style="fill: #0000f5; fill-opacity: 0.1"/>
    <path d="M 148.024642 -25.200346 
L 143.152076 -73.23927 
L 153.997275 -85.986007 
L 158.749261 -37.750484 
z
" clip-path="url(#p29c6339f52)" style="fill: #0000f5; fill-opacity: 0.1"/>
    <path d="M 281.494532 -128.234157 
L 278.181373 -177.512039 
L 289.173469 -190.375182 
L 292.362671 -140.897954 
z
" clip-path="url(#p29c6339f52)" style="fill: #0000f5; fill-opacity: 0.1"/>
    <path d="M 158.749261 -37.750484 
L 153.997275 -85.986007 
L 164.864896 -98.759095 
L 169.495795 -50.326266 
z
" clip-path="url(#p29c6339f52)" style="fill: #0000f5; fill-opacity: 0.1"/>
    <path d="M 292.362671 -140.897954 
L 289.173469 -190.375182 
L 300.188304 -203.264935 
L 303.253033 -153.587646 
z
" clip-path="url(#p29c6339f52)" style="fill: #0000f5; fill-opacity: 0.1"/>
    <path d="M 169.495795 -50.326266 
L 164.864896 -98.759095 
L 175.755007 -111.558618 
L 180.26431 -62.927772 
z
" clip-path="url(#p29c6339f52)" style="fill: #0000f5; fill-opacity: 0.1"/>
    <path d="M 303.253033 -153.587646 
L 300.188304 -203.264935 
L 311.22595 -216.181383 
L 314.165687 -166.303313 
z
" clip-path="url(#p29c6339f52)" style="fill: #0000f5; fill-opacity: 0.1"/>
    <path d="M 180.26431 -62.927772 
L 175.755007 -111.558618 
L 186.667679 -124.384657 
L 191.054875 -75.555081 
z
" clip-path="url(#p29c6339f52)" style="fill: #0000f5; fill-opacity: 0.1"/>
    <path d="M 314.165687 -166.303313 
L 311.22595 -216.181383 
L 322.286478 -229.124607 
L 325.1007 -179.045033 
z
" clip-path="url(#p29c6339f52)" style="fill: #0000f5; fill-opacity: 0.1"/>
    <path d="M 191.054875 -75.555081 
L 186.667679 -124.384657 
L 197.602981 -137.237294 
L 201.867558 -88.208272 
z
" clip-path="url(#p29c6339f52)" style="fill: #0000f5; fill-opacity: 0.1"/>
    <path d="M 201.867558 -88.208272 
L 197.602981 -137.237294 
L 208.560984 -150.116613 
L 212.702426 -100.887424 
z
" clip-path="url(#p29c6339f52)" style="fill: #0000f5; fill-opacity: 0.1"/>
    <path d="M 212.702426 -100.887424 
L 208.560984 -150.116613 
L 219.54176 -163.022697 
L 223.559547 -113.592619 
z
" clip-path="url(#p29c6339f52)" style="fill: #0000f5; fill-opacity: 0.1"/>
    <path d="M 223.559547 -113.592619 
L 219.54176 -163.022697 
L 230.545378 -175.955628 
L 234.438991 -126.323935 
z
" clip-path="url(#p29c6339f52)" style="fill: #0000f5; fill-opacity: 0.1"/>
    <path d="M 234.438991 -126.323935 
L 230.545378 -175.955628 
L 241.571911 -188.915492 
L 245.340827 -139.081454 
z
" clip-path="url(#p29c6339f52)" style="fill: #0000f5; fill-opacity: 0.1"/>
    <path d="M 245.340827 -139.081454 
L 241.571911 -188.915492 
L 252.621429 -201.902372 
L 256.265122 -151.865257 
z
" clip-path="url(#p29c6339f52)" style="fill: #0000f5; fill-opacity: 0.1"/>
    <path d="M 256.265122 -151.865257 
L 252.621429 -201.902372 
L 263.694006 -214.916352 
L 267.211948 -164.675425 
z
" clip-path="url(#p29c6339f52)" style="fill: #0000f5; fill-opacity: 0.1"/>
    <path d="M 267.211948 -164.675425 
L 263.694006 -214.916352 
L 274.789712 -227.957519 
L 278.181373 -177.512039 
z
" clip-path="url(#p29c6339f52)" style="fill: #0000f5; fill-opacity: 0.1"/>
    <path d="M 278.181373 -177.512039 
L 274.789712 -227.957519 
L 285.908622 -241.025956 
L 289.173469 -190.375182 
z
" clip-path="url(#p29c6339f52)" style="fill: #0000f5; fill-opacity: 0.1"/>
    <path d="M 289.173469 -190.375182 
L 285.908622 -241.025956 
L 297.050807 -254.12175 
L 300.188304 -203.264935 
z
" clip-path="url(#p29c6339f52)" style="fill: #0000f5; fill-opacity: 0.1"/>
    <path d="M 300.188304 -203.264935 
L 297.050807 -254.12175 
L 308.21634 -267.244986 
L 311.22595 -216.181383 
z
" clip-path="url(#p29c6339f52)" style="fill: #0000f5; fill-opacity: 0.1"/>
    <path d="M 311.22595 -216.181383 
L 308.21634 -267.244986 
L 319.405296 -280.395751 
L 322.286478 -229.124607 
z
" clip-path="url(#p29c6339f52)" style="fill: #0000f5; fill-opacity: 0.1"/>
   </g>
   <g id="legend_1">
    <g id="patch_6">
     <path d="M 357.840076 67.305115 
L 396.2 67.305115 
Q 398.2 67.305115 398.2 65.305115 
L 398.2 7 
Q 398.2 5 396.2 5 
L 357.840076 5 
Q 355.840076 5 355.840076 7 
L 355.840076 65.305115 
Q 355.840076 67.305115 357.840076 67.305115 
z
" style="fill: #ffffff; opacity: 0.8; stroke: #cccccc; stroke-linejoin: miter"/>
    </g>
    <g id="line2d_25">
     <path d="M 359.840076 12.5 
L 369.840076 12.5 
L 379.840076 12.5 
" style="fill: none; stroke: #ff0000; stroke-width: 1.5; stroke-linecap: square"/>
    </g>
    <g id="text_21">
     <!-- $\vec{a}$ -->
     <g transform="translate(387.840076 16)scale(0.1 -0.1)">
      <defs>
       <path id="CMMI12-7e" d="M 3424 3835 
C 3347 3764 3110 3540 3110 3451 
C 3110 3387 3168 3329 3232 3329 
C 3290 3329 3315 3368 3360 3432 
C 3514 3624 3686 3745 3834 3828 
C 3898 3867 3942 3886 3942 3956 
C 3942 4014 3891 4046 3853 4078 
C 3674 4200 3629 4372 3610 4449 
C 3590 4500 3571 4577 3482 4577 
C 3443 4577 3366 4552 3366 4456 
C 3366 4398 3405 4244 3526 4072 
L 1376 4072 
C 1267 4072 1158 4072 1158 3950 
C 1158 3835 1274 3835 1376 3835 
L 3424 3835 
z
" transform="scale(0.015625)"/>
       <path id="CMMI12-61" d="M 1926 760 
C 1894 651 1894 639 1805 517 
C 1664 338 1382 64 1082 64 
C 819 64 672 300 672 677 
C 672 1028 870 1743 992 2012 
C 1210 2459 1510 2689 1760 2689 
C 2182 2689 2266 2165 2266 2114 
C 2266 2108 2246 2024 2240 2012 
L 1926 760 
z
M 2336 2395 
C 2266 2561 2093 2816 1760 2816 
C 1037 2816 256 1884 256 939 
C 256 307 627 -64 1062 -64 
C 1414 -64 1715 211 1894 422 
C 1958 45 2259 -64 2451 -64 
C 2643 -64 2797 51 2912 281 
C 3014 498 3104 888 3104 913 
C 3104 945 3078 971 3040 971 
C 2982 971 2976 939 2950 843 
C 2854 466 2733 64 2470 64 
C 2285 64 2272 230 2272 358 
C 2272 505 2291 575 2349 824 
C 2394 984 2426 1124 2477 1309 
C 2714 2267 2771 2497 2771 2535 
C 2771 2625 2701 2695 2605 2695 
C 2400 2695 2349 2472 2336 2395 
z
" transform="scale(0.015625)"/>
      </defs>
      <use xlink:href="#CMMI12-7e" transform="scale(0.996264)"/>
      <use xlink:href="#CMMI12-61" transform="translate(6.445738 0)scale(0.996264)"/>
     </g>
    </g>
    <g id="line2d_26">
     <path d="M 359.840076 27.24679 
L 369.840076 27.24679 
L 379.840076 27.24679 
" style="fill: none; stroke: #00ff00; stroke-width: 1.5; stroke-linecap: square"/>
    </g>
    <g id="text_22">
     <!-- $\vec{b}$ -->
     <g transform="translate(387.840076 30.74679)scale(0.1 -0.1)">
      <defs>
       <path id="CMMI12-62" d="M 1478 4257 
C 1485 4283 1498 4321 1498 4352 
C 1498 4416 1434 4416 1421 4416 
C 1414 4416 1184 4393 1069 4377 
C 960 4377 864 4358 749 4358 
C 595 4345 550 4339 550 4224 
C 550 4160 614 4160 678 4160 
C 1005 4160 1005 4103 1005 4040 
C 1005 3996 954 3811 928 3696 
L 774 3085 
C 710 2831 346 1387 320 1272 
C 288 1114 288 1005 288 922 
C 288 274 653 -64 1069 -64 
C 1811 -64 2579 888 2579 1814 
C 2579 2401 2246 2816 1766 2816 
C 1434 2816 1133 2542 1011 2414 
L 1478 4257 
z
M 1075 64 
C 870 64 646 217 646 715 
C 646 926 666 1047 781 1494 
C 800 1577 902 1986 928 2069 
C 941 2120 1318 2689 1754 2689 
C 2035 2689 2163 2408 2163 2076 
C 2163 1769 1984 1047 1824 715 
C 1664 370 1370 64 1075 64 
z
" transform="scale(0.015625)"/>
      </defs>
      <use xlink:href="#CMMI12-7e" transform="translate(0 26.29016)scale(0.996264)"/>
      <use xlink:href="#CMMI12-62" transform="translate(11.311737 0)scale(0.996264)"/>
     </g>
    </g>
    <g id="line2d_27">
     <path d="M 359.840076 41.183968 
L 369.840076 41.183968 
L 379.840076 41.183968 
" style="fill: none; stroke: #0016ff; stroke-width: 1.5; stroke-linecap: square"/>
    </g>
    <g id="text_23">
     <!-- $\vec{c}$ -->
     <g transform="translate(387.840076 44.683968)scale(0.1 -0.1)">
      <defs>
       <path id="CMMI12-63" d="M 2502 2431 
C 2381 2431 2323 2431 2234 2355 
C 2195 2323 2125 2227 2125 2125 
C 2125 1997 2221 1920 2342 1920 
C 2496 1920 2669 2044 2669 2292 
C 2669 2588 2374 2816 1933 2816 
C 1094 2816 256 1903 256 996 
C 256 441 602 -64 1254 -64 
C 2125 -64 2675 622 2675 706 
C 2675 744 2637 776 2611 776 
C 2592 776 2586 770 2528 713 
C 2118 162 1510 64 1267 64 
C 826 64 685 446 685 764 
C 685 988 794 1605 1024 2039 
C 1190 2338 1536 2682 1939 2682 
C 2022 2682 2374 2682 2502 2431 
z
" transform="scale(0.015625)"/>
      </defs>
      <use xlink:href="#CMMI12-7e" transform="scale(0.996264)"/>
      <use xlink:href="#CMMI12-63" transform="translate(5.638615 0)scale(0.996264)"/>
     </g>
    </g>
    <g id="line2d_28">
     <path d="M 359.840076 57.867937 
L 369.840076 57.867937 
L 379.840076 57.867937 
" style="fill: none; stroke: #f400ff; stroke-width: 1.5; stroke-linecap: square"/>
    </g>
    <g id="text_24">
     <!-- $\vec{f}$ -->
     <g transform="translate(387.840076 61.367937)scale(0.1 -0.1)">
      <defs>
       <path id="CMMI12-66" d="M 2854 2566 
C 2982 2566 3034 2566 3034 2688 
C 3034 2752 2982 2752 2867 2752 
L 2349 2752 
C 2470 3429 2560 3897 2611 4107 
C 2650 4265 2784 4416 2950 4416 
C 3085 4416 3219 4358 3283 4298 
C 3034 4272 2957 4082 2957 3969 
C 2957 3837 3053 3759 3174 3759 
C 3302 3759 3494 3870 3494 4119 
C 3494 4393 3226 4544 2944 4544 
C 2669 4544 2400 4334 2272 4078 
C 2157 3848 2093 3611 1946 2752 
L 1517 2752 
C 1395 2752 1331 2752 1331 2637 
C 1331 2566 1370 2566 1498 2566 
L 1907 2566 
C 1792 1976 1530 542 1382 -137 
C 1274 -689 1178 -1152 858 -1152 
C 838 -1152 653 -1152 538 -1031 
C 864 -1005 864 -726 864 -720 
C 864 -593 768 -517 646 -517 
C 518 -517 326 -625 326 -867 
C 326 -1140 608 -1280 858 -1280 
C 1510 -1280 1779 -118 1850 199 
C 1965 688 2278 2376 2310 2566 
L 2854 2566 
z
" transform="scale(0.015625)"/>
      </defs>
      <use xlink:href="#CMMI12-7e" transform="translate(13.568792 26.29016)scale(0.996264)"/>
      <use xlink:href="#CMMI12-66" transform="scale(0.996264)"/>
     </g>
    </g>
   </g>
  </g>
 </g>
 <defs>
  <clipPath id="p29c6339f52">
   <rect x="57.6" y="0" width="345.6" height="345.6"/>
  </clipPath>
 </defs>
</svg>
