<?xml version="1.0" encoding="utf-8" standalone="no"?>
<!DOCTYPE svg PUBLIC "-//W3C//DTD SVG 1.1//EN"
  "http://www.w3.org/Graphics/SVG/1.1/DTD/svg11.dtd">
<svg xmlns:xlink="http://www.w3.org/1999/xlink" width="460.8pt" height="345.6pt" viewBox="0 0 460.8 345.6" xmlns="http://www.w3.org/2000/svg" version="1.1">
 <metadata>
  <rdf:RDF xmlns:dc="http://purl.org/dc/elements/1.1/" xmlns:cc="http://creativecommons.org/ns#" xmlns:rdf="http://www.w3.org/1999/02/22-rdf-syntax-ns#">
   <cc:Work>
    <dc:type rdf:resource="http://purl.org/dc/dcmitype/StillImage"/>
    <dc:date>2022-07-12T15:50:58.486387</dc:date>
    <dc:format>image/svg+xml</dc:format>
    <dc:creator>
     <cc:Agent>
      <dc:title>Matplotlib v3.5.1, https://matplotlib.org/</dc:title>
     </cc:Agent>
    </dc:creator>
   </cc:Work>
  </rdf:RDF>
 </metadata>
 <defs>
  <style type="text/css">*{stroke-linejoin: round; stroke-linecap: butt}</style>
 </defs>
 <g id="figure_1">
  <g id="patch_1">
   <path d="M 0 345.6 
L 460.8 345.6 
L 460.8 0 
L 0 0 
z
" style="fill: #ffffff"/>
  </g>
  <g id="patch_2">
   <path d="M 57.6 345.6 
L 403.2 345.6 
L 403.2 0 
L 57.6 0 
z
" style="fill: #ffffff"/>
  </g>
  <g id="pane3d_1">
   <g id="patch_3">
    <path d="M 192.51848 245.313992 
L 80.890824 253.631761 
L 80.890824 82.627698 
L 192.51848 90.945467 
" style="fill: #f2f2f2; opacity: 0.5; stroke: #f2f2f2; stroke-linejoin: miter"/>
   </g>
  </g>
  <g id="pane3d_2">
   <g id="patch_4">
    <path d="M 381.842787 249.524161 
L 192.51848 245.313992 
L 192.51848 90.945467 
L 381.842787 86.735299 
" style="fill: #e6e6e6; opacity: 0.5; stroke: #e6e6e6; stroke-linejoin: miter"/>
   </g>
  </g>
  <g id="pane3d_3">
   <g id="patch_5">
    <path d="M 381.842787 249.524161 
L 192.51848 245.313992 
L 80.890824 253.631761 
L 285.072787 258.828791 
" style="fill: #ececec; opacity: 0.5; stroke: #ececec; stroke-linejoin: miter"/>
   </g>
  </g>
  <g id="axis3d_1">
   <g id="line2d_1">
    <path d="M 80.890824 253.631761 
L 285.072787 258.828791 
" style="fill: none; stroke: #000000; stroke-width: 0.8; stroke-linecap: square"/>
   </g>
   <g id="text_1">
    <!-- x -->
    <g transform="translate(159.993451 286.350005)scale(0.16 -0.16)">
     <defs>
      <path id="CMSS17-78" d="M 1587 1414 
L 2656 2739 
L 2099 2739 
L 1363 1777 
L 602 2739 
L 32 2739 
L 1139 1414 
L 0 0 
L 563 0 
L 1363 1121 
L 2195 0 
L 2758 0 
L 1587 1414 
z
" transform="scale(0.015625)"/>
     </defs>
     <use xlink:href="#CMSS17-78" transform="scale(0.996264)"/>
    </g>
   </g>
   <g id="Line3DCollection_1">
    <path d="M 280.746194 258.718667 
L 377.854111 249.435461 
L 377.854111 86.823999 
" style="fill: none; stroke: #b0b0b0; stroke-width: 0.8"/>
    <path d="M 239.739306 257.674921 
L 340.000557 248.593679 
L 340.000557 87.665781 
" style="fill: none; stroke: #b0b0b0; stroke-width: 0.8"/>
    <path d="M 199.666599 256.654953 
L 302.92279 247.769148 
L 302.92279 88.490311 
" style="fill: none; stroke: #b0b0b0; stroke-width: 0.8"/>
    <path d="M 160.49651 255.657959 
L 266.597201 246.961345 
L 266.597201 89.298115 
" style="fill: none; stroke: #b0b0b0; stroke-width: 0.8"/>
    <path d="M 122.198883 254.683172 
L 231.001133 246.169764 
L 231.001133 90.089695 
" style="fill: none; stroke: #b0b0b0; stroke-width: 0.8"/>
    <path d="M 84.744888 253.729858 
L 196.112827 245.393923 
L 196.112827 90.865537 
" style="fill: none; stroke: #b0b0b0; stroke-width: 0.8"/>
   </g>
   <g id="xtick_1">
    <g id="line2d_2">
     <path d="M 281.610967 258.635997 
L 279.0119 258.88446 
" style="fill: none; stroke: #000000; stroke-width: 0.8; stroke-linecap: square"/>
    </g>
    <g id="text_2">
     <!-- $\mathdefault{0}$ -->
     <g transform="translate(271.29225 277.963142)scale(0.1 -0.1)">
      <defs>
       <path id="CMR17-30" d="M 2688 2025 
C 2688 2416 2682 3080 2413 3591 
C 2176 4039 1798 4198 1466 4198 
C 1158 4198 768 4058 525 3597 
C 269 3118 243 2524 243 2025 
C 243 1661 250 1106 448 619 
C 723 -39 1216 -128 1466 -128 
C 1760 -128 2208 -7 2470 600 
C 2662 1042 2688 1559 2688 2025 
z
M 1466 -26 
C 1056 -26 813 325 723 812 
C 653 1188 653 1738 653 2096 
C 653 2588 653 2997 736 3387 
C 858 3929 1216 4096 1466 4096 
C 1728 4096 2067 3923 2189 3400 
C 2272 3036 2278 2607 2278 2096 
C 2278 1680 2278 1169 2202 792 
C 2067 95 1690 -26 1466 -26 
z
" transform="scale(0.015625)"/>
      </defs>
      <use xlink:href="#CMR17-30" transform="scale(0.996264)"/>
     </g>
    </g>
   </g>
   <g id="xtick_2">
    <g id="line2d_3">
     <path d="M 240.631115 257.594145 
L 237.950847 257.836912 
" style="fill: none; stroke: #000000; stroke-width: 0.8; stroke-linecap: square"/>
    </g>
    <g id="text_3">
     <!-- $\mathdefault{1}$ -->
     <g transform="translate(230.068344 276.768767)scale(0.1 -0.1)">
      <defs>
       <path id="CMR17-31" d="M 1702 4058 
C 1702 4192 1696 4192 1606 4192 
C 1357 3916 979 3827 621 3827 
C 602 3827 570 3827 563 3808 
C 557 3795 557 3782 557 3648 
C 755 3648 1088 3686 1344 3839 
L 1344 461 
C 1344 236 1331 160 781 160 
L 589 160 
L 589 0 
C 896 0 1216 0 1523 0 
C 1830 0 2150 0 2458 0 
L 2458 160 
L 2266 160 
C 1715 160 1702 230 1702 458 
L 1702 4058 
z
" transform="scale(0.015625)"/>
      </defs>
      <use xlink:href="#CMR17-31" transform="scale(0.996264)"/>
     </g>
    </g>
   </g>
   <g id="xtick_3">
    <g id="line2d_4">
     <path d="M 200.583997 256.576006 
L 197.826882 256.813272 
" style="fill: none; stroke: #000000; stroke-width: 0.8; stroke-linecap: square"/>
    </g>
    <g id="text_4">
     <!-- $\mathdefault{2}$ -->
     <g transform="translate(189.790305 275.601797)scale(0.1 -0.1)">
      <defs>
       <path id="CMR17-32" d="M 2669 989 
L 2554 989 
C 2490 536 2438 459 2413 420 
C 2381 369 1920 369 1830 369 
L 602 369 
C 832 619 1280 1072 1824 1597 
C 2214 1967 2669 2402 2669 3035 
C 2669 3790 2067 4224 1395 4224 
C 691 4224 262 3604 262 3030 
C 262 2780 448 2748 525 2748 
C 589 2748 781 2787 781 3010 
C 781 3207 614 3264 525 3264 
C 486 3264 448 3258 422 3245 
C 544 3790 915 4058 1306 4058 
C 1862 4058 2227 3617 2227 3035 
C 2227 2479 1901 2000 1536 1584 
L 262 146 
L 262 0 
L 2515 0 
L 2669 989 
z
" transform="scale(0.015625)"/>
      </defs>
      <use xlink:href="#CMR17-32" transform="scale(0.996264)"/>
     </g>
    </g>
   </g>
   <g id="xtick_4">
    <g id="line2d_5">
     <path d="M 161.438124 255.580779 
L 158.608288 255.812729 
" style="fill: none; stroke: #000000; stroke-width: 0.8; stroke-linecap: square"/>
    </g>
    <g id="text_5">
     <!-- $\mathdefault{3}$ -->
     <g transform="translate(150.42595 274.461299)scale(0.1 -0.1)">
      <defs>
       <path id="CMR17-33" d="M 1414 2157 
C 1984 2157 2234 1662 2234 1090 
C 2234 320 1824 25 1453 25 
C 1114 25 563 194 390 693 
C 422 680 454 680 486 680 
C 640 680 755 782 755 948 
C 755 1133 614 1216 486 1216 
C 378 1216 211 1165 211 926 
C 211 335 787 -128 1466 -128 
C 2176 -128 2720 430 2720 1085 
C 2720 1707 2208 2157 1600 2227 
C 2086 2328 2554 2756 2554 3329 
C 2554 3820 2048 4179 1472 4179 
C 890 4179 378 3829 378 3329 
C 378 3110 544 3072 627 3072 
C 762 3072 877 3155 877 3321 
C 877 3486 762 3569 627 3569 
C 602 3569 570 3569 544 3557 
C 730 3959 1235 4032 1459 4032 
C 1683 4032 2106 3925 2106 3320 
C 2106 3143 2080 2828 1862 2550 
C 1670 2304 1453 2304 1242 2284 
C 1210 2284 1062 2269 1037 2269 
C 992 2263 966 2257 966 2208 
C 966 2163 973 2157 1101 2157 
L 1414 2157 
z
" transform="scale(0.015625)"/>
      </defs>
      <use xlink:href="#CMR17-33" transform="scale(0.996264)"/>
     </g>
    </g>
   </g>
   <g id="xtick_5">
    <g id="line2d_6">
     <path d="M 123.163413 254.607701 
L 120.264763 254.834511 
" style="fill: none; stroke: #000000; stroke-width: 0.8; stroke-linecap: square"/>
    </g>
    <g id="text_6">
     <!-- $\mathdefault{4}$ -->
     <g transform="translate(111.944536 273.346382)scale(0.1 -0.1)">
      <defs>
       <path id="CMR17-34" d="M 2150 4122 
C 2150 4256 2144 4256 2029 4256 
L 128 1254 
L 128 1088 
L 1779 1088 
L 1779 457 
C 1779 224 1766 160 1318 160 
L 1197 160 
L 1197 0 
C 1402 0 1747 0 1965 0 
C 2182 0 2528 0 2733 0 
L 2733 160 
L 2611 160 
C 2163 160 2150 224 2150 457 
L 2150 1088 
L 2803 1088 
L 2803 1254 
L 2150 1254 
L 2150 4122 
z
M 1798 3703 
L 1798 1254 
L 256 1254 
L 1798 3703 
z
" transform="scale(0.015625)"/>
      </defs>
      <use xlink:href="#CMR17-34" transform="scale(0.996264)"/>
     </g>
    </g>
   </g>
   <g id="xtick_6">
    <g id="line2d_7">
     <path d="M 85.731103 253.65604 
L 82.767342 253.877878 
" style="fill: none; stroke: #000000; stroke-width: 0.8; stroke-linecap: square"/>
    </g>
    <g id="text_7">
     <!-- $\mathdefault{5}$ -->
     <g transform="translate(74.316687 272.256195)scale(0.1 -0.1)">
      <defs>
       <path id="CMR17-35" d="M 730 3692 
C 794 3666 1056 3584 1325 3584 
C 1920 3584 2246 3911 2432 4100 
C 2432 4157 2432 4192 2394 4192 
C 2387 4192 2374 4192 2323 4163 
C 2099 4058 1837 3973 1517 3973 
C 1325 3973 1037 3999 723 4139 
C 653 4171 640 4171 634 4171 
C 602 4171 595 4164 595 4037 
L 595 2203 
C 595 2089 595 2057 659 2057 
C 691 2057 704 2070 736 2114 
C 941 2401 1222 2522 1542 2522 
C 1766 2522 2246 2382 2246 1289 
C 2246 1085 2246 715 2054 421 
C 1894 159 1645 25 1370 25 
C 947 25 518 320 403 814 
C 429 807 480 795 506 795 
C 589 795 749 840 749 1038 
C 749 1210 627 1280 506 1280 
C 358 1280 262 1190 262 1011 
C 262 454 704 -128 1382 -128 
C 2042 -128 2669 440 2669 1264 
C 2669 2030 2170 2624 1549 2624 
C 1222 2624 947 2503 730 2274 
L 730 3692 
z
" transform="scale(0.015625)"/>
      </defs>
      <use xlink:href="#CMR17-35" transform="scale(0.996264)"/>
     </g>
    </g>
   </g>
  </g>
  <g id="axis3d_2">
   <g id="line2d_8">
    <path d="M 381.842787 249.524161 
L 285.072787 258.828791 
" style="fill: none; stroke: #000000; stroke-width: 0.8; stroke-linecap: square"/>
   </g>
   <g id="text_8">
    <!-- y -->
    <g transform="translate(361.599392 282.62448)scale(0.16 -0.16)">
     <defs>
      <path id="CMSS17-79" d="M 2675 2752 
L 2176 2752 
C 1632 1294 1446 702 1434 383 
L 1427 383 
C 1408 696 1126 1460 902 2007 
L 602 2752 
L 83 2752 
L 1216 13 
C 1146 -178 1043 -465 1011 -529 
C 870 -885 774 -885 672 -885 
C 646 -885 442 -885 211 -809 
L 250 -1229 
C 410 -1261 570 -1280 685 -1280 
C 845 -1280 1165 -1280 1459 -497 
L 2675 2752 
z
" transform="scale(0.015625)"/>
     </defs>
     <use xlink:href="#CMSS17-79" transform="scale(0.996264)"/>
    </g>
   </g>
   <g id="Line3DCollection_2">
    <path d="M 180.695939 90.064528 
L 180.695939 246.194931 
L 371.647726 250.504436 
" style="fill: none; stroke: #b0b0b0; stroke-width: 0.8"/>
    <path d="M 160.523163 88.561384 
L 160.523163 247.698076 
L 354.222558 252.179901 
" style="fill: none; stroke: #b0b0b0; stroke-width: 0.8"/>
    <path d="M 139.558282 86.999217 
L 139.558282 249.260243 
L 336.073833 253.924938 
" style="fill: none; stroke: #b0b0b0; stroke-width: 0.8"/>
    <path d="M 117.753708 85.374481 
L 117.753708 250.884978 
L 317.155529 255.743971 
" style="fill: none; stroke: #b0b0b0; stroke-width: 0.8"/>
    <path d="M 95.057962 83.683342 
L 95.057962 252.576118 
L 297.417634 257.641809 
" style="fill: none; stroke: #b0b0b0; stroke-width: 0.8"/>
   </g>
   <g id="xtick_7">
    <g id="line2d_9">
     <path d="M 370.036493 250.468073 
L 374.874465 250.577259 
" style="fill: none; stroke: #000000; stroke-width: 0.8; stroke-linecap: square"/>
    </g>
    <g id="text_9">
     <!-- $\mathdefault{−4}$ -->
     <g transform="translate(378.201419 268.277403)scale(0.1 -0.1)">
      <defs>
       <path id="CMSY10-0" d="M 4218 1472 
C 4326 1472 4442 1472 4442 1600 
C 4442 1728 4326 1728 4218 1728 
L 755 1728 
C 646 1728 531 1728 531 1600 
C 531 1472 646 1472 755 1472 
L 4218 1472 
z
" transform="scale(0.015625)"/>
      </defs>
      <use xlink:href="#CMSY10-0" transform="scale(0.996264)"/>
      <use xlink:href="#CMR17-34" transform="translate(77.487468 0)scale(0.996264)"/>
     </g>
    </g>
   </g>
   <g id="xtick_8">
    <g id="line2d_10">
     <path d="M 352.586417 252.142044 
L 357.499269 252.255718 
" style="fill: none; stroke: #000000; stroke-width: 0.8; stroke-linecap: square"/>
    </g>
    <g id="text_10">
     <!-- $\mathdefault{−2}$ -->
     <g transform="translate(360.977028 270.180492)scale(0.1 -0.1)">
      <use xlink:href="#CMSY10-0" transform="scale(0.996264)"/>
      <use xlink:href="#CMR17-32" transform="translate(77.487468 0)scale(0.996264)"/>
     </g>
    </g>
   </g>
   <g id="xtick_9">
    <g id="line2d_11">
     <path d="M 334.412082 253.885493 
L 339.401926 254.003937 
" style="fill: none; stroke: #000000; stroke-width: 0.8; stroke-linecap: square"/>
    </g>
    <g id="text_11">
     <!-- $\mathdefault{0}$ -->
     <g transform="translate(346.909151 272.162895)scale(0.1 -0.1)">
      <use xlink:href="#CMR17-30" transform="scale(0.996264)"/>
     </g>
    </g>
   </g>
   <g id="xtick_10">
    <g id="line2d_12">
     <path d="M 315.467444 255.702836 
L 320.536461 255.826357 
" style="fill: none; stroke: #000000; stroke-width: 0.8; stroke-linecap: square"/>
    </g>
    <g id="text_12">
     <!-- $\mathdefault{2}$ -->
     <g transform="translate(328.203214 274.229677)scale(0.1 -0.1)">
      <use xlink:href="#CMR17-32" transform="scale(0.996264)"/>
     </g>
    </g>
   </g>
   <g id="xtick_11">
    <g id="line2d_13">
     <path d="M 295.702468 257.598873 
L 300.852909 257.727805 
" style="fill: none; stroke: #000000; stroke-width: 0.8; stroke-linecap: square"/>
    </g>
    <g id="text_13">
     <!-- $\mathdefault{4}$ -->
     <g transform="translate(308.683769 276.386341)scale(0.1 -0.1)">
      <use xlink:href="#CMR17-34" transform="scale(0.996264)"/>
     </g>
    </g>
   </g>
  </g>
  <g id="axis3d_3">
   <g id="line2d_14">
    <path d="M 381.842787 249.524161 
L 381.842787 86.735299 
" style="fill: none; stroke: #000000; stroke-width: 0.8; stroke-linecap: square"/>
   </g>
   <g id="text_14">
    <!-- z -->
    <g transform="translate(417.984459 172.114786)scale(0.16 -0.16)">
     <defs>
      <path id="CMSS17-7a" d="M 2400 2502 
L 2400 2750 
L 250 2750 
L 250 2368 
L 1069 2368 
C 1146 2368 1222 2368 1299 2368 
L 1747 2368 
L 166 261 
L 166 0 
L 2419 0 
L 2419 395 
L 1549 395 
C 1472 395 1395 395 1318 395 
L 826 395 
L 2400 2502 
z
" transform="scale(0.015625)"/>
     </defs>
     <use xlink:href="#CMSS17-7a" transform="scale(0.996264)"/>
    </g>
   </g>
   <g id="Line3DCollection_3">
    <path d="M 381.842787 246.268383 
L 192.51848 242.226622 
L 80.890824 250.21168 
" style="fill: none; stroke: #b0b0b0; stroke-width: 0.8"/>
    <path d="M 381.842787 215.012922 
L 192.51848 212.587865 
L 80.890824 217.3789 
" style="fill: none; stroke: #b0b0b0; stroke-width: 0.8"/>
    <path d="M 381.842787 183.75746 
L 192.51848 182.949108 
L 80.890824 184.54612 
" style="fill: none; stroke: #b0b0b0; stroke-width: 0.8"/>
    <path d="M 381.842787 152.501999 
L 192.51848 153.310351 
L 80.890824 151.71334 
" style="fill: none; stroke: #b0b0b0; stroke-width: 0.8"/>
    <path d="M 381.842787 121.246538 
L 192.51848 123.671595 
L 80.890824 118.88056 
" style="fill: none; stroke: #b0b0b0; stroke-width: 0.8"/>
    <path d="M 381.842787 89.991076 
L 192.51848 94.032838 
L 80.890824 86.04778 
" style="fill: none; stroke: #b0b0b0; stroke-width: 0.8"/>
   </g>
   <g id="xtick_12">
    <g id="line2d_15">
     <path d="M 380.246273 246.2343 
L 385.039999 246.336639 
" style="fill: none; stroke: #000000; stroke-width: 0.8; stroke-linecap: square"/>
    </g>
    <g id="text_15">
     <!-- $\mathdefault{0}$ -->
     <g transform="translate(397.599891 252.947786)scale(0.1 -0.1)">
      <use xlink:href="#CMR17-30" transform="scale(0.996264)"/>
     </g>
    </g>
   </g>
   <g id="xtick_13">
    <g id="line2d_16">
     <path d="M 380.246273 214.992472 
L 385.039999 215.053875 
" style="fill: none; stroke: #000000; stroke-width: 0.8; stroke-linecap: square"/>
    </g>
    <g id="text_16">
     <!-- $\mathdefault{1}$ -->
     <g transform="translate(397.599891 221.787963)scale(0.1 -0.1)">
      <use xlink:href="#CMR17-31" transform="scale(0.996264)"/>
     </g>
    </g>
   </g>
   <g id="xtick_14">
    <g id="line2d_17">
     <path d="M 380.246273 183.750644 
L 385.039999 183.771111 
" style="fill: none; stroke: #000000; stroke-width: 0.8; stroke-linecap: square"/>
    </g>
    <g id="text_17">
     <!-- $\mathdefault{2}$ -->
     <g transform="translate(397.599891 190.62814)scale(0.1 -0.1)">
      <use xlink:href="#CMR17-32" transform="scale(0.996264)"/>
     </g>
    </g>
   </g>
   <g id="xtick_15">
    <g id="line2d_18">
     <path d="M 380.246273 152.508816 
L 385.039999 152.488348 
" style="fill: none; stroke: #000000; stroke-width: 0.8; stroke-linecap: square"/>
    </g>
    <g id="text_18">
     <!-- $\mathdefault{3}$ -->
     <g transform="translate(397.599891 159.468317)scale(0.1 -0.1)">
      <use xlink:href="#CMR17-33" transform="scale(0.996264)"/>
     </g>
    </g>
   </g>
   <g id="xtick_16">
    <g id="line2d_19">
     <path d="M 380.246273 121.266987 
L 385.039999 121.205584 
" style="fill: none; stroke: #000000; stroke-width: 0.8; stroke-linecap: square"/>
    </g>
    <g id="text_19">
     <!-- $\mathdefault{4}$ -->
     <g transform="translate(397.599891 128.308493)scale(0.1 -0.1)">
      <use xlink:href="#CMR17-34" transform="scale(0.996264)"/>
     </g>
    </g>
   </g>
   <g id="xtick_17">
    <g id="line2d_20">
     <path d="M 380.246273 90.025159 
L 385.039999 89.922821 
" style="fill: none; stroke: #000000; stroke-width: 0.8; stroke-linecap: square"/>
    </g>
    <g id="text_20">
     <!-- $\mathdefault{5}$ -->
     <g transform="translate(397.599891 97.14867)scale(0.1 -0.1)">
      <use xlink:href="#CMR17-35" transform="scale(0.996264)"/>
     </g>
    </g>
   </g>
  </g>
  <g id="axes_1">
   <g id="line2d_21">
    <path d="M 331.922318 250.398527 
L 262.840855 84.17509 
" clip-path="url(#pd7a5ce6af1)" style="fill: none; stroke: #ff0000; stroke-width: 1.5; stroke-linecap: square"/>
   </g>
   <g id="line2d_22">
    <path d="M 331.922318 250.398527 
L 273.399391 120.794003 
" clip-path="url(#pd7a5ce6af1)" style="fill: none; stroke: #00ff00; stroke-width: 1.5; stroke-linecap: square"/>
   </g>
   <g id="line2d_23">
    <path d="M 331.922318 250.398527 
L 223.343549 -1 
" clip-path="url(#pd7a5ce6af1)" style="fill: none; stroke: #0016ff; stroke-width: 1.5; stroke-linecap: square"/>
   </g>
   <g id="line2d_24">
    <path d="M 331.922318 250.398527 
L 174.352783 152.982285 
" clip-path="url(#pd7a5ce6af1)" style="fill: none; stroke: #f400ff; stroke-width: 1.5; stroke-linecap: square"/>
   </g>
   <g id="Poly3DCollection_1">
    <path d="M 229.035257 25.504133 
L 211.479417 -14.861667 
L 206.670407 -26.983603 
L 224.285384 13.512788 
z
" clip-path="url(#pd7a5ce6af1)" style="fill: #0000f5; fill-opacity: 0.1"/>
    <path d="M 224.285384 13.512788 
L 206.670407 -26.983603 
L 201.815696 -39.220738 
L 219.490143 1.406907 
z
" clip-path="url(#pd7a5ce6af1)" style="fill: #0000f5; fill-opacity: 0.1"/>
    <path d="M 246.768622 66.278115 
L 229.035257 25.504133 
L 224.285384 13.512788 
L 242.079336 54.420638 
z
" clip-path="url(#pd7a5ce6af1)" style="fill: #0000f5; fill-opacity: 0.1"/>
    <path d="M 219.490143 1.406907 
L 201.815696 -39.220738 
L 196.91463 -51.574721 
L 214.64888 -10.815159 
z
" clip-path="url(#pd7a5ce6af1)" style="fill: #0000f5; fill-opacity: 0.1"/>
    <path d="M 242.079336 54.420638 
L 224.285384 13.512788 
L 219.490143 1.406907 
L 237.345031 42.449326 
z
" clip-path="url(#pd7a5ce6af1)" style="fill: #0000f5; fill-opacity: 0.1"/>
    <path d="M 264.68222 107.466502 
L 246.768622 66.278115 
L 242.079336 54.420638 
L 260.055004 95.74625 
z
" clip-path="url(#pd7a5ce6af1)" style="fill: #0000f5; fill-opacity: 0.1"/>
    <path d="M 214.64888 -10.815159 
L 196.91463 -51.574721 
L 191.96654 -64.047234 
L 209.76093 -23.155091 
z
" clip-path="url(#pd7a5ce6af1)" style="fill: #0000f5; fill-opacity: 0.1"/>
    <path d="M 237.345031 42.449326 
L 219.490143 1.406907 
L 214.64888 -10.815159 
L 232.565056 30.36253 
z
" clip-path="url(#pd7a5ce6af1)" style="fill: #0000f5; fill-opacity: 0.1"/>
    <path d="M 260.055004 95.74625 
L 242.079336 54.420638 
L 237.345031 42.449326 
L 255.383137 83.912903 
z
" clip-path="url(#pd7a5ce6af1)" style="fill: #0000f5; fill-opacity: 0.1"/>
    <path d="M 282.778813 149.075643 
L 264.68222 107.466502 
L 260.055004 95.74625 
L 278.215187 137.496056 
z
" clip-path="url(#pd7a5ce6af1)" style="fill: #0000f5; fill-opacity: 0.1"/>
    <path d="M 209.76093 -23.155091 
L 191.96654 -64.047234 
L 186.970747 -76.639991 
L 204.825614 -35.614601 
z
" clip-path="url(#pd7a5ce6af1)" style="fill: #0000f5; fill-opacity: 0.1"/>
    <path d="M 232.565056 30.36253 
L 214.64888 -10.815159 
L 209.76093 -23.155091 
L 227.738747 18.158573 
z
" clip-path="url(#pd7a5ce6af1)" style="fill: #0000f5; fill-opacity: 0.1"/>
    <path d="M 255.383137 83.912903 
L 237.345031 42.449326 
L 232.565056 30.36253 
L 250.665971 71.964815 
z
" clip-path="url(#pd7a5ce6af1)" style="fill: #0000f5; fill-opacity: 0.1"/>
    <path d="M 278.215187 137.496056 
L 260.055004 95.74625 
L 255.383137 83.912903 
L 273.607297 125.804154 
z
" clip-path="url(#pd7a5ce6af1)" style="fill: #0000f5; fill-opacity: 0.1"/>
    <path d="M 301.061217 191.11202 
L 282.778813 149.075643 
L 278.215187 137.496056 
L 296.56274 179.67662 
z
" clip-path="url(#pd7a5ce6af1)" style="fill: #0000f5; fill-opacity: 0.1"/>
    <path d="M 204.825614 -35.614601 
L 186.970747 -76.639991 
L 181.926557 -89.354739 
L 199.842239 -48.195437 
z
" clip-path="url(#pd7a5ce6af1)" style="fill: #0000f5; fill-opacity: 0.1"/>
    <path d="M 227.738747 18.158573 
L 209.76093 -23.155091 
L 204.825614 -35.614601 
L 222.865427 5.835743 
z
" clip-path="url(#pd7a5ce6af1)" style="fill: #0000f5; fill-opacity: 0.1"/>
    <path d="M 250.665971 71.964815 
L 232.565056 30.36253 
L 227.738747 18.158573 
L 245.902841 59.90031 
z
" clip-path="url(#pd7a5ce6af1)" style="fill: #0000f5; fill-opacity: 0.1"/>
    <path d="M 273.607297 125.804154 
L 255.383137 83.912903 
L 250.665971 71.964815 
L 268.954496 113.998295 
z
" clip-path="url(#pd7a5ce6af1)" style="fill: #0000f5; fill-opacity: 0.1"/>
    <path d="M 296.56274 179.67662 
L 278.215187 137.496056 
L 273.607297 125.804154 
L 292.020403 168.12973 
z
" clip-path="url(#pd7a5ce6af1)" style="fill: #0000f5; fill-opacity: 0.1"/>
    <path d="M 319.532311 233.582245 
L 301.061217 191.11202 
L 296.56274 179.67662 
L 315.100577 222.294645 
z
" clip-path="url(#pd7a5ce6af1)" style="fill: #0000f5; fill-opacity: 0.1"/>
    <path d="M 199.842239 -48.195437 
L 181.926557 -89.354739 
L 176.833265 -102.19326 
L 194.810101 -60.899379 
z
" clip-path="url(#pd7a5ce6af1)" style="fill: #0000f5; fill-opacity: 0.1"/>
    <path d="M 222.865427 5.835743 
L 204.825614 -35.614601 
L 199.842239 -48.195437 
L 217.944406 -6.607707 
z
" clip-path="url(#pd7a5ce6af1)" style="fill: #0000f5; fill-opacity: 0.1"/>
    <path d="M 245.902841 59.90031 
L 227.738747 18.158573 
L 222.865427 5.835743 
L 241.093075 47.717678 
z
" clip-path="url(#pd7a5ce6af1)" style="fill: #0000f5; fill-opacity: 0.1"/>
    <path d="M 268.954496 113.998295 
L 250.665971 71.964815 
L 245.902841 59.90031 
L 264.256124 102.076806 
z
" clip-path="url(#pd7a5ce6af1)" style="fill: #0000f5; fill-opacity: 0.1"/>
    <path d="M 292.020403 168.12973 
L 273.607297 125.804154 
L 268.954496 113.998295 
L 287.433564 156.46971 
z
" clip-path="url(#pd7a5ce6af1)" style="fill: #0000f5; fill-opacity: 0.1"/>
    <path d="M 315.100577 222.294645 
L 296.56274 179.67662 
L 292.020403 168.12973 
L 310.62541 210.896421 
z
" clip-path="url(#pd7a5ce6af1)" style="fill: #0000f5; fill-opacity: 0.1"/>
    <path d="M 338.19503 276.493071 
L 319.532311 233.582245 
L 315.100577 222.294645 
L 333.831675 265.35697 
z
" clip-path="url(#pd7a5ce6af1)" style="fill: #0000f5; fill-opacity: 0.1"/>
    <path d="M 194.810101 -60.899379 
L 176.833265 -102.19326 
L 171.690149 -115.157369 
L 189.728481 -73.728243 
z
" clip-path="url(#pd7a5ce6af1)" style="fill: #0000f5; fill-opacity: 0.1"/>
    <path d="M 217.944406 -6.607707 
L 199.842239 -48.195437 
L 194.810101 -60.899379 
L 212.974979 -19.173555 
z
" clip-path="url(#pd7a5ce6af1)" style="fill: #0000f5; fill-opacity: 0.1"/>
    <path d="M 241.093075 47.717678 
L 222.865427 5.835743 
L 217.944406 -6.607707 
L 236.235984 35.415175 
z
" clip-path="url(#pd7a5ce6af1)" style="fill: #0000f5; fill-opacity: 0.1"/>
    <path d="M 264.256124 102.076806 
L 245.902841 59.90031 
L 241.093075 47.717678 
L 259.511508 90.03798 
z
" clip-path="url(#pd7a5ce6af1)" style="fill: #0000f5; fill-opacity: 0.1"/>
    <path d="M 287.433564 156.46971 
L 268.954496 113.998295 
L 264.256124 102.076806 
L 282.801565 144.694891 
z
" clip-path="url(#pd7a5ce6af1)" style="fill: #0000f5; fill-opacity: 0.1"/>
    <path d="M 310.62541 210.896421 
L 292.020403 168.12973 
L 287.433564 156.46971 
L 306.106169 199.38594 
z
" clip-path="url(#pd7a5ce6af1)" style="fill: #0000f5; fill-opacity: 0.1"/>
    <path d="M 333.831675 265.35697 
L 315.100577 222.294645 
L 310.62541 210.896421 
L 329.425333 254.111159 
z
" clip-path="url(#pd7a5ce6af1)" style="fill: #0000f5; fill-opacity: 0.1"/>
    <path d="M 357.052372 319.851389 
L 338.19503 276.493071 
L 333.831675 265.35697 
L 352.759071 308.870581 
z
" clip-path="url(#pd7a5ce6af1)" style="fill: #0000f5; fill-opacity: 0.1"/>
    <path d="M 189.728481 -73.728243 
L 171.690149 -115.157369 
L 166.496475 -128.248919 
L 184.596644 -86.68388 
z
" clip-path="url(#pd7a5ce6af1)" style="fill: #0000f5; fill-opacity: 0.1"/>
    <path d="M 212.974979 -19.173555 
L 194.810101 -60.899379 
L 189.728481 -73.728243 
L 207.95643 -31.863617 
z
" clip-path="url(#pd7a5ce6af1)" style="fill: #0000f5; fill-opacity: 0.1"/>
    <path d="M 236.235984 35.415175 
L 217.944406 -6.607707 
L 212.974979 -19.173555 
L 231.330864 22.991024 
z
" clip-path="url(#pd7a5ce6af1)" style="fill: #0000f5; fill-opacity: 0.1"/>
    <path d="M 259.511508 90.03798 
L 241.093075 47.717678 
L 236.235984 35.415175 
L 254.719961 77.880075 
z
" clip-path="url(#pd7a5ce6af1)" style="fill: #0000f5; fill-opacity: 0.1"/>
    <path d="M 282.801565 144.694891 
L 264.256124 102.076806 
L 259.511508 90.03798 
L 278.123735 132.803568 
z
" clip-path="url(#pd7a5ce6af1)" style="fill: #0000f5; fill-opacity: 0.1"/>
    <path d="M 306.106169 199.38594 
L 287.433564 156.46971 
L 282.801565 144.694891 
L 301.542198 187.761535 
z
" clip-path="url(#pd7a5ce6af1)" style="fill: #0000f5; fill-opacity: 0.1"/>
    <path d="M 329.425333 254.111159 
L 310.62541 210.896421 
L 306.106169 199.38594 
L 324.975366 242.754009 
z
" clip-path="url(#pd7a5ce6af1)" style="fill: #0000f5; fill-opacity: 0.1"/>
    <path d="M 352.759071 308.870581 
L 333.831675 265.35697 
L 329.425333 254.111159 
L 348.423251 297.781023 
z
" clip-path="url(#pd7a5ce6af1)" style="fill: #0000f5; fill-opacity: 0.1"/>
    <path d="M 376.107397 363.664237 
L 357.052372 319.851389 
L 352.759071 308.870581 
L 371.885868 352.842609 
z
" clip-path="url(#pd7a5ce6af1)" style="fill: #0000f5; fill-opacity: 0.1"/>
    <path d="M 184.596644 -86.68388 
L 166.496475 -128.248919 
L 161.251493 -141.469798 
L 179.413843 -99.76818 
z
" clip-path="url(#pd7a5ce6af1)" style="fill: #0000f5; fill-opacity: 0.1"/>
    <path d="M 207.95643 -31.863617 
L 189.728481 -73.728243 
L 184.596644 -86.68388 
L 202.888026 -44.679743 
z
" clip-path="url(#pd7a5ce6af1)" style="fill: #0000f5; fill-opacity: 0.1"/>
    <path d="M 231.330864 22.991024 
L 212.974979 -19.173555 
L 207.95643 -31.863617 
L 226.377002 10.443411 
z
" clip-path="url(#pd7a5ce6af1)" style="fill: #0000f5; fill-opacity: 0.1"/>
    <path d="M 254.719961 77.880075 
L 236.235984 35.415175 
L 231.330864 22.991024 
L 249.880786 65.601316 
z
" clip-path="url(#pd7a5ce6af1)" style="fill: #0000f5; fill-opacity: 0.1"/>
    <path d="M 278.123735 132.803568 
L 259.511508 90.03798 
L 254.719961 77.880075 
L 273.399391 120.794003 
z
" clip-path="url(#pd7a5ce6af1)" style="fill: #0000f5; fill-opacity: 0.1"/>
    <path d="M 301.542198 187.761535 
L 282.801565 144.694891 
L 278.123735 132.803568 
L 296.932832 176.021506 
z
" clip-path="url(#pd7a5ce6af1)" style="fill: #0000f5; fill-opacity: 0.1"/>
    <path d="M 324.975366 242.754009 
L 306.106169 199.38594 
L 301.542198 187.761535 
L 320.481122 231.283858 
z
" clip-path="url(#pd7a5ce6af1)" style="fill: #0000f5; fill-opacity: 0.1"/>
    <path d="M 348.423251 297.781023 
L 329.425333 254.111159 
L 324.975366 242.754009 
L 344.044277 286.581091 
z
" clip-path="url(#pd7a5ce6af1)" style="fill: #0000f5; fill-opacity: 0.1"/>
    <path d="M 371.885868 352.842609 
L 352.759071 308.870581 
L 348.423251 297.781023 
L 367.622309 341.913239 
z
" clip-path="url(#pd7a5ce6af1)" style="fill: #0000f5; fill-opacity: 0.1"/>
    <path d="M 179.413843 -99.76818 
L 161.251493 -141.469798 
L 155.954441 -154.821932 
L 174.179315 -112.983068 
z
" clip-path="url(#pd7a5ce6af1)" style="fill: #0000f5; fill-opacity: 0.1"/>
    <path d="M 202.888026 -44.679743 
L 184.596644 -86.68388 
L 179.413843 -99.76818 
L 197.76902 -57.623821 
z
" clip-path="url(#pd7a5ce6af1)" style="fill: #0000f5; fill-opacity: 0.1"/>
    <path d="M 226.377002 10.443411 
L 207.95643 -31.863617 
L 202.888026 -44.679743 
L 221.373666 -2.229513 
z
" clip-path="url(#pd7a5ce6af1)" style="fill: #0000f5; fill-opacity: 0.1"/>
    <path d="M 249.880786 65.601316 
L 231.330864 22.991024 
L 226.377002 10.443411 
L 244.993266 53.199892 
z
" clip-path="url(#pd7a5ce6af1)" style="fill: #0000f5; fill-opacity: 0.1"/>
    <path d="M 273.399391 120.794003 
L 254.719961 77.880075 
L 249.880786 65.601316 
L 268.627836 108.664424 
z
" clip-path="url(#pd7a5ce6af1)" style="fill: #0000f5; fill-opacity: 0.1"/>
    <path d="M 296.932832 176.021506 
L 278.123735 132.803568 
L 273.399391 120.794003 
L 292.277389 164.164119 
z
" clip-path="url(#pd7a5ce6af1)" style="fill: #0000f5; fill-opacity: 0.1"/>
    <path d="M 320.481122 231.283858 
L 301.542198 187.761535 
L 296.932832 176.021506 
L 315.941939 219.69901 
z
" clip-path="url(#pd7a5ce6af1)" style="fill: #0000f5; fill-opacity: 0.1"/>
    <path d="M 344.044277 286.581091 
L 324.975366 242.754009 
L 320.481122 231.283858 
L 339.621501 275.26913 
z
" clip-path="url(#pd7a5ce6af1)" style="fill: #0000f5; fill-opacity: 0.1"/>
    <path d="M 367.622309 341.913239 
L 348.423251 297.781023 
L 344.044277 286.581091 
L 363.316089 330.874512 
z
" clip-path="url(#pd7a5ce6af1)" style="fill: #0000f5; fill-opacity: 0.1"/>
    <path d="M 174.179315 -112.983068 
L 155.954441 -154.821932 
L 150.604537 -168.307286 
L 168.892282 -126.330509 
z
" clip-path="url(#pd7a5ce6af1)" style="fill: #0000f5; fill-opacity: 0.1"/>
    <path d="M 197.76902 -57.623821 
L 179.413843 -99.76818 
L 174.179315 -112.983068 
L 192.598652 -70.697778 
z
" clip-path="url(#pd7a5ce6af1)" style="fill: #0000f5; fill-opacity: 0.1"/>
    <path d="M 221.373666 -2.229513 
L 202.888026 -44.679743 
L 197.76902 -57.623821 
L 216.320111 -15.029634 
z
" clip-path="url(#pd7a5ce6af1)" style="fill: #0000f5; fill-opacity: 0.1"/>
    <path d="M 244.993266 53.199892 
L 226.377002 10.443411 
L 221.373666 -2.229513 
L 240.056675 40.673955 
z
" clip-path="url(#pd7a5ce6af1)" style="fill: #0000f5; fill-opacity: 0.1"/>
    <path d="M 268.627836 108.664424 
L 249.880786 65.601316 
L 244.993266 53.199892 
L 263.808358 96.413024 
z
" clip-path="url(#pd7a5ce6af1)" style="fill: #0000f5; fill-opacity: 0.1"/>
    <path d="M 292.277389 164.164119 
L 273.399391 120.794003 
L 268.627836 108.664424 
L 287.575174 152.187607 
z
" clip-path="url(#pd7a5ce6af1)" style="fill: #0000f5; fill-opacity: 0.1"/>
    <path d="M 315.941939 219.69901 
L 296.932832 176.021506 
L 292.277389 164.164119 
L 311.357138 207.997737 
z
" clip-path="url(#pd7a5ce6af1)" style="fill: #0000f5; fill-opacity: 0.1"/>
    <path d="M 339.621501 275.26913 
L 320.481122 231.283858 
L 315.941939 219.69901 
L 335.154263 263.84345 
z
" clip-path="url(#pd7a5ce6af1)" style="fill: #0000f5; fill-opacity: 0.1"/>
    <path d="M 363.316089 330.874512 
L 344.044277 286.581091 
L 339.621501 275.26913 
L 358.966566 319.724777 
z
" clip-path="url(#pd7a5ce6af1)" style="fill: #0000f5; fill-opacity: 0.1"/>
    <path d="M 168.892282 -126.330509 
L 150.604537 -168.307286 
L 145.200988 -181.927862 
L 163.551949 -139.812508 
z
" clip-path="url(#pd7a5ce6af1)" style="fill: #0000f5; fill-opacity: 0.1"/>
    <path d="M 192.598652 -70.697778 
L 174.179315 -112.983068 
L 168.892282 -126.330509 
L 187.376143 -83.903577 
z
" clip-path="url(#pd7a5ce6af1)" style="fill: #0000f5; fill-opacity: 0.1"/>
    <path d="M 216.320111 -15.029634 
L 197.76902 -57.623821 
L 192.598652 -70.697778 
L 211.215579 -27.958879 
z
" clip-path="url(#pd7a5ce6af1)" style="fill: #0000f5; fill-opacity: 0.1"/>
    <path d="M 240.056675 40.673955 
L 221.373666 -2.229513 
L 216.320111 -15.029634 
L 235.07027 28.021621 
z
" clip-path="url(#pd7a5ce6af1)" style="fill: #0000f5; fill-opacity: 0.1"/>
    <path d="M 263.808358 96.413024 
L 244.993266 53.199892 
L 240.056675 40.673955 
L 258.940232 84.037957 
z
" clip-path="url(#pd7a5ce6af1)" style="fill: #0000f5; fill-opacity: 0.1"/>
    <path d="M 287.575174 152.187607 
L 268.627836 108.664424 
L 263.808358 96.413024 
L 282.82548 140.090164 
z
" clip-path="url(#pd7a5ce6af1)" style="fill: #0000f5; fill-opacity: 0.1"/>
    <path d="M 311.357138 207.997737 
L 292.277389 164.164119 
L 287.575174 152.187607 
L 306.726027 196.178276 
z
" clip-path="url(#pd7a5ce6af1)" style="fill: #0000f5; fill-opacity: 0.1"/>
    <path d="M 335.154263 263.84345 
L 315.941939 219.69901 
L 311.357138 207.997737 
L 330.641889 252.302327 
z
" clip-path="url(#pd7a5ce6af1)" style="fill: #0000f5; fill-opacity: 0.1"/>
    <path d="M 358.966566 319.724777 
L 339.621501 275.26913 
L 335.154263 263.84345 
L 354.573081 308.462352 
z
" clip-path="url(#pd7a5ce6af1)" style="fill: #0000f5; fill-opacity: 0.1"/>
    <path d="M 163.551949 -139.812508 
L 145.200988 -181.927862 
L 139.742982 -195.685706 
L 158.157507 -153.431109 
z
" clip-path="url(#pd7a5ce6af1)" style="fill: #0000f5; fill-opacity: 0.1"/>
    <path d="M 187.376143 -83.903577 
L 168.892282 -126.330509 
L 163.551949 -139.812508 
L 182.100702 -97.243223 
z
" clip-path="url(#pd7a5ce6af1)" style="fill: #0000f5; fill-opacity: 0.1"/>
    <path d="M 211.215579 -27.958879 
L 192.598652 -70.697778 
L 187.376143 -83.903577 
L 206.059293 -41.019209 
z
" clip-path="url(#pd7a5ce6af1)" style="fill: #0000f5; fill-opacity: 0.1"/>
    <path d="M 235.07027 28.021621 
L 216.320111 -15.029634 
L 211.215579 -27.958879 
L 230.033293 15.240968 
z
" clip-path="url(#pd7a5ce6af1)" style="fill: #0000f5; fill-opacity: 0.1"/>
    <path d="M 258.940232 84.037957 
L 240.056675 40.673955 
L 235.07027 28.021621 
L 254.022718 71.537342 
z
" clip-path="url(#pd7a5ce6af1)" style="fill: #0000f5; fill-opacity: 0.1"/>
    <path d="M 282.82548 140.090164 
L 263.808358 96.413024 
L 258.940232 84.037957 
L 278.027583 127.86995 
z
" clip-path="url(#pd7a5ce6af1)" style="fill: #0000f5; fill-opacity: 0.1"/>
    <path d="M 306.726027 196.178276 
L 287.575174 152.187607 
L 282.82548 140.090164 
L 302.047903 184.238826 
z
" clip-path="url(#pd7a5ce6af1)" style="fill: #0000f5; fill-opacity: 0.1"/>
    <path d="M 330.641889 252.302327 
L 311.357138 207.997737 
L 306.726027 196.178276 
L 326.083692 240.644004 
z
" clip-path="url(#pd7a5ce6af1)" style="fill: #0000f5; fill-opacity: 0.1"/>
    <path d="M 354.573081 308.462352 
L 335.154263 263.84345 
L 330.641889 252.302327 
L 350.134966 297.08552 
z
" clip-path="url(#pd7a5ce6af1)" style="fill: #0000f5; fill-opacity: 0.1"/>
    <path d="M 158.157507 -153.431109 
L 139.742982 -195.685706 
L 134.229692 -209.582902 
L 152.708129 -167.1884 
z
" clip-path="url(#pd7a5ce6af1)" style="fill: #0000f5; fill-opacity: 0.1"/>
    <path d="M 182.100702 -97.243223 
L 163.551949 -139.812508 
L 158.157507 -153.431109 
L 176.77152 -110.718762 
z
" clip-path="url(#pd7a5ce6af1)" style="fill: #0000f5; fill-opacity: 0.1"/>
    <path d="M 206.059293 -41.019209 
L 187.376143 -83.903577 
L 182.100702 -97.243223 
L 200.850462 -54.21263 
z
" clip-path="url(#pd7a5ce6af1)" style="fill: #0000f5; fill-opacity: 0.1"/>
    <path d="M 230.033293 15.240968 
L 211.215579 -27.958879 
L 206.059293 -41.019209 
L 224.94497 2.330032 
z
" clip-path="url(#pd7a5ce6af1)" style="fill: #0000f5; fill-opacity: 0.1"/>
    <path d="M 254.022718 71.537342 
L 235.07027 28.021621 
L 230.033293 15.240968 
L 249.05506 58.909259 
z
" clip-path="url(#pd7a5ce6af1)" style="fill: #0000f5; fill-opacity: 0.1"/>
    <path d="M 278.027583 127.86995 
L 258.940232 84.037957 
L 254.022718 71.537342 
L 273.180747 115.525086 
z
" clip-path="url(#pd7a5ce6af1)" style="fill: #0000f5; fill-opacity: 0.1"/>
    <path d="M 302.047903 184.238826 
L 282.82548 140.090164 
L 278.027583 127.86995 
L 297.322045 172.17755 
z
" clip-path="url(#pd7a5ce6af1)" style="fill: #0000f5; fill-opacity: 0.1"/>
    <path d="M 326.083692 240.644004 
L 306.726027 196.178276 
L 302.047903 184.238826 
L 321.47897 228.866685 
z
" clip-path="url(#pd7a5ce6af1)" style="fill: #0000f5; fill-opacity: 0.1"/>
    <path d="M 350.134966 297.08552 
L 330.641889 252.302327 
L 326.083692 240.644004 
L 345.651537 285.592528 
z
" clip-path="url(#pd7a5ce6af1)" style="fill: #0000f5; fill-opacity: 0.1"/>
    <path d="M 152.708129 -167.1884 
L 134.229692 -209.582902 
L 128.660274 -223.621579 
L 147.202971 -181.08651 
z
" clip-path="url(#pd7a5ce6af1)" style="fill: #0000f5; fill-opacity: 0.1"/>
    <path d="M 176.77152 -110.718762 
L 158.157507 -153.431109 
L 152.708129 -167.1884 
L 171.38777 -124.332281 
z
" clip-path="url(#pd7a5ce6af1)" style="fill: #0000f5; fill-opacity: 0.1"/>
    <path d="M 200.850462 -54.21263 
L 182.100702 -97.243223 
L 176.77152 -110.718762 
L 195.588279 -67.541185 
z
" clip-path="url(#pd7a5ce6af1)" style="fill: #0000f5; fill-opacity: 0.1"/>
    <path d="M 224.94497 2.330032 
L 206.059293 -41.019209 
L 200.850462 -54.21263 
L 219.804513 -10.713188 
z
" clip-path="url(#pd7a5ce6af1)" style="fill: #0000f5; fill-opacity: 0.1"/>
    <path d="M 249.05506 58.909259 
L 230.033293 15.240968 
L 224.94497 2.330032 
L 244.036488 46.151747 
z
" clip-path="url(#pd7a5ce6af1)" style="fill: #0000f5; fill-opacity: 0.1"/>
    <path d="M 273.180747 115.525086 
L 254.022718 71.537342 
L 249.05506 58.909259 
L 268.284218 103.053656 
z
" clip-path="url(#pd7a5ce6af1)" style="fill: #0000f5; fill-opacity: 0.1"/>
    <path d="M 297.322045 172.17755 
L 278.027583 127.86995 
L 273.180747 115.525086 
L 292.547719 159.992575 
z
" clip-path="url(#pd7a5ce6af1)" style="fill: #0000f5; fill-opacity: 0.1"/>
    <path d="M 321.47897 228.866685 
L 302.047903 184.238826 
L 297.322045 172.17755 
L 316.827007 216.96854 
z
" clip-path="url(#pd7a5ce6af1)" style="fill: #0000f5; fill-opacity: 0.1"/>
    <path d="M 345.651537 285.592528 
L 326.083692 240.644004 
L 321.47897 228.866685 
L 341.122097 273.981588 
z
" clip-path="url(#pd7a5ce6af1)" style="fill: #0000f5; fill-opacity: 0.1"/>
    <path d="M 147.202971 -181.08651 
L 128.660274 -223.621579 
L 123.033867 -237.803909 
L 141.641173 -195.127611 
z
" clip-path="url(#pd7a5ce6af1)" style="fill: #0000f5; fill-opacity: 0.1"/>
    <path d="M 171.38777 -124.332281 
L 152.708129 -167.1884 
L 147.202971 -181.08651 
L 165.948612 -138.085909 
z
" clip-path="url(#pd7a5ce6af1)" style="fill: #0000f5; fill-opacity: 0.1"/>
    <path d="M 195.588279 -67.541185 
L 176.77152 -110.718762 
L 171.38777 -124.332281 
L 190.271921 -81.006962 
z
" clip-path="url(#pd7a5ce6af1)" style="fill: #0000f5; fill-opacity: 0.1"/>
    <path d="M 219.804513 -10.713188 
L 200.850462 -54.21263 
L 195.588279 -67.541185 
L 214.611116 -23.890736 
z
" clip-path="url(#pd7a5ce6af1)" style="fill: #0000f5; fill-opacity: 0.1"/>
    <path d="M 244.036488 46.151747 
L 224.94497 2.330032 
L 219.804513 -10.713188 
L 238.966213 33.262807 
z
" clip-path="url(#pd7a5ce6af1)" style="fill: #0000f5; fill-opacity: 0.1"/>
    <path d="M 268.284218 103.053656 
L 249.05506 58.909259 
L 244.036488 46.151747 
L 263.337228 90.453702 
z
" clip-path="url(#pd7a5ce6af1)" style="fill: #0000f5; fill-opacity: 0.1"/>
    <path d="M 292.547719 159.992575 
L 273.180747 115.525086 
L 268.284218 103.053656 
L 287.724176 147.681988 
z
" clip-path="url(#pd7a5ce6af1)" style="fill: #0000f5; fill-opacity: 0.1"/>
    <path d="M 316.827007 216.96854 
L 297.322045 172.17755 
L 292.547719 159.992575 
L 312.127072 204.9477 
z
" clip-path="url(#pd7a5ce6af1)" style="fill: #0000f5; fill-opacity: 0.1"/>
    <path d="M 341.122097 273.981588 
L 321.47897 228.866685 
L 316.827007 216.96854 
L 336.545933 262.250875 
z
" clip-path="url(#pd7a5ce6af1)" style="fill: #0000f5; fill-opacity: 0.1"/>
    <path d="M 141.641173 -195.127611 
L 123.033867 -237.803909 
L 117.34959 -252.132107 
L 136.021856 -209.313923 
z
" clip-path="url(#pd7a5ce6af1)" style="fill: #0000f5; fill-opacity: 0.1"/>
    <path d="M 165.948612 -138.085909 
L 147.202971 -181.08651 
L 141.641173 -195.127611 
L 160.453184 -151.98182 
z
" clip-path="url(#pd7a5ce6af1)" style="fill: #0000f5; fill-opacity: 0.1"/>
    <path d="M 190.271921 -81.006962 
L 171.38777 -124.332281 
L 165.948612 -138.085909 
L 184.900545 -94.612091 
z
" clip-path="url(#pd7a5ce6af1)" style="fill: #0000f5; fill-opacity: 0.1"/>
    <path d="M 214.611116 -23.890736 
L 195.588279 -67.541185 
L 190.271921 -81.006962 
L 209.363957 -37.204698 
z
" clip-path="url(#pd7a5ce6af1)" style="fill: #0000f5; fill-opacity: 0.1"/>
    <path d="M 238.966213 33.262807 
L 219.804513 -10.713188 
L 214.611116 -23.890736 
L 233.843434 20.240396 
z
" clip-path="url(#pd7a5ce6af1)" style="fill: #0000f5; fill-opacity: 0.1"/>
    <path d="M 263.337228 90.453702 
L 244.036488 46.151747 
L 238.966213 33.262807 
L 258.338993 77.723229 
z
" clip-path="url(#pd7a5ce6af1)" style="fill: #0000f5; fill-opacity: 0.1"/>
    <path d="M 287.724176 147.681988 
L 268.284218 103.053656 
L 263.337228 90.453702 
L 282.85065 135.243836 
z
" clip-path="url(#pd7a5ce6af1)" style="fill: #0000f5; fill-opacity: 0.1"/>
    <path d="M 312.127072 204.9477 
L 292.547719 159.992575 
L 287.724176 147.681988 
L 307.37842 192.802257 
z
" clip-path="url(#pd7a5ce6af1)" style="fill: #0000f5; fill-opacity: 0.1"/>
    <path d="M 336.545933 262.250875 
L 316.827007 216.96854 
L 312.127072 204.9477 
L 331.922318 250.398527 
z
" clip-path="url(#pd7a5ce6af1)" style="fill: #0000f5; fill-opacity: 0.1"/>
    <path d="M 136.021856 -209.313923 
L 117.34959 -252.132107 
L 111.606547 -266.608436 
L 130.344123 -223.647709 
z
" clip-path="url(#pd7a5ce6af1)" style="fill: #0000f5; fill-opacity: 0.1"/>
    <path d="M 160.453184 -151.98182 
L 141.641173 -195.127611 
L 136.021856 -209.313923 
L 154.900609 -166.022236 
z
" clip-path="url(#pd7a5ce6af1)" style="fill: #0000f5; fill-opacity: 0.1"/>
    <path d="M 184.900545 -94.612091 
L 165.948612 -138.085909 
L 160.453184 -151.98182 
L 179.473295 -108.358746 
z
" clip-path="url(#pd7a5ce6af1)" style="fill: #0000f5; fill-opacity: 0.1"/>
    <path d="M 209.363957 -37.204698 
L 190.271921 -81.006962 
L 184.900545 -94.612091 
L 204.062197 -50.657202 
z
" clip-path="url(#pd7a5ce6af1)" style="fill: #0000f5; fill-opacity: 0.1"/>
    <path d="M 233.843434 20.240396 
L 214.611116 -23.890736 
L 209.363957 -37.204698 
L 228.667331 7.082432 
z
" clip-path="url(#pd7a5ce6af1)" style="fill: #0000f5; fill-opacity: 0.1"/>
    <path d="M 258.338993 77.723229 
L 238.966213 33.262807 
L 233.843434 20.240396 
L 253.288714 64.860196 
z
" clip-path="url(#pd7a5ce6af1)" style="fill: #0000f5; fill-opacity: 0.1"/>
    <path d="M 282.85065 135.243836 
L 263.337228 90.453702 
L 258.338993 77.723229 
L 277.926361 122.676127 
z
" clip-path="url(#pd7a5ce6af1)" style="fill: #0000f5; fill-opacity: 0.1"/>
    <path d="M 307.37842 192.802257 
L 287.724176 147.681988 
L 282.85065 135.243836 
L 302.580288 180.530263 
z
" clip-path="url(#pd7a5ce6af1)" style="fill: #0000f5; fill-opacity: 0.1"/>
    <path d="M 331.922318 250.398527 
L 312.127072 204.9477 
L 307.37842 192.802257 
L 327.250512 238.422641 
z
" clip-path="url(#pd7a5ce6af1)" style="fill: #0000f5; fill-opacity: 0.1"/>
    <path d="M 154.900609 -166.022236 
L 136.021856 -209.313923 
L 130.344123 -223.647709 
L 149.289992 -180.20942 
z
" clip-path="url(#pd7a5ce6af1)" style="fill: #0000f5; fill-opacity: 0.1"/>
    <path d="M 179.473295 -108.358746 
L 160.453184 -151.98182 
L 154.900609 -166.022236 
L 173.989293 -122.249147 
z
" clip-path="url(#pd7a5ce6af1)" style="fill: #0000f5; fill-opacity: 0.1"/>
    <path d="M 204.062197 -50.657202 
L 184.900545 -94.612091 
L 179.473295 -108.358746 
L 198.704979 -64.250424 
z
" clip-path="url(#pd7a5ce6af1)" style="fill: #0000f5; fill-opacity: 0.1"/>
    <path d="M 228.667331 7.082432 
L 209.363957 -37.204698 
L 204.062197 -50.657202 
L 223.437066 -6.213213 
z
" clip-path="url(#pd7a5ce6af1)" style="fill: #0000f5; fill-opacity: 0.1"/>
    <path d="M 253.288714 64.860196 
L 233.843434 20.240396 
L 228.667331 7.082432 
L 248.185572 51.862524 
z
" clip-path="url(#pd7a5ce6af1)" style="fill: #0000f5; fill-opacity: 0.1"/>
    <path d="M 277.926361 122.676127 
L 258.338993 77.723229 
L 253.288714 64.860196 
L 272.950511 109.976825 
z
" clip-path="url(#pd7a5ce6af1)" style="fill: #0000f5; fill-opacity: 0.1"/>
    <path d="M 302.580288 180.530263 
L 282.85065 135.243836 
L 277.926361 122.676127 
L 297.7319 168.12973 
z
" clip-path="url(#pd7a5ce6af1)" style="fill: #0000f5; fill-opacity: 0.1"/>
    <path d="M 327.250512 238.422641 
L 307.37842 192.802257 
L 302.580288 180.530263 
L 322.529756 226.321276 
z
" clip-path="url(#pd7a5ce6af1)" style="fill: #0000f5; fill-opacity: 0.1"/>
    <path d="M 173.989293 -122.249147 
L 154.900609 -166.022236 
L 149.289992 -180.20942 
L 168.447644 -136.28556 
z
" clip-path="url(#pd7a5ce6af1)" style="fill: #0000f5; fill-opacity: 0.1"/>
    <path d="M 198.704979 -64.250424 
L 179.473295 -108.358746 
L 173.989293 -122.249147 
L 193.291429 -77.986581 
z
" clip-path="url(#pd7a5ce6af1)" style="fill: #0000f5; fill-opacity: 0.1"/>
    <path d="M 223.437066 -6.213213 
L 204.062197 -50.657202 
L 198.704979 -64.250424 
L 218.151786 -19.648712 
z
" clip-path="url(#pd7a5ce6af1)" style="fill: #0000f5; fill-opacity: 0.1"/>
    <path d="M 248.185572 51.862524 
L 228.667331 7.082432 
L 223.437066 -6.213213 
L 243.028733 38.728086 
z
" clip-path="url(#pd7a5ce6af1)" style="fill: #0000f5; fill-opacity: 0.1"/>
    <path d="M 272.950511 109.976825 
L 253.288714 64.860196 
L 248.185572 51.862524 
L 267.922286 97.143853 
z
" clip-path="url(#pd7a5ce6af1)" style="fill: #0000f5; fill-opacity: 0.1"/>
    <path d="M 297.7319 168.12973 
L 277.926361 122.676127 
L 272.950511 109.976825 
L 292.832462 155.598628 
z
" clip-path="url(#pd7a5ce6af1)" style="fill: #0000f5; fill-opacity: 0.1"/>
    <path d="M 322.529756 226.321276 
L 302.580288 180.530263 
L 297.7319 168.12973 
L 317.759277 214.092449 
z
" clip-path="url(#pd7a5ce6af1)" style="fill: #0000f5; fill-opacity: 0.1"/>
    <path d="M 193.291429 -77.986581 
L 173.989293 -122.249147 
L 168.447644 -136.28556 
L 187.820652 -91.867942 
z
" clip-path="url(#pd7a5ce6af1)" style="fill: #0000f5; fill-opacity: 0.1"/>
    <path d="M 218.151786 -19.648712 
L 198.704979 -64.250424 
L 193.291429 -77.986581 
L 212.810617 -33.226284 
z
" clip-path="url(#pd7a5ce6af1)" style="fill: #0000f5; fill-opacity: 0.1"/>
    <path d="M 243.028733 38.728086 
L 223.437066 -6.213213 
L 218.151786 -19.648712 
L 237.817345 25.454714 
z
" clip-path="url(#pd7a5ce6af1)" style="fill: #0000f5; fill-opacity: 0.1"/>
    <path d="M 267.922286 97.143853 
L 248.185572 51.862524 
L 243.028733 38.728086 
L 262.840855 84.17509 
z
" clip-path="url(#pd7a5ce6af1)" style="fill: #0000f5; fill-opacity: 0.1"/>
    <path d="M 292.832462 155.598628 
L 272.950511 109.976825 
L 267.922286 97.143853 
L 287.881163 142.934884 
z
" clip-path="url(#pd7a5ce6af1)" style="fill: #0000f5; fill-opacity: 0.1"/>
    <path d="M 317.759277 214.092449 
L 297.7319 168.12973 
L 292.832462 155.598628 
L 312.938286 201.734137 
z
" clip-path="url(#pd7a5ce6af1)" style="fill: #0000f5; fill-opacity: 0.1"/>
    <path d="M 212.810617 -33.226284 
L 193.291429 -77.986581 
L 187.820652 -91.867942 
L 207.412668 -46.948193 
z
" clip-path="url(#pd7a5ce6af1)" style="fill: #0000f5; fill-opacity: 0.1"/>
    <path d="M 237.817345 25.454714 
L 218.151786 -19.648712 
L 212.810617 -33.226284 
L 232.550539 12.04019 
z
" clip-path="url(#pd7a5ce6af1)" style="fill: #0000f5; fill-opacity: 0.1"/>
    <path d="M 262.840855 84.17509 
L 243.028733 38.728086 
L 237.817345 25.454714 
L 257.70537 71.068367 
z
" clip-path="url(#pd7a5ce6af1)" style="fill: #0000f5; fill-opacity: 0.1"/>
    <path d="M 287.881163 142.934884 
L 267.922286 97.143853 
L 262.840855 84.17509 
L 282.877176 130.136381 
z
" clip-path="url(#pd7a5ce6af1)" style="fill: #0000f5; fill-opacity: 0.1"/>
    <path d="M 312.938286 201.734137 
L 292.832462 155.598628 
L 287.881163 142.934884 
L 308.065976 189.244271 
z
" clip-path="url(#pd7a5ce6af1)" style="fill: #0000f5; fill-opacity: 0.1"/>
    <path d="M 232.550539 12.04019 
L 212.810617 -33.226284 
L 207.412668 -46.948193 
L 227.227426 -1.517749 
z
" clip-path="url(#pd7a5ce6af1)" style="fill: #0000f5; fill-opacity: 0.1"/>
    <path d="M 257.70537 71.068367 
L 237.817345 25.454714 
L 232.550539 12.04019 
L 252.514962 57.821473 
z
" clip-path="url(#pd7a5ce6af1)" style="fill: #0000f5; fill-opacity: 0.1"/>
    <path d="M 282.877176 130.136381 
L 262.840855 84.17509 
L 257.70537 71.068367 
L 277.819655 117.200956 
z
" clip-path="url(#pd7a5ce6af1)" style="fill: #0000f5; fill-opacity: 0.1"/>
    <path d="M 308.065976 189.244271 
L 287.881163 142.934884 
L 282.877176 130.136381 
L 303.141522 176.620739 
z
" clip-path="url(#pd7a5ce6af1)" style="fill: #0000f5; fill-opacity: 0.1"/>
    <path d="M 252.514962 57.821473 
L 232.550539 12.04019 
L 227.227426 -1.517749 
L 247.268746 44.432147 
z
" clip-path="url(#pd7a5ce6af1)" style="fill: #0000f5; fill-opacity: 0.1"/>
    <path d="M 277.819655 117.200956 
L 257.70537 71.068367 
L 252.514962 57.821473 
L 272.707736 104.1264 
z
" clip-path="url(#pd7a5ce6af1)" style="fill: #0000f5; fill-opacity: 0.1"/>
    <path d="M 303.141522 176.620739 
L 282.877176 130.136381 
L 277.819655 117.200956 
L 298.164084 163.861385 
z
" clip-path="url(#pd7a5ce6af1)" style="fill: #0000f5; fill-opacity: 0.1"/>
    <path d="M 272.707736 104.1264 
L 252.514962 57.821473 
L 247.268746 44.432147 
L 267.540537 90.910456 
z
" clip-path="url(#pd7a5ce6af1)" style="fill: #0000f5; fill-opacity: 0.1"/>
    <path d="M 298.164084 163.861385 
L 277.819655 117.200956 
L 272.707736 104.1264 
L 293.132802 150.964005 
z
" clip-path="url(#pd7a5ce6af1)" style="fill: #0000f5; fill-opacity: 0.1"/>
    <path d="M 293.132802 150.964005 
L 272.707736 104.1264 
L 267.540537 90.910456 
L 288.046796 137.926346 
z
" clip-path="url(#pd7a5ce6af1)" style="fill: #0000f5; fill-opacity: 0.1"/>
   </g>
   <g id="legend_1">
    <g id="patch_6">
     <path d="M 357.840076 67.305115 
L 396.2 67.305115 
Q 398.2 67.305115 398.2 65.305115 
L 398.2 7 
Q 398.2 5 396.2 5 
L 357.840076 5 
Q 355.840076 5 355.840076 7 
L 355.840076 65.305115 
Q 355.840076 67.305115 357.840076 67.305115 
z
" style="fill: #ffffff; opacity: 0.8; stroke: #cccccc; stroke-linejoin: miter"/>
    </g>
    <g id="line2d_25">
     <path d="M 359.840076 12.5 
L 369.840076 12.5 
L 379.840076 12.5 
" style="fill: none; stroke: #ff0000; stroke-width: 1.5; stroke-linecap: square"/>
    </g>
    <g id="text_21">
     <!-- $\vec{a}$ -->
     <g transform="translate(387.840076 16)scale(0.1 -0.1)">
      <defs>
       <path id="CMMI12-7e" d="M 3424 3835 
C 3347 3764 3110 3540 3110 3451 
C 3110 3387 3168 3329 3232 3329 
C 3290 3329 3315 3368 3360 3432 
C 3514 3624 3686 3745 3834 3828 
C 3898 3867 3942 3886 3942 3956 
C 3942 4014 3891 4046 3853 4078 
C 3674 4200 3629 4372 3610 4449 
C 3590 4500 3571 4577 3482 4577 
C 3443 4577 3366 4552 3366 4456 
C 3366 4398 3405 4244 3526 4072 
L 1376 4072 
C 1267 4072 1158 4072 1158 3950 
C 1158 3835 1274 3835 1376 3835 
L 3424 3835 
z
" transform="scale(0.015625)"/>
       <path id="CMMI12-61" d="M 1926 760 
C 1894 651 1894 639 1805 517 
C 1664 338 1382 64 1082 64 
C 819 64 672 300 672 677 
C 672 1028 870 1743 992 2012 
C 1210 2459 1510 2689 1760 2689 
C 2182 2689 2266 2165 2266 2114 
C 2266 2108 2246 2024 2240 2012 
L 1926 760 
z
M 2336 2395 
C 2266 2561 2093 2816 1760 2816 
C 1037 2816 256 1884 256 939 
C 256 307 627 -64 1062 -64 
C 1414 -64 1715 211 1894 422 
C 1958 45 2259 -64 2451 -64 
C 2643 -64 2797 51 2912 281 
C 3014 498 3104 888 3104 913 
C 3104 945 3078 971 3040 971 
C 2982 971 2976 939 2950 843 
C 2854 466 2733 64 2470 64 
C 2285 64 2272 230 2272 358 
C 2272 505 2291 575 2349 824 
C 2394 984 2426 1124 2477 1309 
C 2714 2267 2771 2497 2771 2535 
C 2771 2625 2701 2695 2605 2695 
C 2400 2695 2349 2472 2336 2395 
z
" transform="scale(0.015625)"/>
      </defs>
      <use xlink:href="#CMMI12-7e" transform="scale(0.996264)"/>
      <use xlink:href="#CMMI12-61" transform="translate(6.445738 0)scale(0.996264)"/>
     </g>
    </g>
    <g id="line2d_26">
     <path d="M 359.840076 27.24679 
L 369.840076 27.24679 
L 379.840076 27.24679 
" style="fill: none; stroke: #00ff00; stroke-width: 1.5; stroke-linecap: square"/>
    </g>
    <g id="text_22">
     <!-- $\vec{b}$ -->
     <g transform="translate(387.840076 30.74679)scale(0.1 -0.1)">
      <defs>
       <path id="CMMI12-62" d="M 1478 4257 
C 1485 4283 1498 4321 1498 4352 
C 1498 4416 1434 4416 1421 4416 
C 1414 4416 1184 4393 1069 4377 
C 960 4377 864 4358 749 4358 
C 595 4345 550 4339 550 4224 
C 550 4160 614 4160 678 4160 
C 1005 4160 1005 4103 1005 4040 
C 1005 3996 954 3811 928 3696 
L 774 3085 
C 710 2831 346 1387 320 1272 
C 288 1114 288 1005 288 922 
C 288 274 653 -64 1069 -64 
C 1811 -64 2579 888 2579 1814 
C 2579 2401 2246 2816 1766 2816 
C 1434 2816 1133 2542 1011 2414 
L 1478 4257 
z
M 1075 64 
C 870 64 646 217 646 715 
C 646 926 666 1047 781 1494 
C 800 1577 902 1986 928 2069 
C 941 2120 1318 2689 1754 2689 
C 2035 2689 2163 2408 2163 2076 
C 2163 1769 1984 1047 1824 715 
C 1664 370 1370 64 1075 64 
z
" transform="scale(0.015625)"/>
      </defs>
      <use xlink:href="#CMMI12-7e" transform="translate(0 26.29016)scale(0.996264)"/>
      <use xlink:href="#CMMI12-62" transform="translate(11.311737 0)scale(0.996264)"/>
     </g>
    </g>
    <g id="line2d_27">
     <path d="M 359.840076 41.183968 
L 369.840076 41.183968 
L 379.840076 41.183968 
" style="fill: none; stroke: #0016ff; stroke-width: 1.5; stroke-linecap: square"/>
    </g>
    <g id="text_23">
     <!-- $\vec{c}$ -->
     <g transform="translate(387.840076 44.683968)scale(0.1 -0.1)">
      <defs>
       <path id="CMMI12-63" d="M 2502 2431 
C 2381 2431 2323 2431 2234 2355 
C 2195 2323 2125 2227 2125 2125 
C 2125 1997 2221 1920 2342 1920 
C 2496 1920 2669 2044 2669 2292 
C 2669 2588 2374 2816 1933 2816 
C 1094 2816 256 1903 256 996 
C 256 441 602 -64 1254 -64 
C 2125 -64 2675 622 2675 706 
C 2675 744 2637 776 2611 776 
C 2592 776 2586 770 2528 713 
C 2118 162 1510 64 1267 64 
C 826 64 685 446 685 764 
C 685 988 794 1605 1024 2039 
C 1190 2338 1536 2682 1939 2682 
C 2022 2682 2374 2682 2502 2431 
z
" transform="scale(0.015625)"/>
      </defs>
      <use xlink:href="#CMMI12-7e" transform="scale(0.996264)"/>
      <use xlink:href="#CMMI12-63" transform="translate(5.638615 0)scale(0.996264)"/>
     </g>
    </g>
    <g id="line2d_28">
     <path d="M 359.840076 57.867937 
L 369.840076 57.867937 
L 379.840076 57.867937 
" style="fill: none; stroke: #f400ff; stroke-width: 1.5; stroke-linecap: square"/>
    </g>
    <g id="text_24">
     <!-- $\vec{f}$ -->
     <g transform="translate(387.840076 61.367937)scale(0.1 -0.1)">
      <defs>
       <path id="CMMI12-66" d="M 2854 2566 
C 2982 2566 3034 2566 3034 2688 
C 3034 2752 2982 2752 2867 2752 
L 2349 2752 
C 2470 3429 2560 3897 2611 4107 
C 2650 4265 2784 4416 2950 4416 
C 3085 4416 3219 4358 3283 4298 
C 3034 4272 2957 4082 2957 3969 
C 2957 3837 3053 3759 3174 3759 
C 3302 3759 3494 3870 3494 4119 
C 3494 4393 3226 4544 2944 4544 
C 2669 4544 2400 4334 2272 4078 
C 2157 3848 2093 3611 1946 2752 
L 1517 2752 
C 1395 2752 1331 2752 1331 2637 
C 1331 2566 1370 2566 1498 2566 
L 1907 2566 
C 1792 1976 1530 542 1382 -137 
C 1274 -689 1178 -1152 858 -1152 
C 838 -1152 653 -1152 538 -1031 
C 864 -1005 864 -726 864 -720 
C 864 -593 768 -517 646 -517 
C 518 -517 326 -625 326 -867 
C 326 -1140 608 -1280 858 -1280 
C 1510 -1280 1779 -118 1850 199 
C 1965 688 2278 2376 2310 2566 
L 2854 2566 
z
" transform="scale(0.015625)"/>
      </defs>
      <use xlink:href="#CMMI12-7e" transform="translate(13.568792 26.29016)scale(0.996264)"/>
      <use xlink:href="#CMMI12-66" transform="scale(0.996264)"/>
     </g>
    </g>
   </g>
  </g>
 </g>
 <defs>
  <clipPath id="pd7a5ce6af1">
   <rect x="57.6" y="0" width="345.6" height="345.6"/>
  </clipPath>
 </defs>
</svg>
