<?xml version="1.0" encoding="utf-8" standalone="no"?>
<!DOCTYPE svg PUBLIC "-//W3C//DTD SVG 1.1//EN"
  "http://www.w3.org/Graphics/SVG/1.1/DTD/svg11.dtd">
<svg xmlns:xlink="http://www.w3.org/1999/xlink" width="460.8pt" height="345.6pt" viewBox="0 0 460.8 345.6" xmlns="http://www.w3.org/2000/svg" version="1.1">
 <metadata>
  <rdf:RDF xmlns:dc="http://purl.org/dc/elements/1.1/" xmlns:cc="http://creativecommons.org/ns#" xmlns:rdf="http://www.w3.org/1999/02/22-rdf-syntax-ns#">
   <cc:Work>
    <dc:type rdf:resource="http://purl.org/dc/dcmitype/StillImage"/>
    <dc:date>2022-07-12T15:50:58.934139</dc:date>
    <dc:format>image/svg+xml</dc:format>
    <dc:creator>
     <cc:Agent>
      <dc:title>Matplotlib v3.5.1, https://matplotlib.org/</dc:title>
     </cc:Agent>
    </dc:creator>
   </cc:Work>
  </rdf:RDF>
 </metadata>
 <defs>
  <style type="text/css">*{stroke-linejoin: round; stroke-linecap: butt}</style>
 </defs>
 <g id="figure_1">
  <g id="patch_1">
   <path d="M 0 345.6 
L 460.8 345.6 
L 460.8 0 
L 0 0 
z
" style="fill: #ffffff"/>
  </g>
  <g id="patch_2">
   <path d="M 57.6 345.6 
L 403.2 345.6 
L 403.2 0 
L 57.6 0 
z
" style="fill: #ffffff"/>
  </g>
  <g id="pane3d_1">
   <g id="patch_3">
    <path d="M 207.354599 245.162022 
L 78.183383 252.888829 
L 78.183383 83.37063 
L 207.354599 91.097438 
" style="fill: #f2f2f2; opacity: 0.5; stroke: #f2f2f2; stroke-linejoin: miter"/>
   </g>
  </g>
  <g id="pane3d_2">
   <g id="patch_4">
    <path d="M 386.996938 250.20904 
L 207.354599 245.162022 
L 207.354599 91.097438 
L 386.996938 86.050419 
" style="fill: #e6e6e6; opacity: 0.5; stroke: #e6e6e6; stroke-linejoin: miter"/>
   </g>
  </g>
  <g id="pane3d_3">
   <g id="patch_5">
    <path d="M 386.996938 250.20904 
L 207.354599 245.162022 
L 78.183383 252.888829 
L 267.778975 259.039543 
" style="fill: #ececec; opacity: 0.5; stroke: #ececec; stroke-linejoin: miter"/>
   </g>
  </g>
  <g id="axis3d_1">
   <g id="line2d_1">
    <path d="M 78.183383 252.888829 
L 267.778975 259.039543 
" style="fill: none; stroke: #000000; stroke-width: 0.8; stroke-linecap: square"/>
   </g>
   <g id="text_1">
    <!-- x -->
    <g transform="translate(146.700405 285.850084)scale(0.16 -0.16)">
     <defs>
      <path id="CMSS17-78" d="M 1587 1414 
L 2656 2739 
L 2099 2739 
L 1363 1777 
L 602 2739 
L 32 2739 
L 1139 1414 
L 0 0 
L 563 0 
L 1363 1121 
L 2195 0 
L 2758 0 
L 1587 1414 
z
" transform="scale(0.015625)"/>
     </defs>
     <use xlink:href="#CMSS17-78" transform="scale(0.996264)"/>
    </g>
   </g>
   <g id="Line3DCollection_1">
    <path d="M 263.717789 258.907793 
L 383.173704 250.101627 
L 383.173704 86.157832 
" style="fill: none; stroke: #b0b0b0; stroke-width: 0.8"/>
    <path d="M 225.321113 257.662158 
L 346.973475 249.084589 
L 346.973475 87.174871 
" style="fill: none; stroke: #b0b0b0; stroke-width: 0.8"/>
    <path d="M 187.963913 256.450244 
L 311.660522 248.092478 
L 311.660522 88.166982 
" style="fill: none; stroke: #b0b0b0; stroke-width: 0.8"/>
    <path d="M 151.604542 255.270702 
L 277.202618 247.124389 
L 277.202618 89.13507 
" style="fill: none; stroke: #b0b0b0; stroke-width: 0.8"/>
    <path d="M 116.203549 254.12225 
L 243.569081 246.179461 
L 243.569081 90.079998 
" style="fill: none; stroke: #b0b0b0; stroke-width: 0.8"/>
    <path d="M 81.723535 253.003676 
L 210.730675 245.256872 
L 210.730675 91.002587 
" style="fill: none; stroke: #b0b0b0; stroke-width: 0.8"/>
   </g>
   <g id="xtick_1">
    <g id="line2d_2">
     <path d="M 264.775192 258.829842 
L 261.597522 259.064097 
" style="fill: none; stroke: #000000; stroke-width: 0.8; stroke-linecap: square"/>
    </g>
    <g id="text_2">
     <!-- $\mathdefault{0}$ -->
     <g transform="translate(252.716918 278.133237)scale(0.1 -0.1)">
      <defs>
       <path id="CMR17-30" d="M 2688 2025 
C 2688 2416 2682 3080 2413 3591 
C 2176 4039 1798 4198 1466 4198 
C 1158 4198 768 4058 525 3597 
C 269 3118 243 2524 243 2025 
C 243 1661 250 1106 448 619 
C 723 -39 1216 -128 1466 -128 
C 1760 -128 2208 -7 2470 600 
C 2662 1042 2688 1559 2688 2025 
z
M 1466 -26 
C 1056 -26 813 325 723 812 
C 653 1188 653 1738 653 2096 
C 653 2588 653 2997 736 3387 
C 858 3929 1216 4096 1466 4096 
C 1728 4096 2067 3923 2189 3400 
C 2272 3036 2278 2607 2278 2096 
C 2278 1680 2278 1169 2202 792 
C 2067 95 1690 -26 1466 -26 
z
" transform="scale(0.015625)"/>
      </defs>
      <use xlink:href="#CMR17-30" transform="scale(0.996264)"/>
     </g>
    </g>
   </g>
   <g id="xtick_2">
    <g id="line2d_3">
     <path d="M 226.396537 257.586331 
L 223.164785 257.814198 
" style="fill: none; stroke: #000000; stroke-width: 0.8; stroke-linecap: square"/>
    </g>
    <g id="text_3">
     <!-- $\mathdefault{1}$ -->
     <g transform="translate(214.17612 276.709088)scale(0.1 -0.1)">
      <defs>
       <path id="CMR17-31" d="M 1702 4058 
C 1702 4192 1696 4192 1606 4192 
C 1357 3916 979 3827 621 3827 
C 602 3827 570 3827 563 3808 
C 557 3795 557 3782 557 3648 
C 755 3648 1088 3686 1344 3839 
L 1344 461 
C 1344 236 1331 160 781 160 
L 589 160 
L 589 0 
C 896 0 1216 0 1523 0 
C 1830 0 2150 0 2458 0 
L 2458 160 
L 2266 160 
C 1715 160 1702 230 1702 458 
L 1702 4058 
z
" transform="scale(0.015625)"/>
      </defs>
      <use xlink:href="#CMR17-31" transform="scale(0.996264)"/>
     </g>
    </g>
   </g>
   <g id="xtick_3">
    <g id="line2d_4">
     <path d="M 189.056003 256.376455 
L 185.774243 256.598193 
" style="fill: none; stroke: #000000; stroke-width: 0.8; stroke-linecap: square"/>
    </g>
    <g id="text_4">
     <!-- $\mathdefault{2}$ -->
     <g transform="translate(176.685715 275.323753)scale(0.1 -0.1)">
      <defs>
       <path id="CMR17-32" d="M 2669 989 
L 2554 989 
C 2490 536 2438 459 2413 420 
C 2381 369 1920 369 1830 369 
L 602 369 
C 832 619 1280 1072 1824 1597 
C 2214 1967 2669 2402 2669 3035 
C 2669 3790 2067 4224 1395 4224 
C 691 4224 262 3604 262 3030 
C 262 2780 448 2748 525 2748 
C 589 2748 781 2787 781 3010 
C 781 3207 614 3264 525 3264 
C 486 3264 448 3258 422 3245 
C 544 3790 915 4058 1306 4058 
C 1862 4058 2227 3617 2227 3035 
C 2227 2479 1901 2000 1536 1584 
L 262 146 
L 262 0 
L 2515 0 
L 2669 989 
z
" transform="scale(0.015625)"/>
      </defs>
      <use xlink:href="#CMR17-32" transform="scale(0.996264)"/>
     </g>
    </g>
   </g>
   <g id="xtick_4">
    <g id="line2d_5">
     <path d="M 152.712031 255.19887 
L 149.384073 255.414722 
" style="fill: none; stroke: #000000; stroke-width: 0.8; stroke-linecap: square"/>
    </g>
    <g id="text_5">
     <!-- $\mathdefault{3}$ -->
     <g transform="translate(140.203339 273.975667)scale(0.1 -0.1)">
      <defs>
       <path id="CMR17-33" d="M 1414 2157 
C 1984 2157 2234 1662 2234 1090 
C 2234 320 1824 25 1453 25 
C 1114 25 563 194 390 693 
C 422 680 454 680 486 680 
C 640 680 755 782 755 948 
C 755 1133 614 1216 486 1216 
C 378 1216 211 1165 211 926 
C 211 335 787 -128 1466 -128 
C 2176 -128 2720 430 2720 1085 
C 2720 1707 2208 2157 1600 2227 
C 2086 2328 2554 2756 2554 3329 
C 2554 3820 2048 4179 1472 4179 
C 890 4179 378 3829 378 3329 
C 378 3110 544 3072 627 3072 
C 762 3072 877 3155 877 3321 
C 877 3486 762 3569 627 3569 
C 602 3569 570 3569 544 3557 
C 730 3959 1235 4032 1459 4032 
C 1683 4032 2106 3925 2106 3320 
C 2106 3143 2080 2828 1862 2550 
C 1670 2304 1453 2304 1242 2284 
C 1210 2284 1062 2269 1037 2269 
C 992 2263 966 2257 966 2208 
C 966 2163 973 2157 1101 2157 
L 1414 2157 
z
" transform="scale(0.015625)"/>
      </defs>
      <use xlink:href="#CMR17-33" transform="scale(0.996264)"/>
     </g>
    </g>
   </g>
   <g id="xtick_5">
    <g id="line2d_6">
     <path d="M 117.325252 254.052298 
L 113.954656 254.262496 
" style="fill: none; stroke: #000000; stroke-width: 0.8; stroke-linecap: square"/>
    </g>
    <g id="text_6">
     <!-- $\mathdefault{4}$ -->
     <g transform="translate(104.688875 272.663346)scale(0.1 -0.1)">
      <defs>
       <path id="CMR17-34" d="M 2150 4122 
C 2150 4256 2144 4256 2029 4256 
L 128 1254 
L 128 1088 
L 1779 1088 
L 1779 457 
C 1779 224 1766 160 1318 160 
L 1197 160 
L 1197 0 
C 1402 0 1747 0 1965 0 
C 2182 0 2528 0 2733 0 
L 2733 160 
L 2611 160 
C 2163 160 2150 224 2150 457 
L 2150 1088 
L 2803 1088 
L 2803 1254 
L 2150 1254 
L 2150 4122 
z
M 1798 3703 
L 1798 1254 
L 256 1254 
L 1798 3703 
z
" transform="scale(0.015625)"/>
      </defs>
      <use xlink:href="#CMR17-34" transform="scale(0.996264)"/>
     </g>
    </g>
   </g>
   <g id="xtick_6">
    <g id="line2d_7">
     <path d="M 82.858342 252.935532 
L 79.44844 253.140294 
" style="fill: none; stroke: #000000; stroke-width: 0.8; stroke-linecap: square"/>
    </g>
    <g id="text_7">
     <!-- $\mathdefault{5}$ -->
     <g transform="translate(70.10431 271.385387)scale(0.1 -0.1)">
      <defs>
       <path id="CMR17-35" d="M 730 3692 
C 794 3666 1056 3584 1325 3584 
C 1920 3584 2246 3911 2432 4100 
C 2432 4157 2432 4192 2394 4192 
C 2387 4192 2374 4192 2323 4163 
C 2099 4058 1837 3973 1517 3973 
C 1325 3973 1037 3999 723 4139 
C 653 4171 640 4171 634 4171 
C 602 4171 595 4164 595 4037 
L 595 2203 
C 595 2089 595 2057 659 2057 
C 691 2057 704 2070 736 2114 
C 941 2401 1222 2522 1542 2522 
C 1766 2522 2246 2382 2246 1289 
C 2246 1085 2246 715 2054 421 
C 1894 159 1645 25 1370 25 
C 947 25 518 320 403 814 
C 429 807 480 795 506 795 
C 589 795 749 840 749 1038 
C 749 1210 627 1280 506 1280 
C 358 1280 262 1190 262 1011 
C 262 454 704 -128 1382 -128 
C 2042 -128 2669 440 2669 1264 
C 2669 2030 2170 2624 1549 2624 
C 1222 2624 947 2503 730 2274 
L 730 3692 
z
" transform="scale(0.015625)"/>
      </defs>
      <use xlink:href="#CMR17-35" transform="scale(0.996264)"/>
     </g>
    </g>
   </g>
  </g>
  <g id="axis3d_2">
   <g id="line2d_8">
    <path d="M 386.996938 250.20904 
L 267.778975 259.039543 
" style="fill: none; stroke: #000000; stroke-width: 0.8; stroke-linecap: square"/>
   </g>
   <g id="text_8">
    <!-- y -->
    <g transform="translate(354.526576 283.412102)scale(0.16 -0.16)">
     <defs>
      <path id="CMSS17-79" d="M 2675 2752 
L 2176 2752 
C 1632 1294 1446 702 1434 383 
L 1427 383 
C 1408 696 1126 1460 902 2007 
L 602 2752 
L 83 2752 
L 1216 13 
C 1146 -178 1043 -465 1011 -529 
C 870 -885 774 -885 672 -885 
C 646 -885 442 -885 211 -809 
L 250 -1229 
C 410 -1261 570 -1280 685 -1280 
C 845 -1280 1165 -1280 1459 -497 
L 2675 2752 
z
" transform="scale(0.015625)"/>
     </defs>
     <use xlink:href="#CMSS17-79" transform="scale(0.996264)"/>
    </g>
   </g>
   <g id="Line3DCollection_2">
    <path d="M 193.591151 90.274131 
L 193.591151 245.985329 
L 374.368667 251.144419 
" style="fill: none; stroke: #b0b0b0; stroke-width: 0.8"/>
    <path d="M 170.152154 88.872049 
L 170.152154 247.38741 
L 352.822083 252.74038 
" style="fill: none; stroke: #b0b0b0; stroke-width: 0.8"/>
    <path d="M 145.85346 87.418542 
L 145.85346 248.840918 
L 330.430791 254.398908 
" style="fill: none; stroke: #b0b0b0; stroke-width: 0.8"/>
    <path d="M 120.646889 85.910726 
L 120.646889 250.348733 
L 307.144124 256.123757 
" style="fill: none; stroke: #b0b0b0; stroke-width: 0.8"/>
    <path d="M 94.48059 84.345502 
L 94.48059 251.913958 
L 282.907283 257.918985 
" style="fill: none; stroke: #b0b0b0; stroke-width: 0.8"/>
   </g>
   <g id="xtick_7">
    <g id="line2d_9">
     <path d="M 372.827431 251.100435 
L 377.456048 251.232528 
" style="fill: none; stroke: #000000; stroke-width: 0.8; stroke-linecap: square"/>
    </g>
    <g id="text_9">
     <!-- $\mathdefault{−4}$ -->
     <g transform="translate(380.370999 269.068393)scale(0.1 -0.1)">
      <defs>
       <path id="CMSY10-0" d="M 4218 1472 
C 4326 1472 4442 1472 4442 1600 
C 4442 1728 4326 1728 4218 1728 
L 755 1728 
C 646 1728 531 1728 531 1600 
C 531 1472 646 1472 755 1472 
L 4218 1472 
z
" transform="scale(0.015625)"/>
      </defs>
      <use xlink:href="#CMSY10-0" transform="scale(0.996264)"/>
      <use xlink:href="#CMR17-34" transform="translate(77.487468 0)scale(0.996264)"/>
     </g>
    </g>
   </g>
   <g id="xtick_8">
    <g id="line2d_10">
     <path d="M 351.262867 252.694689 
L 355.945574 252.831911 
" style="fill: none; stroke: #000000; stroke-width: 0.8; stroke-linecap: square"/>
    </g>
    <g id="text_10">
     <!-- $\mathdefault{−2}$ -->
     <g transform="translate(358.969831 270.883768)scale(0.1 -0.1)">
      <use xlink:href="#CMSY10-0" transform="scale(0.996264)"/>
      <use xlink:href="#CMR17-32" transform="translate(77.487468 0)scale(0.996264)"/>
     </g>
    </g>
   </g>
   <g id="xtick_9">
    <g id="line2d_11">
     <path d="M 328.853357 254.351408 
L 333.590878 254.494065 
" style="fill: none; stroke: #000000; stroke-width: 0.8; stroke-linecap: square"/>
    </g>
    <g id="text_11">
     <!-- $\mathdefault{0}$ -->
     <g transform="translate(340.600322 272.770626)scale(0.1 -0.1)">
      <use xlink:href="#CMR17-30" transform="scale(0.996264)"/>
     </g>
    </g>
   </g>
   <g id="xtick_10">
    <g id="line2d_12">
     <path d="M 305.548247 256.074339 
L 310.341265 256.222759 
" style="fill: none; stroke: #000000; stroke-width: 0.8; stroke-linecap: square"/>
    </g>
    <g id="text_12">
     <!-- $\mathdefault{2}$ -->
     <g transform="translate(317.462952 274.733276)scale(0.1 -0.1)">
      <use xlink:href="#CMR17-32" transform="scale(0.996264)"/>
     </g>
    </g>
   </g>
   <g id="xtick_11">
    <g id="line2d_13">
     <path d="M 281.292755 257.867532 
L 286.141899 258.02207 
" style="fill: none; stroke: #000000; stroke-width: 0.8; stroke-linecap: square"/>
    </g>
    <g id="text_13">
     <!-- $\mathdefault{4}$ -->
     <g transform="translate(293.377155 276.776377)scale(0.1 -0.1)">
      <use xlink:href="#CMR17-34" transform="scale(0.996264)"/>
     </g>
    </g>
   </g>
  </g>
  <g id="axis3d_3">
   <g id="line2d_14">
    <path d="M 386.996938 250.20904 
L 386.996938 86.050419 
" style="fill: none; stroke: #000000; stroke-width: 0.8; stroke-linecap: square"/>
   </g>
   <g id="text_14">
    <!-- z -->
    <g transform="translate(424.964648 172.114786)scale(0.16 -0.16)">
     <defs>
      <path id="CMSS17-7a" d="M 2400 2502 
L 2400 2750 
L 250 2750 
L 250 2368 
L 1069 2368 
C 1146 2368 1222 2368 1299 2368 
L 1747 2368 
L 166 261 
L 166 0 
L 2419 0 
L 2419 395 
L 1549 395 
C 1472 395 1395 395 1318 395 
L 826 395 
L 2400 2502 
z
" transform="scale(0.015625)"/>
     </defs>
     <use xlink:href="#CMSS17-7a" transform="scale(0.996264)"/>
    </g>
   </g>
   <g id="Line3DCollection_3">
    <path d="M 386.996938 246.925868 
L 207.354599 242.08073 
L 78.183383 249.498465 
" style="fill: none; stroke: #b0b0b0; stroke-width: 0.8"/>
    <path d="M 386.996938 215.407413 
L 207.354599 212.50033 
L 78.183383 216.950971 
" style="fill: none; stroke: #b0b0b0; stroke-width: 0.8"/>
    <path d="M 386.996938 183.888957 
L 207.354599 182.91993 
L 78.183383 184.403477 
" style="fill: none; stroke: #b0b0b0; stroke-width: 0.8"/>
    <path d="M 386.996938 152.370502 
L 207.354599 153.33953 
L 78.183383 151.855983 
" style="fill: none; stroke: #b0b0b0; stroke-width: 0.8"/>
    <path d="M 386.996938 120.852047 
L 207.354599 123.759129 
L 78.183383 119.308488 
" style="fill: none; stroke: #b0b0b0; stroke-width: 0.8"/>
    <path d="M 386.996938 89.333591 
L 207.354599 94.178729 
L 78.183383 86.760994 
" style="fill: none; stroke: #b0b0b0; stroke-width: 0.8"/>
   </g>
   <g id="xtick_12">
    <g id="line2d_15">
     <path d="M 385.466442 246.884589 
L 390.062747 247.008556 
" style="fill: none; stroke: #000000; stroke-width: 0.8; stroke-linecap: square"/>
    </g>
    <g id="text_15">
     <!-- $\mathdefault{0}$ -->
     <g transform="translate(403.573723 253.685523)scale(0.1 -0.1)">
      <use xlink:href="#CMR17-30" transform="scale(0.996264)"/>
     </g>
    </g>
   </g>
   <g id="xtick_13">
    <g id="line2d_16">
     <path d="M 385.466442 215.382645 
L 390.062747 215.457025 
" style="fill: none; stroke: #000000; stroke-width: 0.8; stroke-linecap: square"/>
    </g>
    <g id="text_16">
     <!-- $\mathdefault{1}$ -->
     <g transform="translate(403.573723 222.230605)scale(0.1 -0.1)">
      <use xlink:href="#CMR17-31" transform="scale(0.996264)"/>
     </g>
    </g>
   </g>
   <g id="xtick_14">
    <g id="line2d_17">
     <path d="M 385.466442 183.880702 
L 390.062747 183.905495 
" style="fill: none; stroke: #000000; stroke-width: 0.8; stroke-linecap: square"/>
    </g>
    <g id="text_17">
     <!-- $\mathdefault{2}$ -->
     <g transform="translate(403.573723 190.775687)scale(0.1 -0.1)">
      <use xlink:href="#CMR17-32" transform="scale(0.996264)"/>
     </g>
    </g>
   </g>
   <g id="xtick_15">
    <g id="line2d_18">
     <path d="M 385.466442 152.378758 
L 390.062747 152.353964 
" style="fill: none; stroke: #000000; stroke-width: 0.8; stroke-linecap: square"/>
    </g>
    <g id="text_18">
     <!-- $\mathdefault{3}$ -->
     <g transform="translate(403.573723 159.320769)scale(0.1 -0.1)">
      <use xlink:href="#CMR17-33" transform="scale(0.996264)"/>
     </g>
    </g>
   </g>
   <g id="xtick_16">
    <g id="line2d_19">
     <path d="M 385.466442 120.876814 
L 390.062747 120.802434 
" style="fill: none; stroke: #000000; stroke-width: 0.8; stroke-linecap: square"/>
    </g>
    <g id="text_19">
     <!-- $\mathdefault{4}$ -->
     <g transform="translate(403.573723 127.865851)scale(0.1 -0.1)">
      <use xlink:href="#CMR17-34" transform="scale(0.996264)"/>
     </g>
    </g>
   </g>
   <g id="xtick_17">
    <g id="line2d_20">
     <path d="M 385.466442 89.37487 
L 390.062747 89.250903 
" style="fill: none; stroke: #000000; stroke-width: 0.8; stroke-linecap: square"/>
    </g>
    <g id="text_20">
     <!-- $\mathdefault{5}$ -->
     <g transform="translate(403.573723 96.410933)scale(0.1 -0.1)">
      <use xlink:href="#CMR17-35" transform="scale(0.996264)"/>
     </g>
    </g>
   </g>
  </g>
  <g id="axes_1">
   <g id="line2d_21">
    <path d="M 326.490461 250.834236 
L 253.217405 84.066857 
" clip-path="url(#pa66fa0a1ad)" style="fill: none; stroke: #ff0000; stroke-width: 1.5; stroke-linecap: square"/>
   </g>
   <g id="line2d_22">
    <path d="M 326.490461 250.834236 
L 276.131707 120.688462 
" clip-path="url(#pa66fa0a1ad)" style="fill: none; stroke: #00ff00; stroke-width: 1.5; stroke-linecap: square"/>
   </g>
   <g id="line2d_23">
    <path d="M 326.490461 250.834236 
L 221.828876 -1 
" clip-path="url(#pa66fa0a1ad)" style="fill: none; stroke: #0016ff; stroke-width: 1.5; stroke-linecap: square"/>
   </g>
   <g id="line2d_24">
    <path d="M 326.490461 250.834236 
L 185.387065 153.02912 
" clip-path="url(#pa66fa0a1ad)" style="fill: none; stroke: #f400ff; stroke-width: 1.5; stroke-linecap: square"/>
   </g>
   <g id="Poly3DCollection_1">
    <path d="M 241.252776 25.503543 
L 224.719365 -14.687538 
L 219.085242 -26.740847 
L 235.658508 13.557004 
z
" clip-path="url(#pa66fa0a1ad)" style="fill: #0000f5; fill-opacity: 0.1"/>
    <path d="M 235.658508 13.557004 
L 219.085242 -26.740847 
L 213.400923 -38.901544 
L 230.014098 1.503386 
z
" clip-path="url(#pa66fa0a1ad)" style="fill: #0000f5; fill-opacity: 0.1"/>
    <path d="M 257.985519 66.17918 
L 241.252776 25.503543 
L 235.658508 13.557004 
L 252.432483 54.342879 
z
" clip-path="url(#pa66fa0a1ad)" style="fill: #0000f5; fill-opacity: 0.1"/>
    <path d="M 230.014098 1.503386 
L 213.400923 -38.901544 
L 207.665734 -51.171068 
L 224.318868 -10.658758 
z
" clip-path="url(#pa66fa0a1ad)" style="fill: #0000f5; fill-opacity: 0.1"/>
    <path d="M 252.432483 54.342879 
L 235.658508 13.557004 
L 230.014098 1.503386 
L 246.829372 42.399842 
z
" clip-path="url(#pa66fa0a1ad)" style="fill: #0000f5; fill-opacity: 0.1"/>
    <path d="M 274.92122 107.348189 
L 257.985519 66.17918 
L 252.432483 54.342879 
L 269.410836 95.625697 
z
" clip-path="url(#pa66fa0a1ad)" style="fill: #0000f5; fill-opacity: 0.1"/>
    <path d="M 224.318868 -10.658758 
L 207.665734 -51.171068 
L 201.878989 -63.550888 
L 218.572129 -22.930899 
z
" clip-path="url(#pa66fa0a1ad)" style="fill: #0000f5; fill-opacity: 0.1"/>
    <path d="M 246.829372 42.399842 
L 230.014098 1.503386 
L 224.318868 -10.658758 
L 241.175505 30.348618 
z
" clip-path="url(#pa66fa0a1ad)" style="fill: #0000f5; fill-opacity: 0.1"/>
    <path d="M 269.410836 95.625697 
L 252.432483 54.342879 
L 246.829372 42.399842 
L 263.850456 83.796849 
z
" clip-path="url(#pa66fa0a1ad)" style="fill: #0000f5; fill-opacity: 0.1"/>
    <path d="M 218.572129 -22.930899 
L 201.878989 -63.550888 
L 196.03999 -76.042498 
L 212.773179 -35.314536 
z
" clip-path="url(#pa66fa0a1ad)" style="fill: #0000f5; fill-opacity: 0.1"/>
    <path d="M 292.063595 149.019601 
L 274.92122 107.348189 
L 269.410836 95.625697 
L 286.597324 137.414596 
z
" clip-path="url(#pa66fa0a1ad)" style="fill: #0000f5; fill-opacity: 0.1"/>
    <path d="M 241.175505 30.348618 
L 224.318868 -10.658758 
L 218.572129 -22.930899 
L 235.470189 18.187731 
z
" clip-path="url(#pa66fa0a1ad)" style="fill: #0000f5; fill-opacity: 0.1"/>
    <path d="M 263.850456 83.796849 
L 246.829372 42.399842 
L 241.175505 30.348618 
L 258.239398 71.860189 
z
" clip-path="url(#pa66fa0a1ad)" style="fill: #0000f5; fill-opacity: 0.1"/>
    <path d="M 212.773179 -35.314536 
L 196.03999 -76.042498 
L 190.148026 -88.647419 
L 206.921303 -47.811196 
z
" clip-path="url(#pa66fa0a1ad)" style="fill: #0000f5; fill-opacity: 0.1"/>
    <path d="M 286.597324 137.414596 
L 269.410836 95.625697 
L 263.850456 83.796849 
L 281.081153 125.703653 
z
" clip-path="url(#pa66fa0a1ad)" style="fill: #0000f5; fill-opacity: 0.1"/>
    <path d="M 235.470189 18.187731 
L 218.572129 -22.930899 
L 212.773179 -35.314536 
L 229.712718 5.915677 
z
" clip-path="url(#pa66fa0a1ad)" style="fill: #0000f5; fill-opacity: 0.1"/>
    <path d="M 309.416451 191.202669 
L 292.063595 149.019601 
L 286.597324 137.414596 
L 303.995799 179.71894 
z
" clip-path="url(#pa66fa0a1ad)" style="fill: #0000f5; fill-opacity: 0.1"/>
    <path d="M 258.239398 71.860189 
L 241.175505 30.348618 
L 235.470189 18.187731 
L 252.576966 59.814238 
z
" clip-path="url(#pa66fa0a1ad)" style="fill: #0000f5; fill-opacity: 0.1"/>
    <path d="M 206.921303 -47.811196 
L 190.148026 -88.647419 
L 184.202372 -101.367199 
L 201.015774 -60.422433 
z
" clip-path="url(#pa66fa0a1ad)" style="fill: #0000f5; fill-opacity: 0.1"/>
    <path d="M 281.081153 125.703653 
L 263.850456 83.796849 
L 258.239398 71.860189 
L 275.514394 113.885313 
z
" clip-path="url(#pa66fa0a1ad)" style="fill: #0000f5; fill-opacity: 0.1"/>
    <path d="M 229.712718 5.915677 
L 212.773179 -35.314536 
L 206.921303 -47.811196 
L 223.902375 -6.469075 
z
" clip-path="url(#pa66fa0a1ad)" style="fill: #0000f5; fill-opacity: 0.1"/>
    <path d="M 303.995799 179.71894 
L 286.597324 137.414596 
L 281.081153 125.703653 
L 298.525356 168.12973 
z
" clip-path="url(#pa66fa0a1ad)" style="fill: #0000f5; fill-opacity: 0.1"/>
    <path d="M 252.576966 59.814238 
L 235.470189 18.187731 
L 229.712718 5.915677 
L 246.862449 47.657488 
z
" clip-path="url(#pa66fa0a1ad)" style="fill: #0000f5; fill-opacity: 0.1"/>
    <path d="M 326.983686 233.906875 
L 309.416451 191.202669 
L 303.995799 179.71894 
L 321.610206 222.548324 
z
" clip-path="url(#pa66fa0a1ad)" style="fill: #0000f5; fill-opacity: 0.1"/>
    <path d="M 201.015774 -60.422433 
L 184.202372 -101.367199 
L 178.202292 -114.203416 
L 195.055849 -73.149831 
z
" clip-path="url(#pa66fa0a1ad)" style="fill: #0000f5; fill-opacity: 0.1"/>
    <path d="M 275.514394 113.885313 
L 258.239398 71.860189 
L 252.576966 59.814238 
L 269.89635 101.958092 
z
" clip-path="url(#pa66fa0a1ad)" style="fill: #0000f5; fill-opacity: 0.1"/>
    <path d="M 223.902375 -6.469075 
L 206.921303 -47.811196 
L 201.015774 -60.422433 
L 218.038428 -18.968085 
z
" clip-path="url(#pa66fa0a1ad)" style="fill: #0000f5; fill-opacity: 0.1"/>
    <path d="M 298.525356 168.12973 
L 281.081153 125.703653 
L 275.514394 113.885313 
L 293.004435 156.433578 
z
" clip-path="url(#pa66fa0a1ad)" style="fill: #0000f5; fill-opacity: 0.1"/>
    <path d="M 246.862449 47.657488 
L 229.712718 5.915677 
L 223.902375 -6.469075 
L 241.095128 35.388403 
z
" clip-path="url(#pa66fa0a1ad)" style="fill: #0000f5; fill-opacity: 0.1"/>
    <path d="M 321.610206 222.548324 
L 303.995799 179.71894 
L 298.525356 168.12973 
L 316.187061 211.084791 
z
" clip-path="url(#pa66fa0a1ad)" style="fill: #0000f5; fill-opacity: 0.1"/>
    <path d="M 195.055849 -73.149831 
L 178.202292 -114.203416 
L 172.147035 -127.157675 
L 189.040775 -85.995001 
z
" clip-path="url(#pa66fa0a1ad)" style="fill: #0000f5; fill-opacity: 0.1"/>
    <path d="M 269.89635 101.958092 
L 252.576966 59.814238 
L 246.862449 47.657488 
L 264.226309 89.920479 
z
" clip-path="url(#pa66fa0a1ad)" style="fill: #0000f5; fill-opacity: 0.1"/>
    <path d="M 344.7693 277.141936 
L 326.983686 233.906875 
L 321.610206 222.548324 
L 339.444592 265.912584 
z
" clip-path="url(#pa66fa0a1ad)" style="fill: #0000f5; fill-opacity: 0.1"/>
    <path d="M 218.038428 -18.968085 
L 201.015774 -60.422433 
L 195.055849 -73.149831 
L 212.120131 -31.582941 
z
" clip-path="url(#pa66fa0a1ad)" style="fill: #0000f5; fill-opacity: 0.1"/>
    <path d="M 293.004435 156.433578 
L 275.514394 113.885313 
L 269.89635 101.958092 
L 287.432331 144.628997 
z
" clip-path="url(#pa66fa0a1ad)" style="fill: #0000f5; fill-opacity: 0.1"/>
    <path d="M 241.095128 35.388403 
L 223.902375 -6.469075 
L 218.038428 -18.968085 
L 235.274266 23.005418 
z
" clip-path="url(#pa66fa0a1ad)" style="fill: #0000f5; fill-opacity: 0.1"/>
    <path d="M 316.187061 211.084791 
L 298.525356 168.12973 
L 293.004435 156.433578 
L 310.71356 199.514814 
z
" clip-path="url(#pa66fa0a1ad)" style="fill: #0000f5; fill-opacity: 0.1"/>
    <path d="M 189.040775 -85.995001 
L 172.147035 -127.157675 
L 166.035836 -140.231613 
L 182.969781 -98.959586 
z
" clip-path="url(#pa66fa0a1ad)" style="fill: #0000f5; fill-opacity: 0.1"/>
    <path d="M 264.226309 89.920479 
L 246.862449 47.657488 
L 241.095128 35.388403 
L 258.503544 77.770935 
z
" clip-path="url(#pa66fa0a1ad)" style="fill: #0000f5; fill-opacity: 0.1"/>
    <path d="M 339.444592 265.912584 
L 321.610206 222.548324 
L 316.187061 211.084791 
L 334.070361 254.578792 
z
" clip-path="url(#pa66fa0a1ad)" style="fill: #0000f5; fill-opacity: 0.1"/>
    <path d="M 212.120131 -31.582941 
L 195.055849 -73.149831 
L 189.040775 -85.995001 
L 206.146725 -44.315262 
z
" clip-path="url(#pa66fa0a1ad)" style="fill: #0000f5; fill-opacity: 0.1"/>
    <path d="M 287.432331 144.628997 
L 269.89635 101.958092 
L 264.226309 89.920479 
L 281.808332 132.714473 
z
" clip-path="url(#pa66fa0a1ad)" style="fill: #0000f5; fill-opacity: 0.1"/>
    <path d="M 362.777389 320.917813 
L 344.7693 277.141936 
L 339.444592 265.912584 
L 357.503102 309.821802 
z
" clip-path="url(#pa66fa0a1ad)" style="fill: #0000f5; fill-opacity: 0.1"/>
    <path d="M 235.274266 23.005418 
L 218.038428 -18.968085 
L 212.120131 -31.582941 
L 229.399114 10.50694 
z
" clip-path="url(#pa66fa0a1ad)" style="fill: #0000f5; fill-opacity: 0.1"/>
    <path d="M 310.71356 199.514814 
L 293.004435 156.433578 
L 287.432331 144.628997 
L 305.188998 187.836903 
z
" clip-path="url(#pa66fa0a1ad)" style="fill: #0000f5; fill-opacity: 0.1"/>
    <path d="M 182.969781 -98.959586 
L 166.035836 -140.231613 
L 159.867916 -153.426896 
L 176.842086 -112.045258 
z
" clip-path="url(#pa66fa0a1ad)" style="fill: #0000f5; fill-opacity: 0.1"/>
    <path d="M 258.503544 77.770935 
L 241.095128 35.388403 
L 235.274266 23.005418 
L 252.727318 65.50789 
z
" clip-path="url(#pa66fa0a1ad)" style="fill: #0000f5; fill-opacity: 0.1"/>
    <path d="M 334.070361 254.578792 
L 316.187061 211.084791 
L 310.71356 199.514814 
L 328.645913 243.139098 
z
" clip-path="url(#pa66fa0a1ad)" style="fill: #0000f5; fill-opacity: 0.1"/>
    <path d="M 206.146725 -44.315262 
L 189.040775 -85.995001 
L 182.969781 -98.959586 
L 200.117437 -57.166695 
z
" clip-path="url(#pa66fa0a1ad)" style="fill: #0000f5; fill-opacity: 0.1"/>
    <path d="M 281.808332 132.714473 
L 264.226309 89.920479 
L 258.503544 77.770935 
L 276.131707 120.688462 
z
" clip-path="url(#pa66fa0a1ad)" style="fill: #0000f5; fill-opacity: 0.1"/>
    <path d="M 357.503102 309.821802 
L 339.444592 265.912584 
L 334.070361 254.578792 
L 352.179451 298.62194 
z
" clip-path="url(#pa66fa0a1ad)" style="fill: #0000f5; fill-opacity: 0.1"/>
    <path d="M 229.399114 10.50694 
L 212.120131 -31.582941 
L 206.146725 -44.315262 
L 223.46891 -2.108654 
z
" clip-path="url(#pa66fa0a1ad)" style="fill: #0000f5; fill-opacity: 0.1"/>
    <path d="M 305.188998 187.836903 
L 287.432331 144.628997 
L 281.808332 132.714473 
L 299.612656 176.04954 
z
" clip-path="url(#pa66fa0a1ad)" style="fill: #0000f5; fill-opacity: 0.1"/>
    <path d="M 381.012155 365.244717 
L 362.777389 320.917813 
L 357.503102 309.821802 
L 375.789988 354.286316 
z
" clip-path="url(#pa66fa0a1ad)" style="fill: #0000f5; fill-opacity: 0.1"/>
    <path d="M 176.842086 -112.045258 
L 159.867916 -153.426896 
L 153.642483 -166.745221 
L 170.656889 -125.253723 
z
" clip-path="url(#pa66fa0a1ad)" style="fill: #0000f5; fill-opacity: 0.1"/>
    <path d="M 252.727318 65.50789 
L 235.274266 23.005418 
L 229.399114 10.50694 
L 246.896877 53.129746 
z
" clip-path="url(#pa66fa0a1ad)" style="fill: #0000f5; fill-opacity: 0.1"/>
    <path d="M 328.645913 243.139098 
L 310.71356 199.514814 
L 305.188998 187.836903 
L 323.170541 231.592009 
z
" clip-path="url(#pa66fa0a1ad)" style="fill: #0000f5; fill-opacity: 0.1"/>
    <path d="M 200.117437 -57.166695 
L 182.969781 -98.959586 
L 176.842086 -112.045258 
L 194.03148 -70.13892 
z
" clip-path="url(#pa66fa0a1ad)" style="fill: #0000f5; fill-opacity: 0.1"/>
    <path d="M 276.131707 120.688462 
L 258.503544 77.770935 
L 252.727318 65.50789 
L 270.401716 108.549393 
z
" clip-path="url(#pa66fa0a1ad)" style="fill: #0000f5; fill-opacity: 0.1"/>
    <path d="M 352.179451 298.62194 
L 334.070361 254.578792 
L 328.645913 243.139098 
L 346.80574 287.316763 
z
" clip-path="url(#pa66fa0a1ad)" style="fill: #0000f5; fill-opacity: 0.1"/>
    <path d="M 223.46891 -2.108654 
L 206.146725 -44.315262 
L 200.117437 -57.166695 
L 217.482875 -14.843018 
z
" clip-path="url(#pa66fa0a1ad)" style="fill: #0000f5; fill-opacity: 0.1"/>
    <path d="M 299.612656 176.04954 
L 281.808332 132.714473 
L 276.131707 120.688462 
L 293.983804 164.15118 
z
" clip-path="url(#pa66fa0a1ad)" style="fill: #0000f5; fill-opacity: 0.1"/>
    <path d="M 375.789988 354.286316 
L 357.503102 309.821802 
L 352.179451 298.62194 
L 370.518636 343.224701 
z
" clip-path="url(#pa66fa0a1ad)" style="fill: #0000f5; fill-opacity: 0.1"/>
    <path d="M 170.656889 -125.253723 
L 153.642483 -166.745221 
L 147.358727 -180.188317 
L 164.413379 -138.586717 
z
" clip-path="url(#pa66fa0a1ad)" style="fill: #0000f5; fill-opacity: 0.1"/>
    <path d="M 246.896877 53.129746 
L 229.399114 10.50694 
L 223.46891 -2.108654 
L 241.011455 40.634876 
z
" clip-path="url(#pa66fa0a1ad)" style="fill: #0000f5; fill-opacity: 0.1"/>
    <path d="M 323.170541 231.592009 
L 305.188998 187.836903 
L 299.612656 176.04954 
L 317.643525 219.936007 
z
" clip-path="url(#pa66fa0a1ad)" style="fill: #0000f5; fill-opacity: 0.1"/>
    <path d="M 194.03148 -70.13892 
L 176.842086 -112.045258 
L 170.656889 -125.253723 
L 187.888049 -83.233648 
z
" clip-path="url(#pa66fa0a1ad)" style="fill: #0000f5; fill-opacity: 0.1"/>
    <path d="M 270.401716 108.549393 
L 252.727318 65.50789 
L 246.896877 53.129746 
L 264.617601 96.295663 
z
" clip-path="url(#pa66fa0a1ad)" style="fill: #0000f5; fill-opacity: 0.1"/>
    <path d="M 346.80574 287.316763 
L 328.645913 243.139098 
L 323.170541 231.592009 
L 341.381261 275.904779 
z
" clip-path="url(#pa66fa0a1ad)" style="fill: #0000f5; fill-opacity: 0.1"/>
    <path d="M 217.482875 -14.843018 
L 200.117437 -57.166695 
L 194.03148 -70.13892 
L 211.440218 -27.697837 
z
" clip-path="url(#pa66fa0a1ad)" style="fill: #0000f5; fill-opacity: 0.1"/>
    <path d="M 293.983804 164.15118 
L 276.131707 120.688462 
L 270.401716 108.549393 
L 288.301697 152.140248 
z
" clip-path="url(#pa66fa0a1ad)" style="fill: #0000f5; fill-opacity: 0.1"/>
    <path d="M 370.518636 343.224701 
L 352.179451 298.62194 
L 346.80574 287.316763 
L 365.197399 332.058407 
z
" clip-path="url(#pa66fa0a1ad)" style="fill: #0000f5; fill-opacity: 0.1"/>
    <path d="M 164.413379 -138.586717 
L 147.358727 -180.188317 
L 141.015826 -193.757945 
L 158.110727 -152.046009 
z
" clip-path="url(#pa66fa0a1ad)" style="fill: #0000f5; fill-opacity: 0.1"/>
    <path d="M 241.011455 40.634876 
L 223.46891 -2.108654 
L 217.482875 -14.843018 
L 235.07027 28.021621 
z
" clip-path="url(#pa66fa0a1ad)" style="fill: #0000f5; fill-opacity: 0.1"/>
    <path d="M 317.643525 219.936007 
L 299.612656 176.04954 
L 293.983804 164.15118 
L 312.06413 208.169543 
z
" clip-path="url(#pa66fa0a1ad)" style="fill: #0000f5; fill-opacity: 0.1"/>
    <path d="M 187.888049 -83.233648 
L 170.656889 -125.253723 
L 164.413379 -138.586717 
L 181.686328 -96.452622 
z
" clip-path="url(#pa66fa0a1ad)" style="fill: #0000f5; fill-opacity: 0.1"/>
    <path d="M 264.617601 96.295663 
L 246.896877 53.129746 
L 241.011455 40.634876 
L 258.778593 83.92564 
z
" clip-path="url(#pa66fa0a1ad)" style="fill: #0000f5; fill-opacity: 0.1"/>
    <path d="M 341.381261 275.904779 
L 323.170541 231.592009 
L 317.643525 219.936007 
L 335.905289 264.384466 
z
" clip-path="url(#pa66fa0a1ad)" style="fill: #0000f5; fill-opacity: 0.1"/>
    <path d="M 211.440218 -27.697837 
L 194.03148 -70.13892 
L 187.888049 -83.233648 
L 205.340132 -40.674829 
z
" clip-path="url(#pa66fa0a1ad)" style="fill: #0000f5; fill-opacity: 0.1"/>
    <path d="M 288.301697 152.140248 
L 270.401716 108.549393 
L 264.617601 96.295663 
L 282.565574 140.015138 
z
" clip-path="url(#pa66fa0a1ad)" style="fill: #0000f5; fill-opacity: 0.1"/>
    <path d="M 365.197399 332.058407 
L 346.80574 287.316763 
L 341.381261 275.904779 
L 359.825566 320.785941 
z
" clip-path="url(#pa66fa0a1ad)" style="fill: #0000f5; fill-opacity: 0.1"/>
    <path d="M 158.110727 -152.046009 
L 141.015826 -193.757945 
L 134.61294 -207.455901 
L 151.748088 -165.633402 
z
" clip-path="url(#pa66fa0a1ad)" style="fill: #0000f5; fill-opacity: 0.1"/>
    <path d="M 235.07027 28.021621 
L 217.482875 -14.843018 
L 211.440218 -27.697837 
L 229.072527 15.28829 
z
" clip-path="url(#pa66fa0a1ad)" style="fill: #0000f5; fill-opacity: 0.1"/>
    <path d="M 312.06413 208.169543 
L 293.983804 164.15118 
L 288.301697 152.140248 
L 306.431608 196.291039 
z
" clip-path="url(#pa66fa0a1ad)" style="fill: #0000f5; fill-opacity: 0.1"/>
    <path d="M 181.686328 -96.452622 
L 164.413379 -138.586717 
L 158.110727 -152.046009 
L 175.425483 -109.79762 
z
" clip-path="url(#pa66fa0a1ad)" style="fill: #0000f5; fill-opacity: 0.1"/>
    <path d="M 258.778593 83.92564 
L 241.011455 40.634876 
L 235.07027 28.021621 
L 252.883905 71.437661 
z
" clip-path="url(#pa66fa0a1ad)" style="fill: #0000f5; fill-opacity: 0.1"/>
    <path d="M 335.905289 264.384466 
L 317.643525 219.936007 
L 312.06413 208.169543 
L 330.377088 252.754274 
z
" clip-path="url(#pa66fa0a1ad)" style="fill: #0000f5; fill-opacity: 0.1"/>
    <path d="M 205.340132 -40.674829 
L 187.888049 -83.233648 
L 181.686328 -96.452622 
L 199.181793 -53.775743 
z
" clip-path="url(#pa66fa0a1ad)" style="fill: #0000f5; fill-opacity: 0.1"/>
    <path d="M 282.565574 140.015138 
L 264.617601 96.295663 
L 258.778593 83.92564 
L 276.774663 127.774214 
z
" clip-path="url(#pa66fa0a1ad)" style="fill: #0000f5; fill-opacity: 0.1"/>
    <path d="M 359.825566 320.785941 
L 341.381261 275.904779 
L 335.905289 264.384466 
L 354.402412 309.40578 
z
" clip-path="url(#pa66fa0a1ad)" style="fill: #0000f5; fill-opacity: 0.1"/>
    <path d="M 151.748088 -165.633402 
L 134.61294 -207.455901 
L 128.149214 -221.284014 
L 145.324602 -179.350734 
z
" clip-path="url(#pa66fa0a1ad)" style="fill: #0000f5; fill-opacity: 0.1"/>
    <path d="M 229.072527 15.28829 
L 211.440218 -27.697837 
L 205.340132 -40.674829 
L 223.017412 2.433161 
z
" clip-path="url(#pa66fa0a1ad)" style="fill: #0000f5; fill-opacity: 0.1"/>
    <path d="M 306.431608 196.291039 
L 288.301697 152.140248 
L 282.565574 140.015138 
L 300.745197 184.298887 
z
" clip-path="url(#pa66fa0a1ad)" style="fill: #0000f5; fill-opacity: 0.1"/>
    <path d="M 175.425483 -109.79762 
L 158.110727 -152.046009 
L 151.748088 -165.633402 
L 169.104664 -123.270452 
z
" clip-path="url(#pa66fa0a1ad)" style="fill: #0000f5; fill-opacity: 0.1"/>
    <path d="M 252.883905 71.437661 
L 235.07027 28.021621 
L 229.072527 15.28829 
L 246.932739 58.83003 
z
" clip-path="url(#pa66fa0a1ad)" style="fill: #0000f5; fill-opacity: 0.1"/>
    <path d="M 330.377088 252.754274 
L 312.06413 208.169543 
L 306.431608 196.291039 
L 324.795908 241.012624 
z
" clip-path="url(#pa66fa0a1ad)" style="fill: #0000f5; fill-opacity: 0.1"/>
    <path d="M 199.181793 -53.775743 
L 181.686328 -96.452622 
L 175.425483 -109.79762 
L 192.964363 -67.002364 
z
" clip-path="url(#pa66fa0a1ad)" style="fill: #0000f5; fill-opacity: 0.1"/>
    <path d="M 276.774663 127.774214 
L 258.778593 83.92564 
L 252.883905 71.437661 
L 270.928174 115.415809 
z
" clip-path="url(#pa66fa0a1ad)" style="fill: #0000f5; fill-opacity: 0.1"/>
    <path d="M 354.402412 309.40578 
L 335.905289 264.384466 
L 330.377088 252.754274 
L 348.927199 297.916376 
z
" clip-path="url(#pa66fa0a1ad)" style="fill: #0000f5; fill-opacity: 0.1"/>
    <path d="M 145.324602 -179.350734 
L 128.149214 -221.284014 
L 121.623778 -235.244147 
L 138.839391 -193.199878 
z
" clip-path="url(#pa66fa0a1ad)" style="fill: #0000f5; fill-opacity: 0.1"/>
    <path d="M 223.017412 2.433161 
L 205.340132 -40.674829 
L 199.181793 -53.775743 
L 216.9041 -10.545524 
z
" clip-path="url(#pa66fa0a1ad)" style="fill: #0000f5; fill-opacity: 0.1"/>
    <path d="M 300.745197 184.298887 
L 282.565574 140.015138 
L 276.774663 127.774214 
L 295.00412 172.191449 
z
" clip-path="url(#pa66fa0a1ad)" style="fill: #0000f5; fill-opacity: 0.1"/>
    <path d="M 169.104664 -123.270452 
L 151.748088 -165.633402 
L 145.324602 -179.350734 
L 162.723005 -136.872964 
z
" clip-path="url(#pa66fa0a1ad)" style="fill: #0000f5; fill-opacity: 0.1"/>
    <path d="M 246.932739 58.83003 
L 229.072527 15.28829 
L 223.017412 2.433161 
L 240.924279 46.10102 
z
" clip-path="url(#pa66fa0a1ad)" style="fill: #0000f5; fill-opacity: 0.1"/>
    <path d="M 324.795908 241.012624 
L 306.431608 196.291039 
L 300.745197 184.298887 
L 319.160984 229.157907 
z
" clip-path="url(#pa66fa0a1ad)" style="fill: #0000f5; fill-opacity: 0.1"/>
    <path d="M 192.964363 -67.002364 
L 175.425483 -109.79762 
L 169.104664 -123.270452 
L 186.686989 -80.356509 
z
" clip-path="url(#pa66fa0a1ad)" style="fill: #0000f5; fill-opacity: 0.1"/>
    <path d="M 270.928174 115.415809 
L 252.883905 71.437661 
L 246.932739 58.83003 
L 265.025304 102.938225 
z
" clip-path="url(#pa66fa0a1ad)" style="fill: #0000f5; fill-opacity: 0.1"/>
    <path d="M 348.927199 297.916376 
L 330.377088 252.754274 
L 324.795908 241.012624 
L 343.399173 286.316146 
z
" clip-path="url(#pa66fa0a1ad)" style="fill: #0000f5; fill-opacity: 0.1"/>
    <path d="M 138.839391 -193.199878 
L 121.623778 -235.244147 
L 115.035743 -249.338201 
L 132.291563 -207.182742 
z
" clip-path="url(#pa66fa0a1ad)" style="fill: #0000f5; fill-opacity: 0.1"/>
    <path d="M 216.9041 -10.545524 
L 199.181793 -53.775743 
L 192.964363 -67.002364 
L 210.731748 -23.649553 
z
" clip-path="url(#pa66fa0a1ad)" style="fill: #0000f5; fill-opacity: 0.1"/>
    <path d="M 295.00412 172.191449 
L 276.774663 127.774214 
L 270.928174 115.415809 
L 289.207585 159.967055 
z
" clip-path="url(#pa66fa0a1ad)" style="fill: #0000f5; fill-opacity: 0.1"/>
    <path d="M 162.723005 -136.872964 
L 145.324602 -179.350734 
L 138.839391 -193.199878 
L 156.279624 -150.607037 
z
" clip-path="url(#pa66fa0a1ad)" style="fill: #0000f5; fill-opacity: 0.1"/>
    <path d="M 240.924279 46.10102 
L 223.017412 2.433161 
L 216.9041 -10.545524 
L 234.857692 33.248869 
z
" clip-path="url(#pa66fa0a1ad)" style="fill: #0000f5; fill-opacity: 0.1"/>
    <path d="M 319.160984 229.157907 
L 300.745197 184.298887 
L 295.00412 172.191449 
L 313.471534 217.188481 
z
" clip-path="url(#pa66fa0a1ad)" style="fill: #0000f5; fill-opacity: 0.1"/>
    <path d="M 186.686989 -80.356509 
L 169.104664 -123.270452 
L 162.723005 -136.872964 
L 180.348798 -93.840031 
z
" clip-path="url(#pa66fa0a1ad)" style="fill: #0000f5; fill-opacity: 0.1"/>
    <path d="M 265.025304 102.938225 
L 246.932739 58.83003 
L 240.924279 46.10102 
L 259.065232 90.339727 
z
" clip-path="url(#pa66fa0a1ad)" style="fill: #0000f5; fill-opacity: 0.1"/>
    <path d="M 343.399173 286.316146 
L 324.795908 241.012624 
L 319.160984 229.157907 
L 337.817565 274.60348 
z
" clip-path="url(#pa66fa0a1ad)" style="fill: #0000f5; fill-opacity: 0.1"/>
    <path d="M 132.291563 -207.182742 
L 115.035743 -249.338201 
L 108.384203 -263.568111 
L 125.680205 -221.301274 
z
" clip-path="url(#pa66fa0a1ad)" style="fill: #0000f5; fill-opacity: 0.1"/>
    <path d="M 210.731748 -23.649553 
L 192.964363 -67.002364 
L 186.686989 -80.356509 
L 204.499495 -36.880751 
z
" clip-path="url(#pa66fa0a1ad)" style="fill: #0000f5; fill-opacity: 0.1"/>
    <path d="M 289.207585 159.967055 
L 270.928174 115.415809 
L 265.025304 102.938225 
L 283.354784 147.624 
z
" clip-path="url(#pa66fa0a1ad)" style="fill: #0000f5; fill-opacity: 0.1"/>
    <path d="M 156.279624 -150.607037 
L 138.839391 -193.199878 
L 132.291563 -207.182742 
L 149.773621 -164.474589 
z
" clip-path="url(#pa66fa0a1ad)" style="fill: #0000f5; fill-opacity: 0.1"/>
    <path d="M 234.857692 33.248869 
L 216.9041 -10.545524 
L 210.731748 -23.649553 
L 228.732132 20.271782 
z
" clip-path="url(#pa66fa0a1ad)" style="fill: #0000f5; fill-opacity: 0.1"/>
    <path d="M 313.471534 217.188481 
L 295.00412 172.191449 
L 289.207585 159.967055 
L 307.726764 205.102672 
z
" clip-path="url(#pa66fa0a1ad)" style="fill: #0000f5; fill-opacity: 0.1"/>
    <path d="M 180.348798 -93.840031 
L 162.723005 -136.872964 
L 156.279624 -150.607037 
L 173.948903 -107.454819 
z
" clip-path="url(#pa66fa0a1ad)" style="fill: #0000f5; fill-opacity: 0.1"/>
    <path d="M 259.065232 90.339727 
L 240.924279 46.10102 
L 234.857692 33.248869 
L 253.047124 77.618551 
z
" clip-path="url(#pa66fa0a1ad)" style="fill: #0000f5; fill-opacity: 0.1"/>
    <path d="M 337.817565 274.60348 
L 319.160984 229.157907 
L 313.471534 217.188481 
L 332.181594 262.776735 
z
" clip-path="url(#pa66fa0a1ad)" style="fill: #0000f5; fill-opacity: 0.1"/>
    <path d="M 204.499495 -36.880751 
L 186.686989 -80.356509 
L 180.348798 -93.840031 
L 198.206466 -50.240978 
z
" clip-path="url(#pa66fa0a1ad)" style="fill: #0000f5; fill-opacity: 0.1"/>
    <path d="M 283.354784 147.624 
L 265.025304 102.938225 
L 259.065232 90.339727 
L 277.444894 135.16055 
z
" clip-path="url(#pa66fa0a1ad)" style="fill: #0000f5; fill-opacity: 0.1"/>
    <path d="M 149.773621 -164.474589 
L 132.291563 -207.182742 
L 125.680205 -221.301274 
L 143.204079 -178.477576 
z
" clip-path="url(#pa66fa0a1ad)" style="fill: #0000f5; fill-opacity: 0.1"/>
    <path d="M 228.732132 20.271782 
L 210.731748 -23.649553 
L 204.499495 -36.880751 
L 222.546734 7.167927 
z
" clip-path="url(#pa66fa0a1ad)" style="fill: #0000f5; fill-opacity: 0.1"/>
    <path d="M 307.726764 205.102672 
L 289.207585 159.967055 
L 283.354784 147.624 
L 301.925864 192.898776 
z
" clip-path="url(#pa66fa0a1ad)" style="fill: #0000f5; fill-opacity: 0.1"/>
    <path d="M 173.948903 -107.454819 
L 156.279624 -150.607037 
L 149.773621 -164.474589 
L 167.486397 -121.202801 
z
" clip-path="url(#pa66fa0a1ad)" style="fill: #0000f5; fill-opacity: 0.1"/>
    <path d="M 253.047124 77.618551 
L 234.857692 33.248869 
L 228.732132 20.271782 
L 246.970128 64.772896 
z
" clip-path="url(#pa66fa0a1ad)" style="fill: #0000f5; fill-opacity: 0.1"/>
    <path d="M 332.181594 262.776735 
L 313.471534 217.188481 
L 307.726764 205.102672 
L 326.490461 250.834236 
z
" clip-path="url(#pa66fa0a1ad)" style="fill: #0000f5; fill-opacity: 0.1"/>
    <path d="M 198.206466 -50.240978 
L 180.348798 -93.840031 
L 173.948903 -107.454819 
L 191.851768 -63.732132 
z
" clip-path="url(#pa66fa0a1ad)" style="fill: #0000f5; fill-opacity: 0.1"/>
    <path d="M 277.444894 135.16055 
L 259.065232 90.339727 
L 253.047124 77.618551 
L 271.477075 122.574933 
z
" clip-path="url(#pa66fa0a1ad)" style="fill: #0000f5; fill-opacity: 0.1"/>
    <path d="M 222.546734 7.167927 
L 204.499495 -36.880751 
L 198.206466 -50.240978 
L 216.300617 -6.064561 
z
" clip-path="url(#pa66fa0a1ad)" style="fill: #0000f5; fill-opacity: 0.1"/>
    <path d="M 301.925864 192.898776 
L 283.354784 147.624 
L 277.444894 135.16055 
L 296.068006 180.575053 
z
" clip-path="url(#pa66fa0a1ad)" style="fill: #0000f5; fill-opacity: 0.1"/>
    <path d="M 167.486397 -121.202801 
L 149.773621 -164.474589 
L 143.204079 -178.477576 
L 160.960359 -135.08594 
z
" clip-path="url(#pa66fa0a1ad)" style="fill: #0000f5; fill-opacity: 0.1"/>
    <path d="M 246.970128 64.772896 
L 228.732132 20.271782 
L 222.546734 7.167927 
L 240.833374 51.800925 
z
" clip-path="url(#pa66fa0a1ad)" style="fill: #0000f5; fill-opacity: 0.1"/>
    <path d="M 326.490461 250.834236 
L 307.726764 205.102672 
L 301.925864 192.898776 
L 320.743352 238.774275 
z
" clip-path="url(#pa66fa0a1ad)" style="fill: #0000f5; fill-opacity: 0.1"/>
    <path d="M 191.851768 -63.732132 
L 173.948903 -107.454819 
L 167.486397 -121.202801 
L 185.434488 -77.356145 
z
" clip-path="url(#pa66fa0a1ad)" style="fill: #0000f5; fill-opacity: 0.1"/>
    <path d="M 271.477075 122.574933 
L 253.047124 77.618551 
L 246.970128 64.772896 
L 265.450472 109.865346 
z
" clip-path="url(#pa66fa0a1ad)" style="fill: #0000f5; fill-opacity: 0.1"/>
    <path d="M 216.300617 -6.064561 
L 198.206466 -50.240978 
L 191.851768 -63.732132 
L 209.992883 -19.427586 
z
" clip-path="url(#pa66fa0a1ad)" style="fill: #0000f5; fill-opacity: 0.1"/>
    <path d="M 296.068006 180.575053 
L 277.444894 135.16055 
L 271.477075 122.574933 
L 290.152347 168.12973 
z
" clip-path="url(#pa66fa0a1ad)" style="fill: #0000f5; fill-opacity: 0.1"/>
    <path d="M 240.833374 51.800925 
L 222.546734 7.167927 
L 216.300617 -6.064561 
L 234.635978 38.700766 
z
" clip-path="url(#pa66fa0a1ad)" style="fill: #0000f5; fill-opacity: 0.1"/>
    <path d="M 320.743352 238.774275 
L 301.925864 192.898776 
L 296.068006 180.575053 
L 314.939438 226.595112 
z
" clip-path="url(#pa66fa0a1ad)" style="fill: #0000f5; fill-opacity: 0.1"/>
    <path d="M 185.434488 -77.356145 
L 167.486397 -121.202801 
L 160.960359 -135.08594 
L 178.953699 -91.114991 
z
" clip-path="url(#pa66fa0a1ad)" style="fill: #0000f5; fill-opacity: 0.1"/>
    <path d="M 265.450472 109.865346 
L 246.970128 64.772896 
L 240.833374 51.800925 
L 259.364212 97.029946 
z
" clip-path="url(#pa66fa0a1ad)" style="fill: #0000f5; fill-opacity: 0.1"/>
    <path d="M 209.992883 -19.427586 
L 191.851768 -63.732132 
L 185.434488 -77.356145 
L 203.622615 -32.92309 
z
" clip-path="url(#pa66fa0a1ad)" style="fill: #0000f5; fill-opacity: 0.1"/>
    <path d="M 290.152347 168.12973 
L 271.477075 122.574933 
L 265.450472 109.865346 
L 284.178029 155.560997 
z
" clip-path="url(#pa66fa0a1ad)" style="fill: #0000f5; fill-opacity: 0.1"/>
    <path d="M 234.635978 38.700766 
L 216.300617 -6.064561 
L 209.992883 -19.427586 
L 228.377035 25.47051 
z
" clip-path="url(#pa66fa0a1ad)" style="fill: #0000f5; fill-opacity: 0.1"/>
    <path d="M 314.939438 226.595112 
L 296.068006 180.575053 
L 290.152347 168.12973 
L 309.077872 214.294969 
z
" clip-path="url(#pa66fa0a1ad)" style="fill: #0000f5; fill-opacity: 0.1"/>
    <path d="M 259.364212 97.029946 
L 240.833374 51.800925 
L 234.635978 38.700766 
L 253.217405 84.066857 
z
" clip-path="url(#pa66fa0a1ad)" style="fill: #0000f5; fill-opacity: 0.1"/>
    <path d="M 203.622615 -32.92309 
L 185.434488 -77.356145 
L 178.953699 -91.114991 
L 197.188879 -46.553051 
z
" clip-path="url(#pa66fa0a1ad)" style="fill: #0000f5; fill-opacity: 0.1"/>
    <path d="M 284.178029 155.560997 
L 265.450472 109.865346 
L 259.364212 97.029946 
L 278.144173 142.867011 
z
" clip-path="url(#pa66fa0a1ad)" style="fill: #0000f5; fill-opacity: 0.1"/>
    <path d="M 228.377035 25.47051 
L 209.992883 -19.427586 
L 203.622615 -32.92309 
L 222.055625 12.108209 
z
" clip-path="url(#pa66fa0a1ad)" style="fill: #0000f5; fill-opacity: 0.1"/>
    <path d="M 309.077872 214.294969 
L 290.152347 168.12973 
L 284.178029 155.560997 
L 303.15779 201.872035 
z
" clip-path="url(#pa66fa0a1ad)" style="fill: #0000f5; fill-opacity: 0.1"/>
    <path d="M 253.217405 84.066857 
L 234.635978 38.700766 
L 228.377035 25.47051 
L 247.009142 70.974164 
z
" clip-path="url(#pa66fa0a1ad)" style="fill: #0000f5; fill-opacity: 0.1"/>
    <path d="M 278.144173 142.867011 
L 259.364212 97.029946 
L 253.217405 84.066857 
L 272.049885 130.045889 
z
" clip-path="url(#pa66fa0a1ad)" style="fill: #0000f5; fill-opacity: 0.1"/>
    <path d="M 222.055625 12.108209 
L 203.622615 -32.92309 
L 197.188879 -46.553051 
L 215.670807 -1.388124 
z
" clip-path="url(#pa66fa0a1ad)" style="fill: #0000f5; fill-opacity: 0.1"/>
    <path d="M 303.15779 201.872035 
L 284.178029 155.560997 
L 278.144173 142.867011 
L 297.178313 189.324463 
z
" clip-path="url(#pa66fa0a1ad)" style="fill: #0000f5; fill-opacity: 0.1"/>
    <path d="M 247.009142 70.974164 
L 228.377035 25.47051 
L 222.055625 12.108209 
L 240.738497 57.749913 
z
" clip-path="url(#pa66fa0a1ad)" style="fill: #0000f5; fill-opacity: 0.1"/>
    <path d="M 272.049885 130.045889 
L 253.217405 84.066857 
L 247.009142 70.974164 
L 265.894253 117.095711 
z
" clip-path="url(#pa66fa0a1ad)" style="fill: #0000f5; fill-opacity: 0.1"/>
    <path d="M 297.178313 189.324463 
L 278.144173 142.867011 
L 272.049885 130.045889 
L 291.138541 176.650367 
z
" clip-path="url(#pa66fa0a1ad)" style="fill: #0000f5; fill-opacity: 0.1"/>
    <path d="M 240.738497 57.749913 
L 222.055625 12.108209 
L 215.670807 -1.388124 
L 234.404526 44.392112 
z
" clip-path="url(#pa66fa0a1ad)" style="fill: #0000f5; fill-opacity: 0.1"/>
    <path d="M 265.894253 117.095711 
L 247.009142 70.974164 
L 240.738497 57.749913 
L 259.676347 104.01452 
z
" clip-path="url(#pa66fa0a1ad)" style="fill: #0000f5; fill-opacity: 0.1"/>
    <path d="M 291.138541 176.650367 
L 272.049885 130.045889 
L 265.894253 117.095711 
L 285.037558 163.847823 
z
" clip-path="url(#pa66fa0a1ad)" style="fill: #0000f5; fill-opacity: 0.1"/>
    <path d="M 259.676347 104.01452 
L 240.738497 57.749913 
L 234.404526 44.392112 
L 253.395215 90.800318 
z
" clip-path="url(#pa66fa0a1ad)" style="fill: #0000f5; fill-opacity: 0.1"/>
    <path d="M 285.037558 163.847823 
L 265.894253 117.095711 
L 259.676347 104.01452 
L 278.874429 150.914869 
z
" clip-path="url(#pa66fa0a1ad)" style="fill: #0000f5; fill-opacity: 0.1"/>
    <path d="M 278.874429 150.914869 
L 259.676347 104.01452 
L 253.395215 90.800318 
L 272.6482 137.849503 
z
" clip-path="url(#pa66fa0a1ad)" style="fill: #0000f5; fill-opacity: 0.1"/>
   </g>
   <g id="legend_1">
    <g id="patch_6">
     <path d="M 357.840076 67.305115 
L 396.2 67.305115 
Q 398.2 67.305115 398.2 65.305115 
L 398.2 7 
Q 398.2 5 396.2 5 
L 357.840076 5 
Q 355.840076 5 355.840076 7 
L 355.840076 65.305115 
Q 355.840076 67.305115 357.840076 67.305115 
z
" style="fill: #ffffff; opacity: 0.8; stroke: #cccccc; stroke-linejoin: miter"/>
    </g>
    <g id="line2d_25">
     <path d="M 359.840076 12.5 
L 369.840076 12.5 
L 379.840076 12.5 
" style="fill: none; stroke: #ff0000; stroke-width: 1.5; stroke-linecap: square"/>
    </g>
    <g id="text_21">
     <!-- $\vec{a}$ -->
     <g transform="translate(387.840076 16)scale(0.1 -0.1)">
      <defs>
       <path id="CMMI12-7e" d="M 3424 3835 
C 3347 3764 3110 3540 3110 3451 
C 3110 3387 3168 3329 3232 3329 
C 3290 3329 3315 3368 3360 3432 
C 3514 3624 3686 3745 3834 3828 
C 3898 3867 3942 3886 3942 3956 
C 3942 4014 3891 4046 3853 4078 
C 3674 4200 3629 4372 3610 4449 
C 3590 4500 3571 4577 3482 4577 
C 3443 4577 3366 4552 3366 4456 
C 3366 4398 3405 4244 3526 4072 
L 1376 4072 
C 1267 4072 1158 4072 1158 3950 
C 1158 3835 1274 3835 1376 3835 
L 3424 3835 
z
" transform="scale(0.015625)"/>
       <path id="CMMI12-61" d="M 1926 760 
C 1894 651 1894 639 1805 517 
C 1664 338 1382 64 1082 64 
C 819 64 672 300 672 677 
C 672 1028 870 1743 992 2012 
C 1210 2459 1510 2689 1760 2689 
C 2182 2689 2266 2165 2266 2114 
C 2266 2108 2246 2024 2240 2012 
L 1926 760 
z
M 2336 2395 
C 2266 2561 2093 2816 1760 2816 
C 1037 2816 256 1884 256 939 
C 256 307 627 -64 1062 -64 
C 1414 -64 1715 211 1894 422 
C 1958 45 2259 -64 2451 -64 
C 2643 -64 2797 51 2912 281 
C 3014 498 3104 888 3104 913 
C 3104 945 3078 971 3040 971 
C 2982 971 2976 939 2950 843 
C 2854 466 2733 64 2470 64 
C 2285 64 2272 230 2272 358 
C 2272 505 2291 575 2349 824 
C 2394 984 2426 1124 2477 1309 
C 2714 2267 2771 2497 2771 2535 
C 2771 2625 2701 2695 2605 2695 
C 2400 2695 2349 2472 2336 2395 
z
" transform="scale(0.015625)"/>
      </defs>
      <use xlink:href="#CMMI12-7e" transform="scale(0.996264)"/>
      <use xlink:href="#CMMI12-61" transform="translate(6.445738 0)scale(0.996264)"/>
     </g>
    </g>
    <g id="line2d_26">
     <path d="M 359.840076 27.24679 
L 369.840076 27.24679 
L 379.840076 27.24679 
" style="fill: none; stroke: #00ff00; stroke-width: 1.5; stroke-linecap: square"/>
    </g>
    <g id="text_22">
     <!-- $\vec{b}$ -->
     <g transform="translate(387.840076 30.74679)scale(0.1 -0.1)">
      <defs>
       <path id="CMMI12-62" d="M 1478 4257 
C 1485 4283 1498 4321 1498 4352 
C 1498 4416 1434 4416 1421 4416 
C 1414 4416 1184 4393 1069 4377 
C 960 4377 864 4358 749 4358 
C 595 4345 550 4339 550 4224 
C 550 4160 614 4160 678 4160 
C 1005 4160 1005 4103 1005 4040 
C 1005 3996 954 3811 928 3696 
L 774 3085 
C 710 2831 346 1387 320 1272 
C 288 1114 288 1005 288 922 
C 288 274 653 -64 1069 -64 
C 1811 -64 2579 888 2579 1814 
C 2579 2401 2246 2816 1766 2816 
C 1434 2816 1133 2542 1011 2414 
L 1478 4257 
z
M 1075 64 
C 870 64 646 217 646 715 
C 646 926 666 1047 781 1494 
C 800 1577 902 1986 928 2069 
C 941 2120 1318 2689 1754 2689 
C 2035 2689 2163 2408 2163 2076 
C 2163 1769 1984 1047 1824 715 
C 1664 370 1370 64 1075 64 
z
" transform="scale(0.015625)"/>
      </defs>
      <use xlink:href="#CMMI12-7e" transform="translate(0 26.29016)scale(0.996264)"/>
      <use xlink:href="#CMMI12-62" transform="translate(11.311737 0)scale(0.996264)"/>
     </g>
    </g>
    <g id="line2d_27">
     <path d="M 359.840076 41.183968 
L 369.840076 41.183968 
L 379.840076 41.183968 
" style="fill: none; stroke: #0016ff; stroke-width: 1.5; stroke-linecap: square"/>
    </g>
    <g id="text_23">
     <!-- $\vec{c}$ -->
     <g transform="translate(387.840076 44.683968)scale(0.1 -0.1)">
      <defs>
       <path id="CMMI12-63" d="M 2502 2431 
C 2381 2431 2323 2431 2234 2355 
C 2195 2323 2125 2227 2125 2125 
C 2125 1997 2221 1920 2342 1920 
C 2496 1920 2669 2044 2669 2292 
C 2669 2588 2374 2816 1933 2816 
C 1094 2816 256 1903 256 996 
C 256 441 602 -64 1254 -64 
C 2125 -64 2675 622 2675 706 
C 2675 744 2637 776 2611 776 
C 2592 776 2586 770 2528 713 
C 2118 162 1510 64 1267 64 
C 826 64 685 446 685 764 
C 685 988 794 1605 1024 2039 
C 1190 2338 1536 2682 1939 2682 
C 2022 2682 2374 2682 2502 2431 
z
" transform="scale(0.015625)"/>
      </defs>
      <use xlink:href="#CMMI12-7e" transform="scale(0.996264)"/>
      <use xlink:href="#CMMI12-63" transform="translate(5.638615 0)scale(0.996264)"/>
     </g>
    </g>
    <g id="line2d_28">
     <path d="M 359.840076 57.867937 
L 369.840076 57.867937 
L 379.840076 57.867937 
" style="fill: none; stroke: #f400ff; stroke-width: 1.5; stroke-linecap: square"/>
    </g>
    <g id="text_24">
     <!-- $\vec{f}$ -->
     <g transform="translate(387.840076 61.367937)scale(0.1 -0.1)">
      <defs>
       <path id="CMMI12-66" d="M 2854 2566 
C 2982 2566 3034 2566 3034 2688 
C 3034 2752 2982 2752 2867 2752 
L 2349 2752 
C 2470 3429 2560 3897 2611 4107 
C 2650 4265 2784 4416 2950 4416 
C 3085 4416 3219 4358 3283 4298 
C 3034 4272 2957 4082 2957 3969 
C 2957 3837 3053 3759 3174 3759 
C 3302 3759 3494 3870 3494 4119 
C 3494 4393 3226 4544 2944 4544 
C 2669 4544 2400 4334 2272 4078 
C 2157 3848 2093 3611 1946 2752 
L 1517 2752 
C 1395 2752 1331 2752 1331 2637 
C 1331 2566 1370 2566 1498 2566 
L 1907 2566 
C 1792 1976 1530 542 1382 -137 
C 1274 -689 1178 -1152 858 -1152 
C 838 -1152 653 -1152 538 -1031 
C 864 -1005 864 -726 864 -720 
C 864 -593 768 -517 646 -517 
C 518 -517 326 -625 326 -867 
C 326 -1140 608 -1280 858 -1280 
C 1510 -1280 1779 -118 1850 199 
C 1965 688 2278 2376 2310 2566 
L 2854 2566 
z
" transform="scale(0.015625)"/>
      </defs>
      <use xlink:href="#CMMI12-7e" transform="translate(13.568792 26.29016)scale(0.996264)"/>
      <use xlink:href="#CMMI12-66" transform="scale(0.996264)"/>
     </g>
    </g>
   </g>
  </g>
 </g>
 <defs>
  <clipPath id="pa66fa0a1ad">
   <rect x="57.6" y="0" width="345.6" height="345.6"/>
  </clipPath>
 </defs>
</svg>
