<?xml version="1.0" encoding="utf-8" standalone="no"?>
<!DOCTYPE svg PUBLIC "-//W3C//DTD SVG 1.1//EN"
  "http://www.w3.org/Graphics/SVG/1.1/DTD/svg11.dtd">
<svg xmlns:xlink="http://www.w3.org/1999/xlink" width="460.8pt" height="345.6pt" viewBox="0 0 460.8 345.6" xmlns="http://www.w3.org/2000/svg" version="1.1">
 <metadata>
  <rdf:RDF xmlns:dc="http://purl.org/dc/elements/1.1/" xmlns:cc="http://creativecommons.org/ns#" xmlns:rdf="http://www.w3.org/1999/02/22-rdf-syntax-ns#">
   <cc:Work>
    <dc:type rdf:resource="http://purl.org/dc/dcmitype/StillImage"/>
    <dc:date>2022-07-12T15:50:59.393910</dc:date>
    <dc:format>image/svg+xml</dc:format>
    <dc:creator>
     <cc:Agent>
      <dc:title>Matplotlib v3.5.1, https://matplotlib.org/</dc:title>
     </cc:Agent>
    </dc:creator>
   </cc:Work>
  </rdf:RDF>
 </metadata>
 <defs>
  <style type="text/css">*{stroke-linejoin: round; stroke-linecap: butt}</style>
 </defs>
 <g id="figure_1">
  <g id="patch_1">
   <path d="M 0 345.6 
L 460.8 345.6 
L 460.8 0 
L 0 0 
z
" style="fill: #ffffff"/>
  </g>
  <g id="patch_2">
   <path d="M 57.6 345.6 
L 403.2 345.6 
L 403.2 0 
L 57.6 0 
z
" style="fill: #ffffff"/>
  </g>
  <g id="pane3d_1">
   <g id="patch_3">
    <path d="M 222.424918 245.074867 
L 77.254649 252.143801 
L 77.254649 84.115659 
L 222.424918 91.184592 
" style="fill: #f2f2f2; opacity: 0.5; stroke: #f2f2f2; stroke-linejoin: miter"/>
   </g>
  </g>
  <g id="pane3d_2">
   <g id="patch_4">
    <path d="M 390.587061 250.920005 
L 222.424918 245.074867 
L 222.424918 91.184592 
L 390.587061 85.339455 
" style="fill: #e6e6e6; opacity: 0.5; stroke: #e6e6e6; stroke-linejoin: miter"/>
   </g>
  </g>
  <g id="pane3d_3">
   <g id="patch_5">
    <path d="M 390.587061 250.920005 
L 222.424918 245.074867 
L 77.254649 252.143801 
L 250.030609 259.161228 
" style="fill: #ececec; opacity: 0.5; stroke: #ececec; stroke-linejoin: miter"/>
   </g>
  </g>
  <g id="axis3d_1">
   <g id="line2d_1">
    <path d="M 77.254649 252.143801 
L 250.030609 259.161228 
" style="fill: none; stroke: #000000; stroke-width: 0.8; stroke-linecap: square"/>
   </g>
   <g id="text_1">
    <!-- x -->
    <g transform="translate(134.519433 285.271448)scale(0.16 -0.16)">
     <defs>
      <path id="CMSS17-78" d="M 1587 1414 
L 2656 2739 
L 2099 2739 
L 1363 1777 
L 602 2739 
L 32 2739 
L 1139 1414 
L 0 0 
L 563 0 
L 1363 1121 
L 2195 0 
L 2758 0 
L 1587 1414 
z
" transform="scale(0.015625)"/>
     </defs>
     <use xlink:href="#CMSS17-78" transform="scale(0.996264)"/>
    </g>
   </g>
   <g id="Line3DCollection_1">
    <path d="M 246.292706 259.009411 
L 386.973819 250.794412 
L 386.973819 85.465047 
" style="fill: none; stroke: #b0b0b0; stroke-width: 0.8"/>
    <path d="M 211.033197 257.577319 
L 352.836463 249.607834 
L 352.836463 86.651626 
" style="fill: none; stroke: #b0b0b0; stroke-width: 0.8"/>
    <path d="M 176.867696 256.189661 
L 319.665263 248.454838 
L 319.665263 87.804621 
" style="fill: none; stroke: #b0b0b0; stroke-width: 0.8"/>
    <path d="M 143.746063 254.8444 
L 287.419773 247.334019 
L 287.419773 88.92544 
" style="fill: none; stroke: #b0b0b0; stroke-width: 0.8"/>
    <path d="M 111.621177 253.539624 
L 256.061776 246.244049 
L 256.061776 90.015411 
" style="fill: none; stroke: #b0b0b0; stroke-width: 0.8"/>
    <path d="M 80.448714 252.27353 
L 225.55513 245.18367 
L 225.55513 91.075789 
" style="fill: none; stroke: #b0b0b0; stroke-width: 0.8"/>
   </g>
   <g id="xtick_1">
    <g id="line2d_2">
     <path d="M 247.529016 258.937217 
L 243.814179 259.154143 
" style="fill: none; stroke: #000000; stroke-width: 0.8; stroke-linecap: square"/>
    </g>
    <g id="text_2">
     <!-- $\mathdefault{0}$ -->
     <g transform="translate(233.857741 278.195204)scale(0.1 -0.1)">
      <defs>
       <path id="CMR17-30" d="M 2688 2025 
C 2688 2416 2682 3080 2413 3591 
C 2176 4039 1798 4198 1466 4198 
C 1158 4198 768 4058 525 3597 
C 269 3118 243 2524 243 2025 
C 243 1661 250 1106 448 619 
C 723 -39 1216 -128 1466 -128 
C 1760 -128 2208 -7 2470 600 
C 2662 1042 2688 1559 2688 2025 
z
M 1466 -26 
C 1056 -26 813 325 723 812 
C 653 1188 653 1738 653 2096 
C 653 2588 653 2997 736 3387 
C 858 3929 1216 4096 1466 4096 
C 1728 4096 2067 3923 2189 3400 
C 2272 3036 2278 2607 2278 2096 
C 2278 1680 2278 1169 2202 792 
C 2067 95 1690 -26 1466 -26 
z
" transform="scale(0.015625)"/>
      </defs>
      <use xlink:href="#CMR17-30" transform="scale(0.996264)"/>
     </g>
    </g>
   </g>
   <g id="xtick_2">
    <g id="line2d_3">
     <path d="M 212.277609 257.507382 
L 208.538521 257.717522 
" style="fill: none; stroke: #000000; stroke-width: 0.8; stroke-linecap: square"/>
    </g>
    <g id="text_3">
     <!-- $\mathdefault{1}$ -->
     <g transform="translate(198.534197 276.559582)scale(0.1 -0.1)">
      <defs>
       <path id="CMR17-31" d="M 1702 4058 
C 1702 4192 1696 4192 1606 4192 
C 1357 3916 979 3827 621 3827 
C 602 3827 570 3827 563 3808 
C 557 3795 557 3782 557 3648 
C 755 3648 1088 3686 1344 3839 
L 1344 461 
C 1344 236 1331 160 781 160 
L 589 160 
L 589 0 
C 896 0 1216 0 1523 0 
C 1830 0 2150 0 2458 0 
L 2458 160 
L 2266 160 
C 1715 160 1702 230 1702 458 
L 1702 4058 
z
" transform="scale(0.015625)"/>
      </defs>
      <use xlink:href="#CMR17-31" transform="scale(0.996264)"/>
     </g>
    </g>
   </g>
   <g id="xtick_3">
    <g id="line2d_4">
     <path d="M 178.119116 256.121876 
L 174.359061 256.325544 
" style="fill: none; stroke: #000000; stroke-width: 0.8; stroke-linecap: square"/>
    </g>
    <g id="text_4">
     <!-- $\mathdefault{2}$ -->
     <g transform="translate(164.313431 274.975022)scale(0.1 -0.1)">
      <defs>
       <path id="CMR17-32" d="M 2669 989 
L 2554 989 
C 2490 536 2438 459 2413 420 
C 2381 369 1920 369 1830 369 
L 602 369 
C 832 619 1280 1072 1824 1597 
C 2214 1967 2669 2402 2669 3035 
C 2669 3790 2067 4224 1395 4224 
C 691 4224 262 3604 262 3030 
C 262 2780 448 2748 525 2748 
C 589 2748 781 2787 781 3010 
C 781 3207 614 3264 525 3264 
C 486 3264 448 3258 422 3245 
C 544 3790 915 4058 1306 4058 
C 1862 4058 2227 3617 2227 3035 
C 2227 2479 1901 2000 1536 1584 
L 262 146 
L 262 0 
L 2515 0 
L 2669 989 
z
" transform="scale(0.015625)"/>
      </defs>
      <use xlink:href="#CMR17-32" transform="scale(0.996264)"/>
     </g>
    </g>
   </g>
   <g id="xtick_4">
    <g id="line2d_5">
     <path d="M 145.003487 254.77867 
L 141.225482 254.976161 
" style="fill: none; stroke: #000000; stroke-width: 0.8; stroke-linecap: square"/>
    </g>
    <g id="text_5">
     <!-- $\mathdefault{3}$ -->
     <g transform="translate(131.144595 273.439172)scale(0.1 -0.1)">
      <defs>
       <path id="CMR17-33" d="M 1414 2157 
C 1984 2157 2234 1662 2234 1090 
C 2234 320 1824 25 1453 25 
C 1114 25 563 194 390 693 
C 422 680 454 680 486 680 
C 640 680 755 782 755 948 
C 755 1133 614 1216 486 1216 
C 378 1216 211 1165 211 926 
C 211 335 787 -128 1466 -128 
C 2176 -128 2720 430 2720 1085 
C 2720 1707 2208 2157 1600 2227 
C 2086 2328 2554 2756 2554 3329 
C 2554 3820 2048 4179 1472 4179 
C 890 4179 378 3829 378 3329 
C 378 3110 544 3072 627 3072 
C 762 3072 877 3155 877 3321 
C 877 3486 762 3569 627 3569 
C 602 3569 570 3569 544 3557 
C 730 3959 1235 4032 1459 4032 
C 1683 4032 2106 3925 2106 3320 
C 2106 3143 2080 2828 1862 2550 
C 1670 2304 1453 2304 1242 2284 
C 1210 2284 1062 2269 1037 2269 
C 992 2263 966 2257 966 2208 
C 966 2163 973 2157 1101 2157 
L 1414 2157 
z
" transform="scale(0.015625)"/>
      </defs>
      <use xlink:href="#CMR17-33" transform="scale(0.996264)"/>
     </g>
    </g>
   </g>
   <g id="xtick_5">
    <g id="line2d_6">
     <path d="M 112.88368 253.475856 
L 109.090503 253.667446 
" style="fill: none; stroke: #000000; stroke-width: 0.8; stroke-linecap: square"/>
    </g>
    <g id="text_6">
     <!-- $\mathdefault{4}$ -->
     <g transform="translate(98.979919 271.949818)scale(0.1 -0.1)">
      <defs>
       <path id="CMR17-34" d="M 2150 4122 
C 2150 4256 2144 4256 2029 4256 
L 128 1254 
L 128 1088 
L 1779 1088 
L 1779 457 
C 1779 224 1766 160 1318 160 
L 1197 160 
L 1197 0 
C 1402 0 1747 0 1965 0 
C 2182 0 2528 0 2733 0 
L 2733 160 
L 2611 160 
C 2163 160 2150 224 2150 457 
L 2150 1088 
L 2803 1088 
L 2803 1254 
L 2150 1254 
L 2150 4122 
z
M 1798 3703 
L 1798 1254 
L 256 1254 
L 1798 3703 
z
" transform="scale(0.015625)"/>
      </defs>
      <use xlink:href="#CMR17-34" transform="scale(0.996264)"/>
     </g>
    </g>
   </g>
   <g id="xtick_6">
    <g id="line2d_7">
     <path d="M 81.715444 252.211638 
L 77.909649 252.397588 
" style="fill: none; stroke: #000000; stroke-width: 0.8; stroke-linecap: square"/>
    </g>
    <g id="text_7">
     <!-- $\mathdefault{5}$ -->
     <g transform="translate(67.774483 270.50488)scale(0.1 -0.1)">
      <defs>
       <path id="CMR17-35" d="M 730 3692 
C 794 3666 1056 3584 1325 3584 
C 1920 3584 2246 3911 2432 4100 
C 2432 4157 2432 4192 2394 4192 
C 2387 4192 2374 4192 2323 4163 
C 2099 4058 1837 3973 1517 3973 
C 1325 3973 1037 3999 723 4139 
C 653 4171 640 4171 634 4171 
C 602 4171 595 4164 595 4037 
L 595 2203 
C 595 2089 595 2057 659 2057 
C 691 2057 704 2070 736 2114 
C 941 2401 1222 2522 1542 2522 
C 1766 2522 2246 2382 2246 1289 
C 2246 1085 2246 715 2054 421 
C 1894 159 1645 25 1370 25 
C 947 25 518 320 403 814 
C 429 807 480 795 506 795 
C 589 795 749 840 749 1038 
C 749 1210 627 1280 506 1280 
C 358 1280 262 1190 262 1011 
C 262 454 704 -128 1382 -128 
C 2042 -128 2669 440 2669 1264 
C 2669 2030 2170 2624 1549 2624 
C 1222 2624 947 2503 730 2274 
L 730 3692 
z
" transform="scale(0.015625)"/>
      </defs>
      <use xlink:href="#CMR17-35" transform="scale(0.996264)"/>
     </g>
    </g>
   </g>
  </g>
  <g id="axis3d_2">
   <g id="line2d_8">
    <path d="M 390.587061 250.920005 
L 250.030609 259.161228 
" style="fill: none; stroke: #000000; stroke-width: 0.8; stroke-linecap: square"/>
   </g>
   <g id="text_8">
    <!-- y -->
    <g transform="translate(345.938547 284.156111)scale(0.16 -0.16)">
     <defs>
      <path id="CMSS17-79" d="M 2675 2752 
L 2176 2752 
C 1632 1294 1446 702 1434 383 
L 1427 383 
C 1408 696 1126 1460 902 2007 
L 602 2752 
L 83 2752 
L 1216 13 
C 1146 -178 1043 -465 1011 -529 
C 870 -885 774 -885 672 -885 
C 646 -885 442 -885 211 -809 
L 250 -1229 
C 410 -1261 570 -1280 685 -1280 
C 845 -1280 1165 -1280 1459 -497 
L 2675 2752 
z
" transform="scale(0.015625)"/>
     </defs>
     <use xlink:href="#CMSS17-79" transform="scale(0.996264)"/>
    </g>
   </g>
   <g id="Line3DCollection_2">
    <path d="M 206.850047 90.426188 
L 206.850047 245.833271 
L 375.601212 251.798667 
" style="fill: none; stroke: #b0b0b0; stroke-width: 0.8"/>
    <path d="M 180.38511 89.137502 
L 180.38511 247.121957 
L 350.085579 253.294721 
" style="fill: none; stroke: #b0b0b0; stroke-width: 0.8"/>
    <path d="M 153.027545 87.805351 
L 153.027545 248.454109 
L 323.640861 254.84525 
" style="fill: none; stroke: #b0b0b0; stroke-width: 0.8"/>
    <path d="M 124.731417 86.427497 
L 124.731417 249.831963 
L 296.215372 256.453285 
" style="fill: none; stroke: #b0b0b0; stroke-width: 0.8"/>
    <path d="M 95.447584 85.001547 
L 95.447584 251.257912 
L 267.753521 258.122084 
" style="fill: none; stroke: #b0b0b0; stroke-width: 0.8"/>
   </g>
   <g id="xtick_7">
    <g id="line2d_9">
     <path d="M 374.148453 251.747312 
L 378.51209 251.901568 
" style="fill: none; stroke: #000000; stroke-width: 0.8; stroke-linecap: square"/>
    </g>
    <g id="text_9">
     <!-- $\mathdefault{−4}$ -->
     <g transform="translate(380.902414 269.873297)scale(0.1 -0.1)">
      <defs>
       <path id="CMSY10-0" d="M 4218 1472 
C 4326 1472 4442 1472 4442 1600 
C 4442 1728 4326 1728 4218 1728 
L 755 1728 
C 646 1728 531 1728 531 1600 
C 531 1472 646 1472 755 1472 
L 4218 1472 
z
" transform="scale(0.015625)"/>
      </defs>
      <use xlink:href="#CMSY10-0" transform="scale(0.996264)"/>
      <use xlink:href="#CMR17-34" transform="translate(77.487468 0)scale(0.996264)"/>
     </g>
    </g>
   </g>
   <g id="xtick_8">
    <g id="line2d_10">
     <path d="M 348.622801 253.241514 
L 353.016628 253.401337 
" style="fill: none; stroke: #000000; stroke-width: 0.8; stroke-linecap: square"/>
    </g>
    <g id="text_10">
     <!-- $\mathdefault{−2}$ -->
     <g transform="translate(355.4684 271.577338)scale(0.1 -0.1)">
      <use xlink:href="#CMSY10-0" transform="scale(0.996264)"/>
      <use xlink:href="#CMR17-32" transform="translate(77.487468 0)scale(0.996264)"/>
     </g>
    </g>
   </g>
   <g id="xtick_9">
    <g id="line2d_11">
     <path d="M 322.16829 254.790088 
L 326.591632 254.955786 
" style="fill: none; stroke: #000000; stroke-width: 0.8; stroke-linecap: square"/>
    </g>
    <g id="text_11">
     <!-- $\mathdefault{0}$ -->
     <g transform="translate(332.977913 273.343743)scale(0.1 -0.1)">
      <use xlink:href="#CMR17-30" transform="scale(0.996264)"/>
     </g>
    </g>
   </g>
   <g id="xtick_10">
    <g id="line2d_12">
     <path d="M 294.733282 256.396058 
L 299.185325 256.56796 
" style="fill: none; stroke: #000000; stroke-width: 0.8; stroke-linecap: square"/>
    </g>
    <g id="text_12">
     <!-- $\mathdefault{2}$ -->
     <g transform="translate(305.630157 275.176001)scale(0.1 -0.1)">
      <use xlink:href="#CMR17-32" transform="scale(0.996264)"/>
     </g>
    </g>
   </g>
   <g id="xtick_11">
    <g id="line2d_13">
     <path d="M 266.262235 258.062675 
L 270.74201 258.241137 
" style="fill: none; stroke: #000000; stroke-width: 0.8; stroke-linecap: square"/>
    </g>
    <g id="text_13">
     <!-- $\mathdefault{4}$ -->
     <g transform="translate(277.243495 277.077864)scale(0.1 -0.1)">
      <use xlink:href="#CMR17-34" transform="scale(0.996264)"/>
     </g>
    </g>
   </g>
  </g>
  <g id="axis3d_3">
   <g id="line2d_14">
    <path d="M 390.587061 250.920005 
L 390.587061 85.339455 
" style="fill: none; stroke: #000000; stroke-width: 0.8; stroke-linecap: square"/>
   </g>
   <g id="text_14">
    <!-- z -->
    <g transform="translate(429.999538 172.114786)scale(0.16 -0.16)">
     <defs>
      <path id="CMSS17-7a" d="M 2400 2502 
L 2400 2750 
L 250 2750 
L 250 2368 
L 1069 2368 
C 1146 2368 1222 2368 1299 2368 
L 1747 2368 
L 166 261 
L 166 0 
L 2419 0 
L 2419 395 
L 1549 395 
C 1472 395 1395 395 1318 395 
L 826 395 
L 2400 2502 
z
" transform="scale(0.015625)"/>
     </defs>
     <use xlink:href="#CMSS17-7a" transform="scale(0.996264)"/>
    </g>
   </g>
   <g id="Line3DCollection_3">
    <path d="M 390.587061 247.608394 
L 222.424918 241.997062 
L 77.254649 248.783238 
" style="fill: none; stroke: #b0b0b0; stroke-width: 0.8"/>
    <path d="M 390.587061 215.816928 
L 222.424918 212.450129 
L 77.254649 216.521835 
" style="fill: none; stroke: #b0b0b0; stroke-width: 0.8"/>
    <path d="M 390.587061 184.025462 
L 222.424918 182.903196 
L 77.254649 184.260431 
" style="fill: none; stroke: #b0b0b0; stroke-width: 0.8"/>
    <path d="M 390.587061 152.233997 
L 222.424918 153.356263 
L 77.254649 151.999028 
" style="fill: none; stroke: #b0b0b0; stroke-width: 0.8"/>
    <path d="M 390.587061 120.442531 
L 222.424918 123.809331 
L 77.254649 119.737625 
" style="fill: none; stroke: #b0b0b0; stroke-width: 0.8"/>
    <path d="M 390.587061 88.651066 
L 222.424918 94.262398 
L 77.254649 87.476222 
" style="fill: none; stroke: #b0b0b0; stroke-width: 0.8"/>
   </g>
   <g id="xtick_12">
    <g id="line2d_15">
     <path d="M 389.140447 247.560122 
L 393.485569 247.705113 
" style="fill: none; stroke: #000000; stroke-width: 0.8; stroke-linecap: square"/>
    </g>
    <g id="text_15">
     <!-- $\mathdefault{0}$ -->
     <g transform="translate(407.804911 254.452995)scale(0.1 -0.1)">
      <use xlink:href="#CMR17-30" transform="scale(0.996264)"/>
     </g>
    </g>
   </g>
   <g id="xtick_13">
    <g id="line2d_16">
     <path d="M 389.140447 215.787965 
L 393.485569 215.874959 
" style="fill: none; stroke: #000000; stroke-width: 0.8; stroke-linecap: square"/>
    </g>
    <g id="text_16">
     <!-- $\mathdefault{1}$ -->
     <g transform="translate(407.804911 222.691088)scale(0.1 -0.1)">
      <use xlink:href="#CMR17-31" transform="scale(0.996264)"/>
     </g>
    </g>
   </g>
   <g id="xtick_14">
    <g id="line2d_17">
     <path d="M 389.140447 184.015808 
L 393.485569 184.044806 
" style="fill: none; stroke: #000000; stroke-width: 0.8; stroke-linecap: square"/>
    </g>
    <g id="text_17">
     <!-- $\mathdefault{2}$ -->
     <g transform="translate(407.804911 190.929181)scale(0.1 -0.1)">
      <use xlink:href="#CMR17-32" transform="scale(0.996264)"/>
     </g>
    </g>
   </g>
   <g id="xtick_15">
    <g id="line2d_18">
     <path d="M 389.140447 152.243651 
L 393.485569 152.214653 
" style="fill: none; stroke: #000000; stroke-width: 0.8; stroke-linecap: square"/>
    </g>
    <g id="text_18">
     <!-- $\mathdefault{3}$ -->
     <g transform="translate(407.804911 159.167275)scale(0.1 -0.1)">
      <use xlink:href="#CMR17-33" transform="scale(0.996264)"/>
     </g>
    </g>
   </g>
   <g id="xtick_16">
    <g id="line2d_19">
     <path d="M 389.140447 120.471494 
L 393.485569 120.3845 
" style="fill: none; stroke: #000000; stroke-width: 0.8; stroke-linecap: square"/>
    </g>
    <g id="text_19">
     <!-- $\mathdefault{4}$ -->
     <g transform="translate(407.804911 127.405368)scale(0.1 -0.1)">
      <use xlink:href="#CMR17-34" transform="scale(0.996264)"/>
     </g>
    </g>
   </g>
   <g id="xtick_17">
    <g id="line2d_20">
     <path d="M 389.140447 88.699337 
L 393.485569 88.554347 
" style="fill: none; stroke: #000000; stroke-width: 0.8; stroke-linecap: square"/>
    </g>
    <g id="text_20">
     <!-- $\mathdefault{5}$ -->
     <g transform="translate(407.804911 95.643462)scale(0.1 -0.1)">
      <use xlink:href="#CMR17-35" transform="scale(0.996264)"/>
     </g>
    </g>
   </g>
  </g>
  <g id="axes_1">
   <g id="line2d_21">
    <path d="M 319.962944 251.244366 
L 243.365481 84.004467 
" clip-path="url(#p9720a1178d)" style="fill: none; stroke: #ff0000; stroke-width: 1.5; stroke-linecap: square"/>
   </g>
   <g id="line2d_22">
    <path d="M 319.962944 251.244366 
L 278.431257 120.575974 
" clip-path="url(#p9720a1178d)" style="fill: none; stroke: #00ff00; stroke-width: 1.5; stroke-linecap: square"/>
   </g>
   <g id="line2d_23">
    <path d="M 319.962944 251.244366 
L 220.461654 -1 
" clip-path="url(#p9720a1178d)" style="fill: none; stroke: #0016ff; stroke-width: 1.5; stroke-linecap: square"/>
   </g>
   <g id="line2d_24">
    <path d="M 319.962944 251.244366 
L 196.872229 153.066297 
" clip-path="url(#p9720a1178d)" style="fill: none; stroke: #f400ff; stroke-width: 1.5; stroke-linecap: square"/>
   </g>
   <g id="Poly3DCollection_1">
    <path d="M 253.4152 25.405387 
L 238.049656 -14.649742 
L 231.641745 -26.634763 
L 247.026309 13.502606 
z
" clip-path="url(#p9720a1178d)" style="fill: #0000f5; fill-opacity: 0.1"/>
    <path d="M 247.026309 13.502606 
L 231.641745 -26.634763 
L 225.18113 -38.718362 
L 240.584504 1.501245 
z
" clip-path="url(#p9720a1178d)" style="fill: #0000f5; fill-opacity: 0.1"/>
    <path d="M 268.99403 66.01651 
L 253.4152 25.405387 
L 247.026309 13.502606 
L 262.625309 54.199426 
z
" clip-path="url(#p9720a1178d)" style="fill: #0000f5; fill-opacity: 0.1"/>
    <path d="M 240.584504 1.501245 
L 225.18113 -38.718362 
L 218.667155 -50.90176 
L 234.089124 -10.599928 
z
" clip-path="url(#p9720a1178d)" style="fill: #0000f5; fill-opacity: 0.1"/>
    <path d="M 262.625309 54.199426 
L 247.026309 13.502606 
L 240.584504 1.501245 
L 256.203472 42.283785 
z
" clip-path="url(#p9720a1178d)" style="fill: #0000f5; fill-opacity: 0.1"/>
    <path d="M 234.089124 -10.599928 
L 218.667155 -50.90176 
L 212.099159 -63.186198 
L 227.539499 -22.802163 
z
" clip-path="url(#p9720a1178d)" style="fill: #0000f5; fill-opacity: 0.1"/>
    <path d="M 284.790617 107.195284 
L 268.99403 66.01651 
L 262.625309 54.199426 
L 278.443259 95.467473 
z
" clip-path="url(#p9720a1178d)" style="fill: #0000f5; fill-opacity: 0.1"/>
    <path d="M 256.203472 42.283785 
L 240.584504 1.501245 
L 234.089124 -10.599928 
L 249.72785 30.268349 
z
" clip-path="url(#p9720a1178d)" style="fill: #0000f5; fill-opacity: 0.1"/>
    <path d="M 227.539499 -22.802163 
L 212.099159 -63.186198 
L 205.476465 -75.572938 
L 220.934946 -35.106731 
z
" clip-path="url(#p9720a1178d)" style="fill: #0000f5; fill-opacity: 0.1"/>
    <path d="M 278.443259 95.467473 
L 262.625309 54.199426 
L 256.203472 42.283785 
L 272.042591 83.641161 
z
" clip-path="url(#p9720a1178d)" style="fill: #0000f5; fill-opacity: 0.1"/>
    <path d="M 249.72785 30.268349 
L 234.089124 -10.599928 
L 227.539499 -22.802163 
L 243.197767 18.15186 
z
" clip-path="url(#p9720a1178d)" style="fill: #0000f5; fill-opacity: 0.1"/>
    <path d="M 220.934946 -35.106731 
L 205.476465 -75.572938 
L 198.798389 -88.063264 
L 214.274771 -47.514925 
z
" clip-path="url(#p9720a1178d)" style="fill: #0000f5; fill-opacity: 0.1"/>
    <path d="M 300.809558 148.953697 
L 284.790617 107.195284 
L 278.443259 95.467473 
L 294.484803 137.318862 
z
" clip-path="url(#p9720a1178d)" style="fill: #0000f5; fill-opacity: 0.1"/>
    <path d="M 272.042591 83.641161 
L 256.203472 42.283785 
L 249.72785 30.268349 
L 265.587936 71.715101 
z
" clip-path="url(#p9720a1178d)" style="fill: #0000f5; fill-opacity: 0.1"/>
    <path d="M 243.197767 18.15186 
L 227.539499 -22.802163 
L 220.934946 -35.106731 
L 236.612532 5.933037 
z
" clip-path="url(#p9720a1178d)" style="fill: #0000f5; fill-opacity: 0.1"/>
    <path d="M 214.274771 -47.514925 
L 198.798389 -88.063264 
L 192.064231 -100.658481 
L 207.558269 -60.028059 
z
" clip-path="url(#p9720a1178d)" style="fill: #0000f5; fill-opacity: 0.1"/>
    <path d="M 294.484803 137.318862 
L 278.443259 95.467473 
L 272.042591 83.641161 
L 288.106549 125.585613 
z
" clip-path="url(#p9720a1178d)" style="fill: #0000f5; fill-opacity: 0.1"/>
    <path d="M 265.587936 71.715101 
L 249.72785 30.268349 
L 243.197767 18.15186 
L 259.078611 59.688026 
z
" clip-path="url(#p9720a1178d)" style="fill: #0000f5; fill-opacity: 0.1"/>
    <path d="M 236.612532 5.933037 
L 220.934946 -35.106731 
L 214.274771 -47.514925 
L 229.971443 -6.389423 
z
" clip-path="url(#p9720a1178d)" style="fill: #0000f5; fill-opacity: 0.1"/>
    <path d="M 317.055582 191.304072 
L 300.809558 148.953697 
L 294.484803 137.318862 
L 310.754714 179.766047 
z
" clip-path="url(#p9720a1178d)" style="fill: #0000f5; fill-opacity: 0.1"/>
    <path d="M 207.558269 -60.028059 
L 192.064231 -100.658481 
L 185.273283 -113.359916 
L 200.784721 -72.64747 
z
" clip-path="url(#p9720a1178d)" style="fill: #0000f5; fill-opacity: 0.1"/>
    <path d="M 288.106549 125.585613 
L 272.042591 83.641161 
L 265.587936 71.715101 
L 281.674116 113.752695 
z
" clip-path="url(#p9720a1178d)" style="fill: #0000f5; fill-opacity: 0.1"/>
    <path d="M 259.078611 59.688026 
L 243.197767 18.15186 
L 236.612532 5.933037 
L 252.513915 47.558646 
z
" clip-path="url(#p9720a1178d)" style="fill: #0000f5; fill-opacity: 0.1"/>
    <path d="M 229.971443 -6.389423 
L 214.274771 -47.514925 
L 207.558269 -60.028059 
L 223.273786 -18.816842 
z
" clip-path="url(#p9720a1178d)" style="fill: #0000f5; fill-opacity: 0.1"/>
    <path d="M 310.754714 179.766047 
L 294.484803 137.318862 
L 288.106549 125.585613 
L 304.400169 168.12973 
z
" clip-path="url(#p9720a1178d)" style="fill: #0000f5; fill-opacity: 0.1"/>
    <path d="M 200.784721 -72.64747 
L 185.273283 -113.359916 
L 178.424824 -126.168917 
L 193.953399 -85.374518 
z
" clip-path="url(#p9720a1178d)" style="fill: #0000f5; fill-opacity: 0.1"/>
    <path d="M 281.674116 113.752695 
L 265.587936 71.715101 
L 259.078611 59.688026 
L 275.186808 101.818835 
z
" clip-path="url(#p9720a1178d)" style="fill: #0000f5; fill-opacity: 0.1"/>
    <path d="M 252.513915 47.558646 
L 236.612532 5.933037 
L 229.971443 -6.389423 
L 245.893142 35.325653 
z
" clip-path="url(#p9720a1178d)" style="fill: #0000f5; fill-opacity: 0.1"/>
    <path d="M 333.533552 234.259087 
L 317.055582 191.304072 
L 310.754714 179.766047 
L 327.257904 222.821844 
z
" clip-path="url(#p9720a1178d)" style="fill: #0000f5; fill-opacity: 0.1"/>
    <path d="M 223.273786 -18.816842 
L 207.558269 -60.028059 
L 200.784721 -72.64747 
L 216.518837 -31.350569 
z
" clip-path="url(#p9720a1178d)" style="fill: #0000f5; fill-opacity: 0.1"/>
    <path d="M 304.400169 168.12973 
L 288.106549 125.585613 
L 281.674116 113.752695 
L 297.991257 156.393858 
z
" clip-path="url(#p9720a1178d)" style="fill: #0000f5; fill-opacity: 0.1"/>
    <path d="M 193.953399 -85.374518 
L 178.424824 -126.168917 
L 171.518119 -139.086857 
L 187.06356 -98.210586 
z
" clip-path="url(#p9720a1178d)" style="fill: #0000f5; fill-opacity: 0.1"/>
    <path d="M 275.186808 101.818835 
L 259.078611 59.688026 
L 252.513915 47.558646 
L 268.643923 89.782733 
z
" clip-path="url(#p9720a1178d)" style="fill: #0000f5; fill-opacity: 0.1"/>
    <path d="M 245.893142 35.325653 
L 229.971443 -6.389423 
L 223.273786 -18.816842 
L 239.215568 22.987711 
z
" clip-path="url(#p9720a1178d)" style="fill: #0000f5; fill-opacity: 0.1"/>
    <path d="M 327.257904 222.821844 
L 310.754714 179.766047 
L 304.400169 168.12973 
L 320.928409 211.286465 
z
" clip-path="url(#p9720a1178d)" style="fill: #0000f5; fill-opacity: 0.1"/>
    <path d="M 216.518837 -31.350569 
L 200.784721 -72.64747 
L 193.953399 -85.374518 
L 209.705855 -43.991972 
z
" clip-path="url(#p9720a1178d)" style="fill: #0000f5; fill-opacity: 0.1"/>
    <path d="M 297.991257 156.393858 
L 281.674116 113.752695 
L 275.186808 101.818835 
L 291.527278 144.557149 
z
" clip-path="url(#p9720a1178d)" style="fill: #0000f5; fill-opacity: 0.1"/>
    <path d="M 187.06356 -98.210586 
L 171.518119 -139.086857 
L 164.552423 -152.115132 
L 180.114448 -111.157082 
z
" clip-path="url(#p9720a1178d)" style="fill: #0000f5; fill-opacity: 0.1"/>
    <path d="M 268.643923 89.782733 
L 252.513915 47.558646 
L 245.893142 35.325653 
L 262.044741 77.643071 
z
" clip-path="url(#p9720a1178d)" style="fill: #0000f5; fill-opacity: 0.1"/>
    <path d="M 350.24847 277.831784 
L 333.533552 234.259087 
L 327.257904 222.821844 
L 343.999427 266.499435 
z
" clip-path="url(#p9720a1178d)" style="fill: #0000f5; fill-opacity: 0.1"/>
    <path d="M 239.215568 22.987711 
L 223.273786 -18.816842 
L 216.518837 -31.350569 
L 232.480459 10.543464 
z
" clip-path="url(#p9720a1178d)" style="fill: #0000f5; fill-opacity: 0.1"/>
    <path d="M 320.928409 211.286465 
L 304.400169 168.12973 
L 297.991257 156.393858 
L 314.544371 199.651681 
z
" clip-path="url(#p9720a1178d)" style="fill: #0000f5; fill-opacity: 0.1"/>
    <path d="M 209.705855 -43.991972 
L 193.953399 -85.374518 
L 187.06356 -98.210586 
L 202.834091 -56.742446 
z
" clip-path="url(#p9720a1178d)" style="fill: #0000f5; fill-opacity: 0.1"/>
    <path d="M 291.527278 144.557149 
L 275.186808 101.818835 
L 268.643923 89.782733 
L 285.00752 132.618296 
z
" clip-path="url(#p9720a1178d)" style="fill: #0000f5; fill-opacity: 0.1"/>
    <path d="M 180.114448 -111.157082 
L 164.552423 -152.115132 
L 157.526976 -165.255161 
L 173.105296 -124.215435 
z
" clip-path="url(#p9720a1178d)" style="fill: #0000f5; fill-opacity: 0.1"/>
    <path d="M 262.044741 77.643071 
L 245.893142 35.325653 
L 239.215568 22.987711 
L 255.388534 65.398507 
z
" clip-path="url(#p9720a1178d)" style="fill: #0000f5; fill-opacity: 0.1"/>
    <path d="M 343.999427 266.499435 
L 327.257904 222.821844 
L 320.928409 211.286465 
L 337.696376 255.069145 
z
" clip-path="url(#p9720a1178d)" style="fill: #0000f5; fill-opacity: 0.1"/>
    <path d="M 232.480459 10.543464 
L 216.518837 -31.350569 
L 209.705855 -43.991972 
L 225.687069 -2.008467 
z
" clip-path="url(#p9720a1178d)" style="fill: #0000f5; fill-opacity: 0.1"/>
    <path d="M 314.544371 199.651681 
L 297.991257 156.393858 
L 291.527278 144.557149 
L 308.105081 187.916203 
z
" clip-path="url(#p9720a1178d)" style="fill: #0000f5; fill-opacity: 0.1"/>
    <path d="M 202.834091 -56.742446 
L 187.06356 -98.210586 
L 180.114448 -111.157082 
L 195.902781 -69.603408 
z
" clip-path="url(#p9720a1178d)" style="fill: #0000f5; fill-opacity: 0.1"/>
    <path d="M 285.00752 132.618296 
L 268.643923 89.782733 
L 262.044741 77.643071 
L 278.431257 120.575974 
z
" clip-path="url(#p9720a1178d)" style="fill: #0000f5; fill-opacity: 0.1"/>
    <path d="M 367.205486 322.035582 
L 350.24847 277.831784 
L 343.999427 266.499435 
L 360.984483 310.812389 
z
" clip-path="url(#p9720a1178d)" style="fill: #0000f5; fill-opacity: 0.1"/>
    <path d="M 173.105296 -124.215435 
L 157.526976 -165.255161 
L 150.441007 -178.508389 
L 166.035322 -137.387102 
z
" clip-path="url(#p9720a1178d)" style="fill: #0000f5; fill-opacity: 0.1"/>
    <path d="M 255.388534 65.398507 
L 239.215568 22.987711 
L 232.480459 10.543464 
L 248.674559 53.047674 
z
" clip-path="url(#p9720a1178d)" style="fill: #0000f5; fill-opacity: 0.1"/>
    <path d="M 337.696376 255.069145 
L 320.928409 211.286465 
L 314.544371 199.651681 
L 331.338613 243.53964 
z
" clip-path="url(#p9720a1178d)" style="fill: #0000f5; fill-opacity: 0.1"/>
    <path d="M 225.687069 -2.008467 
L 209.705855 -43.991972 
L 202.834091 -56.742446 
L 218.834639 -14.669486 
z
" clip-path="url(#p9720a1178d)" style="fill: #0000f5; fill-opacity: 0.1"/>
    <path d="M 308.105081 187.916203 
L 291.527278 144.557149 
L 285.00752 132.618296 
L 301.609819 176.078717 
z
" clip-path="url(#p9720a1178d)" style="fill: #0000f5; fill-opacity: 0.1"/>
    <path d="M 195.902781 -69.603408 
L 180.114448 -111.157082 
L 173.105296 -124.215435 
L 188.911146 -82.5763 
z
" clip-path="url(#p9720a1178d)" style="fill: #0000f5; fill-opacity: 0.1"/>
    <path d="M 278.431257 120.575974 
L 262.044741 77.643071 
L 255.388534 65.398507 
L 271.797751 108.42883 
z
" clip-path="url(#p9720a1178d)" style="fill: #0000f5; fill-opacity: 0.1"/>
    <path d="M 360.984483 310.812389 
L 343.999427 266.499435 
L 337.696376 255.069145 
L 354.709322 299.49149 
z
" clip-path="url(#p9720a1178d)" style="fill: #0000f5; fill-opacity: 0.1"/>
    <path d="M 166.035322 -137.387102 
L 150.441007 -178.508389 
L 143.293729 -191.876285 
L 158.903731 -150.673565 
z
" clip-path="url(#p9720a1178d)" style="fill: #0000f5; fill-opacity: 0.1"/>
    <path d="M 248.674559 53.047674 
L 232.480459 10.543464 
L 225.687069 -2.008467 
L 241.902061 40.589183 
z
" clip-path="url(#p9720a1178d)" style="fill: #0000f5; fill-opacity: 0.1"/>
    <path d="M 331.338613 243.53964 
L 314.544371 199.651681 
L 308.105081 187.916203 
L 324.925424 231.90962 
z
" clip-path="url(#p9720a1178d)" style="fill: #0000f5; fill-opacity: 0.1"/>
    <path d="M 218.834639 -14.669486 
L 202.834091 -56.742446 
L 195.902781 -69.603408 
L 211.922394 -27.441022 
z
" clip-path="url(#p9720a1178d)" style="fill: #0000f5; fill-opacity: 0.1"/>
    <path d="M 301.609819 176.078717 
L 285.00752 132.618296 
L 278.431257 120.575974 
L 295.057852 164.137887 
z
" clip-path="url(#p9720a1178d)" style="fill: #0000f5; fill-opacity: 0.1"/>
    <path d="M 384.409896 366.884293 
L 367.205486 322.035582 
L 360.984483 310.812389 
L 378.218425 355.774671 
z
" clip-path="url(#p9720a1178d)" style="fill: #0000f5; fill-opacity: 0.1"/>
    <path d="M 188.911146 -82.5763 
L 173.105296 -124.215435 
L 166.035322 -137.387102 
L 181.858397 -95.66259 
z
" clip-path="url(#p9720a1178d)" style="fill: #0000f5; fill-opacity: 0.1"/>
    <path d="M 271.797751 108.42883 
L 255.388534 65.398507 
L 248.674559 53.047674 
L 265.106253 96.175489 
z
" clip-path="url(#p9720a1178d)" style="fill: #0000f5; fill-opacity: 0.1"/>
    <path d="M 354.709322 299.49149 
L 337.696376 255.069145 
L 331.338613 243.53964 
L 348.379292 288.071603 
z
" clip-path="url(#p9720a1178d)" style="fill: #0000f5; fill-opacity: 0.1"/>
    <path d="M 158.903731 -150.673565 
L 143.293729 -191.876285 
L 136.084344 -205.360342 
L 151.709714 -164.07633 
z
" clip-path="url(#p9720a1178d)" style="fill: #0000f5; fill-opacity: 0.1"/>
    <path d="M 241.902061 40.589183 
L 225.687069 -2.008467 
L 218.834639 -14.669486 
L 235.07027 28.021621 
z
" clip-path="url(#p9720a1178d)" style="fill: #0000f5; fill-opacity: 0.1"/>
    <path d="M 324.925424 231.90962 
L 308.105081 187.916203 
L 301.609819 176.078717 
L 318.45608 220.177767 
z
" clip-path="url(#p9720a1178d)" style="fill: #0000f5; fill-opacity: 0.1"/>
    <path d="M 211.922394 -27.441022 
L 195.902781 -69.603408 
L 188.911146 -82.5763 
L 204.949548 -40.324528 
z
" clip-path="url(#p9720a1178d)" style="fill: #0000f5; fill-opacity: 0.1"/>
    <path d="M 295.057852 164.137887 
L 278.431257 120.575974 
L 271.797751 108.42883 
L 288.448435 152.092355 
z
" clip-path="url(#p9720a1178d)" style="fill: #0000f5; fill-opacity: 0.1"/>
    <path d="M 378.218425 355.774671 
L 360.984483 310.812389 
L 354.709322 299.49149 
L 371.972656 344.567619 
z
" clip-path="url(#p9720a1178d)" style="fill: #0000f5; fill-opacity: 0.1"/>
    <path d="M 181.858397 -95.66259 
L 166.035322 -137.387102 
L 158.903731 -150.673565 
L 174.743728 -108.863772 
z
" clip-path="url(#p9720a1178d)" style="fill: #0000f5; fill-opacity: 0.1"/>
    <path d="M 265.106253 96.175489 
L 248.674559 53.047674 
L 241.902061 40.589183 
L 258.355996 83.814554 
z
" clip-path="url(#p9720a1178d)" style="fill: #0000f5; fill-opacity: 0.1"/>
    <path d="M 348.379292 288.071603 
L 331.338613 243.53964 
L 324.925424 231.90962 
L 341.99367 276.551425 
z
" clip-path="url(#p9720a1178d)" style="fill: #0000f5; fill-opacity: 0.1"/>
    <path d="M 151.709714 -164.07633 
L 136.084344 -205.360342 
L 128.812038 -218.962083 
L 144.452447 -177.596931 
z
" clip-path="url(#p9720a1178d)" style="fill: #0000f5; fill-opacity: 0.1"/>
    <path d="M 235.07027 28.021621 
L 218.834639 -14.669486 
L 211.922394 -27.441022 
L 228.178406 15.343549 
z
" clip-path="url(#p9720a1178d)" style="fill: #0000f5; fill-opacity: 0.1"/>
    <path d="M 318.45608 220.177767 
L 301.609819 176.078717 
L 295.057852 164.137887 
L 311.929841 208.342736 
z
" clip-path="url(#p9720a1178d)" style="fill: #0000f5; fill-opacity: 0.1"/>
    <path d="M 204.949548 -40.324528 
L 188.911146 -82.5763 
L 181.858397 -95.66259 
L 197.915302 -53.321482 
z
" clip-path="url(#p9720a1178d)" style="fill: #0000f5; fill-opacity: 0.1"/>
    <path d="M 288.448435 152.092355 
L 271.797751 108.42883 
L 265.106253 96.175489 
L 281.780807 139.940736 
z
" clip-path="url(#p9720a1178d)" style="fill: #0000f5; fill-opacity: 0.1"/>
    <path d="M 371.972656 344.567619 
L 354.709322 299.49149 
L 348.379292 288.071603 
L 365.671871 333.261851 
z
" clip-path="url(#p9720a1178d)" style="fill: #0000f5; fill-opacity: 0.1"/>
    <path d="M 174.743728 -108.863772 
L 158.903731 -150.673565 
L 151.709714 -164.07633 
L 167.566319 -122.181365 
z
" clip-path="url(#p9720a1178d)" style="fill: #0000f5; fill-opacity: 0.1"/>
    <path d="M 258.355996 83.814554 
L 241.902061 40.589183 
L 235.07027 28.021621 
L 251.546206 71.344601 
z
" clip-path="url(#p9720a1178d)" style="fill: #0000f5; fill-opacity: 0.1"/>
    <path d="M 341.99367 276.551425 
L 324.925424 231.90962 
L 318.45608 220.177767 
L 335.551722 264.929627 
z
" clip-path="url(#p9720a1178d)" style="fill: #0000f5; fill-opacity: 0.1"/>
    <path d="M 144.452447 -177.596931 
L 128.812038 -218.962083 
L 121.475985 -232.683054 
L 137.131093 -191.23693 
z
" clip-path="url(#p9720a1178d)" style="fill: #0000f5; fill-opacity: 0.1"/>
    <path d="M 228.178406 15.343549 
L 211.922394 -27.441022 
L 204.949548 -40.324528 
L 221.225672 2.553503 
z
" clip-path="url(#p9720a1178d)" style="fill: #0000f5; fill-opacity: 0.1"/>
    <path d="M 311.929841 208.342736 
L 295.057852 164.137887 
L 288.448435 152.092355 
L 305.345953 196.403161 
z
" clip-path="url(#p9720a1178d)" style="fill: #0000f5; fill-opacity: 0.1"/>
    <path d="M 197.915302 -53.321482 
L 181.858397 -95.66259 
L 174.743728 -108.863772 
L 190.81884 -66.43339 
z
" clip-path="url(#p9720a1178d)" style="fill: #0000f5; fill-opacity: 0.1"/>
    <path d="M 281.780807 139.940736 
L 265.106253 96.175489 
L 258.355996 83.814554 
L 275.054198 127.681624 
z
" clip-path="url(#p9720a1178d)" style="fill: #0000f5; fill-opacity: 0.1"/>
    <path d="M 365.671871 333.261851 
L 348.379292 288.071603 
L 341.99367 276.551425 
L 359.315341 321.856057 
z
" clip-path="url(#p9720a1178d)" style="fill: #0000f5; fill-opacity: 0.1"/>
    <path d="M 167.566319 -122.181365 
L 151.709714 -164.07633 
L 144.452447 -177.596931 
L 160.325339 -135.616916 
z
" clip-path="url(#p9720a1178d)" style="fill: #0000f5; fill-opacity: 0.1"/>
    <path d="M 251.546206 71.344601 
L 235.07027 28.021621 
L 228.178406 15.343549 
L 244.67609 58.76418 
z
" clip-path="url(#p9720a1178d)" style="fill: #0000f5; fill-opacity: 0.1"/>
    <path d="M 335.551722 264.929627 
L 318.45608 220.177767 
L 311.929841 208.342736 
L 329.052697 253.204861 
z
" clip-path="url(#p9720a1178d)" style="fill: #0000f5; fill-opacity: 0.1"/>
    <path d="M 137.131093 -191.23693 
L 121.475985 -232.683054 
L 114.075343 -246.52483 
L 129.744799 -204.997915 
z
" clip-path="url(#p9720a1178d)" style="fill: #0000f5; fill-opacity: 0.1"/>
    <path d="M 221.225672 2.553503 
L 204.949548 -40.324528 
L 197.915302 -53.321482 
L 214.211259 -10.350008 
z
" clip-path="url(#p9720a1178d)" style="fill: #0000f5; fill-opacity: 0.1"/>
    <path d="M 305.345953 196.403161 
L 288.448435 152.092355 
L 281.780807 139.940736 
L 298.703648 184.357651 
z
" clip-path="url(#p9720a1178d)" style="fill: #0000f5; fill-opacity: 0.1"/>
    <path d="M 190.81884 -66.43339 
L 174.743728 -108.863772 
L 167.566319 -122.181365 
L 183.659333 -79.661785 
z
" clip-path="url(#p9720a1178d)" style="fill: #0000f5; fill-opacity: 0.1"/>
    <path d="M 275.054198 127.681624 
L 258.355996 83.814554 
L 251.546206 71.344601 
L 268.26782 115.313585 
z
" clip-path="url(#p9720a1178d)" style="fill: #0000f5; fill-opacity: 0.1"/>
    <path d="M 359.315341 321.856057 
L 341.99367 276.551425 
L 335.551722 264.929627 
L 352.902322 310.348902 
z
" clip-path="url(#p9720a1178d)" style="fill: #0000f5; fill-opacity: 0.1"/>
    <path d="M 160.325339 -135.616916 
L 144.452447 -177.596931 
L 137.131093 -191.23693 
L 153.019937 -149.171998 
z
" clip-path="url(#p9720a1178d)" style="fill: #0000f5; fill-opacity: 0.1"/>
    <path d="M 244.67609 58.76418 
L 228.178406 15.343549 
L 221.225672 2.553503 
L 237.744843 46.071819 
z
" clip-path="url(#p9720a1178d)" style="fill: #0000f5; fill-opacity: 0.1"/>
    <path d="M 329.052697 253.204861 
L 311.929841 208.342736 
L 305.345953 196.403161 
L 322.495835 241.375751 
z
" clip-path="url(#p9720a1178d)" style="fill: #0000f5; fill-opacity: 0.1"/>
    <path d="M 129.744799 -204.997915 
L 114.075343 -246.52483 
L 106.609254 -260.489013 
L 122.292697 -218.881502 
z
" clip-path="url(#p9720a1178d)" style="fill: #0000f5; fill-opacity: 0.1"/>
    <path d="M 214.211259 -10.350008 
L 197.915302 -53.321482 
L 190.81884 -66.43339 
L 207.134341 -23.368499 
z
" clip-path="url(#p9720a1178d)" style="fill: #0000f5; fill-opacity: 0.1"/>
    <path d="M 298.703648 184.357651 
L 281.780807 139.940736 
L 275.054198 127.681624 
L 292.002145 172.204788 
z
" clip-path="url(#p9720a1178d)" style="fill: #0000f5; fill-opacity: 0.1"/>
    <path d="M 183.659333 -79.661785 
L 167.566319 -122.181365 
L 160.325339 -135.616916 
L 176.435937 -93.008224 
z
" clip-path="url(#p9720a1178d)" style="fill: #0000f5; fill-opacity: 0.1"/>
    <path d="M 268.26782 115.313585 
L 251.546206 71.344601 
L 244.67609 58.76418 
L 261.420874 102.835162 
z
" clip-path="url(#p9720a1178d)" style="fill: #0000f5; fill-opacity: 0.1"/>
    <path d="M 352.902322 310.348902 
L 335.551722 264.929627 
L 329.052697 253.204861 
L 346.432058 298.739031 
z
" clip-path="url(#p9720a1178d)" style="fill: #0000f5; fill-opacity: 0.1"/>
    <path d="M 153.019937 -149.171998 
L 137.131093 -191.23693 
L 129.744799 -204.997915 
L 145.649252 -162.848215 
z
" clip-path="url(#p9720a1178d)" style="fill: #0000f5; fill-opacity: 0.1"/>
    <path d="M 237.744843 46.071819 
L 221.225672 2.553503 
L 214.211259 -10.350008 
L 230.751646 33.266015 
z
" clip-path="url(#p9720a1178d)" style="fill: #0000f5; fill-opacity: 0.1"/>
    <path d="M 322.495835 241.375751 
L 305.345953 196.403161 
L 298.703648 184.357651 
L 315.88036 229.440898 
z
" clip-path="url(#p9720a1178d)" style="fill: #0000f5; fill-opacity: 0.1"/>
    <path d="M 207.134341 -23.368499 
L 190.81884 -66.43339 
L 183.659333 -79.661785 
L 199.99408 -36.503515 
z
" clip-path="url(#p9720a1178d)" style="fill: #0000f5; fill-opacity: 0.1"/>
    <path d="M 292.002145 172.204788 
L 275.054198 127.681624 
L 268.26782 115.313585 
L 285.24065 159.943132 
z
" clip-path="url(#p9720a1178d)" style="fill: #0000f5; fill-opacity: 0.1"/>
    <path d="M 176.435937 -93.008224 
L 160.325339 -135.616916 
L 153.019937 -149.171998 
L 169.147793 -106.474295 
z
" clip-path="url(#p9720a1178d)" style="fill: #0000f5; fill-opacity: 0.1"/>
    <path d="M 261.420874 102.835162 
L 244.67609 58.76418 
L 237.744843 46.071819 
L 254.512546 90.24487 
z
" clip-path="url(#p9720a1178d)" style="fill: #0000f5; fill-opacity: 0.1"/>
    <path d="M 346.432058 298.739031 
L 329.052697 253.204861 
L 322.495835 241.375751 
L 339.903779 287.02506 
z
" clip-path="url(#p9720a1178d)" style="fill: #0000f5; fill-opacity: 0.1"/>
    <path d="M 145.649252 -162.848215 
L 129.744799 -204.997915 
L 122.292697 -218.881502 
L 138.212403 -176.647197 
z
" clip-path="url(#p9720a1178d)" style="fill: #0000f5; fill-opacity: 0.1"/>
    <path d="M 230.751646 33.266015 
L 214.211259 -10.350008 
L 207.134341 -23.368499 
L 223.695664 20.345241 
z
" clip-path="url(#p9720a1178d)" style="fill: #0000f5; fill-opacity: 0.1"/>
    <path d="M 315.88036 229.440898 
L 298.703648 184.357651 
L 292.002145 172.204788 
L 309.205483 217.398878 
z
" clip-path="url(#p9720a1178d)" style="fill: #0000f5; fill-opacity: 0.1"/>
    <path d="M 199.99408 -36.503515 
L 183.659333 -79.661785 
L 176.435937 -93.008224 
L 192.789621 -49.756628 
z
" clip-path="url(#p9720a1178d)" style="fill: #0000f5; fill-opacity: 0.1"/>
    <path d="M 285.24065 159.943132 
L 268.26782 115.313585 
L 261.420874 102.835162 
L 278.418353 147.571215 
z
" clip-path="url(#p9720a1178d)" style="fill: #0000f5; fill-opacity: 0.1"/>
    <path d="M 169.147793 -106.474295 
L 153.019937 -149.171998 
L 145.649252 -162.848215 
L 161.794028 -120.061615 
z
" clip-path="url(#p9720a1178d)" style="fill: #0000f5; fill-opacity: 0.1"/>
    <path d="M 254.512546 90.24487 
L 237.744843 46.071819 
L 230.751646 33.266015 
L 247.542005 77.541197 
z
" clip-path="url(#p9720a1178d)" style="fill: #0000f5; fill-opacity: 0.1"/>
    <path d="M 339.903779 287.02506 
L 322.495835 241.375751 
L 315.88036 229.440898 
L 333.316702 275.205585 
z
" clip-path="url(#p9720a1178d)" style="fill: #0000f5; fill-opacity: 0.1"/>
    <path d="M 223.695664 20.345241 
L 207.134341 -23.368499 
L 199.99408 -36.503515 
L 216.576049 7.307942 
z
" clip-path="url(#p9720a1178d)" style="fill: #0000f5; fill-opacity: 0.1"/>
    <path d="M 309.205483 217.398878 
L 292.002145 172.204788 
L 285.24065 159.943132 
L 302.470399 205.248241 
z
" clip-path="url(#p9720a1178d)" style="fill: #0000f5; fill-opacity: 0.1"/>
    <path d="M 192.789621 -49.756628 
L 176.435937 -93.008224 
L 169.147793 -106.474295 
L 185.520095 -63.129436 
z
" clip-path="url(#p9720a1178d)" style="fill: #0000f5; fill-opacity: 0.1"/>
    <path d="M 278.418353 147.571215 
L 261.420874 102.835162 
L 254.512546 90.24487 
L 271.534431 135.087544 
z
" clip-path="url(#p9720a1178d)" style="fill: #0000f5; fill-opacity: 0.1"/>
    <path d="M 161.794028 -120.061615 
L 145.649252 -162.848215 
L 138.212403 -176.647197 
L 154.37375 -133.771828 
z
" clip-path="url(#p9720a1178d)" style="fill: #0000f5; fill-opacity: 0.1"/>
    <path d="M 247.542005 77.541197 
L 230.751646 33.266015 
L 223.695664 20.345241 
L 240.508408 64.722606 
z
" clip-path="url(#p9720a1178d)" style="fill: #0000f5; fill-opacity: 0.1"/>
    <path d="M 333.316702 275.205585 
L 315.88036 229.440898 
L 309.205483 217.398878 
L 326.670028 263.279173 
z
" clip-path="url(#p9720a1178d)" style="fill: #0000f5; fill-opacity: 0.1"/>
    <path d="M 216.576049 7.307942 
L 199.99408 -36.503515 
L 192.789621 -49.756628 
L 209.391935 -5.847465 
z
" clip-path="url(#p9720a1178d)" style="fill: #0000f5; fill-opacity: 0.1"/>
    <path d="M 302.470399 205.248241 
L 285.24065 159.943132 
L 278.418353 147.571215 
L 295.67429 192.98751 
z
" clip-path="url(#p9720a1178d)" style="fill: #0000f5; fill-opacity: 0.1"/>
    <path d="M 185.520095 -63.129436 
L 169.147793 -106.474295 
L 161.794028 -120.061615 
L 178.184616 -76.623569 
z
" clip-path="url(#p9720a1178d)" style="fill: #0000f5; fill-opacity: 0.1"/>
    <path d="M 271.534431 135.087544 
L 254.512546 90.24487 
L 247.542005 77.541197 
L 264.588045 122.490596 
z
" clip-path="url(#p9720a1178d)" style="fill: #0000f5; fill-opacity: 0.1"/>
    <path d="M 240.508408 64.722606 
L 223.695664 20.345241 
L 216.576049 7.307942 
L 233.410895 51.78753 
z
" clip-path="url(#p9720a1178d)" style="fill: #0000f5; fill-opacity: 0.1"/>
    <path d="M 326.670028 263.279173 
L 309.205483 217.398878 
L 302.470399 205.248241 
L 319.962944 251.244366 
z
" clip-path="url(#p9720a1178d)" style="fill: #0000f5; fill-opacity: 0.1"/>
    <path d="M 209.391935 -5.847465 
L 192.789621 -49.756628 
L 185.520095 -63.129436 
L 202.142442 -19.122593 
z
" clip-path="url(#p9720a1178d)" style="fill: #0000f5; fill-opacity: 0.1"/>
    <path d="M 295.67429 192.98751 
L 278.418353 147.571215 
L 271.534431 135.087544 
L 288.816324 180.615184 
z
" clip-path="url(#p9720a1178d)" style="fill: #0000f5; fill-opacity: 0.1"/>
    <path d="M 178.184616 -76.623569 
L 161.794028 -120.061615 
L 154.37375 -133.771828 
L 170.782283 -90.240685 
z
" clip-path="url(#p9720a1178d)" style="fill: #0000f5; fill-opacity: 0.1"/>
    <path d="M 264.588045 122.490596 
L 247.542005 77.541197 
L 240.508408 64.722606 
L 257.57834 109.778824 
z
" clip-path="url(#p9720a1178d)" style="fill: #0000f5; fill-opacity: 0.1"/>
    <path d="M 233.410895 51.78753 
L 216.576049 7.307942 
L 209.391935 -5.847465 
L 226.248591 38.734374 
z
" clip-path="url(#p9720a1178d)" style="fill: #0000f5; fill-opacity: 0.1"/>
    <path d="M 319.962944 251.244366 
L 302.470399 205.248241 
L 295.67429 192.98751 
L 313.194625 239.099681 
z
" clip-path="url(#p9720a1178d)" style="fill: #0000f5; fill-opacity: 0.1"/>
    <path d="M 202.142442 -19.122593 
L 185.520095 -63.129436 
L 178.184616 -76.623569 
L 194.826673 -32.519084 
z
" clip-path="url(#p9720a1178d)" style="fill: #0000f5; fill-opacity: 0.1"/>
    <path d="M 288.816324 180.615184 
L 271.534431 135.087544 
L 264.588045 122.490596 
L 281.895651 168.12973 
z
" clip-path="url(#p9720a1178d)" style="fill: #0000f5; fill-opacity: 0.1"/>
    <path d="M 257.57834 109.778824 
L 240.508408 64.722606 
L 233.410895 51.78753 
L 250.504447 96.950649 
z
" clip-path="url(#p9720a1178d)" style="fill: #0000f5; fill-opacity: 0.1"/>
    <path d="M 226.248591 38.734374 
L 209.391935 -5.847465 
L 202.142442 -19.122593 
L 219.020606 25.561513 
z
" clip-path="url(#p9720a1178d)" style="fill: #0000f5; fill-opacity: 0.1"/>
    <path d="M 313.194625 239.099681 
L 295.67429 192.98751 
L 288.816324 180.615184 
L 306.364226 226.843604 
z
" clip-path="url(#p9720a1178d)" style="fill: #0000f5; fill-opacity: 0.1"/>
    <path d="M 194.826673 -32.519084 
L 178.184616 -76.623569 
L 170.782283 -90.240685 
L 187.443715 -46.038609 
z
" clip-path="url(#p9720a1178d)" style="fill: #0000f5; fill-opacity: 0.1"/>
    <path d="M 281.895651 168.12973 
L 264.588045 122.490596 
L 257.57834 109.778824 
L 274.911408 155.52959 
z
" clip-path="url(#p9720a1178d)" style="fill: #0000f5; fill-opacity: 0.1"/>
    <path d="M 250.504447 96.950649 
L 233.410895 51.78753 
L 226.248591 38.734374 
L 243.365481 84.004467 
z
" clip-path="url(#p9720a1178d)" style="fill: #0000f5; fill-opacity: 0.1"/>
    <path d="M 219.020606 25.561513 
L 202.142442 -19.122593 
L 194.826673 -32.519084 
L 211.72603 12.267294 
z
" clip-path="url(#p9720a1178d)" style="fill: #0000f5; fill-opacity: 0.1"/>
    <path d="M 306.364226 226.843604 
L 288.816324 180.615184 
L 281.895651 168.12973 
L 299.470891 214.474597 
z
" clip-path="url(#p9720a1178d)" style="fill: #0000f5; fill-opacity: 0.1"/>
    <path d="M 274.911408 155.52959 
L 257.57834 109.778824 
L 250.504447 96.950649 
L 267.862716 142.813178 
z
" clip-path="url(#p9720a1178d)" style="fill: #0000f5; fill-opacity: 0.1"/>
    <path d="M 243.365481 84.004467 
L 226.248591 38.734374 
L 219.020606 25.561513 
L 236.160539 70.93864 
z
" clip-path="url(#p9720a1178d)" style="fill: #0000f5; fill-opacity: 0.1"/>
    <path d="M 211.72603 12.267294 
L 194.826673 -32.519084 
L 187.443715 -46.038609 
L 204.363941 -1.149969 
z
" clip-path="url(#p9720a1178d)" style="fill: #0000f5; fill-opacity: 0.1"/>
    <path d="M 299.470891 214.474597 
L 281.895651 168.12973 
L 274.911408 155.52959 
L 292.513744 201.991091 
z
" clip-path="url(#p9720a1178d)" style="fill: #0000f5; fill-opacity: 0.1"/>
    <path d="M 267.862716 142.813178 
L 250.504447 96.950649 
L 243.365481 84.004467 
L 260.748677 129.978875 
z
" clip-path="url(#p9720a1178d)" style="fill: #0000f5; fill-opacity: 0.1"/>
    <path d="M 236.160539 70.93864 
L 219.020606 25.561513 
L 211.72603 12.267294 
L 228.888702 57.751503 
z
" clip-path="url(#p9720a1178d)" style="fill: #0000f5; fill-opacity: 0.1"/>
    <path d="M 292.513744 201.991091 
L 274.911408 155.52959 
L 267.862716 142.813178 
L 285.491897 189.391489 
z
" clip-path="url(#p9720a1178d)" style="fill: #0000f5; fill-opacity: 0.1"/>
    <path d="M 260.748677 129.978875 
L 243.365481 84.004467 
L 236.160539 70.93864 
L 253.568378 117.025035 
z
" clip-path="url(#p9720a1178d)" style="fill: #0000f5; fill-opacity: 0.1"/>
    <path d="M 228.888702 57.751503 
L 211.72603 12.267294 
L 204.363941 -1.149969 
L 221.549035 44.441359 
z
" clip-path="url(#p9720a1178d)" style="fill: #0000f5; fill-opacity: 0.1"/>
    <path d="M 285.491897 189.391489 
L 267.862716 142.813178 
L 260.748677 129.978875 
L 278.404442 176.674165 
z
" clip-path="url(#p9720a1178d)" style="fill: #0000f5; fill-opacity: 0.1"/>
    <path d="M 253.568378 117.025035 
L 236.160539 70.93864 
L 228.888702 57.751503 
L 246.320891 103.949981 
z
" clip-path="url(#p9720a1178d)" style="fill: #0000f5; fill-opacity: 0.1"/>
    <path d="M 278.404442 176.674165 
L 260.748677 129.978875 
L 253.568378 117.025035 
L 271.250455 163.83746 
z
" clip-path="url(#p9720a1178d)" style="fill: #0000f5; fill-opacity: 0.1"/>
    <path d="M 246.320891 103.949981 
L 228.888702 57.751503 
L 221.549035 44.441359 
L 239.005267 90.752002 
z
" clip-path="url(#p9720a1178d)" style="fill: #0000f5; fill-opacity: 0.1"/>
    <path d="M 271.250455 163.83746 
L 253.568378 117.025035 
L 246.320891 103.949981 
L 264.028995 150.879686 
z
" clip-path="url(#p9720a1178d)" style="fill: #0000f5; fill-opacity: 0.1"/>
    <path d="M 264.028995 150.879686 
L 246.320891 103.949981 
L 239.005267 90.752002 
L 256.739104 137.799121 
z
" clip-path="url(#p9720a1178d)" style="fill: #0000f5; fill-opacity: 0.1"/>
   </g>
   <g id="legend_1">
    <g id="patch_6">
     <path d="M 357.840076 67.305115 
L 396.2 67.305115 
Q 398.2 67.305115 398.2 65.305115 
L 398.2 7 
Q 398.2 5 396.2 5 
L 357.840076 5 
Q 355.840076 5 355.840076 7 
L 355.840076 65.305115 
Q 355.840076 67.305115 357.840076 67.305115 
z
" style="fill: #ffffff; opacity: 0.8; stroke: #cccccc; stroke-linejoin: miter"/>
    </g>
    <g id="line2d_25">
     <path d="M 359.840076 12.5 
L 369.840076 12.5 
L 379.840076 12.5 
" style="fill: none; stroke: #ff0000; stroke-width: 1.5; stroke-linecap: square"/>
    </g>
    <g id="text_21">
     <!-- $\vec{a}$ -->
     <g transform="translate(387.840076 16)scale(0.1 -0.1)">
      <defs>
       <path id="CMMI12-7e" d="M 3424 3835 
C 3347 3764 3110 3540 3110 3451 
C 3110 3387 3168 3329 3232 3329 
C 3290 3329 3315 3368 3360 3432 
C 3514 3624 3686 3745 3834 3828 
C 3898 3867 3942 3886 3942 3956 
C 3942 4014 3891 4046 3853 4078 
C 3674 4200 3629 4372 3610 4449 
C 3590 4500 3571 4577 3482 4577 
C 3443 4577 3366 4552 3366 4456 
C 3366 4398 3405 4244 3526 4072 
L 1376 4072 
C 1267 4072 1158 4072 1158 3950 
C 1158 3835 1274 3835 1376 3835 
L 3424 3835 
z
" transform="scale(0.015625)"/>
       <path id="CMMI12-61" d="M 1926 760 
C 1894 651 1894 639 1805 517 
C 1664 338 1382 64 1082 64 
C 819 64 672 300 672 677 
C 672 1028 870 1743 992 2012 
C 1210 2459 1510 2689 1760 2689 
C 2182 2689 2266 2165 2266 2114 
C 2266 2108 2246 2024 2240 2012 
L 1926 760 
z
M 2336 2395 
C 2266 2561 2093 2816 1760 2816 
C 1037 2816 256 1884 256 939 
C 256 307 627 -64 1062 -64 
C 1414 -64 1715 211 1894 422 
C 1958 45 2259 -64 2451 -64 
C 2643 -64 2797 51 2912 281 
C 3014 498 3104 888 3104 913 
C 3104 945 3078 971 3040 971 
C 2982 971 2976 939 2950 843 
C 2854 466 2733 64 2470 64 
C 2285 64 2272 230 2272 358 
C 2272 505 2291 575 2349 824 
C 2394 984 2426 1124 2477 1309 
C 2714 2267 2771 2497 2771 2535 
C 2771 2625 2701 2695 2605 2695 
C 2400 2695 2349 2472 2336 2395 
z
" transform="scale(0.015625)"/>
      </defs>
      <use xlink:href="#CMMI12-7e" transform="scale(0.996264)"/>
      <use xlink:href="#CMMI12-61" transform="translate(6.445738 0)scale(0.996264)"/>
     </g>
    </g>
    <g id="line2d_26">
     <path d="M 359.840076 27.24679 
L 369.840076 27.24679 
L 379.840076 27.24679 
" style="fill: none; stroke: #00ff00; stroke-width: 1.5; stroke-linecap: square"/>
    </g>
    <g id="text_22">
     <!-- $\vec{b}$ -->
     <g transform="translate(387.840076 30.74679)scale(0.1 -0.1)">
      <defs>
       <path id="CMMI12-62" d="M 1478 4257 
C 1485 4283 1498 4321 1498 4352 
C 1498 4416 1434 4416 1421 4416 
C 1414 4416 1184 4393 1069 4377 
C 960 4377 864 4358 749 4358 
C 595 4345 550 4339 550 4224 
C 550 4160 614 4160 678 4160 
C 1005 4160 1005 4103 1005 4040 
C 1005 3996 954 3811 928 3696 
L 774 3085 
C 710 2831 346 1387 320 1272 
C 288 1114 288 1005 288 922 
C 288 274 653 -64 1069 -64 
C 1811 -64 2579 888 2579 1814 
C 2579 2401 2246 2816 1766 2816 
C 1434 2816 1133 2542 1011 2414 
L 1478 4257 
z
M 1075 64 
C 870 64 646 217 646 715 
C 646 926 666 1047 781 1494 
C 800 1577 902 1986 928 2069 
C 941 2120 1318 2689 1754 2689 
C 2035 2689 2163 2408 2163 2076 
C 2163 1769 1984 1047 1824 715 
C 1664 370 1370 64 1075 64 
z
" transform="scale(0.015625)"/>
      </defs>
      <use xlink:href="#CMMI12-7e" transform="translate(0 26.29016)scale(0.996264)"/>
      <use xlink:href="#CMMI12-62" transform="translate(11.311737 0)scale(0.996264)"/>
     </g>
    </g>
    <g id="line2d_27">
     <path d="M 359.840076 41.183968 
L 369.840076 41.183968 
L 379.840076 41.183968 
" style="fill: none; stroke: #0016ff; stroke-width: 1.5; stroke-linecap: square"/>
    </g>
    <g id="text_23">
     <!-- $\vec{c}$ -->
     <g transform="translate(387.840076 44.683968)scale(0.1 -0.1)">
      <defs>
       <path id="CMMI12-63" d="M 2502 2431 
C 2381 2431 2323 2431 2234 2355 
C 2195 2323 2125 2227 2125 2125 
C 2125 1997 2221 1920 2342 1920 
C 2496 1920 2669 2044 2669 2292 
C 2669 2588 2374 2816 1933 2816 
C 1094 2816 256 1903 256 996 
C 256 441 602 -64 1254 -64 
C 2125 -64 2675 622 2675 706 
C 2675 744 2637 776 2611 776 
C 2592 776 2586 770 2528 713 
C 2118 162 1510 64 1267 64 
C 826 64 685 446 685 764 
C 685 988 794 1605 1024 2039 
C 1190 2338 1536 2682 1939 2682 
C 2022 2682 2374 2682 2502 2431 
z
" transform="scale(0.015625)"/>
      </defs>
      <use xlink:href="#CMMI12-7e" transform="scale(0.996264)"/>
      <use xlink:href="#CMMI12-63" transform="translate(5.638615 0)scale(0.996264)"/>
     </g>
    </g>
    <g id="line2d_28">
     <path d="M 359.840076 57.867937 
L 369.840076 57.867937 
L 379.840076 57.867937 
" style="fill: none; stroke: #f400ff; stroke-width: 1.5; stroke-linecap: square"/>
    </g>
    <g id="text_24">
     <!-- $\vec{f}$ -->
     <g transform="translate(387.840076 61.367937)scale(0.1 -0.1)">
      <defs>
       <path id="CMMI12-66" d="M 2854 2566 
C 2982 2566 3034 2566 3034 2688 
C 3034 2752 2982 2752 2867 2752 
L 2349 2752 
C 2470 3429 2560 3897 2611 4107 
C 2650 4265 2784 4416 2950 4416 
C 3085 4416 3219 4358 3283 4298 
C 3034 4272 2957 4082 2957 3969 
C 2957 3837 3053 3759 3174 3759 
C 3302 3759 3494 3870 3494 4119 
C 3494 4393 3226 4544 2944 4544 
C 2669 4544 2400 4334 2272 4078 
C 2157 3848 2093 3611 1946 2752 
L 1517 2752 
C 1395 2752 1331 2752 1331 2637 
C 1331 2566 1370 2566 1498 2566 
L 1907 2566 
C 1792 1976 1530 542 1382 -137 
C 1274 -689 1178 -1152 858 -1152 
C 838 -1152 653 -1152 538 -1031 
C 864 -1005 864 -726 864 -720 
C 864 -593 768 -517 646 -517 
C 518 -517 326 -625 326 -867 
C 326 -1140 608 -1280 858 -1280 
C 1510 -1280 1779 -118 1850 199 
C 1965 688 2278 2376 2310 2566 
L 2854 2566 
z
" transform="scale(0.015625)"/>
      </defs>
      <use xlink:href="#CMMI12-7e" transform="translate(13.568792 26.29016)scale(0.996264)"/>
      <use xlink:href="#CMMI12-66" transform="scale(0.996264)"/>
     </g>
    </g>
   </g>
  </g>
 </g>
 <defs>
  <clipPath id="p9720a1178d">
   <rect x="57.6" y="0" width="345.6" height="345.6"/>
  </clipPath>
 </defs>
</svg>
