<?xml version="1.0" encoding="utf-8" standalone="no"?>
<!DOCTYPE svg PUBLIC "-//W3C//DTD SVG 1.1//EN"
  "http://www.w3.org/Graphics/SVG/1.1/DTD/svg11.dtd">
<svg xmlns:xlink="http://www.w3.org/1999/xlink" width="460.8pt" height="345.6pt" viewBox="0 0 460.8 345.6" xmlns="http://www.w3.org/2000/svg" version="1.1">
 <metadata>
  <rdf:RDF xmlns:dc="http://purl.org/dc/elements/1.1/" xmlns:cc="http://creativecommons.org/ns#" xmlns:rdf="http://www.w3.org/1999/02/22-rdf-syntax-ns#">
   <cc:Work>
    <dc:type rdf:resource="http://purl.org/dc/dcmitype/StillImage"/>
    <dc:date>2022-07-12T15:50:59.706141</dc:date>
    <dc:format>image/svg+xml</dc:format>
    <dc:creator>
     <cc:Agent>
      <dc:title>Matplotlib v3.5.1, https://matplotlib.org/</dc:title>
     </cc:Agent>
    </dc:creator>
   </cc:Work>
  </rdf:RDF>
 </metadata>
 <defs>
  <style type="text/css">*{stroke-linejoin: round; stroke-linecap: butt}</style>
 </defs>
 <g id="figure_1">
  <g id="patch_1">
   <path d="M 0 345.6 
L 460.8 345.6 
L 460.8 0 
L 0 0 
z
" style="fill: #ffffff"/>
  </g>
  <g id="patch_2">
   <path d="M 57.6 345.6 
L 403.2 345.6 
L 403.2 0 
L 57.6 0 
z
" style="fill: #ffffff"/>
  </g>
  <g id="pane3d_1">
   <g id="patch_3">
    <path d="M 232.538834 245.053043 
L 77.606706 251.650116 
L 77.606706 84.609344 
L 232.538834 91.206417 
" style="fill: #f2f2f2; opacity: 0.5; stroke: #f2f2f2; stroke-linejoin: miter"/>
   </g>
  </g>
  <g id="pane3d_2">
   <g id="patch_4">
    <path d="M 392.071844 251.405071 
L 232.538834 245.053043 
L 232.538834 91.206417 
L 392.071844 84.854389 
" style="fill: #e6e6e6; opacity: 0.5; stroke: #e6e6e6; stroke-linejoin: miter"/>
   </g>
  </g>
  <g id="pane3d_3">
   <g id="patch_5">
    <path d="M 392.071844 251.405071 
L 232.538834 245.053043 
L 77.606706 251.650116 
L 238.066993 259.191794 
" style="fill: #ececec; opacity: 0.5; stroke: #ececec; stroke-linejoin: miter"/>
   </g>
  </g>
  <g id="axis3d_1">
   <g id="line2d_1">
    <path d="M 77.606706 251.650116 
L 238.066993 259.191794 
" style="fill: none; stroke: #000000; stroke-width: 0.8; stroke-linecap: square"/>
   </g>
   <g id="text_1">
    <!-- x -->
    <g transform="translate(127.087255 284.84622)scale(0.16 -0.16)">
     <defs>
      <path id="CMSS17-78" d="M 1587 1414 
L 2656 2739 
L 2099 2739 
L 1363 1777 
L 602 2739 
L 32 2739 
L 1139 1414 
L 0 0 
L 563 0 
L 1363 1121 
L 2195 0 
L 2758 0 
L 1587 1414 
z
" transform="scale(0.015625)"/>
     </defs>
     <use xlink:href="#CMSS17-78" transform="scale(0.996264)"/>
    </g>
   </g>
   <g id="Line3DCollection_1">
    <path d="M 234.574312 259.027637 
L 388.623406 251.267766 
L 388.623406 84.991693 
" style="fill: none; stroke: #b0b0b0; stroke-width: 0.8"/>
    <path d="M 201.674377 257.481331 
L 356.087977 249.972323 
L 356.087977 86.287136 
" style="fill: none; stroke: #b0b0b0; stroke-width: 0.8"/>
    <path d="M 169.875071 255.986755 
L 324.550916 248.716631 
L 324.550916 87.542828 
" style="fill: none; stroke: #b0b0b0; stroke-width: 0.8"/>
    <path d="M 139.122072 254.541355 
L 293.966962 247.498889 
L 293.966962 88.760571 
" style="fill: none; stroke: #b0b0b0; stroke-width: 0.8"/>
    <path d="M 109.364575 253.142745 
L 264.293553 246.317401 
L 264.293553 89.942058 
" style="fill: none; stroke: #b0b0b0; stroke-width: 0.8"/>
    <path d="M 80.555012 251.788687 
L 235.490622 245.170572 
L 235.490622 91.088887 
" style="fill: none; stroke: #b0b0b0; stroke-width: 0.8"/>
   </g>
   <g id="xtick_1">
    <g id="line2d_2">
     <path d="M 235.920727 258.959814 
L 231.87544 259.163586 
" style="fill: none; stroke: #000000; stroke-width: 0.8; stroke-linecap: square"/>
    </g>
    <g id="text_2">
     <!-- $\mathdefault{0}$ -->
     <g transform="translate(221.258439 278.175839)scale(0.1 -0.1)">
      <defs>
       <path id="CMR17-30" d="M 2688 2025 
C 2688 2416 2682 3080 2413 3591 
C 2176 4039 1798 4198 1466 4198 
C 1158 4198 768 4058 525 3597 
C 269 3118 243 2524 243 2025 
C 243 1661 250 1106 448 619 
C 723 -39 1216 -128 1466 -128 
C 1760 -128 2208 -7 2470 600 
C 2662 1042 2688 1559 2688 2025 
z
M 1466 -26 
C 1056 -26 813 325 723 812 
C 653 1188 653 1738 653 2096 
C 653 2588 653 2997 736 3387 
C 858 3929 1216 4096 1466 4096 
C 1728 4096 2067 3923 2189 3400 
C 2272 3036 2278 2607 2278 2096 
C 2278 1680 2278 1169 2202 792 
C 2067 95 1690 -26 1466 -26 
z
" transform="scale(0.015625)"/>
      </defs>
      <use xlink:href="#CMR17-30" transform="scale(0.996264)"/>
     </g>
    </g>
   </g>
   <g id="xtick_2">
    <g id="line2d_3">
     <path d="M 203.022036 257.415795 
L 198.973117 257.612691 
" style="fill: none; stroke: #000000; stroke-width: 0.8; stroke-linecap: square"/>
    </g>
    <g id="text_3">
     <!-- $\mathdefault{1}$ -->
     <g transform="translate(188.349754 276.411144)scale(0.1 -0.1)">
      <defs>
       <path id="CMR17-31" d="M 1702 4058 
C 1702 4192 1696 4192 1606 4192 
C 1357 3916 979 3827 621 3827 
C 602 3827 570 3827 563 3808 
C 557 3795 557 3782 557 3648 
C 755 3648 1088 3686 1344 3839 
L 1344 461 
C 1344 236 1331 160 781 160 
L 589 160 
L 589 0 
C 896 0 1216 0 1523 0 
C 1830 0 2150 0 2458 0 
L 2458 160 
L 2266 160 
C 1715 160 1702 230 1702 458 
L 1702 4058 
z
" transform="scale(0.015625)"/>
      </defs>
      <use xlink:href="#CMR17-31" transform="scale(0.996264)"/>
     </g>
    </g>
   </g>
   <g id="xtick_3">
    <g id="line2d_4">
     <path d="M 171.223137 255.923392 
L 167.173093 256.113754 
" style="fill: none; stroke: #000000; stroke-width: 0.8; stroke-linecap: square"/>
    </g>
    <g id="text_4">
     <!-- $\mathdefault{2}$ -->
     <g transform="translate(156.548372 274.705827)scale(0.1 -0.1)">
      <defs>
       <path id="CMR17-32" d="M 2669 989 
L 2554 989 
C 2490 536 2438 459 2413 420 
C 2381 369 1920 369 1830 369 
L 602 369 
C 832 619 1280 1072 1824 1597 
C 2214 1967 2669 2402 2669 3035 
C 2669 3790 2067 4224 1395 4224 
C 691 4224 262 3604 262 3030 
C 262 2780 448 2748 525 2748 
C 589 2748 781 2787 781 3010 
C 781 3207 614 3264 525 3264 
C 486 3264 448 3258 422 3245 
C 544 3790 915 4058 1306 4058 
C 1862 4058 2227 3617 2227 3035 
C 2227 2479 1901 2000 1536 1584 
L 262 146 
L 262 0 
L 2515 0 
L 2669 989 
z
" transform="scale(0.015625)"/>
      </defs>
      <use xlink:href="#CMR17-32" transform="scale(0.996264)"/>
     </g>
    </g>
   </g>
   <g id="xtick_4">
    <g id="line2d_5">
     <path d="M 140.46979 254.48006 
L 136.420888 254.664207 
" style="fill: none; stroke: #000000; stroke-width: 0.8; stroke-linecap: square"/>
    </g>
    <g id="text_5">
     <!-- $\mathdefault{3}$ -->
     <g transform="translate(125.799331 273.05694)scale(0.1 -0.1)">
      <defs>
       <path id="CMR17-33" d="M 1414 2157 
C 1984 2157 2234 1662 2234 1090 
C 2234 320 1824 25 1453 25 
C 1114 25 563 194 390 693 
C 422 680 454 680 486 680 
C 640 680 755 782 755 948 
C 755 1133 614 1216 486 1216 
C 378 1216 211 1165 211 926 
C 211 335 787 -128 1466 -128 
C 2176 -128 2720 430 2720 1085 
C 2720 1707 2208 2157 1600 2227 
C 2086 2328 2554 2756 2554 3329 
C 2554 3820 2048 4179 1472 4179 
C 890 4179 378 3829 378 3329 
C 378 3110 544 3072 627 3072 
C 762 3072 877 3155 877 3321 
C 877 3486 762 3569 627 3569 
C 602 3569 570 3569 544 3557 
C 730 3959 1235 4032 1459 4032 
C 1683 4032 2106 3925 2106 3320 
C 2106 3143 2080 2828 1862 2550 
C 1670 2304 1453 2304 1242 2284 
C 1210 2284 1062 2269 1037 2269 
C 992 2263 966 2257 966 2208 
C 966 2163 973 2157 1101 2157 
L 1414 2157 
z
" transform="scale(0.015625)"/>
      </defs>
      <use xlink:href="#CMR17-33" transform="scale(0.996264)"/>
     </g>
    </g>
   </g>
   <g id="xtick_5">
    <g id="line2d_6">
     <path d="M 110.711262 253.083417 
L 106.665551 253.261649 
" style="fill: none; stroke: #000000; stroke-width: 0.8; stroke-linecap: square"/>
    </g>
    <g id="text_6">
     <!-- $\mathdefault{4}$ -->
     <g transform="translate(96.051247 271.461729)scale(0.1 -0.1)">
      <defs>
       <path id="CMR17-34" d="M 2150 4122 
C 2150 4256 2144 4256 2029 4256 
L 128 1254 
L 128 1088 
L 1779 1088 
L 1779 457 
C 1779 224 1766 160 1318 160 
L 1197 160 
L 1197 0 
C 1402 0 1747 0 1965 0 
C 2182 0 2528 0 2733 0 
L 2733 160 
L 2611 160 
C 2163 160 2150 224 2150 457 
L 2150 1088 
L 2803 1088 
L 2803 1254 
L 2150 1254 
L 2150 4122 
z
M 1798 3703 
L 1798 1254 
L 256 1254 
L 1798 3703 
z
" transform="scale(0.015625)"/>
      </defs>
      <use xlink:href="#CMR17-34" transform="scale(0.996264)"/>
     </g>
    </g>
   </g>
   <g id="xtick_6">
    <g id="line2d_7">
     <path d="M 81.900049 251.731233 
L 77.859384 251.903831 
" style="fill: none; stroke: #000000; stroke-width: 0.8; stroke-linecap: square"/>
    </g>
    <g id="text_7">
     <!-- $\mathdefault{5}$ -->
     <g transform="translate(67.256026 269.917614)scale(0.1 -0.1)">
      <defs>
       <path id="CMR17-35" d="M 730 3692 
C 794 3666 1056 3584 1325 3584 
C 1920 3584 2246 3911 2432 4100 
C 2432 4157 2432 4192 2394 4192 
C 2387 4192 2374 4192 2323 4163 
C 2099 4058 1837 3973 1517 3973 
C 1325 3973 1037 3999 723 4139 
C 653 4171 640 4171 634 4171 
C 602 4171 595 4164 595 4037 
L 595 2203 
C 595 2089 595 2057 659 2057 
C 691 2057 704 2070 736 2114 
C 941 2401 1222 2522 1542 2522 
C 1766 2522 2246 2382 2246 1289 
C 2246 1085 2246 715 2054 421 
C 1894 159 1645 25 1370 25 
C 947 25 518 320 403 814 
C 429 807 480 795 506 795 
C 589 795 749 840 749 1038 
C 749 1210 627 1280 506 1280 
C 358 1280 262 1190 262 1011 
C 262 454 704 -128 1382 -128 
C 2042 -128 2669 440 2669 1264 
C 2669 2030 2170 2624 1549 2624 
C 1222 2624 947 2503 730 2274 
L 730 3692 
z
" transform="scale(0.015625)"/>
      </defs>
      <use xlink:href="#CMR17-35" transform="scale(0.996264)"/>
     </g>
    </g>
   </g>
  </g>
  <g id="axis3d_2">
   <g id="line2d_8">
    <path d="M 392.071844 251.405071 
L 238.066993 259.191794 
" style="fill: none; stroke: #000000; stroke-width: 0.8; stroke-linecap: square"/>
   </g>
   <g id="text_8">
    <!-- y -->
    <g transform="translate(339.409017 284.622793)scale(0.16 -0.16)">
     <defs>
      <path id="CMSS17-79" d="M 2675 2752 
L 2176 2752 
C 1632 1294 1446 702 1434 383 
L 1427 383 
C 1408 696 1126 1460 902 2007 
L 602 2752 
L 83 2752 
L 1216 13 
C 1146 -178 1043 -465 1011 -529 
C 870 -885 774 -885 672 -885 
C 646 -885 442 -885 211 -809 
L 250 -1229 
C 410 -1261 570 -1280 685 -1280 
C 845 -1280 1165 -1280 1459 -497 
L 2675 2752 
z
" transform="scale(0.015625)"/>
     </defs>
     <use xlink:href="#CMSS17-79" transform="scale(0.996264)"/>
    </g>
   </g>
   <g id="Line3DCollection_2">
    <path d="M 215.833216 90.495085 
L 215.833216 245.764375 
L 375.571208 252.239368 
" style="fill: none; stroke: #b0b0b0; stroke-width: 0.8"/>
    <path d="M 187.493073 89.28835 
L 187.493073 246.97111 
L 347.521052 253.657628 
" style="fill: none; stroke: #b0b0b0; stroke-width: 0.8"/>
    <path d="M 158.257995 88.043508 
L 158.257995 248.215951 
L 318.508706 255.124537 
" style="fill: none; stroke: #b0b0b0; stroke-width: 0.8"/>
    <path d="M 128.08491 86.758726 
L 128.08491 249.500733 
L 288.483799 256.642642 
" style="fill: none; stroke: #b0b0b0; stroke-width: 0.8"/>
    <path d="M 96.927938 85.43205 
L 96.927938 250.82741 
L 257.392379 258.214672 
" style="fill: none; stroke: #b0b0b0; stroke-width: 0.8"/>
   </g>
   <g id="xtick_7">
    <g id="line2d_9">
     <path d="M 374.187646 252.183286 
L 378.343879 252.351759 
" style="fill: none; stroke: #000000; stroke-width: 0.8; stroke-linecap: square"/>
    </g>
    <g id="text_9">
     <!-- $\mathdefault{−4}$ -->
     <g transform="translate(380.322055 270.413367)scale(0.1 -0.1)">
      <defs>
       <path id="CMSY10-0" d="M 4218 1472 
C 4326 1472 4442 1472 4442 1600 
C 4442 1728 4326 1728 4218 1728 
L 755 1728 
C 646 1728 531 1728 531 1600 
C 531 1472 646 1472 755 1472 
L 4218 1472 
z
" transform="scale(0.015625)"/>
      </defs>
      <use xlink:href="#CMSY10-0" transform="scale(0.996264)"/>
      <use xlink:href="#CMR17-34" transform="translate(77.487468 0)scale(0.996264)"/>
     </g>
    </g>
   </g>
   <g id="xtick_8">
    <g id="line2d_10">
     <path d="M 346.133194 253.599638 
L 350.302425 253.773843 
" style="fill: none; stroke: #000000; stroke-width: 0.8; stroke-linecap: square"/>
    </g>
    <g id="text_10">
     <!-- $\mathdefault{−2}$ -->
     <g transform="translate(352.307542 272.030178)scale(0.1 -0.1)">
      <use xlink:href="#CMSY10-0" transform="scale(0.996264)"/>
      <use xlink:href="#CMR17-32" transform="translate(77.487468 0)scale(0.996264)"/>
     </g>
    </g>
   </g>
   <g id="xtick_9">
    <g id="line2d_11">
     <path d="M 317.11707 255.064542 
L 321.29775 255.244775 
" style="fill: none; stroke: #000000; stroke-width: 0.8; stroke-linecap: square"/>
    </g>
    <g id="text_11">
     <!-- $\mathdefault{0}$ -->
     <g transform="translate(327.201107 273.702756)scale(0.1 -0.1)">
      <use xlink:href="#CMR17-30" transform="scale(0.996264)"/>
     </g>
    </g>
   </g>
   <g id="xtick_10">
    <g id="line2d_12">
     <path d="M 287.088962 256.580536 
L 291.279357 256.767117 
" style="fill: none; stroke: #000000; stroke-width: 0.8; stroke-linecap: square"/>
    </g>
    <g id="text_12">
     <!-- $\mathdefault{2}$ -->
     <g transform="translate(297.203136 275.434038)scale(0.1 -0.1)">
      <use xlink:href="#CMR17-32" transform="scale(0.996264)"/>
     </g>
    </g>
   </g>
   <g id="xtick_11">
    <g id="line2d_13">
     <path d="M 255.994989 258.150341 
L 260.193158 258.343611 
" style="fill: none; stroke: #000000; stroke-width: 0.8; stroke-linecap: square"/>
    </g>
    <g id="text_13">
     <!-- $\mathdefault{4}$ -->
     <g transform="translate(266.133494 277.22717)scale(0.1 -0.1)">
      <use xlink:href="#CMR17-34" transform="scale(0.996264)"/>
     </g>
    </g>
   </g>
  </g>
  <g id="axis3d_3">
   <g id="line2d_14">
    <path d="M 392.071844 251.405071 
L 392.071844 84.854389 
" style="fill: none; stroke: #000000; stroke-width: 0.8; stroke-linecap: square"/>
   </g>
   <g id="text_14">
    <!-- z -->
    <g transform="translate(432.216262 172.114786)scale(0.16 -0.16)">
     <defs>
      <path id="CMSS17-7a" d="M 2400 2502 
L 2400 2750 
L 250 2750 
L 250 2368 
L 1069 2368 
C 1146 2368 1222 2368 1299 2368 
L 1747 2368 
L 166 261 
L 166 0 
L 2419 0 
L 2419 395 
L 1549 395 
C 1472 395 1395 395 1318 395 
L 826 395 
L 2400 2502 
z
" transform="scale(0.015625)"/>
     </defs>
     <use xlink:href="#CMSS17-7a" transform="scale(0.996264)"/>
    </g>
   </g>
   <g id="Line3DCollection_3">
    <path d="M 392.071844 248.074057 
L 232.538834 241.97611 
L 77.606706 248.3093 
" style="fill: none; stroke: #b0b0b0; stroke-width: 0.8"/>
    <path d="M 392.071844 216.096326 
L 232.538834 212.437558 
L 77.606706 216.237472 
" style="fill: none; stroke: #b0b0b0; stroke-width: 0.8"/>
    <path d="M 392.071844 184.118595 
L 232.538834 182.899006 
L 77.606706 184.165644 
" style="fill: none; stroke: #b0b0b0; stroke-width: 0.8"/>
    <path d="M 392.071844 152.140864 
L 232.538834 153.360454 
L 77.606706 152.093816 
" style="fill: none; stroke: #b0b0b0; stroke-width: 0.8"/>
    <path d="M 392.071844 120.163133 
L 232.538834 123.821901 
L 77.606706 120.021987 
" style="fill: none; stroke: #b0b0b0; stroke-width: 0.8"/>
    <path d="M 392.071844 88.185402 
L 232.538834 94.283349 
L 77.606706 87.950159 
" style="fill: none; stroke: #b0b0b0; stroke-width: 0.8"/>
   </g>
   <g id="xtick_12">
    <g id="line2d_15">
     <path d="M 390.691103 248.02128 
L 394.838805 248.179821 
" style="fill: none; stroke: #000000; stroke-width: 0.8; stroke-linecap: square"/>
    </g>
    <g id="text_15">
     <!-- $\mathdefault{0}$ -->
     <g transform="translate(409.609304 254.977573)scale(0.1 -0.1)">
      <use xlink:href="#CMR17-30" transform="scale(0.996264)"/>
     </g>
    </g>
   </g>
   <g id="xtick_13">
    <g id="line2d_16">
     <path d="M 390.691103 216.06466 
L 394.838805 216.159784 
" style="fill: none; stroke: #000000; stroke-width: 0.8; stroke-linecap: square"/>
    </g>
    <g id="text_16">
     <!-- $\mathdefault{1}$ -->
     <g transform="translate(409.609304 223.005835)scale(0.1 -0.1)">
      <use xlink:href="#CMR17-31" transform="scale(0.996264)"/>
     </g>
    </g>
   </g>
   <g id="xtick_14">
    <g id="line2d_17">
     <path d="M 390.691103 184.10804 
L 394.838805 184.139748 
" style="fill: none; stroke: #000000; stroke-width: 0.8; stroke-linecap: square"/>
    </g>
    <g id="text_17">
     <!-- $\mathdefault{2}$ -->
     <g transform="translate(409.609304 191.034097)scale(0.1 -0.1)">
      <use xlink:href="#CMR17-32" transform="scale(0.996264)"/>
     </g>
    </g>
   </g>
   <g id="xtick_15">
    <g id="line2d_18">
     <path d="M 390.691103 152.15142 
L 394.838805 152.119712 
" style="fill: none; stroke: #000000; stroke-width: 0.8; stroke-linecap: square"/>
    </g>
    <g id="text_18">
     <!-- $\mathdefault{3}$ -->
     <g transform="translate(409.609304 159.062359)scale(0.1 -0.1)">
      <use xlink:href="#CMR17-33" transform="scale(0.996264)"/>
     </g>
    </g>
   </g>
   <g id="xtick_16">
    <g id="line2d_19">
     <path d="M 390.691103 120.1948 
L 394.838805 120.099675 
" style="fill: none; stroke: #000000; stroke-width: 0.8; stroke-linecap: square"/>
    </g>
    <g id="text_19">
     <!-- $\mathdefault{4}$ -->
     <g transform="translate(409.609304 127.090621)scale(0.1 -0.1)">
      <use xlink:href="#CMR17-34" transform="scale(0.996264)"/>
     </g>
    </g>
   </g>
   <g id="xtick_17">
    <g id="line2d_20">
     <path d="M 390.691103 88.238179 
L 394.838805 88.079639 
" style="fill: none; stroke: #000000; stroke-width: 0.8; stroke-linecap: square"/>
    </g>
    <g id="text_20">
     <!-- $\mathdefault{5}$ -->
     <g transform="translate(409.609304 95.118883)scale(0.1 -0.1)">
      <use xlink:href="#CMR17-35" transform="scale(0.996264)"/>
     </g>
    </g>
   </g>
  </g>
  <g id="axes_1">
   <g id="line2d_21">
    <path d="M 315.03321 251.500905 
L 236.731645 83.988807 
" clip-path="url(#p492649abd9)" style="fill: none; stroke: #ff0000; stroke-width: 1.5; stroke-linecap: square"/>
   </g>
   <g id="line2d_22">
    <path d="M 315.03321 251.500905 
L 279.710103 120.497684 
" clip-path="url(#p492649abd9)" style="fill: none; stroke: #00ff00; stroke-width: 1.5; stroke-linecap: square"/>
   </g>
   <g id="line2d_23">
    <path d="M 315.03321 251.500905 
L 219.640841 -1 
" clip-path="url(#p492649abd9)" style="fill: none; stroke: #0016ff; stroke-width: 1.5; stroke-linecap: square"/>
   </g>
   <g id="line2d_24">
    <path d="M 315.03321 251.500905 
L 204.726751 153.085583 
" clip-path="url(#p492649abd9)" style="fill: none; stroke: #f400ff; stroke-width: 1.5; stroke-linecap: square"/>
   </g>
   <g id="Poly3DCollection_1">
    <path d="M 261.439162 25.286051 
L 246.92926 -14.700443 
L 240.036477 -26.640361 
L 254.551019 13.411719 
z
" clip-path="url(#p492649abd9)" style="fill: #0000f5; fill-opacity: 0.1"/>
    <path d="M 254.551019 13.411719 
L 240.036477 -26.640361 
L 233.090469 -38.672478 
L 247.609287 1.445006 
z
" clip-path="url(#p492649abd9)" style="fill: #0000f5; fill-opacity: 0.1"/>
    <path d="M 276.167031 65.873218 
L 261.439162 25.286051 
L 254.551019 13.411719 
L 269.284448 54.067807 
z
" clip-path="url(#p492649abd9)" style="fill: #0000f5; fill-opacity: 0.1"/>
    <path d="M 247.609287 1.445006 
L 233.090469 -38.672478 
L 226.090617 -50.797865 
L 240.613338 -10.61517 
z
" clip-path="url(#p492649abd9)" style="fill: #0000f5; fill-opacity: 0.1"/>
    <path d="M 269.284448 54.067807 
L 254.551019 13.411719 
L 247.609287 1.445006 
L 262.347914 42.169856 
z
" clip-path="url(#p492649abd9)" style="fill: #0000f5; fill-opacity: 0.1"/>
    <path d="M 240.613338 -10.61517 
L 226.090617 -50.797865 
L 219.036292 -63.017611 
L 233.562534 -22.769908 
z
" clip-path="url(#p492649abd9)" style="fill: #0000f5; fill-opacity: 0.1"/>
    <path d="M 291.117815 107.074697 
L 276.167031 65.873218 
L 269.284448 54.067807 
L 284.241754 95.34167 
z
" clip-path="url(#p492649abd9)" style="fill: #0000f5; fill-opacity: 0.1"/>
    <path d="M 262.347914 42.169856 
L 247.609287 1.445006 
L 240.613338 -10.61517 
L 255.356792 30.178272 
z
" clip-path="url(#p492649abd9)" style="fill: #0000f5; fill-opacity: 0.1"/>
    <path d="M 233.562534 -22.769908 
L 219.036292 -63.017611 
L 211.926856 -75.332823 
L 226.456228 -35.020326 
z
" clip-path="url(#p492649abd9)" style="fill: #0000f5; fill-opacity: 0.1"/>
    <path d="M 284.241754 95.34167 
L 269.284448 54.067807 
L 262.347914 42.169856 
L 277.311382 83.515968 
z
" clip-path="url(#p492649abd9)" style="fill: #0000f5; fill-opacity: 0.1"/>
    <path d="M 255.356792 30.178272 
L 240.613338 -10.61517 
L 233.562534 -22.769908 
L 248.310436 18.091946 
z
" clip-path="url(#p492649abd9)" style="fill: #0000f5; fill-opacity: 0.1"/>
    <path d="M 226.456228 -35.020326 
L 211.926856 -75.332823 
L 204.761661 -87.744623 
L 219.293762 -47.367558 
z
" clip-path="url(#p492649abd9)" style="fill: #0000f5; fill-opacity: 0.1"/>
    <path d="M 306.296613 148.90454 
L 291.117815 107.074697 
L 284.241754 95.34167 
L 299.428077 137.247496 
z
" clip-path="url(#p492649abd9)" style="fill: #0000f5; fill-opacity: 0.1"/>
    <path d="M 277.311382 83.515968 
L 262.347914 42.169856 
L 255.356792 30.178272 
L 270.326052 71.59649 
z
" clip-path="url(#p492649abd9)" style="fill: #0000f5; fill-opacity: 0.1"/>
    <path d="M 248.310436 18.091946 
L 233.562534 -22.769908 
L 226.456228 -35.020326 
L 241.208187 5.90975 
z
" clip-path="url(#p492649abd9)" style="fill: #0000f5; fill-opacity: 0.1"/>
    <path d="M 219.293762 -47.367558 
L 204.761661 -87.744623 
L 197.540048 -100.254153 
L 212.074467 -59.812755 
z
" clip-path="url(#p492649abd9)" style="fill: #0000f5; fill-opacity: 0.1"/>
    <path d="M 299.428077 137.247496 
L 284.241754 95.34167 
L 277.311382 83.515968 
L 292.504873 125.49767 
z
" clip-path="url(#p492649abd9)" style="fill: #0000f5; fill-opacity: 0.1"/>
    <path d="M 270.326052 71.59649 
L 255.356792 30.178272 
L 248.310436 18.091946 
L 263.28511 59.582116 
z
" clip-path="url(#p492649abd9)" style="fill: #0000f5; fill-opacity: 0.1"/>
    <path d="M 241.208187 5.90975 
L 226.456228 -35.020326 
L 219.293762 -47.367558 
L 234.049378 -6.36946 
z
" clip-path="url(#p492649abd9)" style="fill: #0000f5; fill-opacity: 0.1"/>
    <path d="M 212.074467 -59.812755 
L 197.540048 -100.254153 
L 190.261348 -112.86257 
L 204.797665 -72.357088 
z
" clip-path="url(#p492649abd9)" style="fill: #0000f5; fill-opacity: 0.1"/>
    <path d="M 321.708682 191.377232 
L 306.296613 148.90454 
L 299.428077 137.247496 
L 314.84872 179.799911 
z
" clip-path="url(#p492649abd9)" style="fill: #0000f5; fill-opacity: 0.1"/>
    <path d="M 292.504873 125.49767 
L 277.311382 83.515968 
L 270.326052 71.59649 
L 285.526345 113.65395 
z
" clip-path="url(#p492649abd9)" style="fill: #0000f5; fill-opacity: 0.1"/>
    <path d="M 263.28511 59.582116 
L 248.310436 18.091946 
L 241.208187 5.90975 
L 256.187887 47.471707 
z
" clip-path="url(#p492649abd9)" style="fill: #0000f5; fill-opacity: 0.1"/>
    <path d="M 234.049378 -6.36946 
L 219.293762 -47.367558 
L 212.074467 -59.812755 
L 226.833331 -18.746849 
z
" clip-path="url(#p492649abd9)" style="fill: #0000f5; fill-opacity: 0.1"/>
    <path d="M 204.797665 -72.357088 
L 190.261348 -112.86257 
L 182.924881 -125.571052 
L 197.462665 -85.001746 
z
" clip-path="url(#p492649abd9)" style="fill: #0000f5; fill-opacity: 0.1"/>
    <path d="M 314.84872 179.799911 
L 299.428077 137.247496 
L 292.504873 125.49767 
L 307.933735 168.12973 
z
" clip-path="url(#p492649abd9)" style="fill: #0000f5; fill-opacity: 0.1"/>
    <path d="M 285.526345 113.65395 
L 270.326052 71.59649 
L 263.28511 59.582116 
L 278.491827 101.715207 
z
" clip-path="url(#p492649abd9)" style="fill: #0000f5; fill-opacity: 0.1"/>
    <path d="M 256.187887 47.471707 
L 241.208187 5.90975 
L 234.049378 -6.36946 
L 249.033706 35.264108 
z
" clip-path="url(#p492649abd9)" style="fill: #0000f5; fill-opacity: 0.1"/>
    <path d="M 226.833331 -18.746849 
L 212.074467 -59.812755 
L 204.797665 -72.357088 
L 219.559357 -31.223597 
z
" clip-path="url(#p492649abd9)" style="fill: #0000f5; fill-opacity: 0.1"/>
    <path d="M 197.462665 -85.001746 
L 182.924881 -125.571052 
L 175.529958 -138.380796 
L 190.068767 -97.747939 
z
" clip-path="url(#p492649abd9)" style="fill: #0000f5; fill-opacity: 0.1"/>
    <path d="M 337.359441 234.507707 
L 321.708682 191.377232 
L 314.84872 179.799911 
L 330.509146 223.013998 
z
" clip-path="url(#p492649abd9)" style="fill: #0000f5; fill-opacity: 0.1"/>
    <path d="M 307.933735 168.12973 
L 292.504873 125.49767 
L 285.526345 113.65395 
L 300.963061 156.365565 
z
" clip-path="url(#p492649abd9)" style="fill: #0000f5; fill-opacity: 0.1"/>
    <path d="M 278.491827 101.715207 
L 263.28511 59.582116 
L 256.187887 47.471707 
L 271.400643 89.680291 
z
" clip-path="url(#p492649abd9)" style="fill: #0000f5; fill-opacity: 0.1"/>
    <path d="M 249.033706 35.264108 
L 234.049378 -6.36946 
L 226.833331 -18.746849 
L 241.821879 22.958143 
z
" clip-path="url(#p492649abd9)" style="fill: #0000f5; fill-opacity: 0.1"/>
    <path d="M 219.559357 -31.223597 
L 204.797665 -72.357088 
L 197.462665 -85.001746 
L 212.226755 -43.800908 
z
" clip-path="url(#p492649abd9)" style="fill: #0000f5; fill-opacity: 0.1"/>
    <path d="M 190.068767 -97.747939 
L 175.529958 -138.380796 
L 168.075876 -151.293016 
L 182.615258 -110.596893 
z
" clip-path="url(#p492649abd9)" style="fill: #0000f5; fill-opacity: 0.1"/>
    <path d="M 330.509146 223.013998 
L 314.84872 179.799911 
L 307.933735 168.12973 
L 323.603477 211.427378 
z
" clip-path="url(#p492649abd9)" style="fill: #0000f5; fill-opacity: 0.1"/>
    <path d="M 300.963061 156.365565 
L 285.526345 113.65395 
L 278.491827 101.715207 
L 293.936024 144.506278 
z
" clip-path="url(#p492649abd9)" style="fill: #0000f5; fill-opacity: 0.1"/>
    <path d="M 271.400643 89.680291 
L 256.187887 47.471707 
L 249.033706 35.264108 
L 264.252105 77.548036 
z
" clip-path="url(#p492649abd9)" style="fill: #0000f5; fill-opacity: 0.1"/>
    <path d="M 241.821879 22.958143 
L 226.833331 -18.746849 
L 219.559357 -31.223597 
L 234.551706 10.55262 
z
" clip-path="url(#p492649abd9)" style="fill: #0000f5; fill-opacity: 0.1"/>
    <path d="M 212.226755 -43.800908 
L 197.462665 -85.001746 
L 190.068767 -97.747939 
L 204.834814 -56.48 
z
" clip-path="url(#p492649abd9)" style="fill: #0000f5; fill-opacity: 0.1"/>
    <path d="M 182.615258 -110.596893 
L 168.075876 -151.293016 
L 160.561922 -164.308947 
L 175.101415 -123.549857 
z
" clip-path="url(#p492649abd9)" style="fill: #0000f5; fill-opacity: 0.1"/>
    <path d="M 353.254478 278.311366 
L 337.359441 234.507707 
L 330.509146 223.013998 
L 346.414994 266.905309 
z
" clip-path="url(#p492649abd9)" style="fill: #0000f5; fill-opacity: 0.1"/>
    <path d="M 323.603477 211.427378 
L 307.933735 168.12973 
L 300.963061 156.365565 
L 316.641759 199.746717 
z
" clip-path="url(#p492649abd9)" style="fill: #0000f5; fill-opacity: 0.1"/>
    <path d="M 293.936024 144.506278 
L 278.491827 101.715207 
L 271.400643 89.680291 
L 286.851938 132.55071 
z
" clip-path="url(#p492649abd9)" style="fill: #0000f5; fill-opacity: 0.1"/>
    <path d="M 264.252105 77.548036 
L 249.033706 35.264108 
L 241.821879 22.958143 
L 257.045515 65.317257 
z
" clip-path="url(#p492649abd9)" style="fill: #0000f5; fill-opacity: 0.1"/>
    <path d="M 234.551706 10.55262 
L 219.559357 -31.223597 
L 212.226755 -43.800908 
L 227.222477 -1.953675 
z
" clip-path="url(#p492649abd9)" style="fill: #0000f5; fill-opacity: 0.1"/>
    <path d="M 204.834814 -56.48 
L 190.068767 -97.747939 
L 182.615258 -110.596893 
L 197.382811 -69.262116 
z
" clip-path="url(#p492649abd9)" style="fill: #0000f5; fill-opacity: 0.1"/>
    <path d="M 175.101415 -123.549857 
L 160.561922 -164.308947 
L 152.987374 -177.429843 
L 167.526501 -136.608098 
z
" clip-path="url(#p492649abd9)" style="fill: #0000f5; fill-opacity: 0.1"/>
    <path d="M 346.414994 266.905309 
L 330.509146 223.013998 
L 323.603477 211.427378 
L 339.519787 255.406325 
z
" clip-path="url(#p492649abd9)" style="fill: #0000f5; fill-opacity: 0.1"/>
    <path d="M 316.641759 199.746717 
L 300.963061 156.365565 
L 293.936024 144.506278 
L 309.623307 187.970866 
z
" clip-path="url(#p492649abd9)" style="fill: #0000f5; fill-opacity: 0.1"/>
    <path d="M 286.851938 132.55071 
L 271.400643 89.680291 
L 264.252105 77.548036 
L 279.710103 120.497684 
z
" clip-path="url(#p492649abd9)" style="fill: #0000f5; fill-opacity: 0.1"/>
    <path d="M 257.045515 65.317257 
L 241.821879 22.958143 
L 234.551706 10.55262 
L 249.780162 52.986748 
z
" clip-path="url(#p492649abd9)" style="fill: #0000f5; fill-opacity: 0.1"/>
    <path d="M 227.222477 -1.953675 
L 212.226755 -43.800908 
L 204.834814 -56.48 
L 219.833469 -14.561975 
z
" clip-path="url(#p492649abd9)" style="fill: #0000f5; fill-opacity: 0.1"/>
    <path d="M 197.382811 -69.262116 
L 182.615258 -110.596893 
L 175.101415 -123.549857 
L 189.870009 -82.148515 
z
" clip-path="url(#p492649abd9)" style="fill: #0000f5; fill-opacity: 0.1"/>
    <path d="M 167.526501 -136.608098 
L 152.987374 -177.429843 
L 145.351494 -190.656979 
L 159.88977 -149.772905 
z
" clip-path="url(#p492649abd9)" style="fill: #0000f5; fill-opacity: 0.1"/>
    <path d="M 369.399557 322.804093 
L 353.254478 278.311366 
L 346.414994 266.905309 
L 362.572076 311.489891 
z
" clip-path="url(#p492649abd9)" style="fill: #0000f5; fill-opacity: 0.1"/>
    <path d="M 339.519787 255.406325 
L 323.603477 211.427378 
L 316.641759 199.746717 
L 332.568174 243.813274 
z
" clip-path="url(#p492649abd9)" style="fill: #0000f5; fill-opacity: 0.1"/>
    <path d="M 309.623307 187.970866 
L 293.936024 144.506278 
L 286.851938 132.55071 
L 302.547425 176.098655 
z
" clip-path="url(#p492649abd9)" style="fill: #0000f5; fill-opacity: 0.1"/>
    <path d="M 279.710103 120.497684 
L 264.252105 77.548036 
L 257.045515 65.317257 
L 272.509813 108.346003 
z
" clip-path="url(#p492649abd9)" style="fill: #0000f5; fill-opacity: 0.1"/>
    <path d="M 249.780162 52.986748 
L 234.551706 10.55262 
L 227.222477 -1.953675 
L 242.455325 40.555284 
z
" clip-path="url(#p492649abd9)" style="fill: #0000f5; fill-opacity: 0.1"/>
    <path d="M 219.833469 -14.561975 
L 204.834814 -56.48 
L 197.382811 -69.262116 
L 212.383947 -27.273532 
z
" clip-path="url(#p492649abd9)" style="fill: #0000f5; fill-opacity: 0.1"/>
    <path d="M 189.870009 -82.148515 
L 175.101415 -123.549857 
L 167.526501 -136.608098 
L 182.295663 -95.140479 
z
" clip-path="url(#p492649abd9)" style="fill: #0000f5; fill-opacity: 0.1"/>
    <path d="M 159.88977 -149.772905 
L 145.351494 -190.656979 
L 137.653535 -203.991651 
L 152.190461 -163.045589 
z
" clip-path="url(#p492649abd9)" style="fill: #0000f5; fill-opacity: 0.1"/>
    <path d="M 362.572076 311.489891 
L 346.414994 266.905309 
L 339.519787 255.406325 
L 355.68853 300.082779 
z
" clip-path="url(#p492649abd9)" style="fill: #0000f5; fill-opacity: 0.1"/>
    <path d="M 332.568174 243.813274 
L 316.641759 199.746717 
L 309.623307 187.970866 
L 325.559461 232.124997 
z
" clip-path="url(#p492649abd9)" style="fill: #0000f5; fill-opacity: 0.1"/>
    <path d="M 302.547425 176.098655 
L 286.851938 132.55071 
L 279.710103 120.497684 
L 295.413404 164.128898 
z
" clip-path="url(#p492649abd9)" style="fill: #0000f5; fill-opacity: 0.1"/>
    <path d="M 272.509813 108.346003 
L 257.045515 65.317257 
L 249.780162 52.986748 
L 265.250345 96.09445 
z
" clip-path="url(#p492649abd9)" style="fill: #0000f5; fill-opacity: 0.1"/>
    <path d="M 242.455325 40.555284 
L 227.222477 -1.953675 
L 219.833469 -14.561975 
L 235.07027 28.021621 
z
" clip-path="url(#p492649abd9)" style="fill: #0000f5; fill-opacity: 0.1"/>
    <path d="M 212.383947 -27.273532 
L 197.382811 -69.262116 
L 189.870009 -82.148515 
L 204.873164 -40.089622 
z
" clip-path="url(#p492649abd9)" style="fill: #0000f5; fill-opacity: 0.1"/>
    <path d="M 182.295663 -95.140479 
L 167.526501 -136.608098 
L 159.88977 -149.772905 
L 174.659013 -108.239311 
z
" clip-path="url(#p492649abd9)" style="fill: #0000f5; fill-opacity: 0.1"/>
    <path d="M 152.190461 -163.045589 
L 137.653535 -203.991651 
L 129.892736 -217.435176 
L 144.427803 -176.42748 
z
" clip-path="url(#p492649abd9)" style="fill: #0000f5; fill-opacity: 0.1"/>
    <path d="M 385.800625 368.002277 
L 369.399557 322.804093 
L 362.572076 311.489891 
L 378.986394 356.784299 
z
" clip-path="url(#p492649abd9)" style="fill: #0000f5; fill-opacity: 0.1"/>
    <path d="M 355.68853 300.082779 
L 339.519787 255.406325 
L 332.568174 243.813274 
L 348.748224 288.581608 
z
" clip-path="url(#p492649abd9)" style="fill: #0000f5; fill-opacity: 0.1"/>
    <path d="M 325.559461 232.124997 
L 309.623307 187.970866 
L 302.547425 176.098655 
L 318.492939 220.340315 
z
" clip-path="url(#p492649abd9)" style="fill: #0000f5; fill-opacity: 0.1"/>
    <path d="M 295.413404 164.128898 
L 279.710103 120.497684 
L 272.509813 108.346003 
L 288.220526 152.060387 
z
" clip-path="url(#p492649abd9)" style="fill: #0000f5; fill-opacity: 0.1"/>
    <path d="M 265.250345 96.09445 
L 249.780162 52.986748 
L 242.455325 40.555284 
L 257.930968 83.741791 
z
" clip-path="url(#p492649abd9)" style="fill: #0000f5; fill-opacity: 0.1"/>
    <path d="M 235.07027 28.021621 
L 219.833469 -14.561975 
L 212.383947 -27.273532 
L 227.624252 15.384494 
z
" clip-path="url(#p492649abd9)" style="fill: #0000f5; fill-opacity: 0.1"/>
    <path d="M 204.873164 -40.089622 
L 189.870009 -82.148515 
L 182.295663 -95.140479 
L 197.300364 -53.011537 
z
" clip-path="url(#p492649abd9)" style="fill: #0000f5; fill-opacity: 0.1"/>
    <path d="M 174.659013 -108.239311 
L 159.88977 -149.772905 
L 152.190461 -163.045589 
L 166.959287 -121.446334 
z
" clip-path="url(#p492649abd9)" style="fill: #0000f5; fill-opacity: 0.1"/>
    <path d="M 144.427803 -176.42748 
L 129.892736 -217.435176 
L 122.068326 -230.988892 
L 136.601009 -189.919931 
z
" clip-path="url(#p492649abd9)" style="fill: #0000f5; fill-opacity: 0.1"/>
    <path d="M 378.986394 356.784299 
L 362.572076 311.489891 
L 355.68853 300.082779 
L 372.115758 345.473465 
z
" clip-path="url(#p492649abd9)" style="fill: #0000f5; fill-opacity: 0.1"/>
    <path d="M 348.748224 288.581608 
L 332.568174 243.813274 
L 325.559461 232.124997 
L 341.750454 276.98521 
z
" clip-path="url(#p492649abd9)" style="fill: #0000f5; fill-opacity: 0.1"/>
    <path d="M 318.492939 220.340315 
L 302.547425 176.098655 
L 295.413404 164.128898 
L 311.367892 208.458031 
z
" clip-path="url(#p492649abd9)" style="fill: #0000f5; fill-opacity: 0.1"/>
    <path d="M 288.220526 152.060387 
L 272.509813 108.346003 
L 265.250345 96.09445 
L 280.968058 139.891894 
z
" clip-path="url(#p492649abd9)" style="fill: #0000f5; fill-opacity: 0.1"/>
    <path d="M 257.930968 83.741791 
L 242.455325 40.555284 
L 235.07027 28.021621 
L 250.550936 71.286767 
z
" clip-path="url(#p492649abd9)" style="fill: #0000f5; fill-opacity: 0.1"/>
    <path d="M 227.624252 15.384494 
L 212.383947 -27.273532 
L 204.873164 -40.089622 
L 220.116513 2.642614 
z
" clip-path="url(#p492649abd9)" style="fill: #0000f5; fill-opacity: 0.1"/>
    <path d="M 197.300364 -53.011537 
L 182.295663 -95.140479 
L 174.659013 -108.239311 
L 189.664773 -66.040595 
z
" clip-path="url(#p492649abd9)" style="fill: #0000f5; fill-opacity: 0.1"/>
    <path d="M 166.959287 -121.446334 
L 152.190461 -163.045589 
L 144.427803 -176.42748 
L 159.195701 -134.762895 
z
" clip-path="url(#p492649abd9)" style="fill: #0000f5; fill-opacity: 0.1"/>
    <path d="M 136.601009 -189.919931 
L 122.068326 -230.988892 
L 114.179518 -244.65416 
L 128.709283 -203.52432 
z
" clip-path="url(#p492649abd9)" style="fill: #0000f5; fill-opacity: 0.1"/>
    <path d="M 372.115758 345.473465 
L 355.68853 300.082779 
L 348.748224 288.581608 
L 365.188016 334.068618 
z
" clip-path="url(#p492649abd9)" style="fill: #0000f5; fill-opacity: 0.1"/>
    <path d="M 341.750454 276.98521 
L 325.559461 232.124997 
L 318.492939 220.340315 
L 334.694504 265.292398 
z
" clip-path="url(#p492649abd9)" style="fill: #0000f5; fill-opacity: 0.1"/>
    <path d="M 311.367892 208.458031 
L 295.413404 164.128898 
L 288.220526 152.060387 
L 304.18359 196.476928 
z
" clip-path="url(#p492649abd9)" style="fill: #0000f5; fill-opacity: 0.1"/>
    <path d="M 280.968058 139.891894 
L 265.250345 96.09445 
L 257.930968 83.741791 
L 273.655258 127.622173 
z
" clip-path="url(#p492649abd9)" style="fill: #0000f5; fill-opacity: 0.1"/>
    <path d="M 250.550936 71.286767 
L 235.07027 28.021621 
L 227.624252 15.384494 
L 243.109493 58.728101 
z
" clip-path="url(#p492649abd9)" style="fill: #0000f5; fill-opacity: 0.1"/>
    <path d="M 220.116513 2.642614 
L 204.873164 -40.089622 
L 197.300364 -53.011537 
L 212.546282 -10.205324 
z
" clip-path="url(#p492649abd9)" style="fill: #0000f5; fill-opacity: 0.1"/>
    <path d="M 189.664773 -66.040595 
L 174.659013 -108.239311 
L 166.959287 -121.446334 
L 181.965607 -79.178134 
z
" clip-path="url(#p492649abd9)" style="fill: #0000f5; fill-opacity: 0.1"/>
    <path d="M 159.195701 -134.762895 
L 144.427803 -176.42748 
L 136.601009 -189.919931 
L 151.367456 -148.190362 
z
" clip-path="url(#p492649abd9)" style="fill: #0000f5; fill-opacity: 0.1"/>
    <path d="M 128.709283 -203.52432 
L 114.179518 -244.65416 
L 106.225514 -258.432361 
L 120.751812 -217.242044 
z
" clip-path="url(#p492649abd9)" style="fill: #0000f5; fill-opacity: 0.1"/>
    <path d="M 365.188016 334.068618 
L 348.748224 288.581608 
L 341.750454 276.98521 
L 358.20245 322.568581 
z
" clip-path="url(#p492649abd9)" style="fill: #0000f5; fill-opacity: 0.1"/>
    <path d="M 334.694504 265.292398 
L 318.492939 220.340315 
L 311.367892 208.458031 
L 327.579644 253.501965 
z
" clip-path="url(#p492649abd9)" style="fill: #0000f5; fill-opacity: 0.1"/>
    <path d="M 304.18359 196.476928 
L 288.220526 152.060387 
L 280.968058 139.891894 
L 296.939289 184.395767 
z
" clip-path="url(#p492649abd9)" style="fill: #0000f5; fill-opacity: 0.1"/>
    <path d="M 273.655258 127.622173 
L 257.930968 83.741791 
L 250.550936 71.286767 
L 266.281369 115.249955 
z
" clip-path="url(#p492649abd9)" style="fill: #0000f5; fill-opacity: 0.1"/>
    <path d="M 243.109493 58.728101 
L 227.624252 15.384494 
L 220.116513 2.642614 
L 235.605869 46.064494 
z
" clip-path="url(#p492649abd9)" style="fill: #0000f5; fill-opacity: 0.1"/>
    <path d="M 212.546282 -10.205324 
L 197.300364 -53.011537 
L 189.664773 -66.040595 
L 204.912775 -23.160651 
z
" clip-path="url(#p492649abd9)" style="fill: #0000f5; fill-opacity: 0.1"/>
    <path d="M 181.965607 -79.178134 
L 166.959287 -121.446334 
L 159.195701 -134.762895 
L 174.20207 -92.425513 
z
" clip-path="url(#p492649abd9)" style="fill: #0000f5; fill-opacity: 0.1"/>
    <path d="M 151.367456 -148.190362 
L 136.601009 -189.919931 
L 128.709283 -203.52432 
L 143.473741 -161.730127 
z
" clip-path="url(#p492649abd9)" style="fill: #0000f5; fill-opacity: 0.1"/>
    <path d="M 358.20245 322.568581 
L 341.750454 276.98521 
L 334.694504 265.292398 
L 351.158336 310.972156 
z
" clip-path="url(#p492649abd9)" style="fill: #0000f5; fill-opacity: 0.1"/>
    <path d="M 327.579644 253.501965 
L 311.367892 208.458031 
L 304.18359 196.476928 
L 320.405135 241.612681 
z
" clip-path="url(#p492649abd9)" style="fill: #0000f5; fill-opacity: 0.1"/>
    <path d="M 296.939289 184.395767 
L 280.968058 139.891894 
L 273.655258 127.622173 
L 289.634235 172.213291 
z
" clip-path="url(#p492649abd9)" style="fill: #0000f5; fill-opacity: 0.1"/>
    <path d="M 266.281369 115.249955 
L 250.550936 71.286767 
L 243.109493 58.728101 
L 258.845623 102.77395 
z
" clip-path="url(#p492649abd9)" style="fill: #0000f5; fill-opacity: 0.1"/>
    <path d="M 235.605869 46.064494 
L 220.116513 2.642614 
L 212.546282 -10.205324 
L 228.039281 33.294625 
z
" clip-path="url(#p492649abd9)" style="fill: #0000f5; fill-opacity: 0.1"/>
    <path d="M 204.912775 -23.160651 
L 189.664773 -66.040595 
L 181.965607 -79.178134 
L 197.215196 -36.224719 
z
" clip-path="url(#p492649abd9)" style="fill: #0000f5; fill-opacity: 0.1"/>
    <path d="M 174.20207 -92.425513 
L 159.195701 -134.762895 
L 151.367456 -148.190362 
L 166.373351 -105.784117 
z
" clip-path="url(#p492649abd9)" style="fill: #0000f5; fill-opacity: 0.1"/>
    <path d="M 143.473741 -161.730127 
L 128.709283 -203.52432 
L 120.751812 -217.242044 
L 135.513732 -175.383603 
z
" clip-path="url(#p492649abd9)" style="fill: #0000f5; fill-opacity: 0.1"/>
    <path d="M 351.158336 310.972156 
L 334.694504 265.292398 
L 327.579644 253.501965 
L 344.054933 299.278128 
z
" clip-path="url(#p492649abd9)" style="fill: #0000f5; fill-opacity: 0.1"/>
    <path d="M 320.405135 241.612681 
L 304.18359 196.476928 
L 296.939289 184.395767 
L 313.170222 229.6233 
z
" clip-path="url(#p492649abd9)" style="fill: #0000f5; fill-opacity: 0.1"/>
    <path d="M 289.634235 172.213291 
L 273.655258 127.622173 
L 266.281369 115.249955 
L 282.267662 159.928218 
z
" clip-path="url(#p492649abd9)" style="fill: #0000f5; fill-opacity: 0.1"/>
    <path d="M 258.845623 102.77395 
L 243.109493 58.728101 
L 235.605869 46.064494 
L 251.347237 90.192847 
z
" clip-path="url(#p492649abd9)" style="fill: #0000f5; fill-opacity: 0.1"/>
    <path d="M 228.039281 33.294625 
L 212.546282 -10.205324 
L 204.912775 -23.160651 
L 220.408934 20.417151 
z
" clip-path="url(#p492649abd9)" style="fill: #0000f5; fill-opacity: 0.1"/>
    <path d="M 197.215196 -36.224719 
L 181.965607 -79.178134 
L 174.20207 -92.425513 
L 189.452735 -49.398903 
z
" clip-path="url(#p492649abd9)" style="fill: #0000f5; fill-opacity: 0.1"/>
    <path d="M 166.373351 -105.784117 
L 151.367456 -148.190362 
L 143.473741 -161.730127 
L 158.478626 -119.255352 
z
" clip-path="url(#p492649abd9)" style="fill: #0000f5; fill-opacity: 0.1"/>
    <path d="M 344.054933 299.278128 
L 327.579644 253.501965 
L 320.405135 241.612681 
L 336.89149 287.485257 
z
" clip-path="url(#p492649abd9)" style="fill: #0000f5; fill-opacity: 0.1"/>
    <path d="M 313.170222 229.6233 
L 296.939289 184.395767 
L 289.634235 172.213291 
L 305.874139 217.532551 
z
" clip-path="url(#p492649abd9)" style="fill: #0000f5; fill-opacity: 0.1"/>
    <path d="M 282.267662 159.928218 
L 266.281369 115.249955 
L 258.845623 102.77395 
L 274.838787 147.539248 
z
" clip-path="url(#p492649abd9)" style="fill: #0000f5; fill-opacity: 0.1"/>
    <path d="M 251.347237 90.192847 
L 235.605869 46.064494 
L 228.039281 33.294625 
L 243.785418 77.505311 
z
" clip-path="url(#p492649abd9)" style="fill: #0000f5; fill-opacity: 0.1"/>
    <path d="M 220.408934 20.417151 
L 204.912775 -23.160651 
L 197.215196 -36.224719 
L 212.714017 7.430707 
z
" clip-path="url(#p492649abd9)" style="fill: #0000f5; fill-opacity: 0.1"/>
    <path d="M 189.452735 -49.398903 
L 174.20207 -92.425513 
L 166.373351 -105.784117 
L 181.624568 -62.684601 
z
" clip-path="url(#p492649abd9)" style="fill: #0000f5; fill-opacity: 0.1"/>
    <path d="M 158.478626 -119.255352 
L 143.473741 -161.730127 
L 135.513732 -175.383603 
L 150.517055 -132.840648 
z
" clip-path="url(#p492649abd9)" style="fill: #0000f5; fill-opacity: 0.1"/>
    <path d="M 336.89149 287.485257 
L 320.405135 241.612681 
L 313.170222 229.6233 
L 329.667242 275.592287 
z
" clip-path="url(#p492649abd9)" style="fill: #0000f5; fill-opacity: 0.1"/>
    <path d="M 305.874139 217.532551 
L 289.634235 172.213291 
L 282.267662 159.928218 
L 298.516108 205.339144 
z
" clip-path="url(#p492649abd9)" style="fill: #0000f5; fill-opacity: 0.1"/>
    <path d="M 274.838787 147.539248 
L 258.845623 102.77395 
L 251.347237 90.192847 
L 267.346818 135.045056 
z
" clip-path="url(#p492649abd9)" style="fill: #0000f5; fill-opacity: 0.1"/>
    <path d="M 243.785418 77.505311 
L 228.039281 33.294625 
L 220.408934 20.417151 
L 236.159357 64.709988 
z
" clip-path="url(#p492649abd9)" style="fill: #0000f5; fill-opacity: 0.1"/>
    <path d="M 212.714017 7.430707 
L 197.215196 -36.224719 
L 189.452735 -49.398903 
L 204.953709 -5.666097 
z
" clip-path="url(#p492649abd9)" style="fill: #0000f5; fill-opacity: 0.1"/>
    <path d="M 181.624568 -62.684601 
L 166.373351 -105.784117 
L 158.478626 -119.255352 
L 173.729857 -76.083235 
z
" clip-path="url(#p492649abd9)" style="fill: #0000f5; fill-opacity: 0.1"/>
    <path d="M 329.667242 275.592287 
L 313.170222 229.6233 
L 305.874139 217.532551 
L 322.381412 263.597937 
z
" clip-path="url(#p492649abd9)" style="fill: #0000f5; fill-opacity: 0.1"/>
    <path d="M 298.516108 205.339144 
L 282.267662 159.928218 
L 274.838787 147.539248 
L 291.095336 193.041766 
z
" clip-path="url(#p492649abd9)" style="fill: #0000f5; fill-opacity: 0.1"/>
    <path d="M 267.346818 135.045056 
L 251.347237 90.192847 
L 243.785418 77.505311 
L 259.790948 122.444298 
z
" clip-path="url(#p492649abd9)" style="fill: #0000f5; fill-opacity: 0.1"/>
    <path d="M 236.159357 64.709988 
L 220.408934 20.417151 
L 212.714017 7.430707 
L 228.468231 51.805496 
z
" clip-path="url(#p492649abd9)" style="fill: #0000f5; fill-opacity: 0.1"/>
    <path d="M 204.953709 -5.666097 
L 189.452735 -49.398903 
L 181.624568 -62.684601 
L 197.127171 -18.874674 
z
" clip-path="url(#p492649abd9)" style="fill: #0000f5; fill-opacity: 0.1"/>
    <path d="M 173.729857 -76.083235 
L 158.478626 -119.255352 
L 150.517055 -132.840648 
L 165.76775 -89.596251 
z
" clip-path="url(#p492649abd9)" style="fill: #0000f5; fill-opacity: 0.1"/>
    <path d="M 322.381412 263.597937 
L 305.874139 217.532551 
L 298.516108 205.339144 
L 315.03321 251.500905 
z
" clip-path="url(#p492649abd9)" style="fill: #0000f5; fill-opacity: 0.1"/>
    <path d="M 291.095336 193.041766 
L 274.838787 147.539248 
L 267.346818 135.045056 
L 283.611017 180.63908 
z
" clip-path="url(#p492649abd9)" style="fill: #0000f5; fill-opacity: 0.1"/>
    <path d="M 259.790948 122.444298 
L 243.785418 77.505311 
L 236.159357 64.709988 
L 252.170354 109.735602 
z
" clip-path="url(#p492649abd9)" style="fill: #0000f5; fill-opacity: 0.1"/>
    <path d="M 228.468231 51.805496 
L 212.714017 7.430707 
L 204.953709 -5.666097 
L 220.711205 38.790434 
z
" clip-path="url(#p492649abd9)" style="fill: #0000f5; fill-opacity: 0.1"/>
    <path d="M 197.127171 -18.874674 
L 181.624568 -62.684601 
L 173.729857 -76.083235 
L 189.233553 -32.196461 
z
" clip-path="url(#p492649abd9)" style="fill: #0000f5; fill-opacity: 0.1"/>
    <path d="M 315.03321 251.500905 
L 298.516108 205.339144 
L 291.095336 193.041766 
L 307.62183 239.299867 
z
" clip-path="url(#p492649abd9)" style="fill: #0000f5; fill-opacity: 0.1"/>
    <path d="M 283.611017 180.63908 
L 267.346818 135.045056 
L 259.790948 122.444298 
L 276.062332 168.12973 
z
" clip-path="url(#p492649abd9)" style="fill: #0000f5; fill-opacity: 0.1"/>
    <path d="M 252.170354 109.735602 
L 236.159357 64.709988 
L 228.468231 51.805496 
L 244.484203 96.917578 
z
" clip-path="url(#p492649abd9)" style="fill: #0000f5; fill-opacity: 0.1"/>
    <path d="M 220.711205 38.790434 
L 204.953709 -5.666097 
L 197.127171 -18.874674 
L 212.887427 25.663374 
z
" clip-path="url(#p492649abd9)" style="fill: #0000f5; fill-opacity: 0.1"/>
    <path d="M 189.233553 -32.196461 
L 173.729857 -76.083235 
L 165.76775 -89.596251 
L 181.271988 -45.632919 
z
" clip-path="url(#p492649abd9)" style="fill: #0000f5; fill-opacity: 0.1"/>
    <path d="M 307.62183 239.299867 
L 291.095336 193.041766 
L 283.611017 180.63908 
L 300.146454 226.993476 
z
" clip-path="url(#p492649abd9)" style="fill: #0000f5; fill-opacity: 0.1"/>
    <path d="M 276.062332 168.12973 
L 259.790948 122.444298 
L 252.170354 109.735602 
L 268.448446 155.512332 
z
" clip-path="url(#p492649abd9)" style="fill: #0000f5; fill-opacity: 0.1"/>
    <path d="M 244.484203 96.917578 
L 228.468231 51.805496 
L 220.711205 38.790434 
L 236.731645 83.988807 
z
" clip-path="url(#p492649abd9)" style="fill: #0000f5; fill-opacity: 0.1"/>
    <path d="M 212.887427 25.663374 
L 197.127171 -18.874674 
L 189.233553 -32.196461 
L 204.996033 12.422864 
z
" clip-path="url(#p492649abd9)" style="fill: #0000f5; fill-opacity: 0.1"/>
    <path d="M 300.146454 226.993476 
L 283.611017 180.63908 
L 276.062332 168.12973 
L 292.606251 214.580361 
z
" clip-path="url(#p492649abd9)" style="fill: #0000f5; fill-opacity: 0.1"/>
    <path d="M 268.448446 155.512332 
L 252.170354 109.735602 
L 244.484203 96.917578 
L 260.768512 142.78548 
z
" clip-path="url(#p492649abd9)" style="fill: #0000f5; fill-opacity: 0.1"/>
    <path d="M 236.731645 83.988807 
L 220.711205 38.790434 
L 212.887427 25.663374 
L 228.911815 70.947848 
z
" clip-path="url(#p492649abd9)" style="fill: #0000f5; fill-opacity: 0.1"/>
    <path d="M 204.996033 12.422864 
L 189.233553 -32.196461 
L 181.271988 -45.632919 
L 197.036142 -0.932573 
z
" clip-path="url(#p492649abd9)" style="fill: #0000f5; fill-opacity: 0.1"/>
    <path d="M 292.606251 214.580361 
L 276.062332 168.12973 
L 268.448446 155.512332 
L 285.000373 202.059129 
z
" clip-path="url(#p492649abd9)" style="fill: #0000f5; fill-opacity: 0.1"/>
    <path d="M 260.768512 142.78548 
L 244.484203 96.917578 
L 236.731645 83.988807 
L 253.021665 129.947745 
z
" clip-path="url(#p492649abd9)" style="fill: #0000f5; fill-opacity: 0.1"/>
    <path d="M 228.911815 70.947848 
L 212.887427 25.663374 
L 204.996033 12.422864 
L 221.023833 57.793235 
z
" clip-path="url(#p492649abd9)" style="fill: #0000f5; fill-opacity: 0.1"/>
    <path d="M 285.000373 202.059129 
L 268.448446 155.512332 
L 260.768512 142.78548 
L 277.327957 189.428359 
z
" clip-path="url(#p492649abd9)" style="fill: #0000f5; fill-opacity: 0.1"/>
    <path d="M 253.021665 129.947745 
L 236.731645 83.988807 
L 228.911815 70.947848 
L 245.207028 116.997671 
z
" clip-path="url(#p492649abd9)" style="fill: #0000f5; fill-opacity: 0.1"/>
    <path d="M 221.023833 57.793235 
L 204.996033 12.422864 
L 197.036142 -0.932573 
L 213.066805 44.523475 
z
" clip-path="url(#p492649abd9)" style="fill: #0000f5; fill-opacity: 0.1"/>
    <path d="M 277.327957 189.428359 
L 260.768512 142.78548 
L 253.021665 129.947745 
L 269.588128 176.68661 
z
" clip-path="url(#p492649abd9)" style="fill: #0000f5; fill-opacity: 0.1"/>
    <path d="M 245.207028 116.997671 
L 228.911815 70.947848 
L 221.023833 57.793235 
L 237.323707 103.933776 
z
" clip-path="url(#p492649abd9)" style="fill: #0000f5; fill-opacity: 0.1"/>
    <path d="M 269.588128 176.68661 
L 253.021665 129.947745 
L 245.207028 116.997671 
L 261.779993 163.832411 
z
" clip-path="url(#p492649abd9)" style="fill: #0000f5; fill-opacity: 0.1"/>
    <path d="M 237.323707 103.933776 
L 221.023833 57.793235 
L 213.066805 44.523475 
L 229.370793 90.754555 
z
" clip-path="url(#p492649abd9)" style="fill: #0000f5; fill-opacity: 0.1"/>
    <path d="M 261.779993 163.832411 
L 245.207028 116.997671 
L 237.323707 103.933776 
L 253.902644 150.864267 
z
" clip-path="url(#p492649abd9)" style="fill: #0000f5; fill-opacity: 0.1"/>
    <path d="M 253.902644 150.864267 
L 237.323707 103.933776 
L 229.370793 90.754555 
L 245.955155 137.780656 
z
" clip-path="url(#p492649abd9)" style="fill: #0000f5; fill-opacity: 0.1"/>
   </g>
   <g id="legend_1">
    <g id="patch_6">
     <path d="M 357.840076 67.305115 
L 396.2 67.305115 
Q 398.2 67.305115 398.2 65.305115 
L 398.2 7 
Q 398.2 5 396.2 5 
L 357.840076 5 
Q 355.840076 5 355.840076 7 
L 355.840076 65.305115 
Q 355.840076 67.305115 357.840076 67.305115 
z
" style="fill: #ffffff; opacity: 0.8; stroke: #cccccc; stroke-linejoin: miter"/>
    </g>
    <g id="line2d_25">
     <path d="M 359.840076 12.5 
L 369.840076 12.5 
L 379.840076 12.5 
" style="fill: none; stroke: #ff0000; stroke-width: 1.5; stroke-linecap: square"/>
    </g>
    <g id="text_21">
     <!-- $\vec{a}$ -->
     <g transform="translate(387.840076 16)scale(0.1 -0.1)">
      <defs>
       <path id="CMMI12-7e" d="M 3424 3835 
C 3347 3764 3110 3540 3110 3451 
C 3110 3387 3168 3329 3232 3329 
C 3290 3329 3315 3368 3360 3432 
C 3514 3624 3686 3745 3834 3828 
C 3898 3867 3942 3886 3942 3956 
C 3942 4014 3891 4046 3853 4078 
C 3674 4200 3629 4372 3610 4449 
C 3590 4500 3571 4577 3482 4577 
C 3443 4577 3366 4552 3366 4456 
C 3366 4398 3405 4244 3526 4072 
L 1376 4072 
C 1267 4072 1158 4072 1158 3950 
C 1158 3835 1274 3835 1376 3835 
L 3424 3835 
z
" transform="scale(0.015625)"/>
       <path id="CMMI12-61" d="M 1926 760 
C 1894 651 1894 639 1805 517 
C 1664 338 1382 64 1082 64 
C 819 64 672 300 672 677 
C 672 1028 870 1743 992 2012 
C 1210 2459 1510 2689 1760 2689 
C 2182 2689 2266 2165 2266 2114 
C 2266 2108 2246 2024 2240 2012 
L 1926 760 
z
M 2336 2395 
C 2266 2561 2093 2816 1760 2816 
C 1037 2816 256 1884 256 939 
C 256 307 627 -64 1062 -64 
C 1414 -64 1715 211 1894 422 
C 1958 45 2259 -64 2451 -64 
C 2643 -64 2797 51 2912 281 
C 3014 498 3104 888 3104 913 
C 3104 945 3078 971 3040 971 
C 2982 971 2976 939 2950 843 
C 2854 466 2733 64 2470 64 
C 2285 64 2272 230 2272 358 
C 2272 505 2291 575 2349 824 
C 2394 984 2426 1124 2477 1309 
C 2714 2267 2771 2497 2771 2535 
C 2771 2625 2701 2695 2605 2695 
C 2400 2695 2349 2472 2336 2395 
z
" transform="scale(0.015625)"/>
      </defs>
      <use xlink:href="#CMMI12-7e" transform="scale(0.996264)"/>
      <use xlink:href="#CMMI12-61" transform="translate(6.445738 0)scale(0.996264)"/>
     </g>
    </g>
    <g id="line2d_26">
     <path d="M 359.840076 27.24679 
L 369.840076 27.24679 
L 379.840076 27.24679 
" style="fill: none; stroke: #00ff00; stroke-width: 1.5; stroke-linecap: square"/>
    </g>
    <g id="text_22">
     <!-- $\vec{b}$ -->
     <g transform="translate(387.840076 30.74679)scale(0.1 -0.1)">
      <defs>
       <path id="CMMI12-62" d="M 1478 4257 
C 1485 4283 1498 4321 1498 4352 
C 1498 4416 1434 4416 1421 4416 
C 1414 4416 1184 4393 1069 4377 
C 960 4377 864 4358 749 4358 
C 595 4345 550 4339 550 4224 
C 550 4160 614 4160 678 4160 
C 1005 4160 1005 4103 1005 4040 
C 1005 3996 954 3811 928 3696 
L 774 3085 
C 710 2831 346 1387 320 1272 
C 288 1114 288 1005 288 922 
C 288 274 653 -64 1069 -64 
C 1811 -64 2579 888 2579 1814 
C 2579 2401 2246 2816 1766 2816 
C 1434 2816 1133 2542 1011 2414 
L 1478 4257 
z
M 1075 64 
C 870 64 646 217 646 715 
C 646 926 666 1047 781 1494 
C 800 1577 902 1986 928 2069 
C 941 2120 1318 2689 1754 2689 
C 2035 2689 2163 2408 2163 2076 
C 2163 1769 1984 1047 1824 715 
C 1664 370 1370 64 1075 64 
z
" transform="scale(0.015625)"/>
      </defs>
      <use xlink:href="#CMMI12-7e" transform="translate(0 26.29016)scale(0.996264)"/>
      <use xlink:href="#CMMI12-62" transform="translate(11.311737 0)scale(0.996264)"/>
     </g>
    </g>
    <g id="line2d_27">
     <path d="M 359.840076 41.183968 
L 369.840076 41.183968 
L 379.840076 41.183968 
" style="fill: none; stroke: #0016ff; stroke-width: 1.5; stroke-linecap: square"/>
    </g>
    <g id="text_23">
     <!-- $\vec{c}$ -->
     <g transform="translate(387.840076 44.683968)scale(0.1 -0.1)">
      <defs>
       <path id="CMMI12-63" d="M 2502 2431 
C 2381 2431 2323 2431 2234 2355 
C 2195 2323 2125 2227 2125 2125 
C 2125 1997 2221 1920 2342 1920 
C 2496 1920 2669 2044 2669 2292 
C 2669 2588 2374 2816 1933 2816 
C 1094 2816 256 1903 256 996 
C 256 441 602 -64 1254 -64 
C 2125 -64 2675 622 2675 706 
C 2675 744 2637 776 2611 776 
C 2592 776 2586 770 2528 713 
C 2118 162 1510 64 1267 64 
C 826 64 685 446 685 764 
C 685 988 794 1605 1024 2039 
C 1190 2338 1536 2682 1939 2682 
C 2022 2682 2374 2682 2502 2431 
z
" transform="scale(0.015625)"/>
      </defs>
      <use xlink:href="#CMMI12-7e" transform="scale(0.996264)"/>
      <use xlink:href="#CMMI12-63" transform="translate(5.638615 0)scale(0.996264)"/>
     </g>
    </g>
    <g id="line2d_28">
     <path d="M 359.840076 57.867937 
L 369.840076 57.867937 
L 379.840076 57.867937 
" style="fill: none; stroke: #f400ff; stroke-width: 1.5; stroke-linecap: square"/>
    </g>
    <g id="text_24">
     <!-- $\vec{f}$ -->
     <g transform="translate(387.840076 61.367937)scale(0.1 -0.1)">
      <defs>
       <path id="CMMI12-66" d="M 2854 2566 
C 2982 2566 3034 2566 3034 2688 
C 3034 2752 2982 2752 2867 2752 
L 2349 2752 
C 2470 3429 2560 3897 2611 4107 
C 2650 4265 2784 4416 2950 4416 
C 3085 4416 3219 4358 3283 4298 
C 3034 4272 2957 4082 2957 3969 
C 2957 3837 3053 3759 3174 3759 
C 3302 3759 3494 3870 3494 4119 
C 3494 4393 3226 4544 2944 4544 
C 2669 4544 2400 4334 2272 4078 
C 2157 3848 2093 3611 1946 2752 
L 1517 2752 
C 1395 2752 1331 2752 1331 2637 
C 1331 2566 1370 2566 1498 2566 
L 1907 2566 
C 1792 1976 1530 542 1382 -137 
C 1274 -689 1178 -1152 858 -1152 
C 838 -1152 653 -1152 538 -1031 
C 864 -1005 864 -726 864 -720 
C 864 -593 768 -517 646 -517 
C 518 -517 326 -625 326 -867 
C 326 -1140 608 -1280 858 -1280 
C 1510 -1280 1779 -118 1850 199 
C 1965 688 2278 2376 2310 2566 
L 2854 2566 
z
" transform="scale(0.015625)"/>
      </defs>
      <use xlink:href="#CMMI12-7e" transform="translate(13.568792 26.29016)scale(0.996264)"/>
      <use xlink:href="#CMMI12-66" transform="scale(0.996264)"/>
     </g>
    </g>
   </g>
  </g>
 </g>
 <defs>
  <clipPath id="p492649abd9">
   <rect x="57.6" y="0" width="345.6" height="345.6"/>
  </clipPath>
 </defs>
</svg>
