<?xml version="1.0" encoding="utf-8" standalone="no"?>
<!DOCTYPE svg PUBLIC "-//W3C//DTD SVG 1.1//EN"
  "http://www.w3.org/Graphics/SVG/1.1/DTD/svg11.dtd">
<svg xmlns:xlink="http://www.w3.org/1999/xlink" width="460.8pt" height="345.6pt" viewBox="0 0 460.8 345.6" xmlns="http://www.w3.org/2000/svg" version="1.1">
 <metadata>
  <rdf:RDF xmlns:dc="http://purl.org/dc/elements/1.1/" xmlns:cc="http://creativecommons.org/ns#" xmlns:rdf="http://www.w3.org/1999/02/22-rdf-syntax-ns#">
   <cc:Work>
    <dc:type rdf:resource="http://purl.org/dc/dcmitype/StillImage"/>
    <dc:date>2022-07-12T15:41:41.917051</dc:date>
    <dc:format>image/svg+xml</dc:format>
    <dc:creator>
     <cc:Agent>
      <dc:title>Matplotlib v3.5.1, https://matplotlib.org/</dc:title>
     </cc:Agent>
    </dc:creator>
   </cc:Work>
  </rdf:RDF>
 </metadata>
 <defs>
  <style type="text/css">*{stroke-linejoin: round; stroke-linecap: butt}</style>
 </defs>
 <g id="figure_1">
  <g id="patch_1">
   <path d="M 0 345.6 
L 460.8 345.6 
L 460.8 0 
L 0 0 
z
" style="fill: #ffffff"/>
  </g>
  <g id="patch_2">
   <path d="M 57.6 345.6 
L 403.2 345.6 
L 403.2 0 
L 57.6 0 
z
" style="fill: #ffffff"/>
  </g>
  <g id="pane3d_1">
   <g id="patch_3">
    <path d="M 237.601707 245.053043 
L 78.068697 251.405071 
L 78.068697 84.854389 
L 237.601707 91.206417 
" style="fill: #f2f2f2; opacity: 0.5; stroke: #f2f2f2; stroke-linejoin: miter"/>
   </g>
  </g>
  <g id="pane3d_2">
   <g id="patch_4">
    <path d="M 392.533835 251.650116 
L 237.601707 245.053043 
L 237.601707 91.206417 
L 392.533835 84.609344 
" style="fill: #e6e6e6; opacity: 0.5; stroke: #e6e6e6; stroke-linejoin: miter"/>
   </g>
  </g>
  <g id="pane3d_3">
   <g id="patch_5">
    <path d="M 392.533835 251.650116 
L 237.601707 245.053043 
L 78.068697 251.405071 
L 232.073548 259.191794 
" style="fill: #ececec; opacity: 0.5; stroke: #ececec; stroke-linejoin: miter"/>
   </g>
  </g>
  <g id="axis3d_1">
   <g id="line2d_1">
    <path d="M 78.068697 251.405071 
L 232.073548 259.191794 
" style="fill: none; stroke: #000000; stroke-width: 0.8; stroke-linecap: square"/>
   </g>
   <g id="text_1">
    <!-- x -->
    <g transform="translate(123.591717 284.622793)scale(0.16 -0.16)">
     <defs>
      <path id="CMSS17-78" d="M 1587 1414 
L 2656 2739 
L 2099 2739 
L 1363 1777 
L 602 2739 
L 32 2739 
L 1139 1414 
L 0 0 
L 563 0 
L 1363 1121 
L 2195 0 
L 2758 0 
L 1587 1414 
z
" transform="scale(0.015625)"/>
     </defs>
     <use xlink:href="#CMSS17-78" transform="scale(0.996264)"/>
    </g>
   </g>
   <g id="Line3DCollection_1">
    <path d="M 228.711731 259.021815 
L 389.175208 251.507104 
L 389.175208 84.752355 
" style="fill: none; stroke: #b0b0b0; stroke-width: 0.8"/>
    <path d="M 197.065617 257.421739 
L 357.508147 250.158708 
L 357.508147 86.100752 
" style="fill: none; stroke: #b0b0b0; stroke-width: 0.8"/>
    <path d="M 166.514433 255.877024 
L 326.849038 248.853231 
L 326.849038 87.406229 
" style="fill: none; stroke: #b0b0b0; stroke-width: 0.8"/>
    <path d="M 137.00232 254.384846 
L 297.150511 247.588655 
L 297.150511 88.670804 
" style="fill: none; stroke: #b0b0b0; stroke-width: 0.8"/>
    <path d="M 108.477153 252.942569 
L 268.368117 246.363089 
L 268.368117 89.89637 
" style="fill: none; stroke: #b0b0b0; stroke-width: 0.8"/>
    <path d="M 80.89024 251.547732 
L 240.460111 245.174755 
L 240.460111 91.084705 
" style="fill: none; stroke: #b0b0b0; stroke-width: 0.8"/>
   </g>
   <g id="xtick_1">
    <g id="line2d_2">
     <path d="M 230.11013 258.956326 
L 225.908875 259.153077 
" style="fill: none; stroke: #000000; stroke-width: 0.8; stroke-linecap: square"/>
    </g>
    <g id="text_2">
     <!-- $\mathdefault{0}$ -->
     <g transform="translate(214.980518 278.147975)scale(0.1 -0.1)">
      <defs>
       <path id="CMR17-30" d="M 2688 2025 
C 2688 2416 2682 3080 2413 3591 
C 2176 4039 1798 4198 1466 4198 
C 1158 4198 768 4058 525 3597 
C 269 3118 243 2524 243 2025 
C 243 1661 250 1106 448 619 
C 723 -39 1216 -128 1466 -128 
C 1760 -128 2208 -7 2470 600 
C 2662 1042 2688 1559 2688 2025 
z
M 1466 -26 
C 1056 -26 813 325 723 812 
C 653 1188 653 1738 653 2096 
C 653 2588 653 2997 736 3387 
C 858 3929 1216 4096 1466 4096 
C 1728 4096 2067 3923 2189 3400 
C 2272 3036 2278 2607 2278 2096 
C 2278 1680 2278 1169 2202 792 
C 2067 95 1690 -26 1466 -26 
z
" transform="scale(0.015625)"/>
      </defs>
      <use xlink:href="#CMR17-30" transform="scale(0.996264)"/>
     </g>
    </g>
   </g>
   <g id="xtick_2">
    <g id="line2d_3">
     <path d="M 198.461816 257.358535 
L 194.267277 257.548416 
" style="fill: none; stroke: #000000; stroke-width: 0.8; stroke-linecap: square"/>
    </g>
    <g id="text_3">
     <!-- $\mathdefault{1}$ -->
     <g transform="translate(183.353374 276.322668)scale(0.1 -0.1)">
      <defs>
       <path id="CMR17-31" d="M 1702 4058 
C 1702 4192 1696 4192 1606 4192 
C 1357 3916 979 3827 621 3827 
C 602 3827 570 3827 563 3808 
C 557 3795 557 3782 557 3648 
C 755 3648 1088 3686 1344 3839 
L 1344 461 
C 1344 236 1331 160 781 160 
L 589 160 
L 589 0 
C 896 0 1216 0 1523 0 
C 1830 0 2150 0 2458 0 
L 2458 160 
L 2266 160 
C 1715 160 1702 230 1702 458 
L 1702 4058 
z
" transform="scale(0.015625)"/>
      </defs>
      <use xlink:href="#CMR17-31" transform="scale(0.996264)"/>
     </g>
    </g>
   </g>
   <g id="xtick_3">
    <g id="line2d_4">
     <path d="M 167.907747 255.815987 
L 163.721979 255.999353 
" style="fill: none; stroke: #000000; stroke-width: 0.8; stroke-linecap: square"/>
    </g>
    <g id="text_4">
     <!-- $\mathdefault{2}$ -->
     <g transform="translate(152.82662 274.560868)scale(0.1 -0.1)">
      <defs>
       <path id="CMR17-32" d="M 2669 989 
L 2554 989 
C 2490 536 2438 459 2413 420 
C 2381 369 1920 369 1830 369 
L 602 369 
C 832 619 1280 1072 1824 1597 
C 2214 1967 2669 2402 2669 3035 
C 2669 3790 2067 4224 1395 4224 
C 691 4224 262 3604 262 3030 
C 262 2780 448 2748 525 2748 
C 589 2748 781 2787 781 3010 
C 781 3207 614 3264 525 3264 
C 486 3264 448 3258 422 3245 
C 544 3790 915 4058 1306 4058 
C 1862 4058 2227 3617 2227 3035 
C 2227 2479 1901 2000 1536 1584 
L 262 146 
L 262 0 
L 2515 0 
L 2669 989 
z
" transform="scale(0.015625)"/>
      </defs>
      <use xlink:href="#CMR17-32" transform="scale(0.996264)"/>
     </g>
    </g>
   </g>
   <g id="xtick_4">
    <g id="line2d_5">
     <path d="M 138.392135 254.325866 
L 134.216975 254.503047 
" style="fill: none; stroke: #000000; stroke-width: 0.8; stroke-linecap: square"/>
    </g>
    <g id="text_5">
     <!-- $\mathdefault{3}$ -->
     <g transform="translate(123.34381 272.859317)scale(0.1 -0.1)">
      <defs>
       <path id="CMR17-33" d="M 1414 2157 
C 1984 2157 2234 1662 2234 1090 
C 2234 320 1824 25 1453 25 
C 1114 25 563 194 390 693 
C 422 680 454 680 486 680 
C 640 680 755 782 755 948 
C 755 1133 614 1216 486 1216 
C 378 1216 211 1165 211 926 
C 211 335 787 -128 1466 -128 
C 2176 -128 2720 430 2720 1085 
C 2720 1707 2208 2157 1600 2227 
C 2086 2328 2554 2756 2554 3329 
C 2554 3820 2048 4179 1472 4179 
C 890 4179 378 3829 378 3329 
C 378 3110 544 3072 627 3072 
C 762 3072 877 3155 877 3321 
C 877 3486 762 3569 627 3569 
C 602 3569 570 3569 544 3557 
C 730 3959 1235 4032 1459 4032 
C 1683 4032 2106 3925 2106 3320 
C 2106 3143 2080 2828 1862 2550 
C 1670 2304 1453 2304 1242 2284 
C 1210 2284 1062 2269 1037 2269 
C 992 2263 966 2257 966 2208 
C 966 2163 973 2157 1101 2157 
L 1414 2157 
z
" transform="scale(0.015625)"/>
      </defs>
      <use xlink:href="#CMR17-33" transform="scale(0.996264)"/>
     </g>
    </g>
   </g>
   <g id="xtick_5">
    <g id="line2d_6">
     <path d="M 109.862924 252.885545 
L 105.70001 253.056848 
" style="fill: none; stroke: #000000; stroke-width: 0.8; stroke-linecap: square"/>
    </g>
    <g id="text_6">
     <!-- $\mathdefault{4}$ -->
     <g transform="translate(94.852294 271.214977)scale(0.1 -0.1)">
      <defs>
       <path id="CMR17-34" d="M 2150 4122 
C 2150 4256 2144 4256 2029 4256 
L 128 1254 
L 128 1088 
L 1779 1088 
L 1779 457 
C 1779 224 1766 160 1318 160 
L 1197 160 
L 1197 0 
C 1402 0 1747 0 1965 0 
C 2182 0 2528 0 2733 0 
L 2733 160 
L 2611 160 
C 2163 160 2150 224 2150 457 
L 2150 1088 
L 2803 1088 
L 2803 1254 
L 2150 1254 
L 2150 4122 
z
M 1798 3703 
L 1798 1254 
L 256 1254 
L 1798 3703 
z
" transform="scale(0.015625)"/>
      </defs>
      <use xlink:href="#CMR17-34" transform="scale(0.996264)"/>
     </g>
    </g>
   </g>
   <g id="xtick_6">
    <g id="line2d_7">
     <path d="M 82.271479 251.492568 
L 78.122271 251.658281 
" style="fill: none; stroke: #000000; stroke-width: 0.8; stroke-linecap: square"/>
    </g>
    <g id="text_7">
     <!-- $\mathdefault{5}$ -->
     <g transform="translate(67.302904 269.625011)scale(0.1 -0.1)">
      <defs>
       <path id="CMR17-35" d="M 730 3692 
C 794 3666 1056 3584 1325 3584 
C 1920 3584 2246 3911 2432 4100 
C 2432 4157 2432 4192 2394 4192 
C 2387 4192 2374 4192 2323 4163 
C 2099 4058 1837 3973 1517 3973 
C 1325 3973 1037 3999 723 4139 
C 653 4171 640 4171 634 4171 
C 602 4171 595 4164 595 4037 
L 595 2203 
C 595 2089 595 2057 659 2057 
C 691 2057 704 2070 736 2114 
C 941 2401 1222 2522 1542 2522 
C 1766 2522 2246 2382 2246 1289 
C 2246 1085 2246 715 2054 421 
C 1894 159 1645 25 1370 25 
C 947 25 518 320 403 814 
C 429 807 480 795 506 795 
C 589 795 749 840 749 1038 
C 749 1210 627 1280 506 1280 
C 358 1280 262 1190 262 1011 
C 262 454 704 -128 1382 -128 
C 2042 -128 2669 440 2669 1264 
C 2669 2030 2170 2624 1549 2624 
C 1222 2624 947 2503 730 2274 
L 730 3692 
z
" transform="scale(0.015625)"/>
      </defs>
      <use xlink:href="#CMR17-35" transform="scale(0.996264)"/>
     </g>
    </g>
   </g>
  </g>
  <g id="axis3d_2">
   <g id="line2d_8">
    <path d="M 392.533835 251.650116 
L 232.073548 259.191794 
" style="fill: none; stroke: #000000; stroke-width: 0.8; stroke-linecap: square"/>
   </g>
   <g id="text_8">
    <!-- y -->
    <g transform="translate(335.91348 284.84622)scale(0.16 -0.16)">
     <defs>
      <path id="CMSS17-79" d="M 2675 2752 
L 2176 2752 
C 1632 1294 1446 702 1434 383 
L 1427 383 
C 1408 696 1126 1460 902 2007 
L 602 2752 
L 83 2752 
L 1216 13 
C 1146 -178 1043 -465 1011 -529 
C 870 -885 774 -885 672 -885 
C 646 -885 442 -885 211 -809 
L 250 -1229 
C 410 -1261 570 -1280 685 -1280 
C 845 -1280 1165 -1280 1459 -497 
L 2675 2752 
z
" transform="scale(0.015625)"/>
     </defs>
     <use xlink:href="#CMSS17-79" transform="scale(0.996264)"/>
    </g>
   </g>
   <g id="Line3DCollection_2">
    <path d="M 220.354851 90.519709 
L 220.354851 245.73975 
L 375.296385 252.460281 
" style="fill: none; stroke: #b0b0b0; stroke-width: 0.8"/>
    <path d="M 191.12154 89.355744 
L 191.12154 246.903715 
L 346.018609 253.836344 
" style="fill: none; stroke: #b0b0b0; stroke-width: 0.8"/>
    <path d="M 160.998019 88.156335 
L 160.998019 248.103125 
L 315.769503 255.258061 
" style="fill: none; stroke: #b0b0b0; stroke-width: 0.8"/>
    <path d="M 129.942996 86.919836 
L 129.942996 249.339624 
L 284.499914 256.72774 
" style="fill: none; stroke: #b0b0b0; stroke-width: 0.8"/>
    <path d="M 97.912584 85.644501 
L 97.912584 250.614959 
L 252.157315 258.247851 
" style="fill: none; stroke: #b0b0b0; stroke-width: 0.8"/>
   </g>
   <g id="xtick_7">
    <g id="line2d_9">
     <path d="M 373.95045 252.401901 
L 377.993858 252.577283 
" style="fill: none; stroke: #000000; stroke-width: 0.8; stroke-linecap: square"/>
    </g>
    <g id="text_9">
     <!-- $\mathdefault{−4}$ -->
     <g transform="translate(379.74742 270.683439)scale(0.1 -0.1)">
      <defs>
       <path id="CMSY10-0" d="M 4218 1472 
C 4326 1472 4442 1472 4442 1600 
C 4442 1728 4326 1728 4218 1728 
L 755 1728 
C 646 1728 531 1728 531 1600 
C 531 1472 646 1472 755 1472 
L 4218 1472 
z
" transform="scale(0.015625)"/>
      </defs>
      <use xlink:href="#CMSY10-0" transform="scale(0.996264)"/>
      <use xlink:href="#CMR17-34" transform="translate(77.487468 0)scale(0.996264)"/>
     </g>
    </g>
   </g>
   <g id="xtick_8">
    <g id="line2d_10">
     <path d="M 344.671325 253.776045 
L 348.718876 253.957198 
" style="fill: none; stroke: #000000; stroke-width: 0.8; stroke-linecap: square"/>
    </g>
    <g id="text_10">
     <!-- $\mathdefault{−2}$ -->
     <g transform="translate(350.481584 272.25279)scale(0.1 -0.1)">
      <use xlink:href="#CMSY10-0" transform="scale(0.996264)"/>
      <use xlink:href="#CMR17-32" transform="translate(77.487468 0)scale(0.996264)"/>
     </g>
    </g>
   </g>
   <g id="xtick_9">
    <g id="line2d_11">
     <path d="M 314.421521 255.195745 
L 318.471264 255.382961 
" style="fill: none; stroke: #000000; stroke-width: 0.8; stroke-linecap: square"/>
    </g>
    <g id="text_11">
     <!-- $\mathdefault{0}$ -->
     <g transform="translate(324.113604 273.874506)scale(0.1 -0.1)">
      <use xlink:href="#CMR17-30" transform="scale(0.996264)"/>
     </g>
    </g>
   </g>
   <g id="xtick_10">
    <g id="line2d_12">
     <path d="M 283.151952 256.663305 
L 287.201732 256.856892 
" style="fill: none; stroke: #000000; stroke-width: 0.8; stroke-linecap: square"/>
    </g>
    <g id="text_12">
     <!-- $\mathdefault{2}$ -->
     <g transform="translate(292.845033 275.551252)scale(0.1 -0.1)">
      <use xlink:href="#CMR17-32" transform="scale(0.996264)"/>
     </g>
    </g>
   </g>
   <g id="xtick_11">
    <g id="line2d_13">
     <path d="M 250.810169 258.181187 
L 254.857601 258.381476 
" style="fill: none; stroke: #000000; stroke-width: 0.8; stroke-linecap: square"/>
    </g>
    <g id="text_13">
     <!-- $\mathdefault{4}$ -->
     <g transform="translate(260.497105 277.285877)scale(0.1 -0.1)">
      <use xlink:href="#CMR17-34" transform="scale(0.996264)"/>
     </g>
    </g>
   </g>
  </g>
  <g id="axis3d_3">
   <g id="line2d_14">
    <path d="M 392.533835 251.650116 
L 392.533835 84.609344 
" style="fill: none; stroke: #000000; stroke-width: 0.8; stroke-linecap: square"/>
   </g>
   <g id="text_14">
    <!-- z -->
    <g transform="translate(432.970563 172.114786)scale(0.16 -0.16)">
     <defs>
      <path id="CMSS17-7a" d="M 2400 2502 
L 2400 2750 
L 250 2750 
L 250 2368 
L 1069 2368 
C 1146 2368 1222 2368 1299 2368 
L 1747 2368 
L 166 261 
L 166 0 
L 2419 0 
L 2419 395 
L 1549 395 
C 1472 395 1395 395 1318 395 
L 826 395 
L 2400 2502 
z
" transform="scale(0.015625)"/>
     </defs>
     <use xlink:href="#CMSS17-7a" transform="scale(0.996264)"/>
    </g>
   </g>
   <g id="Line3DCollection_3">
    <path d="M 392.533835 248.3093 
L 237.601707 241.97611 
L 78.068697 248.074057 
" style="fill: none; stroke: #b0b0b0; stroke-width: 0.8"/>
    <path d="M 392.533835 216.237472 
L 237.601707 212.437558 
L 78.068697 216.096326 
" style="fill: none; stroke: #b0b0b0; stroke-width: 0.8"/>
    <path d="M 392.533835 184.165644 
L 237.601707 182.899006 
L 78.068697 184.118595 
" style="fill: none; stroke: #b0b0b0; stroke-width: 0.8"/>
    <path d="M 392.533835 152.093816 
L 237.601707 153.360454 
L 78.068697 152.140864 
" style="fill: none; stroke: #b0b0b0; stroke-width: 0.8"/>
    <path d="M 392.533835 120.021987 
L 237.601707 123.821901 
L 78.068697 120.163133 
" style="fill: none; stroke: #b0b0b0; stroke-width: 0.8"/>
    <path d="M 392.533835 87.950159 
L 237.601707 94.283349 
L 78.068697 88.185402 
" style="fill: none; stroke: #b0b0b0; stroke-width: 0.8"/>
   </g>
   <g id="xtick_12">
    <g id="line2d_15">
     <path d="M 391.189002 248.254327 
L 395.229043 248.419473 
" style="fill: none; stroke: #000000; stroke-width: 0.8; stroke-linecap: square"/>
    </g>
    <g id="text_15">
     <!-- $\mathdefault{0}$ -->
     <g transform="translate(410.196903 255.242875)scale(0.1 -0.1)">
      <use xlink:href="#CMR17-30" transform="scale(0.996264)"/>
     </g>
    </g>
   </g>
   <g id="xtick_13">
    <g id="line2d_16">
     <path d="M 391.189002 216.204488 
L 395.229043 216.303576 
" style="fill: none; stroke: #000000; stroke-width: 0.8; stroke-linecap: square"/>
    </g>
    <g id="text_16">
     <!-- $\mathdefault{1}$ -->
     <g transform="translate(410.196903 223.165016)scale(0.1 -0.1)">
      <use xlink:href="#CMR17-31" transform="scale(0.996264)"/>
     </g>
    </g>
   </g>
   <g id="xtick_14">
    <g id="line2d_17">
     <path d="M 391.189002 184.154649 
L 395.229043 184.187678 
" style="fill: none; stroke: #000000; stroke-width: 0.8; stroke-linecap: square"/>
    </g>
    <g id="text_17">
     <!-- $\mathdefault{2}$ -->
     <g transform="translate(410.196903 191.087158)scale(0.1 -0.1)">
      <use xlink:href="#CMR17-32" transform="scale(0.996264)"/>
     </g>
    </g>
   </g>
   <g id="xtick_15">
    <g id="line2d_18">
     <path d="M 391.189002 152.10481 
L 395.229043 152.071781 
" style="fill: none; stroke: #000000; stroke-width: 0.8; stroke-linecap: square"/>
    </g>
    <g id="text_18">
     <!-- $\mathdefault{3}$ -->
     <g transform="translate(410.196903 159.009299)scale(0.1 -0.1)">
      <use xlink:href="#CMR17-33" transform="scale(0.996264)"/>
     </g>
    </g>
   </g>
   <g id="xtick_16">
    <g id="line2d_19">
     <path d="M 391.189002 120.054971 
L 395.229043 119.955884 
" style="fill: none; stroke: #000000; stroke-width: 0.8; stroke-linecap: square"/>
    </g>
    <g id="text_19">
     <!-- $\mathdefault{4}$ -->
     <g transform="translate(410.196903 126.93144)scale(0.1 -0.1)">
      <use xlink:href="#CMR17-34" transform="scale(0.996264)"/>
     </g>
    </g>
   </g>
   <g id="xtick_17">
    <g id="line2d_20">
     <path d="M 391.189002 88.005132 
L 395.229043 87.839987 
" style="fill: none; stroke: #000000; stroke-width: 0.8; stroke-linecap: square"/>
    </g>
    <g id="text_20">
     <!-- $\mathdefault{5}$ -->
     <g transform="translate(410.196903 94.853581)scale(0.1 -0.1)">
      <use xlink:href="#CMR17-35" transform="scale(0.996264)"/>
     </g>
    </g>
   </g>
  </g>
  <g id="axes_1">
   <g id="line2d_21">
    <path d="M 312.40316 251.62353 
L 233.408896 83.988807 
" clip-path="url(#p719e3c1f3c)" style="fill: none; stroke: #ff0000; stroke-width: 1.5; stroke-linecap: square"/>
   </g>
   <g id="line2d_22">
    <path d="M 312.40316 251.62353 
L 280.270531 120.457683 
" clip-path="url(#p719e3c1f3c)" style="fill: none; stroke: #00ff00; stroke-width: 1.5; stroke-linecap: square"/>
   </g>
   <g id="line2d_23">
    <path d="M 312.40316 251.62353 
L 219.259458 -1 
" clip-path="url(#p719e3c1f3c)" style="fill: none; stroke: #0016ff; stroke-width: 1.5; stroke-linecap: square"/>
   </g>
   <g id="line2d_24">
    <path d="M 312.40316 251.62353 
L 208.701378 153.093553 
" clip-path="url(#p719e3c1f3c)" style="fill: none; stroke: #f400ff; stroke-width: 1.5; stroke-linecap: square"/>
   </g>
   <g id="Poly3DCollection_1">
    <path d="M 265.41379 25.210339 
L 251.353959 -14.748525 
L 244.228582 -26.666067 
L 258.285802 13.349984 
z
" clip-path="url(#p719e3c1f3c)" style="fill: #0000f5; fill-opacity: 0.1"/>
    <path d="M 258.285802 13.349984 
L 244.228582 -26.666067 
L 237.050071 -38.672478 
L 251.104248 1.4005 
z
" clip-path="url(#p719e3c1f3c)" style="fill: #0000f5; fill-opacity: 0.1"/>
    <path d="M 251.104248 1.4005 
L 237.050071 -38.672478 
L 229.81783 -50.768754 
L 243.868521 -10.639123 
z
" clip-path="url(#p719e3c1f3c)" style="fill: #0000f5; fill-opacity: 0.1"/>
    <path d="M 279.692505 65.791286 
L 265.41379 25.210339 
L 258.285802 13.349984 
L 272.562693 53.991361 
z
" clip-path="url(#p719e3c1f3c)" style="fill: #0000f5; fill-opacity: 0.1"/>
    <path d="M 243.868521 -10.639123 
L 229.81783 -50.768754 
L 222.531254 -62.955909 
L 236.578007 -22.769908 
z
" clip-path="url(#p719e3c1f3c)" style="fill: #0000f5; fill-opacity: 0.1"/>
    <path d="M 272.562693 53.991361 
L 258.285802 13.349984 
L 251.104248 1.4005 
L 265.378879 42.102063 
z
" clip-path="url(#p719e3c1f3c)" style="fill: #0000f5; fill-opacity: 0.1"/>
    <path d="M 236.578007 -22.769908 
L 222.531254 -62.955909 
L 215.189727 -75.234972 
L 229.232079 -34.992896 
z
" clip-path="url(#p719e3c1f3c)" style="fill: #0000f5; fill-opacity: 0.1"/>
    <path d="M 265.378879 42.102063 
L 251.104248 1.4005 
L 243.868521 -10.639123 
L 258.14045 30.122375 
z
" clip-path="url(#p719e3c1f3c)" style="fill: #0000f5; fill-opacity: 0.1"/>
    <path d="M 294.195257 107.008959 
L 279.692505 65.791286 
L 272.562693 53.991361 
L 287.064442 95.272834 
z
" clip-path="url(#p719e3c1f3c)" style="fill: #0000f5; fill-opacity: 0.1"/>
    <path d="M 229.232079 -34.992896 
L 215.189727 -75.234972 
L 207.792626 -87.606984 
L 221.830105 -47.30914 
z
" clip-path="url(#p719e3c1f3c)" style="fill: #0000f5; fill-opacity: 0.1"/>
    <path d="M 258.14045 30.122375 
L 243.868521 -10.639123 
L 236.578007 -22.769908 
L 250.846779 18.051262 
z
" clip-path="url(#p719e3c1f3c)" style="fill: #0000f5; fill-opacity: 0.1"/>
    <path d="M 287.064442 95.272834 
L 272.562693 53.991361 
L 265.378879 42.102063 
L 279.879193 83.447119 
z
" clip-path="url(#p719e3c1f3c)" style="fill: #0000f5; fill-opacity: 0.1"/>
    <path d="M 221.830105 -47.30914 
L 207.792626 -87.606984 
L 200.339318 -100.073007 
L 214.37144 -59.719712 
z
" clip-path="url(#p719e3c1f3c)" style="fill: #0000f5; fill-opacity: 0.1"/>
    <path d="M 250.846779 18.051262 
L 236.578007 -22.769908 
L 229.232079 -34.992896 
L 243.497231 5.887672 
z
" clip-path="url(#p719e3c1f3c)" style="fill: #0000f5; fill-opacity: 0.1"/>
    <path d="M 279.879193 83.447119 
L 265.378879 42.102063 
L 258.14045 30.122375 
L 272.638882 71.530783 
z
" clip-path="url(#p719e3c1f3c)" style="fill: #0000f5; fill-opacity: 0.1"/>
    <path d="M 308.92736 148.87846 
L 294.195257 107.008959 
L 287.064442 95.272834 
L 301.796406 137.209648 
z
" clip-path="url(#p719e3c1f3c)" style="fill: #0000f5; fill-opacity: 0.1"/>
    <path d="M 214.37144 -59.719712 
L 200.339318 -100.073007 
L 192.829159 -112.634115 
L 206.855431 -72.225701 
z
" clip-path="url(#p719e3c1f3c)" style="fill: #0000f5; fill-opacity: 0.1"/>
    <path d="M 243.497231 5.887672 
L 229.232079 -34.992896 
L 221.830105 -47.30914 
L 236.091163 -6.36946 
z
" clip-path="url(#p719e3c1f3c)" style="fill: #0000f5; fill-opacity: 0.1"/>
    <path d="M 272.638882 71.530783 
L 258.14045 30.122375 
L 250.846779 18.051262 
L 265.342876 59.52278 
z
" clip-path="url(#p719e3c1f3c)" style="fill: #0000f5; fill-opacity: 0.1"/>
    <path d="M 301.796406 137.209648 
L 287.064442 95.272834 
L 279.879193 83.447119 
L 294.610583 125.451049 
z
" clip-path="url(#p719e3c1f3c)" style="fill: #0000f5; fill-opacity: 0.1"/>
    <path d="M 206.855431 -72.225701 
L 192.829159 -112.634115 
L 185.261496 -125.2914 
L 199.281413 -84.828211 
z
" clip-path="url(#p719e3c1f3c)" style="fill: #0000f5; fill-opacity: 0.1"/>
    <path d="M 236.091163 -6.36946 
L 221.830105 -47.30914 
L 214.37144 -59.719712 
L 228.627919 -18.721219 
z
" clip-path="url(#p719e3c1f3c)" style="fill: #0000f5; fill-opacity: 0.1"/>
    <path d="M 265.342876 59.52278 
L 250.846779 18.051262 
L 243.497231 5.887672 
L 257.990528 47.422049 
z
" clip-path="url(#p719e3c1f3c)" style="fill: #0000f5; fill-opacity: 0.1"/>
    <path d="M 294.610583 125.451049 
L 279.879193 83.447119 
L 272.638882 71.530783 
L 287.369254 113.601623 
z
" clip-path="url(#p719e3c1f3c)" style="fill: #0000f5; fill-opacity: 0.1"/>
    <path d="M 323.894298 191.415376 
L 308.92736 148.87846 
L 301.796406 137.209648 
L 316.76411 179.817532 
z
" clip-path="url(#p719e3c1f3c)" style="fill: #0000f5; fill-opacity: 0.1"/>
    <path d="M 199.281413 -84.828211 
L 185.261496 -125.2914 
L 177.635667 -138.045972 
L 191.648713 -97.528363 
z
" clip-path="url(#p719e3c1f3c)" style="fill: #0000f5; fill-opacity: 0.1"/>
    <path d="M 228.627919 -18.721219 
L 214.37144 -59.719712 
L 206.855431 -72.225701 
L 221.106834 -31.168704 
z
" clip-path="url(#p719e3c1f3c)" style="fill: #0000f5; fill-opacity: 0.1"/>
    <path d="M 257.990528 47.422049 
L 243.497231 5.887672 
L 236.091163 -6.36946 
L 250.581183 35.227512 
z
" clip-path="url(#p719e3c1f3c)" style="fill: #0000f5; fill-opacity: 0.1"/>
    <path d="M 287.369254 113.601623 
L 272.638882 71.530783 
L 265.342876 59.52278 
L 280.071774 101.660313 
z
" clip-path="url(#p719e3c1f3c)" style="fill: #0000f5; fill-opacity: 0.1"/>
    <path d="M 316.76411 179.817532 
L 301.796406 137.209648 
L 294.610583 125.451049 
L 309.578618 168.12973 
z
" clip-path="url(#p719e3c1f3c)" style="fill: #0000f5; fill-opacity: 0.1"/>
    <path d="M 191.648713 -97.528363 
L 177.635667 -138.045972 
L 169.950998 -150.898957 
L 183.956646 -110.327297 
z
" clip-path="url(#p719e3c1f3c)" style="fill: #0000f5; fill-opacity: 0.1"/>
    <path d="M 221.106834 -31.168704 
L 206.855431 -72.225701 
L 199.281413 -84.828211 
L 213.527235 -43.713031 
z
" clip-path="url(#p719e3c1f3c)" style="fill: #0000f5; fill-opacity: 0.1"/>
    <path d="M 250.581183 35.227512 
L 236.091163 -6.36946 
L 228.627919 -18.721219 
L 243.114178 22.938073 
z
" clip-path="url(#p719e3c1f3c)" style="fill: #0000f5; fill-opacity: 0.1"/>
    <path d="M 280.071774 101.660313 
L 265.342876 59.52278 
L 257.990528 47.422049 
L 272.717486 89.626046 
z
" clip-path="url(#p719e3c1f3c)" style="fill: #0000f5; fill-opacity: 0.1"/>
    <path d="M 309.578618 168.12973 
L 294.610583 125.451049 
L 287.369254 113.601623 
L 302.337175 156.350919 
z
" clip-path="url(#p719e3c1f3c)" style="fill: #0000f5; fill-opacity: 0.1"/>
    <path d="M 339.101731 234.635793 
L 323.894298 191.415376 
L 316.76411 179.817532 
L 331.973258 223.112723 
z
" clip-path="url(#p719e3c1f3c)" style="fill: #0000f5; fill-opacity: 0.1"/>
    <path d="M 183.956646 -110.327297 
L 169.950998 -150.898957 
L 162.206806 -163.851497 
L 176.204516 -123.22617 
z
" clip-path="url(#p719e3c1f3c)" style="fill: #0000f5; fill-opacity: 0.1"/>
    <path d="M 213.527235 -43.713031 
L 199.281413 -84.828211 
L 191.648713 -97.528363 
L 205.888435 -56.355337 
z
" clip-path="url(#p719e3c1f3c)" style="fill: #0000f5; fill-opacity: 0.1"/>
    <path d="M 243.114178 22.938073 
L 228.627919 -18.721219 
L 221.106834 -31.168704 
L 235.588834 10.55262 
z
" clip-path="url(#p719e3c1f3c)" style="fill: #0000f5; fill-opacity: 0.1"/>
    <path d="M 272.717486 89.626046 
L 257.990528 47.422049 
L 250.581183 35.227512 
L 265.305726 77.497733 
z
" clip-path="url(#p719e3c1f3c)" style="fill: #0000f5; fill-opacity: 0.1"/>
    <path d="M 302.337175 156.350919 
L 287.369254 113.601623 
L 280.071774 101.660313 
L 295.039126 144.480034 
z
" clip-path="url(#p719e3c1f3c)" style="fill: #0000f5; fill-opacity: 0.1"/>
    <path d="M 331.973258 223.112723 
L 316.76411 179.817532 
L 309.578618 168.12973 
L 324.789046 211.499552 
z
" clip-path="url(#p719e3c1f3c)" style="fill: #0000f5; fill-opacity: 0.1"/>
    <path d="M 176.204516 -123.22617 
L 162.206806 -163.851497 
L 154.402396 -176.904754 
L 168.391618 -136.226156 
z
" clip-path="url(#p719e3c1f3c)" style="fill: #0000f5; fill-opacity: 0.1"/>
    <path d="M 205.888435 -56.355337 
L 191.648713 -97.528363 
L 183.956646 -110.327297 
L 198.189738 -69.096773 
z
" clip-path="url(#p719e3c1f3c)" style="fill: #0000f5; fill-opacity: 0.1"/>
    <path d="M 235.588834 10.55262 
L 221.106834 -31.168704 
L 213.527235 -43.713031 
L 228.004467 -1.929976 
z
" clip-path="url(#p719e3c1f3c)" style="fill: #0000f5; fill-opacity: 0.1"/>
    <path d="M 265.305726 77.497733 
L 250.581183 35.227512 
L 243.114178 22.938073 
L 257.835817 65.274268 
z
" clip-path="url(#p719e3c1f3c)" style="fill: #0000f5; fill-opacity: 0.1"/>
    <path d="M 295.039126 144.480034 
L 280.071774 101.660313 
L 272.717486 89.626046 
L 287.683804 132.515988 
z
" clip-path="url(#p719e3c1f3c)" style="fill: #0000f5; fill-opacity: 0.1"/>
    <path d="M 324.789046 211.499552 
L 309.578618 168.12973 
L 302.337175 156.350919 
L 317.54844 199.795218 
z
" clip-path="url(#p719e3c1f3c)" style="fill: #0000f5; fill-opacity: 0.1"/>
    <path d="M 354.555502 278.556319 
L 339.101731 234.635793 
L 331.973258 223.112723 
L 347.429739 267.111988 
z
" clip-path="url(#p719e3c1f3c)" style="fill: #0000f5; fill-opacity: 0.1"/>
    <path d="M 168.391618 -136.226156 
L 154.402396 -176.904754 
L 146.537063 -190.059908 
L 160.517233 -149.32845 
z
" clip-path="url(#p719e3c1f3c)" style="fill: #0000f5; fill-opacity: 0.1"/>
    <path d="M 198.189738 -69.096773 
L 183.956646 -110.327297 
L 176.204516 -123.22617 
L 190.430437 -81.93851 
z
" clip-path="url(#p719e3c1f3c)" style="fill: #0000f5; fill-opacity: 0.1"/>
    <path d="M 228.004467 -1.929976 
L 213.527235 -43.713031 
L 205.888435 -56.355337 
L 220.360379 -14.510863 
z
" clip-path="url(#p719e3c1f3c)" style="fill: #0000f5; fill-opacity: 0.1"/>
    <path d="M 257.835817 65.274268 
L 243.114178 22.938073 
L 235.588834 10.55262 
L 250.307072 52.954525 
z
" clip-path="url(#p719e3c1f3c)" style="fill: #0000f5; fill-opacity: 0.1"/>
    <path d="M 287.683804 132.515988 
L 272.717486 89.626046 
L 265.305726 77.497733 
L 280.270531 120.457683 
z
" clip-path="url(#p719e3c1f3c)" style="fill: #0000f5; fill-opacity: 0.1"/>
    <path d="M 317.54844 199.795218 
L 302.337175 156.350919 
L 295.039126 144.480034 
L 310.250771 187.998644 
z
" clip-path="url(#p719e3c1f3c)" style="fill: #0000f5; fill-opacity: 0.1"/>
    <path d="M 347.429739 267.111988 
L 331.973258 223.112723 
L 324.789046 211.499552 
L 340.247804 255.57744 
z
" clip-path="url(#p719e3c1f3c)" style="fill: #0000f5; fill-opacity: 0.1"/>
    <path d="M 160.517233 -149.32845 
L 146.537063 -190.059908 
L 138.610092 -203.318155 
L 152.580634 -162.534264 
z
" clip-path="url(#p719e3c1f3c)" style="fill: #0000f5; fill-opacity: 0.1"/>
    <path d="M 190.430437 -81.93851 
L 176.204516 -123.22617 
L 168.391618 -136.226156 
L 182.609813 -94.881737 
z
" clip-path="url(#p719e3c1f3c)" style="fill: #0000f5; fill-opacity: 0.1"/>
    <path d="M 220.360379 -14.510863 
L 205.888435 -56.355337 
L 198.189738 -69.096773 
L 212.655861 -27.191205 
z
" clip-path="url(#p719e3c1f3c)" style="fill: #0000f5; fill-opacity: 0.1"/>
    <path d="M 250.307072 52.954525 
L 235.588834 10.55262 
L 228.004467 -1.929976 
L 242.718793 40.537363 
z
" clip-path="url(#p719e3c1f3c)" style="fill: #0000f5; fill-opacity: 0.1"/>
    <path d="M 280.270531 120.457683 
L 265.305726 77.497733 
L 257.835817 65.274268 
L 272.798622 108.303999 
z
" clip-path="url(#p719e3c1f3c)" style="fill: #0000f5; fill-opacity: 0.1"/>
    <path d="M 310.250771 187.998644 
L 295.039126 144.480034 
L 287.683804 132.515988 
L 302.895363 176.108736 
z
" clip-path="url(#p719e3c1f3c)" style="fill: #0000f5; fill-opacity: 0.1"/>
    <path d="M 340.247804 255.57744 
L 324.789046 211.499552 
L 317.54844 199.795218 
L 333.00903 243.951606 
z
" clip-path="url(#p719e3c1f3c)" style="fill: #0000f5; fill-opacity: 0.1"/>
    <path d="M 370.261646 323.194103 
L 354.555502 278.556319 
L 347.429739 267.111988 
L 363.139637 311.832641 
z
" clip-path="url(#p719e3c1f3c)" style="fill: #0000f5; fill-opacity: 0.1"/>
    <path d="M 152.580634 -162.534264 
L 138.610092 -203.318155 
L 130.620754 -216.680714 
L 144.58108 -175.84483 
z
" clip-path="url(#p719e3c1f3c)" style="fill: #0000f5; fill-opacity: 0.1"/>
    <path d="M 182.609813 -94.881737 
L 168.391618 -136.226156 
L 160.517233 -149.32845 
L 174.727137 -107.927661 
z
" clip-path="url(#p719e3c1f3c)" style="fill: #0000f5; fill-opacity: 0.1"/>
    <path d="M 212.655861 -27.191205 
L 198.189738 -69.096773 
L 190.430437 -81.93851 
L 204.890195 -39.972188 
z
" clip-path="url(#p719e3c1f3c)" style="fill: #0000f5; fill-opacity: 0.1"/>
    <path d="M 242.718793 40.537363 
L 228.004467 -1.929976 
L 220.360379 -14.510863 
L 235.07027 28.021621 
z
" clip-path="url(#p719e3c1f3c)" style="fill: #0000f5; fill-opacity: 0.1"/>
    <path d="M 272.798622 108.303999 
L 257.835817 65.274268 
L 250.307072 52.954525 
L 265.267376 96.0538 
z
" clip-path="url(#p719e3c1f3c)" style="fill: #0000f5; fill-opacity: 0.1"/>
    <path d="M 302.895363 176.108736 
L 287.683804 132.515988 
L 280.270531 120.457683 
L 295.481527 164.124381 
z
" clip-path="url(#p719e3c1f3c)" style="fill: #0000f5; fill-opacity: 0.1"/>
    <path d="M 333.00903 243.951606 
L 317.54844 199.795218 
L 310.250771 187.998644 
L 325.712738 232.233397 
z
" clip-path="url(#p719e3c1f3c)" style="fill: #0000f5; fill-opacity: 0.1"/>
    <path d="M 363.139637 311.832641 
L 347.429739 267.111988 
L 340.247804 255.57744 
L 355.961023 300.380879 
z
" clip-path="url(#p719e3c1f3c)" style="fill: #0000f5; fill-opacity: 0.1"/>
    <path d="M 144.58108 -175.84483 
L 130.620754 -216.680714 
L 122.56831 -230.148819 
L 136.517819 -189.261399 
z
" clip-path="url(#p719e3c1f3c)" style="fill: #0000f5; fill-opacity: 0.1"/>
    <path d="M 174.727137 -107.927661 
L 160.517233 -149.32845 
L 152.580634 -162.534264 
L 166.781666 -121.077511 
z
" clip-path="url(#p719e3c1f3c)" style="fill: #0000f5; fill-opacity: 0.1"/>
    <path d="M 204.890195 -39.972188 
L 190.430437 -81.93851 
L 182.609813 -94.881737 
L 197.06265 -52.855015 
z
" clip-path="url(#p719e3c1f3c)" style="fill: #0000f5; fill-opacity: 0.1"/>
    <path d="M 235.07027 28.021621 
L 220.360379 -14.510863 
L 212.655861 -27.191205 
L 227.360785 15.406122 
z
" clip-path="url(#p719e3c1f3c)" style="fill: #0000f5; fill-opacity: 0.1"/>
    <path d="M 265.267376 96.0538 
L 250.307072 52.954525 
L 242.718793 40.537363 
L 257.676085 83.705933 
z
" clip-path="url(#p719e3c1f3c)" style="fill: #0000f5; fill-opacity: 0.1"/>
    <path d="M 295.481527 164.124381 
L 280.270531 120.457683 
L 272.798622 108.303999 
L 288.008566 152.04445 
z
" clip-path="url(#p719e3c1f3c)" style="fill: #0000f5; fill-opacity: 0.1"/>
    <path d="M 325.712738 232.233397 
L 310.250771 187.998644 
L 302.895363 176.108736 
L 318.358241 220.421707 
z
" clip-path="url(#p719e3c1f3c)" style="fill: #0000f5; fill-opacity: 0.1"/>
    <path d="M 355.961023 300.380879 
L 340.247804 255.57744 
L 333.00903 243.951606 
L 348.725126 288.837736 
z
" clip-path="url(#p719e3c1f3c)" style="fill: #0000f5; fill-opacity: 0.1"/>
    <path d="M 386.226396 368.56686 
L 370.261646 323.194103 
L 363.139637 311.832641 
L 379.109235 357.29257 
z
" clip-path="url(#p719e3c1f3c)" style="fill: #0000f5; fill-opacity: 0.1"/>
    <path d="M 136.517819 -189.261399 
L 122.56831 -230.148819 
L 114.452011 -243.723726 
L 128.390086 -202.785242 
z
" clip-path="url(#p719e3c1f3c)" style="fill: #0000f5; fill-opacity: 0.1"/>
    <path d="M 166.781666 -121.077511 
L 152.580634 -162.534264 
L 144.58108 -175.84483 
L 158.772648 -134.332532 
z
" clip-path="url(#p719e3c1f3c)" style="fill: #0000f5; fill-opacity: 0.1"/>
    <path d="M 197.06265 -52.855015 
L 182.609813 -94.881737 
L 174.727137 -107.927661 
L 189.172482 -65.840906 
z
" clip-path="url(#p719e3c1f3c)" style="fill: #0000f5; fill-opacity: 0.1"/>
    <path d="M 227.360785 15.406122 
L 212.655861 -27.191205 
L 204.890195 -39.972188 
L 219.589604 2.689668 
z
" clip-path="url(#p719e3c1f3c)" style="fill: #0000f5; fill-opacity: 0.1"/>
    <path d="M 257.676085 83.705933 
L 242.718793 40.537363 
L 235.07027 28.021621 
L 250.024028 71.259223 
z
" clip-path="url(#p719e3c1f3c)" style="fill: #0000f5; fill-opacity: 0.1"/>
    <path d="M 288.008566 152.04445 
L 272.798622 108.303999 
L 265.267376 96.0538 
L 280.475768 139.867794 
z
" clip-path="url(#p719e3c1f3c)" style="fill: #0000f5; fill-opacity: 0.1"/>
    <path d="M 318.358241 220.421707 
L 302.895363 176.108736 
L 295.481527 164.124381 
L 310.94484 208.515413 
z
" clip-path="url(#p719e3c1f3c)" style="fill: #0000f5; fill-opacity: 0.1"/>
    <path d="M 348.725126 288.837736 
L 333.00903 243.951606 
L 325.712738 232.233397 
L 341.431258 277.202114 
z
" clip-path="url(#p719e3c1f3c)" style="fill: #0000f5; fill-opacity: 0.1"/>
    <path d="M 379.109235 357.29257 
L 363.139637 311.832641 
L 355.961023 300.380879 
L 371.935037 345.92793 
z
" clip-path="url(#p719e3c1f3c)" style="fill: #0000f5; fill-opacity: 0.1"/>
    <path d="M 128.390086 -202.785242 
L 114.452011 -243.723726 
L 106.271093 -257.406711 
L 120.197106 -216.417651 
z
" clip-path="url(#p719e3c1f3c)" style="fill: #0000f5; fill-opacity: 0.1"/>
    <path d="M 158.772648 -134.332532 
L 144.58108 -175.84483 
L 136.517819 -189.261399 
L 150.699317 -147.693991 
z
" clip-path="url(#p719e3c1f3c)" style="fill: #0000f5; fill-opacity: 0.1"/>
    <path d="M 189.172482 -65.840906 
L 174.727137 -107.927661 
L 166.781666 -121.077511 
L 181.218939 -78.931105 
z
" clip-path="url(#p719e3c1f3c)" style="fill: #0000f5; fill-opacity: 0.1"/>
    <path d="M 219.589604 2.689668 
L 204.890195 -39.972188 
L 197.06265 -52.855015 
L 211.755985 -10.128959 
z
" clip-path="url(#p719e3c1f3c)" style="fill: #0000f5; fill-opacity: 0.1"/>
    <path d="M 250.024028 71.259223 
L 235.07027 28.021621 
L 227.360785 15.406122 
L 242.310471 58.712481 
z
" clip-path="url(#p719e3c1f3c)" style="fill: #0000f5; fill-opacity: 0.1"/>
    <path d="M 280.475768 139.867794 
L 265.267376 96.0538 
L 257.676085 83.705933 
L 272.882412 127.593247 
z
" clip-path="url(#p719e3c1f3c)" style="fill: #0000f5; fill-opacity: 0.1"/>
    <path d="M 310.94484 208.515413 
L 295.481527 164.124381 
L 288.008566 152.04445 
L 303.471823 196.513375 
z
" clip-path="url(#p719e3c1f3c)" style="fill: #0000f5; fill-opacity: 0.1"/>
    <path d="M 341.431258 277.202114 
L 325.712738 232.233397 
L 318.358241 220.421707 
L 334.078719 265.472897 
z
" clip-path="url(#p719e3c1f3c)" style="fill: #0000f5; fill-opacity: 0.1"/>
    <path d="M 371.935037 345.92793 
L 355.961023 300.380879 
L 348.725126 288.837736 
L 364.703115 334.471848 
z
" clip-path="url(#p719e3c1f3c)" style="fill: #0000f5; fill-opacity: 0.1"/>
    <path d="M 150.699317 -147.693991 
L 136.517819 -189.261399 
L 128.390086 -202.785242 
L 142.560896 -161.163176 
z
" clip-path="url(#p719e3c1f3c)" style="fill: #0000f5; fill-opacity: 0.1"/>
    <path d="M 181.218939 -78.931105 
L 166.781666 -121.077511 
L 158.772648 -134.332532 
L 173.201252 -92.126873 
z
" clip-path="url(#p719e3c1f3c)" style="fill: #0000f5; fill-opacity: 0.1"/>
    <path d="M 211.755985 -10.128959 
L 197.06265 -52.855015 
L 189.172482 -65.840906 
L 203.859172 -23.050994 
z
" clip-path="url(#p719e3c1f3c)" style="fill: #0000f5; fill-opacity: 0.1"/>
    <path d="M 242.310471 58.712481 
L 227.360785 15.406122 
L 219.589604 2.689668 
L 234.534671 46.064494 
z
" clip-path="url(#p719e3c1f3c)" style="fill: #0000f5; fill-opacity: 0.1"/>
    <path d="M 272.882412 127.593247 
L 257.676085 83.705933 
L 250.024028 71.259223 
L 265.227766 115.219624 
z
" clip-path="url(#p719e3c1f3c)" style="fill: #0000f5; fill-opacity: 0.1"/>
    <path d="M 303.471823 196.513375 
L 288.008566 152.04445 
L 280.475768 139.867794 
L 295.93847 184.414432 
z
" clip-path="url(#p719e3c1f3c)" style="fill: #0000f5; fill-opacity: 0.1"/>
    <path d="M 334.078719 265.472897 
L 318.358241 220.421707 
L 310.94484 208.515413 
L 326.666799 253.648952 
z
" clip-path="url(#p719e3c1f3c)" style="fill: #0000f5; fill-opacity: 0.1"/>
    <path d="M 364.703115 334.471848 
L 348.725126 288.837736 
L 341.431258 277.202114 
L 357.412769 322.923217 
z
" clip-path="url(#p719e3c1f3c)" style="fill: #0000f5; fill-opacity: 0.1"/>
    <path d="M 142.560896 -161.163176 
L 128.390086 -202.785242 
L 120.197106 -216.417651 
L 134.356594 -174.741395 
z
" clip-path="url(#p719e3c1f3c)" style="fill: #0000f5; fill-opacity: 0.1"/>
    <path d="M 173.201252 -92.126873 
L 158.772648 -134.332532 
L 150.699317 -147.693991 
L 165.118642 -105.429491 
z
" clip-path="url(#p719e3c1f3c)" style="fill: #0000f5; fill-opacity: 0.1"/>
    <path d="M 203.859172 -23.050994 
L 189.172482 -65.840906 
L 181.218939 -78.931105 
L 195.898396 -36.077694 
z
" clip-path="url(#p719e3c1f3c)" style="fill: #0000f5; fill-opacity: 0.1"/>
    <path d="M 234.534671 46.064494 
L 219.589604 2.689668 
L 211.755985 -10.128959 
L 226.695871 33.314032 
z
" clip-path="url(#p719e3c1f3c)" style="fill: #0000f5; fill-opacity: 0.1"/>
    <path d="M 265.227766 115.219624 
L 250.024028 71.259223 
L 242.310471 58.712481 
L 257.511083 102.745721 
z
" clip-path="url(#p719e3c1f3c)" style="fill: #0000f5; fill-opacity: 0.1"/>
    <path d="M 295.93847 184.414432 
L 280.475768 139.867794 
L 272.882412 127.593247 
L 288.344046 172.217407 
z
" clip-path="url(#p719e3c1f3c)" style="fill: #0000f5; fill-opacity: 0.1"/>
    <path d="M 326.666799 253.648952 
L 310.94484 208.515413 
L 303.471823 196.513375 
L 319.194776 241.729125 
z
" clip-path="url(#p719e3c1f3c)" style="fill: #0000f5; fill-opacity: 0.1"/>
    <path d="M 357.412769 322.923217 
L 341.431258 277.202114 
L 334.078719 265.472897 
L 350.063289 311.28091 
z
" clip-path="url(#p719e3c1f3c)" style="fill: #0000f5; fill-opacity: 0.1"/>
    <path d="M 165.118642 -105.429491 
L 150.699317 -147.693991 
L 142.560896 -161.163176 
L 156.970319 -118.840264 
z
" clip-path="url(#p719e3c1f3c)" style="fill: #0000f5; fill-opacity: 0.1"/>
    <path d="M 195.898396 -36.077694 
L 181.218939 -78.931105 
L 173.201252 -92.126873 
L 187.872879 -49.210335 
z
" clip-path="url(#p719e3c1f3c)" style="fill: #0000f5; fill-opacity: 0.1"/>
    <path d="M 226.695871 33.314032 
L 211.755985 -10.128959 
L 203.859172 -23.050994 
L 218.793303 20.459846 
z
" clip-path="url(#p719e3c1f3c)" style="fill: #0000f5; fill-opacity: 0.1"/>
    <path d="M 257.511083 102.745721 
L 242.310471 58.712481 
L 234.534671 46.064494 
L 249.731607 90.170313 
z
" clip-path="url(#p719e3c1f3c)" style="fill: #0000f5; fill-opacity: 0.1"/>
    <path d="M 288.344046 172.217407 
L 272.882412 127.593247 
L 265.227766 115.219624 
L 280.687806 159.921102 
z
" clip-path="url(#p719e3c1f3c)" style="fill: #0000f5; fill-opacity: 0.1"/>
    <path d="M 319.194776 241.729125 
L 303.471823 196.513375 
L 295.93847 184.414432 
L 311.661915 229.712247 
z
" clip-path="url(#p719e3c1f3c)" style="fill: #0000f5; fill-opacity: 0.1"/>
    <path d="M 350.063289 311.28091 
L 334.078719 265.472897 
L 326.666799 253.648952 
L 342.653951 299.543784 
z
" clip-path="url(#p719e3c1f3c)" style="fill: #0000f5; fill-opacity: 0.1"/>
    <path d="M 156.970319 -118.840264 
L 142.560896 -161.163176 
L 134.356594 -174.741395 
L 148.755477 -132.360516 
z
" clip-path="url(#p719e3c1f3c)" style="fill: #0000f5; fill-opacity: 0.1"/>
    <path d="M 187.872879 -49.210335 
L 173.201252 -92.126873 
L 165.118642 -105.429491 
L 179.781826 -62.450215 
z
" clip-path="url(#p719e3c1f3c)" style="fill: #0000f5; fill-opacity: 0.1"/>
    <path d="M 218.793303 20.459846 
L 203.859172 -23.050994 
L 195.898396 -36.077694 
L 210.826185 7.500664 
z
" clip-path="url(#p719e3c1f3c)" style="fill: #0000f5; fill-opacity: 0.1"/>
    <path d="M 249.731607 90.170313 
L 234.534671 46.064494 
L 226.695871 33.314032 
L 241.888568 77.492157 
z
" clip-path="url(#p719e3c1f3c)" style="fill: #0000f5; fill-opacity: 0.1"/>
    <path d="M 280.687806 159.921102 
L 265.227766 115.219624 
L 257.511083 102.745721 
L 272.968991 147.5243 
z
" clip-path="url(#p719e3c1f3c)" style="fill: #0000f5; fill-opacity: 0.1"/>
    <path d="M 311.661915 229.712247 
L 295.93847 184.414432 
L 288.344046 172.217407 
L 304.06747 217.597127 
z
" clip-path="url(#p719e3c1f3c)" style="fill: #0000f5; fill-opacity: 0.1"/>
    <path d="M 342.653951 299.543784 
L 326.666799 253.648952 
L 319.194776 241.729125 
L 335.184021 287.710675 
z
" clip-path="url(#p719e3c1f3c)" style="fill: #0000f5; fill-opacity: 0.1"/>
    <path d="M 179.781826 -62.450215 
L 165.118642 -105.429491 
L 156.970319 -118.840264 
L 171.624433 -75.798654 
z
" clip-path="url(#p719e3c1f3c)" style="fill: #0000f5; fill-opacity: 0.1"/>
    <path d="M 210.826185 7.500664 
L 195.898396 -36.077694 
L 187.872879 -49.210335 
L 202.793722 -5.564806 
z
" clip-path="url(#p719e3c1f3c)" style="fill: #0000f5; fill-opacity: 0.1"/>
    <path d="M 241.888568 77.492157 
L 226.695871 33.314032 
L 218.793303 20.459846 
L 233.981184 64.709988 
z
" clip-path="url(#p719e3c1f3c)" style="fill: #0000f5; fill-opacity: 0.1"/>
    <path d="M 272.968991 147.5243 
L 257.511083 102.745721 
L 249.731607 90.170313 
L 265.186832 135.025763 
z
" clip-path="url(#p719e3c1f3c)" style="fill: #0000f5; fill-opacity: 0.1"/>
    <path d="M 304.06747 217.597127 
L 288.344046 172.217407 
L 280.687806 159.921102 
L 296.410683 205.382555 
z
" clip-path="url(#p719e3c1f3c)" style="fill: #0000f5; fill-opacity: 0.1"/>
    <path d="M 335.184021 287.710675 
L 319.194776 241.729125 
L 311.661915 229.712247 
L 327.652754 275.7804 
z
" clip-path="url(#p719e3c1f3c)" style="fill: #0000f5; fill-opacity: 0.1"/>
    <path d="M 171.624433 -75.798654 
L 156.970319 -118.840264 
L 148.755477 -132.360516 
L 163.399878 -89.256991 
z
" clip-path="url(#p719e3c1f3c)" style="fill: #0000f5; fill-opacity: 0.1"/>
    <path d="M 202.793722 -5.564806 
L 187.872879 -49.210335 
L 179.781826 -62.450215 
L 194.695109 -18.737876 
z
" clip-path="url(#p719e3c1f3c)" style="fill: #0000f5; fill-opacity: 0.1"/>
    <path d="M 233.981184 64.709988 
L 218.793303 20.459846 
L 210.826185 7.500664 
L 226.008659 51.82252 
z
" clip-path="url(#p719e3c1f3c)" style="fill: #0000f5; fill-opacity: 0.1"/>
    <path d="M 265.186832 135.025763 
L 249.731607 90.170313 
L 241.888568 77.492157 
L 257.340545 122.424234 
z
" clip-path="url(#p719e3c1f3c)" style="fill: #0000f5; fill-opacity: 0.1"/>
    <path d="M 296.410683 205.382555 
L 280.687806 159.921102 
L 272.968991 147.5243 
L 288.690784 193.067301 
z
" clip-path="url(#p719e3c1f3c)" style="fill: #0000f5; fill-opacity: 0.1"/>
    <path d="M 327.652754 275.7804 
L 311.661915 229.712247 
L 304.06747 217.597127 
L 320.059391 263.751759 
z
" clip-path="url(#p719e3c1f3c)" style="fill: #0000f5; fill-opacity: 0.1"/>
    <path d="M 194.695109 -18.737876 
L 179.781826 -62.450215 
L 171.624433 -75.798654 
L 186.529523 -32.019882 
z
" clip-path="url(#p719e3c1f3c)" style="fill: #0000f5; fill-opacity: 0.1"/>
    <path d="M 226.008659 51.82252 
L 210.826185 7.500664 
L 202.793722 -5.564806 
L 217.970186 38.828448 
z
" clip-path="url(#p719e3c1f3c)" style="fill: #0000f5; fill-opacity: 0.1"/>
    <path d="M 257.340545 122.424234 
L 241.888568 77.492157 
L 233.981184 64.709988 
L 249.429336 109.718435 
z
" clip-path="url(#p719e3c1f3c)" style="fill: #0000f5; fill-opacity: 0.1"/>
    <path d="M 288.690784 193.067301 
L 272.968991 147.5243 
L 265.186832 135.025763 
L 280.906988 180.650117 
z
" clip-path="url(#p719e3c1f3c)" style="fill: #0000f5; fill-opacity: 0.1"/>
    <path d="M 320.059391 263.751759 
L 304.06747 217.597127 
L 296.410683 205.382555 
L 312.40316 251.62353 
z
" clip-path="url(#p719e3c1f3c)" style="fill: #0000f5; fill-opacity: 0.1"/>
    <path d="M 186.529523 -32.019882 
L 171.624433 -75.798654 
L 163.399878 -89.256991 
L 178.296132 -45.41218 
z
" clip-path="url(#p719e3c1f3c)" style="fill: #0000f5; fill-opacity: 0.1"/>
    <path d="M 217.970186 38.828448 
L 202.793722 -5.564806 
L 194.695109 -18.737876 
L 209.864943 25.726442 
z
" clip-path="url(#p719e3c1f3c)" style="fill: #0000f5; fill-opacity: 0.1"/>
    <path d="M 249.429336 109.718435 
L 233.981184 64.709988 
L 226.008659 51.82252 
L 241.452393 96.907066 
z
" clip-path="url(#p719e3c1f3c)" style="fill: #0000f5; fill-opacity: 0.1"/>
    <path d="M 280.906988 180.650117 
L 265.186832 135.025763 
L 257.340545 122.424234 
L 273.058499 168.12973 
z
" clip-path="url(#p719e3c1f3c)" style="fill: #0000f5; fill-opacity: 0.1"/>
    <path d="M 312.40316 251.62353 
L 296.410683 205.382555 
L 288.690784 193.067301 
L 304.683277 239.39447 
z
" clip-path="url(#p719e3c1f3c)" style="fill: #0000f5; fill-opacity: 0.1"/>
    <path d="M 209.864943 25.726442 
L 194.695109 -18.737876 
L 186.529523 -32.019882 
L 201.692094 12.515153 
z
" clip-path="url(#p719e3c1f3c)" style="fill: #0000f5; fill-opacity: 0.1"/>
    <path d="M 241.452393 96.907066 
L 226.008659 51.82252 
L 217.970186 38.828448 
L 233.408896 83.988807 
z
" clip-path="url(#p719e3c1f3c)" style="fill: #0000f5; fill-opacity: 0.1"/>
    <path d="M 273.058499 168.12973 
L 257.340545 122.424234 
L 249.429336 109.718435 
L 265.144507 155.504849 
z
" clip-path="url(#p719e3c1f3c)" style="fill: #0000f5; fill-opacity: 0.1"/>
    <path d="M 304.683277 239.39447 
L 288.690784 193.067301 
L 280.906988 180.650117 
L 296.898946 227.063317 
z
" clip-path="url(#p719e3c1f3c)" style="fill: #0000f5; fill-opacity: 0.1"/>
    <path d="M 201.692094 12.515153 
L 186.529523 -32.019882 
L 178.296132 -45.41218 
L 193.45079 -0.806792 
z
" clip-path="url(#p719e3c1f3c)" style="fill: #0000f5; fill-opacity: 0.1"/>
    <path d="M 233.408896 83.988807 
L 217.970186 38.828448 
L 209.864943 25.726442 
L 225.298007 70.962313 
z
" clip-path="url(#p719e3c1f3c)" style="fill: #0000f5; fill-opacity: 0.1"/>
    <path d="M 265.144507 155.504849 
L 249.429336 109.718435 
L 241.452393 96.907066 
L 257.164189 142.77416 
z
" clip-path="url(#p719e3c1f3c)" style="fill: #0000f5; fill-opacity: 0.1"/>
    <path d="M 296.898946 227.063317 
L 280.906988 180.650117 
L 273.058499 168.12973 
L 289.049356 214.628787 
z
" clip-path="url(#p719e3c1f3c)" style="fill: #0000f5; fill-opacity: 0.1"/>
    <path d="M 225.298007 70.962313 
L 209.864943 25.726442 
L 201.692094 12.515153 
L 217.118875 57.826219 
z
" clip-path="url(#p719e3c1f3c)" style="fill: #0000f5; fill-opacity: 0.1"/>
    <path d="M 257.164189 142.77416 
L 241.452393 96.907066 
L 233.408896 83.988807 
L 249.116708 129.936328 
z
" clip-path="url(#p719e3c1f3c)" style="fill: #0000f5; fill-opacity: 0.1"/>
    <path d="M 289.049356 214.628787 
L 273.058499 168.12973 
L 265.144507 155.504849 
L 281.133682 202.089575 
z
" clip-path="url(#p719e3c1f3c)" style="fill: #0000f5; fill-opacity: 0.1"/>
    <path d="M 217.118875 57.826219 
L 201.692094 12.515153 
L 193.45079 -0.806792 
L 208.870637 44.579136 
z
" clip-path="url(#p719e3c1f3c)" style="fill: #0000f5; fill-opacity: 0.1"/>
    <path d="M 249.116708 129.936328 
L 233.408896 83.988807 
L 225.298007 70.962313 
L 241.001211 116.989994 
z
" clip-path="url(#p719e3c1f3c)" style="fill: #0000f5; fill-opacity: 0.1"/>
    <path d="M 281.133682 202.089575 
L 265.144507 155.504849 
L 257.164189 142.77416 
L 273.151088 189.444354 
z
" clip-path="url(#p719e3c1f3c)" style="fill: #0000f5; fill-opacity: 0.1"/>
    <path d="M 241.001211 116.989994 
L 225.298007 70.962313 
L 217.118875 57.826219 
L 232.816833 103.933776 
z
" clip-path="url(#p719e3c1f3c)" style="fill: #0000f5; fill-opacity: 0.1"/>
    <path d="M 273.151088 189.444354 
L 257.164189 142.77416 
L 249.116708 129.936328 
L 265.10072 176.691772 
z
" clip-path="url(#p719e3c1f3c)" style="fill: #0000f5; fill-opacity: 0.1"/>
    <path d="M 232.816833 103.933776 
L 217.118875 57.826219 
L 208.870637 44.579136 
L 224.562694 90.766271 
z
" clip-path="url(#p719e3c1f3c)" style="fill: #0000f5; fill-opacity: 0.1"/>
    <path d="M 265.10072 176.691772 
L 249.116708 129.936328 
L 241.001211 116.989994 
L 256.981712 163.830458 
z
" clip-path="url(#p719e3c1f3c)" style="fill: #0000f5; fill-opacity: 0.1"/>
    <path d="M 256.981712 163.830458 
L 241.001211 116.989994 
L 232.816833 103.933776 
L 248.793182 150.859014 
z
" clip-path="url(#p719e3c1f3c)" style="fill: #0000f5; fill-opacity: 0.1"/>
    <path d="M 248.793182 150.859014 
L 232.816833 103.933776 
L 224.562694 90.766271 
L 240.534233 137.77602 
z
" clip-path="url(#p719e3c1f3c)" style="fill: #0000f5; fill-opacity: 0.1"/>
   </g>
   <g id="legend_1">
    <g id="patch_6">
     <path d="M 357.840076 67.305115 
L 396.2 67.305115 
Q 398.2 67.305115 398.2 65.305115 
L 398.2 7 
Q 398.2 5 396.2 5 
L 357.840076 5 
Q 355.840076 5 355.840076 7 
L 355.840076 65.305115 
Q 355.840076 67.305115 357.840076 67.305115 
z
" style="fill: #ffffff; opacity: 0.8; stroke: #cccccc; stroke-linejoin: miter"/>
    </g>
    <g id="line2d_25">
     <path d="M 359.840076 12.5 
L 369.840076 12.5 
L 379.840076 12.5 
" style="fill: none; stroke: #ff0000; stroke-width: 1.5; stroke-linecap: square"/>
    </g>
    <g id="text_21">
     <!-- $\vec{a}$ -->
     <g transform="translate(387.840076 16)scale(0.1 -0.1)">
      <defs>
       <path id="CMMI12-7e" d="M 3424 3835 
C 3347 3764 3110 3540 3110 3451 
C 3110 3387 3168 3329 3232 3329 
C 3290 3329 3315 3368 3360 3432 
C 3514 3624 3686 3745 3834 3828 
C 3898 3867 3942 3886 3942 3956 
C 3942 4014 3891 4046 3853 4078 
C 3674 4200 3629 4372 3610 4449 
C 3590 4500 3571 4577 3482 4577 
C 3443 4577 3366 4552 3366 4456 
C 3366 4398 3405 4244 3526 4072 
L 1376 4072 
C 1267 4072 1158 4072 1158 3950 
C 1158 3835 1274 3835 1376 3835 
L 3424 3835 
z
" transform="scale(0.015625)"/>
       <path id="CMMI12-61" d="M 1926 760 
C 1894 651 1894 639 1805 517 
C 1664 338 1382 64 1082 64 
C 819 64 672 300 672 677 
C 672 1028 870 1743 992 2012 
C 1210 2459 1510 2689 1760 2689 
C 2182 2689 2266 2165 2266 2114 
C 2266 2108 2246 2024 2240 2012 
L 1926 760 
z
M 2336 2395 
C 2266 2561 2093 2816 1760 2816 
C 1037 2816 256 1884 256 939 
C 256 307 627 -64 1062 -64 
C 1414 -64 1715 211 1894 422 
C 1958 45 2259 -64 2451 -64 
C 2643 -64 2797 51 2912 281 
C 3014 498 3104 888 3104 913 
C 3104 945 3078 971 3040 971 
C 2982 971 2976 939 2950 843 
C 2854 466 2733 64 2470 64 
C 2285 64 2272 230 2272 358 
C 2272 505 2291 575 2349 824 
C 2394 984 2426 1124 2477 1309 
C 2714 2267 2771 2497 2771 2535 
C 2771 2625 2701 2695 2605 2695 
C 2400 2695 2349 2472 2336 2395 
z
" transform="scale(0.015625)"/>
      </defs>
      <use xlink:href="#CMMI12-7e" transform="scale(0.996264)"/>
      <use xlink:href="#CMMI12-61" transform="translate(6.445738 0)scale(0.996264)"/>
     </g>
    </g>
    <g id="line2d_26">
     <path d="M 359.840076 27.24679 
L 369.840076 27.24679 
L 379.840076 27.24679 
" style="fill: none; stroke: #00ff00; stroke-width: 1.5; stroke-linecap: square"/>
    </g>
    <g id="text_22">
     <!-- $\vec{b}$ -->
     <g transform="translate(387.840076 30.74679)scale(0.1 -0.1)">
      <defs>
       <path id="CMMI12-62" d="M 1478 4257 
C 1485 4283 1498 4321 1498 4352 
C 1498 4416 1434 4416 1421 4416 
C 1414 4416 1184 4393 1069 4377 
C 960 4377 864 4358 749 4358 
C 595 4345 550 4339 550 4224 
C 550 4160 614 4160 678 4160 
C 1005 4160 1005 4103 1005 4040 
C 1005 3996 954 3811 928 3696 
L 774 3085 
C 710 2831 346 1387 320 1272 
C 288 1114 288 1005 288 922 
C 288 274 653 -64 1069 -64 
C 1811 -64 2579 888 2579 1814 
C 2579 2401 2246 2816 1766 2816 
C 1434 2816 1133 2542 1011 2414 
L 1478 4257 
z
M 1075 64 
C 870 64 646 217 646 715 
C 646 926 666 1047 781 1494 
C 800 1577 902 1986 928 2069 
C 941 2120 1318 2689 1754 2689 
C 2035 2689 2163 2408 2163 2076 
C 2163 1769 1984 1047 1824 715 
C 1664 370 1370 64 1075 64 
z
" transform="scale(0.015625)"/>
      </defs>
      <use xlink:href="#CMMI12-7e" transform="translate(0 26.29016)scale(0.996264)"/>
      <use xlink:href="#CMMI12-62" transform="translate(11.311737 0)scale(0.996264)"/>
     </g>
    </g>
    <g id="line2d_27">
     <path d="M 359.840076 41.183968 
L 369.840076 41.183968 
L 379.840076 41.183968 
" style="fill: none; stroke: #0016ff; stroke-width: 1.5; stroke-linecap: square"/>
    </g>
    <g id="text_23">
     <!-- $\vec{c}$ -->
     <g transform="translate(387.840076 44.683968)scale(0.1 -0.1)">
      <defs>
       <path id="CMMI12-63" d="M 2502 2431 
C 2381 2431 2323 2431 2234 2355 
C 2195 2323 2125 2227 2125 2125 
C 2125 1997 2221 1920 2342 1920 
C 2496 1920 2669 2044 2669 2292 
C 2669 2588 2374 2816 1933 2816 
C 1094 2816 256 1903 256 996 
C 256 441 602 -64 1254 -64 
C 2125 -64 2675 622 2675 706 
C 2675 744 2637 776 2611 776 
C 2592 776 2586 770 2528 713 
C 2118 162 1510 64 1267 64 
C 826 64 685 446 685 764 
C 685 988 794 1605 1024 2039 
C 1190 2338 1536 2682 1939 2682 
C 2022 2682 2374 2682 2502 2431 
z
" transform="scale(0.015625)"/>
      </defs>
      <use xlink:href="#CMMI12-7e" transform="scale(0.996264)"/>
      <use xlink:href="#CMMI12-63" transform="translate(5.638615 0)scale(0.996264)"/>
     </g>
    </g>
    <g id="line2d_28">
     <path d="M 359.840076 57.867937 
L 369.840076 57.867937 
L 379.840076 57.867937 
" style="fill: none; stroke: #f400ff; stroke-width: 1.5; stroke-linecap: square"/>
    </g>
    <g id="text_24">
     <!-- $\vec{f}$ -->
     <g transform="translate(387.840076 61.367937)scale(0.1 -0.1)">
      <defs>
       <path id="CMMI12-66" d="M 2854 2566 
C 2982 2566 3034 2566 3034 2688 
C 3034 2752 2982 2752 2867 2752 
L 2349 2752 
C 2470 3429 2560 3897 2611 4107 
C 2650 4265 2784 4416 2950 4416 
C 3085 4416 3219 4358 3283 4298 
C 3034 4272 2957 4082 2957 3969 
C 2957 3837 3053 3759 3174 3759 
C 3302 3759 3494 3870 3494 4119 
C 3494 4393 3226 4544 2944 4544 
C 2669 4544 2400 4334 2272 4078 
C 2157 3848 2093 3611 1946 2752 
L 1517 2752 
C 1395 2752 1331 2752 1331 2637 
C 1331 2566 1370 2566 1498 2566 
L 1907 2566 
C 1792 1976 1530 542 1382 -137 
C 1274 -689 1178 -1152 858 -1152 
C 838 -1152 653 -1152 538 -1031 
C 864 -1005 864 -726 864 -720 
C 864 -593 768 -517 646 -517 
C 518 -517 326 -625 326 -867 
C 326 -1140 608 -1280 858 -1280 
C 1510 -1280 1779 -118 1850 199 
C 1965 688 2278 2376 2310 2566 
L 2854 2566 
z
" transform="scale(0.015625)"/>
      </defs>
      <use xlink:href="#CMMI12-7e" transform="translate(13.568792 26.29016)scale(0.996264)"/>
      <use xlink:href="#CMMI12-66" transform="scale(0.996264)"/>
     </g>
    </g>
   </g>
  </g>
 </g>
 <defs>
  <clipPath id="p719e3c1f3c">
   <rect x="57.6" y="0" width="345.6" height="345.6"/>
  </clipPath>
 </defs>
</svg>
