<?xml version="1.0" encoding="utf-8" standalone="no"?>
<!DOCTYPE svg PUBLIC "-//W3C//DTD SVG 1.1//EN"
  "http://www.w3.org/Graphics/SVG/1.1/DTD/svg11.dtd">
<svg xmlns:xlink="http://www.w3.org/1999/xlink" width="460.8pt" height="345.6pt" viewBox="0 0 460.8 345.6" xmlns="http://www.w3.org/2000/svg" version="1.1">
 <metadata>
  <rdf:RDF xmlns:dc="http://purl.org/dc/elements/1.1/" xmlns:cc="http://creativecommons.org/ns#" xmlns:rdf="http://www.w3.org/1999/02/22-rdf-syntax-ns#">
   <cc:Work>
    <dc:type rdf:resource="http://purl.org/dc/dcmitype/StillImage"/>
    <dc:date>2022-07-12T15:41:42.054411</dc:date>
    <dc:format>image/svg+xml</dc:format>
    <dc:creator>
     <cc:Agent>
      <dc:title>Matplotlib v3.5.1, https://matplotlib.org/</dc:title>
     </cc:Agent>
    </dc:creator>
   </cc:Work>
  </rdf:RDF>
 </metadata>
 <defs>
  <style type="text/css">*{stroke-linejoin: round; stroke-linecap: butt}</style>
 </defs>
 <g id="figure_1">
  <g id="patch_1">
   <path d="M 0 345.6 
L 460.8 345.6 
L 460.8 0 
L 0 0 
z
" style="fill: #ffffff"/>
  </g>
  <g id="patch_2">
   <path d="M 57.6 345.6 
L 403.2 345.6 
L 403.2 0 
L 57.6 0 
z
" style="fill: #ffffff"/>
  </g>
  <g id="pane3d_1">
   <g id="patch_3">
    <path d="M 242.662214 245.060319 
L 78.718429 251.161607 
L 78.718429 85.097852 
L 242.662214 91.19914 
" style="fill: #f2f2f2; opacity: 0.5; stroke: #f2f2f2; stroke-linejoin: miter"/>
   </g>
  </g>
  <g id="pane3d_2">
   <g id="patch_4">
    <path d="M 392.805858 251.896457 
L 242.662214 245.060319 
L 242.662214 91.19914 
L 392.805858 84.363003 
" style="fill: #e6e6e6; opacity: 0.5; stroke: #e6e6e6; stroke-linejoin: miter"/>
   </g>
  </g>
  <g id="pane3d_3">
   <g id="patch_5">
    <path d="M 392.805858 251.896457 
L 242.662214 245.060319 
L 78.718429 251.161607 
L 226.08476 259.181599 
" style="fill: #ececec; opacity: 0.5; stroke: #ececec; stroke-linejoin: miter"/>
   </g>
  </g>
  <g id="axis3d_1">
   <g id="line2d_1">
    <path d="M 78.718429 251.161607 
L 226.08476 259.181599 
" style="fill: none; stroke: #000000; stroke-width: 0.8; stroke-linecap: square"/>
   </g>
   <g id="text_1">
    <!-- x -->
    <g transform="translate(120.248764 284.392635)scale(0.16 -0.16)">
     <defs>
      <path id="CMSS17-78" d="M 1587 1414 
L 2656 2739 
L 2099 2739 
L 1363 1777 
L 602 2739 
L 32 2739 
L 1139 1414 
L 0 0 
L 563 0 
L 1363 1121 
L 2195 0 
L 2758 0 
L 1587 1414 
z
" transform="scale(0.015625)"/>
     </defs>
     <use xlink:href="#CMSS17-78" transform="scale(0.996264)"/>
    </g>
   </g>
   <g id="Line3DCollection_1">
    <path d="M 222.858984 259.006045 
L 389.541947 251.747849 
L 389.541947 84.511611 
" style="fill: none; stroke: #b0b0b0; stroke-width: 0.8"/>
    <path d="M 192.512935 257.354548 
L 358.787767 250.347591 
L 358.787767 85.911868 
" style="fill: none; stroke: #b0b0b0; stroke-width: 0.8"/>
    <path d="M 163.250158 255.762005 
L 329.046634 248.993458 
L 329.046634 87.266002 
" style="fill: none; stroke: #b0b0b0; stroke-width: 0.8"/>
    <path d="M 135.013666 254.225315 
L 300.269304 247.683207 
L 300.269304 88.576252 
" style="fill: none; stroke: #b0b0b0; stroke-width: 0.8"/>
    <path d="M 107.750399 252.741589 
L 272.409673 246.41474 
L 272.409673 89.844719 
" style="fill: none; stroke: #b0b0b0; stroke-width: 0.8"/>
    <path d="M 81.410894 251.308137 
L 245.424533 245.186089 
L 245.424533 91.07337 
" style="fill: none; stroke: #b0b0b0; stroke-width: 0.8"/>
   </g>
   <g id="xtick_1">
    <g id="line2d_2">
     <path d="M 224.307189 258.942983 
L 219.956532 259.132432 
" style="fill: none; stroke: #000000; stroke-width: 0.8; stroke-linecap: square"/>
    </g>
    <g id="text_2">
     <!-- $\mathdefault{0}$ -->
     <g transform="translate(208.730218 278.108053)scale(0.1 -0.1)">
      <defs>
       <path id="CMR17-30" d="M 2688 2025 
C 2688 2416 2682 3080 2413 3591 
C 2176 4039 1798 4198 1466 4198 
C 1158 4198 768 4058 525 3597 
C 269 3118 243 2524 243 2025 
C 243 1661 250 1106 448 619 
C 723 -39 1216 -128 1466 -128 
C 1760 -128 2208 -7 2470 600 
C 2662 1042 2688 1559 2688 2025 
z
M 1466 -26 
C 1056 -26 813 325 723 812 
C 653 1188 653 1738 653 2096 
C 653 2588 653 2997 736 3387 
C 858 3929 1216 4096 1466 4096 
C 1728 4096 2067 3923 2189 3400 
C 2272 3036 2278 2607 2278 2096 
C 2278 1680 2278 1169 2202 792 
C 2067 95 1690 -26 1466 -26 
z
" transform="scale(0.015625)"/>
      </defs>
      <use xlink:href="#CMR17-30" transform="scale(0.996264)"/>
     </g>
    </g>
   </g>
   <g id="xtick_2">
    <g id="line2d_3">
     <path d="M 193.955515 257.293757 
L 189.621865 257.47638 
" style="fill: none; stroke: #000000; stroke-width: 0.8; stroke-linecap: square"/>
    </g>
    <g id="text_3">
     <!-- $\mathdefault{1}$ -->
     <g transform="translate(178.430691 276.224891)scale(0.1 -0.1)">
      <defs>
       <path id="CMR17-31" d="M 1702 4058 
C 1702 4192 1696 4192 1606 4192 
C 1357 3916 979 3827 621 3827 
C 602 3827 570 3827 563 3808 
C 557 3795 557 3782 557 3648 
C 755 3648 1088 3686 1344 3839 
L 1344 461 
C 1344 236 1331 160 781 160 
L 589 160 
L 589 0 
C 896 0 1216 0 1523 0 
C 1830 0 2150 0 2458 0 
L 2458 160 
L 2266 160 
C 1715 160 1702 230 1702 458 
L 1702 4058 
z
" transform="scale(0.015625)"/>
      </defs>
      <use xlink:href="#CMR17-31" transform="scale(0.996264)"/>
     </g>
    </g>
   </g>
   <g id="xtick_3">
    <g id="line2d_4">
     <path d="M 164.68659 255.703364 
L 160.371516 255.879524 
" style="fill: none; stroke: #000000; stroke-width: 0.8; stroke-linecap: square"/>
    </g>
    <g id="text_4">
     <!-- $\mathdefault{2}$ -->
     <g transform="translate(149.218591 274.409314)scale(0.1 -0.1)">
      <defs>
       <path id="CMR17-32" d="M 2669 989 
L 2554 989 
C 2490 536 2438 459 2413 420 
C 2381 369 1920 369 1830 369 
L 602 369 
C 832 619 1280 1072 1824 1597 
C 2214 1967 2669 2402 2669 3035 
C 2669 3790 2067 4224 1395 4224 
C 691 4224 262 3604 262 3030 
C 262 2780 448 2748 525 2748 
C 589 2748 781 2787 781 3010 
C 781 3207 614 3264 525 3264 
C 486 3264 448 3258 422 3245 
C 544 3790 915 4058 1306 4058 
C 1862 4058 2227 3617 2227 3035 
C 2227 2479 1901 2000 1536 1584 
L 262 146 
L 262 0 
L 2515 0 
L 2669 989 
z
" transform="scale(0.015625)"/>
      </defs>
      <use xlink:href="#CMR17-32" transform="scale(0.996264)"/>
     </g>
    </g>
   </g>
   <g id="xtick_4">
    <g id="line2d_5">
     <path d="M 136.443489 254.168711 
L 132.148368 254.338746 
" style="fill: none; stroke: #000000; stroke-width: 0.8; stroke-linecap: square"/>
    </g>
    <g id="text_5">
     <!-- $\mathdefault{3}$ -->
     <g transform="translate(121.036409 272.657749)scale(0.1 -0.1)">
      <defs>
       <path id="CMR17-33" d="M 1414 2157 
C 1984 2157 2234 1662 2234 1090 
C 2234 320 1824 25 1453 25 
C 1114 25 563 194 390 693 
C 422 680 454 680 486 680 
C 640 680 755 782 755 948 
C 755 1133 614 1216 486 1216 
C 378 1216 211 1165 211 926 
C 211 335 787 -128 1466 -128 
C 2176 -128 2720 430 2720 1085 
C 2720 1707 2208 2157 1600 2227 
C 2086 2328 2554 2756 2554 3329 
C 2554 3820 2048 4179 1472 4179 
C 890 4179 378 3829 378 3329 
C 378 3110 544 3072 627 3072 
C 762 3072 877 3155 877 3321 
C 877 3486 762 3569 627 3569 
C 602 3569 570 3569 544 3557 
C 730 3959 1235 4032 1459 4032 
C 1683 4032 2106 3925 2106 3320 
C 2106 3143 2080 2828 1862 2550 
C 1670 2304 1453 2304 1242 2284 
C 1210 2284 1062 2269 1037 2269 
C 992 2263 966 2257 966 2208 
C 966 2163 973 2157 1101 2157 
L 1414 2157 
z
" transform="scale(0.015625)"/>
      </defs>
      <use xlink:href="#CMR17-33" transform="scale(0.996264)"/>
     </g>
    </g>
   </g>
   <g id="xtick_5">
    <g id="line2d_6">
     <path d="M 109.173213 252.686919 
L 104.899245 252.851142 
" style="fill: none; stroke: #000000; stroke-width: 0.8; stroke-linecap: square"/>
    </g>
    <g id="text_6">
     <!-- $\mathdefault{4}$ -->
     <g transform="translate(93.830622 270.966868)scale(0.1 -0.1)">
      <defs>
       <path id="CMR17-34" d="M 2150 4122 
C 2150 4256 2144 4256 2029 4256 
L 128 1254 
L 128 1088 
L 1779 1088 
L 1779 457 
C 1779 224 1766 160 1318 160 
L 1197 160 
L 1197 0 
C 1402 0 1747 0 1965 0 
C 2182 0 2528 0 2733 0 
L 2733 160 
L 2611 160 
C 2163 160 2150 224 2150 457 
L 2150 1088 
L 2803 1088 
L 2803 1254 
L 2150 1254 
L 2150 4122 
z
M 1798 3703 
L 1798 1254 
L 256 1254 
L 1798 3703 
z
" transform="scale(0.015625)"/>
      </defs>
      <use xlink:href="#CMR17-34" transform="scale(0.996264)"/>
     </g>
    </g>
   </g>
   <g id="xtick_6">
    <g id="line2d_7">
     <path d="M 82.826349 251.255303 
L 78.574579 251.414007 
" style="fill: none; stroke: #000000; stroke-width: 0.8; stroke-linecap: square"/>
    </g>
    <g id="text_7">
     <!-- $\mathdefault{5}$ -->
     <g transform="translate(67.551352 269.333571)scale(0.1 -0.1)">
      <defs>
       <path id="CMR17-35" d="M 730 3692 
C 794 3666 1056 3584 1325 3584 
C 1920 3584 2246 3911 2432 4100 
C 2432 4157 2432 4192 2394 4192 
C 2387 4192 2374 4192 2323 4163 
C 2099 4058 1837 3973 1517 3973 
C 1325 3973 1037 3999 723 4139 
C 653 4171 640 4171 634 4171 
C 602 4171 595 4164 595 4037 
L 595 2203 
C 595 2089 595 2057 659 2057 
C 691 2057 704 2070 736 2114 
C 941 2401 1222 2522 1542 2522 
C 1766 2522 2246 2382 2246 1289 
C 2246 1085 2246 715 2054 421 
C 1894 159 1645 25 1370 25 
C 947 25 518 320 403 814 
C 429 807 480 795 506 795 
C 589 795 749 840 749 1038 
C 749 1210 627 1280 506 1280 
C 358 1280 262 1190 262 1011 
C 262 454 704 -128 1382 -128 
C 2042 -128 2669 440 2669 1264 
C 2669 2030 2170 2624 1549 2624 
C 1222 2624 947 2503 730 2274 
L 730 3692 
z
" transform="scale(0.015625)"/>
      </defs>
      <use xlink:href="#CMR17-35" transform="scale(0.996264)"/>
     </g>
    </g>
   </g>
  </g>
  <g id="axis3d_2">
   <g id="line2d_8">
    <path d="M 392.805858 251.896457 
L 226.08476 259.181599 
" style="fill: none; stroke: #000000; stroke-width: 0.8; stroke-linecap: square"/>
   </g>
   <g id="text_8">
    <!-- y -->
    <g transform="translate(332.269447 285.062556)scale(0.16 -0.16)">
     <defs>
      <path id="CMSS17-79" d="M 2675 2752 
L 2176 2752 
C 1632 1294 1446 702 1434 383 
L 1427 383 
C 1408 696 1126 1460 902 2007 
L 602 2752 
L 83 2752 
L 1216 13 
C 1146 -178 1043 -465 1011 -529 
C 870 -885 774 -885 672 -885 
C 646 -885 442 -885 211 -809 
L 250 -1229 
C 410 -1261 570 -1280 685 -1280 
C 845 -1280 1165 -1280 1459 -497 
L 2675 2752 
z
" transform="scale(0.015625)"/>
     </defs>
     <use xlink:href="#CMSS17-79" transform="scale(0.996264)"/>
    </g>
   </g>
   <g id="Line3DCollection_2">
    <path d="M 224.890682 90.53776 
L 224.890682 245.7217 
L 374.846911 252.681201 
" style="fill: none; stroke: #b0b0b0; stroke-width: 0.8"/>
    <path d="M 194.794591 89.417712 
L 194.794591 246.841748 
L 344.370723 254.012907 
" style="fill: none; stroke: #b0b0b0; stroke-width: 0.8"/>
    <path d="M 163.816893 88.264854 
L 163.816893 247.994606 
L 312.919158 255.387232 
" style="fill: none; stroke: #b0b0b0; stroke-width: 0.8"/>
    <path d="M 131.918276 87.077723 
L 131.918276 249.181736 
L 280.44463 256.806258 
" style="fill: none; stroke: #b0b0b0; stroke-width: 0.8"/>
    <path d="M 99.057053 85.854769 
L 99.057053 250.404691 
L 246.896407 258.272201 
" style="fill: none; stroke: #b0b0b0; stroke-width: 0.8"/>
   </g>
   <g id="xtick_7">
    <g id="line2d_9">
     <path d="M 373.540598 252.620575 
L 377.46517 252.802715 
" style="fill: none; stroke: #000000; stroke-width: 0.8; stroke-linecap: square"/>
    </g>
    <g id="text_9">
     <!-- $\mathdefault{−4}$ -->
     <g transform="translate(378.981891 270.953074)scale(0.1 -0.1)">
      <defs>
       <path id="CMSY10-0" d="M 4218 1472 
C 4326 1472 4442 1472 4442 1600 
C 4442 1728 4326 1728 4218 1728 
L 755 1728 
C 646 1728 531 1728 531 1600 
C 531 1472 646 1472 755 1472 
L 4218 1472 
z
" transform="scale(0.015625)"/>
      </defs>
      <use xlink:href="#CMSY10-0" transform="scale(0.996264)"/>
      <use xlink:href="#CMR17-34" transform="translate(77.487468 0)scale(0.996264)"/>
     </g>
    </g>
   </g>
   <g id="xtick_8">
    <g id="line2d_10">
     <path d="M 343.066046 253.950356 
L 346.98579 254.138281 
" style="fill: none; stroke: #000000; stroke-width: 0.8; stroke-linecap: square"/>
    </g>
    <g id="text_10">
     <!-- $\mathdefault{−2}$ -->
     <g transform="translate(348.493618 272.472441)scale(0.1 -0.1)">
      <use xlink:href="#CMSY10-0" transform="scale(0.996264)"/>
      <use xlink:href="#CMR17-32" transform="translate(77.487468 0)scale(0.996264)"/>
     </g>
    </g>
   </g>
   <g id="xtick_9">
    <g id="line2d_11">
     <path d="M 311.616892 255.322665 
L 315.529485 255.516655 
" style="fill: none; stroke: #000000; stroke-width: 0.8; stroke-linecap: square"/>
    </g>
    <g id="text_11">
     <!-- $\mathdefault{0}$ -->
     <g transform="translate(320.898148 274.040725)scale(0.1 -0.1)">
      <use xlink:href="#CMR17-30" transform="scale(0.996264)"/>
     </g>
    </g>
   </g>
   <g id="xtick_10">
    <g id="line2d_12">
     <path d="M 279.145623 256.739574 
L 283.04852 256.939928 
" style="fill: none; stroke: #000000; stroke-width: 0.8; stroke-linecap: square"/>
    </g>
    <g id="text_12">
     <!-- $\mathdefault{2}$ -->
     <g transform="translate(288.398561 275.660325)scale(0.1 -0.1)">
      <use xlink:href="#CMR17-32" transform="scale(0.996264)"/>
     </g>
    </g>
   </g>
   <g id="xtick_11">
    <g id="line2d_13">
     <path d="M 245.601586 258.203295 
L 249.492001 258.41033 
" style="fill: none; stroke: #000000; stroke-width: 0.8; stroke-linecap: square"/>
    </g>
    <g id="text_13">
     <!-- $\mathdefault{4}$ -->
     <g transform="translate(254.817845 277.333802)scale(0.1 -0.1)">
      <use xlink:href="#CMR17-34" transform="scale(0.996264)"/>
     </g>
    </g>
   </g>
  </g>
  <g id="axis3d_3">
   <g id="line2d_14">
    <path d="M 392.805858 251.896457 
L 392.805858 84.363003 
" style="fill: none; stroke: #000000; stroke-width: 0.8; stroke-linecap: square"/>
   </g>
   <g id="text_14">
    <!-- z -->
    <g transform="translate(433.483935 172.114786)scale(0.16 -0.16)">
     <defs>
      <path id="CMSS17-7a" d="M 2400 2502 
L 2400 2750 
L 250 2750 
L 250 2368 
L 1069 2368 
C 1146 2368 1222 2368 1299 2368 
L 1747 2368 
L 166 261 
L 166 0 
L 2419 0 
L 2419 395 
L 1549 395 
C 1472 395 1395 395 1318 395 
L 826 395 
L 2400 2502 
z
" transform="scale(0.015625)"/>
     </defs>
     <use xlink:href="#CMSS17-7a" transform="scale(0.996264)"/>
    </g>
   </g>
   <g id="Line3DCollection_3">
    <path d="M 392.805858 248.545788 
L 242.662214 241.983096 
L 78.718429 247.840332 
" style="fill: none; stroke: #b0b0b0; stroke-width: 0.8"/>
    <path d="M 392.805858 216.379364 
L 242.662214 212.441749 
L 78.718429 215.956091 
" style="fill: none; stroke: #b0b0b0; stroke-width: 0.8"/>
    <path d="M 392.805858 184.212941 
L 242.662214 182.900403 
L 78.718429 184.07185 
" style="fill: none; stroke: #b0b0b0; stroke-width: 0.8"/>
    <path d="M 392.805858 152.046518 
L 242.662214 153.359057 
L 78.718429 152.187609 
" style="fill: none; stroke: #b0b0b0; stroke-width: 0.8"/>
    <path d="M 392.805858 119.880095 
L 242.662214 123.81771 
L 78.718429 120.303368 
" style="fill: none; stroke: #b0b0b0; stroke-width: 0.8"/>
    <path d="M 392.805858 87.713672 
L 242.662214 94.276364 
L 78.718429 88.419127 
" style="fill: none; stroke: #b0b0b0; stroke-width: 0.8"/>
   </g>
   <g id="xtick_12">
    <g id="line2d_15">
     <path d="M 391.498902 248.488661 
L 395.425351 248.660284 
" style="fill: none; stroke: #000000; stroke-width: 0.8; stroke-linecap: square"/>
    </g>
    <g id="text_15">
     <!-- $\mathdefault{0}$ -->
     <g transform="translate(410.570934 255.509781)scale(0.1 -0.1)">
      <use xlink:href="#CMR17-30" transform="scale(0.996264)"/>
     </g>
    </g>
   </g>
   <g id="xtick_13">
    <g id="line2d_16">
     <path d="M 391.498902 216.345089 
L 395.425351 216.448062 
" style="fill: none; stroke: #000000; stroke-width: 0.8; stroke-linecap: square"/>
    </g>
    <g id="text_16">
     <!-- $\mathdefault{1}$ -->
     <g transform="translate(410.570934 223.32516)scale(0.1 -0.1)">
      <use xlink:href="#CMR17-31" transform="scale(0.996264)"/>
     </g>
    </g>
   </g>
   <g id="xtick_14">
    <g id="line2d_17">
     <path d="M 391.498902 184.201516 
L 395.425351 184.235841 
" style="fill: none; stroke: #000000; stroke-width: 0.8; stroke-linecap: square"/>
    </g>
    <g id="text_17">
     <!-- $\mathdefault{2}$ -->
     <g transform="translate(410.570934 191.140539)scale(0.1 -0.1)">
      <use xlink:href="#CMR17-32" transform="scale(0.996264)"/>
     </g>
    </g>
   </g>
   <g id="xtick_15">
    <g id="line2d_18">
     <path d="M 391.498902 152.057943 
L 395.425351 152.023619 
" style="fill: none; stroke: #000000; stroke-width: 0.8; stroke-linecap: square"/>
    </g>
    <g id="text_18">
     <!-- $\mathdefault{3}$ -->
     <g transform="translate(410.570934 158.955917)scale(0.1 -0.1)">
      <use xlink:href="#CMR17-33" transform="scale(0.996264)"/>
     </g>
    </g>
   </g>
   <g id="xtick_16">
    <g id="line2d_19">
     <path d="M 391.498902 119.914371 
L 395.425351 119.811397 
" style="fill: none; stroke: #000000; stroke-width: 0.8; stroke-linecap: square"/>
    </g>
    <g id="text_19">
     <!-- $\mathdefault{4}$ -->
     <g transform="translate(410.570934 126.771296)scale(0.1 -0.1)">
      <use xlink:href="#CMR17-34" transform="scale(0.996264)"/>
     </g>
    </g>
   </g>
   <g id="xtick_17">
    <g id="line2d_20">
     <path d="M 391.498902 87.770798 
L 395.425351 87.599175 
" style="fill: none; stroke: #000000; stroke-width: 0.8; stroke-linecap: square"/>
    </g>
    <g id="text_20">
     <!-- $\mathdefault{5}$ -->
     <g transform="translate(410.570934 94.586675)scale(0.1 -0.1)">
      <use xlink:href="#CMR17-35" transform="scale(0.996264)"/>
     </g>
    </g>
   </g>
  </g>
  <g id="axes_1">
   <g id="line2d_21">
    <path d="M 309.667103 251.742142 
L 230.08848 83.99403 
" clip-path="url(#pe7dc23fcf1)" style="fill: none; stroke: #ff0000; stroke-width: 1.5; stroke-linecap: square"/>
   </g>
   <g id="line2d_22">
    <path d="M 309.667103 251.742142 
L 280.777209 120.417173 
" clip-path="url(#pe7dc23fcf1)" style="fill: none; stroke: #00ff00; stroke-width: 1.5; stroke-linecap: square"/>
   </g>
   <g id="line2d_23">
    <path d="M 309.667103 251.742142 
L 218.898179 -1 
" clip-path="url(#pe7dc23fcf1)" style="fill: none; stroke: #0016ff; stroke-width: 1.5; stroke-linecap: square"/>
   </g>
   <g id="line2d_24">
    <path d="M 309.667103 251.742142 
L 212.702246 153.100399 
" clip-path="url(#pe7dc23fcf1)" style="fill: none; stroke: #f400ff; stroke-width: 1.5; stroke-linecap: square"/>
   </g>
   <g id="Poly3DCollection_1">
    <path d="M 269.358172 25.124005 
L 255.762849 -14.811718 
L 248.411678 -26.707023 
L 261.99714 13.277452 
z
" clip-path="url(#pe7dc23fcf1)" style="fill: #0000f5; fill-opacity: 0.1"/>
    <path d="M 261.99714 13.277452 
L 248.411678 -26.707023 
L 241.0077 -38.687776 
L 254.582806 1.345115 
z
" clip-path="url(#pe7dc23fcf1)" style="fill: #0000f5; fill-opacity: 0.1"/>
    <path d="M 254.582806 1.345115 
L 241.0077 -38.687776 
L 233.550345 -50.754903 
L 247.114588 -10.67394 
z
" clip-path="url(#pe7dc23fcf1)" style="fill: #0000f5; fill-opacity: 0.1"/>
    <path d="M 283.172342 65.702584 
L 269.358172 25.124005 
L 261.99714 13.277452 
L 275.802087 53.907907 
z
" clip-path="url(#pe7dc23fcf1)" style="fill: #0000f5; fill-opacity: 0.1"/>
    <path d="M 247.114588 -10.67394 
L 233.550345 -50.754903 
L 226.039032 -62.90934 
L 239.591897 -22.780663 
z
" clip-path="url(#pe7dc23fcf1)" style="fill: #0000f5; fill-opacity: 0.1"/>
    <path d="M 275.802087 53.907907 
L 261.99714 13.277452 
L 254.582806 1.345115 
L 268.37803 42.02713 
z
" clip-path="url(#pe7dc23fcf1)" style="fill: #0000f5; fill-opacity: 0.1"/>
    <path d="M 239.591897 -22.780663 
L 226.039032 -62.90934 
L 218.473175 -75.152039 
L 232.014134 -34.976016 
z
" clip-path="url(#pe7dc23fcf1)" style="fill: #0000f5; fill-opacity: 0.1"/>
    <path d="M 268.37803 42.02713 
L 254.582806 1.345115 
L 247.114588 -10.67394 
L 260.899579 30.059306 
z
" clip-path="url(#pe7dc23fcf1)" style="fill: #0000f5; fill-opacity: 0.1"/>
    <path d="M 297.210687 106.939666 
L 283.172342 65.702584 
L 275.802087 53.907907 
L 289.83188 95.200125 
z
" clip-path="url(#pe7dc23fcf1)" style="fill: #0000f5; fill-opacity: 0.1"/>
    <path d="M 232.014134 -34.976016 
L 218.473175 -75.152039 
L 210.852177 -87.483965 
L 224.380693 -47.260975 
z
" clip-path="url(#pe7dc23fcf1)" style="fill: #0000f5; fill-opacity: 0.1"/>
    <path d="M 260.899579 30.059306 
L 247.114588 -10.67394 
L 239.591897 -22.780663 
L 253.366134 18.003475 
z
" clip-path="url(#pe7dc23fcf1)" style="fill: #0000f5; fill-opacity: 0.1"/>
    <path d="M 289.83188 95.200125 
L 275.802087 53.907907 
L 268.37803 42.02713 
L 282.398767 83.374185 
z
" clip-path="url(#pe7dc23fcf1)" style="fill: #0000f5; fill-opacity: 0.1"/>
    <path d="M 224.380693 -47.260975 
L 210.852177 -87.483965 
L 203.175433 -99.906096 
L 216.690957 -59.636533 
z
" clip-path="url(#pe7dc23fcf1)" style="fill: #0000f5; fill-opacity: 0.1"/>
    <path d="M 253.366134 18.003475 
L 239.591897 -22.780663 
L 232.014134 -34.976016 
L 245.777087 5.858664 
z
" clip-path="url(#pe7dc23fcf1)" style="fill: #0000f5; fill-opacity: 0.1"/>
    <path d="M 282.398767 83.374185 
L 268.37803 42.02713 
L 260.899579 30.059306 
L 274.910748 71.460889 
z
" clip-path="url(#pe7dc23fcf1)" style="fill: #0000f5; fill-opacity: 0.1"/>
    <path d="M 311.478708 148.851412 
L 297.210687 106.939666 
L 289.83188 95.200125 
L 304.092056 137.170405 
z
" clip-path="url(#pe7dc23fcf1)" style="fill: #0000f5; fill-opacity: 0.1"/>
    <path d="M 216.690957 -59.636533 
L 203.175433 -99.906096 
L 195.442328 -112.419426 
L 208.944302 -72.103694 
z
" clip-path="url(#pe7dc23fcf1)" style="fill: #0000f5; fill-opacity: 0.1"/>
    <path d="M 245.777087 5.858664 
L 232.014134 -34.976016 
L 224.380693 -47.260975 
L 238.13182 -6.376117 
z
" clip-path="url(#pe7dc23fcf1)" style="fill: #0000f5; fill-opacity: 0.1"/>
    <path d="M 274.910748 71.460889 
L 260.899579 30.059306 
L 253.366134 18.003475 
L 267.367212 59.459267 
z
" clip-path="url(#pe7dc23fcf1)" style="fill: #0000f5; fill-opacity: 0.1"/>
    <path d="M 304.092056 137.170405 
L 289.83188 95.200125 
L 282.398767 83.374185 
L 296.650595 125.402722 
z
" clip-path="url(#pe7dc23fcf1)" style="fill: #0000f5; fill-opacity: 0.1"/>
    <path d="M 208.944302 -72.103694 
L 195.442328 -112.419426 
L 187.652241 -125.024963 
L 201.140093 -84.66348 
z
" clip-path="url(#pe7dc23fcf1)" style="fill: #0000f5; fill-opacity: 0.1"/>
    <path d="M 238.13182 -6.376117 
L 224.380693 -47.260975 
L 216.690957 -59.636533 
L 230.429706 -18.701871 
z
" clip-path="url(#pe7dc23fcf1)" style="fill: #0000f5; fill-opacity: 0.1"/>
    <path d="M 267.367212 59.459267 
L 253.366134 18.003475 
L 245.777087 5.858664 
L 259.767539 47.368332 
z
" clip-path="url(#pe7dc23fcf1)" style="fill: #0000f5; fill-opacity: 0.1"/>
    <path d="M 296.650595 125.402722 
L 282.398767 83.374185 
L 274.910748 71.460889 
L 289.15371 113.547395 
z
" clip-path="url(#pe7dc23fcf1)" style="fill: #0000f5; fill-opacity: 0.1"/>
    <path d="M 325.982087 191.454515 
L 311.478708 148.851412 
L 304.092056 137.170405 
L 318.588339 179.835588 
z
" clip-path="url(#pe7dc23fcf1)" style="fill: #0000f5; fill-opacity: 0.1"/>
    <path d="M 201.140093 -84.66348 
L 187.652241 -125.024963 
L 179.804539 -137.72373 
L 193.277686 -97.316927 
z
" clip-path="url(#pe7dc23fcf1)" style="fill: #0000f5; fill-opacity: 0.1"/>
    <path d="M 230.429706 -18.701871 
L 216.690957 -59.636533 
L 208.944302 -72.103694 
L 222.670108 -31.119616 
z
" clip-path="url(#pe7dc23fcf1)" style="fill: #0000f5; fill-opacity: 0.1"/>
    <path d="M 259.767539 47.368332 
L 245.777087 5.858664 
L 238.13182 -6.376117 
L 252.111099 35.187083 
z
" clip-path="url(#pe7dc23fcf1)" style="fill: #0000f5; fill-opacity: 0.1"/>
    <path d="M 289.15371 113.547395 
L 274.910748 71.460889 
L 267.367212 59.459267 
L 281.600781 101.603441 
z
" clip-path="url(#pe7dc23fcf1)" style="fill: #0000f5; fill-opacity: 0.1"/>
    <path d="M 318.588339 179.835588 
L 304.092056 137.170405 
L 296.650595 125.402722 
L 311.139273 168.12973 
z
" clip-path="url(#pe7dc23fcf1)" style="fill: #0000f5; fill-opacity: 0.1"/>
    <path d="M 193.277686 -97.316927 
L 179.804539 -137.72373 
L 171.89858 -150.516765 
L 185.356429 -110.065087 
z
" clip-path="url(#pe7dc23fcf1)" style="fill: #0000f5; fill-opacity: 0.1"/>
    <path d="M 222.670108 -31.119616 
L 208.944302 -72.103694 
L 201.140093 -84.66348 
L 214.852381 -43.630387 
z
" clip-path="url(#pe7dc23fcf1)" style="fill: #0000f5; fill-opacity: 0.1"/>
    <path d="M 252.111099 35.187083 
L 238.13182 -6.376117 
L 230.429706 -18.701871 
L 244.397256 22.914505 
z
" clip-path="url(#pe7dc23fcf1)" style="fill: #0000f5; fill-opacity: 0.1"/>
    <path d="M 281.600781 101.603441 
L 267.367212 59.459267 
L 259.767539 47.368332 
L 273.991176 89.569862 
z
" clip-path="url(#pe7dc23fcf1)" style="fill: #0000f5; fill-opacity: 0.1"/>
    <path d="M 311.139273 168.12973 
L 296.650595 125.402722 
L 289.15371 113.547395 
L 303.634264 156.335961 
z
" clip-path="url(#pe7dc23fcf1)" style="fill: #0000f5; fill-opacity: 0.1"/>
    <path d="M 185.356429 -110.065087 
L 171.89858 -150.516765 
L 163.933713 -163.405122 
L 177.375657 -122.909026 
z
" clip-path="url(#pe7dc23fcf1)" style="fill: #0000f5; fill-opacity: 0.1"/>
    <path d="M 340.726697 234.766223 
L 325.982087 191.454515 
L 318.588339 179.835588 
L 333.326641 223.213076 
z
" clip-path="url(#pe7dc23fcf1)" style="fill: #0000f5; fill-opacity: 0.1"/>
    <path d="M 214.852381 -43.630387 
L 201.140093 -84.66348 
L 193.277686 -97.316927 
L 206.975868 -56.235232 
z
" clip-path="url(#pe7dc23fcf1)" style="fill: #0000f5; fill-opacity: 0.1"/>
    <path d="M 244.397256 22.914505 
L 230.429706 -18.701871 
L 222.670108 -31.119616 
L 236.62536 10.549567 
z
" clip-path="url(#pe7dc23fcf1)" style="fill: #0000f5; fill-opacity: 0.1"/>
    <path d="M 273.991176 89.569862 
L 259.767539 47.368332 
L 252.111099 35.187083 
L 266.324256 77.445647 
z
" clip-path="url(#pe7dc23fcf1)" style="fill: #0000f5; fill-opacity: 0.1"/>
    <path d="M 303.634264 156.335961 
L 289.15371 113.547395 
L 281.600781 101.603441 
L 296.07268 144.453287 
z
" clip-path="url(#pe7dc23fcf1)" style="fill: #0000f5; fill-opacity: 0.1"/>
    <path d="M 177.375657 -122.909026 
L 163.933713 -163.405122 
L 155.909278 -176.38987 
L 169.334697 -135.849829 
z
" clip-path="url(#pe7dc23fcf1)" style="fill: #0000f5; fill-opacity: 0.1"/>
    <path d="M 333.326641 223.213076 
L 318.588339 179.835588 
L 311.139273 168.12973 
L 325.870755 211.572766 
z
" clip-path="url(#pe7dc23fcf1)" style="fill: #0000f5; fill-opacity: 0.1"/>
    <path d="M 206.975868 -56.235232 
L 193.277686 -97.316927 
L 185.356429 -110.065087 
L 199.039904 -68.935216 
z
" clip-path="url(#pe7dc23fcf1)" style="fill: #0000f5; fill-opacity: 0.1"/>
    <path d="M 236.62536 10.549567 
L 222.670108 -31.119616 
L 214.852381 -43.630387 
L 228.794754 -1.908778 
z
" clip-path="url(#pe7dc23fcf1)" style="fill: #0000f5; fill-opacity: 0.1"/>
    <path d="M 266.324256 77.445647 
L 252.111099 35.187083 
L 244.397256 22.914505 
L 258.59937 65.229767 
z
" clip-path="url(#pe7dc23fcf1)" style="fill: #0000f5; fill-opacity: 0.1"/>
    <path d="M 296.07268 144.453287 
L 281.600781 101.603441 
L 273.991176 89.569862 
L 288.453879 132.480699 
z
" clip-path="url(#pe7dc23fcf1)" style="fill: #0000f5; fill-opacity: 0.1"/>
    <path d="M 169.334697 -135.849829 
L 155.909278 -176.38987 
L 147.824604 -189.472094 
L 161.232867 -148.888595 
z
" clip-path="url(#pe7dc23fcf1)" style="fill: #0000f5; fill-opacity: 0.1"/>
    <path d="M 325.870755 211.572766 
L 311.139273 168.12973 
L 303.634264 156.335961 
L 318.358405 199.844302 
z
" clip-path="url(#pe7dc23fcf1)" style="fill: #0000f5; fill-opacity: 0.1"/>
    <path d="M 199.039904 -68.935216 
L 185.356429 -110.065087 
L 177.375657 -122.909026 
L 191.043814 -81.731422 
z
" clip-path="url(#pe7dc23fcf1)" style="fill: #0000f5; fill-opacity: 0.1"/>
    <path d="M 355.718606 278.804364 
L 340.726697 234.766223 
L 333.326641 223.213076 
L 348.313074 267.320858 
z
" clip-path="url(#pe7dc23fcf1)" style="fill: #0000f5; fill-opacity: 0.1"/>
    <path d="M 228.794754 -1.908778 
L 214.852381 -43.630387 
L 206.975868 -56.235232 
L 220.90477 -14.461592 
z
" clip-path="url(#pe7dc23fcf1)" style="fill: #0000f5; fill-opacity: 0.1"/>
    <path d="M 258.59937 65.229767 
L 244.397256 22.914505 
L 236.62536 10.549567 
L 250.815859 52.921178 
z
" clip-path="url(#pe7dc23fcf1)" style="fill: #0000f5; fill-opacity: 0.1"/>
    <path d="M 288.453879 132.480699 
L 273.991176 89.569862 
L 266.324256 77.445647 
L 280.777209 120.417173 
z
" clip-path="url(#pe7dc23fcf1)" style="fill: #0000f5; fill-opacity: 0.1"/>
    <path d="M 161.232867 -148.888595 
L 147.824604 -189.472094 
L 139.679009 -202.652896 
L 153.069472 -162.026441 
z
" clip-path="url(#pe7dc23fcf1)" style="fill: #0000f5; fill-opacity: 0.1"/>
    <path d="M 318.358405 199.844302 
L 303.634264 156.335961 
L 296.07268 144.453287 
L 310.788946 188.026678 
z
" clip-path="url(#pe7dc23fcf1)" style="fill: #0000f5; fill-opacity: 0.1"/>
    <path d="M 191.043814 -81.731422 
L 177.375657 -122.909026 
L 169.334697 -135.849829 
L 182.986912 -94.624946 
z
" clip-path="url(#pe7dc23fcf1)" style="fill: #0000f5; fill-opacity: 0.1"/>
    <path d="M 348.313074 267.320858 
L 333.326641 223.213076 
L 325.870755 211.572766 
L 340.851197 255.749981 
z
" clip-path="url(#pe7dc23fcf1)" style="fill: #0000f5; fill-opacity: 0.1"/>
    <path d="M 220.90477 -14.461592 
L 206.975868 -56.235232 
L 199.039904 -68.935216 
L 212.95473 -27.109954 
z
" clip-path="url(#pe7dc23fcf1)" style="fill: #0000f5; fill-opacity: 0.1"/>
    <path d="M 250.815859 52.921178 
L 236.62536 10.549567 
L 228.794754 -1.908778 
L 242.973052 40.518821 
z
" clip-path="url(#pe7dc23fcf1)" style="fill: #0000f5; fill-opacity: 0.1"/>
    <path d="M 280.777209 120.417173 
L 266.324256 77.445647 
L 258.59937 65.229767 
L 273.042008 108.261668 
z
" clip-path="url(#pe7dc23fcf1)" style="fill: #0000f5; fill-opacity: 0.1"/>
    <path d="M 153.069472 -162.026441 
L 139.679009 -202.652896 
L 131.471802 -215.933395 
L 144.843808 -175.264501 
z
" clip-path="url(#pe7dc23fcf1)" style="fill: #0000f5; fill-opacity: 0.1"/>
    <path d="M 310.788946 188.026678 
L 296.07268 144.453287 
L 288.453879 132.480699 
L 303.161725 176.118876 
z
" clip-path="url(#pe7dc23fcf1)" style="fill: #0000f5; fill-opacity: 0.1"/>
    <path d="M 182.986912 -94.624946 
L 169.334697 -135.849829 
L 161.232867 -148.888595 
L 174.868501 -107.616903 
z
" clip-path="url(#pe7dc23fcf1)" style="fill: #0000f5; fill-opacity: 0.1"/>
    <path d="M 340.851197 255.749981 
L 325.870755 211.572766 
L 318.358405 199.844302 
L 333.332331 244.090733 
z
" clip-path="url(#pe7dc23fcf1)" style="fill: #0000f5; fill-opacity: 0.1"/>
    <path d="M 212.95473 -27.109954 
L 199.039904 -68.935216 
L 191.043814 -81.731422 
L 204.943946 -39.854959 
z
" clip-path="url(#pe7dc23fcf1)" style="fill: #0000f5; fill-opacity: 0.1"/>
    <path d="M 370.96409 323.587369 
L 355.718606 278.804364 
L 348.313074 267.320858 
L 363.553956 312.177532 
z
" clip-path="url(#pe7dc23fcf1)" style="fill: #0000f5; fill-opacity: 0.1"/>
    <path d="M 242.973052 40.518821 
L 228.794754 -1.908778 
L 220.90477 -14.461592 
L 235.07027 28.021621 
z
" clip-path="url(#pe7dc23fcf1)" style="fill: #0000f5; fill-opacity: 0.1"/>
    <path d="M 273.042008 108.261668 
L 258.59937 65.229767 
L 250.815859 52.921178 
L 265.247604 96.013129 
z
" clip-path="url(#pe7dc23fcf1)" style="fill: #0000f5; fill-opacity: 0.1"/>
    <path d="M 144.843808 -175.264501 
L 131.471802 -215.933395 
L 123.202283 -229.314725 
L 136.555159 -188.603924 
z
" clip-path="url(#pe7dc23fcf1)" style="fill: #0000f5; fill-opacity: 0.1"/>
    <path d="M 303.161725 176.118876 
L 288.453879 132.480699 
L 280.777209 120.417173 
L 295.476078 164.119857 
z
" clip-path="url(#pe7dc23fcf1)" style="fill: #0000f5; fill-opacity: 0.1"/>
    <path d="M 174.868501 -107.616903 
L 161.232867 -148.888595 
L 153.069472 -162.026441 
L 166.687874 -120.708424 
z
" clip-path="url(#pe7dc23fcf1)" style="fill: #0000f5; fill-opacity: 0.1"/>
    <path d="M 333.332331 244.090733 
L 318.358405 199.844302 
L 310.788946 188.026678 
L 325.75582 232.342098 
z
" clip-path="url(#pe7dc23fcf1)" style="fill: #0000f5; fill-opacity: 0.1"/>
    <path d="M 204.943946 -39.854959 
L 191.043814 -81.731422 
L 182.986912 -94.624946 
L 196.871718 -52.697719 
z
" clip-path="url(#pe7dc23fcf1)" style="fill: #0000f5; fill-opacity: 0.1"/>
    <path d="M 363.553956 312.177532 
L 348.313074 267.320858 
L 340.851197 255.749981 
L 356.086963 300.680146 
z
" clip-path="url(#pe7dc23fcf1)" style="fill: #0000f5; fill-opacity: 0.1"/>
    <path d="M 235.07027 28.021621 
L 220.90477 -14.461592 
L 212.95473 -27.109954 
L 227.106822 15.428486 
z
" clip-path="url(#pe7dc23fcf1)" style="fill: #0000f5; fill-opacity: 0.1"/>
    <path d="M 265.247604 96.013129 
L 250.815859 52.921178 
L 242.973052 40.518821 
L 257.393316 83.670484 
z
" clip-path="url(#pe7dc23fcf1)" style="fill: #0000f5; fill-opacity: 0.1"/>
    <path d="M 136.555159 -188.603924 
L 123.202283 -229.314725 
L 114.869738 -242.798041 
L 128.2028 -202.045882 
z
" clip-path="url(#pe7dc23fcf1)" style="fill: #0000f5; fill-opacity: 0.1"/>
    <path d="M 295.476078 164.119857 
L 280.777209 120.417173 
L 273.042008 108.261668 
L 287.731331 152.028571 
z
" clip-path="url(#pe7dc23fcf1)" style="fill: #0000f5; fill-opacity: 0.1"/>
    <path d="M 166.687874 -120.708424 
L 153.069472 -162.026441 
L 144.843808 -175.264501 
L 158.444314 -133.900659 
z
" clip-path="url(#pe7dc23fcf1)" style="fill: #0000f5; fill-opacity: 0.1"/>
    <path d="M 325.75582 232.342098 
L 310.788946 188.026678 
L 303.161725 176.118876 
L 318.121 220.503043 
z
" clip-path="url(#pe7dc23fcf1)" style="fill: #0000f5; fill-opacity: 0.1"/>
    <path d="M 196.871718 -52.697719 
L 182.986912 -94.624946 
L 174.868501 -107.616903 
L 188.737338 -65.639362 
z
" clip-path="url(#pe7dc23fcf1)" style="fill: #0000f5; fill-opacity: 0.1"/>
    <path d="M 356.086963 300.680146 
L 340.851197 255.749981 
L 333.332331 244.090733 
L 348.562453 289.094198 
z
" clip-path="url(#pe7dc23fcf1)" style="fill: #0000f5; fill-opacity: 0.1"/>
    <path d="M 227.106822 15.428486 
L 212.95473 -27.109954 
L 204.943946 -39.854959 
L 219.082006 2.738306 
z
" clip-path="url(#pe7dc23fcf1)" style="fill: #0000f5; fill-opacity: 0.1"/>
    <path d="M 386.469636 369.134296 
L 370.96409 323.587369 
L 363.553956 312.177532 
L 379.055824 357.802335 
z
" clip-path="url(#pe7dc23fcf1)" style="fill: #0000f5; fill-opacity: 0.1"/>
    <path d="M 257.393316 83.670484 
L 242.973052 40.518821 
L 235.07027 28.021621 
L 249.478449 71.232643 
z
" clip-path="url(#pe7dc23fcf1)" style="fill: #0000f5; fill-opacity: 0.1"/>
    <path d="M 128.2028 -202.045882 
L 114.869738 -242.798041 
L 106.473444 -256.384512 
L 119.785993 -215.591559 
z
" clip-path="url(#pe7dc23fcf1)" style="fill: #0000f5; fill-opacity: 0.1"/>
    <path d="M 287.731331 152.028571 
L 273.042008 108.261668 
L 265.247604 96.013129 
L 279.926801 139.843948 
z
" clip-path="url(#pe7dc23fcf1)" style="fill: #0000f5; fill-opacity: 0.1"/>
    <path d="M 158.444314 -133.900659 
L 144.843808 -175.264501 
L 136.555159 -188.603924 
L 150.13709 -147.194774 
z
" clip-path="url(#pe7dc23fcf1)" style="fill: #0000f5; fill-opacity: 0.1"/>
    <path d="M 318.121 220.503043 
L 303.161725 176.118876 
L 295.476078 164.119857 
L 310.427193 208.572521 
z
" clip-path="url(#pe7dc23fcf1)" style="fill: #0000f5; fill-opacity: 0.1"/>
    <path d="M 188.737338 -65.639362 
L 174.868501 -107.616903 
L 166.687874 -120.708424 
L 180.540085 -78.681036 
z
" clip-path="url(#pe7dc23fcf1)" style="fill: #0000f5; fill-opacity: 0.1"/>
    <path d="M 348.562453 289.094198 
L 333.332331 244.090733 
L 325.75582 232.342098 
L 340.979761 277.418663 
z
" clip-path="url(#pe7dc23fcf1)" style="fill: #0000f5; fill-opacity: 0.1"/>
    <path d="M 219.082006 2.738306 
L 204.943946 -39.854959 
L 196.871718 -52.697719 
L 210.995111 -10.050044 
z
" clip-path="url(#pe7dc23fcf1)" style="fill: #0000f5; fill-opacity: 0.1"/>
    <path d="M 379.055824 357.802335 
L 363.553956 312.177532 
L 356.086963 300.680146 
L 371.584636 346.382675 
z
" clip-path="url(#pe7dc23fcf1)" style="fill: #0000f5; fill-opacity: 0.1"/>
    <path d="M 249.478449 71.232643 
L 235.07027 28.021621 
L 227.106822 15.428486 
L 241.502302 58.698502 
z
" clip-path="url(#pe7dc23fcf1)" style="fill: #0000f5; fill-opacity: 0.1"/>
    <path d="M 279.926801 139.843948 
L 265.247604 96.013129 
L 257.393316 83.670484 
L 272.061791 127.564904 
z
" clip-path="url(#pe7dc23fcf1)" style="fill: #0000f5; fill-opacity: 0.1"/>
    <path d="M 150.13709 -147.194774 
L 136.555159 -188.603924 
L 128.2028 -202.045882 
L 141.765464 -160.591953 
z
" clip-path="url(#pe7dc23fcf1)" style="fill: #0000f5; fill-opacity: 0.1"/>
    <path d="M 310.427193 208.572521 
L 295.476078 164.119857 
L 287.731331 152.028571 
L 302.673715 196.549468 
z
" clip-path="url(#pe7dc23fcf1)" style="fill: #0000f5; fill-opacity: 0.1"/>
    <path d="M 180.540085 -78.681036 
L 166.687874 -120.708424 
L 158.444314 -133.900659 
L 172.279226 -91.823904 
z
" clip-path="url(#pe7dc23fcf1)" style="fill: #0000f5; fill-opacity: 0.1"/>
    <path d="M 340.979761 277.418663 
L 325.75582 232.342098 
L 318.121 220.503043 
L 333.338207 265.652495 
z
" clip-path="url(#pe7dc23fcf1)" style="fill: #0000f5; fill-opacity: 0.1"/>
    <path d="M 210.995111 -10.050044 
L 196.871718 -52.697719 
L 188.737338 -65.639362 
L 202.845413 -22.937709 
z
" clip-path="url(#pe7dc23fcf1)" style="fill: #0000f5; fill-opacity: 0.1"/>
    <path d="M 371.584636 346.382675 
L 356.086963 300.680146 
L 348.562453 289.094198 
L 364.055404 334.874293 
z
" clip-path="url(#pe7dc23fcf1)" style="fill: #0000f5; fill-opacity: 0.1"/>
    <path d="M 241.502302 58.698502 
L 227.106822 15.428486 
L 219.082006 2.738306 
L 233.464158 46.066936 
z
" clip-path="url(#pe7dc23fcf1)" style="fill: #0000f5; fill-opacity: 0.1"/>
    <path d="M 272.061791 127.564904 
L 257.393316 83.670484 
L 249.478449 71.232643 
L 264.135597 115.190338 
z
" clip-path="url(#pe7dc23fcf1)" style="fill: #0000f5; fill-opacity: 0.1"/>
    <path d="M 141.765464 -160.591953 
L 128.2028 -202.045882 
L 119.785993 -215.591559 
L 133.328682 -174.093401 
z
" clip-path="url(#pe7dc23fcf1)" style="fill: #0000f5; fill-opacity: 0.1"/>
    <path d="M 302.673715 196.549468 
L 287.731331 152.028571 
L 279.926801 139.843948 
L 294.859868 184.432802 
z
" clip-path="url(#pe7dc23fcf1)" style="fill: #0000f5; fill-opacity: 0.1"/>
    <path d="M 172.279226 -91.823904 
L 158.444314 -133.900659 
L 150.13709 -147.194774 
L 163.95402 -105.069149 
z
" clip-path="url(#pe7dc23fcf1)" style="fill: #0000f5; fill-opacity: 0.1"/>
    <path d="M 333.338207 265.652495 
L 318.121 220.503043 
L 310.427193 208.572521 
L 325.637105 253.794637 
z
" clip-path="url(#pe7dc23fcf1)" style="fill: #0000f5; fill-opacity: 0.1"/>
    <path d="M 202.845413 -22.937709 
L 188.737338 -65.639362 
L 180.540085 -78.681036 
L 194.632178 -35.925849 
z
" clip-path="url(#pe7dc23fcf1)" style="fill: #0000f5; fill-opacity: 0.1"/>
    <path d="M 364.055404 334.874293 
L 348.562453 289.094198 
L 340.979761 277.418663 
L 356.467447 323.276152 
z
" clip-path="url(#pe7dc23fcf1)" style="fill: #0000f5; fill-opacity: 0.1"/>
    <path d="M 233.464158 46.066936 
L 219.082006 2.738306 
L 210.995111 -10.050044 
L 225.363293 33.336807 
z
" clip-path="url(#pe7dc23fcf1)" style="fill: #0000f5; fill-opacity: 0.1"/>
    <path d="M 264.135597 115.190338 
L 249.478449 71.232643 
L 241.502302 58.698502 
L 256.147502 102.719129 
z
" clip-path="url(#pe7dc23fcf1)" style="fill: #0000f5; fill-opacity: 0.1"/>
    <path d="M 294.859868 184.432802 
L 279.926801 139.843948 
L 272.061791 127.564904 
L 286.984943 172.221427 
z
" clip-path="url(#pe7dc23fcf1)" style="fill: #0000f5; fill-opacity: 0.1"/>
    <path d="M 163.95402 -105.069149 
L 150.13709 -147.194774 
L 141.765464 -160.591953 
L 155.56371 -118.417972 
z
" clip-path="url(#pe7dc23fcf1)" style="fill: #0000f5; fill-opacity: 0.1"/>
    <path d="M 325.637105 253.794637 
L 310.427193 208.572521 
L 302.673715 196.549468 
L 317.875755 241.844012 
z
" clip-path="url(#pe7dc23fcf1)" style="fill: #0000f5; fill-opacity: 0.1"/>
    <path d="M 194.632178 -35.925849 
L 180.540085 -78.681036 
L 172.279226 -91.823904 
L 186.354659 -49.015644 
z
" clip-path="url(#pe7dc23fcf1)" style="fill: #0000f5; fill-opacity: 0.1"/>
    <path d="M 356.467447 323.276152 
L 340.979761 277.418663 
L 333.338207 265.652495 
L 348.820076 311.587197 
z
" clip-path="url(#pe7dc23fcf1)" style="fill: #0000f5; fill-opacity: 0.1"/>
    <path d="M 225.363293 33.336807 
L 210.995111 -10.050044 
L 202.845413 -22.937709 
L 217.198969 20.506956 
z
" clip-path="url(#pe7dc23fcf1)" style="fill: #0000f5; fill-opacity: 0.1"/>
    <path d="M 256.147502 102.719129 
L 241.502302 58.698502 
L 233.464158 46.066936 
L 248.096777 90.150142 
z
" clip-path="url(#pe7dc23fcf1)" style="fill: #0000f5; fill-opacity: 0.1"/>
    <path d="M 286.984943 172.221427 
L 272.061791 127.564904 
L 264.135597 115.190338 
L 279.048223 159.914227 
z
" clip-path="url(#pe7dc23fcf1)" style="fill: #0000f5; fill-opacity: 0.1"/>
    <path d="M 155.56371 -118.417972 
L 141.765464 -160.591953 
L 133.328682 -174.093401 
L 147.10753 -131.871592 
z
" clip-path="url(#pe7dc23fcf1)" style="fill: #0000f5; fill-opacity: 0.1"/>
    <path d="M 317.875755 241.844012 
L 302.673715 196.549468 
L 294.859868 184.432802 
L 310.053448 229.799527 
z
" clip-path="url(#pe7dc23fcf1)" style="fill: #0000f5; fill-opacity: 0.1"/>
    <path d="M 186.354659 -49.015644 
L 172.279226 -91.823904 
L 163.95402 -105.069149 
L 178.0121 -62.208293 
z
" clip-path="url(#pe7dc23fcf1)" style="fill: #0000f5; fill-opacity: 0.1"/>
    <path d="M 348.820076 311.587197 
L 333.338207 265.652495 
L 325.637105 253.794637 
L 341.11259 299.806358 
z
" clip-path="url(#pe7dc23fcf1)" style="fill: #0000f5; fill-opacity: 0.1"/>
    <path d="M 217.198969 20.506956 
L 202.845413 -22.937709 
L 194.632178 -35.925849 
L 208.970438 7.576206 
z
" clip-path="url(#pe7dc23fcf1)" style="fill: #0000f5; fill-opacity: 0.1"/>
    <path d="M 248.096777 90.150142 
L 233.464158 46.066936 
L 225.363293 33.336807 
L 239.982683 77.482222 
z
" clip-path="url(#pe7dc23fcf1)" style="fill: #0000f5; fill-opacity: 0.1"/>
    <path d="M 279.048223 159.914227 
L 264.135597 115.190338 
L 256.147502 102.719129 
L 271.048978 147.510071 
z
" clip-path="url(#pe7dc23fcf1)" style="fill: #0000f5; fill-opacity: 0.1"/>
    <path d="M 310.053448 229.799527 
L 294.859868 184.432802 
L 286.984943 172.221427 
L 302.169462 217.660072 
z
" clip-path="url(#pe7dc23fcf1)" style="fill: #0000f5; fill-opacity: 0.1"/>
    <path d="M 178.0121 -62.208293 
L 163.95402 -105.069149 
L 155.56371 -118.417972 
L 169.603731 -75.505011 
z
" clip-path="url(#pe7dc23fcf1)" style="fill: #0000f5; fill-opacity: 0.1"/>
    <path d="M 341.11259 299.806358 
L 325.637105 253.794637 
L 317.875755 241.844012 
L 333.344279 287.932547 
z
" clip-path="url(#pe7dc23fcf1)" style="fill: #0000f5; fill-opacity: 0.1"/>
    <path d="M 208.970438 7.576206 
L 194.632178 -35.925849 
L 186.354659 -49.015644 
L 200.67694 -5.456637 
z
" clip-path="url(#pe7dc23fcf1)" style="fill: #0000f5; fill-opacity: 0.1"/>
    <path d="M 239.982683 77.482222 
L 225.363293 33.336807 
L 217.198969 20.506956 
L 231.80447 64.714196 
z
" clip-path="url(#pe7dc23fcf1)" style="fill: #0000f5; fill-opacity: 0.1"/>
    <path d="M 271.048978 147.510071 
L 256.147502 102.719129 
L 248.096777 90.150142 
L 262.986464 135.007807 
z
" clip-path="url(#pe7dc23fcf1)" style="fill: #0000f5; fill-opacity: 0.1"/>
    <path d="M 302.169462 217.660072 
L 286.984943 172.221427 
L 279.048223 159.914227 
L 294.223066 205.42452 
z
" clip-path="url(#pe7dc23fcf1)" style="fill: #0000f5; fill-opacity: 0.1"/>
    <path d="M 169.603731 -75.505011 
L 155.56371 -118.417972 
L 147.10753 -131.871592 
L 161.12877 -88.907037 
z
" clip-path="url(#pe7dc23fcf1)" style="fill: #0000f5; fill-opacity: 0.1"/>
    <path d="M 333.344279 287.932547 
L 317.875755 241.844012 
L 310.053448 229.799527 
L 325.514419 275.964658 
z
" clip-path="url(#pe7dc23fcf1)" style="fill: #0000f5; fill-opacity: 0.1"/>
    <path d="M 200.67694 -5.456637 
L 186.354659 -49.015644 
L 178.0121 -62.208293 
L 192.317701 -18.592787 
z
" clip-path="url(#pe7dc23fcf1)" style="fill: #0000f5; fill-opacity: 0.1"/>
    <path d="M 231.80447 64.714196 
L 217.198969 20.506956 
L 208.970438 7.576206 
L 223.561373 51.844873 
z
" clip-path="url(#pe7dc23fcf1)" style="fill: #0000f5; fill-opacity: 0.1"/>
    <path d="M 262.986464 135.007807 
L 248.096777 90.150142 
L 239.982683 77.482222 
L 254.859929 122.406268 
z
" clip-path="url(#pe7dc23fcf1)" style="fill: #0000f5; fill-opacity: 0.1"/>
    <path d="M 294.223066 205.42452 
L 279.048223 159.914227 
L 271.048978 147.510071 
L 286.213515 193.091725 
z
" clip-path="url(#pe7dc23fcf1)" style="fill: #0000f5; fill-opacity: 0.1"/>
    <path d="M 325.514419 275.964658 
L 310.053448 229.799527 
L 302.169462 217.660072 
L 317.622275 263.90157 
z
" clip-path="url(#pe7dc23fcf1)" style="fill: #0000f5; fill-opacity: 0.1"/>
    <path d="M 192.317701 -18.592787 
L 178.0121 -62.208293 
L 169.603731 -75.505011 
L 183.891938 -31.833478 
z
" clip-path="url(#pe7dc23fcf1)" style="fill: #0000f5; fill-opacity: 0.1"/>
    <path d="M 223.561373 51.844873 
L 208.970438 7.576206 
L 200.67694 -5.456637 
L 215.252618 38.873043 
z
" clip-path="url(#pe7dc23fcf1)" style="fill: #0000f5; fill-opacity: 0.1"/>
    <path d="M 254.859929 122.406268 
L 239.982683 77.482222 
L 231.80447 64.714196 
L 246.668608 109.704266 
z
" clip-path="url(#pe7dc23fcf1)" style="fill: #0000f5; fill-opacity: 0.1"/>
    <path d="M 286.213515 193.091725 
L 271.048978 147.510071 
L 262.986464 135.007807 
L 278.140054 180.660522 
z
" clip-path="url(#pe7dc23fcf1)" style="fill: #0000f5; fill-opacity: 0.1"/>
    <path d="M 317.622275 263.90157 
L 302.169462 217.660072 
L 294.223066 205.42452 
L 309.667103 251.742142 
z
" clip-path="url(#pe7dc23fcf1)" style="fill: #0000f5; fill-opacity: 0.1"/>
    <path d="M 183.891938 -31.833478 
L 169.603731 -75.505011 
L 161.12877 -88.907037 
L 175.398853 -45.179962 
z
" clip-path="url(#pe7dc23fcf1)" style="fill: #0000f5; fill-opacity: 0.1"/>
    <path d="M 215.252618 38.873043 
L 200.67694 -5.456637 
L 192.317701 -18.592787 
L 206.877417 25.797476 
z
" clip-path="url(#pe7dc23fcf1)" style="fill: #0000f5; fill-opacity: 0.1"/>
    <path d="M 246.668608 109.704266 
L 231.80447 64.714196 
L 223.561373 51.844873 
L 238.411721 96.900595 
z
" clip-path="url(#pe7dc23fcf1)" style="fill: #0000f5; fill-opacity: 0.1"/>
    <path d="M 278.140054 180.660522 
L 262.986464 135.007807 
L 254.859929 122.406268 
L 270.001913 168.12973 
z
" clip-path="url(#pe7dc23fcf1)" style="fill: #0000f5; fill-opacity: 0.1"/>
    <path d="M 309.667103 251.742142 
L 294.223066 205.42452 
L 286.213515 193.091725 
L 301.648142 239.485215 
z
" clip-path="url(#pe7dc23fcf1)" style="fill: #0000f5; fill-opacity: 0.1"/>
    <path d="M 206.877417 25.797476 
L 192.317701 -18.592787 
L 183.891938 -31.833478 
L 198.43497 12.616923 
z
" clip-path="url(#pe7dc23fcf1)" style="fill: #0000f5; fill-opacity: 0.1"/>
    <path d="M 238.411721 96.900595 
L 223.561373 51.844873 
L 215.252618 38.873043 
L 230.08848 83.99403 
z
" clip-path="url(#pe7dc23fcf1)" style="fill: #0000f5; fill-opacity: 0.1"/>
    <path d="M 270.001913 168.12973 
L 254.859929 122.406268 
L 246.668608 109.704266 
L 261.798314 155.498146 
z
" clip-path="url(#pe7dc23fcf1)" style="fill: #0000f5; fill-opacity: 0.1"/>
    <path d="M 301.648142 239.485215 
L 286.213515 193.091725 
L 278.140054 180.660522 
L 293.564624 227.129612 
z
" clip-path="url(#pe7dc23fcf1)" style="fill: #0000f5; fill-opacity: 0.1"/>
    <path d="M 198.43497 12.616923 
L 183.891938 -31.833478 
L 175.398853 -45.179962 
L 189.924464 -0.669887 
z
" clip-path="url(#pe7dc23fcf1)" style="fill: #0000f5; fill-opacity: 0.1"/>
    <path d="M 230.08848 83.99403 
L 215.252618 38.873043 
L 206.877417 25.797476 
L 221.69808 70.983324 
z
" clip-path="url(#pe7dc23fcf1)" style="fill: #0000f5; fill-opacity: 0.1"/>
    <path d="M 261.798314 155.498146 
L 246.668608 109.704266 
L 238.411721 96.900595 
L 253.528463 142.764551 
z
" clip-path="url(#pe7dc23fcf1)" style="fill: #0000f5; fill-opacity: 0.1"/>
    <path d="M 293.564624 227.129612 
L 278.140054 180.660522 
L 270.001913 168.12973 
L 285.415765 214.674136 
z
" clip-path="url(#pe7dc23fcf1)" style="fill: #0000f5; fill-opacity: 0.1"/>
    <path d="M 221.69808 70.983324 
L 206.877417 25.797476 
L 198.43497 12.616923 
L 213.239706 57.867213 
z
" clip-path="url(#pe7dc23fcf1)" style="fill: #0000f5; fill-opacity: 0.1"/>
    <path d="M 253.528463 142.764551 
L 238.411721 96.900595 
L 230.08848 83.99403 
L 245.191554 129.927702 
z
" clip-path="url(#pe7dc23fcf1)" style="fill: #0000f5; fill-opacity: 0.1"/>
    <path d="M 285.415765 214.674136 
L 270.001913 168.12973 
L 261.798314 155.498146 
L 277.20077 202.117572 
z
" clip-path="url(#pe7dc23fcf1)" style="fill: #0000f5; fill-opacity: 0.1"/>
    <path d="M 213.239706 57.867213 
L 198.43497 12.616923 
L 189.924464 -0.669887 
L 204.712528 44.644411 
z
" clip-path="url(#pe7dc23fcf1)" style="fill: #0000f5; fill-opacity: 0.1"/>
    <path d="M 245.191554 129.927702 
L 230.08848 83.99403 
L 221.69808 70.983324 
L 236.786768 116.986339 
z
" clip-path="url(#pe7dc23fcf1)" style="fill: #0000f5; fill-opacity: 0.1"/>
    <path d="M 277.20077 202.117572 
L 261.798314 155.498146 
L 253.528463 142.764551 
L 268.918831 189.458684 
z
" clip-path="url(#pe7dc23fcf1)" style="fill: #0000f5; fill-opacity: 0.1"/>
    <path d="M 236.786768 116.986339 
L 221.69808 70.983324 
L 213.239706 57.867213 
L 228.313274 103.939181 
z
" clip-path="url(#pe7dc23fcf1)" style="fill: #0000f5; fill-opacity: 0.1"/>
    <path d="M 268.918831 189.458684 
L 253.528463 142.764551 
L 245.191554 129.927702 
L 260.569126 176.696216 
z
" clip-path="url(#pe7dc23fcf1)" style="fill: #0000f5; fill-opacity: 0.1"/>
    <path d="M 228.313274 103.939181 
L 213.239706 57.867213 
L 204.712528 44.644411 
L 219.770224 90.784925 
z
" clip-path="url(#pe7dc23fcf1)" style="fill: #0000f5; fill-opacity: 0.1"/>
    <path d="M 260.569126 176.696216 
L 245.191554 129.927702 
L 236.786768 116.986339 
L 252.150819 163.828891 
z
" clip-path="url(#pe7dc23fcf1)" style="fill: #0000f5; fill-opacity: 0.1"/>
    <path d="M 252.150819 163.828891 
L 236.786768 116.986339 
L 228.313274 103.939181 
L 243.663062 150.855412 
z
" clip-path="url(#pe7dc23fcf1)" style="fill: #0000f5; fill-opacity: 0.1"/>
    <path d="M 243.663062 150.855412 
L 228.313274 103.939181 
L 219.770224 90.784925 
L 235.104992 137.77446 
z
" clip-path="url(#pe7dc23fcf1)" style="fill: #0000f5; fill-opacity: 0.1"/>
   </g>
   <g id="legend_1">
    <g id="patch_6">
     <path d="M 357.840076 67.305115 
L 396.2 67.305115 
Q 398.2 67.305115 398.2 65.305115 
L 398.2 7 
Q 398.2 5 396.2 5 
L 357.840076 5 
Q 355.840076 5 355.840076 7 
L 355.840076 65.305115 
Q 355.840076 67.305115 357.840076 67.305115 
z
" style="fill: #ffffff; opacity: 0.8; stroke: #cccccc; stroke-linejoin: miter"/>
    </g>
    <g id="line2d_25">
     <path d="M 359.840076 12.5 
L 369.840076 12.5 
L 379.840076 12.5 
" style="fill: none; stroke: #ff0000; stroke-width: 1.5; stroke-linecap: square"/>
    </g>
    <g id="text_21">
     <!-- $\vec{a}$ -->
     <g transform="translate(387.840076 16)scale(0.1 -0.1)">
      <defs>
       <path id="CMMI12-7e" d="M 3424 3835 
C 3347 3764 3110 3540 3110 3451 
C 3110 3387 3168 3329 3232 3329 
C 3290 3329 3315 3368 3360 3432 
C 3514 3624 3686 3745 3834 3828 
C 3898 3867 3942 3886 3942 3956 
C 3942 4014 3891 4046 3853 4078 
C 3674 4200 3629 4372 3610 4449 
C 3590 4500 3571 4577 3482 4577 
C 3443 4577 3366 4552 3366 4456 
C 3366 4398 3405 4244 3526 4072 
L 1376 4072 
C 1267 4072 1158 4072 1158 3950 
C 1158 3835 1274 3835 1376 3835 
L 3424 3835 
z
" transform="scale(0.015625)"/>
       <path id="CMMI12-61" d="M 1926 760 
C 1894 651 1894 639 1805 517 
C 1664 338 1382 64 1082 64 
C 819 64 672 300 672 677 
C 672 1028 870 1743 992 2012 
C 1210 2459 1510 2689 1760 2689 
C 2182 2689 2266 2165 2266 2114 
C 2266 2108 2246 2024 2240 2012 
L 1926 760 
z
M 2336 2395 
C 2266 2561 2093 2816 1760 2816 
C 1037 2816 256 1884 256 939 
C 256 307 627 -64 1062 -64 
C 1414 -64 1715 211 1894 422 
C 1958 45 2259 -64 2451 -64 
C 2643 -64 2797 51 2912 281 
C 3014 498 3104 888 3104 913 
C 3104 945 3078 971 3040 971 
C 2982 971 2976 939 2950 843 
C 2854 466 2733 64 2470 64 
C 2285 64 2272 230 2272 358 
C 2272 505 2291 575 2349 824 
C 2394 984 2426 1124 2477 1309 
C 2714 2267 2771 2497 2771 2535 
C 2771 2625 2701 2695 2605 2695 
C 2400 2695 2349 2472 2336 2395 
z
" transform="scale(0.015625)"/>
      </defs>
      <use xlink:href="#CMMI12-7e" transform="scale(0.996264)"/>
      <use xlink:href="#CMMI12-61" transform="translate(6.445738 0)scale(0.996264)"/>
     </g>
    </g>
    <g id="line2d_26">
     <path d="M 359.840076 27.24679 
L 369.840076 27.24679 
L 379.840076 27.24679 
" style="fill: none; stroke: #00ff00; stroke-width: 1.5; stroke-linecap: square"/>
    </g>
    <g id="text_22">
     <!-- $\vec{b}$ -->
     <g transform="translate(387.840076 30.74679)scale(0.1 -0.1)">
      <defs>
       <path id="CMMI12-62" d="M 1478 4257 
C 1485 4283 1498 4321 1498 4352 
C 1498 4416 1434 4416 1421 4416 
C 1414 4416 1184 4393 1069 4377 
C 960 4377 864 4358 749 4358 
C 595 4345 550 4339 550 4224 
C 550 4160 614 4160 678 4160 
C 1005 4160 1005 4103 1005 4040 
C 1005 3996 954 3811 928 3696 
L 774 3085 
C 710 2831 346 1387 320 1272 
C 288 1114 288 1005 288 922 
C 288 274 653 -64 1069 -64 
C 1811 -64 2579 888 2579 1814 
C 2579 2401 2246 2816 1766 2816 
C 1434 2816 1133 2542 1011 2414 
L 1478 4257 
z
M 1075 64 
C 870 64 646 217 646 715 
C 646 926 666 1047 781 1494 
C 800 1577 902 1986 928 2069 
C 941 2120 1318 2689 1754 2689 
C 2035 2689 2163 2408 2163 2076 
C 2163 1769 1984 1047 1824 715 
C 1664 370 1370 64 1075 64 
z
" transform="scale(0.015625)"/>
      </defs>
      <use xlink:href="#CMMI12-7e" transform="translate(0 26.29016)scale(0.996264)"/>
      <use xlink:href="#CMMI12-62" transform="translate(11.311737 0)scale(0.996264)"/>
     </g>
    </g>
    <g id="line2d_27">
     <path d="M 359.840076 41.183968 
L 369.840076 41.183968 
L 379.840076 41.183968 
" style="fill: none; stroke: #0016ff; stroke-width: 1.5; stroke-linecap: square"/>
    </g>
    <g id="text_23">
     <!-- $\vec{c}$ -->
     <g transform="translate(387.840076 44.683968)scale(0.1 -0.1)">
      <defs>
       <path id="CMMI12-63" d="M 2502 2431 
C 2381 2431 2323 2431 2234 2355 
C 2195 2323 2125 2227 2125 2125 
C 2125 1997 2221 1920 2342 1920 
C 2496 1920 2669 2044 2669 2292 
C 2669 2588 2374 2816 1933 2816 
C 1094 2816 256 1903 256 996 
C 256 441 602 -64 1254 -64 
C 2125 -64 2675 622 2675 706 
C 2675 744 2637 776 2611 776 
C 2592 776 2586 770 2528 713 
C 2118 162 1510 64 1267 64 
C 826 64 685 446 685 764 
C 685 988 794 1605 1024 2039 
C 1190 2338 1536 2682 1939 2682 
C 2022 2682 2374 2682 2502 2431 
z
" transform="scale(0.015625)"/>
      </defs>
      <use xlink:href="#CMMI12-7e" transform="scale(0.996264)"/>
      <use xlink:href="#CMMI12-63" transform="translate(5.638615 0)scale(0.996264)"/>
     </g>
    </g>
    <g id="line2d_28">
     <path d="M 359.840076 57.867937 
L 369.840076 57.867937 
L 379.840076 57.867937 
" style="fill: none; stroke: #f400ff; stroke-width: 1.5; stroke-linecap: square"/>
    </g>
    <g id="text_24">
     <!-- $\vec{f}$ -->
     <g transform="translate(387.840076 61.367937)scale(0.1 -0.1)">
      <defs>
       <path id="CMMI12-66" d="M 2854 2566 
C 2982 2566 3034 2566 3034 2688 
C 3034 2752 2982 2752 2867 2752 
L 2349 2752 
C 2470 3429 2560 3897 2611 4107 
C 2650 4265 2784 4416 2950 4416 
C 3085 4416 3219 4358 3283 4298 
C 3034 4272 2957 4082 2957 3969 
C 2957 3837 3053 3759 3174 3759 
C 3302 3759 3494 3870 3494 4119 
C 3494 4393 3226 4544 2944 4544 
C 2669 4544 2400 4334 2272 4078 
C 2157 3848 2093 3611 1946 2752 
L 1517 2752 
C 1395 2752 1331 2752 1331 2637 
C 1331 2566 1370 2566 1498 2566 
L 1907 2566 
C 1792 1976 1530 542 1382 -137 
C 1274 -689 1178 -1152 858 -1152 
C 838 -1152 653 -1152 538 -1031 
C 864 -1005 864 -726 864 -720 
C 864 -593 768 -517 646 -517 
C 518 -517 326 -625 326 -867 
C 326 -1140 608 -1280 858 -1280 
C 1510 -1280 1779 -118 1850 199 
C 1965 688 2278 2376 2310 2566 
L 2854 2566 
z
" transform="scale(0.015625)"/>
      </defs>
      <use xlink:href="#CMMI12-7e" transform="translate(13.568792 26.29016)scale(0.996264)"/>
      <use xlink:href="#CMMI12-66" transform="scale(0.996264)"/>
     </g>
    </g>
   </g>
  </g>
 </g>
 <defs>
  <clipPath id="pe7dc23fcf1">
   <rect x="57.6" y="0" width="345.6" height="345.6"/>
  </clipPath>
 </defs>
</svg>
