<?xml version="1.0" encoding="utf-8" standalone="no"?>
<!DOCTYPE svg PUBLIC "-//W3C//DTD SVG 1.1//EN"
  "http://www.w3.org/Graphics/SVG/1.1/DTD/svg11.dtd">
<svg xmlns:xlink="http://www.w3.org/1999/xlink" width="460.8pt" height="345.6pt" viewBox="0 0 460.8 345.6" xmlns="http://www.w3.org/2000/svg" version="1.1">
 <metadata>
  <rdf:RDF xmlns:dc="http://purl.org/dc/elements/1.1/" xmlns:cc="http://creativecommons.org/ns#" xmlns:rdf="http://www.w3.org/1999/02/22-rdf-syntax-ns#">
   <cc:Work>
    <dc:type rdf:resource="http://purl.org/dc/dcmitype/StillImage"/>
    <dc:date>2022-07-12T15:41:42.743549</dc:date>
    <dc:format>image/svg+xml</dc:format>
    <dc:creator>
     <cc:Agent>
      <dc:title>Matplotlib v3.5.1, https://matplotlib.org/</dc:title>
     </cc:Agent>
    </dc:creator>
   </cc:Work>
  </rdf:RDF>
 </metadata>
 <defs>
  <style type="text/css">*{stroke-linejoin: round; stroke-linecap: butt}</style>
 </defs>
 <g id="figure_1">
  <g id="patch_1">
   <path d="M 0 345.6 
L 460.8 345.6 
L 460.8 0 
L 0 0 
z
" style="fill: #ffffff"/>
  </g>
  <g id="patch_2">
   <path d="M 57.6 345.6 
L 403.2 345.6 
L 403.2 0 
L 57.6 0 
z
" style="fill: #ffffff"/>
  </g>
  <g id="pane3d_1">
   <g id="patch_3">
    <path d="M 267.763642 245.205514 
L 84.692152 249.977524 
L 84.692152 86.281936 
L 267.763642 91.053946 
" style="fill: #f2f2f2; opacity: 0.5; stroke: #f2f2f2; stroke-linejoin: miter"/>
   </g>
  </g>
  <g id="pane3d_2">
   <g id="patch_4">
    <path d="M 391.253508 253.137134 
L 267.763642 245.205514 
L 267.763642 91.053946 
L 391.253508 83.122326 
" style="fill: #e6e6e6; opacity: 0.5; stroke: #e6e6e6; stroke-linejoin: miter"/>
   </g>
  </g>
  <g id="pane3d_3">
   <g id="patch_5">
    <path d="M 391.253508 253.137134 
L 267.763642 245.205514 
L 84.692152 249.977524 
L 196.534555 258.979044 
" style="fill: #ececec; opacity: 0.5; stroke: #ececec; stroke-linejoin: miter"/>
   </g>
  </g>
  <g id="axis3d_1">
   <g id="line2d_1">
    <path d="M 84.692152 249.977524 
L 196.534555 258.979044 
" style="fill: none; stroke: #000000; stroke-width: 0.8; stroke-linecap: square"/>
   </g>
   <g id="text_1">
    <!-- x -->
    <g transform="translate(105.945031 283.153891)scale(0.16 -0.16)">
     <defs>
      <path id="CMSS17-78" d="M 1587 1414 
L 2656 2739 
L 2099 2739 
L 1363 1777 
L 602 2739 
L 32 2739 
L 1139 1414 
L 0 0 
L 563 0 
L 1363 1121 
L 2195 0 
L 2758 0 
L 1587 1414 
z
" transform="scale(0.015625)"/>
     </defs>
     <use xlink:href="#CMSS17-78" transform="scale(0.996264)"/>
    </g>
   </g>
   <g id="Line3DCollection_1">
    <path d="M 194.057151 258.779652 
L 388.535147 252.962537 
L 388.535147 83.296923 
" style="fill: none; stroke: #b0b0b0; stroke-width: 0.8"/>
    <path d="M 170.815947 256.909108 
L 362.996044 251.322188 
L 362.996044 84.937272 
" style="fill: none; stroke: #b0b0b0; stroke-width: 0.8"/>
    <path d="M 148.514506 255.1142 
L 338.425867 249.744072 
L 338.425867 86.515388 
" style="fill: none; stroke: #b0b0b0; stroke-width: 0.8"/>
    <path d="M 127.09696 253.390431 
L 314.770503 248.224713 
L 314.770503 88.034746 
" style="fill: none; stroke: #b0b0b0; stroke-width: 0.8"/>
    <path d="M 106.511781 251.733654 
L 291.979793 246.760891 
L 291.979793 89.498569 
" style="fill: none; stroke: #b0b0b0; stroke-width: 0.8"/>
    <path d="M 86.71137 250.140039 
L 270.007182 245.349614 
L 270.007182 90.909846 
" style="fill: none; stroke: #b0b0b0; stroke-width: 0.8"/>
   </g>
   <g id="xtick_1">
    <g id="line2d_2">
     <path d="M 195.718749 258.729952 
L 190.72848 258.879218 
" style="fill: none; stroke: #000000; stroke-width: 0.8; stroke-linecap: square"/>
    </g>
    <g id="text_2">
     <!-- $\mathdefault{0}$ -->
     <g transform="translate(178.231078 277.731046)scale(0.1 -0.1)">
      <defs>
       <path id="CMR17-30" d="M 2688 2025 
C 2688 2416 2682 3080 2413 3591 
C 2176 4039 1798 4198 1466 4198 
C 1158 4198 768 4058 525 3597 
C 269 3118 243 2524 243 2025 
C 243 1661 250 1106 448 619 
C 723 -39 1216 -128 1466 -128 
C 1760 -128 2208 -7 2470 600 
C 2662 1042 2688 1559 2688 2025 
z
M 1466 -26 
C 1056 -26 813 325 723 812 
C 653 1188 653 1738 653 2096 
C 653 2588 653 2997 736 3387 
C 858 3929 1216 4096 1466 4096 
C 1728 4096 2067 3923 2189 3400 
C 2272 3036 2278 2607 2278 2096 
C 2278 1680 2278 1169 2202 792 
C 2067 95 1690 -26 1466 -26 
z
" transform="scale(0.015625)"/>
      </defs>
      <use xlink:href="#CMR17-30" transform="scale(0.996264)"/>
     </g>
    </g>
   </g>
   <g id="xtick_2">
    <g id="line2d_3">
     <path d="M 172.455756 256.861437 
L 167.531037 257.004605 
" style="fill: none; stroke: #000000; stroke-width: 0.8; stroke-linecap: square"/>
    </g>
    <g id="text_3">
     <!-- $\mathdefault{1}$ -->
     <g transform="translate(155.166086 275.603075)scale(0.1 -0.1)">
      <defs>
       <path id="CMR17-31" d="M 1702 4058 
C 1702 4192 1696 4192 1606 4192 
C 1357 3916 979 3827 621 3827 
C 602 3827 570 3827 563 3808 
C 557 3795 557 3782 557 3648 
C 755 3648 1088 3686 1344 3839 
L 1344 461 
C 1344 236 1331 160 781 160 
L 589 160 
L 589 0 
C 896 0 1216 0 1523 0 
C 1830 0 2150 0 2458 0 
L 2458 160 
L 2266 160 
C 1715 160 1702 230 1702 458 
L 1702 4058 
z
" transform="scale(0.015625)"/>
      </defs>
      <use xlink:href="#CMR17-31" transform="scale(0.996264)"/>
     </g>
    </g>
   </g>
   <g id="xtick_3">
    <g id="line2d_4">
     <path d="M 150.132913 255.068436 
L 145.272576 255.205872 
" style="fill: none; stroke: #000000; stroke-width: 0.8; stroke-linecap: square"/>
    </g>
    <g id="text_4">
     <!-- $\mathdefault{2}$ -->
     <g transform="translate(133.037669 273.561512)scale(0.1 -0.1)">
      <defs>
       <path id="CMR17-32" d="M 2669 989 
L 2554 989 
C 2490 536 2438 459 2413 420 
C 2381 369 1920 369 1830 369 
L 602 369 
C 832 619 1280 1072 1824 1597 
C 2214 1967 2669 2402 2669 3035 
C 2669 3790 2067 4224 1395 4224 
C 691 4224 262 3604 262 3030 
C 262 2780 448 2748 525 2748 
C 589 2748 781 2787 781 3010 
C 781 3207 614 3264 525 3264 
C 486 3264 448 3258 422 3245 
C 544 3790 915 4058 1306 4058 
C 1862 4058 2227 3617 2227 3035 
C 2227 2479 1901 2000 1536 1584 
L 262 146 
L 262 0 
L 2515 0 
L 2669 989 
z
" transform="scale(0.015625)"/>
      </defs>
      <use xlink:href="#CMR17-32" transform="scale(0.996264)"/>
     </g>
    </g>
   </g>
   <g id="xtick_4">
    <g id="line2d_5">
     <path d="M 128.694356 253.346462 
L 123.897218 253.478504 
" style="fill: none; stroke: #000000; stroke-width: 0.8; stroke-linecap: square"/>
    </g>
    <g id="text_5">
     <!-- $\mathdefault{3}$ -->
     <g transform="translate(111.789918 271.601199)scale(0.1 -0.1)">
      <defs>
       <path id="CMR17-33" d="M 1414 2157 
C 1984 2157 2234 1662 2234 1090 
C 2234 320 1824 25 1453 25 
C 1114 25 563 194 390 693 
C 422 680 454 680 486 680 
C 640 680 755 782 755 948 
C 755 1133 614 1216 486 1216 
C 378 1216 211 1165 211 926 
C 211 335 787 -128 1466 -128 
C 2176 -128 2720 430 2720 1085 
C 2720 1707 2208 2157 1600 2227 
C 2086 2328 2554 2756 2554 3329 
C 2554 3820 2048 4179 1472 4179 
C 890 4179 378 3829 378 3329 
C 378 3110 544 3072 627 3072 
C 762 3072 877 3155 877 3321 
C 877 3486 762 3569 627 3569 
C 602 3569 570 3569 544 3557 
C 730 3959 1235 4032 1459 4032 
C 1683 4032 2106 3925 2106 3320 
C 2106 3143 2080 2828 1862 2550 
C 1670 2304 1453 2304 1242 2284 
C 1210 2284 1062 2269 1037 2269 
C 992 2263 966 2257 966 2208 
C 966 2163 973 2157 1101 2157 
L 1414 2157 
z
" transform="scale(0.015625)"/>
      </defs>
      <use xlink:href="#CMR17-33" transform="scale(0.996264)"/>
     </g>
    </g>
   </g>
   <g id="xtick_5">
    <g id="line2d_6">
     <path d="M 108.088562 251.691377 
L 103.353428 251.818336 
" style="fill: none; stroke: #000000; stroke-width: 0.8; stroke-linecap: square"/>
    </g>
    <g id="text_6">
     <!-- $\mathdefault{4}$ -->
     <g transform="translate(91.371285 269.717381)scale(0.1 -0.1)">
      <defs>
       <path id="CMR17-34" d="M 2150 4122 
C 2150 4256 2144 4256 2029 4256 
L 128 1254 
L 128 1088 
L 1779 1088 
L 1779 457 
C 1779 224 1766 160 1318 160 
L 1197 160 
L 1197 0 
C 1402 0 1747 0 1965 0 
C 2182 0 2528 0 2733 0 
L 2733 160 
L 2611 160 
C 2163 160 2150 224 2150 457 
L 2150 1088 
L 2803 1088 
L 2803 1254 
L 2150 1254 
L 2150 4122 
z
M 1798 3703 
L 1798 1254 
L 256 1254 
L 1798 3703 
z
" transform="scale(0.015625)"/>
      </defs>
      <use xlink:href="#CMR17-34" transform="scale(0.996264)"/>
     </g>
    </g>
   </g>
   <g id="xtick_6">
    <g id="line2d_7">
     <path d="M 88.267932 250.099358 
L 83.593607 250.221521 
" style="fill: none; stroke: #000000; stroke-width: 0.8; stroke-linecap: square"/>
    </g>
    <g id="text_7">
     <!-- $\mathdefault{5}$ -->
     <g transform="translate(71.734169 267.905665)scale(0.1 -0.1)">
      <defs>
       <path id="CMR17-35" d="M 730 3692 
C 794 3666 1056 3584 1325 3584 
C 1920 3584 2246 3911 2432 4100 
C 2432 4157 2432 4192 2394 4192 
C 2387 4192 2374 4192 2323 4163 
C 2099 4058 1837 3973 1517 3973 
C 1325 3973 1037 3999 723 4139 
C 653 4171 640 4171 634 4171 
C 602 4171 595 4164 595 4037 
L 595 2203 
C 595 2089 595 2057 659 2057 
C 691 2057 704 2070 736 2114 
C 941 2401 1222 2522 1542 2522 
C 1766 2522 2246 2382 2246 1289 
C 2246 1085 2246 715 2054 421 
C 1894 159 1645 25 1370 25 
C 947 25 518 320 403 814 
C 429 807 480 795 506 795 
C 589 795 749 840 749 1038 
C 749 1210 627 1280 506 1280 
C 358 1280 262 1190 262 1011 
C 262 454 704 -128 1382 -128 
C 2042 -128 2669 440 2669 1264 
C 2669 2030 2170 2624 1549 2624 
C 1222 2624 947 2503 730 2274 
L 730 3692 
z
" transform="scale(0.015625)"/>
      </defs>
      <use xlink:href="#CMR17-35" transform="scale(0.996264)"/>
     </g>
    </g>
   </g>
  </g>
  <g id="axis3d_2">
   <g id="line2d_8">
    <path d="M 391.253508 253.137134 
L 196.534555 258.979044 
" style="fill: none; stroke: #000000; stroke-width: 0.8; stroke-linecap: square"/>
   </g>
   <g id="text_8">
    <!-- y -->
    <g transform="translate(311.985273 286.025873)scale(0.16 -0.16)">
     <defs>
      <path id="CMSS17-79" d="M 2675 2752 
L 2176 2752 
C 1632 1294 1446 702 1434 383 
L 1427 383 
C 1408 696 1126 1460 902 2007 
L 602 2752 
L 83 2752 
L 1216 13 
C 1146 -178 1043 -465 1011 -529 
C 870 -885 774 -885 672 -885 
C 646 -885 442 -885 211 -809 
L 250 -1229 
C 410 -1261 570 -1280 685 -1280 
C 845 -1280 1165 -1280 1459 -497 
L 2675 2752 
z
" transform="scale(0.015625)"/>
     </defs>
     <use xlink:href="#CMSS17-79" transform="scale(0.996264)"/>
    </g>
   </g>
   <g id="Line3DCollection_2">
    <path d="M 247.629327 90.529117 
L 247.629327 245.730342 
L 369.959719 253.775985 
" style="fill: none; stroke: #b0b0b0; stroke-width: 0.8"/>
    <path d="M 213.694173 89.644551 
L 213.694173 246.614909 
L 334.002684 254.854759 
" style="fill: none; stroke: #b0b0b0; stroke-width: 0.8"/>
    <path d="M 178.976448 88.739585 
L 178.976448 247.519874 
L 297.128286 255.961056 
" style="fill: none; stroke: #b0b0b0; stroke-width: 0.8"/>
    <path d="M 143.448765 87.813508 
L 143.448765 248.445952 
L 259.300965 257.095941 
" style="fill: none; stroke: #b0b0b0; stroke-width: 0.8"/>
    <path d="M 107.082446 86.865569 
L 107.082446 249.39389 
L 220.483299 258.260539 
" style="fill: none; stroke: #b0b0b0; stroke-width: 0.8"/>
   </g>
   <g id="xtick_7">
    <g id="line2d_9">
     <path d="M 368.880506 253.705005 
L 372.123527 253.918298 
" style="fill: none; stroke: #000000; stroke-width: 0.8; stroke-linecap: square"/>
    </g>
    <g id="text_9">
     <!-- $\mathdefault{−4}$ -->
     <g transform="translate(372.278069 272.28225)scale(0.1 -0.1)">
      <defs>
       <path id="CMSY10-0" d="M 4218 1472 
C 4326 1472 4442 1472 4442 1600 
C 4442 1728 4326 1728 4218 1728 
L 755 1728 
C 646 1728 531 1728 531 1600 
C 531 1472 646 1472 755 1472 
L 4218 1472 
z
" transform="scale(0.015625)"/>
      </defs>
      <use xlink:href="#CMSY10-0" transform="scale(0.996264)"/>
      <use xlink:href="#CMR17-34" transform="translate(77.487468 0)scale(0.996264)"/>
     </g>
    </g>
   </g>
   <g id="xtick_8">
    <g id="line2d_10">
     <path d="M 332.940062 254.781981 
L 336.13329 255.000683 
" style="fill: none; stroke: #000000; stroke-width: 0.8; stroke-linecap: square"/>
    </g>
    <g id="text_10">
     <!-- $\mathdefault{−2}$ -->
     <g transform="translate(336.188337 273.515251)scale(0.1 -0.1)">
      <use xlink:href="#CMSY10-0" transform="scale(0.996264)"/>
      <use xlink:href="#CMR17-32" transform="translate(77.487468 0)scale(0.996264)"/>
     </g>
    </g>
   </g>
   <g id="xtick_9">
    <g id="line2d_11">
     <path d="M 296.083459 255.886409 
L 299.22328 256.110729 
" style="fill: none; stroke: #000000; stroke-width: 0.8; stroke-linecap: square"/>
    </g>
    <g id="text_11">
     <!-- $\mathdefault{0}$ -->
     <g transform="translate(303.045932 274.779924)scale(0.1 -0.1)">
      <use xlink:href="#CMR17-30" transform="scale(0.996264)"/>
     </g>
    </g>
   </g>
   <g id="xtick_10">
    <g id="line2d_12">
     <path d="M 258.275213 257.019355 
L 261.357779 257.249511 
" style="fill: none; stroke: #000000; stroke-width: 0.8; stroke-linecap: square"/>
    </g>
    <g id="text_12">
     <!-- $\mathdefault{2}$ -->
     <g transform="translate(265.065924 276.077505)scale(0.1 -0.1)">
      <use xlink:href="#CMR17-32" transform="scale(0.996264)"/>
     </g>
    </g>
   </g>
   <g id="xtick_11">
    <g id="line2d_13">
     <path d="M 219.477985 258.181935 
L 222.499201 258.41816 
" style="fill: none; stroke: #000000; stroke-width: 0.8; stroke-linecap: square"/>
    </g>
    <g id="text_13">
     <!-- $\mathdefault{4}$ -->
     <g transform="translate(226.084594 277.409296)scale(0.1 -0.1)">
      <use xlink:href="#CMR17-34" transform="scale(0.996264)"/>
     </g>
    </g>
   </g>
  </g>
  <g id="axis3d_3">
   <g id="line2d_14">
    <path d="M 391.253508 253.137134 
L 391.253508 83.122326 
" style="fill: none; stroke: #000000; stroke-width: 0.8; stroke-linecap: square"/>
   </g>
   <g id="text_14">
    <!-- z -->
    <g transform="translate(432.328095 172.114786)scale(0.16 -0.16)">
     <defs>
      <path id="CMSS17-7a" d="M 2400 2502 
L 2400 2750 
L 250 2750 
L 250 2368 
L 1069 2368 
C 1146 2368 1222 2368 1299 2368 
L 1747 2368 
L 166 261 
L 166 0 
L 2419 0 
L 2419 395 
L 1549 395 
C 1472 395 1395 395 1318 395 
L 826 395 
L 2400 2502 
z
" transform="scale(0.015625)"/>
     </defs>
     <use xlink:href="#CMSS17-7a" transform="scale(0.996264)"/>
    </g>
   </g>
   <g id="Line3DCollection_3">
    <path d="M 391.253508 249.736838 
L 267.763642 242.122482 
L 84.692152 246.703612 
" style="fill: none; stroke: #b0b0b0; stroke-width: 0.8"/>
    <path d="M 391.253508 217.093995 
L 267.763642 212.525381 
L 84.692152 215.274059 
" style="fill: none; stroke: #b0b0b0; stroke-width: 0.8"/>
    <path d="M 391.253508 184.451151 
L 267.763642 182.92828 
L 84.692152 183.844506 
" style="fill: none; stroke: #b0b0b0; stroke-width: 0.8"/>
    <path d="M 391.253508 151.808308 
L 267.763642 153.331179 
L 84.692152 152.414953 
" style="fill: none; stroke: #b0b0b0; stroke-width: 0.8"/>
    <path d="M 391.253508 119.165465 
L 267.763642 123.734078 
L 84.692152 120.9854 
" style="fill: none; stroke: #b0b0b0; stroke-width: 0.8"/>
    <path d="M 391.253508 86.522622 
L 267.763642 94.136977 
L 84.692152 89.555847 
" style="fill: none; stroke: #b0b0b0; stroke-width: 0.8"/>
   </g>
   <g id="xtick_12">
    <g id="line2d_15">
     <path d="M 390.164822 249.66971 
L 393.436267 249.871426 
" style="fill: none; stroke: #000000; stroke-width: 0.8; stroke-linecap: square"/>
    </g>
    <g id="text_15">
     <!-- $\mathdefault{0}$ -->
     <g transform="translate(409.155082 256.857104)scale(0.1 -0.1)">
      <use xlink:href="#CMR17-30" transform="scale(0.996264)"/>
     </g>
    </g>
   </g>
   <g id="xtick_13">
    <g id="line2d_16">
     <path d="M 390.164822 217.053718 
L 393.436267 217.174748 
" style="fill: none; stroke: #000000; stroke-width: 0.8; stroke-linecap: square"/>
    </g>
    <g id="text_16">
     <!-- $\mathdefault{1}$ -->
     <g transform="translate(409.155082 224.133554)scale(0.1 -0.1)">
      <use xlink:href="#CMR17-31" transform="scale(0.996264)"/>
     </g>
    </g>
   </g>
   <g id="xtick_14">
    <g id="line2d_17">
     <path d="M 390.164822 184.437726 
L 393.436267 184.478069 
" style="fill: none; stroke: #000000; stroke-width: 0.8; stroke-linecap: square"/>
    </g>
    <g id="text_17">
     <!-- $\mathdefault{2}$ -->
     <g transform="translate(409.155082 191.410003)scale(0.1 -0.1)">
      <use xlink:href="#CMR17-32" transform="scale(0.996264)"/>
     </g>
    </g>
   </g>
   <g id="xtick_15">
    <g id="line2d_18">
     <path d="M 390.164822 151.821734 
L 393.436267 151.78139 
" style="fill: none; stroke: #000000; stroke-width: 0.8; stroke-linecap: square"/>
    </g>
    <g id="text_18">
     <!-- $\mathdefault{3}$ -->
     <g transform="translate(409.155082 158.686453)scale(0.1 -0.1)">
      <use xlink:href="#CMR17-33" transform="scale(0.996264)"/>
     </g>
    </g>
   </g>
   <g id="xtick_16">
    <g id="line2d_19">
     <path d="M 390.164822 119.205742 
L 393.436267 119.084712 
" style="fill: none; stroke: #000000; stroke-width: 0.8; stroke-linecap: square"/>
    </g>
    <g id="text_19">
     <!-- $\mathdefault{4}$ -->
     <g transform="translate(409.155082 125.962902)scale(0.1 -0.1)">
      <use xlink:href="#CMR17-34" transform="scale(0.996264)"/>
     </g>
    </g>
   </g>
   <g id="xtick_17">
    <g id="line2d_20">
     <path d="M 390.164822 86.58975 
L 393.436267 86.388033 
" style="fill: none; stroke: #000000; stroke-width: 0.8; stroke-linecap: square"/>
    </g>
    <g id="text_20">
     <!-- $\mathdefault{5}$ -->
     <g transform="translate(409.155082 93.239352)scale(0.1 -0.1)">
      <use xlink:href="#CMR17-35" transform="scale(0.996264)"/>
     </g>
    </g>
   </g>
  </g>
  <g id="axes_1">
   <g id="line2d_21">
    <path d="M 294.519546 252.26888 
L 213.683913 84.097904 
" clip-path="url(#p5111cfa76d)" style="fill: none; stroke: #ff0000; stroke-width: 1.5; stroke-linecap: square"/>
   </g>
   <g id="line2d_22">
    <path d="M 294.519546 252.26888 
L 282.480516 120.208655 
" clip-path="url(#p5111cfa76d)" style="fill: none; stroke: #00ff00; stroke-width: 1.5; stroke-linecap: square"/>
   </g>
   <g id="line2d_23">
    <path d="M 294.519546 252.26888 
L 217.411007 -1 
" clip-path="url(#p5111cfa76d)" style="fill: none; stroke: #0016ff; stroke-width: 1.5; stroke-linecap: square"/>
   </g>
   <g id="line2d_24">
    <path d="M 294.519546 252.26888 
L 232.959526 153.11761 
" clip-path="url(#p5111cfa76d)" style="fill: none; stroke: #f400ff; stroke-width: 1.5; stroke-linecap: square"/>
   </g>
   <g id="Poly3DCollection_1">
    <path d="M 288.486911 24.535672 
L 277.419703 -15.352364 
L 269.047829 -27.139066 
L 280.069949 12.75517 
z
" clip-path="url(#p5111cfa76d)" style="fill: #0000f5; fill-opacity: 0.1"/>
    <path d="M 280.069949 12.75517 
L 269.047829 -27.139066 
L 260.628258 -38.992921 
L 271.604592 0.906933 
z
" clip-path="url(#p5111cfa76d)" style="fill: #0000f5; fill-opacity: 0.1"/>
    <path d="M 271.604592 0.906933 
L 260.628258 -38.992921 
L 252.16058 -50.914503 
L 263.090421 -11.009624 
z
" clip-path="url(#p5111cfa76d)" style="fill: #0000f5; fill-opacity: 0.1"/>
    <path d="M 263.090421 -11.009624 
L 252.16058 -50.914503 
L 243.644383 -62.904396 
L 254.527012 -22.995096 
z
" clip-path="url(#p5111cfa76d)" style="fill: #0000f5; fill-opacity: 0.1"/>
    <path d="M 299.758494 65.160314 
L 288.486911 24.535672 
L 280.069949 12.75517 
L 291.296201 53.388257 
z
" clip-path="url(#p5111cfa76d)" style="fill: #0000f5; fill-opacity: 0.1"/>
    <path d="M 254.527012 -22.995096 
L 243.644383 -62.904396 
L 235.079248 -74.963189 
L 245.913937 -35.05008 
z
" clip-path="url(#p5111cfa76d)" style="fill: #0000f5; fill-opacity: 0.1"/>
    <path d="M 291.296201 53.388257 
L 280.069949 12.75517 
L 271.604592 0.906933 
L 282.7848 41.547886 
z
" clip-path="url(#p5111cfa76d)" style="fill: #0000f5; fill-opacity: 0.1"/>
    <path d="M 245.913937 -35.05008 
L 235.079248 -74.963189 
L 226.464752 -87.091476 
L 237.250764 -47.175184 
z
" clip-path="url(#p5111cfa76d)" style="fill: #0000f5; fill-opacity: 0.1"/>
    <path d="M 282.7848 41.547886 
L 271.604592 0.906933 
L 263.090421 -11.009624 
L 274.223862 29.638603 
z
" clip-path="url(#p5111cfa76d)" style="fill: #0000f5; fill-opacity: 0.1"/>
    <path d="M 237.250764 -47.175184 
L 226.464752 -87.091476 
L 217.800468 -99.28986 
L 228.537052 -59.371021 
z
" clip-path="url(#p5111cfa76d)" style="fill: #0000f5; fill-opacity: 0.1"/>
    <path d="M 274.223862 29.638603 
L 263.090421 -11.009624 
L 254.527012 -22.995096 
L 265.612954 17.659805 
z
" clip-path="url(#p5111cfa76d)" style="fill: #0000f5; fill-opacity: 0.1"/>
    <path d="M 311.240167 106.542154 
L 299.758494 65.160314 
L 291.296201 53.388257 
L 302.732309 94.780912 
z
" clip-path="url(#p5111cfa76d)" style="fill: #0000f5; fill-opacity: 0.1"/>
    <path d="M 228.537052 -59.371021 
L 217.800468 -99.28986 
L 209.085962 -111.558951 
L 219.77236 -71.638212 
z
" clip-path="url(#p5111cfa76d)" style="fill: #0000f5; fill-opacity: 0.1"/>
    <path d="M 265.612954 17.659805 
L 254.527012 -22.995096 
L 245.913937 -35.05008 
L 256.951637 5.610883 
z
" clip-path="url(#p5111cfa76d)" style="fill: #0000f5; fill-opacity: 0.1"/>
    <path d="M 302.732309 94.780912 
L 291.296201 53.388257 
L 282.7848 41.547886 
L 294.174615 82.950778 
z
" clip-path="url(#p5111cfa76d)" style="fill: #0000f5; fill-opacity: 0.1"/>
    <path d="M 219.77236 -71.638212 
L 209.085962 -111.558951 
L 200.320796 -123.899365 
L 210.956238 -83.977385 
z
" clip-path="url(#p5111cfa76d)" style="fill: #0000f5; fill-opacity: 0.1"/>
    <path d="M 256.951637 5.610883 
L 245.913937 -35.05008 
L 237.250764 -47.175184 
L 248.239466 -6.508783 
z
" clip-path="url(#p5111cfa76d)" style="fill: #0000f5; fill-opacity: 0.1"/>
    <path d="M 294.174615 82.950778 
L 282.7848 41.547886 
L 274.223862 29.638603 
L 285.566647 71.051145 
z
" clip-path="url(#p5111cfa76d)" style="fill: #0000f5; fill-opacity: 0.1"/>
    <path d="M 210.956238 -83.977385 
L 200.320796 -123.899365 
L 191.504527 -136.311727 
L 202.088232 -96.389175 
z
" clip-path="url(#p5111cfa76d)" style="fill: #0000f5; fill-opacity: 0.1"/>
    <path d="M 248.239466 -6.508783 
L 237.250764 -47.175184 
L 228.537052 -59.371021 
L 239.475994 -18.699816 
z
" clip-path="url(#p5111cfa76d)" style="fill: #0000f5; fill-opacity: 0.1"/>
    <path d="M 285.566647 71.051145 
L 274.223862 29.638603 
L 265.612954 17.659805 
L 276.907961 59.081399 
z
" clip-path="url(#p5111cfa76d)" style="fill: #0000f5; fill-opacity: 0.1"/>
    <path d="M 322.937859 148.702562 
L 311.240167 106.542154 
L 302.732309 94.780912 
L 314.384212 136.954634 
z
" clip-path="url(#p5111cfa76d)" style="fill: #0000f5; fill-opacity: 0.1"/>
    <path d="M 202.088232 -96.389175 
L 191.504527 -136.311727 
L 182.636708 -148.796666 
L 193.167883 -108.874225 
z
" clip-path="url(#p5111cfa76d)" style="fill: #0000f5; fill-opacity: 0.1"/>
    <path d="M 239.475994 -18.699816 
L 228.537052 -59.371021 
L 219.77236 -71.638212 
L 230.660764 -30.962849 
z
" clip-path="url(#p5111cfa76d)" style="fill: #0000f5; fill-opacity: 0.1"/>
    <path d="M 276.907961 59.081399 
L 265.612954 17.659805 
L 256.951637 5.610883 
L 268.198106 47.040918 
z
" clip-path="url(#p5111cfa76d)" style="fill: #0000f5; fill-opacity: 0.1"/>
    <path d="M 314.384212 136.954634 
L 302.732309 94.780912 
L 294.174615 82.950778 
L 305.779989 125.137241 
z
" clip-path="url(#p5111cfa76d)" style="fill: #0000f5; fill-opacity: 0.1"/>
    <path d="M 193.167883 -108.874225 
L 182.636708 -148.796666 
L 173.716884 -161.354822 
L 184.194726 -121.433187 
z
" clip-path="url(#p5111cfa76d)" style="fill: #0000f5; fill-opacity: 0.1"/>
    <path d="M 230.660764 -30.962849 
L 219.77236 -71.638212 
L 210.956238 -83.977385 
L 221.793318 -43.298522 
z
" clip-path="url(#p5111cfa76d)" style="fill: #0000f5; fill-opacity: 0.1"/>
    <path d="M 268.198106 47.040918 
L 256.951637 5.610883 
L 248.239466 -6.508783 
L 259.436628 34.929073 
z
" clip-path="url(#p5111cfa76d)" style="fill: #0000f5; fill-opacity: 0.1"/>
    <path d="M 305.779989 125.137241 
L 294.174615 82.950778 
L 285.566647 71.051145 
L 297.124737 113.249764 
z
" clip-path="url(#p5111cfa76d)" style="fill: #0000f5; fill-opacity: 0.1"/>
    <path d="M 184.194726 -121.433187 
L 173.716884 -161.354822 
L 164.744597 -173.98684 
L 175.16829 -134.066717 
z
" clip-path="url(#p5111cfa76d)" style="fill: #0000f5; fill-opacity: 0.1"/>
    <path d="M 221.793318 -43.298522 
L 210.956238 -83.977385 
L 202.088232 -96.389175 
L 212.873189 -55.707482 
z
" clip-path="url(#p5111cfa76d)" style="fill: #0000f5; fill-opacity: 0.1"/>
    <path d="M 259.436628 34.929073 
L 248.239466 -6.508783 
L 239.475994 -18.699816 
L 250.623067 22.745228 
z
" clip-path="url(#p5111cfa76d)" style="fill: #0000f5; fill-opacity: 0.1"/>
    <path d="M 297.124737 113.249764 
L 285.566647 71.051145 
L 276.907961 59.081399 
L 288.418003 101.29158 
z
" clip-path="url(#p5111cfa76d)" style="fill: #0000f5; fill-opacity: 0.1"/>
    <path d="M 334.857724 191.663718 
L 322.937859 148.702562 
L 314.384212 136.954634 
L 326.258078 179.931741 
z
" clip-path="url(#p5111cfa76d)" style="fill: #0000f5; fill-opacity: 0.1"/>
    <path d="M 175.16829 -134.066717 
L 164.744597 -173.98684 
L 155.719383 -186.693375 
L 166.088101 -146.775482 
z
" clip-path="url(#p5111cfa76d)" style="fill: #0000f5; fill-opacity: 0.1"/>
    <path d="M 212.873189 -55.707482 
L 202.088232 -96.389175 
L 193.167883 -108.874225 
L 203.899908 -68.190384 
z
" clip-path="url(#p5111cfa76d)" style="fill: #0000f5; fill-opacity: 0.1"/>
    <path d="M 250.623067 22.745228 
L 239.475994 -18.699816 
L 230.660764 -30.962849 
L 241.756956 10.488739 
z
" clip-path="url(#p5111cfa76d)" style="fill: #0000f5; fill-opacity: 0.1"/>
    <path d="M 288.418003 101.29158 
L 276.907961 59.081399 
L 268.198106 47.040918 
L 279.659325 89.262054 
z
" clip-path="url(#p5111cfa76d)" style="fill: #0000f5; fill-opacity: 0.1"/>
    <path d="M 326.258078 179.931741 
L 314.384212 136.954634 
L 305.779989 125.137241 
L 317.607097 168.12973 
z
" clip-path="url(#p5111cfa76d)" style="fill: #0000f5; fill-opacity: 0.1"/>
    <path d="M 166.088101 -146.775482 
L 155.719383 -186.693375 
L 146.640772 -199.475086 
L 156.953675 -159.560157 
z
" clip-path="url(#p5111cfa76d)" style="fill: #0000f5; fill-opacity: 0.1"/>
    <path d="M 203.899908 -68.190384 
L 193.167883 -108.874225 
L 184.194726 -121.433187 
L 194.872998 -80.74789 
z
" clip-path="url(#p5111cfa76d)" style="fill: #0000f5; fill-opacity: 0.1"/>
    <path d="M 241.756956 10.488739 
L 230.660764 -30.962849 
L 221.793318 -43.298522 
L 232.837825 -1.841046 
z
" clip-path="url(#p5111cfa76d)" style="fill: #0000f5; fill-opacity: 0.1"/>
    <path d="M 279.659325 89.262054 
L 268.198106 47.040918 
L 259.436628 34.929073 
L 270.848238 77.160546 
z
" clip-path="url(#p5111cfa76d)" style="fill: #0000f5; fill-opacity: 0.1"/>
    <path d="M 317.607097 168.12973 
L 305.779989 125.137241 
L 297.124737 113.249764 
L 308.90432 156.257056 
z
" clip-path="url(#p5111cfa76d)" style="fill: #0000f5; fill-opacity: 0.1"/>
    <path d="M 156.953675 -159.560157 
L 146.640772 -199.475086 
L 137.508289 -212.332645 
L 147.764526 -172.421423 
z
" clip-path="url(#p5111cfa76d)" style="fill: #0000f5; fill-opacity: 0.1"/>
    <path d="M 194.872998 -80.74789 
L 184.194726 -121.433187 
L 175.16829 -134.066717 
L 185.791975 -93.380672 
z
" clip-path="url(#p5111cfa76d)" style="fill: #0000f5; fill-opacity: 0.1"/>
    <path d="M 232.837825 -1.841046 
L 221.793318 -43.298522 
L 212.873189 -55.707482 
L 223.865196 -14.244786 
z
" clip-path="url(#p5111cfa76d)" style="fill: #0000f5; fill-opacity: 0.1"/>
    <path d="M 270.848238 77.160546 
L 259.436628 34.929073 
L 250.623067 22.745228 
L 261.984269 64.986409 
z
" clip-path="url(#p5111cfa76d)" style="fill: #0000f5; fill-opacity: 0.1"/>
    <path d="M 308.90432 156.257056 
L 297.124737 113.249764 
L 288.418003 101.29158 
L 300.14928 144.313083 
z
" clip-path="url(#p5111cfa76d)" style="fill: #0000f5; fill-opacity: 0.1"/>
    <path d="M 147.764526 -172.421423 
L 137.508289 -212.332645 
L 128.321452 -225.266726 
L 138.520161 -185.359971 
z
" clip-path="url(#p5111cfa76d)" style="fill: #0000f5; fill-opacity: 0.1"/>
    <path d="M 347.006153 235.448655 
L 334.857724 191.663718 
L 326.258078 179.931741 
L 338.36031 223.73541 
z
" clip-path="url(#p5111cfa76d)" style="fill: #0000f5; fill-opacity: 0.1"/>
    <path d="M 185.791975 -93.380672 
L 175.16829 -134.066717 
L 166.088101 -146.775482 
L 176.656354 -106.089409 
z
" clip-path="url(#p5111cfa76d)" style="fill: #0000f5; fill-opacity: 0.1"/>
    <path d="M 223.865196 -14.244786 
L 212.873189 -55.707482 
L 203.899908 -68.190384 
L 214.838586 -26.723148 
z
" clip-path="url(#p5111cfa76d)" style="fill: #0000f5; fill-opacity: 0.1"/>
    <path d="M 261.984269 64.986409 
L 250.623067 22.745228 
L 241.756956 10.488739 
L 253.066942 52.738986 
z
" clip-path="url(#p5111cfa76d)" style="fill: #0000f5; fill-opacity: 0.1"/>
    <path d="M 300.14928 144.313083 
L 288.418003 101.29158 
L 279.659325 89.262054 
L 291.341504 132.297167 
z
" clip-path="url(#p5111cfa76d)" style="fill: #0000f5; fill-opacity: 0.1"/>
    <path d="M 138.520161 -185.359971 
L 128.321452 -225.266726 
L 119.079775 -238.278017 
L 129.22008 -198.376499 
z
" clip-path="url(#p5111cfa76d)" style="fill: #0000f5; fill-opacity: 0.1"/>
    <path d="M 338.36031 223.73541 
L 326.258078 179.931741 
L 317.607097 168.12973 
L 329.662358 211.951568 
z
" clip-path="url(#p5111cfa76d)" style="fill: #0000f5; fill-opacity: 0.1"/>
    <path d="M 176.656354 -106.089409 
L 166.088101 -146.775482 
L 156.953675 -159.560157 
L 167.465638 -118.874788 
z
" clip-path="url(#p5111cfa76d)" style="fill: #0000f5; fill-opacity: 0.1"/>
    <path d="M 214.838586 -26.723148 
L 203.899908 -68.190384 
L 194.872998 -80.74789 
L 205.757507 -39.276809 
z
" clip-path="url(#p5111cfa76d)" style="fill: #0000f5; fill-opacity: 0.1"/>
    <path d="M 253.066942 52.738986 
L 241.756956 10.488739 
L 232.837825 -1.841046 
L 244.095772 40.417614 
z
" clip-path="url(#p5111cfa76d)" style="fill: #0000f5; fill-opacity: 0.1"/>
    <path d="M 291.341504 132.297167 
L 279.659325 89.262054 
L 270.848238 77.160546 
L 282.480516 120.208655 
z
" clip-path="url(#p5111cfa76d)" style="fill: #0000f5; fill-opacity: 0.1"/>
    <path d="M 129.22008 -198.376499 
L 119.079775 -238.278017 
L 109.782766 -251.36721 
L 119.863779 -211.471715 
z
" clip-path="url(#p5111cfa76d)" style="fill: #0000f5; fill-opacity: 0.1"/>
    <path d="M 329.662358 211.951568 
L 317.607097 168.12973 
L 308.90432 156.257056 
L 320.911825 200.09649 
z
" clip-path="url(#p5111cfa76d)" style="fill: #0000f5; fill-opacity: 0.1"/>
    <path d="M 167.465638 -118.874788 
L 156.953675 -159.560157 
L 147.764526 -172.421423 
L 158.219329 -131.737504 
z
" clip-path="url(#p5111cfa76d)" style="fill: #0000f5; fill-opacity: 0.1"/>
    <path d="M 205.757507 -39.276809 
L 194.872998 -80.74789 
L 185.791975 -93.380672 
L 196.621465 -51.90645 
z
" clip-path="url(#p5111cfa76d)" style="fill: #0000f5; fill-opacity: 0.1"/>
    <path d="M 244.095772 40.417614 
L 232.837825 -1.841046 
L 223.865196 -14.244786 
L 235.07027 28.021621 
z
" clip-path="url(#p5111cfa76d)" style="fill: #0000f5; fill-opacity: 0.1"/>
    <path d="M 282.480516 120.208655 
L 270.848238 77.160546 
L 261.984269 64.986409 
L 273.565831 108.046888 
z
" clip-path="url(#p5111cfa76d)" style="fill: #0000f5; fill-opacity: 0.1"/>
    <path d="M 320.911825 200.09649 
L 308.90432 156.257056 
L 300.14928 144.313083 
L 312.108232 188.169528 
z
" clip-path="url(#p5111cfa76d)" style="fill: #0000f5; fill-opacity: 0.1"/>
    <path d="M 158.219329 -131.737504 
L 147.764526 -172.421423 
L 138.520161 -185.359971 
L 148.916921 -144.67826 
z
" clip-path="url(#p5111cfa76d)" style="fill: #0000f5; fill-opacity: 0.1"/>
    <path d="M 359.389783 280.081296 
L 347.006153 235.448655 
L 338.36031 223.73541 
L 350.697559 268.389718 
z
" clip-path="url(#p5111cfa76d)" style="fill: #0000f5; fill-opacity: 0.1"/>
    <path d="M 196.621465 -51.90645 
L 185.791975 -93.380672 
L 176.656354 -106.089409 
L 187.429958 -64.612766 
z
" clip-path="url(#p5111cfa76d)" style="fill: #0000f5; fill-opacity: 0.1"/>
    <path d="M 235.07027 28.021621 
L 223.865196 -14.244786 
L 214.838586 -26.723148 
L 225.989942 15.550328 
z
" clip-path="url(#p5111cfa76d)" style="fill: #0000f5; fill-opacity: 0.1"/>
    <path d="M 273.565831 108.046888 
L 261.984269 64.986409 
L 253.066942 52.738986 
L 264.596959 95.811198 
z
" clip-path="url(#p5111cfa76d)" style="fill: #0000f5; fill-opacity: 0.1"/>
    <path d="M 312.108232 188.169528 
L 300.14928 144.313083 
L 291.341504 132.297167 
L 303.251095 176.170026 
z
" clip-path="url(#p5111cfa76d)" style="fill: #0000f5; fill-opacity: 0.1"/>
    <path d="M 148.916921 -144.67826 
L 138.520161 -185.359971 
L 129.22008 -198.376499 
L 139.557901 -157.69777 
z
" clip-path="url(#p5111cfa76d)" style="fill: #0000f5; fill-opacity: 0.1"/>
    <path d="M 350.697559 268.389718 
L 338.36031 223.73541 
L 329.662358 211.951568 
L 341.952436 256.626989 
z
" clip-path="url(#p5111cfa76d)" style="fill: #0000f5; fill-opacity: 0.1"/>
    <path d="M 187.429958 -64.612766 
L 176.656354 -106.089409 
L 167.465638 -118.874788 
L 178.182481 -77.396455 
z
" clip-path="url(#p5111cfa76d)" style="fill: #0000f5; fill-opacity: 0.1"/>
    <path d="M 225.989942 15.550328 
L 214.838586 -26.723148 
L 205.757507 -39.276809 
L 216.854287 3.003045 
z
" clip-path="url(#p5111cfa76d)" style="fill: #0000f5; fill-opacity: 0.1"/>
    <path d="M 264.596959 95.811198 
L 253.066942 52.738986 
L 244.095772 40.417614 
L 255.573406 83.500909 
z
" clip-path="url(#p5111cfa76d)" style="fill: #0000f5; fill-opacity: 0.1"/>
    <path d="M 303.251095 176.170026 
L 291.341504 132.297167 
L 282.480516 120.208655 
L 294.339925 164.097319 
z
" clip-path="url(#p5111cfa76d)" style="fill: #0000f5; fill-opacity: 0.1"/>
    <path d="M 139.557901 -157.69777 
L 129.22008 -198.376499 
L 119.863779 -211.471715 
L 130.141752 -170.796755 
z
" clip-path="url(#p5111cfa76d)" style="fill: #0000f5; fill-opacity: 0.1"/>
    <path d="M 341.952436 256.626989 
L 329.662358 211.951568 
L 320.911825 200.09649 
L 333.153931 244.792455 
z
" clip-path="url(#p5111cfa76d)" style="fill: #0000f5; fill-opacity: 0.1"/>
    <path d="M 178.182481 -77.396455 
L 167.465638 -118.874788 
L 158.219329 -131.737504 
L 168.87852 -90.258227 
z
" clip-path="url(#p5111cfa76d)" style="fill: #0000f5; fill-opacity: 0.1"/>
    <path d="M 216.854287 3.003045 
L 205.757507 -39.276809 
L 196.621465 -51.90645 
L 207.662797 -9.620924 
z
" clip-path="url(#p5111cfa76d)" style="fill: #0000f5; fill-opacity: 0.1"/>
    <path d="M 255.573406 83.500909 
L 244.095772 40.417614 
L 235.07027 28.021621 
L 246.494669 71.115337 
z
" clip-path="url(#p5111cfa76d)" style="fill: #0000f5; fill-opacity: 0.1"/>
    <path d="M 294.339925 164.097319 
L 282.480516 120.208655 
L 273.565831 108.046888 
L 285.374225 151.950737 
z
" clip-path="url(#p5111cfa76d)" style="fill: #0000f5; fill-opacity: 0.1"/>
    <path d="M 333.153931 244.792455 
L 320.911825 200.09649 
L 312.108232 188.169528 
L 324.301552 232.885459 
z
" clip-path="url(#p5111cfa76d)" style="fill: #0000f5; fill-opacity: 0.1"/>
    <path d="M 168.87852 -90.258227 
L 158.219329 -131.737504 
L 148.916921 -144.67826 
L 159.517557 -103.198799 
z
" clip-path="url(#p5111cfa76d)" style="fill: #0000f5; fill-opacity: 0.1"/>
    <path d="M 372.015511 325.586499 
L 359.389783 280.081296 
L 350.697559 268.389718 
L 363.276738 313.919687 
z
" clip-path="url(#p5111cfa76d)" style="fill: #0000f5; fill-opacity: 0.1"/>
    <path d="M 207.662797 -9.620924 
L 196.621465 -51.90645 
L 187.429958 -64.612766 
L 198.414959 -22.322283 
z
" clip-path="url(#p5111cfa76d)" style="fill: #0000f5; fill-opacity: 0.1"/>
    <path d="M 246.494669 71.115337 
L 235.07027 28.021621 
L 225.989942 15.550328 
L 237.360241 58.653788 
z
" clip-path="url(#p5111cfa76d)" style="fill: #0000f5; fill-opacity: 0.1"/>
    <path d="M 285.374225 151.950737 
L 273.565831 108.046888 
L 264.596959 95.811198 
L 276.353493 139.729599 
z
" clip-path="url(#p5111cfa76d)" style="fill: #0000f5; fill-opacity: 0.1"/>
    <path d="M 324.301552 232.885459 
L 312.108232 188.169528 
L 303.251095 176.170026 
L 315.394804 220.905333 
z
" clip-path="url(#p5111cfa76d)" style="fill: #0000f5; fill-opacity: 0.1"/>
    <path d="M 159.517557 -103.198799 
L 148.916921 -144.67826 
L 139.557901 -157.69777 
L 150.099065 -116.218898 
z
" clip-path="url(#p5111cfa76d)" style="fill: #0000f5; fill-opacity: 0.1"/>
    <path d="M 363.276738 313.919687 
L 350.697559 268.389718 
L 341.952436 256.626989 
L 354.484261 302.181175 
z
" clip-path="url(#p5111cfa76d)" style="fill: #0000f5; fill-opacity: 0.1"/>
    <path d="M 198.414959 -22.322283 
L 187.429958 -64.612766 
L 178.182481 -77.396455 
L 189.110252 -35.101747 
z
" clip-path="url(#p5111cfa76d)" style="fill: #0000f5; fill-opacity: 0.1"/>
    <path d="M 237.360241 58.653788 
L 225.989942 15.550328 
L 216.854287 3.003045 
L 228.169608 46.115562 
z
" clip-path="url(#p5111cfa76d)" style="fill: #0000f5; fill-opacity: 0.1"/>
    <path d="M 276.353493 139.729599 
L 264.596959 95.811198 
L 255.573406 83.500909 
L 267.277222 127.433216 
z
" clip-path="url(#p5111cfa76d)" style="fill: #0000f5; fill-opacity: 0.1"/>
    <path d="M 315.394804 220.905333 
L 303.251095 176.170026 
L 294.339925 164.097319 
L 306.433183 208.8514 
z
" clip-path="url(#p5111cfa76d)" style="fill: #0000f5; fill-opacity: 0.1"/>
    <path d="M 150.099065 -116.218898 
L 139.557901 -157.69777 
L 130.141752 -170.796755 
L 140.622514 -129.319259 
z
" clip-path="url(#p5111cfa76d)" style="fill: #0000f5; fill-opacity: 0.1"/>
    <path d="M 354.484261 302.181175 
L 341.952436 256.626989 
L 333.153931 244.792455 
L 345.637581 290.370301 
z
" clip-path="url(#p5111cfa76d)" style="fill: #0000f5; fill-opacity: 0.1"/>
    <path d="M 189.110252 -35.101747 
L 178.182481 -77.396455 
L 168.87852 -90.258227 
L 179.748152 -47.960039 
z
" clip-path="url(#p5111cfa76d)" style="fill: #0000f5; fill-opacity: 0.1"/>
    <path d="M 228.169608 46.115562 
L 216.854287 3.003045 
L 207.662797 -9.620924 
L 218.922249 33.499949 
z
" clip-path="url(#p5111cfa76d)" style="fill: #0000f5; fill-opacity: 0.1"/>
    <path d="M 267.277222 127.433216 
L 255.573406 83.500909 
L 246.494669 71.115337 
L 258.144896 115.060891 
z
" clip-path="url(#p5111cfa76d)" style="fill: #0000f5; fill-opacity: 0.1"/>
    <path d="M 306.433183 208.8514 
L 294.339925 164.097319 
L 285.374225 151.950737 
L 297.416182 196.722976 
z
" clip-path="url(#p5111cfa76d)" style="fill: #0000f5; fill-opacity: 0.1"/>
    <path d="M 345.637581 290.370301 
L 333.153931 244.792455 
L 324.301552 232.885459 
L 336.736198 278.486392 
z
" clip-path="url(#p5111cfa76d)" style="fill: #0000f5; fill-opacity: 0.1"/>
    <path d="M 179.748152 -47.960039 
L 168.87852 -90.258227 
L 159.517557 -103.198799 
L 170.328125 -60.89789 
z
" clip-path="url(#p5111cfa76d)" style="fill: #0000f5; fill-opacity: 0.1"/>
    <path d="M 384.890507 371.990105 
L 372.015511 325.586499 
L 363.276738 313.919687 
L 376.105035 360.351328 
z
" clip-path="url(#p5111cfa76d)" style="fill: #0000f5; fill-opacity: 0.1"/>
    <path d="M 218.922249 33.499949 
L 207.662797 -9.620924 
L 198.414959 -22.322283 
L 209.617638 20.806229 
z
" clip-path="url(#p5111cfa76d)" style="fill: #0000f5; fill-opacity: 0.1"/>
    <path d="M 258.144896 115.060891 
L 246.494669 71.115337 
L 237.360241 58.653788 
L 248.955994 102.611919 
z
" clip-path="url(#p5111cfa76d)" style="fill: #0000f5; fill-opacity: 0.1"/>
    <path d="M 297.416182 196.722976 
L 285.374225 151.950737 
L 276.353493 139.729599 
L 288.343285 184.51937 
z
" clip-path="url(#p5111cfa76d)" style="fill: #0000f5; fill-opacity: 0.1"/>
    <path d="M 336.736198 278.486392 
L 324.301552 232.885459 
L 315.394804 220.905333 
L 327.779601 266.528771 
z
" clip-path="url(#p5111cfa76d)" style="fill: #0000f5; fill-opacity: 0.1"/>
    <path d="M 170.328125 -60.89789 
L 159.517557 -103.198799 
L 150.099065 -116.218898 
L 160.849631 -73.91604 
z
" clip-path="url(#p5111cfa76d)" style="fill: #0000f5; fill-opacity: 0.1"/>
    <path d="M 376.105035 360.351328 
L 363.276738 313.919687 
L 354.484261 302.181175 
L 367.265035 348.640313 
z
" clip-path="url(#p5111cfa76d)" style="fill: #0000f5; fill-opacity: 0.1"/>
    <path d="M 209.617638 20.806229 
L 198.414959 -22.322283 
L 189.110252 -35.101747 
L 200.255241 8.033676 
z
" clip-path="url(#p5111cfa76d)" style="fill: #0000f5; fill-opacity: 0.1"/>
    <path d="M 248.955994 102.611919 
L 237.360241 58.653788 
L 228.169608 46.115562 
L 239.70999 90.085585 
z
" clip-path="url(#p5111cfa76d)" style="fill: #0000f5; fill-opacity: 0.1"/>
    <path d="M 288.343285 184.51937 
L 276.353493 139.729599 
L 267.277222 127.433216 
L 279.213971 172.239879 
z
" clip-path="url(#p5111cfa76d)" style="fill: #0000f5; fill-opacity: 0.1"/>
    <path d="M 327.779601 266.528771 
L 315.394804 220.905333 
L 306.433183 208.8514 
L 318.767276 254.496749 
z
" clip-path="url(#p5111cfa76d)" style="fill: #0000f5; fill-opacity: 0.1"/>
    <path d="M 160.849631 -73.91604 
L 150.099065 -116.218898 
L 140.622514 -129.319259 
L 151.312126 -87.01524 
z
" clip-path="url(#p5111cfa76d)" style="fill: #0000f5; fill-opacity: 0.1"/>
    <path d="M 367.265035 348.640313 
L 354.484261 302.181175 
L 345.637581 290.370301 
L 358.369997 336.856386 
z
" clip-path="url(#p5111cfa76d)" style="fill: #0000f5; fill-opacity: 0.1"/>
    <path d="M 200.255241 8.033676 
L 189.110252 -35.101747 
L 179.748152 -47.960039 
L 190.834518 -4.818447 
z
" clip-path="url(#p5111cfa76d)" style="fill: #0000f5; fill-opacity: 0.1"/>
    <path d="M 239.70999 90.085585 
L 228.169608 46.115562 
L 218.922249 33.499949 
L 230.40635 77.481167 
z
" clip-path="url(#p5111cfa76d)" style="fill: #0000f5; fill-opacity: 0.1"/>
    <path d="M 279.213971 172.239879 
L 267.277222 127.433216 
L 258.144896 115.060891 
L 270.027713 159.883794 
z
" clip-path="url(#p5111cfa76d)" style="fill: #0000f5; fill-opacity: 0.1"/>
    <path d="M 318.767276 254.496749 
L 306.433183 208.8514 
L 297.416182 196.722976 
L 309.6987 242.389628 
z
" clip-path="url(#p5111cfa76d)" style="fill: #0000f5; fill-opacity: 0.1"/>
    <path d="M 358.369997 336.856386 
L 345.637581 290.370301 
L 336.736198 278.486392 
L 349.419406 324.998864 
z
" clip-path="url(#p5111cfa76d)" style="fill: #0000f5; fill-opacity: 0.1"/>
    <path d="M 190.834518 -4.818447 
L 179.748152 -47.960039 
L 170.328125 -60.89789 
L 181.354923 -17.750887 
z
" clip-path="url(#p5111cfa76d)" style="fill: #0000f5; fill-opacity: 0.1"/>
    <path d="M 230.40635 77.481167 
L 218.922249 33.499949 
L 209.617638 20.806229 
L 221.044532 64.79793 
z
" clip-path="url(#p5111cfa76d)" style="fill: #0000f5; fill-opacity: 0.1"/>
    <path d="M 270.027713 159.883794 
L 258.144896 115.060891 
L 248.955994 102.611919 
L 260.783975 147.450395 
z
" clip-path="url(#p5111cfa76d)" style="fill: #0000f5; fill-opacity: 0.1"/>
    <path d="M 309.6987 242.389628 
L 297.416182 196.722976 
L 288.343285 184.51937 
L 300.573346 230.206705 
z
" clip-path="url(#p5111cfa76d)" style="fill: #0000f5; fill-opacity: 0.1"/>
    <path d="M 349.419406 324.998864 
L 336.736198 278.486392 
L 327.779601 266.528771 
L 340.41274 313.067054 
z
" clip-path="url(#p5111cfa76d)" style="fill: #0000f5; fill-opacity: 0.1"/>
    <path d="M 181.354923 -17.750887 
L 170.328125 -60.89789 
L 160.849631 -73.91604 
L 171.815902 -30.764397 
z
" clip-path="url(#p5111cfa76d)" style="fill: #0000f5; fill-opacity: 0.1"/>
    <path d="M 221.044532 64.79793 
L 209.617638 20.806229 
L 200.255241 8.033676 
L 211.623989 52.035134 
z
" clip-path="url(#p5111cfa76d)" style="fill: #0000f5; fill-opacity: 0.1"/>
    <path d="M 260.783975 147.450395 
L 248.955994 102.611919 
L 239.70999 90.085585 
L 251.482216 134.938956 
z
" clip-path="url(#p5111cfa76d)" style="fill: #0000f5; fill-opacity: 0.1"/>
    <path d="M 300.573346 230.206705 
L 288.343285 184.51937 
L 279.213971 172.239879 
L 291.390678 217.947264 
z
" clip-path="url(#p5111cfa76d)" style="fill: #0000f5; fill-opacity: 0.1"/>
    <path d="M 340.41274 313.067054 
L 327.779601 266.528771 
L 318.767276 254.496749 
L 331.34947 301.060258 
z
" clip-path="url(#p5111cfa76d)" style="fill: #0000f5; fill-opacity: 0.1"/>
    <path d="M 171.815902 -30.764397 
L 160.849631 -73.91604 
L 151.312126 -87.01524 
L 162.216894 -43.859744 
z
" clip-path="url(#p5111cfa76d)" style="fill: #0000f5; fill-opacity: 0.1"/>
    <path d="M 211.623989 52.035134 
L 200.255241 8.033676 
L 190.834518 -4.818447 
L 202.144167 39.192028 
z
" clip-path="url(#p5111cfa76d)" style="fill: #0000f5; fill-opacity: 0.1"/>
    <path d="M 251.482216 134.938956 
L 239.70999 90.085585 
L 230.40635 77.481167 
L 242.121889 122.348738 
z
" clip-path="url(#p5111cfa76d)" style="fill: #0000f5; fill-opacity: 0.1"/>
    <path d="M 291.390678 217.947264 
L 279.213971 172.239879 
L 270.027713 159.883794 
L 282.150155 205.610584 
z
" clip-path="url(#p5111cfa76d)" style="fill: #0000f5; fill-opacity: 0.1"/>
    <path d="M 331.34947 301.060258 
L 318.767276 254.496749 
L 309.6987 242.389628 
L 322.229061 288.977764 
z
" clip-path="url(#p5111cfa76d)" style="fill: #0000f5; fill-opacity: 0.1"/>
    <path d="M 202.144167 39.192028 
L 190.834518 -4.818447 
L 181.354923 -17.750887 
L 192.604506 26.267852 
z
" clip-path="url(#p5111cfa76d)" style="fill: #0000f5; fill-opacity: 0.1"/>
    <path d="M 242.121889 122.348738 
L 230.40635 77.481167 
L 221.044532 64.79793 
L 232.702439 109.678996 
z
" clip-path="url(#p5111cfa76d)" style="fill: #0000f5; fill-opacity: 0.1"/>
    <path d="M 282.150155 205.610584 
L 270.027713 159.883794 
L 260.783975 147.450395 
L 272.851229 193.19593 
z
" clip-path="url(#p5111cfa76d)" style="fill: #0000f5; fill-opacity: 0.1"/>
    <path d="M 322.229061 288.977764 
L 309.6987 242.389628 
L 300.573346 230.206705 
L 313.050972 276.818857 
z
" clip-path="url(#p5111cfa76d)" style="fill: #0000f5; fill-opacity: 0.1"/>
    <path d="M 192.604506 26.267852 
L 181.354923 -17.750887 
L 171.815902 -30.764397 
L 183.004435 13.261835 
z
" clip-path="url(#p5111cfa76d)" style="fill: #0000f5; fill-opacity: 0.1"/>
    <path d="M 232.702439 109.678996 
L 221.044532 64.79793 
L 211.623989 52.035134 
L 223.223303 96.928973 
z
" clip-path="url(#p5111cfa76d)" style="fill: #0000f5; fill-opacity: 0.1"/>
    <path d="M 272.851229 193.19593 
L 260.783975 147.450395 
L 251.482216 134.938956 
L 263.493343 180.702562 
z
" clip-path="url(#p5111cfa76d)" style="fill: #0000f5; fill-opacity: 0.1"/>
    <path d="M 313.050972 276.818857 
L 300.573346 230.206705 
L 291.390678 217.947264 
L 303.814652 264.582808 
z
" clip-path="url(#p5111cfa76d)" style="fill: #0000f5; fill-opacity: 0.1"/>
    <path d="M 183.004435 13.261835 
L 171.815902 -30.764397 
L 162.216894 -43.859744 
L 173.34338 0.173197 
z
" clip-path="url(#p5111cfa76d)" style="fill: #0000f5; fill-opacity: 0.1"/>
    <path d="M 223.223303 96.928973 
L 211.623989 52.035134 
L 202.144167 39.192028 
L 213.683913 84.097904 
z
" clip-path="url(#p5111cfa76d)" style="fill: #0000f5; fill-opacity: 0.1"/>
    <path d="M 263.493343 180.702562 
L 251.482216 134.938956 
L 242.121889 122.348738 
L 254.075935 168.12973 
z
" clip-path="url(#p5111cfa76d)" style="fill: #0000f5; fill-opacity: 0.1"/>
    <path d="M 303.814652 264.582808 
L 291.390678 217.947264 
L 282.150155 205.610584 
L 294.519546 252.26888 
z
" clip-path="url(#p5111cfa76d)" style="fill: #0000f5; fill-opacity: 0.1"/>
    <path d="M 213.683913 84.097904 
L 202.144167 39.192028 
L 192.604506 26.267852 
L 204.083692 71.185014 
z
" clip-path="url(#p5111cfa76d)" style="fill: #0000f5; fill-opacity: 0.1"/>
    <path d="M 254.075935 168.12973 
L 242.121889 122.348738 
L 232.702439 109.678996 
L 244.598436 155.476671 
z
" clip-path="url(#p5111cfa76d)" style="fill: #0000f5; fill-opacity: 0.1"/>
    <path d="M 294.519546 252.26888 
L 282.150155 205.610584 
L 272.851229 193.19593 
L 285.165091 239.876329 
z
" clip-path="url(#p5111cfa76d)" style="fill: #0000f5; fill-opacity: 0.1"/>
    <path d="M 204.083692 71.185014 
L 192.604506 26.267852 
L 183.004435 13.261835 
L 194.422057 58.189518 
z
" clip-path="url(#p5111cfa76d)" style="fill: #0000f5; fill-opacity: 0.1"/>
    <path d="M 244.598436 155.476671 
L 232.702439 109.678996 
L 223.223303 96.928973 
L 235.060269 142.742617 
z
" clip-path="url(#p5111cfa76d)" style="fill: #0000f5; fill-opacity: 0.1"/>
    <path d="M 285.165091 239.876329 
L 272.851229 193.19593 
L 263.493343 180.702562 
L 275.750717 227.404398 
z
" clip-path="url(#p5111cfa76d)" style="fill: #0000f5; fill-opacity: 0.1"/>
    <path d="M 194.422057 58.189518 
L 183.004435 13.261835 
L 173.34338 0.173197 
L 184.698416 45.11062 
z
" clip-path="url(#p5111cfa76d)" style="fill: #0000f5; fill-opacity: 0.1"/>
    <path d="M 235.060269 142.742617 
L 223.223303 96.928973 
L 213.683913 84.097904 
L 225.460849 129.926786 
z
" clip-path="url(#p5111cfa76d)" style="fill: #0000f5; fill-opacity: 0.1"/>
    <path d="M 275.750717 227.404398 
L 263.493343 180.702562 
L 254.075935 168.12973 
L 266.275846 214.852322 
z
" clip-path="url(#p5111cfa76d)" style="fill: #0000f5; fill-opacity: 0.1"/>
    <path d="M 225.460849 129.926786 
L 213.683913 84.097904 
L 204.083692 71.185014 
L 215.799585 117.028388 
z
" clip-path="url(#p5111cfa76d)" style="fill: #0000f5; fill-opacity: 0.1"/>
    <path d="M 266.275846 214.852322 
L 254.075935 168.12973 
L 244.598436 155.476671 
L 256.739894 202.219327 
z
" clip-path="url(#p5111cfa76d)" style="fill: #0000f5; fill-opacity: 0.1"/>
    <path d="M 215.799585 117.028388 
L 204.083692 71.185014 
L 194.422057 58.189518 
L 206.075876 104.046624 
z
" clip-path="url(#p5111cfa76d)" style="fill: #0000f5; fill-opacity: 0.1"/>
    <path d="M 256.739894 202.219327 
L 244.598436 155.476671 
L 235.060269 142.742617 
L 247.142267 189.504627 
z
" clip-path="url(#p5111cfa76d)" style="fill: #0000f5; fill-opacity: 0.1"/>
    <path d="M 206.075876 104.046624 
L 194.422057 58.189518 
L 184.698416 45.11062 
L 196.289115 90.980681 
z
" clip-path="url(#p5111cfa76d)" style="fill: #0000f5; fill-opacity: 0.1"/>
    <path d="M 247.142267 189.504627 
L 235.060269 142.742617 
L 225.460849 129.926786 
L 237.482365 176.707427 
z
" clip-path="url(#p5111cfa76d)" style="fill: #0000f5; fill-opacity: 0.1"/>
    <path d="M 237.482365 176.707427 
L 225.460849 129.926786 
L 215.799585 117.028388 
L 227.759581 163.826922 
z
" clip-path="url(#p5111cfa76d)" style="fill: #0000f5; fill-opacity: 0.1"/>
    <path d="M 227.759581 163.826922 
L 215.799585 117.028388 
L 206.075876 104.046624 
L 217.973298 150.862295 
z
" clip-path="url(#p5111cfa76d)" style="fill: #0000f5; fill-opacity: 0.1"/>
    <path d="M 217.973298 150.862295 
L 206.075876 104.046624 
L 196.289115 90.980681 
L 208.122892 137.81272 
z
" clip-path="url(#p5111cfa76d)" style="fill: #0000f5; fill-opacity: 0.1"/>
   </g>
   <g id="legend_1">
    <g id="patch_6">
     <path d="M 357.840076 67.305115 
L 396.2 67.305115 
Q 398.2 67.305115 398.2 65.305115 
L 398.2 7 
Q 398.2 5 396.2 5 
L 357.840076 5 
Q 355.840076 5 355.840076 7 
L 355.840076 65.305115 
Q 355.840076 67.305115 357.840076 67.305115 
z
" style="fill: #ffffff; opacity: 0.8; stroke: #cccccc; stroke-linejoin: miter"/>
    </g>
    <g id="line2d_25">
     <path d="M 359.840076 12.5 
L 369.840076 12.5 
L 379.840076 12.5 
" style="fill: none; stroke: #ff0000; stroke-width: 1.5; stroke-linecap: square"/>
    </g>
    <g id="text_21">
     <!-- $\vec{a}$ -->
     <g transform="translate(387.840076 16)scale(0.1 -0.1)">
      <defs>
       <path id="CMMI12-7e" d="M 3424 3835 
C 3347 3764 3110 3540 3110 3451 
C 3110 3387 3168 3329 3232 3329 
C 3290 3329 3315 3368 3360 3432 
C 3514 3624 3686 3745 3834 3828 
C 3898 3867 3942 3886 3942 3956 
C 3942 4014 3891 4046 3853 4078 
C 3674 4200 3629 4372 3610 4449 
C 3590 4500 3571 4577 3482 4577 
C 3443 4577 3366 4552 3366 4456 
C 3366 4398 3405 4244 3526 4072 
L 1376 4072 
C 1267 4072 1158 4072 1158 3950 
C 1158 3835 1274 3835 1376 3835 
L 3424 3835 
z
" transform="scale(0.015625)"/>
       <path id="CMMI12-61" d="M 1926 760 
C 1894 651 1894 639 1805 517 
C 1664 338 1382 64 1082 64 
C 819 64 672 300 672 677 
C 672 1028 870 1743 992 2012 
C 1210 2459 1510 2689 1760 2689 
C 2182 2689 2266 2165 2266 2114 
C 2266 2108 2246 2024 2240 2012 
L 1926 760 
z
M 2336 2395 
C 2266 2561 2093 2816 1760 2816 
C 1037 2816 256 1884 256 939 
C 256 307 627 -64 1062 -64 
C 1414 -64 1715 211 1894 422 
C 1958 45 2259 -64 2451 -64 
C 2643 -64 2797 51 2912 281 
C 3014 498 3104 888 3104 913 
C 3104 945 3078 971 3040 971 
C 2982 971 2976 939 2950 843 
C 2854 466 2733 64 2470 64 
C 2285 64 2272 230 2272 358 
C 2272 505 2291 575 2349 824 
C 2394 984 2426 1124 2477 1309 
C 2714 2267 2771 2497 2771 2535 
C 2771 2625 2701 2695 2605 2695 
C 2400 2695 2349 2472 2336 2395 
z
" transform="scale(0.015625)"/>
      </defs>
      <use xlink:href="#CMMI12-7e" transform="scale(0.996264)"/>
      <use xlink:href="#CMMI12-61" transform="translate(6.445738 0)scale(0.996264)"/>
     </g>
    </g>
    <g id="line2d_26">
     <path d="M 359.840076 27.24679 
L 369.840076 27.24679 
L 379.840076 27.24679 
" style="fill: none; stroke: #00ff00; stroke-width: 1.5; stroke-linecap: square"/>
    </g>
    <g id="text_22">
     <!-- $\vec{b}$ -->
     <g transform="translate(387.840076 30.74679)scale(0.1 -0.1)">
      <defs>
       <path id="CMMI12-62" d="M 1478 4257 
C 1485 4283 1498 4321 1498 4352 
C 1498 4416 1434 4416 1421 4416 
C 1414 4416 1184 4393 1069 4377 
C 960 4377 864 4358 749 4358 
C 595 4345 550 4339 550 4224 
C 550 4160 614 4160 678 4160 
C 1005 4160 1005 4103 1005 4040 
C 1005 3996 954 3811 928 3696 
L 774 3085 
C 710 2831 346 1387 320 1272 
C 288 1114 288 1005 288 922 
C 288 274 653 -64 1069 -64 
C 1811 -64 2579 888 2579 1814 
C 2579 2401 2246 2816 1766 2816 
C 1434 2816 1133 2542 1011 2414 
L 1478 4257 
z
M 1075 64 
C 870 64 646 217 646 715 
C 646 926 666 1047 781 1494 
C 800 1577 902 1986 928 2069 
C 941 2120 1318 2689 1754 2689 
C 2035 2689 2163 2408 2163 2076 
C 2163 1769 1984 1047 1824 715 
C 1664 370 1370 64 1075 64 
z
" transform="scale(0.015625)"/>
      </defs>
      <use xlink:href="#CMMI12-7e" transform="translate(0 26.29016)scale(0.996264)"/>
      <use xlink:href="#CMMI12-62" transform="translate(11.311737 0)scale(0.996264)"/>
     </g>
    </g>
    <g id="line2d_27">
     <path d="M 359.840076 41.183968 
L 369.840076 41.183968 
L 379.840076 41.183968 
" style="fill: none; stroke: #0016ff; stroke-width: 1.5; stroke-linecap: square"/>
    </g>
    <g id="text_23">
     <!-- $\vec{c}$ -->
     <g transform="translate(387.840076 44.683968)scale(0.1 -0.1)">
      <defs>
       <path id="CMMI12-63" d="M 2502 2431 
C 2381 2431 2323 2431 2234 2355 
C 2195 2323 2125 2227 2125 2125 
C 2125 1997 2221 1920 2342 1920 
C 2496 1920 2669 2044 2669 2292 
C 2669 2588 2374 2816 1933 2816 
C 1094 2816 256 1903 256 996 
C 256 441 602 -64 1254 -64 
C 2125 -64 2675 622 2675 706 
C 2675 744 2637 776 2611 776 
C 2592 776 2586 770 2528 713 
C 2118 162 1510 64 1267 64 
C 826 64 685 446 685 764 
C 685 988 794 1605 1024 2039 
C 1190 2338 1536 2682 1939 2682 
C 2022 2682 2374 2682 2502 2431 
z
" transform="scale(0.015625)"/>
      </defs>
      <use xlink:href="#CMMI12-7e" transform="scale(0.996264)"/>
      <use xlink:href="#CMMI12-63" transform="translate(5.638615 0)scale(0.996264)"/>
     </g>
    </g>
    <g id="line2d_28">
     <path d="M 359.840076 57.867937 
L 369.840076 57.867937 
L 379.840076 57.867937 
" style="fill: none; stroke: #f400ff; stroke-width: 1.5; stroke-linecap: square"/>
    </g>
    <g id="text_24">
     <!-- $\vec{f}$ -->
     <g transform="translate(387.840076 61.367937)scale(0.1 -0.1)">
      <defs>
       <path id="CMMI12-66" d="M 2854 2566 
C 2982 2566 3034 2566 3034 2688 
C 3034 2752 2982 2752 2867 2752 
L 2349 2752 
C 2470 3429 2560 3897 2611 4107 
C 2650 4265 2784 4416 2950 4416 
C 3085 4416 3219 4358 3283 4298 
C 3034 4272 2957 4082 2957 3969 
C 2957 3837 3053 3759 3174 3759 
C 3302 3759 3494 3870 3494 4119 
C 3494 4393 3226 4544 2944 4544 
C 2669 4544 2400 4334 2272 4078 
C 2157 3848 2093 3611 1946 2752 
L 1517 2752 
C 1395 2752 1331 2752 1331 2637 
C 1331 2566 1370 2566 1498 2566 
L 1907 2566 
C 1792 1976 1530 542 1382 -137 
C 1274 -689 1178 -1152 858 -1152 
C 838 -1152 653 -1152 538 -1031 
C 864 -1005 864 -726 864 -720 
C 864 -593 768 -517 646 -517 
C 518 -517 326 -625 326 -867 
C 326 -1140 608 -1280 858 -1280 
C 1510 -1280 1779 -118 1850 199 
C 1965 688 2278 2376 2310 2566 
L 2854 2566 
z
" transform="scale(0.015625)"/>
      </defs>
      <use xlink:href="#CMMI12-7e" transform="translate(13.568792 26.29016)scale(0.996264)"/>
      <use xlink:href="#CMMI12-66" transform="scale(0.996264)"/>
     </g>
    </g>
   </g>
  </g>
 </g>
 <defs>
  <clipPath id="p5111cfa76d">
   <rect x="57.6" y="0" width="345.6" height="345.6"/>
  </clipPath>
 </defs>
</svg>
