<?xml version="1.0" encoding="utf-8" standalone="no"?>
<!DOCTYPE svg PUBLIC "-//W3C//DTD SVG 1.1//EN"
  "http://www.w3.org/Graphics/SVG/1.1/DTD/svg11.dtd">
<svg xmlns:xlink="http://www.w3.org/1999/xlink" width="460.8pt" height="345.6pt" viewBox="0 0 460.8 345.6" xmlns="http://www.w3.org/2000/svg" version="1.1">
 <metadata>
  <rdf:RDF xmlns:dc="http://purl.org/dc/elements/1.1/" xmlns:cc="http://creativecommons.org/ns#" xmlns:rdf="http://www.w3.org/1999/02/22-rdf-syntax-ns#">
   <cc:Work>
    <dc:type rdf:resource="http://purl.org/dc/dcmitype/StillImage"/>
    <dc:date>2022-07-12T15:51:00.892151</dc:date>
    <dc:format>image/svg+xml</dc:format>
    <dc:creator>
     <cc:Agent>
      <dc:title>Matplotlib v3.5.1, https://matplotlib.org/</dc:title>
     </cc:Agent>
    </dc:creator>
   </cc:Work>
  </rdf:RDF>
 </metadata>
 <defs>
  <style type="text/css">*{stroke-linejoin: round; stroke-linecap: butt}</style>
 </defs>
 <g id="figure_1">
  <g id="patch_1">
   <path d="M 0 345.6 
L 460.8 345.6 
L 460.8 0 
L 0 0 
z
" style="fill: #ffffff"/>
  </g>
  <g id="patch_2">
   <path d="M 57.6 345.6 
L 403.2 345.6 
L 403.2 0 
L 57.6 0 
z
" style="fill: #ffffff"/>
  </g>
  <g id="pane3d_1">
   <g id="patch_3">
    <path d="M 272.710591 245.256182 
L 86.41133 249.749152 
L 86.41133 86.510307 
L 272.710591 91.003278 
" style="fill: #f2f2f2; opacity: 0.5; stroke: #f2f2f2; stroke-linejoin: miter"/>
   </g>
  </g>
  <g id="pane3d_2">
   <g id="patch_4">
    <path d="M 390.351217 253.384887 
L 272.710591 245.256182 
L 272.710591 91.003278 
L 390.351217 82.874573 
" style="fill: #e6e6e6; opacity: 0.5; stroke: #e6e6e6; stroke-linejoin: miter"/>
   </g>
  </g>
  <g id="pane3d_3">
   <g id="patch_5">
    <path d="M 390.351217 253.384887 
L 272.710591 245.256182 
L 86.41133 249.749152 
L 190.767034 258.908749 
" style="fill: #ececec; opacity: 0.5; stroke: #ececec; stroke-linejoin: miter"/>
   </g>
  </g>
  <g id="axis3d_1">
   <g id="line2d_1">
    <path d="M 86.41133 249.749152 
L 190.767034 258.908749 
" style="fill: none; stroke: #000000; stroke-width: 0.8; stroke-linecap: square"/>
   </g>
   <g id="text_1">
    <!-- x -->
    <g transform="translate(103.586758 282.891221)scale(0.16 -0.16)">
     <defs>
      <path id="CMSS17-78" d="M 1587 1414 
L 2656 2739 
L 2099 2739 
L 1363 1777 
L 602 2739 
L 32 2739 
L 1139 1414 
L 0 0 
L 563 0 
L 1363 1121 
L 2195 0 
L 2758 0 
L 1587 1414 
z
" transform="scale(0.015625)"/>
     </defs>
     <use xlink:href="#CMSS17-78" transform="scale(0.996264)"/>
    </g>
   </g>
   <g id="Line3DCollection_1">
    <path d="M 188.450895 258.705455 
L 387.755902 253.205556 
L 387.755902 83.053903 
" style="fill: none; stroke: #b0b0b0; stroke-width: 0.8"/>
    <path d="M 166.732673 256.799185 
L 363.3854 251.521609 
L 363.3854 84.737851 
" style="fill: none; stroke: #b0b0b0; stroke-width: 0.8"/>
    <path d="M 145.909778 254.9715 
L 339.960926 249.90303 
L 339.960926 86.35643 
" style="fill: none; stroke: #b0b0b0; stroke-width: 0.8"/>
    <path d="M 125.927962 253.21764 
L 317.428446 248.346086 
L 317.428446 87.913374 
" style="fill: none; stroke: #b0b0b0; stroke-width: 0.8"/>
    <path d="M 106.737277 251.533219 
L 295.737961 246.847322 
L 295.737961 89.412138 
" style="fill: none; stroke: #b0b0b0; stroke-width: 0.8"/>
    <path d="M 88.291649 249.914193 
L 274.84314 245.403536 
L 274.84314 90.855923 
" style="fill: none; stroke: #b0b0b0; stroke-width: 0.8"/>
   </g>
   <g id="xtick_1">
    <g id="line2d_2">
     <path d="M 190.147534 258.658636 
L 185.052348 258.79924 
" style="fill: none; stroke: #000000; stroke-width: 0.8; stroke-linecap: square"/>
    </g>
    <g id="text_2">
     <!-- $\mathdefault{0}$ -->
     <g transform="translate(172.347454 277.621168)scale(0.1 -0.1)">
      <defs>
       <path id="CMR17-30" d="M 2688 2025 
C 2688 2416 2682 3080 2413 3591 
C 2176 4039 1798 4198 1466 4198 
C 1158 4198 768 4058 525 3597 
C 269 3118 243 2524 243 2025 
C 243 1661 250 1106 448 619 
C 723 -39 1216 -128 1466 -128 
C 1760 -128 2208 -7 2470 600 
C 2662 1042 2688 1559 2688 2025 
z
M 1466 -26 
C 1056 -26 813 325 723 812 
C 653 1188 653 1738 653 2096 
C 653 2588 653 2997 736 3387 
C 858 3929 1216 4096 1466 4096 
C 1728 4096 2067 3923 2189 3400 
C 2272 3036 2278 2607 2278 2096 
C 2278 1680 2278 1169 2202 792 
C 2067 95 1690 -26 1466 -26 
z
" transform="scale(0.015625)"/>
      </defs>
      <use xlink:href="#CMR17-30" transform="scale(0.996264)"/>
     </g>
    </g>
   </g>
   <g id="xtick_2">
    <g id="line2d_3">
     <path d="M 168.404612 256.754315 
L 163.383711 256.889061 
" style="fill: none; stroke: #000000; stroke-width: 0.8; stroke-linecap: square"/>
    </g>
    <g id="text_3">
     <!-- $\mathdefault{1}$ -->
     <g transform="translate(150.828721 275.453639)scale(0.1 -0.1)">
      <defs>
       <path id="CMR17-31" d="M 1702 4058 
C 1702 4192 1696 4192 1606 4192 
C 1357 3916 979 3827 621 3827 
C 602 3827 570 3827 563 3808 
C 557 3795 557 3782 557 3648 
C 755 3648 1088 3686 1344 3839 
L 1344 461 
C 1344 236 1331 160 781 160 
L 589 160 
L 589 0 
C 896 0 1216 0 1523 0 
C 1830 0 2150 0 2458 0 
L 2458 160 
L 2266 160 
C 1715 160 1702 230 1702 458 
L 1702 4058 
z
" transform="scale(0.015625)"/>
      </defs>
      <use xlink:href="#CMR17-31" transform="scale(0.996264)"/>
     </g>
    </g>
   </g>
   <g id="xtick_3">
    <g id="line2d_4">
     <path d="M 147.557591 254.928461 
L 142.609243 255.057708 
" style="fill: none; stroke: #000000; stroke-width: 0.8; stroke-linecap: square"/>
    </g>
    <g id="text_4">
     <!-- $\mathdefault{2}$ -->
     <g transform="translate(130.200618 273.375821)scale(0.1 -0.1)">
      <defs>
       <path id="CMR17-32" d="M 2669 989 
L 2554 989 
C 2490 536 2438 459 2413 420 
C 2381 369 1920 369 1830 369 
L 602 369 
C 832 619 1280 1072 1824 1597 
C 2214 1967 2669 2402 2669 3035 
C 2669 3790 2067 4224 1395 4224 
C 691 4224 262 3604 262 3030 
C 262 2780 448 2748 525 2748 
C 589 2748 781 2787 781 3010 
C 781 3207 614 3264 525 3264 
C 486 3264 448 3258 422 3245 
C 544 3790 915 4058 1306 4058 
C 1862 4058 2227 3617 2227 3035 
C 2227 2479 1901 2000 1536 1584 
L 262 146 
L 262 0 
L 2515 0 
L 2669 989 
z
" transform="scale(0.015625)"/>
      </defs>
      <use xlink:href="#CMR17-32" transform="scale(0.996264)"/>
     </g>
    </g>
   </g>
   <g id="xtick_4">
    <g id="line2d_5">
     <path d="M 127.552216 253.176321 
L 122.674716 253.300399 
" style="fill: none; stroke: #000000; stroke-width: 0.8; stroke-linecap: square"/>
    </g>
    <g id="text_5">
     <!-- $\mathdefault{3}$ -->
     <g transform="translate(110.408973 271.382257)scale(0.1 -0.1)">
      <defs>
       <path id="CMR17-33" d="M 1414 2157 
C 1984 2157 2234 1662 2234 1090 
C 2234 320 1824 25 1453 25 
C 1114 25 563 194 390 693 
C 422 680 454 680 486 680 
C 640 680 755 782 755 948 
C 755 1133 614 1216 486 1216 
C 378 1216 211 1165 211 926 
C 211 335 787 -128 1466 -128 
C 2176 -128 2720 430 2720 1085 
C 2720 1707 2208 2157 1600 2227 
C 2086 2328 2554 2756 2554 3329 
C 2554 3820 2048 4179 1472 4179 
C 890 4179 378 3829 378 3329 
C 378 3110 544 3072 627 3072 
C 762 3072 877 3155 877 3321 
C 877 3486 762 3569 627 3569 
C 602 3569 570 3569 544 3557 
C 730 3959 1235 4032 1459 4032 
C 1683 4032 2106 3925 2106 3320 
C 2106 3143 2080 2828 1862 2550 
C 1670 2304 1453 2304 1242 2284 
C 1210 2284 1062 2269 1037 2269 
C 992 2263 966 2257 966 2208 
C 966 2163 973 2157 1101 2157 
L 1414 2157 
z
" transform="scale(0.015625)"/>
      </defs>
      <use xlink:href="#CMR17-33" transform="scale(0.996264)"/>
     </g>
    </g>
   </g>
   <g id="xtick_5">
    <g id="line2d_6">
     <path d="M 108.338526 251.493519 
L 103.530198 251.612732 
" style="fill: none; stroke: #000000; stroke-width: 0.8; stroke-linecap: square"/>
    </g>
    <g id="text_6">
     <!-- $\mathdefault{4}$ -->
     <g transform="translate(91.40392 269.467924)scale(0.1 -0.1)">
      <defs>
       <path id="CMR17-34" d="M 2150 4122 
C 2150 4256 2144 4256 2029 4256 
L 128 1254 
L 128 1088 
L 1779 1088 
L 1779 457 
C 1779 224 1766 160 1318 160 
L 1197 160 
L 1197 0 
C 1402 0 1747 0 1965 0 
C 2182 0 2528 0 2733 0 
L 2733 160 
L 2611 160 
C 2163 160 2150 224 2150 457 
L 2150 1088 
L 2803 1088 
L 2803 1254 
L 2150 1254 
L 2150 4122 
z
M 1798 3703 
L 1798 1254 
L 256 1254 
L 1798 3703 
z
" transform="scale(0.015625)"/>
      </defs>
      <use xlink:href="#CMR17-34" transform="scale(0.996264)"/>
     </g>
    </g>
   </g>
   <g id="xtick_6">
    <g id="line2d_7">
     <path d="M 89.87044 249.87602 
L 85.129641 249.990648 
" style="fill: none; stroke: #000000; stroke-width: 0.8; stroke-linecap: square"/>
    </g>
    <g id="text_7">
     <!-- $\mathdefault{5}$ -->
     <g transform="translate(73.13948 267.628192)scale(0.1 -0.1)">
      <defs>
       <path id="CMR17-35" d="M 730 3692 
C 794 3666 1056 3584 1325 3584 
C 1920 3584 2246 3911 2432 4100 
C 2432 4157 2432 4192 2394 4192 
C 2387 4192 2374 4192 2323 4163 
C 2099 4058 1837 3973 1517 3973 
C 1325 3973 1037 3999 723 4139 
C 653 4171 640 4171 634 4171 
C 602 4171 595 4164 595 4037 
L 595 2203 
C 595 2089 595 2057 659 2057 
C 691 2057 704 2070 736 2114 
C 941 2401 1222 2522 1542 2522 
C 1766 2522 2246 2382 2246 1289 
C 2246 1085 2246 715 2054 421 
C 1894 159 1645 25 1370 25 
C 947 25 518 320 403 814 
C 429 807 480 795 506 795 
C 589 795 749 840 749 1038 
C 749 1210 627 1280 506 1280 
C 358 1280 262 1190 262 1011 
C 262 454 704 -128 1382 -128 
C 2042 -128 2669 440 2669 1264 
C 2669 2030 2170 2624 1549 2624 
C 1222 2624 947 2503 730 2274 
L 730 3692 
z
" transform="scale(0.015625)"/>
      </defs>
      <use xlink:href="#CMR17-35" transform="scale(0.996264)"/>
     </g>
    </g>
   </g>
  </g>
  <g id="axis3d_2">
   <g id="line2d_8">
    <path d="M 390.351217 253.384887 
L 190.767034 258.908749 
" style="fill: none; stroke: #000000; stroke-width: 0.8; stroke-linecap: square"/>
   </g>
   <g id="text_8">
    <!-- y -->
    <g transform="translate(307.552249 286.192609)scale(0.16 -0.16)">
     <defs>
      <path id="CMSS17-79" d="M 2675 2752 
L 2176 2752 
C 1632 1294 1446 702 1434 383 
L 1427 383 
C 1408 696 1126 1460 902 2007 
L 602 2752 
L 83 2752 
L 1216 13 
C 1146 -178 1043 -465 1011 -529 
C 870 -885 774 -885 672 -885 
C 646 -885 442 -885 211 -809 
L 250 -1229 
C 410 -1261 570 -1280 685 -1280 
C 845 -1280 1165 -1280 1459 -497 
L 2675 2752 
z
" transform="scale(0.015625)"/>
     </defs>
     <use xlink:href="#CMSS17-79" transform="scale(0.996264)"/>
    </g>
   </g>
   <g id="Line3DCollection_2">
    <path d="M 252.158262 90.507618 
L 252.158262 245.751841 
L 368.453662 253.990942 
" style="fill: none; stroke: #b0b0b0; stroke-width: 0.8"/>
    <path d="M 217.553905 89.673067 
L 217.553905 246.586393 
L 331.51718 255.013228 
" style="fill: none; stroke: #b0b0b0; stroke-width: 0.8"/>
    <path d="M 182.197367 88.820375 
L 182.197367 247.439085 
L 293.690551 256.06015 
" style="fill: none; stroke: #b0b0b0; stroke-width: 0.8"/>
    <path d="M 146.063851 87.948944 
L 146.063851 248.310515 
L 254.941201 257.13261 
" style="fill: none; stroke: #b0b0b0; stroke-width: 0.8"/>
    <path d="M 109.127463 87.058151 
L 109.127463 249.201309 
L 215.234953 258.231554 
" style="fill: none; stroke: #b0b0b0; stroke-width: 0.8"/>
   </g>
   <g id="xtick_7">
    <g id="line2d_9">
     <path d="M 367.425419 253.918095 
L 370.515394 254.137008 
" style="fill: none; stroke: #000000; stroke-width: 0.8; stroke-linecap: square"/>
    </g>
    <g id="text_9">
     <!-- $\mathdefault{−4}$ -->
     <g transform="translate(370.363367 272.541739)scale(0.1 -0.1)">
      <defs>
       <path id="CMSY10-0" d="M 4218 1472 
C 4326 1472 4442 1472 4442 1600 
C 4442 1728 4326 1728 4218 1728 
L 755 1728 
C 646 1728 531 1728 531 1600 
C 531 1472 646 1472 755 1472 
L 4218 1472 
z
" transform="scale(0.015625)"/>
      </defs>
      <use xlink:href="#CMSY10-0" transform="scale(0.996264)"/>
      <use xlink:href="#CMR17-34" transform="translate(77.487468 0)scale(0.996264)"/>
     </g>
    </g>
   </g>
   <g id="xtick_8">
    <g id="line2d_10">
     <path d="M 330.508417 254.938636 
L 333.539917 255.162796 
" style="fill: none; stroke: #000000; stroke-width: 0.8; stroke-linecap: square"/>
    </g>
    <g id="text_10">
     <!-- $\mathdefault{−2}$ -->
     <g transform="translate(333.270873 273.710542)scale(0.1 -0.1)">
      <use xlink:href="#CMSY10-0" transform="scale(0.996264)"/>
      <use xlink:href="#CMR17-32" transform="translate(77.487468 0)scale(0.996264)"/>
     </g>
    </g>
   </g>
   <g id="xtick_9">
    <g id="line2d_11">
     <path d="M 292.702508 255.983751 
L 295.671799 256.213348 
" style="fill: none; stroke: #000000; stroke-width: 0.8; stroke-linecap: square"/>
    </g>
    <g id="text_11">
     <!-- $\mathdefault{0}$ -->
     <g transform="translate(299.15259 274.90771)scale(0.1 -0.1)">
      <use xlink:href="#CMR17-30" transform="scale(0.996264)"/>
     </g>
    </g>
   </g>
   <g id="xtick_10">
    <g id="line2d_12">
     <path d="M 253.975197 257.054337 
L 256.878321 257.289571 
" style="fill: none; stroke: #000000; stroke-width: 0.8; stroke-linecap: square"/>
    </g>
    <g id="text_12">
     <!-- $\mathdefault{2}$ -->
     <g transform="translate(260.226606 276.134287)scale(0.1 -0.1)">
      <use xlink:href="#CMR17-32" transform="scale(0.996264)"/>
     </g>
    </g>
   </g>
   <g id="xtick_11">
    <g id="line2d_13">
     <path d="M 214.292382 258.151337 
L 217.125144 258.392419 
" style="fill: none; stroke: #000000; stroke-width: 0.8; stroke-linecap: square"/>
    </g>
    <g id="text_13">
     <!-- $\mathdefault{4}$ -->
     <g transform="translate(220.332471 277.391372)scale(0.1 -0.1)">
      <use xlink:href="#CMR17-34" transform="scale(0.996264)"/>
     </g>
    </g>
   </g>
  </g>
  <g id="axis3d_3">
   <g id="line2d_14">
    <path d="M 390.351217 253.384887 
L 390.351217 82.874573 
" style="fill: none; stroke: #000000; stroke-width: 0.8; stroke-linecap: square"/>
   </g>
   <g id="text_14">
    <!-- z -->
    <g transform="translate(431.334593 172.114786)scale(0.16 -0.16)">
     <defs>
      <path id="CMSS17-7a" d="M 2400 2502 
L 2400 2750 
L 250 2750 
L 250 2368 
L 1069 2368 
C 1146 2368 1222 2368 1299 2368 
L 1747 2368 
L 166 261 
L 166 0 
L 2419 0 
L 2419 395 
L 1549 395 
C 1472 395 1395 395 1318 395 
L 826 395 
L 2400 2502 
z
" transform="scale(0.015625)"/>
     </defs>
     <use xlink:href="#CMSS17-7a" transform="scale(0.996264)"/>
    </g>
   </g>
   <g id="Line3DCollection_3">
    <path d="M 390.351217 249.97468 
L 272.710591 242.171124 
L 86.41133 246.484376 
" style="fill: none; stroke: #b0b0b0; stroke-width: 0.8"/>
    <path d="M 390.351217 217.2367 
L 272.710591 212.554566 
L 86.41133 215.142517 
" style="fill: none; stroke: #b0b0b0; stroke-width: 0.8"/>
    <path d="M 390.351217 184.49872 
L 272.710591 182.938008 
L 86.41133 183.800659 
" style="fill: none; stroke: #b0b0b0; stroke-width: 0.8"/>
    <path d="M 390.351217 151.76074 
L 272.710591 153.321451 
L 86.41133 152.458801 
" style="fill: none; stroke: #b0b0b0; stroke-width: 0.8"/>
    <path d="M 390.351217 119.022759 
L 272.710591 123.704893 
L 86.41133 121.116942 
" style="fill: none; stroke: #b0b0b0; stroke-width: 0.8"/>
    <path d="M 390.351217 86.284779 
L 272.710591 94.088336 
L 86.41133 89.775084 
" style="fill: none; stroke: #b0b0b0; stroke-width: 0.8"/>
   </g>
   <g id="xtick_12">
    <g id="line2d_15">
     <path d="M 389.311779 249.905731 
L 392.435361 250.11293 
" style="fill: none; stroke: #000000; stroke-width: 0.8; stroke-linecap: square"/>
    </g>
    <g id="text_15">
     <!-- $\mathdefault{0}$ -->
     <g transform="translate(408.201812 257.126768)scale(0.1 -0.1)">
      <use xlink:href="#CMR17-30" transform="scale(0.996264)"/>
     </g>
    </g>
   </g>
   <g id="xtick_13">
    <g id="line2d_16">
     <path d="M 389.311779 217.19533 
L 392.435361 217.31965 
" style="fill: none; stroke: #000000; stroke-width: 0.8; stroke-linecap: square"/>
    </g>
    <g id="text_16">
     <!-- $\mathdefault{1}$ -->
     <g transform="translate(408.201812 224.295352)scale(0.1 -0.1)">
      <use xlink:href="#CMR17-31" transform="scale(0.996264)"/>
     </g>
    </g>
   </g>
   <g id="xtick_14">
    <g id="line2d_17">
     <path d="M 389.311779 184.48493 
L 392.435361 184.52637 
" style="fill: none; stroke: #000000; stroke-width: 0.8; stroke-linecap: square"/>
    </g>
    <g id="text_17">
     <!-- $\mathdefault{2}$ -->
     <g transform="translate(408.201812 191.463936)scale(0.1 -0.1)">
      <use xlink:href="#CMR17-32" transform="scale(0.996264)"/>
     </g>
    </g>
   </g>
   <g id="xtick_15">
    <g id="line2d_18">
     <path d="M 389.311779 151.77453 
L 392.435361 151.73309 
" style="fill: none; stroke: #000000; stroke-width: 0.8; stroke-linecap: square"/>
    </g>
    <g id="text_18">
     <!-- $\mathdefault{3}$ -->
     <g transform="translate(408.201812 158.63252)scale(0.1 -0.1)">
      <use xlink:href="#CMR17-33" transform="scale(0.996264)"/>
     </g>
    </g>
   </g>
   <g id="xtick_16">
    <g id="line2d_19">
     <path d="M 389.311779 119.064129 
L 392.435361 118.93981 
" style="fill: none; stroke: #000000; stroke-width: 0.8; stroke-linecap: square"/>
    </g>
    <g id="text_19">
     <!-- $\mathdefault{4}$ -->
     <g transform="translate(408.201812 125.801104)scale(0.1 -0.1)">
      <use xlink:href="#CMR17-34" transform="scale(0.996264)"/>
     </g>
    </g>
   </g>
   <g id="xtick_17">
    <g id="line2d_20">
     <path d="M 389.311779 86.353729 
L 392.435361 86.14653 
" style="fill: none; stroke: #000000; stroke-width: 0.8; stroke-linecap: square"/>
    </g>
    <g id="text_20">
     <!-- $\mathdefault{5}$ -->
     <g transform="translate(408.201812 92.969688)scale(0.1 -0.1)">
      <use xlink:href="#CMR17-35" transform="scale(0.996264)"/>
     </g>
    </g>
   </g>
  </g>
  <g id="axes_1">
   <g id="line2d_21">
    <path d="M 291.22366 252.359814 
L 210.474614 84.134 
" clip-path="url(#pf91c83a889)" style="fill: none; stroke: #ff0000; stroke-width: 1.5; stroke-linecap: square"/>
   </g>
   <g id="line2d_22">
    <path d="M 291.22366 252.359814 
L 282.651271 120.166103 
" clip-path="url(#pf91c83a889)" style="fill: none; stroke: #00ff00; stroke-width: 1.5; stroke-linecap: square"/>
   </g>
   <g id="line2d_23">
    <path d="M 291.22366 252.359814 
L 217.180544 -1 
" clip-path="url(#pf91c83a889)" style="fill: none; stroke: #0016ff; stroke-width: 1.5; stroke-linecap: square"/>
   </g>
   <g id="line2d_24">
    <path d="M 291.22366 252.359814 
L 237.033377 153.117631 
" clip-path="url(#pf91c83a889)" style="fill: none; stroke: #f400ff; stroke-width: 1.5; stroke-linecap: square"/>
   </g>
   <g id="Poly3DCollection_1">
    <path d="M 292.166308 24.387323 
L 281.643544 -15.504874 
L 273.090426 -27.27047 
L 283.561467 12.619386 
z
" clip-path="url(#pf91c83a889)" style="fill: #0000f5; fill-opacity: 0.1"/>
    <path d="M 283.561467 12.619386 
L 273.090426 -27.27047 
L 264.491305 -39.099347 
L 274.90991 0.78756 
z
" clip-path="url(#pf91c83a889)" style="fill: #0000f5; fill-opacity: 0.1"/>
    <path d="M 274.90991 0.78756 
L 264.491305 -39.099347 
L 255.845811 -50.992015 
L 266.211256 -11.108676 
z
" clip-path="url(#pf91c83a889)" style="fill: #0000f5; fill-opacity: 0.1"/>
    <path d="M 266.211256 -11.108676 
L 255.845811 -50.992015 
L 247.153565 -62.948993 
L 257.465119 -23.069849 
z
" clip-path="url(#pf91c83a889)" style="fill: #0000f5; fill-opacity: 0.1"/>
    <path d="M 302.887759 65.032751 
L 292.166308 24.387323 
L 283.561467 12.619386 
L 294.230758 53.264485 
z
" clip-path="url(#pf91c83a889)" style="fill: #0000f5; fill-opacity: 0.1"/>
    <path d="M 257.465119 -23.069849 
L 247.153565 -62.948993 
L 238.414189 -74.970804 
L 248.67111 -35.096492 
z
" clip-path="url(#pf91c83a889)" style="fill: #0000f5; fill-opacity: 0.1"/>
    <path d="M 294.230758 53.264485 
L 283.561467 12.619386 
L 274.90991 0.78756 
L 285.526313 41.431723 
z
" clip-path="url(#pf91c83a889)" style="fill: #0000f5; fill-opacity: 0.1"/>
    <path d="M 248.67111 -35.096492 
L 238.414189 -74.970804 
L 229.627298 -87.057977 
L 239.828834 -47.189144 
z
" clip-path="url(#pf91c83a889)" style="fill: #0000f5; fill-opacity: 0.1"/>
    <path d="M 285.526313 41.431723 
L 274.90991 0.78756 
L 266.211256 -11.108676 
L 276.774031 29.533934 
z
" clip-path="url(#pf91c83a889)" style="fill: #0000f5; fill-opacity: 0.1"/>
    <path d="M 239.828834 -47.189144 
L 229.627298 -87.057977 
L 220.792503 -99.211045 
L 230.937893 -59.348351 
z
" clip-path="url(#pf91c83a889)" style="fill: #0000f5; fill-opacity: 0.1"/>
    <path d="M 276.774031 29.533934 
L 266.211256 -11.108676 
L 257.465119 -23.069849 
L 267.973518 17.570578 
z
" clip-path="url(#pf91c83a889)" style="fill: #0000f5; fill-opacity: 0.1"/>
    <path d="M 313.813578 106.452944 
L 302.887759 65.032751 
L 294.230758 53.264485 
L 305.103984 94.686483 
z
" clip-path="url(#pf91c83a889)" style="fill: #0000f5; fill-opacity: 0.1"/>
    <path d="M 230.937893 -59.348351 
L 220.792503 -99.211045 
L 211.909411 -111.43055 
L 221.997884 -71.574663 
z
" clip-path="url(#pf91c83a889)" style="fill: #0000f5; fill-opacity: 0.1"/>
    <path d="M 267.973518 17.570578 
L 257.465119 -23.069849 
L 248.67111 -35.096492 
L 259.124374 5.541114 
z
" clip-path="url(#pf91c83a889)" style="fill: #0000f5; fill-opacity: 0.1"/>
    <path d="M 305.103984 94.686483 
L 294.230758 53.264485 
L 285.526313 41.431723 
L 296.346201 82.854916 
z
" clip-path="url(#pf91c83a889)" style="fill: #0000f5; fill-opacity: 0.1"/>
    <path d="M 221.997884 -71.574663 
L 211.909411 -111.43055 
L 202.977626 -123.717037 
L 213.008399 -83.868637 
z
" clip-path="url(#pf91c83a889)" style="fill: #0000f5; fill-opacity: 0.1"/>
    <path d="M 259.124374 5.541114 
L 248.67111 -35.096492 
L 239.828834 -47.189144 
L 250.226194 -6.555009 
z
" clip-path="url(#pf91c83a889)" style="fill: #0000f5; fill-opacity: 0.1"/>
    <path d="M 296.346201 82.854916 
L 285.526313 41.431723 
L 276.774031 29.533934 
L 287.539825 70.957704 
z
" clip-path="url(#pf91c83a889)" style="fill: #0000f5; fill-opacity: 0.1"/>
    <path d="M 213.008399 -83.868637 
L 202.977626 -123.717037 
L 193.996746 -136.071059 
L 203.969027 -96.230836 
z
" clip-path="url(#pf91c83a889)" style="fill: #0000f5; fill-opacity: 0.1"/>
    <path d="M 250.226194 -6.555009 
L 239.828834 -47.189144 
L 230.937893 -59.348351 
L 241.27857 -18.718346 
z
" clip-path="url(#pf91c83a889)" style="fill: #0000f5; fill-opacity: 0.1"/>
    <path d="M 287.539825 70.957704 
L 276.774031 29.533934 
L 267.973518 17.570578 
L 278.684452 58.994297 
z
" clip-path="url(#pf91c83a889)" style="fill: #0000f5; fill-opacity: 0.1"/>
    <path d="M 203.969027 -96.230836 
L 193.996746 -136.071059 
L 184.966365 -148.493174 
L 194.879352 -108.661831 
z
" clip-path="url(#pf91c83a889)" style="fill: #0000f5; fill-opacity: 0.1"/>
    <path d="M 324.949664 148.67027 
L 313.813578 106.452944 
L 305.103984 94.686483 
L 316.187049 136.907867 
z
" clip-path="url(#pf91c83a889)" style="fill: #0000f5; fill-opacity: 0.1"/>
    <path d="M 241.27857 -18.718346 
L 230.937893 -59.348351 
L 221.997884 -71.574663 
L 232.281088 -30.949458 
z
" clip-path="url(#pf91c83a889)" style="fill: #0000f5; fill-opacity: 0.1"/>
    <path d="M 278.684452 58.994297 
L 267.973518 17.570578 
L 259.124374 5.541114 
L 269.779672 46.964142 
z
" clip-path="url(#pf91c83a889)" style="fill: #0000f5; fill-opacity: 0.1"/>
    <path d="M 194.879352 -108.661831 
L 184.966365 -148.493174 
L 175.886072 -160.983946 
L 185.738952 -121.162197 
z
" clip-path="url(#pf91c83a889)" style="fill: #0000f5; fill-opacity: 0.1"/>
    <path d="M 316.187049 136.907867 
L 305.103984 94.686483 
L 296.346201 82.854916 
L 307.375481 125.079752 
z
" clip-path="url(#pf91c83a889)" style="fill: #0000f5; fill-opacity: 0.1"/>
    <path d="M 232.281088 -30.949458 
L 221.997884 -71.574663 
L 213.008399 -83.868637 
L 223.233331 -43.248915 
z
" clip-path="url(#pf91c83a889)" style="fill: #0000f5; fill-opacity: 0.1"/>
    <path d="M 269.779672 46.964142 
L 259.124374 5.541114 
L 250.226194 -6.555009 
L 260.82507 34.866679 
z
" clip-path="url(#pf91c83a889)" style="fill: #0000f5; fill-opacity: 0.1"/>
    <path d="M 185.738952 -121.162197 
L 175.886072 -160.983946 
L 166.755453 -173.543948 
L 176.547401 -133.732515 
z
" clip-path="url(#pf91c83a889)" style="fill: #0000f5; fill-opacity: 0.1"/>
    <path d="M 307.375481 125.079752 
L 296.346201 82.854916 
L 287.539825 70.957704 
L 298.514548 113.185373 
z
" clip-path="url(#pf91c83a889)" style="fill: #0000f5; fill-opacity: 0.1"/>
    <path d="M 223.233331 -43.248915 
L 213.008399 -83.868637 
L 203.969027 -96.230836 
L 214.134877 -55.61729 
z
" clip-path="url(#pf91c83a889)" style="fill: #0000f5; fill-opacity: 0.1"/>
    <path d="M 260.82507 34.866679 
L 250.226194 -6.555009 
L 241.27857 -18.718346 
L 251.820227 22.70134 
z
" clip-path="url(#pf91c83a889)" style="fill: #0000f5; fill-opacity: 0.1"/>
    <path d="M 176.547401 -133.732515 
L 166.755453 -173.543948 
L 157.574088 -186.173755 
L 167.304269 -146.373376 
z
" clip-path="url(#pf91c83a889)" style="fill: #0000f5; fill-opacity: 0.1"/>
    <path d="M 298.514548 113.185373 
L 287.539825 70.957704 
L 278.684452 58.994297 
L 289.603835 101.224172 
z
" clip-path="url(#pf91c83a889)" style="fill: #0000f5; fill-opacity: 0.1"/>
    <path d="M 214.134877 -55.61729 
L 203.969027 -96.230836 
L 194.879352 -108.661831 
L 204.985297 -68.055165 
z
" clip-path="url(#pf91c83a889)" style="fill: #0000f5; fill-opacity: 0.1"/>
    <path d="M 336.302146 191.707963 
L 324.949664 148.67027 
L 316.187049 136.907867 
L 327.486085 179.952005 
z
" clip-path="url(#pf91c83a889)" style="fill: #0000f5; fill-opacity: 0.1"/>
    <path d="M 251.820227 22.70134 
L 241.27857 -18.718346 
L 232.281088 -30.949458 
L 242.764718 10.467555 
z
" clip-path="url(#pf91c83a889)" style="fill: #0000f5; fill-opacity: 0.1"/>
    <path d="M 167.304269 -146.373376 
L 157.574088 -186.173755 
L 148.341553 -198.873951 
L 158.009121 -159.085374 
z
" clip-path="url(#pf91c83a889)" style="fill: #0000f5; fill-opacity: 0.1"/>
    <path d="M 289.603835 101.224172 
L 278.684452 58.994297 
L 269.779672 46.964142 
L 280.64292 89.195584 
z
" clip-path="url(#pf91c83a889)" style="fill: #0000f5; fill-opacity: 0.1"/>
    <path d="M 204.985297 -68.055165 
L 194.879352 -108.661831 
L 185.738952 -121.162197 
L 195.784159 -80.563126 
z
" clip-path="url(#pf91c83a889)" style="fill: #0000f5; fill-opacity: 0.1"/>
    <path d="M 327.486085 179.952005 
L 316.187049 136.907867 
L 307.375481 125.079752 
L 318.620291 168.12973 
z
" clip-path="url(#pf91c83a889)" style="fill: #0000f5; fill-opacity: 0.1"/>
    <path d="M 242.764718 10.467555 
L 232.281088 -30.949458 
L 223.233331 -43.248915 
L 233.658116 -1.835258 
z
" clip-path="url(#pf91c83a889)" style="fill: #0000f5; fill-opacity: 0.1"/>
    <path d="M 158.009121 -159.085374 
L 148.341553 -198.873951 
L 139.057419 -211.645126 
L 148.661516 -171.869112 
z
" clip-path="url(#pf91c83a889)" style="fill: #0000f5; fill-opacity: 0.1"/>
    <path d="M 280.64292 89.195584 
L 269.779672 46.964142 
L 260.82507 34.866679 
L 271.631379 77.099038 
z
" clip-path="url(#pf91c83a889)" style="fill: #0000f5; fill-opacity: 0.1"/>
    <path d="M 195.784159 -80.563126 
L 185.738952 -121.162197 
L 176.547401 -133.732515 
L 186.531028 -93.141767 
z
" clip-path="url(#pf91c83a889)" style="fill: #0000f5; fill-opacity: 0.1"/>
    <path d="M 318.620291 168.12973 
L 307.375481 125.079752 
L 298.514548 113.185373 
L 309.704341 156.240574 
z
" clip-path="url(#pf91c83a889)" style="fill: #0000f5; fill-opacity: 0.1"/>
    <path d="M 233.658116 -1.835258 
L 223.233331 -43.248915 
L 214.134877 -55.61729 
L 224.499985 -14.207683 
z
" clip-path="url(#pf91c83a889)" style="fill: #0000f5; fill-opacity: 0.1"/>
    <path d="M 148.661516 -171.869112 
L 139.057419 -211.645126 
L 129.721252 -224.487878 
L 139.261009 -184.725199 
z
" clip-path="url(#pf91c83a889)" style="fill: #0000f5; fill-opacity: 0.1"/>
    <path d="M 271.631379 77.099038 
L 260.82507 34.866679 
L 251.820227 22.70134 
L 262.568782 64.933956 
z
" clip-path="url(#pf91c83a889)" style="fill: #0000f5; fill-opacity: 0.1"/>
    <path d="M 186.531028 -93.141767 
L 176.547401 -133.732515 
L 167.304269 -146.373376 
L 177.22546 -105.791691 
z
" clip-path="url(#pf91c83a889)" style="fill: #0000f5; fill-opacity: 0.1"/>
    <path d="M 309.704341 156.240574 
L 298.514548 113.185373 
L 289.603835 101.224172 
L 300.73781 144.283969 
z
" clip-path="url(#pf91c83a889)" style="fill: #0000f5; fill-opacity: 0.1"/>
    <path d="M 224.499985 -14.207683 
L 214.134877 -55.61729 
L 204.985297 -68.055165 
L 215.289889 -26.650314 
z
" clip-path="url(#pf91c83a889)" style="fill: #0000f5; fill-opacity: 0.1"/>
    <path d="M 139.261009 -184.725199 
L 129.721252 -224.487878 
L 120.332614 -237.402808 
L 129.807149 -197.65425 
z
" clip-path="url(#pf91c83a889)" style="fill: #0000f5; fill-opacity: 0.1"/>
    <path d="M 347.877395 235.590169 
L 336.302146 191.707963 
L 327.486085 179.952005 
L 339.007468 223.843182 
z
" clip-path="url(#pf91c83a889)" style="fill: #0000f5; fill-opacity: 0.1"/>
    <path d="M 262.568782 64.933956 
L 251.820227 22.70134 
L 242.764718 10.467555 
L 253.454692 52.699754 
z
" clip-path="url(#pf91c83a889)" style="fill: #0000f5; fill-opacity: 0.1"/>
    <path d="M 177.22546 -105.791691 
L 167.304269 -146.373376 
L 158.009121 -159.085374 
L 167.867008 -118.513504 
z
" clip-path="url(#pf91c83a889)" style="fill: #0000f5; fill-opacity: 0.1"/>
    <path d="M 300.73781 144.283969 
L 289.603835 101.224172 
L 280.64292 89.195584 
L 291.720266 132.25934 
z
" clip-path="url(#pf91c83a889)" style="fill: #0000f5; fill-opacity: 0.1"/>
    <path d="M 215.289889 -26.650314 
L 204.985297 -68.055165 
L 195.784159 -80.563126 
L 206.027382 -39.163749 
z
" clip-path="url(#pf91c83a889)" style="fill: #0000f5; fill-opacity: 0.1"/>
    <path d="M 129.807149 -197.65425 
L 120.332614 -237.402808 
L 110.89106 -250.390529 
L 120.299481 -210.656889 
z
" clip-path="url(#pf91c83a889)" style="fill: #0000f5; fill-opacity: 0.1"/>
    <path d="M 339.007468 223.843182 
L 327.486085 179.952005 
L 318.620291 168.12973 
L 330.087011 212.029274 
z
" clip-path="url(#pf91c83a889)" style="fill: #0000f5; fill-opacity: 0.1"/>
    <path d="M 253.454692 52.699754 
L 242.764718 10.467555 
L 233.658116 -1.835258 
L 244.28867 40.395842 
z
" clip-path="url(#pf91c83a889)" style="fill: #0000f5; fill-opacity: 0.1"/>
    <path d="M 167.867008 -118.513504 
L 158.009121 -159.085374 
L 148.661516 -171.869112 
L 158.455221 -131.30782 
z
" clip-path="url(#pf91c83a889)" style="fill: #0000f5; fill-opacity: 0.1"/>
    <path d="M 291.720266 132.25934 
L 280.64292 89.195584 
L 271.631379 77.099038 
L 282.651271 120.166103 
z
" clip-path="url(#pf91c83a889)" style="fill: #0000f5; fill-opacity: 0.1"/>
    <path d="M 206.027382 -39.163749 
L 195.784159 -80.563126 
L 186.531028 -93.141767 
L 196.712017 -51.748595 
z
" clip-path="url(#pf91c83a889)" style="fill: #0000f5; fill-opacity: 0.1"/>
    <path d="M 330.087011 212.029274 
L 318.620291 168.12973 
L 309.704341 156.240574 
L 321.11559 200.147872 
z
" clip-path="url(#pf91c83a889)" style="fill: #0000f5; fill-opacity: 0.1"/>
    <path d="M 244.28867 40.395842 
L 233.658116 -1.835258 
L 224.499985 -14.207683 
L 235.07027 28.021621 
z
" clip-path="url(#pf91c83a889)" style="fill: #0000f5; fill-opacity: 0.1"/>
    <path d="M 158.455221 -131.30782 
L 148.661516 -171.869112 
L 139.261009 -184.725199 
L 148.989642 -144.175262 
z
" clip-path="url(#pf91c83a889)" style="fill: #0000f5; fill-opacity: 0.1"/>
    <path d="M 282.651271 120.166103 
L 271.631379 77.099038 
L 262.568782 64.933956 
L 273.530385 108.00367 
z
" clip-path="url(#pf91c83a889)" style="fill: #0000f5; fill-opacity: 0.1"/>
    <path d="M 196.712017 -51.748595 
L 186.531028 -93.141767 
L 177.22546 -105.791691 
L 187.34334 -64.405465 
z
" clip-path="url(#pf91c83a889)" style="fill: #0000f5; fill-opacity: 0.1"/>
    <path d="M 321.11559 200.147872 
L 309.704341 156.240574 
L 300.73781 144.283969 
L 312.092767 188.198396 
z
" clip-path="url(#pf91c83a889)" style="fill: #0000f5; fill-opacity: 0.1"/>
    <path d="M 235.07027 28.021621 
L 224.499985 -14.207683 
L 215.289889 -26.650314 
L 225.799043 15.576488 
z
" clip-path="url(#pf91c83a889)" style="fill: #0000f5; fill-opacity: 0.1"/>
    <path d="M 148.989642 -144.175262 
L 139.261009 -184.725199 
L 129.807149 -197.65425 
L 139.469807 -157.116458 
z
" clip-path="url(#pf91c83a889)" style="fill: #0000f5; fill-opacity: 0.1"/>
    <path d="M 359.682031 280.341992 
L 347.877395 235.590169 
L 339.007468 223.843182 
L 350.757826 268.606649 
z
" clip-path="url(#pf91c83a889)" style="fill: #0000f5; fill-opacity: 0.1"/>
    <path d="M 273.530385 108.00367 
L 262.568782 64.933956 
L 253.454692 52.699754 
L 264.35716 95.771446 
z
" clip-path="url(#pf91c83a889)" style="fill: #0000f5; fill-opacity: 0.1"/>
    <path d="M 187.34334 -64.405465 
L 177.22546 -105.791691 
L 167.867008 -118.513504 
L 177.920891 -77.134978 
z
" clip-path="url(#pf91c83a889)" style="fill: #0000f5; fill-opacity: 0.1"/>
    <path d="M 312.092767 188.198396 
L 300.73781 144.283969 
L 291.720266 132.25934 
L 303.0181 176.180259 
z
" clip-path="url(#pf91c83a889)" style="fill: #0000f5; fill-opacity: 0.1"/>
    <path d="M 225.799043 15.576488 
L 215.289889 -26.650314 
L 206.027382 -39.163749 
L 216.474534 3.059832 
z
" clip-path="url(#pf91c83a889)" style="fill: #0000f5; fill-opacity: 0.1"/>
    <path d="M 139.469807 -157.116458 
L 129.807149 -197.65425 
L 120.299481 -210.656889 
L 129.89525 -170.132044 
z
" clip-path="url(#pf91c83a889)" style="fill: #0000f5; fill-opacity: 0.1"/>
    <path d="M 350.757826 268.606649 
L 339.007468 223.843182 
L 330.087011 212.029274 
L 341.782275 256.803785 
z
" clip-path="url(#pf91c83a889)" style="fill: #0000f5; fill-opacity: 0.1"/>
    <path d="M 264.35716 95.771446 
L 253.454692 52.699754 
L 244.28867 40.395842 
L 255.131146 83.468827 
z
" clip-path="url(#pf91c83a889)" style="fill: #0000f5; fill-opacity: 0.1"/>
    <path d="M 177.920891 -77.134978 
L 167.867008 -118.513504 
L 158.455221 -131.30782 
L 168.444207 -89.937763 
z
" clip-path="url(#pf91c83a889)" style="fill: #0000f5; fill-opacity: 0.1"/>
    <path d="M 303.0181 176.180259 
L 291.720266 132.25934 
L 282.651271 120.166103 
L 293.89114 164.092867 
z
" clip-path="url(#pf91c83a889)" style="fill: #0000f5; fill-opacity: 0.1"/>
    <path d="M 216.474534 3.059832 
L 206.027382 -39.163749 
L 196.712017 -51.748595 
L 207.09628 -9.528967 
z
" clip-path="url(#pf91c83a889)" style="fill: #0000f5; fill-opacity: 0.1"/>
    <path d="M 341.782275 256.803785 
L 330.087011 212.029274 
L 321.11559 200.147872 
L 332.754933 244.932816 
z
" clip-path="url(#pf91c83a889)" style="fill: #0000f5; fill-opacity: 0.1"/>
    <path d="M 255.131146 83.468827 
L 244.28867 40.395842 
L 235.07027 28.021621 
L 245.851884 71.095206 
z
" clip-path="url(#pf91c83a889)" style="fill: #0000f5; fill-opacity: 0.1"/>
    <path d="M 168.444207 -89.937763 
L 158.455221 -131.30782 
L 148.989642 -144.175262 
L 158.912818 -102.814452 
z
" clip-path="url(#pf91c83a889)" style="fill: #0000f5; fill-opacity: 0.1"/>
    <path d="M 293.89114 164.092867 
L 282.651271 120.166103 
L 273.530385 108.00367 
L 284.711435 151.935621 
z
" clip-path="url(#pf91c83a889)" style="fill: #0000f5; fill-opacity: 0.1"/>
    <path d="M 207.09628 -9.528967 
L 196.712017 -51.748595 
L 187.34334 -64.405465 
L 197.663817 -22.190533 
z
" clip-path="url(#pf91c83a889)" style="fill: #0000f5; fill-opacity: 0.1"/>
    <path d="M 332.754933 244.932816 
L 321.11559 200.147872 
L 312.092767 188.198396 
L 323.675351 232.99315 
z
" clip-path="url(#pf91c83a889)" style="fill: #0000f5; fill-opacity: 0.1"/>
    <path d="M 245.851884 71.095206 
L 235.07027 28.021621 
L 225.799043 15.576488 
L 236.518913 58.649964 
z
" clip-path="url(#pf91c83a889)" style="fill: #0000f5; fill-opacity: 0.1"/>
    <path d="M 158.912818 -102.814452 
L 148.989642 -144.175262 
L 139.469807 -157.116458 
L 149.326248 -115.765689 
z
" clip-path="url(#pf91c83a889)" style="fill: #0000f5; fill-opacity: 0.1"/>
    <path d="M 371.722941 325.989541 
L 359.682031 280.341992 
L 350.757826 268.606649 
L 362.744054 314.26867 
z
" clip-path="url(#pf91c83a889)" style="fill: #0000f5; fill-opacity: 0.1"/>
    <path d="M 284.711435 151.935621 
L 273.530385 108.00367 
L 264.35716 95.771446 
L 275.478524 139.707912 
z
" clip-path="url(#pf91c83a889)" style="fill: #0000f5; fill-opacity: 0.1"/>
    <path d="M 197.663817 -22.190533 
L 187.34334 -64.405465 
L 177.920891 -77.134978 
L 188.176674 -34.9255 
z
" clip-path="url(#pf91c83a889)" style="fill: #0000f5; fill-opacity: 0.1"/>
    <path d="M 323.675351 232.99315 
L 312.092767 188.198396 
L 303.0181 176.180259 
L 314.543073 220.984191 
z
" clip-path="url(#pf91c83a889)" style="fill: #0000f5; fill-opacity: 0.1"/>
    <path d="M 236.518913 58.649964 
L 225.799043 15.576488 
L 216.474534 3.059832 
L 227.131765 46.132479 
z
" clip-path="url(#pf91c83a889)" style="fill: #0000f5; fill-opacity: 0.1"/>
    <path d="M 149.326248 -115.765689 
L 139.469807 -157.116458 
L 129.89525 -170.132044 
L 139.684018 -128.792123 
z
" clip-path="url(#pf91c83a889)" style="fill: #0000f5; fill-opacity: 0.1"/>
    <path d="M 362.744054 314.26867 
L 350.757826 268.606649 
L 341.782275 256.803785 
L 353.712985 302.479683 
z
" clip-path="url(#pf91c83a889)" style="fill: #0000f5; fill-opacity: 0.1"/>
    <path d="M 275.478524 139.707912 
L 264.35716 95.771446 
L 255.131146 83.468827 
L 266.191945 127.409127 
z
" clip-path="url(#pf91c83a889)" style="fill: #0000f5; fill-opacity: 0.1"/>
    <path d="M 188.176674 -34.9255 
L 177.920891 -77.134978 
L 168.444207 -89.937763 
L 178.634372 -47.734507 
z
" clip-path="url(#pf91c83a889)" style="fill: #0000f5; fill-opacity: 0.1"/>
    <path d="M 314.543073 220.984191 
L 303.0181 176.180259 
L 293.89114 164.092867 
L 305.357641 208.905332 
z
" clip-path="url(#pf91c83a889)" style="fill: #0000f5; fill-opacity: 0.1"/>
    <path d="M 227.131765 46.132479 
L 216.474534 3.059832 
L 207.09628 -9.528967 
L 217.689966 33.542119 
z
" clip-path="url(#pf91c83a889)" style="fill: #0000f5; fill-opacity: 0.1"/>
    <path d="M 353.712985 302.479683 
L 341.782275 256.803785 
L 332.754933 244.932816 
L 344.629279 290.621985 
z
" clip-path="url(#pf91c83a889)" style="fill: #0000f5; fill-opacity: 0.1"/>
    <path d="M 266.191945 127.409127 
L 255.131146 83.468827 
L 245.851884 71.095206 
L 256.851228 115.038644 
z
" clip-path="url(#pf91c83a889)" style="fill: #0000f5; fill-opacity: 0.1"/>
    <path d="M 178.634372 -47.734507 
L 168.444207 -89.937763 
L 158.912818 -102.814452 
L 169.03643 -60.618202 
z
" clip-path="url(#pf91c83a889)" style="fill: #0000f5; fill-opacity: 0.1"/>
    <path d="M 305.357641 208.905332 
L 293.89114 164.092867 
L 284.711435 151.935621 
L 296.118587 196.755962 
z
" clip-path="url(#pf91c83a889)" style="fill: #0000f5; fill-opacity: 0.1"/>
    <path d="M 217.689966 33.542119 
L 207.09628 -9.528967 
L 197.663817 -22.190533 
L 208.193039 20.878247 
z
" clip-path="url(#pf91c83a889)" style="fill: #0000f5; fill-opacity: 0.1"/>
    <path d="M 344.629279 290.621985 
L 332.754933 244.932816 
L 323.675351 232.99315 
L 335.492475 278.694972 
z
" clip-path="url(#pf91c83a889)" style="fill: #0000f5; fill-opacity: 0.1"/>
    <path d="M 256.851228 115.038644 
L 245.851884 71.095206 
L 236.518913 58.649964 
L 247.455899 102.595834 
z
" clip-path="url(#pf91c83a889)" style="fill: #0000f5; fill-opacity: 0.1"/>
    <path d="M 169.03643 -60.618202 
L 158.912818 -102.814452 
L 149.326248 -115.765689 
L 159.38236 -73.577241 
z
" clip-path="url(#pf91c83a889)" style="fill: #0000f5; fill-opacity: 0.1"/>
    <path d="M 384.007292 372.55998 
L 371.722941 325.989541 
L 362.744054 314.26867 
L 374.973325 360.856576 
z
" clip-path="url(#pf91c83a889)" style="fill: #0000f5; fill-opacity: 0.1"/>
    <path d="M 296.118587 196.755962 
L 284.711435 151.935621 
L 275.478524 139.707912 
L 286.825442 184.535462 
z
" clip-path="url(#pf91c83a889)" style="fill: #0000f5; fill-opacity: 0.1"/>
    <path d="M 208.193039 20.878247 
L 197.663817 -22.190533 
L 188.176674 -34.9255 
L 198.640499 8.140216 
z
" clip-path="url(#pf91c83a889)" style="fill: #0000f5; fill-opacity: 0.1"/>
    <path d="M 335.492475 278.694972 
L 323.675351 232.99315 
L 314.543073 220.984191 
L 326.302104 266.698035 
z
" clip-path="url(#pf91c83a889)" style="fill: #0000f5; fill-opacity: 0.1"/>
    <path d="M 247.455899 102.595834 
L 236.518913 58.649964 
L 227.131765 46.132479 
L 238.005477 90.080061 
z
" clip-path="url(#pf91c83a889)" style="fill: #0000f5; fill-opacity: 0.1"/>
    <path d="M 159.38236 -73.577241 
L 149.326248 -115.765689 
L 139.684018 -128.792123 
L 149.671668 -86.612286 
z
" clip-path="url(#pf91c83a889)" style="fill: #0000f5; fill-opacity: 0.1"/>
    <path d="M 374.973325 360.856576 
L 362.744054 314.26867 
L 353.712985 302.479683 
L 365.886323 349.084466 
z
" clip-path="url(#pf91c83a889)" style="fill: #0000f5; fill-opacity: 0.1"/>
    <path d="M 286.825442 184.535462 
L 275.478524 139.707912 
L 266.191945 127.409127 
L 277.477729 172.243204 
z
" clip-path="url(#pf91c83a889)" style="fill: #0000f5; fill-opacity: 0.1"/>
    <path d="M 198.640499 8.140216 
L 188.176674 -34.9255 
L 178.634372 -47.734507 
L 189.031856 -4.672626 
z
" clip-path="url(#pf91c83a889)" style="fill: #0000f5; fill-opacity: 0.1"/>
    <path d="M 326.302104 266.698035 
L 314.543073 220.984191 
L 305.357641 208.905332 
L 317.057696 254.630559 
z
" clip-path="url(#pf91c83a889)" style="fill: #0000f5; fill-opacity: 0.1"/>
    <path d="M 238.005477 90.080061 
L 227.131765 46.132479 
L 217.689966 33.542119 
L 228.499475 77.490682 
z
" clip-path="url(#pf91c83a889)" style="fill: #0000f5; fill-opacity: 0.1"/>
    <path d="M 365.886323 349.084466 
L 353.712985 302.479683 
L 344.629279 290.621985 
L 356.745818 337.243043 
z
" clip-path="url(#pf91c83a889)" style="fill: #0000f5; fill-opacity: 0.1"/>
    <path d="M 277.477729 172.243204 
L 266.191945 127.409127 
L 256.851228 115.038644 
L 268.074966 159.878556 
z
" clip-path="url(#pf91c83a889)" style="fill: #0000f5; fill-opacity: 0.1"/>
    <path d="M 189.031856 -4.672626 
L 178.634372 -47.734507 
L 169.03643 -60.618202 
L 179.366614 -17.560941 
z
" clip-path="url(#pf91c83a889)" style="fill: #0000f5; fill-opacity: 0.1"/>
    <path d="M 317.057696 254.630559 
L 305.357641 208.905332 
L 296.118587 196.755962 
L 307.758771 242.491917 
z
" clip-path="url(#pf91c83a889)" style="fill: #0000f5; fill-opacity: 0.1"/>
    <path d="M 228.499475 77.490682 
L 217.689966 33.542119 
L 208.193039 20.878247 
L 218.937403 64.827044 
z
" clip-path="url(#pf91c83a889)" style="fill: #0000f5; fill-opacity: 0.1"/>
    <path d="M 356.745818 337.243043 
L 344.629279 290.621985 
L 335.492475 278.694972 
L 347.551336 325.331693 
z
" clip-path="url(#pf91c83a889)" style="fill: #0000f5; fill-opacity: 0.1"/>
    <path d="M 268.074966 159.878556 
L 256.851228 115.038644 
L 247.455899 102.595834 
L 258.616665 147.440875 
z
" clip-path="url(#pf91c83a889)" style="fill: #0000f5; fill-opacity: 0.1"/>
    <path d="M 179.366614 -17.560941 
L 169.03643 -60.618202 
L 159.38236 -73.577241 
L 169.644272 -30.525398 
z
" clip-path="url(#pf91c83a889)" style="fill: #0000f5; fill-opacity: 0.1"/>
    <path d="M 307.758771 242.491917 
L 296.118587 196.755962 
L 286.825442 184.535462 
L 298.404847 230.28148 
z
" clip-path="url(#pf91c83a889)" style="fill: #0000f5; fill-opacity: 0.1"/>
    <path d="M 218.937403 64.827044 
L 208.193039 20.878247 
L 198.640499 8.140216 
L 209.318763 52.08849 
z
" clip-path="url(#pf91c83a889)" style="fill: #0000f5; fill-opacity: 0.1"/>
    <path d="M 347.551336 325.331693 
L 335.492475 278.694972 
L 326.302104 266.698035 
L 338.302397 313.349795 
z
" clip-path="url(#pf91c83a889)" style="fill: #0000f5; fill-opacity: 0.1"/>
    <path d="M 258.616665 147.440875 
L 247.455899 102.595834 
L 238.005477 90.080061 
L 249.102333 134.929513 
z
" clip-path="url(#pf91c83a889)" style="fill: #0000f5; fill-opacity: 0.1"/>
    <path d="M 169.644272 -30.525398 
L 159.38236 -73.577241 
L 149.671668 -86.612286 
L 159.864322 -43.566672 
z
" clip-path="url(#pf91c83a889)" style="fill: #0000f5; fill-opacity: 0.1"/>
    <path d="M 298.404847 230.28148 
L 286.825442 184.535462 
L 277.477729 172.243204 
L 288.995433 217.998609 
z
" clip-path="url(#pf91c83a889)" style="fill: #0000f5; fill-opacity: 0.1"/>
    <path d="M 209.318763 52.08849 
L 198.640499 8.140216 
L 189.031856 -4.672626 
L 199.643051 39.274352 
z
" clip-path="url(#pf91c83a889)" style="fill: #0000f5; fill-opacity: 0.1"/>
    <path d="M 338.302397 313.349795 
L 326.302104 266.698035 
L 317.057696 254.630559 
L 328.998515 301.29672 
z
" clip-path="url(#pf91c83a889)" style="fill: #0000f5; fill-opacity: 0.1"/>
    <path d="M 249.102333 134.929513 
L 238.005477 90.080061 
L 228.499475 77.490682 
L 239.53147 122.343813 
z
" clip-path="url(#pf91c83a889)" style="fill: #0000f5; fill-opacity: 0.1"/>
    <path d="M 288.995433 217.998609 
L 277.477729 172.243204 
L 268.074966 159.878556 
L 279.530034 205.642656 
z
" clip-path="url(#pf91c83a889)" style="fill: #0000f5; fill-opacity: 0.1"/>
    <path d="M 199.643051 39.274352 
L 189.031856 -4.672626 
L 179.366614 -17.560941 
L 189.909757 26.383956 
z
" clip-path="url(#pf91c83a889)" style="fill: #0000f5; fill-opacity: 0.1"/>
    <path d="M 328.998515 301.29672 
L 317.057696 254.630559 
L 307.758771 242.491917 
L 319.639201 289.171832 
z
" clip-path="url(#pf91c83a889)" style="fill: #0000f5; fill-opacity: 0.1"/>
    <path d="M 239.53147 122.343813 
L 228.499475 77.490682 
L 218.937403 64.827044 
L 229.903571 109.68311 
z
" clip-path="url(#pf91c83a889)" style="fill: #0000f5; fill-opacity: 0.1"/>
    <path d="M 279.530034 205.642656 
L 268.074966 159.878556 
L 258.616665 147.440875 
L 270.008151 193.212968 
z
" clip-path="url(#pf91c83a889)" style="fill: #0000f5; fill-opacity: 0.1"/>
    <path d="M 189.909757 26.383956 
L 179.366614 -17.560941 
L 169.644272 -30.525398 
L 180.118367 13.416619 
z
" clip-path="url(#pf91c83a889)" style="fill: #0000f5; fill-opacity: 0.1"/>
    <path d="M 319.639201 289.171832 
L 307.758771 242.491917 
L 298.404847 230.28148 
L 310.223956 276.974487 
z
" clip-path="url(#pf91c83a889)" style="fill: #0000f5; fill-opacity: 0.1"/>
    <path d="M 229.903571 109.68311 
L 218.937403 64.827044 
L 209.318763 52.08849 
L 220.218125 96.946733 
z
" clip-path="url(#pf91c83a889)" style="fill: #0000f5; fill-opacity: 0.1"/>
    <path d="M 270.008151 193.212968 
L 258.616665 147.440875 
L 249.102333 134.929513 
L 260.429274 180.708882 
z
" clip-path="url(#pf91c83a889)" style="fill: #0000f5; fill-opacity: 0.1"/>
    <path d="M 180.118367 13.416619 
L 169.644272 -30.525398 
L 159.864322 -43.566672 
L 170.268359 0.371649 
z
" clip-path="url(#pf91c83a889)" style="fill: #0000f5; fill-opacity: 0.1"/>
    <path d="M 310.223956 276.974487 
L 298.404847 230.28148 
L 288.995433 217.998609 
L 300.752279 264.704034 
z
" clip-path="url(#pf91c83a889)" style="fill: #0000f5; fill-opacity: 0.1"/>
    <path d="M 220.218125 96.946733 
L 209.318763 52.08849 
L 199.643051 39.274352 
L 210.474614 84.134 
z
" clip-path="url(#pf91c83a889)" style="fill: #0000f5; fill-opacity: 0.1"/>
    <path d="M 260.429274 180.708882 
L 249.102333 134.929513 
L 239.53147 122.343813 
L 250.792891 168.12973 
z
" clip-path="url(#pf91c83a889)" style="fill: #0000f5; fill-opacity: 0.1"/>
    <path d="M 300.752279 264.704034 
L 288.995433 217.998609 
L 279.530034 205.642656 
L 291.22366 252.359814 
z
" clip-path="url(#pf91c83a889)" style="fill: #0000f5; fill-opacity: 0.1"/>
    <path d="M 210.474614 84.134 
L 199.643051 39.274352 
L 189.909757 26.383956 
L 200.672514 71.244223 
z
" clip-path="url(#pf91c83a889)" style="fill: #0000f5; fill-opacity: 0.1"/>
    <path d="M 250.792891 168.12973 
L 239.53147 122.343813 
L 229.903571 109.68311 
L 241.098483 155.474832 
z
" clip-path="url(#pf91c83a889)" style="fill: #0000f5; fill-opacity: 0.1"/>
    <path d="M 291.22366 252.359814 
L 279.530034 205.642656 
L 270.008151 193.212968 
L 281.637584 239.941159 
z
" clip-path="url(#pf91c83a889)" style="fill: #0000f5; fill-opacity: 0.1"/>
    <path d="M 200.672514 71.244223 
L 189.909757 26.383956 
L 180.118367 13.416619 
L 190.811295 58.276705 
z
" clip-path="url(#pf91c83a889)" style="fill: #0000f5; fill-opacity: 0.1"/>
    <path d="M 241.098483 155.474832 
L 229.903571 109.68311 
L 220.218125 96.946733 
L 231.345524 142.743503 
z
" clip-path="url(#pf91c83a889)" style="fill: #0000f5; fill-opacity: 0.1"/>
    <path d="M 281.637584 239.941159 
L 270.008151 193.212968 
L 260.429274 180.708882 
L 271.99353 227.447394 
z
" clip-path="url(#pf91c83a889)" style="fill: #0000f5; fill-opacity: 0.1"/>
    <path d="M 190.811295 58.276705 
L 180.118367 13.416619 
L 170.268359 0.371649 
L 180.890422 45.230741 
z
" clip-path="url(#pf91c83a889)" style="fill: #0000f5; fill-opacity: 0.1"/>
    <path d="M 231.345524 142.743503 
L 220.218125 96.946733 
L 210.474614 84.134 
L 221.533481 129.935047 
z
" clip-path="url(#pf91c83a889)" style="fill: #0000f5; fill-opacity: 0.1"/>
    <path d="M 271.99353 227.447394 
L 260.429274 180.708882 
L 250.792891 168.12973 
L 262.290971 214.877836 
z
" clip-path="url(#pf91c83a889)" style="fill: #0000f5; fill-opacity: 0.1"/>
    <path d="M 221.533481 129.935047 
L 210.474614 84.134 
L 200.672514 71.244223 
L 211.661818 117.048763 
z
" clip-path="url(#pf91c83a889)" style="fill: #0000f5; fill-opacity: 0.1"/>
    <path d="M 262.290971 214.877836 
L 250.792891 168.12973 
L 241.098483 155.474832 
L 252.529371 202.231793 
z
" clip-path="url(#pf91c83a889)" style="fill: #0000f5; fill-opacity: 0.1"/>
    <path d="M 211.661818 117.048763 
L 200.672514 71.244223 
L 190.811295 58.276705 
L 201.729987 104.083938 
z
" clip-path="url(#pf91c83a889)" style="fill: #0000f5; fill-opacity: 0.1"/>
    <path d="M 252.529371 202.231793 
L 241.098483 155.474832 
L 231.345524 142.743503 
L 242.708192 189.508564 
z
" clip-path="url(#pf91c83a889)" style="fill: #0000f5; fill-opacity: 0.1"/>
    <path d="M 201.729987 104.083938 
L 190.811295 58.276705 
L 180.890422 45.230741 
L 191.737438 91.039852 
z
" clip-path="url(#pf91c83a889)" style="fill: #0000f5; fill-opacity: 0.1"/>
    <path d="M 242.708192 189.508564 
L 231.345524 142.743503 
L 221.533481 129.935047 
L 232.826885 176.70744 
z
" clip-path="url(#pf91c83a889)" style="fill: #0000f5; fill-opacity: 0.1"/>
    <path d="M 232.826885 176.70744 
L 221.533481 129.935047 
L 211.661818 117.048763 
L 222.884897 163.827705 
z
" clip-path="url(#pf91c83a889)" style="fill: #0000f5; fill-opacity: 0.1"/>
    <path d="M 222.884897 163.827705 
L 211.661818 117.048763 
L 201.729987 104.083938 
L 212.881668 150.868632 
z
" clip-path="url(#pf91c83a889)" style="fill: #0000f5; fill-opacity: 0.1"/>
    <path d="M 212.881668 150.868632 
L 201.729987 104.083938 
L 191.737438 91.039852 
L 202.816629 137.829486 
z
" clip-path="url(#pf91c83a889)" style="fill: #0000f5; fill-opacity: 0.1"/>
   </g>
   <g id="legend_1">
    <g id="patch_6">
     <path d="M 357.840076 67.305115 
L 396.2 67.305115 
Q 398.2 67.305115 398.2 65.305115 
L 398.2 7 
Q 398.2 5 396.2 5 
L 357.840076 5 
Q 355.840076 5 355.840076 7 
L 355.840076 65.305115 
Q 355.840076 67.305115 357.840076 67.305115 
z
" style="fill: #ffffff; opacity: 0.8; stroke: #cccccc; stroke-linejoin: miter"/>
    </g>
    <g id="line2d_25">
     <path d="M 359.840076 12.5 
L 369.840076 12.5 
L 379.840076 12.5 
" style="fill: none; stroke: #ff0000; stroke-width: 1.5; stroke-linecap: square"/>
    </g>
    <g id="text_21">
     <!-- $\vec{a}$ -->
     <g transform="translate(387.840076 16)scale(0.1 -0.1)">
      <defs>
       <path id="CMMI12-7e" d="M 3424 3835 
C 3347 3764 3110 3540 3110 3451 
C 3110 3387 3168 3329 3232 3329 
C 3290 3329 3315 3368 3360 3432 
C 3514 3624 3686 3745 3834 3828 
C 3898 3867 3942 3886 3942 3956 
C 3942 4014 3891 4046 3853 4078 
C 3674 4200 3629 4372 3610 4449 
C 3590 4500 3571 4577 3482 4577 
C 3443 4577 3366 4552 3366 4456 
C 3366 4398 3405 4244 3526 4072 
L 1376 4072 
C 1267 4072 1158 4072 1158 3950 
C 1158 3835 1274 3835 1376 3835 
L 3424 3835 
z
" transform="scale(0.015625)"/>
       <path id="CMMI12-61" d="M 1926 760 
C 1894 651 1894 639 1805 517 
C 1664 338 1382 64 1082 64 
C 819 64 672 300 672 677 
C 672 1028 870 1743 992 2012 
C 1210 2459 1510 2689 1760 2689 
C 2182 2689 2266 2165 2266 2114 
C 2266 2108 2246 2024 2240 2012 
L 1926 760 
z
M 2336 2395 
C 2266 2561 2093 2816 1760 2816 
C 1037 2816 256 1884 256 939 
C 256 307 627 -64 1062 -64 
C 1414 -64 1715 211 1894 422 
C 1958 45 2259 -64 2451 -64 
C 2643 -64 2797 51 2912 281 
C 3014 498 3104 888 3104 913 
C 3104 945 3078 971 3040 971 
C 2982 971 2976 939 2950 843 
C 2854 466 2733 64 2470 64 
C 2285 64 2272 230 2272 358 
C 2272 505 2291 575 2349 824 
C 2394 984 2426 1124 2477 1309 
C 2714 2267 2771 2497 2771 2535 
C 2771 2625 2701 2695 2605 2695 
C 2400 2695 2349 2472 2336 2395 
z
" transform="scale(0.015625)"/>
      </defs>
      <use xlink:href="#CMMI12-7e" transform="scale(0.996264)"/>
      <use xlink:href="#CMMI12-61" transform="translate(6.445738 0)scale(0.996264)"/>
     </g>
    </g>
    <g id="line2d_26">
     <path d="M 359.840076 27.24679 
L 369.840076 27.24679 
L 379.840076 27.24679 
" style="fill: none; stroke: #00ff00; stroke-width: 1.5; stroke-linecap: square"/>
    </g>
    <g id="text_22">
     <!-- $\vec{b}$ -->
     <g transform="translate(387.840076 30.74679)scale(0.1 -0.1)">
      <defs>
       <path id="CMMI12-62" d="M 1478 4257 
C 1485 4283 1498 4321 1498 4352 
C 1498 4416 1434 4416 1421 4416 
C 1414 4416 1184 4393 1069 4377 
C 960 4377 864 4358 749 4358 
C 595 4345 550 4339 550 4224 
C 550 4160 614 4160 678 4160 
C 1005 4160 1005 4103 1005 4040 
C 1005 3996 954 3811 928 3696 
L 774 3085 
C 710 2831 346 1387 320 1272 
C 288 1114 288 1005 288 922 
C 288 274 653 -64 1069 -64 
C 1811 -64 2579 888 2579 1814 
C 2579 2401 2246 2816 1766 2816 
C 1434 2816 1133 2542 1011 2414 
L 1478 4257 
z
M 1075 64 
C 870 64 646 217 646 715 
C 646 926 666 1047 781 1494 
C 800 1577 902 1986 928 2069 
C 941 2120 1318 2689 1754 2689 
C 2035 2689 2163 2408 2163 2076 
C 2163 1769 1984 1047 1824 715 
C 1664 370 1370 64 1075 64 
z
" transform="scale(0.015625)"/>
      </defs>
      <use xlink:href="#CMMI12-7e" transform="translate(0 26.29016)scale(0.996264)"/>
      <use xlink:href="#CMMI12-62" transform="translate(11.311737 0)scale(0.996264)"/>
     </g>
    </g>
    <g id="line2d_27">
     <path d="M 359.840076 41.183968 
L 369.840076 41.183968 
L 379.840076 41.183968 
" style="fill: none; stroke: #0016ff; stroke-width: 1.5; stroke-linecap: square"/>
    </g>
    <g id="text_23">
     <!-- $\vec{c}$ -->
     <g transform="translate(387.840076 44.683968)scale(0.1 -0.1)">
      <defs>
       <path id="CMMI12-63" d="M 2502 2431 
C 2381 2431 2323 2431 2234 2355 
C 2195 2323 2125 2227 2125 2125 
C 2125 1997 2221 1920 2342 1920 
C 2496 1920 2669 2044 2669 2292 
C 2669 2588 2374 2816 1933 2816 
C 1094 2816 256 1903 256 996 
C 256 441 602 -64 1254 -64 
C 2125 -64 2675 622 2675 706 
C 2675 744 2637 776 2611 776 
C 2592 776 2586 770 2528 713 
C 2118 162 1510 64 1267 64 
C 826 64 685 446 685 764 
C 685 988 794 1605 1024 2039 
C 1190 2338 1536 2682 1939 2682 
C 2022 2682 2374 2682 2502 2431 
z
" transform="scale(0.015625)"/>
      </defs>
      <use xlink:href="#CMMI12-7e" transform="scale(0.996264)"/>
      <use xlink:href="#CMMI12-63" transform="translate(5.638615 0)scale(0.996264)"/>
     </g>
    </g>
    <g id="line2d_28">
     <path d="M 359.840076 57.867937 
L 369.840076 57.867937 
L 379.840076 57.867937 
" style="fill: none; stroke: #f400ff; stroke-width: 1.5; stroke-linecap: square"/>
    </g>
    <g id="text_24">
     <!-- $\vec{f}$ -->
     <g transform="translate(387.840076 61.367937)scale(0.1 -0.1)">
      <defs>
       <path id="CMMI12-66" d="M 2854 2566 
C 2982 2566 3034 2566 3034 2688 
C 3034 2752 2982 2752 2867 2752 
L 2349 2752 
C 2470 3429 2560 3897 2611 4107 
C 2650 4265 2784 4416 2950 4416 
C 3085 4416 3219 4358 3283 4298 
C 3034 4272 2957 4082 2957 3969 
C 2957 3837 3053 3759 3174 3759 
C 3302 3759 3494 3870 3494 4119 
C 3494 4393 3226 4544 2944 4544 
C 2669 4544 2400 4334 2272 4078 
C 2157 3848 2093 3611 1946 2752 
L 1517 2752 
C 1395 2752 1331 2752 1331 2637 
C 1331 2566 1370 2566 1498 2566 
L 1907 2566 
C 1792 1976 1530 542 1382 -137 
C 1274 -689 1178 -1152 858 -1152 
C 838 -1152 653 -1152 538 -1031 
C 864 -1005 864 -726 864 -720 
C 864 -593 768 -517 646 -517 
C 518 -517 326 -625 326 -867 
C 326 -1140 608 -1280 858 -1280 
C 1510 -1280 1779 -118 1850 199 
C 1965 688 2278 2376 2310 2566 
L 2854 2566 
z
" transform="scale(0.015625)"/>
      </defs>
      <use xlink:href="#CMMI12-7e" transform="translate(13.568792 26.29016)scale(0.996264)"/>
      <use xlink:href="#CMMI12-66" transform="scale(0.996264)"/>
     </g>
    </g>
   </g>
  </g>
 </g>
 <defs>
  <clipPath id="pf91c83a889">
   <rect x="57.6" y="0" width="345.6" height="345.6"/>
  </clipPath>
 </defs>
</svg>
