<?xml version="1.0" encoding="utf-8" standalone="no"?>
<!DOCTYPE svg PUBLIC "-//W3C//DTD SVG 1.1//EN"
  "http://www.w3.org/Graphics/SVG/1.1/DTD/svg11.dtd">
<svg xmlns:xlink="http://www.w3.org/1999/xlink" width="460.8pt" height="345.6pt" viewBox="0 0 460.8 345.6" xmlns="http://www.w3.org/2000/svg" version="1.1">
 <metadata>
  <rdf:RDF xmlns:dc="http://purl.org/dc/elements/1.1/" xmlns:cc="http://creativecommons.org/ns#" xmlns:rdf="http://www.w3.org/1999/02/22-rdf-syntax-ns#">
   <cc:Work>
    <dc:type rdf:resource="http://purl.org/dc/dcmitype/StillImage"/>
    <dc:date>2022-07-12T15:51:01.035794</dc:date>
    <dc:format>image/svg+xml</dc:format>
    <dc:creator>
     <cc:Agent>
      <dc:title>Matplotlib v3.5.1, https://matplotlib.org/</dc:title>
     </cc:Agent>
    </dc:creator>
   </cc:Work>
  </rdf:RDF>
 </metadata>
 <defs>
  <style type="text/css">*{stroke-linejoin: round; stroke-linecap: butt}</style>
 </defs>
 <g id="figure_1">
  <g id="patch_1">
   <path d="M 0 345.6 
L 460.8 345.6 
L 460.8 0 
L 0 0 
z
" style="fill: #ffffff"/>
  </g>
  <g id="patch_2">
   <path d="M 57.6 345.6 
L 403.2 345.6 
L 403.2 0 
L 57.6 0 
z
" style="fill: #ffffff"/>
  </g>
  <g id="pane3d_1">
   <g id="patch_3">
    <path d="M 277.62206 245.313992 
L 88.297754 249.524161 
L 88.297754 86.735299 
L 277.62206 90.945467 
" style="fill: #f2f2f2; opacity: 0.5; stroke: #f2f2f2; stroke-linejoin: miter"/>
   </g>
  </g>
  <g id="pane3d_2">
   <g id="patch_4">
    <path d="M 389.249717 253.631761 
L 277.62206 245.313992 
L 277.62206 90.945467 
L 389.249717 82.627698 
" style="fill: #e6e6e6; opacity: 0.5; stroke: #e6e6e6; stroke-linejoin: miter"/>
   </g>
  </g>
  <g id="pane3d_3">
   <g id="patch_5">
    <path d="M 389.249717 253.631761 
L 277.62206 245.313992 
L 88.297754 249.524161 
L 185.067753 258.828791 
" style="fill: #ececec; opacity: 0.5; stroke: #ececec; stroke-linejoin: miter"/>
   </g>
  </g>
  <g id="axis3d_1">
   <g id="line2d_1">
    <path d="M 88.297754 249.524161 
L 185.067753 258.828791 
" style="fill: none; stroke: #000000; stroke-width: 0.8; stroke-linecap: square"/>
   </g>
   <g id="text_1">
    <!-- x -->
    <g transform="translate(101.401342 282.62448)scale(0.16 -0.16)">
     <defs>
      <path id="CMSS17-78" d="M 1587 1414 
L 2656 2739 
L 2099 2739 
L 1363 1777 
L 602 2739 
L 32 2739 
L 1139 1414 
L 0 0 
L 563 0 
L 1363 1121 
L 2195 0 
L 2758 0 
L 1587 1414 
z
" transform="scale(0.015625)"/>
     </defs>
     <use xlink:href="#CMSS17-78" transform="scale(0.996264)"/>
    </g>
   </g>
   <g id="Line3DCollection_1">
    <path d="M 182.916027 258.621898 
L 386.781891 253.447875 
L 386.781891 82.811585 
" style="fill: none; stroke: #b0b0b0; stroke-width: 0.8"/>
    <path d="M 162.748218 256.682723 
L 363.619929 251.721995 
L 363.619929 84.537464 
" style="fill: none; stroke: #b0b0b0; stroke-width: 0.8"/>
    <path d="M 143.426635 254.824914 
L 341.376462 250.064557 
L 341.376462 86.194903 
" style="fill: none; stroke: #b0b0b0; stroke-width: 0.8"/>
    <path d="M 124.899112 253.043455 
L 319.997917 248.471566 
L 319.997917 87.787893 
" style="fill: none; stroke: #b0b0b0; stroke-width: 0.8"/>
    <path d="M 107.117685 251.333735 
L 299.434809 246.939337 
L 299.434809 89.320123 
" style="fill: none; stroke: #b0b0b0; stroke-width: 0.8"/>
    <path d="M 90.038176 249.691506 
L 279.641356 245.464457 
L 279.641356 90.795002 
" style="fill: none; stroke: #b0b0b0; stroke-width: 0.8"/>
   </g>
   <g id="xtick_1">
    <g id="line2d_2">
     <path d="M 184.645021 258.578017 
L 179.453001 258.709788 
" style="fill: none; stroke: #000000; stroke-width: 0.8; stroke-linecap: square"/>
    </g>
    <g id="text_2">
     <!-- $\mathdefault{0}$ -->
     <g transform="translate(166.556991 277.500232)scale(0.1 -0.1)">
      <defs>
       <path id="CMR17-30" d="M 2688 2025 
C 2688 2416 2682 3080 2413 3591 
C 2176 4039 1798 4198 1466 4198 
C 1158 4198 768 4058 525 3597 
C 269 3118 243 2524 243 2025 
C 243 1661 250 1106 448 619 
C 723 -39 1216 -128 1466 -128 
C 1760 -128 2208 -7 2470 600 
C 2662 1042 2688 1559 2688 2025 
z
M 1466 -26 
C 1056 -26 813 325 723 812 
C 653 1188 653 1738 653 2096 
C 653 2588 653 2997 736 3387 
C 858 3929 1216 4096 1466 4096 
C 1728 4096 2067 3923 2189 3400 
C 2272 3036 2278 2607 2278 2096 
C 2278 1680 2278 1169 2202 792 
C 2067 95 1690 -26 1466 -26 
z
" transform="scale(0.015625)"/>
      </defs>
      <use xlink:href="#CMR17-30" transform="scale(0.996264)"/>
     </g>
    </g>
   </g>
   <g id="xtick_2">
    <g id="line2d_3">
     <path d="M 164.449748 256.640702 
L 159.340305 256.766885 
" style="fill: none; stroke: #000000; stroke-width: 0.8; stroke-linecap: square"/>
    </g>
    <g id="text_3">
     <!-- $\mathdefault{1}$ -->
     <g transform="translate(146.610745 275.296411)scale(0.1 -0.1)">
      <defs>
       <path id="CMR17-31" d="M 1702 4058 
C 1702 4192 1696 4192 1606 4192 
C 1357 3916 979 3827 621 3827 
C 602 3827 570 3827 563 3808 
C 557 3795 557 3782 557 3648 
C 755 3648 1088 3686 1344 3839 
L 1344 461 
C 1344 236 1331 160 781 160 
L 589 160 
L 589 0 
C 896 0 1216 0 1523 0 
C 1830 0 2150 0 2458 0 
L 2458 160 
L 2266 160 
C 1715 160 1702 230 1702 458 
L 1702 4058 
z
" transform="scale(0.015625)"/>
      </defs>
      <use xlink:href="#CMR17-31" transform="scale(0.996264)"/>
     </g>
    </g>
   </g>
   <g id="xtick_3">
    <g id="line2d_4">
     <path d="M 145.101461 254.784637 
L 140.072307 254.90558 
" style="fill: none; stroke: #000000; stroke-width: 0.8; stroke-linecap: square"/>
    </g>
    <g id="text_4">
     <!-- $\mathdefault{2}$ -->
     <g transform="translate(127.504546 273.185405)scale(0.1 -0.1)">
      <defs>
       <path id="CMR17-32" d="M 2669 989 
L 2554 989 
C 2490 536 2438 459 2413 420 
C 2381 369 1920 369 1830 369 
L 602 369 
C 832 619 1280 1072 1824 1597 
C 2214 1967 2669 2402 2669 3035 
C 2669 3790 2067 4224 1395 4224 
C 691 4224 262 3604 262 3030 
C 262 2780 448 2748 525 2748 
C 589 2748 781 2787 781 3010 
C 781 3207 614 3264 525 3264 
C 486 3264 448 3258 422 3245 
C 544 3790 915 4058 1306 4058 
C 1862 4058 2227 3617 2227 3035 
C 2227 2479 1901 2000 1536 1584 
L 262 146 
L 262 0 
L 2515 0 
L 2669 989 
z
" transform="scale(0.015625)"/>
      </defs>
      <use xlink:href="#CMR17-32" transform="scale(0.996264)"/>
     </g>
    </g>
   </g>
   <g id="xtick_4">
    <g id="line2d_5">
     <path d="M 126.547969 253.004816 
L 121.59689 253.120838 
" style="fill: none; stroke: #000000; stroke-width: 0.8; stroke-linecap: square"/>
    </g>
    <g id="text_5">
     <!-- $\mathdefault{3}$ -->
     <g transform="translate(109.186422 271.161472)scale(0.1 -0.1)">
      <defs>
       <path id="CMR17-33" d="M 1414 2157 
C 1984 2157 2234 1662 2234 1090 
C 2234 320 1824 25 1453 25 
C 1114 25 563 194 390 693 
C 422 680 454 680 486 680 
C 640 680 755 782 755 948 
C 755 1133 614 1216 486 1216 
C 378 1216 211 1165 211 926 
C 211 335 787 -128 1466 -128 
C 2176 -128 2720 430 2720 1085 
C 2720 1707 2208 2157 1600 2227 
C 2086 2328 2554 2756 2554 3329 
C 2554 3820 2048 4179 1472 4179 
C 890 4179 378 3829 378 3329 
C 378 3110 544 3072 627 3072 
C 762 3072 877 3155 877 3321 
C 877 3486 762 3569 627 3569 
C 602 3569 570 3569 544 3557 
C 730 3959 1235 4032 1459 4032 
C 1683 4032 2106 3925 2106 3320 
C 2106 3143 2080 2828 1862 2550 
C 1670 2304 1453 2304 1242 2284 
C 1210 2284 1062 2269 1037 2269 
C 992 2263 966 2257 966 2208 
C 966 2163 973 2157 1101 2157 
L 1414 2157 
z
" transform="scale(0.015625)"/>
      </defs>
      <use xlink:href="#CMR17-33" transform="scale(0.996264)"/>
     </g>
    </g>
   </g>
   <g id="xtick_5">
    <g id="line2d_6">
     <path d="M 108.741286 251.296636 
L 103.866134 251.408032 
" style="fill: none; stroke: #000000; stroke-width: 0.8; stroke-linecap: square"/>
    </g>
    <g id="text_6">
     <!-- $\mathdefault{4}$ -->
     <g transform="translate(91.608598 269.219334)scale(0.1 -0.1)">
      <defs>
       <path id="CMR17-34" d="M 2150 4122 
C 2150 4256 2144 4256 2029 4256 
L 128 1254 
L 128 1088 
L 1779 1088 
L 1779 457 
C 1779 224 1766 160 1318 160 
L 1197 160 
L 1197 0 
C 1402 0 1747 0 1965 0 
C 2182 0 2528 0 2733 0 
L 2733 160 
L 2611 160 
C 2163 160 2150 224 2150 457 
L 2150 1088 
L 2803 1088 
L 2803 1254 
L 2150 1254 
L 2150 4122 
z
M 1798 3703 
L 1798 1254 
L 256 1254 
L 1798 3703 
z
" transform="scale(0.015625)"/>
      </defs>
      <use xlink:href="#CMR17-34" transform="scale(0.996264)"/>
     </g>
    </g>
   </g>
   <g id="xtick_6">
    <g id="line2d_7">
     <path d="M 91.63721 249.655857 
L 86.835908 249.762898 
" style="fill: none; stroke: #000000; stroke-width: 0.8; stroke-linecap: square"/>
    </g>
    <g id="text_7">
     <!-- $\mathdefault{5}$ -->
     <g transform="translate(74.727086 267.354129)scale(0.1 -0.1)">
      <defs>
       <path id="CMR17-35" d="M 730 3692 
C 794 3666 1056 3584 1325 3584 
C 1920 3584 2246 3911 2432 4100 
C 2432 4157 2432 4192 2394 4192 
C 2387 4192 2374 4192 2323 4163 
C 2099 4058 1837 3973 1517 3973 
C 1325 3973 1037 3999 723 4139 
C 653 4171 640 4171 634 4171 
C 602 4171 595 4164 595 4037 
L 595 2203 
C 595 2089 595 2057 659 2057 
C 691 2057 704 2070 736 2114 
C 941 2401 1222 2522 1542 2522 
C 1766 2522 2246 2382 2246 1289 
C 2246 1085 2246 715 2054 421 
C 1894 159 1645 25 1370 25 
C 947 25 518 320 403 814 
C 429 807 480 795 506 795 
C 589 795 749 840 749 1038 
C 749 1210 627 1280 506 1280 
C 358 1280 262 1190 262 1011 
C 262 454 704 -128 1382 -128 
C 2042 -128 2669 440 2669 1264 
C 2669 2030 2170 2624 1549 2624 
C 1222 2624 947 2503 730 2274 
L 730 3692 
z
" transform="scale(0.015625)"/>
      </defs>
      <use xlink:href="#CMR17-35" transform="scale(0.996264)"/>
     </g>
    </g>
   </g>
  </g>
  <g id="axis3d_2">
   <g id="line2d_8">
    <path d="M 389.249717 253.631761 
L 185.067753 258.828791 
" style="fill: none; stroke: #000000; stroke-width: 0.8; stroke-linecap: square"/>
   </g>
   <g id="text_8">
    <!-- y -->
    <g transform="translate(303.007283 286.350005)scale(0.16 -0.16)">
     <defs>
      <path id="CMSS17-79" d="M 2675 2752 
L 2176 2752 
C 1632 1294 1446 702 1434 383 
L 1427 383 
C 1408 696 1126 1460 902 2007 
L 602 2752 
L 83 2752 
L 1216 13 
C 1146 -178 1043 -465 1011 -529 
C 870 -885 774 -885 672 -885 
C 646 -885 442 -885 211 -809 
L 250 -1229 
C 410 -1261 570 -1280 685 -1280 
C 845 -1280 1165 -1280 1459 -497 
L 2675 2752 
z
" transform="scale(0.015625)"/>
     </defs>
     <use xlink:href="#CMSS17-79" transform="scale(0.996264)"/>
    </g>
   </g>
   <g id="Line3DCollection_2">
    <path d="M 256.670705 90.479554 
L 256.670705 245.779906 
L 366.772357 254.203876 
" style="fill: none; stroke: #b0b0b0; stroke-width: 0.8"/>
    <path d="M 221.431183 89.695902 
L 221.431183 246.563557 
L 328.90007 255.167837 
" style="fill: none; stroke: #b0b0b0; stroke-width: 0.8"/>
    <path d="M 185.47313 88.896272 
L 185.47313 247.363188 
L 290.169896 256.153633 
" style="fill: none; stroke: #b0b0b0; stroke-width: 0.8"/>
    <path d="M 148.774342 88.080169 
L 148.774342 248.17929 
L 250.552354 257.162016 
" style="fill: none; stroke: #b0b0b0; stroke-width: 0.8"/>
    <path d="M 111.311694 87.24708 
L 111.311694 249.01238 
L 210.016593 258.19377 
" style="fill: none; stroke: #b0b0b0; stroke-width: 0.8"/>
   </g>
   <g id="xtick_7">
    <g id="line2d_9">
     <path d="M 365.796835 254.129238 
L 368.728491 254.353541 
" style="fill: none; stroke: #000000; stroke-width: 0.8; stroke-linecap: square"/>
    </g>
    <g id="text_9">
     <!-- $\mathdefault{−4}$ -->
     <g transform="translate(368.259133 272.798249)scale(0.1 -0.1)">
      <defs>
       <path id="CMSY10-0" d="M 4218 1472 
C 4326 1472 4442 1472 4442 1600 
C 4442 1728 4326 1728 4218 1728 
L 755 1728 
C 646 1728 531 1728 531 1600 
C 531 1472 646 1472 755 1472 
L 4218 1472 
z
" transform="scale(0.015625)"/>
      </defs>
      <use xlink:href="#CMSY10-0" transform="scale(0.996264)"/>
      <use xlink:href="#CMR17-34" transform="translate(77.487468 0)scale(0.996264)"/>
     </g>
    </g>
   </g>
   <g id="xtick_8">
    <g id="line2d_10">
     <path d="M 327.946839 255.091518 
L 330.811558 255.320876 
" style="fill: none; stroke: #000000; stroke-width: 0.8; stroke-linecap: square"/>
    </g>
    <g id="text_10">
     <!-- $\mathdefault{−2}$ -->
     <g transform="translate(330.208091 273.900697)scale(0.1 -0.1)">
      <use xlink:href="#CMSY10-0" transform="scale(0.996264)"/>
      <use xlink:href="#CMR17-32" transform="translate(77.487468 0)scale(0.996264)"/>
     </g>
    </g>
   </g>
   <g id="xtick_9">
    <g id="line2d_11">
     <path d="M 289.240224 256.075577 
L 292.034201 256.310162 
" style="fill: none; stroke: #000000; stroke-width: 0.8; stroke-linecap: square"/>
    </g>
    <g id="text_11">
     <!-- $\mathdefault{0}$ -->
     <g transform="translate(295.163334 275.028295)scale(0.1 -0.1)">
      <use xlink:href="#CMR17-30" transform="scale(0.996264)"/>
     </g>
    </g>
   </g>
   <g id="xtick_10">
    <g id="line2d_12">
     <path d="M 249.647574 257.082162 
L 252.366796 257.322155 
" style="fill: none; stroke: #000000; stroke-width: 0.8; stroke-linecap: square"/>
    </g>
    <g id="text_12">
     <!-- $\mathdefault{2}$ -->
     <g transform="translate(255.346068 276.181916)scale(0.1 -0.1)">
      <use xlink:href="#CMR17-32" transform="scale(0.996264)"/>
     </g>
    </g>
   </g>
   <g id="xtick_11">
    <g id="line2d_13">
     <path d="M 209.138116 258.112055 
L 211.778343 258.357645 
" style="fill: none; stroke: #000000; stroke-width: 0.8; stroke-linecap: square"/>
    </g>
    <g id="text_13">
     <!-- $\mathdefault{4}$ -->
     <g transform="translate(214.599212 277.362469)scale(0.1 -0.1)">
      <use xlink:href="#CMR17-34" transform="scale(0.996264)"/>
     </g>
    </g>
   </g>
  </g>
  <g id="axis3d_3">
   <g id="line2d_14">
    <path d="M 389.249717 253.631761 
L 389.249717 82.627698 
" style="fill: none; stroke: #000000; stroke-width: 0.8; stroke-linecap: square"/>
   </g>
   <g id="text_14">
    <!-- z -->
    <g transform="translate(430.082512 172.114786)scale(0.16 -0.16)">
     <defs>
      <path id="CMSS17-7a" d="M 2400 2502 
L 2400 2750 
L 250 2750 
L 250 2368 
L 1069 2368 
C 1146 2368 1222 2368 1299 2368 
L 1747 2368 
L 166 261 
L 166 0 
L 2419 0 
L 2419 395 
L 1549 395 
C 1472 395 1395 395 1318 395 
L 826 395 
L 2400 2502 
z
" transform="scale(0.015625)"/>
     </defs>
     <use xlink:href="#CMSS17-7a" transform="scale(0.996264)"/>
    </g>
   </g>
   <g id="Line3DCollection_3">
    <path d="M 389.249717 250.21168 
L 277.62206 242.226622 
L 88.297754 246.268383 
" style="fill: none; stroke: #b0b0b0; stroke-width: 0.8"/>
    <path d="M 389.249717 217.3789 
L 277.62206 212.587865 
L 88.297754 215.012922 
" style="fill: none; stroke: #b0b0b0; stroke-width: 0.8"/>
    <path d="M 389.249717 184.54612 
L 277.62206 182.949108 
L 88.297754 183.75746 
" style="fill: none; stroke: #b0b0b0; stroke-width: 0.8"/>
    <path d="M 389.249717 151.71334 
L 277.62206 153.310351 
L 88.297754 152.501999 
" style="fill: none; stroke: #b0b0b0; stroke-width: 0.8"/>
    <path d="M 389.249717 118.88056 
L 277.62206 123.671595 
L 88.297754 121.246538 
" style="fill: none; stroke: #b0b0b0; stroke-width: 0.8"/>
    <path d="M 389.249717 86.04778 
L 277.62206 94.032838 
L 88.297754 89.991076 
" style="fill: none; stroke: #b0b0b0; stroke-width: 0.8"/>
   </g>
   <g id="xtick_12">
    <g id="line2d_15">
     <path d="M 388.261311 250.140976 
L 391.23165 250.353453 
" style="fill: none; stroke: #000000; stroke-width: 0.8; stroke-linecap: square"/>
    </g>
    <g id="text_15">
     <!-- $\mathdefault{0}$ -->
     <g transform="translate(407.02219 257.395681)scale(0.1 -0.1)">
      <use xlink:href="#CMR17-30" transform="scale(0.996264)"/>
     </g>
    </g>
   </g>
   <g id="xtick_13">
    <g id="line2d_16">
     <path d="M 388.261311 217.336478 
L 391.23165 217.463964 
" style="fill: none; stroke: #000000; stroke-width: 0.8; stroke-linecap: square"/>
    </g>
    <g id="text_16">
     <!-- $\mathdefault{1}$ -->
     <g transform="translate(407.02219 224.4567)scale(0.1 -0.1)">
      <use xlink:href="#CMR17-31" transform="scale(0.996264)"/>
     </g>
    </g>
   </g>
   <g id="xtick_14">
    <g id="line2d_17">
     <path d="M 388.261311 184.531979 
L 391.23165 184.574474 
" style="fill: none; stroke: #000000; stroke-width: 0.8; stroke-linecap: square"/>
    </g>
    <g id="text_17">
     <!-- $\mathdefault{2}$ -->
     <g transform="translate(407.02219 191.517719)scale(0.1 -0.1)">
      <use xlink:href="#CMR17-32" transform="scale(0.996264)"/>
     </g>
    </g>
   </g>
   <g id="xtick_15">
    <g id="line2d_18">
     <path d="M 388.261311 151.72748 
L 391.23165 151.684985 
" style="fill: none; stroke: #000000; stroke-width: 0.8; stroke-linecap: square"/>
    </g>
    <g id="text_18">
     <!-- $\mathdefault{3}$ -->
     <g transform="translate(407.02219 158.578738)scale(0.1 -0.1)">
      <use xlink:href="#CMR17-33" transform="scale(0.996264)"/>
     </g>
    </g>
   </g>
   <g id="xtick_16">
    <g id="line2d_19">
     <path d="M 388.261311 118.922982 
L 391.23165 118.795496 
" style="fill: none; stroke: #000000; stroke-width: 0.8; stroke-linecap: square"/>
    </g>
    <g id="text_19">
     <!-- $\mathdefault{4}$ -->
     <g transform="translate(407.02219 125.639756)scale(0.1 -0.1)">
      <use xlink:href="#CMR17-34" transform="scale(0.996264)"/>
     </g>
    </g>
   </g>
   <g id="xtick_17">
    <g id="line2d_20">
     <path d="M 388.261311 86.118483 
L 391.23165 85.906006 
" style="fill: none; stroke: #000000; stroke-width: 0.8; stroke-linecap: square"/>
    </g>
    <g id="text_20">
     <!-- $\mathdefault{5}$ -->
     <g transform="translate(407.02219 92.700775)scale(0.1 -0.1)">
      <use xlink:href="#CMR17-35" transform="scale(0.996264)"/>
     </g>
    </g>
   </g>
  </g>
  <g id="axes_1">
   <g id="line2d_21">
    <path d="M 287.848802 252.445591 
L 207.299685 84.17509 
" clip-path="url(#p579a38efaf)" style="fill: none; stroke: #ff0000; stroke-width: 1.5; stroke-linecap: square"/>
   </g>
   <g id="line2d_22">
    <path d="M 287.848802 252.445591 
L 282.764397 120.123386 
" clip-path="url(#p579a38efaf)" style="fill: none; stroke: #00ff00; stroke-width: 1.5; stroke-linecap: square"/>
   </g>
   <g id="line2d_23">
    <path d="M 287.848802 252.445591 
L 216.973302 -1 
" clip-path="url(#p579a38efaf)" style="fill: none; stroke: #0016ff; stroke-width: 1.5; stroke-linecap: square"/>
   </g>
   <g id="line2d_24">
    <path d="M 287.848802 252.445591 
L 241.105284 153.116509 
" clip-path="url(#p579a38efaf)" style="fill: none; stroke: #f400ff; stroke-width: 1.5; stroke-linecap: square"/>
   </g>
   <g id="Poly3DCollection_1">
    <path d="M 295.787758 24.229005 
L 285.821571 -15.671939 
L 277.095255 -27.416666 
L 287.003286 12.473399 
z
" clip-path="url(#p579a38efaf)" style="fill: #0000f5; fill-opacity: 0.1"/>
    <path d="M 287.003286 12.473399 
L 277.095255 -27.416666 
L 268.324844 -39.220738 
L 278.174001 0.657821 
z
" clip-path="url(#p579a38efaf)" style="fill: #0000f5; fill-opacity: 0.1"/>
    <path d="M 278.174001 0.657821 
L 268.324844 -39.220738 
L 259.510004 -51.084607 
L 269.299558 -11.218187 
z
" clip-path="url(#p579a38efaf)" style="fill: #0000f5; fill-opacity: 0.1"/>
    <path d="M 269.299558 -11.218187 
L 259.510004 -51.084607 
L 250.650397 -63.008729 
L 260.37961 -23.155091 
z
" clip-path="url(#p579a38efaf)" style="fill: #0000f5; fill-opacity: 0.1"/>
    <path d="M 305.946048 64.899062 
L 295.787758 24.229005 
L 287.003286 12.473399 
L 297.102791 53.134341 
z
" clip-path="url(#p579a38efaf)" style="fill: #0000f5; fill-opacity: 0.1"/>
    <path d="M 260.37961 -23.155091 
L 250.650397 -63.008729 
L 241.745681 -74.993564 
L 251.413807 -35.15336 
z
" clip-path="url(#p579a38efaf)" style="fill: #0000f5; fill-opacity: 0.1"/>
    <path d="M 297.102791 53.134341 
L 287.003286 12.473399 
L 278.174001 0.657821 
L 288.213983 41.309021 
z
" clip-path="url(#p579a38efaf)" style="fill: #0000f5; fill-opacity: 0.1"/>
    <path d="M 251.413807 -35.15336 
L 241.745681 -74.993564 
L 232.795509 -87.039575 
L 242.401793 -47.213469 
z
" clip-path="url(#p579a38efaf)" style="fill: #0000f5; fill-opacity: 0.1"/>
    <path d="M 288.213983 41.309021 
L 278.174001 0.657821 
L 269.299558 -11.218187 
L 279.279272 29.422633 
z
" clip-path="url(#p579a38efaf)" style="fill: #0000f5; fill-opacity: 0.1"/>
    <path d="M 242.401793 -47.213469 
L 232.795509 -87.039575 
L 223.799534 -99.147234 
L 233.343211 -59.335897 
z
" clip-path="url(#p579a38efaf)" style="fill: #0000f5; fill-opacity: 0.1"/>
    <path d="M 279.279272 29.422633 
L 269.299558 -11.218187 
L 260.37961 -23.155091 
L 270.298301 17.474703 
z
" clip-path="url(#p579a38efaf)" style="fill: #0000f5; fill-opacity: 0.1"/>
    <path d="M 233.343211 -59.335897 
L 223.799534 -99.147234 
L 214.757403 -111.317015 
L 224.237699 -71.521129 
z
" clip-path="url(#p579a38efaf)" style="fill: #0000f5; fill-opacity: 0.1"/>
    <path d="M 316.30205 106.360685 
L 305.946048 64.899062 
L 297.102791 53.134341 
L 307.399373 94.588725 
z
" clip-path="url(#p579a38efaf)" style="fill: #0000f5; fill-opacity: 0.1"/>
    <path d="M 270.298301 17.474703 
L 260.37961 -23.155091 
L 251.413807 -35.15336 
L 261.27071 5.464751 
z
" clip-path="url(#p579a38efaf)" style="fill: #0000f5; fill-opacity: 0.1"/>
    <path d="M 224.237699 -71.521129 
L 214.757403 -111.317015 
L 205.668759 -123.549396 
L 215.084891 -83.769653 
z
" clip-path="url(#p579a38efaf)" style="fill: #0000f5; fill-opacity: 0.1"/>
    <path d="M 307.399373 94.588725 
L 297.102791 53.134341 
L 288.213983 41.309021 
L 298.450392 82.755535 
z
" clip-path="url(#p579a38efaf)" style="fill: #0000f5; fill-opacity: 0.1"/>
    <path d="M 261.27071 5.464751 
L 251.413807 -35.15336 
L 242.401793 -47.213469 
L 252.196135 -6.607707 
z
" clip-path="url(#p579a38efaf)" style="fill: #0000f5; fill-opacity: 0.1"/>
    <path d="M 215.084891 -83.769653 
L 205.668759 -123.549396 
L 196.533244 -135.844863 
L 205.884417 -96.081964 
z
" clip-path="url(#p579a38efaf)" style="fill: #0000f5; fill-opacity: 0.1"/>
    <path d="M 298.450392 82.755535 
L 288.213983 41.309021 
L 279.279272 29.422633 
L 289.454742 70.860638 
z
" clip-path="url(#p579a38efaf)" style="fill: #0000f5; fill-opacity: 0.1"/>
    <path d="M 252.196135 -6.607707 
L 242.401793 -47.213469 
L 233.343211 -59.335897 
L 243.074208 -18.74316 
z
" clip-path="url(#p579a38efaf)" style="fill: #0000f5; fill-opacity: 0.1"/>
    <path d="M 205.884417 -96.081964 
L 196.533244 -135.844863 
L 187.350492 -148.203904 
L 196.635904 -108.458562 
z
" clip-path="url(#p579a38efaf)" style="fill: #0000f5; fill-opacity: 0.1"/>
    <path d="M 289.454742 70.860638 
L 279.279272 29.422633 
L 270.298301 17.474703 
L 280.41206 58.903549 
z
" clip-path="url(#p579a38efaf)" style="fill: #0000f5; fill-opacity: 0.1"/>
    <path d="M 243.074208 -18.74316 
L 233.343211 -59.335897 
L 224.237699 -71.521129 
L 233.904557 -30.942102 
z
" clip-path="url(#p579a38efaf)" style="fill: #0000f5; fill-opacity: 0.1"/>
    <path d="M 196.635904 -108.458562 
L 187.350492 -148.203904 
L 178.120137 -160.627014 
L 187.338976 -120.899951 
z
" clip-path="url(#p579a38efaf)" style="fill: #0000f5; fill-opacity: 0.1"/>
    <path d="M 326.861593 148.63721 
L 316.30205 106.360685 
L 307.399373 94.588725 
L 317.898859 136.860003 
z
" clip-path="url(#p579a38efaf)" style="fill: #0000f5; fill-opacity: 0.1"/>
    <path d="M 280.41206 58.903549 
L 270.298301 17.474703 
L 261.27071 5.464751 
L 271.321974 46.883778 
z
" clip-path="url(#p579a38efaf)" style="fill: #0000f5; fill-opacity: 0.1"/>
    <path d="M 233.904557 -30.942102 
L 224.237699 -71.521129 
L 215.084891 -83.769653 
L 224.686807 -43.205033 
z
" clip-path="url(#p579a38efaf)" style="fill: #0000f5; fill-opacity: 0.1"/>
    <path d="M 187.338976 -120.899951 
L 178.120137 -160.627014 
L 168.841808 -173.114692 
L 177.99325 -133.406642 
z
" clip-path="url(#p579a38efaf)" style="fill: #0000f5; fill-opacity: 0.1"/>
    <path d="M 317.898859 136.860003 
L 307.399373 94.588725 
L 298.450392 82.755535 
L 308.889047 125.020935 
z
" clip-path="url(#p579a38efaf)" style="fill: #0000f5; fill-opacity: 0.1"/>
    <path d="M 271.321974 46.883778 
L 261.27071 5.464751 
L 252.196135 -6.607707 
L 262.184111 34.800832 
z
" clip-path="url(#p579a38efaf)" style="fill: #0000f5; fill-opacity: 0.1"/>
    <path d="M 224.686807 -43.205033 
L 215.084891 -83.769653 
L 205.884417 -96.081964 
L 215.420579 -55.532459 
z
" clip-path="url(#p579a38efaf)" style="fill: #0000f5; fill-opacity: 0.1"/>
    <path d="M 177.99325 -133.406642 
L 168.841808 -173.114692 
L 159.515131 -185.667443 
L 168.598342 -145.979151 
z
" clip-path="url(#p579a38efaf)" style="fill: #0000f5; fill-opacity: 0.1"/>
    <path d="M 308.889047 125.020935 
L 298.450392 82.755535 
L 289.454742 70.860638 
L 299.831785 113.119516 
z
" clip-path="url(#p579a38efaf)" style="fill: #0000f5; fill-opacity: 0.1"/>
    <path d="M 262.184111 34.800832 
L 252.196135 -6.607707 
L 243.074208 -18.74316 
L 252.998093 22.654212 
z
" clip-path="url(#p579a38efaf)" style="fill: #0000f5; fill-opacity: 0.1"/>
    <path d="M 215.420579 -55.532459 
L 205.884417 -96.081964 
L 196.635904 -108.458562 
L 206.105489 -67.924888 
z
" clip-path="url(#p579a38efaf)" style="fill: #0000f5; fill-opacity: 0.1"/>
    <path d="M 168.598342 -145.979151 
L 159.515131 -185.667443 
L 150.139725 -198.285777 
L 159.153863 -158.617997 
z
" clip-path="url(#p579a38efaf)" style="fill: #0000f5; fill-opacity: 0.1"/>
    <path d="M 299.831785 113.119516 
L 289.454742 70.860638 
L 280.41206 58.903549 
L 290.726697 101.155252 
z
" clip-path="url(#p579a38efaf)" style="fill: #0000f5; fill-opacity: 0.1"/>
    <path d="M 252.998093 22.654212 
L 243.074208 -18.74316 
L 233.904557 -30.942102 
L 243.763539 10.443411 
z
" clip-path="url(#p579a38efaf)" style="fill: #0000f5; fill-opacity: 0.1"/>
    <path d="M 206.105489 -67.924888 
L 196.635904 -108.458562 
L 187.338976 -120.899951 
L 196.74115 -80.382836 
z
" clip-path="url(#p579a38efaf)" style="fill: #0000f5; fill-opacity: 0.1"/>
    <path d="M 159.153863 -158.617997 
L 150.139725 -198.285777 
L 140.715208 -210.97021 
L 149.659418 -171.323707 
z
" clip-path="url(#p579a38efaf)" style="fill: #0000f5; fill-opacity: 0.1"/>
    <path d="M 337.630737 191.752902 
L 326.861593 148.63721 
L 317.898859 136.860003 
L 328.607305 179.972564 
z
" clip-path="url(#p579a38efaf)" style="fill: #0000f5; fill-opacity: 0.1"/>
    <path d="M 290.726697 101.155252 
L 280.41206 58.903549 
L 271.321974 46.883778 
L 281.573403 89.127646 
z
" clip-path="url(#p579a38efaf)" style="fill: #0000f5; fill-opacity: 0.1"/>
    <path d="M 243.763539 10.443411 
L 233.904557 -30.942102 
L 224.686807 -43.205033 
L 234.480062 -1.832078 
z
" clip-path="url(#p579a38efaf)" style="fill: #0000f5; fill-opacity: 0.1"/>
    <path d="M 196.74115 -80.382836 
L 187.338976 -120.899951 
L 177.99325 -133.406642 
L 187.327169 -92.906825 
z
" clip-path="url(#p579a38efaf)" style="fill: #0000f5; fill-opacity: 0.1"/>
    <path d="M 149.659418 -171.323707 
L 140.715208 -210.97021 
L 131.241193 -223.721261 
L 140.114611 -184.096814 
z
" clip-path="url(#p579a38efaf)" style="fill: #0000f5; fill-opacity: 0.1"/>
    <path d="M 328.607305 179.972564 
L 317.898859 136.860003 
L 308.889047 125.020935 
L 319.536003 168.12973 
z
" clip-path="url(#p579a38efaf)" style="fill: #0000f5; fill-opacity: 0.1"/>
    <path d="M 281.573403 89.127646 
L 271.321974 46.883778 
L 262.184111 34.800832 
L 272.37152 77.036192 
z
" clip-path="url(#p579a38efaf)" style="fill: #0000f5; fill-opacity: 0.1"/>
    <path d="M 234.480062 -1.832078 
L 224.686807 -43.205033 
L 215.420579 -55.532459 
L 225.147274 -14.172772 
z
" clip-path="url(#p579a38efaf)" style="fill: #0000f5; fill-opacity: 0.1"/>
    <path d="M 187.327169 -92.906825 
L 177.99325 -133.406642 
L 168.598342 -145.979151 
L 177.863152 -105.497381 
z
" clip-path="url(#p579a38efaf)" style="fill: #0000f5; fill-opacity: 0.1"/>
    <path d="M 140.114611 -184.096814 
L 131.241193 -223.721261 
L 121.717289 -236.539458 
L 130.519039 -196.937855 
z
" clip-path="url(#p579a38efaf)" style="fill: #0000f5; fill-opacity: 0.1"/>
    <path d="M 319.536003 168.12973 
L 308.889047 125.020935 
L 299.831785 113.119516 
L 310.41645 156.223902 
z
" clip-path="url(#p579a38efaf)" style="fill: #0000f5; fill-opacity: 0.1"/>
    <path d="M 272.37152 77.036192 
L 262.184111 34.800832 
L 252.998093 22.654212 
L 263.120659 64.88038 
z
" clip-path="url(#p579a38efaf)" style="fill: #0000f5; fill-opacity: 0.1"/>
    <path d="M 225.147274 -14.172772 
L 215.420579 -55.532459 
L 206.105489 -67.924888 
L 215.76478 -26.579192 
z
" clip-path="url(#p579a38efaf)" style="fill: #0000f5; fill-opacity: 0.1"/>
    <path d="M 177.863152 -105.497381 
L 168.598342 -145.979151 
L 159.153863 -158.617997 
L 168.348698 -118.155036 
z
" clip-path="url(#p579a38efaf)" style="fill: #0000f5; fill-opacity: 0.1"/>
    <path d="M 130.519039 -196.937855 
L 121.717289 -236.539458 
L 112.143102 -249.425331 
L 120.872298 -209.847374 
z
" clip-path="url(#p579a38efaf)" style="fill: #0000f5; fill-opacity: 0.1"/>
    <path d="M 310.41645 156.223902 
L 299.831785 113.119516 
L 290.726697 101.155252 
L 301.248258 144.254575 
z
" clip-path="url(#p579a38efaf)" style="fill: #0000f5; fill-opacity: 0.1"/>
    <path d="M 263.120659 64.88038 
L 252.998093 22.654212 
L 243.763539 10.443411 
L 253.820429 52.659696 
z
" clip-path="url(#p579a38efaf)" style="fill: #0000f5; fill-opacity: 0.1"/>
    <path d="M 215.76478 -26.579192 
L 206.105489 -67.924888 
L 196.74115 -80.382836 
L 206.332182 -39.051864 
z
" clip-path="url(#p579a38efaf)" style="fill: #0000f5; fill-opacity: 0.1"/>
    <path d="M 168.348698 -118.155036 
L 159.153863 -158.617997 
L 149.659418 -171.323707 
L 158.783403 -130.880328 
z
" clip-path="url(#p579a38efaf)" style="fill: #0000f5; fill-opacity: 0.1"/>
    <path d="M 348.615786 235.732996 
L 337.630737 191.752902 
L 328.607305 179.972564 
L 339.531013 223.951773 
z
" clip-path="url(#p579a38efaf)" style="fill: #0000f5; fill-opacity: 0.1"/>
    <path d="M 301.248258 144.254575 
L 290.726697 101.155252 
L 281.573403 89.127646 
L 292.031039 132.221242 
z
" clip-path="url(#p579a38efaf)" style="fill: #0000f5; fill-opacity: 0.1"/>
    <path d="M 253.820429 52.659696 
L 243.763539 10.443411 
L 234.480062 -1.832078 
L 244.470433 40.373618 
z
" clip-path="url(#p579a38efaf)" style="fill: #0000f5; fill-opacity: 0.1"/>
    <path d="M 206.332182 -39.051864 
L 196.74115 -80.382836 
L 187.327169 -92.906825 
L 196.849078 -51.591321 
z
" clip-path="url(#p579a38efaf)" style="fill: #0000f5; fill-opacity: 0.1"/>
    <path d="M 158.783403 -130.880328 
L 149.659418 -171.323707 
L 140.114611 -184.096814 
L 149.166858 -143.673801 
z
" clip-path="url(#p579a38efaf)" style="fill: #0000f5; fill-opacity: 0.1"/>
    <path d="M 339.531013 223.951773 
L 328.607305 179.972564 
L 319.536003 168.12973 
L 330.397558 212.10742 
z
" clip-path="url(#p579a38efaf)" style="fill: #0000f5; fill-opacity: 0.1"/>
    <path d="M 292.031039 132.221242 
L 281.573403 89.127646 
L 272.37152 77.036192 
L 282.764397 120.123386 
z
" clip-path="url(#p579a38efaf)" style="fill: #0000f5; fill-opacity: 0.1"/>
    <path d="M 244.470433 40.373618 
L 234.480062 -1.832078 
L 225.147274 -14.172772 
L 235.07027 28.021621 
z
" clip-path="url(#p579a38efaf)" style="fill: #0000f5; fill-opacity: 0.1"/>
    <path d="M 196.849078 -51.591321 
L 187.327169 -92.906825 
L 177.863152 -105.497381 
L 187.315061 -64.198099 
z
" clip-path="url(#p579a38efaf)" style="fill: #0000f5; fill-opacity: 0.1"/>
    <path d="M 149.166858 -143.673801 
L 140.114611 -184.096814 
L 130.519039 -196.937855 
L 139.498651 -156.536003 
z
" clip-path="url(#p579a38efaf)" style="fill: #0000f5; fill-opacity: 0.1"/>
    <path d="M 330.397558 212.10742 
L 319.536003 168.12973 
L 310.41645 156.223902 
L 321.215031 200.199427 
z
" clip-path="url(#p579a38efaf)" style="fill: #0000f5; fill-opacity: 0.1"/>
    <path d="M 282.764397 120.123386 
L 272.37152 77.036192 
L 263.120659 64.88038 
L 273.447934 107.960487 
z
" clip-path="url(#p579a38efaf)" style="fill: #0000f5; fill-opacity: 0.1"/>
    <path d="M 235.07027 28.021621 
L 225.147274 -14.172772 
L 215.76478 -26.579192 
L 225.619536 15.603173 
z
" clip-path="url(#p579a38efaf)" style="fill: #0000f5; fill-opacity: 0.1"/>
    <path d="M 187.315061 -64.198099 
L 177.863152 -105.497381 
L 168.348698 -118.155036 
L 177.729719 -76.872744 
z
" clip-path="url(#p579a38efaf)" style="fill: #0000f5; fill-opacity: 0.1"/>
    <path d="M 139.498651 -156.536003 
L 130.519039 -196.937855 
L 120.872298 -209.847374 
L 129.778364 -169.467491 
z
" clip-path="url(#p579a38efaf)" style="fill: #0000f5; fill-opacity: 0.1"/>
    <path d="M 321.215031 200.199427 
L 310.41645 156.223902 
L 301.248258 144.254575 
L 311.983033 188.227282 
z
" clip-path="url(#p579a38efaf)" style="fill: #0000f5; fill-opacity: 0.1"/>
    <path d="M 273.447934 107.960487 
L 263.120659 64.88038 
L 253.820429 52.659696 
L 264.081248 95.73202 
z
" clip-path="url(#p579a38efaf)" style="fill: #0000f5; fill-opacity: 0.1"/>
    <path d="M 225.619536 15.603173 
L 215.76478 -26.579192 
L 206.332182 -39.051864 
L 216.117822 3.117735 
z
" clip-path="url(#p579a38efaf)" style="fill: #0000f5; fill-opacity: 0.1"/>
    <path d="M 177.729719 -76.872744 
L 168.348698 -118.155036 
L 158.783403 -130.880328 
L 168.092638 -89.615803 
z
" clip-path="url(#p579a38efaf)" style="fill: #0000f5; fill-opacity: 0.1"/>
    <path d="M 359.823297 280.60375 
L 348.615786 235.732996 
L 339.531013 223.951773 
L 350.676538 268.824029 
z
" clip-path="url(#p579a38efaf)" style="fill: #0000f5; fill-opacity: 0.1"/>
    <path d="M 311.983033 188.227282 
L 301.248258 144.254575 
L 292.031039 132.221242 
L 302.701165 176.190464 
z
" clip-path="url(#p579a38efaf)" style="fill: #0000f5; fill-opacity: 0.1"/>
    <path d="M 264.081248 95.73202 
L 253.820429 52.659696 
L 244.470433 40.373618 
L 254.66393 83.437453 
z
" clip-path="url(#p579a38efaf)" style="fill: #0000f5; fill-opacity: 0.1"/>
    <path d="M 216.117822 3.117735 
L 206.332182 -39.051864 
L 196.849078 -51.591321 
L 206.564714 -9.435236 
z
" clip-path="url(#p579a38efaf)" style="fill: #0000f5; fill-opacity: 0.1"/>
    <path d="M 168.092638 -89.615803 
L 158.783403 -130.880328 
L 149.166858 -143.673801 
L 158.403396 -102.427834 
z
" clip-path="url(#p579a38efaf)" style="fill: #0000f5; fill-opacity: 0.1"/>
    <path d="M 350.676538 268.824029 
L 339.531013 223.951773 
L 330.397558 212.10742 
L 341.480266 256.980542 
z
" clip-path="url(#p579a38efaf)" style="fill: #0000f5; fill-opacity: 0.1"/>
    <path d="M 302.701165 176.190464 
L 292.031039 132.221242 
L 282.764397 120.123386 
L 293.369021 164.088447 
z
" clip-path="url(#p579a38efaf)" style="fill: #0000f5; fill-opacity: 0.1"/>
    <path d="M 254.66393 83.437453 
L 244.470433 40.373618 
L 235.07027 28.021621 
L 245.19557 71.076248 
z
" clip-path="url(#p579a38efaf)" style="fill: #0000f5; fill-opacity: 0.1"/>
    <path d="M 206.564714 -9.435236 
L 196.849078 -51.591321 
L 187.315061 -64.198099 
L 196.959794 -22.056289 
z
" clip-path="url(#p579a38efaf)" style="fill: #0000f5; fill-opacity: 0.1"/>
    <path d="M 158.403396 -102.427834 
L 149.166858 -143.673801 
L 139.498651 -156.536003 
L 148.66157 -115.309396 
z
" clip-path="url(#p579a38efaf)" style="fill: #0000f5; fill-opacity: 0.1"/>
    <path d="M 341.480266 256.980542 
L 330.397558 212.10742 
L 321.215031 200.199427 
L 332.234079 245.072772 
z
" clip-path="url(#p579a38efaf)" style="fill: #0000f5; fill-opacity: 0.1"/>
    <path d="M 293.369021 164.088447 
L 282.764397 120.123386 
L 273.447934 107.960487 
L 283.986191 151.920701 
z
" clip-path="url(#p579a38efaf)" style="fill: #0000f5; fill-opacity: 0.1"/>
    <path d="M 245.19557 71.076248 
L 235.07027 28.021621 
L 225.619536 15.603173 
L 235.675751 58.647862 
z
" clip-path="url(#p579a38efaf)" style="fill: #0000f5; fill-opacity: 0.1"/>
    <path d="M 196.959794 -22.056289 
L 187.315061 -64.198099 
L 177.729719 -76.872744 
L 187.302639 -34.745979 
z
" clip-path="url(#p579a38efaf)" style="fill: #0000f5; fill-opacity: 0.1"/>
    <path d="M 148.66157 -115.309396 
L 139.498651 -156.536003 
L 129.778364 -169.467491 
L 138.866731 -128.261058 
z
" clip-path="url(#p579a38efaf)" style="fill: #0000f5; fill-opacity: 0.1"/>
    <path d="M 332.234079 245.072772 
L 321.215031 200.199427 
L 311.983033 188.227282 
L 322.937569 233.100193 
z
" clip-path="url(#p579a38efaf)" style="fill: #0000f5; fill-opacity: 0.1"/>
    <path d="M 283.986191 151.920701 
L 273.447934 107.960487 
L 264.081248 95.73202 
L 274.552261 139.686688 
z
" clip-path="url(#p579a38efaf)" style="fill: #0000f5; fill-opacity: 0.1"/>
    <path d="M 235.675751 58.647862 
L 225.619536 15.603173 
L 216.117822 3.117735 
L 226.104053 46.151747 
z
" clip-path="url(#p579a38efaf)" style="fill: #0000f5; fill-opacity: 0.1"/>
    <path d="M 187.302639 -34.745979 
L 177.729719 -76.872744 
L 168.092638 -89.615803 
L 177.592822 -47.504868 
z
" clip-path="url(#p579a38efaf)" style="fill: #0000f5; fill-opacity: 0.1"/>
    <path d="M 371.260099 326.392497 
L 359.823297 280.60375 
L 350.676538 268.824029 
L 362.050707 314.616811 
z
" clip-path="url(#p579a38efaf)" style="fill: #0000f5; fill-opacity: 0.1"/>
    <path d="M 322.937569 233.100193 
L 311.983033 188.227282 
L 302.701165 176.190464 
L 313.590325 221.062275 
z
" clip-path="url(#p579a38efaf)" style="fill: #0000f5; fill-opacity: 0.1"/>
    <path d="M 274.552261 139.686688 
L 264.081248 95.73202 
L 254.66393 83.437453 
L 265.066814 127.385866 
z
" clip-path="url(#p579a38efaf)" style="fill: #0000f5; fill-opacity: 0.1"/>
    <path d="M 226.104053 46.151747 
L 216.117822 3.117735 
L 206.564714 -9.435236 
L 216.48005 33.587346 
z
" clip-path="url(#p579a38efaf)" style="fill: #0000f5; fill-opacity: 0.1"/>
    <path d="M 177.592822 -47.504868 
L 168.092638 -89.615803 
L 158.403396 -102.427834 
L 167.82991 -60.333524 
z
" clip-path="url(#p579a38efaf)" style="fill: #0000f5; fill-opacity: 0.1"/>
    <path d="M 362.050707 314.616811 
L 350.676538 268.824029 
L 341.480266 256.980542 
L 352.79095 302.776726 
z
" clip-path="url(#p579a38efaf)" style="fill: #0000f5; fill-opacity: 0.1"/>
    <path d="M 313.590325 221.062275 
L 302.701165 176.190464 
L 293.369021 164.088447 
L 304.191929 208.958481 
z
" clip-path="url(#p579a38efaf)" style="fill: #0000f5; fill-opacity: 0.1"/>
    <path d="M 265.066814 127.385866 
L 254.66393 83.437453 
L 245.19557 71.076248 
L 255.529424 115.017686 
z
" clip-path="url(#p579a38efaf)" style="fill: #0000f5; fill-opacity: 0.1"/>
    <path d="M 216.48005 33.587346 
L 206.564714 -9.435236 
L 196.959794 -22.056289 
L 206.803313 20.954099 
z
" clip-path="url(#p579a38efaf)" style="fill: #0000f5; fill-opacity: 0.1"/>
    <path d="M 167.82991 -60.333524 
L 158.403396 -102.427834 
L 148.66157 -115.309396 
L 158.013469 -73.23252 
z
" clip-path="url(#p579a38efaf)" style="fill: #0000f5; fill-opacity: 0.1"/>
    <path d="M 352.79095 302.776726 
L 341.480266 256.980542 
L 332.234079 245.072772 
L 343.480416 290.871713 
z
" clip-path="url(#p579a38efaf)" style="fill: #0000f5; fill-opacity: 0.1"/>
    <path d="M 304.191929 208.958481 
L 293.369021 164.088447 
L 283.986191 151.920701 
L 294.741961 196.78827 
z
" clip-path="url(#p579a38efaf)" style="fill: #0000f5; fill-opacity: 0.1"/>
    <path d="M 255.529424 115.017686 
L 245.19557 71.076248 
L 235.675751 58.647862 
L 245.939666 102.581593 
z
" clip-path="url(#p579a38efaf)" style="fill: #0000f5; fill-opacity: 0.1"/>
    <path d="M 206.803313 20.954099 
L 196.959794 -22.056289 
L 187.302639 -34.745979 
L 197.073406 8.251438 
z
" clip-path="url(#p579a38efaf)" style="fill: #0000f5; fill-opacity: 0.1"/>
    <path d="M 158.013469 -73.23252 
L 148.66157 -115.309396 
L 138.866731 -128.261058 
L 148.143055 -86.202437 
z
" clip-path="url(#p579a38efaf)" style="fill: #0000f5; fill-opacity: 0.1"/>
    <path d="M 343.480416 290.871713 
L 332.234079 245.072772 
L 322.937569 233.100193 
L 334.118684 278.901237 
z
" clip-path="url(#p579a38efaf)" style="fill: #0000f5; fill-opacity: 0.1"/>
    <path d="M 294.741961 196.78827 
L 283.986191 151.920701 
L 274.552261 139.686688 
L 285.239995 184.551094 
z
" clip-path="url(#p579a38efaf)" style="fill: #0000f5; fill-opacity: 0.1"/>
    <path d="M 245.939666 102.581593 
L 235.675751 58.647862 
L 226.104053 46.151747 
L 236.297106 90.077026 
z
" clip-path="url(#p579a38efaf)" style="fill: #0000f5; fill-opacity: 0.1"/>
    <path d="M 197.073406 8.251438 
L 187.302639 -34.745979 
L 177.592822 -47.504868 
L 187.289891 -4.52121 
z
" clip-path="url(#p579a38efaf)" style="fill: #0000f5; fill-opacity: 0.1"/>
    <path d="M 382.9333 373.127699 
L 371.260099 326.392497 
L 362.050707 314.616811 
L 373.660628 361.358739 
z
" clip-path="url(#p579a38efaf)" style="fill: #0000f5; fill-opacity: 0.1"/>
    <path d="M 334.118684 278.901237 
L 322.937569 233.100193 
L 313.590325 221.062275 
L 324.705332 266.864755 
z
" clip-path="url(#p579a38efaf)" style="fill: #0000f5; fill-opacity: 0.1"/>
    <path d="M 285.239995 184.551094 
L 274.552261 139.686688 
L 265.066814 127.385866 
L 275.685601 172.246397 
z
" clip-path="url(#p579a38efaf)" style="fill: #0000f5; fill-opacity: 0.1"/>
    <path d="M 236.297106 90.077026 
L 226.104053 46.151747 
L 216.48005 33.587346 
L 226.601307 77.503418 
z
" clip-path="url(#p579a38efaf)" style="fill: #0000f5; fill-opacity: 0.1"/>
    <path d="M 187.289891 -4.52121 
L 177.592822 -47.504868 
L 167.82991 -60.333524 
L 177.452323 -17.364426 
z
" clip-path="url(#p579a38efaf)" style="fill: #0000f5; fill-opacity: 0.1"/>
    <path d="M 373.660628 361.358739 
L 362.050707 314.616811 
L 352.79095 302.776726 
L 364.336719 349.524749 
z
" clip-path="url(#p579a38efaf)" style="fill: #0000f5; fill-opacity: 0.1"/>
    <path d="M 324.705332 266.864755 
L 313.590325 221.062275 
L 304.191929 208.958481 
L 315.239931 254.761721 
z
" clip-path="url(#p579a38efaf)" style="fill: #0000f5; fill-opacity: 0.1"/>
    <path d="M 275.685601 172.246397 
L 265.066814 127.385866 
L 255.529424 115.017686 
L 266.078344 159.873619 
z
" clip-path="url(#p579a38efaf)" style="fill: #0000f5; fill-opacity: 0.1"/>
    <path d="M 226.601307 77.503418 
L 216.48005 33.587346 
L 206.803313 20.954099 
L 216.851827 64.860196 
z
" clip-path="url(#p579a38efaf)" style="fill: #0000f5; fill-opacity: 0.1"/>
    <path d="M 177.452323 -17.364426 
L 167.82991 -60.333524 
L 158.013469 -73.23252 
L 167.560253 -30.278796 
z
" clip-path="url(#p579a38efaf)" style="fill: #0000f5; fill-opacity: 0.1"/>
    <path d="M 364.336719 349.524749 
L 352.79095 302.776726 
L 343.480416 290.871713 
L 354.961147 337.625188 
z
" clip-path="url(#p579a38efaf)" style="fill: #0000f5; fill-opacity: 0.1"/>
    <path d="M 315.239931 254.761721 
L 304.191929 208.958481 
L 294.741961 196.78827 
L 305.722049 242.591581 
z
" clip-path="url(#p579a38efaf)" style="fill: #0000f5; fill-opacity: 0.1"/>
    <path d="M 266.078344 159.873619 
L 255.529424 115.017686 
L 245.939666 102.581593 
L 256.417783 147.432195 
z
" clip-path="url(#p579a38efaf)" style="fill: #0000f5; fill-opacity: 0.1"/>
    <path d="M 216.851827 64.860196 
L 206.803313 20.954099 
L 197.073406 8.251438 
L 207.048218 52.14678 
z
" clip-path="url(#p579a38efaf)" style="fill: #0000f5; fill-opacity: 0.1"/>
    <path d="M 167.560253 -30.278796 
L 158.013469 -73.23252 
L 148.143055 -86.202437 
L 157.613226 -43.264913 
z
" clip-path="url(#p579a38efaf)" style="fill: #0000f5; fill-opacity: 0.1"/>
    <path d="M 354.961147 337.625188 
L 343.480416 290.871713 
L 334.118684 278.901237 
L 345.533481 325.65951 
z
" clip-path="url(#p579a38efaf)" style="fill: #0000f5; fill-opacity: 0.1"/>
    <path d="M 305.722049 242.591581 
L 294.741961 196.78827 
L 285.239995 184.551094 
L 296.151248 230.353775 
z
" clip-path="url(#p579a38efaf)" style="fill: #0000f5; fill-opacity: 0.1"/>
    <path d="M 256.417783 147.432195 
L 245.939666 102.581593 
L 236.297106 90.077026 
L 246.703474 134.92155 
z
" clip-path="url(#p579a38efaf)" style="fill: #0000f5; fill-opacity: 0.1"/>
    <path d="M 207.048218 52.14678 
L 197.073406 8.251438 
L 187.289891 -4.52121 
L 197.19003 39.362584 
z
" clip-path="url(#p579a38efaf)" style="fill: #0000f5; fill-opacity: 0.1"/>
    <path d="M 345.533481 325.65951 
L 334.118684 278.901237 
L 324.705332 266.864755 
L 336.053287 313.627161 
z
" clip-path="url(#p579a38efaf)" style="fill: #0000f5; fill-opacity: 0.1"/>
    <path d="M 296.151248 230.353775 
L 285.239995 184.551094 
L 275.685601 172.246397 
L 286.527085 218.047737 
z
" clip-path="url(#p579a38efaf)" style="fill: #0000f5; fill-opacity: 0.1"/>
    <path d="M 246.703474 134.92155 
L 236.297106 90.077026 
L 226.601307 77.503418 
L 236.934967 122.341107 
z
" clip-path="url(#p579a38efaf)" style="fill: #0000f5; fill-opacity: 0.1"/>
    <path d="M 197.19003 39.362584 
L 187.289891 -4.52121 
L 177.452323 -17.364426 
L 187.276804 26.507015 
z
" clip-path="url(#p579a38efaf)" style="fill: #0000f5; fill-opacity: 0.1"/>
    <path d="M 336.053287 313.627161 
L 324.705332 266.864755 
L 315.239931 254.761721 
L 326.520124 301.527584 
z
" clip-path="url(#p579a38efaf)" style="fill: #0000f5; fill-opacity: 0.1"/>
    <path d="M 286.527085 218.047737 
L 275.685601 172.246397 
L 266.078344 159.873619 
L 276.849112 205.672896 
z
" clip-path="url(#p579a38efaf)" style="fill: #0000f5; fill-opacity: 0.1"/>
    <path d="M 236.934967 122.341107 
L 226.601307 77.503418 
L 216.851827 64.860196 
L 227.111808 109.690278 
z
" clip-path="url(#p579a38efaf)" style="fill: #0000f5; fill-opacity: 0.1"/>
    <path d="M 187.276804 26.507015 
L 177.452323 -17.364426 
L 167.560253 -30.278796 
L 177.308079 13.579474 
z
" clip-path="url(#p579a38efaf)" style="fill: #0000f5; fill-opacity: 0.1"/>
    <path d="M 326.520124 301.527584 
L 315.239931 254.761721 
L 305.722049 242.591581 
L 316.933547 289.360213 
z
" clip-path="url(#p579a38efaf)" style="fill: #0000f5; fill-opacity: 0.1"/>
    <path d="M 276.849112 205.672896 
L 266.078344 159.873619 
L 256.417783 147.432195 
L 267.116878 193.228672 
z
" clip-path="url(#p579a38efaf)" style="fill: #0000f5; fill-opacity: 0.1"/>
    <path d="M 227.111808 109.690278 
L 216.851827 64.860196 
L 207.048218 52.14678 
L 217.233535 96.968472 
z
" clip-path="url(#p579a38efaf)" style="fill: #0000f5; fill-opacity: 0.1"/>
    <path d="M 177.308079 13.579474 
L 167.560253 -30.278796 
L 157.613226 -43.264913 
L 167.283386 0.579354 
z
" clip-path="url(#p579a38efaf)" style="fill: #0000f5; fill-opacity: 0.1"/>
    <path d="M 316.933547 289.360213 
L 305.722049 242.591581 
L 296.151248 230.353775 
L 307.293105 277.124477 
z
" clip-path="url(#p579a38efaf)" style="fill: #0000f5; fill-opacity: 0.1"/>
    <path d="M 267.116878 193.228672 
L 256.417783 147.432195 
L 246.703474 134.92155 
L 257.329924 180.714481 
z
" clip-path="url(#p579a38efaf)" style="fill: #0000f5; fill-opacity: 0.1"/>
    <path d="M 217.233535 96.968472 
L 207.048218 52.14678 
L 197.19003 39.362584 
L 207.299685 84.17509 
z
" clip-path="url(#p579a38efaf)" style="fill: #0000f5; fill-opacity: 0.1"/>
    <path d="M 307.293105 277.124477 
L 296.151248 230.353775 
L 286.527085 218.047737 
L 297.598344 264.819798 
z
" clip-path="url(#p579a38efaf)" style="fill: #0000f5; fill-opacity: 0.1"/>
    <path d="M 257.329924 180.714481 
L 246.703474 134.92155 
L 236.934967 122.341107 
L 247.487788 168.12973 
z
" clip-path="url(#p579a38efaf)" style="fill: #0000f5; fill-opacity: 0.1"/>
    <path d="M 207.299685 84.17509 
L 197.19003 39.362584 
L 187.276804 26.507015 
L 197.309787 71.309525 
z
" clip-path="url(#p579a38efaf)" style="fill: #0000f5; fill-opacity: 0.1"/>
    <path d="M 297.598344 264.819798 
L 286.527085 218.047737 
L 276.849112 205.672896 
L 287.848802 252.445591 
z
" clip-path="url(#p579a38efaf)" style="fill: #0000f5; fill-opacity: 0.1"/>
    <path d="M 247.487788 168.12973 
L 236.934967 122.341107 
L 227.111808 109.690278 
L 237.590001 155.473821 
z
" clip-path="url(#p579a38efaf)" style="fill: #0000f5; fill-opacity: 0.1"/>
    <path d="M 197.309787 71.309525 
L 187.276804 26.507015 
L 177.308079 13.579474 
L 187.263365 58.371166 
z
" clip-path="url(#p579a38efaf)" style="fill: #0000f5; fill-opacity: 0.1"/>
    <path d="M 287.848802 252.445591 
L 276.849112 205.672896 
L 267.116878 193.228672 
L 278.044015 240.001266 
z
" clip-path="url(#p579a38efaf)" style="fill: #0000f5; fill-opacity: 0.1"/>
    <path d="M 237.590001 155.473821 
L 227.111808 109.690278 
L 217.233535 96.968472 
L 227.636091 142.746149 
z
" clip-path="url(#p579a38efaf)" style="fill: #0000f5; fill-opacity: 0.1"/>
    <path d="M 187.263365 58.371166 
L 177.308079 13.579474 
L 167.283386 0.579354 
L 177.159937 45.359393 
z
" clip-path="url(#p579a38efaf)" style="fill: #0000f5; fill-opacity: 0.1"/>
    <path d="M 278.044015 240.001266 
L 267.116878 193.228672 
L 257.329924 180.714481 
L 268.183512 227.486225 
z
" clip-path="url(#p579a38efaf)" style="fill: #0000f5; fill-opacity: 0.1"/>
    <path d="M 227.636091 142.746149 
L 217.233535 96.968472 
L 207.299685 84.17509 
L 217.625579 129.946102 
z
" clip-path="url(#p579a38efaf)" style="fill: #0000f5; fill-opacity: 0.1"/>
    <path d="M 268.183512 227.486225 
L 257.329924 180.714481 
L 247.487788 168.12973 
L 258.266815 214.899864 
z
" clip-path="url(#p579a38efaf)" style="fill: #0000f5; fill-opacity: 0.1"/>
    <path d="M 217.625579 129.946102 
L 207.299685 84.17509 
L 197.309787 71.309525 
L 207.55798 117.073061 
z
" clip-path="url(#p579a38efaf)" style="fill: #0000f5; fill-opacity: 0.1"/>
    <path d="M 258.266815 214.899864 
L 247.487788 168.12973 
L 237.590001 155.473821 
L 248.293444 202.241571 
z
" clip-path="url(#p579a38efaf)" style="fill: #0000f5; fill-opacity: 0.1"/>
    <path d="M 207.55798 117.073061 
L 197.309787 71.309525 
L 187.263365 58.371166 
L 197.432805 104.1264 
z
" clip-path="url(#p579a38efaf)" style="fill: #0000f5; fill-opacity: 0.1"/>
    <path d="M 248.293444 202.241571 
L 237.590001 155.473821 
L 227.636091 142.746149 
L 238.262911 189.510727 
z
" clip-path="url(#p579a38efaf)" style="fill: #0000f5; fill-opacity: 0.1"/>
    <path d="M 197.432805 104.1264 
L 187.263365 58.371166 
L 177.159937 45.359393 
L 187.249558 91.105484 
z
" clip-path="url(#p579a38efaf)" style="fill: #0000f5; fill-opacity: 0.1"/>
    <path d="M 238.262911 189.510727 
L 227.636091 142.746149 
L 217.625579 129.946102 
L 228.174724 176.706708 
z
" clip-path="url(#p579a38efaf)" style="fill: #0000f5; fill-opacity: 0.1"/>
    <path d="M 228.174724 176.706708 
L 217.625579 129.946102 
L 207.55798 117.073061 
L 218.028383 163.82888 
z
" clip-path="url(#p579a38efaf)" style="fill: #0000f5; fill-opacity: 0.1"/>
    <path d="M 218.028383 163.82888 
L 207.55798 117.073061 
L 197.432805 104.1264 
L 207.823385 150.876604 
z
" clip-path="url(#p579a38efaf)" style="fill: #0000f5; fill-opacity: 0.1"/>
    <path d="M 207.823385 150.876604 
L 197.432805 104.1264 
L 187.249558 91.105484 
L 197.559219 137.849231 
z
" clip-path="url(#p579a38efaf)" style="fill: #0000f5; fill-opacity: 0.1"/>
   </g>
   <g id="legend_1">
    <g id="patch_6">
     <path d="M 357.840076 67.305115 
L 396.2 67.305115 
Q 398.2 67.305115 398.2 65.305115 
L 398.2 7 
Q 398.2 5 396.2 5 
L 357.840076 5 
Q 355.840076 5 355.840076 7 
L 355.840076 65.305115 
Q 355.840076 67.305115 357.840076 67.305115 
z
" style="fill: #ffffff; opacity: 0.8; stroke: #cccccc; stroke-linejoin: miter"/>
    </g>
    <g id="line2d_25">
     <path d="M 359.840076 12.5 
L 369.840076 12.5 
L 379.840076 12.5 
" style="fill: none; stroke: #ff0000; stroke-width: 1.5; stroke-linecap: square"/>
    </g>
    <g id="text_21">
     <!-- $\vec{a}$ -->
     <g transform="translate(387.840076 16)scale(0.1 -0.1)">
      <defs>
       <path id="CMMI12-7e" d="M 3424 3835 
C 3347 3764 3110 3540 3110 3451 
C 3110 3387 3168 3329 3232 3329 
C 3290 3329 3315 3368 3360 3432 
C 3514 3624 3686 3745 3834 3828 
C 3898 3867 3942 3886 3942 3956 
C 3942 4014 3891 4046 3853 4078 
C 3674 4200 3629 4372 3610 4449 
C 3590 4500 3571 4577 3482 4577 
C 3443 4577 3366 4552 3366 4456 
C 3366 4398 3405 4244 3526 4072 
L 1376 4072 
C 1267 4072 1158 4072 1158 3950 
C 1158 3835 1274 3835 1376 3835 
L 3424 3835 
z
" transform="scale(0.015625)"/>
       <path id="CMMI12-61" d="M 1926 760 
C 1894 651 1894 639 1805 517 
C 1664 338 1382 64 1082 64 
C 819 64 672 300 672 677 
C 672 1028 870 1743 992 2012 
C 1210 2459 1510 2689 1760 2689 
C 2182 2689 2266 2165 2266 2114 
C 2266 2108 2246 2024 2240 2012 
L 1926 760 
z
M 2336 2395 
C 2266 2561 2093 2816 1760 2816 
C 1037 2816 256 1884 256 939 
C 256 307 627 -64 1062 -64 
C 1414 -64 1715 211 1894 422 
C 1958 45 2259 -64 2451 -64 
C 2643 -64 2797 51 2912 281 
C 3014 498 3104 888 3104 913 
C 3104 945 3078 971 3040 971 
C 2982 971 2976 939 2950 843 
C 2854 466 2733 64 2470 64 
C 2285 64 2272 230 2272 358 
C 2272 505 2291 575 2349 824 
C 2394 984 2426 1124 2477 1309 
C 2714 2267 2771 2497 2771 2535 
C 2771 2625 2701 2695 2605 2695 
C 2400 2695 2349 2472 2336 2395 
z
" transform="scale(0.015625)"/>
      </defs>
      <use xlink:href="#CMMI12-7e" transform="scale(0.996264)"/>
      <use xlink:href="#CMMI12-61" transform="translate(6.445738 0)scale(0.996264)"/>
     </g>
    </g>
    <g id="line2d_26">
     <path d="M 359.840076 27.24679 
L 369.840076 27.24679 
L 379.840076 27.24679 
" style="fill: none; stroke: #00ff00; stroke-width: 1.5; stroke-linecap: square"/>
    </g>
    <g id="text_22">
     <!-- $\vec{b}$ -->
     <g transform="translate(387.840076 30.74679)scale(0.1 -0.1)">
      <defs>
       <path id="CMMI12-62" d="M 1478 4257 
C 1485 4283 1498 4321 1498 4352 
C 1498 4416 1434 4416 1421 4416 
C 1414 4416 1184 4393 1069 4377 
C 960 4377 864 4358 749 4358 
C 595 4345 550 4339 550 4224 
C 550 4160 614 4160 678 4160 
C 1005 4160 1005 4103 1005 4040 
C 1005 3996 954 3811 928 3696 
L 774 3085 
C 710 2831 346 1387 320 1272 
C 288 1114 288 1005 288 922 
C 288 274 653 -64 1069 -64 
C 1811 -64 2579 888 2579 1814 
C 2579 2401 2246 2816 1766 2816 
C 1434 2816 1133 2542 1011 2414 
L 1478 4257 
z
M 1075 64 
C 870 64 646 217 646 715 
C 646 926 666 1047 781 1494 
C 800 1577 902 1986 928 2069 
C 941 2120 1318 2689 1754 2689 
C 2035 2689 2163 2408 2163 2076 
C 2163 1769 1984 1047 1824 715 
C 1664 370 1370 64 1075 64 
z
" transform="scale(0.015625)"/>
      </defs>
      <use xlink:href="#CMMI12-7e" transform="translate(0 26.29016)scale(0.996264)"/>
      <use xlink:href="#CMMI12-62" transform="translate(11.311737 0)scale(0.996264)"/>
     </g>
    </g>
    <g id="line2d_27">
     <path d="M 359.840076 41.183968 
L 369.840076 41.183968 
L 379.840076 41.183968 
" style="fill: none; stroke: #0016ff; stroke-width: 1.5; stroke-linecap: square"/>
    </g>
    <g id="text_23">
     <!-- $\vec{c}$ -->
     <g transform="translate(387.840076 44.683968)scale(0.1 -0.1)">
      <defs>
       <path id="CMMI12-63" d="M 2502 2431 
C 2381 2431 2323 2431 2234 2355 
C 2195 2323 2125 2227 2125 2125 
C 2125 1997 2221 1920 2342 1920 
C 2496 1920 2669 2044 2669 2292 
C 2669 2588 2374 2816 1933 2816 
C 1094 2816 256 1903 256 996 
C 256 441 602 -64 1254 -64 
C 2125 -64 2675 622 2675 706 
C 2675 744 2637 776 2611 776 
C 2592 776 2586 770 2528 713 
C 2118 162 1510 64 1267 64 
C 826 64 685 446 685 764 
C 685 988 794 1605 1024 2039 
C 1190 2338 1536 2682 1939 2682 
C 2022 2682 2374 2682 2502 2431 
z
" transform="scale(0.015625)"/>
      </defs>
      <use xlink:href="#CMMI12-7e" transform="scale(0.996264)"/>
      <use xlink:href="#CMMI12-63" transform="translate(5.638615 0)scale(0.996264)"/>
     </g>
    </g>
    <g id="line2d_28">
     <path d="M 359.840076 57.867937 
L 369.840076 57.867937 
L 379.840076 57.867937 
" style="fill: none; stroke: #f400ff; stroke-width: 1.5; stroke-linecap: square"/>
    </g>
    <g id="text_24">
     <!-- $\vec{f}$ -->
     <g transform="translate(387.840076 61.367937)scale(0.1 -0.1)">
      <defs>
       <path id="CMMI12-66" d="M 2854 2566 
C 2982 2566 3034 2566 3034 2688 
C 3034 2752 2982 2752 2867 2752 
L 2349 2752 
C 2470 3429 2560 3897 2611 4107 
C 2650 4265 2784 4416 2950 4416 
C 3085 4416 3219 4358 3283 4298 
C 3034 4272 2957 4082 2957 3969 
C 2957 3837 3053 3759 3174 3759 
C 3302 3759 3494 3870 3494 4119 
C 3494 4393 3226 4544 2944 4544 
C 2669 4544 2400 4334 2272 4078 
C 2157 3848 2093 3611 1946 2752 
L 1517 2752 
C 1395 2752 1331 2752 1331 2637 
C 1331 2566 1370 2566 1498 2566 
L 1907 2566 
C 1792 1976 1530 542 1382 -137 
C 1274 -689 1178 -1152 858 -1152 
C 838 -1152 653 -1152 538 -1031 
C 864 -1005 864 -726 864 -720 
C 864 -593 768 -517 646 -517 
C 518 -517 326 -625 326 -867 
C 326 -1140 608 -1280 858 -1280 
C 1510 -1280 1779 -118 1850 199 
C 1965 688 2278 2376 2310 2566 
L 2854 2566 
z
" transform="scale(0.015625)"/>
      </defs>
      <use xlink:href="#CMMI12-7e" transform="translate(13.568792 26.29016)scale(0.996264)"/>
      <use xlink:href="#CMMI12-66" transform="scale(0.996264)"/>
     </g>
    </g>
   </g>
  </g>
 </g>
 <defs>
  <clipPath id="p579a38efaf">
   <rect x="57.6" y="0" width="345.6" height="345.6"/>
  </clipPath>
 </defs>
</svg>
