<?xml version="1.0" encoding="utf-8" standalone="no"?>
<!DOCTYPE svg PUBLIC "-//W3C//DTD SVG 1.1//EN"
  "http://www.w3.org/Graphics/SVG/1.1/DTD/svg11.dtd">
<svg xmlns:xlink="http://www.w3.org/1999/xlink" width="460.8pt" height="345.6pt" viewBox="0 0 460.8 345.6" xmlns="http://www.w3.org/2000/svg" version="1.1">
 <metadata>
  <rdf:RDF xmlns:dc="http://purl.org/dc/elements/1.1/" xmlns:cc="http://creativecommons.org/ns#" xmlns:rdf="http://www.w3.org/1999/02/22-rdf-syntax-ns#">
   <cc:Work>
    <dc:type rdf:resource="http://purl.org/dc/dcmitype/StillImage"/>
    <dc:date>2022-07-12T15:51:01.333970</dc:date>
    <dc:format>image/svg+xml</dc:format>
    <dc:creator>
     <cc:Agent>
      <dc:title>Matplotlib v3.5.1, https://matplotlib.org/</dc:title>
     </cc:Agent>
    </dc:creator>
   </cc:Work>
  </rdf:RDF>
 </metadata>
 <defs>
  <style type="text/css">*{stroke-linejoin: round; stroke-linecap: butt}</style>
 </defs>
 <g id="figure_1">
  <g id="patch_1">
   <path d="M 0 345.6 
L 460.8 345.6 
L 460.8 0 
L 0 0 
z
" style="fill: #ffffff"/>
  </g>
  <g id="patch_2">
   <path d="M 57.6 345.6 
L 403.2 345.6 
L 403.2 0 
L 57.6 0 
z
" style="fill: #ffffff"/>
  </g>
  <g id="pane3d_1">
   <g id="patch_3">
    <path d="M 287.319659 245.450882 
L 92.558168 249.085214 
L 92.558168 87.174246 
L 287.319659 90.808578 
" style="fill: #f2f2f2; opacity: 0.5; stroke: #f2f2f2; stroke-linejoin: miter"/>
   </g>
  </g>
  <g id="pane3d_2">
   <g id="patch_4">
    <path d="M 386.448209 254.121545 
L 287.319659 245.450882 
L 287.319659 90.808578 
L 386.448209 82.137915 
" style="fill: #e6e6e6; opacity: 0.5; stroke: #e6e6e6; stroke-linejoin: miter"/>
   </g>
  </g>
  <g id="pane3d_3">
   <g id="patch_5">
    <path d="M 386.448209 254.121545 
L 287.319659 245.450882 
L 92.558168 249.085214 
L 173.908067 258.640493 
" style="fill: #ececec; opacity: 0.5; stroke: #ececec; stroke-linejoin: miter"/>
   </g>
  </g>
  <g id="axis3d_1">
   <g id="line2d_1">
    <path d="M 92.558168 249.085214 
L 173.908067 258.640493 
" style="fill: none; stroke: #000000; stroke-width: 0.8; stroke-linecap: square"/>
   </g>
   <g id="text_1">
    <!-- x -->
    <g transform="translate(97.555646 282.08035)scale(0.16 -0.16)">
     <defs>
      <path id="CMSS17-78" d="M 1587 1414 
L 2656 2739 
L 2099 2739 
L 1363 1777 
L 602 2739 
L 32 2739 
L 1139 1414 
L 0 0 
L 563 0 
L 1363 1121 
L 2195 0 
L 2758 0 
L 1587 1414 
z
" transform="scale(0.015625)"/>
     </defs>
     <use xlink:href="#CMSS17-78" transform="scale(0.996264)"/>
    </g>
   </g>
   <g id="Line3DCollection_1">
    <path d="M 172.093316 258.427334 
L 384.24825 253.929117 
L 384.24825 82.330343 
" style="fill: none; stroke: #b0b0b0; stroke-width: 0.8"/>
    <path d="M 155.097002 256.430964 
L 363.619066 252.124705 
L 363.619066 84.134754 
" style="fill: none; stroke: #b0b0b0; stroke-width: 0.8"/>
    <path d="M 138.835968 254.520959 
L 343.839698 250.394626 
L 343.839698 85.864833 
" style="fill: none; stroke: #b0b0b0; stroke-width: 0.8"/>
    <path d="M 123.26351 252.691833 
L 324.858693 248.734379 
L 324.858693 87.525081 
" style="fill: none; stroke: #b0b0b0; stroke-width: 0.8"/>
    <path d="M 108.336798 250.938556 
L 306.628671 247.139819 
L 306.628671 89.11964 
" style="fill: none; stroke: #b0b0b0; stroke-width: 0.8"/>
    <path d="M 94.016482 249.256506 
L 289.105927 245.607124 
L 289.105927 90.652335 
" style="fill: none; stroke: #b0b0b0; stroke-width: 0.8"/>
   </g>
   <g id="xtick_1">
    <g id="line2d_2">
     <path d="M 173.878788 258.389478 
L 168.517875 258.503143 
" style="fill: none; stroke: #000000; stroke-width: 0.8; stroke-linecap: square"/>
    </g>
    <g id="text_2">
     <!-- $\mathdefault{0}$ -->
     <g transform="translate(155.289749 277.226106)scale(0.1 -0.1)">
      <defs>
       <path id="CMR17-30" d="M 2688 2025 
C 2688 2416 2682 3080 2413 3591 
C 2176 4039 1798 4198 1466 4198 
C 1158 4198 768 4058 525 3597 
C 269 3118 243 2524 243 2025 
C 243 1661 250 1106 448 619 
C 723 -39 1216 -128 1466 -128 
C 1760 -128 2208 -7 2470 600 
C 2662 1042 2688 1559 2688 2025 
z
M 1466 -26 
C 1056 -26 813 325 723 812 
C 653 1188 653 1738 653 2096 
C 653 2588 653 2997 736 3387 
C 858 3929 1216 4096 1466 4096 
C 1728 4096 2067 3923 2189 3400 
C 2272 3036 2278 2607 2278 2096 
C 2278 1680 2278 1169 2202 792 
C 2067 95 1690 -26 1466 -26 
z
" transform="scale(0.015625)"/>
      </defs>
      <use xlink:href="#CMR17-30" transform="scale(0.996264)"/>
     </g>
    </g>
   </g>
   <g id="xtick_2">
    <g id="line2d_3">
     <path d="M 156.849984 256.394763 
L 151.586721 256.503456 
" style="fill: none; stroke: #000000; stroke-width: 0.8; stroke-linecap: square"/>
    </g>
    <g id="text_3">
     <!-- $\mathdefault{1}$ -->
     <g transform="translate(138.555062 274.959654)scale(0.1 -0.1)">
      <defs>
       <path id="CMR17-31" d="M 1702 4058 
C 1702 4192 1696 4192 1606 4192 
C 1357 3916 979 3827 621 3827 
C 602 3827 570 3827 563 3808 
C 557 3795 557 3782 557 3648 
C 755 3648 1088 3686 1344 3839 
L 1344 461 
C 1344 236 1331 160 781 160 
L 589 160 
L 589 0 
C 896 0 1216 0 1523 0 
C 1830 0 2150 0 2458 0 
L 2458 160 
L 2266 160 
C 1715 160 1702 230 1702 458 
L 1702 4058 
z
" transform="scale(0.015625)"/>
      </defs>
      <use xlink:href="#CMR17-31" transform="scale(0.996264)"/>
     </g>
    </g>
   </g>
   <g id="xtick_3">
    <g id="line2d_4">
     <path d="M 140.557569 254.486306 
L 135.388616 254.590347 
" style="fill: none; stroke: #000000; stroke-width: 0.8; stroke-linecap: square"/>
    </g>
    <g id="text_4">
     <!-- $\mathdefault{2}$ -->
     <g transform="translate(122.546663 272.791566)scale(0.1 -0.1)">
      <defs>
       <path id="CMR17-32" d="M 2669 989 
L 2554 989 
C 2490 536 2438 459 2413 420 
C 2381 369 1920 369 1830 369 
L 602 369 
C 832 619 1280 1072 1824 1597 
C 2214 1967 2669 2402 2669 3035 
C 2669 3790 2067 4224 1395 4224 
C 691 4224 262 3604 262 3030 
C 262 2780 448 2748 525 2748 
C 589 2748 781 2787 781 3010 
C 781 3207 614 3264 525 3264 
C 486 3264 448 3258 422 3245 
C 544 3790 915 4058 1306 4058 
C 1862 4058 2227 3617 2227 3035 
C 2227 2479 1901 2000 1536 1584 
L 262 146 
L 262 0 
L 2515 0 
L 2669 989 
z
" transform="scale(0.015625)"/>
      </defs>
      <use xlink:href="#CMR17-32" transform="scale(0.996264)"/>
     </g>
    </g>
   </g>
   <g id="xtick_4">
    <g id="line2d_5">
     <path d="M 124.954789 252.658632 
L 119.876962 252.758313 
" style="fill: none; stroke: #000000; stroke-width: 0.8; stroke-linecap: square"/>
    </g>
    <g id="text_5">
     <!-- $\mathdefault{3}$ -->
     <g transform="translate(107.218277 270.715574)scale(0.1 -0.1)">
      <defs>
       <path id="CMR17-33" d="M 1414 2157 
C 1984 2157 2234 1662 2234 1090 
C 2234 320 1824 25 1453 25 
C 1114 25 563 194 390 693 
C 422 680 454 680 486 680 
C 640 680 755 782 755 948 
C 755 1133 614 1216 486 1216 
C 378 1216 211 1165 211 926 
C 211 335 787 -128 1466 -128 
C 2176 -128 2720 430 2720 1085 
C 2720 1707 2208 2157 1600 2227 
C 2086 2328 2554 2756 2554 3329 
C 2554 3820 2048 4179 1472 4179 
C 890 4179 378 3829 378 3329 
C 378 3110 544 3072 627 3072 
C 762 3072 877 3155 877 3321 
C 877 3486 762 3569 627 3569 
C 602 3569 570 3569 544 3557 
C 730 3959 1235 4032 1459 4032 
C 1683 4032 2106 3925 2106 3320 
C 2106 3143 2080 2828 1862 2550 
C 1670 2304 1453 2304 1242 2284 
C 1210 2284 1062 2269 1037 2269 
C 992 2263 966 2257 966 2208 
C 966 2163 973 2157 1101 2157 
L 1414 2157 
z
" transform="scale(0.015625)"/>
      </defs>
      <use xlink:href="#CMR17-33" transform="scale(0.996264)"/>
     </g>
    </g>
   </g>
   <g id="xtick_5">
    <g id="line2d_6">
     <path d="M 109.998763 250.906717 
L 105.009029 251.002307 
" style="fill: none; stroke: #000000; stroke-width: 0.8; stroke-linecap: square"/>
    </g>
    <g id="text_6">
     <!-- $\mathdefault{4}$ -->
     <g transform="translate(92.527474 268.725934)scale(0.1 -0.1)">
      <defs>
       <path id="CMR17-34" d="M 2150 4122 
C 2150 4256 2144 4256 2029 4256 
L 128 1254 
L 128 1088 
L 1779 1088 
L 1779 457 
C 1779 224 1766 160 1318 160 
L 1197 160 
L 1197 0 
C 1402 0 1747 0 1965 0 
C 2182 0 2528 0 2733 0 
L 2733 160 
L 2611 160 
C 2163 160 2150 224 2150 457 
L 2150 1088 
L 2803 1088 
L 2803 1254 
L 2150 1254 
L 2150 4122 
z
M 1798 3703 
L 1798 1254 
L 256 1254 
L 1798 3703 
z
" transform="scale(0.015625)"/>
      </defs>
      <use xlink:href="#CMR17-34" transform="scale(0.996264)"/>
     </g>
    </g>
   </g>
   <g id="xtick_6">
    <g id="line2d_7">
     <path d="M 95.650096 249.225947 
L 90.745559 249.317692 
" style="fill: none; stroke: #000000; stroke-width: 0.8; stroke-linecap: square"/>
    </g>
    <g id="text_7">
     <!-- $\mathdefault{5}$ -->
     <g transform="translate(78.435285 266.817367)scale(0.1 -0.1)">
      <defs>
       <path id="CMR17-35" d="M 730 3692 
C 794 3666 1056 3584 1325 3584 
C 1920 3584 2246 3911 2432 4100 
C 2432 4157 2432 4192 2394 4192 
C 2387 4192 2374 4192 2323 4163 
C 2099 4058 1837 3973 1517 3973 
C 1325 3973 1037 3999 723 4139 
C 653 4171 640 4171 634 4171 
C 602 4171 595 4164 595 4037 
L 595 2203 
C 595 2089 595 2057 659 2057 
C 691 2057 704 2070 736 2114 
C 941 2401 1222 2522 1542 2522 
C 1766 2522 2246 2382 2246 1289 
C 2246 1085 2246 715 2054 421 
C 1894 159 1645 25 1370 25 
C 947 25 518 320 403 814 
C 429 807 480 795 506 795 
C 589 795 749 840 749 1038 
C 749 1210 627 1280 506 1280 
C 358 1280 262 1190 262 1011 
C 262 454 704 -128 1382 -128 
C 2042 -128 2669 440 2669 1264 
C 2669 2030 2170 2624 1549 2624 
C 1222 2624 947 2503 730 2274 
L 730 3692 
z
" transform="scale(0.015625)"/>
      </defs>
      <use xlink:href="#CMR17-35" transform="scale(0.996264)"/>
     </g>
    </g>
   </g>
  </g>
  <g id="axis3d_2">
   <g id="line2d_8">
    <path d="M 386.448209 254.121545 
L 173.908067 258.640493 
" style="fill: none; stroke: #000000; stroke-width: 0.8; stroke-linecap: square"/>
   </g>
   <g id="text_8">
    <!-- y -->
    <g transform="translate(293.606841 286.635707)scale(0.16 -0.16)">
     <defs>
      <path id="CMSS17-79" d="M 2675 2752 
L 2176 2752 
C 1632 1294 1446 702 1434 383 
L 1427 383 
C 1408 696 1126 1460 902 2007 
L 602 2752 
L 83 2752 
L 1216 13 
C 1146 -178 1043 -465 1011 -529 
C 870 -885 774 -885 672 -885 
C 646 -885 442 -885 211 -809 
L 250 -1229 
C 410 -1261 570 -1280 685 -1280 
C 845 -1280 1165 -1280 1459 -497 
L 2675 2752 
z
" transform="scale(0.015625)"/>
     </defs>
     <use xlink:href="#CMSS17-79" transform="scale(0.996264)"/>
    </g>
   </g>
   <g id="Line3DCollection_2">
    <path d="M 265.628605 90.403814 
L 265.628605 245.855646 
L 362.888041 254.622472 
" style="fill: none; stroke: #b0b0b0; stroke-width: 0.8"/>
    <path d="M 229.222786 89.724466 
L 229.222786 246.534994 
L 323.282868 255.464543 
" style="fill: none; stroke: #b0b0b0; stroke-width: 0.8"/>
    <path d="M 192.17496 89.033137 
L 192.17496 247.226322 
L 282.898942 256.32317 
" style="fill: none; stroke: #b0b0b0; stroke-width: 0.8"/>
    <path d="M 154.467994 88.329509 
L 154.467994 247.92995 
L 241.713067 257.198849 
" style="fill: none; stroke: #b0b0b0; stroke-width: 0.8"/>
    <path d="M 116.084138 87.61325 
L 116.084138 248.646209 
L 199.701116 258.092091 
" style="fill: none; stroke: #b0b0b0; stroke-width: 0.8"/>
   </g>
   <g id="xtick_7">
    <g id="line2d_9">
     <path d="M 362.022985 254.544497 
L 364.622843 254.778845 
" style="fill: none; stroke: #000000; stroke-width: 0.8; stroke-linecap: square"/>
    </g>
    <g id="text_9">
     <!-- $\mathdefault{−4}$ -->
     <g transform="translate(363.487852 273.300842)scale(0.1 -0.1)">
      <defs>
       <path id="CMSY10-0" d="M 4218 1472 
C 4326 1472 4442 1472 4442 1600 
C 4442 1728 4326 1728 4218 1728 
L 755 1728 
C 646 1728 531 1728 531 1600 
C 531 1472 646 1472 755 1472 
L 4218 1472 
z
" transform="scale(0.015625)"/>
      </defs>
      <use xlink:href="#CMSY10-0" transform="scale(0.996264)"/>
      <use xlink:href="#CMR17-34" transform="translate(77.487468 0)scale(0.996264)"/>
     </g>
    </g>
   </g>
   <g id="xtick_8">
    <g id="line2d_10">
     <path d="M 322.44545 255.385043 
L 324.962289 255.623978 
" style="fill: none; stroke: #000000; stroke-width: 0.8; stroke-linecap: square"/>
    </g>
    <g id="text_10">
     <!-- $\mathdefault{−2}$ -->
     <g transform="translate(323.660693 274.264414)scale(0.1 -0.1)">
      <use xlink:href="#CMSY10-0" transform="scale(0.996264)"/>
      <use xlink:href="#CMR17-32" transform="translate(77.487468 0)scale(0.996264)"/>
     </g>
    </g>
   </g>
   <g id="xtick_9">
    <g id="line2d_11">
     <path d="M 282.090421 256.2421 
L 284.520455 256.485759 
" style="fill: none; stroke: #000000; stroke-width: 0.8; stroke-linecap: square"/>
    </g>
    <g id="text_11">
     <!-- $\mathdefault{0}$ -->
     <g transform="translate(286.918992 275.247074)scale(0.1 -0.1)">
      <use xlink:href="#CMR17-30" transform="scale(0.996264)"/>
     </g>
    </g>
   </g>
   <g id="xtick_10">
    <g id="line2d_12">
     <path d="M 240.934761 257.116162 
L 243.274028 257.364685 
" style="fill: none; stroke: #000000; stroke-width: 0.8; stroke-linecap: square"/>
    </g>
    <g id="text_12">
     <!-- $\mathdefault{2}$ -->
     <g transform="translate(245.49033 276.249393)scale(0.1 -0.1)">
      <use xlink:href="#CMR17-32" transform="scale(0.996264)"/>
     </g>
    </g>
   </g>
   <g id="xtick_11">
    <g id="line2d_13">
     <path d="M 198.954404 258.007738 
L 201.198753 258.261273 
" style="fill: none; stroke: #000000; stroke-width: 0.8; stroke-linecap: square"/>
    </g>
    <g id="text_13">
     <!-- $\mathdefault{4}$ -->
     <g transform="translate(203.224446 277.271967)scale(0.1 -0.1)">
      <use xlink:href="#CMR17-34" transform="scale(0.996264)"/>
     </g>
    </g>
   </g>
  </g>
  <g id="axis3d_3">
   <g id="line2d_14">
    <path d="M 386.448209 254.121545 
L 386.448209 82.137915 
" style="fill: none; stroke: #000000; stroke-width: 0.8; stroke-linecap: square"/>
   </g>
   <g id="text_14">
    <!-- z -->
    <g transform="translate(426.798086 172.114786)scale(0.16 -0.16)">
     <defs>
      <path id="CMSS17-7a" d="M 2400 2502 
L 2400 2750 
L 250 2750 
L 250 2368 
L 1069 2368 
C 1146 2368 1222 2368 1299 2368 
L 1747 2368 
L 166 261 
L 166 0 
L 2419 0 
L 2419 395 
L 1549 395 
C 1472 395 1395 395 1318 395 
L 826 395 
L 2400 2502 
z
" transform="scale(0.015625)"/>
     </defs>
     <use xlink:href="#CMSS17-7a" transform="scale(0.996264)"/>
    </g>
   </g>
   <g id="Line3DCollection_3">
    <path d="M 386.448209 250.681872 
L 287.319659 242.358036 
L 92.558168 245.846994 
" style="fill: none; stroke: #b0b0b0; stroke-width: 0.8"/>
    <path d="M 386.448209 217.661015 
L 287.319659 212.666713 
L 92.558168 214.760089 
" style="fill: none; stroke: #b0b0b0; stroke-width: 0.8"/>
    <path d="M 386.448209 184.640158 
L 287.319659 182.975391 
L 92.558168 183.673183 
" style="fill: none; stroke: #b0b0b0; stroke-width: 0.8"/>
    <path d="M 386.448209 151.619301 
L 287.319659 153.284069 
L 92.558168 152.586277 
" style="fill: none; stroke: #b0b0b0; stroke-width: 0.8"/>
    <path d="M 386.448209 118.598444 
L 287.319659 123.592746 
L 92.558168 121.499371 
" style="fill: none; stroke: #b0b0b0; stroke-width: 0.8"/>
    <path d="M 386.448209 85.577587 
L 287.319659 93.901424 
L 92.558168 90.412465 
" style="fill: none; stroke: #b0b0b0; stroke-width: 0.8"/>
   </g>
   <g id="xtick_12">
    <g id="line2d_15">
     <path d="M 385.567043 250.607881 
L 388.215294 250.830255 
" style="fill: none; stroke: #000000; stroke-width: 0.8; stroke-linecap: square"/>
    </g>
    <g id="text_15">
     <!-- $\mathdefault{0}$ -->
     <g transform="translate(403.981532 257.929792)scale(0.1 -0.1)">
      <use xlink:href="#CMR17-30" transform="scale(0.996264)"/>
     </g>
    </g>
   </g>
   <g id="xtick_13">
    <g id="line2d_16">
     <path d="M 385.567043 217.61662 
L 388.215294 217.750045 
" style="fill: none; stroke: #000000; stroke-width: 0.8; stroke-linecap: square"/>
    </g>
    <g id="text_16">
     <!-- $\mathdefault{1}$ -->
     <g transform="translate(403.981532 224.777166)scale(0.1 -0.1)">
      <use xlink:href="#CMR17-31" transform="scale(0.996264)"/>
     </g>
    </g>
   </g>
   <g id="xtick_14">
    <g id="line2d_17">
     <path d="M 385.567043 184.62536 
L 388.215294 184.669835 
" style="fill: none; stroke: #000000; stroke-width: 0.8; stroke-linecap: square"/>
    </g>
    <g id="text_17">
     <!-- $\mathdefault{2}$ -->
     <g transform="translate(403.981532 191.624541)scale(0.1 -0.1)">
      <use xlink:href="#CMR17-32" transform="scale(0.996264)"/>
     </g>
    </g>
   </g>
   <g id="xtick_15">
    <g id="line2d_18">
     <path d="M 385.567043 151.6341 
L 388.215294 151.589625 
" style="fill: none; stroke: #000000; stroke-width: 0.8; stroke-linecap: square"/>
    </g>
    <g id="text_18">
     <!-- $\mathdefault{3}$ -->
     <g transform="translate(403.981532 158.471915)scale(0.1 -0.1)">
      <use xlink:href="#CMR17-33" transform="scale(0.996264)"/>
     </g>
    </g>
   </g>
   <g id="xtick_16">
    <g id="line2d_19">
     <path d="M 385.567043 118.642839 
L 388.215294 118.509415 
" style="fill: none; stroke: #000000; stroke-width: 0.8; stroke-linecap: square"/>
    </g>
    <g id="text_19">
     <!-- $\mathdefault{4}$ -->
     <g transform="translate(403.981532 125.31929)scale(0.1 -0.1)">
      <use xlink:href="#CMR17-34" transform="scale(0.996264)"/>
     </g>
    </g>
   </g>
   <g id="xtick_17">
    <g id="line2d_20">
     <path d="M 385.567043 85.651579 
L 388.215294 85.429205 
" style="fill: none; stroke: #000000; stroke-width: 0.8; stroke-linecap: square"/>
    </g>
    <g id="text_20">
     <!-- $\mathdefault{5}$ -->
     <g transform="translate(403.981532 92.166665)scale(0.1 -0.1)">
      <use xlink:href="#CMR17-35" transform="scale(0.996264)"/>
     </g>
    </g>
   </g>
  </g>
  <g id="axes_1">
   <g id="line2d_21">
    <path d="M 280.880423 252.601133 
L 201.070393 84.27198 
" clip-path="url(#paaf9427f0b)" style="fill: none; stroke: #ff0000; stroke-width: 1.5; stroke-linecap: square"/>
   </g>
   <g id="line2d_22">
    <path d="M 280.880423 252.601133 
L 282.816664 120.037662 
" clip-path="url(#paaf9427f0b)" style="fill: none; stroke: #00ff00; stroke-width: 1.5; stroke-linecap: square"/>
   </g>
   <g id="line2d_23">
    <path d="M 280.880423 252.601133 
L 216.629729 -1 
" clip-path="url(#paaf9427f0b)" style="fill: none; stroke: #0016ff; stroke-width: 1.5; stroke-linecap: square"/>
   </g>
   <g id="line2d_24">
    <path d="M 280.880423 252.601133 
L 249.227137 153.110842 
" clip-path="url(#paaf9427f0b)" style="fill: none; stroke: #f400ff; stroke-width: 1.5; stroke-linecap: square"/>
   </g>
   <g id="Poly3DCollection_1">
    <path d="M 302.841286 23.882984 
L 294.023186 -16.049222 
L 284.975315 -27.752968 
L 293.723118 12.151314 
z
" clip-path="url(#paaf9427f0b)" style="fill: #0000f5; fill-opacity: 0.1"/>
    <path d="M 293.723118 12.151314 
L 284.975315 -27.752968 
L 275.88778 -39.508022 
L 284.564581 0.367703 
z
" clip-path="url(#paaf9427f0b)" style="fill: #0000f5; fill-opacity: 0.1"/>
    <path d="M 284.564581 0.367703 
L 275.88778 -39.508022 
L 266.76032 -51.314721 
L 275.365404 -11.468195 
z
" clip-path="url(#paaf9427f0b)" style="fill: #0000f5; fill-opacity: 0.1"/>
    <path d="M 275.365404 -11.468195 
L 266.76032 -51.314721 
L 257.59267 -63.173407 
L 266.125318 -23.356729 
z
" clip-path="url(#paaf9427f0b)" style="fill: #0000f5; fill-opacity: 0.1"/>
    <path d="M 266.125318 -23.356729 
L 257.59267 -63.173407 
L 248.384564 -75.084423 
L 256.844049 -35.29825 
z
" clip-path="url(#paaf9427f0b)" style="fill: #0000f5; fill-opacity: 0.1"/>
    <path d="M 311.835736 64.61378 
L 302.841286 23.882984 
L 293.723118 12.151314 
L 302.646256 52.855408 
z
" clip-path="url(#paaf9427f0b)" style="fill: #0000f5; fill-opacity: 0.1"/>
    <path d="M 256.844049 -35.29825 
L 248.384564 -75.084423 
L 239.135735 -87.048117 
L 247.521321 -47.293113 
z
" clip-path="url(#paaf9427f0b)" style="fill: #0000f5; fill-opacity: 0.1"/>
    <path d="M 302.646256 52.855408 
L 293.723118 12.151314 
L 284.564581 0.367703 
L 293.415681 41.044454 
z
" clip-path="url(#paaf9427f0b)" style="fill: #0000f5; fill-opacity: 0.1"/>
    <path d="M 247.521321 -47.293113 
L 239.135735 -87.048117 
L 229.845911 -99.064838 
L 238.156854 -59.341678 
z
" clip-path="url(#paaf9427f0b)" style="fill: #0000f5; fill-opacity: 0.1"/>
    <path d="M 293.415681 41.044454 
L 284.564581 0.367703 
L 275.365404 -11.468195 
L 284.143736 29.180564 
z
" clip-path="url(#paaf9427f0b)" style="fill: #0000f5; fill-opacity: 0.1"/>
    <path d="M 238.156854 -59.341678 
L 229.845911 -99.064838 
L 220.51482 -111.134941 
L 228.75037 -71.444304 
z
" clip-path="url(#paaf9427f0b)" style="fill: #0000f5; fill-opacity: 0.1"/>
    <path d="M 284.143736 29.180564 
L 275.365404 -11.468195 
L 266.125318 -23.356729 
L 274.830141 17.263382 
z
" clip-path="url(#paaf9427f0b)" style="fill: #0000f5; fill-opacity: 0.1"/>
    <path d="M 228.75037 -71.444304 
L 220.51482 -111.134941 
L 211.142185 -123.258782 
L 219.301583 -83.601357 
z
" clip-path="url(#paaf9427f0b)" style="fill: #0000f5; fill-opacity: 0.1"/>
    <path d="M 274.830141 17.263382 
L 266.125318 -23.356729 
L 256.844049 -35.29825 
L 265.474616 5.292548 
z
" clip-path="url(#paaf9427f0b)" style="fill: #0000f5; fill-opacity: 0.1"/>
    <path d="M 321.011879 106.167363 
L 311.835736 64.61378 
L 302.646256 52.855408 
L 311.750052 94.383603 
z
" clip-path="url(#paaf9427f0b)" style="fill: #0000f5; fill-opacity: 0.1"/>
    <path d="M 219.301583 -83.601357 
L 211.142185 -123.258782 
L 201.727729 -135.436721 
L 209.810208 -95.813205 
z
" clip-path="url(#paaf9427f0b)" style="fill: #0000f5; fill-opacity: 0.1"/>
    <path d="M 265.474616 5.292548 
L 256.844049 -35.29825 
L 247.521321 -47.293113 
L 256.076876 -6.732302 
z
" clip-path="url(#paaf9427f0b)" style="fill: #0000f5; fill-opacity: 0.1"/>
    <path d="M 311.750052 94.383603 
L 302.646256 52.855408 
L 293.415681 41.044454 
L 302.446387 82.546613 
z
" clip-path="url(#paaf9427f0b)" style="fill: #0000f5; fill-opacity: 0.1"/>
    <path d="M 209.810208 -95.813205 
L 201.727729 -135.436721 
L 192.271171 -147.669119 
L 200.275957 -108.08022 
z
" clip-path="url(#paaf9427f0b)" style="fill: #0000f5; fill-opacity: 0.1"/>
    <path d="M 256.076876 -6.732302 
L 247.521321 -47.293113 
L 238.156854 -59.341678 
L 246.636636 -18.811534 
z
" clip-path="url(#paaf9427f0b)" style="fill: #0000f5; fill-opacity: 0.1"/>
    <path d="M 302.446387 82.546613 
L 293.415681 41.044454 
L 284.143736 29.180564 
L 293.100599 70.65603 
z
" clip-path="url(#paaf9427f0b)" style="fill: #0000f5; fill-opacity: 0.1"/>
    <path d="M 200.275957 -108.08022 
L 192.271171 -147.669119 
L 182.772227 -159.956345 
L 190.698538 -120.402775 
z
" clip-path="url(#paaf9427f0b)" style="fill: #0000f5; fill-opacity: 0.1"/>
    <path d="M 246.636636 -18.811534 
L 238.156854 -59.341678 
L 228.75037 -71.444304 
L 237.153605 -30.945517 
z
" clip-path="url(#paaf9427f0b)" style="fill: #0000f5; fill-opacity: 0.1"/>
    <path d="M 293.100599 70.65603 
L 284.143736 29.180564 
L 274.830141 17.263382 
L 283.712403 58.711492 
z
" clip-path="url(#paaf9427f0b)" style="fill: #0000f5; fill-opacity: 0.1"/>
    <path d="M 190.698538 -120.402775 
L 182.772227 -159.956345 
L 173.230614 -172.298766 
L 181.077657 -132.781248 
z
" clip-path="url(#paaf9427f0b)" style="fill: #0000f5; fill-opacity: 0.1"/>
    <path d="M 237.153605 -30.945517 
L 228.75037 -71.444304 
L 219.301583 -83.601357 
L 227.627494 -43.134624 
z
" clip-path="url(#paaf9427f0b)" style="fill: #0000f5; fill-opacity: 0.1"/>
    <path d="M 283.712403 58.711492 
L 274.830141 17.263382 
L 265.474616 5.292548 
L 274.281508 46.712628 
z
" clip-path="url(#paaf9427f0b)" style="fill: #0000f5; fill-opacity: 0.1"/>
    <path d="M 181.077657 -132.781248 
L 173.230614 -172.298766 
L 163.646041 -184.696755 
L 171.413019 -145.216022 
z
" clip-path="url(#paaf9427f0b)" style="fill: #0000f5; fill-opacity: 0.1"/>
    <path d="M 330.375278 148.56892 
L 321.011879 106.167363 
L 311.750052 94.383603 
L 321.040051 136.761183 
z
" clip-path="url(#paaf9427f0b)" style="fill: #0000f5; fill-opacity: 0.1"/>
    <path d="M 227.627494 -43.134624 
L 219.301583 -83.601357 
L 209.810208 -95.813205 
L 218.058006 -55.379233 
z
" clip-path="url(#paaf9427f0b)" style="fill: #0000f5; fill-opacity: 0.1"/>
    <path d="M 274.281508 46.712628 
L 265.474616 5.292548 
L 256.076876 -6.732302 
L 264.807623 34.659068 
z
" clip-path="url(#paaf9427f0b)" style="fill: #0000f5; fill-opacity: 0.1"/>
    <path d="M 171.413019 -145.216022 
L 163.646041 -184.696755 
L 154.018219 -197.15069 
L 161.704322 -157.707482 
z
" clip-path="url(#paaf9427f0b)" style="fill: #0000f5; fill-opacity: 0.1"/>
    <path d="M 321.040051 136.761183 
L 311.750052 94.383603 
L 302.446387 82.546613 
L 311.662221 124.899561 
z
" clip-path="url(#paaf9427f0b)" style="fill: #0000f5; fill-opacity: 0.1"/>
    <path d="M 218.058006 -55.379233 
L 209.810208 -95.813205 
L 200.275957 -108.08022 
L 208.444846 -67.679723 
z
" clip-path="url(#paaf9427f0b)" style="fill: #0000f5; fill-opacity: 0.1"/>
    <path d="M 264.807623 34.659068 
L 256.076876 -6.732302 
L 246.636636 -18.811534 
L 255.290453 22.550437 
z
" clip-path="url(#paaf9427f0b)" style="fill: #0000f5; fill-opacity: 0.1"/>
    <path d="M 161.704322 -157.707482 
L 154.018219 -197.15069 
L 144.346854 -209.660949 
L 151.951267 -170.256015 
z
" clip-path="url(#paaf9427f0b)" style="fill: #0000f5; fill-opacity: 0.1"/>
    <path d="M 311.662221 124.899561 
L 302.446387 82.546613 
L 293.100599 70.65603 
L 302.241498 112.983683 
z
" clip-path="url(#paaf9427f0b)" style="fill: #0000f5; fill-opacity: 0.1"/>
    <path d="M 208.444846 -67.679723 
L 200.275957 -108.08022 
L 190.698538 -120.402775 
L 198.787714 -80.036478 
z
" clip-path="url(#paaf9427f0b)" style="fill: #0000f5; fill-opacity: 0.1"/>
    <path d="M 255.290453 22.550437 
L 246.636636 -18.811534 
L 237.153605 -30.945517 
L 245.729701 10.386357 
z
" clip-path="url(#paaf9427f0b)" style="fill: #0000f5; fill-opacity: 0.1"/>
    <path d="M 151.951267 -170.256015 
L 144.346854 -209.660949 
L 134.631651 -222.227915 
L 142.153548 -182.862014 
z
" clip-path="url(#paaf9427f0b)" style="fill: #0000f5; fill-opacity: 0.1"/>
    <path d="M 302.241498 112.983683 
L 293.100599 70.65603 
L 283.712403 58.711492 
L 292.777585 101.013177 
z
" clip-path="url(#paaf9427f0b)" style="fill: #0000f5; fill-opacity: 0.1"/>
    <path d="M 198.787714 -80.036478 
L 190.698538 -120.402775 
L 181.077657 -132.781248 
L 189.086308 -92.449884 
z
" clip-path="url(#paaf9427f0b)" style="fill: #0000f5; fill-opacity: 0.1"/>
    <path d="M 245.729701 10.386357 
L 237.153605 -30.945517 
L 227.627494 -43.134624 
L 236.125067 -1.833554 
z
" clip-path="url(#paaf9427f0b)" style="fill: #0000f5; fill-opacity: 0.1"/>
    <path d="M 142.153548 -182.862014 
L 134.631651 -222.227915 
L 124.872309 -234.851975 
L 132.310857 -195.525875 
z
" clip-path="url(#paaf9427f0b)" style="fill: #0000f5; fill-opacity: 0.1"/>
    <path d="M 292.777585 101.013177 
L 283.712403 58.711492 
L 274.281508 46.712628 
L 283.270185 88.987667 
z
" clip-path="url(#paaf9427f0b)" style="fill: #0000f5; fill-opacity: 0.1"/>
    <path d="M 189.086308 -92.449884 
L 181.077657 -132.781248 
L 171.413019 -145.216022 
L 179.340321 -104.920331 
z
" clip-path="url(#paaf9427f0b)" style="fill: #0000f5; fill-opacity: 0.1"/>
    <path d="M 339.931723 191.844674 
L 330.375278 148.56892 
L 321.040051 136.761183 
L 330.522023 180.014475 
z
" clip-path="url(#paaf9427f0b)" style="fill: #0000f5; fill-opacity: 0.1"/>
    <path d="M 236.125067 -1.833554 
L 227.627494 -43.134624 
L 218.058006 -55.379233 
L 226.476248 -14.109682 
z
" clip-path="url(#paaf9427f0b)" style="fill: #0000f5; fill-opacity: 0.1"/>
    <path d="M 132.310857 -195.525875 
L 124.872309 -234.851975 
L 115.068528 -247.533519 
L 122.422884 -208.247996 
z
" clip-path="url(#paaf9427f0b)" style="fill: #0000f5; fill-opacity: 0.1"/>
    <path d="M 283.270185 88.987667 
L 274.281508 46.712628 
L 264.807623 34.659068 
L 273.718998 76.906772 
z
" clip-path="url(#paaf9427f0b)" style="fill: #0000f5; fill-opacity: 0.1"/>
    <path d="M 179.340321 -104.920331 
L 171.413019 -145.216022 
L 161.704322 -157.707482 
L 169.549447 -117.448215 
z
" clip-path="url(#paaf9427f0b)" style="fill: #0000f5; fill-opacity: 0.1"/>
    <path d="M 330.522023 180.014475 
L 321.040051 136.761183 
L 311.662221 124.899561 
L 321.068935 168.12973 
z
" clip-path="url(#paaf9427f0b)" style="fill: #0000f5; fill-opacity: 0.1"/>
    <path d="M 226.476248 -14.109682 
L 218.058006 -55.379233 
L 208.444846 -67.679723 
L 216.782938 -26.442414 
z
" clip-path="url(#paaf9427f0b)" style="fill: #0000f5; fill-opacity: 0.1"/>
    <path d="M 273.718998 76.906772 
L 264.807623 34.659068 
L 255.290453 22.550437 
L 264.12372 64.770109 
z
" clip-path="url(#paaf9427f0b)" style="fill: #0000f5; fill-opacity: 0.1"/>
    <path d="M 169.549447 -117.448215 
L 161.704322 -157.707482 
L 151.951267 -170.256015 
L 159.713374 -130.033933 
z
" clip-path="url(#paaf9427f0b)" style="fill: #0000f5; fill-opacity: 0.1"/>
    <path d="M 321.068935 168.12973 
L 311.662221 124.899561 
L 302.241498 112.983683 
L 311.572161 156.190059 
z
" clip-path="url(#paaf9427f0b)" style="fill: #0000f5; fill-opacity: 0.1"/>
    <path d="M 216.782938 -26.442414 
L 208.444846 -67.679723 
L 198.787714 -80.036478 
L 207.044828 -38.832144 
z
" clip-path="url(#paaf9427f0b)" style="fill: #0000f5; fill-opacity: 0.1"/>
    <path d="M 264.12372 64.770109 
L 255.290453 22.550437 
L 245.729701 10.386357 
L 254.484046 52.57729 
z
" clip-path="url(#paaf9427f0b)" style="fill: #0000f5; fill-opacity: 0.1"/>
    <path d="M 159.713374 -130.033933 
L 151.951267 -170.256015 
L 142.153548 -182.862014 
L 149.831789 -142.677886 
z
" clip-path="url(#paaf9427f0b)" style="fill: #0000f5; fill-opacity: 0.1"/>
    <path d="M 311.572161 156.190059 
L 302.241498 112.983683 
L 292.777585 101.013177 
L 302.031396 144.195081 
z
" clip-path="url(#paaf9427f0b)" style="fill: #0000f5; fill-opacity: 0.1"/>
    <path d="M 207.044828 -38.832144 
L 198.787714 -80.036478 
L 189.086308 -92.449884 
L 197.261609 -51.279268 
z
" clip-path="url(#paaf9427f0b)" style="fill: #0000f5; fill-opacity: 0.1"/>
    <path d="M 254.484046 52.57729 
L 245.729701 10.386357 
L 236.125067 -1.833554 
L 244.799667 40.327926 
z
" clip-path="url(#paaf9427f0b)" style="fill: #0000f5; fill-opacity: 0.1"/>
    <path d="M 149.831789 -142.677886 
L 142.153548 -182.862014 
L 132.310857 -195.525875 
L 139.904375 -155.380479 
z
" clip-path="url(#paaf9427f0b)" style="fill: #0000f5; fill-opacity: 0.1"/>
    <path d="M 302.031396 144.195081 
L 292.777585 101.013177 
L 283.270185 88.987667 
L 292.446333 132.144412 
z
" clip-path="url(#paaf9427f0b)" style="fill: #0000f5; fill-opacity: 0.1"/>
    <path d="M 197.261609 -51.279268 
L 189.086308 -92.449884 
L 179.340321 -104.920331 
L 187.432965 -63.784186 
z
" clip-path="url(#paaf9427f0b)" style="fill: #0000f5; fill-opacity: 0.1"/>
    <path d="M 349.687247 236.021942 
L 339.931723 191.844674 
L 330.522023 180.014475 
L 340.201981 224.170908 
z
" clip-path="url(#paaf9427f0b)" style="fill: #0000f5; fill-opacity: 0.1"/>
    <path d="M 244.799667 40.327926 
L 236.125067 -1.833554 
L 226.476248 -14.109682 
L 235.07027 28.021621 
z
" clip-path="url(#paaf9427f0b)" style="fill: #0000f5; fill-opacity: 0.1"/>
    <path d="M 139.904375 -155.380479 
L 132.310857 -195.525875 
L 122.422884 -208.247996 
L 129.930812 -168.142121 
z
" clip-path="url(#paaf9427f0b)" style="fill: #0000f5; fill-opacity: 0.1"/>
    <path d="M 292.446333 132.144412 
L 283.270185 88.987667 
L 273.718998 76.906772 
L 282.816664 120.037662 
z
" clip-path="url(#paaf9427f0b)" style="fill: #0000f5; fill-opacity: 0.1"/>
    <path d="M 187.432965 -63.784186 
L 179.340321 -104.920331 
L 169.549447 -117.448215 
L 177.558579 -76.3473 
z
" clip-path="url(#paaf9427f0b)" style="fill: #0000f5; fill-opacity: 0.1"/>
    <path d="M 340.201981 224.170908 
L 330.522023 180.014475 
L 321.068935 168.12973 
L 330.672522 212.264659 
z
" clip-path="url(#paaf9427f0b)" style="fill: #0000f5; fill-opacity: 0.1"/>
    <path d="M 235.07027 28.021621 
L 226.476248 -14.109682 
L 216.782938 -26.442414 
L 225.295542 15.657979 
z
" clip-path="url(#paaf9427f0b)" style="fill: #0000f5; fill-opacity: 0.1"/>
    <path d="M 282.816664 120.037662 
L 273.718998 76.906772 
L 264.12372 64.770109 
L 273.142077 107.874439 
z
" clip-path="url(#paaf9427f0b)" style="fill: #0000f5; fill-opacity: 0.1"/>
    <path d="M 177.558579 -76.3473 
L 169.549447 -117.448215 
L 159.713374 -130.033933 
L 167.638132 -88.969018 
z
" clip-path="url(#paaf9427f0b)" style="fill: #0000f5; fill-opacity: 0.1"/>
    <path d="M 330.672522 212.264659 
L 321.068935 168.12973 
L 311.572161 156.190059 
L 321.098561 200.302809 
z
" clip-path="url(#paaf9427f0b)" style="fill: #0000f5; fill-opacity: 0.1"/>
    <path d="M 225.295542 15.657979 
L 216.782938 -26.442414 
L 207.044828 -38.832144 
L 215.475165 3.236596 
z
" clip-path="url(#paaf9427f0b)" style="fill: #0000f5; fill-opacity: 0.1"/>
    <path d="M 273.142077 107.874439 
L 264.12372 64.770109 
L 254.484046 52.57729 
L 263.422256 95.654346 
z
" clip-path="url(#paaf9427f0b)" style="fill: #0000f5; fill-opacity: 0.1"/>
    <path d="M 167.638132 -88.969018 
L 159.713374 -130.033933 
L 149.831789 -142.677886 
L 157.6713 -101.649751 
z
" clip-path="url(#paaf9427f0b)" style="fill: #0000f5; fill-opacity: 0.1"/>
    <path d="M 321.098561 200.302809 
L 311.572161 156.190059 
L 302.031396 144.195081 
L 311.479785 188.284966 
z
" clip-path="url(#paaf9427f0b)" style="fill: #0000f5; fill-opacity: 0.1"/>
    <path d="M 215.475165 3.236596 
L 207.044828 -38.832144 
L 197.261609 -51.279268 
L 205.608818 -9.242932 
z
" clip-path="url(#paaf9427f0b)" style="fill: #0000f5; fill-opacity: 0.1"/>
    <path d="M 263.422256 95.654346 
L 254.484046 52.57729 
L 244.799667 40.327926 
L 253.656883 83.376985 
z
" clip-path="url(#paaf9427f0b)" style="fill: #0000f5; fill-opacity: 0.1"/>
    <path d="M 157.6713 -101.649751 
L 149.831789 -142.677886 
L 139.904375 -155.380479 
L 147.657757 -114.389914 
z
" clip-path="url(#paaf9427f0b)" style="fill: #0000f5; fill-opacity: 0.1"/>
    <path d="M 311.479785 188.284966 
L 302.031396 144.195081 
L 292.446333 132.144412 
L 301.81588 176.210737 
z
" clip-path="url(#paaf9427f0b)" style="fill: #0000f5; fill-opacity: 0.1"/>
    <path d="M 205.608818 -9.242932 
L 197.261609 -51.279268 
L 187.432965 -63.784186 
L 195.696177 -21.781014 
z
" clip-path="url(#paaf9427f0b)" style="fill: #0000f5; fill-opacity: 0.1"/>
    <path d="M 359.648135 281.129192 
L 349.687247 236.021942 
L 340.201981 224.170908 
L 350.086191 269.259067 
z
" clip-path="url(#paaf9427f0b)" style="fill: #0000f5; fill-opacity: 0.1"/>
    <path d="M 253.656883 83.376985 
L 244.799667 40.327926 
L 235.07027 28.021621 
L 243.845639 71.041951 
z
" clip-path="url(#paaf9427f0b)" style="fill: #0000f5; fill-opacity: 0.1"/>
    <path d="M 147.657757 -114.389914 
L 139.904375 -155.380479 
L 129.930812 -168.142121 
L 137.597174 -127.189925 
z
" clip-path="url(#paaf9427f0b)" style="fill: #0000f5; fill-opacity: 0.1"/>
    <path d="M 301.81588 176.210737 
L 292.446333 132.144412 
L 282.816664 120.037662 
L 292.106526 164.079725 
z
" clip-path="url(#paaf9427f0b)" style="fill: #0000f5; fill-opacity: 0.1"/>
    <path d="M 195.696177 -21.781014 
L 187.432965 -63.784186 
L 177.558579 -76.3473 
L 185.736917 -34.378063 
z
" clip-path="url(#paaf9427f0b)" style="fill: #0000f5; fill-opacity: 0.1"/>
    <path d="M 350.086191 269.259067 
L 340.201981 224.170908 
L 330.672522 212.264659 
L 340.479226 257.333053 
z
" clip-path="url(#paaf9427f0b)" style="fill: #0000f5; fill-opacity: 0.1"/>
    <path d="M 243.845639 71.041951 
L 235.07027 28.021621 
L 225.295542 15.657979 
L 233.988197 58.648838 
z
" clip-path="url(#paaf9427f0b)" style="fill: #0000f5; fill-opacity: 0.1"/>
    <path d="M 292.106526 164.079725 
L 282.816664 120.037662 
L 273.142077 107.874439 
L 282.351402 151.891527 
z
" clip-path="url(#paaf9427f0b)" style="fill: #0000f5; fill-opacity: 0.1"/>
    <path d="M 185.736917 -34.378063 
L 177.558579 -76.3473 
L 167.638132 -88.969018 
L 175.730707 -47.034498 
z
" clip-path="url(#paaf9427f0b)" style="fill: #0000f5; fill-opacity: 0.1"/>
    <path d="M 340.479226 257.333053 
L 330.672522 212.264659 
L 321.098561 200.302809 
L 330.826922 245.350755 
z
" clip-path="url(#paaf9427f0b)" style="fill: #0000f5; fill-opacity: 0.1"/>
    <path d="M 233.988197 58.648838 
L 225.295542 15.657979 
L 215.475165 3.236596 
L 224.084232 46.197233 
z
" clip-path="url(#paaf9427f0b)" style="fill: #0000f5; fill-opacity: 0.1"/>
    <path d="M 282.351402 151.891527 
L 273.142077 107.874439 
L 263.422256 95.654346 
L 272.550184 139.645738 
z
" clip-path="url(#paaf9427f0b)" style="fill: #0000f5; fill-opacity: 0.1"/>
    <path d="M 175.730707 -47.034498 
L 167.638132 -88.969018 
L 157.6713 -101.649751 
L 165.677215 -59.750737 
z
" clip-path="url(#paaf9427f0b)" style="fill: #0000f5; fill-opacity: 0.1"/>
    <path d="M 330.826922 245.350755 
L 321.098561 200.302809 
L 311.479785 188.284966 
L 321.128956 233.311774 
z
" clip-path="url(#paaf9427f0b)" style="fill: #0000f5; fill-opacity: 0.1"/>
    <path d="M 224.084232 46.197233 
L 215.475165 3.236596 
L 205.608818 -9.242932 
L 214.133414 33.686723 
z
" clip-path="url(#paaf9427f0b)" style="fill: #0000f5; fill-opacity: 0.1"/>
    <path d="M 272.550184 139.645738 
L 263.422256 95.654346 
L 253.656883 83.376985 
L 262.702545 127.34195 
z
" clip-path="url(#paaf9427f0b)" style="fill: #0000f5; fill-opacity: 0.1"/>
    <path d="M 165.677215 -59.750737 
L 157.6713 -101.649751 
L 147.657757 -114.389914 
L 155.576105 -72.527207 
z
" clip-path="url(#paaf9427f0b)" style="fill: #0000f5; fill-opacity: 0.1"/>
    <path d="M 321.128956 233.311774 
L 311.479785 188.284966 
L 301.81588 176.210737 
L 311.385004 221.215705 
z
" clip-path="url(#paaf9427f0b)" style="fill: #0000f5; fill-opacity: 0.1"/>
    <path d="M 214.133414 33.686723 
L 205.608818 -9.242932 
L 195.696177 -21.781014 
L 204.135408 21.116888 
z
" clip-path="url(#paaf9427f0b)" style="fill: #0000f5; fill-opacity: 0.1"/>
    <path d="M 369.820942 327.1961 
L 359.648135 281.129192 
L 350.086191 269.259067 
L 360.181188 315.308755 
z
" clip-path="url(#paaf9427f0b)" style="fill: #0000f5; fill-opacity: 0.1"/>
    <path d="M 262.702545 127.34195 
L 253.656883 83.376985 
L 243.845639 71.041951 
L 252.808153 114.979748 
z
" clip-path="url(#paaf9427f0b)" style="fill: #0000f5; fill-opacity: 0.1"/>
    <path d="M 155.576105 -72.527207 
L 147.657757 -114.389914 
L 137.597174 -127.189925 
L 145.427037 -85.364336 
z
" clip-path="url(#paaf9427f0b)" style="fill: #0000f5; fill-opacity: 0.1"/>
    <path d="M 311.385004 221.215705 
L 301.81588 176.210737 
L 292.106526 164.079725 
L 301.594738 209.062143 
z
" clip-path="url(#paaf9427f0b)" style="fill: #0000f5; fill-opacity: 0.1"/>
    <path d="M 204.135408 21.116888 
L 195.696177 -21.781014 
L 185.736917 -34.378063 
L 194.089879 8.487304 
z
" clip-path="url(#paaf9427f0b)" style="fill: #0000f5; fill-opacity: 0.1"/>
    <path d="M 360.181188 315.308755 
L 350.086191 269.259067 
L 340.479226 257.333053 
L 350.495562 303.364842 
z
" clip-path="url(#paaf9427f0b)" style="fill: #0000f5; fill-opacity: 0.1"/>
    <path d="M 252.808153 114.979748 
L 243.845639 71.041951 
L 233.988197 58.648838 
L 242.866676 102.558717 
z
" clip-path="url(#paaf9427f0b)" style="fill: #0000f5; fill-opacity: 0.1"/>
    <path d="M 301.594738 209.062143 
L 292.106526 164.079725 
L 282.351402 151.891527 
L 291.757827 196.850676 
z
" clip-path="url(#paaf9427f0b)" style="fill: #0000f5; fill-opacity: 0.1"/>
    <path d="M 194.089879 8.487304 
L 185.736917 -34.378063 
L 175.730707 -47.034498 
L 183.996488 -4.202454 
z
" clip-path="url(#paaf9427f0b)" style="fill: #0000f5; fill-opacity: 0.1"/>
    <path d="M 350.495562 303.364842 
L 340.479226 257.333053 
L 330.826922 245.350755 
L 340.763735 291.363956 
z
" clip-path="url(#paaf9427f0b)" style="fill: #0000f5; fill-opacity: 0.1"/>
    <path d="M 242.866676 102.558717 
L 233.988197 58.648838 
L 224.084232 46.197233 
L 232.877776 90.078435 
z
" clip-path="url(#paaf9427f0b)" style="fill: #0000f5; fill-opacity: 0.1"/>
    <path d="M 291.757827 196.850676 
L 282.351402 151.891527 
L 272.550184 139.645738 
L 281.873937 184.580889 
z
" clip-path="url(#paaf9427f0b)" style="fill: #0000f5; fill-opacity: 0.1"/>
    <path d="M 183.996488 -4.202454 
L 175.730707 -47.034498 
L 165.677215 -59.750737 
L 173.85489 -16.952819 
z
" clip-path="url(#paaf9427f0b)" style="fill: #0000f5; fill-opacity: 0.1"/>
    <path d="M 340.763735 291.363956 
L 330.826922 245.350755 
L 321.128956 233.311774 
L 330.985377 279.30569 
z
" clip-path="url(#paaf9427f0b)" style="fill: #0000f5; fill-opacity: 0.1"/>
    <path d="M 232.877776 90.078435 
L 224.084232 46.197233 
L 214.133414 33.686723 
L 222.841112 77.538477 
z
" clip-path="url(#paaf9427f0b)" style="fill: #0000f5; fill-opacity: 0.1"/>
    <path d="M 281.873937 184.580889 
L 272.550184 139.645738 
L 262.702545 127.34195 
L 271.94273 172.252364 
z
" clip-path="url(#paaf9427f0b)" style="fill: #0000f5; fill-opacity: 0.1"/>
    <path d="M 173.85489 -16.952819 
L 165.677215 -59.750737 
L 155.576105 -72.527207 
L 163.66474 -29.764225 
z
" clip-path="url(#paaf9427f0b)" style="fill: #0000f5; fill-opacity: 0.1"/>
    <path d="M 330.985377 279.30569 
L 321.128956 233.311774 
L 311.385004 221.215705 
L 321.160151 267.189629 
z
" clip-path="url(#paaf9427f0b)" style="fill: #0000f5; fill-opacity: 0.1"/>
    <path d="M 222.841112 77.538477 
L 214.133414 33.686723 
L 204.135408 21.116888 
L 212.756343 64.938415 
z
" clip-path="url(#paaf9427f0b)" style="fill: #0000f5; fill-opacity: 0.1"/>
    <path d="M 380.212503 374.253622 
L 369.820942 327.1961 
L 360.181188 315.308755 
L 370.493787 362.351063 
z
" clip-path="url(#paaf9427f0b)" style="fill: #0000f5; fill-opacity: 0.1"/>
    <path d="M 271.94273 172.252364 
L 262.702545 127.34195 
L 252.808153 114.979748 
L 261.963866 159.864678 
z
" clip-path="url(#paaf9427f0b)" style="fill: #0000f5; fill-opacity: 0.1"/>
    <path d="M 163.66474 -29.764225 
L 155.576105 -72.527207 
L 145.427037 -85.364336 
L 153.425689 -42.637111 
z
" clip-path="url(#paaf9427f0b)" style="fill: #0000f5; fill-opacity: 0.1"/>
    <path d="M 321.160151 267.189629 
L 311.385004 221.215705 
L 301.594738 209.062143 
L 311.287722 255.015358 
z
" clip-path="url(#paaf9427f0b)" style="fill: #0000f5; fill-opacity: 0.1"/>
    <path d="M 212.756343 64.938415 
L 204.135408 21.116888 
L 194.089879 8.487304 
L 202.62312 52.277814 
z
" clip-path="url(#paaf9427f0b)" style="fill: #0000f5; fill-opacity: 0.1"/>
    <path d="M 370.493787 362.351063 
L 360.181188 315.308755 
L 350.495562 303.364842 
L 360.728323 350.391251 
z
" clip-path="url(#paaf9427f0b)" style="fill: #0000f5; fill-opacity: 0.1"/>
    <path d="M 261.963866 159.864678 
L 252.808153 114.979748 
L 242.866676 102.558717 
L 251.937001 147.417404 
z
" clip-path="url(#paaf9427f0b)" style="fill: #0000f5; fill-opacity: 0.1"/>
    <path d="M 311.287722 255.015358 
L 301.594738 209.062143 
L 291.757827 196.850676 
L 301.367747 242.782456 
z
" clip-path="url(#paaf9427f0b)" style="fill: #0000f5; fill-opacity: 0.1"/>
    <path d="M 202.62312 52.277814 
L 194.089879 8.487304 
L 183.996488 -4.202454 
L 192.441094 39.556238 
z
" clip-path="url(#paaf9427f0b)" style="fill: #0000f5; fill-opacity: 0.1"/>
    <path d="M 360.728323 350.391251 
L 350.495562 303.364842 
L 340.763735 291.363956 
L 350.915773 338.373773 
z
" clip-path="url(#paaf9427f0b)" style="fill: #0000f5; fill-opacity: 0.1"/>
    <path d="M 251.937001 147.417404 
L 242.866676 102.558717 
L 232.877776 90.078435 
L 241.861788 134.91011 
z
" clip-path="url(#paaf9427f0b)" style="fill: #0000f5; fill-opacity: 0.1"/>
    <path d="M 301.367747 242.782456 
L 291.757827 196.850676 
L 281.873937 184.580889 
L 291.399883 230.490498 
z
" clip-path="url(#paaf9427f0b)" style="fill: #0000f5; fill-opacity: 0.1"/>
    <path d="M 192.441094 39.556238 
L 183.996488 -4.202454 
L 173.85489 -16.952819 
L 182.209912 26.773245 
z
" clip-path="url(#paaf9427f0b)" style="fill: #0000f5; fill-opacity: 0.1"/>
    <path d="M 350.915773 338.373773 
L 340.763735 291.363956 
L 330.985377 279.30569 
L 341.055796 326.29821 
z
" clip-path="url(#paaf9427f0b)" style="fill: #0000f5; fill-opacity: 0.1"/>
    <path d="M 241.861788 134.91011 
L 232.877776 90.078435 
L 222.841112 77.538477 
L 231.737877 122.342363 
z
" clip-path="url(#paaf9427f0b)" style="fill: #0000f5; fill-opacity: 0.1"/>
    <path d="M 291.399883 230.490498 
L 281.873937 184.580889 
L 271.94273 172.252364 
L 281.383781 218.139057 
z
" clip-path="url(#paaf9427f0b)" style="fill: #0000f5; fill-opacity: 0.1"/>
    <path d="M 182.209912 26.773245 
L 173.85489 -16.952819 
L 163.66474 -29.764225 
L 171.929216 13.92839 
z
" clip-path="url(#paaf9427f0b)" style="fill: #0000f5; fill-opacity: 0.1"/>
    <path d="M 341.055796 326.29821 
L 330.985377 279.30569 
L 321.160151 267.189629 
L 331.148048 314.164141 
z
" clip-path="url(#paaf9427f0b)" style="fill: #0000f5; fill-opacity: 0.1"/>
    <path d="M 231.737877 122.342363 
L 222.841112 77.538477 
L 212.756343 64.938415 
L 221.564912 109.713722 
z
" clip-path="url(#paaf9427f0b)" style="fill: #0000f5; fill-opacity: 0.1"/>
    <path d="M 281.383781 218.139057 
L 271.94273 172.252364 
L 261.963866 159.864678 
L 271.319092 205.727698 
z
" clip-path="url(#paaf9427f0b)" style="fill: #0000f5; fill-opacity: 0.1"/>
    <path d="M 171.929216 13.92839 
L 163.66474 -29.764225 
L 153.425689 -42.637111 
L 161.598647 1.021221 
z
" clip-path="url(#paaf9427f0b)" style="fill: #0000f5; fill-opacity: 0.1"/>
    <path d="M 331.148048 314.164141 
L 321.160151 267.189629 
L 311.287722 255.015358 
L 321.192179 301.971139 
z
" clip-path="url(#paaf9427f0b)" style="fill: #0000f5; fill-opacity: 0.1"/>
    <path d="M 221.564912 109.713722 
L 212.756343 64.938415 
L 202.62312 52.277814 
L 211.342538 97.023744 
z
" clip-path="url(#paaf9427f0b)" style="fill: #0000f5; fill-opacity: 0.1"/>
    <path d="M 271.319092 205.727698 
L 261.963866 159.864678 
L 251.937001 147.417404 
L 261.205459 193.255986 
z
" clip-path="url(#paaf9427f0b)" style="fill: #0000f5; fill-opacity: 0.1"/>
    <path d="M 321.192179 301.971139 
L 311.287722 255.015358 
L 301.367747 242.782456 
L 311.187839 289.718774 
z
" clip-path="url(#paaf9427f0b)" style="fill: #0000f5; fill-opacity: 0.1"/>
    <path d="M 211.342538 97.023744 
L 202.62312 52.277814 
L 192.441094 39.556238 
L 201.070393 84.27198 
z
" clip-path="url(#paaf9427f0b)" style="fill: #0000f5; fill-opacity: 0.1"/>
    <path d="M 261.205459 193.255986 
L 251.937001 147.417404 
L 241.861788 134.91011 
L 251.042527 180.723478 
z
" clip-path="url(#paaf9427f0b)" style="fill: #0000f5; fill-opacity: 0.1"/>
    <path d="M 311.187839 289.718774 
L 301.367747 242.782456 
L 291.399883 230.490498 
L 301.134672 277.406611 
z
" clip-path="url(#paaf9427f0b)" style="fill: #0000f5; fill-opacity: 0.1"/>
    <path d="M 201.070393 84.27198 
L 192.441094 39.556238 
L 182.209912 26.773245 
L 190.748113 71.457979 
z
" clip-path="url(#paaf9427f0b)" style="fill: #0000f5; fill-opacity: 0.1"/>
    <path d="M 251.042527 180.723478 
L 241.861788 134.91011 
L 231.737877 122.342363 
L 240.829932 168.12973 
z
" clip-path="url(#paaf9427f0b)" style="fill: #0000f5; fill-opacity: 0.1"/>
    <path d="M 301.134672 277.406611 
L 291.399883 230.490498 
L 281.383781 218.139057 
L 291.032321 265.034212 
z
" clip-path="url(#paaf9427f0b)" style="fill: #0000f5; fill-opacity: 0.1"/>
    <path d="M 190.748113 71.457979 
L 182.209912 26.773245 
L 171.929216 13.92839 
L 180.375329 58.581284 
z
" clip-path="url(#paaf9427f0b)" style="fill: #0000f5; fill-opacity: 0.1"/>
    <path d="M 240.829932 168.12973 
L 231.737877 122.342363 
L 221.564912 109.713722 
L 230.567311 155.47429 
z
" clip-path="url(#paaf9427f0b)" style="fill: #0000f5; fill-opacity: 0.1"/>
    <path d="M 291.032321 265.034212 
L 281.383781 218.139057 
L 271.319092 205.727698 
L 280.880423 252.601133 
z
" clip-path="url(#paaf9427f0b)" style="fill: #0000f5; fill-opacity: 0.1"/>
    <path d="M 180.375329 58.581284 
L 171.929216 13.92839 
L 161.598647 1.021221 
L 169.951671 45.641434 
z
" clip-path="url(#paaf9427f0b)" style="fill: #0000f5; fill-opacity: 0.1"/>
    <path d="M 230.567311 155.47429 
L 221.564912 109.713722 
L 211.342538 97.023744 
L 220.254294 142.756706 
z
" clip-path="url(#paaf9427f0b)" style="fill: #0000f5; fill-opacity: 0.1"/>
    <path d="M 280.880423 252.601133 
L 271.319092 205.727698 
L 261.205459 193.255986 
L 270.678614 240.106926 
z
" clip-path="url(#paaf9427f0b)" style="fill: #0000f5; fill-opacity: 0.1"/>
    <path d="M 220.254294 142.756706 
L 211.342538 97.023744 
L 201.070393 84.27198 
L 209.890511 129.976517 
z
" clip-path="url(#paaf9427f0b)" style="fill: #0000f5; fill-opacity: 0.1"/>
    <path d="M 270.678614 240.106926 
L 261.205459 193.255986 
L 251.042527 180.723478 
L 260.426524 227.551141 
z
" clip-path="url(#paaf9427f0b)" style="fill: #0000f5; fill-opacity: 0.1"/>
    <path d="M 209.890511 129.976517 
L 201.070393 84.27198 
L 190.748113 71.457979 
L 199.475584 117.13326 
z
" clip-path="url(#paaf9427f0b)" style="fill: #0000f5; fill-opacity: 0.1"/>
    <path d="M 260.426524 227.551141 
L 251.042527 180.723478 
L 240.829932 168.12973 
L 250.12378 214.93332 
z
" clip-path="url(#paaf9427f0b)" style="fill: #0000f5; fill-opacity: 0.1"/>
    <path d="M 199.475584 117.13326 
L 190.748113 71.457979 
L 180.375329 58.581284 
L 189.009134 104.226468 
z
" clip-path="url(#paaf9427f0b)" style="fill: #0000f5; fill-opacity: 0.1"/>
    <path d="M 250.12378 214.93332 
L 240.829932 168.12973 
L 230.567311 155.47429 
L 239.770007 202.253002 
z
" clip-path="url(#paaf9427f0b)" style="fill: #0000f5; fill-opacity: 0.1"/>
    <path d="M 189.009134 104.226468 
L 180.375329 58.581284 
L 169.951671 45.641434 
L 178.490779 91.255668 
z
" clip-path="url(#paaf9427f0b)" style="fill: #0000f5; fill-opacity: 0.1"/>
    <path d="M 239.770007 202.253002 
L 230.567311 155.47429 
L 220.254294 142.756706 
L 229.364824 189.509723 
z
" clip-path="url(#paaf9427f0b)" style="fill: #0000f5; fill-opacity: 0.1"/>
    <path d="M 229.364824 189.509723 
L 220.254294 142.756706 
L 209.890511 129.976517 
L 218.907847 176.703012 
z
" clip-path="url(#paaf9427f0b)" style="fill: #0000f5; fill-opacity: 0.1"/>
    <path d="M 218.907847 176.703012 
L 209.890511 129.976517 
L 199.475584 117.13326 
L 208.398689 163.832393 
z
" clip-path="url(#paaf9427f0b)" style="fill: #0000f5; fill-opacity: 0.1"/>
    <path d="M 208.398689 163.832393 
L 199.475584 117.13326 
L 189.009134 104.226468 
L 197.836958 150.897389 
z
" clip-path="url(#paaf9427f0b)" style="fill: #0000f5; fill-opacity: 0.1"/>
    <path d="M 197.836958 150.897389 
L 189.009134 104.226468 
L 178.490779 91.255668 
L 187.222258 137.897514 
z
" clip-path="url(#paaf9427f0b)" style="fill: #0000f5; fill-opacity: 0.1"/>
   </g>
   <g id="legend_1">
    <g id="patch_6">
     <path d="M 357.840076 67.305115 
L 396.2 67.305115 
Q 398.2 67.305115 398.2 65.305115 
L 398.2 7 
Q 398.2 5 396.2 5 
L 357.840076 5 
Q 355.840076 5 355.840076 7 
L 355.840076 65.305115 
Q 355.840076 67.305115 357.840076 67.305115 
z
" style="fill: #ffffff; opacity: 0.8; stroke: #cccccc; stroke-linejoin: miter"/>
    </g>
    <g id="line2d_25">
     <path d="M 359.840076 12.5 
L 369.840076 12.5 
L 379.840076 12.5 
" style="fill: none; stroke: #ff0000; stroke-width: 1.5; stroke-linecap: square"/>
    </g>
    <g id="text_21">
     <!-- $\vec{a}$ -->
     <g transform="translate(387.840076 16)scale(0.1 -0.1)">
      <defs>
       <path id="CMMI12-7e" d="M 3424 3835 
C 3347 3764 3110 3540 3110 3451 
C 3110 3387 3168 3329 3232 3329 
C 3290 3329 3315 3368 3360 3432 
C 3514 3624 3686 3745 3834 3828 
C 3898 3867 3942 3886 3942 3956 
C 3942 4014 3891 4046 3853 4078 
C 3674 4200 3629 4372 3610 4449 
C 3590 4500 3571 4577 3482 4577 
C 3443 4577 3366 4552 3366 4456 
C 3366 4398 3405 4244 3526 4072 
L 1376 4072 
C 1267 4072 1158 4072 1158 3950 
C 1158 3835 1274 3835 1376 3835 
L 3424 3835 
z
" transform="scale(0.015625)"/>
       <path id="CMMI12-61" d="M 1926 760 
C 1894 651 1894 639 1805 517 
C 1664 338 1382 64 1082 64 
C 819 64 672 300 672 677 
C 672 1028 870 1743 992 2012 
C 1210 2459 1510 2689 1760 2689 
C 2182 2689 2266 2165 2266 2114 
C 2266 2108 2246 2024 2240 2012 
L 1926 760 
z
M 2336 2395 
C 2266 2561 2093 2816 1760 2816 
C 1037 2816 256 1884 256 939 
C 256 307 627 -64 1062 -64 
C 1414 -64 1715 211 1894 422 
C 1958 45 2259 -64 2451 -64 
C 2643 -64 2797 51 2912 281 
C 3014 498 3104 888 3104 913 
C 3104 945 3078 971 3040 971 
C 2982 971 2976 939 2950 843 
C 2854 466 2733 64 2470 64 
C 2285 64 2272 230 2272 358 
C 2272 505 2291 575 2349 824 
C 2394 984 2426 1124 2477 1309 
C 2714 2267 2771 2497 2771 2535 
C 2771 2625 2701 2695 2605 2695 
C 2400 2695 2349 2472 2336 2395 
z
" transform="scale(0.015625)"/>
      </defs>
      <use xlink:href="#CMMI12-7e" transform="scale(0.996264)"/>
      <use xlink:href="#CMMI12-61" transform="translate(6.445738 0)scale(0.996264)"/>
     </g>
    </g>
    <g id="line2d_26">
     <path d="M 359.840076 27.24679 
L 369.840076 27.24679 
L 379.840076 27.24679 
" style="fill: none; stroke: #00ff00; stroke-width: 1.5; stroke-linecap: square"/>
    </g>
    <g id="text_22">
     <!-- $\vec{b}$ -->
     <g transform="translate(387.840076 30.74679)scale(0.1 -0.1)">
      <defs>
       <path id="CMMI12-62" d="M 1478 4257 
C 1485 4283 1498 4321 1498 4352 
C 1498 4416 1434 4416 1421 4416 
C 1414 4416 1184 4393 1069 4377 
C 960 4377 864 4358 749 4358 
C 595 4345 550 4339 550 4224 
C 550 4160 614 4160 678 4160 
C 1005 4160 1005 4103 1005 4040 
C 1005 3996 954 3811 928 3696 
L 774 3085 
C 710 2831 346 1387 320 1272 
C 288 1114 288 1005 288 922 
C 288 274 653 -64 1069 -64 
C 1811 -64 2579 888 2579 1814 
C 2579 2401 2246 2816 1766 2816 
C 1434 2816 1133 2542 1011 2414 
L 1478 4257 
z
M 1075 64 
C 870 64 646 217 646 715 
C 646 926 666 1047 781 1494 
C 800 1577 902 1986 928 2069 
C 941 2120 1318 2689 1754 2689 
C 2035 2689 2163 2408 2163 2076 
C 2163 1769 1984 1047 1824 715 
C 1664 370 1370 64 1075 64 
z
" transform="scale(0.015625)"/>
      </defs>
      <use xlink:href="#CMMI12-7e" transform="translate(0 26.29016)scale(0.996264)"/>
      <use xlink:href="#CMMI12-62" transform="translate(11.311737 0)scale(0.996264)"/>
     </g>
    </g>
    <g id="line2d_27">
     <path d="M 359.840076 41.183968 
L 369.840076 41.183968 
L 379.840076 41.183968 
" style="fill: none; stroke: #0016ff; stroke-width: 1.5; stroke-linecap: square"/>
    </g>
    <g id="text_23">
     <!-- $\vec{c}$ -->
     <g transform="translate(387.840076 44.683968)scale(0.1 -0.1)">
      <defs>
       <path id="CMMI12-63" d="M 2502 2431 
C 2381 2431 2323 2431 2234 2355 
C 2195 2323 2125 2227 2125 2125 
C 2125 1997 2221 1920 2342 1920 
C 2496 1920 2669 2044 2669 2292 
C 2669 2588 2374 2816 1933 2816 
C 1094 2816 256 1903 256 996 
C 256 441 602 -64 1254 -64 
C 2125 -64 2675 622 2675 706 
C 2675 744 2637 776 2611 776 
C 2592 776 2586 770 2528 713 
C 2118 162 1510 64 1267 64 
C 826 64 685 446 685 764 
C 685 988 794 1605 1024 2039 
C 1190 2338 1536 2682 1939 2682 
C 2022 2682 2374 2682 2502 2431 
z
" transform="scale(0.015625)"/>
      </defs>
      <use xlink:href="#CMMI12-7e" transform="scale(0.996264)"/>
      <use xlink:href="#CMMI12-63" transform="translate(5.638615 0)scale(0.996264)"/>
     </g>
    </g>
    <g id="line2d_28">
     <path d="M 359.840076 57.867937 
L 369.840076 57.867937 
L 379.840076 57.867937 
" style="fill: none; stroke: #f400ff; stroke-width: 1.5; stroke-linecap: square"/>
    </g>
    <g id="text_24">
     <!-- $\vec{f}$ -->
     <g transform="translate(387.840076 61.367937)scale(0.1 -0.1)">
      <defs>
       <path id="CMMI12-66" d="M 2854 2566 
C 2982 2566 3034 2566 3034 2688 
C 3034 2752 2982 2752 2867 2752 
L 2349 2752 
C 2470 3429 2560 3897 2611 4107 
C 2650 4265 2784 4416 2950 4416 
C 3085 4416 3219 4358 3283 4298 
C 3034 4272 2957 4082 2957 3969 
C 2957 3837 3053 3759 3174 3759 
C 3302 3759 3494 3870 3494 4119 
C 3494 4393 3226 4544 2944 4544 
C 2669 4544 2400 4334 2272 4078 
C 2157 3848 2093 3611 1946 2752 
L 1517 2752 
C 1395 2752 1331 2752 1331 2637 
C 1331 2566 1370 2566 1498 2566 
L 1907 2566 
C 1792 1976 1530 542 1382 -137 
C 1274 -689 1178 -1152 858 -1152 
C 838 -1152 653 -1152 538 -1031 
C 864 -1005 864 -726 864 -720 
C 864 -593 768 -517 646 -517 
C 518 -517 326 -625 326 -867 
C 326 -1140 608 -1280 858 -1280 
C 1510 -1280 1779 -118 1850 199 
C 1965 688 2278 2376 2310 2566 
L 2854 2566 
z
" transform="scale(0.015625)"/>
      </defs>
      <use xlink:href="#CMMI12-7e" transform="translate(13.568792 26.29016)scale(0.996264)"/>
      <use xlink:href="#CMMI12-66" transform="scale(0.996264)"/>
     </g>
    </g>
   </g>
  </g>
 </g>
 <defs>
  <clipPath id="paaf9427f0b">
   <rect x="57.6" y="0" width="345.6" height="345.6"/>
  </clipPath>
 </defs>
</svg>
