<?xml version="1.0" encoding="utf-8" standalone="no"?>
<!DOCTYPE svg PUBLIC "-//W3C//DTD SVG 1.1//EN"
  "http://www.w3.org/Graphics/SVG/1.1/DTD/svg11.dtd">
<svg xmlns:xlink="http://www.w3.org/1999/xlink" width="460.8pt" height="345.6pt" viewBox="0 0 460.8 345.6" xmlns="http://www.w3.org/2000/svg" version="1.1">
 <metadata>
  <rdf:RDF xmlns:dc="http://purl.org/dc/elements/1.1/" xmlns:cc="http://creativecommons.org/ns#" xmlns:rdf="http://www.w3.org/1999/02/22-rdf-syntax-ns#">
   <cc:Work>
    <dc:type rdf:resource="http://purl.org/dc/dcmitype/StillImage"/>
    <dc:date>2022-07-12T15:51:01.639153</dc:date>
    <dc:format>image/svg+xml</dc:format>
    <dc:creator>
     <cc:Agent>
      <dc:title>Matplotlib v3.5.1, https://matplotlib.org/</dc:title>
     </cc:Agent>
    </dc:creator>
   </cc:Work>
  </rdf:RDF>
 </metadata>
 <defs>
  <style type="text/css">*{stroke-linejoin: round; stroke-linecap: butt}</style>
 </defs>
 <g id="figure_1">
  <g id="patch_1">
   <path d="M 0 345.6 
L 460.8 345.6 
L 460.8 0 
L 0 0 
z
" style="fill: #ffffff"/>
  </g>
  <g id="patch_2">
   <path d="M 57.6 345.6 
L 403.2 345.6 
L 403.2 0 
L 57.6 0 
z
" style="fill: #ffffff"/>
  </g>
  <g id="pane3d_1">
   <g id="patch_3">
    <path d="M 296.818669 245.615812 
L 97.443929 248.662404 
L 97.443929 87.597056 
L 296.818669 90.643647 
" style="fill: #f2f2f2; opacity: 0.5; stroke: #f2f2f2; stroke-linejoin: miter"/>
   </g>
  </g>
  <g id="pane3d_2">
   <g id="patch_4">
    <path d="M 382.85015 254.603792 
L 296.818669 245.615812 
L 296.818669 90.643647 
L 382.85015 81.655667 
" style="fill: #e6e6e6; opacity: 0.5; stroke: #e6e6e6; stroke-linejoin: miter"/>
   </g>
  </g>
  <g id="pane3d_3">
   <g id="patch_5">
    <path d="M 382.85015 254.603792 
L 296.818669 245.615812 
L 97.443929 248.662404 
L 163.121814 258.415537 
" style="fill: #ececec; opacity: 0.5; stroke: #ececec; stroke-linejoin: miter"/>
   </g>
  </g>
  <g id="axis3d_1">
   <g id="line2d_1">
    <path d="M 97.443929 248.662404 
L 163.121814 258.415537 
" style="fill: none; stroke: #000000; stroke-width: 0.8; stroke-linecap: square"/>
   </g>
   <g id="text_1">
    <!-- x -->
    <g transform="translate(94.418218 281.524618)scale(0.16 -0.16)">
     <defs>
      <path id="CMSS17-78" d="M 1587 1414 
L 2656 2739 
L 2099 2739 
L 1363 1777 
L 602 2739 
L 32 2739 
L 1139 1414 
L 0 0 
L 563 0 
L 1363 1121 
L 2195 0 
L 2758 0 
L 1587 1414 
z
" transform="scale(0.015625)"/>
     </defs>
     <use xlink:href="#CMSS17-78" transform="scale(0.996264)"/>
    </g>
   </g>
   <g id="Line3DCollection_1">
    <path d="M 161.652733 258.197379 
L 380.934381 254.403646 
L 380.934381 81.855814 
" style="fill: none; stroke: #b0b0b0; stroke-width: 0.8"/>
    <path d="M 147.902584 256.155489 
L 362.984402 252.528355 
L 362.984402 83.731105 
" style="fill: none; stroke: #b0b0b0; stroke-width: 0.8"/>
    <path d="M 134.762064 254.204128 
L 345.79816 250.732854 
L 345.79816 85.526605 
" style="fill: none; stroke: #b0b0b0; stroke-width: 0.8"/>
    <path d="M 122.191509 252.337407 
L 329.327928 249.012157 
L 329.327928 87.247302 
" style="fill: none; stroke: #b0b0b0; stroke-width: 0.8"/>
    <path d="M 110.154622 250.549935 
L 313.529874 247.361684 
L 313.529874 88.897775 
" style="fill: none; stroke: #b0b0b0; stroke-width: 0.8"/>
    <path d="M 98.618126 248.836771 
L 298.36367 245.777223 
L 298.36367 90.482236 
" style="fill: none; stroke: #b0b0b0; stroke-width: 0.8"/>
   </g>
   <g id="xtick_1">
    <g id="line2d_2">
     <path d="M 163.483482 258.165705 
L 157.987368 258.260792 
" style="fill: none; stroke: #000000; stroke-width: 0.8; stroke-linecap: square"/>
    </g>
    <g id="text_2">
     <!-- $\mathdefault{0}$ -->
     <g transform="translate(144.495151 276.910693)scale(0.1 -0.1)">
      <defs>
       <path id="CMR17-30" d="M 2688 2025 
C 2688 2416 2682 3080 2413 3591 
C 2176 4039 1798 4198 1466 4198 
C 1158 4198 768 4058 525 3597 
C 269 3118 243 2524 243 2025 
C 243 1661 250 1106 448 619 
C 723 -39 1216 -128 1466 -128 
C 1760 -128 2208 -7 2470 600 
C 2662 1042 2688 1559 2688 2025 
z
M 1466 -26 
C 1056 -26 813 325 723 812 
C 653 1188 653 1738 653 2096 
C 653 2588 653 2997 736 3387 
C 858 3929 1216 4096 1466 4096 
C 1728 4096 2067 3923 2189 3400 
C 2272 3036 2278 2607 2278 2096 
C 2278 1680 2278 1169 2202 792 
C 2067 95 1690 -26 1466 -26 
z
" transform="scale(0.015625)"/>
      </defs>
      <use xlink:href="#CMR17-30" transform="scale(0.996264)"/>
     </g>
    </g>
   </g>
   <g id="xtick_2">
    <g id="line2d_3">
     <path d="M 149.696569 256.125235 
L 144.310911 256.216058 
" style="fill: none; stroke: #000000; stroke-width: 0.8; stroke-linecap: square"/>
    </g>
    <g id="text_3">
     <!-- $\mathdefault{1}$ -->
     <g transform="translate(131.040568 274.595049)scale(0.1 -0.1)">
      <defs>
       <path id="CMR17-31" d="M 1702 4058 
C 1702 4192 1696 4192 1606 4192 
C 1357 3916 979 3827 621 3827 
C 602 3827 570 3827 563 3808 
C 557 3795 557 3782 557 3648 
C 755 3648 1088 3686 1344 3839 
L 1344 461 
C 1344 236 1331 160 781 160 
L 589 160 
L 589 0 
C 896 0 1216 0 1523 0 
C 1830 0 2150 0 2458 0 
L 2458 160 
L 2266 160 
C 1715 160 1702 230 1702 458 
L 1702 4058 
z
" transform="scale(0.015625)"/>
      </defs>
      <use xlink:href="#CMR17-31" transform="scale(0.996264)"/>
     </g>
    </g>
   </g>
   <g id="xtick_3">
    <g id="line2d_4">
     <path d="M 136.520709 254.1752 
L 131.241224 254.262041 
" style="fill: none; stroke: #000000; stroke-width: 0.8; stroke-linecap: square"/>
    </g>
    <g id="text_4">
     <!-- $\mathdefault{2}$ -->
     <g transform="translate(118.184115 272.382348)scale(0.1 -0.1)">
      <defs>
       <path id="CMR17-32" d="M 2669 989 
L 2554 989 
C 2490 536 2438 459 2413 420 
C 2381 369 1920 369 1830 369 
L 602 369 
C 832 619 1280 1072 1824 1597 
C 2214 1967 2669 2402 2669 3035 
C 2669 3790 2067 4224 1395 4224 
C 691 4224 262 3604 262 3030 
C 262 2780 448 2748 525 2748 
C 589 2748 781 2787 781 3010 
C 781 3207 614 3264 525 3264 
C 486 3264 448 3258 422 3245 
C 544 3790 915 4058 1306 4058 
C 1862 4058 2227 3617 2227 3035 
C 2227 2479 1901 2000 1536 1584 
L 262 146 
L 262 0 
L 2515 0 
L 2669 989 
z
" transform="scale(0.015625)"/>
      </defs>
      <use xlink:href="#CMR17-32" transform="scale(0.996264)"/>
     </g>
    </g>
   </g>
   <g id="xtick_4">
    <g id="line2d_5">
     <path d="M 123.916159 252.30972 
L 118.738801 252.392835 
" style="fill: none; stroke: #000000; stroke-width: 0.8; stroke-linecap: square"/>
    </g>
    <g id="text_5">
     <!-- $\mathdefault{3}$ -->
     <g transform="translate(105.886775 270.265875)scale(0.1 -0.1)">
      <defs>
       <path id="CMR17-33" d="M 1414 2157 
C 1984 2157 2234 1662 2234 1090 
C 2234 320 1824 25 1453 25 
C 1114 25 563 194 390 693 
C 422 680 454 680 486 680 
C 640 680 755 782 755 948 
C 755 1133 614 1216 486 1216 
C 378 1216 211 1165 211 926 
C 211 335 787 -128 1466 -128 
C 2176 -128 2720 430 2720 1085 
C 2720 1707 2208 2157 1600 2227 
C 2086 2328 2554 2756 2554 3329 
C 2554 3820 2048 4179 1472 4179 
C 890 4179 378 3829 378 3329 
C 378 3110 544 3072 627 3072 
C 762 3072 877 3155 877 3321 
C 877 3486 762 3569 627 3569 
C 602 3569 570 3569 544 3557 
C 730 3959 1235 4032 1459 4032 
C 1683 4032 2106 3925 2106 3320 
C 2106 3143 2080 2828 1862 2550 
C 1670 2304 1453 2304 1242 2284 
C 1210 2284 1062 2269 1037 2269 
C 992 2263 966 2257 966 2208 
C 966 2163 973 2157 1101 2157 
L 1414 2157 
z
" transform="scale(0.015625)"/>
      </defs>
      <use xlink:href="#CMR17-33" transform="scale(0.996264)"/>
     </g>
    </g>
   </g>
   <g id="xtick_5">
    <g id="line2d_6">
     <path d="M 111.846549 250.523411 
L 106.767498 250.603034 
" style="fill: none; stroke: #000000; stroke-width: 0.8; stroke-linecap: square"/>
    </g>
    <g id="text_6">
     <!-- $\mathdefault{4}$ -->
     <g transform="translate(94.112849 268.239485)scale(0.1 -0.1)">
      <defs>
       <path id="CMR17-34" d="M 2150 4122 
C 2150 4256 2144 4256 2029 4256 
L 128 1254 
L 128 1088 
L 1779 1088 
L 1779 457 
C 1779 224 1766 160 1318 160 
L 1197 160 
L 1197 0 
C 1402 0 1747 0 1965 0 
C 2182 0 2528 0 2733 0 
L 2733 160 
L 2611 160 
C 2163 160 2150 224 2150 457 
L 2150 1088 
L 2803 1088 
L 2803 1254 
L 2150 1254 
L 2150 4122 
z
M 1798 3703 
L 1798 1254 
L 256 1254 
L 1798 3703 
z
" transform="scale(0.015625)"/>
      </defs>
      <use xlink:href="#CMR17-34" transform="scale(0.996264)"/>
     </g>
    </g>
   </g>
   <g id="xtick_6">
    <g id="line2d_7">
     <path d="M 100.278532 248.811339 
L 95.294173 248.887685 
" style="fill: none; stroke: #000000; stroke-width: 0.8; stroke-linecap: square"/>
    </g>
    <g id="text_7">
     <!-- $\mathdefault{5}$ -->
     <g transform="translate(82.829619 266.297549)scale(0.1 -0.1)">
      <defs>
       <path id="CMR17-35" d="M 730 3692 
C 794 3666 1056 3584 1325 3584 
C 1920 3584 2246 3911 2432 4100 
C 2432 4157 2432 4192 2394 4192 
C 2387 4192 2374 4192 2323 4163 
C 2099 4058 1837 3973 1517 3973 
C 1325 3973 1037 3999 723 4139 
C 653 4171 640 4171 634 4171 
C 602 4171 595 4164 595 4037 
L 595 2203 
C 595 2089 595 2057 659 2057 
C 691 2057 704 2070 736 2114 
C 941 2401 1222 2522 1542 2522 
C 1766 2522 2246 2382 2246 1289 
C 2246 1085 2246 715 2054 421 
C 1894 159 1645 25 1370 25 
C 947 25 518 320 403 814 
C 429 807 480 795 506 795 
C 589 795 749 840 749 1038 
C 749 1210 627 1280 506 1280 
C 358 1280 262 1190 262 1011 
C 262 454 704 -128 1382 -128 
C 2042 -128 2669 440 2669 1264 
C 2669 2030 2170 2624 1549 2624 
C 1222 2624 947 2503 730 2274 
L 730 3692 
z
" transform="scale(0.015625)"/>
      </defs>
      <use xlink:href="#CMR17-35" transform="scale(0.996264)"/>
     </g>
    </g>
   </g>
  </g>
  <g id="axis3d_2">
   <g id="line2d_8">
    <path d="M 382.85015 254.603792 
L 163.121814 258.415537 
" style="fill: none; stroke: #000000; stroke-width: 0.8; stroke-linecap: square"/>
   </g>
   <g id="text_8">
    <!-- y -->
    <g transform="translate(283.836837 286.880986)scale(0.16 -0.16)">
     <defs>
      <path id="CMSS17-79" d="M 2675 2752 
L 2176 2752 
C 1632 1294 1446 702 1434 383 
L 1427 383 
C 1408 696 1126 1460 902 2007 
L 602 2752 
L 83 2752 
L 1216 13 
C 1146 -178 1043 -465 1011 -529 
C 870 -885 774 -885 672 -885 
C 646 -885 442 -885 211 -809 
L 250 -1229 
C 410 -1261 570 -1280 685 -1280 
C 845 -1280 1165 -1280 1459 -497 
L 2675 2752 
z
" transform="scale(0.015625)"/>
     </defs>
     <use xlink:href="#CMSS17-79" transform="scale(0.996264)"/>
    </g>
   </g>
   <g id="Line3DCollection_2">
    <path d="M 274.468041 90.302113 
L 274.468041 245.957346 
L 358.317608 255.029371 
" style="fill: none; stroke: #b0b0b0; stroke-width: 0.8"/>
    <path d="M 237.037768 89.730152 
L 237.037768 246.529308 
L 317.177056 255.743058 
" style="fill: none; stroke: #b0b0b0; stroke-width: 0.8"/>
    <path d="M 199.053265 89.149721 
L 199.053265 247.109739 
L 275.355152 256.468565 
" style="fill: none; stroke: #b0b0b0; stroke-width: 0.8"/>
    <path d="M 160.502131 88.560631 
L 160.502131 247.698828 
L 232.834828 257.206188 
" style="fill: none; stroke: #b0b0b0; stroke-width: 0.8"/>
    <path d="M 121.371591 87.962688 
L 121.371591 248.296771 
L 189.598443 257.956232 
" style="fill: none; stroke: #b0b0b0; stroke-width: 0.8"/>
   </g>
   <g id="xtick_7">
    <g id="line2d_9">
     <path d="M 357.569317 254.948411 
L 359.818383 255.191746 
" style="fill: none; stroke: #000000; stroke-width: 0.8; stroke-linecap: square"/>
    </g>
    <g id="text_9">
     <!-- $\mathdefault{−4}$ -->
     <g transform="translate(357.978952 273.787045)scale(0.1 -0.1)">
      <defs>
       <path id="CMSY10-0" d="M 4218 1472 
C 4326 1472 4442 1472 4442 1600 
C 4442 1728 4326 1728 4218 1728 
L 755 1728 
C 646 1728 531 1728 531 1600 
C 531 1472 646 1472 755 1472 
L 4218 1472 
z
" transform="scale(0.015625)"/>
      </defs>
      <use xlink:href="#CMSY10-0" transform="scale(0.996264)"/>
      <use xlink:href="#CMR17-34" transform="translate(77.487468 0)scale(0.996264)"/>
     </g>
    </g>
   </g>
   <g id="xtick_8">
    <g id="line2d_10">
     <path d="M 316.461269 255.660763 
L 318.612675 255.908114 
" style="fill: none; stroke: #000000; stroke-width: 0.8; stroke-linecap: square"/>
    </g>
    <g id="text_10">
     <!-- $\mathdefault{−2}$ -->
     <g transform="translate(316.577031 274.6041)scale(0.1 -0.1)">
      <use xlink:href="#CMSY10-0" transform="scale(0.996264)"/>
      <use xlink:href="#CMR17-32" transform="translate(77.487468 0)scale(0.996264)"/>
     </g>
    </g>
   </g>
   <g id="xtick_9">
    <g id="line2d_11">
     <path d="M 274.673052 256.384902 
L 276.72324 256.636368 
" style="fill: none; stroke: #000000; stroke-width: 0.8; stroke-linecap: square"/>
    </g>
    <g id="text_11">
     <!-- $\mathdefault{0}$ -->
     <g transform="translate(278.358571 275.434789)scale(0.1 -0.1)">
      <use xlink:href="#CMR17-30" transform="scale(0.996264)"/>
     </g>
    </g>
   </g>
   <g id="xtick_10">
    <g id="line2d_12">
     <path d="M 232.187644 257.121122 
L 234.132917 257.376808 
" style="fill: none; stroke: #000000; stroke-width: 0.8; stroke-linecap: square"/>
    </g>
    <g id="text_12">
     <!-- $\mathdefault{2}$ -->
     <g transform="translate(235.557387 276.279457)scale(0.1 -0.1)">
      <use xlink:href="#CMR17-32" transform="scale(0.996264)"/>
     </g>
    </g>
   </g>
   <g id="xtick_11">
    <g id="line2d_13">
     <path d="M 188.987451 257.869729 
L 190.823968 258.12974 
" style="fill: none; stroke: #000000; stroke-width: 0.8; stroke-linecap: square"/>
    </g>
    <g id="text_13">
     <!-- $\mathdefault{4}$ -->
     <g transform="translate(192.029819 277.13846)scale(0.1 -0.1)">
      <use xlink:href="#CMR17-34" transform="scale(0.996264)"/>
     </g>
    </g>
   </g>
  </g>
  <g id="axis3d_3">
   <g id="line2d_14">
    <path d="M 382.85015 254.603792 
L 382.85015 81.655667 
" style="fill: none; stroke: #000000; stroke-width: 0.8; stroke-linecap: square"/>
   </g>
   <g id="text_14">
    <!-- z -->
    <g transform="translate(422.469614 172.114786)scale(0.16 -0.16)">
     <defs>
      <path id="CMSS17-7a" d="M 2400 2502 
L 2400 2750 
L 250 2750 
L 250 2368 
L 1069 2368 
C 1146 2368 1222 2368 1299 2368 
L 1747 2368 
L 166 261 
L 166 0 
L 2419 0 
L 2419 395 
L 1549 395 
C 1472 395 1395 395 1318 395 
L 826 395 
L 2400 2502 
z
" transform="scale(0.015625)"/>
     </defs>
     <use xlink:href="#CMSS17-7a" transform="scale(0.996264)"/>
    </g>
   </g>
   <g id="Line3DCollection_3">
    <path d="M 382.85015 251.14483 
L 296.818669 242.516369 
L 97.443929 245.441097 
" style="fill: none; stroke: #b0b0b0; stroke-width: 0.8"/>
    <path d="M 382.85015 217.93879 
L 296.818669 212.761713 
L 97.443929 214.51655 
" style="fill: none; stroke: #b0b0b0; stroke-width: 0.8"/>
    <path d="M 382.85015 184.73275 
L 296.818669 183.007058 
L 97.443929 183.592003 
" style="fill: none; stroke: #b0b0b0; stroke-width: 0.8"/>
    <path d="M 382.85015 151.52671 
L 296.818669 153.252402 
L 97.443929 152.667456 
" style="fill: none; stroke: #b0b0b0; stroke-width: 0.8"/>
    <path d="M 382.85015 118.32067 
L 296.818669 123.497746 
L 97.443929 121.74291 
" style="fill: none; stroke: #b0b0b0; stroke-width: 0.8"/>
    <path d="M 382.85015 85.11463 
L 296.818669 93.743091 
L 97.443929 90.818363 
" style="fill: none; stroke: #b0b0b0; stroke-width: 0.8"/>
   </g>
   <g id="xtick_12">
    <g id="line2d_15">
     <path d="M 382.082777 251.067867 
L 384.389177 251.299185 
" style="fill: none; stroke: #000000; stroke-width: 0.8; stroke-linecap: square"/>
    </g>
    <g id="text_15">
     <!-- $\mathdefault{0}$ -->
     <g transform="translate(400.031748 258.456471)scale(0.1 -0.1)">
      <use xlink:href="#CMR17-30" transform="scale(0.996264)"/>
     </g>
    </g>
   </g>
   <g id="xtick_13">
    <g id="line2d_16">
     <path d="M 382.082777 217.892612 
L 384.389177 218.031403 
" style="fill: none; stroke: #000000; stroke-width: 0.8; stroke-linecap: square"/>
    </g>
    <g id="text_16">
     <!-- $\mathdefault{1}$ -->
     <g transform="translate(400.031748 225.093174)scale(0.1 -0.1)">
      <use xlink:href="#CMR17-31" transform="scale(0.996264)"/>
     </g>
    </g>
   </g>
   <g id="xtick_14">
    <g id="line2d_17">
     <path d="M 382.082777 184.717357 
L 384.389177 184.763621 
" style="fill: none; stroke: #000000; stroke-width: 0.8; stroke-linecap: square"/>
    </g>
    <g id="text_17">
     <!-- $\mathdefault{2}$ -->
     <g transform="translate(400.031748 191.729877)scale(0.1 -0.1)">
      <use xlink:href="#CMR17-32" transform="scale(0.996264)"/>
     </g>
    </g>
   </g>
   <g id="xtick_15">
    <g id="line2d_18">
     <path d="M 382.082777 151.542102 
L 384.389177 151.495839 
" style="fill: none; stroke: #000000; stroke-width: 0.8; stroke-linecap: square"/>
    </g>
    <g id="text_18">
     <!-- $\mathdefault{3}$ -->
     <g transform="translate(400.031748 158.36658)scale(0.1 -0.1)">
      <use xlink:href="#CMR17-33" transform="scale(0.996264)"/>
     </g>
    </g>
   </g>
   <g id="xtick_16">
    <g id="line2d_19">
     <path d="M 382.082777 118.366848 
L 384.389177 118.228056 
" style="fill: none; stroke: #000000; stroke-width: 0.8; stroke-linecap: square"/>
    </g>
    <g id="text_19">
     <!-- $\mathdefault{4}$ -->
     <g transform="translate(400.031748 125.003282)scale(0.1 -0.1)">
      <use xlink:href="#CMR17-34" transform="scale(0.996264)"/>
     </g>
    </g>
   </g>
   <g id="xtick_17">
    <g id="line2d_20">
     <path d="M 382.082777 85.191593 
L 384.389177 84.960274 
" style="fill: none; stroke: #000000; stroke-width: 0.8; stroke-linecap: square"/>
    </g>
    <g id="text_20">
     <!-- $\mathdefault{5}$ -->
     <g transform="translate(400.031748 91.639985)scale(0.1 -0.1)">
      <use xlink:href="#CMR17-35" transform="scale(0.996264)"/>
     </g>
    </g>
   </g>
  </g>
  <g id="axes_1">
   <g id="line2d_21">
    <path d="M 273.65232 252.734505 
L 195.030154 84.387969 
" clip-path="url(#p738a61ae19)" style="fill: none; stroke: #ff0000; stroke-width: 1.5; stroke-linecap: square"/>
   </g>
   <g id="line2d_22">
    <path d="M 273.65232 252.734505 
L 282.635821 119.951901 
" clip-path="url(#p738a61ae19)" style="fill: none; stroke: #00ff00; stroke-width: 1.5; stroke-linecap: square"/>
   </g>
   <g id="line2d_23">
    <path d="M 273.65232 252.734505 
L 216.382431 -1 
" clip-path="url(#p738a61ae19)" style="fill: none; stroke: #0016ff; stroke-width: 1.5; stroke-linecap: square"/>
   </g>
   <g id="line2d_24">
    <path d="M 273.65232 252.734505 
L 257.292848 153.100625 
" clip-path="url(#p738a61ae19)" style="fill: none; stroke: #f400ff; stroke-width: 1.5; stroke-linecap: square"/>
   </g>
   <g id="Poly3DCollection_1">
    <path d="M 309.616684 23.49875 
L 301.990676 -16.483067 
L 292.655551 -28.146929 
L 300.200259 11.790001 
z
" clip-path="url(#p738a61ae19)" style="fill: #0000f5; fill-opacity: 0.1"/>
    <path d="M 300.200259 11.790001 
L 292.655551 -28.146929 
L 283.285957 -39.853859 
L 290.748709 0.037576 
z
" clip-path="url(#p738a61ae19)" style="fill: #0000f5; fill-opacity: 0.1"/>
    <path d="M 290.748709 0.037576 
L 283.285957 -39.853859 
L 273.881701 -51.604097 
L 281.261835 -11.758771 
z
" clip-path="url(#p738a61ae19)" style="fill: #0000f5; fill-opacity: 0.1"/>
    <path d="M 281.261835 -11.758771 
L 273.881701 -51.604097 
L 264.442593 -63.397882 
L 271.73944 -23.599287 
z
" clip-path="url(#p738a61ae19)" style="fill: #0000f5; fill-opacity: 0.1"/>
    <path d="M 271.73944 -23.599287 
L 264.442593 -63.397882 
L 254.968436 -75.235458 
L 262.181324 -35.48422 
z
" clip-path="url(#p738a61ae19)" style="fill: #0000f5; fill-opacity: 0.1"/>
    <path d="M 262.181324 -35.48422 
L 254.968436 -75.235458 
L 245.459037 -87.117069 
L 252.587285 -47.413821 
z
" clip-path="url(#p738a61ae19)" style="fill: #0000f5; fill-opacity: 0.1"/>
    <path d="M 317.400034 64.305482 
L 309.616684 23.49875 
L 300.200259 11.790001 
L 307.900925 52.552472 
z
" clip-path="url(#p738a61ae19)" style="fill: #0000f5; fill-opacity: 0.1"/>
    <path d="M 252.587285 -47.413821 
L 245.459037 -87.117069 
L 235.914197 -99.042962 
L 242.957121 -59.388341 
z
" clip-path="url(#p738a61ae19)" style="fill: #0000f5; fill-opacity: 0.1"/>
    <path d="M 307.900925 52.552472 
L 300.200259 11.790001 
L 290.748709 0.037576 
L 298.366015 40.755165 
z
" clip-path="url(#p738a61ae19)" style="fill: #0000f5; fill-opacity: 0.1"/>
    <path d="M 242.957121 -59.388341 
L 235.914197 -99.042962 
L 226.333719 -111.013383 
L 233.290627 -71.408035 
z
" clip-path="url(#p738a61ae19)" style="fill: #0000f5; fill-opacity: 0.1"/>
    <path d="M 298.366015 40.755165 
L 290.748709 0.037576 
L 281.261835 -11.758771 
L 288.795101 28.913311 
z
" clip-path="url(#p738a61ae19)" style="fill: #0000f5; fill-opacity: 0.1"/>
    <path d="M 233.290627 -71.408035 
L 226.333719 -111.013383 
L 216.717402 -123.028583 
L 223.587597 -83.47316 
z
" clip-path="url(#p738a61ae19)" style="fill: #0000f5; fill-opacity: 0.1"/>
    <path d="M 288.795101 28.913311 
L 281.261835 -11.758771 
L 271.73944 -23.599287 
L 279.187978 17.026658 
z
" clip-path="url(#p738a61ae19)" style="fill: #0000f5; fill-opacity: 0.1"/>
    <path d="M 223.587597 -83.47316 
L 216.717402 -123.028583 
L 207.065045 -135.088813 
L 213.847824 -95.583973 
z
" clip-path="url(#p738a61ae19)" style="fill: #0000f5; fill-opacity: 0.1"/>
    <path d="M 279.187978 17.026658 
L 271.73944 -23.599287 
L 262.181324 -35.48422 
L 269.544441 5.094949 
z
" clip-path="url(#p738a61ae19)" style="fill: #0000f5; fill-opacity: 0.1"/>
    <path d="M 213.847824 -95.583973 
L 207.065045 -135.088813 
L 197.376445 -147.194328 
L 204.071098 -107.740734 
z
" clip-path="url(#p738a61ae19)" style="fill: #0000f5; fill-opacity: 0.1"/>
    <path d="M 269.544441 5.094949 
L 262.181324 -35.48422 
L 252.587285 -47.413821 
L 259.864282 -6.88207 
z
" clip-path="url(#p738a61ae19)" style="fill: #0000f5; fill-opacity: 0.1"/>
    <path d="M 325.345646 105.962928 
L 317.400034 64.305482 
L 307.900925 52.552472 
L 315.762434 94.166347 
z
" clip-path="url(#p738a61ae19)" style="fill: #0000f5; fill-opacity: 0.1"/>
    <path d="M 204.071098 -107.740734 
L 197.376445 -147.194328 
L 187.651397 -159.345383 
L 194.257208 -119.943705 
z
" clip-path="url(#p738a61ae19)" style="fill: #0000f5; fill-opacity: 0.1"/>
    <path d="M 259.864282 -6.88207 
L 252.587285 -47.413821 
L 242.957121 -59.388341 
L 250.147292 -18.904659 
z
" clip-path="url(#p738a61ae19)" style="fill: #0000f5; fill-opacity: 0.1"/>
    <path d="M 315.762434 94.166347 
L 307.900925 52.552472 
L 298.366015 40.755165 
L 306.142726 82.324841 
z
" clip-path="url(#p738a61ae19)" style="fill: #0000f5; fill-opacity: 0.1"/>
    <path d="M 194.257208 -119.943705 
L 187.651397 -159.345383 
L 177.889696 -171.542235 
L 184.405944 -132.19315 
z
" clip-path="url(#p738a61ae19)" style="fill: #0000f5; fill-opacity: 0.1"/>
    <path d="M 250.147292 -18.904659 
L 242.957121 -59.388341 
L 233.290627 -71.408035 
L 240.393261 -30.973079 
z
" clip-path="url(#p738a61ae19)" style="fill: #0000f5; fill-opacity: 0.1"/>
    <path d="M 306.142726 82.324841 
L 298.366015 40.755165 
L 288.795101 28.913311 
L 296.486314 70.438152 
z
" clip-path="url(#p738a61ae19)" style="fill: #0000f5; fill-opacity: 0.1"/>
    <path d="M 184.405944 -132.19315 
L 177.889696 -171.542235 
L 168.091134 -183.785143 
L 174.51709 -144.489336 
z
" clip-path="url(#p738a61ae19)" style="fill: #0000f5; fill-opacity: 0.1"/>
    <path d="M 240.393261 -30.973079 
L 233.290627 -71.408035 
L 223.587597 -83.47316 
L 230.601976 -43.087592 
z
" clip-path="url(#p738a61ae19)" style="fill: #0000f5; fill-opacity: 0.1"/>
    <path d="M 296.486314 70.438152 
L 288.795101 28.913311 
L 279.187978 17.026658 
L 286.792985 58.506022 
z
" clip-path="url(#p738a61ae19)" style="fill: #0000f5; fill-opacity: 0.1"/>
    <path d="M 174.51709 -144.489336 
L 168.091134 -183.785143 
L 158.255501 -196.07437 
L 164.59043 -156.83253 
z
" clip-path="url(#p738a61ae19)" style="fill: #0000f5; fill-opacity: 0.1"/>
    <path d="M 230.601976 -43.087592 
L 223.587597 -83.47316 
L 213.847824 -95.583973 
L 220.773224 -55.248462 
z
" clip-path="url(#p738a61ae19)" style="fill: #0000f5; fill-opacity: 0.1"/>
    <path d="M 286.792985 58.506022 
L 279.187978 17.026658 
L 269.544441 5.094949 
L 277.062529 46.528188 
z
" clip-path="url(#p738a61ae19)" style="fill: #0000f5; fill-opacity: 0.1"/>
    <path d="M 164.59043 -156.83253 
L 158.255501 -196.07437 
L 148.382586 -208.410178 
L 154.625749 -169.223002 
z
" clip-path="url(#p738a61ae19)" style="fill: #0000f5; fill-opacity: 0.1"/>
    <path d="M 220.773224 -55.248462 
L 213.847824 -95.583973 
L 204.071098 -107.740734 
L 210.906789 -67.455956 
z
" clip-path="url(#p738a61ae19)" style="fill: #0000f5; fill-opacity: 0.1"/>
    <path d="M 277.062529 46.528188 
L 269.544441 5.094949 
L 259.864282 -6.88207 
L 267.294731 34.504389 
z
" clip-path="url(#p738a61ae19)" style="fill: #0000f5; fill-opacity: 0.1"/>
    <path d="M 154.625749 -169.223002 
L 148.382586 -208.410178 
L 138.472179 -220.792832 
L 144.622827 -181.661024 
z
" clip-path="url(#p738a61ae19)" style="fill: #0000f5; fill-opacity: 0.1"/>
    <path d="M 333.458647 148.497969 
L 325.345646 105.962928 
L 315.762434 94.166347 
L 323.78988 136.658584 
z
" clip-path="url(#p738a61ae19)" style="fill: #0000f5; fill-opacity: 0.1"/>
    <path d="M 210.906789 -67.455956 
L 204.071098 -107.740734 
L 194.257208 -119.943705 
L 201.002454 -79.710343 
z
" clip-path="url(#p738a61ae19)" style="fill: #0000f5; fill-opacity: 0.1"/>
    <path d="M 267.294731 34.504389 
L 259.864282 -6.88207 
L 250.147292 -18.904659 
L 257.489376 22.434358 
z
" clip-path="url(#p738a61ae19)" style="fill: #0000f5; fill-opacity: 0.1"/>
    <path d="M 144.622827 -181.661024 
L 138.472179 -220.792832 
L 128.524063 -233.222601 
L 134.581443 -194.146871 
z
" clip-path="url(#p738a61ae19)" style="fill: #0000f5; fill-opacity: 0.1"/>
    <path d="M 323.78988 136.658584 
L 315.762434 94.166347 
L 306.142726 82.324841 
L 314.0839 124.773634 
z
" clip-path="url(#p738a61ae19)" style="fill: #0000f5; fill-opacity: 0.1"/>
    <path d="M 201.002454 -79.710343 
L 194.257208 -119.943705 
L 184.405944 -132.19315 
L 191.06 -92.011894 
z
" clip-path="url(#p738a61ae19)" style="fill: #0000f5; fill-opacity: 0.1"/>
    <path d="M 257.489376 22.434358 
L 250.147292 -18.904659 
L 240.393261 -30.973079 
L 247.646248 10.317829 
z
" clip-path="url(#p738a61ae19)" style="fill: #0000f5; fill-opacity: 0.1"/>
    <path d="M 134.581443 -194.146871 
L 128.524063 -233.222601 
L 118.538025 -245.699753 
L 124.501375 -206.680819 
z
" clip-path="url(#p738a61ae19)" style="fill: #0000f5; fill-opacity: 0.1"/>
    <path d="M 314.0839 124.773634 
L 306.142726 82.324841 
L 296.486314 70.438152 
L 304.340494 112.842855 
z
" clip-path="url(#p738a61ae19)" style="fill: #0000f5; fill-opacity: 0.1"/>
    <path d="M 191.06 -92.011894 
L 184.405944 -132.19315 
L 174.51709 -144.489336 
L 181.079207 -104.360881 
z
" clip-path="url(#p738a61ae19)" style="fill: #0000f5; fill-opacity: 0.1"/>
    <path d="M 247.646248 10.317829 
L 240.393261 -30.973079 
L 230.601976 -43.087592 
L 237.765126 -1.845467 
z
" clip-path="url(#p738a61ae19)" style="fill: #0000f5; fill-opacity: 0.1"/>
    <path d="M 304.340494 112.842855 
L 296.486314 70.438152 
L 286.792985 58.506022 
L 294.559444 100.865982 
z
" clip-path="url(#p738a61ae19)" style="fill: #0000f5; fill-opacity: 0.1"/>
    <path d="M 181.079207 -104.360881 
L 174.51709 -144.489336 
L 164.59043 -156.83253 
L 171.059852 -116.757579 
z
" clip-path="url(#p738a61ae19)" style="fill: #0000f5; fill-opacity: 0.1"/>
    <path d="M 237.765126 -1.845467 
L 230.601976 -43.087592 
L 220.773224 -55.248462 
L 227.845792 -14.055802 
z
" clip-path="url(#p738a61ae19)" style="fill: #0000f5; fill-opacity: 0.1"/>
    <path d="M 294.559444 100.865982 
L 286.792985 58.506022 
L 277.062529 46.528188 
L 284.740532 88.842746 
z
" clip-path="url(#p738a61ae19)" style="fill: #0000f5; fill-opacity: 0.1"/>
    <path d="M 171.059852 -116.757579 
L 164.59043 -156.83253 
L 154.625749 -169.223002 
L 161.001711 -129.202265 
z
" clip-path="url(#p738a61ae19)" style="fill: #0000f5; fill-opacity: 0.1"/>
    <path d="M 227.845792 -14.055802 
L 220.773224 -55.248462 
L 210.906789 -67.455956 
L 217.888023 -26.31345 
z
" clip-path="url(#p738a61ae19)" style="fill: #0000f5; fill-opacity: 0.1"/>
    <path d="M 284.740532 88.842746 
L 277.062529 46.528188 
L 267.294731 34.504389 
L 274.883538 76.772879 
z
" clip-path="url(#p738a61ae19)" style="fill: #0000f5; fill-opacity: 0.1"/>
    <path d="M 161.001711 -129.202265 
L 154.625749 -169.223002 
L 144.622827 -181.661024 
L 150.90456 -141.695219 
z
" clip-path="url(#p738a61ae19)" style="fill: #0000f5; fill-opacity: 0.1"/>
    <path d="M 341.744385 191.938633 
L 333.458647 148.497969 
L 323.78988 136.658584 
L 331.988571 180.057289 
z
" clip-path="url(#p738a61ae19)" style="fill: #0000f5; fill-opacity: 0.1"/>
    <path d="M 217.888023 -26.31345 
L 210.906789 -67.455956 
L 201.002454 -79.710343 
L 207.891595 -38.618685 
z
" clip-path="url(#p738a61ae19)" style="fill: #0000f5; fill-opacity: 0.1"/>
    <path d="M 274.883538 76.772879 
L 267.294731 34.504389 
L 257.489376 22.434358 
L 264.988239 64.656107 
z
" clip-path="url(#p738a61ae19)" style="fill: #0000f5; fill-opacity: 0.1"/>
    <path d="M 150.90456 -141.695219 
L 144.622827 -181.661024 
L 134.581443 -194.146871 
L 140.76817 -154.236722 
z
" clip-path="url(#p738a61ae19)" style="fill: #0000f5; fill-opacity: 0.1"/>
    <path d="M 331.988571 180.057289 
L 323.78988 136.658584 
L 314.0839 124.773634 
L 322.194809 168.12973 
z
" clip-path="url(#p738a61ae19)" style="fill: #0000f5; fill-opacity: 0.1"/>
    <path d="M 207.891595 -38.618685 
L 201.002454 -79.710343 
L 191.06 -92.011894 
L 197.856283 -50.971785 
z
" clip-path="url(#p738a61ae19)" style="fill: #0000f5; fill-opacity: 0.1"/>
    <path d="M 264.988239 64.656107 
L 257.489376 22.434358 
L 247.646248 10.317829 
L 255.054412 52.492158 
z
" clip-path="url(#p738a61ae19)" style="fill: #0000f5; fill-opacity: 0.1"/>
    <path d="M 140.76817 -154.236722 
L 134.581443 -194.146871 
L 124.501375 -206.680819 
L 130.592313 -166.827056 
z
" clip-path="url(#p738a61ae19)" style="fill: #0000f5; fill-opacity: 0.1"/>
    <path d="M 322.194809 168.12973 
L 314.0839 124.773634 
L 304.340494 112.842855 
L 312.362877 156.155684 
z
" clip-path="url(#p738a61ae19)" style="fill: #0000f5; fill-opacity: 0.1"/>
    <path d="M 197.856283 -50.971785 
L 191.06 -92.011894 
L 181.079207 -104.360881 
L 187.781859 -63.37303 
z
" clip-path="url(#p738a61ae19)" style="fill: #0000f5; fill-opacity: 0.1"/>
    <path d="M 255.054412 52.492158 
L 247.646248 10.317829 
L 237.765126 -1.845467 
L 245.081832 40.280756 
z
" clip-path="url(#p738a61ae19)" style="fill: #0000f5; fill-opacity: 0.1"/>
    <path d="M 312.362877 156.155684 
L 304.340494 112.842855 
L 294.559444 100.865982 
L 302.492553 144.134881 
z
" clip-path="url(#p738a61ae19)" style="fill: #0000f5; fill-opacity: 0.1"/>
    <path d="M 187.781859 -63.37303 
L 181.079207 -104.360881 
L 171.059852 -116.757579 
L 177.668093 -75.822703 
z
" clip-path="url(#p738a61ae19)" style="fill: #0000f5; fill-opacity: 0.1"/>
    <path d="M 245.081832 40.280756 
L 237.765126 -1.845467 
L 227.845792 -14.055802 
L 235.07027 28.021621 
z
" clip-path="url(#p738a61ae19)" style="fill: #0000f5; fill-opacity: 0.1"/>
    <path d="M 302.492553 144.134881 
L 294.559444 100.865982 
L 284.740532 88.842746 
L 292.58361 132.067046 
z
" clip-path="url(#p738a61ae19)" style="fill: #0000f5; fill-opacity: 0.1"/>
    <path d="M 177.668093 -75.822703 
L 171.059852 -116.757579 
L 161.001711 -129.202265 
L 167.514757 -88.321087 
z
" clip-path="url(#p738a61ae19)" style="fill: #0000f5; fill-opacity: 0.1"/>
    <path d="M 235.07027 28.021621 
L 227.845792 -14.055802 
L 217.888023 -26.31345 
L 225.019499 15.714474 
z
" clip-path="url(#p738a61ae19)" style="fill: #0000f5; fill-opacity: 0.1"/>
    <path d="M 292.58361 132.067046 
L 284.740532 88.842746 
L 274.883538 76.772879 
L 282.635821 119.951901 
z
" clip-path="url(#p738a61ae19)" style="fill: #0000f5; fill-opacity: 0.1"/>
    <path d="M 167.514757 -88.321087 
L 161.001711 -129.202265 
L 150.90456 -141.695219 
L 157.321615 -100.868469 
z
" clip-path="url(#p738a61ae19)" style="fill: #0000f5; fill-opacity: 0.1"/>
    <path d="M 350.208434 236.314155 
L 341.744385 191.938633 
L 331.988571 180.057289 
L 340.364047 224.391781 
z
" clip-path="url(#p738a61ae19)" style="fill: #0000f5; fill-opacity: 0.1"/>
    <path d="M 225.019499 15.714474 
L 217.888023 -26.31345 
L 207.891595 -38.618685 
L 214.929287 3.359032 
z
" clip-path="url(#p738a61ae19)" style="fill: #0000f5; fill-opacity: 0.1"/>
    <path d="M 282.635821 119.951901 
L 274.883538 76.772879 
L 264.988239 64.656107 
L 272.648957 107.789168 
z
" clip-path="url(#p738a61ae19)" style="fill: #0000f5; fill-opacity: 0.1"/>
    <path d="M 157.321615 -100.868469 
L 150.90456 -141.695219 
L 140.76817 -154.236722 
L 147.088435 -113.465137 
z
" clip-path="url(#p738a61ae19)" style="fill: #0000f5; fill-opacity: 0.1"/>
    <path d="M 340.364047 224.391781 
L 331.988571 180.057289 
L 322.194809 168.12973 
L 330.480953 212.422531 
z
" clip-path="url(#p738a61ae19)" style="fill: #0000f5; fill-opacity: 0.1"/>
    <path d="M 214.929287 3.359032 
L 207.891595 -38.618685 
L 197.856283 -50.971785 
L 204.799402 -9.044989 
z
" clip-path="url(#p738a61ae19)" style="fill: #0000f5; fill-opacity: 0.1"/>
    <path d="M 272.648957 107.789168 
L 264.988239 64.656107 
L 255.054412 52.492158 
L 262.622789 95.578567 
z
" clip-path="url(#p738a61ae19)" style="fill: #0000f5; fill-opacity: 0.1"/>
    <path d="M 147.088435 -113.465137 
L 140.76817 -154.236722 
L 130.592313 -166.827056 
L 136.814979 -126.111383 
z
" clip-path="url(#p738a61ae19)" style="fill: #0000f5; fill-opacity: 0.1"/>
    <path d="M 330.480953 212.422531 
L 322.194809 168.12973 
L 312.362877 156.155684 
L 320.558925 200.406128 
z
" clip-path="url(#p738a61ae19)" style="fill: #0000f5; fill-opacity: 0.1"/>
    <path d="M 204.799402 -9.044989 
L 197.856283 -50.971785 
L 187.781859 -63.37303 
L 194.629609 -21.497878 
z
" clip-path="url(#p738a61ae19)" style="fill: #0000f5; fill-opacity: 0.1"/>
    <path d="M 262.622789 95.578567 
L 255.054412 52.492158 
L 245.081832 40.280756 
L 252.557083 83.319814 
z
" clip-path="url(#p738a61ae19)" style="fill: #0000f5; fill-opacity: 0.1"/>
    <path d="M 320.558925 200.406128 
L 312.362877 156.155684 
L 302.492553 144.134881 
L 310.597732 188.342292 
z
" clip-path="url(#p738a61ae19)" style="fill: #0000f5; fill-opacity: 0.1"/>
    <path d="M 194.629609 -21.497878 
L 187.781859 -63.37303 
L 177.668093 -75.822703 
L 184.419672 -33.999923 
z
" clip-path="url(#p738a61ae19)" style="fill: #0000f5; fill-opacity: 0.1"/>
    <path d="M 252.557083 83.319814 
L 245.081832 40.280756 
L 235.07027 28.021621 
L 242.451605 71.012624 
z
" clip-path="url(#p738a61ae19)" style="fill: #0000f5; fill-opacity: 0.1"/>
    <path d="M 310.597732 188.342292 
L 302.492553 144.134881 
L 292.58361 132.067046 
L 300.597141 176.230743 
z
" clip-path="url(#p738a61ae19)" style="fill: #0000f5; fill-opacity: 0.1"/>
    <path d="M 184.419672 -33.999923 
L 177.668093 -75.822703 
L 167.514757 -88.321087 
L 174.169353 -46.551415 
z
" clip-path="url(#p738a61ae19)" style="fill: #0000f5; fill-opacity: 0.1"/>
    <path d="M 242.451605 71.012624 
L 235.07027 28.021621 
L 225.019499 15.714474 
L 232.306119 58.656709 
z
" clip-path="url(#p738a61ae19)" style="fill: #0000f5; fill-opacity: 0.1"/>
    <path d="M 300.597141 176.230743 
L 292.58361 132.067046 
L 282.635821 119.951901 
L 290.556918 164.071197 
z
" clip-path="url(#p738a61ae19)" style="fill: #0000f5; fill-opacity: 0.1"/>
    <path d="M 174.169353 -46.551415 
L 167.514757 -88.321087 
L 157.321615 -100.868469 
L 163.878412 -59.15265 
z
" clip-path="url(#p738a61ae19)" style="fill: #0000f5; fill-opacity: 0.1"/>
    <path d="M 358.856614 281.655039 
L 350.208434 236.314155 
L 340.364047 224.391781 
L 348.922088 269.692656 
z
" clip-path="url(#p738a61ae19)" style="fill: #0000f5; fill-opacity: 0.1"/>
    <path d="M 232.306119 58.656709 
L 225.019499 15.714474 
L 214.929287 3.359032 
L 222.120386 46.251779 
z
" clip-path="url(#p738a61ae19)" style="fill: #0000f5; fill-opacity: 0.1"/>
    <path d="M 290.556918 164.071197 
L 282.635821 119.951901 
L 272.648957 107.789168 
L 280.476828 151.863367 
z
" clip-path="url(#p738a61ae19)" style="fill: #0000f5; fill-opacity: 0.1"/>
    <path d="M 163.878412 -59.15265 
L 157.321615 -100.868469 
L 147.088435 -113.465137 
L 153.546607 -71.803922 
z
" clip-path="url(#p738a61ae19)" style="fill: #0000f5; fill-opacity: 0.1"/>
    <path d="M 348.922088 269.692656 
L 340.364047 224.391781 
L 330.480953 212.422531 
L 338.948074 257.682725 
z
" clip-path="url(#p738a61ae19)" style="fill: #0000f5; fill-opacity: 0.1"/>
    <path d="M 222.120386 46.251779 
L 214.929287 3.359032 
L 204.799402 -9.044989 
L 211.894168 33.797542 
z
" clip-path="url(#p738a61ae19)" style="fill: #0000f5; fill-opacity: 0.1"/>
    <path d="M 280.476828 151.863367 
L 272.648957 107.789168 
L 262.622789 95.578567 
L 270.356632 139.606966 
z
" clip-path="url(#p738a61ae19)" style="fill: #0000f5; fill-opacity: 0.1"/>
    <path d="M 153.546607 -71.803922 
L 147.088435 -113.465137 
L 136.814979 -126.111383 
L 143.173693 -84.505532 
z
" clip-path="url(#p738a61ae19)" style="fill: #0000f5; fill-opacity: 0.1"/>
    <path d="M 338.948074 257.682725 
L 330.480953 212.422531 
L 320.558925 200.406128 
L 328.934338 245.624964 
z
" clip-path="url(#p738a61ae19)" style="fill: #0000f5; fill-opacity: 0.1"/>
    <path d="M 211.894168 33.797542 
L 204.799402 -9.044989 
L 194.629609 -21.497878 
L 201.627221 21.293704 
z
" clip-path="url(#p738a61ae19)" style="fill: #0000f5; fill-opacity: 0.1"/>
    <path d="M 270.356632 139.606966 
L 262.622789 95.578567 
L 252.557083 83.319814 
L 260.19609 127.301703 
z
" clip-path="url(#p738a61ae19)" style="fill: #0000f5; fill-opacity: 0.1"/>
    <path d="M 328.934338 245.624964 
L 320.558925 200.406128 
L 310.597732 188.342292 
L 318.880642 233.519085 
z
" clip-path="url(#p738a61ae19)" style="fill: #0000f5; fill-opacity: 0.1"/>
    <path d="M 201.627221 21.293704 
L 194.629609 -21.497878 
L 184.419672 -33.999923 
L 191.319303 8.739967 
z
" clip-path="url(#p738a61ae19)" style="fill: #0000f5; fill-opacity: 0.1"/>
    <path d="M 260.19609 127.301703 
L 252.557083 83.319814 
L 242.451605 71.012624 
L 249.994961 114.947286 
z
" clip-path="url(#p738a61ae19)" style="fill: #0000f5; fill-opacity: 0.1"/>
    <path d="M 318.880642 233.519085 
L 310.597732 188.342292 
L 300.597141 176.230743 
L 308.786745 221.3648 
z
" clip-path="url(#p738a61ae19)" style="fill: #0000f5; fill-opacity: 0.1"/>
    <path d="M 191.319303 8.739967 
L 184.419672 -33.999923 
L 174.169353 -46.551415 
L 180.970167 -3.863968 
z
" clip-path="url(#p738a61ae19)" style="fill: #0000f5; fill-opacity: 0.1"/>
    <path d="M 249.994961 114.947286 
L 242.451605 71.012624 
L 232.306119 58.656709 
L 239.753001 102.543419 
z
" clip-path="url(#p738a61ae19)" style="fill: #0000f5; fill-opacity: 0.1"/>
    <path d="M 308.786745 221.3648 
L 300.597141 176.230743 
L 290.556918 164.071197 
L 298.652406 209.161818 
z
" clip-path="url(#p738a61ae19)" style="fill: #0000f5; fill-opacity: 0.1"/>
    <path d="M 180.970167 -3.863968 
L 174.169353 -46.551415 
L 163.878412 -59.15265 
L 170.579565 -16.518402 
z
" clip-path="url(#p738a61ae19)" style="fill: #0000f5; fill-opacity: 0.1"/>
    <path d="M 367.694999 327.993134 
L 358.856614 281.655039 
L 348.922088 269.692656 
L 357.668728 315.991859 
z
" clip-path="url(#p738a61ae19)" style="fill: #0000f5; fill-opacity: 0.1"/>
    <path d="M 239.753001 102.543419 
L 232.306119 58.656709 
L 222.120386 46.251779 
L 229.469965 90.089804 
z
" clip-path="url(#p738a61ae19)" style="fill: #0000f5; fill-opacity: 0.1"/>
    <path d="M 298.652406 209.161818 
L 290.556918 164.071197 
L 280.476828 151.863367 
L 288.477382 196.909847 
z
" clip-path="url(#p738a61ae19)" style="fill: #0000f5; fill-opacity: 0.1"/>
    <path d="M 170.579565 -16.518402 
L 163.878412 -59.15265 
L 153.546607 -71.803922 
L 160.147249 -29.22364 
z
" clip-path="url(#p738a61ae19)" style="fill: #0000f5; fill-opacity: 0.1"/>
    <path d="M 357.668728 315.991859 
L 348.922088 269.692656 
L 338.948074 257.682725 
L 347.602166 303.942356 
z
" clip-path="url(#p738a61ae19)" style="fill: #0000f5; fill-opacity: 0.1"/>
    <path d="M 229.469965 90.089804 
L 222.120386 46.251779 
L 211.894168 33.797542 
L 219.145604 77.586143 
z
" clip-path="url(#p738a61ae19)" style="fill: #0000f5; fill-opacity: 0.1"/>
    <path d="M 288.477382 196.909847 
L 280.476828 151.863367 
L 270.356632 139.606966 
L 278.261427 184.608589 
z
" clip-path="url(#p738a61ae19)" style="fill: #0000f5; fill-opacity: 0.1"/>
    <path d="M 160.147249 -29.22364 
L 153.546607 -71.803922 
L 143.173693 -84.505532 
L 149.672966 -41.979988 
z
" clip-path="url(#p738a61ae19)" style="fill: #0000f5; fill-opacity: 0.1"/>
    <path d="M 347.602166 303.942356 
L 338.948074 257.682725 
L 328.934338 245.624964 
L 337.49507 291.844334 
z
" clip-path="url(#p738a61ae19)" style="fill: #0000f5; fill-opacity: 0.1"/>
    <path d="M 219.145604 77.586143 
L 211.894168 33.797542 
L 201.627221 21.293704 
L 208.779669 65.032132 
z
" clip-path="url(#p738a61ae19)" style="fill: #0000f5; fill-opacity: 0.1"/>
    <path d="M 278.261427 184.608589 
L 270.356632 139.606966 
L 260.19609 127.301703 
L 268.004294 172.257747 
z
" clip-path="url(#p738a61ae19)" style="fill: #0000f5; fill-opacity: 0.1"/>
    <path d="M 337.49507 291.844334 
L 328.934338 245.624964 
L 318.880642 233.519085 
L 327.347193 279.697498 
z
" clip-path="url(#p738a61ae19)" style="fill: #0000f5; fill-opacity: 0.1"/>
    <path d="M 208.779669 65.032132 
L 201.627221 21.293704 
L 191.319303 8.739967 
L 198.371909 52.427467 
z
" clip-path="url(#p738a61ae19)" style="fill: #0000f5; fill-opacity: 0.1"/>
    <path d="M 268.004294 172.257747 
L 260.19609 127.301703 
L 249.994961 114.947286 
L 257.705732 159.857022 
z
" clip-path="url(#p738a61ae19)" style="fill: #0000f5; fill-opacity: 0.1"/>
    <path d="M 327.347193 279.697498 
L 318.880642 233.519085 
L 308.786745 221.3648 
L 317.158288 267.501552 
z
" clip-path="url(#p738a61ae19)" style="fill: #0000f5; fill-opacity: 0.1"/>
    <path d="M 198.371909 52.427467 
L 191.319303 8.739967 
L 180.970167 -3.863968 
L 187.92207 39.771841 
z
" clip-path="url(#p738a61ae19)" style="fill: #0000f5; fill-opacity: 0.1"/>
    <path d="M 257.705732 159.857022 
L 249.994961 114.947286 
L 239.753001 102.543419 
L 247.365492 147.406109 
z
" clip-path="url(#p738a61ae19)" style="fill: #0000f5; fill-opacity: 0.1"/>
    <path d="M 317.158288 267.501552 
L 308.786745 221.3648 
L 298.652406 209.161818 
L 306.928107 255.256199 
z
" clip-path="url(#p738a61ae19)" style="fill: #0000f5; fill-opacity: 0.1"/>
    <path d="M 187.92207 39.771841 
L 180.970167 -3.863968 
L 170.579565 -16.518402 
L 177.429896 27.064944 
z
" clip-path="url(#p738a61ae19)" style="fill: #0000f5; fill-opacity: 0.1"/>
    <path d="M 376.729933 375.361705 
L 367.694999 327.993134 
L 357.668728 315.991859 
L 366.610273 363.322761 
z
" clip-path="url(#p738a61ae19)" style="fill: #0000f5; fill-opacity: 0.1"/>
    <path d="M 247.365492 147.406109 
L 239.753001 102.543419 
L 229.469965 90.089804 
L 236.983319 134.904704 
z
" clip-path="url(#p738a61ae19)" style="fill: #0000f5; fill-opacity: 0.1"/>
    <path d="M 306.928107 255.256199 
L 298.652406 209.161818 
L 288.477382 196.909847 
L 296.656397 242.961138 
z
" clip-path="url(#p738a61ae19)" style="fill: #0000f5; fill-opacity: 0.1"/>
    <path d="M 177.429896 27.064944 
L 170.579565 -16.518402 
L 160.147249 -29.22364 
L 166.895129 14.306463 
z
" clip-path="url(#p738a61ae19)" style="fill: #0000f5; fill-opacity: 0.1"/>
    <path d="M 366.610273 363.322761 
L 357.668728 315.991859 
L 347.602166 303.942356 
L 356.449492 351.234898 
z
" clip-path="url(#p738a61ae19)" style="fill: #0000f5; fill-opacity: 0.1"/>
    <path d="M 236.983319 134.904704 
L 229.469965 90.089804 
L 219.145604 77.586143 
L 226.558957 122.352499 
z
" clip-path="url(#p738a61ae19)" style="fill: #0000f5; fill-opacity: 0.1"/>
    <path d="M 296.656397 242.961138 
L 288.477382 196.909847 
L 278.261427 184.608589 
L 286.342906 230.616064 
z
" clip-path="url(#p738a61ae19)" style="fill: #0000f5; fill-opacity: 0.1"/>
    <path d="M 166.895129 14.306463 
L 160.147249 -29.22364 
L 149.672966 -41.979988 
L 156.31751 1.496085 
z
" clip-path="url(#p738a61ae19)" style="fill: #0000f5; fill-opacity: 0.1"/>
    <path d="M 356.449492 351.234898 
L 347.602166 303.942356 
L 337.49507 291.844334 
L 346.247339 339.097816 
z
" clip-path="url(#p738a61ae19)" style="fill: #0000f5; fill-opacity: 0.1"/>
    <path d="M 226.558957 122.352499 
L 219.145604 77.586143 
L 208.779669 65.032132 
L 216.092149 109.749184 
z
" clip-path="url(#p738a61ae19)" style="fill: #0000f5; fill-opacity: 0.1"/>
    <path d="M 286.342906 230.616064 
L 278.261427 184.608589 
L 268.004294 172.257747 
L 275.987378 218.220673 
z
" clip-path="url(#p738a61ae19)" style="fill: #0000f5; fill-opacity: 0.1"/>
    <path d="M 346.247339 339.097816 
L 337.49507 291.844334 
L 327.347193 279.697498 
L 336.003561 326.911214 
z
" clip-path="url(#p738a61ae19)" style="fill: #0000f5; fill-opacity: 0.1"/>
    <path d="M 216.092149 109.749184 
L 208.779669 65.032132 
L 198.371909 52.427467 
L 205.582635 97.094446 
z
" clip-path="url(#p738a61ae19)" style="fill: #0000f5; fill-opacity: 0.1"/>
    <path d="M 275.987378 218.220673 
L 268.004294 172.257747 
L 257.705732 159.857022 
L 265.589555 205.774656 
z
" clip-path="url(#p738a61ae19)" style="fill: #0000f5; fill-opacity: 0.1"/>
    <path d="M 336.003561 326.911214 
L 327.347193 279.697498 
L 317.158288 267.501552 
L 325.717902 314.674788 
z
" clip-path="url(#p738a61ae19)" style="fill: #0000f5; fill-opacity: 0.1"/>
    <path d="M 205.582635 97.094446 
L 198.371909 52.427467 
L 187.92207 39.771841 
L 195.030154 84.387969 
z
" clip-path="url(#p738a61ae19)" style="fill: #0000f5; fill-opacity: 0.1"/>
    <path d="M 265.589555 205.774656 
L 257.705732 159.857022 
L 247.365492 147.406109 
L 255.149178 193.277703 
z
" clip-path="url(#p738a61ae19)" style="fill: #0000f5; fill-opacity: 0.1"/>
    <path d="M 325.717902 314.674788 
L 317.158288 267.501552 
L 306.928107 255.256199 
L 315.390106 302.388233 
z
" clip-path="url(#p738a61ae19)" style="fill: #0000f5; fill-opacity: 0.1"/>
    <path d="M 195.030154 84.387969 
L 187.92207 39.771841 
L 177.429896 27.064944 
L 184.43444 71.629436 
z
" clip-path="url(#p738a61ae19)" style="fill: #0000f5; fill-opacity: 0.1"/>
    <path d="M 255.149178 193.277703 
L 247.365492 147.406109 
L 236.983319 134.904704 
L 244.665985 180.729499 
z
" clip-path="url(#p738a61ae19)" style="fill: #0000f5; fill-opacity: 0.1"/>
    <path d="M 315.390106 302.388233 
L 306.928107 255.256199 
L 296.656397 242.961138 
L 305.019912 290.05124 
z
" clip-path="url(#p738a61ae19)" style="fill: #0000f5; fill-opacity: 0.1"/>
    <path d="M 184.43444 71.629436 
L 177.429896 27.064944 
L 166.895129 14.306463 
L 173.795229 58.818525 
z
" clip-path="url(#p738a61ae19)" style="fill: #0000f5; fill-opacity: 0.1"/>
    <path d="M 244.665985 180.729499 
L 236.983319 134.904704 
L 226.558957 122.352499 
L 234.139712 168.12973 
z
" clip-path="url(#p738a61ae19)" style="fill: #0000f5; fill-opacity: 0.1"/>
    <path d="M 305.019912 290.05124 
L 296.656397 242.961138 
L 286.342906 230.616064 
L 294.607059 277.663497 
z
" clip-path="url(#p738a61ae19)" style="fill: #0000f5; fill-opacity: 0.1"/>
    <path d="M 173.795229 58.818525 
L 166.895129 14.306463 
L 156.31751 1.496085 
L 163.112251 45.954915 
z
" clip-path="url(#p738a61ae19)" style="fill: #0000f5; fill-opacity: 0.1"/>
    <path d="M 234.139712 168.12973 
L 226.558957 122.352499 
L 216.092149 109.749184 
L 223.570093 155.478076 
z
" clip-path="url(#p738a61ae19)" style="fill: #0000f5; fill-opacity: 0.1"/>
    <path d="M 294.607059 277.663497 
L 286.342906 230.616064 
L 275.987378 218.220673 
L 284.151284 265.224691 
z
" clip-path="url(#p738a61ae19)" style="fill: #0000f5; fill-opacity: 0.1"/>
    <path d="M 223.570093 155.478076 
L 216.092149 109.749184 
L 205.582635 97.094446 
L 212.95686 142.774216 
z
" clip-path="url(#p738a61ae19)" style="fill: #0000f5; fill-opacity: 0.1"/>
    <path d="M 284.151284 265.224691 
L 275.987378 218.220673 
L 265.589555 205.774656 
L 273.65232 252.734505 
z
" clip-path="url(#p738a61ae19)" style="fill: #0000f5; fill-opacity: 0.1"/>
    <path d="M 212.95686 142.774216 
L 205.582635 97.094446 
L 195.030154 84.387969 
L 202.299742 130.017827 
z
" clip-path="url(#p738a61ae19)" style="fill: #0000f5; fill-opacity: 0.1"/>
    <path d="M 273.65232 252.734505 
L 265.589555 205.774656 
L 255.149178 193.277703 
L 263.109899 240.19262 
z
" clip-path="url(#p738a61ae19)" style="fill: #0000f5; fill-opacity: 0.1"/>
    <path d="M 202.299742 130.017827 
L 195.030154 84.387969 
L 184.43444 71.629436 
L 191.598466 117.208583 
z
" clip-path="url(#p738a61ae19)" style="fill: #0000f5; fill-opacity: 0.1"/>
    <path d="M 263.109899 240.19262 
L 255.149178 193.277703 
L 244.665985 180.729499 
L 252.523751 227.598715 
z
" clip-path="url(#p738a61ae19)" style="fill: #0000f5; fill-opacity: 0.1"/>
    <path d="M 191.598466 117.208583 
L 184.43444 71.629436 
L 173.795229 58.818525 
L 180.852758 104.346153 
z
" clip-path="url(#p738a61ae19)" style="fill: #0000f5; fill-opacity: 0.1"/>
    <path d="M 252.523751 227.598715 
L 244.665985 180.729499 
L 234.139712 168.12973 
L 241.893604 214.952465 
z
" clip-path="url(#p738a61ae19)" style="fill: #0000f5; fill-opacity: 0.1"/>
    <path d="M 180.852758 104.346153 
L 173.795229 58.818525 
L 163.112251 45.954915 
L 170.06234 91.430206 
z
" clip-path="url(#p738a61ae19)" style="fill: #0000f5; fill-opacity: 0.1"/>
    <path d="M 241.893604 214.952465 
L 234.139712 168.12973 
L 223.570093 155.478076 
L 231.219181 202.253544 
z
" clip-path="url(#p738a61ae19)" style="fill: #0000f5; fill-opacity: 0.1"/>
    <path d="M 231.219181 202.253544 
L 223.570093 155.478076 
L 212.95686 142.774216 
L 220.500207 189.50162 
z
" clip-path="url(#p738a61ae19)" style="fill: #0000f5; fill-opacity: 0.1"/>
    <path d="M 220.500207 189.50162 
L 212.95686 142.774216 
L 202.299742 130.017827 
L 209.736401 176.696363 
z
" clip-path="url(#p738a61ae19)" style="fill: #0000f5; fill-opacity: 0.1"/>
    <path d="M 209.736401 176.696363 
L 202.299742 130.017827 
L 191.598466 117.208583 
L 198.927483 163.837437 
z
" clip-path="url(#p738a61ae19)" style="fill: #0000f5; fill-opacity: 0.1"/>
    <path d="M 198.927483 163.837437 
L 191.598466 117.208583 
L 180.852758 104.346153 
L 188.073166 150.924503 
z
" clip-path="url(#p738a61ae19)" style="fill: #0000f5; fill-opacity: 0.1"/>
    <path d="M 188.073166 150.924503 
L 180.852758 104.346153 
L 170.06234 91.430206 
L 177.173166 137.957221 
z
" clip-path="url(#p738a61ae19)" style="fill: #0000f5; fill-opacity: 0.1"/>
   </g>
   <g id="legend_1">
    <g id="patch_6">
     <path d="M 357.840076 67.305115 
L 396.2 67.305115 
Q 398.2 67.305115 398.2 65.305115 
L 398.2 7 
Q 398.2 5 396.2 5 
L 357.840076 5 
Q 355.840076 5 355.840076 7 
L 355.840076 65.305115 
Q 355.840076 67.305115 357.840076 67.305115 
z
" style="fill: #ffffff; opacity: 0.8; stroke: #cccccc; stroke-linejoin: miter"/>
    </g>
    <g id="line2d_25">
     <path d="M 359.840076 12.5 
L 369.840076 12.5 
L 379.840076 12.5 
" style="fill: none; stroke: #ff0000; stroke-width: 1.5; stroke-linecap: square"/>
    </g>
    <g id="text_21">
     <!-- $\vec{a}$ -->
     <g transform="translate(387.840076 16)scale(0.1 -0.1)">
      <defs>
       <path id="CMMI12-7e" d="M 3424 3835 
C 3347 3764 3110 3540 3110 3451 
C 3110 3387 3168 3329 3232 3329 
C 3290 3329 3315 3368 3360 3432 
C 3514 3624 3686 3745 3834 3828 
C 3898 3867 3942 3886 3942 3956 
C 3942 4014 3891 4046 3853 4078 
C 3674 4200 3629 4372 3610 4449 
C 3590 4500 3571 4577 3482 4577 
C 3443 4577 3366 4552 3366 4456 
C 3366 4398 3405 4244 3526 4072 
L 1376 4072 
C 1267 4072 1158 4072 1158 3950 
C 1158 3835 1274 3835 1376 3835 
L 3424 3835 
z
" transform="scale(0.015625)"/>
       <path id="CMMI12-61" d="M 1926 760 
C 1894 651 1894 639 1805 517 
C 1664 338 1382 64 1082 64 
C 819 64 672 300 672 677 
C 672 1028 870 1743 992 2012 
C 1210 2459 1510 2689 1760 2689 
C 2182 2689 2266 2165 2266 2114 
C 2266 2108 2246 2024 2240 2012 
L 1926 760 
z
M 2336 2395 
C 2266 2561 2093 2816 1760 2816 
C 1037 2816 256 1884 256 939 
C 256 307 627 -64 1062 -64 
C 1414 -64 1715 211 1894 422 
C 1958 45 2259 -64 2451 -64 
C 2643 -64 2797 51 2912 281 
C 3014 498 3104 888 3104 913 
C 3104 945 3078 971 3040 971 
C 2982 971 2976 939 2950 843 
C 2854 466 2733 64 2470 64 
C 2285 64 2272 230 2272 358 
C 2272 505 2291 575 2349 824 
C 2394 984 2426 1124 2477 1309 
C 2714 2267 2771 2497 2771 2535 
C 2771 2625 2701 2695 2605 2695 
C 2400 2695 2349 2472 2336 2395 
z
" transform="scale(0.015625)"/>
      </defs>
      <use xlink:href="#CMMI12-7e" transform="scale(0.996264)"/>
      <use xlink:href="#CMMI12-61" transform="translate(6.445738 0)scale(0.996264)"/>
     </g>
    </g>
    <g id="line2d_26">
     <path d="M 359.840076 27.24679 
L 369.840076 27.24679 
L 379.840076 27.24679 
" style="fill: none; stroke: #00ff00; stroke-width: 1.5; stroke-linecap: square"/>
    </g>
    <g id="text_22">
     <!-- $\vec{b}$ -->
     <g transform="translate(387.840076 30.74679)scale(0.1 -0.1)">
      <defs>
       <path id="CMMI12-62" d="M 1478 4257 
C 1485 4283 1498 4321 1498 4352 
C 1498 4416 1434 4416 1421 4416 
C 1414 4416 1184 4393 1069 4377 
C 960 4377 864 4358 749 4358 
C 595 4345 550 4339 550 4224 
C 550 4160 614 4160 678 4160 
C 1005 4160 1005 4103 1005 4040 
C 1005 3996 954 3811 928 3696 
L 774 3085 
C 710 2831 346 1387 320 1272 
C 288 1114 288 1005 288 922 
C 288 274 653 -64 1069 -64 
C 1811 -64 2579 888 2579 1814 
C 2579 2401 2246 2816 1766 2816 
C 1434 2816 1133 2542 1011 2414 
L 1478 4257 
z
M 1075 64 
C 870 64 646 217 646 715 
C 646 926 666 1047 781 1494 
C 800 1577 902 1986 928 2069 
C 941 2120 1318 2689 1754 2689 
C 2035 2689 2163 2408 2163 2076 
C 2163 1769 1984 1047 1824 715 
C 1664 370 1370 64 1075 64 
z
" transform="scale(0.015625)"/>
      </defs>
      <use xlink:href="#CMMI12-7e" transform="translate(0 26.29016)scale(0.996264)"/>
      <use xlink:href="#CMMI12-62" transform="translate(11.311737 0)scale(0.996264)"/>
     </g>
    </g>
    <g id="line2d_27">
     <path d="M 359.840076 41.183968 
L 369.840076 41.183968 
L 379.840076 41.183968 
" style="fill: none; stroke: #0016ff; stroke-width: 1.5; stroke-linecap: square"/>
    </g>
    <g id="text_23">
     <!-- $\vec{c}$ -->
     <g transform="translate(387.840076 44.683968)scale(0.1 -0.1)">
      <defs>
       <path id="CMMI12-63" d="M 2502 2431 
C 2381 2431 2323 2431 2234 2355 
C 2195 2323 2125 2227 2125 2125 
C 2125 1997 2221 1920 2342 1920 
C 2496 1920 2669 2044 2669 2292 
C 2669 2588 2374 2816 1933 2816 
C 1094 2816 256 1903 256 996 
C 256 441 602 -64 1254 -64 
C 2125 -64 2675 622 2675 706 
C 2675 744 2637 776 2611 776 
C 2592 776 2586 770 2528 713 
C 2118 162 1510 64 1267 64 
C 826 64 685 446 685 764 
C 685 988 794 1605 1024 2039 
C 1190 2338 1536 2682 1939 2682 
C 2022 2682 2374 2682 2502 2431 
z
" transform="scale(0.015625)"/>
      </defs>
      <use xlink:href="#CMMI12-7e" transform="scale(0.996264)"/>
      <use xlink:href="#CMMI12-63" transform="translate(5.638615 0)scale(0.996264)"/>
     </g>
    </g>
    <g id="line2d_28">
     <path d="M 359.840076 57.867937 
L 369.840076 57.867937 
L 379.840076 57.867937 
" style="fill: none; stroke: #f400ff; stroke-width: 1.5; stroke-linecap: square"/>
    </g>
    <g id="text_24">
     <!-- $\vec{f}$ -->
     <g transform="translate(387.840076 61.367937)scale(0.1 -0.1)">
      <defs>
       <path id="CMMI12-66" d="M 2854 2566 
C 2982 2566 3034 2566 3034 2688 
C 3034 2752 2982 2752 2867 2752 
L 2349 2752 
C 2470 3429 2560 3897 2611 4107 
C 2650 4265 2784 4416 2950 4416 
C 3085 4416 3219 4358 3283 4298 
C 3034 4272 2957 4082 2957 3969 
C 2957 3837 3053 3759 3174 3759 
C 3302 3759 3494 3870 3494 4119 
C 3494 4393 3226 4544 2944 4544 
C 2669 4544 2400 4334 2272 4078 
C 2157 3848 2093 3611 1946 2752 
L 1517 2752 
C 1395 2752 1331 2752 1331 2637 
C 1331 2566 1370 2566 1498 2566 
L 1907 2566 
C 1792 1976 1530 542 1382 -137 
C 1274 -689 1178 -1152 858 -1152 
C 838 -1152 653 -1152 538 -1031 
C 864 -1005 864 -726 864 -720 
C 864 -593 768 -517 646 -517 
C 518 -517 326 -625 326 -867 
C 326 -1140 608 -1280 858 -1280 
C 1510 -1280 1779 -118 1850 199 
C 1965 688 2278 2376 2310 2566 
L 2854 2566 
z
" transform="scale(0.015625)"/>
      </defs>
      <use xlink:href="#CMMI12-7e" transform="translate(13.568792 26.29016)scale(0.996264)"/>
      <use xlink:href="#CMMI12-66" transform="scale(0.996264)"/>
     </g>
    </g>
   </g>
  </g>
 </g>
 <defs>
  <clipPath id="p738a61ae19">
   <rect x="57.6" y="0" width="345.6" height="345.6"/>
  </clipPath>
 </defs>
</svg>
