<?xml version="1.0" encoding="utf-8" standalone="no"?>
<!DOCTYPE svg PUBLIC "-//W3C//DTD SVG 1.1//EN"
  "http://www.w3.org/Graphics/SVG/1.1/DTD/svg11.dtd">
<svg xmlns:xlink="http://www.w3.org/1999/xlink" width="460.8pt" height="345.6pt" viewBox="0 0 460.8 345.6" xmlns="http://www.w3.org/2000/svg" version="1.1">
 <metadata>
  <rdf:RDF xmlns:dc="http://purl.org/dc/elements/1.1/" xmlns:cc="http://creativecommons.org/ns#" xmlns:rdf="http://www.w3.org/1999/02/22-rdf-syntax-ns#">
   <cc:Work>
    <dc:type rdf:resource="http://purl.org/dc/dcmitype/StillImage"/>
    <dc:date>2022-07-12T15:51:01.790748</dc:date>
    <dc:format>image/svg+xml</dc:format>
    <dc:creator>
     <cc:Agent>
      <dc:title>Matplotlib v3.5.1, https://matplotlib.org/</dc:title>
     </cc:Agent>
    </dc:creator>
   </cc:Work>
  </rdf:RDF>
 </metadata>
 <defs>
  <style type="text/css">*{stroke-linejoin: round; stroke-linecap: butt}</style>
 </defs>
 <g id="figure_1">
  <g id="patch_1">
   <path d="M 0 345.6 
L 460.8 345.6 
L 460.8 0 
L 0 0 
z
" style="fill: #ffffff"/>
  </g>
  <g id="patch_2">
   <path d="M 57.6 345.6 
L 403.2 345.6 
L 403.2 0 
L 57.6 0 
z
" style="fill: #ffffff"/>
  </g>
  <g id="pane3d_1">
   <g id="patch_3">
    <path d="M 301.481918 245.708654 
L 100.111652 248.457554 
L 100.111652 87.801906 
L 301.481918 90.550805 
" style="fill: #f2f2f2; opacity: 0.5; stroke: #f2f2f2; stroke-linejoin: miter"/>
   </g>
  </g>
  <g id="pane3d_2">
   <g id="patch_4">
    <path d="M 380.754099 254.841236 
L 301.481918 245.708654 
L 301.481918 90.550805 
L 380.754099 81.418224 
" style="fill: #e6e6e6; opacity: 0.5; stroke: #e6e6e6; stroke-linejoin: miter"/>
   </g>
  </g>
  <g id="pane3d_3">
   <g id="patch_5">
    <path d="M 380.754099 254.841236 
L 301.481918 245.708654 
L 100.111652 248.457554 
L 157.888487 258.289814 
" style="fill: #ececec; opacity: 0.5; stroke: #ececec; stroke-linejoin: miter"/>
   </g>
  </g>
  <g id="axis3d_1">
   <g id="line2d_1">
    <path d="M 100.111652 248.457554 
L 157.888487 258.289814 
" style="fill: none; stroke: #000000; stroke-width: 0.8; stroke-linecap: square"/>
   </g>
   <g id="text_1">
    <!-- x -->
    <g transform="translate(93.117097 281.243372)scale(0.16 -0.16)">
     <defs>
      <path id="CMSS17-78" d="M 1587 1414 
L 2656 2739 
L 2099 2739 
L 1363 1777 
L 602 2739 
L 32 2739 
L 1139 1414 
L 0 0 
L 563 0 
L 1363 1121 
L 2195 0 
L 2758 0 
L 1587 1414 
z
" transform="scale(0.015625)"/>
     </defs>
     <use xlink:href="#CMSS17-78" transform="scale(0.996264)"/>
    </g>
   </g>
   <g id="Line3DCollection_1">
    <path d="M 156.594678 258.069638 
L 378.98618 254.637562 
L 378.98618 81.621898 
" style="fill: none; stroke: #b0b0b0; stroke-width: 0.8"/>
    <path d="M 144.488262 256.009411 
L 362.427404 252.729902 
L 362.427404 83.529558 
" style="fill: none; stroke: #b0b0b0; stroke-width: 0.8"/>
    <path d="M 132.924063 254.041456 
L 346.583175 250.904562 
L 346.583175 85.354898 
" style="fill: none; stroke: #b0b0b0; stroke-width: 0.8"/>
    <path d="M 121.866451 252.15971 
L 331.408219 249.156325 
L 331.408219 87.103134 
" style="fill: none; stroke: #b0b0b0; stroke-width: 0.8"/>
    <path d="M 111.282851 250.35863 
L 316.861006 247.480408 
L 316.861006 88.779051 
" style="fill: none; stroke: #b0b0b0; stroke-width: 0.8"/>
    <path d="M 101.143424 248.633137 
L 302.903375 245.872414 
L 302.903375 90.387046 
" style="fill: none; stroke: #b0b0b0; stroke-width: 0.8"/>
   </g>
   <g id="xtick_1">
    <g id="line2d_2">
     <path d="M 158.443808 258.041101 
L 152.892895 258.126766 
" style="fill: none; stroke: #000000; stroke-width: 0.8; stroke-linecap: square"/>
    </g>
    <g id="text_2">
     <!-- $\mathdefault{0}$ -->
     <g transform="translate(139.29443 276.738212)scale(0.1 -0.1)">
      <defs>
       <path id="CMR17-30" d="M 2688 2025 
C 2688 2416 2682 3080 2413 3591 
C 2176 4039 1798 4198 1466 4198 
C 1158 4198 768 4058 525 3597 
C 269 3118 243 2524 243 2025 
C 243 1661 250 1106 448 619 
C 723 -39 1216 -128 1466 -128 
C 1760 -128 2208 -7 2470 600 
C 2662 1042 2688 1559 2688 2025 
z
M 1466 -26 
C 1056 -26 813 325 723 812 
C 653 1188 653 1738 653 2096 
C 653 2588 653 2997 736 3387 
C 858 3929 1216 4096 1466 4096 
C 1728 4096 2067 3923 2189 3400 
C 2272 3036 2278 2607 2278 2096 
C 2278 1680 2278 1169 2202 792 
C 2067 95 1690 -26 1466 -26 
z
" transform="scale(0.015625)"/>
      </defs>
      <use xlink:href="#CMR17-30" transform="scale(0.996264)"/>
     </g>
    </g>
   </g>
   <g id="xtick_2">
    <g id="line2d_3">
     <path d="M 146.298801 255.982166 
L 140.863814 256.063951 
" style="fill: none; stroke: #000000; stroke-width: 0.8; stroke-linecap: square"/>
    </g>
    <g id="text_3">
     <!-- $\mathdefault{1}$ -->
     <g transform="translate(127.498038 274.403046)scale(0.1 -0.1)">
      <defs>
       <path id="CMR17-31" d="M 1702 4058 
C 1702 4192 1696 4192 1606 4192 
C 1357 3916 979 3827 621 3827 
C 602 3827 570 3827 563 3808 
C 557 3795 557 3782 557 3648 
C 755 3648 1088 3686 1344 3839 
L 1344 461 
C 1344 236 1331 160 781 160 
L 589 160 
L 589 0 
C 896 0 1216 0 1523 0 
C 1830 0 2150 0 2458 0 
L 2458 160 
L 2266 160 
C 1715 160 1702 230 1702 458 
L 1702 4058 
z
" transform="scale(0.015625)"/>
      </defs>
      <use xlink:href="#CMR17-31" transform="scale(0.996264)"/>
     </g>
    </g>
   </g>
   <g id="xtick_3">
    <g id="line2d_4">
     <path d="M 134.697574 254.015417 
L 129.373813 254.09358 
" style="fill: none; stroke: #000000; stroke-width: 0.8; stroke-linecap: square"/>
    </g>
    <g id="text_4">
     <!-- $\mathdefault{2}$ -->
     <g transform="translate(116.231259 272.172719)scale(0.1 -0.1)">
      <defs>
       <path id="CMR17-32" d="M 2669 989 
L 2554 989 
C 2490 536 2438 459 2413 420 
C 2381 369 1920 369 1830 369 
L 602 369 
C 832 619 1280 1072 1824 1597 
C 2214 1967 2669 2402 2669 3035 
C 2669 3790 2067 4224 1395 4224 
C 691 4224 262 3604 262 3030 
C 262 2780 448 2748 525 2748 
C 589 2748 781 2787 781 3010 
C 781 3207 614 3264 525 3264 
C 486 3264 448 3258 422 3245 
C 544 3790 915 4058 1306 4058 
C 1862 4058 2227 3617 2227 3035 
C 2227 2479 1901 2000 1536 1584 
L 262 146 
L 262 0 
L 2515 0 
L 2669 989 
z
" transform="scale(0.015625)"/>
      </defs>
      <use xlink:href="#CMR17-32" transform="scale(0.996264)"/>
     </g>
    </g>
   </g>
   <g id="xtick_4">
    <g id="line2d_5">
     <path d="M 123.604405 252.134799 
L 118.387447 252.209575 
" style="fill: none; stroke: #000000; stroke-width: 0.8; stroke-linecap: square"/>
    </g>
    <g id="text_5">
     <!-- $\mathdefault{3}$ -->
     <g transform="translate(105.45921 270.040327)scale(0.1 -0.1)">
      <defs>
       <path id="CMR17-33" d="M 1414 2157 
C 1984 2157 2234 1662 2234 1090 
C 2234 320 1824 25 1453 25 
C 1114 25 563 194 390 693 
C 422 680 454 680 486 680 
C 640 680 755 782 755 948 
C 755 1133 614 1216 486 1216 
C 378 1216 211 1165 211 926 
C 211 335 787 -128 1466 -128 
C 2176 -128 2720 430 2720 1085 
C 2720 1707 2208 2157 1600 2227 
C 2086 2328 2554 2756 2554 3329 
C 2554 3820 2048 4179 1472 4179 
C 890 4179 378 3829 378 3329 
C 378 3110 544 3072 627 3072 
C 762 3072 877 3155 877 3321 
C 877 3486 762 3569 627 3569 
C 602 3569 570 3569 544 3557 
C 730 3959 1235 4032 1459 4032 
C 1683 4032 2106 3925 2106 3320 
C 2106 3143 2080 2828 1862 2550 
C 1670 2304 1453 2304 1242 2284 
C 1210 2284 1062 2269 1037 2269 
C 992 2263 966 2257 966 2208 
C 966 2163 973 2157 1101 2157 
L 1414 2157 
z
" transform="scale(0.015625)"/>
      </defs>
      <use xlink:href="#CMR17-33" transform="scale(0.996264)"/>
     </g>
    </g>
   </g>
   <g id="xtick_5">
    <g id="line2d_6">
     <path d="M 112.986636 250.334776 
L 107.872313 250.406379 
" style="fill: none; stroke: #000000; stroke-width: 0.8; stroke-linecap: square"/>
    </g>
    <g id="text_6">
     <!-- $\mathdefault{4}$ -->
     <g transform="translate(95.150005 267.999558)scale(0.1 -0.1)">
      <defs>
       <path id="CMR17-34" d="M 2150 4122 
C 2150 4256 2144 4256 2029 4256 
L 128 1254 
L 128 1088 
L 1779 1088 
L 1779 457 
C 1779 224 1766 160 1318 160 
L 1197 160 
L 1197 0 
C 1402 0 1747 0 1965 0 
C 2182 0 2528 0 2733 0 
L 2733 160 
L 2611 160 
C 2163 160 2150 224 2150 457 
L 2150 1088 
L 2803 1088 
L 2803 1254 
L 2150 1254 
L 2150 4122 
z
M 1798 3703 
L 1798 1254 
L 256 1254 
L 1798 3703 
z
" transform="scale(0.015625)"/>
      </defs>
      <use xlink:href="#CMR17-34" transform="scale(0.996264)"/>
     </g>
    </g>
   </g>
   <g id="xtick_6">
    <g id="line2d_7">
     <path d="M 102.814347 248.610274 
L 97.798729 248.678903 
" style="fill: none; stroke: #000000; stroke-width: 0.8; stroke-linecap: square"/>
    </g>
    <g id="text_7">
     <!-- $\mathdefault{5}$ -->
     <g transform="translate(85.27444 266.044631)scale(0.1 -0.1)">
      <defs>
       <path id="CMR17-35" d="M 730 3692 
C 794 3666 1056 3584 1325 3584 
C 1920 3584 2246 3911 2432 4100 
C 2432 4157 2432 4192 2394 4192 
C 2387 4192 2374 4192 2323 4163 
C 2099 4058 1837 3973 1517 3973 
C 1325 3973 1037 3999 723 4139 
C 653 4171 640 4171 634 4171 
C 602 4171 595 4164 595 4037 
L 595 2203 
C 595 2089 595 2057 659 2057 
C 691 2057 704 2070 736 2114 
C 941 2401 1222 2522 1542 2522 
C 1766 2522 2246 2382 2246 1289 
C 2246 1085 2246 715 2054 421 
C 1894 159 1645 25 1370 25 
C 947 25 518 320 403 814 
C 429 807 480 795 506 795 
C 589 795 749 840 749 1038 
C 749 1210 627 1280 506 1280 
C 358 1280 262 1190 262 1011 
C 262 454 704 -128 1382 -128 
C 2042 -128 2669 440 2669 1264 
C 2669 2030 2170 2624 1549 2624 
C 1222 2624 947 2503 730 2274 
L 730 3692 
z
" transform="scale(0.015625)"/>
      </defs>
      <use xlink:href="#CMR17-35" transform="scale(0.996264)"/>
     </g>
    </g>
   </g>
  </g>
  <g id="axis3d_2">
   <g id="line2d_8">
    <path d="M 380.754099 254.841236 
L 157.888487 258.289814 
" style="fill: none; stroke: #000000; stroke-width: 0.8; stroke-linecap: square"/>
   </g>
   <g id="text_8">
    <!-- y -->
    <g transform="translate(278.830699 286.987915)scale(0.16 -0.16)">
     <defs>
      <path id="CMSS17-79" d="M 2675 2752 
L 2176 2752 
C 1632 1294 1446 702 1434 383 
L 1427 383 
C 1408 696 1126 1460 902 2007 
L 602 2752 
L 83 2752 
L 1216 13 
C 1146 -178 1043 -465 1011 -529 
C 870 -885 774 -885 672 -885 
C 646 -885 442 -885 211 -809 
L 250 -1229 
C 410 -1261 570 -1280 685 -1280 
C 845 -1280 1165 -1280 1459 -497 
L 2675 2752 
z
" transform="scale(0.015625)"/>
     </defs>
     <use xlink:href="#CMSS17-79" transform="scale(0.996264)"/>
    </g>
   </g>
   <g id="Line3DCollection_2">
    <path d="M 278.832424 90.241617 
L 278.832424 246.017842 
L 355.77972 255.227684 
" style="fill: none; stroke: #b0b0b0; stroke-width: 0.8"/>
    <path d="M 240.944262 89.724407 
L 240.944262 246.535052 
L 313.950028 255.874949 
" style="fill: none; stroke: #b0b0b0; stroke-width: 0.8"/>
    <path d="M 202.549549 89.200282 
L 202.549549 247.059177 
L 271.49397 256.531905 
" style="fill: none; stroke: #b0b0b0; stroke-width: 0.8"/>
    <path d="M 163.638059 88.669103 
L 163.638059 247.590357 
L 228.397371 257.198774 
" style="fill: none; stroke: #b0b0b0; stroke-width: 0.8"/>
    <path d="M 124.199287 88.130725 
L 124.199287 248.128734 
L 184.645625 257.875779 
" style="fill: none; stroke: #b0b0b0; stroke-width: 0.8"/>
   </g>
   <g id="xtick_7">
    <g id="line2d_9">
     <path d="M 355.092004 255.145371 
L 357.159064 255.392778 
" style="fill: none; stroke: #000000; stroke-width: 0.8; stroke-linecap: square"/>
    </g>
    <g id="text_9">
     <!-- $\mathdefault{−4}$ -->
     <g transform="translate(354.953903 274.023072)scale(0.1 -0.1)">
      <defs>
       <path id="CMSY10-0" d="M 4218 1472 
C 4326 1472 4442 1472 4442 1600 
C 4442 1728 4326 1728 4218 1728 
L 755 1728 
C 646 1728 531 1728 531 1600 
C 531 1472 646 1472 755 1472 
L 4218 1472 
z
" transform="scale(0.015625)"/>
      </defs>
      <use xlink:href="#CMSY10-0" transform="scale(0.996264)"/>
      <use xlink:href="#CMR17-34" transform="translate(77.487468 0)scale(0.996264)"/>
     </g>
    </g>
   </g>
   <g id="xtick_8">
    <g id="line2d_10">
     <path d="M 313.29703 255.791408 
L 315.259763 256.042508 
" style="fill: none; stroke: #000000; stroke-width: 0.8; stroke-linecap: square"/>
    </g>
    <g id="text_10">
     <!-- $\mathdefault{−2}$ -->
     <g transform="translate(312.844898 274.76424)scale(0.1 -0.1)">
      <use xlink:href="#CMSY10-0" transform="scale(0.996264)"/>
      <use xlink:href="#CMR17-32" transform="translate(77.487468 0)scale(0.996264)"/>
     </g>
    </g>
   </g>
   <g id="xtick_9">
    <g id="line2d_11">
     <path d="M 270.876812 256.44711 
L 272.731847 256.701985 
" style="fill: none; stroke: #000000; stroke-width: 0.8; stroke-linecap: square"/>
    </g>
    <g id="text_11">
     <!-- $\mathdefault{0}$ -->
     <g transform="translate(273.974845 275.516592)scale(0.1 -0.1)">
      <use xlink:href="#CMR17-30" transform="scale(0.996264)"/>
     </g>
    </g>
   </g>
   <g id="xtick_10">
    <g id="line2d_12">
     <path d="M 227.817212 257.112695 
L 229.561063 257.371432 
" style="fill: none; stroke: #000000; stroke-width: 0.8; stroke-linecap: square"/>
    </g>
    <g id="text_12">
     <!-- $\mathdefault{2}$ -->
     <g transform="translate(230.580508 276.280383)scale(0.1 -0.1)">
      <use xlink:href="#CMR17-32" transform="scale(0.996264)"/>
     </g>
    </g>
   </g>
   <g id="xtick_11">
    <g id="line2d_13">
     <path d="M 184.103665 257.788388 
L 185.732722 258.051075 
" style="fill: none; stroke: #000000; stroke-width: 0.8; stroke-linecap: square"/>
    </g>
    <g id="text_13">
     <!-- $\mathdefault{4}$ -->
     <g transform="translate(186.521322 277.055876)scale(0.1 -0.1)">
      <use xlink:href="#CMR17-34" transform="scale(0.996264)"/>
     </g>
    </g>
   </g>
  </g>
  <g id="axis3d_3">
   <g id="line2d_14">
    <path d="M 380.754099 254.841236 
L 380.754099 81.418224 
" style="fill: none; stroke: #000000; stroke-width: 0.8; stroke-linecap: square"/>
   </g>
   <g id="text_14">
    <!-- z -->
    <g transform="translate(419.914004 172.114786)scale(0.16 -0.16)">
     <defs>
      <path id="CMSS17-7a" d="M 2400 2502 
L 2400 2750 
L 250 2750 
L 250 2368 
L 1069 2368 
C 1146 2368 1222 2368 1299 2368 
L 1747 2368 
L 166 261 
L 166 0 
L 2419 0 
L 2419 395 
L 1549 395 
C 1472 395 1395 395 1318 395 
L 826 395 
L 2400 2502 
z
" transform="scale(0.015625)"/>
     </defs>
     <use xlink:href="#CMSS17-7a" transform="scale(0.996264)"/>
    </g>
   </g>
   <g id="Line3DCollection_3">
    <path d="M 380.754099 251.372775 
L 301.481918 242.605498 
L 100.111652 245.244441 
" style="fill: none; stroke: #b0b0b0; stroke-width: 0.8"/>
    <path d="M 380.754099 218.075557 
L 301.481918 212.81519 
L 100.111652 214.398556 
" style="fill: none; stroke: #b0b0b0; stroke-width: 0.8"/>
    <path d="M 380.754099 184.778339 
L 301.481918 183.024883 
L 100.111652 183.552672 
" style="fill: none; stroke: #b0b0b0; stroke-width: 0.8"/>
    <path d="M 380.754099 151.481121 
L 301.481918 153.234576 
L 100.111652 152.706787 
" style="fill: none; stroke: #b0b0b0; stroke-width: 0.8"/>
    <path d="M 380.754099 118.183902 
L 301.481918 123.444269 
L 100.111652 121.860903 
" style="fill: none; stroke: #b0b0b0; stroke-width: 0.8"/>
    <path d="M 380.754099 84.886684 
L 301.481918 93.653962 
L 100.111652 91.015019 
" style="fill: none; stroke: #b0b0b0; stroke-width: 0.8"/>
   </g>
   <g id="xtick_12">
    <g id="line2d_15">
     <path d="M 380.045933 251.294454 
L 382.17444 251.529861 
" style="fill: none; stroke: #000000; stroke-width: 0.8; stroke-linecap: square"/>
    </g>
    <g id="text_15">
     <!-- $\mathdefault{0}$ -->
     <g transform="translate(397.717035 258.716078)scale(0.1 -0.1)">
      <use xlink:href="#CMR17-30" transform="scale(0.996264)"/>
     </g>
    </g>
   </g>
   <g id="xtick_13">
    <g id="line2d_16">
     <path d="M 380.045933 218.028564 
L 382.17444 218.169808 
" style="fill: none; stroke: #000000; stroke-width: 0.8; stroke-linecap: square"/>
    </g>
    <g id="text_16">
     <!-- $\mathdefault{1}$ -->
     <g transform="translate(397.717035 225.248938)scale(0.1 -0.1)">
      <use xlink:href="#CMR17-31" transform="scale(0.996264)"/>
     </g>
    </g>
   </g>
   <g id="xtick_14">
    <g id="line2d_17">
     <path d="M 380.045933 184.762675 
L 382.17444 184.809756 
" style="fill: none; stroke: #000000; stroke-width: 0.8; stroke-linecap: square"/>
    </g>
    <g id="text_17">
     <!-- $\mathdefault{2}$ -->
     <g transform="translate(397.717035 191.781798)scale(0.1 -0.1)">
      <use xlink:href="#CMR17-32" transform="scale(0.996264)"/>
     </g>
    </g>
   </g>
   <g id="xtick_15">
    <g id="line2d_18">
     <path d="M 380.045933 151.496785 
L 382.17444 151.449703 
" style="fill: none; stroke: #000000; stroke-width: 0.8; stroke-linecap: square"/>
    </g>
    <g id="text_18">
     <!-- $\mathdefault{3}$ -->
     <g transform="translate(397.717035 158.314658)scale(0.1 -0.1)">
      <use xlink:href="#CMR17-33" transform="scale(0.996264)"/>
     </g>
    </g>
   </g>
   <g id="xtick_16">
    <g id="line2d_19">
     <path d="M 380.045933 118.230895 
L 382.17444 118.089651 
" style="fill: none; stroke: #000000; stroke-width: 0.8; stroke-linecap: square"/>
    </g>
    <g id="text_19">
     <!-- $\mathdefault{4}$ -->
     <g transform="translate(397.717035 124.847518)scale(0.1 -0.1)">
      <use xlink:href="#CMR17-34" transform="scale(0.996264)"/>
     </g>
    </g>
   </g>
   <g id="xtick_17">
    <g id="line2d_20">
     <path d="M 380.045933 84.965005 
L 382.17444 84.729598 
" style="fill: none; stroke: #000000; stroke-width: 0.8; stroke-linecap: square"/>
    </g>
    <g id="text_20">
     <!-- $\mathdefault{5}$ -->
     <g transform="translate(397.717035 91.380378)scale(0.1 -0.1)">
      <use xlink:href="#CMR17-35" transform="scale(0.996264)"/>
     </g>
    </g>
   </g>
  </g>
  <g id="axes_1">
   <g id="line2d_21">
    <path d="M 269.953292 252.792602 
L 192.091207 84.452904 
" clip-path="url(#pc526c336e8)" style="fill: none; stroke: #ff0000; stroke-width: 1.5; stroke-linecap: square"/>
   </g>
   <g id="line2d_22">
    <path d="M 269.953292 252.792602 
L 282.457825 119.909138 
" clip-path="url(#pc526c336e8)" style="fill: none; stroke: #00ff00; stroke-width: 1.5; stroke-linecap: square"/>
   </g>
   <g id="line2d_23">
    <path d="M 269.953292 252.792602 
L 216.295401 -1 
" clip-path="url(#pc526c336e8)" style="fill: none; stroke: #0016ff; stroke-width: 1.5; stroke-linecap: square"/>
   </g>
   <g id="line2d_24">
    <path d="M 269.953292 252.792602 
L 261.294591 153.093821 
" clip-path="url(#pc526c336e8)" style="fill: none; stroke: #f400ff; stroke-width: 1.5; stroke-linecap: square"/>
   </g>
   <g id="Poly3DCollection_1">
    <path d="M 312.890579 23.292699 
L 305.876109 -16.720789 
L 296.410658 -28.36515 
L 303.338818 11.595015 
z
" clip-path="url(#pc526c336e8)" style="fill: #0000f5; fill-opacity: 0.1"/>
    <path d="M 303.338818 11.595015 
L 296.410658 -28.36515 
L 286.9136 -40.048395 
L 293.75483 -0.142137 
z
" clip-path="url(#pc526c336e8)" style="fill: #0000f5; fill-opacity: 0.1"/>
    <path d="M 293.75483 -0.142137 
L 286.9136 -40.048395 
L 277.384775 -51.770719 
L 284.138452 -11.918955 
z
" clip-path="url(#pc526c336e8)" style="fill: #0000f5; fill-opacity: 0.1"/>
    <path d="M 284.138452 -11.918955 
L 277.384775 -51.770719 
L 267.824024 -63.532318 
L 274.489519 -23.735643 
z
" clip-path="url(#pc526c336e8)" style="fill: #0000f5; fill-opacity: 0.1"/>
    <path d="M 274.489519 -23.735643 
L 267.824024 -63.532318 
L 258.231187 -75.33339 
L 264.807865 -35.592403 
z
" clip-path="url(#pc526c336e8)" style="fill: #0000f5; fill-opacity: 0.1"/>
    <path d="M 264.807865 -35.592403 
L 258.231187 -75.33339 
L 248.606101 -87.174134 
L 255.093324 -47.489438 
z
" clip-path="url(#pc526c336e8)" style="fill: #0000f5; fill-opacity: 0.1"/>
    <path d="M 255.093324 -47.489438 
L 248.606101 -87.174134 
L 238.948604 -99.05475 
L 245.345728 -59.426954 
z
" clip-path="url(#pc526c336e8)" style="fill: #0000f5; fill-opacity: 0.1"/>
    <path d="M 320.051752 64.143048 
L 312.890579 23.292699 
L 303.338818 11.595015 
L 310.412123 52.392348 
z
" clip-path="url(#pc526c336e8)" style="fill: #0000f5; fill-opacity: 0.1"/>
    <path d="M 245.345728 -59.426954 
L 238.948604 -99.05475 
L 229.258532 -110.97544 
L 235.564908 -71.405159 
z
" clip-path="url(#pc526c336e8)" style="fill: #0000f5; fill-opacity: 0.1"/>
    <path d="M 310.412123 52.392348 
L 303.338818 11.595015 
L 293.75483 -0.142137 
L 300.739629 40.601586 
z
" clip-path="url(#pc526c336e8)" style="fill: #0000f5; fill-opacity: 0.1"/>
    <path d="M 235.564908 -71.405159 
L 229.258532 -110.97544 
L 219.535719 -122.936408 
L 225.750693 -83.424261 
z
" clip-path="url(#pc526c336e8)" style="fill: #0000f5; fill-opacity: 0.1"/>
    <path d="M 300.739629 40.601586 
L 293.75483 -0.142137 
L 284.138452 -11.918955 
L 291.034103 28.770557 
z
" clip-path="url(#pc526c336e8)" style="fill: #0000f5; fill-opacity: 0.1"/>
    <path d="M 225.750693 -83.424261 
L 219.535719 -122.936408 
L 209.779999 -134.937857 
L 215.902913 -95.484469 
z
" clip-path="url(#pc526c336e8)" style="fill: #0000f5; fill-opacity: 0.1"/>
    <path d="M 291.034103 28.770557 
L 284.138452 -11.918955 
L 274.489519 -23.735643 
L 281.295373 16.899053 
z
" clip-path="url(#pc526c336e8)" style="fill: #0000f5; fill-opacity: 0.1"/>
    <path d="M 215.902913 -95.484469 
L 209.779999 -134.937857 
L 199.991206 -146.979993 
L 206.021395 -107.585995 
z
" clip-path="url(#pc526c336e8)" style="fill: #0000f5; fill-opacity: 0.1"/>
    <path d="M 281.295373 16.899053 
L 274.489519 -23.735643 
L 264.807865 -35.592403 
L 271.52327 4.986868 
z
" clip-path="url(#pc526c336e8)" style="fill: #0000f5; fill-opacity: 0.1"/>
    <path d="M 206.021395 -107.585995 
L 199.991206 -146.979993 
L 190.16917 -159.063024 
L 196.105965 -119.729052 
z
" clip-path="url(#pc526c336e8)" style="fill: #0000f5; fill-opacity: 0.1"/>
    <path d="M 271.52327 4.986868 
L 264.807865 -35.592403 
L 255.093324 -47.489438 
L 261.717622 -6.96621 
z
" clip-path="url(#pc526c336e8)" style="fill: #0000f5; fill-opacity: 0.1"/>
    <path d="M 196.105965 -119.729052 
L 190.16917 -159.063024 
L 180.313722 -171.187159 
L 186.156448 -131.913853 
z
" clip-path="url(#pc526c336e8)" style="fill: #0000f5; fill-opacity: 0.1"/>
    <path d="M 261.717622 -6.96621 
L 255.093324 -47.489438 
L 245.345728 -59.426954 
L 251.878255 -18.960389 
z
" clip-path="url(#pc526c336e8)" style="fill: #0000f5; fill-opacity: 0.1"/>
    <path d="M 327.364281 105.85679 
L 320.051752 64.143048 
L 310.412123 52.392348 
L 317.635183 94.053436 
z
" clip-path="url(#pc526c336e8)" style="fill: #0000f5; fill-opacity: 0.1"/>
    <path d="M 186.156448 -131.913853 
L 180.313722 -171.187159 
L 170.424691 -183.352607 
L 176.172669 -144.140615 
z
" clip-path="url(#pc526c336e8)" style="fill: #0000f5; fill-opacity: 0.1"/>
    <path d="M 251.878255 -18.960389 
L 245.345728 -59.426954 
L 235.564908 -71.405159 
L 242.004996 -30.995884 
z
" clip-path="url(#pc526c336e8)" style="fill: #0000f5; fill-opacity: 0.1"/>
    <path d="M 317.635183 94.053436 
L 310.412123 52.392348 
L 300.739629 40.601586 
L 307.872564 82.209415 
z
" clip-path="url(#pc526c336e8)" style="fill: #0000f5; fill-opacity: 0.1"/>
    <path d="M 176.172669 -144.140615 
L 170.424691 -183.352607 
L 160.501906 -195.55958 
L 166.154449 -156.409554 
z
" clip-path="url(#pc526c336e8)" style="fill: #0000f5; fill-opacity: 0.1"/>
    <path d="M 242.004996 -30.995884 
L 235.564908 -71.405159 
L 225.750693 -83.424261 
L 232.097669 -43.072907 
z
" clip-path="url(#pc526c336e8)" style="fill: #0000f5; fill-opacity: 0.1"/>
    <path d="M 307.872564 82.209415 
L 300.739629 40.601586 
L 291.034103 28.770557 
L 298.07625 70.324515 
z
" clip-path="url(#pc526c336e8)" style="fill: #0000f5; fill-opacity: 0.1"/>
    <path d="M 166.154449 -156.409554 
L 160.501906 -195.55958 
L 150.545192 -207.808291 
L 156.101611 -168.720888 
z
" clip-path="url(#pc526c336e8)" style="fill: #0000f5; fill-opacity: 0.1"/>
    <path d="M 232.097669 -43.072907 
L 225.750693 -83.424261 
L 215.902913 -95.484469 
L 222.156098 -55.191675 
z
" clip-path="url(#pc526c336e8)" style="fill: #0000f5; fill-opacity: 0.1"/>
    <path d="M 298.07625 70.324515 
L 291.034103 28.770557 
L 281.295373 16.899053 
L 288.246066 58.398523 
z
" clip-path="url(#pc526c336e8)" style="fill: #0000f5; fill-opacity: 0.1"/>
    <path d="M 156.101611 -168.720888 
L 150.545192 -207.808291 
L 140.554376 -220.098954 
L 146.013975 -181.074839 
z
" clip-path="url(#pc526c336e8)" style="fill: #0000f5; fill-opacity: 0.1"/>
    <path d="M 222.156098 -55.191675 
L 215.902913 -95.484469 
L 206.021395 -107.585995 
L 212.180104 -67.352403 
z
" clip-path="url(#pc526c336e8)" style="fill: #0000f5; fill-opacity: 0.1"/>
    <path d="M 288.246066 58.398523 
L 281.295373 16.899053 
L 271.52327 4.986868 
L 278.381837 46.431227 
z
" clip-path="url(#pc526c336e8)" style="fill: #0000f5; fill-opacity: 0.1"/>
    <path d="M 146.013975 -181.074839 
L 140.554376 -220.098954 
L 130.529283 -232.431786 
L 135.89136 -193.471628 
z
" clip-path="url(#pc526c336e8)" style="fill: #0000f5; fill-opacity: 0.1"/>
    <path d="M 212.180104 -67.352403 
L 206.021395 -107.585995 
L 196.105965 -119.729052 
L 202.169509 -79.555311 
z
" clip-path="url(#pc526c336e8)" style="fill: #0000f5; fill-opacity: 0.1"/>
    <path d="M 278.381837 46.431227 
L 271.52327 4.986868 
L 261.717622 -6.96621 
L 268.483384 34.422412 
z
" clip-path="url(#pc526c336e8)" style="fill: #0000f5; fill-opacity: 0.1"/>
    <path d="M 135.89136 -193.471628 
L 130.529283 -232.431786 
L 120.469735 -244.807003 
L 125.733583 -205.911478 
z
" clip-path="url(#pc526c336e8)" style="fill: #0000f5; fill-opacity: 0.1"/>
    <path d="M 202.169509 -79.555311 
L 196.105965 -119.729052 
L 186.156448 -131.913853 
L 192.124132 -91.800617 
z
" clip-path="url(#pc526c336e8)" style="fill: #0000f5; fill-opacity: 0.1"/>
    <path d="M 268.483384 34.422412 
L 261.717622 -6.96621 
L 251.878255 -18.960389 
L 258.55053 22.37186 
z
" clip-path="url(#pc526c336e8)" style="fill: #0000f5; fill-opacity: 0.1"/>
    <path d="M 334.833014 148.461588 
L 327.364281 105.85679 
L 317.635183 94.053436 
L 325.012805 136.606004 
z
" clip-path="url(#pc526c336e8)" style="fill: #0000f5; fill-opacity: 0.1"/>
    <path d="M 192.124132 -91.800617 
L 186.156448 -131.913853 
L 176.172669 -144.140615 
L 182.043791 -104.088544 
z
" clip-path="url(#pc526c336e8)" style="fill: #0000f5; fill-opacity: 0.1"/>
    <path d="M 258.55053 22.37186 
L 251.878255 -18.960389 
L 242.004996 -30.995884 
L 248.583094 10.279355 
z
" clip-path="url(#pc526c336e8)" style="fill: #0000f5; fill-opacity: 0.1"/>
    <path d="M 325.012805 136.606004 
L 317.635183 94.053436 
L 307.872564 82.209415 
L 315.158398 124.709133 
z
" clip-path="url(#pc526c336e8)" style="fill: #0000f5; fill-opacity: 0.1"/>
    <path d="M 182.043791 -104.088544 
L 176.172669 -144.140615 
L 166.154449 -156.409554 
L 171.928305 -116.419314 
z
" clip-path="url(#pc526c336e8)" style="fill: #0000f5; fill-opacity: 0.1"/>
    <path d="M 248.583094 10.279355 
L 242.004996 -30.995884 
L 232.097669 -43.072907 
L 238.580897 -1.855323 
z
" clip-path="url(#pc526c336e8)" style="fill: #0000f5; fill-opacity: 0.1"/>
    <path d="M 315.158398 124.709133 
L 307.872564 82.209415 
L 298.07625 70.324515 
L 305.269614 112.770761 
z
" clip-path="url(#pc526c336e8)" style="fill: #0000f5; fill-opacity: 0.1"/>
    <path d="M 171.928305 -116.419314 
L 166.154449 -156.409554 
L 156.101611 -168.720888 
L 161.777488 -128.793151 
z
" clip-path="url(#pc526c336e8)" style="fill: #0000f5; fill-opacity: 0.1"/>
    <path d="M 238.580897 -1.855323 
L 232.097669 -43.072907 
L 222.156098 -55.191675 
L 228.543755 -14.032396 
z
" clip-path="url(#pc526c336e8)" style="fill: #0000f5; fill-opacity: 0.1"/>
    <path d="M 305.269614 112.770761 
L 298.07625 70.324515 
L 288.246066 58.398523 
L 295.346273 100.790668 
z
" clip-path="url(#pc526c336e8)" style="fill: #0000f5; fill-opacity: 0.1"/>
    <path d="M 161.777488 -128.793151 
L 156.101611 -168.720888 
L 146.013975 -181.074839 
L 151.591155 -141.210283 
z
" clip-path="url(#pc526c336e8)" style="fill: #0000f5; fill-opacity: 0.1"/>
    <path d="M 228.543755 -14.032396 
L 222.156098 -55.191675 
L 212.180104 -67.352403 
L 218.471486 -26.252086 
z
" clip-path="url(#pc526c336e8)" style="fill: #0000f5; fill-opacity: 0.1"/>
    <path d="M 295.346273 100.790668 
L 288.246066 58.398523 
L 278.381837 46.431227 
L 285.388193 88.768637 
z
" clip-path="url(#pc526c336e8)" style="fill: #0000f5; fill-opacity: 0.1"/>
    <path d="M 151.591155 -141.210283 
L 146.013975 -181.074839 
L 135.89136 -193.471628 
L 141.369119 -153.670936 
z
" clip-path="url(#pc526c336e8)" style="fill: #0000f5; fill-opacity: 0.1"/>
    <path d="M 218.471486 -26.252086 
L 212.180104 -67.352403 
L 202.169509 -79.555311 
L 208.363904 -38.514616 
z
" clip-path="url(#pc526c336e8)" style="fill: #0000f5; fill-opacity: 0.1"/>
    <path d="M 285.388193 88.768637 
L 278.381837 46.431227 
L 268.483384 34.422412 
L 275.395192 76.704446 
z
" clip-path="url(#pc526c336e8)" style="fill: #0000f5; fill-opacity: 0.1"/>
    <path d="M 141.369119 -153.670936 
L 135.89136 -193.471628 
L 125.733583 -205.911478 
L 131.111194 -166.175339 
z
" clip-path="url(#pc526c336e8)" style="fill: #0000f5; fill-opacity: 0.1"/>
    <path d="M 208.363904 -38.514616 
L 202.169509 -79.555311 
L 192.124132 -91.800617 
L 198.220825 -50.820213 
z
" clip-path="url(#pc526c336e8)" style="fill: #0000f5; fill-opacity: 0.1"/>
    <path d="M 275.395192 76.704446 
L 268.483384 34.422412 
L 258.55053 22.37186 
L 265.367084 64.597874 
z
" clip-path="url(#pc526c336e8)" style="fill: #0000f5; fill-opacity: 0.1"/>
    <path d="M 342.463011 191.986303 
L 334.833014 148.461588 
L 325.012805 136.606004 
L 332.550003 180.078974 
z
" clip-path="url(#pc526c336e8)" style="fill: #0000f5; fill-opacity: 0.1"/>
    <path d="M 198.220825 -50.820213 
L 192.124132 -91.800617 
L 182.043791 -104.088544 
L 188.042059 -63.169105 
z
" clip-path="url(#pc526c336e8)" style="fill: #0000f5; fill-opacity: 0.1"/>
    <path d="M 265.367084 64.597874 
L 258.55053 22.37186 
L 248.583094 10.279355 
L 255.303687 52.448696 
z
" clip-path="url(#pc526c336e8)" style="fill: #0000f5; fill-opacity: 0.1"/>
    <path d="M 332.550003 180.078974 
L 325.012805 136.606004 
L 315.158398 124.709133 
L 322.602101 168.12973 
z
" clip-path="url(#pc526c336e8)" style="fill: #0000f5; fill-opacity: 0.1"/>
    <path d="M 188.042059 -63.169105 
L 182.043791 -104.088544 
L 171.928305 -116.419314 
L 177.827419 -75.561519 
z
" clip-path="url(#pc526c336e8)" style="fill: #0000f5; fill-opacity: 0.1"/>
    <path d="M 255.303687 52.448696 
L 248.583094 10.279355 
L 238.580897 -1.855323 
L 245.204811 40.256687 
z
" clip-path="url(#pc526c336e8)" style="fill: #0000f5; fill-opacity: 0.1"/>
    <path d="M 322.602101 168.12973 
L 315.158398 124.709133 
L 305.269614 112.770761 
L 312.619118 156.138348 
z
" clip-path="url(#pc526c336e8)" style="fill: #0000f5; fill-opacity: 0.1"/>
    <path d="M 177.827419 -75.561519 
L 171.928305 -116.419314 
L 161.777488 -128.793151 
L 167.576715 -87.997686 
z
" clip-path="url(#pc526c336e8)" style="fill: #0000f5; fill-opacity: 0.1"/>
    <path d="M 245.204811 40.256687 
L 238.580897 -1.855323 
L 228.543755 -14.032396 
L 235.07027 28.021621 
z
" clip-path="url(#pc526c336e8)" style="fill: #0000f5; fill-opacity: 0.1"/>
    <path d="M 312.619118 156.138348 
L 305.269614 112.770761 
L 295.346273 100.790668 
L 302.60087 144.104606 
z
" clip-path="url(#pc526c336e8)" style="fill: #0000f5; fill-opacity: 0.1"/>
    <path d="M 167.576715 -87.997686 
L 161.777488 -128.793151 
L 151.591155 -141.210283 
L 157.289755 -100.477839 
z
" clip-path="url(#pc526c336e8)" style="fill: #0000f5; fill-opacity: 0.1"/>
    <path d="M 235.07027 28.021621 
L 228.543755 -14.032396 
L 218.471486 -26.252086 
L 224.899875 15.743269 
z
" clip-path="url(#pc526c336e8)" style="fill: #0000f5; fill-opacity: 0.1"/>
    <path d="M 302.60087 144.104606 
L 295.346273 100.790668 
L 285.388193 88.768637 
L 292.547168 132.028278 
z
" clip-path="url(#pc526c336e8)" style="fill: #0000f5; fill-opacity: 0.1"/>
    <path d="M 157.289755 -100.477839 
L 151.591155 -141.210283 
L 141.369119 -153.670936 
L 146.966346 -113.002211 
z
" clip-path="url(#pc526c336e8)" style="fill: #0000f5; fill-opacity: 0.1"/>
    <path d="M 224.899875 15.743269 
L 218.471486 -26.252086 
L 208.363904 -38.514616 
L 214.693434 3.421401 
z
" clip-path="url(#pc526c336e8)" style="fill: #0000f5; fill-opacity: 0.1"/>
    <path d="M 292.547168 132.028278 
L 285.388193 88.768637 
L 275.395192 76.704446 
L 282.457825 119.909138 
z
" clip-path="url(#pc526c336e8)" style="fill: #0000f5; fill-opacity: 0.1"/>
    <path d="M 146.966346 -113.002211 
L 141.369119 -153.670936 
L 131.111194 -166.175339 
L 136.606295 -125.571038 
z
" clip-path="url(#pc526c336e8)" style="fill: #0000f5; fill-opacity: 0.1"/>
    <path d="M 214.693434 3.421401 
L 208.363904 -38.514616 
L 198.220825 -50.820213 
L 204.450756 -8.944216 
z
" clip-path="url(#pc526c336e8)" style="fill: #0000f5; fill-opacity: 0.1"/>
    <path d="M 282.457825 119.909138 
L 275.395192 76.704446 
L 265.367084 64.597874 
L 272.332651 107.746958 
z
" clip-path="url(#pc526c336e8)" style="fill: #0000f5; fill-opacity: 0.1"/>
    <path d="M 350.259551 236.461053 
L 342.463011 191.986303 
L 332.550003 180.078974 
L 340.252012 224.502536 
z
" clip-path="url(#pc526c336e8)" style="fill: #0000f5; fill-opacity: 0.1"/>
    <path d="M 204.450756 -8.944216 
L 198.220825 -50.820213 
L 188.042059 -63.169105 
L 194.171647 -21.353813 
z
" clip-path="url(#pc526c336e8)" style="fill: #0000f5; fill-opacity: 0.1"/>
    <path d="M 272.332651 107.746958 
L 265.367084 64.597874 
L 255.303687 52.448696 
L 262.171454 95.541508 
z
" clip-path="url(#pc526c336e8)" style="fill: #0000f5; fill-opacity: 0.1"/>
    <path d="M 340.252012 224.502536 
L 332.550003 180.078974 
L 322.602101 168.12973 
L 330.208858 212.501462 
z
" clip-path="url(#pc526c336e8)" style="fill: #0000f5; fill-opacity: 0.1"/>
    <path d="M 194.171647 -21.353813 
L 188.042059 -63.169105 
L 177.827419 -75.561519 
L 183.855913 -33.807627 
z
" clip-path="url(#pc526c336e8)" style="fill: #0000f5; fill-opacity: 0.1"/>
    <path d="M 262.171454 95.541508 
L 255.303687 52.448696 
L 245.204811 40.256687 
L 251.974042 83.292557 
z
" clip-path="url(#pc526c336e8)" style="fill: #0000f5; fill-opacity: 0.1"/>
    <path d="M 330.208858 212.501462 
L 322.602101 168.12973 
L 312.619118 156.138348 
L 320.129901 200.457603 
z
" clip-path="url(#pc526c336e8)" style="fill: #0000f5; fill-opacity: 0.1"/>
    <path d="M 183.855913 -33.807627 
L 177.827419 -75.561519 
L 167.576715 -87.997686 
L 173.503358 -46.305895 
z
" clip-path="url(#pc526c336e8)" style="fill: #0000f5; fill-opacity: 0.1"/>
    <path d="M 251.974042 83.292557 
L 245.204811 40.256687 
L 235.07027 28.021621 
L 241.740221 70.999873 
z
" clip-path="url(#pc526c336e8)" style="fill: #0000f5; fill-opacity: 0.1"/>
    <path d="M 320.129901 200.457603 
L 312.619118 156.138348 
L 302.60087 144.104606 
L 310.014947 188.370731 
z
" clip-path="url(#pc526c336e8)" style="fill: #0000f5; fill-opacity: 0.1"/>
    <path d="M 173.503358 -46.305895 
L 167.576715 -87.997686 
L 157.289755 -100.477839 
L 163.113783 -58.848853 
z
" clip-path="url(#pc526c336e8)" style="fill: #0000f5; fill-opacity: 0.1"/>
    <path d="M 241.740221 70.999873 
L 235.07027 28.021621 
L 224.899875 15.743269 
L 231.469795 58.663219 
z
" clip-path="url(#pc526c336e8)" style="fill: #0000f5; fill-opacity: 0.1"/>
    <path d="M 310.014947 188.370731 
L 302.60087 144.104606 
L 292.547168 132.028278 
L 299.863804 176.240614 
z
" clip-path="url(#pc526c336e8)" style="fill: #0000f5; fill-opacity: 0.1"/>
    <path d="M 163.113783 -58.848853 
L 157.289755 -100.477839 
L 146.966346 -113.002211 
L 152.686991 -71.436744 
z
" clip-path="url(#pc526c336e8)" style="fill: #0000f5; fill-opacity: 0.1"/>
    <path d="M 231.469795 58.663219 
L 224.899875 15.743269 
L 214.693434 3.421401 
L 221.162568 46.282361 
z
" clip-path="url(#pc526c336e8)" style="fill: #0000f5; fill-opacity: 0.1"/>
    <path d="M 299.863804 176.240614 
L 292.547168 132.028278 
L 282.457825 119.909138 
L 289.676276 164.06702 
z
" clip-path="url(#pc526c336e8)" style="fill: #0000f5; fill-opacity: 0.1"/>
    <path d="M 152.686991 -71.436744 
L 146.966346 -113.002211 
L 136.606295 -125.571038 
L 142.222781 -84.069808 
z
" clip-path="url(#pc526c336e8)" style="fill: #0000f5; fill-opacity: 0.1"/>
    <path d="M 221.162568 46.282361 
L 214.693434 3.421401 
L 204.450756 -8.944216 
L 210.818341 33.857059 
z
" clip-path="url(#pc526c336e8)" style="fill: #0000f5; fill-opacity: 0.1"/>
    <path d="M 289.676276 164.06702 
L 282.457825 119.909138 
L 272.332651 107.746958 
L 279.452169 151.849715 
z
" clip-path="url(#pc526c336e8)" style="fill: #0000f5; fill-opacity: 0.1"/>
    <path d="M 358.228149 281.917288 
L 350.259551 236.461053 
L 340.252012 224.502536 
L 348.124296 269.908213 
z
" clip-path="url(#pc526c336e8)" style="fill: #0000f5; fill-opacity: 0.1"/>
    <path d="M 210.818341 33.857059 
L 204.450756 -8.944216 
L 194.171647 -21.353813 
L 200.436916 21.387075 
z
" clip-path="url(#pc526c336e8)" style="fill: #0000f5; fill-opacity: 0.1"/>
    <path d="M 279.452169 151.849715 
L 272.332651 107.746958 
L 262.171454 95.541508 
L 269.191285 139.588463 
z
" clip-path="url(#pc526c336e8)" style="fill: #0000f5; fill-opacity: 0.1"/>
    <path d="M 348.124296 269.908213 
L 340.252012 224.502536 
L 330.208858 212.501462 
L 337.984089 257.855928 
z
" clip-path="url(#pc526c336e8)" style="fill: #0000f5; fill-opacity: 0.1"/>
    <path d="M 200.436916 21.387075 
L 194.171647 -21.353813 
L 183.855913 -33.807627 
L 190.018091 8.872167 
z
" clip-path="url(#pc526c336e8)" style="fill: #0000f5; fill-opacity: 0.1"/>
    <path d="M 269.191285 139.588463 
L 262.171454 95.541508 
L 251.974042 83.292557 
L 258.893424 127.283026 
z
" clip-path="url(#pc526c336e8)" style="fill: #0000f5; fill-opacity: 0.1"/>
    <path d="M 337.984089 257.855928 
L 330.208858 212.501462 
L 320.129901 200.457603 
L 327.80733 245.760199 
z
" clip-path="url(#pc526c336e8)" style="fill: #0000f5; fill-opacity: 0.1"/>
    <path d="M 190.018091 8.872167 
L 183.855913 -33.807627 
L 173.503358 -46.305895 
L 179.561663 -3.687909 
z
" clip-path="url(#pc526c336e8)" style="fill: #0000f5; fill-opacity: 0.1"/>
    <path d="M 258.893424 127.283026 
L 251.974042 83.292557 
L 241.740221 70.999873 
L 248.558387 114.933165 
z
" clip-path="url(#pc526c336e8)" style="fill: #0000f5; fill-opacity: 0.1"/>
    <path d="M 327.80733 245.760199 
L 320.129901 200.457603 
L 310.014947 188.370731 
L 317.593822 233.620791 
z
" clip-path="url(#pc526c336e8)" style="fill: #0000f5; fill-opacity: 0.1"/>
    <path d="M 179.561663 -3.687909 
L 173.503358 -46.305895 
L 163.113783 -58.848853 
L 169.067428 -16.293397 
z
" clip-path="url(#pc526c336e8)" style="fill: #0000f5; fill-opacity: 0.1"/>
    <path d="M 248.558387 114.933165 
L 241.740221 70.999873 
L 231.469795 58.663219 
L 238.185972 102.53864 
z
" clip-path="url(#pc526c336e8)" style="fill: #0000f5; fill-opacity: 0.1"/>
    <path d="M 317.593822 233.620791 
L 310.014947 188.370731 
L 299.863804 176.240614 
L 307.343365 221.437467 
z
" clip-path="url(#pc526c336e8)" style="fill: #0000f5; fill-opacity: 0.1"/>
    <path d="M 169.067428 -16.293397 
L 163.113783 -58.848853 
L 152.686991 -71.436744 
L 158.535182 -28.944544 
z
" clip-path="url(#pc526c336e8)" style="fill: #0000f5; fill-opacity: 0.1"/>
    <path d="M 238.185972 102.53864 
L 231.469795 58.663219 
L 221.162568 46.282361 
L 227.775976 90.099206 
z
" clip-path="url(#pc526c336e8)" style="fill: #0000f5; fill-opacity: 0.1"/>
    <path d="M 307.343365 221.437467 
L 299.863804 176.240614 
L 289.676276 164.06702 
L 297.055758 209.209989 
z
" clip-path="url(#pc526c336e8)" style="fill: #0000f5; fill-opacity: 0.1"/>
    <path d="M 158.535182 -28.944544 
L 152.686991 -71.436744 
L 142.222781 -84.069808 
L 147.964718 -41.641599 
z
" clip-path="url(#pc526c336e8)" style="fill: #0000f5; fill-opacity: 0.1"/>
    <path d="M 227.775976 90.099206 
L 221.162568 46.282361 
L 210.818341 33.857059 
L 217.328195 77.614621 
z
" clip-path="url(#pc526c336e8)" style="fill: #0000f5; fill-opacity: 0.1"/>
    <path d="M 297.055758 209.209989 
L 289.676276 164.06702 
L 279.452169 151.849715 
L 286.7308 196.938115 
z
" clip-path="url(#pc526c336e8)" style="fill: #0000f5; fill-opacity: 0.1"/>
    <path d="M 366.374562 328.387859 
L 358.228149 281.917288 
L 348.124296 269.908213 
L 356.172566 316.328938 
z
" clip-path="url(#pc526c336e8)" style="fill: #0000f5; fill-opacity: 0.1"/>
    <path d="M 217.328195 77.614621 
L 210.818341 33.857059 
L 200.436916 21.387075 
L 206.842421 65.084638 
z
" clip-path="url(#pc526c336e8)" style="fill: #0000f5; fill-opacity: 0.1"/>
    <path d="M 286.7308 196.938115 
L 279.452169 151.849715 
L 269.191285 139.588463 
L 276.368285 184.621603 
z
" clip-path="url(#pc526c336e8)" style="fill: #0000f5; fill-opacity: 0.1"/>
    <path d="M 356.172566 316.328938 
L 348.124296 269.908213 
L 337.984089 257.855928 
L 345.933452 304.226142 
z
" clip-path="url(#pc526c336e8)" style="fill: #0000f5; fill-opacity: 0.1"/>
    <path d="M 206.842421 65.084638 
L 200.436916 21.387075 
L 190.018091 8.872167 
L 196.318448 52.509008 
z
" clip-path="url(#pc526c336e8)" style="fill: #0000f5; fill-opacity: 0.1"/>
    <path d="M 276.368285 184.621603 
L 269.191285 139.588463 
L 258.893424 127.283026 
L 265.96801 172.26021 
z
" clip-path="url(#pc526c336e8)" style="fill: #0000f5; fill-opacity: 0.1"/>
    <path d="M 345.933452 304.226142 
L 337.984089 257.855928 
L 327.80733 245.760199 
L 335.657015 292.07923 
z
" clip-path="url(#pc526c336e8)" style="fill: #0000f5; fill-opacity: 0.1"/>
    <path d="M 196.318448 52.509008 
L 190.018091 8.872167 
L 179.561663 -3.687909 
L 185.756066 39.887481 
z
" clip-path="url(#pc526c336e8)" style="fill: #0000f5; fill-opacity: 0.1"/>
    <path d="M 265.96801 172.26021 
L 258.893424 127.283026 
L 248.558387 114.933165 
L 255.529766 159.85369 
z
" clip-path="url(#pc526c336e8)" style="fill: #0000f5; fill-opacity: 0.1"/>
    <path d="M 335.657015 292.07923 
L 327.80733 245.760199 
L 317.593822 233.620791 
L 325.343052 279.887962 
z
" clip-path="url(#pc526c336e8)" style="fill: #0000f5; fill-opacity: 0.1"/>
    <path d="M 185.756066 39.887481 
L 179.561663 -3.687909 
L 169.067428 -16.293397 
L 175.155065 27.219806 
z
" clip-path="url(#pc526c336e8)" style="fill: #0000f5; fill-opacity: 0.1"/>
    <path d="M 255.529766 159.85369 
L 248.558387 114.933165 
L 238.185972 102.53864 
L 245.053346 147.401795 
z
" clip-path="url(#pc526c336e8)" style="fill: #0000f5; fill-opacity: 0.1"/>
    <path d="M 325.343052 279.887962 
L 317.593822 233.620791 
L 307.343365 221.437467 
L 314.991357 267.652093 
z
" clip-path="url(#pc526c336e8)" style="fill: #0000f5; fill-opacity: 0.1"/>
    <path d="M 175.155065 27.219806 
L 169.067428 -16.293397 
L 158.535182 -28.944544 
L 164.515233 14.50573 
z
" clip-path="url(#pc526c336e8)" style="fill: #0000f5; fill-opacity: 0.1"/>
    <path d="M 245.053346 147.401795 
L 238.185972 102.53864 
L 227.775976 90.099206 
L 234.53854 134.904275 
z
" clip-path="url(#pc526c336e8)" style="fill: #0000f5; fill-opacity: 0.1"/>
    <path d="M 314.991357 267.652093 
L 307.343365 221.437467 
L 297.055758 209.209989 
L 304.601721 255.371379 
z
" clip-path="url(#pc526c336e8)" style="fill: #0000f5; fill-opacity: 0.1"/>
    <path d="M 164.515233 14.50573 
L 158.535182 -28.944544 
L 147.964718 -41.641599 
L 153.836356 1.744997 
z
" clip-path="url(#pc526c336e8)" style="fill: #0000f5; fill-opacity: 0.1"/>
    <path d="M 234.53854 134.904275 
L 227.775976 90.099206 
L 217.328195 77.614621 
L 223.985137 122.360881 
z
" clip-path="url(#pc526c336e8)" style="fill: #0000f5; fill-opacity: 0.1"/>
    <path d="M 304.601721 255.371379 
L 297.055758 209.209989 
L 286.7308 196.938115 
L 294.173937 243.045573 
z
" clip-path="url(#pc526c336e8)" style="fill: #0000f5; fill-opacity: 0.1"/>
    <path d="M 374.70481 375.907101 
L 366.374562 328.387859 
L 356.172566 316.328938 
L 364.40279 363.799133 
z
" clip-path="url(#pc526c336e8)" style="fill: #0000f5; fill-opacity: 0.1"/>
    <path d="M 223.985137 122.360881 
L 217.328195 77.614621 
L 206.842421 65.084638 
L 213.392924 109.771357 
z
" clip-path="url(#pc526c336e8)" style="fill: #0000f5; fill-opacity: 0.1"/>
    <path d="M 294.173937 243.045573 
L 286.7308 196.938115 
L 276.368285 184.621603 
L 283.707794 230.674425 
z
" clip-path="url(#pc526c336e8)" style="fill: #0000f5; fill-opacity: 0.1"/>
    <path d="M 364.40279 363.799133 
L 356.172566 316.328938 
L 345.933452 304.226142 
L 354.062862 351.646612 
z
" clip-path="url(#pc526c336e8)" style="fill: #0000f5; fill-opacity: 0.1"/>
    <path d="M 213.392924 109.771357 
L 206.842421 65.084638 
L 196.318448 52.509008 
L 202.761686 97.135451 
z
" clip-path="url(#pc526c336e8)" style="fill: #0000f5; fill-opacity: 0.1"/>
    <path d="M 283.707794 230.674425 
L 276.368285 184.621603 
L 265.96801 172.26021 
L 273.203079 218.257686 
z
" clip-path="url(#pc526c336e8)" style="fill: #0000f5; fill-opacity: 0.1"/>
    <path d="M 354.062862 351.646612 
L 345.933452 304.226142 
L 335.657015 292.07923 
L 343.684818 339.449293 
z
" clip-path="url(#pc526c336e8)" style="fill: #0000f5; fill-opacity: 0.1"/>
    <path d="M 202.761686 97.135451 
L 196.318448 52.509008 
L 185.756066 39.887481 
L 192.091207 84.452904 
z
" clip-path="url(#pc526c336e8)" style="fill: #0000f5; fill-opacity: 0.1"/>
    <path d="M 273.203079 218.257686 
L 265.96801 172.26021 
L 255.529766 159.85369 
L 262.65958 205.795101 
z
" clip-path="url(#pc526c336e8)" style="fill: #0000f5; fill-opacity: 0.1"/>
    <path d="M 343.684818 339.449293 
L 335.657015 292.07923 
L 325.343052 279.887962 
L 333.268445 327.206926 
z
" clip-path="url(#pc526c336e8)" style="fill: #0000f5; fill-opacity: 0.1"/>
    <path d="M 192.091207 84.452904 
L 185.756066 39.887481 
L 175.155065 27.219806 
L 181.381269 71.723458 
z
" clip-path="url(#pc526c336e8)" style="fill: #0000f5; fill-opacity: 0.1"/>
    <path d="M 262.65958 205.795101 
L 255.529766 159.85369 
L 245.053346 147.401795 
L 252.07708 193.286419 
z
" clip-path="url(#pc526c336e8)" style="fill: #0000f5; fill-opacity: 0.1"/>
    <path d="M 333.268445 327.206926 
L 325.343052 279.887962 
L 314.991357 267.652093 
L 322.813532 314.919262 
z
" clip-path="url(#pc526c336e8)" style="fill: #0000f5; fill-opacity: 0.1"/>
    <path d="M 181.381269 71.723458 
L 175.155065 27.219806 
L 164.515233 14.50573 
L 170.631654 58.946852 
z
" clip-path="url(#pc526c336e8)" style="fill: #0000f5; fill-opacity: 0.1"/>
    <path d="M 252.07708 193.286419 
L 245.053346 147.401795 
L 234.53854 134.904275 
L 241.455364 180.731381 
z
" clip-path="url(#pc526c336e8)" style="fill: #0000f5; fill-opacity: 0.1"/>
    <path d="M 322.813532 314.919262 
L 314.991357 267.652093 
L 304.601721 255.371379 
L 312.319863 302.586048 
z
" clip-path="url(#pc526c336e8)" style="fill: #0000f5; fill-opacity: 0.1"/>
    <path d="M 170.631654 58.946852 
L 164.515233 14.50573 
L 153.836356 1.744997 
L 159.84214 46.122825 
z
" clip-path="url(#pc526c336e8)" style="fill: #0000f5; fill-opacity: 0.1"/>
    <path d="M 241.455364 180.731381 
L 234.53854 134.904275 
L 223.985137 122.360881 
L 230.794212 168.12973 
z
" clip-path="url(#pc526c336e8)" style="fill: #0000f5; fill-opacity: 0.1"/>
    <path d="M 312.319863 302.586048 
L 304.601721 255.371379 
L 294.173937 243.045573 
L 301.787222 290.207033 
z
" clip-path="url(#pc526c336e8)" style="fill: #0000f5; fill-opacity: 0.1"/>
    <path d="M 230.794212 168.12973 
L 223.985137 122.360881 
L 213.392924 109.771357 
L 220.093404 155.481205 
z
" clip-path="url(#pc526c336e8)" style="fill: #0000f5; fill-opacity: 0.1"/>
    <path d="M 301.787222 290.207033 
L 294.173937 243.045573 
L 283.707794 230.674425 
L 291.215394 277.781958 
z
" clip-path="url(#pc526c336e8)" style="fill: #0000f5; fill-opacity: 0.1"/>
    <path d="M 220.093404 155.481205 
L 213.392924 109.771357 
L 202.761686 97.135451 
L 209.35272 142.785546 
z
" clip-path="url(#pc526c336e8)" style="fill: #0000f5; fill-opacity: 0.1"/>
    <path d="M 291.215394 277.781958 
L 283.707794 230.674425 
L 273.203079 218.257686 
L 280.604157 265.310568 
z
" clip-path="url(#pc526c336e8)" style="fill: #0000f5; fill-opacity: 0.1"/>
    <path d="M 209.35272 142.785546 
L 202.761686 97.135451 
L 192.091207 84.452904 
L 198.571935 130.042487 
z
" clip-path="url(#pc526c336e8)" style="fill: #0000f5; fill-opacity: 0.1"/>
    <path d="M 280.604157 265.310568 
L 273.203079 218.257686 
L 262.65958 205.795101 
L 269.953292 252.792602 
z
" clip-path="url(#pc526c336e8)" style="fill: #0000f5; fill-opacity: 0.1"/>
    <path d="M 198.571935 130.042487 
L 192.091207 84.452904 
L 181.381269 71.723458 
L 187.750825 117.251763 
z
" clip-path="url(#pc526c336e8)" style="fill: #0000f5; fill-opacity: 0.1"/>
    <path d="M 269.953292 252.792602 
L 262.65958 205.795101 
L 252.07708 193.286419 
L 259.262576 240.227799 
z
" clip-path="url(#pc526c336e8)" style="fill: #0000f5; fill-opacity: 0.1"/>
    <path d="M 187.750825 117.251763 
L 181.381269 71.723458 
L 170.631654 58.946852 
L 176.889163 104.413106 
z
" clip-path="url(#pc526c336e8)" style="fill: #0000f5; fill-opacity: 0.1"/>
    <path d="M 259.262576 240.227799 
L 252.07708 193.286419 
L 241.455364 180.731381 
L 248.531785 227.615896 
z
" clip-path="url(#pc526c336e8)" style="fill: #0000f5; fill-opacity: 0.1"/>
    <path d="M 176.889163 104.413106 
L 170.631654 58.946852 
L 159.84214 46.122825 
L 165.986721 91.526246 
z
" clip-path="url(#pc526c336e8)" style="fill: #0000f5; fill-opacity: 0.1"/>
    <path d="M 248.531785 227.615896 
L 241.455364 180.731381 
L 230.794212 168.12973 
L 237.760693 214.956628 
z
" clip-path="url(#pc526c336e8)" style="fill: #0000f5; fill-opacity: 0.1"/>
    <path d="M 237.760693 214.956628 
L 230.794212 168.12973 
L 220.093404 155.481205 
L 226.949073 202.249726 
z
" clip-path="url(#pc526c336e8)" style="fill: #0000f5; fill-opacity: 0.1"/>
    <path d="M 226.949073 202.249726 
L 220.093404 155.481205 
L 209.35272 142.785546 
L 216.096695 189.494923 
z
" clip-path="url(#pc526c336e8)" style="fill: #0000f5; fill-opacity: 0.1"/>
    <path d="M 216.096695 189.494923 
L 209.35272 142.785546 
L 198.571935 130.042487 
L 205.203329 176.691946 
z
" clip-path="url(#pc526c336e8)" style="fill: #0000f5; fill-opacity: 0.1"/>
    <path d="M 205.203329 176.691946 
L 198.571935 130.042487 
L 187.750825 117.251763 
L 194.268742 163.840522 
z
" clip-path="url(#pc526c336e8)" style="fill: #0000f5; fill-opacity: 0.1"/>
    <path d="M 194.268742 163.840522 
L 187.750825 117.251763 
L 176.889163 104.413106 
L 183.2927 150.940375 
z
" clip-path="url(#pc526c336e8)" style="fill: #0000f5; fill-opacity: 0.1"/>
    <path d="M 183.2927 150.940375 
L 176.889163 104.413106 
L 165.986721 91.526246 
L 172.274966 137.991228 
z
" clip-path="url(#pc526c336e8)" style="fill: #0000f5; fill-opacity: 0.1"/>
   </g>
   <g id="legend_1">
    <g id="patch_6">
     <path d="M 357.840076 67.305115 
L 396.2 67.305115 
Q 398.2 67.305115 398.2 65.305115 
L 398.2 7 
Q 398.2 5 396.2 5 
L 357.840076 5 
Q 355.840076 5 355.840076 7 
L 355.840076 65.305115 
Q 355.840076 67.305115 357.840076 67.305115 
z
" style="fill: #ffffff; opacity: 0.8; stroke: #cccccc; stroke-linejoin: miter"/>
    </g>
    <g id="line2d_25">
     <path d="M 359.840076 12.5 
L 369.840076 12.5 
L 379.840076 12.5 
" style="fill: none; stroke: #ff0000; stroke-width: 1.5; stroke-linecap: square"/>
    </g>
    <g id="text_21">
     <!-- $\vec{a}$ -->
     <g transform="translate(387.840076 16)scale(0.1 -0.1)">
      <defs>
       <path id="CMMI12-7e" d="M 3424 3835 
C 3347 3764 3110 3540 3110 3451 
C 3110 3387 3168 3329 3232 3329 
C 3290 3329 3315 3368 3360 3432 
C 3514 3624 3686 3745 3834 3828 
C 3898 3867 3942 3886 3942 3956 
C 3942 4014 3891 4046 3853 4078 
C 3674 4200 3629 4372 3610 4449 
C 3590 4500 3571 4577 3482 4577 
C 3443 4577 3366 4552 3366 4456 
C 3366 4398 3405 4244 3526 4072 
L 1376 4072 
C 1267 4072 1158 4072 1158 3950 
C 1158 3835 1274 3835 1376 3835 
L 3424 3835 
z
" transform="scale(0.015625)"/>
       <path id="CMMI12-61" d="M 1926 760 
C 1894 651 1894 639 1805 517 
C 1664 338 1382 64 1082 64 
C 819 64 672 300 672 677 
C 672 1028 870 1743 992 2012 
C 1210 2459 1510 2689 1760 2689 
C 2182 2689 2266 2165 2266 2114 
C 2266 2108 2246 2024 2240 2012 
L 1926 760 
z
M 2336 2395 
C 2266 2561 2093 2816 1760 2816 
C 1037 2816 256 1884 256 939 
C 256 307 627 -64 1062 -64 
C 1414 -64 1715 211 1894 422 
C 1958 45 2259 -64 2451 -64 
C 2643 -64 2797 51 2912 281 
C 3014 498 3104 888 3104 913 
C 3104 945 3078 971 3040 971 
C 2982 971 2976 939 2950 843 
C 2854 466 2733 64 2470 64 
C 2285 64 2272 230 2272 358 
C 2272 505 2291 575 2349 824 
C 2394 984 2426 1124 2477 1309 
C 2714 2267 2771 2497 2771 2535 
C 2771 2625 2701 2695 2605 2695 
C 2400 2695 2349 2472 2336 2395 
z
" transform="scale(0.015625)"/>
      </defs>
      <use xlink:href="#CMMI12-7e" transform="scale(0.996264)"/>
      <use xlink:href="#CMMI12-61" transform="translate(6.445738 0)scale(0.996264)"/>
     </g>
    </g>
    <g id="line2d_26">
     <path d="M 359.840076 27.24679 
L 369.840076 27.24679 
L 379.840076 27.24679 
" style="fill: none; stroke: #00ff00; stroke-width: 1.5; stroke-linecap: square"/>
    </g>
    <g id="text_22">
     <!-- $\vec{b}$ -->
     <g transform="translate(387.840076 30.74679)scale(0.1 -0.1)">
      <defs>
       <path id="CMMI12-62" d="M 1478 4257 
C 1485 4283 1498 4321 1498 4352 
C 1498 4416 1434 4416 1421 4416 
C 1414 4416 1184 4393 1069 4377 
C 960 4377 864 4358 749 4358 
C 595 4345 550 4339 550 4224 
C 550 4160 614 4160 678 4160 
C 1005 4160 1005 4103 1005 4040 
C 1005 3996 954 3811 928 3696 
L 774 3085 
C 710 2831 346 1387 320 1272 
C 288 1114 288 1005 288 922 
C 288 274 653 -64 1069 -64 
C 1811 -64 2579 888 2579 1814 
C 2579 2401 2246 2816 1766 2816 
C 1434 2816 1133 2542 1011 2414 
L 1478 4257 
z
M 1075 64 
C 870 64 646 217 646 715 
C 646 926 666 1047 781 1494 
C 800 1577 902 1986 928 2069 
C 941 2120 1318 2689 1754 2689 
C 2035 2689 2163 2408 2163 2076 
C 2163 1769 1984 1047 1824 715 
C 1664 370 1370 64 1075 64 
z
" transform="scale(0.015625)"/>
      </defs>
      <use xlink:href="#CMMI12-7e" transform="translate(0 26.29016)scale(0.996264)"/>
      <use xlink:href="#CMMI12-62" transform="translate(11.311737 0)scale(0.996264)"/>
     </g>
    </g>
    <g id="line2d_27">
     <path d="M 359.840076 41.183968 
L 369.840076 41.183968 
L 379.840076 41.183968 
" style="fill: none; stroke: #0016ff; stroke-width: 1.5; stroke-linecap: square"/>
    </g>
    <g id="text_23">
     <!-- $\vec{c}$ -->
     <g transform="translate(387.840076 44.683968)scale(0.1 -0.1)">
      <defs>
       <path id="CMMI12-63" d="M 2502 2431 
C 2381 2431 2323 2431 2234 2355 
C 2195 2323 2125 2227 2125 2125 
C 2125 1997 2221 1920 2342 1920 
C 2496 1920 2669 2044 2669 2292 
C 2669 2588 2374 2816 1933 2816 
C 1094 2816 256 1903 256 996 
C 256 441 602 -64 1254 -64 
C 2125 -64 2675 622 2675 706 
C 2675 744 2637 776 2611 776 
C 2592 776 2586 770 2528 713 
C 2118 162 1510 64 1267 64 
C 826 64 685 446 685 764 
C 685 988 794 1605 1024 2039 
C 1190 2338 1536 2682 1939 2682 
C 2022 2682 2374 2682 2502 2431 
z
" transform="scale(0.015625)"/>
      </defs>
      <use xlink:href="#CMMI12-7e" transform="scale(0.996264)"/>
      <use xlink:href="#CMMI12-63" transform="translate(5.638615 0)scale(0.996264)"/>
     </g>
    </g>
    <g id="line2d_28">
     <path d="M 359.840076 57.867937 
L 369.840076 57.867937 
L 379.840076 57.867937 
" style="fill: none; stroke: #f400ff; stroke-width: 1.5; stroke-linecap: square"/>
    </g>
    <g id="text_24">
     <!-- $\vec{f}$ -->
     <g transform="translate(387.840076 61.367937)scale(0.1 -0.1)">
      <defs>
       <path id="CMMI12-66" d="M 2854 2566 
C 2982 2566 3034 2566 3034 2688 
C 3034 2752 2982 2752 2867 2752 
L 2349 2752 
C 2470 3429 2560 3897 2611 4107 
C 2650 4265 2784 4416 2950 4416 
C 3085 4416 3219 4358 3283 4298 
C 3034 4272 2957 4082 2957 3969 
C 2957 3837 3053 3759 3174 3759 
C 3302 3759 3494 3870 3494 4119 
C 3494 4393 3226 4544 2944 4544 
C 2669 4544 2400 4334 2272 4078 
C 2157 3848 2093 3611 1946 2752 
L 1517 2752 
C 1395 2752 1331 2752 1331 2637 
C 1331 2566 1370 2566 1498 2566 
L 1907 2566 
C 1792 1976 1530 542 1382 -137 
C 1274 -689 1178 -1152 858 -1152 
C 838 -1152 653 -1152 538 -1031 
C 864 -1005 864 -726 864 -720 
C 864 -593 768 -517 646 -517 
C 518 -517 326 -625 326 -867 
C 326 -1140 608 -1280 858 -1280 
C 1510 -1280 1779 -118 1850 199 
C 1965 688 2278 2376 2310 2566 
L 2854 2566 
z
" transform="scale(0.015625)"/>
      </defs>
      <use xlink:href="#CMMI12-7e" transform="translate(13.568792 26.29016)scale(0.996264)"/>
      <use xlink:href="#CMMI12-66" transform="scale(0.996264)"/>
     </g>
    </g>
   </g>
  </g>
 </g>
 <defs>
  <clipPath id="pc526c336e8">
   <rect x="57.6" y="0" width="345.6" height="345.6"/>
  </clipPath>
 </defs>
</svg>
