<?xml version="1.0" encoding="utf-8" standalone="no"?>
<!DOCTYPE svg PUBLIC "-//W3C//DTD SVG 1.1//EN"
  "http://www.w3.org/Graphics/SVG/1.1/DTD/svg11.dtd">
<svg xmlns:xlink="http://www.w3.org/1999/xlink" width="460.8pt" height="345.6pt" viewBox="0 0 460.8 345.6" xmlns="http://www.w3.org/2000/svg" version="1.1">
 <metadata>
  <rdf:RDF xmlns:dc="http://purl.org/dc/elements/1.1/" xmlns:cc="http://creativecommons.org/ns#" xmlns:rdf="http://www.w3.org/1999/02/22-rdf-syntax-ns#">
   <cc:Work>
    <dc:type rdf:resource="http://purl.org/dc/dcmitype/StillImage"/>
    <dc:date>2022-07-12T15:41:43.917617</dc:date>
    <dc:format>image/svg+xml</dc:format>
    <dc:creator>
     <cc:Agent>
      <dc:title>Matplotlib v3.5.1, https://matplotlib.org/</dc:title>
     </cc:Agent>
    </dc:creator>
   </cc:Work>
  </rdf:RDF>
 </metadata>
 <defs>
  <style type="text/css">*{stroke-linejoin: round; stroke-linecap: butt}</style>
 </defs>
 <g id="figure_1">
  <g id="patch_1">
   <path d="M 0 345.6 
L 460.8 345.6 
L 460.8 0 
L 0 0 
z
" style="fill: #ffffff"/>
  </g>
  <g id="patch_2">
   <path d="M 57.6 345.6 
L 403.2 345.6 
L 403.2 0 
L 57.6 0 
z
" style="fill: #ffffff"/>
  </g>
  <g id="pane3d_1">
   <g id="patch_3">
    <path d="M 306.08139 245.808331 
L 102.923936 248.257328 
L 102.923936 88.002131 
L 306.08139 90.451129 
" style="fill: #f2f2f2; opacity: 0.5; stroke: #f2f2f2; stroke-linejoin: miter"/>
   </g>
  </g>
  <g id="pane3d_2">
   <g id="patch_4">
    <path d="M 378.461563 255.075766 
L 306.08139 245.808331 
L 306.08139 90.451129 
L 378.461563 81.183694 
" style="fill: #e6e6e6; opacity: 0.5; stroke: #e6e6e6; stroke-linejoin: miter"/>
   </g>
  </g>
  <g id="pane3d_3">
   <g id="patch_5">
    <path d="M 378.461563 255.075766 
L 306.08139 245.808331 
L 102.923936 248.257328 
L 152.771736 258.15556 
" style="fill: #ececec; opacity: 0.5; stroke: #ececec; stroke-linejoin: miter"/>
   </g>
  </g>
  <g id="axis3d_1">
   <g id="line2d_1">
    <path d="M 102.923936 248.257328 
L 152.771736 258.15556 
" style="fill: none; stroke: #000000; stroke-width: 0.8; stroke-linecap: square"/>
   </g>
   <g id="text_1">
    <!-- x -->
    <g transform="translate(91.994895 280.960384)scale(0.16 -0.16)">
     <defs>
      <path id="CMSS17-78" d="M 1587 1414 
L 2656 2739 
L 2099 2739 
L 1363 1777 
L 602 2739 
L 32 2739 
L 1139 1414 
L 0 0 
L 563 0 
L 1363 1121 
L 2195 0 
L 2758 0 
L 1587 1414 
z
" transform="scale(0.015625)"/>
     </defs>
     <use xlink:href="#CMSS17-78" transform="scale(0.996264)"/>
    </g>
   </g>
   <g id="Line3DCollection_1">
    <path d="M 151.654386 257.933689 
L 376.84511 254.868798 
L 376.84511 81.390662 
" style="fill: none; stroke: #b0b0b0; stroke-width: 0.8"/>
    <path d="M 141.201567 255.858082 
L 361.709973 252.93092 
L 361.709973 83.328539 
" style="fill: none; stroke: #b0b0b0; stroke-width: 0.8"/>
    <path d="M 131.221018 253.876254 
L 347.236339 251.077741 
L 347.236339 85.181719 
" style="fill: none; stroke: #b0b0b0; stroke-width: 0.8"/>
    <path d="M 121.681438 251.981988 
L 333.381767 249.303825 
L 333.381767 86.955635 
" style="fill: none; stroke: #b0b0b0; stroke-width: 0.8"/>
    <path d="M 112.554234 250.169608 
L 320.107372 247.604194 
L 320.107372 88.655266 
" style="fill: none; stroke: #b0b0b0; stroke-width: 0.8"/>
    <path d="M 103.813234 248.433915 
L 307.377458 245.974277 
L 307.377458 90.285182 
" style="fill: none; stroke: #b0b0b0; stroke-width: 0.8"/>
   </g>
   <g id="xtick_1">
    <g id="line2d_2">
     <path d="M 153.519041 257.90831 
L 147.921912 257.984489 
" style="fill: none; stroke: #000000; stroke-width: 0.8; stroke-linecap: square"/>
    </g>
    <g id="text_2">
     <!-- $\mathdefault{0}$ -->
     <g transform="translate(134.234465 276.556291)scale(0.1 -0.1)">
      <defs>
       <path id="CMR17-30" d="M 2688 2025 
C 2688 2416 2682 3080 2413 3591 
C 2176 4039 1798 4198 1466 4198 
C 1158 4198 768 4058 525 3597 
C 269 3118 243 2524 243 2025 
C 243 1661 250 1106 448 619 
C 723 -39 1216 -128 1466 -128 
C 1760 -128 2208 -7 2470 600 
C 2662 1042 2688 1559 2688 2025 
z
M 1466 -26 
C 1056 -26 813 325 723 812 
C 653 1188 653 1738 653 2096 
C 653 2588 653 2997 736 3387 
C 858 3929 1216 4096 1466 4096 
C 1728 4096 2067 3923 2189 3400 
C 2272 3036 2278 2607 2278 2096 
C 2278 1680 2278 1169 2202 792 
C 2067 95 1690 -26 1466 -26 
z
" transform="scale(0.015625)"/>
      </defs>
      <use xlink:href="#CMR17-30" transform="scale(0.996264)"/>
     </g>
    </g>
   </g>
   <g id="xtick_2">
    <g id="line2d_3">
     <path d="M 143.026023 255.833863 
L 137.549632 255.90656 
" style="fill: none; stroke: #000000; stroke-width: 0.8; stroke-linecap: square"/>
    </g>
    <g id="text_3">
     <!-- $\mathdefault{1}$ -->
     <g transform="translate(124.104361 274.204986)scale(0.1 -0.1)">
      <defs>
       <path id="CMR17-31" d="M 1702 4058 
C 1702 4192 1696 4192 1606 4192 
C 1357 3916 979 3827 621 3827 
C 602 3827 570 3827 563 3808 
C 557 3795 557 3782 557 3648 
C 755 3648 1088 3686 1344 3839 
L 1344 461 
C 1344 236 1331 160 781 160 
L 589 160 
L 589 0 
C 896 0 1216 0 1523 0 
C 1830 0 2150 0 2458 0 
L 2458 160 
L 2266 160 
C 1715 160 1702 230 1702 458 
L 1702 4058 
z
" transform="scale(0.015625)"/>
      </defs>
      <use xlink:href="#CMR17-31" transform="scale(0.996264)"/>
     </g>
    </g>
   </g>
   <g id="xtick_3">
    <g id="line2d_4">
     <path d="M 133.006962 253.853116 
L 127.646235 253.922565 
" style="fill: none; stroke: #000000; stroke-width: 0.8; stroke-linecap: square"/>
    </g>
    <g id="text_4">
     <!-- $\mathdefault{2}$ -->
     <g transform="translate(114.432934 271.960145)scale(0.1 -0.1)">
      <defs>
       <path id="CMR17-32" d="M 2669 989 
L 2554 989 
C 2490 536 2438 459 2413 420 
C 2381 369 1920 369 1830 369 
L 602 369 
C 832 619 1280 1072 1824 1597 
C 2214 1967 2669 2402 2669 3035 
C 2669 3790 2067 4224 1395 4224 
C 691 4224 262 3604 262 3030 
C 262 2780 448 2748 525 2748 
C 589 2748 781 2787 781 3010 
C 781 3207 614 3264 525 3264 
C 486 3264 448 3258 422 3245 
C 544 3790 915 4058 1306 4058 
C 1862 4058 2227 3617 2227 3035 
C 2227 2479 1901 2000 1536 1584 
L 262 146 
L 262 0 
L 2515 0 
L 2669 989 
z
" transform="scale(0.015625)"/>
      </defs>
      <use xlink:href="#CMR17-32" transform="scale(0.996264)"/>
     </g>
    </g>
   </g>
   <g id="xtick_4">
    <g id="line2d_5">
     <path d="M 123.430456 251.959862 
L 118.180631 252.026276 
" style="fill: none; stroke: #000000; stroke-width: 0.8; stroke-linecap: square"/>
    </g>
    <g id="text_5">
     <!-- $\mathdefault{3}$ -->
     <g transform="translate(105.189721 269.814697)scale(0.1 -0.1)">
      <defs>
       <path id="CMR17-33" d="M 1414 2157 
C 1984 2157 2234 1662 2234 1090 
C 2234 320 1824 25 1453 25 
C 1114 25 563 194 390 693 
C 422 680 454 680 486 680 
C 640 680 755 782 755 948 
C 755 1133 614 1216 486 1216 
C 378 1216 211 1165 211 926 
C 211 335 787 -128 1466 -128 
C 2176 -128 2720 430 2720 1085 
C 2720 1707 2208 2157 1600 2227 
C 2086 2328 2554 2756 2554 3329 
C 2554 3820 2048 4179 1472 4179 
C 890 4179 378 3829 378 3329 
C 378 3110 544 3072 627 3072 
C 762 3072 877 3155 877 3321 
C 877 3486 762 3569 627 3569 
C 602 3569 570 3569 544 3557 
C 730 3959 1235 4032 1459 4032 
C 1683 4032 2106 3925 2106 3320 
C 2106 3143 2080 2828 1862 2550 
C 1670 2304 1453 2304 1242 2284 
C 1210 2284 1062 2269 1037 2269 
C 992 2263 966 2257 966 2208 
C 966 2163 973 2157 1101 2157 
L 1414 2157 
z
" transform="scale(0.015625)"/>
      </defs>
      <use xlink:href="#CMR17-33" transform="scale(0.996264)"/>
     </g>
    </g>
   </g>
   <g id="xtick_5">
    <g id="line2d_6">
     <path d="M 114.267815 250.148427 
L 109.124417 250.212001 
" style="fill: none; stroke: #000000; stroke-width: 0.8; stroke-linecap: square"/>
    </g>
    <g id="text_6">
     <!-- $\mathdefault{4}$ -->
     <g transform="translate(96.346899 267.762185)scale(0.1 -0.1)">
      <defs>
       <path id="CMR17-34" d="M 2150 4122 
C 2150 4256 2144 4256 2029 4256 
L 128 1254 
L 128 1088 
L 1779 1088 
L 1779 457 
C 1779 224 1766 160 1318 160 
L 1197 160 
L 1197 0 
C 1402 0 1747 0 1965 0 
C 2182 0 2528 0 2733 0 
L 2733 160 
L 2611 160 
C 2163 160 2150 224 2150 457 
L 2150 1088 
L 2803 1088 
L 2803 1254 
L 2150 1254 
L 2150 4122 
z
M 1798 3703 
L 1798 1254 
L 256 1254 
L 1798 3703 
z
" transform="scale(0.015625)"/>
      </defs>
      <use xlink:href="#CMR17-34" transform="scale(0.996264)"/>
     </g>
    </g>
   </g>
   <g id="xtick_6">
    <g id="line2d_7">
     <path d="M 105.492779 248.413621 
L 100.451595 248.474533 
" style="fill: none; stroke: #000000; stroke-width: 0.8; stroke-linecap: square"/>
    </g>
    <g id="text_7">
     <!-- $\mathdefault{5}$ -->
     <g transform="translate(87.879004 265.796696)scale(0.1 -0.1)">
      <defs>
       <path id="CMR17-35" d="M 730 3692 
C 794 3666 1056 3584 1325 3584 
C 1920 3584 2246 3911 2432 4100 
C 2432 4157 2432 4192 2394 4192 
C 2387 4192 2374 4192 2323 4163 
C 2099 4058 1837 3973 1517 3973 
C 1325 3973 1037 3999 723 4139 
C 653 4171 640 4171 634 4171 
C 602 4171 595 4164 595 4037 
L 595 2203 
C 595 2089 595 2057 659 2057 
C 691 2057 704 2070 736 2114 
C 941 2401 1222 2522 1542 2522 
C 1766 2522 2246 2382 2246 1289 
C 2246 1085 2246 715 2054 421 
C 1894 159 1645 25 1370 25 
C 947 25 518 320 403 814 
C 429 807 480 795 506 795 
C 589 795 749 840 749 1038 
C 749 1210 627 1280 506 1280 
C 358 1280 262 1190 262 1011 
C 262 454 704 -128 1382 -128 
C 2042 -128 2669 440 2669 1264 
C 2669 2030 2170 2624 1549 2624 
C 1222 2624 947 2503 730 2274 
L 730 3692 
z
" transform="scale(0.015625)"/>
      </defs>
      <use xlink:href="#CMR17-35" transform="scale(0.996264)"/>
     </g>
    </g>
   </g>
  </g>
  <g id="axis3d_2">
   <g id="line2d_8">
    <path d="M 378.461563 255.075766 
L 152.771736 258.15556 
" style="fill: none; stroke: #000000; stroke-width: 0.8; stroke-linecap: square"/>
   </g>
   <g id="text_8">
    <!-- y -->
    <g transform="translate(273.753488 287.084111)scale(0.16 -0.16)">
     <defs>
      <path id="CMSS17-79" d="M 2675 2752 
L 2176 2752 
C 1632 1294 1446 702 1434 383 
L 1427 383 
C 1408 696 1126 1460 902 2007 
L 602 2752 
L 83 2752 
L 1216 13 
C 1146 -178 1043 -465 1011 -529 
C 870 -885 774 -885 672 -885 
C 646 -885 442 -885 211 -809 
L 250 -1229 
C 410 -1261 570 -1280 685 -1280 
C 845 -1280 1165 -1280 1459 -497 
L 2675 2752 
z
" transform="scale(0.015625)"/>
     </defs>
     <use xlink:href="#CMSS17-79" transform="scale(0.996264)"/>
    </g>
   </g>
   <g id="Line3DCollection_2">
    <path d="M 283.154112 90.174748 
L 283.154112 246.084712 
L 353.076427 255.422175 
" style="fill: none; stroke: #b0b0b0; stroke-width: 0.8"/>
    <path d="M 244.844885 89.712942 
L 244.844885 246.546517 
L 310.612217 256.001647 
" style="fill: none; stroke: #b0b0b0; stroke-width: 0.8"/>
    <path d="M 206.079065 89.245633 
L 206.079065 247.013826 
L 267.58046 256.588864 
" style="fill: none; stroke: #b0b0b0; stroke-width: 0.8"/>
    <path d="M 166.848441 88.772721 
L 166.848441 247.486739 
L 223.969701 257.183983 
" style="fill: none; stroke: #b0b0b0; stroke-width: 0.8"/>
    <path d="M 127.144603 88.294104 
L 127.144603 247.965356 
L 179.768176 257.787163 
" style="fill: none; stroke: #b0b0b0; stroke-width: 0.8"/>
   </g>
   <g id="xtick_7">
    <g id="line2d_9">
     <path d="M 352.450645 255.338608 
L 354.331594 255.58979 
" style="fill: none; stroke: #000000; stroke-width: 0.8; stroke-linecap: square"/>
    </g>
    <g id="text_9">
     <!-- $\mathdefault{−4}$ -->
     <g transform="translate(351.752312 274.253891)scale(0.1 -0.1)">
      <defs>
       <path id="CMSY10-0" d="M 4218 1472 
C 4326 1472 4442 1472 4442 1600 
C 4442 1728 4326 1728 4218 1728 
L 755 1728 
C 646 1728 531 1728 531 1600 
C 531 1472 646 1472 755 1472 
L 4218 1472 
z
" transform="scale(0.015625)"/>
      </defs>
      <use xlink:href="#CMSY10-0" transform="scale(0.996264)"/>
      <use xlink:href="#CMR17-34" transform="translate(77.487468 0)scale(0.996264)"/>
     </g>
    </g>
   </g>
   <g id="xtick_8">
    <g id="line2d_10">
     <path d="M 310.023207 255.916967 
L 311.793652 256.171498 
" style="fill: none; stroke: #000000; stroke-width: 0.8; stroke-linecap: square"/>
    </g>
    <g id="text_10">
     <!-- $\mathdefault{−2}$ -->
     <g transform="translate(308.992165 274.91756)scale(0.1 -0.1)">
      <use xlink:href="#CMSY10-0" transform="scale(0.996264)"/>
      <use xlink:href="#CMR17-32" transform="translate(77.487468 0)scale(0.996264)"/>
     </g>
    </g>
   </g>
   <g id="xtick_9">
    <g id="line2d_11">
     <path d="M 267.029263 256.50305 
L 268.686071 256.760995 
" style="fill: none; stroke: #000000; stroke-width: 0.8; stroke-linecap: square"/>
    </g>
    <g id="text_11">
     <!-- $\mathdefault{0}$ -->
     <g transform="translate(269.530422 275.590167)scale(0.1 -0.1)">
      <use xlink:href="#CMR17-30" transform="scale(0.996264)"/>
     </g>
    </g>
   </g>
   <g id="xtick_10">
    <g id="line2d_12">
     <path d="M 223.457391 257.09701 
L 224.997332 257.358439 
" style="fill: none; stroke: #000000; stroke-width: 0.8; stroke-linecap: square"/>
    </g>
    <g id="text_12">
     <!-- $\mathdefault{2}$ -->
     <g transform="translate(225.606621 276.271897)scale(0.1 -0.1)">
      <use xlink:href="#CMR17-32" transform="scale(0.996264)"/>
     </g>
    </g>
   </g>
   <g id="xtick_11">
    <g id="line2d_13">
     <path d="M 179.29586 257.699009 
L 180.715602 257.963993 
" style="fill: none; stroke: #000000; stroke-width: 0.8; stroke-linecap: square"/>
    </g>
    <g id="text_13">
     <!-- $\mathdefault{4}$ -->
     <g transform="translate(181.0831 276.962934)scale(0.1 -0.1)">
      <use xlink:href="#CMR17-34" transform="scale(0.996264)"/>
     </g>
    </g>
   </g>
  </g>
  <g id="axis3d_3">
   <g id="line2d_14">
    <path d="M 378.461563 255.075766 
L 378.461563 81.183694 
" style="fill: none; stroke: #000000; stroke-width: 0.8; stroke-linecap: square"/>
   </g>
   <g id="text_14">
    <!-- z -->
    <g transform="translate(417.098413 172.114786)scale(0.16 -0.16)">
     <defs>
      <path id="CMSS17-7a" d="M 2400 2502 
L 2400 2750 
L 250 2750 
L 250 2368 
L 1069 2368 
C 1146 2368 1222 2368 1299 2368 
L 1747 2368 
L 166 261 
L 166 0 
L 2419 0 
L 2419 395 
L 1549 395 
C 1472 395 1395 395 1318 395 
L 826 395 
L 2400 2502 
z
" transform="scale(0.015625)"/>
     </defs>
     <use xlink:href="#CMSS17-7a" transform="scale(0.996264)"/>
    </g>
   </g>
   <g id="Line3DCollection_3">
    <path d="M 378.461563 251.597924 
L 306.08139 242.701187 
L 102.923936 245.052224 
" style="fill: none; stroke: #b0b0b0; stroke-width: 0.8"/>
    <path d="M 378.461563 218.210646 
L 306.08139 212.872604 
L 102.923936 214.283226 
" style="fill: none; stroke: #b0b0b0; stroke-width: 0.8"/>
    <path d="M 378.461563 184.823369 
L 306.08139 183.044021 
L 102.923936 183.514229 
" style="fill: none; stroke: #b0b0b0; stroke-width: 0.8"/>
    <path d="M 378.461563 151.436091 
L 306.08139 153.215438 
L 102.923936 152.745231 
" style="fill: none; stroke: #b0b0b0; stroke-width: 0.8"/>
    <path d="M 378.461563 118.048813 
L 306.08139 123.386856 
L 102.923936 121.976233 
" style="fill: none; stroke: #b0b0b0; stroke-width: 0.8"/>
    <path d="M 378.461563 84.661535 
L 306.08139 93.558273 
L 102.923936 91.207235 
" style="fill: none; stroke: #b0b0b0; stroke-width: 0.8"/>
   </g>
   <g id="xtick_12">
    <g id="line2d_15">
     <path d="M 377.814057 251.518335 
L 379.76029 251.757559 
" style="fill: none; stroke: #000000; stroke-width: 0.8; stroke-linecap: square"/>
    </g>
    <g id="text_15">
     <!-- $\mathdefault{0}$ -->
     <g transform="translate(395.177095 258.972687)scale(0.1 -0.1)">
      <use xlink:href="#CMR17-30" transform="scale(0.996264)"/>
     </g>
    </g>
   </g>
   <g id="xtick_13">
    <g id="line2d_16">
     <path d="M 377.814057 218.162893 
L 379.76029 218.306428 
" style="fill: none; stroke: #000000; stroke-width: 0.8; stroke-linecap: square"/>
    </g>
    <g id="text_16">
     <!-- $\mathdefault{1}$ -->
     <g transform="translate(395.177095 225.402903)scale(0.1 -0.1)">
      <use xlink:href="#CMR17-31" transform="scale(0.996264)"/>
     </g>
    </g>
   </g>
   <g id="xtick_14">
    <g id="line2d_17">
     <path d="M 377.814057 184.807451 
L 379.76029 184.855296 
" style="fill: none; stroke: #000000; stroke-width: 0.8; stroke-linecap: square"/>
    </g>
    <g id="text_17">
     <!-- $\mathdefault{2}$ -->
     <g transform="translate(395.177095 191.83312)scale(0.1 -0.1)">
      <use xlink:href="#CMR17-32" transform="scale(0.996264)"/>
     </g>
    </g>
   </g>
   <g id="xtick_15">
    <g id="line2d_18">
     <path d="M 377.814057 151.452009 
L 379.76029 151.404164 
" style="fill: none; stroke: #000000; stroke-width: 0.8; stroke-linecap: square"/>
    </g>
    <g id="text_18">
     <!-- $\mathdefault{3}$ -->
     <g transform="translate(395.177095 158.263336)scale(0.1 -0.1)">
      <use xlink:href="#CMR17-33" transform="scale(0.996264)"/>
     </g>
    </g>
   </g>
   <g id="xtick_16">
    <g id="line2d_19">
     <path d="M 377.814057 118.096567 
L 379.76029 117.953032 
" style="fill: none; stroke: #000000; stroke-width: 0.8; stroke-linecap: square"/>
    </g>
    <g id="text_19">
     <!-- $\mathdefault{4}$ -->
     <g transform="translate(395.177095 124.693553)scale(0.1 -0.1)">
      <use xlink:href="#CMR17-34" transform="scale(0.996264)"/>
     </g>
    </g>
   </g>
   <g id="xtick_17">
    <g id="line2d_20">
     <path d="M 377.814057 84.741125 
L 379.76029 84.5019 
" style="fill: none; stroke: #000000; stroke-width: 0.8; stroke-linecap: square"/>
    </g>
    <g id="text_20">
     <!-- $\mathdefault{5}$ -->
     <g transform="translate(395.177095 91.123769)scale(0.1 -0.1)">
      <use xlink:href="#CMR17-35" transform="scale(0.996264)"/>
     </g>
    </g>
   </g>
  </g>
  <g id="axes_1">
   <g id="line2d_21">
    <path d="M 266.20447 252.844843 
L 189.211658 84.522334 
" clip-path="url(#pd1e49a41d2)" style="fill: none; stroke: #ff0000; stroke-width: 1.5; stroke-linecap: square"/>
   </g>
   <g id="line2d_22">
    <path d="M 266.20447 252.844843 
L 282.221508 119.866524 
" clip-path="url(#pd1e49a41d2)" style="fill: none; stroke: #00ff00; stroke-width: 1.5; stroke-linecap: square"/>
   </g>
   <g id="line2d_23">
    <path d="M 266.20447 252.844843 
L 216.232988 -1 
" clip-path="url(#pd1e49a41d2)" style="fill: none; stroke: #0016ff; stroke-width: 1.5; stroke-linecap: square"/>
   </g>
   <g id="line2d_24">
    <path d="M 266.20447 252.844843 
L 265.27024 153.085892 
" clip-path="url(#pd1e49a41d2)" style="fill: none; stroke: #f400ff; stroke-width: 1.5; stroke-linecap: square"/>
   </g>
   <g id="Poly3DCollection_1">
    <path d="M 316.083598 23.077591 
L 309.690428 -16.972133 
L 300.103753 -28.597305 
L 306.405962 11.390697 
z
" clip-path="url(#pd1e49a41d2)" style="fill: #0000f5; fill-opacity: 0.1"/>
    <path d="M 306.405962 11.390697 
L 300.103753 -28.597305 
L 290.488494 -40.257137 
L 296.699168 -0.331407 
z
" clip-path="url(#pd1e49a41d2)" style="fill: #0000f5; fill-opacity: 0.1"/>
    <path d="M 296.699168 -0.331407 
L 290.488494 -40.257137 
L 280.844524 -51.951786 
L 286.963084 -12.088882 
z
" clip-path="url(#pd1e49a41d2)" style="fill: #0000f5; fill-opacity: 0.1"/>
    <path d="M 286.963084 -12.088882 
L 280.844524 -51.951786 
L 271.171714 -63.681407 
L 277.197579 -23.881888 
z
" clip-path="url(#pd1e49a41d2)" style="fill: #0000f5; fill-opacity: 0.1"/>
    <path d="M 277.197579 -23.881888 
L 271.171714 -63.681407 
L 261.469935 -75.446157 
L 267.402517 -35.710587 
z
" clip-path="url(#pd1e49a41d2)" style="fill: #0000f5; fill-opacity: 0.1"/>
    <path d="M 267.402517 -35.710587 
L 261.469935 -75.446157 
L 251.739055 -87.246196 
L 257.577765 -47.575139 
z
" clip-path="url(#pd1e49a41d2)" style="fill: #0000f5; fill-opacity: 0.1"/>
    <path d="M 257.577765 -47.575139 
L 251.739055 -87.246196 
L 241.978945 -99.081681 
L 247.723188 -59.47571 
z
" clip-path="url(#pd1e49a41d2)" style="fill: #0000f5; fill-opacity: 0.1"/>
    <path d="M 322.612131 63.975288 
L 316.083598 23.077591 
L 306.405962 11.390697 
L 312.841811 52.226652 
z
" clip-path="url(#pd1e49a41d2)" style="fill: #0000f5; fill-opacity: 0.1"/>
    <path d="M 247.723188 -59.47571 
L 241.978945 -99.081681 
L 232.189472 -110.952773 
L 237.838649 -71.412463 
z
" clip-path="url(#pd1e49a41d2)" style="fill: #0000f5; fill-opacity: 0.1"/>
    <path d="M 312.841811 52.226652 
L 306.405962 11.390697 
L 296.699168 -0.331407 
L 303.041741 40.442244 
z
" clip-path="url(#pd1e49a41d2)" style="fill: #0000f5; fill-opacity: 0.1"/>
    <path d="M 237.838649 -71.412463 
L 232.189472 -110.952773 
L 222.370503 -122.859632 
L 227.924012 -83.385562 
z
" clip-path="url(#pd1e49a41d2)" style="fill: #0000f5; fill-opacity: 0.1"/>
    <path d="M 303.041741 40.442244 
L 296.699168 -0.331407 
L 286.963084 -12.088882 
L 293.211786 28.621899 
z
" clip-path="url(#pd1e49a41d2)" style="fill: #0000f5; fill-opacity: 0.1"/>
    <path d="M 227.924012 -83.385562 
L 222.370503 -122.859632 
L 212.521905 -134.80242 
L 217.979139 -95.395176 
z
" clip-path="url(#pd1e49a41d2)" style="fill: #0000f5; fill-opacity: 0.1"/>
    <path d="M 293.211786 28.621899 
L 286.963084 -12.088882 
L 277.197579 -23.881888 
L 283.351808 16.765452 
z
" clip-path="url(#pd1e49a41d2)" style="fill: #0000f5; fill-opacity: 0.1"/>
    <path d="M 217.979139 -95.395176 
L 212.521905 -134.80242 
L 202.643543 -146.781301 
L 208.003891 -107.44147 
z
" clip-path="url(#pd1e49a41d2)" style="fill: #0000f5; fill-opacity: 0.1"/>
    <path d="M 283.351808 16.765452 
L 277.197579 -23.881888 
L 267.402517 -35.710587 
L 273.461671 4.872739 
z
" clip-path="url(#pd1e49a41d2)" style="fill: #0000f5; fill-opacity: 0.1"/>
    <path d="M 208.003891 -107.44147 
L 202.643543 -146.781301 
L 192.735283 -158.796438 
L 197.99813 -119.524614 
z
" clip-path="url(#pd1e49a41d2)" style="fill: #0000f5; fill-opacity: 0.1"/>
    <path d="M 273.461671 4.872739 
L 267.402517 -35.710587 
L 257.577765 -47.575139 
L 263.541234 -7.056408 
z
" clip-path="url(#pd1e49a41d2)" style="fill: #0000f5; fill-opacity: 0.1"/>
    <path d="M 197.99813 -119.524614 
L 192.735283 -158.796438 
L 182.796988 -170.847996 
L 187.961714 -131.644775 
z
" clip-path="url(#pd1e49a41d2)" style="fill: #0000f5; fill-opacity: 0.1"/>
    <path d="M 263.541234 -7.056408 
L 257.577765 -47.575139 
L 247.723188 -59.47571 
L 253.59036 -19.022157 
z
" clip-path="url(#pd1e49a41d2)" style="fill: #0000f5; fill-opacity: 0.1"/>
    <path d="M 187.961714 -131.644775 
L 182.796988 -170.847996 
L 172.828522 -182.936141 
L 177.894503 -143.802126 
z
" clip-path="url(#pd1e49a41d2)" style="fill: #0000f5; fill-opacity: 0.1"/>
    <path d="M 329.280371 105.748176 
L 322.612131 63.975288 
L 312.841811 52.226652 
L 319.415595 93.937821 
z
" clip-path="url(#pd1e49a41d2)" style="fill: #0000f5; fill-opacity: 0.1"/>
    <path d="M 253.59036 -19.022157 
L 247.723188 -59.47571 
L 237.838649 -71.412463 
L 243.608907 -31.024675 
z
" clip-path="url(#pd1e49a41d2)" style="fill: #0000f5; fill-opacity: 0.1"/>
    <path d="M 177.894503 -143.802126 
L 172.828522 -182.936141 
L 162.829748 -195.06104 
L 167.796355 -155.996837 
z
" clip-path="url(#pd1e49a41d2)" style="fill: #0000f5; fill-opacity: 0.1"/>
    <path d="M 319.415595 93.937821 
L 312.841811 52.226652 
L 303.041741 40.442244 
L 309.52046 82.091118 
z
" clip-path="url(#pd1e49a41d2)" style="fill: #0000f5; fill-opacity: 0.1"/>
    <path d="M 243.608907 -31.024675 
L 237.838649 -71.412463 
L 227.924012 -83.385562 
L 233.596734 -43.064134 
z
" clip-path="url(#pd1e49a41d2)" style="fill: #0000f5; fill-opacity: 0.1"/>
    <path d="M 167.796355 -155.996837 
L 162.829748 -195.06104 
L 152.800526 -207.22286 
L 157.667127 -168.229081 
z
" clip-path="url(#pd1e49a41d2)" style="fill: #0000f5; fill-opacity: 0.1"/>
    <path d="M 309.52046 82.091118 
L 303.041741 40.442244 
L 293.211786 28.621899 
L 299.594825 70.2079 
z
" clip-path="url(#pd1e49a41d2)" style="fill: #0000f5; fill-opacity: 0.1"/>
    <path d="M 233.596734 -43.064134 
L 227.924012 -83.385562 
L 217.979139 -95.395176 
L 223.5537 -55.140703 
z
" clip-path="url(#pd1e49a41d2)" style="fill: #0000f5; fill-opacity: 0.1"/>
    <path d="M 157.667127 -168.229081 
L 152.800526 -207.22286 
L 142.740717 -219.421771 
L 147.506675 -180.499031 
z
" clip-path="url(#pd1e49a41d2)" style="fill: #0000f5; fill-opacity: 0.1"/>
    <path d="M 299.594825 70.2079 
L 293.211786 28.621899 
L 283.351808 16.765452 
L 289.638549 58.287998 
z
" clip-path="url(#pd1e49a41d2)" style="fill: #0000f5; fill-opacity: 0.1"/>
    <path d="M 223.5537 -55.140703 
L 217.979139 -95.395176 
L 208.003891 -107.44147 
L 213.479661 -67.254554 
z
" clip-path="url(#pd1e49a41d2)" style="fill: #0000f5; fill-opacity: 0.1"/>
    <path d="M 147.506675 -180.499031 
L 142.740717 -219.421771 
L 132.650181 -231.657942 
L 137.314855 -192.806862 
z
" clip-path="url(#pd1e49a41d2)" style="fill: #0000f5; fill-opacity: 0.1"/>
    <path d="M 289.638549 58.287998 
L 283.351808 16.765452 
L 273.461671 4.872739 
L 279.65149 46.331242 
z
" clip-path="url(#pd1e49a41d2)" style="fill: #0000f5; fill-opacity: 0.1"/>
    <path d="M 213.479661 -67.254554 
L 208.003891 -107.44147 
L 197.99813 -119.524614 
L 203.374474 -79.405861 
z
" clip-path="url(#pd1e49a41d2)" style="fill: #0000f5; fill-opacity: 0.1"/>
    <path d="M 137.314855 -192.806862 
L 132.650181 -231.657942 
L 122.528778 -243.931545 
L 127.091522 -205.15275 
z
" clip-path="url(#pd1e49a41d2)" style="fill: #0000f5; fill-opacity: 0.1"/>
    <path d="M 279.65149 46.331242 
L 273.461671 4.872739 
L 263.541234 -7.056408 
L 269.633505 34.337461 
z
" clip-path="url(#pd1e49a41d2)" style="fill: #0000f5; fill-opacity: 0.1"/>
    <path d="M 203.374474 -79.405861 
L 197.99813 -119.524614 
L 187.961714 -131.644775 
L 193.237994 -91.594797 
z
" clip-path="url(#pd1e49a41d2)" style="fill: #0000f5; fill-opacity: 0.1"/>
    <path d="M 269.633505 34.337461 
L 263.541234 -7.056408 
L 253.59036 -19.022157 
L 259.58445 22.306481 
z
" clip-path="url(#pd1e49a41d2)" style="fill: #0000f5; fill-opacity: 0.1"/>
    <path d="M 193.237994 -91.594797 
L 187.961714 -131.644775 
L 177.894503 -143.802126 
L 183.070075 -103.821538 
z
" clip-path="url(#pd1e49a41d2)" style="fill: #0000f5; fill-opacity: 0.1"/>
    <path d="M 336.092852 148.424655 
L 329.280371 105.748176 
L 319.415595 93.937821 
L 326.131798 136.552644 
z
" clip-path="url(#pd1e49a41d2)" style="fill: #0000f5; fill-opacity: 0.1"/>
    <path d="M 259.58445 22.306481 
L 253.59036 -19.022157 
L 243.608907 -31.024675 
L 249.50418 10.238131 
z
" clip-path="url(#pd1e49a41d2)" style="fill: #0000f5; fill-opacity: 0.1"/>
    <path d="M 183.070075 -103.821538 
L 177.894503 -143.802126 
L 167.796355 -155.996837 
L 172.870571 -116.086259 
z
" clip-path="url(#pd1e49a41d2)" style="fill: #0000f5; fill-opacity: 0.1"/>
    <path d="M 326.131798 136.552644 
L 319.415595 93.937821 
L 309.52046 82.091118 
L 316.139756 124.643701 
z
" clip-path="url(#pd1e49a41d2)" style="fill: #0000f5; fill-opacity: 0.1"/>
    <path d="M 249.50418 10.238131 
L 243.608907 -31.024675 
L 233.596734 -43.064134 
L 239.39255 -1.867765 
z
" clip-path="url(#pd1e49a41d2)" style="fill: #0000f5; fill-opacity: 0.1"/>
    <path d="M 172.870571 -116.086259 
L 167.796355 -155.996837 
L 157.667127 -168.229081 
L 162.639334 -128.389138 
z
" clip-path="url(#pd1e49a41d2)" style="fill: #0000f5; fill-opacity: 0.1"/>
    <path d="M 316.139756 124.643701 
L 309.52046 82.091118 
L 299.594825 70.2079 
L 306.11658 112.697652 
z
" clip-path="url(#pd1e49a41d2)" style="fill: #0000f5; fill-opacity: 0.1"/>
    <path d="M 239.39255 -1.867765 
L 233.596734 -43.064134 
L 223.5537 -55.140703 
L 229.249413 -14.011381 
z
" clip-path="url(#pd1e49a41d2)" style="fill: #0000f5; fill-opacity: 0.1"/>
    <path d="M 162.639334 -128.389138 
L 157.667127 -168.229081 
L 147.506675 -180.499031 
L 152.376216 -140.730353 
z
" clip-path="url(#pd1e49a41d2)" style="fill: #0000f5; fill-opacity: 0.1"/>
    <path d="M 306.11658 112.697652 
L 299.594825 70.2079 
L 289.638549 58.287998 
L 296.062126 100.714324 
z
" clip-path="url(#pd1e49a41d2)" style="fill: #0000f5; fill-opacity: 0.1"/>
    <path d="M 229.249413 -14.011381 
L 223.5537 -55.140703 
L 213.479661 -67.254554 
L 219.074622 -26.192895 
z
" clip-path="url(#pd1e49a41d2)" style="fill: #0000f5; fill-opacity: 0.1"/>
    <path d="M 152.376216 -140.730353 
L 147.506675 -180.499031 
L 137.314855 -192.806862 
L 142.081069 -153.110084 
z
" clip-path="url(#pd1e49a41d2)" style="fill: #0000f5; fill-opacity: 0.1"/>
    <path d="M 296.062126 100.714324 
L 289.638549 58.287998 
L 279.65149 46.331242 
L 285.976247 88.693542 
z
" clip-path="url(#pd1e49a41d2)" style="fill: #0000f5; fill-opacity: 0.1"/>
    <path d="M 219.074622 -26.192895 
L 213.479661 -67.254554 
L 203.374474 -79.405861 
L 208.868027 -38.412484 
z
" clip-path="url(#pd1e49a41d2)" style="fill: #0000f5; fill-opacity: 0.1"/>
    <path d="M 142.081069 -153.110084 
L 137.314855 -192.806862 
L 127.091522 -205.15275 
L 131.753741 -165.528511 
z
" clip-path="url(#pd1e49a41d2)" style="fill: #0000f5; fill-opacity: 0.1"/>
    <path d="M 285.976247 88.693542 
L 279.65149 46.331242 
L 269.633505 34.337461 
L 275.858794 76.635129 
z
" clip-path="url(#pd1e49a41d2)" style="fill: #0000f5; fill-opacity: 0.1"/>
    <path d="M 208.868027 -38.412484 
L 203.374474 -79.405861 
L 193.237994 -91.594797 
L 198.629481 -50.670327 
z
" clip-path="url(#pd1e49a41d2)" style="fill: #0000f5; fill-opacity: 0.1"/>
    <path d="M 275.858794 76.635129 
L 269.633505 34.337461 
L 259.58445 22.306481 
L 265.70962 64.538909 
z
" clip-path="url(#pd1e49a41d2)" style="fill: #0000f5; fill-opacity: 0.1"/>
    <path d="M 198.629481 -50.670327 
L 193.237994 -91.594797 
L 183.070075 -103.821538 
L 188.358832 -62.966604 
z
" clip-path="url(#pd1e49a41d2)" style="fill: #0000f5; fill-opacity: 0.1"/>
    <path d="M 343.054304 192.03436 
L 336.092852 148.424655 
L 326.131798 136.552644 
L 332.995098 180.100811 
z
" clip-path="url(#pd1e49a41d2)" style="fill: #0000f5; fill-opacity: 0.1"/>
    <path d="M 265.70962 64.538909 
L 259.58445 22.306481 
L 249.50418 10.238131 
L 255.528575 52.404704 
z
" clip-path="url(#pd1e49a41d2)" style="fill: #0000f5; fill-opacity: 0.1"/>
    <path d="M 188.358832 -62.966604 
L 183.070075 -103.821538 
L 172.870571 -116.086259 
L 178.05593 -75.301496 
z
" clip-path="url(#pd1e49a41d2)" style="fill: #0000f5; fill-opacity: 0.1"/>
    <path d="M 332.995098 180.100811 
L 326.131798 136.552644 
L 316.139756 124.643701 
L 322.904254 168.12973 
z
" clip-path="url(#pd1e49a41d2)" style="fill: #0000f5; fill-opacity: 0.1"/>
    <path d="M 255.528575 52.404704 
L 249.50418 10.238131 
L 239.39255 -1.867765 
L 245.315509 40.232335 
z
" clip-path="url(#pd1e49a41d2)" style="fill: #0000f5; fill-opacity: 0.1"/>
    <path d="M 178.05593 -75.301496 
L 172.870571 -116.086259 
L 162.639334 -128.389138 
L 167.720621 -87.675185 
z
" clip-path="url(#pd1e49a41d2)" style="fill: #0000f5; fill-opacity: 0.1"/>
    <path d="M 322.904254 168.12973 
L 316.139756 124.643701 
L 306.11658 112.697652 
L 312.781625 156.120939 
z
" clip-path="url(#pd1e49a41d2)" style="fill: #0000f5; fill-opacity: 0.1"/>
    <path d="M 245.315509 40.232335 
L 239.39255 -1.867765 
L 229.249413 -14.011381 
L 235.07027 28.021621 
z
" clip-path="url(#pd1e49a41d2)" style="fill: #0000f5; fill-opacity: 0.1"/>
    <path d="M 167.720621 -87.675185 
L 162.639334 -128.389138 
L 152.376216 -140.730353 
L 157.352754 -100.087855 
z
" clip-path="url(#pd1e49a41d2)" style="fill: #0000f5; fill-opacity: 0.1"/>
    <path d="M 312.781625 156.120939 
L 306.11658 112.697652 
L 296.062126 100.714324 
L 302.627058 144.074262 
z
" clip-path="url(#pd1e49a41d2)" style="fill: #0000f5; fill-opacity: 0.1"/>
    <path d="M 235.07027 28.021621 
L 229.249413 -14.011381 
L 219.074622 -26.192895 
L 224.792707 15.772381 
z
" clip-path="url(#pd1e49a41d2)" style="fill: #0000f5; fill-opacity: 0.1"/>
    <path d="M 157.352754 -100.087855 
L 152.376216 -140.730353 
L 142.081069 -153.110084 
L 146.952173 -112.539689 
z
" clip-path="url(#pd1e49a41d2)" style="fill: #0000f5; fill-opacity: 0.1"/>
    <path d="M 302.627058 144.074262 
L 296.062126 100.714324 
L 285.976247 88.693542 
L 292.440403 131.989516 
z
" clip-path="url(#pd1e49a41d2)" style="fill: #0000f5; fill-opacity: 0.1"/>
    <path d="M 224.792707 15.772381 
L 219.074622 -26.192895 
L 208.868027 -38.412484 
L 214.482665 3.484432 
z
" clip-path="url(#pd1e49a41d2)" style="fill: #0000f5; fill-opacity: 0.1"/>
    <path d="M 146.952173 -112.539689 
L 142.081069 -153.110084 
L 131.753741 -165.528511 
L 136.518725 -125.030874 
z
" clip-path="url(#pd1e49a41d2)" style="fill: #0000f5; fill-opacity: 0.1"/>
    <path d="M 292.440403 131.989516 
L 285.976247 88.693542 
L 275.858794 76.635129 
L 282.221508 119.866524 
z
" clip-path="url(#pd1e49a41d2)" style="fill: #0000f5; fill-opacity: 0.1"/>
    <path d="M 214.482665 3.484432 
L 208.868027 -38.412484 
L 198.629481 -50.670327 
L 204.139991 -8.842409 
z
" clip-path="url(#pd1e49a41d2)" style="fill: #0000f5; fill-opacity: 0.1"/>
    <path d="M 282.221508 119.866524 
L 275.858794 76.635129 
L 265.70962 64.538909 
L 271.970219 107.705101 
z
" clip-path="url(#pd1e49a41d2)" style="fill: #0000f5; fill-opacity: 0.1"/>
    <path d="M 204.139991 -8.842409 
L 198.629481 -50.670327 
L 188.358832 -62.966604 
L 193.764529 -21.208328 
z
" clip-path="url(#pd1e49a41d2)" style="fill: #0000f5; fill-opacity: 0.1"/>
    <path d="M 350.16967 236.608244 
L 343.054304 192.03436 
L 332.995098 180.100811 
L 340.010381 224.613323 
z
" clip-path="url(#pd1e49a41d2)" style="fill: #0000f5; fill-opacity: 0.1"/>
    <path d="M 271.970219 107.705101 
L 265.70962 64.538909 
L 255.528575 52.404704 
L 261.686382 95.505066 
z
" clip-path="url(#pd1e49a41d2)" style="fill: #0000f5; fill-opacity: 0.1"/>
    <path d="M 193.764529 -21.208328 
L 188.358832 -62.966604 
L 178.05593 -75.301496 
L 183.356124 -33.61351 
z
" clip-path="url(#pd1e49a41d2)" style="fill: #0000f5; fill-opacity: 0.1"/>
    <path d="M 340.010381 224.613323 
L 332.995098 180.100811 
L 322.904254 168.12973 
L 329.818786 212.580258 
z
" clip-path="url(#pd1e49a41d2)" style="fill: #0000f5; fill-opacity: 0.1"/>
    <path d="M 261.686382 95.505066 
L 255.528575 52.404704 
L 245.315509 40.232335 
L 251.369842 83.266233 
z
" clip-path="url(#pd1e49a41d2)" style="fill: #0000f5; fill-opacity: 0.1"/>
    <path d="M 183.356124 -33.61351 
L 178.05593 -75.301496 
L 167.720621 -87.675185 
L 172.914618 -46.058143 
z
" clip-path="url(#pd1e49a41d2)" style="fill: #0000f5; fill-opacity: 0.1"/>
    <path d="M 329.818786 212.580258 
L 322.904254 168.12973 
L 312.781625 156.120939 
L 319.594732 200.508869 
z
" clip-path="url(#pd1e49a41d2)" style="fill: #0000f5; fill-opacity: 0.1"/>
    <path d="M 251.369842 83.266233 
L 245.315509 40.232335 
L 235.07027 28.021621 
L 241.020442 70.988419 
z
" clip-path="url(#pd1e49a41d2)" style="fill: #0000f5; fill-opacity: 0.1"/>
    <path d="M 172.914618 -46.058143 
L 167.720621 -87.675185 
L 157.352754 -100.087855 
L 162.439853 -58.542416 
z
" clip-path="url(#pd1e49a41d2)" style="fill: #0000f5; fill-opacity: 0.1"/>
    <path d="M 319.594732 200.508869 
L 312.781625 156.120939 
L 302.627058 144.074262 
L 309.338061 188.39897 
z
" clip-path="url(#pd1e49a41d2)" style="fill: #0000f5; fill-opacity: 0.1"/>
    <path d="M 241.020442 70.988419 
L 235.07027 28.021621 
L 224.792707 15.772381 
L 230.638026 58.671435 
z
" clip-path="url(#pd1e49a41d2)" style="fill: #0000f5; fill-opacity: 0.1"/>
    <path d="M 162.439853 -58.542416 
L 157.352754 -100.087855 
L 146.952173 -112.539689 
L 151.93167 -71.066518 
z
" clip-path="url(#pd1e49a41d2)" style="fill: #0000f5; fill-opacity: 0.1"/>
    <path d="M 309.338061 188.39897 
L 302.627058 144.074262 
L 292.440403 131.989516 
L 299.048619 176.250379 
z
" clip-path="url(#pd1e49a41d2)" style="fill: #0000f5; fill-opacity: 0.1"/>
    <path d="M 230.638026 58.671435 
L 224.792707 15.772381 
L 214.482665 3.484432 
L 220.222434 46.315095 
z
" clip-path="url(#pd1e49a41d2)" style="fill: #0000f5; fill-opacity: 0.1"/>
    <path d="M 151.93167 -71.066518 
L 146.952173 -112.539689 
L 136.518725 -125.030874 
L 141.389909 -83.63064 
z
" clip-path="url(#pd1e49a41d2)" style="fill: #0000f5; fill-opacity: 0.1"/>
    <path d="M 299.048619 176.250379 
L 292.440403 131.989516 
L 282.221508 119.866524 
L 288.726247 164.062908 
z
" clip-path="url(#pd1e49a41d2)" style="fill: #0000f5; fill-opacity: 0.1"/>
    <path d="M 220.222434 46.315095 
L 214.482665 3.484432 
L 204.139991 -8.842409 
L 209.773508 33.919209 
z
" clip-path="url(#pd1e49a41d2)" style="fill: #0000f5; fill-opacity: 0.1"/>
    <path d="M 288.726247 164.062908 
L 282.221508 119.866524 
L 271.970219 107.705101 
L 278.370788 151.836371 
z
" clip-path="url(#pd1e49a41d2)" style="fill: #0000f5; fill-opacity: 0.1"/>
    <path d="M 209.773508 33.919209 
L 204.139991 -8.842409 
L 193.764529 -21.208328 
L 199.291088 21.483588 
z
" clip-path="url(#pd1e49a41d2)" style="fill: #0000f5; fill-opacity: 0.1"/>
    <path d="M 357.444109 282.178638 
L 350.16967 236.608244 
L 340.010381 224.613323 
L 347.182752 270.12257 
z
" clip-path="url(#pd1e49a41d2)" style="fill: #0000f5; fill-opacity: 0.1"/>
    <path d="M 278.370788 151.836371 
L 271.970219 107.705101 
L 261.686382 95.505066 
L 267.982082 139.57058 
z
" clip-path="url(#pd1e49a41d2)" style="fill: #0000f5; fill-opacity: 0.1"/>
    <path d="M 199.291088 21.483588 
L 193.764529 -21.208328 
L 183.356124 -33.61351 
L 188.775011 9.00804 
z
" clip-path="url(#pd1e49a41d2)" style="fill: #0000f5; fill-opacity: 0.1"/>
    <path d="M 347.182752 270.12257 
L 340.010381 224.613323 
L 329.818786 212.580258 
L 336.8884 258.027735 
z
" clip-path="url(#pd1e49a41d2)" style="fill: #0000f5; fill-opacity: 0.1"/>
    <path d="M 267.982082 139.57058 
L 261.686382 95.505066 
L 251.369842 83.266233 
L 257.559969 127.265346 
z
" clip-path="url(#pd1e49a41d2)" style="fill: #0000f5; fill-opacity: 0.1"/>
    <path d="M 188.775011 9.00804 
L 183.356124 -33.61351 
L 172.914618 -46.058143 
L 178.225117 -3.507628 
z
" clip-path="url(#pd1e49a41d2)" style="fill: #0000f5; fill-opacity: 0.1"/>
    <path d="M 336.8884 258.027735 
L 329.818786 212.580258 
L 319.594732 200.508869 
L 326.560891 245.893946 
z
" clip-path="url(#pd1e49a41d2)" style="fill: #0000f5; fill-opacity: 0.1"/>
    <path d="M 257.559969 127.265346 
L 251.369842 83.266233 
L 241.020442 70.988419 
L 247.104287 114.920478 
z
" clip-path="url(#pd1e49a41d2)" style="fill: #0000f5; fill-opacity: 0.1"/>
    <path d="M 178.225117 -3.507628 
L 172.914618 -46.058143 
L 162.439853 -58.542416 
L 167.64124 -16.063609 
z
" clip-path="url(#pd1e49a41d2)" style="fill: #0000f5; fill-opacity: 0.1"/>
    <path d="M 326.560891 245.893946 
L 319.594732 200.508869 
L 309.338061 188.39897 
L 316.200066 233.721013 
z
" clip-path="url(#pd1e49a41d2)" style="fill: #0000f5; fill-opacity: 0.1"/>
    <path d="M 247.104287 114.920478 
L 241.020442 70.988419 
L 230.638026 58.671435 
L 236.614874 102.535783 
z
" clip-path="url(#pd1e49a41d2)" style="fill: #0000f5; fill-opacity: 0.1"/>
    <path d="M 167.64124 -16.063609 
L 162.439853 -58.542416 
L 151.93167 -71.066518 
L 157.023218 -28.660099 
z
" clip-path="url(#pd1e49a41d2)" style="fill: #0000f5; fill-opacity: 0.1"/>
    <path d="M 316.200066 233.721013 
L 309.338061 188.39897 
L 299.048619 176.250379 
L 305.805764 221.508747 
z
" clip-path="url(#pd1e49a41d2)" style="fill: #0000f5; fill-opacity: 0.1"/>
    <path d="M 236.614874 102.535783 
L 230.638026 58.671435 
L 220.222434 46.315095 
L 226.091566 90.11107 
z
" clip-path="url(#pd1e49a41d2)" style="fill: #0000f5; fill-opacity: 0.1"/>
    <path d="M 157.023218 -28.660099 
L 151.93167 -71.066518 
L 141.389909 -83.63064 
L 146.370884 -41.297294 
z
" clip-path="url(#pd1e49a41d2)" style="fill: #0000f5; fill-opacity: 0.1"/>
    <path d="M 305.805764 221.508747 
L 299.048619 176.250379 
L 288.726247 164.062908 
L 295.377821 209.256957 
z
" clip-path="url(#pd1e49a41d2)" style="fill: #0000f5; fill-opacity: 0.1"/>
    <path d="M 226.091566 90.11107 
L 220.222434 46.315095 
L 209.773508 33.919209 
L 215.534199 77.646144 
z
" clip-path="url(#pd1e49a41d2)" style="fill: #0000f5; fill-opacity: 0.1"/>
    <path d="M 295.377821 209.256957 
L 288.726247 164.062908 
L 278.370788 151.836371 
L 284.916074 196.965451 
z
" clip-path="url(#pd1e49a41d2)" style="fill: #0000f5; fill-opacity: 0.1"/>
    <path d="M 215.534199 77.646144 
L 209.773508 33.919209 
L 199.291088 21.483588 
L 204.942607 65.140809 
z
" clip-path="url(#pd1e49a41d2)" style="fill: #0000f5; fill-opacity: 0.1"/>
    <path d="M 364.883016 328.779337 
L 357.444109 282.178638 
L 347.182752 270.12257 
L 354.517548 316.662412 
z
" clip-path="url(#pd1e49a41d2)" style="fill: #0000f5; fill-opacity: 0.1"/>
    <path d="M 284.916074 196.965451 
L 278.370788 151.836371 
L 267.982082 139.57058 
L 274.420359 184.634035 
z
" clip-path="url(#pd1e49a41d2)" style="fill: #0000f5; fill-opacity: 0.1"/>
    <path d="M 204.942607 65.140809 
L 199.291088 21.483588 
L 188.775011 9.00804 
L 194.316624 52.594868 
z
" clip-path="url(#pd1e49a41d2)" style="fill: #0000f5; fill-opacity: 0.1"/>
    <path d="M 354.517548 316.662412 
L 347.182752 270.12257 
L 336.8884 258.027735 
L 344.11837 304.506081 
z
" clip-path="url(#pd1e49a41d2)" style="fill: #0000f5; fill-opacity: 0.1"/>
    <path d="M 274.420359 184.634035 
L 267.982082 139.57058 
L 257.559969 127.265346 
L 263.89051 172.262516 
z
" clip-path="url(#pd1e49a41d2)" style="fill: #0000f5; fill-opacity: 0.1"/>
    <path d="M 194.316624 52.594868 
L 188.775011 9.00804 
L 178.225117 -3.507628 
L 183.656081 40.008124 
z
" clip-path="url(#pd1e49a41d2)" style="fill: #0000f5; fill-opacity: 0.1"/>
    <path d="M 344.11837 304.506081 
L 336.8884 258.027735 
L 326.560891 245.893946 
L 333.685319 292.310153 
z
" clip-path="url(#pd1e49a41d2)" style="fill: #0000f5; fill-opacity: 0.1"/>
    <path d="M 263.89051 172.262516 
L 257.559969 127.265346 
L 247.104287 114.920478 
L 253.326359 159.850695 
z
" clip-path="url(#pd1e49a41d2)" style="fill: #0000f5; fill-opacity: 0.1"/>
    <path d="M 183.656081 40.008124 
L 178.225117 -3.507628 
L 167.64124 -16.063609 
L 172.96081 27.380377 
z
" clip-path="url(#pd1e49a41d2)" style="fill: #0000f5; fill-opacity: 0.1"/>
    <path d="M 333.685319 292.310153 
L 326.560891 245.893946 
L 316.200066 233.721013 
L 323.218227 280.074433 
z
" clip-path="url(#pd1e49a41d2)" style="fill: #0000f5; fill-opacity: 0.1"/>
    <path d="M 253.326359 159.850695 
L 247.104287 114.920478 
L 236.614874 102.535783 
L 242.72774 147.398378 
z
" clip-path="url(#pd1e49a41d2)" style="fill: #0000f5; fill-opacity: 0.1"/>
    <path d="M 172.96081 27.380377 
L 167.64124 -16.063609 
L 157.023218 -28.660099 
L 162.230642 14.711426 
z
" clip-path="url(#pd1e49a41d2)" style="fill: #0000f5; fill-opacity: 0.1"/>
    <path d="M 323.218227 280.074433 
L 316.200066 233.721013 
L 305.805764 221.508747 
L 312.71693 267.798726 
z
" clip-path="url(#pd1e49a41d2)" style="fill: #0000f5; fill-opacity: 0.1"/>
    <path d="M 242.72774 147.398378 
L 236.614874 102.535783 
L 226.091566 90.11107 
L 232.094483 134.905364 
z
" clip-path="url(#pd1e49a41d2)" style="fill: #0000f5; fill-opacity: 0.1"/>
    <path d="M 162.230642 14.711426 
L 157.023218 -28.660099 
L 146.370884 -41.297294 
L 151.465404 2.001069 
z
" clip-path="url(#pd1e49a41d2)" style="fill: #0000f5; fill-opacity: 0.1"/>
    <path d="M 312.71693 267.798726 
L 305.805764 221.508747 
L 295.377821 209.256957 
L 302.181257 255.482837 
z
" clip-path="url(#pd1e49a41d2)" style="fill: #0000f5; fill-opacity: 0.1"/>
    <path d="M 232.094483 134.905364 
L 226.091566 90.11107 
L 215.534199 77.646144 
L 221.426418 122.371455 
z
" clip-path="url(#pd1e49a41d2)" style="fill: #0000f5; fill-opacity: 0.1"/>
    <path d="M 302.181257 255.482837 
L 295.377821 209.256957 
L 284.916074 196.965451 
L 291.611041 243.126568 
z
" clip-path="url(#pd1e49a41d2)" style="fill: #0000f5; fill-opacity: 0.1"/>
    <path d="M 221.426418 122.371455 
L 215.534199 77.646144 
L 204.942607 65.140809 
L 210.723374 109.796449 
z
" clip-path="url(#pd1e49a41d2)" style="fill: #0000f5; fill-opacity: 0.1"/>
    <path d="M 372.492034 376.445684 
L 364.883016 328.779337 
L 354.517548 316.662412 
L 362.020348 364.268256 
z
" clip-path="url(#pd1e49a41d2)" style="fill: #0000f5; fill-opacity: 0.1"/>
    <path d="M 291.611041 243.126568 
L 284.916074 196.965451 
L 274.420359 184.634035 
L 281.006112 230.729719 
z
" clip-path="url(#pd1e49a41d2)" style="fill: #0000f5; fill-opacity: 0.1"/>
    <path d="M 210.723374 109.796449 
L 204.942607 65.140809 
L 194.316624 52.594868 
L 199.985178 97.180143 
z
" clip-path="url(#pd1e49a41d2)" style="fill: #0000f5; fill-opacity: 0.1"/>
    <path d="M 362.020348 364.268256 
L 354.517548 316.662412 
L 344.11837 304.506081 
L 351.514217 352.050771 
z
" clip-path="url(#pd1e49a41d2)" style="fill: #0000f5; fill-opacity: 0.1"/>
    <path d="M 281.006112 230.729719 
L 274.420359 184.634035 
L 263.89051 172.262516 
L 270.366297 218.29209 
z
" clip-path="url(#pd1e49a41d2)" style="fill: #0000f5; fill-opacity: 0.1"/>
    <path d="M 199.985178 97.180143 
L 194.316624 52.594868 
L 183.656081 40.008124 
L 189.211658 84.522334 
z
" clip-path="url(#pd1e49a41d2)" style="fill: #0000f5; fill-opacity: 0.1"/>
    <path d="M 351.514217 352.050771 
L 344.11837 304.506081 
L 333.685319 292.310153 
L 340.97347 339.793033 
z
" clip-path="url(#pd1e49a41d2)" style="fill: #0000f5; fill-opacity: 0.1"/>
    <path d="M 270.366297 218.29209 
L 263.89051 172.262516 
L 253.326359 159.850695 
L 259.691425 205.813481 
z
" clip-path="url(#pd1e49a41d2)" style="fill: #0000f5; fill-opacity: 0.1"/>
    <path d="M 189.211658 84.522334 
L 183.656081 40.008124 
L 172.96081 27.380377 
L 178.402638 71.822816 
z
" clip-path="url(#pd1e49a41d2)" style="fill: #0000f5; fill-opacity: 0.1"/>
    <path d="M 340.97347 339.793033 
L 333.685319 292.310153 
L 323.218227 280.074433 
L 330.397936 327.494841 
z
" clip-path="url(#pd1e49a41d2)" style="fill: #0000f5; fill-opacity: 0.1"/>
    <path d="M 259.691425 205.813481 
L 253.326359 159.850695 
L 242.72774 147.398378 
L 248.981321 193.293687 
z
" clip-path="url(#pd1e49a41d2)" style="fill: #0000f5; fill-opacity: 0.1"/>
    <path d="M 178.402638 71.822816 
L 172.96081 27.380377 
L 162.230642 14.711426 
L 167.557943 59.081384 
z
" clip-path="url(#pd1e49a41d2)" style="fill: #0000f5; fill-opacity: 0.1"/>
    <path d="M 330.397936 327.494841 
L 323.218227 280.074433 
L 312.71693 267.798726 
L 319.787444 315.155995 
z
" clip-path="url(#pd1e49a41d2)" style="fill: #0000f5; fill-opacity: 0.1"/>
    <path d="M 248.981321 193.293687 
L 242.72774 147.398378 
L 232.094483 134.905364 
L 238.235813 180.732505 
z
" clip-path="url(#pd1e49a41d2)" style="fill: #0000f5; fill-opacity: 0.1"/>
    <path d="M 167.557943 59.081384 
L 162.230642 14.711426 
L 151.465404 2.001069 
L 156.677395 46.297829 
z
" clip-path="url(#pd1e49a41d2)" style="fill: #0000f5; fill-opacity: 0.1"/>
    <path d="M 319.787444 315.155995 
L 312.71693 267.798726 
L 302.181257 255.482837 
L 309.141818 302.776294 
z
" clip-path="url(#pd1e49a41d2)" style="fill: #0000f5; fill-opacity: 0.1"/>
    <path d="M 238.235813 180.732505 
L 232.094483 134.905364 
L 221.426418 122.371455 
L 227.454722 168.12973 
z
" clip-path="url(#pd1e49a41d2)" style="fill: #0000f5; fill-opacity: 0.1"/>
    <path d="M 309.141818 302.776294 
L 302.181257 255.482837 
L 291.611041 243.126568 
L 298.460884 290.355533 
z
" clip-path="url(#pd1e49a41d2)" style="fill: #0000f5; fill-opacity: 0.1"/>
    <path d="M 227.454722 168.12973 
L 221.426418 122.371455 
L 210.723374 109.796449 
L 216.637873 155.485153 
z
" clip-path="url(#pd1e49a41d2)" style="fill: #0000f5; fill-opacity: 0.1"/>
    <path d="M 298.460884 290.355533 
L 291.611041 243.126568 
L 281.006112 230.729719 
L 287.744466 277.893508 
z
" clip-path="url(#pd1e49a41d2)" style="fill: #0000f5; fill-opacity: 0.1"/>
    <path d="M 216.637873 155.485153 
L 210.723374 109.796449 
L 199.985178 97.180143 
L 205.785087 142.798568 
z
" clip-path="url(#pd1e49a41d2)" style="fill: #0000f5; fill-opacity: 0.1"/>
    <path d="M 287.744466 277.893508 
L 281.006112 230.729719 
L 270.366297 218.29209 
L 276.992388 265.390014 
z
" clip-path="url(#pd1e49a41d2)" style="fill: #0000f5; fill-opacity: 0.1"/>
    <path d="M 205.785087 142.798568 
L 199.985178 97.180143 
L 189.211658 84.522334 
L 194.896185 130.069764 
z
" clip-path="url(#pd1e49a41d2)" style="fill: #0000f5; fill-opacity: 0.1"/>
    <path d="M 276.992388 265.390014 
L 270.366297 218.29209 
L 259.691425 205.813481 
L 266.20447 252.844843 
z
" clip-path="url(#pd1e49a41d2)" style="fill: #0000f5; fill-opacity: 0.1"/>
    <path d="M 194.896185 130.069764 
L 189.211658 84.522334 
L 178.402638 71.822816 
L 183.970986 117.29853 
z
" clip-path="url(#pd1e49a41d2)" style="fill: #0000f5; fill-opacity: 0.1"/>
    <path d="M 266.20447 252.844843 
L 259.691425 205.813481 
L 248.981321 193.293687 
L 255.380534 240.257786 
z
" clip-path="url(#pd1e49a41d2)" style="fill: #0000f5; fill-opacity: 0.1"/>
    <path d="M 183.970986 117.29853 
L 178.402638 71.822816 
L 167.557943 59.081384 
L 173.009309 104.484653 
z
" clip-path="url(#pd1e49a41d2)" style="fill: #0000f5; fill-opacity: 0.1"/>
    <path d="M 255.380534 240.257786 
L 248.981321 193.293687 
L 238.235813 180.732505 
L 244.520398 227.628633 
z
" clip-path="url(#pd1e49a41d2)" style="fill: #0000f5; fill-opacity: 0.1"/>
    <path d="M 173.009309 104.484653 
L 167.557943 59.081384 
L 156.677395 46.297829 
L 162.01097 91.62792 
z
" clip-path="url(#pd1e49a41d2)" style="fill: #0000f5; fill-opacity: 0.1"/>
    <path d="M 244.520398 227.628633 
L 238.235813 180.732505 
L 227.454722 168.12973 
L 233.623881 214.957172 
z
" clip-path="url(#pd1e49a41d2)" style="fill: #0000f5; fill-opacity: 0.1"/>
    <path d="M 233.623881 214.957172 
L 227.454722 168.12973 
L 216.637873 155.485153 
L 222.6908 202.243191 
z
" clip-path="url(#pd1e49a41d2)" style="fill: #0000f5; fill-opacity: 0.1"/>
    <path d="M 222.6908 202.243191 
L 216.637873 155.485153 
L 205.785087 142.798568 
L 211.720969 189.486476 
z
" clip-path="url(#pd1e49a41d2)" style="fill: #0000f5; fill-opacity: 0.1"/>
    <path d="M 211.720969 189.486476 
L 205.785087 142.798568 
L 194.896185 130.069764 
L 200.714205 176.686809 
z
" clip-path="url(#pd1e49a41d2)" style="fill: #0000f5; fill-opacity: 0.1"/>
    <path d="M 200.714205 176.686809 
L 194.896185 130.069764 
L 183.970986 117.29853 
L 189.670319 163.843975 
z
" clip-path="url(#pd1e49a41d2)" style="fill: #0000f5; fill-opacity: 0.1"/>
    <path d="M 189.670319 163.843975 
L 183.970986 117.29853 
L 173.009309 104.484653 
L 178.589125 150.957754 
z
" clip-path="url(#pd1e49a41d2)" style="fill: #0000f5; fill-opacity: 0.1"/>
    <path d="M 178.589125 150.957754 
L 173.009309 104.484653 
L 162.01097 91.62792 
L 167.470431 138.027927 
z
" clip-path="url(#pd1e49a41d2)" style="fill: #0000f5; fill-opacity: 0.1"/>
   </g>
   <g id="legend_1">
    <g id="patch_6">
     <path d="M 357.840076 67.305115 
L 396.2 67.305115 
Q 398.2 67.305115 398.2 65.305115 
L 398.2 7 
Q 398.2 5 396.2 5 
L 357.840076 5 
Q 355.840076 5 355.840076 7 
L 355.840076 65.305115 
Q 355.840076 67.305115 357.840076 67.305115 
z
" style="fill: #ffffff; opacity: 0.8; stroke: #cccccc; stroke-linejoin: miter"/>
    </g>
    <g id="line2d_25">
     <path d="M 359.840076 12.5 
L 369.840076 12.5 
L 379.840076 12.5 
" style="fill: none; stroke: #ff0000; stroke-width: 1.5; stroke-linecap: square"/>
    </g>
    <g id="text_21">
     <!-- $\vec{a}$ -->
     <g transform="translate(387.840076 16)scale(0.1 -0.1)">
      <defs>
       <path id="CMMI12-7e" d="M 3424 3835 
C 3347 3764 3110 3540 3110 3451 
C 3110 3387 3168 3329 3232 3329 
C 3290 3329 3315 3368 3360 3432 
C 3514 3624 3686 3745 3834 3828 
C 3898 3867 3942 3886 3942 3956 
C 3942 4014 3891 4046 3853 4078 
C 3674 4200 3629 4372 3610 4449 
C 3590 4500 3571 4577 3482 4577 
C 3443 4577 3366 4552 3366 4456 
C 3366 4398 3405 4244 3526 4072 
L 1376 4072 
C 1267 4072 1158 4072 1158 3950 
C 1158 3835 1274 3835 1376 3835 
L 3424 3835 
z
" transform="scale(0.015625)"/>
       <path id="CMMI12-61" d="M 1926 760 
C 1894 651 1894 639 1805 517 
C 1664 338 1382 64 1082 64 
C 819 64 672 300 672 677 
C 672 1028 870 1743 992 2012 
C 1210 2459 1510 2689 1760 2689 
C 2182 2689 2266 2165 2266 2114 
C 2266 2108 2246 2024 2240 2012 
L 1926 760 
z
M 2336 2395 
C 2266 2561 2093 2816 1760 2816 
C 1037 2816 256 1884 256 939 
C 256 307 627 -64 1062 -64 
C 1414 -64 1715 211 1894 422 
C 1958 45 2259 -64 2451 -64 
C 2643 -64 2797 51 2912 281 
C 3014 498 3104 888 3104 913 
C 3104 945 3078 971 3040 971 
C 2982 971 2976 939 2950 843 
C 2854 466 2733 64 2470 64 
C 2285 64 2272 230 2272 358 
C 2272 505 2291 575 2349 824 
C 2394 984 2426 1124 2477 1309 
C 2714 2267 2771 2497 2771 2535 
C 2771 2625 2701 2695 2605 2695 
C 2400 2695 2349 2472 2336 2395 
z
" transform="scale(0.015625)"/>
      </defs>
      <use xlink:href="#CMMI12-7e" transform="scale(0.996264)"/>
      <use xlink:href="#CMMI12-61" transform="translate(6.445738 0)scale(0.996264)"/>
     </g>
    </g>
    <g id="line2d_26">
     <path d="M 359.840076 27.24679 
L 369.840076 27.24679 
L 379.840076 27.24679 
" style="fill: none; stroke: #00ff00; stroke-width: 1.5; stroke-linecap: square"/>
    </g>
    <g id="text_22">
     <!-- $\vec{b}$ -->
     <g transform="translate(387.840076 30.74679)scale(0.1 -0.1)">
      <defs>
       <path id="CMMI12-62" d="M 1478 4257 
C 1485 4283 1498 4321 1498 4352 
C 1498 4416 1434 4416 1421 4416 
C 1414 4416 1184 4393 1069 4377 
C 960 4377 864 4358 749 4358 
C 595 4345 550 4339 550 4224 
C 550 4160 614 4160 678 4160 
C 1005 4160 1005 4103 1005 4040 
C 1005 3996 954 3811 928 3696 
L 774 3085 
C 710 2831 346 1387 320 1272 
C 288 1114 288 1005 288 922 
C 288 274 653 -64 1069 -64 
C 1811 -64 2579 888 2579 1814 
C 2579 2401 2246 2816 1766 2816 
C 1434 2816 1133 2542 1011 2414 
L 1478 4257 
z
M 1075 64 
C 870 64 646 217 646 715 
C 646 926 666 1047 781 1494 
C 800 1577 902 1986 928 2069 
C 941 2120 1318 2689 1754 2689 
C 2035 2689 2163 2408 2163 2076 
C 2163 1769 1984 1047 1824 715 
C 1664 370 1370 64 1075 64 
z
" transform="scale(0.015625)"/>
      </defs>
      <use xlink:href="#CMMI12-7e" transform="translate(0 26.29016)scale(0.996264)"/>
      <use xlink:href="#CMMI12-62" transform="translate(11.311737 0)scale(0.996264)"/>
     </g>
    </g>
    <g id="line2d_27">
     <path d="M 359.840076 41.183968 
L 369.840076 41.183968 
L 379.840076 41.183968 
" style="fill: none; stroke: #0016ff; stroke-width: 1.5; stroke-linecap: square"/>
    </g>
    <g id="text_23">
     <!-- $\vec{c}$ -->
     <g transform="translate(387.840076 44.683968)scale(0.1 -0.1)">
      <defs>
       <path id="CMMI12-63" d="M 2502 2431 
C 2381 2431 2323 2431 2234 2355 
C 2195 2323 2125 2227 2125 2125 
C 2125 1997 2221 1920 2342 1920 
C 2496 1920 2669 2044 2669 2292 
C 2669 2588 2374 2816 1933 2816 
C 1094 2816 256 1903 256 996 
C 256 441 602 -64 1254 -64 
C 2125 -64 2675 622 2675 706 
C 2675 744 2637 776 2611 776 
C 2592 776 2586 770 2528 713 
C 2118 162 1510 64 1267 64 
C 826 64 685 446 685 764 
C 685 988 794 1605 1024 2039 
C 1190 2338 1536 2682 1939 2682 
C 2022 2682 2374 2682 2502 2431 
z
" transform="scale(0.015625)"/>
      </defs>
      <use xlink:href="#CMMI12-7e" transform="scale(0.996264)"/>
      <use xlink:href="#CMMI12-63" transform="translate(5.638615 0)scale(0.996264)"/>
     </g>
    </g>
    <g id="line2d_28">
     <path d="M 359.840076 57.867937 
L 369.840076 57.867937 
L 379.840076 57.867937 
" style="fill: none; stroke: #f400ff; stroke-width: 1.5; stroke-linecap: square"/>
    </g>
    <g id="text_24">
     <!-- $\vec{f}$ -->
     <g transform="translate(387.840076 61.367937)scale(0.1 -0.1)">
      <defs>
       <path id="CMMI12-66" d="M 2854 2566 
C 2982 2566 3034 2566 3034 2688 
C 3034 2752 2982 2752 2867 2752 
L 2349 2752 
C 2470 3429 2560 3897 2611 4107 
C 2650 4265 2784 4416 2950 4416 
C 3085 4416 3219 4358 3283 4298 
C 3034 4272 2957 4082 2957 3969 
C 2957 3837 3053 3759 3174 3759 
C 3302 3759 3494 3870 3494 4119 
C 3494 4393 3226 4544 2944 4544 
C 2669 4544 2400 4334 2272 4078 
C 2157 3848 2093 3611 1946 2752 
L 1517 2752 
C 1395 2752 1331 2752 1331 2637 
C 1331 2566 1370 2566 1498 2566 
L 1907 2566 
C 1792 1976 1530 542 1382 -137 
C 1274 -689 1178 -1152 858 -1152 
C 838 -1152 653 -1152 538 -1031 
C 864 -1005 864 -726 864 -720 
C 864 -593 768 -517 646 -517 
C 518 -517 326 -625 326 -867 
C 326 -1140 608 -1280 858 -1280 
C 1510 -1280 1779 -118 1850 199 
C 1965 688 2278 2376 2310 2566 
L 2854 2566 
z
" transform="scale(0.015625)"/>
      </defs>
      <use xlink:href="#CMMI12-7e" transform="translate(13.568792 26.29016)scale(0.996264)"/>
      <use xlink:href="#CMMI12-66" transform="scale(0.996264)"/>
     </g>
    </g>
   </g>
  </g>
 </g>
 <defs>
  <clipPath id="pd1e49a41d2">
   <rect x="57.6" y="0" width="345.6" height="345.6"/>
  </clipPath>
 </defs>
</svg>
