<?xml version="1.0" encoding="utf-8" standalone="no"?>
<!DOCTYPE svg PUBLIC "-//W3C//DTD SVG 1.1//EN"
  "http://www.w3.org/Graphics/SVG/1.1/DTD/svg11.dtd">
<svg xmlns:xlink="http://www.w3.org/1999/xlink" width="460.8pt" height="345.6pt" viewBox="0 0 460.8 345.6" xmlns="http://www.w3.org/2000/svg" version="1.1">
 <metadata>
  <rdf:RDF xmlns:dc="http://purl.org/dc/elements/1.1/" xmlns:cc="http://creativecommons.org/ns#" xmlns:rdf="http://www.w3.org/1999/02/22-rdf-syntax-ns#">
   <cc:Work>
    <dc:type rdf:resource="http://purl.org/dc/dcmitype/StillImage"/>
    <dc:date>2022-07-12T15:51:02.245440</dc:date>
    <dc:format>image/svg+xml</dc:format>
    <dc:creator>
     <cc:Agent>
      <dc:title>Matplotlib v3.5.1, https://matplotlib.org/</dc:title>
     </cc:Agent>
    </dc:creator>
   </cc:Work>
  </rdf:RDF>
 </metadata>
 <defs>
  <style type="text/css">*{stroke-linejoin: round; stroke-linecap: butt}</style>
 </defs>
 <g id="figure_1">
  <g id="patch_1">
   <path d="M 0 345.6 
L 460.8 345.6 
L 460.8 0 
L 0 0 
z
" style="fill: #ffffff"/>
  </g>
  <g id="patch_2">
   <path d="M 57.6 345.6 
L 403.2 345.6 
L 403.2 0 
L 57.6 0 
z
" style="fill: #ffffff"/>
  </g>
  <g id="pane3d_1">
   <g id="patch_3">
    <path d="M 315.070226 246.027899 
L 108.965704 247.871464 
L 108.965704 88.387995 
L 315.070226 90.231561 
" style="fill: #f2f2f2; opacity: 0.5; stroke: #f2f2f2; stroke-linejoin: miter"/>
   </g>
  </g>
  <g id="pane3d_2">
   <g id="patch_4">
    <path d="M 373.293576 255.534702 
L 315.070226 246.027899 
L 315.070226 90.231561 
L 373.293576 80.724758 
" style="fill: #e6e6e6; opacity: 0.5; stroke: #e6e6e6; stroke-linejoin: miter"/>
   </g>
  </g>
  <g id="pane3d_3">
   <g id="patch_5">
    <path d="M 373.293576 255.534702 
L 315.070226 246.027899 
L 108.965704 247.871464 
L 142.916471 257.862431 
" style="fill: #ececec; opacity: 0.5; stroke: #ececec; stroke-linejoin: miter"/>
   </g>
  </g>
  <g id="axis3d_1">
   <g id="line2d_1">
    <path d="M 108.965704 247.871464 
L 142.916471 257.862431 
" style="fill: none; stroke: #000000; stroke-width: 0.8; stroke-linecap: square"/>
   </g>
   <g id="text_1">
    <!-- x -->
    <g transform="translate(90.287264 280.390702)scale(0.16 -0.16)">
     <defs>
      <path id="CMSS17-78" d="M 1587 1414 
L 2656 2739 
L 2099 2739 
L 1363 1777 
L 602 2739 
L 32 2739 
L 1139 1414 
L 0 0 
L 563 0 
L 1363 1121 
L 2195 0 
L 2758 0 
L 1587 1414 
z
" transform="scale(0.015625)"/>
     </defs>
     <use xlink:href="#CMSS17-78" transform="scale(0.996264)"/>
    </g>
   </g>
   <g id="Line3DCollection_1">
    <path d="M 142.154291 257.638138 
L 371.990177 255.321881 
L 371.990177 80.937579 
" style="fill: none; stroke: #b0b0b0; stroke-width: 0.8"/>
    <path d="M 135.026682 255.540639 
L 359.79312 253.330326 
L 359.79312 82.929134 
" style="fill: none; stroke: #b0b0b0; stroke-width: 0.8"/>
    <path d="M 128.225474 253.539193 
L 348.140807 251.427717 
L 348.140807 84.831743 
" style="fill: none; stroke: #b0b0b0; stroke-width: 0.8"/>
    <path d="M 121.728749 251.627349 
L 336.997539 249.608226 
L 336.997539 86.651233 
" style="fill: none; stroke: #b0b0b0; stroke-width: 0.8"/>
    <path d="M 115.516507 249.799222 
L 326.330674 247.866523 
L 326.330674 88.392937 
" style="fill: none; stroke: #b0b0b0; stroke-width: 0.8"/>
    <path d="M 109.570463 248.049432 
L 316.1103 246.197724 
L 316.1103 90.061736 
" style="fill: none; stroke: #b0b0b0; stroke-width: 0.8"/>
   </g>
   <g id="xtick_1">
    <g id="line2d_2">
     <path d="M 144.041422 257.61912 
L 138.377622 257.676199 
" style="fill: none; stroke: #000000; stroke-width: 0.8; stroke-linecap: square"/>
    </g>
    <g id="text_2">
     <!-- $\mathdefault{0}$ -->
     <g transform="translate(124.563958 276.165439)scale(0.1 -0.1)">
      <defs>
       <path id="CMR17-30" d="M 2688 2025 
C 2688 2416 2682 3080 2413 3591 
C 2176 4039 1798 4198 1466 4198 
C 1158 4198 768 4058 525 3597 
C 269 3118 243 2524 243 2025 
C 243 1661 250 1106 448 619 
C 723 -39 1216 -128 1466 -128 
C 1760 -128 2208 -7 2470 600 
C 2662 1042 2688 1559 2688 2025 
z
M 1466 -26 
C 1056 -26 813 325 723 812 
C 653 1188 653 1738 653 2096 
C 653 2588 653 2997 736 3387 
C 858 3929 1216 4096 1466 4096 
C 1728 4096 2067 3923 2189 3400 
C 2272 3036 2278 2607 2278 2096 
C 2278 1680 2278 1169 2202 792 
C 2067 95 1690 -26 1466 -26 
z
" transform="scale(0.015625)"/>
      </defs>
      <use xlink:href="#CMR17-30" transform="scale(0.996264)"/>
     </g>
    </g>
   </g>
   <g id="xtick_2">
    <g id="line2d_3">
     <path d="M 136.871078 255.522502 
L 131.335591 255.576937 
" style="fill: none; stroke: #000000; stroke-width: 0.8; stroke-linecap: square"/>
    </g>
    <g id="text_3">
     <!-- $\mathdefault{1}$ -->
     <g transform="translate(117.778941 273.791971)scale(0.1 -0.1)">
      <defs>
       <path id="CMR17-31" d="M 1702 4058 
C 1702 4192 1696 4192 1606 4192 
C 1357 3916 979 3827 621 3827 
C 602 3827 570 3827 563 3808 
C 557 3795 557 3782 557 3648 
C 755 3648 1088 3686 1344 3839 
L 1344 461 
C 1344 236 1331 160 781 160 
L 589 160 
L 589 0 
C 896 0 1216 0 1523 0 
C 1830 0 2150 0 2458 0 
L 2458 160 
L 2266 160 
C 1715 160 1702 230 1702 458 
L 1702 4058 
z
" transform="scale(0.015625)"/>
      </defs>
      <use xlink:href="#CMR17-31" transform="scale(0.996264)"/>
     </g>
    </g>
   </g>
   <g id="xtick_3">
    <g id="line2d_4">
     <path d="M 130.029027 253.521876 
L 124.616173 253.573847 
" style="fill: none; stroke: #000000; stroke-width: 0.8; stroke-linecap: square"/>
    </g>
    <g id="text_4">
     <!-- $\mathdefault{2}$ -->
     <g transform="translate(111.305142 271.527369)scale(0.1 -0.1)">
      <defs>
       <path id="CMR17-32" d="M 2669 989 
L 2554 989 
C 2490 536 2438 459 2413 420 
C 2381 369 1920 369 1830 369 
L 602 369 
C 832 619 1280 1072 1824 1597 
C 2214 1967 2669 2402 2669 3035 
C 2669 3790 2067 4224 1395 4224 
C 691 4224 262 3604 262 3030 
C 262 2780 448 2748 525 2748 
C 589 2748 781 2787 781 3010 
C 781 3207 614 3264 525 3264 
C 486 3264 448 3258 422 3245 
C 544 3790 915 4058 1306 4058 
C 1862 4058 2227 3617 2227 3035 
C 2227 2479 1901 2000 1536 1584 
L 262 146 
L 262 0 
L 2515 0 
L 2669 989 
z
" transform="scale(0.015625)"/>
      </defs>
      <use xlink:href="#CMR17-32" transform="scale(0.996264)"/>
     </g>
    </g>
   </g>
   <g id="xtick_4">
    <g id="line2d_5">
     <path d="M 123.493226 251.610799 
L 118.197695 251.660468 
" style="fill: none; stroke: #000000; stroke-width: 0.8; stroke-linecap: square"/>
    </g>
    <g id="text_5">
     <!-- $\mathdefault{3}$ -->
     <g transform="translate(105.121627 269.364312)scale(0.1 -0.1)">
      <defs>
       <path id="CMR17-33" d="M 1414 2157 
C 1984 2157 2234 1662 2234 1090 
C 2234 320 1824 25 1453 25 
C 1114 25 563 194 390 693 
C 422 680 454 680 486 680 
C 640 680 755 782 755 948 
C 755 1133 614 1216 486 1216 
C 378 1216 211 1165 211 926 
C 211 335 787 -128 1466 -128 
C 2176 -128 2720 430 2720 1085 
C 2720 1707 2208 2157 1600 2227 
C 2086 2328 2554 2756 2554 3329 
C 2554 3820 2048 4179 1472 4179 
C 890 4179 378 3829 378 3329 
C 378 3110 544 3072 627 3072 
C 762 3072 877 3155 877 3321 
C 877 3486 762 3569 627 3569 
C 602 3569 570 3569 544 3557 
C 730 3959 1235 4032 1459 4032 
C 1683 4032 2106 3925 2106 3320 
C 2106 3143 2080 2828 1862 2550 
C 1670 2304 1453 2304 1242 2284 
C 1210 2284 1062 2269 1037 2269 
C 992 2263 966 2257 966 2208 
C 966 2163 973 2157 1101 2157 
L 1414 2157 
z
" transform="scale(0.015625)"/>
      </defs>
      <use xlink:href="#CMR17-33" transform="scale(0.996264)"/>
     </g>
    </g>
   </g>
   <g id="xtick_5">
    <g id="line2d_6">
     <path d="M 117.243564 249.783389 
L 112.060383 249.830907 
" style="fill: none; stroke: #000000; stroke-width: 0.8; stroke-linecap: square"/>
    </g>
    <g id="text_6">
     <!-- $\mathdefault{4}$ -->
     <g transform="translate(99.2093 267.296119)scale(0.1 -0.1)">
      <defs>
       <path id="CMR17-34" d="M 2150 4122 
C 2150 4256 2144 4256 2029 4256 
L 128 1254 
L 128 1088 
L 1779 1088 
L 1779 457 
C 1779 224 1766 160 1318 160 
L 1197 160 
L 1197 0 
C 1402 0 1747 0 1965 0 
C 2182 0 2528 0 2733 0 
L 2733 160 
L 2611 160 
C 2163 160 2150 224 2150 457 
L 2150 1088 
L 2803 1088 
L 2803 1254 
L 2150 1254 
L 2150 4122 
z
M 1798 3703 
L 1798 1254 
L 256 1254 
L 1798 3703 
z
" transform="scale(0.015625)"/>
      </defs>
      <use xlink:href="#CMR17-34" transform="scale(0.996264)"/>
     </g>
    </g>
   </g>
   <g id="xtick_6">
    <g id="line2d_7">
     <path d="M 111.261653 248.034269 
L 106.186158 248.079773 
" style="fill: none; stroke: #000000; stroke-width: 0.8; stroke-linecap: square"/>
    </g>
    <g id="text_7">
     <!-- $\mathdefault{5}$ -->
     <g transform="translate(93.550704 265.316684)scale(0.1 -0.1)">
      <defs>
       <path id="CMR17-35" d="M 730 3692 
C 794 3666 1056 3584 1325 3584 
C 1920 3584 2246 3911 2432 4100 
C 2432 4157 2432 4192 2394 4192 
C 2387 4192 2374 4192 2323 4163 
C 2099 4058 1837 3973 1517 3973 
C 1325 3973 1037 3999 723 4139 
C 653 4171 640 4171 634 4171 
C 602 4171 595 4164 595 4037 
L 595 2203 
C 595 2089 595 2057 659 2057 
C 691 2057 704 2070 736 2114 
C 941 2401 1222 2522 1542 2522 
C 1766 2522 2246 2382 2246 1289 
C 2246 1085 2246 715 2054 421 
C 1894 159 1645 25 1370 25 
C 947 25 518 320 403 814 
C 429 807 480 795 506 795 
C 589 795 749 840 749 1038 
C 749 1210 627 1280 506 1280 
C 358 1280 262 1190 262 1011 
C 262 454 704 -128 1382 -128 
C 2042 -128 2669 440 2669 1264 
C 2669 2030 2170 2624 1549 2624 
C 1222 2624 947 2503 730 2274 
L 730 3692 
z
" transform="scale(0.015625)"/>
      </defs>
      <use xlink:href="#CMR17-35" transform="scale(0.996264)"/>
     </g>
    </g>
   </g>
  </g>
  <g id="axis3d_2">
   <g id="line2d_8">
    <path d="M 373.293576 255.534702 
L 142.916471 257.862431 
" style="fill: none; stroke: #000000; stroke-width: 0.8; stroke-linecap: square"/>
   </g>
   <g id="text_8">
    <!-- y -->
    <g transform="translate(263.415879 287.243635)scale(0.16 -0.16)">
     <defs>
      <path id="CMSS17-79" d="M 2675 2752 
L 2176 2752 
C 1632 1294 1446 702 1434 383 
L 1427 383 
C 1408 696 1126 1460 902 2007 
L 602 2752 
L 83 2752 
L 1216 13 
C 1146 -178 1043 -465 1011 -529 
C 870 -885 774 -885 672 -885 
C 646 -885 442 -885 211 -809 
L 250 -1229 
C 410 -1261 570 -1280 685 -1280 
C 845 -1280 1165 -1280 1459 -497 
L 2675 2752 
z
" transform="scale(0.015625)"/>
     </defs>
     <use xlink:href="#CMSS17-79" transform="scale(0.996264)"/>
    </g>
   </g>
   <g id="Line3DCollection_2">
    <path d="M 291.652035 90.02209 
L 291.652035 246.23737 
L 347.184499 255.798508 
" style="fill: none; stroke: #b0b0b0; stroke-width: 0.8"/>
    <path d="M 252.612904 89.672892 
L 252.612904 246.586567 
L 303.621418 256.238669 
" style="fill: none; stroke: #b0b0b0; stroke-width: 0.8"/>
    <path d="M 213.223139 89.320558 
L 213.223139 246.938901 
L 259.618693 256.683273 
" style="fill: none; stroke: #b0b0b0; stroke-width: 0.8"/>
    <path d="M 173.477996 88.965045 
L 173.477996 247.294414 
L 215.169634 257.132386 
" style="fill: none; stroke: #b0b0b0; stroke-width: 0.8"/>
    <path d="M 133.372642 88.606311 
L 133.372642 247.653149 
L 170.267416 257.586078 
" style="fill: none; stroke: #b0b0b0; stroke-width: 0.8"/>
   </g>
   <g id="xtick_7">
    <g id="line2d_9">
     <path d="M 346.686346 255.71274 
L 348.183739 255.970549 
" style="fill: none; stroke: #000000; stroke-width: 0.8; stroke-linecap: square"/>
    </g>
    <g id="text_9">
     <!-- $\mathdefault{−4}$ -->
     <g transform="translate(344.833055 274.698455)scale(0.1 -0.1)">
      <defs>
       <path id="CMSY10-0" d="M 4218 1472 
C 4326 1472 4442 1472 4442 1600 
C 4442 1728 4326 1728 4218 1728 
L 755 1728 
C 646 1728 531 1728 531 1600 
C 531 1472 646 1472 755 1472 
L 4218 1472 
z
" transform="scale(0.015625)"/>
      </defs>
      <use xlink:href="#CMSY10-0" transform="scale(0.996264)"/>
      <use xlink:href="#CMR17-34" transform="translate(77.487468 0)scale(0.996264)"/>
     </g>
    </g>
   </g>
   <g id="xtick_8">
    <g id="line2d_10">
     <path d="M 303.163598 256.152038 
L 304.539767 256.412444 
" style="fill: none; stroke: #000000; stroke-width: 0.8; stroke-linecap: square"/>
    </g>
    <g id="text_10">
     <!-- $\mathdefault{−2}$ -->
     <g transform="translate(300.945171 275.202735)scale(0.1 -0.1)">
      <use xlink:href="#CMSY10-0" transform="scale(0.996264)"/>
      <use xlink:href="#CMR17-32" transform="translate(77.487468 0)scale(0.996264)"/>
     </g>
    </g>
   </g>
   <g id="xtick_9">
    <g id="line2d_11">
     <path d="M 259.202048 256.595765 
L 260.45446 256.858807 
" style="fill: none; stroke: #000000; stroke-width: 0.8; stroke-linecap: square"/>
    </g>
    <g id="text_11">
     <!-- $\mathdefault{0}$ -->
     <g transform="translate(260.48521 275.712146)scale(0.1 -0.1)">
      <use xlink:href="#CMR17-30" transform="scale(0.996264)"/>
     </g>
    </g>
   </g>
   <g id="xtick_10">
    <g id="line2d_12">
     <path d="M 214.795024 257.043989 
L 215.921092 257.309707 
" style="fill: none; stroke: #000000; stroke-width: 0.8; stroke-linecap: square"/>
    </g>
    <g id="text_12">
     <!-- $\mathdefault{2}$ -->
     <g transform="translate(215.697581 276.226764)scale(0.1 -0.1)">
      <use xlink:href="#CMR17-32" transform="scale(0.996264)"/>
     </g>
    </g>
   </g>
   <g id="xtick_11">
    <g id="line2d_13">
     <path d="M 169.935722 257.496778 
L 170.932796 257.765213 
" style="fill: none; stroke: #000000; stroke-width: 0.8; stroke-linecap: square"/>
    </g>
    <g id="text_13">
     <!-- $\mathdefault{4}$ -->
     <g transform="translate(170.449668 276.746672)scale(0.1 -0.1)">
      <use xlink:href="#CMR17-34" transform="scale(0.996264)"/>
     </g>
    </g>
   </g>
  </g>
  <g id="axis3d_3">
   <g id="line2d_14">
    <path d="M 373.293576 255.534702 
L 373.293576 80.724758 
" style="fill: none; stroke: #000000; stroke-width: 0.8; stroke-linecap: square"/>
   </g>
   <g id="text_14">
    <!-- z -->
    <g transform="translate(410.692801 172.114786)scale(0.16 -0.16)">
     <defs>
      <path id="CMSS17-7a" d="M 2400 2502 
L 2400 2750 
L 250 2750 
L 250 2368 
L 1069 2368 
C 1146 2368 1222 2368 1299 2368 
L 1747 2368 
L 166 261 
L 166 0 
L 2419 0 
L 2419 395 
L 1549 395 
C 1472 395 1395 395 1318 395 
L 826 395 
L 2400 2502 
z
" transform="scale(0.015625)"/>
     </defs>
     <use xlink:href="#CMSS17-7a" transform="scale(0.996264)"/>
    </g>
   </g>
   <g id="Line3DCollection_3">
    <path d="M 373.293576 252.038503 
L 315.070226 242.911972 
L 108.965704 244.681795 
" style="fill: none; stroke: #b0b0b0; stroke-width: 0.8"/>
    <path d="M 373.293576 218.474994 
L 315.070226 212.999075 
L 108.965704 214.060969 
" style="fill: none; stroke: #b0b0b0; stroke-width: 0.8"/>
    <path d="M 373.293576 184.911484 
L 315.070226 183.086178 
L 108.965704 183.440143 
" style="fill: none; stroke: #b0b0b0; stroke-width: 0.8"/>
    <path d="M 373.293576 151.347975 
L 315.070226 153.173281 
L 108.965704 152.819317 
" style="fill: none; stroke: #b0b0b0; stroke-width: 0.8"/>
    <path d="M 373.293576 117.784466 
L 315.070226 123.260384 
L 108.965704 122.198491 
" style="fill: none; stroke: #b0b0b0; stroke-width: 0.8"/>
    <path d="M 373.293576 84.220956 
L 315.070226 93.347488 
L 108.965704 91.577665 
" style="fill: none; stroke: #b0b0b0; stroke-width: 0.8"/>
   </g>
   <g id="xtick_12">
    <g id="line2d_15">
     <path d="M 372.771454 251.95666 
L 374.340885 252.202669 
" style="fill: none; stroke: #000000; stroke-width: 0.8; stroke-linecap: square"/>
    </g>
    <g id="text_15">
     <!-- $\mathdefault{0}$ -->
     <g transform="translate(389.427787 259.475364)scale(0.1 -0.1)">
      <use xlink:href="#CMR17-30" transform="scale(0.996264)"/>
     </g>
    </g>
   </g>
   <g id="xtick_13">
    <g id="line2d_16">
     <path d="M 372.771454 218.425888 
L 374.340885 218.573493 
" style="fill: none; stroke: #000000; stroke-width: 0.8; stroke-linecap: square"/>
    </g>
    <g id="text_16">
     <!-- $\mathdefault{1}$ -->
     <g transform="translate(389.427787 225.70451)scale(0.1 -0.1)">
      <use xlink:href="#CMR17-31" transform="scale(0.996264)"/>
     </g>
    </g>
   </g>
   <g id="xtick_14">
    <g id="line2d_17">
     <path d="M 372.771454 184.895116 
L 374.340885 184.944318 
" style="fill: none; stroke: #000000; stroke-width: 0.8; stroke-linecap: square"/>
    </g>
    <g id="text_17">
     <!-- $\mathdefault{2}$ -->
     <g transform="translate(389.427787 191.933655)scale(0.1 -0.1)">
      <use xlink:href="#CMR17-32" transform="scale(0.996264)"/>
     </g>
    </g>
   </g>
   <g id="xtick_15">
    <g id="line2d_18">
     <path d="M 372.771454 151.364344 
L 374.340885 151.315142 
" style="fill: none; stroke: #000000; stroke-width: 0.8; stroke-linecap: square"/>
    </g>
    <g id="text_18">
     <!-- $\mathdefault{3}$ -->
     <g transform="translate(389.427787 158.162801)scale(0.1 -0.1)">
      <use xlink:href="#CMR17-33" transform="scale(0.996264)"/>
     </g>
    </g>
   </g>
   <g id="xtick_16">
    <g id="line2d_19">
     <path d="M 372.771454 117.833571 
L 374.340885 117.685966 
" style="fill: none; stroke: #000000; stroke-width: 0.8; stroke-linecap: square"/>
    </g>
    <g id="text_19">
     <!-- $\mathdefault{4}$ -->
     <g transform="translate(389.427787 124.391946)scale(0.1 -0.1)">
      <use xlink:href="#CMR17-34" transform="scale(0.996264)"/>
     </g>
    </g>
   </g>
   <g id="xtick_17">
    <g id="line2d_20">
     <path d="M 372.771454 84.302799 
L 374.340885 84.05679 
" style="fill: none; stroke: #000000; stroke-width: 0.8; stroke-linecap: square"/>
    </g>
    <g id="text_20">
     <!-- $\mathdefault{5}$ -->
     <g transform="translate(389.427787 90.621092)scale(0.1 -0.1)">
      <use xlink:href="#CMR17-35" transform="scale(0.996264)"/>
     </g>
    </g>
   </g>
  </g>
  <g id="axes_1">
   <g id="line2d_21">
    <path d="M 258.578622 252.931425 
L 183.645942 84.674245 
" clip-path="url(#p560fd1e8a6)" style="fill: none; stroke: #ff0000; stroke-width: 1.5; stroke-linecap: square"/>
   </g>
   <g id="line2d_22">
    <path d="M 258.578622 252.931425 
L 281.574532 119.781954 
" clip-path="url(#p560fd1e8a6)" style="fill: none; stroke: #00ff00; stroke-width: 1.5; stroke-linecap: square"/>
   </g>
   <g id="line2d_23">
    <path d="M 258.578622 252.931425 
L 216.1824 -1 
" clip-path="url(#p560fd1e8a6)" style="fill: none; stroke: #0016ff; stroke-width: 1.5; stroke-linecap: square"/>
   </g>
   <g id="line2d_24">
    <path d="M 258.578622 252.931425 
L 273.127238 153.066686 
" clip-path="url(#p560fd1e8a6)" style="fill: none; stroke: #f400ff; stroke-width: 1.5; stroke-linecap: square"/>
   </g>
   <g id="Poly3DCollection_1">
    <path d="M 322.21222 22.62095 
L 317.089146 -17.514882 
L 307.288018 -29.102652 
L 312.311997 10.954793 
z
" clip-path="url(#p560fd1e8a6)" style="fill: #0000f5; fill-opacity: 0.1"/>
    <path d="M 312.311997 10.954793 
L 307.288018 -29.102652 
L 297.4648 -40.716541 
L 302.38922 -0.737941 
z
" clip-path="url(#p560fd1e8a6)" style="fill: #0000f5; fill-opacity: 0.1"/>
    <path d="M 302.38922 -0.737941 
L 297.4648 -40.716541 
L 287.619416 -52.356636 
L 292.443813 -12.457342 
z
" clip-path="url(#p560fd1e8a6)" style="fill: #0000f5; fill-opacity: 0.1"/>
    <path d="M 292.443813 -12.457342 
L 287.619416 -52.356636 
L 277.751791 -64.023025 
L 282.475698 -24.203501 
z
" clip-path="url(#p560fd1e8a6)" style="fill: #0000f5; fill-opacity: 0.1"/>
    <path d="M 282.475698 -24.203501 
L 277.751791 -64.023025 
L 267.86185 -75.7158 
L 272.484796 -35.976511 
z
" clip-path="url(#p560fd1e8a6)" style="fill: #0000f5; fill-opacity: 0.1"/>
    <path d="M 272.484796 -35.976511 
L 267.86185 -75.7158 
L 257.949516 -87.435048 
L 262.471031 -47.776464 
z
" clip-path="url(#p560fd1e8a6)" style="fill: #0000f5; fill-opacity: 0.1"/>
    <path d="M 262.471031 -47.776464 
L 257.949516 -87.435048 
L 248.014715 -99.18086 
L 252.434322 -59.603452 
z
" clip-path="url(#p560fd1e8a6)" style="fill: #0000f5; fill-opacity: 0.1"/>
    <path d="M 252.434322 -59.603452 
L 248.014715 -99.18086 
L 238.057368 -110.953327 
L 242.374592 -71.457568 
z
" clip-path="url(#p560fd1e8a6)" style="fill: #0000f5; fill-opacity: 0.1"/>
    <path d="M 242.374592 -71.457568 
L 238.057368 -110.953327 
L 228.0774 -122.752539 
L 232.291761 -83.338906 
z
" clip-path="url(#p560fd1e8a6)" style="fill: #0000f5; fill-opacity: 0.1"/>
    <path d="M 232.291761 -83.338906 
L 228.0774 -122.752539 
L 218.074733 -134.578587 
L 222.185748 -95.24756 
z
" clip-path="url(#p560fd1e8a6)" style="fill: #0000f5; fill-opacity: 0.1"/>
    <path d="M 327.446042 63.624419 
L 322.21222 22.62095 
L 312.311997 10.954793 
L 317.444706 51.879176 
z
" clip-path="url(#p560fd1e8a6)" style="fill: #0000f5; fill-opacity: 0.1"/>
    <path d="M 222.185748 -95.24756 
L 218.074733 -134.578587 
L 208.04929 -146.431564 
L 212.056476 -107.183623 
z
" clip-path="url(#p560fd1e8a6)" style="fill: #0000f5; fill-opacity: 0.1"/>
    <path d="M 317.444706 51.879176 
L 312.311997 10.954793 
L 302.38922 -0.737941 
L 307.420339 40.106888 
z
" clip-path="url(#p560fd1e8a6)" style="fill: #0000f5; fill-opacity: 0.1"/>
    <path d="M 212.056476 -107.183623 
L 208.04929 -146.431564 
L 198.000993 -158.311561 
L 201.903861 -119.147191 
z
" clip-path="url(#p560fd1e8a6)" style="fill: #0000f5; fill-opacity: 0.1"/>
    <path d="M 307.420339 40.106888 
L 302.38922 -0.737941 
L 292.443813 -12.457342 
L 297.372862 28.307459 
z
" clip-path="url(#p560fd1e8a6)" style="fill: #0000f5; fill-opacity: 0.1"/>
    <path d="M 201.903861 -119.147191 
L 198.000993 -158.311561 
L 187.929763 -170.218671 
L 191.727825 -131.138359 
z
" clip-path="url(#p560fd1e8a6)" style="fill: #0000f5; fill-opacity: 0.1"/>
    <path d="M 297.372862 28.307459 
L 292.443813 -12.457342 
L 282.475698 -24.203501 
L 287.302195 16.480796 
z
" clip-path="url(#p560fd1e8a6)" style="fill: #0000f5; fill-opacity: 0.1"/>
    <path d="M 191.727825 -131.138359 
L 187.929763 -170.218671 
L 177.835523 -182.152986 
L 181.528286 -143.157223 
z
" clip-path="url(#p560fd1e8a6)" style="fill: #0000f5; fill-opacity: 0.1"/>
    <path d="M 287.302195 16.480796 
L 282.475698 -24.203501 
L 272.484796 -35.976511 
L 277.208257 4.626804 
z
" clip-path="url(#p560fd1e8a6)" style="fill: #0000f5; fill-opacity: 0.1"/>
    <path d="M 181.528286 -143.157223 
L 177.835523 -182.152986 
L 167.718192 -194.1146 
L 171.305162 -155.203877 
z
" clip-path="url(#p560fd1e8a6)" style="fill: #0000f5; fill-opacity: 0.1"/>
    <path d="M 277.208257 4.626804 
L 272.484796 -35.976511 
L 262.471031 -47.776464 
L 267.090968 -7.25461 
z
" clip-path="url(#p560fd1e8a6)" style="fill: #0000f5; fill-opacity: 0.1"/>
    <path d="M 171.305162 -155.203877 
L 167.718192 -194.1146 
L 157.577692 -206.103607 
L 161.058372 -167.27842 
z
" clip-path="url(#p560fd1e8a6)" style="fill: #0000f5; fill-opacity: 0.1"/>
    <path d="M 267.090968 -7.25461 
L 262.471031 -47.776464 
L 252.434322 -59.603452 
L 256.950245 -19.163543 
z
" clip-path="url(#p560fd1e8a6)" style="fill: #0000f5; fill-opacity: 0.1"/>
    <path d="M 161.058372 -167.27842 
L 157.577692 -206.103607 
L 147.413943 -218.120101 
L 150.787833 -179.380948 
z
" clip-path="url(#p560fd1e8a6)" style="fill: #0000f5; fill-opacity: 0.1"/>
    <path d="M 256.950245 -19.163543 
L 252.434322 -59.603452 
L 242.374592 -71.457568 
L 246.786009 -31.100091 
z
" clip-path="url(#p560fd1e8a6)" style="fill: #0000f5; fill-opacity: 0.1"/>
    <path d="M 150.787833 -179.380948 
L 147.413943 -218.120101 
L 137.226865 -230.164177 
L 140.493462 -191.511558 
z
" clip-path="url(#p560fd1e8a6)" style="fill: #0000f5; fill-opacity: 0.1"/>
    <path d="M 246.786009 -31.100091 
L 242.374592 -71.457568 
L 232.291761 -83.338906 
L 236.598177 -43.064348 
z
" clip-path="url(#p560fd1e8a6)" style="fill: #0000f5; fill-opacity: 0.1"/>
    <path d="M 140.493462 -191.511558 
L 137.226865 -230.164177 
L 127.016378 -242.235929 
L 130.175177 -203.670348 
z
" clip-path="url(#p560fd1e8a6)" style="fill: #0000f5; fill-opacity: 0.1"/>
    <path d="M 236.598177 -43.064348 
L 232.291761 -83.338906 
L 222.185748 -95.24756 
L 226.386666 -55.056413 
z
" clip-path="url(#p560fd1e8a6)" style="fill: #0000f5; fill-opacity: 0.1"/>
    <path d="M 332.794243 105.523966 
L 327.446042 63.624419 
L 317.444706 51.879176 
L 322.689714 93.69895 
z
" clip-path="url(#p560fd1e8a6)" style="fill: #0000f5; fill-opacity: 0.1"/>
    <path d="M 226.386666 -55.056413 
L 222.185748 -95.24756 
L 212.056476 -107.183623 
L 216.151395 -67.076381 
z
" clip-path="url(#p560fd1e8a6)" style="fill: #0000f5; fill-opacity: 0.1"/>
    <path d="M 322.689714 93.69895 
L 317.444706 51.879176 
L 307.420339 40.106888 
L 312.561663 81.846405 
z
" clip-path="url(#p560fd1e8a6)" style="fill: #0000f5; fill-opacity: 0.1"/>
    <path d="M 216.151395 -67.076381 
L 212.056476 -107.183623 
L 201.903861 -119.147191 
L 205.89228 -79.124352 
z
" clip-path="url(#p560fd1e8a6)" style="fill: #0000f5; fill-opacity: 0.1"/>
    <path d="M 312.561663 81.846405 
L 307.420339 40.106888 
L 297.372862 28.307459 
L 302.410006 69.966236 
z
" clip-path="url(#p560fd1e8a6)" style="fill: #0000f5; fill-opacity: 0.1"/>
    <path d="M 205.89228 -79.124352 
L 201.903861 -119.147191 
L 191.727825 -131.138359 
L 195.609237 -91.200421 
z
" clip-path="url(#p560fd1e8a6)" style="fill: #0000f5; fill-opacity: 0.1"/>
    <path d="M 302.410006 69.966236 
L 297.372862 28.307459 
L 287.302195 16.480796 
L 292.234662 58.058345 
z
" clip-path="url(#p560fd1e8a6)" style="fill: #0000f5; fill-opacity: 0.1"/>
    <path d="M 195.609237 -91.200421 
L 191.727825 -131.138359 
L 181.528286 -143.157223 
L 185.302183 -103.304689 
z
" clip-path="url(#p560fd1e8a6)" style="fill: #0000f5; fill-opacity: 0.1"/>
    <path d="M 292.234662 58.058345 
L 287.302195 16.480796 
L 277.208257 4.626804 
L 282.035546 46.122636 
z
" clip-path="url(#p560fd1e8a6)" style="fill: #0000f5; fill-opacity: 0.1"/>
    <path d="M 185.302183 -103.304689 
L 181.528286 -143.157223 
L 171.305162 -155.203877 
L 174.971034 -115.437253 
z
" clip-path="url(#p560fd1e8a6)" style="fill: #0000f5; fill-opacity: 0.1"/>
    <path d="M 282.035546 46.122636 
L 277.208257 4.626804 
L 267.090968 -7.25461 
L 271.812576 34.159011 
z
" clip-path="url(#p560fd1e8a6)" style="fill: #0000f5; fill-opacity: 0.1"/>
    <path d="M 174.971034 -115.437253 
L 171.305162 -155.203877 
L 161.058372 -167.27842 
L 164.615705 -127.598214 
z
" clip-path="url(#p560fd1e8a6)" style="fill: #0000f5; fill-opacity: 0.1"/>
    <path d="M 271.812576 34.159011 
L 267.090968 -7.25461 
L 256.950245 -19.163543 
L 261.565667 22.167371 
z
" clip-path="url(#p560fd1e8a6)" style="fill: #0000f5; fill-opacity: 0.1"/>
    <path d="M 164.615705 -127.598214 
L 161.058372 -167.27842 
L 150.787833 -179.380948 
L 154.236111 -139.78767 
z
" clip-path="url(#p560fd1e8a6)" style="fill: #0000f5; fill-opacity: 0.1"/>
    <path d="M 261.565667 22.167371 
L 256.950245 -19.163543 
L 246.786009 -31.100091 
L 251.294736 10.147619 
z
" clip-path="url(#p560fd1e8a6)" style="fill: #0000f5; fill-opacity: 0.1"/>
    <path d="M 154.236111 -139.78767 
L 150.787833 -179.380948 
L 140.493462 -191.511558 
L 143.832166 -152.005723 
z
" clip-path="url(#p560fd1e8a6)" style="fill: #0000f5; fill-opacity: 0.1"/>
    <path d="M 251.294736 10.147619 
L 246.786009 -31.100091 
L 236.598177 -43.064348 
L 240.999698 -1.900345 
z
" clip-path="url(#p560fd1e8a6)" style="fill: #0000f5; fill-opacity: 0.1"/>
    <path d="M 143.832166 -152.005723 
L 140.493462 -191.511558 
L 130.175177 -203.670348 
L 133.403786 -164.252473 
z
" clip-path="url(#p560fd1e8a6)" style="fill: #0000f5; fill-opacity: 0.1"/>
    <path d="M 240.999698 -1.900345 
L 236.598177 -43.064348 
L 226.386666 -55.056413 
L 230.680469 -13.97662 
z
" clip-path="url(#p560fd1e8a6)" style="fill: #0000f5; fill-opacity: 0.1"/>
    <path d="M 338.260613 148.34929 
L 332.794243 105.523966 
L 322.689714 93.69895 
L 328.050748 136.443824 
z
" clip-path="url(#p560fd1e8a6)" style="fill: #0000f5; fill-opacity: 0.1"/>
    <path d="M 230.680469 -13.97662 
L 226.386666 -55.056413 
L 216.151395 -67.076381 
L 220.336962 -26.081306 
z
" clip-path="url(#p560fd1e8a6)" style="fill: #0000f5; fill-opacity: 0.1"/>
    <path d="M 328.050748 136.443824 
L 322.689714 93.69895 
L 312.561663 81.846405 
L 317.816853 124.510335 
z
" clip-path="url(#p560fd1e8a6)" style="fill: #0000f5; fill-opacity: 0.1"/>
    <path d="M 220.336962 -26.081306 
L 216.151395 -67.076381 
L 205.89228 -79.124352 
L 209.969091 -38.214503 
z
" clip-path="url(#p560fd1e8a6)" style="fill: #0000f5; fill-opacity: 0.1"/>
    <path d="M 317.816853 124.510335 
L 312.561663 81.846405 
L 302.410006 69.966236 
L 307.55884 112.548724 
z
" clip-path="url(#p560fd1e8a6)" style="fill: #0000f5; fill-opacity: 0.1"/>
    <path d="M 209.969091 -38.214503 
L 205.89228 -79.124352 
L 195.609237 -91.200421 
L 199.576772 -50.376312 
z
" clip-path="url(#p560fd1e8a6)" style="fill: #0000f5; fill-opacity: 0.1"/>
    <path d="M 307.55884 112.548724 
L 302.410006 69.966236 
L 292.234662 58.058345 
L 297.276626 100.558892 
z
" clip-path="url(#p560fd1e8a6)" style="fill: #0000f5; fill-opacity: 0.1"/>
    <path d="M 199.576772 -50.376312 
L 195.609237 -91.200421 
L 185.302183 -103.304689 
L 189.159917 -62.566835 
z
" clip-path="url(#p560fd1e8a6)" style="fill: #0000f5; fill-opacity: 0.1"/>
    <path d="M 297.276626 100.558892 
L 292.234662 58.058345 
L 282.035546 46.122636 
L 286.970124 88.540739 
z
" clip-path="url(#p560fd1e8a6)" style="fill: #0000f5; fill-opacity: 0.1"/>
    <path d="M 189.159917 -62.566835 
L 185.302183 -103.304689 
L 174.971034 -115.437253 
L 178.718438 -74.786174 
z
" clip-path="url(#p560fd1e8a6)" style="fill: #0000f5; fill-opacity: 0.1"/>
    <path d="M 286.970124 88.540739 
L 282.035546 46.122636 
L 271.812576 34.159011 
L 276.639248 76.494164 
z
" clip-path="url(#p560fd1e8a6)" style="fill: #0000f5; fill-opacity: 0.1"/>
    <path d="M 178.718438 -74.786174 
L 174.971034 -115.437253 
L 164.615705 -127.598214 
L 168.25225 -87.03443 
z
" clip-path="url(#p560fd1e8a6)" style="fill: #0000f5; fill-opacity: 0.1"/>
    <path d="M 276.639248 76.494164 
L 271.812576 34.159011 
L 261.565667 22.167371 
L 266.283912 64.419066 
z
" clip-path="url(#p560fd1e8a6)" style="fill: #0000f5; fill-opacity: 0.1"/>
    <path d="M 168.25225 -87.03443 
L 164.615705 -127.598214 
L 154.236111 -139.78767 
L 157.761263 -99.311706 
z
" clip-path="url(#p560fd1e8a6)" style="fill: #0000f5; fill-opacity: 0.1"/>
    <path d="M 266.283912 64.419066 
L 261.565667 22.167371 
L 251.294736 10.147619 
L 255.904029 52.315345 
z
" clip-path="url(#p560fd1e8a6)" style="fill: #0000f5; fill-opacity: 0.1"/>
    <path d="M 157.761263 -99.311706 
L 154.236111 -139.78767 
L 143.832166 -152.005723 
L 147.245391 -111.618107 
z
" clip-path="url(#p560fd1e8a6)" style="fill: #0000f5; fill-opacity: 0.1"/>
    <path d="M 255.904029 52.315345 
L 251.294736 10.147619 
L 240.999698 -1.900345 
L 245.499511 40.182897 
z
" clip-path="url(#p560fd1e8a6)" style="fill: #0000f5; fill-opacity: 0.1"/>
    <path d="M 147.245391 -111.618107 
L 143.832166 -152.005723 
L 133.403786 -164.252473 
L 136.704543 -123.953734 
z
" clip-path="url(#p560fd1e8a6)" style="fill: #0000f5; fill-opacity: 0.1"/>
    <path d="M 245.499511 40.182897 
L 240.999698 -1.900345 
L 230.680469 -13.97662 
L 235.07027 28.021621 
z
" clip-path="url(#p560fd1e8a6)" style="fill: #0000f5; fill-opacity: 0.1"/>
    <path d="M 343.849112 192.131417 
L 338.260613 148.34929 
L 328.050748 136.443824 
L 333.531701 180.144838 
z
" clip-path="url(#p560fd1e8a6)" style="fill: #0000f5; fill-opacity: 0.1"/>
    <path d="M 235.07027 28.021621 
L 230.680469 -13.97662 
L 220.336962 -26.081306 
L 224.616219 15.831414 
z
" clip-path="url(#p560fd1e8a6)" style="fill: #0000f5; fill-opacity: 0.1"/>
    <path d="M 333.531701 180.144838 
L 328.050748 136.443824 
L 317.816853 124.510335 
L 323.189733 168.12973 
z
" clip-path="url(#p560fd1e8a6)" style="fill: #0000f5; fill-opacity: 0.1"/>
    <path d="M 224.616219 15.831414 
L 220.336962 -26.081306 
L 209.969091 -38.214503 
L 214.137268 3.612173 
z
" clip-path="url(#p560fd1e8a6)" style="fill: #0000f5; fill-opacity: 0.1"/>
    <path d="M 323.189733 168.12973 
L 317.816853 124.510335 
L 307.55884 112.548724 
L 312.82312 156.08599 
z
" clip-path="url(#p560fd1e8a6)" style="fill: #0000f5; fill-opacity: 0.1"/>
    <path d="M 214.137268 3.612173 
L 209.969091 -38.214503 
L 199.576772 -50.376312 
L 203.633329 -8.636207 
z
" clip-path="url(#p560fd1e8a6)" style="fill: #0000f5; fill-opacity: 0.1"/>
    <path d="M 312.82312 156.08599 
L 307.55884 112.548724 
L 297.276626 100.558892 
L 302.431775 144.013516 
z
" clip-path="url(#p560fd1e8a6)" style="fill: #0000f5; fill-opacity: 0.1"/>
    <path d="M 203.633329 -8.636207 
L 199.576772 -50.376312 
L 189.159917 -62.566835 
L 193.104312 -20.91383 
z
" clip-path="url(#p560fd1e8a6)" style="fill: #0000f5; fill-opacity: 0.1"/>
    <path d="M 302.431775 144.013516 
L 297.276626 100.558892 
L 286.970124 88.540739 
L 292.015609 131.912205 
z
" clip-path="url(#p560fd1e8a6)" style="fill: #0000f5; fill-opacity: 0.1"/>
    <path d="M 193.104312 -20.91383 
L 189.159917 -62.566835 
L 178.718438 -74.786174 
L 182.550127 -33.2208 
z
" clip-path="url(#p560fd1e8a6)" style="fill: #0000f5; fill-opacity: 0.1"/>
    <path d="M 292.015609 131.912205 
L 286.970124 88.540739 
L 276.639248 76.494164 
L 281.574532 119.781954 
z
" clip-path="url(#p560fd1e8a6)" style="fill: #0000f5; fill-opacity: 0.1"/>
    <path d="M 182.550127 -33.2208 
L 178.718438 -74.786174 
L 168.25225 -87.03443 
L 171.970684 -45.557224 
z
" clip-path="url(#p560fd1e8a6)" style="fill: #0000f5; fill-opacity: 0.1"/>
    <path d="M 281.574532 119.781954 
L 276.639248 76.494164 
L 266.283912 64.419066 
L 271.108456 107.622659 
z
" clip-path="url(#p560fd1e8a6)" style="fill: #0000f5; fill-opacity: 0.1"/>
    <path d="M 171.970684 -45.557224 
L 168.25225 -87.03443 
L 157.761263 -99.311706 
L 161.365891 -57.923206 
z
" clip-path="url(#p560fd1e8a6)" style="fill: #0000f5; fill-opacity: 0.1"/>
    <path d="M 271.108456 107.622659 
L 266.283912 64.419066 
L 255.904029 52.315345 
L 260.61729 95.434215 
z
" clip-path="url(#p560fd1e8a6)" style="fill: #0000f5; fill-opacity: 0.1"/>
    <path d="M 161.365891 -57.923206 
L 157.761263 -99.311706 
L 147.245391 -111.618107 
L 150.735659 -70.318853 
z
" clip-path="url(#p560fd1e8a6)" style="fill: #0000f5; fill-opacity: 0.1"/>
    <path d="M 260.61729 95.434215 
L 255.904029 52.315345 
L 245.499511 40.182897 
L 250.100944 83.216517 
z
" clip-path="url(#p560fd1e8a6)" style="fill: #0000f5; fill-opacity: 0.1"/>
    <path d="M 150.735659 -70.318853 
L 147.245391 -111.618107 
L 136.704543 -123.953734 
L 140.079895 -82.744272 
z
" clip-path="url(#p560fd1e8a6)" style="fill: #0000f5; fill-opacity: 0.1"/>
    <path d="M 250.100944 83.216517 
L 245.499511 40.182897 
L 235.07027 28.021621 
L 239.559327 70.96946 
z
" clip-path="url(#p560fd1e8a6)" style="fill: #0000f5; fill-opacity: 0.1"/>
    <path d="M 349.56388 236.902774 
L 343.849112 192.131417 
L 333.531701 180.144838 
L 339.136641 224.834437 
z
" clip-path="url(#p560fd1e8a6)" style="fill: #0000f5; fill-opacity: 0.1"/>
    <path d="M 239.559327 70.96946 
L 235.07027 28.021621 
L 224.616219 15.831414 
L 228.992348 58.692938 
z
" clip-path="url(#p560fd1e8a6)" style="fill: #0000f5; fill-opacity: 0.1"/>
    <path d="M 339.136641 224.834437 
L 333.531701 180.144838 
L 323.189733 168.12973 
L 328.684302 212.73705 
z
" clip-path="url(#p560fd1e8a6)" style="fill: #0000f5; fill-opacity: 0.1"/>
    <path d="M 228.992348 58.692938 
L 224.616219 15.831414 
L 214.137268 3.612173 
L 218.399916 46.386845 
z
" clip-path="url(#p560fd1e8a6)" style="fill: #0000f5; fill-opacity: 0.1"/>
    <path d="M 328.684302 212.73705 
L 323.189733 168.12973 
L 312.82312 156.08599 
L 318.206774 200.610509 
z
" clip-path="url(#p560fd1e8a6)" style="fill: #0000f5; fill-opacity: 0.1"/>
    <path d="M 218.399916 46.386845 
L 214.137268 3.612173 
L 203.633329 -8.636207 
L 207.781938 34.051073 
z
" clip-path="url(#p560fd1e8a6)" style="fill: #0000f5; fill-opacity: 0.1"/>
    <path d="M 318.206774 200.610509 
L 312.82312 156.08599 
L 302.431775 144.013516 
L 307.703964 188.454708 
z
" clip-path="url(#p560fd1e8a6)" style="fill: #0000f5; fill-opacity: 0.1"/>
    <path d="M 207.781938 34.051073 
L 203.633329 -8.636207 
L 193.104312 -20.91383 
L 197.138322 21.685515 
z
" clip-path="url(#p560fd1e8a6)" style="fill: #0000f5; fill-opacity: 0.1"/>
    <path d="M 307.703964 188.454708 
L 302.431775 144.013516 
L 292.015609 131.912205 
L 297.175782 176.269541 
z
" clip-path="url(#p560fd1e8a6)" style="fill: #0000f5; fill-opacity: 0.1"/>
    <path d="M 197.138322 21.685515 
L 193.104312 -20.91383 
L 182.550127 -33.2208 
L 186.468975 9.290064 
z
" clip-path="url(#p560fd1e8a6)" style="fill: #0000f5; fill-opacity: 0.1"/>
    <path d="M 297.175782 176.269541 
L 292.015609 131.912205 
L 281.574532 119.781954 
L 286.622135 164.054902 
z
" clip-path="url(#p560fd1e8a6)" style="fill: #0000f5; fill-opacity: 0.1"/>
    <path d="M 186.468975 9.290064 
L 182.550127 -33.2208 
L 171.970684 -45.557224 
L 175.773803 -3.13539 
z
" clip-path="url(#p560fd1e8a6)" style="fill: #0000f5; fill-opacity: 0.1"/>
    <path d="M 286.622135 164.054902 
L 281.574532 119.781954 
L 271.108456 107.622659 
L 276.042931 151.810683 
z
" clip-path="url(#p560fd1e8a6)" style="fill: #0000f5; fill-opacity: 0.1"/>
    <path d="M 175.773803 -3.13539 
L 171.970684 -45.557224 
L 161.365891 -57.923206 
L 165.052713 -15.590956 
z
" clip-path="url(#p560fd1e8a6)" style="fill: #0000f5; fill-opacity: 0.1"/>
    <path d="M 276.042931 151.810683 
L 271.108456 107.622659 
L 260.61729 95.434215 
L 265.438077 139.536777 
z
" clip-path="url(#p560fd1e8a6)" style="fill: #0000f5; fill-opacity: 0.1"/>
    <path d="M 165.052713 -15.590956 
L 161.365891 -57.923206 
L 150.735659 -70.318853 
L 154.30561 -28.076743 
z
" clip-path="url(#p560fd1e8a6)" style="fill: #0000f5; fill-opacity: 0.1"/>
    <path d="M 265.438077 139.536777 
L 260.61729 95.434215 
L 250.100944 83.216517 
L 254.807479 127.233076 
z
" clip-path="url(#p560fd1e8a6)" style="fill: #0000f5; fill-opacity: 0.1"/>
    <path d="M 154.30561 -28.076743 
L 150.735659 -70.318853 
L 140.079895 -82.744272 
L 143.532399 -40.592861 
z
" clip-path="url(#p560fd1e8a6)" style="fill: #0000f5; fill-opacity: 0.1"/>
    <path d="M 254.807479 127.233076 
L 250.100944 83.216517 
L 239.559327 70.96946 
L 244.151044 114.899471 
z
" clip-path="url(#p560fd1e8a6)" style="fill: #0000f5; fill-opacity: 0.1"/>
    <path d="M 355.409245 282.697271 
L 349.56388 236.902774 
L 339.136641 224.834437 
L 344.869824 270.546548 
z
" clip-path="url(#p560fd1e8a6)" style="fill: #0000f5; fill-opacity: 0.1"/>
    <path d="M 244.151044 114.899471 
L 239.559327 70.96946 
L 228.992348 58.692938 
L 233.468677 102.535853 
z
" clip-path="url(#p560fd1e8a6)" style="fill: #0000f5; fill-opacity: 0.1"/>
    <path d="M 344.869824 270.546548 
L 339.136641 224.834437 
L 328.684302 212.73705 
L 334.304742 258.366243 
z
" clip-path="url(#p560fd1e8a6)" style="fill: #0000f5; fill-opacity: 0.1"/>
    <path d="M 233.468677 102.535853 
L 228.992348 58.692938 
L 218.399916 46.386845 
L 222.760284 90.142113 
z
" clip-path="url(#p560fd1e8a6)" style="fill: #0000f5; fill-opacity: 0.1"/>
    <path d="M 334.304742 258.366243 
L 328.684302 212.73705 
L 318.206774 200.610509 
L 323.713907 246.156248 
z
" clip-path="url(#p560fd1e8a6)" style="fill: #0000f5; fill-opacity: 0.1"/>
    <path d="M 222.760284 90.142113 
L 218.399916 46.386845 
L 207.781938 34.051073 
L 212.025769 77.718139 
z
" clip-path="url(#p560fd1e8a6)" style="fill: #0000f5; fill-opacity: 0.1"/>
    <path d="M 323.713907 246.156248 
L 318.206774 200.610509 
L 307.703964 188.454708 
L 313.097224 233.916452 
z
" clip-path="url(#p560fd1e8a6)" style="fill: #0000f5; fill-opacity: 0.1"/>
    <path d="M 212.025769 77.718139 
L 207.781938 34.051073 
L 197.138322 21.685515 
L 201.265037 65.263822 
z
" clip-path="url(#p560fd1e8a6)" style="fill: #0000f5; fill-opacity: 0.1"/>
    <path d="M 313.097224 233.916452 
L 307.703964 188.454708 
L 297.175782 176.269541 
L 302.454598 221.646748 
z
" clip-path="url(#p560fd1e8a6)" style="fill: #0000f5; fill-opacity: 0.1"/>
    <path d="M 201.265037 65.263822 
L 197.138322 21.685515 
L 186.468975 9.290064 
L 190.477991 52.77905 
z
" clip-path="url(#p560fd1e8a6)" style="fill: #0000f5; fill-opacity: 0.1"/>
    <path d="M 302.454598 221.646748 
L 297.175782 176.269541 
L 286.622135 164.054902 
L 291.785935 209.347026 
z
" clip-path="url(#p560fd1e8a6)" style="fill: #0000f5; fill-opacity: 0.1"/>
    <path d="M 190.477991 52.77905 
L 186.468975 9.290064 
L 175.773803 -3.13539 
L 179.664535 40.263711 
z
" clip-path="url(#p560fd1e8a6)" style="fill: #0000f5; fill-opacity: 0.1"/>
    <path d="M 291.785935 209.347026 
L 286.622135 164.054902 
L 276.042931 151.810683 
L 281.091138 197.017174 
z
" clip-path="url(#p560fd1e8a6)" style="fill: #0000f5; fill-opacity: 0.1"/>
    <path d="M 179.664535 40.263711 
L 175.773803 -3.13539 
L 165.052713 -15.590956 
L 168.824572 27.717693 
z
" clip-path="url(#p560fd1e8a6)" style="fill: #0000f5; fill-opacity: 0.1"/>
    <path d="M 281.091138 197.017174 
L 276.042931 151.810683 
L 265.438077 139.536777 
L 270.370112 184.657083 
z
" clip-path="url(#p560fd1e8a6)" style="fill: #0000f5; fill-opacity: 0.1"/>
    <path d="M 168.824572 27.717693 
L 165.052713 -15.590956 
L 154.30561 -28.076743 
L 157.958003 15.140883 
z
" clip-path="url(#p560fd1e8a6)" style="fill: #0000f5; fill-opacity: 0.1"/>
    <path d="M 270.370112 184.657083 
L 265.438077 139.536777 
L 254.807479 127.233076 
L 259.622759 172.266641 
z
" clip-path="url(#p560fd1e8a6)" style="fill: #0000f5; fill-opacity: 0.1"/>
    <path d="M 157.958003 15.140883 
L 154.30561 -28.076743 
L 143.532399 -40.592861 
L 147.064732 2.533168 
z
" clip-path="url(#p560fd1e8a6)" style="fill: #0000f5; fill-opacity: 0.1"/>
    <path d="M 259.622759 172.266641 
L 254.807479 127.233076 
L 244.151044 114.899471 
L 248.848983 159.845736 
z
" clip-path="url(#p560fd1e8a6)" style="fill: #0000f5; fill-opacity: 0.1"/>
    <path d="M 361.389736 329.550384 
L 355.409245 282.697271 
L 344.869824 270.546548 
L 350.735702 317.316672 
z
" clip-path="url(#p560fd1e8a6)" style="fill: #0000f5; fill-opacity: 0.1"/>
    <path d="M 248.848983 159.845736 
L 244.151044 114.899471 
L 233.468677 102.535853 
L 238.048687 147.394256 
z
" clip-path="url(#p560fd1e8a6)" style="fill: #0000f5; fill-opacity: 0.1"/>
    <path d="M 350.735702 317.316672 
L 344.869824 270.546548 
L 334.304742 258.366243 
L 340.055428 305.05283 
z
" clip-path="url(#p560fd1e8a6)" style="fill: #0000f5; fill-opacity: 0.1"/>
    <path d="M 238.048687 147.394256 
L 233.468677 102.535853 
L 222.760284 90.142113 
L 227.221771 134.912087 
z
" clip-path="url(#p560fd1e8a6)" style="fill: #0000f5; fill-opacity: 0.1"/>
    <path d="M 340.055428 305.05283 
L 334.304742 258.366243 
L 323.713907 246.156248 
L 329.348818 292.758747 
z
" clip-path="url(#p560fd1e8a6)" style="fill: #0000f5; fill-opacity: 0.1"/>
    <path d="M 227.221771 134.912087 
L 222.760284 90.142113 
L 212.025769 77.718139 
L 216.368138 122.399115 
z
" clip-path="url(#p560fd1e8a6)" style="fill: #0000f5; fill-opacity: 0.1"/>
    <path d="M 329.348818 292.758747 
L 323.713907 246.156248 
L 313.097224 233.916452 
L 318.615774 280.434311 
z
" clip-path="url(#p560fd1e8a6)" style="fill: #0000f5; fill-opacity: 0.1"/>
    <path d="M 216.368138 122.399115 
L 212.025769 77.718139 
L 201.265037 65.263822 
L 205.487688 109.855228 
z
" clip-path="url(#p560fd1e8a6)" style="fill: #0000f5; fill-opacity: 0.1"/>
    <path d="M 318.615774 280.434311 
L 313.097224 233.916452 
L 302.454598 221.646748 
L 307.856198 268.079409 
z
" clip-path="url(#p560fd1e8a6)" style="fill: #0000f5; fill-opacity: 0.1"/>
    <path d="M 205.487688 109.855228 
L 201.265037 65.263822 
L 190.477991 52.77905 
L 194.580323 97.28031 
z
" clip-path="url(#p560fd1e8a6)" style="fill: #0000f5; fill-opacity: 0.1"/>
    <path d="M 307.856198 268.079409 
L 302.454598 221.646748 
L 291.785935 209.347026 
L 297.069991 255.693927 
z
" clip-path="url(#p560fd1e8a6)" style="fill: #0000f5; fill-opacity: 0.1"/>
    <path d="M 194.580323 97.28031 
L 190.477991 52.77905 
L 179.664535 40.263711 
L 183.645942 84.674245 
z
" clip-path="url(#p560fd1e8a6)" style="fill: #0000f5; fill-opacity: 0.1"/>
    <path d="M 297.069991 255.693927 
L 291.785935 209.347026 
L 281.091138 197.017174 
L 286.257055 243.277754 
z
" clip-path="url(#p560fd1e8a6)" style="fill: #0000f5; fill-opacity: 0.1"/>
    <path d="M 183.645942 84.674245 
L 179.664535 40.263711 
L 168.824572 27.717693 
L 172.684444 72.036919 
z
" clip-path="url(#p560fd1e8a6)" style="fill: #0000f5; fill-opacity: 0.1"/>
    <path d="M 286.257055 243.277754 
L 281.091138 197.017174 
L 270.370112 184.657083 
L 275.417291 230.830773 
z
" clip-path="url(#p560fd1e8a6)" style="fill: #0000f5; fill-opacity: 0.1"/>
    <path d="M 172.684444 72.036919 
L 168.824572 27.717693 
L 157.958003 15.140883 
L 161.695728 59.368214 
z
" clip-path="url(#p560fd1e8a6)" style="fill: #0000f5; fill-opacity: 0.1"/>
    <path d="M 275.417291 230.830773 
L 270.370112 184.657083 
L 259.622759 172.266641 
L 264.550597 218.352871 
z
" clip-path="url(#p560fd1e8a6)" style="fill: #0000f5; fill-opacity: 0.1"/>
    <path d="M 161.695728 59.368214 
L 157.958003 15.140883 
L 147.064732 2.533168 
L 150.679694 46.668013 
z
" clip-path="url(#p560fd1e8a6)" style="fill: #0000f5; fill-opacity: 0.1"/>
    <path d="M 264.550597 218.352871 
L 259.622759 172.266641 
L 248.848983 159.845736 
L 253.656874 205.843932 
z
" clip-path="url(#p560fd1e8a6)" style="fill: #0000f5; fill-opacity: 0.1"/>
    <path d="M 367.510093 377.499252 
L 361.389736 329.550384 
L 350.735702 317.316672 
L 356.738936 365.18197 
z
" clip-path="url(#p560fd1e8a6)" style="fill: #0000f5; fill-opacity: 0.1"/>
    <path d="M 253.656874 205.843932 
L 248.848983 159.845736 
L 238.048687 147.394256 
L 242.736021 193.303839 
z
" clip-path="url(#p560fd1e8a6)" style="fill: #0000f5; fill-opacity: 0.1"/>
    <path d="M 356.738936 365.18197 
L 350.735702 317.316672 
L 340.055428 305.05283 
L 345.94094 352.833997 
z
" clip-path="url(#p560fd1e8a6)" style="fill: #0000f5; fill-opacity: 0.1"/>
    <path d="M 242.736021 193.303839 
L 238.048687 147.394256 
L 227.221771 134.912087 
L 231.787936 180.732478 
z
" clip-path="url(#p560fd1e8a6)" style="fill: #0000f5; fill-opacity: 0.1"/>
    <path d="M 345.94094 352.833997 
L 340.055428 305.05283 
L 329.348818 292.758747 
L 335.116005 340.455218 
z
" clip-path="url(#p560fd1e8a6)" style="fill: #0000f5; fill-opacity: 0.1"/>
    <path d="M 231.787936 180.732478 
L 227.221771 134.912087 
L 216.368138 122.399115 
L 220.812517 168.12973 
z
" clip-path="url(#p560fd1e8a6)" style="fill: #0000f5; fill-opacity: 0.1"/>
    <path d="M 335.116005 340.455218 
L 329.348818 292.758747 
L 318.615774 280.434311 
L 324.264031 328.045518 
z
" clip-path="url(#p560fd1e8a6)" style="fill: #0000f5; fill-opacity: 0.1"/>
    <path d="M 220.812517 168.12973 
L 216.368138 122.399115 
L 205.487688 109.855228 
L 209.809662 155.495477 
z
" clip-path="url(#p560fd1e8a6)" style="fill: #0000f5; fill-opacity: 0.1"/>
    <path d="M 324.264031 328.045518 
L 318.615774 280.434311 
L 307.856198 268.079409 
L 313.384914 315.604779 
z
" clip-path="url(#p560fd1e8a6)" style="fill: #0000f5; fill-opacity: 0.1"/>
    <path d="M 209.809662 155.495477 
L 205.487688 109.855228 
L 194.580323 97.28031 
L 198.779267 142.829602 
z
" clip-path="url(#p560fd1e8a6)" style="fill: #0000f5; fill-opacity: 0.1"/>
    <path d="M 313.384914 315.604779 
L 307.856198 268.079409 
L 297.069991 255.693927 
L 302.478554 303.132887 
z
" clip-path="url(#p560fd1e8a6)" style="fill: #0000f5; fill-opacity: 0.1"/>
    <path d="M 198.779267 142.829602 
L 194.580323 97.28031 
L 183.645942 84.674245 
L 187.72123 130.131986 
z
" clip-path="url(#p560fd1e8a6)" style="fill: #0000f5; fill-opacity: 0.1"/>
    <path d="M 302.478554 303.132887 
L 297.069991 255.693927 
L 286.257055 243.277754 
L 291.544848 290.629724 
z
" clip-path="url(#p560fd1e8a6)" style="fill: #0000f5; fill-opacity: 0.1"/>
    <path d="M 187.72123 130.131986 
L 183.645942 84.674245 
L 172.684444 72.036919 
L 176.635446 117.402509 
z
" clip-path="url(#p560fd1e8a6)" style="fill: #0000f5; fill-opacity: 0.1"/>
    <path d="M 291.544848 290.629724 
L 286.257055 243.277754 
L 275.417291 230.830773 
L 280.583693 278.095171 
z
" clip-path="url(#p560fd1e8a6)" style="fill: #0000f5; fill-opacity: 0.1"/>
    <path d="M 176.635446 117.402509 
L 172.684444 72.036919 
L 161.695728 59.368214 
L 165.521811 104.641051 
z
" clip-path="url(#p560fd1e8a6)" style="fill: #0000f5; fill-opacity: 0.1"/>
    <path d="M 280.583693 278.095171 
L 275.417291 230.830773 
L 264.550597 218.352871 
L 269.594986 265.529111 
z
" clip-path="url(#p560fd1e8a6)" style="fill: #0000f5; fill-opacity: 0.1"/>
    <path d="M 165.521811 104.641051 
L 161.695728 59.368214 
L 150.679694 46.668013 
L 154.380219 91.847491 
z
" clip-path="url(#p560fd1e8a6)" style="fill: #0000f5; fill-opacity: 0.1"/>
    <path d="M 269.594986 265.529111 
L 264.550597 218.352871 
L 253.656874 205.843932 
L 258.578622 252.931425 
z
" clip-path="url(#p560fd1e8a6)" style="fill: #0000f5; fill-opacity: 0.1"/>
    <path d="M 258.578622 252.931425 
L 253.656874 205.843932 
L 242.736021 193.303839 
L 247.534497 240.301992 
z
" clip-path="url(#p560fd1e8a6)" style="fill: #0000f5; fill-opacity: 0.1"/>
    <path d="M 247.534497 240.301992 
L 242.736021 193.303839 
L 231.787936 180.732478 
L 236.462506 227.640694 
z
" clip-path="url(#p560fd1e8a6)" style="fill: #0000f5; fill-opacity: 0.1"/>
    <path d="M 236.462506 227.640694 
L 231.787936 180.732478 
L 220.812517 168.12973 
L 225.362543 214.947409 
z
" clip-path="url(#p560fd1e8a6)" style="fill: #0000f5; fill-opacity: 0.1"/>
    <path d="M 225.362543 214.947409 
L 220.812517 168.12973 
L 209.809662 155.495477 
L 214.234503 202.222015 
z
" clip-path="url(#p560fd1e8a6)" style="fill: #0000f5; fill-opacity: 0.1"/>
    <path d="M 214.234503 202.222015 
L 209.809662 155.495477 
L 198.779267 142.829602 
L 203.078278 189.464392 
z
" clip-path="url(#p560fd1e8a6)" style="fill: #0000f5; fill-opacity: 0.1"/>
    <path d="M 203.078278 189.464392 
L 198.779267 142.829602 
L 187.72123 130.131986 
L 191.893761 176.674415 
z
" clip-path="url(#p560fd1e8a6)" style="fill: #0000f5; fill-opacity: 0.1"/>
    <path d="M 191.893761 176.674415 
L 187.72123 130.131986 
L 176.635446 117.402509 
L 180.680845 163.851963 
z
" clip-path="url(#p560fd1e8a6)" style="fill: #0000f5; fill-opacity: 0.1"/>
    <path d="M 180.680845 163.851963 
L 176.635446 117.402509 
L 165.521811 104.641051 
L 169.439422 150.996911 
z
" clip-path="url(#p560fd1e8a6)" style="fill: #0000f5; fill-opacity: 0.1"/>
    <path d="M 169.439422 150.996911 
L 165.521811 104.641051 
L 154.380219 91.847491 
L 158.169381 138.109134 
z
" clip-path="url(#p560fd1e8a6)" style="fill: #0000f5; fill-opacity: 0.1"/>
   </g>
   <g id="legend_1">
    <g id="patch_6">
     <path d="M 357.840076 67.305115 
L 396.2 67.305115 
Q 398.2 67.305115 398.2 65.305115 
L 398.2 7 
Q 398.2 5 396.2 5 
L 357.840076 5 
Q 355.840076 5 355.840076 7 
L 355.840076 65.305115 
Q 355.840076 67.305115 357.840076 67.305115 
z
" style="fill: #ffffff; opacity: 0.8; stroke: #cccccc; stroke-linejoin: miter"/>
    </g>
    <g id="line2d_25">
     <path d="M 359.840076 12.5 
L 369.840076 12.5 
L 379.840076 12.5 
" style="fill: none; stroke: #ff0000; stroke-width: 1.5; stroke-linecap: square"/>
    </g>
    <g id="text_21">
     <!-- $\vec{a}$ -->
     <g transform="translate(387.840076 16)scale(0.1 -0.1)">
      <defs>
       <path id="CMMI12-7e" d="M 3424 3835 
C 3347 3764 3110 3540 3110 3451 
C 3110 3387 3168 3329 3232 3329 
C 3290 3329 3315 3368 3360 3432 
C 3514 3624 3686 3745 3834 3828 
C 3898 3867 3942 3886 3942 3956 
C 3942 4014 3891 4046 3853 4078 
C 3674 4200 3629 4372 3610 4449 
C 3590 4500 3571 4577 3482 4577 
C 3443 4577 3366 4552 3366 4456 
C 3366 4398 3405 4244 3526 4072 
L 1376 4072 
C 1267 4072 1158 4072 1158 3950 
C 1158 3835 1274 3835 1376 3835 
L 3424 3835 
z
" transform="scale(0.015625)"/>
       <path id="CMMI12-61" d="M 1926 760 
C 1894 651 1894 639 1805 517 
C 1664 338 1382 64 1082 64 
C 819 64 672 300 672 677 
C 672 1028 870 1743 992 2012 
C 1210 2459 1510 2689 1760 2689 
C 2182 2689 2266 2165 2266 2114 
C 2266 2108 2246 2024 2240 2012 
L 1926 760 
z
M 2336 2395 
C 2266 2561 2093 2816 1760 2816 
C 1037 2816 256 1884 256 939 
C 256 307 627 -64 1062 -64 
C 1414 -64 1715 211 1894 422 
C 1958 45 2259 -64 2451 -64 
C 2643 -64 2797 51 2912 281 
C 3014 498 3104 888 3104 913 
C 3104 945 3078 971 3040 971 
C 2982 971 2976 939 2950 843 
C 2854 466 2733 64 2470 64 
C 2285 64 2272 230 2272 358 
C 2272 505 2291 575 2349 824 
C 2394 984 2426 1124 2477 1309 
C 2714 2267 2771 2497 2771 2535 
C 2771 2625 2701 2695 2605 2695 
C 2400 2695 2349 2472 2336 2395 
z
" transform="scale(0.015625)"/>
      </defs>
      <use xlink:href="#CMMI12-7e" transform="scale(0.996264)"/>
      <use xlink:href="#CMMI12-61" transform="translate(6.445738 0)scale(0.996264)"/>
     </g>
    </g>
    <g id="line2d_26">
     <path d="M 359.840076 27.24679 
L 369.840076 27.24679 
L 379.840076 27.24679 
" style="fill: none; stroke: #00ff00; stroke-width: 1.5; stroke-linecap: square"/>
    </g>
    <g id="text_22">
     <!-- $\vec{b}$ -->
     <g transform="translate(387.840076 30.74679)scale(0.1 -0.1)">
      <defs>
       <path id="CMMI12-62" d="M 1478 4257 
C 1485 4283 1498 4321 1498 4352 
C 1498 4416 1434 4416 1421 4416 
C 1414 4416 1184 4393 1069 4377 
C 960 4377 864 4358 749 4358 
C 595 4345 550 4339 550 4224 
C 550 4160 614 4160 678 4160 
C 1005 4160 1005 4103 1005 4040 
C 1005 3996 954 3811 928 3696 
L 774 3085 
C 710 2831 346 1387 320 1272 
C 288 1114 288 1005 288 922 
C 288 274 653 -64 1069 -64 
C 1811 -64 2579 888 2579 1814 
C 2579 2401 2246 2816 1766 2816 
C 1434 2816 1133 2542 1011 2414 
L 1478 4257 
z
M 1075 64 
C 870 64 646 217 646 715 
C 646 926 666 1047 781 1494 
C 800 1577 902 1986 928 2069 
C 941 2120 1318 2689 1754 2689 
C 2035 2689 2163 2408 2163 2076 
C 2163 1769 1984 1047 1824 715 
C 1664 370 1370 64 1075 64 
z
" transform="scale(0.015625)"/>
      </defs>
      <use xlink:href="#CMMI12-7e" transform="translate(0 26.29016)scale(0.996264)"/>
      <use xlink:href="#CMMI12-62" transform="translate(11.311737 0)scale(0.996264)"/>
     </g>
    </g>
    <g id="line2d_27">
     <path d="M 359.840076 41.183968 
L 369.840076 41.183968 
L 379.840076 41.183968 
" style="fill: none; stroke: #0016ff; stroke-width: 1.5; stroke-linecap: square"/>
    </g>
    <g id="text_23">
     <!-- $\vec{c}$ -->
     <g transform="translate(387.840076 44.683968)scale(0.1 -0.1)">
      <defs>
       <path id="CMMI12-63" d="M 2502 2431 
C 2381 2431 2323 2431 2234 2355 
C 2195 2323 2125 2227 2125 2125 
C 2125 1997 2221 1920 2342 1920 
C 2496 1920 2669 2044 2669 2292 
C 2669 2588 2374 2816 1933 2816 
C 1094 2816 256 1903 256 996 
C 256 441 602 -64 1254 -64 
C 2125 -64 2675 622 2675 706 
C 2675 744 2637 776 2611 776 
C 2592 776 2586 770 2528 713 
C 2118 162 1510 64 1267 64 
C 826 64 685 446 685 764 
C 685 988 794 1605 1024 2039 
C 1190 2338 1536 2682 1939 2682 
C 2022 2682 2374 2682 2502 2431 
z
" transform="scale(0.015625)"/>
      </defs>
      <use xlink:href="#CMMI12-7e" transform="scale(0.996264)"/>
      <use xlink:href="#CMMI12-63" transform="translate(5.638615 0)scale(0.996264)"/>
     </g>
    </g>
    <g id="line2d_28">
     <path d="M 359.840076 57.867937 
L 369.840076 57.867937 
L 379.840076 57.867937 
" style="fill: none; stroke: #f400ff; stroke-width: 1.5; stroke-linecap: square"/>
    </g>
    <g id="text_24">
     <!-- $\vec{f}$ -->
     <g transform="translate(387.840076 61.367937)scale(0.1 -0.1)">
      <defs>
       <path id="CMMI12-66" d="M 2854 2566 
C 2982 2566 3034 2566 3034 2688 
C 3034 2752 2982 2752 2867 2752 
L 2349 2752 
C 2470 3429 2560 3897 2611 4107 
C 2650 4265 2784 4416 2950 4416 
C 3085 4416 3219 4358 3283 4298 
C 3034 4272 2957 4082 2957 3969 
C 2957 3837 3053 3759 3174 3759 
C 3302 3759 3494 3870 3494 4119 
C 3494 4393 3226 4544 2944 4544 
C 2669 4544 2400 4334 2272 4078 
C 2157 3848 2093 3611 1946 2752 
L 1517 2752 
C 1395 2752 1331 2752 1331 2637 
C 1331 2566 1370 2566 1498 2566 
L 1907 2566 
C 1792 1976 1530 542 1382 -137 
C 1274 -689 1178 -1152 858 -1152 
C 838 -1152 653 -1152 538 -1031 
C 864 -1005 864 -726 864 -720 
C 864 -593 768 -517 646 -517 
C 518 -517 326 -625 326 -867 
C 326 -1140 608 -1280 858 -1280 
C 1510 -1280 1779 -118 1850 199 
C 1965 688 2278 2376 2310 2566 
L 2854 2566 
z
" transform="scale(0.015625)"/>
      </defs>
      <use xlink:href="#CMMI12-7e" transform="translate(13.568792 26.29016)scale(0.996264)"/>
      <use xlink:href="#CMMI12-66" transform="scale(0.996264)"/>
     </g>
    </g>
   </g>
  </g>
 </g>
 <defs>
  <clipPath id="p560fd1e8a6">
   <rect x="57.6" y="0" width="345.6" height="345.6"/>
  </clipPath>
 </defs>
</svg>
