<?xml version="1.0" encoding="utf-8" standalone="no"?>
<!DOCTYPE svg PUBLIC "-//W3C//DTD SVG 1.1//EN"
  "http://www.w3.org/Graphics/SVG/1.1/DTD/svg11.dtd">
<svg xmlns:xlink="http://www.w3.org/1999/xlink" width="460.8pt" height="345.6pt" viewBox="0 0 460.8 345.6" xmlns="http://www.w3.org/2000/svg" version="1.1">
 <metadata>
  <rdf:RDF xmlns:dc="http://purl.org/dc/elements/1.1/" xmlns:cc="http://creativecommons.org/ns#" xmlns:rdf="http://www.w3.org/1999/02/22-rdf-syntax-ns#">
   <cc:Work>
    <dc:type rdf:resource="http://purl.org/dc/dcmitype/StillImage"/>
    <dc:date>2022-07-12T15:51:02.543643</dc:date>
    <dc:format>image/svg+xml</dc:format>
    <dc:creator>
     <cc:Agent>
      <dc:title>Matplotlib v3.5.1, https://matplotlib.org/</dc:title>
     </cc:Agent>
    </dc:creator>
   </cc:Work>
  </rdf:RDF>
 </metadata>
 <defs>
  <style type="text/css">*{stroke-linejoin: round; stroke-linecap: butt}</style>
 </defs>
 <g id="figure_1">
  <g id="patch_1">
   <path d="M 0 345.6 
L 460.8 345.6 
L 460.8 0 
L 0 0 
z
" style="fill: #ffffff"/>
  </g>
  <g id="patch_2">
   <path d="M 57.6 345.6 
L 403.2 345.6 
L 403.2 0 
L 57.6 0 
z
" style="fill: #ffffff"/>
  </g>
  <g id="pane3d_1">
   <g id="patch_3">
    <path d="M 323.747736 246.273888 
L 115.535578 247.50617 
L 115.535578 88.75329 
L 323.747736 89.985572 
" style="fill: #f2f2f2; opacity: 0.5; stroke: #f2f2f2; stroke-linejoin: miter"/>
   </g>
  </g>
  <g id="pane3d_2">
   <g id="patch_4">
    <path d="M 367.362626 255.977835 
L 323.747736 246.273888 
L 323.747736 89.985572 
L 367.362626 80.281625 
" style="fill: #e6e6e6; opacity: 0.5; stroke: #e6e6e6; stroke-linejoin: miter"/>
   </g>
  </g>
  <g id="pane3d_3">
   <g id="patch_5">
    <path d="M 367.362626 255.977835 
L 323.747736 246.273888 
L 115.535578 247.50617 
L 133.61011 257.538225 
" style="fill: #ececec; opacity: 0.5; stroke: #ececec; stroke-linejoin: miter"/>
   </g>
  </g>
  <g id="axis3d_1">
   <g id="line2d_1">
    <path d="M 115.535578 247.50617 
L 133.61011 257.538225 
" style="fill: none; stroke: #000000; stroke-width: 0.8; stroke-linecap: square"/>
   </g>
   <g id="text_1">
    <!-- x -->
    <g transform="translate(89.292883 279.818565)scale(0.16 -0.16)">
     <defs>
      <path id="CMSS17-78" d="M 1587 1414 
L 2656 2739 
L 2099 2739 
L 1363 1777 
L 602 2739 
L 32 2739 
L 1139 1414 
L 0 0 
L 563 0 
L 1363 1121 
L 2195 0 
L 2758 0 
L 1587 1414 
z
" transform="scale(0.015625)"/>
     </defs>
     <use xlink:href="#CMSS17-78" transform="scale(0.996264)"/>
    </g>
   </g>
   <g id="Line3DCollection_1">
    <path d="M 133.203958 257.312796 
L 366.384435 255.760196 
L 366.384435 80.499264 
" style="fill: none; stroke: #b0b0b0; stroke-width: 0.8"/>
    <path d="M 129.40665 255.205145 
L 357.234686 253.724453 
L 357.234686 82.535006 
" style="fill: none; stroke: #b0b0b0; stroke-width: 0.8"/>
    <path d="M 125.784681 253.194813 
L 348.5004 251.781148 
L 348.5004 84.478312 
" style="fill: none; stroke: #b0b0b0; stroke-width: 0.8"/>
    <path d="M 122.32618 251.275213 
L 340.153909 249.924124 
L 340.153909 86.335336 
" style="fill: none; stroke: #b0b0b0; stroke-width: 0.8"/>
    <path d="M 119.020325 249.440338 
L 332.169947 248.147759 
L 332.169947 88.111701 
" style="fill: none; stroke: #b0b0b0; stroke-width: 0.8"/>
    <path d="M 115.857229 247.684699 
L 324.525396 246.44691 
L 324.525396 89.812549 
" style="fill: none; stroke: #b0b0b0; stroke-width: 0.8"/>
   </g>
   <g id="xtick_1">
    <g id="line2d_2">
     <path d="M 135.102184 257.300156 
L 129.405892 257.338084 
" style="fill: none; stroke: #000000; stroke-width: 0.8; stroke-linecap: square"/>
    </g>
    <g id="text_2">
     <!-- $\mathdefault{0}$ -->
     <g transform="translate(115.534517 275.740888)scale(0.1 -0.1)">
      <defs>
       <path id="CMR17-30" d="M 2688 2025 
C 2688 2416 2682 3080 2413 3591 
C 2176 4039 1798 4198 1466 4198 
C 1158 4198 768 4058 525 3597 
C 269 3118 243 2524 243 2025 
C 243 1661 250 1106 448 619 
C 723 -39 1216 -128 1466 -128 
C 1760 -128 2208 -7 2470 600 
C 2662 1042 2688 1559 2688 2025 
z
M 1466 -26 
C 1056 -26 813 325 723 812 
C 653 1188 653 1738 653 2096 
C 653 2588 653 2997 736 3387 
C 858 3929 1216 4096 1466 4096 
C 1728 4096 2067 3923 2189 3400 
C 2272 3036 2278 2607 2278 2096 
C 2278 1680 2278 1169 2202 792 
C 2067 95 1690 -26 1466 -26 
z
" transform="scale(0.015625)"/>
      </defs>
      <use xlink:href="#CMR17-30" transform="scale(0.996264)"/>
     </g>
    </g>
   </g>
   <g id="xtick_2">
    <g id="line2d_3">
     <path d="M 131.260547 255.193096 
L 125.697316 255.229252 
" style="fill: none; stroke: #000000; stroke-width: 0.8; stroke-linecap: square"/>
    </g>
    <g id="text_3">
     <!-- $\mathdefault{1}$ -->
     <g transform="translate(112.092123 273.358599)scale(0.1 -0.1)">
      <defs>
       <path id="CMR17-31" d="M 1702 4058 
C 1702 4192 1696 4192 1606 4192 
C 1357 3916 979 3827 621 3827 
C 602 3827 570 3827 563 3808 
C 557 3795 557 3782 557 3648 
C 755 3648 1088 3686 1344 3839 
L 1344 461 
C 1344 236 1331 160 781 160 
L 589 160 
L 589 0 
C 896 0 1216 0 1523 0 
C 1830 0 2150 0 2458 0 
L 2458 160 
L 2266 160 
C 1715 160 1702 230 1702 458 
L 1702 4058 
z
" transform="scale(0.015625)"/>
      </defs>
      <use xlink:href="#CMR17-31" transform="scale(0.996264)"/>
     </g>
    </g>
   </g>
   <g id="xtick_3">
    <g id="line2d_4">
     <path d="M 127.596272 253.183314 
L 122.160029 253.21782 
" style="fill: none; stroke: #000000; stroke-width: 0.8; stroke-linecap: square"/>
    </g>
    <g id="text_4">
     <!-- $\mathdefault{2}$ -->
     <g transform="translate(108.80885 271.086431)scale(0.1 -0.1)">
      <defs>
       <path id="CMR17-32" d="M 2669 989 
L 2554 989 
C 2490 536 2438 459 2413 420 
C 2381 369 1920 369 1830 369 
L 602 369 
C 832 619 1280 1072 1824 1597 
C 2214 1967 2669 2402 2669 3035 
C 2669 3790 2067 4224 1395 4224 
C 691 4224 262 3604 262 3030 
C 262 2780 448 2748 525 2748 
C 589 2748 781 2787 781 3010 
C 781 3207 614 3264 525 3264 
C 486 3264 448 3258 422 3245 
C 544 3790 915 4058 1306 4058 
C 1862 4058 2227 3617 2227 3035 
C 2227 2479 1901 2000 1536 1584 
L 262 146 
L 262 0 
L 2515 0 
L 2669 989 
z
" transform="scale(0.015625)"/>
      </defs>
      <use xlink:href="#CMR17-32" transform="scale(0.996264)"/>
     </g>
    </g>
   </g>
   <g id="xtick_4">
    <g id="line2d_5">
     <path d="M 124.097353 251.264228 
L 118.78243 251.297194 
" style="fill: none; stroke: #000000; stroke-width: 0.8; stroke-linecap: square"/>
    </g>
    <g id="text_5">
     <!-- $\mathdefault{3}$ -->
     <g transform="translate(105.673917 268.916919)scale(0.1 -0.1)">
      <defs>
       <path id="CMR17-33" d="M 1414 2157 
C 1984 2157 2234 1662 2234 1090 
C 2234 320 1824 25 1453 25 
C 1114 25 563 194 390 693 
C 422 680 454 680 486 680 
C 640 680 755 782 755 948 
C 755 1133 614 1216 486 1216 
C 378 1216 211 1165 211 926 
C 211 335 787 -128 1466 -128 
C 2176 -128 2720 430 2720 1085 
C 2720 1707 2208 2157 1600 2227 
C 2086 2328 2554 2756 2554 3329 
C 2554 3820 2048 4179 1472 4179 
C 890 4179 378 3829 378 3329 
C 378 3110 544 3072 627 3072 
C 762 3072 877 3155 877 3321 
C 877 3486 762 3569 627 3569 
C 602 3569 570 3569 544 3557 
C 730 3959 1235 4032 1459 4032 
C 1683 4032 2106 3925 2106 3320 
C 2106 3143 2080 2828 1862 2550 
C 1670 2304 1453 2304 1242 2284 
C 1210 2284 1062 2269 1037 2269 
C 992 2263 966 2257 966 2208 
C 966 2163 973 2157 1101 2157 
L 1414 2157 
z
" transform="scale(0.015625)"/>
      </defs>
      <use xlink:href="#CMR17-33" transform="scale(0.996264)"/>
     </g>
    </g>
   </g>
   <g id="xtick_5">
    <g id="line2d_6">
     <path d="M 120.752844 249.429832 
L 115.553945 249.461359 
" style="fill: none; stroke: #000000; stroke-width: 0.8; stroke-linecap: square"/>
    </g>
    <g id="text_6">
     <!-- $\mathdefault{4}$ -->
     <g transform="translate(102.677491 266.843261)scale(0.1 -0.1)">
      <defs>
       <path id="CMR17-34" d="M 2150 4122 
C 2150 4256 2144 4256 2029 4256 
L 128 1254 
L 128 1088 
L 1779 1088 
L 1779 457 
C 1779 224 1766 160 1318 160 
L 1197 160 
L 1197 0 
C 1402 0 1747 0 1965 0 
C 2182 0 2528 0 2733 0 
L 2733 160 
L 2611 160 
C 2163 160 2150 224 2150 457 
L 2150 1088 
L 2803 1088 
L 2803 1254 
L 2150 1254 
L 2150 4122 
z
M 1798 3703 
L 1798 1254 
L 256 1254 
L 1798 3703 
z
" transform="scale(0.015625)"/>
      </defs>
      <use xlink:href="#CMR17-34" transform="scale(0.996264)"/>
     </g>
    </g>
   </g>
   <g id="xtick_6">
    <g id="line2d_7">
     <path d="M 117.552744 247.674641 
L 112.464913 247.704822 
" style="fill: none; stroke: #000000; stroke-width: 0.8; stroke-linecap: square"/>
    </g>
    <g id="text_7">
     <!-- $\mathdefault{5}$ -->
     <g transform="translate(99.810593 264.859241)scale(0.1 -0.1)">
      <defs>
       <path id="CMR17-35" d="M 730 3692 
C 794 3666 1056 3584 1325 3584 
C 1920 3584 2246 3911 2432 4100 
C 2432 4157 2432 4192 2394 4192 
C 2387 4192 2374 4192 2323 4163 
C 2099 4058 1837 3973 1517 3973 
C 1325 3973 1037 3999 723 4139 
C 653 4171 640 4171 634 4171 
C 602 4171 595 4164 595 4037 
L 595 2203 
C 595 2089 595 2057 659 2057 
C 691 2057 704 2070 736 2114 
C 941 2401 1222 2522 1542 2522 
C 1766 2522 2246 2382 2246 1289 
C 2246 1085 2246 715 2054 421 
C 1894 159 1645 25 1370 25 
C 947 25 518 320 403 814 
C 429 807 480 795 506 795 
C 589 795 749 840 749 1038 
C 749 1210 627 1280 506 1280 
C 358 1280 262 1190 262 1011 
C 262 454 704 -128 1382 -128 
C 2042 -128 2669 440 2669 1264 
C 2669 2030 2170 2624 1549 2624 
C 1222 2624 947 2503 730 2274 
L 730 3692 
z
" transform="scale(0.015625)"/>
      </defs>
      <use xlink:href="#CMR17-35" transform="scale(0.996264)"/>
     </g>
    </g>
   </g>
  </g>
  <g id="axis3d_2">
   <g id="line2d_8">
    <path d="M 367.362626 255.977835 
L 133.61011 257.538225 
" style="fill: none; stroke: #000000; stroke-width: 0.8; stroke-linecap: square"/>
   </g>
   <g id="text_8">
    <!-- y -->
    <g transform="translate(252.885451 287.358413)scale(0.16 -0.16)">
     <defs>
      <path id="CMSS17-79" d="M 2675 2752 
L 2176 2752 
C 1632 1294 1446 702 1434 383 
L 1427 383 
C 1408 696 1126 1460 902 2007 
L 602 2752 
L 83 2752 
L 1216 13 
C 1146 -178 1043 -465 1011 -529 
C 870 -885 774 -885 672 -885 
C 646 -885 442 -885 211 -809 
L 250 -1229 
C 410 -1261 570 -1280 685 -1280 
C 845 -1280 1165 -1280 1459 -497 
L 2675 2752 
z
" transform="scale(0.015625)"/>
     </defs>
     <use xlink:href="#CMSS17-79" transform="scale(0.996264)"/>
    </g>
   </g>
   <g id="Line3DCollection_2">
    <path d="M 299.927187 89.844592 
L 299.927187 246.414867 
L 340.666514 256.156042 
" style="fill: none; stroke: #b0b0b0; stroke-width: 0.8"/>
    <path d="M 260.310642 89.610126 
L 260.310642 246.649334 
L 296.241046 256.452599 
" style="fill: none; stroke: #b0b0b0; stroke-width: 0.8"/>
    <path d="M 220.456078 89.374251 
L 220.456078 246.885209 
L 251.51523 256.751162 
" style="fill: none; stroke: #b0b0b0; stroke-width: 0.8"/>
    <path d="M 180.361344 89.136954 
L 180.361344 247.122505 
L 206.48601 257.05175 
" style="fill: none; stroke: #b0b0b0; stroke-width: 0.8"/>
    <path d="M 140.024263 88.898223 
L 140.024263 247.361236 
L 161.150289 257.354383 
" style="fill: none; stroke: #b0b0b0; stroke-width: 0.8"/>
   </g>
   <g id="xtick_7">
    <g id="line2d_9">
     <path d="M 340.30041 256.068503 
L 341.400914 256.331644 
" style="fill: none; stroke: #000000; stroke-width: 0.8; stroke-linecap: square"/>
    </g>
    <g id="text_9">
     <!-- $\mathdefault{−4}$ -->
     <g transform="translate(337.251588 275.117883)scale(0.1 -0.1)">
      <defs>
       <path id="CMSY10-0" d="M 4218 1472 
C 4326 1472 4442 1472 4442 1600 
C 4442 1728 4326 1728 4218 1728 
L 755 1728 
C 646 1728 531 1728 531 1600 
C 531 1472 646 1472 755 1472 
L 4218 1472 
z
" transform="scale(0.015625)"/>
      </defs>
      <use xlink:href="#CMSY10-0" transform="scale(0.996264)"/>
      <use xlink:href="#CMR17-34" transform="translate(77.487468 0)scale(0.996264)"/>
     </g>
    </g>
   </g>
   <g id="xtick_8">
    <g id="line2d_10">
     <path d="M 295.918037 256.36447 
L 296.889002 256.629388 
" style="fill: none; stroke: #000000; stroke-width: 0.8; stroke-linecap: square"/>
    </g>
    <g id="text_10">
     <!-- $\mathdefault{−2}$ -->
     <g transform="translate(292.478925 275.457724)scale(0.1 -0.1)">
      <use xlink:href="#CMSY10-0" transform="scale(0.996264)"/>
      <use xlink:href="#CMR17-32" transform="translate(77.487468 0)scale(0.996264)"/>
     </g>
    </g>
   </g>
   <g id="xtick_9">
    <g id="line2d_11">
     <path d="M 251.235909 256.662436 
L 252.075553 256.929149 
" style="fill: none; stroke: #000000; stroke-width: 0.8; stroke-linecap: square"/>
    </g>
    <g id="text_11">
     <!-- $\mathdefault{0}$ -->
     <g transform="translate(251.275496 275.799882)scale(0.1 -0.1)">
      <use xlink:href="#CMR17-30" transform="scale(0.996264)"/>
     </g>
    </g>
   </g>
   <g id="xtick_10">
    <g id="line2d_12">
     <path d="M 206.250978 256.962421 
L 206.957494 257.230947 
" style="fill: none; stroke: #000000; stroke-width: 0.8; stroke-linecap: square"/>
    </g>
    <g id="text_12">
     <!-- $\mathdefault{2}$ -->
     <g transform="translate(205.889429 276.14438)scale(0.1 -0.1)">
      <use xlink:href="#CMR17-32" transform="scale(0.996264)"/>
     </g>
    </g>
   </g>
   <g id="xtick_11">
    <g id="line2d_13">
     <path d="M 160.960156 257.264446 
L 161.531707 257.534804 
" style="fill: none; stroke: #000000; stroke-width: 0.8; stroke-linecap: square"/>
    </g>
    <g id="text_13">
     <!-- $\mathdefault{4}$ -->
     <g transform="translate(160.191921 276.491242)scale(0.1 -0.1)">
      <use xlink:href="#CMR17-34" transform="scale(0.996264)"/>
     </g>
    </g>
   </g>
  </g>
  <g id="axis3d_3">
   <g id="line2d_14">
    <path d="M 367.362626 255.977835 
L 367.362626 80.281625 
" style="fill: none; stroke: #000000; stroke-width: 0.8; stroke-linecap: square"/>
   </g>
   <g id="text_14">
    <!-- z -->
    <g transform="translate(403.268523 172.114786)scale(0.16 -0.16)">
     <defs>
      <path id="CMSS17-7a" d="M 2400 2502 
L 2400 2750 
L 250 2750 
L 250 2368 
L 1069 2368 
C 1146 2368 1222 2368 1299 2368 
L 1747 2368 
L 166 261 
L 166 0 
L 2419 0 
L 2419 395 
L 1549 395 
C 1472 395 1395 395 1318 395 
L 826 395 
L 2400 2502 
z
" transform="scale(0.015625)"/>
     </defs>
     <use xlink:href="#CMSS17-7a" transform="scale(0.996264)"/>
    </g>
   </g>
   <g id="Line3DCollection_3">
    <path d="M 367.362626 252.463911 
L 323.747736 243.148121 
L 115.535578 244.331112 
" style="fill: none; stroke: #b0b0b0; stroke-width: 0.8"/>
    <path d="M 367.362626 218.730238 
L 323.747736 213.140765 
L 115.535578 213.850559 
" style="fill: none; stroke: #b0b0b0; stroke-width: 0.8"/>
    <path d="M 367.362626 184.996566 
L 323.747736 183.133408 
L 115.535578 183.370006 
" style="fill: none; stroke: #b0b0b0; stroke-width: 0.8"/>
    <path d="M 367.362626 151.262894 
L 323.747736 153.126051 
L 115.535578 152.889453 
" style="fill: none; stroke: #b0b0b0; stroke-width: 0.8"/>
    <path d="M 367.362626 117.529221 
L 323.747736 123.118695 
L 115.535578 122.4089 
" style="fill: none; stroke: #b0b0b0; stroke-width: 0.8"/>
    <path d="M 367.362626 83.795549 
L 323.747736 93.111338 
L 115.535578 91.928347 
" style="fill: none; stroke: #b0b0b0; stroke-width: 0.8"/>
   </g>
   <g id="xtick_12">
    <g id="line2d_15">
     <path d="M 366.970767 252.380213 
L 368.148683 252.631806 
" style="fill: none; stroke: #000000; stroke-width: 0.8; stroke-linecap: square"/>
    </g>
    <g id="text_15">
     <!-- $\mathdefault{0}$ -->
     <g transform="translate(382.800293 259.961408)scale(0.1 -0.1)">
      <use xlink:href="#CMR17-30" transform="scale(0.996264)"/>
     </g>
    </g>
   </g>
   <g id="xtick_13">
    <g id="line2d_16">
     <path d="M 366.970767 218.68002 
L 368.148683 218.830976 
" style="fill: none; stroke: #000000; stroke-width: 0.8; stroke-linecap: square"/>
    </g>
    <g id="text_16">
     <!-- $\mathdefault{1}$ -->
     <g transform="translate(382.800293 225.996136)scale(0.1 -0.1)">
      <use xlink:href="#CMR17-31" transform="scale(0.996264)"/>
     </g>
    </g>
   </g>
   <g id="xtick_14">
    <g id="line2d_17">
     <path d="M 366.970767 184.979826 
L 368.148683 185.030145 
" style="fill: none; stroke: #000000; stroke-width: 0.8; stroke-linecap: square"/>
    </g>
    <g id="text_17">
     <!-- $\mathdefault{2}$ -->
     <g transform="translate(382.800293 192.030864)scale(0.1 -0.1)">
      <use xlink:href="#CMR17-32" transform="scale(0.996264)"/>
     </g>
    </g>
   </g>
   <g id="xtick_15">
    <g id="line2d_18">
     <path d="M 366.970767 151.279633 
L 368.148683 151.229314 
" style="fill: none; stroke: #000000; stroke-width: 0.8; stroke-linecap: square"/>
    </g>
    <g id="text_18">
     <!-- $\mathdefault{3}$ -->
     <g transform="translate(382.800293 158.065592)scale(0.1 -0.1)">
      <use xlink:href="#CMR17-33" transform="scale(0.996264)"/>
     </g>
    </g>
   </g>
   <g id="xtick_16">
    <g id="line2d_19">
     <path d="M 366.970767 117.57944 
L 368.148683 117.428484 
" style="fill: none; stroke: #000000; stroke-width: 0.8; stroke-linecap: square"/>
    </g>
    <g id="text_19">
     <!-- $\mathdefault{4}$ -->
     <g transform="translate(382.800293 124.10032)scale(0.1 -0.1)">
      <use xlink:href="#CMR17-34" transform="scale(0.996264)"/>
     </g>
    </g>
   </g>
   <g id="xtick_17">
    <g id="line2d_20">
     <path d="M 366.970767 83.879247 
L 368.148683 83.627653 
" style="fill: none; stroke: #000000; stroke-width: 0.8; stroke-linecap: square"/>
    </g>
    <g id="text_20">
     <!-- $\mathdefault{5}$ -->
     <g transform="translate(382.800293 90.135049)scale(0.1 -0.1)">
      <use xlink:href="#CMR17-35" transform="scale(0.996264)"/>
     </g>
    </g>
   </g>
  </g>
  <g id="axes_1">
   <g id="line2d_21">
    <path d="M 250.817976 252.993681 
L 178.362184 84.842775 
" clip-path="url(#p81cd104016)" style="fill: none; stroke: #ff0000; stroke-width: 1.5; stroke-linecap: square"/>
   </g>
   <g id="line2d_22">
    <path d="M 250.817976 252.993681 
L 280.696883 119.698616 
" clip-path="url(#p81cd104016)" style="fill: none; stroke: #00ff00; stroke-width: 1.5; stroke-linecap: square"/>
   </g>
   <g id="line2d_23">
    <path d="M 250.817976 252.993681 
L 216.231074 -1 
" clip-path="url(#p81cd104016)" style="fill: none; stroke: #0016ff; stroke-width: 1.5; stroke-linecap: square"/>
   </g>
   <g id="line2d_24">
    <path d="M 250.817976 252.993681 
L 280.831912 153.043068 
" clip-path="url(#p81cd104016)" style="fill: none; stroke: #f400ff; stroke-width: 1.5; stroke-linecap: square"/>
   </g>
   <g id="Poly3DCollection_1">
    <path d="M 327.973388 22.130426 
L 324.153932 -18.109567 
L 314.17683 -29.661322 
L 317.890748 10.483836 
z
" clip-path="url(#p81cd104016)" style="fill: #0000f5; fill-opacity: 0.1"/>
    <path d="M 317.890748 10.483836 
L 314.17683 -29.661322 
L 304.184638 -41.23055 
L 307.792693 -1.180561 
z
" clip-path="url(#p81cd104016)" style="fill: #0000f5; fill-opacity: 0.1"/>
    <path d="M 307.792693 -1.180561 
L 304.184638 -41.23055 
L 294.177322 -52.817288 
L 297.679186 -12.862805 
z
" clip-path="url(#p81cd104016)" style="fill: #0000f5; fill-opacity: 0.1"/>
    <path d="M 297.679186 -12.862805 
L 294.177322 -52.817288 
L 284.154848 -64.421577 
L 287.550194 -24.562938 
z
" clip-path="url(#p81cd104016)" style="fill: #0000f5; fill-opacity: 0.1"/>
    <path d="M 287.550194 -24.562938 
L 284.154848 -64.421577 
L 274.11718 -76.043457 
L 277.405679 -36.281001 
z
" clip-path="url(#p81cd104016)" style="fill: #0000f5; fill-opacity: 0.1"/>
    <path d="M 277.405679 -36.281001 
L 274.11718 -76.043457 
L 264.064285 -87.682968 
L 267.245607 -48.017034 
z
" clip-path="url(#p81cd104016)" style="fill: #0000f5; fill-opacity: 0.1"/>
    <path d="M 267.245607 -48.017034 
L 264.064285 -87.682968 
L 253.996127 -99.340151 
L 257.069941 -59.77108 
z
" clip-path="url(#p81cd104016)" style="fill: #0000f5; fill-opacity: 0.1"/>
    <path d="M 257.069941 -59.77108 
L 253.996127 -99.340151 
L 243.912673 -111.015044 
L 246.878646 -71.543179 
z
" clip-path="url(#p81cd104016)" style="fill: #0000f5; fill-opacity: 0.1"/>
    <path d="M 246.878646 -71.543179 
L 243.912673 -111.015044 
L 233.813886 -122.70769 
L 236.671685 -83.333373 
z
" clip-path="url(#p81cd104016)" style="fill: #0000f5; fill-opacity: 0.1"/>
    <path d="M 236.671685 -83.333373 
L 233.813886 -122.70769 
L 223.699732 -134.418127 
L 226.449023 -95.141705 
z
" clip-path="url(#p81cd104016)" style="fill: #0000f5; fill-opacity: 0.1"/>
    <path d="M 226.449023 -95.141705 
L 223.699732 -134.418127 
L 213.570177 -146.146398 
L 216.210623 -106.968216 
z
" clip-path="url(#p81cd104016)" style="fill: #0000f5; fill-opacity: 0.1"/>
    <path d="M 216.210623 -106.968216 
L 213.570177 -146.146398 
L 203.425184 -157.892542 
L 205.956448 -118.812947 
z
" clip-path="url(#p81cd104016)" style="fill: #0000f5; fill-opacity: 0.1"/>
    <path d="M 205.956448 -118.812947 
L 203.425184 -157.892542 
L 193.264718 -169.656601 
L 195.686464 -130.675942 
z
" clip-path="url(#p81cd104016)" style="fill: #0000f5; fill-opacity: 0.1"/>
    <path d="M 195.686464 -130.675942 
L 193.264718 -169.656601 
L 183.088745 -181.438615 
L 185.400631 -142.557242 
z
" clip-path="url(#p81cd104016)" style="fill: #0000f5; fill-opacity: 0.1"/>
    <path d="M 185.400631 -142.557242 
L 183.088745 -181.438615 
L 172.897227 -193.238627 
L 175.098915 -154.45689 
z
" clip-path="url(#p81cd104016)" style="fill: #0000f5; fill-opacity: 0.1"/>
    <path d="M 331.876731 63.254206 
L 327.973388 22.130426 
L 317.890748 10.483836 
L 321.686298 51.511379 
z
" clip-path="url(#p81cd104016)" style="fill: #0000f5; fill-opacity: 0.1"/>
    <path d="M 175.098915 -154.45689 
L 172.897227 -193.238627 
L 162.690131 -205.056676 
L 164.781278 -166.374929 
z
" clip-path="url(#p81cd104016)" style="fill: #0000f5; fill-opacity: 0.1"/>
    <path d="M 321.686298 51.511379 
L 317.890748 10.483836 
L 307.792693 -1.180561 
L 311.480113 39.750401 
z
" clip-path="url(#p81cd104016)" style="fill: #0000f5; fill-opacity: 0.1"/>
    <path d="M 164.781278 -166.374929 
L 162.690131 -205.056676 
L 152.46742 -216.892805 
L 154.447683 -178.3114 
z
" clip-path="url(#p81cd104016)" style="fill: #0000f5; fill-opacity: 0.1"/>
    <path d="M 311.480113 39.750401 
L 307.792693 -1.180561 
L 297.679186 -12.862805 
L 301.25814 27.97123 
z
" clip-path="url(#p81cd104016)" style="fill: #0000f5; fill-opacity: 0.1"/>
    <path d="M 154.447683 -178.3114 
L 152.46742 -216.892805 
L 142.229058 -228.747054 
L 144.098094 -190.266347 
z
" clip-path="url(#p81cd104016)" style="fill: #0000f5; fill-opacity: 0.1"/>
    <path d="M 301.25814 27.97123 
L 297.679186 -12.862805 
L 287.550194 -24.562938 
L 291.020342 16.173823 
z
" clip-path="url(#p81cd104016)" style="fill: #0000f5; fill-opacity: 0.1"/>
    <path d="M 144.098094 -190.266347 
L 142.229058 -228.747054 
L 131.975009 -240.619466 
L 133.732472 -202.239813 
z
" clip-path="url(#p81cd104016)" style="fill: #0000f5; fill-opacity: 0.1"/>
    <path d="M 291.020342 16.173823 
L 287.550194 -24.562938 
L 277.405679 -36.281001 
L 280.766682 4.358137 
z
" clip-path="url(#p81cd104016)" style="fill: #0000f5; fill-opacity: 0.1"/>
    <path d="M 280.766682 4.358137 
L 277.405679 -36.281001 
L 267.245607 -48.017034 
L 270.497124 -7.475868 
z
" clip-path="url(#p81cd104016)" style="fill: #0000f5; fill-opacity: 0.1"/>
    <path d="M 270.497124 -7.475868 
L 267.245607 -48.017034 
L 257.069941 -59.77108 
L 260.211631 -19.328237 
z
" clip-path="url(#p81cd104016)" style="fill: #0000f5; fill-opacity: 0.1"/>
    <path d="M 260.211631 -19.328237 
L 257.069941 -59.77108 
L 246.878646 -71.543179 
L 249.910165 -31.199011 
z
" clip-path="url(#p81cd104016)" style="fill: #0000f5; fill-opacity: 0.1"/>
    <path d="M 249.910165 -31.199011 
L 246.878646 -71.543179 
L 236.671685 -83.333373 
L 239.592689 -43.088235 
z
" clip-path="url(#p81cd104016)" style="fill: #0000f5; fill-opacity: 0.1"/>
    <path d="M 239.592689 -43.088235 
L 236.671685 -83.333373 
L 226.449023 -95.141705 
L 229.259165 -54.99595 
z
" clip-path="url(#p81cd104016)" style="fill: #0000f5; fill-opacity: 0.1"/>
    <path d="M 229.259165 -54.99595 
L 226.449023 -95.141705 
L 216.210623 -106.968216 
L 218.909557 -66.9222 
z
" clip-path="url(#p81cd104016)" style="fill: #0000f5; fill-opacity: 0.1"/>
    <path d="M 218.909557 -66.9222 
L 216.210623 -106.968216 
L 205.956448 -118.812947 
L 208.543827 -78.867029 
z
" clip-path="url(#p81cd104016)" style="fill: #0000f5; fill-opacity: 0.1"/>
    <path d="M 208.543827 -78.867029 
L 205.956448 -118.812947 
L 195.686464 -130.675942 
L 198.161937 -90.830479 
z
" clip-path="url(#p81cd104016)" style="fill: #0000f5; fill-opacity: 0.1"/>
    <path d="M 198.161937 -90.830479 
L 195.686464 -130.675942 
L 185.400631 -142.557242 
L 187.763848 -102.812595 
z
" clip-path="url(#p81cd104016)" style="fill: #0000f5; fill-opacity: 0.1"/>
    <path d="M 187.763848 -102.812595 
L 185.400631 -142.557242 
L 175.098915 -154.45689 
L 177.349525 -114.81342 
z
" clip-path="url(#p81cd104016)" style="fill: #0000f5; fill-opacity: 0.1"/>
    <path d="M 335.866754 105.291213 
L 331.876731 63.254206 
L 321.686298 51.511379 
L 325.5662 93.450724 
z
" clip-path="url(#p81cd104016)" style="fill: #0000f5; fill-opacity: 0.1"/>
    <path d="M 177.349525 -114.81342 
L 175.098915 -154.45689 
L 164.781278 -166.374929 
L 166.918927 -126.832997 
z
" clip-path="url(#p81cd104016)" style="fill: #0000f5; fill-opacity: 0.1"/>
    <path d="M 325.5662 93.450724 
L 321.686298 51.511379 
L 311.480113 39.750401 
L 315.249547 81.591729 
z
" clip-path="url(#p81cd104016)" style="fill: #0000f5; fill-opacity: 0.1"/>
    <path d="M 166.918927 -126.832997 
L 164.781278 -166.374929 
L 154.447683 -178.3114 
L 156.472017 -138.871372 
z
" clip-path="url(#p81cd104016)" style="fill: #0000f5; fill-opacity: 0.1"/>
    <path d="M 315.249547 81.591729 
L 311.480113 39.750401 
L 301.25814 27.97123 
L 304.916757 69.714184 
z
" clip-path="url(#p81cd104016)" style="fill: #0000f5; fill-opacity: 0.1"/>
    <path d="M 156.472017 -138.871372 
L 154.447683 -178.3114 
L 144.098094 -190.266347 
L 146.008757 -150.928588 
z
" clip-path="url(#p81cd104016)" style="fill: #0000f5; fill-opacity: 0.1"/>
    <path d="M 304.916757 69.714184 
L 301.25814 27.97123 
L 291.020342 16.173823 
L 294.567792 57.818047 
z
" clip-path="url(#p81cd104016)" style="fill: #0000f5; fill-opacity: 0.1"/>
    <path d="M 146.008757 -150.928588 
L 144.098094 -190.266347 
L 133.732472 -202.239813 
L 135.529109 -163.004689 
z
" clip-path="url(#p81cd104016)" style="fill: #0000f5; fill-opacity: 0.1"/>
    <path d="M 294.567792 57.818047 
L 291.020342 16.173823 
L 280.766682 4.358137 
L 284.202615 45.903274 
z
" clip-path="url(#p81cd104016)" style="fill: #0000f5; fill-opacity: 0.1"/>
    <path d="M 284.202615 45.903274 
L 280.766682 4.358137 
L 270.497124 -7.475868 
L 273.821188 33.969821 
z
" clip-path="url(#p81cd104016)" style="fill: #0000f5; fill-opacity: 0.1"/>
    <path d="M 273.821188 33.969821 
L 270.497124 -7.475868 
L 260.211631 -19.328237 
L 263.423471 22.017643 
z
" clip-path="url(#p81cd104016)" style="fill: #0000f5; fill-opacity: 0.1"/>
    <path d="M 263.423471 22.017643 
L 260.211631 -19.328237 
L 249.910165 -31.199011 
L 253.009427 10.046697 
z
" clip-path="url(#p81cd104016)" style="fill: #0000f5; fill-opacity: 0.1"/>
    <path d="M 253.009427 10.046697 
L 249.910165 -31.199011 
L 239.592689 -43.088235 
L 242.579017 -1.943061 
z
" clip-path="url(#p81cd104016)" style="fill: #0000f5; fill-opacity: 0.1"/>
    <path d="M 242.579017 -1.943061 
L 239.592689 -43.088235 
L 229.259165 -54.99595 
L 232.132203 -13.951677 
z
" clip-path="url(#p81cd104016)" style="fill: #0000f5; fill-opacity: 0.1"/>
    <path d="M 232.132203 -13.951677 
L 229.259165 -54.99595 
L 218.909557 -66.9222 
L 221.668945 -25.979194 
z
" clip-path="url(#p81cd104016)" style="fill: #0000f5; fill-opacity: 0.1"/>
    <path d="M 221.668945 -25.979194 
L 218.909557 -66.9222 
L 208.543827 -78.867029 
L 211.189206 -38.025656 
z
" clip-path="url(#p81cd104016)" style="fill: #0000f5; fill-opacity: 0.1"/>
    <path d="M 211.189206 -38.025656 
L 208.543827 -78.867029 
L 198.161937 -90.830479 
L 200.692945 -50.09111 
z
" clip-path="url(#p81cd104016)" style="fill: #0000f5; fill-opacity: 0.1"/>
    <path d="M 200.692945 -50.09111 
L 198.161937 -90.830479 
L 187.763848 -102.812595 
L 190.180125 -62.1756 
z
" clip-path="url(#p81cd104016)" style="fill: #0000f5; fill-opacity: 0.1"/>
    <path d="M 190.180125 -62.1756 
L 187.763848 -102.812595 
L 177.349525 -114.81342 
L 179.650705 -74.27917 
z
" clip-path="url(#p81cd104016)" style="fill: #0000f5; fill-opacity: 0.1"/>
    <path d="M 339.946378 148.272208 
L 335.866754 105.291213 
L 325.5662 93.450724 
L 329.533298 136.332606 
z
" clip-path="url(#p81cd104016)" style="fill: #0000f5; fill-opacity: 0.1"/>
    <path d="M 179.650705 -74.27917 
L 177.349525 -114.81342 
L 166.918927 -126.832997 
L 169.104646 -86.401867 
z
" clip-path="url(#p81cd104016)" style="fill: #0000f5; fill-opacity: 0.1"/>
    <path d="M 329.533298 136.332606 
L 325.5662 93.450724 
L 315.249547 81.591729 
L 319.103761 124.374135 
z
" clip-path="url(#p81cd104016)" style="fill: #0000f5; fill-opacity: 0.1"/>
    <path d="M 169.104646 -86.401867 
L 166.918927 -126.832997 
L 156.472017 -138.871372 
L 158.54191 -98.543735 
z
" clip-path="url(#p81cd104016)" style="fill: #0000f5; fill-opacity: 0.1"/>
    <path d="M 319.103761 124.374135 
L 315.249547 81.591729 
L 304.916757 69.714184 
L 308.657727 112.396748 
z
" clip-path="url(#p81cd104016)" style="fill: #0000f5; fill-opacity: 0.1"/>
    <path d="M 158.54191 -98.543735 
L 156.472017 -138.871372 
L 146.008757 -150.928588 
L 147.962455 -110.70482 
z
" clip-path="url(#p81cd104016)" style="fill: #0000f5; fill-opacity: 0.1"/>
    <path d="M 308.657727 112.396748 
L 304.916757 69.714184 
L 294.567792 57.818047 
L 298.195157 100.400401 
z
" clip-path="url(#p81cd104016)" style="fill: #0000f5; fill-opacity: 0.1"/>
    <path d="M 147.962455 -110.70482 
L 146.008757 -150.928588 
L 135.529109 -163.004689 
L 137.366243 -122.885168 
z
" clip-path="url(#p81cd104016)" style="fill: #0000f5; fill-opacity: 0.1"/>
    <path d="M 298.195157 100.400401 
L 294.567792 57.818047 
L 284.202615 45.903274 
L 287.716011 88.385048 
z
" clip-path="url(#p81cd104016)" style="fill: #0000f5; fill-opacity: 0.1"/>
    <path d="M 287.716011 88.385048 
L 284.202615 45.903274 
L 273.821188 33.969821 
L 277.220251 76.350645 
z
" clip-path="url(#p81cd104016)" style="fill: #0000f5; fill-opacity: 0.1"/>
    <path d="M 277.220251 76.350645 
L 273.821188 33.969821 
L 263.423471 22.017643 
L 266.707837 64.297147 
z
" clip-path="url(#p81cd104016)" style="fill: #0000f5; fill-opacity: 0.1"/>
    <path d="M 266.707837 64.297147 
L 263.423471 22.017643 
L 253.009427 10.046697 
L 256.178728 52.224507 
z
" clip-path="url(#p81cd104016)" style="fill: #0000f5; fill-opacity: 0.1"/>
    <path d="M 256.178728 52.224507 
L 253.009427 10.046697 
L 242.579017 -1.943061 
L 245.632886 40.132681 
z
" clip-path="url(#p81cd104016)" style="fill: #0000f5; fill-opacity: 0.1"/>
    <path d="M 245.632886 40.132681 
L 242.579017 -1.943061 
L 232.132203 -13.951677 
L 235.07027 28.021621 
z
" clip-path="url(#p81cd104016)" style="fill: #0000f5; fill-opacity: 0.1"/>
    <path d="M 235.07027 28.021621 
L 232.132203 -13.951677 
L 221.668945 -25.979194 
L 224.490841 15.891283 
z
" clip-path="url(#p81cd104016)" style="fill: #0000f5; fill-opacity: 0.1"/>
    <path d="M 224.490841 15.891283 
L 221.668945 -25.979194 
L 211.189206 -38.025656 
L 213.894557 3.741621 
z
" clip-path="url(#p81cd104016)" style="fill: #0000f5; fill-opacity: 0.1"/>
    <path d="M 213.894557 3.741621 
L 211.189206 -38.025656 
L 200.692945 -50.09111 
L 203.281379 -8.427412 
z
" clip-path="url(#p81cd104016)" style="fill: #0000f5; fill-opacity: 0.1"/>
    <path d="M 203.281379 -8.427412 
L 200.692945 -50.09111 
L 190.180125 -62.1756 
L 192.651267 -20.615863 
z
" clip-path="url(#p81cd104016)" style="fill: #0000f5; fill-opacity: 0.1"/>
    <path d="M 192.651267 -20.615863 
L 190.180125 -62.1756 
L 179.650705 -74.27917 
L 182.004179 -32.823777 
z
" clip-path="url(#p81cd104016)" style="fill: #0000f5; fill-opacity: 0.1"/>
    <path d="M 344.118654 192.229348 
L 339.946378 148.272208 
L 329.533298 136.332606 
L 333.590566 180.189162 
z
" clip-path="url(#p81cd104016)" style="fill: #0000f5; fill-opacity: 0.1"/>
    <path d="M 182.004179 -32.823777 
L 179.650705 -74.27917 
L 169.104646 -86.401867 
L 171.340076 -45.051202 
z
" clip-path="url(#p81cd104016)" style="fill: #0000f5; fill-opacity: 0.1"/>
    <path d="M 333.590566 180.189162 
L 329.533298 136.332606 
L 319.103761 124.374135 
L 323.045649 168.12973 
z
" clip-path="url(#p81cd104016)" style="fill: #0000f5; fill-opacity: 0.1"/>
    <path d="M 171.340076 -45.051202 
L 169.104646 -86.401867 
L 158.54191 -98.543735 
L 160.658915 -57.298184 
z
" clip-path="url(#p81cd104016)" style="fill: #0000f5; fill-opacity: 0.1"/>
    <path d="M 323.045649 168.12973 
L 319.103761 124.374135 
L 308.657727 112.396748 
L 312.483863 156.051005 
z
" clip-path="url(#p81cd104016)" style="fill: #0000f5; fill-opacity: 0.1"/>
    <path d="M 160.658915 -57.298184 
L 158.54191 -98.543735 
L 147.962455 -110.70482 
L 149.960657 -69.56477 
z
" clip-path="url(#p81cd104016)" style="fill: #0000f5; fill-opacity: 0.1"/>
    <path d="M 312.483863 156.051005 
L 308.657727 112.396748 
L 298.195157 100.400401 
L 301.905167 143.952943 
z
" clip-path="url(#p81cd104016)" style="fill: #0000f5; fill-opacity: 0.1"/>
    <path d="M 149.960657 -69.56477 
L 147.962455 -110.70482 
L 137.366243 -122.885168 
L 139.245261 -81.851007 
z
" clip-path="url(#p81cd104016)" style="fill: #0000f5; fill-opacity: 0.1"/>
    <path d="M 301.905167 143.952943 
L 298.195157 100.400401 
L 287.716011 88.385048 
L 291.30952 131.835495 
z
" clip-path="url(#p81cd104016)" style="fill: #0000f5; fill-opacity: 0.1"/>
    <path d="M 291.30952 131.835495 
L 287.716011 88.385048 
L 277.220251 76.350645 
L 280.696883 119.698616 
z
" clip-path="url(#p81cd104016)" style="fill: #0000f5; fill-opacity: 0.1"/>
    <path d="M 280.696883 119.698616 
L 277.220251 76.350645 
L 266.707837 64.297147 
L 270.067213 107.542259 
z
" clip-path="url(#p81cd104016)" style="fill: #0000f5; fill-opacity: 0.1"/>
    <path d="M 270.067213 107.542259 
L 266.707837 64.297147 
L 256.178728 52.224507 
L 259.420471 95.366377 
z
" clip-path="url(#p81cd104016)" style="fill: #0000f5; fill-opacity: 0.1"/>
    <path d="M 259.420471 95.366377 
L 256.178728 52.224507 
L 245.632886 40.132681 
L 248.756614 83.170922 
z
" clip-path="url(#p81cd104016)" style="fill: #0000f5; fill-opacity: 0.1"/>
    <path d="M 248.756614 83.170922 
L 245.632886 40.132681 
L 235.07027 28.021621 
L 238.075601 70.955847 
z
" clip-path="url(#p81cd104016)" style="fill: #0000f5; fill-opacity: 0.1"/>
    <path d="M 238.075601 70.955847 
L 235.07027 28.021621 
L 224.490841 15.891283 
L 227.377392 58.721106 
z
" clip-path="url(#p81cd104016)" style="fill: #0000f5; fill-opacity: 0.1"/>
    <path d="M 227.377392 58.721106 
L 224.490841 15.891283 
L 213.894557 3.741621 
L 216.661944 46.466651 
z
" clip-path="url(#p81cd104016)" style="fill: #0000f5; fill-opacity: 0.1"/>
    <path d="M 216.661944 46.466651 
L 213.894557 3.741621 
L 203.281379 -8.427412 
L 205.929216 34.192433 
z
" clip-path="url(#p81cd104016)" style="fill: #0000f5; fill-opacity: 0.1"/>
    <path d="M 205.929216 34.192433 
L 203.281379 -8.427412 
L 192.651267 -20.615863 
L 195.179166 21.898405 
z
" clip-path="url(#p81cd104016)" style="fill: #0000f5; fill-opacity: 0.1"/>
    <path d="M 195.179166 21.898405 
L 192.651267 -20.615863 
L 182.004179 -32.823777 
L 184.411751 9.584519 
z
" clip-path="url(#p81cd104016)" style="fill: #0000f5; fill-opacity: 0.1"/>
    <path d="M 348.386776 237.196271 
L 344.118654 192.229348 
L 333.590566 180.189162 
L 337.741112 225.054003 
z
" clip-path="url(#p81cd104016)" style="fill: #0000f5; fill-opacity: 0.1"/>
    <path d="M 184.411751 9.584519 
L 182.004179 -32.823777 
L 171.340076 -45.051202 
L 173.626931 -2.749272 
z
" clip-path="url(#p81cd104016)" style="fill: #0000f5; fill-opacity: 0.1"/>
    <path d="M 337.741112 225.054003 
L 333.590566 180.189162 
L 323.045649 168.12973 
L 327.078236 212.892102 
z
" clip-path="url(#p81cd104016)" style="fill: #0000f5; fill-opacity: 0.1"/>
    <path d="M 173.626931 -2.749272 
L 171.340076 -45.051202 
L 160.658915 -57.298184 
L 162.824662 -15.103019 
z
" clip-path="url(#p81cd104016)" style="fill: #0000f5; fill-opacity: 0.1"/>
    <path d="M 327.078236 212.892102 
L 323.045649 168.12973 
L 312.483863 156.051005 
L 316.398106 200.710522 
z
" clip-path="url(#p81cd104016)" style="fill: #0000f5; fill-opacity: 0.1"/>
    <path d="M 162.824662 -15.103019 
L 160.658915 -57.298184 
L 149.960657 -69.56477 
L 152.004902 -27.476768 
z
" clip-path="url(#p81cd104016)" style="fill: #0000f5; fill-opacity: 0.1"/>
    <path d="M 316.398106 200.710522 
L 312.483863 156.051005 
L 301.905167 143.952943 
L 305.700679 188.509214 
z
" clip-path="url(#p81cd104016)" style="fill: #0000f5; fill-opacity: 0.1"/>
    <path d="M 152.004902 -27.476768 
L 149.960657 -69.56477 
L 139.245261 -81.851007 
L 141.167609 -39.870568 
z
" clip-path="url(#p81cd104016)" style="fill: #0000f5; fill-opacity: 0.1"/>
    <path d="M 305.700679 188.509214 
L 301.905167 143.952943 
L 291.30952 131.835495 
L 294.985914 176.288129 
z
" clip-path="url(#p81cd104016)" style="fill: #0000f5; fill-opacity: 0.1"/>
    <path d="M 294.985914 176.288129 
L 291.30952 131.835495 
L 280.696883 119.698616 
L 284.253768 164.047221 
z
" clip-path="url(#p81cd104016)" style="fill: #0000f5; fill-opacity: 0.1"/>
    <path d="M 284.253768 164.047221 
L 280.696883 119.698616 
L 270.067213 107.542259 
L 273.5042 151.786441 
z
" clip-path="url(#p81cd104016)" style="fill: #0000f5; fill-opacity: 0.1"/>
    <path d="M 273.5042 151.786441 
L 270.067213 107.542259 
L 259.420471 95.366377 
L 262.737166 139.505741 
z
" clip-path="url(#p81cd104016)" style="fill: #0000f5; fill-opacity: 0.1"/>
    <path d="M 262.737166 139.505741 
L 259.420471 95.366377 
L 248.756614 83.170922 
L 251.952625 127.205071 
z
" clip-path="url(#p81cd104016)" style="fill: #0000f5; fill-opacity: 0.1"/>
    <path d="M 251.952625 127.205071 
L 248.756614 83.170922 
L 238.075601 70.955847 
L 241.150533 114.884383 
z
" clip-path="url(#p81cd104016)" style="fill: #0000f5; fill-opacity: 0.1"/>
    <path d="M 241.150533 114.884383 
L 238.075601 70.955847 
L 227.377392 58.721106 
L 230.330847 102.543628 
z
" clip-path="url(#p81cd104016)" style="fill: #0000f5; fill-opacity: 0.1"/>
    <path d="M 230.330847 102.543628 
L 227.377392 58.721106 
L 216.661944 46.466651 
L 219.493525 90.182758 
z
" clip-path="url(#p81cd104016)" style="fill: #0000f5; fill-opacity: 0.1"/>
    <path d="M 219.493525 90.182758 
L 216.661944 46.466651 
L 205.929216 34.192433 
L 208.638524 77.801722 
z
" clip-path="url(#p81cd104016)" style="fill: #0000f5; fill-opacity: 0.1"/>
    <path d="M 208.638524 77.801722 
L 205.929216 34.192433 
L 195.179166 21.898405 
L 197.765799 65.400472 
z
" clip-path="url(#p81cd104016)" style="fill: #0000f5; fill-opacity: 0.1"/>
    <path d="M 197.765799 65.400472 
L 195.179166 21.898405 
L 184.411751 9.584519 
L 186.875308 52.978957 
z
" clip-path="url(#p81cd104016)" style="fill: #0000f5; fill-opacity: 0.1"/>
    <path d="M 352.754084 283.208175 
L 348.386776 237.196271 
L 337.741112 225.054003 
L 341.988192 270.962305 
z
" clip-path="url(#p81cd104016)" style="fill: #0000f5; fill-opacity: 0.1"/>
    <path d="M 186.875308 52.978957 
L 184.411751 9.584519 
L 173.626931 -2.749272 
L 175.967007 40.537129 
z
" clip-path="url(#p81cd104016)" style="fill: #0000f5; fill-opacity: 0.1"/>
    <path d="M 341.988192 270.962305 
L 337.741112 225.054003 
L 327.078236 212.892102 
L 331.20469 258.696405 
z
" clip-path="url(#p81cd104016)" style="fill: #0000f5; fill-opacity: 0.1"/>
    <path d="M 175.967007 40.537129 
L 173.626931 -2.749272 
L 162.824662 -15.103019 
L 165.040852 28.074938 
z
" clip-path="url(#p81cd104016)" style="fill: #0000f5; fill-opacity: 0.1"/>
    <path d="M 331.20469 258.696405 
L 327.078236 212.892102 
L 316.398106 200.710522 
L 320.403535 246.410424 
z
" clip-path="url(#p81cd104016)" style="fill: #0000f5; fill-opacity: 0.1"/>
    <path d="M 165.040852 28.074938 
L 162.824662 -15.103019 
L 152.004902 -27.476768 
L 154.0968 15.592332 
z
" clip-path="url(#p81cd104016)" style="fill: #0000f5; fill-opacity: 0.1"/>
    <path d="M 320.403535 246.410424 
L 316.398106 200.710522 
L 305.700679 188.509214 
L 309.584684 234.104315 
z
" clip-path="url(#p81cd104016)" style="fill: #0000f5; fill-opacity: 0.1"/>
    <path d="M 154.0968 15.592332 
L 152.004902 -27.476768 
L 141.167609 -39.870568 
L 143.134806 3.089263 
z
" clip-path="url(#p81cd104016)" style="fill: #0000f5; fill-opacity: 0.1"/>
    <path d="M 309.584684 234.104315 
L 305.700679 188.509214 
L 294.985914 176.288129 
L 298.748093 221.778028 
z
" clip-path="url(#p81cd104016)" style="fill: #0000f5; fill-opacity: 0.1"/>
    <path d="M 298.748093 221.778028 
L 294.985914 176.288129 
L 284.253768 164.047221 
L 287.893719 209.431513 
z
" clip-path="url(#p81cd104016)" style="fill: #0000f5; fill-opacity: 0.1"/>
    <path d="M 287.893719 209.431513 
L 284.253768 164.047221 
L 273.5042 151.786441 
L 277.021517 197.06472 
z
" clip-path="url(#p81cd104016)" style="fill: #0000f5; fill-opacity: 0.1"/>
    <path d="M 277.021517 197.06472 
L 273.5042 151.786441 
L 262.737166 139.505741 
L 266.131445 184.677599 
z
" clip-path="url(#p81cd104016)" style="fill: #0000f5; fill-opacity: 0.1"/>
    <path d="M 266.131445 184.677599 
L 262.737166 139.505741 
L 251.952625 127.205071 
L 255.223458 172.2701 
z
" clip-path="url(#p81cd104016)" style="fill: #0000f5; fill-opacity: 0.1"/>
    <path d="M 255.223458 172.2701 
L 251.952625 127.205071 
L 241.150533 114.884383 
L 244.297511 159.842173 
z
" clip-path="url(#p81cd104016)" style="fill: #0000f5; fill-opacity: 0.1"/>
    <path d="M 244.297511 159.842173 
L 241.150533 114.884383 
L 230.330847 102.543628 
L 233.35356 147.393766 
z
" clip-path="url(#p81cd104016)" style="fill: #0000f5; fill-opacity: 0.1"/>
    <path d="M 233.35356 147.393766 
L 230.330847 102.543628 
L 219.493525 90.182758 
L 222.39156 134.924831 
z
" clip-path="url(#p81cd104016)" style="fill: #0000f5; fill-opacity: 0.1"/>
    <path d="M 222.39156 134.924831 
L 219.493525 90.182758 
L 208.638524 77.801722 
L 211.411468 122.435315 
z
" clip-path="url(#p81cd104016)" style="fill: #0000f5; fill-opacity: 0.1"/>
    <path d="M 211.411468 122.435315 
L 208.638524 77.801722 
L 197.765799 65.400472 
L 200.413238 109.925168 
z
" clip-path="url(#p81cd104016)" style="fill: #0000f5; fill-opacity: 0.1"/>
    <path d="M 200.413238 109.925168 
L 197.765799 65.400472 
L 186.875308 52.978957 
L 189.396825 97.394338 
z
" clip-path="url(#p81cd104016)" style="fill: #0000f5; fill-opacity: 0.1"/>
    <path d="M 357.224077 330.301916 
L 352.754084 283.208175 
L 341.988192 270.962305 
L 346.335211 317.9509 
z
" clip-path="url(#p81cd104016)" style="fill: #0000f5; fill-opacity: 0.1"/>
    <path d="M 189.396825 97.394338 
L 186.875308 52.978957 
L 175.967007 40.537129 
L 178.362184 84.842775 
z
" clip-path="url(#p81cd104016)" style="fill: #0000f5; fill-opacity: 0.1"/>
    <path d="M 346.335211 317.9509 
L 341.988192 270.962305 
L 331.20469 258.696405 
L 335.428325 305.579444 
z
" clip-path="url(#p81cd104016)" style="fill: #0000f5; fill-opacity: 0.1"/>
    <path d="M 178.362184 84.842775 
L 175.967007 40.537129 
L 165.040852 28.074938 
L 167.309269 72.270426 
z
" clip-path="url(#p81cd104016)" style="fill: #0000f5; fill-opacity: 0.1"/>
    <path d="M 335.428325 305.579444 
L 331.20469 258.696405 
L 320.403535 246.410424 
L 324.503374 293.187497 
z
" clip-path="url(#p81cd104016)" style="fill: #0000f5; fill-opacity: 0.1"/>
    <path d="M 167.309269 72.270426 
L 165.040852 28.074938 
L 154.0968 15.592332 
L 156.238036 59.67724 
z
" clip-path="url(#p81cd104016)" style="fill: #0000f5; fill-opacity: 0.1"/>
    <path d="M 324.503374 293.187497 
L 320.403535 246.410424 
L 309.584684 234.104315 
L 313.560312 280.775008 
z
" clip-path="url(#p81cd104016)" style="fill: #0000f5; fill-opacity: 0.1"/>
    <path d="M 156.238036 59.67724 
L 154.0968 15.592332 
L 143.134806 3.089263 
L 145.148439 47.063166 
z
" clip-path="url(#p81cd104016)" style="fill: #0000f5; fill-opacity: 0.1"/>
    <path d="M 313.560312 280.775008 
L 309.584684 234.104315 
L 298.748093 221.778028 
L 302.599095 268.341926 
z
" clip-path="url(#p81cd104016)" style="fill: #0000f5; fill-opacity: 0.1"/>
    <path d="M 302.599095 268.341926 
L 298.748093 221.778028 
L 287.893719 209.431513 
L 291.619678 255.888199 
z
" clip-path="url(#p81cd104016)" style="fill: #0000f5; fill-opacity: 0.1"/>
    <path d="M 291.619678 255.888199 
L 287.893719 209.431513 
L 277.021517 197.06472 
L 280.622015 243.413777 
z
" clip-path="url(#p81cd104016)" style="fill: #0000f5; fill-opacity: 0.1"/>
    <path d="M 280.622015 243.413777 
L 277.021517 197.06472 
L 266.131445 184.677599 
L 269.606061 230.918608 
z
" clip-path="url(#p81cd104016)" style="fill: #0000f5; fill-opacity: 0.1"/>
    <path d="M 269.606061 230.918608 
L 266.131445 184.677599 
L 255.223458 172.2701 
L 258.57177 218.402639 
z
" clip-path="url(#p81cd104016)" style="fill: #0000f5; fill-opacity: 0.1"/>
    <path d="M 258.57177 218.402639 
L 255.223458 172.2701 
L 244.297511 159.842173 
L 247.519097 205.865819 
z
" clip-path="url(#p81cd104016)" style="fill: #0000f5; fill-opacity: 0.1"/>
    <path d="M 247.519097 205.865819 
L 244.297511 159.842173 
L 233.35356 147.393766 
L 236.447994 193.308096 
z
" clip-path="url(#p81cd104016)" style="fill: #0000f5; fill-opacity: 0.1"/>
    <path d="M 236.447994 193.308096 
L 233.35356 147.393766 
L 222.39156 134.924831 
L 225.358417 180.729417 
z
" clip-path="url(#p81cd104016)" style="fill: #0000f5; fill-opacity: 0.1"/>
    <path d="M 225.358417 180.729417 
L 222.39156 134.924831 
L 211.411468 122.435315 
L 214.250318 168.12973 
z
" clip-path="url(#p81cd104016)" style="fill: #0000f5; fill-opacity: 0.1"/>
    <path d="M 214.250318 168.12973 
L 211.411468 122.435315 
L 200.413238 109.925168 
L 203.123652 155.508982 
z
" clip-path="url(#p81cd104016)" style="fill: #0000f5; fill-opacity: 0.1"/>
    <path d="M 203.123652 155.508982 
L 200.413238 109.925168 
L 189.396825 97.394338 
L 191.978371 142.86712 
z
" clip-path="url(#p81cd104016)" style="fill: #0000f5; fill-opacity: 0.1"/>
    <path d="M 361.800419 378.516101 
L 357.224077 330.301916 
L 346.335211 317.9509 
L 350.785741 366.058373 
z
" clip-path="url(#p81cd104016)" style="fill: #0000f5; fill-opacity: 0.1"/>
    <path d="M 191.978371 142.86712 
L 189.396825 97.394338 
L 178.362184 84.842775 
L 180.81443 130.204092 
z
" clip-path="url(#p81cd104016)" style="fill: #0000f5; fill-opacity: 0.1"/>
    <path d="M 350.785741 366.058373 
L 346.335211 317.9509 
L 335.428325 305.579444 
L 339.752617 353.579783 
z
" clip-path="url(#p81cd104016)" style="fill: #0000f5; fill-opacity: 0.1"/>
    <path d="M 180.81443 130.204092 
L 178.362184 84.842775 
L 167.309269 72.270426 
L 169.631781 117.519844 
z
" clip-path="url(#p81cd104016)" style="fill: #0000f5; fill-opacity: 0.1"/>
    <path d="M 339.752617 353.579783 
L 335.428325 305.579444 
L 324.503374 293.187497 
L 328.701 341.080277 
z
" clip-path="url(#p81cd104016)" style="fill: #0000f5; fill-opacity: 0.1"/>
    <path d="M 169.631781 117.519844 
L 167.309269 72.270426 
L 156.238036 59.67724 
L 158.430377 104.814322 
z
" clip-path="url(#p81cd104016)" style="fill: #0000f5; fill-opacity: 0.1"/>
    <path d="M 328.701 341.080277 
L 324.503374 293.187497 
L 313.560312 280.775008 
L 317.630845 328.559805 
z
" clip-path="url(#p81cd104016)" style="fill: #0000f5; fill-opacity: 0.1"/>
    <path d="M 158.430377 104.814322 
L 156.238036 59.67724 
L 145.148439 47.063166 
L 147.210171 92.087474 
z
" clip-path="url(#p81cd104016)" style="fill: #0000f5; fill-opacity: 0.1"/>
    <path d="M 317.630845 328.559805 
L 313.560312 280.775008 
L 302.599095 268.341926 
L 306.542105 316.018312 
z
" clip-path="url(#p81cd104016)" style="fill: #0000f5; fill-opacity: 0.1"/>
    <path d="M 306.542105 316.018312 
L 302.599095 268.341926 
L 291.619678 255.888199 
L 295.434732 303.455745 
z
" clip-path="url(#p81cd104016)" style="fill: #0000f5; fill-opacity: 0.1"/>
    <path d="M 295.434732 303.455745 
L 291.619678 255.888199 
L 280.622015 243.413777 
L 284.30868 290.872052 
z
" clip-path="url(#p81cd104016)" style="fill: #0000f5; fill-opacity: 0.1"/>
    <path d="M 284.30868 290.872052 
L 280.622015 243.413777 
L 269.606061 230.918608 
L 273.163901 278.26718 
z
" clip-path="url(#p81cd104016)" style="fill: #0000f5; fill-opacity: 0.1"/>
    <path d="M 273.163901 278.26718 
L 269.606061 230.918608 
L 258.57177 218.402639 
L 262.000349 265.641074 
z
" clip-path="url(#p81cd104016)" style="fill: #0000f5; fill-opacity: 0.1"/>
    <path d="M 262.000349 265.641074 
L 258.57177 218.402639 
L 247.519097 205.865819 
L 250.817976 252.993681 
z
" clip-path="url(#p81cd104016)" style="fill: #0000f5; fill-opacity: 0.1"/>
    <path d="M 250.817976 252.993681 
L 247.519097 205.865819 
L 236.447994 193.308096 
L 239.616734 240.324947 
z
" clip-path="url(#p81cd104016)" style="fill: #0000f5; fill-opacity: 0.1"/>
    <path d="M 239.616734 240.324947 
L 236.447994 193.308096 
L 225.358417 180.729417 
L 228.396575 227.634818 
z
" clip-path="url(#p81cd104016)" style="fill: #0000f5; fill-opacity: 0.1"/>
    <path d="M 228.396575 227.634818 
L 225.358417 180.729417 
L 214.250318 168.12973 
L 217.157451 214.92324 
z
" clip-path="url(#p81cd104016)" style="fill: #0000f5; fill-opacity: 0.1"/>
    <path d="M 217.157451 214.92324 
L 214.250318 168.12973 
L 203.123652 155.508982 
L 205.899315 202.190159 
z
" clip-path="url(#p81cd104016)" style="fill: #0000f5; fill-opacity: 0.1"/>
    <path d="M 205.899315 202.190159 
L 203.123652 155.508982 
L 191.978371 142.86712 
L 194.622118 189.435519 
z
" clip-path="url(#p81cd104016)" style="fill: #0000f5; fill-opacity: 0.1"/>
    <path d="M 194.622118 189.435519 
L 191.978371 142.86712 
L 180.81443 130.204092 
L 183.325811 176.659266 
z
" clip-path="url(#p81cd104016)" style="fill: #0000f5; fill-opacity: 0.1"/>
    <path d="M 183.325811 176.659266 
L 180.81443 130.204092 
L 169.631781 117.519844 
L 172.010346 163.861345 
z
" clip-path="url(#p81cd104016)" style="fill: #0000f5; fill-opacity: 0.1"/>
    <path d="M 172.010346 163.861345 
L 169.631781 117.519844 
L 158.430377 104.814322 
L 160.675675 151.041701 
z
" clip-path="url(#p81cd104016)" style="fill: #0000f5; fill-opacity: 0.1"/>
    <path d="M 160.675675 151.041701 
L 158.430377 104.814322 
L 147.210171 92.087474 
L 149.321747 138.200278 
z
" clip-path="url(#p81cd104016)" style="fill: #0000f5; fill-opacity: 0.1"/>
   </g>
   <g id="legend_1">
    <g id="patch_6">
     <path d="M 357.840076 67.305115 
L 396.2 67.305115 
Q 398.2 67.305115 398.2 65.305115 
L 398.2 7 
Q 398.2 5 396.2 5 
L 357.840076 5 
Q 355.840076 5 355.840076 7 
L 355.840076 65.305115 
Q 355.840076 67.305115 357.840076 67.305115 
z
" style="fill: #ffffff; opacity: 0.8; stroke: #cccccc; stroke-linejoin: miter"/>
    </g>
    <g id="line2d_25">
     <path d="M 359.840076 12.5 
L 369.840076 12.5 
L 379.840076 12.5 
" style="fill: none; stroke: #ff0000; stroke-width: 1.5; stroke-linecap: square"/>
    </g>
    <g id="text_21">
     <!-- $\vec{a}$ -->
     <g transform="translate(387.840076 16)scale(0.1 -0.1)">
      <defs>
       <path id="CMMI12-7e" d="M 3424 3835 
C 3347 3764 3110 3540 3110 3451 
C 3110 3387 3168 3329 3232 3329 
C 3290 3329 3315 3368 3360 3432 
C 3514 3624 3686 3745 3834 3828 
C 3898 3867 3942 3886 3942 3956 
C 3942 4014 3891 4046 3853 4078 
C 3674 4200 3629 4372 3610 4449 
C 3590 4500 3571 4577 3482 4577 
C 3443 4577 3366 4552 3366 4456 
C 3366 4398 3405 4244 3526 4072 
L 1376 4072 
C 1267 4072 1158 4072 1158 3950 
C 1158 3835 1274 3835 1376 3835 
L 3424 3835 
z
" transform="scale(0.015625)"/>
       <path id="CMMI12-61" d="M 1926 760 
C 1894 651 1894 639 1805 517 
C 1664 338 1382 64 1082 64 
C 819 64 672 300 672 677 
C 672 1028 870 1743 992 2012 
C 1210 2459 1510 2689 1760 2689 
C 2182 2689 2266 2165 2266 2114 
C 2266 2108 2246 2024 2240 2012 
L 1926 760 
z
M 2336 2395 
C 2266 2561 2093 2816 1760 2816 
C 1037 2816 256 1884 256 939 
C 256 307 627 -64 1062 -64 
C 1414 -64 1715 211 1894 422 
C 1958 45 2259 -64 2451 -64 
C 2643 -64 2797 51 2912 281 
C 3014 498 3104 888 3104 913 
C 3104 945 3078 971 3040 971 
C 2982 971 2976 939 2950 843 
C 2854 466 2733 64 2470 64 
C 2285 64 2272 230 2272 358 
C 2272 505 2291 575 2349 824 
C 2394 984 2426 1124 2477 1309 
C 2714 2267 2771 2497 2771 2535 
C 2771 2625 2701 2695 2605 2695 
C 2400 2695 2349 2472 2336 2395 
z
" transform="scale(0.015625)"/>
      </defs>
      <use xlink:href="#CMMI12-7e" transform="scale(0.996264)"/>
      <use xlink:href="#CMMI12-61" transform="translate(6.445738 0)scale(0.996264)"/>
     </g>
    </g>
    <g id="line2d_26">
     <path d="M 359.840076 27.24679 
L 369.840076 27.24679 
L 379.840076 27.24679 
" style="fill: none; stroke: #00ff00; stroke-width: 1.5; stroke-linecap: square"/>
    </g>
    <g id="text_22">
     <!-- $\vec{b}$ -->
     <g transform="translate(387.840076 30.74679)scale(0.1 -0.1)">
      <defs>
       <path id="CMMI12-62" d="M 1478 4257 
C 1485 4283 1498 4321 1498 4352 
C 1498 4416 1434 4416 1421 4416 
C 1414 4416 1184 4393 1069 4377 
C 960 4377 864 4358 749 4358 
C 595 4345 550 4339 550 4224 
C 550 4160 614 4160 678 4160 
C 1005 4160 1005 4103 1005 4040 
C 1005 3996 954 3811 928 3696 
L 774 3085 
C 710 2831 346 1387 320 1272 
C 288 1114 288 1005 288 922 
C 288 274 653 -64 1069 -64 
C 1811 -64 2579 888 2579 1814 
C 2579 2401 2246 2816 1766 2816 
C 1434 2816 1133 2542 1011 2414 
L 1478 4257 
z
M 1075 64 
C 870 64 646 217 646 715 
C 646 926 666 1047 781 1494 
C 800 1577 902 1986 928 2069 
C 941 2120 1318 2689 1754 2689 
C 2035 2689 2163 2408 2163 2076 
C 2163 1769 1984 1047 1824 715 
C 1664 370 1370 64 1075 64 
z
" transform="scale(0.015625)"/>
      </defs>
      <use xlink:href="#CMMI12-7e" transform="translate(0 26.29016)scale(0.996264)"/>
      <use xlink:href="#CMMI12-62" transform="translate(11.311737 0)scale(0.996264)"/>
     </g>
    </g>
    <g id="line2d_27">
     <path d="M 359.840076 41.183968 
L 369.840076 41.183968 
L 379.840076 41.183968 
" style="fill: none; stroke: #0016ff; stroke-width: 1.5; stroke-linecap: square"/>
    </g>
    <g id="text_23">
     <!-- $\vec{c}$ -->
     <g transform="translate(387.840076 44.683968)scale(0.1 -0.1)">
      <defs>
       <path id="CMMI12-63" d="M 2502 2431 
C 2381 2431 2323 2431 2234 2355 
C 2195 2323 2125 2227 2125 2125 
C 2125 1997 2221 1920 2342 1920 
C 2496 1920 2669 2044 2669 2292 
C 2669 2588 2374 2816 1933 2816 
C 1094 2816 256 1903 256 996 
C 256 441 602 -64 1254 -64 
C 2125 -64 2675 622 2675 706 
C 2675 744 2637 776 2611 776 
C 2592 776 2586 770 2528 713 
C 2118 162 1510 64 1267 64 
C 826 64 685 446 685 764 
C 685 988 794 1605 1024 2039 
C 1190 2338 1536 2682 1939 2682 
C 2022 2682 2374 2682 2502 2431 
z
" transform="scale(0.015625)"/>
      </defs>
      <use xlink:href="#CMMI12-7e" transform="scale(0.996264)"/>
      <use xlink:href="#CMMI12-63" transform="translate(5.638615 0)scale(0.996264)"/>
     </g>
    </g>
    <g id="line2d_28">
     <path d="M 359.840076 57.867937 
L 369.840076 57.867937 
L 379.840076 57.867937 
" style="fill: none; stroke: #f400ff; stroke-width: 1.5; stroke-linecap: square"/>
    </g>
    <g id="text_24">
     <!-- $\vec{f}$ -->
     <g transform="translate(387.840076 61.367937)scale(0.1 -0.1)">
      <defs>
       <path id="CMMI12-66" d="M 2854 2566 
C 2982 2566 3034 2566 3034 2688 
C 3034 2752 2982 2752 2867 2752 
L 2349 2752 
C 2470 3429 2560 3897 2611 4107 
C 2650 4265 2784 4416 2950 4416 
C 3085 4416 3219 4358 3283 4298 
C 3034 4272 2957 4082 2957 3969 
C 2957 3837 3053 3759 3174 3759 
C 3302 3759 3494 3870 3494 4119 
C 3494 4393 3226 4544 2944 4544 
C 2669 4544 2400 4334 2272 4078 
C 2157 3848 2093 3611 1946 2752 
L 1517 2752 
C 1395 2752 1331 2752 1331 2637 
C 1331 2566 1370 2566 1498 2566 
L 1907 2566 
C 1792 1976 1530 542 1382 -137 
C 1274 -689 1178 -1152 858 -1152 
C 838 -1152 653 -1152 538 -1031 
C 864 -1005 864 -726 864 -720 
C 864 -593 768 -517 646 -517 
C 518 -517 326 -625 326 -867 
C 326 -1140 608 -1280 858 -1280 
C 1510 -1280 1779 -118 1850 199 
C 1965 688 2278 2376 2310 2566 
L 2854 2566 
z
" transform="scale(0.015625)"/>
      </defs>
      <use xlink:href="#CMMI12-7e" transform="translate(13.568792 26.29016)scale(0.996264)"/>
      <use xlink:href="#CMMI12-66" transform="scale(0.996264)"/>
     </g>
    </g>
   </g>
  </g>
 </g>
 <defs>
  <clipPath id="p81cd104016">
   <rect x="57.6" y="0" width="345.6" height="345.6"/>
  </clipPath>
 </defs>
</svg>
