<?xml version="1.0" encoding="utf-8" standalone="no"?>
<!DOCTYPE svg PUBLIC "-//W3C//DTD SVG 1.1//EN"
  "http://www.w3.org/Graphics/SVG/1.1/DTD/svg11.dtd">
<svg xmlns:xlink="http://www.w3.org/1999/xlink" width="460.8pt" height="345.6pt" viewBox="0 0 460.8 345.6" xmlns="http://www.w3.org/2000/svg" version="1.1">
 <metadata>
  <rdf:RDF xmlns:dc="http://purl.org/dc/elements/1.1/" xmlns:cc="http://creativecommons.org/ns#" xmlns:rdf="http://www.w3.org/1999/02/22-rdf-syntax-ns#">
   <cc:Work>
    <dc:type rdf:resource="http://purl.org/dc/dcmitype/StillImage"/>
    <dc:date>2022-07-12T15:41:44.660814</dc:date>
    <dc:format>image/svg+xml</dc:format>
    <dc:creator>
     <cc:Agent>
      <dc:title>Matplotlib v3.5.1, https://matplotlib.org/</dc:title>
     </cc:Agent>
    </dc:creator>
   </cc:Work>
  </rdf:RDF>
 </metadata>
 <defs>
  <style type="text/css">*{stroke-linejoin: round; stroke-linecap: butt}</style>
 </defs>
 <g id="figure_1">
  <g id="patch_1">
   <path d="M 0 345.6 
L 460.8 345.6 
L 460.8 0 
L 0 0 
z
" style="fill: #ffffff"/>
  </g>
  <g id="patch_2">
   <path d="M 57.6 345.6 
L 403.2 345.6 
L 403.2 0 
L 57.6 0 
z
" style="fill: #ffffff"/>
  </g>
  <g id="pane3d_1">
   <g id="patch_3">
    <path d="M 327.9581 246.406569 
L 119.007769 247.331629 
L 119.007769 88.92783 
L 327.9581 89.852891 
" style="fill: #f2f2f2; opacity: 0.5; stroke: #f2f2f2; stroke-linejoin: miter"/>
   </g>
  </g>
  <g id="pane3d_2">
   <g id="patch_4">
    <path d="M 364.117665 256.192615 
L 327.9581 246.406569 
L 327.9581 89.852891 
L 364.117665 80.066844 
" style="fill: #e6e6e6; opacity: 0.5; stroke: #e6e6e6; stroke-linejoin: miter"/>
   </g>
  </g>
  <g id="pane3d_3">
   <g id="patch_5">
    <path d="M 364.117665 256.192615 
L 327.9581 246.406569 
L 119.007769 247.331629 
L 129.178335 257.365166 
" style="fill: #ececec; opacity: 0.5; stroke: #ececec; stroke-linejoin: miter"/>
   </g>
  </g>
  <g id="axis3d_1">
   <g id="line2d_1">
    <path d="M 119.007769 247.331629 
L 129.178335 257.365166 
" style="fill: none; stroke: #000000; stroke-width: 0.8; stroke-linecap: square"/>
   </g>
   <g id="text_1">
    <!-- x -->
    <g transform="translate(89.061356 279.53249)scale(0.16 -0.16)">
     <defs>
      <path id="CMSS17-78" d="M 1587 1414 
L 2656 2739 
L 2099 2739 
L 1363 1777 
L 602 2739 
L 32 2739 
L 1139 1414 
L 0 0 
L 563 0 
L 1363 1121 
L 2195 0 
L 2758 0 
L 1587 1414 
z
" transform="scale(0.015625)"/>
     </defs>
     <use xlink:href="#CMSS17-78" transform="scale(0.996264)"/>
    </g>
   </g>
   <g id="Line3DCollection_1">
    <path d="M 128.949734 257.139645 
L 363.30609 255.972975 
L 363.30609 80.286485 
" style="fill: none; stroke: #b0b0b0; stroke-width: 0.8"/>
    <path d="M 126.812563 255.031268 
L 355.716141 253.918868 
L 355.716141 82.340591 
" style="fill: none; stroke: #b0b0b0; stroke-width: 0.8"/>
    <path d="M 124.774295 253.020463 
L 348.473043 251.958632 
L 348.473043 84.300828 
" style="fill: none; stroke: #b0b0b0; stroke-width: 0.8"/>
    <path d="M 122.828221 251.100608 
L 341.553554 250.085975 
L 341.553554 86.173484 
" style="fill: none; stroke: #b0b0b0; stroke-width: 0.8"/>
    <path d="M 120.968224 249.265671 
L 334.936459 248.295157 
L 334.936459 87.964302 
" style="fill: none; stroke: #b0b0b0; stroke-width: 0.8"/>
    <path d="M 119.188716 247.510138 
L 328.602359 246.580928 
L 328.602359 89.678532 
" style="fill: none; stroke: #b0b0b0; stroke-width: 0.8"/>
   </g>
   <g id="xtick_1">
    <g id="line2d_2">
     <path d="M 130.849283 257.130188 
L 125.149424 257.158563 
" style="fill: none; stroke: #000000; stroke-width: 0.8; stroke-linecap: square"/>
    </g>
    <g id="text_2">
     <!-- $\mathdefault{0}$ -->
     <g transform="translate(111.274557 275.516882)scale(0.1 -0.1)">
      <defs>
       <path id="CMR17-30" d="M 2688 2025 
C 2688 2416 2682 3080 2413 3591 
C 2176 4039 1798 4198 1466 4198 
C 1158 4198 768 4058 525 3597 
C 269 3118 243 2524 243 2025 
C 243 1661 250 1106 448 619 
C 723 -39 1216 -128 1466 -128 
C 1760 -128 2208 -7 2470 600 
C 2662 1042 2688 1559 2688 2025 
z
M 1466 -26 
C 1056 -26 813 325 723 812 
C 653 1188 653 1738 653 2096 
C 653 2588 653 2997 736 3387 
C 858 3929 1216 4096 1466 4096 
C 1728 4096 2067 3923 2189 3400 
C 2272 3036 2278 2607 2278 2096 
C 2278 1680 2278 1169 2202 792 
C 2067 95 1690 -26 1466 -26 
z
" transform="scale(0.015625)"/>
      </defs>
      <use xlink:href="#CMR17-30" transform="scale(0.996264)"/>
     </g>
    </g>
   </g>
   <g id="xtick_2">
    <g id="line2d_3">
     <path d="M 128.667344 255.022255 
L 123.101846 255.049301 
" style="fill: none; stroke: #000000; stroke-width: 0.8; stroke-linecap: square"/>
    </g>
    <g id="text_3">
     <!-- $\mathdefault{1}$ -->
     <g transform="translate(109.495588 273.13511)scale(0.1 -0.1)">
      <defs>
       <path id="CMR17-31" d="M 1702 4058 
C 1702 4192 1696 4192 1606 4192 
C 1357 3916 979 3827 621 3827 
C 602 3827 570 3827 563 3808 
C 557 3795 557 3782 557 3648 
C 755 3648 1088 3686 1344 3839 
L 1344 461 
C 1344 236 1331 160 781 160 
L 589 160 
L 589 0 
C 896 0 1216 0 1523 0 
C 1830 0 2150 0 2458 0 
L 2458 160 
L 2266 160 
C 1715 160 1702 230 1702 458 
L 1702 4058 
z
" transform="scale(0.015625)"/>
      </defs>
      <use xlink:href="#CMR17-31" transform="scale(0.996264)"/>
     </g>
    </g>
   </g>
   <g id="xtick_3">
    <g id="line2d_4">
     <path d="M 126.58637 253.011861 
L 121.149045 253.037671 
" style="fill: none; stroke: #000000; stroke-width: 0.8; stroke-linecap: square"/>
    </g>
    <g id="text_4">
     <!-- $\mathdefault{2}$ -->
     <g transform="translate(107.799012 270.86365)scale(0.1 -0.1)">
      <defs>
       <path id="CMR17-32" d="M 2669 989 
L 2554 989 
C 2490 536 2438 459 2413 420 
C 2381 369 1920 369 1830 369 
L 602 369 
C 832 619 1280 1072 1824 1597 
C 2214 1967 2669 2402 2669 3035 
C 2669 3790 2067 4224 1395 4224 
C 691 4224 262 3604 262 3030 
C 262 2780 448 2748 525 2748 
C 589 2748 781 2787 781 3010 
C 781 3207 614 3264 525 3264 
C 486 3264 448 3258 422 3245 
C 544 3790 915 4058 1306 4058 
C 1862 4058 2227 3617 2227 3035 
C 2227 2479 1901 2000 1536 1584 
L 262 146 
L 262 0 
L 2515 0 
L 2669 989 
z
" transform="scale(0.015625)"/>
      </defs>
      <use xlink:href="#CMR17-32" transform="scale(0.996264)"/>
     </g>
    </g>
   </g>
   <g id="xtick_4">
    <g id="line2d_5">
     <path d="M 124.599511 251.092392 
L 119.284588 251.117047 
" style="fill: none; stroke: #000000; stroke-width: 0.8; stroke-linecap: square"/>
    </g>
    <g id="text_5">
     <!-- $\mathdefault{3}$ -->
     <g transform="translate(106.179235 268.695012)scale(0.1 -0.1)">
      <defs>
       <path id="CMR17-33" d="M 1414 2157 
C 1984 2157 2234 1662 2234 1090 
C 2234 320 1824 25 1453 25 
C 1114 25 563 194 390 693 
C 422 680 454 680 486 680 
C 640 680 755 782 755 948 
C 755 1133 614 1216 486 1216 
C 378 1216 211 1165 211 926 
C 211 335 787 -128 1466 -128 
C 2176 -128 2720 430 2720 1085 
C 2720 1707 2208 2157 1600 2227 
C 2086 2328 2554 2756 2554 3329 
C 2554 3820 2048 4179 1472 4179 
C 890 4179 378 3829 378 3329 
C 378 3110 544 3072 627 3072 
C 762 3072 877 3155 877 3321 
C 877 3486 762 3569 627 3569 
C 602 3569 570 3569 544 3557 
C 730 3959 1235 4032 1459 4032 
C 1683 4032 2106 3925 2106 3320 
C 2106 3143 2080 2828 1862 2550 
C 1670 2304 1453 2304 1242 2284 
C 1210 2284 1062 2269 1037 2269 
C 992 2263 966 2257 966 2208 
C 966 2163 973 2157 1101 2157 
L 1414 2157 
z
" transform="scale(0.015625)"/>
      </defs>
      <use xlink:href="#CMR17-33" transform="scale(0.996264)"/>
     </g>
    </g>
   </g>
   <g id="xtick_5">
    <g id="line2d_6">
     <path d="M 122.700525 249.257814 
L 117.502615 249.28139 
" style="fill: none; stroke: #000000; stroke-width: 0.8; stroke-linecap: square"/>
    </g>
    <g id="text_6">
     <!-- $\mathdefault{4}$ -->
     <g transform="translate(104.631157 266.622369)scale(0.1 -0.1)">
      <defs>
       <path id="CMR17-34" d="M 2150 4122 
C 2150 4256 2144 4256 2029 4256 
L 128 1254 
L 128 1088 
L 1779 1088 
L 1779 457 
C 1779 224 1766 160 1318 160 
L 1197 160 
L 1197 0 
C 1402 0 1747 0 1965 0 
C 2182 0 2528 0 2733 0 
L 2733 160 
L 2611 160 
C 2163 160 2150 224 2150 457 
L 2150 1088 
L 2803 1088 
L 2803 1254 
L 2150 1254 
L 2150 4122 
z
M 1798 3703 
L 1798 1254 
L 256 1254 
L 1798 3703 
z
" transform="scale(0.015625)"/>
      </defs>
      <use xlink:href="#CMR17-34" transform="scale(0.996264)"/>
     </g>
    </g>
   </g>
   <g id="xtick_6">
    <g id="line2d_7">
     <path d="M 120.883707 247.502617 
L 115.797768 247.525185 
" style="fill: none; stroke: #000000; stroke-width: 0.8; stroke-linecap: square"/>
    </g>
    <g id="text_7">
     <!-- $\mathdefault{5}$ -->
     <g transform="translate(103.150122 264.639485)scale(0.1 -0.1)">
      <defs>
       <path id="CMR17-35" d="M 730 3692 
C 794 3666 1056 3584 1325 3584 
C 1920 3584 2246 3911 2432 4100 
C 2432 4157 2432 4192 2394 4192 
C 2387 4192 2374 4192 2323 4163 
C 2099 4058 1837 3973 1517 3973 
C 1325 3973 1037 3999 723 4139 
C 653 4171 640 4171 634 4171 
C 602 4171 595 4164 595 4037 
L 595 2203 
C 595 2089 595 2057 659 2057 
C 691 2057 704 2070 736 2114 
C 941 2401 1222 2522 1542 2522 
C 1766 2522 2246 2382 2246 1289 
C 2246 1085 2246 715 2054 421 
C 1894 159 1645 25 1370 25 
C 947 25 518 320 403 814 
C 429 807 480 795 506 795 
C 589 795 749 840 749 1038 
C 749 1210 627 1280 506 1280 
C 358 1280 262 1190 262 1011 
C 262 454 704 -128 1382 -128 
C 2042 -128 2669 440 2669 1264 
C 2669 2030 2170 2624 1549 2624 
C 1222 2624 947 2503 730 2274 
L 730 3692 
z
" transform="scale(0.015625)"/>
      </defs>
      <use xlink:href="#CMR17-35" transform="scale(0.996264)"/>
     </g>
    </g>
   </g>
  </g>
  <g id="axis3d_2">
   <g id="line2d_8">
    <path d="M 364.117665 256.192615 
L 129.178335 257.365166 
" style="fill: none; stroke: #000000; stroke-width: 0.8; stroke-linecap: square"/>
   </g>
   <g id="text_8">
    <!-- y -->
    <g transform="translate(247.567641 287.39875)scale(0.16 -0.16)">
     <defs>
      <path id="CMSS17-79" d="M 2675 2752 
L 2176 2752 
C 1632 1294 1446 702 1434 383 
L 1427 383 
C 1408 696 1126 1460 902 2007 
L 602 2752 
L 83 2752 
L 1216 13 
C 1146 -178 1043 -465 1011 -529 
C 870 -885 774 -885 672 -885 
C 646 -885 442 -885 211 -809 
L 250 -1229 
C 410 -1261 570 -1280 685 -1280 
C 845 -1280 1165 -1280 1459 -497 
L 2675 2752 
z
" transform="scale(0.015625)"/>
     </defs>
     <use xlink:href="#CMSS17-79" transform="scale(0.996264)"/>
    </g>
   </g>
   <g id="Line3DCollection_2">
    <path d="M 303.970459 89.746693 
L 303.970459 246.512766 
L 337.181749 256.327049 
" style="fill: none; stroke: #b0b0b0; stroke-width: 0.8"/>
    <path d="M 264.123433 89.570283 
L 264.123433 246.689176 
L 292.416996 256.550463 
" style="fill: none; stroke: #b0b0b0; stroke-width: 0.8"/>
    <path d="M 224.096642 89.393077 
L 224.096642 246.866382 
L 247.424877 256.775013 
" style="fill: none; stroke: #b0b0b0; stroke-width: 0.8"/>
    <path d="M 183.888866 89.21507 
L 183.888866 247.044389 
L 202.203657 257.000706 
" style="fill: none; stroke: #b0b0b0; stroke-width: 0.8"/>
    <path d="M 143.498876 89.036257 
L 143.498876 247.223203 
L 156.75158 257.227551 
" style="fill: none; stroke: #b0b0b0; stroke-width: 0.8"/>
   </g>
   <g id="xtick_7">
    <g id="line2d_9">
     <path d="M 336.883091 256.238792 
L 337.780863 256.504093 
" style="fill: none; stroke: #000000; stroke-width: 0.8; stroke-linecap: square"/>
    </g>
    <g id="text_9">
     <!-- $\mathdefault{−4}$ -->
     <g transform="translate(333.223467 275.317305)scale(0.1 -0.1)">
      <defs>
       <path id="CMSY10-0" d="M 4218 1472 
C 4326 1472 4442 1472 4442 1600 
C 4442 1728 4326 1728 4218 1728 
L 755 1728 
C 646 1728 531 1728 531 1600 
C 531 1472 646 1472 755 1472 
L 4218 1472 
z
" transform="scale(0.015625)"/>
      </defs>
      <use xlink:href="#CMSY10-0" transform="scale(0.996264)"/>
      <use xlink:href="#CMR17-34" transform="translate(77.487468 0)scale(0.996264)"/>
     </g>
    </g>
   </g>
   <g id="xtick_8">
    <g id="line2d_10">
     <path d="M 292.16249 256.461759 
L 292.927543 256.728407 
" style="fill: none; stroke: #000000; stroke-width: 0.8; stroke-linecap: square"/>
    </g>
    <g id="text_10">
     <!-- $\mathdefault{−2}$ -->
     <g transform="translate(288.102956 275.573353)scale(0.1 -0.1)">
      <use xlink:href="#CMSY10-0" transform="scale(0.996264)"/>
      <use xlink:href="#CMR17-32" transform="translate(77.487468 0)scale(0.996264)"/>
     </g>
    </g>
   </g>
   <g id="xtick_9">
    <g id="line2d_11">
     <path d="M 247.214977 256.685858 
L 247.845949 256.953863 
" style="fill: none; stroke: #000000; stroke-width: 0.8; stroke-linecap: square"/>
    </g>
    <g id="text_11">
     <!-- $\mathdefault{0}$ -->
     <g transform="translate(246.625787 275.830711)scale(0.1 -0.1)">
      <use xlink:href="#CMR17-30" transform="scale(0.996264)"/>
     </g>
    </g>
   </g>
   <g id="xtick_10">
    <g id="line2d_12">
     <path d="M 202.038819 256.911097 
L 202.534332 257.180468 
" style="fill: none; stroke: #000000; stroke-width: 0.8; stroke-linecap: square"/>
    </g>
    <g id="text_12">
     <!-- $\mathdefault{2}$ -->
     <g transform="translate(201.041437 276.089391)scale(0.1 -0.1)">
      <use xlink:href="#CMR17-32" transform="scale(0.996264)"/>
     </g>
    </g>
   </g>
   <g id="xtick_11">
    <g id="line2d_13">
     <path d="M 156.632269 257.137484 
L 156.990929 257.408233 
" style="fill: none; stroke: #000000; stroke-width: 0.8; stroke-linecap: square"/>
    </g>
    <g id="text_13">
     <!-- $\mathdefault{4}$ -->
     <g transform="translate(155.222481 276.349402)scale(0.1 -0.1)">
      <use xlink:href="#CMR17-34" transform="scale(0.996264)"/>
     </g>
    </g>
   </g>
  </g>
  <g id="axis3d_3">
   <g id="line2d_14">
    <path d="M 364.117665 256.192615 
L 364.117665 80.066844 
" style="fill: none; stroke: #000000; stroke-width: 0.8; stroke-linecap: square"/>
   </g>
   <g id="text_14">
    <!-- z -->
    <g transform="translate(399.181423 172.114786)scale(0.16 -0.16)">
     <defs>
      <path id="CMSS17-7a" d="M 2400 2502 
L 2400 2750 
L 250 2750 
L 250 2368 
L 1069 2368 
C 1146 2368 1222 2368 1299 2368 
L 1747 2368 
L 166 261 
L 166 0 
L 2419 0 
L 2419 395 
L 1549 395 
C 1472 395 1395 395 1318 395 
L 826 395 
L 2400 2502 
z
" transform="scale(0.015625)"/>
     </defs>
     <use xlink:href="#CMSS17-7a" transform="scale(0.996264)"/>
    </g>
   </g>
   <g id="Line3DCollection_3">
    <path d="M 364.117665 252.6701 
L 327.9581 243.275495 
L 119.007769 244.163553 
" style="fill: none; stroke: #b0b0b0; stroke-width: 0.8"/>
    <path d="M 364.117665 218.853952 
L 327.9581 213.217189 
L 119.007769 213.750024 
" style="fill: none; stroke: #b0b0b0; stroke-width: 0.8"/>
    <path d="M 364.117665 185.037804 
L 327.9581 183.158883 
L 119.007769 183.336494 
" style="fill: none; stroke: #b0b0b0; stroke-width: 0.8"/>
    <path d="M 364.117665 151.221656 
L 327.9581 153.100577 
L 119.007769 152.922965 
" style="fill: none; stroke: #b0b0b0; stroke-width: 0.8"/>
    <path d="M 364.117665 117.405508 
L 327.9581 123.04227 
L 119.007769 122.509436 
" style="fill: none; stroke: #b0b0b0; stroke-width: 0.8"/>
    <path d="M 364.117665 83.58936 
L 327.9581 92.983964 
L 119.007769 92.095906 
" style="fill: none; stroke: #b0b0b0; stroke-width: 0.8"/>
   </g>
   <g id="xtick_12">
    <g id="line2d_15">
     <path d="M 363.792548 252.585631 
L 364.769852 252.839544 
" style="fill: none; stroke: #000000; stroke-width: 0.8; stroke-linecap: square"/>
    </g>
    <g id="text_15">
     <!-- $\mathdefault{0}$ -->
     <g transform="translate(379.164142 260.197225)scale(0.1 -0.1)">
      <use xlink:href="#CMR17-30" transform="scale(0.996264)"/>
     </g>
    </g>
   </g>
   <g id="xtick_13">
    <g id="line2d_16">
     <path d="M 363.792548 218.803271 
L 364.769852 218.955618 
" style="fill: none; stroke: #000000; stroke-width: 0.8; stroke-linecap: square"/>
    </g>
    <g id="text_16">
     <!-- $\mathdefault{1}$ -->
     <g transform="translate(379.164142 226.137626)scale(0.1 -0.1)">
      <use xlink:href="#CMR17-31" transform="scale(0.996264)"/>
     </g>
    </g>
   </g>
   <g id="xtick_14">
    <g id="line2d_17">
     <path d="M 363.792548 185.02091 
L 364.769852 185.071693 
" style="fill: none; stroke: #000000; stroke-width: 0.8; stroke-linecap: square"/>
    </g>
    <g id="text_17">
     <!-- $\mathdefault{2}$ -->
     <g transform="translate(379.164142 192.078028)scale(0.1 -0.1)">
      <use xlink:href="#CMR17-32" transform="scale(0.996264)"/>
     </g>
    </g>
   </g>
   <g id="xtick_15">
    <g id="line2d_18">
     <path d="M 363.792548 151.238549 
L 364.769852 151.187767 
" style="fill: none; stroke: #000000; stroke-width: 0.8; stroke-linecap: square"/>
    </g>
    <g id="text_18">
     <!-- $\mathdefault{3}$ -->
     <g transform="translate(379.164142 158.018429)scale(0.1 -0.1)">
      <use xlink:href="#CMR17-33" transform="scale(0.996264)"/>
     </g>
    </g>
   </g>
   <g id="xtick_16">
    <g id="line2d_19">
     <path d="M 363.792548 117.456189 
L 364.769852 117.303841 
" style="fill: none; stroke: #000000; stroke-width: 0.8; stroke-linecap: square"/>
    </g>
    <g id="text_19">
     <!-- $\mathdefault{4}$ -->
     <g transform="translate(379.164142 123.95883)scale(0.1 -0.1)">
      <use xlink:href="#CMR17-34" transform="scale(0.996264)"/>
     </g>
    </g>
   </g>
   <g id="xtick_17">
    <g id="line2d_20">
     <path d="M 363.792548 83.673828 
L 364.769852 83.419915 
" style="fill: none; stroke: #000000; stroke-width: 0.8; stroke-linecap: square"/>
    </g>
    <g id="text_20">
     <!-- $\mathdefault{5}$ -->
     <g transform="translate(379.164142 89.899231)scale(0.1 -0.1)">
      <use xlink:href="#CMR17-35" transform="scale(0.996264)"/>
     </g>
    </g>
   </g>
  </g>
  <g id="axes_1">
   <g id="line2d_21">
    <path d="M 246.900916 253.015552 
L 175.834604 84.932955 
" clip-path="url(#pb701678b9e)" style="fill: none; stroke: #ff0000; stroke-width: 1.5; stroke-linecap: square"/>
   </g>
   <g id="line2d_22">
    <path d="M 246.900916 253.015552 
L 280.172505 119.657542 
" clip-path="url(#pb701678b9e)" style="fill: none; stroke: #00ff00; stroke-width: 1.5; stroke-linecap: square"/>
   </g>
   <g id="line2d_23">
    <path d="M 246.900916 253.015552 
L 216.292598 -1 
" clip-path="url(#pb701678b9e)" style="fill: none; stroke: #0016ff; stroke-width: 1.5; stroke-linecap: square"/>
   </g>
   <g id="line2d_24">
    <path d="M 246.900916 253.015552 
L 284.617198 153.029627 
" clip-path="url(#pb701678b9e)" style="fill: none; stroke: #f400ff; stroke-width: 1.5; stroke-linecap: square"/>
   </g>
   <g id="Poly3DCollection_1">
    <path d="M 330.70727 21.873001 
L 327.550952 -18.425782 
L 317.500716 -29.96008 
L 320.548955 10.235739 
z
" clip-path="url(#pb701678b9e)" style="fill: #0000f5; fill-opacity: 0.1"/>
    <path d="M 320.548955 10.235739 
L 317.500716 -29.96008 
L 307.439048 -41.507498 
L 310.378959 -1.414904 
z
" clip-path="url(#pb701678b9e)" style="fill: #0000f5; fill-opacity: 0.1"/>
    <path d="M 310.378959 -1.414904 
L 307.439048 -41.507498 
L 297.365929 -53.068058 
L 300.197261 -13.078952 
z
" clip-path="url(#pb701678b9e)" style="fill: #0000f5; fill-opacity: 0.1"/>
    <path d="M 300.197261 -13.078952 
L 297.365929 -53.068058 
L 287.281339 -64.641783 
L 290.003842 -24.756427 
z
" clip-path="url(#pb701678b9e)" style="fill: #0000f5; fill-opacity: 0.1"/>
    <path d="M 290.003842 -24.756427 
L 287.281339 -64.641783 
L 277.185259 -76.228694 
L 279.798682 -36.447355 
z
" clip-path="url(#pb701678b9e)" style="fill: #0000f5; fill-opacity: 0.1"/>
    <path d="M 279.798682 -36.447355 
L 277.185259 -76.228694 
L 267.077669 -87.828816 
L 269.581759 -48.151756 
z
" clip-path="url(#pb701678b9e)" style="fill: #0000f5; fill-opacity: 0.1"/>
    <path d="M 269.581759 -48.151756 
L 267.077669 -87.828816 
L 256.958548 -99.44217 
L 259.353054 -59.869656 
z
" clip-path="url(#pb701678b9e)" style="fill: #0000f5; fill-opacity: 0.1"/>
    <path d="M 259.353054 -59.869656 
L 256.958548 -99.44217 
L 246.827879 -111.068779 
L 249.112546 -71.601076 
z
" clip-path="url(#pb701678b9e)" style="fill: #0000f5; fill-opacity: 0.1"/>
    <path d="M 249.112546 -71.601076 
L 246.827879 -111.068779 
L 236.68564 -122.708665 
L 238.860215 -83.346041 
z
" clip-path="url(#pb701678b9e)" style="fill: #0000f5; fill-opacity: 0.1"/>
    <path d="M 238.860215 -83.346041 
L 236.68564 -122.708665 
L 226.531811 -134.361852 
L 228.59604 -95.104574 
z
" clip-path="url(#pb701678b9e)" style="fill: #0000f5; fill-opacity: 0.1"/>
    <path d="M 228.59604 -95.104574 
L 226.531811 -134.361852 
L 216.366374 -146.028362 
L 218.320001 -106.876699 
z
" clip-path="url(#pb701678b9e)" style="fill: #0000f5; fill-opacity: 0.1"/>
    <path d="M 218.320001 -106.876699 
L 216.366374 -146.028362 
L 206.189308 -157.708219 
L 208.032077 -118.662439 
z
" clip-path="url(#pb701678b9e)" style="fill: #0000f5; fill-opacity: 0.1"/>
    <path d="M 208.032077 -118.662439 
L 206.189308 -157.708219 
L 196.000593 -169.401444 
L 197.732248 -130.461817 
z
" clip-path="url(#pb701678b9e)" style="fill: #0000f5; fill-opacity: 0.1"/>
    <path d="M 197.732248 -130.461817 
L 196.000593 -169.401444 
L 185.800209 -181.108061 
L 187.420493 -142.274858 
z
" clip-path="url(#pb701678b9e)" style="fill: #0000f5; fill-opacity: 0.1"/>
    <path d="M 187.420493 -142.274858 
L 185.800209 -181.108061 
L 175.588136 -192.828094 
L 177.096791 -154.101585 
z
" clip-path="url(#pb701678b9e)" style="fill: #0000f5; fill-opacity: 0.1"/>
    <path d="M 177.096791 -154.101585 
L 175.588136 -192.828094 
L 165.364354 -204.561564 
L 166.761121 -165.942022 
z
" clip-path="url(#pb701678b9e)" style="fill: #0000f5; fill-opacity: 0.1"/>
    <path d="M 166.761121 -165.942022 
L 165.364354 -204.561564 
L 155.128843 -216.308496 
L 156.413462 -177.796193 
z
" clip-path="url(#pb701678b9e)" style="fill: #0000f5; fill-opacity: 0.1"/>
    <path d="M 156.413462 -177.796193 
L 155.128843 -216.308496 
L 144.881582 -228.068912 
L 146.053795 -189.664122 
z
" clip-path="url(#pb701678b9e)" style="fill: #0000f5; fill-opacity: 0.1"/>
    <path d="M 146.053795 -189.664122 
L 144.881582 -228.068912 
L 134.622552 -239.842836 
L 135.682097 -201.545833 
z
" clip-path="url(#pb701678b9e)" style="fill: #0000f5; fill-opacity: 0.1"/>
    <path d="M 333.933335 63.062291 
L 330.70727 21.873001 
L 320.548955 10.235739 
L 323.664592 51.320307 
z
" clip-path="url(#pb701678b9e)" style="fill: #0000f5; fill-opacity: 0.1"/>
    <path d="M 323.664592 51.320307 
L 320.548955 10.235739 
L 310.378959 -1.414904 
L 313.38391 39.564672 
z
" clip-path="url(#pb701678b9e)" style="fill: #0000f5; fill-opacity: 0.1"/>
    <path d="M 313.38391 39.564672 
L 310.378959 -1.414904 
L 300.197261 -13.078952 
L 303.091268 27.795361 
z
" clip-path="url(#pb701678b9e)" style="fill: #0000f5; fill-opacity: 0.1"/>
    <path d="M 303.091268 27.795361 
L 300.197261 -13.078952 
L 290.003842 -24.756427 
L 292.786646 16.012351 
z
" clip-path="url(#pb701678b9e)" style="fill: #0000f5; fill-opacity: 0.1"/>
    <path d="M 292.786646 16.012351 
L 290.003842 -24.756427 
L 279.798682 -36.447355 
L 282.470023 4.215618 
z
" clip-path="url(#pb701678b9e)" style="fill: #0000f5; fill-opacity: 0.1"/>
    <path d="M 282.470023 4.215618 
L 279.798682 -36.447355 
L 269.581759 -48.151756 
L 272.141377 -7.594863 
z
" clip-path="url(#pb701678b9e)" style="fill: #0000f5; fill-opacity: 0.1"/>
    <path d="M 272.141377 -7.594863 
L 269.581759 -48.151756 
L 259.353054 -59.869656 
L 261.800688 -19.419114 
z
" clip-path="url(#pb701678b9e)" style="fill: #0000f5; fill-opacity: 0.1"/>
    <path d="M 261.800688 -19.419114 
L 259.353054 -59.869656 
L 249.112546 -71.601076 
L 251.447935 -31.257161 
z
" clip-path="url(#pb701678b9e)" style="fill: #0000f5; fill-opacity: 0.1"/>
    <path d="M 251.447935 -31.257161 
L 249.112546 -71.601076 
L 238.860215 -83.346041 
L 241.083096 -43.109028 
z
" clip-path="url(#pb701678b9e)" style="fill: #0000f5; fill-opacity: 0.1"/>
    <path d="M 241.083096 -43.109028 
L 238.860215 -83.346041 
L 228.59604 -95.104574 
L 230.70615 -54.974738 
z
" clip-path="url(#pb701678b9e)" style="fill: #0000f5; fill-opacity: 0.1"/>
    <path d="M 230.70615 -54.974738 
L 228.59604 -95.104574 
L 218.320001 -106.876699 
L 220.317076 -66.854316 
z
" clip-path="url(#pb701678b9e)" style="fill: #0000f5; fill-opacity: 0.1"/>
    <path d="M 220.317076 -66.854316 
L 218.320001 -106.876699 
L 208.032077 -118.662439 
L 209.915853 -78.747786 
z
" clip-path="url(#pb701678b9e)" style="fill: #0000f5; fill-opacity: 0.1"/>
    <path d="M 209.915853 -78.747786 
L 208.032077 -118.662439 
L 197.732248 -130.461817 
L 199.50246 -90.655173 
z
" clip-path="url(#pb701678b9e)" style="fill: #0000f5; fill-opacity: 0.1"/>
    <path d="M 199.50246 -90.655173 
L 197.732248 -130.461817 
L 187.420493 -142.274858 
L 189.076874 -102.576501 
z
" clip-path="url(#pb701678b9e)" style="fill: #0000f5; fill-opacity: 0.1"/>
    <path d="M 189.076874 -102.576501 
L 187.420493 -142.274858 
L 177.096791 -154.101585 
L 178.639076 -114.511794 
z
" clip-path="url(#pb701678b9e)" style="fill: #0000f5; fill-opacity: 0.1"/>
    <path d="M 178.639076 -114.511794 
L 177.096791 -154.101585 
L 166.761121 -165.942022 
L 168.189042 -126.461078 
z
" clip-path="url(#pb701678b9e)" style="fill: #0000f5; fill-opacity: 0.1"/>
    <path d="M 168.189042 -126.461078 
L 166.761121 -165.942022 
L 156.413462 -177.796193 
L 157.726752 -138.424377 
z
" clip-path="url(#pb701678b9e)" style="fill: #0000f5; fill-opacity: 0.1"/>
    <path d="M 157.726752 -138.424377 
L 156.413462 -177.796193 
L 146.053795 -189.664122 
L 147.252184 -150.401715 
z
" clip-path="url(#pb701678b9e)" style="fill: #0000f5; fill-opacity: 0.1"/>
    <path d="M 147.252184 -150.401715 
L 146.053795 -189.664122 
L 135.682097 -201.545833 
L 136.765316 -162.393117 
z
" clip-path="url(#pb701678b9e)" style="fill: #0000f5; fill-opacity: 0.1"/>
    <path d="M 337.231485 105.171935 
L 333.933335 63.062291 
L 323.664592 51.320307 
L 326.849887 93.323428 
z
" clip-path="url(#pb701678b9e)" style="fill: #0000f5; fill-opacity: 0.1"/>
    <path d="M 326.849887 93.323428 
L 323.664592 51.320307 
L 313.38391 39.564672 
L 316.456084 81.460991 
z
" clip-path="url(#pb701678b9e)" style="fill: #0000f5; fill-opacity: 0.1"/>
    <path d="M 316.456084 81.460991 
L 313.38391 39.564672 
L 303.091268 27.795361 
L 306.050055 69.584601 
z
" clip-path="url(#pb701678b9e)" style="fill: #0000f5; fill-opacity: 0.1"/>
    <path d="M 306.050055 69.584601 
L 303.091268 27.795361 
L 292.786646 16.012351 
L 295.631777 57.694231 
z
" clip-path="url(#pb701678b9e)" style="fill: #0000f5; fill-opacity: 0.1"/>
    <path d="M 295.631777 57.694231 
L 292.786646 16.012351 
L 282.470023 4.215618 
L 285.20123 45.789859 
z
" clip-path="url(#pb701678b9e)" style="fill: #0000f5; fill-opacity: 0.1"/>
    <path d="M 285.20123 45.789859 
L 282.470023 4.215618 
L 272.141377 -7.594863 
L 274.758391 33.871458 
z
" clip-path="url(#pb701678b9e)" style="fill: #0000f5; fill-opacity: 0.1"/>
    <path d="M 274.758391 33.871458 
L 272.141377 -7.594863 
L 261.800688 -19.419114 
L 264.30324 21.939004 
z
" clip-path="url(#pb701678b9e)" style="fill: #0000f5; fill-opacity: 0.1"/>
    <path d="M 264.30324 21.939004 
L 261.800688 -19.419114 
L 251.447935 -31.257161 
L 253.835753 9.992472 
z
" clip-path="url(#pb701678b9e)" style="fill: #0000f5; fill-opacity: 0.1"/>
    <path d="M 253.835753 9.992472 
L 251.447935 -31.257161 
L 241.083096 -43.109028 
L 243.35591 -1.968162 
z
" clip-path="url(#pb701678b9e)" style="fill: #0000f5; fill-opacity: 0.1"/>
    <path d="M 243.35591 -1.968162 
L 241.083096 -43.109028 
L 230.70615 -54.974738 
L 232.863688 -13.942924 
z
" clip-path="url(#pb701678b9e)" style="fill: #0000f5; fill-opacity: 0.1"/>
    <path d="M 232.863688 -13.942924 
L 230.70615 -54.974738 
L 220.317076 -66.854316 
L 222.359065 -25.931839 
z
" clip-path="url(#pb701678b9e)" style="fill: #0000f5; fill-opacity: 0.1"/>
    <path d="M 222.359065 -25.931839 
L 220.317076 -66.854316 
L 209.915853 -78.747786 
L 211.84202 -37.934932 
z
" clip-path="url(#pb701678b9e)" style="fill: #0000f5; fill-opacity: 0.1"/>
    <path d="M 211.84202 -37.934932 
L 209.915853 -78.747786 
L 199.50246 -90.655173 
L 201.31253 -49.952228 
z
" clip-path="url(#pb701678b9e)" style="fill: #0000f5; fill-opacity: 0.1"/>
    <path d="M 201.31253 -49.952228 
L 199.50246 -90.655173 
L 189.076874 -102.576501 
L 190.770574 -61.983752 
z
" clip-path="url(#pb701678b9e)" style="fill: #0000f5; fill-opacity: 0.1"/>
    <path d="M 190.770574 -61.983752 
L 189.076874 -102.576501 
L 178.639076 -114.511794 
L 180.216128 -74.02953 
z
" clip-path="url(#pb701678b9e)" style="fill: #0000f5; fill-opacity: 0.1"/>
    <path d="M 180.216128 -74.02953 
L 178.639076 -114.511794 
L 168.189042 -126.461078 
L 169.649172 -86.089586 
z
" clip-path="url(#pb701678b9e)" style="fill: #0000f5; fill-opacity: 0.1"/>
    <path d="M 169.649172 -86.089586 
L 168.189042 -126.461078 
L 157.726752 -138.424377 
L 159.069682 -98.163947 
z
" clip-path="url(#pb701678b9e)" style="fill: #0000f5; fill-opacity: 0.1"/>
    <path d="M 159.069682 -98.163947 
L 157.726752 -138.424377 
L 147.252184 -150.401715 
L 148.477636 -110.252638 
z
" clip-path="url(#pb701678b9e)" style="fill: #0000f5; fill-opacity: 0.1"/>
    <path d="M 148.477636 -110.252638 
L 147.252184 -150.401715 
L 136.765316 -162.393117 
L 137.873013 -122.355684 
z
" clip-path="url(#pb701678b9e)" style="fill: #0000f5; fill-opacity: 0.1"/>
    <path d="M 340.604163 148.233129 
L 337.231485 105.171935 
L 326.849887 93.323428 
L 330.107203 136.276256 
z
" clip-path="url(#pb701678b9e)" style="fill: #0000f5; fill-opacity: 0.1"/>
    <path d="M 330.107203 136.276256 
L 326.849887 93.323428 
L 316.456084 81.460991 
L 319.597762 124.305166 
z
" clip-path="url(#pb701678b9e)" style="fill: #0000f5; fill-opacity: 0.1"/>
    <path d="M 319.597762 124.305166 
L 316.456084 81.460991 
L 306.050055 69.584601 
L 309.07582 112.319835 
z
" clip-path="url(#pb701678b9e)" style="fill: #0000f5; fill-opacity: 0.1"/>
    <path d="M 309.07582 112.319835 
L 306.050055 69.584601 
L 295.631777 57.694231 
L 298.541352 100.320238 
z
" clip-path="url(#pb701678b9e)" style="fill: #0000f5; fill-opacity: 0.1"/>
    <path d="M 298.541352 100.320238 
L 295.631777 57.694231 
L 285.20123 45.789859 
L 287.994337 88.306348 
z
" clip-path="url(#pb701678b9e)" style="fill: #0000f5; fill-opacity: 0.1"/>
    <path d="M 287.994337 88.306348 
L 285.20123 45.789859 
L 274.758391 33.871458 
L 277.434753 76.278141 
z
" clip-path="url(#pb701678b9e)" style="fill: #0000f5; fill-opacity: 0.1"/>
    <path d="M 277.434753 76.278141 
L 274.758391 33.871458 
L 264.30324 21.939004 
L 266.862577 64.23559 
z
" clip-path="url(#pb701678b9e)" style="fill: #0000f5; fill-opacity: 0.1"/>
    <path d="M 266.862577 64.23559 
L 264.30324 21.939004 
L 253.835753 9.992472 
L 256.277786 52.178671 
z
" clip-path="url(#pb701678b9e)" style="fill: #0000f5; fill-opacity: 0.1"/>
    <path d="M 256.277786 52.178671 
L 253.835753 9.992472 
L 243.35591 -1.968162 
L 245.680358 40.107356 
z
" clip-path="url(#pb701678b9e)" style="fill: #0000f5; fill-opacity: 0.1"/>
    <path d="M 245.680358 40.107356 
L 243.35591 -1.968162 
L 232.863688 -13.942924 
L 235.07027 28.021621 
z
" clip-path="url(#pb701678b9e)" style="fill: #0000f5; fill-opacity: 0.1"/>
    <path d="M 235.07027 28.021621 
L 232.863688 -13.942924 
L 222.359065 -25.931839 
L 224.4475 15.92144 
z
" clip-path="url(#pb701678b9e)" style="fill: #0000f5; fill-opacity: 0.1"/>
    <path d="M 224.4475 15.92144 
L 222.359065 -25.931839 
L 211.84202 -37.934932 
L 213.812024 3.806786 
z
" clip-path="url(#pb701678b9e)" style="fill: #0000f5; fill-opacity: 0.1"/>
    <path d="M 213.812024 3.806786 
L 211.84202 -37.934932 
L 201.31253 -49.952228 
L 203.163821 -8.322365 
z
" clip-path="url(#pb701678b9e)" style="fill: #0000f5; fill-opacity: 0.1"/>
    <path d="M 203.163821 -8.322365 
L 201.31253 -49.952228 
L 190.770574 -61.983752 
L 192.502866 -20.466042 
z
" clip-path="url(#pb701678b9e)" style="fill: #0000f5; fill-opacity: 0.1"/>
    <path d="M 192.502866 -20.466042 
L 190.770574 -61.983752 
L 180.216128 -74.02953 
L 181.829138 -32.624268 
z
" clip-path="url(#pb701678b9e)" style="fill: #0000f5; fill-opacity: 0.1"/>
    <path d="M 181.829138 -32.624268 
L 180.216128 -74.02953 
L 169.649172 -86.089586 
L 171.142613 -44.797071 
z
" clip-path="url(#pb701678b9e)" style="fill: #0000f5; fill-opacity: 0.1"/>
    <path d="M 171.142613 -44.797071 
L 169.649172 -86.089586 
L 159.069682 -98.163947 
L 160.443268 -56.984477 
z
" clip-path="url(#pb701678b9e)" style="fill: #0000f5; fill-opacity: 0.1"/>
    <path d="M 160.443268 -56.984477 
L 159.069682 -98.163947 
L 148.477636 -110.252638 
L 149.73108 -69.186513 
z
" clip-path="url(#pb701678b9e)" style="fill: #0000f5; fill-opacity: 0.1"/>
    <path d="M 149.73108 -69.186513 
L 148.477636 -110.252638 
L 137.873013 -122.355684 
L 139.006026 -81.403203 
z
" clip-path="url(#pb701678b9e)" style="fill: #0000f5; fill-opacity: 0.1"/>
    <path d="M 344.053924 192.278495 
L 340.604163 148.233129 
L 330.107203 136.276256 
L 333.43901 180.211368 
z
" clip-path="url(#pb701678b9e)" style="fill: #0000f5; fill-opacity: 0.1"/>
    <path d="M 333.43901 180.211368 
L 330.107203 136.276256 
L 319.597762 124.305166 
L 322.811331 168.12973 
z
" clip-path="url(#pb701678b9e)" style="fill: #0000f5; fill-opacity: 0.1"/>
    <path d="M 322.811331 168.12973 
L 319.597762 124.305166 
L 309.07582 112.319835 
L 312.170864 156.033554 
z
" clip-path="url(#pb701678b9e)" style="fill: #0000f5; fill-opacity: 0.1"/>
    <path d="M 312.170864 156.033554 
L 309.07582 112.319835 
L 298.541352 100.320238 
L 301.517586 143.922815 
z
" clip-path="url(#pb701678b9e)" style="fill: #0000f5; fill-opacity: 0.1"/>
    <path d="M 301.517586 143.922815 
L 298.541352 100.320238 
L 287.994337 88.306348 
L 290.851474 131.797487 
z
" clip-path="url(#pb701678b9e)" style="fill: #0000f5; fill-opacity: 0.1"/>
    <path d="M 290.851474 131.797487 
L 287.994337 88.306348 
L 277.434753 76.278141 
L 280.172505 119.657542 
z
" clip-path="url(#pb701678b9e)" style="fill: #0000f5; fill-opacity: 0.1"/>
    <path d="M 280.172505 119.657542 
L 277.434753 76.278141 
L 266.862577 64.23559 
L 269.480655 107.502954 
z
" clip-path="url(#pb701678b9e)" style="fill: #0000f5; fill-opacity: 0.1"/>
    <path d="M 269.480655 107.502954 
L 266.862577 64.23559 
L 256.277786 52.178671 
L 258.775902 95.333697 
z
" clip-path="url(#pb701678b9e)" style="fill: #0000f5; fill-opacity: 0.1"/>
    <path d="M 258.775902 95.333697 
L 256.277786 52.178671 
L 245.680358 40.107356 
L 248.058221 83.149744 
z
" clip-path="url(#pb701678b9e)" style="fill: #0000f5; fill-opacity: 0.1"/>
    <path d="M 248.058221 83.149744 
L 245.680358 40.107356 
L 235.07027 28.021621 
L 237.327589 70.951069 
z
" clip-path="url(#pb701678b9e)" style="fill: #0000f5; fill-opacity: 0.1"/>
    <path d="M 237.327589 70.951069 
L 235.07027 28.021621 
L 224.4475 15.92144 
L 226.583984 58.737645 
z
" clip-path="url(#pb701678b9e)" style="fill: #0000f5; fill-opacity: 0.1"/>
    <path d="M 226.583984 58.737645 
L 224.4475 15.92144 
L 213.812024 3.806786 
L 215.82738 46.509445 
z
" clip-path="url(#pb701678b9e)" style="fill: #0000f5; fill-opacity: 0.1"/>
    <path d="M 215.82738 46.509445 
L 213.812024 3.806786 
L 203.163821 -8.322365 
L 205.057756 34.266442 
z
" clip-path="url(#pb701678b9e)" style="fill: #0000f5; fill-opacity: 0.1"/>
    <path d="M 205.057756 34.266442 
L 203.163821 -8.322365 
L 192.502866 -20.466042 
L 194.275086 22.008609 
z
" clip-path="url(#pb701678b9e)" style="fill: #0000f5; fill-opacity: 0.1"/>
    <path d="M 194.275086 22.008609 
L 192.502866 -20.466042 
L 181.829138 -32.624268 
L 183.479348 9.73592 
z
" clip-path="url(#pb701678b9e)" style="fill: #0000f5; fill-opacity: 0.1"/>
    <path d="M 183.479348 9.73592 
L 181.829138 -32.624268 
L 171.142613 -44.797071 
L 172.670518 -2.551653 
z
" clip-path="url(#pb701678b9e)" style="fill: #0000f5; fill-opacity: 0.1"/>
    <path d="M 172.670518 -2.551653 
L 171.142613 -44.797071 
L 160.443268 -56.984477 
L 161.848571 -14.854136 
z
" clip-path="url(#pb701678b9e)" style="fill: #0000f5; fill-opacity: 0.1"/>
    <path d="M 161.848571 -14.854136 
L 160.443268 -56.984477 
L 149.73108 -69.186513 
L 151.013484 -27.171557 
z
" clip-path="url(#pb701678b9e)" style="fill: #0000f5; fill-opacity: 0.1"/>
    <path d="M 151.013484 -27.171557 
L 149.73108 -69.186513 
L 139.006026 -81.403203 
L 140.165232 -39.503943 
z
" clip-path="url(#pb701678b9e)" style="fill: #0000f5; fill-opacity: 0.1"/>
    <path d="M 347.583442 237.342162 
L 344.053924 192.278495 
L 333.43901 180.211368 
L 336.847893 225.16285 
z
" clip-path="url(#pb701678b9e)" style="fill: #0000f5; fill-opacity: 0.1"/>
    <path d="M 336.847893 225.16285 
L 333.43901 180.211368 
L 322.811331 168.12973 
L 326.099285 212.968723 
z
" clip-path="url(#pb701678b9e)" style="fill: #0000f5; fill-opacity: 0.1"/>
    <path d="M 326.099285 212.968723 
L 322.811331 168.12973 
L 312.170864 156.033554 
L 315.337594 200.759753 
z
" clip-path="url(#pb701678b9e)" style="fill: #0000f5; fill-opacity: 0.1"/>
    <path d="M 315.337594 200.759753 
L 312.170864 156.033554 
L 301.517586 143.922815 
L 304.562796 188.535913 
z
" clip-path="url(#pb701678b9e)" style="fill: #0000f5; fill-opacity: 0.1"/>
    <path d="M 304.562796 188.535913 
L 301.517586 143.922815 
L 290.851474 131.797487 
L 293.774867 176.297177 
z
" clip-path="url(#pb701678b9e)" style="fill: #0000f5; fill-opacity: 0.1"/>
    <path d="M 293.774867 176.297177 
L 290.851474 131.797487 
L 280.172505 119.657542 
L 282.973783 164.043516 
z
" clip-path="url(#pb701678b9e)" style="fill: #0000f5; fill-opacity: 0.1"/>
    <path d="M 282.973783 164.043516 
L 280.172505 119.657542 
L 269.480655 107.502954 
L 272.15952 151.774904 
z
" clip-path="url(#pb701678b9e)" style="fill: #0000f5; fill-opacity: 0.1"/>
    <path d="M 272.15952 151.774904 
L 269.480655 107.502954 
L 258.775902 95.333697 
L 261.332054 139.491313 
z
" clip-path="url(#pb701678b9e)" style="fill: #0000f5; fill-opacity: 0.1"/>
    <path d="M 261.332054 139.491313 
L 258.775902 95.333697 
L 248.058221 83.149744 
L 250.491361 127.192716 
z
" clip-path="url(#pb701678b9e)" style="fill: #0000f5; fill-opacity: 0.1"/>
    <path d="M 250.491361 127.192716 
L 248.058221 83.149744 
L 237.327589 70.951069 
L 239.637415 114.879085 
z
" clip-path="url(#pb701678b9e)" style="fill: #0000f5; fill-opacity: 0.1"/>
    <path d="M 239.637415 114.879085 
L 237.327589 70.951069 
L 226.583984 58.737645 
L 228.770194 102.550393 
z
" clip-path="url(#pb701678b9e)" style="fill: #0000f5; fill-opacity: 0.1"/>
    <path d="M 228.770194 102.550393 
L 226.583984 58.737645 
L 215.82738 46.509445 
L 217.889673 90.206612 
z
" clip-path="url(#pb701678b9e)" style="fill: #0000f5; fill-opacity: 0.1"/>
    <path d="M 217.889673 90.206612 
L 215.82738 46.509445 
L 205.057756 34.266442 
L 206.995826 77.847714 
z
" clip-path="url(#pb701678b9e)" style="fill: #0000f5; fill-opacity: 0.1"/>
    <path d="M 206.995826 77.847714 
L 205.057756 34.266442 
L 194.275086 22.008609 
L 196.088631 65.473671 
z
" clip-path="url(#pb701678b9e)" style="fill: #0000f5; fill-opacity: 0.1"/>
    <path d="M 196.088631 65.473671 
L 194.275086 22.008609 
L 183.479348 9.73592 
L 185.168061 53.084456 
z
" clip-path="url(#pb701678b9e)" style="fill: #0000f5; fill-opacity: 0.1"/>
    <path d="M 185.168061 53.084456 
L 183.479348 9.73592 
L 172.670518 -2.551653 
L 174.234093 40.680041 
z
" clip-path="url(#pb701678b9e)" style="fill: #0000f5; fill-opacity: 0.1"/>
    <path d="M 174.234093 40.680041 
L 172.670518 -2.551653 
L 161.848571 -14.854136 
L 163.286702 28.260397 
z
" clip-path="url(#pb701678b9e)" style="fill: #0000f5; fill-opacity: 0.1"/>
    <path d="M 163.286702 28.260397 
L 161.848571 -14.854136 
L 151.013484 -27.171557 
L 152.325864 15.825497 
z
" clip-path="url(#pb701678b9e)" style="fill: #0000f5; fill-opacity: 0.1"/>
    <path d="M 152.325864 15.825497 
L 151.013484 -27.171557 
L 140.165232 -39.503943 
L 141.351552 3.375313 
z
" clip-path="url(#pb701678b9e)" style="fill: #0000f5; fill-opacity: 0.1"/>
    <path d="M 351.195514 283.459858 
L 347.583442 237.342162 
L 336.847893 225.16285 
L 340.336559 271.166384 
z
" clip-path="url(#pb701678b9e)" style="fill: #0000f5; fill-opacity: 0.1"/>
    <path d="M 340.336559 271.166384 
L 336.847893 225.16285 
L 326.099285 212.968723 
L 329.464239 258.85778 
z
" clip-path="url(#pb701678b9e)" style="fill: #0000f5; fill-opacity: 0.1"/>
    <path d="M 329.464239 258.85778 
L 326.099285 212.968723 
L 315.337594 200.759753 
L 318.578531 246.534019 
z
" clip-path="url(#pb701678b9e)" style="fill: #0000f5; fill-opacity: 0.1"/>
    <path d="M 318.578531 246.534019 
L 315.337594 200.759753 
L 304.562796 188.535913 
L 307.679409 234.195073 
z
" clip-path="url(#pb701678b9e)" style="fill: #0000f5; fill-opacity: 0.1"/>
    <path d="M 307.679409 234.195073 
L 304.562796 188.535913 
L 293.774867 176.297177 
L 296.766849 221.840913 
z
" clip-path="url(#pb701678b9e)" style="fill: #0000f5; fill-opacity: 0.1"/>
    <path d="M 296.766849 221.840913 
L 293.774867 176.297177 
L 282.973783 164.043516 
L 285.840826 209.471511 
z
" clip-path="url(#pb701678b9e)" style="fill: #0000f5; fill-opacity: 0.1"/>
    <path d="M 285.840826 209.471511 
L 282.973783 164.043516 
L 272.15952 151.774904 
L 274.901314 197.086839 
z
" clip-path="url(#pb701678b9e)" style="fill: #0000f5; fill-opacity: 0.1"/>
    <path d="M 274.901314 197.086839 
L 272.15952 151.774904 
L 261.332054 139.491313 
L 263.94829 184.686869 
z
" clip-path="url(#pb701678b9e)" style="fill: #0000f5; fill-opacity: 0.1"/>
    <path d="M 263.94829 184.686869 
L 261.332054 139.491313 
L 250.491361 127.192716 
L 252.981727 172.271573 
z
" clip-path="url(#pb701678b9e)" style="fill: #0000f5; fill-opacity: 0.1"/>
    <path d="M 252.981727 172.271573 
L 250.491361 127.192716 
L 239.637415 114.879085 
L 242.001602 159.840921 
z
" clip-path="url(#pb701678b9e)" style="fill: #0000f5; fill-opacity: 0.1"/>
    <path d="M 242.001602 159.840921 
L 239.637415 114.879085 
L 228.770194 102.550393 
L 231.007887 147.394886 
z
" clip-path="url(#pb701678b9e)" style="fill: #0000f5; fill-opacity: 0.1"/>
    <path d="M 231.007887 147.394886 
L 228.770194 102.550393 
L 217.889673 90.206612 
L 220.000559 134.933439 
z
" clip-path="url(#pb701678b9e)" style="fill: #0000f5; fill-opacity: 0.1"/>
    <path d="M 220.000559 134.933439 
L 217.889673 90.206612 
L 206.995826 77.847714 
L 208.979593 122.456551 
z
" clip-path="url(#pb701678b9e)" style="fill: #0000f5; fill-opacity: 0.1"/>
    <path d="M 208.979593 122.456551 
L 206.995826 77.847714 
L 196.088631 65.473671 
L 197.944961 109.964194 
z
" clip-path="url(#pb701678b9e)" style="fill: #0000f5; fill-opacity: 0.1"/>
    <path d="M 197.944961 109.964194 
L 196.088631 65.473671 
L 185.168061 53.084456 
L 186.89664 97.456338 
z
" clip-path="url(#pb701678b9e)" style="fill: #0000f5; fill-opacity: 0.1"/>
    <path d="M 186.89664 97.456338 
L 185.168061 53.084456 
L 174.234093 40.680041 
L 175.834604 84.932955 
z
" clip-path="url(#pb701678b9e)" style="fill: #0000f5; fill-opacity: 0.1"/>
    <path d="M 175.834604 84.932955 
L 174.234093 40.680041 
L 163.286702 28.260397 
L 164.758827 72.394017 
z
" clip-path="url(#pb701678b9e)" style="fill: #0000f5; fill-opacity: 0.1"/>
    <path d="M 164.758827 72.394017 
L 163.286702 28.260397 
L 152.325864 15.825497 
L 153.669283 59.839493 
z
" clip-path="url(#pb701678b9e)" style="fill: #0000f5; fill-opacity: 0.1"/>
    <path d="M 153.669283 59.839493 
L 152.325864 15.825497 
L 141.351552 3.375313 
L 142.565948 47.269355 
z
" clip-path="url(#pb701678b9e)" style="fill: #0000f5; fill-opacity: 0.1"/>
    <path d="M 354.893072 330.669 
L 351.195514 283.459858 
L 340.336559 271.166384 
L 343.90784 318.259339 
z
" clip-path="url(#pb701678b9e)" style="fill: #0000f5; fill-opacity: 0.1"/>
    <path d="M 343.90784 318.259339 
L 340.336559 271.166384 
L 329.464239 258.85778 
L 332.908929 305.834225 
z
" clip-path="url(#pb701678b9e)" style="fill: #0000f5; fill-opacity: 0.1"/>
    <path d="M 332.908929 305.834225 
L 329.464239 258.85778 
L 318.578531 246.534019 
L 321.896312 293.393629 
z
" clip-path="url(#pb701678b9e)" style="fill: #0000f5; fill-opacity: 0.1"/>
    <path d="M 321.896312 293.393629 
L 318.578531 246.534019 
L 307.679409 234.195073 
L 310.869965 280.937521 
z
" clip-path="url(#pb701678b9e)" style="fill: #0000f5; fill-opacity: 0.1"/>
    <path d="M 310.869965 280.937521 
L 307.679409 234.195073 
L 296.766849 221.840913 
L 299.829861 268.465873 
z
" clip-path="url(#pb701678b9e)" style="fill: #0000f5; fill-opacity: 0.1"/>
    <path d="M 299.829861 268.465873 
L 296.766849 221.840913 
L 285.840826 209.471511 
L 288.775975 255.978655 
z
" clip-path="url(#pb701678b9e)" style="fill: #0000f5; fill-opacity: 0.1"/>
    <path d="M 288.775975 255.978655 
L 285.840826 209.471511 
L 274.901314 197.086839 
L 277.708281 243.475839 
z
" clip-path="url(#pb701678b9e)" style="fill: #0000f5; fill-opacity: 0.1"/>
    <path d="M 277.708281 243.475839 
L 274.901314 197.086839 
L 263.94829 184.686869 
L 266.626753 230.957395 
z
" clip-path="url(#pb701678b9e)" style="fill: #0000f5; fill-opacity: 0.1"/>
    <path d="M 266.626753 230.957395 
L 263.94829 184.686869 
L 252.981727 172.271573 
L 255.531364 218.423294 
z
" clip-path="url(#pb701678b9e)" style="fill: #0000f5; fill-opacity: 0.1"/>
    <path d="M 255.531364 218.423294 
L 252.981727 172.271573 
L 242.001602 159.840921 
L 244.42209 205.873507 
z
" clip-path="url(#pb701678b9e)" style="fill: #0000f5; fill-opacity: 0.1"/>
    <path d="M 244.42209 205.873507 
L 242.001602 159.840921 
L 231.007887 147.394886 
L 233.298904 193.308003 
z
" clip-path="url(#pb701678b9e)" style="fill: #0000f5; fill-opacity: 0.1"/>
    <path d="M 233.298904 193.308003 
L 231.007887 147.394886 
L 220.000559 134.933439 
L 222.161779 180.726754 
z
" clip-path="url(#pb701678b9e)" style="fill: #0000f5; fill-opacity: 0.1"/>
    <path d="M 222.161779 180.726754 
L 220.000559 134.933439 
L 208.979593 122.456551 
L 211.01069 168.12973 
z
" clip-path="url(#pb701678b9e)" style="fill: #0000f5; fill-opacity: 0.1"/>
    <path d="M 211.01069 168.12973 
L 208.979593 122.456551 
L 197.944961 109.964194 
L 199.845611 155.516901 
z
" clip-path="url(#pb701678b9e)" style="fill: #0000f5; fill-opacity: 0.1"/>
    <path d="M 199.845611 155.516901 
L 197.944961 109.964194 
L 186.89664 97.456338 
L 188.666514 142.888237 
z
" clip-path="url(#pb701678b9e)" style="fill: #0000f5; fill-opacity: 0.1"/>
    <path d="M 188.666514 142.888237 
L 186.89664 97.456338 
L 175.834604 84.932955 
L 177.473374 130.243709 
z
" clip-path="url(#pb701678b9e)" style="fill: #0000f5; fill-opacity: 0.1"/>
    <path d="M 177.473374 130.243709 
L 175.834604 84.932955 
L 164.758827 72.394017 
L 166.266164 117.583286 
z
" clip-path="url(#pb701678b9e)" style="fill: #0000f5; fill-opacity: 0.1"/>
    <path d="M 166.266164 117.583286 
L 164.758827 72.394017 
L 153.669283 59.839493 
L 155.044857 104.906939 
z
" clip-path="url(#pb701678b9e)" style="fill: #0000f5; fill-opacity: 0.1"/>
    <path d="M 155.044857 104.906939 
L 153.669283 59.839493 
L 142.565948 47.269355 
L 143.809428 92.214638 
z
" clip-path="url(#pb701678b9e)" style="fill: #0000f5; fill-opacity: 0.1"/>
    <path d="M 358.679185 379.008798 
L 354.893072 330.669 
L 343.90784 318.259339 
L 347.564707 366.480878 
z
" clip-path="url(#pb701678b9e)" style="fill: #0000f5; fill-opacity: 0.1"/>
    <path d="M 347.564707 366.480878 
L 343.90784 318.259339 
L 332.908929 305.834225 
L 336.436223 353.937171 
z
" clip-path="url(#pb701678b9e)" style="fill: #0000f5; fill-opacity: 0.1"/>
    <path d="M 336.436223 353.937171 
L 332.908929 305.834225 
L 321.896312 293.393629 
L 325.293705 341.377646 
z
" clip-path="url(#pb701678b9e)" style="fill: #0000f5; fill-opacity: 0.1"/>
    <path d="M 325.293705 341.377646 
L 321.896312 293.393629 
L 310.869965 280.937521 
L 314.137127 328.802273 
z
" clip-path="url(#pb701678b9e)" style="fill: #0000f5; fill-opacity: 0.1"/>
    <path d="M 314.137127 328.802273 
L 310.869965 280.937521 
L 299.829861 268.465873 
L 302.966464 316.211023 
z
" clip-path="url(#pb701678b9e)" style="fill: #0000f5; fill-opacity: 0.1"/>
    <path d="M 302.966464 316.211023 
L 299.829861 268.465873 
L 288.775975 255.978655 
L 291.781688 303.603865 
z
" clip-path="url(#pb701678b9e)" style="fill: #0000f5; fill-opacity: 0.1"/>
    <path d="M 291.781688 303.603865 
L 288.775975 255.978655 
L 277.708281 243.475839 
L 280.582771 290.980769 
z
" clip-path="url(#pb701678b9e)" style="fill: #0000f5; fill-opacity: 0.1"/>
    <path d="M 280.582771 290.980769 
L 277.708281 243.475839 
L 266.626753 230.957395 
L 269.369689 278.341705 
z
" clip-path="url(#pb701678b9e)" style="fill: #0000f5; fill-opacity: 0.1"/>
    <path d="M 269.369689 278.341705 
L 266.626753 230.957395 
L 255.531364 218.423294 
L 258.142413 265.686643 
z
" clip-path="url(#pb701678b9e)" style="fill: #0000f5; fill-opacity: 0.1"/>
    <path d="M 258.142413 265.686643 
L 255.531364 218.423294 
L 244.42209 205.873507 
L 246.900916 253.015552 
z
" clip-path="url(#pb701678b9e)" style="fill: #0000f5; fill-opacity: 0.1"/>
    <path d="M 246.900916 253.015552 
L 244.42209 205.873507 
L 233.298904 193.308003 
L 235.645173 240.328402 
z
" clip-path="url(#pb701678b9e)" style="fill: #0000f5; fill-opacity: 0.1"/>
    <path d="M 235.645173 240.328402 
L 233.298904 193.308003 
L 222.161779 180.726754 
L 224.375154 227.625162 
z
" clip-path="url(#pb701678b9e)" style="fill: #0000f5; fill-opacity: 0.1"/>
    <path d="M 224.375154 227.625162 
L 222.161779 180.726754 
L 211.01069 168.12973 
L 213.090834 214.905801 
z
" clip-path="url(#pb701678b9e)" style="fill: #0000f5; fill-opacity: 0.1"/>
    <path d="M 213.090834 214.905801 
L 211.01069 168.12973 
L 199.845611 155.516901 
L 201.792185 202.17029 
z
" clip-path="url(#pb701678b9e)" style="fill: #0000f5; fill-opacity: 0.1"/>
    <path d="M 201.792185 202.17029 
L 199.845611 155.516901 
L 188.666514 142.888237 
L 190.47918 189.418596 
z
" clip-path="url(#pb701678b9e)" style="fill: #0000f5; fill-opacity: 0.1"/>
    <path d="M 190.47918 189.418596 
L 188.666514 142.888237 
L 177.473374 130.243709 
L 179.151792 176.65069 
z
" clip-path="url(#pb701678b9e)" style="fill: #0000f5; fill-opacity: 0.1"/>
    <path d="M 179.151792 176.65069 
L 177.473374 130.243709 
L 166.266164 117.583286 
L 167.809992 163.86654 
z
" clip-path="url(#pb701678b9e)" style="fill: #0000f5; fill-opacity: 0.1"/>
    <path d="M 167.809992 163.86654 
L 166.266164 117.583286 
L 155.044857 104.906939 
L 156.453753 151.066115 
z
" clip-path="url(#pb701678b9e)" style="fill: #0000f5; fill-opacity: 0.1"/>
    <path d="M 156.453753 151.066115 
L 155.044857 104.906939 
L 143.809428 92.214638 
L 145.083049 138.249384 
z
" clip-path="url(#pb701678b9e)" style="fill: #0000f5; fill-opacity: 0.1"/>
   </g>
   <g id="legend_1">
    <g id="patch_6">
     <path d="M 357.840076 67.305115 
L 396.2 67.305115 
Q 398.2 67.305115 398.2 65.305115 
L 398.2 7 
Q 398.2 5 396.2 5 
L 357.840076 5 
Q 355.840076 5 355.840076 7 
L 355.840076 65.305115 
Q 355.840076 67.305115 357.840076 67.305115 
z
" style="fill: #ffffff; opacity: 0.8; stroke: #cccccc; stroke-linejoin: miter"/>
    </g>
    <g id="line2d_25">
     <path d="M 359.840076 12.5 
L 369.840076 12.5 
L 379.840076 12.5 
" style="fill: none; stroke: #ff0000; stroke-width: 1.5; stroke-linecap: square"/>
    </g>
    <g id="text_21">
     <!-- $\vec{a}$ -->
     <g transform="translate(387.840076 16)scale(0.1 -0.1)">
      <defs>
       <path id="CMMI12-7e" d="M 3424 3835 
C 3347 3764 3110 3540 3110 3451 
C 3110 3387 3168 3329 3232 3329 
C 3290 3329 3315 3368 3360 3432 
C 3514 3624 3686 3745 3834 3828 
C 3898 3867 3942 3886 3942 3956 
C 3942 4014 3891 4046 3853 4078 
C 3674 4200 3629 4372 3610 4449 
C 3590 4500 3571 4577 3482 4577 
C 3443 4577 3366 4552 3366 4456 
C 3366 4398 3405 4244 3526 4072 
L 1376 4072 
C 1267 4072 1158 4072 1158 3950 
C 1158 3835 1274 3835 1376 3835 
L 3424 3835 
z
" transform="scale(0.015625)"/>
       <path id="CMMI12-61" d="M 1926 760 
C 1894 651 1894 639 1805 517 
C 1664 338 1382 64 1082 64 
C 819 64 672 300 672 677 
C 672 1028 870 1743 992 2012 
C 1210 2459 1510 2689 1760 2689 
C 2182 2689 2266 2165 2266 2114 
C 2266 2108 2246 2024 2240 2012 
L 1926 760 
z
M 2336 2395 
C 2266 2561 2093 2816 1760 2816 
C 1037 2816 256 1884 256 939 
C 256 307 627 -64 1062 -64 
C 1414 -64 1715 211 1894 422 
C 1958 45 2259 -64 2451 -64 
C 2643 -64 2797 51 2912 281 
C 3014 498 3104 888 3104 913 
C 3104 945 3078 971 3040 971 
C 2982 971 2976 939 2950 843 
C 2854 466 2733 64 2470 64 
C 2285 64 2272 230 2272 358 
C 2272 505 2291 575 2349 824 
C 2394 984 2426 1124 2477 1309 
C 2714 2267 2771 2497 2771 2535 
C 2771 2625 2701 2695 2605 2695 
C 2400 2695 2349 2472 2336 2395 
z
" transform="scale(0.015625)"/>
      </defs>
      <use xlink:href="#CMMI12-7e" transform="scale(0.996264)"/>
      <use xlink:href="#CMMI12-61" transform="translate(6.445738 0)scale(0.996264)"/>
     </g>
    </g>
    <g id="line2d_26">
     <path d="M 359.840076 27.24679 
L 369.840076 27.24679 
L 379.840076 27.24679 
" style="fill: none; stroke: #00ff00; stroke-width: 1.5; stroke-linecap: square"/>
    </g>
    <g id="text_22">
     <!-- $\vec{b}$ -->
     <g transform="translate(387.840076 30.74679)scale(0.1 -0.1)">
      <defs>
       <path id="CMMI12-62" d="M 1478 4257 
C 1485 4283 1498 4321 1498 4352 
C 1498 4416 1434 4416 1421 4416 
C 1414 4416 1184 4393 1069 4377 
C 960 4377 864 4358 749 4358 
C 595 4345 550 4339 550 4224 
C 550 4160 614 4160 678 4160 
C 1005 4160 1005 4103 1005 4040 
C 1005 3996 954 3811 928 3696 
L 774 3085 
C 710 2831 346 1387 320 1272 
C 288 1114 288 1005 288 922 
C 288 274 653 -64 1069 -64 
C 1811 -64 2579 888 2579 1814 
C 2579 2401 2246 2816 1766 2816 
C 1434 2816 1133 2542 1011 2414 
L 1478 4257 
z
M 1075 64 
C 870 64 646 217 646 715 
C 646 926 666 1047 781 1494 
C 800 1577 902 1986 928 2069 
C 941 2120 1318 2689 1754 2689 
C 2035 2689 2163 2408 2163 2076 
C 2163 1769 1984 1047 1824 715 
C 1664 370 1370 64 1075 64 
z
" transform="scale(0.015625)"/>
      </defs>
      <use xlink:href="#CMMI12-7e" transform="translate(0 26.29016)scale(0.996264)"/>
      <use xlink:href="#CMMI12-62" transform="translate(11.311737 0)scale(0.996264)"/>
     </g>
    </g>
    <g id="line2d_27">
     <path d="M 359.840076 41.183968 
L 369.840076 41.183968 
L 379.840076 41.183968 
" style="fill: none; stroke: #0016ff; stroke-width: 1.5; stroke-linecap: square"/>
    </g>
    <g id="text_23">
     <!-- $\vec{c}$ -->
     <g transform="translate(387.840076 44.683968)scale(0.1 -0.1)">
      <defs>
       <path id="CMMI12-63" d="M 2502 2431 
C 2381 2431 2323 2431 2234 2355 
C 2195 2323 2125 2227 2125 2125 
C 2125 1997 2221 1920 2342 1920 
C 2496 1920 2669 2044 2669 2292 
C 2669 2588 2374 2816 1933 2816 
C 1094 2816 256 1903 256 996 
C 256 441 602 -64 1254 -64 
C 2125 -64 2675 622 2675 706 
C 2675 744 2637 776 2611 776 
C 2592 776 2586 770 2528 713 
C 2118 162 1510 64 1267 64 
C 826 64 685 446 685 764 
C 685 988 794 1605 1024 2039 
C 1190 2338 1536 2682 1939 2682 
C 2022 2682 2374 2682 2502 2431 
z
" transform="scale(0.015625)"/>
      </defs>
      <use xlink:href="#CMMI12-7e" transform="scale(0.996264)"/>
      <use xlink:href="#CMMI12-63" transform="translate(5.638615 0)scale(0.996264)"/>
     </g>
    </g>
    <g id="line2d_28">
     <path d="M 359.840076 57.867937 
L 369.840076 57.867937 
L 379.840076 57.867937 
" style="fill: none; stroke: #f400ff; stroke-width: 1.5; stroke-linecap: square"/>
    </g>
    <g id="text_24">
     <!-- $\vec{f}$ -->
     <g transform="translate(387.840076 61.367937)scale(0.1 -0.1)">
      <defs>
       <path id="CMMI12-66" d="M 2854 2566 
C 2982 2566 3034 2566 3034 2688 
C 3034 2752 2982 2752 2867 2752 
L 2349 2752 
C 2470 3429 2560 3897 2611 4107 
C 2650 4265 2784 4416 2950 4416 
C 3085 4416 3219 4358 3283 4298 
C 3034 4272 2957 4082 2957 3969 
C 2957 3837 3053 3759 3174 3759 
C 3302 3759 3494 3870 3494 4119 
C 3494 4393 3226 4544 2944 4544 
C 2669 4544 2400 4334 2272 4078 
C 2157 3848 2093 3611 1946 2752 
L 1517 2752 
C 1395 2752 1331 2752 1331 2637 
C 1331 2566 1370 2566 1498 2566 
L 1907 2566 
C 1792 1976 1530 542 1382 -137 
C 1274 -689 1178 -1152 858 -1152 
C 838 -1152 653 -1152 538 -1031 
C 864 -1005 864 -726 864 -720 
C 864 -593 768 -517 646 -517 
C 518 -517 326 -625 326 -867 
C 326 -1140 608 -1280 858 -1280 
C 1510 -1280 1779 -118 1850 199 
C 1965 688 2278 2376 2310 2566 
L 2854 2566 
z
" transform="scale(0.015625)"/>
      </defs>
      <use xlink:href="#CMMI12-7e" transform="translate(13.568792 26.29016)scale(0.996264)"/>
      <use xlink:href="#CMMI12-66" transform="scale(0.996264)"/>
     </g>
    </g>
   </g>
  </g>
 </g>
 <defs>
  <clipPath id="pb701678b9e">
   <rect x="57.6" y="0" width="345.6" height="345.6"/>
  </clipPath>
 </defs>
</svg>
