<?xml version="1.0" encoding="utf-8" standalone="no"?>
<!DOCTYPE svg PUBLIC "-//W3C//DTD SVG 1.1//EN"
  "http://www.w3.org/Graphics/SVG/1.1/DTD/svg11.dtd">
<svg xmlns:xlink="http://www.w3.org/1999/xlink" width="460.8pt" height="345.6pt" viewBox="0 0 460.8 345.6" xmlns="http://www.w3.org/2000/svg" version="1.1">
 <metadata>
  <rdf:RDF xmlns:dc="http://purl.org/dc/elements/1.1/" xmlns:cc="http://creativecommons.org/ns#" xmlns:rdf="http://www.w3.org/1999/02/22-rdf-syntax-ns#">
   <cc:Work>
    <dc:type rdf:resource="http://purl.org/dc/dcmitype/StillImage"/>
    <dc:date>2022-07-12T15:41:44.808419</dc:date>
    <dc:format>image/svg+xml</dc:format>
    <dc:creator>
     <cc:Agent>
      <dc:title>Matplotlib v3.5.1, https://matplotlib.org/</dc:title>
     </cc:Agent>
    </dc:creator>
   </cc:Work>
  </rdf:RDF>
 </metadata>
 <defs>
  <style type="text/css">*{stroke-linejoin: round; stroke-linecap: butt}</style>
 </defs>
 <g id="figure_1">
  <g id="patch_1">
   <path d="M 0 345.6 
L 460.8 345.6 
L 460.8 0 
L 0 0 
z
" style="fill: #ffffff"/>
  </g>
  <g id="patch_2">
   <path d="M 57.6 345.6 
L 403.2 345.6 
L 403.2 0 
L 57.6 0 
z
" style="fill: #ffffff"/>
  </g>
  <g id="pane3d_1">
   <g id="patch_3">
    <path d="M 332.076694 246.545577 
L 122.598938 247.162688 
L 122.598938 89.096771 
L 332.076694 89.713882 
" style="fill: #f2f2f2; opacity: 0.5; stroke: #f2f2f2; stroke-linejoin: miter"/>
   </g>
  </g>
  <g id="pane3d_2">
   <g id="patch_4">
    <path d="M 360.690605 256.402417 
L 332.076694 246.545577 
L 332.076694 89.713882 
L 360.690605 79.857042 
" style="fill: #e6e6e6; opacity: 0.5; stroke: #e6e6e6; stroke-linejoin: miter"/>
   </g>
  </g>
  <g id="pane3d_3">
   <g id="patch_5">
    <path d="M 360.690605 256.402417 
L 332.076694 246.545577 
L 122.598938 247.162688 
L 124.901824 257.185195 
" style="fill: #ececec; opacity: 0.5; stroke: #ececec; stroke-linejoin: miter"/>
   </g>
  </g>
  <g id="axis3d_1">
   <g id="line2d_1">
    <path d="M 122.598938 247.162688 
L 124.901824 257.185195 
" style="fill: none; stroke: #000000; stroke-width: 0.8; stroke-linecap: square"/>
   </g>
   <g id="text_1">
    <!-- x -->
    <g transform="translate(89.005523 279.246888)scale(0.16 -0.16)">
     <defs>
      <path id="CMSS17-78" d="M 1587 1414 
L 2656 2739 
L 2099 2739 
L 1363 1777 
L 602 2739 
L 32 2739 
L 1139 1414 
L 0 0 
L 563 0 
L 1363 1121 
L 2195 0 
L 2758 0 
L 1587 1414 
z
" transform="scale(0.015625)"/>
     </defs>
     <use xlink:href="#CMSS17-78" transform="scale(0.996264)"/>
    </g>
   </g>
   <g id="Line3DCollection_1">
    <path d="M 124.850056 256.959896 
L 360.048007 256.181057 
L 360.048007 80.078402 
" style="fill: none; stroke: #b0b0b0; stroke-width: 0.8"/>
    <path d="M 124.366102 254.853655 
L 354.039192 254.111157 
L 354.039192 82.148302 
" style="fill: none; stroke: #b0b0b0; stroke-width: 0.8"/>
    <path d="M 123.904567 252.844981 
L 348.306398 252.13634 
L 348.306398 84.123119 
" style="fill: none; stroke: #b0b0b0; stroke-width: 0.8"/>
    <path d="M 123.463927 250.92725 
L 342.831032 250.250202 
L 342.831032 86.009258 
" style="fill: none; stroke: #b0b0b0; stroke-width: 0.8"/>
    <path d="M 123.042796 249.094422 
L 337.596135 248.446899 
L 337.596135 87.81256 
" style="fill: none; stroke: #b0b0b0; stroke-width: 0.8"/>
    <path d="M 122.639905 247.340981 
L 332.586207 246.721093 
L 332.586207 89.538366 
" style="fill: none; stroke: #b0b0b0; stroke-width: 0.8"/>
   </g>
   <g id="xtick_1">
    <g id="line2d_2">
     <path d="M 126.748149 256.953611 
L 121.053065 256.972469 
" style="fill: none; stroke: #000000; stroke-width: 0.8; stroke-linecap: square"/>
    </g>
    <g id="text_2">
     <!-- $\mathdefault{0}$ -->
     <g transform="translate(107.191367 275.285561)scale(0.1 -0.1)">
      <defs>
       <path id="CMR17-30" d="M 2688 2025 
C 2688 2416 2682 3080 2413 3591 
C 2176 4039 1798 4198 1466 4198 
C 1158 4198 768 4058 525 3597 
C 269 3118 243 2524 243 2025 
C 243 1661 250 1106 448 619 
C 723 -39 1216 -128 1466 -128 
C 1760 -128 2208 -7 2470 600 
C 2662 1042 2688 1559 2688 2025 
z
M 1466 -26 
C 1056 -26 813 325 723 812 
C 653 1188 653 1738 653 2096 
C 653 2588 653 2997 736 3387 
C 858 3929 1216 4096 1466 4096 
C 1728 4096 2067 3923 2189 3400 
C 2272 3036 2278 2607 2278 2096 
C 2278 1680 2278 1169 2202 792 
C 2067 95 1690 -26 1466 -26 
z
" transform="scale(0.015625)"/>
      </defs>
      <use xlink:href="#CMR17-30" transform="scale(0.996264)"/>
     </g>
    </g>
   </g>
   <g id="xtick_2">
    <g id="line2d_3">
     <path d="M 126.219226 254.847664 
L 120.659087 254.865639 
" style="fill: none; stroke: #000000; stroke-width: 0.8; stroke-linecap: square"/>
    </g>
    <g id="text_3">
     <!-- $\mathdefault{1}$ -->
     <g transform="translate(107.066992 272.907534)scale(0.1 -0.1)">
      <defs>
       <path id="CMR17-31" d="M 1702 4058 
C 1702 4192 1696 4192 1606 4192 
C 1357 3916 979 3827 621 3827 
C 602 3827 570 3827 563 3808 
C 557 3795 557 3782 557 3648 
C 755 3648 1088 3686 1344 3839 
L 1344 461 
C 1344 236 1331 160 781 160 
L 589 160 
L 589 0 
C 896 0 1216 0 1523 0 
C 1830 0 2150 0 2458 0 
L 2458 160 
L 2266 160 
C 1715 160 1702 230 1702 458 
L 1702 4058 
z
" transform="scale(0.015625)"/>
      </defs>
      <use xlink:href="#CMR17-31" transform="scale(0.996264)"/>
     </g>
    </g>
   </g>
   <g id="xtick_3">
    <g id="line2d_4">
     <path d="M 125.714803 252.839265 
L 120.283361 252.856417 
" style="fill: none; stroke: #000000; stroke-width: 0.8; stroke-linecap: square"/>
    </g>
    <g id="text_4">
     <!-- $\mathdefault{2}$ -->
     <g transform="translate(106.948381 270.639724)scale(0.1 -0.1)">
      <defs>
       <path id="CMR17-32" d="M 2669 989 
L 2554 989 
C 2490 536 2438 459 2413 420 
C 2381 369 1920 369 1830 369 
L 602 369 
C 832 619 1280 1072 1824 1597 
C 2214 1967 2669 2402 2669 3035 
C 2669 3790 2067 4224 1395 4224 
C 691 4224 262 3604 262 3030 
C 262 2780 448 2748 525 2748 
C 589 2748 781 2787 781 3010 
C 781 3207 614 3264 525 3264 
C 486 3264 448 3258 422 3245 
C 544 3790 915 4058 1306 4058 
C 1862 4058 2227 3617 2227 3035 
C 2227 2479 1901 2000 1536 1584 
L 262 146 
L 262 0 
L 2515 0 
L 2669 989 
z
" transform="scale(0.015625)"/>
      </defs>
      <use xlink:href="#CMR17-32" transform="scale(0.996264)"/>
     </g>
    </g>
   </g>
   <g id="xtick_4">
    <g id="line2d_5">
     <path d="M 125.233216 250.92179 
L 119.924649 250.938174 
" style="fill: none; stroke: #000000; stroke-width: 0.8; stroke-linecap: square"/>
    </g>
    <g id="text_5">
     <!-- $\mathdefault{3}$ -->
     <g transform="translate(106.835143 268.474643)scale(0.1 -0.1)">
      <defs>
       <path id="CMR17-33" d="M 1414 2157 
C 1984 2157 2234 1662 2234 1090 
C 2234 320 1824 25 1453 25 
C 1114 25 563 194 390 693 
C 422 680 454 680 486 680 
C 640 680 755 782 755 948 
C 755 1133 614 1216 486 1216 
C 378 1216 211 1165 211 926 
C 211 335 787 -128 1466 -128 
C 2176 -128 2720 430 2720 1085 
C 2720 1707 2208 2157 1600 2227 
C 2086 2328 2554 2756 2554 3329 
C 2554 3820 2048 4179 1472 4179 
C 890 4179 378 3829 378 3329 
C 378 3110 544 3072 627 3072 
C 762 3072 877 3155 877 3321 
C 877 3486 762 3569 627 3569 
C 602 3569 570 3569 544 3557 
C 730 3959 1235 4032 1459 4032 
C 1683 4032 2106 3925 2106 3320 
C 2106 3143 2080 2828 1862 2550 
C 1670 2304 1453 2304 1242 2284 
C 1210 2284 1062 2269 1037 2269 
C 992 2263 966 2257 966 2208 
C 966 2163 973 2157 1101 2157 
L 1414 2157 
z
" transform="scale(0.015625)"/>
      </defs>
      <use xlink:href="#CMR17-33" transform="scale(0.996264)"/>
     </g>
    </g>
   </g>
   <g id="xtick_5">
    <g id="line2d_6">
     <path d="M 124.772949 249.089201 
L 119.58182 249.104868 
" style="fill: none; stroke: #000000; stroke-width: 0.8; stroke-linecap: square"/>
    </g>
    <g id="text_6">
     <!-- $\mathdefault{4}$ -->
     <g transform="translate(106.726921 266.405465)scale(0.1 -0.1)">
      <defs>
       <path id="CMR17-34" d="M 2150 4122 
C 2150 4256 2144 4256 2029 4256 
L 128 1254 
L 128 1088 
L 1779 1088 
L 1779 457 
C 1779 224 1766 160 1318 160 
L 1197 160 
L 1197 0 
C 1402 0 1747 0 1965 0 
C 2182 0 2528 0 2733 0 
L 2733 160 
L 2611 160 
C 2163 160 2150 224 2150 457 
L 2150 1088 
L 2803 1088 
L 2803 1254 
L 2150 1254 
L 2150 4122 
z
M 1798 3703 
L 1798 1254 
L 256 1254 
L 1798 3703 
z
" transform="scale(0.015625)"/>
      </defs>
      <use xlink:href="#CMR17-34" transform="scale(0.996264)"/>
     </g>
    </g>
   </g>
   <g id="xtick_6">
    <g id="line2d_7">
     <path d="M 124.332616 247.335983 
L 119.253842 247.350978 
" style="fill: none; stroke: #000000; stroke-width: 0.8; stroke-linecap: square"/>
    </g>
    <g id="text_7">
     <!-- $\mathdefault{5}$ -->
     <g transform="translate(106.623389 264.425956)scale(0.1 -0.1)">
      <defs>
       <path id="CMR17-35" d="M 730 3692 
C 794 3666 1056 3584 1325 3584 
C 1920 3584 2246 3911 2432 4100 
C 2432 4157 2432 4192 2394 4192 
C 2387 4192 2374 4192 2323 4163 
C 2099 4058 1837 3973 1517 3973 
C 1325 3973 1037 3999 723 4139 
C 653 4171 640 4171 634 4171 
C 602 4171 595 4164 595 4037 
L 595 2203 
C 595 2089 595 2057 659 2057 
C 691 2057 704 2070 736 2114 
C 941 2401 1222 2522 1542 2522 
C 1766 2522 2246 2382 2246 1289 
C 2246 1085 2246 715 2054 421 
C 1894 159 1645 25 1370 25 
C 947 25 518 320 403 814 
C 429 807 480 795 506 795 
C 589 795 749 840 749 1038 
C 749 1210 627 1280 506 1280 
C 358 1280 262 1190 262 1011 
C 262 454 704 -128 1382 -128 
C 2042 -128 2669 440 2669 1264 
C 2669 2030 2170 2624 1549 2624 
C 1222 2624 947 2503 730 2274 
L 730 3692 
z
" transform="scale(0.015625)"/>
      </defs>
      <use xlink:href="#CMR17-35" transform="scale(0.996264)"/>
     </g>
    </g>
   </g>
  </g>
  <g id="axis3d_2">
   <g id="line2d_8">
    <path d="M 360.690605 256.402417 
L 124.901824 257.185195 
" style="fill: none; stroke: #000000; stroke-width: 0.8; stroke-linecap: square"/>
   </g>
   <g id="text_8">
    <!-- y -->
    <g transform="translate(242.225456 287.427614)scale(0.16 -0.16)">
     <defs>
      <path id="CMSS17-79" d="M 2675 2752 
L 2176 2752 
C 1632 1294 1446 702 1434 383 
L 1427 383 
C 1408 696 1126 1460 902 2007 
L 602 2752 
L 83 2752 
L 1216 13 
C 1146 -178 1043 -465 1011 -529 
C 870 -885 774 -885 672 -885 
C 646 -885 442 -885 211 -809 
L 250 -1229 
C 410 -1261 570 -1280 685 -1280 
C 845 -1280 1165 -1280 1459 -497 
L 2675 2752 
z
" transform="scale(0.015625)"/>
     </defs>
     <use xlink:href="#CMSS17-79" transform="scale(0.996264)"/>
    </g>
   </g>
   <g id="Line3DCollection_2">
    <path d="M 307.945153 89.642792 
L 307.945153 246.616668 
L 333.551849 256.492513 
" style="fill: none; stroke: #b0b0b0; stroke-width: 0.8"/>
    <path d="M 267.907003 89.524841 
L 267.907003 246.734618 
L 288.51059 256.642042 
" style="fill: none; stroke: #b0b0b0; stroke-width: 0.8"/>
    <path d="M 227.748334 89.406536 
L 227.748334 246.852924 
L 243.316634 256.792078 
" style="fill: none; stroke: #b0b0b0; stroke-width: 0.8"/>
    <path d="M 187.468599 89.287874 
L 187.468599 246.971586 
L 197.969202 256.942624 
" style="fill: none; stroke: #b0b0b0; stroke-width: 0.8"/>
    <path d="M 147.067251 89.168853 
L 147.067251 247.090606 
L 152.467512 257.093681 
" style="fill: none; stroke: #b0b0b0; stroke-width: 0.8"/>
   </g>
   <g id="xtick_7">
    <g id="line2d_9">
     <path d="M 333.321451 256.403655 
L 334.014039 256.670768 
" style="fill: none; stroke: #000000; stroke-width: 0.8; stroke-linecap: square"/>
    </g>
    <g id="text_9">
     <!-- $\mathdefault{−4}$ -->
     <g transform="translate(329.043572 275.50942)scale(0.1 -0.1)">
      <defs>
       <path id="CMSY10-0" d="M 4218 1472 
C 4326 1472 4442 1472 4442 1600 
C 4442 1728 4326 1728 4218 1728 
L 755 1728 
C 646 1728 531 1728 531 1600 
C 531 1472 646 1472 755 1472 
L 4218 1472 
z
" transform="scale(0.015625)"/>
      </defs>
      <use xlink:href="#CMSY10-0" transform="scale(0.996264)"/>
      <use xlink:href="#CMR17-34" transform="translate(77.487468 0)scale(0.996264)"/>
     </g>
    </g>
   </g>
   <g id="xtick_8">
    <g id="line2d_10">
     <path d="M 288.325173 256.552883 
L 288.882548 256.820902 
" style="fill: none; stroke: #000000; stroke-width: 0.8; stroke-linecap: square"/>
    </g>
    <g id="text_10">
     <!-- $\mathdefault{−2}$ -->
     <g transform="translate(283.639837 275.680802)scale(0.1 -0.1)">
      <use xlink:href="#CMSY10-0" transform="scale(0.996264)"/>
      <use xlink:href="#CMR17-32" transform="translate(77.487468 0)scale(0.996264)"/>
     </g>
    </g>
   </g>
   <g id="xtick_9">
    <g id="line2d_11">
     <path d="M 243.176505 256.702617 
L 243.597744 256.971545 
" style="fill: none; stroke: #000000; stroke-width: 0.8; stroke-linecap: square"/>
    </g>
    <g id="text_11">
     <!-- $\mathdefault{0}$ -->
     <g transform="translate(241.955295 275.85277)scale(0.1 -0.1)">
      <use xlink:href="#CMR17-30" transform="scale(0.996264)"/>
     </g>
    </g>
   </g>
   <g id="xtick_10">
    <g id="line2d_12">
     <path d="M 197.874669 256.852858 
L 198.158844 257.122701 
" style="fill: none; stroke: #000000; stroke-width: 0.8; stroke-linecap: square"/>
    </g>
    <g id="text_12">
     <!-- $\mathdefault{2}$ -->
     <g transform="translate(196.240407 276.025327)scale(0.1 -0.1)">
      <use xlink:href="#CMR17-32" transform="scale(0.996264)"/>
     </g>
    </g>
   </g>
   <g id="xtick_11">
    <g id="line2d_13">
     <path d="M 152.418886 257.00361 
L 152.56506 257.274373 
" style="fill: none; stroke: #000000; stroke-width: 0.8; stroke-linecap: square"/>
    </g>
    <g id="text_13">
     <!-- $\mathdefault{4}$ -->
     <g transform="translate(150.368741 276.198475)scale(0.1 -0.1)">
      <use xlink:href="#CMR17-34" transform="scale(0.996264)"/>
     </g>
    </g>
   </g>
  </g>
  <g id="axis3d_3">
   <g id="line2d_14">
    <path d="M 360.690605 256.402417 
L 360.690605 79.857042 
" style="fill: none; stroke: #000000; stroke-width: 0.8; stroke-linecap: square"/>
   </g>
   <g id="text_14">
    <!-- z -->
    <g transform="translate(394.849104 172.114786)scale(0.16 -0.16)">
     <defs>
      <path id="CMSS17-7a" d="M 2400 2502 
L 2400 2750 
L 250 2750 
L 250 2368 
L 1069 2368 
C 1146 2368 1222 2368 1299 2368 
L 1747 2368 
L 166 261 
L 166 0 
L 2419 0 
L 2419 395 
L 1549 395 
C 1472 395 1395 395 1318 395 
L 826 395 
L 2400 2502 
z
" transform="scale(0.015625)"/>
     </defs>
     <use xlink:href="#CMSS17-7a" transform="scale(0.996264)"/>
    </g>
   </g>
   <g id="Line3DCollection_3">
    <path d="M 360.690605 252.87151 
L 332.076694 243.408943 
L 122.598938 244.00137 
" style="fill: none; stroke: #b0b0b0; stroke-width: 0.8"/>
    <path d="M 360.690605 218.974798 
L 332.076694 213.297258 
L 122.598938 213.652714 
" style="fill: none; stroke: #b0b0b0; stroke-width: 0.8"/>
    <path d="M 360.690605 185.078086 
L 332.076694 183.185572 
L 122.598938 183.304058 
" style="fill: none; stroke: #b0b0b0; stroke-width: 0.8"/>
    <path d="M 360.690605 151.181374 
L 332.076694 153.073887 
L 122.598938 152.955402 
" style="fill: none; stroke: #b0b0b0; stroke-width: 0.8"/>
    <path d="M 360.690605 117.284662 
L 332.076694 122.962201 
L 122.598938 122.606746 
" style="fill: none; stroke: #b0b0b0; stroke-width: 0.8"/>
    <path d="M 360.690605 83.38795 
L 332.076694 92.850516 
L 122.598938 92.258089 
" style="fill: none; stroke: #b0b0b0; stroke-width: 0.8"/>
   </g>
   <g id="xtick_12">
    <g id="line2d_15">
     <path d="M 360.433179 252.786379 
L 361.207015 253.042285 
" style="fill: none; stroke: #000000; stroke-width: 0.8; stroke-linecap: square"/>
    </g>
    <g id="text_15">
     <!-- $\mathdefault{0}$ -->
     <g transform="translate(375.317569 260.427728)scale(0.1 -0.1)">
      <use xlink:href="#CMR17-30" transform="scale(0.996264)"/>
     </g>
    </g>
   </g>
   <g id="xtick_13">
    <g id="line2d_16">
     <path d="M 360.433179 218.92372 
L 361.207015 219.077263 
" style="fill: none; stroke: #000000; stroke-width: 0.8; stroke-linecap: square"/>
    </g>
    <g id="text_16">
     <!-- $\mathdefault{1}$ -->
     <g transform="translate(375.317569 226.275928)scale(0.1 -0.1)">
      <use xlink:href="#CMR17-31" transform="scale(0.996264)"/>
     </g>
    </g>
   </g>
   <g id="xtick_14">
    <g id="line2d_17">
     <path d="M 360.433179 185.06106 
L 361.207015 185.112241 
" style="fill: none; stroke: #000000; stroke-width: 0.8; stroke-linecap: square"/>
    </g>
    <g id="text_17">
     <!-- $\mathdefault{2}$ -->
     <g transform="translate(375.317569 192.124128)scale(0.1 -0.1)">
      <use xlink:href="#CMR17-32" transform="scale(0.996264)"/>
     </g>
    </g>
   </g>
   <g id="xtick_15">
    <g id="line2d_18">
     <path d="M 360.433179 151.1984 
L 361.207015 151.147219 
" style="fill: none; stroke: #000000; stroke-width: 0.8; stroke-linecap: square"/>
    </g>
    <g id="text_18">
     <!-- $\mathdefault{3}$ -->
     <g transform="translate(375.317569 157.972328)scale(0.1 -0.1)">
      <use xlink:href="#CMR17-33" transform="scale(0.996264)"/>
     </g>
    </g>
   </g>
   <g id="xtick_16">
    <g id="line2d_19">
     <path d="M 360.433179 117.33574 
L 361.207015 117.182196 
" style="fill: none; stroke: #000000; stroke-width: 0.8; stroke-linecap: square"/>
    </g>
    <g id="text_19">
     <!-- $\mathdefault{4}$ -->
     <g transform="translate(375.317569 123.820528)scale(0.1 -0.1)">
      <use xlink:href="#CMR17-34" transform="scale(0.996264)"/>
     </g>
    </g>
   </g>
   <g id="xtick_17">
    <g id="line2d_20">
     <path d="M 360.433179 83.47308 
L 361.207015 83.217174 
" style="fill: none; stroke: #000000; stroke-width: 0.8; stroke-linecap: square"/>
    </g>
    <g id="text_20">
     <!-- $\mathdefault{5}$ -->
     <g transform="translate(375.317569 89.668728)scale(0.1 -0.1)">
      <use xlink:href="#CMR17-35" transform="scale(0.996264)"/>
     </g>
    </g>
   </g>
  </g>
  <g id="axes_1">
   <g id="line2d_21">
    <path d="M 242.96684 253.031201 
L 173.387523 85.026901 
" clip-path="url(#pb5b9bd4bd7)" style="fill: none; stroke: #ff0000; stroke-width: 1.5; stroke-linecap: square"/>
   </g>
   <g id="line2d_22">
    <path d="M 242.96684 253.031201 
L 279.591748 119.616933 
" clip-path="url(#pb5b9bd4bd7)" style="fill: none; stroke: #00ff00; stroke-width: 1.5; stroke-linecap: square"/>
   </g>
   <g id="line2d_23">
    <path d="M 242.96684 253.031201 
L 216.37882 -1 
" clip-path="url(#pb5b9bd4bd7)" style="fill: none; stroke: #0016ff; stroke-width: 1.5; stroke-linecap: square"/>
   </g>
   <g id="line2d_24">
    <path d="M 242.96684 253.031201 
L 288.352518 153.015112 
" clip-path="url(#pb5b9bd4bd7)" style="fill: none; stroke: #f400ff; stroke-width: 1.5; stroke-linecap: square"/>
   </g>
   <g id="Poly3DCollection_1">
    <path d="M 333.338706 21.607776 
L 330.852381 -18.754231 
L 320.739135 -30.271454 
L 323.115315 9.979532 
z
" clip-path="url(#pb5b9bd4bd7)" style="fill: #0000f5; fill-opacity: 0.1"/>
    <path d="M 323.115315 9.979532 
L 320.739135 -30.271454 
L 310.618202 -41.797432 
L 312.884068 -1.657647 
z
" clip-path="url(#pb5b9bd4bd7)" style="fill: #0000f5; fill-opacity: 0.1"/>
    <path d="M 312.884068 -1.657647 
L 310.618202 -41.797432 
L 300.489573 -53.332174 
L 302.644955 -13.303774 
z
" clip-path="url(#pb5b9bd4bd7)" style="fill: #0000f5; fill-opacity: 0.1"/>
    <path d="M 302.644955 -13.303774 
L 300.489573 -53.332174 
L 290.353238 -64.875691 
L 292.397967 -24.958857 
z
" clip-path="url(#pb5b9bd4bd7)" style="fill: #0000f5; fill-opacity: 0.1"/>
    <path d="M 292.397967 -24.958857 
L 290.353238 -64.875691 
L 280.20919 -76.427992 
L 282.143096 -36.622907 
z
" clip-path="url(#pb5b9bd4bd7)" style="fill: #0000f5; fill-opacity: 0.1"/>
    <path d="M 282.143096 -36.622907 
L 280.20919 -76.427992 
L 270.05742 -87.989088 
L 271.880332 -48.295934 
z
" clip-path="url(#pb5b9bd4bd7)" style="fill: #0000f5; fill-opacity: 0.1"/>
    <path d="M 271.880332 -48.295934 
L 270.05742 -87.989088 
L 259.897918 -99.558989 
L 261.609666 -59.97795 
z
" clip-path="url(#pb5b9bd4bd7)" style="fill: #0000f5; fill-opacity: 0.1"/>
    <path d="M 261.609666 -59.97795 
L 259.897918 -99.558989 
L 249.730676 -111.137704 
L 251.331089 -71.668963 
z
" clip-path="url(#pb5b9bd4bd7)" style="fill: #0000f5; fill-opacity: 0.1"/>
    <path d="M 251.331089 -71.668963 
L 249.730676 -111.137704 
L 239.555685 -122.725244 
L 241.044592 -83.368985 
z
" clip-path="url(#pb5b9bd4bd7)" style="fill: #0000f5; fill-opacity: 0.1"/>
    <path d="M 241.044592 -83.368985 
L 239.555685 -122.725244 
L 229.372936 -134.321619 
L 230.750166 -95.078026 
z
" clip-path="url(#pb5b9bd4bd7)" style="fill: #0000f5; fill-opacity: 0.1"/>
    <path d="M 230.750166 -95.078026 
L 229.372936 -134.321619 
L 219.182421 -145.926839 
L 220.4478 -106.796097 
z
" clip-path="url(#pb5b9bd4bd7)" style="fill: #0000f5; fill-opacity: 0.1"/>
    <path d="M 220.4478 -106.796097 
L 219.182421 -145.926839 
L 208.984129 -157.540914 
L 210.137488 -118.523207 
z
" clip-path="url(#pb5b9bd4bd7)" style="fill: #0000f5; fill-opacity: 0.1"/>
    <path d="M 210.137488 -118.523207 
L 208.984129 -157.540914 
L 198.778054 -169.163855 
L 199.819218 -130.259368 
z
" clip-path="url(#pb5b9bd4bd7)" style="fill: #0000f5; fill-opacity: 0.1"/>
    <path d="M 199.819218 -130.259368 
L 198.778054 -169.163855 
L 188.564184 -180.795671 
L 189.492982 -142.004589 
z
" clip-path="url(#pb5b9bd4bd7)" style="fill: #0000f5; fill-opacity: 0.1"/>
    <path d="M 189.492982 -142.004589 
L 188.564184 -180.795671 
L 178.342512 -192.436372 
L 179.158771 -153.758882 
z
" clip-path="url(#pb5b9bd4bd7)" style="fill: #0000f5; fill-opacity: 0.1"/>
    <path d="M 179.158771 -153.758882 
L 178.342512 -192.436372 
L 168.113029 -204.085969 
L 168.816575 -165.522256 
z
" clip-path="url(#pb5b9bd4bd7)" style="fill: #0000f5; fill-opacity: 0.1"/>
    <path d="M 168.816575 -165.522256 
L 168.113029 -204.085969 
L 157.875726 -215.744472 
L 158.466385 -177.294723 
z
" clip-path="url(#pb5b9bd4bd7)" style="fill: #0000f5; fill-opacity: 0.1"/>
    <path d="M 158.466385 -177.294723 
L 157.875726 -215.744472 
L 147.630593 -227.411892 
L 148.108192 -189.076293 
z
" clip-path="url(#pb5b9bd4bd7)" style="fill: #0000f5; fill-opacity: 0.1"/>
    <path d="M 148.108192 -189.076293 
L 147.630593 -227.411892 
L 137.377622 -239.088237 
L 137.741987 -200.866977 
z
" clip-path="url(#pb5b9bd4bd7)" style="fill: #0000f5; fill-opacity: 0.1"/>
    <path d="M 335.880243 62.866087 
L 333.338706 21.607776 
L 323.115315 9.979532 
L 325.544282 51.124704 
z
" clip-path="url(#pb5b9bd4bd7)" style="fill: #0000f5; fill-opacity: 0.1"/>
    <path d="M 325.544282 51.124704 
L 323.115315 9.979532 
L 312.884068 -1.657647 
L 315.20029 39.374198 
z
" clip-path="url(#pb5b9bd4bd7)" style="fill: #0000f5; fill-opacity: 0.1"/>
    <path d="M 315.20029 39.374198 
L 312.884068 -1.657647 
L 302.644955 -13.303774 
L 304.848257 27.614558 
z
" clip-path="url(#pb5b9bd4bd7)" style="fill: #0000f5; fill-opacity: 0.1"/>
    <path d="M 304.848257 27.614558 
L 302.644955 -13.303774 
L 292.397967 -24.958857 
L 294.488174 15.845773 
z
" clip-path="url(#pb5b9bd4bd7)" style="fill: #0000f5; fill-opacity: 0.1"/>
    <path d="M 294.488174 15.845773 
L 292.397967 -24.958857 
L 282.143096 -36.622907 
L 284.120031 4.067833 
z
" clip-path="url(#pb5b9bd4bd7)" style="fill: #0000f5; fill-opacity: 0.1"/>
    <path d="M 284.120031 4.067833 
L 282.143096 -36.622907 
L 271.880332 -48.295934 
L 273.74382 -7.719273 
z
" clip-path="url(#pb5b9bd4bd7)" style="fill: #0000f5; fill-opacity: 0.1"/>
    <path d="M 273.74382 -7.719273 
L 271.880332 -48.295934 
L 261.609666 -59.97795 
L 263.35953 -19.515555 
z
" clip-path="url(#pb5b9bd4bd7)" style="fill: #0000f5; fill-opacity: 0.1"/>
    <path d="M 263.35953 -19.515555 
L 261.609666 -59.97795 
L 251.331089 -71.668963 
L 252.967153 -31.321025 
z
" clip-path="url(#pb5b9bd4bd7)" style="fill: #0000f5; fill-opacity: 0.1"/>
    <path d="M 252.967153 -31.321025 
L 251.331089 -71.668963 
L 241.044592 -83.368985 
L 242.566679 -43.135693 
z
" clip-path="url(#pb5b9bd4bd7)" style="fill: #0000f5; fill-opacity: 0.1"/>
    <path d="M 242.566679 -43.135693 
L 241.044592 -83.368985 
L 230.750166 -95.078026 
L 232.158098 -54.95957 
z
" clip-path="url(#pb5b9bd4bd7)" style="fill: #0000f5; fill-opacity: 0.1"/>
    <path d="M 232.158098 -54.95957 
L 230.750166 -95.078026 
L 220.4478 -106.796097 
L 221.741401 -66.792666 
z
" clip-path="url(#pb5b9bd4bd7)" style="fill: #0000f5; fill-opacity: 0.1"/>
    <path d="M 221.741401 -66.792666 
L 220.4478 -106.796097 
L 210.137488 -118.523207 
L 211.316578 -78.634993 
z
" clip-path="url(#pb5b9bd4bd7)" style="fill: #0000f5; fill-opacity: 0.1"/>
    <path d="M 211.316578 -78.634993 
L 210.137488 -118.523207 
L 199.819218 -130.259368 
L 200.88362 -90.486562 
z
" clip-path="url(#pb5b9bd4bd7)" style="fill: #0000f5; fill-opacity: 0.1"/>
    <path d="M 200.88362 -90.486562 
L 199.819218 -130.259368 
L 189.492982 -142.004589 
L 190.442518 -102.347382 
z
" clip-path="url(#pb5b9bd4bd7)" style="fill: #0000f5; fill-opacity: 0.1"/>
    <path d="M 190.442518 -102.347382 
L 189.492982 -142.004589 
L 179.158771 -153.758882 
L 179.993262 -114.217465 
z
" clip-path="url(#pb5b9bd4bd7)" style="fill: #0000f5; fill-opacity: 0.1"/>
    <path d="M 179.993262 -114.217465 
L 179.158771 -153.758882 
L 168.816575 -165.522256 
L 169.535841 -126.096822 
z
" clip-path="url(#pb5b9bd4bd7)" style="fill: #0000f5; fill-opacity: 0.1"/>
    <path d="M 169.535841 -126.096822 
L 168.816575 -165.522256 
L 158.466385 -177.294723 
L 159.070248 -137.985464 
z
" clip-path="url(#pb5b9bd4bd7)" style="fill: #0000f5; fill-opacity: 0.1"/>
    <path d="M 159.070248 -137.985464 
L 158.466385 -177.294723 
L 148.108192 -189.076293 
L 148.596472 -149.883401 
z
" clip-path="url(#pb5b9bd4bd7)" style="fill: #0000f5; fill-opacity: 0.1"/>
    <path d="M 148.596472 -149.883401 
L 148.108192 -189.076293 
L 137.741987 -200.866977 
L 138.114503 -161.790644 
z
" clip-path="url(#pb5b9bd4bd7)" style="fill: #0000f5; fill-opacity: 0.1"/>
    <path d="M 338.478854 105.050891 
L 335.880243 62.866087 
L 325.544282 51.124704 
L 328.027816 93.194192 
z
" clip-path="url(#pb5b9bd4bd7)" style="fill: #0000f5; fill-opacity: 0.1"/>
    <path d="M 328.027816 93.194192 
L 325.544282 51.124704 
L 315.20029 39.374198 
L 317.568566 81.328176 
z
" clip-path="url(#pb5b9bd4bd7)" style="fill: #0000f5; fill-opacity: 0.1"/>
    <path d="M 317.568566 81.328176 
L 315.20029 39.374198 
L 304.848257 27.614558 
L 307.101094 69.452832 
z
" clip-path="url(#pb5b9bd4bd7)" style="fill: #0000f5; fill-opacity: 0.1"/>
    <path d="M 307.101094 69.452832 
L 304.848257 27.614558 
L 294.488174 15.845773 
L 296.625391 57.568151 
z
" clip-path="url(#pb5b9bd4bd7)" style="fill: #0000f5; fill-opacity: 0.1"/>
    <path d="M 296.625391 57.568151 
L 294.488174 15.845773 
L 284.120031 4.067833 
L 286.141447 45.674119 
z
" clip-path="url(#pb5b9bd4bd7)" style="fill: #0000f5; fill-opacity: 0.1"/>
    <path d="M 286.141447 45.674119 
L 284.120031 4.067833 
L 273.74382 -7.719273 
L 275.649252 33.770728 
z
" clip-path="url(#pb5b9bd4bd7)" style="fill: #0000f5; fill-opacity: 0.1"/>
    <path d="M 275.649252 33.770728 
L 273.74382 -7.719273 
L 263.35953 -19.515555 
L 265.148797 21.857964 
z
" clip-path="url(#pb5b9bd4bd7)" style="fill: #0000f5; fill-opacity: 0.1"/>
    <path d="M 265.148797 21.857964 
L 263.35953 -19.515555 
L 252.967153 -31.321025 
L 254.640072 9.935818 
z
" clip-path="url(#pb5b9bd4bd7)" style="fill: #0000f5; fill-opacity: 0.1"/>
    <path d="M 254.640072 9.935818 
L 252.967153 -31.321025 
L 242.566679 -43.135693 
L 244.123066 -1.995721 
z
" clip-path="url(#pb5b9bd4bd7)" style="fill: #0000f5; fill-opacity: 0.1"/>
    <path d="M 244.123066 -1.995721 
L 242.566679 -43.135693 
L 232.158098 -54.95957 
L 233.597771 -13.936665 
z
" clip-path="url(#pb5b9bd4bd7)" style="fill: #0000f5; fill-opacity: 0.1"/>
    <path d="M 233.597771 -13.936665 
L 232.158098 -54.95957 
L 221.741401 -66.792666 
L 223.064176 -25.887026 
z
" clip-path="url(#pb5b9bd4bd7)" style="fill: #0000f5; fill-opacity: 0.1"/>
    <path d="M 223.064176 -25.887026 
L 221.741401 -66.792666 
L 211.316578 -78.634993 
L 212.522271 -37.846813 
z
" clip-path="url(#pb5b9bd4bd7)" style="fill: #0000f5; fill-opacity: 0.1"/>
    <path d="M 212.522271 -37.846813 
L 211.316578 -78.634993 
L 200.88362 -90.486562 
L 201.972047 -49.816039 
z
" clip-path="url(#pb5b9bd4bd7)" style="fill: #0000f5; fill-opacity: 0.1"/>
    <path d="M 201.972047 -49.816039 
L 200.88362 -90.486562 
L 190.442518 -102.347382 
L 191.413494 -61.794714 
z
" clip-path="url(#pb5b9bd4bd7)" style="fill: #0000f5; fill-opacity: 0.1"/>
    <path d="M 191.413494 -61.794714 
L 190.442518 -102.347382 
L 179.993262 -114.217465 
L 180.846603 -73.782849 
z
" clip-path="url(#pb5b9bd4bd7)" style="fill: #0000f5; fill-opacity: 0.1"/>
    <path d="M 180.846603 -73.782849 
L 179.993262 -114.217465 
L 169.535841 -126.096822 
L 170.271362 -85.780457 
z
" clip-path="url(#pb5b9bd4bd7)" style="fill: #0000f5; fill-opacity: 0.1"/>
    <path d="M 170.271362 -85.780457 
L 169.535841 -126.096822 
L 159.070248 -137.985464 
L 159.687762 -97.787547 
z
" clip-path="url(#pb5b9bd4bd7)" style="fill: #0000f5; fill-opacity: 0.1"/>
    <path d="M 159.687762 -97.787547 
L 159.070248 -137.985464 
L 148.596472 -149.883401 
L 149.095794 -109.804132 
z
" clip-path="url(#pb5b9bd4bd7)" style="fill: #0000f5; fill-opacity: 0.1"/>
    <path d="M 149.095794 -109.804132 
L 148.596472 -149.883401 
L 138.114503 -161.790644 
L 138.495447 -121.830222 
z
" clip-path="url(#pb5b9bd4bd7)" style="fill: #0000f5; fill-opacity: 0.1"/>
    <path d="M 341.136481 148.193752 
L 338.478854 105.050891 
L 328.027816 93.194192 
L 330.567775 136.219496 
z
" clip-path="url(#pb5b9bd4bd7)" style="fill: #0000f5; fill-opacity: 0.1"/>
    <path d="M 330.567775 136.219496 
L 328.027816 93.194192 
L 317.568566 81.328176 
L 319.99067 124.235725 
z
" clip-path="url(#pb5b9bd4bd7)" style="fill: #0000f5; fill-opacity: 0.1"/>
    <path d="M 319.99067 124.235725 
L 317.568566 81.328176 
L 307.101094 69.452832 
L 309.405156 112.242426 
z
" clip-path="url(#pb5b9bd4bd7)" style="fill: #0000f5; fill-opacity: 0.1"/>
    <path d="M 309.405156 112.242426 
L 307.101094 69.452832 
L 296.625391 57.568151 
L 298.811224 100.239589 
z
" clip-path="url(#pb5b9bd4bd7)" style="fill: #0000f5; fill-opacity: 0.1"/>
    <path d="M 298.811224 100.239589 
L 296.625391 57.568151 
L 286.141447 45.674119 
L 288.208863 88.227203 
z
" clip-path="url(#pb5b9bd4bd7)" style="fill: #0000f5; fill-opacity: 0.1"/>
    <path d="M 288.208863 88.227203 
L 286.141447 45.674119 
L 275.649252 33.770728 
L 277.598062 76.205255 
z
" clip-path="url(#pb5b9bd4bd7)" style="fill: #0000f5; fill-opacity: 0.1"/>
    <path d="M 277.598062 76.205255 
L 275.649252 33.770728 
L 265.148797 21.857964 
L 266.978813 64.173734 
z
" clip-path="url(#pb5b9bd4bd7)" style="fill: #0000f5; fill-opacity: 0.1"/>
    <path d="M 266.978813 64.173734 
L 265.148797 21.857964 
L 254.640072 9.935818 
L 256.351105 52.132629 
z
" clip-path="url(#pb5b9bd4bd7)" style="fill: #0000f5; fill-opacity: 0.1"/>
    <path d="M 256.351105 52.132629 
L 254.640072 9.935818 
L 244.123066 -1.995721 
L 245.714927 40.081929 
z
" clip-path="url(#pb5b9bd4bd7)" style="fill: #0000f5; fill-opacity: 0.1"/>
    <path d="M 245.714927 40.081929 
L 244.123066 -1.995721 
L 233.597771 -13.936665 
L 235.07027 28.021621 
z
" clip-path="url(#pb5b9bd4bd7)" style="fill: #0000f5; fill-opacity: 0.1"/>
    <path d="M 235.07027 28.021621 
L 233.597771 -13.936665 
L 223.064176 -25.887026 
L 224.417124 15.951695 
z
" clip-path="url(#pb5b9bd4bd7)" style="fill: #0000f5; fill-opacity: 0.1"/>
    <path d="M 224.417124 15.951695 
L 223.064176 -25.887026 
L 212.522271 -37.846813 
L 213.755478 3.872139 
z
" clip-path="url(#pb5b9bd4bd7)" style="fill: #0000f5; fill-opacity: 0.1"/>
    <path d="M 213.755478 3.872139 
L 212.522271 -37.846813 
L 201.972047 -49.816039 
L 203.085322 -8.217058 
z
" clip-path="url(#pb5b9bd4bd7)" style="fill: #0000f5; fill-opacity: 0.1"/>
    <path d="M 203.085322 -8.217058 
L 201.972047 -49.816039 
L 191.413494 -61.794714 
L 192.406646 -20.315909 
z
" clip-path="url(#pb5b9bd4bd7)" style="fill: #0000f5; fill-opacity: 0.1"/>
    <path d="M 192.406646 -20.315909 
L 191.413494 -61.794714 
L 180.846603 -73.782849 
L 181.71944 -32.424424 
z
" clip-path="url(#pb5b9bd4bd7)" style="fill: #0000f5; fill-opacity: 0.1"/>
    <path d="M 181.71944 -32.424424 
L 180.846603 -73.782849 
L 170.271362 -85.780457 
L 171.023693 -44.542615 
z
" clip-path="url(#pb5b9bd4bd7)" style="fill: #0000f5; fill-opacity: 0.1"/>
    <path d="M 171.023693 -44.542615 
L 170.271362 -85.780457 
L 159.687762 -97.787547 
L 160.319396 -56.670495 
z
" clip-path="url(#pb5b9bd4bd7)" style="fill: #0000f5; fill-opacity: 0.1"/>
    <path d="M 160.319396 -56.670495 
L 159.687762 -97.787547 
L 149.095794 -109.804132 
L 149.606538 -68.808073 
z
" clip-path="url(#pb5b9bd4bd7)" style="fill: #0000f5; fill-opacity: 0.1"/>
    <path d="M 149.606538 -68.808073 
L 149.095794 -109.804132 
L 138.495447 -121.830222 
L 138.885109 -80.955363 
z
" clip-path="url(#pb5b9bd4bd7)" style="fill: #0000f5; fill-opacity: 0.1"/>
    <path d="M 343.855159 192.327682 
L 341.136481 148.193752 
L 330.567775 136.219496 
L 333.166105 180.233567 
z
" clip-path="url(#pb5b9bd4bd7)" style="fill: #0000f5; fill-opacity: 0.1"/>
    <path d="M 333.166105 180.233567 
L 330.567775 136.219496 
L 319.99067 124.235725 
L 322.468459 168.12973 
z
" clip-path="url(#pb5b9bd4bd7)" style="fill: #0000f5; fill-opacity: 0.1"/>
    <path d="M 322.468459 168.12973 
L 319.99067 124.235725 
L 309.405156 112.242426 
L 311.762211 156.01616 
z
" clip-path="url(#pb5b9bd4bd7)" style="fill: #0000f5; fill-opacity: 0.1"/>
    <path d="M 311.762211 156.01616 
L 309.405156 112.242426 
L 298.811224 100.239589 
L 301.04735 143.892845 
z
" clip-path="url(#pb5b9bd4bd7)" style="fill: #0000f5; fill-opacity: 0.1"/>
    <path d="M 301.04735 143.892845 
L 298.811224 100.239589 
L 288.208863 88.227203 
L 290.323866 131.759773 
z
" clip-path="url(#pb5b9bd4bd7)" style="fill: #0000f5; fill-opacity: 0.1"/>
    <path d="M 290.323866 131.759773 
L 288.208863 88.227203 
L 277.598062 76.205255 
L 279.591748 119.616933 
z
" clip-path="url(#pb5b9bd4bd7)" style="fill: #0000f5; fill-opacity: 0.1"/>
    <path d="M 279.591748 119.616933 
L 277.598062 76.205255 
L 266.978813 64.173734 
L 268.850986 107.464313 
z
" clip-path="url(#pb5b9bd4bd7)" style="fill: #0000f5; fill-opacity: 0.1"/>
    <path d="M 268.850986 107.464313 
L 266.978813 64.173734 
L 256.351105 52.132629 
L 258.10157 95.3019 
z
" clip-path="url(#pb5b9bd4bd7)" style="fill: #0000f5; fill-opacity: 0.1"/>
    <path d="M 258.10157 95.3019 
L 256.351105 52.132629 
L 245.714927 40.081929 
L 247.343489 83.129684 
z
" clip-path="url(#pb5b9bd4bd7)" style="fill: #0000f5; fill-opacity: 0.1"/>
    <path d="M 247.343489 83.129684 
L 245.714927 40.081929 
L 235.07027 28.021621 
L 236.576732 70.947651 
z
" clip-path="url(#pb5b9bd4bd7)" style="fill: #0000f5; fill-opacity: 0.1"/>
    <path d="M 236.576732 70.947651 
L 235.07027 28.021621 
L 224.417124 15.951695 
L 225.80129 58.755791 
z
" clip-path="url(#pb5b9bd4bd7)" style="fill: #0000f5; fill-opacity: 0.1"/>
    <path d="M 225.80129 58.755791 
L 224.417124 15.951695 
L 213.755478 3.872139 
L 215.017151 46.554092 
z
" clip-path="url(#pb5b9bd4bd7)" style="fill: #0000f5; fill-opacity: 0.1"/>
    <path d="M 215.017151 46.554092 
L 213.755478 3.872139 
L 203.085322 -8.217058 
L 204.224305 34.342541 
z
" clip-path="url(#pb5b9bd4bd7)" style="fill: #0000f5; fill-opacity: 0.1"/>
    <path d="M 204.224305 34.342541 
L 203.085322 -8.217058 
L 192.406646 -20.315909 
L 193.422741 22.121126 
z
" clip-path="url(#pb5b9bd4bd7)" style="fill: #0000f5; fill-opacity: 0.1"/>
    <path d="M 193.422741 22.121126 
L 192.406646 -20.315909 
L 181.71944 -32.424424 
L 182.612449 9.889837 
z
" clip-path="url(#pb5b9bd4bd7)" style="fill: #0000f5; fill-opacity: 0.1"/>
    <path d="M 182.612449 9.889837 
L 181.71944 -32.424424 
L 171.023693 -44.542615 
L 171.793419 -2.351341 
z
" clip-path="url(#pb5b9bd4bd7)" style="fill: #0000f5; fill-opacity: 0.1"/>
    <path d="M 171.793419 -2.351341 
L 171.023693 -44.542615 
L 160.319396 -56.670495 
L 160.96564 -14.602417 
z
" clip-path="url(#pb5b9bd4bd7)" style="fill: #0000f5; fill-opacity: 0.1"/>
    <path d="M 160.96564 -14.602417 
L 160.319396 -56.670495 
L 149.606538 -68.808073 
L 150.1291 -26.863405 
z
" clip-path="url(#pb5b9bd4bd7)" style="fill: #0000f5; fill-opacity: 0.1"/>
    <path d="M 150.1291 -26.863405 
L 149.606538 -68.808073 
L 138.885109 -80.955363 
L 139.28379 -39.134316 
z
" clip-path="url(#pb5b9bd4bd7)" style="fill: #0000f5; fill-opacity: 0.1"/>
    <path d="M 346.637015 237.487227 
L 343.855159 192.327682 
L 333.166105 180.233567 
L 335.824842 225.270883 
z
" clip-path="url(#pb5b9bd4bd7)" style="fill: #0000f5; fill-opacity: 0.1"/>
    <path d="M 335.824842 225.270883 
L 333.166105 180.233567 
L 322.468459 168.12973 
L 325.003876 213.044604 
z
" clip-path="url(#pb5b9bd4bd7)" style="fill: #0000f5; fill-opacity: 0.1"/>
    <path d="M 325.003876 213.044604 
L 322.468459 168.12973 
L 311.762211 156.01616 
L 314.174108 200.808379 
z
" clip-path="url(#pb5b9bd4bd7)" style="fill: #0000f5; fill-opacity: 0.1"/>
    <path d="M 314.174108 200.808379 
L 311.762211 156.01616 
L 301.04735 143.892845 
L 303.335526 188.562197 
z
" clip-path="url(#pb5b9bd4bd7)" style="fill: #0000f5; fill-opacity: 0.1"/>
    <path d="M 303.335526 188.562197 
L 301.04735 143.892845 
L 290.323866 131.759773 
L 292.488119 176.306044 
z
" clip-path="url(#pb5b9bd4bd7)" style="fill: #0000f5; fill-opacity: 0.1"/>
    <path d="M 292.488119 176.306044 
L 290.323866 131.759773 
L 279.591748 119.616933 
L 281.631878 164.039908 
z
" clip-path="url(#pb5b9bd4bd7)" style="fill: #0000f5; fill-opacity: 0.1"/>
    <path d="M 281.631878 164.039908 
L 279.591748 119.616933 
L 268.850986 107.464313 
L 270.766791 151.763778 
z
" clip-path="url(#pb5b9bd4bd7)" style="fill: #0000f5; fill-opacity: 0.1"/>
    <path d="M 270.766791 151.763778 
L 268.850986 107.464313 
L 258.10157 95.3019 
L 259.892847 139.47764 
z
" clip-path="url(#pb5b9bd4bd7)" style="fill: #0000f5; fill-opacity: 0.1"/>
    <path d="M 259.892847 139.47764 
L 258.10157 95.3019 
L 247.343489 83.129684 
L 249.010035 127.181484 
z
" clip-path="url(#pb5b9bd4bd7)" style="fill: #0000f5; fill-opacity: 0.1"/>
    <path d="M 249.010035 127.181484 
L 247.343489 83.129684 
L 236.576732 70.947651 
L 238.118345 114.875296 
z
" clip-path="url(#pb5b9bd4bd7)" style="fill: #0000f5; fill-opacity: 0.1"/>
    <path d="M 238.118345 114.875296 
L 236.576732 70.947651 
L 225.80129 58.755791 
L 227.217766 102.559065 
z
" clip-path="url(#pb5b9bd4bd7)" style="fill: #0000f5; fill-opacity: 0.1"/>
    <path d="M 227.217766 102.559065 
L 225.80129 58.755791 
L 215.017151 46.554092 
L 216.308287 90.232777 
z
" clip-path="url(#pb5b9bd4bd7)" style="fill: #0000f5; fill-opacity: 0.1"/>
    <path d="M 216.308287 90.232777 
L 215.017151 46.554092 
L 204.224305 34.342541 
L 205.389896 77.896421 
z
" clip-path="url(#pb5b9bd4bd7)" style="fill: #0000f5; fill-opacity: 0.1"/>
    <path d="M 205.389896 77.896421 
L 204.224305 34.342541 
L 193.422741 22.121126 
L 194.462584 65.549984 
z
" clip-path="url(#pb5b9bd4bd7)" style="fill: #0000f5; fill-opacity: 0.1"/>
    <path d="M 194.462584 65.549984 
L 193.422741 22.121126 
L 182.612449 9.889837 
L 183.526339 53.193455 
z
" clip-path="url(#pb5b9bd4bd7)" style="fill: #0000f5; fill-opacity: 0.1"/>
    <path d="M 183.526339 53.193455 
L 182.612449 9.889837 
L 171.793419 -2.351341 
L 172.581149 40.82682 
z
" clip-path="url(#pb5b9bd4bd7)" style="fill: #0000f5; fill-opacity: 0.1"/>
    <path d="M 172.581149 40.82682 
L 171.793419 -2.351341 
L 160.96564 -14.602417 
L 161.627005 28.450067 
z
" clip-path="url(#pb5b9bd4bd7)" style="fill: #0000f5; fill-opacity: 0.1"/>
    <path d="M 161.627005 28.450067 
L 160.96564 -14.602417 
L 150.1291 -26.863405 
L 150.663895 16.063184 
z
" clip-path="url(#pb5b9bd4bd7)" style="fill: #0000f5; fill-opacity: 0.1"/>
    <path d="M 150.663895 16.063184 
L 150.1291 -26.863405 
L 139.28379 -39.134316 
L 139.691809 3.666158 
z
" clip-path="url(#pb5b9bd4bd7)" style="fill: #0000f5; fill-opacity: 0.1"/>
    <path d="M 349.484278 283.708559 
L 346.637015 237.487227 
L 335.824842 225.270883 
L 338.546116 271.367547 
z
" clip-path="url(#pb5b9bd4bd7)" style="fill: #0000f5; fill-opacity: 0.1"/>
    <path d="M 338.546116 271.367547 
L 335.824842 225.270883 
L 325.003876 213.044604 
L 327.598954 259.016381 
z
" clip-path="url(#pb5b9bd4bd7)" style="fill: #0000f5; fill-opacity: 0.1"/>
    <path d="M 327.598954 259.016381 
L 325.003876 213.044604 
L 314.174108 200.808379 
L 316.642782 246.65505 
z
" clip-path="url(#pb5b9bd4bd7)" style="fill: #0000f5; fill-opacity: 0.1"/>
    <path d="M 316.642782 246.65505 
L 314.174108 200.808379 
L 303.335526 188.562197 
L 305.677589 234.28354 
z
" clip-path="url(#pb5b9bd4bd7)" style="fill: #0000f5; fill-opacity: 0.1"/>
    <path d="M 305.677589 234.28354 
L 303.335526 188.562197 
L 292.488119 176.306044 
L 294.703363 221.901838 
z
" clip-path="url(#pb5b9bd4bd7)" style="fill: #0000f5; fill-opacity: 0.1"/>
    <path d="M 294.703363 221.901838 
L 292.488119 176.306044 
L 281.631878 164.039908 
L 283.720094 209.509934 
z
" clip-path="url(#pb5b9bd4bd7)" style="fill: #0000f5; fill-opacity: 0.1"/>
    <path d="M 283.720094 209.509934 
L 281.631878 164.039908 
L 270.766791 151.763778 
L 272.727769 197.107813 
z
" clip-path="url(#pb5b9bd4bd7)" style="fill: #0000f5; fill-opacity: 0.1"/>
    <path d="M 272.727769 197.107813 
L 270.766791 151.763778 
L 259.892847 139.47764 
L 261.726379 184.695463 
z
" clip-path="url(#pb5b9bd4bd7)" style="fill: #0000f5; fill-opacity: 0.1"/>
    <path d="M 261.726379 184.695463 
L 259.892847 139.47764 
L 249.010035 127.181484 
L 250.715911 172.272872 
z
" clip-path="url(#pb5b9bd4bd7)" style="fill: #0000f5; fill-opacity: 0.1"/>
    <path d="M 250.715911 172.272872 
L 249.010035 127.181484 
L 238.118345 114.875296 
L 239.696354 159.840026 
z
" clip-path="url(#pb5b9bd4bd7)" style="fill: #0000f5; fill-opacity: 0.1"/>
    <path d="M 239.696354 159.840026 
L 238.118345 114.875296 
L 227.217766 102.559065 
L 228.667698 147.396914 
z
" clip-path="url(#pb5b9bd4bd7)" style="fill: #0000f5; fill-opacity: 0.1"/>
    <path d="M 228.667698 147.396914 
L 227.217766 102.559065 
L 216.308287 90.232777 
L 217.62993 134.943521 
z
" clip-path="url(#pb5b9bd4bd7)" style="fill: #0000f5; fill-opacity: 0.1"/>
    <path d="M 217.62993 134.943521 
L 216.308287 90.232777 
L 205.389896 77.896421 
L 206.583041 122.479837 
z
" clip-path="url(#pb5b9bd4bd7)" style="fill: #0000f5; fill-opacity: 0.1"/>
    <path d="M 206.583041 122.479837 
L 205.389896 77.896421 
L 194.462584 65.549984 
L 195.527017 110.005847 
z
" clip-path="url(#pb5b9bd4bd7)" style="fill: #0000f5; fill-opacity: 0.1"/>
    <path d="M 195.527017 110.005847 
L 194.462584 65.549984 
L 183.526339 53.193455 
L 184.461848 97.52154 
z
" clip-path="url(#pb5b9bd4bd7)" style="fill: #0000f5; fill-opacity: 0.1"/>
    <path d="M 184.461848 97.52154 
L 183.526339 53.193455 
L 172.581149 40.82682 
L 173.387523 85.026901 
z
" clip-path="url(#pb5b9bd4bd7)" style="fill: #0000f5; fill-opacity: 0.1"/>
    <path d="M 173.387523 85.026901 
L 172.581149 40.82682 
L 161.627005 28.450067 
L 162.30403 72.521919 
z
" clip-path="url(#pb5b9bd4bd7)" style="fill: #0000f5; fill-opacity: 0.1"/>
    <path d="M 162.30403 72.521919 
L 161.627005 28.450067 
L 150.663895 16.063184 
L 151.211358 60.006581 
z
" clip-path="url(#pb5b9bd4bd7)" style="fill: #0000f5; fill-opacity: 0.1"/>
    <path d="M 151.211358 60.006581 
L 150.663895 16.063184 
L 139.691809 3.666158 
L 140.109496 47.480873 
z
" clip-path="url(#pb5b9bd4bd7)" style="fill: #0000f5; fill-opacity: 0.1"/>
    <path d="M 352.399282 331.029571 
L 349.484278 283.708559 
L 338.546116 271.367547 
L 341.33216 318.561381 
z
" clip-path="url(#pb5b9bd4bd7)" style="fill: #0000f5; fill-opacity: 0.1"/>
    <path d="M 341.33216 318.561381 
L 338.546116 271.367547 
L 327.598954 259.016381 
L 330.255825 306.082811 
z
" clip-path="url(#pb5b9bd4bd7)" style="fill: #0000f5; fill-opacity: 0.1"/>
    <path d="M 330.255825 306.082811 
L 327.598954 259.016381 
L 316.642782 246.65505 
L 319.170264 293.593848 
z
" clip-path="url(#pb5b9bd4bd7)" style="fill: #0000f5; fill-opacity: 0.1"/>
    <path d="M 319.170264 293.593848 
L 316.642782 246.65505 
L 305.677589 234.28354 
L 308.075467 281.094479 
z
" clip-path="url(#pb5b9bd4bd7)" style="fill: #0000f5; fill-opacity: 0.1"/>
    <path d="M 308.075467 281.094479 
L 305.677589 234.28354 
L 294.703363 221.901838 
L 296.971421 268.584691 
z
" clip-path="url(#pb5b9bd4bd7)" style="fill: #0000f5; fill-opacity: 0.1"/>
    <path d="M 296.971421 268.584691 
L 294.703363 221.901838 
L 283.720094 209.509934 
L 285.858116 256.06447 
z
" clip-path="url(#pb5b9bd4bd7)" style="fill: #0000f5; fill-opacity: 0.1"/>
    <path d="M 285.858116 256.06447 
L 283.720094 209.509934 
L 272.727769 197.107813 
L 274.735539 243.533805 
z
" clip-path="url(#pb5b9bd4bd7)" style="fill: #0000f5; fill-opacity: 0.1"/>
    <path d="M 274.735539 243.533805 
L 272.727769 197.107813 
L 261.726379 184.695463 
L 263.603679 230.992681 
z
" clip-path="url(#pb5b9bd4bd7)" style="fill: #0000f5; fill-opacity: 0.1"/>
    <path d="M 263.603679 230.992681 
L 261.726379 184.695463 
L 250.715911 172.272872 
L 252.462524 218.441086 
z
" clip-path="url(#pb5b9bd4bd7)" style="fill: #0000f5; fill-opacity: 0.1"/>
    <path d="M 252.462524 218.441086 
L 250.715911 172.272872 
L 239.696354 159.840026 
L 241.312063 205.879007 
z
" clip-path="url(#pb5b9bd4bd7)" style="fill: #0000f5; fill-opacity: 0.1"/>
    <path d="M 241.312063 205.879007 
L 239.696354 159.840026 
L 228.667698 147.396914 
L 230.152284 193.306429 
z
" clip-path="url(#pb5b9bd4bd7)" style="fill: #0000f5; fill-opacity: 0.1"/>
    <path d="M 230.152284 193.306429 
L 228.667698 147.396914 
L 217.62993 134.943521 
L 218.983176 180.723342 
z
" clip-path="url(#pb5b9bd4bd7)" style="fill: #0000f5; fill-opacity: 0.1"/>
    <path d="M 218.983176 180.723342 
L 217.62993 134.943521 
L 206.583041 122.479837 
L 207.804726 168.12973 
z
" clip-path="url(#pb5b9bd4bd7)" style="fill: #0000f5; fill-opacity: 0.1"/>
    <path d="M 207.804726 168.12973 
L 206.583041 122.479837 
L 195.527017 110.005847 
L 196.616923 155.525581 
z
" clip-path="url(#pb5b9bd4bd7)" style="fill: #0000f5; fill-opacity: 0.1"/>
    <path d="M 196.616923 155.525581 
L 195.527017 110.005847 
L 184.461848 97.52154 
L 185.419755 142.910881 
z
" clip-path="url(#pb5b9bd4bd7)" style="fill: #0000f5; fill-opacity: 0.1"/>
    <path d="M 185.419755 142.910881 
L 184.461848 97.52154 
L 173.387523 85.026901 
L 174.213211 130.285618 
z
" clip-path="url(#pb5b9bd4bd7)" style="fill: #0000f5; fill-opacity: 0.1"/>
    <path d="M 174.213211 130.285618 
L 173.387523 85.026901 
L 162.30403 72.521919 
L 162.997278 117.649778 
z
" clip-path="url(#pb5b9bd4bd7)" style="fill: #0000f5; fill-opacity: 0.1"/>
    <path d="M 162.997278 117.649778 
L 162.30403 72.521919 
L 151.211358 60.006581 
L 151.771945 105.003348 
z
" clip-path="url(#pb5b9bd4bd7)" style="fill: #0000f5; fill-opacity: 0.1"/>
    <path d="M 151.771945 105.003348 
L 151.211358 60.006581 
L 140.109496 47.480873 
L 140.5372 92.346314 
z
" clip-path="url(#pb5b9bd4bd7)" style="fill: #0000f5; fill-opacity: 0.1"/>
    <path d="M 355.384474 379.489978 
L 352.399282 331.029571 
L 341.33216 318.561381 
L 344.185316 366.892027 
z
" clip-path="url(#pb5b9bd4bd7)" style="fill: #0000f5; fill-opacity: 0.1"/>
    <path d="M 344.185316 366.892027 
L 341.33216 318.561381 
L 330.255825 306.082811 
L 332.976722 354.283462 
z
" clip-path="url(#pb5b9bd4bd7)" style="fill: #0000f5; fill-opacity: 0.1"/>
    <path d="M 332.976722 354.283462 
L 330.255825 306.082811 
L 319.170264 293.593848 
L 321.75868 341.664269 
z
" clip-path="url(#pb5b9bd4bd7)" style="fill: #0000f5; fill-opacity: 0.1"/>
    <path d="M 321.75868 341.664269 
L 319.170264 293.593848 
L 308.075467 281.094479 
L 310.531178 329.034434 
z
" clip-path="url(#pb5b9bd4bd7)" style="fill: #0000f5; fill-opacity: 0.1"/>
    <path d="M 310.531178 329.034434 
L 308.075467 281.094479 
L 296.971421 268.584691 
L 299.294205 316.393944 
z
" clip-path="url(#pb5b9bd4bd7)" style="fill: #0000f5; fill-opacity: 0.1"/>
    <path d="M 299.294205 316.393944 
L 296.971421 268.584691 
L 285.858116 256.06447 
L 288.047747 303.742786 
z
" clip-path="url(#pb5b9bd4bd7)" style="fill: #0000f5; fill-opacity: 0.1"/>
    <path d="M 288.047747 303.742786 
L 285.858116 256.06447 
L 274.735539 243.533805 
L 276.791794 291.080946 
z
" clip-path="url(#pb5b9bd4bd7)" style="fill: #0000f5; fill-opacity: 0.1"/>
    <path d="M 276.791794 291.080946 
L 274.735539 243.533805 
L 263.603679 230.992681 
L 265.526333 278.408411 
z
" clip-path="url(#pb5b9bd4bd7)" style="fill: #0000f5; fill-opacity: 0.1"/>
    <path d="M 265.526333 278.408411 
L 263.603679 230.992681 
L 252.462524 218.441086 
L 254.251353 265.725167 
z
" clip-path="url(#pb5b9bd4bd7)" style="fill: #0000f5; fill-opacity: 0.1"/>
    <path d="M 254.251353 265.725167 
L 252.462524 218.441086 
L 241.312063 205.879007 
L 242.96684 253.031201 
z
" clip-path="url(#pb5b9bd4bd7)" style="fill: #0000f5; fill-opacity: 0.1"/>
    <path d="M 242.96684 253.031201 
L 241.312063 205.879007 
L 230.152284 193.306429 
L 231.672783 240.326498 
z
" clip-path="url(#pb5b9bd4bd7)" style="fill: #0000f5; fill-opacity: 0.1"/>
    <path d="M 231.672783 240.326498 
L 230.152284 193.306429 
L 218.983176 180.723342 
L 220.36917 227.611045 
z
" clip-path="url(#pb5b9bd4bd7)" style="fill: #0000f5; fill-opacity: 0.1"/>
    <path d="M 220.36917 227.611045 
L 218.983176 180.723342 
L 207.804726 168.12973 
L 209.055989 214.884829 
z
" clip-path="url(#pb5b9bd4bd7)" style="fill: #0000f5; fill-opacity: 0.1"/>
    <path d="M 209.055989 214.884829 
L 207.804726 168.12973 
L 196.616923 155.525581 
L 197.733227 202.147836 
z
" clip-path="url(#pb5b9bd4bd7)" style="fill: #0000f5; fill-opacity: 0.1"/>
    <path d="M 197.733227 202.147836 
L 196.616923 155.525581 
L 185.419755 142.910881 
L 186.400873 189.400053 
z
" clip-path="url(#pb5b9bd4bd7)" style="fill: #0000f5; fill-opacity: 0.1"/>
    <path d="M 186.400873 189.400053 
L 185.419755 142.910881 
L 174.213211 130.285618 
L 175.058914 176.641464 
z
" clip-path="url(#pb5b9bd4bd7)" style="fill: #0000f5; fill-opacity: 0.1"/>
    <path d="M 175.058914 176.641464 
L 174.213211 130.285618 
L 162.997278 117.649778 
L 163.707337 163.872058 
z
" clip-path="url(#pb5b9bd4bd7)" style="fill: #0000f5; fill-opacity: 0.1"/>
    <path d="M 163.707337 163.872058 
L 162.997278 117.649778 
L 151.771945 105.003348 
L 152.346132 151.09182 
z
" clip-path="url(#pb5b9bd4bd7)" style="fill: #0000f5; fill-opacity: 0.1"/>
    <path d="M 152.346132 151.09182 
L 151.771945 105.003348 
L 140.5372 92.346314 
L 140.975285 138.300735 
z
" clip-path="url(#pb5b9bd4bd7)" style="fill: #0000f5; fill-opacity: 0.1"/>
   </g>
   <g id="legend_1">
    <g id="patch_6">
     <path d="M 357.840076 67.305115 
L 396.2 67.305115 
Q 398.2 67.305115 398.2 65.305115 
L 398.2 7 
Q 398.2 5 396.2 5 
L 357.840076 5 
Q 355.840076 5 355.840076 7 
L 355.840076 65.305115 
Q 355.840076 67.305115 357.840076 67.305115 
z
" style="fill: #ffffff; opacity: 0.8; stroke: #cccccc; stroke-linejoin: miter"/>
    </g>
    <g id="line2d_25">
     <path d="M 359.840076 12.5 
L 369.840076 12.5 
L 379.840076 12.5 
" style="fill: none; stroke: #ff0000; stroke-width: 1.5; stroke-linecap: square"/>
    </g>
    <g id="text_21">
     <!-- $\vec{a}$ -->
     <g transform="translate(387.840076 16)scale(0.1 -0.1)">
      <defs>
       <path id="CMMI12-7e" d="M 3424 3835 
C 3347 3764 3110 3540 3110 3451 
C 3110 3387 3168 3329 3232 3329 
C 3290 3329 3315 3368 3360 3432 
C 3514 3624 3686 3745 3834 3828 
C 3898 3867 3942 3886 3942 3956 
C 3942 4014 3891 4046 3853 4078 
C 3674 4200 3629 4372 3610 4449 
C 3590 4500 3571 4577 3482 4577 
C 3443 4577 3366 4552 3366 4456 
C 3366 4398 3405 4244 3526 4072 
L 1376 4072 
C 1267 4072 1158 4072 1158 3950 
C 1158 3835 1274 3835 1376 3835 
L 3424 3835 
z
" transform="scale(0.015625)"/>
       <path id="CMMI12-61" d="M 1926 760 
C 1894 651 1894 639 1805 517 
C 1664 338 1382 64 1082 64 
C 819 64 672 300 672 677 
C 672 1028 870 1743 992 2012 
C 1210 2459 1510 2689 1760 2689 
C 2182 2689 2266 2165 2266 2114 
C 2266 2108 2246 2024 2240 2012 
L 1926 760 
z
M 2336 2395 
C 2266 2561 2093 2816 1760 2816 
C 1037 2816 256 1884 256 939 
C 256 307 627 -64 1062 -64 
C 1414 -64 1715 211 1894 422 
C 1958 45 2259 -64 2451 -64 
C 2643 -64 2797 51 2912 281 
C 3014 498 3104 888 3104 913 
C 3104 945 3078 971 3040 971 
C 2982 971 2976 939 2950 843 
C 2854 466 2733 64 2470 64 
C 2285 64 2272 230 2272 358 
C 2272 505 2291 575 2349 824 
C 2394 984 2426 1124 2477 1309 
C 2714 2267 2771 2497 2771 2535 
C 2771 2625 2701 2695 2605 2695 
C 2400 2695 2349 2472 2336 2395 
z
" transform="scale(0.015625)"/>
      </defs>
      <use xlink:href="#CMMI12-7e" transform="scale(0.996264)"/>
      <use xlink:href="#CMMI12-61" transform="translate(6.445738 0)scale(0.996264)"/>
     </g>
    </g>
    <g id="line2d_26">
     <path d="M 359.840076 27.24679 
L 369.840076 27.24679 
L 379.840076 27.24679 
" style="fill: none; stroke: #00ff00; stroke-width: 1.5; stroke-linecap: square"/>
    </g>
    <g id="text_22">
     <!-- $\vec{b}$ -->
     <g transform="translate(387.840076 30.74679)scale(0.1 -0.1)">
      <defs>
       <path id="CMMI12-62" d="M 1478 4257 
C 1485 4283 1498 4321 1498 4352 
C 1498 4416 1434 4416 1421 4416 
C 1414 4416 1184 4393 1069 4377 
C 960 4377 864 4358 749 4358 
C 595 4345 550 4339 550 4224 
C 550 4160 614 4160 678 4160 
C 1005 4160 1005 4103 1005 4040 
C 1005 3996 954 3811 928 3696 
L 774 3085 
C 710 2831 346 1387 320 1272 
C 288 1114 288 1005 288 922 
C 288 274 653 -64 1069 -64 
C 1811 -64 2579 888 2579 1814 
C 2579 2401 2246 2816 1766 2816 
C 1434 2816 1133 2542 1011 2414 
L 1478 4257 
z
M 1075 64 
C 870 64 646 217 646 715 
C 646 926 666 1047 781 1494 
C 800 1577 902 1986 928 2069 
C 941 2120 1318 2689 1754 2689 
C 2035 2689 2163 2408 2163 2076 
C 2163 1769 1984 1047 1824 715 
C 1664 370 1370 64 1075 64 
z
" transform="scale(0.015625)"/>
      </defs>
      <use xlink:href="#CMMI12-7e" transform="translate(0 26.29016)scale(0.996264)"/>
      <use xlink:href="#CMMI12-62" transform="translate(11.311737 0)scale(0.996264)"/>
     </g>
    </g>
    <g id="line2d_27">
     <path d="M 359.840076 41.183968 
L 369.840076 41.183968 
L 379.840076 41.183968 
" style="fill: none; stroke: #0016ff; stroke-width: 1.5; stroke-linecap: square"/>
    </g>
    <g id="text_23">
     <!-- $\vec{c}$ -->
     <g transform="translate(387.840076 44.683968)scale(0.1 -0.1)">
      <defs>
       <path id="CMMI12-63" d="M 2502 2431 
C 2381 2431 2323 2431 2234 2355 
C 2195 2323 2125 2227 2125 2125 
C 2125 1997 2221 1920 2342 1920 
C 2496 1920 2669 2044 2669 2292 
C 2669 2588 2374 2816 1933 2816 
C 1094 2816 256 1903 256 996 
C 256 441 602 -64 1254 -64 
C 2125 -64 2675 622 2675 706 
C 2675 744 2637 776 2611 776 
C 2592 776 2586 770 2528 713 
C 2118 162 1510 64 1267 64 
C 826 64 685 446 685 764 
C 685 988 794 1605 1024 2039 
C 1190 2338 1536 2682 1939 2682 
C 2022 2682 2374 2682 2502 2431 
z
" transform="scale(0.015625)"/>
      </defs>
      <use xlink:href="#CMMI12-7e" transform="scale(0.996264)"/>
      <use xlink:href="#CMMI12-63" transform="translate(5.638615 0)scale(0.996264)"/>
     </g>
    </g>
    <g id="line2d_28">
     <path d="M 359.840076 57.867937 
L 369.840076 57.867937 
L 379.840076 57.867937 
" style="fill: none; stroke: #f400ff; stroke-width: 1.5; stroke-linecap: square"/>
    </g>
    <g id="text_24">
     <!-- $\vec{f}$ -->
     <g transform="translate(387.840076 61.367937)scale(0.1 -0.1)">
      <defs>
       <path id="CMMI12-66" d="M 2854 2566 
C 2982 2566 3034 2566 3034 2688 
C 3034 2752 2982 2752 2867 2752 
L 2349 2752 
C 2470 3429 2560 3897 2611 4107 
C 2650 4265 2784 4416 2950 4416 
C 3085 4416 3219 4358 3283 4298 
C 3034 4272 2957 4082 2957 3969 
C 2957 3837 3053 3759 3174 3759 
C 3302 3759 3494 3870 3494 4119 
C 3494 4393 3226 4544 2944 4544 
C 2669 4544 2400 4334 2272 4078 
C 2157 3848 2093 3611 1946 2752 
L 1517 2752 
C 1395 2752 1331 2752 1331 2637 
C 1331 2566 1370 2566 1498 2566 
L 1907 2566 
C 1792 1976 1530 542 1382 -137 
C 1274 -689 1178 -1152 858 -1152 
C 838 -1152 653 -1152 538 -1031 
C 864 -1005 864 -726 864 -720 
C 864 -593 768 -517 646 -517 
C 518 -517 326 -625 326 -867 
C 326 -1140 608 -1280 858 -1280 
C 1510 -1280 1779 -118 1850 199 
C 1965 688 2278 2376 2310 2566 
L 2854 2566 
z
" transform="scale(0.015625)"/>
      </defs>
      <use xlink:href="#CMMI12-7e" transform="translate(13.568792 26.29016)scale(0.996264)"/>
      <use xlink:href="#CMMI12-66" transform="scale(0.996264)"/>
     </g>
    </g>
   </g>
  </g>
 </g>
 <defs>
  <clipPath id="pb5b9bd4bd7">
   <rect x="57.6" y="0" width="345.6" height="345.6"/>
  </clipPath>
 </defs>
</svg>
