<?xml version="1.0" encoding="utf-8" standalone="no"?>
<!DOCTYPE svg PUBLIC "-//W3C//DTD SVG 1.1//EN"
  "http://www.w3.org/Graphics/SVG/1.1/DTD/svg11.dtd">
<svg xmlns:xlink="http://www.w3.org/1999/xlink" width="460.8pt" height="345.6pt" viewBox="0 0 460.8 345.6" xmlns="http://www.w3.org/2000/svg" version="1.1">
 <metadata>
  <rdf:RDF xmlns:dc="http://purl.org/dc/elements/1.1/" xmlns:cc="http://creativecommons.org/ns#" xmlns:rdf="http://www.w3.org/1999/02/22-rdf-syntax-ns#">
   <cc:Work>
    <dc:type rdf:resource="http://purl.org/dc/dcmitype/StillImage"/>
    <dc:date>2022-07-12T15:50:50.807611</dc:date>
    <dc:format>image/svg+xml</dc:format>
    <dc:creator>
     <cc:Agent>
      <dc:title>Matplotlib v3.5.1, https://matplotlib.org/</dc:title>
     </cc:Agent>
    </dc:creator>
   </cc:Work>
  </rdf:RDF>
 </metadata>
 <defs>
  <style type="text/css">*{stroke-linejoin: round; stroke-linecap: butt}</style>
 </defs>
 <g id="figure_1">
  <g id="patch_1">
   <path d="M 0 345.6 
L 460.8 345.6 
L 460.8 0 
L 0 0 
z
" style="fill: #ffffff"/>
  </g>
  <g id="patch_2">
   <path d="M 57.6 345.6 
L 403.2 345.6 
L 403.2 0 
L 57.6 0 
z
" style="fill: #ffffff"/>
  </g>
  <g id="pane3d_1">
   <g id="patch_3">
    <path d="M 164.059151 245.808331 
L 367.216604 248.257328 
L 367.216604 88.002131 
L 164.059151 90.451129 
" style="fill: #f2f2f2; opacity: 0.5; stroke: #f2f2f2; stroke-linejoin: miter"/>
   </g>
  </g>
  <g id="pane3d_2">
   <g id="patch_4">
    <path d="M 164.059151 245.808331 
L 91.678978 255.075766 
L 91.678978 81.183694 
L 164.059151 90.451129 
" style="fill: #e6e6e6; opacity: 0.5; stroke: #e6e6e6; stroke-linejoin: miter"/>
   </g>
  </g>
  <g id="pane3d_3">
   <g id="patch_5">
    <path d="M 164.059151 245.808331 
L 91.678978 255.075766 
L 317.368804 258.15556 
L 367.216604 248.257328 
" style="fill: #ececec; opacity: 0.5; stroke: #ececec; stroke-linejoin: miter"/>
   </g>
  </g>
  <g id="axis3d_1">
   <g id="line2d_1">
    <path d="M 367.216604 248.257328 
L 317.368804 258.15556 
" style="fill: none; stroke: #000000; stroke-width: 0.8; stroke-linecap: square"/>
   </g>
   <g id="text_1">
    <!-- x -->
    <g transform="translate(371.00584 280.960384)scale(0.16 -0.16)">
     <defs>
      <path id="CMSS17-78" d="M 1587 1414 
L 2656 2739 
L 2099 2739 
L 1363 1777 
L 602 2739 
L 32 2739 
L 1139 1414 
L 0 0 
L 563 0 
L 1363 1121 
L 2195 0 
L 2758 0 
L 1587 1414 
z
" transform="scale(0.015625)"/>
     </defs>
     <use xlink:href="#CMSS17-78" transform="scale(0.996264)"/>
    </g>
   </g>
   <g id="Line3DCollection_1">
    <path d="M 366.327307 248.433915 
L 162.763082 245.974277 
L 162.763082 90.285182 
" style="fill: none; stroke: #b0b0b0; stroke-width: 0.8"/>
    <path d="M 357.586306 250.169608 
L 150.033168 247.604194 
L 150.033168 88.655266 
" style="fill: none; stroke: #b0b0b0; stroke-width: 0.8"/>
    <path d="M 348.459103 251.981988 
L 136.758773 249.303825 
L 136.758773 86.955635 
" style="fill: none; stroke: #b0b0b0; stroke-width: 0.8"/>
    <path d="M 338.919523 253.876254 
L 122.904202 251.077741 
L 122.904202 85.181719 
" style="fill: none; stroke: #b0b0b0; stroke-width: 0.8"/>
    <path d="M 328.938973 255.858082 
L 108.430568 252.93092 
L 108.430568 83.328539 
" style="fill: none; stroke: #b0b0b0; stroke-width: 0.8"/>
    <path d="M 318.486155 257.933689 
L 93.29543 254.868798 
L 93.29543 81.390662 
" style="fill: none; stroke: #b0b0b0; stroke-width: 0.8"/>
   </g>
   <g id="xtick_1">
    <g id="line2d_2">
     <path d="M 364.647762 248.413621 
L 369.688945 248.474533 
" style="fill: none; stroke: #000000; stroke-width: 0.8; stroke-linecap: square"/>
    </g>
    <g id="text_2">
     <!-- $\mathdefault{0}$ -->
     <g transform="translate(377.280201 265.796696)scale(0.1 -0.1)">
      <defs>
       <path id="CMR17-30" d="M 2688 2025 
C 2688 2416 2682 3080 2413 3591 
C 2176 4039 1798 4198 1466 4198 
C 1158 4198 768 4058 525 3597 
C 269 3118 243 2524 243 2025 
C 243 1661 250 1106 448 619 
C 723 -39 1216 -128 1466 -128 
C 1760 -128 2208 -7 2470 600 
C 2662 1042 2688 1559 2688 2025 
z
M 1466 -26 
C 1056 -26 813 325 723 812 
C 653 1188 653 1738 653 2096 
C 653 2588 653 2997 736 3387 
C 858 3929 1216 4096 1466 4096 
C 1728 4096 2067 3923 2189 3400 
C 2272 3036 2278 2607 2278 2096 
C 2278 1680 2278 1169 2202 792 
C 2067 95 1690 -26 1466 -26 
z
" transform="scale(0.015625)"/>
      </defs>
      <use xlink:href="#CMR17-30" transform="scale(0.996264)"/>
     </g>
    </g>
   </g>
   <g id="xtick_2">
    <g id="line2d_3">
     <path d="M 355.872726 250.148427 
L 361.016124 250.212001 
" style="fill: none; stroke: #000000; stroke-width: 0.8; stroke-linecap: square"/>
    </g>
    <g id="text_3">
     <!-- $\mathdefault{1}$ -->
     <g transform="translate(368.812306 267.762185)scale(0.1 -0.1)">
      <defs>
       <path id="CMR17-31" d="M 1702 4058 
C 1702 4192 1696 4192 1606 4192 
C 1357 3916 979 3827 621 3827 
C 602 3827 570 3827 563 3808 
C 557 3795 557 3782 557 3648 
C 755 3648 1088 3686 1344 3839 
L 1344 461 
C 1344 236 1331 160 781 160 
L 589 160 
L 589 0 
C 896 0 1216 0 1523 0 
C 1830 0 2150 0 2458 0 
L 2458 160 
L 2266 160 
C 1715 160 1702 230 1702 458 
L 1702 4058 
z
" transform="scale(0.015625)"/>
      </defs>
      <use xlink:href="#CMR17-31" transform="scale(0.996264)"/>
     </g>
    </g>
   </g>
   <g id="xtick_3">
    <g id="line2d_4">
     <path d="M 346.710085 251.959862 
L 351.95991 252.026276 
" style="fill: none; stroke: #000000; stroke-width: 0.8; stroke-linecap: square"/>
    </g>
    <g id="text_4">
     <!-- $\mathdefault{2}$ -->
     <g transform="translate(359.969484 269.814697)scale(0.1 -0.1)">
      <defs>
       <path id="CMR17-32" d="M 2669 989 
L 2554 989 
C 2490 536 2438 459 2413 420 
C 2381 369 1920 369 1830 369 
L 602 369 
C 832 619 1280 1072 1824 1597 
C 2214 1967 2669 2402 2669 3035 
C 2669 3790 2067 4224 1395 4224 
C 691 4224 262 3604 262 3030 
C 262 2780 448 2748 525 2748 
C 589 2748 781 2787 781 3010 
C 781 3207 614 3264 525 3264 
C 486 3264 448 3258 422 3245 
C 544 3790 915 4058 1306 4058 
C 1862 4058 2227 3617 2227 3035 
C 2227 2479 1901 2000 1536 1584 
L 262 146 
L 262 0 
L 2515 0 
L 2669 989 
z
" transform="scale(0.015625)"/>
      </defs>
      <use xlink:href="#CMR17-32" transform="scale(0.996264)"/>
     </g>
    </g>
   </g>
   <g id="xtick_4">
    <g id="line2d_5">
     <path d="M 337.133579 253.853116 
L 342.494305 253.922565 
" style="fill: none; stroke: #000000; stroke-width: 0.8; stroke-linecap: square"/>
    </g>
    <g id="text_5">
     <!-- $\mathdefault{3}$ -->
     <g transform="translate(350.726272 271.960145)scale(0.1 -0.1)">
      <defs>
       <path id="CMR17-33" d="M 1414 2157 
C 1984 2157 2234 1662 2234 1090 
C 2234 320 1824 25 1453 25 
C 1114 25 563 194 390 693 
C 422 680 454 680 486 680 
C 640 680 755 782 755 948 
C 755 1133 614 1216 486 1216 
C 378 1216 211 1165 211 926 
C 211 335 787 -128 1466 -128 
C 2176 -128 2720 430 2720 1085 
C 2720 1707 2208 2157 1600 2227 
C 2086 2328 2554 2756 2554 3329 
C 2554 3820 2048 4179 1472 4179 
C 890 4179 378 3829 378 3329 
C 378 3110 544 3072 627 3072 
C 762 3072 877 3155 877 3321 
C 877 3486 762 3569 627 3569 
C 602 3569 570 3569 544 3557 
C 730 3959 1235 4032 1459 4032 
C 1683 4032 2106 3925 2106 3320 
C 2106 3143 2080 2828 1862 2550 
C 1670 2304 1453 2304 1242 2284 
C 1210 2284 1062 2269 1037 2269 
C 992 2263 966 2257 966 2208 
C 966 2163 973 2157 1101 2157 
L 1414 2157 
z
" transform="scale(0.015625)"/>
      </defs>
      <use xlink:href="#CMR17-33" transform="scale(0.996264)"/>
     </g>
    </g>
   </g>
   <g id="xtick_5">
    <g id="line2d_6">
     <path d="M 327.114518 255.833863 
L 332.590909 255.90656 
" style="fill: none; stroke: #000000; stroke-width: 0.8; stroke-linecap: square"/>
    </g>
    <g id="text_6">
     <!-- $\mathdefault{4}$ -->
     <g transform="translate(341.054845 274.204986)scale(0.1 -0.1)">
      <defs>
       <path id="CMR17-34" d="M 2150 4122 
C 2150 4256 2144 4256 2029 4256 
L 128 1254 
L 128 1088 
L 1779 1088 
L 1779 457 
C 1779 224 1766 160 1318 160 
L 1197 160 
L 1197 0 
C 1402 0 1747 0 1965 0 
C 2182 0 2528 0 2733 0 
L 2733 160 
L 2611 160 
C 2163 160 2150 224 2150 457 
L 2150 1088 
L 2803 1088 
L 2803 1254 
L 2150 1254 
L 2150 4122 
z
M 1798 3703 
L 1798 1254 
L 256 1254 
L 1798 3703 
z
" transform="scale(0.015625)"/>
      </defs>
      <use xlink:href="#CMR17-34" transform="scale(0.996264)"/>
     </g>
    </g>
   </g>
   <g id="xtick_6">
    <g id="line2d_7">
     <path d="M 316.6215 257.90831 
L 322.218629 257.984489 
" style="fill: none; stroke: #000000; stroke-width: 0.8; stroke-linecap: square"/>
    </g>
    <g id="text_7">
     <!-- $\mathdefault{5}$ -->
     <g transform="translate(330.92474 276.556291)scale(0.1 -0.1)">
      <defs>
       <path id="CMR17-35" d="M 730 3692 
C 794 3666 1056 3584 1325 3584 
C 1920 3584 2246 3911 2432 4100 
C 2432 4157 2432 4192 2394 4192 
C 2387 4192 2374 4192 2323 4163 
C 2099 4058 1837 3973 1517 3973 
C 1325 3973 1037 3999 723 4139 
C 653 4171 640 4171 634 4171 
C 602 4171 595 4164 595 4037 
L 595 2203 
C 595 2089 595 2057 659 2057 
C 691 2057 704 2070 736 2114 
C 941 2401 1222 2522 1542 2522 
C 1766 2522 2246 2382 2246 1289 
C 2246 1085 2246 715 2054 421 
C 1894 159 1645 25 1370 25 
C 947 25 518 320 403 814 
C 429 807 480 795 506 795 
C 589 795 749 840 749 1038 
C 749 1210 627 1280 506 1280 
C 358 1280 262 1190 262 1011 
C 262 454 704 -128 1382 -128 
C 2042 -128 2669 440 2669 1264 
C 2669 2030 2170 2624 1549 2624 
C 1222 2624 947 2503 730 2274 
L 730 3692 
z
" transform="scale(0.015625)"/>
      </defs>
      <use xlink:href="#CMR17-35" transform="scale(0.996264)"/>
     </g>
    </g>
   </g>
  </g>
  <g id="axis3d_2">
   <g id="line2d_8">
    <path d="M 91.678978 255.075766 
L 317.368804 258.15556 
" style="fill: none; stroke: #000000; stroke-width: 0.8; stroke-linecap: square"/>
   </g>
   <g id="text_8">
    <!-- y -->
    <g transform="translate(189.247246 287.084111)scale(0.16 -0.16)">
     <defs>
      <path id="CMSS17-79" d="M 2675 2752 
L 2176 2752 
C 1632 1294 1446 702 1434 383 
L 1427 383 
C 1408 696 1126 1460 902 2007 
L 602 2752 
L 83 2752 
L 1216 13 
C 1146 -178 1043 -465 1011 -529 
C 870 -885 774 -885 672 -885 
C 646 -885 442 -885 211 -809 
L 250 -1229 
C 410 -1261 570 -1280 685 -1280 
C 845 -1280 1165 -1280 1459 -497 
L 2675 2752 
z
" transform="scale(0.015625)"/>
     </defs>
     <use xlink:href="#CMSS17-79" transform="scale(0.996264)"/>
    </g>
   </g>
   <g id="Line3DCollection_2">
    <path d="M 186.986429 90.174748 
L 186.986429 246.084712 
L 117.064114 255.422175 
" style="fill: none; stroke: #b0b0b0; stroke-width: 0.8"/>
    <path d="M 225.295656 89.712942 
L 225.295656 246.546517 
L 159.528324 256.001647 
" style="fill: none; stroke: #b0b0b0; stroke-width: 0.8"/>
    <path d="M 264.061475 89.245633 
L 264.061475 247.013826 
L 202.560081 256.588864 
" style="fill: none; stroke: #b0b0b0; stroke-width: 0.8"/>
    <path d="M 303.292099 88.772721 
L 303.292099 247.486739 
L 246.17084 257.183983 
" style="fill: none; stroke: #b0b0b0; stroke-width: 0.8"/>
    <path d="M 342.995938 88.294104 
L 342.995938 247.965356 
L 290.372365 257.787163 
" style="fill: none; stroke: #b0b0b0; stroke-width: 0.8"/>
   </g>
   <g id="xtick_7">
    <g id="line2d_9">
     <path d="M 117.689895 255.338608 
L 115.808946 255.58979 
" style="fill: none; stroke: #000000; stroke-width: 0.8; stroke-linecap: square"/>
    </g>
    <g id="text_9">
     <!-- $\mathdefault{−4}$ -->
     <g transform="translate(105.65815 274.253891)scale(0.1 -0.1)">
      <defs>
       <path id="CMSY10-0" d="M 4218 1472 
C 4326 1472 4442 1472 4442 1600 
C 4442 1728 4326 1728 4218 1728 
L 755 1728 
C 646 1728 531 1728 531 1600 
C 531 1472 646 1472 755 1472 
L 4218 1472 
z
" transform="scale(0.015625)"/>
      </defs>
      <use xlink:href="#CMSY10-0" transform="scale(0.996264)"/>
      <use xlink:href="#CMR17-34" transform="translate(77.487468 0)scale(0.996264)"/>
     </g>
    </g>
   </g>
   <g id="xtick_8">
    <g id="line2d_10">
     <path d="M 160.117334 255.916967 
L 158.346889 256.171498 
" style="fill: none; stroke: #000000; stroke-width: 0.8; stroke-linecap: square"/>
    </g>
    <g id="text_10">
     <!-- $\mathdefault{−2}$ -->
     <g transform="translate(148.418296 274.91756)scale(0.1 -0.1)">
      <use xlink:href="#CMSY10-0" transform="scale(0.996264)"/>
      <use xlink:href="#CMR17-32" transform="translate(77.487468 0)scale(0.996264)"/>
     </g>
    </g>
   </g>
   <g id="xtick_9">
    <g id="line2d_11">
     <path d="M 203.111278 256.50305 
L 201.45447 256.760995 
" style="fill: none; stroke: #000000; stroke-width: 0.8; stroke-linecap: square"/>
    </g>
    <g id="text_11">
     <!-- $\mathdefault{0}$ -->
     <g transform="translate(195.628784 275.590167)scale(0.1 -0.1)">
      <use xlink:href="#CMR17-30" transform="scale(0.996264)"/>
     </g>
    </g>
   </g>
   <g id="xtick_10">
    <g id="line2d_12">
     <path d="M 246.68315 257.09701 
L 245.143209 257.358439 
" style="fill: none; stroke: #000000; stroke-width: 0.8; stroke-linecap: square"/>
    </g>
    <g id="text_12">
     <!-- $\mathdefault{2}$ -->
     <g transform="translate(239.552584 276.271897)scale(0.1 -0.1)">
      <use xlink:href="#CMR17-32" transform="scale(0.996264)"/>
     </g>
    </g>
   </g>
   <g id="xtick_11">
    <g id="line2d_13">
     <path d="M 290.844681 257.699009 
L 289.424938 257.963993 
" style="fill: none; stroke: #000000; stroke-width: 0.8; stroke-linecap: square"/>
    </g>
    <g id="text_13">
     <!-- $\mathdefault{4}$ -->
     <g transform="translate(284.076105 276.962934)scale(0.1 -0.1)">
      <use xlink:href="#CMR17-34" transform="scale(0.996264)"/>
     </g>
    </g>
   </g>
  </g>
  <g id="axis3d_3">
   <g id="line2d_14">
    <path d="M 91.678978 255.075766 
L 91.678978 81.183694 
" style="fill: none; stroke: #000000; stroke-width: 0.8; stroke-linecap: square"/>
   </g>
   <g id="text_14">
    <!-- z -->
    <g transform="translate(46.271299 172.114786)scale(0.16 -0.16)">
     <defs>
      <path id="CMSS17-7a" d="M 2400 2502 
L 2400 2750 
L 250 2750 
L 250 2368 
L 1069 2368 
C 1146 2368 1222 2368 1299 2368 
L 1747 2368 
L 166 261 
L 166 0 
L 2419 0 
L 2419 395 
L 1549 395 
C 1472 395 1395 395 1318 395 
L 826 395 
L 2400 2502 
z
" transform="scale(0.015625)"/>
     </defs>
     <use xlink:href="#CMSS17-7a" transform="scale(0.996264)"/>
    </g>
   </g>
   <g id="Line3DCollection_3">
    <path d="M 91.678978 251.597924 
L 164.059151 242.701187 
L 367.216604 245.052224 
" style="fill: none; stroke: #b0b0b0; stroke-width: 0.8"/>
    <path d="M 91.678978 218.210646 
L 164.059151 212.872604 
L 367.216604 214.283226 
" style="fill: none; stroke: #b0b0b0; stroke-width: 0.8"/>
    <path d="M 91.678978 184.823369 
L 164.059151 183.044021 
L 367.216604 183.514229 
" style="fill: none; stroke: #b0b0b0; stroke-width: 0.8"/>
    <path d="M 91.678978 151.436091 
L 164.059151 153.215438 
L 367.216604 152.745231 
" style="fill: none; stroke: #b0b0b0; stroke-width: 0.8"/>
    <path d="M 91.678978 118.048813 
L 164.059151 123.386856 
L 367.216604 121.976233 
" style="fill: none; stroke: #b0b0b0; stroke-width: 0.8"/>
    <path d="M 91.678978 84.661535 
L 164.059151 93.558273 
L 367.216604 91.207235 
" style="fill: none; stroke: #b0b0b0; stroke-width: 0.8"/>
   </g>
   <g id="xtick_12">
    <g id="line2d_15">
     <path d="M 92.326484 251.518335 
L 90.380251 251.757559 
" style="fill: none; stroke: #000000; stroke-width: 0.8; stroke-linecap: square"/>
    </g>
    <g id="text_15">
     <!-- $\mathdefault{0}$ -->
     <g transform="translate(69.982111 258.972687)scale(0.1 -0.1)">
      <use xlink:href="#CMR17-30" transform="scale(0.996264)"/>
     </g>
    </g>
   </g>
   <g id="xtick_13">
    <g id="line2d_16">
     <path d="M 92.326484 218.162893 
L 90.380251 218.306428 
" style="fill: none; stroke: #000000; stroke-width: 0.8; stroke-linecap: square"/>
    </g>
    <g id="text_16">
     <!-- $\mathdefault{1}$ -->
     <g transform="translate(69.982111 225.402903)scale(0.1 -0.1)">
      <use xlink:href="#CMR17-31" transform="scale(0.996264)"/>
     </g>
    </g>
   </g>
   <g id="xtick_14">
    <g id="line2d_17">
     <path d="M 92.326484 184.807451 
L 90.380251 184.855296 
" style="fill: none; stroke: #000000; stroke-width: 0.8; stroke-linecap: square"/>
    </g>
    <g id="text_17">
     <!-- $\mathdefault{2}$ -->
     <g transform="translate(69.982111 191.83312)scale(0.1 -0.1)">
      <use xlink:href="#CMR17-32" transform="scale(0.996264)"/>
     </g>
    </g>
   </g>
   <g id="xtick_15">
    <g id="line2d_18">
     <path d="M 92.326484 151.452009 
L 90.380251 151.404164 
" style="fill: none; stroke: #000000; stroke-width: 0.8; stroke-linecap: square"/>
    </g>
    <g id="text_18">
     <!-- $\mathdefault{3}$ -->
     <g transform="translate(69.982111 158.263336)scale(0.1 -0.1)">
      <use xlink:href="#CMR17-33" transform="scale(0.996264)"/>
     </g>
    </g>
   </g>
   <g id="xtick_16">
    <g id="line2d_19">
     <path d="M 92.326484 118.096567 
L 90.380251 117.953032 
" style="fill: none; stroke: #000000; stroke-width: 0.8; stroke-linecap: square"/>
    </g>
    <g id="text_19">
     <!-- $\mathdefault{4}$ -->
     <g transform="translate(69.982111 124.693553)scale(0.1 -0.1)">
      <use xlink:href="#CMR17-34" transform="scale(0.996264)"/>
     </g>
    </g>
   </g>
   <g id="xtick_17">
    <g id="line2d_20">
     <path d="M 92.326484 84.741125 
L 90.380251 84.5019 
" style="fill: none; stroke: #000000; stroke-width: 0.8; stroke-linecap: square"/>
    </g>
    <g id="text_20">
     <!-- $\mathdefault{5}$ -->
     <g transform="translate(69.982111 91.123769)scale(0.1 -0.1)">
      <use xlink:href="#CMR17-35" transform="scale(0.996264)"/>
     </g>
    </g>
   </g>
  </g>
  <g id="axes_1">
   <g id="line2d_21">
    <path d="M 262.962209 244.02276 
L 312.473413 89.90675 
" clip-path="url(#p9d44f732ad)" style="fill: none; stroke: #ff0000; stroke-width: 1.5; stroke-linecap: square"/>
   </g>
   <g id="line2d_22">
    <path d="M 262.962209 244.02276 
L 200.507036 120.908929 
" clip-path="url(#p9d44f732ad)" style="fill: none; stroke: #00ff00; stroke-width: 1.5; stroke-linecap: square"/>
   </g>
   <g id="line2d_23">
    <path d="M 262.962209 244.02276 
L 251.827455 -1 
" clip-path="url(#p9d44f732ad)" style="fill: none; stroke: #0016ff; stroke-width: 1.5; stroke-linecap: square"/>
   </g>
   <g id="line2d_24">
    <path d="M 262.962209 244.02276 
L 139.742604 151.354455 
" clip-path="url(#p9d44f732ad)" style="fill: none; stroke: #f400ff; stroke-width: 1.5; stroke-linecap: square"/>
   </g>
   <g id="Poly3DCollection_1">
    <path d="M 166.712086 355.07116 
L 160.450112 315.455702 
L 170.036788 304.325369 
L 176.209477 344.113563 
z
" clip-path="url(#p9d44f732ad)" style="fill: #0000f5; fill-opacity: 0.1"/>
    <path d="M 176.209477 344.113563 
L 170.036788 304.325369 
L 179.652047 293.16185 
L 185.734894 333.123632 
z
" clip-path="url(#p9d44f732ad)" style="fill: #0000f5; fill-opacity: 0.1"/>
    <path d="M 185.734894 333.123632 
L 179.652047 293.16185 
L 189.296017 281.964996 
L 195.28846 322.101222 
z
" clip-path="url(#p9d44f732ad)" style="fill: #0000f5; fill-opacity: 0.1"/>
    <path d="M 195.28846 322.101222 
L 189.296017 281.964996 
L 198.968826 270.734659 
L 204.870301 311.046191 
z
" clip-path="url(#p9d44f732ad)" style="fill: #0000f5; fill-opacity: 0.1"/>
    <path d="M 204.870301 311.046191 
L 198.968826 270.734659 
L 208.670606 259.470687 
L 214.480542 299.958393 
z
" clip-path="url(#p9d44f732ad)" style="fill: #0000f5; fill-opacity: 0.1"/>
    <path d="M 214.480542 299.958393 
L 208.670606 259.470687 
L 218.401485 248.17293 
L 224.119311 288.837682 
z
" clip-path="url(#p9d44f732ad)" style="fill: #0000f5; fill-opacity: 0.1"/>
    <path d="M 224.119311 288.837682 
L 218.401485 248.17293 
L 228.161596 236.841235 
L 233.786733 277.683911 
z
" clip-path="url(#p9d44f732ad)" style="fill: #0000f5; fill-opacity: 0.1"/>
    <path d="M 160.450112 315.455702 
L 154.056942 275.010253 
L 163.734579 263.70231 
L 170.036788 304.325369 
z
" clip-path="url(#p9d44f732ad)" style="fill: #0000f5; fill-opacity: 0.1"/>
    <path d="M 233.786733 277.683911 
L 228.161596 236.841235 
L 237.951069 225.475449 
L 243.482938 266.496933 
z
" clip-path="url(#p9d44f732ad)" style="fill: #0000f5; fill-opacity: 0.1"/>
    <path d="M 170.036788 304.325369 
L 163.734579 263.70231 
L 173.441373 252.360298 
L 179.652047 293.16185 
z
" clip-path="url(#p9d44f732ad)" style="fill: #0000f5; fill-opacity: 0.1"/>
    <path d="M 243.482938 266.496933 
L 237.951069 225.475449 
L 247.770038 214.075418 
L 253.208053 255.276599 
z
" clip-path="url(#p9d44f732ad)" style="fill: #0000f5; fill-opacity: 0.1"/>
    <path d="M 179.652047 293.16185 
L 173.441373 252.360298 
L 183.177456 240.984062 
L 189.296017 281.964996 
z
" clip-path="url(#p9d44f732ad)" style="fill: #0000f5; fill-opacity: 0.1"/>
    <path d="M 253.208053 255.276599 
L 247.770038 214.075418 
L 257.618636 202.640987 
L 262.962209 244.02276 
z
" clip-path="url(#p9d44f732ad)" style="fill: #0000f5; fill-opacity: 0.1"/>
    <path d="M 189.296017 281.964996 
L 183.177456 240.984062 
L 192.942962 229.573448 
L 198.968826 270.734659 
z
" clip-path="url(#p9d44f732ad)" style="fill: #0000f5; fill-opacity: 0.1"/>
    <path d="M 262.962209 244.02276 
L 257.618636 202.640987 
L 267.496998 191.172 
L 272.745535 232.735265 
z
" clip-path="url(#p9d44f732ad)" style="fill: #0000f5; fill-opacity: 0.1"/>
    <path d="M 198.968826 270.734659 
L 192.942962 229.573448 
L 202.738023 218.128298 
L 208.670606 259.470687 
z
" clip-path="url(#p9d44f732ad)" style="fill: #0000f5; fill-opacity: 0.1"/>
    <path d="M 272.745535 232.735265 
L 267.496998 191.172 
L 277.405258 179.6683 
L 282.558163 221.413964 
z
" clip-path="url(#p9d44f732ad)" style="fill: #0000f5; fill-opacity: 0.1"/>
    <path d="M 208.670606 259.470687 
L 202.738023 218.128298 
L 212.562775 206.648456 
L 218.401485 248.17293 
z
" clip-path="url(#p9d44f732ad)" style="fill: #0000f5; fill-opacity: 0.1"/>
    <path d="M 282.558163 221.413964 
L 277.405258 179.6683 
L 287.343552 168.12973 
L 292.400225 210.058703 
z
" clip-path="url(#p9d44f732ad)" style="fill: #0000f5; fill-opacity: 0.1"/>
    <path d="M 218.401485 248.17293 
L 212.562775 206.648456 
L 222.417353 195.133765 
L 228.161596 236.841235 
z
" clip-path="url(#p9d44f732ad)" style="fill: #0000f5; fill-opacity: 0.1"/>
    <path d="M 292.400225 210.058703 
L 287.343552 168.12973 
L 297.312018 156.55613 
L 302.271853 198.669331 
z
" clip-path="url(#p9d44f732ad)" style="fill: #0000f5; fill-opacity: 0.1"/>
    <path d="M 154.056942 275.010253 
L 147.52841 233.708453 
L 157.29873 222.217833 
L 163.734579 263.70231 
z
" clip-path="url(#p9d44f732ad)" style="fill: #0000f5; fill-opacity: 0.1"/>
    <path d="M 228.161596 236.841235 
L 222.417353 195.133765 
L 232.301891 183.584065 
L 237.951069 225.475449 
z
" clip-path="url(#p9d44f732ad)" style="fill: #0000f5; fill-opacity: 0.1"/>
    <path d="M 302.271853 198.669331 
L 297.312018 156.55613 
L 307.310793 144.94734 
L 312.17318 187.245693 
z
" clip-path="url(#p9d44f732ad)" style="fill: #0000f5; fill-opacity: 0.1"/>
    <path d="M 163.734579 263.70231 
L 157.29873 222.217833 
L 167.0988 210.692225 
L 173.441373 252.360298 
z
" clip-path="url(#p9d44f732ad)" style="fill: #0000f5; fill-opacity: 0.1"/>
    <path d="M 237.951069 225.475449 
L 232.301891 183.584065 
L 242.216528 171.999196 
L 247.770038 214.075418 
z
" clip-path="url(#p9d44f732ad)" style="fill: #0000f5; fill-opacity: 0.1"/>
    <path d="M 312.17318 187.245693 
L 307.310793 144.94734 
L 317.340015 133.303201 
L 322.104341 175.787635 
z
" clip-path="url(#p9d44f732ad)" style="fill: #0000f5; fill-opacity: 0.1"/>
    <path d="M 173.441373 252.360298 
L 167.0988 210.692225 
L 176.928755 199.13147 
L 183.177456 240.984062 
z
" clip-path="url(#p9d44f732ad)" style="fill: #0000f5; fill-opacity: 0.1"/>
    <path d="M 247.770038 214.075418 
L 242.216528 171.999196 
L 252.161402 160.378997 
L 257.618636 202.640987 
z
" clip-path="url(#p9d44f732ad)" style="fill: #0000f5; fill-opacity: 0.1"/>
    <path d="M 322.104341 175.787635 
L 317.340015 133.303201 
L 327.399824 121.62355 
L 332.06547 164.295 
z
" clip-path="url(#p9d44f732ad)" style="fill: #0000f5; fill-opacity: 0.1"/>
    <path d="M 183.177456 240.984062 
L 176.928755 199.13147 
L 186.788732 187.535406 
L 192.942962 229.573448 
z
" clip-path="url(#p9d44f732ad)" style="fill: #0000f5; fill-opacity: 0.1"/>
    <path d="M 257.618636 202.640987 
L 252.161402 160.378997 
L 262.136649 148.723307 
L 267.496998 191.172 
z
" clip-path="url(#p9d44f732ad)" style="fill: #0000f5; fill-opacity: 0.1"/>
    <path d="M 332.06547 164.295 
L 327.399824 121.62355 
L 337.490359 109.908224 
L 342.056705 152.767632 
z
" clip-path="url(#p9d44f732ad)" style="fill: #0000f5; fill-opacity: 0.1"/>
    <path d="M 192.942962 229.573448 
L 186.788732 187.535406 
L 196.67887 175.903872 
L 202.738023 218.128298 
z
" clip-path="url(#p9d44f732ad)" style="fill: #0000f5; fill-opacity: 0.1"/>
    <path d="M 267.496998 191.172 
L 262.136649 148.723307 
L 272.142411 137.031963 
L 277.405258 179.6683 
z
" clip-path="url(#p9d44f732ad)" style="fill: #0000f5; fill-opacity: 0.1"/>
    <path d="M 342.056705 152.767632 
L 337.490359 109.908224 
L 347.611763 98.15706 
L 352.078181 141.205373 
z
" clip-path="url(#p9d44f732ad)" style="fill: #0000f5; fill-opacity: 0.1"/>
    <path d="M 202.738023 218.128298 
L 196.67887 175.903872 
L 206.599306 164.236704 
L 212.562775 206.648456 
z
" clip-path="url(#p9d44f732ad)" style="fill: #0000f5; fill-opacity: 0.1"/>
    <path d="M 277.405258 179.6683 
L 272.142411 137.031963 
L 282.178826 125.3048 
L 287.343552 168.12973 
z
" clip-path="url(#p9d44f732ad)" style="fill: #0000f5; fill-opacity: 0.1"/>
    <path d="M 212.562775 206.648456 
L 206.599306 164.236704 
L 216.550181 152.533739 
L 222.417353 195.133765 
z
" clip-path="url(#p9d44f732ad)" style="fill: #0000f5; fill-opacity: 0.1"/>
    <path d="M 287.343552 168.12973 
L 282.178826 125.3048 
L 292.246037 113.541655 
L 297.312018 156.55613 
z
" clip-path="url(#p9d44f732ad)" style="fill: #0000f5; fill-opacity: 0.1"/>
    <path d="M 147.52841 233.708453 
L 140.86017 191.522812 
L 150.724946 179.844242 
L 157.29873 222.217833 
z
" clip-path="url(#p9d44f732ad)" style="fill: #0000f5; fill-opacity: 0.1"/>
    <path d="M 222.417353 195.133765 
L 216.550181 152.533739 
L 226.531634 140.794811 
L 232.301891 183.584065 
z
" clip-path="url(#p9d44f732ad)" style="fill: #0000f5; fill-opacity: 0.1"/>
    <path d="M 297.312018 156.55613 
L 292.246037 113.541655 
L 302.344185 101.742361 
L 307.310793 144.94734 
z
" clip-path="url(#p9d44f732ad)" style="fill: #0000f5; fill-opacity: 0.1"/>
    <path d="M 157.29873 222.217833 
L 150.724946 179.844242 
L 160.620081 168.12973 
L 167.0988 210.692225 
z
" clip-path="url(#p9d44f732ad)" style="fill: #0000f5; fill-opacity: 0.1"/>
    <path d="M 232.301891 183.584065 
L 226.531634 140.794811 
L 236.543806 129.019755 
L 242.216528 171.999196 
z
" clip-path="url(#p9d44f732ad)" style="fill: #0000f5; fill-opacity: 0.1"/>
    <path d="M 307.310793 144.94734 
L 302.344185 101.742361 
L 312.473413 89.90675 
L 317.340015 133.303201 
z
" clip-path="url(#p9d44f732ad)" style="fill: #0000f5; fill-opacity: 0.1"/>
    <path d="M 167.0988 210.692225 
L 160.620081 168.12973 
L 170.545716 156.37911 
L 176.928755 199.13147 
z
" clip-path="url(#p9d44f732ad)" style="fill: #0000f5; fill-opacity: 0.1"/>
    <path d="M 242.216528 171.999196 
L 236.543806 129.019755 
L 246.58684 117.208403 
L 252.161402 160.378997 
z
" clip-path="url(#p9d44f732ad)" style="fill: #0000f5; fill-opacity: 0.1"/>
    <path d="M 317.340015 133.303201 
L 312.473413 89.90675 
L 322.633865 78.034657 
L 327.399824 121.62355 
z
" clip-path="url(#p9d44f732ad)" style="fill: #0000f5; fill-opacity: 0.1"/>
    <path d="M 176.928755 199.13147 
L 170.545716 156.37911 
L 180.501992 144.592216 
L 186.788732 187.535406 
z
" clip-path="url(#p9d44f732ad)" style="fill: #0000f5; fill-opacity: 0.1"/>
    <path d="M 252.161402 160.378997 
L 246.58684 117.208403 
L 256.660879 105.360587 
L 262.136649 148.723307 
z
" clip-path="url(#p9d44f732ad)" style="fill: #0000f5; fill-opacity: 0.1"/>
    <path d="M 327.399824 121.62355 
L 322.633865 78.034657 
L 332.825685 66.12591 
L 337.490359 109.908224 
z
" clip-path="url(#p9d44f732ad)" style="fill: #0000f5; fill-opacity: 0.1"/>
    <path d="M 186.788732 187.535406 
L 180.501992 144.592216 
L 190.489051 132.768879 
L 196.67887 175.903872 
z
" clip-path="url(#p9d44f732ad)" style="fill: #0000f5; fill-opacity: 0.1"/>
    <path d="M 262.136649 148.723307 
L 256.660879 105.360587 
L 266.766066 93.476139 
L 272.142411 137.031963 
z
" clip-path="url(#p9d44f732ad)" style="fill: #0000f5; fill-opacity: 0.1"/>
    <path d="M 337.490359 109.908224 
L 332.825685 66.12591 
L 343.049019 54.180341 
L 347.611763 98.15706 
z
" clip-path="url(#p9d44f732ad)" style="fill: #0000f5; fill-opacity: 0.1"/>
    <path d="M 196.67887 175.903872 
L 190.489051 132.768879 
L 200.507036 120.908929 
L 206.599306 164.236704 
z
" clip-path="url(#p9d44f732ad)" style="fill: #0000f5; fill-opacity: 0.1"/>
    <path d="M 272.142411 137.031963 
L 266.766066 93.476139 
L 276.902547 81.554887 
L 282.178826 125.3048 
z
" clip-path="url(#p9d44f732ad)" style="fill: #0000f5; fill-opacity: 0.1"/>
    <path d="M 206.599306 164.236704 
L 200.507036 120.908929 
L 210.556091 109.012197 
L 216.550181 152.533739 
z
" clip-path="url(#p9d44f732ad)" style="fill: #0000f5; fill-opacity: 0.1"/>
    <path d="M 282.178826 125.3048 
L 276.902547 81.554887 
L 287.070466 69.596662 
L 292.246037 113.541655 
z
" clip-path="url(#p9d44f732ad)" style="fill: #0000f5; fill-opacity: 0.1"/>
    <path d="M 140.86017 191.522812 
L 134.047689 148.424655 
L 144.008743 136.552644 
L 150.724946 179.844242 
z
" clip-path="url(#p9d44f732ad)" style="fill: #0000f5; fill-opacity: 0.1"/>
    <path d="M 216.550181 152.533739 
L 210.556091 109.012197 
L 220.636361 97.07851 
L 226.531634 140.794811 
z
" clip-path="url(#p9d44f732ad)" style="fill: #0000f5; fill-opacity: 0.1"/>
    <path d="M 292.246037 113.541655 
L 287.070466 69.596662 
L 297.26997 57.60129 
L 302.344185 101.742361 
z
" clip-path="url(#p9d44f732ad)" style="fill: #0000f5; fill-opacity: 0.1"/>
    <path d="M 150.724946 179.844242 
L 144.008743 136.552644 
L 154.000785 124.643701 
L 160.620081 168.12973 
z
" clip-path="url(#p9d44f732ad)" style="fill: #0000f5; fill-opacity: 0.1"/>
    <path d="M 226.531634 140.794811 
L 220.636361 97.07851 
L 230.747991 85.107698 
L 236.543806 129.019755 
z
" clip-path="url(#p9d44f732ad)" style="fill: #0000f5; fill-opacity: 0.1"/>
    <path d="M 302.344185 101.742361 
L 297.26997 57.60129 
L 307.501207 45.568598 
L 312.473413 89.90675 
z
" clip-path="url(#p9d44f732ad)" style="fill: #0000f5; fill-opacity: 0.1"/>
    <path d="M 160.620081 168.12973 
L 154.000785 124.643701 
L 164.02396 112.697652 
L 170.545716 156.37911 
z
" clip-path="url(#p9d44f732ad)" style="fill: #0000f5; fill-opacity: 0.1"/>
    <path d="M 236.543806 129.019755 
L 230.747991 85.107698 
L 240.891128 73.099585 
L 246.58684 117.208403 
z
" clip-path="url(#p9d44f732ad)" style="fill: #0000f5; fill-opacity: 0.1"/>
    <path d="M 312.473413 89.90675 
L 307.501207 45.568598 
L 317.764324 33.498412 
L 322.633865 78.034657 
z
" clip-path="url(#p9d44f732ad)" style="fill: #0000f5; fill-opacity: 0.1"/>
    <path d="M 170.545716 156.37911 
L 164.02396 112.697652 
L 174.078414 100.714324 
L 180.501992 144.592216 
z
" clip-path="url(#p9d44f732ad)" style="fill: #0000f5; fill-opacity: 0.1"/>
    <path d="M 246.58684 117.208403 
L 240.891128 73.099585 
L 251.065919 61.053998 
L 256.660879 105.360587 
z
" clip-path="url(#p9d44f732ad)" style="fill: #0000f5; fill-opacity: 0.1"/>
    <path d="M 322.633865 78.034657 
L 317.764324 33.498412 
L 328.059472 21.390556 
L 332.825685 66.12591 
z
" clip-path="url(#p9d44f732ad)" style="fill: #0000f5; fill-opacity: 0.1"/>
    <path d="M 180.501992 144.592216 
L 174.078414 100.714324 
L 184.164294 88.693542 
L 190.489051 132.768879 
z
" clip-path="url(#p9d44f732ad)" style="fill: #0000f5; fill-opacity: 0.1"/>
    <path d="M 256.660879 105.360587 
L 251.065919 61.053998 
L 261.272513 48.97076 
L 266.766066 93.476139 
z
" clip-path="url(#p9d44f732ad)" style="fill: #0000f5; fill-opacity: 0.1"/>
    <path d="M 332.825685 66.12591 
L 328.059472 21.390556 
L 338.3868 9.244853 
L 343.049019 54.180341 
z
" clip-path="url(#p9d44f732ad)" style="fill: #0000f5; fill-opacity: 0.1"/>
    <path d="M 190.489051 132.768879 
L 184.164294 88.693542 
L 194.281746 76.635129 
L 200.507036 120.908929 
z
" clip-path="url(#p9d44f732ad)" style="fill: #0000f5; fill-opacity: 0.1"/>
    <path d="M 266.766066 93.476139 
L 261.272513 48.97076 
L 271.51106 36.849695 
L 276.902547 81.554887 
z
" clip-path="url(#p9d44f732ad)" style="fill: #0000f5; fill-opacity: 0.1"/>
    <path d="M 200.507036 120.908929 
L 194.281746 76.635129 
L 204.43092 64.538909 
L 210.556091 109.012197 
z
" clip-path="url(#p9d44f732ad)" style="fill: #0000f5; fill-opacity: 0.1"/>
    <path d="M 276.902547 81.554887 
L 271.51106 36.849695 
L 281.781708 24.690626 
L 287.070466 69.596662 
z
" clip-path="url(#p9d44f732ad)" style="fill: #0000f5; fill-opacity: 0.1"/>
    <path d="M 134.047689 148.424655 
L 127.086236 104.384048 
L 137.145443 92.312882 
L 144.008743 136.552644 
z
" clip-path="url(#p9d44f732ad)" style="fill: #0000f5; fill-opacity: 0.1"/>
    <path d="M 210.556091 109.012197 
L 204.43092 64.538909 
L 214.611965 52.404704 
L 220.636361 97.07851 
z
" clip-path="url(#p9d44f732ad)" style="fill: #0000f5; fill-opacity: 0.1"/>
    <path d="M 287.070466 69.596662 
L 281.781708 24.690626 
L 292.084611 12.493372 
L 297.26997 57.60129 
z
" clip-path="url(#p9d44f732ad)" style="fill: #0000f5; fill-opacity: 0.1"/>
    <path d="M 144.008743 136.552644 
L 137.145443 92.312882 
L 147.236286 80.203751 
L 154.000785 124.643701 
z
" clip-path="url(#p9d44f732ad)" style="fill: #0000f5; fill-opacity: 0.1"/>
    <path d="M 220.636361 97.07851 
L 214.611965 52.404704 
L 224.825031 40.232335 
L 230.747991 85.107698 
z
" clip-path="url(#p9d44f732ad)" style="fill: #0000f5; fill-opacity: 0.1"/>
    <path d="M 297.26997 57.60129 
L 292.084611 12.493372 
L 302.419919 0.257754 
L 307.501207 45.568598 
z
" clip-path="url(#p9d44f732ad)" style="fill: #0000f5; fill-opacity: 0.1"/>
    <path d="M 154.000785 124.643701 
L 147.236286 80.203751 
L 157.358916 68.056477 
L 164.02396 112.697652 
z
" clip-path="url(#p9d44f732ad)" style="fill: #0000f5; fill-opacity: 0.1"/>
    <path d="M 230.747991 85.107698 
L 224.825031 40.232335 
L 235.07027 28.021621 
L 240.891128 73.099585 
z
" clip-path="url(#p9d44f732ad)" style="fill: #0000f5; fill-opacity: 0.1"/>
    <path d="M 307.501207 45.568598 
L 302.419919 0.257754 
L 312.787787 -12.016409 
L 317.764324 33.498412 
z
" clip-path="url(#p9d44f732ad)" style="fill: #0000f5; fill-opacity: 0.1"/>
    <path d="M 164.02396 112.697652 
L 157.358916 68.056477 
L 167.513483 55.870878 
L 174.078414 100.714324 
z
" clip-path="url(#p9d44f732ad)" style="fill: #0000f5; fill-opacity: 0.1"/>
    <path d="M 240.891128 73.099585 
L 235.07027 28.021621 
L 245.347834 15.772381 
L 251.065919 61.053998 
z
" clip-path="url(#p9d44f732ad)" style="fill: #0000f5; fill-opacity: 0.1"/>
    <path d="M 317.764324 33.498412 
L 312.787787 -12.016409 
L 323.188367 -24.3293 
L 328.059472 21.390556 
z
" clip-path="url(#p9d44f732ad)" style="fill: #0000f5; fill-opacity: 0.1"/>
    <path d="M 174.078414 100.714324 
L 167.513483 55.870878 
L 177.700137 43.646773 
L 184.164294 88.693542 
z
" clip-path="url(#p9d44f732ad)" style="fill: #0000f5; fill-opacity: 0.1"/>
    <path d="M 251.065919 61.053998 
L 245.347834 15.772381 
L 255.657876 3.484432 
L 261.272513 48.97076 
z
" clip-path="url(#p9d44f732ad)" style="fill: #0000f5; fill-opacity: 0.1"/>
    <path d="M 328.059472 21.390556 
L 323.188367 -24.3293 
L 333.621816 -36.681103 
L 338.3868 9.244853 
z
" clip-path="url(#p9d44f732ad)" style="fill: #0000f5; fill-opacity: 0.1"/>
    <path d="M 184.164294 88.693542 
L 177.700137 43.646773 
L 187.919032 31.383979 
L 194.281746 76.635129 
z
" clip-path="url(#p9d44f732ad)" style="fill: #0000f5; fill-opacity: 0.1"/>
    <path d="M 261.272513 48.97076 
L 255.657876 3.484432 
L 266.00055 -8.842409 
L 271.51106 36.849695 
z
" clip-path="url(#p9d44f732ad)" style="fill: #0000f5; fill-opacity: 0.1"/>
    <path d="M 194.281746 76.635129 
L 187.919032 31.383979 
L 198.170321 19.082312 
L 204.43092 64.538909 
z
" clip-path="url(#p9d44f732ad)" style="fill: #0000f5; fill-opacity: 0.1"/>
    <path d="M 271.51106 36.849695 
L 266.00055 -8.842409 
L 276.376011 -21.208328 
L 281.781708 24.690626 
z
" clip-path="url(#p9d44f732ad)" style="fill: #0000f5; fill-opacity: 0.1"/>
    <path d="M 127.086236 104.384048 
L 119.970871 59.369737 
L 130.13016 47.093459 
L 137.145443 92.312882 
z
" clip-path="url(#p9d44f732ad)" style="fill: #0000f5; fill-opacity: 0.1"/>
    <path d="M 204.43092 64.538909 
L 198.170321 19.082312 
L 208.454158 6.741587 
L 214.611965 52.404704 
z
" clip-path="url(#p9d44f732ad)" style="fill: #0000f5; fill-opacity: 0.1"/>
    <path d="M 281.781708 24.690626 
L 276.376011 -21.208328 
L 286.784417 -33.61351 
L 292.084611 12.493372 
z
" clip-path="url(#p9d44f732ad)" style="fill: #0000f5; fill-opacity: 0.1"/>
    <path d="M 137.145443 92.312882 
L 130.13016 47.093459 
L 140.321754 34.778144 
L 147.236286 80.203751 
z
" clip-path="url(#p9d44f732ad)" style="fill: #0000f5; fill-opacity: 0.1"/>
    <path d="M 214.611965 52.404704 
L 208.454158 6.741587 
L 218.770698 -5.638382 
L 224.825031 40.232335 
z
" clip-path="url(#p9d44f732ad)" style="fill: #0000f5; fill-opacity: 0.1"/>
    <path d="M 292.084611 12.493372 
L 286.784417 -33.61351 
L 297.225923 -46.058143 
L 302.419919 0.257754 
z
" clip-path="url(#p9d44f732ad)" style="fill: #0000f5; fill-opacity: 0.1"/>
    <path d="M 147.236286 80.203751 
L 140.321754 34.778144 
L 150.545809 22.423604 
L 157.358916 68.056477 
z
" clip-path="url(#p9d44f732ad)" style="fill: #0000f5; fill-opacity: 0.1"/>
    <path d="M 224.825031 40.232335 
L 218.770698 -5.638382 
L 229.120098 -18.057783 
L 235.07027 28.021621 
z
" clip-path="url(#p9d44f732ad)" style="fill: #0000f5; fill-opacity: 0.1"/>
    <path d="M 302.419919 0.257754 
L 297.225923 -46.058143 
L 307.700687 -58.542416 
L 312.787787 -12.016409 
z
" clip-path="url(#p9d44f732ad)" style="fill: #0000f5; fill-opacity: 0.1"/>
    <path d="M 157.358916 68.056477 
L 150.545809 22.423604 
L 160.802479 10.029652 
L 167.513483 55.870878 
z
" clip-path="url(#p9d44f732ad)" style="fill: #0000f5; fill-opacity: 0.1"/>
    <path d="M 235.07027 28.021621 
L 229.120098 -18.057783 
L 239.502515 -30.516805 
L 245.347834 15.772381 
z
" clip-path="url(#p9d44f732ad)" style="fill: #0000f5; fill-opacity: 0.1"/>
    <path d="M 312.787787 -12.016409 
L 307.700687 -58.542416 
L 318.20887 -71.066518 
L 323.188367 -24.3293 
z
" clip-path="url(#p9d44f732ad)" style="fill: #0000f5; fill-opacity: 0.1"/>
    <path d="M 167.513483 55.870878 
L 160.802479 10.029652 
L 171.091922 -2.403901 
L 177.700137 43.646773 
z
" clip-path="url(#p9d44f732ad)" style="fill: #0000f5; fill-opacity: 0.1"/>
    <path d="M 245.347834 15.772381 
L 239.502515 -30.516805 
L 249.918106 -43.015637 
L 255.657876 3.484432 
z
" clip-path="url(#p9d44f732ad)" style="fill: #0000f5; fill-opacity: 0.1"/>
    <path d="M 323.188367 -24.3293 
L 318.20887 -71.066518 
L 328.750632 -83.63064 
L 333.621816 -36.681103 
z
" clip-path="url(#p9d44f732ad)" style="fill: #0000f5; fill-opacity: 0.1"/>
    <path d="M 177.700137 43.646773 
L 171.091922 -2.403901 
L 181.414293 -14.877245 
L 187.919032 31.383979 
z
" clip-path="url(#p9d44f732ad)" style="fill: #0000f5; fill-opacity: 0.1"/>
    <path d="M 255.657876 3.484432 
L 249.918106 -43.015637 
L 260.367032 -55.554471 
L 266.00055 -8.842409 
z
" clip-path="url(#p9d44f732ad)" style="fill: #0000f5; fill-opacity: 0.1"/>
    <path d="M 187.919032 31.383979 
L 181.414293 -14.877245 
L 191.769752 -27.390571 
L 198.170321 19.082312 
z
" clip-path="url(#p9d44f732ad)" style="fill: #0000f5; fill-opacity: 0.1"/>
    <path d="M 266.00055 -8.842409 
L 260.367032 -55.554471 
L 270.849453 -68.133498 
L 276.376011 -21.208328 
z
" clip-path="url(#p9d44f732ad)" style="fill: #0000f5; fill-opacity: 0.1"/>
    <path d="M 119.970871 59.369737 
L 112.696432 13.349069 
L 122.957788 0.861471 
L 130.13016 47.093459 
z
" clip-path="url(#p9d44f732ad)" style="fill: #0000f5; fill-opacity: 0.1"/>
    <path d="M 198.170321 19.082312 
L 191.769752 -27.390571 
L 202.158458 -39.944072 
L 208.454158 6.741587 
z
" clip-path="url(#p9d44f732ad)" style="fill: #0000f5; fill-opacity: 0.1"/>
    <path d="M 276.376011 -21.208328 
L 270.849453 -68.133498 
L 281.365529 -80.752913 
L 286.784417 -33.61351 
z
" clip-path="url(#p9d44f732ad)" style="fill: #0000f5; fill-opacity: 0.1"/>
    <path d="M 130.13016 47.093459 
L 122.957788 0.861471 
L 133.252141 -11.666282 
L 140.321754 34.778144 
z
" clip-path="url(#p9d44f732ad)" style="fill: #0000f5; fill-opacity: 0.1"/>
    <path d="M 208.454158 6.741587 
L 202.158458 -39.944072 
L 212.580572 -52.537942 
L 218.770698 -5.638382 
z
" clip-path="url(#p9d44f732ad)" style="fill: #0000f5; fill-opacity: 0.1"/>
    <path d="M 286.784417 -33.61351 
L 281.365529 -80.752913 
L 291.915424 -93.412911 
L 297.225923 -46.058143 
z
" clip-path="url(#p9d44f732ad)" style="fill: #0000f5; fill-opacity: 0.1"/>
    <path d="M 140.321754 34.778144 
L 133.252141 -11.666282 
L 143.579649 -24.234384 
L 150.545809 22.423604 
z
" clip-path="url(#p9d44f732ad)" style="fill: #0000f5; fill-opacity: 0.1"/>
    <path d="M 218.770698 -5.638382 
L 212.580572 -52.537942 
L 223.036254 -65.172376 
L 229.120098 -18.057783 
z
" clip-path="url(#p9d44f732ad)" style="fill: #0000f5; fill-opacity: 0.1"/>
    <path d="M 297.225923 -46.058143 
L 291.915424 -93.412911 
L 302.4993 -106.113686 
L 307.700687 -58.542416 
z
" clip-path="url(#p9d44f732ad)" style="fill: #0000f5; fill-opacity: 0.1"/>
    <path d="M 150.545809 22.423604 
L 143.579649 -24.234384 
L 153.940474 -36.84303 
L 160.802479 10.029652 
z
" clip-path="url(#p9d44f732ad)" style="fill: #0000f5; fill-opacity: 0.1"/>
    <path d="M 229.120098 -18.057783 
L 223.036254 -65.172376 
L 233.525667 -77.847569 
L 239.502515 -30.516805 
z
" clip-path="url(#p9d44f732ad)" style="fill: #0000f5; fill-opacity: 0.1"/>
    <path d="M 307.700687 -58.542416 
L 302.4993 -106.113686 
L 313.117323 -118.855438 
L 318.20887 -71.066518 
z
" clip-path="url(#p9d44f732ad)" style="fill: #0000f5; fill-opacity: 0.1"/>
    <path d="M 160.802479 10.029652 
L 153.940474 -36.84303 
L 164.334777 -49.492418 
L 171.091922 -2.403901 
z
" clip-path="url(#p9d44f732ad)" style="fill: #0000f5; fill-opacity: 0.1"/>
    <path d="M 239.502515 -30.516805 
L 233.525667 -77.847569 
L 244.048975 -90.56372 
L 249.918106 -43.015637 
z
" clip-path="url(#p9d44f732ad)" style="fill: #0000f5; fill-opacity: 0.1"/>
    <path d="M 318.20887 -71.066518 
L 313.117323 -118.855438 
L 323.769657 -131.638364 
L 328.750632 -83.63064 
z
" clip-path="url(#p9d44f732ad)" style="fill: #0000f5; fill-opacity: 0.1"/>
    <path d="M 171.091922 -2.403901 
L 164.334777 -49.492418 
L 174.76272 -62.182744 
L 181.414293 -14.877245 
z
" clip-path="url(#p9d44f732ad)" style="fill: #0000f5; fill-opacity: 0.1"/>
    <path d="M 249.918106 -43.015637 
L 244.048975 -90.56372 
L 254.606342 -103.321028 
L 260.367032 -55.554471 
z
" clip-path="url(#p9d44f732ad)" style="fill: #0000f5; fill-opacity: 0.1"/>
    <path d="M 181.414293 -14.877245 
L 174.76272 -62.182744 
L 185.224466 -74.914207 
L 191.769752 -27.390571 
z
" clip-path="url(#p9d44f732ad)" style="fill: #0000f5; fill-opacity: 0.1"/>
    <path d="M 260.367032 -55.554471 
L 254.606342 -103.321028 
L 265.197934 -116.119692 
L 270.849453 -68.133498 
z
" clip-path="url(#p9d44f732ad)" style="fill: #0000f5; fill-opacity: 0.1"/>
    <path d="M 112.696432 13.349069 
L 105.257524 -33.712085 
L 115.622993 -46.417478 
L 122.957788 0.861471 
z
" clip-path="url(#p9d44f732ad)" style="fill: #0000f5; fill-opacity: 0.1"/>
    <path d="M 191.769752 -27.390571 
L 185.224466 -74.914207 
L 195.720182 -87.687009 
L 202.158458 -39.944072 
z
" clip-path="url(#p9d44f732ad)" style="fill: #0000f5; fill-opacity: 0.1"/>
    <path d="M 270.849453 -68.133498 
L 265.197934 -116.119692 
L 275.823917 -128.959914 
L 281.365529 -80.752913 
z
" clip-path="url(#p9d44f732ad)" style="fill: #0000f5; fill-opacity: 0.1"/>
    <path d="M 122.957788 0.861471 
L 115.622993 -46.417478 
L 126.02217 -59.164189 
L 133.252141 -11.666282 
z
" clip-path="url(#p9d44f732ad)" style="fill: #0000f5; fill-opacity: 0.1"/>
    <path d="M 202.158458 -39.944072 
L 195.720182 -87.687009 
L 206.250031 -100.501351 
L 212.580572 -52.537942 
z
" clip-path="url(#p9d44f732ad)" style="fill: #0000f5; fill-opacity: 0.1"/>
    <path d="M 281.365529 -80.752913 
L 275.823917 -128.959914 
L 286.484459 -141.841897 
L 291.915424 -93.412911 
z
" clip-path="url(#p9d44f732ad)" style="fill: #0000f5; fill-opacity: 0.1"/>
    <path d="M 133.252141 -11.666282 
L 126.02217 -59.164189 
L 136.455222 -71.952421 
L 143.579649 -24.234384 
z
" clip-path="url(#p9d44f732ad)" style="fill: #0000f5; fill-opacity: 0.1"/>
    <path d="M 212.580572 -52.537942 
L 206.250031 -100.501351 
L 216.814181 -113.357435 
L 223.036254 -65.172376 
z
" clip-path="url(#p9d44f732ad)" style="fill: #0000f5; fill-opacity: 0.1"/>
    <path d="M 291.915424 -93.412911 
L 286.484459 -141.841897 
L 297.17973 -154.765844 
L 302.4993 -106.113686 
z
" clip-path="url(#p9d44f732ad)" style="fill: #0000f5; fill-opacity: 0.1"/>
    <path d="M 143.579649 -24.234384 
L 136.455222 -71.952421 
L 146.922313 -84.782377 
L 153.940474 -36.84303 
z
" clip-path="url(#p9d44f732ad)" style="fill: #0000f5; fill-opacity: 0.1"/>
    <path d="M 223.036254 -65.172376 
L 216.814181 -113.357435 
L 227.412801 -126.255466 
L 233.525667 -77.847569 
z
" clip-path="url(#p9d44f732ad)" style="fill: #0000f5; fill-opacity: 0.1"/>
    <path d="M 302.4993 -106.113686 
L 297.17973 -154.765844 
L 307.909899 -167.731962 
L 313.117323 -118.855438 
z
" clip-path="url(#p9d44f732ad)" style="fill: #0000f5; fill-opacity: 0.1"/>
    <path d="M 153.940474 -36.84303 
L 146.922313 -84.782377 
L 157.423611 -97.654262 
L 164.334777 -49.492418 
z
" clip-path="url(#p9d44f732ad)" style="fill: #0000f5; fill-opacity: 0.1"/>
    <path d="M 233.525667 -77.847569 
L 227.412801 -126.255466 
L 238.046058 -139.19565 
L 244.048975 -90.56372 
z
" clip-path="url(#p9d44f732ad)" style="fill: #0000f5; fill-opacity: 0.1"/>
    <path d="M 313.117323 -118.855438 
L 307.909899 -167.731962 
L 318.675137 -180.740457 
L 323.769657 -131.638364 
z
" clip-path="url(#p9d44f732ad)" style="fill: #0000f5; fill-opacity: 0.1"/>
    <path d="M 164.334777 -49.492418 
L 157.423611 -97.654262 
L 167.959283 -110.56828 
L 174.76272 -62.182744 
z
" clip-path="url(#p9d44f732ad)" style="fill: #0000f5; fill-opacity: 0.1"/>
    <path d="M 244.048975 -90.56372 
L 238.046058 -139.19565 
L 248.714123 -152.178194 
L 254.606342 -103.321028 
z
" clip-path="url(#p9d44f732ad)" style="fill: #0000f5; fill-opacity: 0.1"/>
    <path d="M 174.76272 -62.182744 
L 167.959283 -110.56828 
L 178.529499 -123.524641 
L 185.224466 -74.914207 
z
" clip-path="url(#p9d44f732ad)" style="fill: #0000f5; fill-opacity: 0.1"/>
    <path d="M 254.606342 -103.321028 
L 248.714123 -152.178194 
L 259.417167 -165.203306 
L 265.197934 -116.119692 
z
" clip-path="url(#p9d44f732ad)" style="fill: #0000f5; fill-opacity: 0.1"/>
    <path d="M 185.224466 -74.914207 
L 178.529499 -123.524641 
L 189.134429 -136.523551 
L 195.720182 -87.687009 
z
" clip-path="url(#p9d44f732ad)" style="fill: #0000f5; fill-opacity: 0.1"/>
    <path d="M 265.197934 -116.119692 
L 259.417167 -165.203306 
L 270.155362 -178.271195 
L 275.823917 -128.959914 
z
" clip-path="url(#p9d44f732ad)" style="fill: #0000f5; fill-opacity: 0.1"/>
    <path d="M 195.720182 -87.687009 
L 189.134429 -136.523551 
L 199.774244 -149.565222 
L 206.250031 -100.501351 
z
" clip-path="url(#p9d44f732ad)" style="fill: #0000f5; fill-opacity: 0.1"/>
    <path d="M 275.823917 -128.959914 
L 270.155362 -178.271195 
L 280.928883 -191.382073 
L 286.484459 -141.841897 
z
" clip-path="url(#p9d44f732ad)" style="fill: #0000f5; fill-opacity: 0.1"/>
    <path d="M 206.250031 -100.501351 
L 199.774244 -149.565222 
L 210.449116 -162.649864 
L 216.814181 -113.357435 
z
" clip-path="url(#p9d44f732ad)" style="fill: #0000f5; fill-opacity: 0.1"/>
    <path d="M 286.484459 -141.841897 
L 280.928883 -191.382073 
L 291.737903 -204.536152 
L 297.17973 -154.765844 
z
" clip-path="url(#p9d44f732ad)" style="fill: #0000f5; fill-opacity: 0.1"/>
    <path d="M 216.814181 -113.357435 
L 210.449116 -162.649864 
L 221.159219 -175.77769 
L 227.412801 -126.255466 
z
" clip-path="url(#p9d44f732ad)" style="fill: #0000f5; fill-opacity: 0.1"/>
    <path d="M 297.17973 -154.765844 
L 291.737903 -204.536152 
L 302.582598 -217.733647 
L 307.909899 -167.731962 
z
" clip-path="url(#p9d44f732ad)" style="fill: #0000f5; fill-opacity: 0.1"/>
    <path d="M 227.412801 -126.255466 
L 221.159219 -175.77769 
L 231.904728 -188.948914 
L 238.046058 -139.19565 
z
" clip-path="url(#p9d44f732ad)" style="fill: #0000f5; fill-opacity: 0.1"/>
    <path d="M 307.909899 -167.731962 
L 302.582598 -217.733647 
L 313.463145 -230.974772 
L 318.675137 -180.740457 
z
" clip-path="url(#p9d44f732ad)" style="fill: #0000f5; fill-opacity: 0.1"/>
    <path d="M 238.046058 -139.19565 
L 231.904728 -188.948914 
L 242.685819 -202.163753 
L 248.714123 -152.178194 
z
" clip-path="url(#p9d44f732ad)" style="fill: #0000f5; fill-opacity: 0.1"/>
    <path d="M 248.714123 -152.178194 
L 242.685819 -202.163753 
L 253.502668 -215.422422 
L 259.417167 -165.203306 
z
" clip-path="url(#p9d44f732ad)" style="fill: #0000f5; fill-opacity: 0.1"/>
    <path d="M 259.417167 -165.203306 
L 253.502668 -215.422422 
L 264.355454 -228.72514 
L 270.155362 -178.271195 
z
" clip-path="url(#p9d44f732ad)" style="fill: #0000f5; fill-opacity: 0.1"/>
    <path d="M 270.155362 -178.271195 
L 264.355454 -228.72514 
L 275.244356 -242.072127 
L 280.928883 -191.382073 
z
" clip-path="url(#p9d44f732ad)" style="fill: #0000f5; fill-opacity: 0.1"/>
    <path d="M 280.928883 -191.382073 
L 275.244356 -242.072127 
L 286.169555 -255.463605 
L 291.737903 -204.536152 
z
" clip-path="url(#p9d44f732ad)" style="fill: #0000f5; fill-opacity: 0.1"/>
    <path d="M 291.737903 -204.536152 
L 286.169555 -255.463605 
L 297.131232 -268.899797 
L 302.582598 -217.733647 
z
" clip-path="url(#p9d44f732ad)" style="fill: #0000f5; fill-opacity: 0.1"/>
    <path d="M 302.582598 -217.733647 
L 297.131232 -268.899797 
L 308.129571 -282.380926 
L 313.463145 -230.974772 
z
" clip-path="url(#p9d44f732ad)" style="fill: #0000f5; fill-opacity: 0.1"/>
   </g>
   <g id="legend_1">
    <g id="patch_6">
     <path d="M 357.840076 67.305115 
L 396.2 67.305115 
Q 398.2 67.305115 398.2 65.305115 
L 398.2 7 
Q 398.2 5 396.2 5 
L 357.840076 5 
Q 355.840076 5 355.840076 7 
L 355.840076 65.305115 
Q 355.840076 67.305115 357.840076 67.305115 
z
" style="fill: #ffffff; opacity: 0.8; stroke: #cccccc; stroke-linejoin: miter"/>
    </g>
    <g id="line2d_25">
     <path d="M 359.840076 12.5 
L 369.840076 12.5 
L 379.840076 12.5 
" style="fill: none; stroke: #ff0000; stroke-width: 1.5; stroke-linecap: square"/>
    </g>
    <g id="text_21">
     <!-- $\vec{a}$ -->
     <g transform="translate(387.840076 16)scale(0.1 -0.1)">
      <defs>
       <path id="CMMI12-7e" d="M 3424 3835 
C 3347 3764 3110 3540 3110 3451 
C 3110 3387 3168 3329 3232 3329 
C 3290 3329 3315 3368 3360 3432 
C 3514 3624 3686 3745 3834 3828 
C 3898 3867 3942 3886 3942 3956 
C 3942 4014 3891 4046 3853 4078 
C 3674 4200 3629 4372 3610 4449 
C 3590 4500 3571 4577 3482 4577 
C 3443 4577 3366 4552 3366 4456 
C 3366 4398 3405 4244 3526 4072 
L 1376 4072 
C 1267 4072 1158 4072 1158 3950 
C 1158 3835 1274 3835 1376 3835 
L 3424 3835 
z
" transform="scale(0.015625)"/>
       <path id="CMMI12-61" d="M 1926 760 
C 1894 651 1894 639 1805 517 
C 1664 338 1382 64 1082 64 
C 819 64 672 300 672 677 
C 672 1028 870 1743 992 2012 
C 1210 2459 1510 2689 1760 2689 
C 2182 2689 2266 2165 2266 2114 
C 2266 2108 2246 2024 2240 2012 
L 1926 760 
z
M 2336 2395 
C 2266 2561 2093 2816 1760 2816 
C 1037 2816 256 1884 256 939 
C 256 307 627 -64 1062 -64 
C 1414 -64 1715 211 1894 422 
C 1958 45 2259 -64 2451 -64 
C 2643 -64 2797 51 2912 281 
C 3014 498 3104 888 3104 913 
C 3104 945 3078 971 3040 971 
C 2982 971 2976 939 2950 843 
C 2854 466 2733 64 2470 64 
C 2285 64 2272 230 2272 358 
C 2272 505 2291 575 2349 824 
C 2394 984 2426 1124 2477 1309 
C 2714 2267 2771 2497 2771 2535 
C 2771 2625 2701 2695 2605 2695 
C 2400 2695 2349 2472 2336 2395 
z
" transform="scale(0.015625)"/>
      </defs>
      <use xlink:href="#CMMI12-7e" transform="scale(0.996264)"/>
      <use xlink:href="#CMMI12-61" transform="translate(6.445738 0)scale(0.996264)"/>
     </g>
    </g>
    <g id="line2d_26">
     <path d="M 359.840076 27.24679 
L 369.840076 27.24679 
L 379.840076 27.24679 
" style="fill: none; stroke: #00ff00; stroke-width: 1.5; stroke-linecap: square"/>
    </g>
    <g id="text_22">
     <!-- $\vec{b}$ -->
     <g transform="translate(387.840076 30.74679)scale(0.1 -0.1)">
      <defs>
       <path id="CMMI12-62" d="M 1478 4257 
C 1485 4283 1498 4321 1498 4352 
C 1498 4416 1434 4416 1421 4416 
C 1414 4416 1184 4393 1069 4377 
C 960 4377 864 4358 749 4358 
C 595 4345 550 4339 550 4224 
C 550 4160 614 4160 678 4160 
C 1005 4160 1005 4103 1005 4040 
C 1005 3996 954 3811 928 3696 
L 774 3085 
C 710 2831 346 1387 320 1272 
C 288 1114 288 1005 288 922 
C 288 274 653 -64 1069 -64 
C 1811 -64 2579 888 2579 1814 
C 2579 2401 2246 2816 1766 2816 
C 1434 2816 1133 2542 1011 2414 
L 1478 4257 
z
M 1075 64 
C 870 64 646 217 646 715 
C 646 926 666 1047 781 1494 
C 800 1577 902 1986 928 2069 
C 941 2120 1318 2689 1754 2689 
C 2035 2689 2163 2408 2163 2076 
C 2163 1769 1984 1047 1824 715 
C 1664 370 1370 64 1075 64 
z
" transform="scale(0.015625)"/>
      </defs>
      <use xlink:href="#CMMI12-7e" transform="translate(0 26.29016)scale(0.996264)"/>
      <use xlink:href="#CMMI12-62" transform="translate(11.311737 0)scale(0.996264)"/>
     </g>
    </g>
    <g id="line2d_27">
     <path d="M 359.840076 41.183968 
L 369.840076 41.183968 
L 379.840076 41.183968 
" style="fill: none; stroke: #0016ff; stroke-width: 1.5; stroke-linecap: square"/>
    </g>
    <g id="text_23">
     <!-- $\vec{c}$ -->
     <g transform="translate(387.840076 44.683968)scale(0.1 -0.1)">
      <defs>
       <path id="CMMI12-63" d="M 2502 2431 
C 2381 2431 2323 2431 2234 2355 
C 2195 2323 2125 2227 2125 2125 
C 2125 1997 2221 1920 2342 1920 
C 2496 1920 2669 2044 2669 2292 
C 2669 2588 2374 2816 1933 2816 
C 1094 2816 256 1903 256 996 
C 256 441 602 -64 1254 -64 
C 2125 -64 2675 622 2675 706 
C 2675 744 2637 776 2611 776 
C 2592 776 2586 770 2528 713 
C 2118 162 1510 64 1267 64 
C 826 64 685 446 685 764 
C 685 988 794 1605 1024 2039 
C 1190 2338 1536 2682 1939 2682 
C 2022 2682 2374 2682 2502 2431 
z
" transform="scale(0.015625)"/>
      </defs>
      <use xlink:href="#CMMI12-7e" transform="scale(0.996264)"/>
      <use xlink:href="#CMMI12-63" transform="translate(5.638615 0)scale(0.996264)"/>
     </g>
    </g>
    <g id="line2d_28">
     <path d="M 359.840076 57.867937 
L 369.840076 57.867937 
L 379.840076 57.867937 
" style="fill: none; stroke: #f400ff; stroke-width: 1.5; stroke-linecap: square"/>
    </g>
    <g id="text_24">
     <!-- $\vec{f}$ -->
     <g transform="translate(387.840076 61.367937)scale(0.1 -0.1)">
      <defs>
       <path id="CMMI12-66" d="M 2854 2566 
C 2982 2566 3034 2566 3034 2688 
C 3034 2752 2982 2752 2867 2752 
L 2349 2752 
C 2470 3429 2560 3897 2611 4107 
C 2650 4265 2784 4416 2950 4416 
C 3085 4416 3219 4358 3283 4298 
C 3034 4272 2957 4082 2957 3969 
C 2957 3837 3053 3759 3174 3759 
C 3302 3759 3494 3870 3494 4119 
C 3494 4393 3226 4544 2944 4544 
C 2669 4544 2400 4334 2272 4078 
C 2157 3848 2093 3611 1946 2752 
L 1517 2752 
C 1395 2752 1331 2752 1331 2637 
C 1331 2566 1370 2566 1498 2566 
L 1907 2566 
C 1792 1976 1530 542 1382 -137 
C 1274 -689 1178 -1152 858 -1152 
C 838 -1152 653 -1152 538 -1031 
C 864 -1005 864 -726 864 -720 
C 864 -593 768 -517 646 -517 
C 518 -517 326 -625 326 -867 
C 326 -1140 608 -1280 858 -1280 
C 1510 -1280 1779 -118 1850 199 
C 1965 688 2278 2376 2310 2566 
L 2854 2566 
z
" transform="scale(0.015625)"/>
      </defs>
      <use xlink:href="#CMMI12-7e" transform="translate(13.568792 26.29016)scale(0.996264)"/>
      <use xlink:href="#CMMI12-66" transform="scale(0.996264)"/>
     </g>
    </g>
   </g>
  </g>
 </g>
 <defs>
  <clipPath id="p9d44f732ad">
   <rect x="57.6" y="0" width="345.6" height="345.6"/>
  </clipPath>
 </defs>
</svg>
