<?xml version="1.0" encoding="utf-8" standalone="no"?>
<!DOCTYPE svg PUBLIC "-//W3C//DTD SVG 1.1//EN"
  "http://www.w3.org/Graphics/SVG/1.1/DTD/svg11.dtd">
<svg xmlns:xlink="http://www.w3.org/1999/xlink" width="432pt" height="288pt" viewBox="0 0 432 288" xmlns="http://www.w3.org/2000/svg" version="1.1">
 <metadata>
  <rdf:RDF xmlns:dc="http://purl.org/dc/elements/1.1/" xmlns:cc="http://creativecommons.org/ns#" xmlns:rdf="http://www.w3.org/1999/02/22-rdf-syntax-ns#">
   <cc:Work>
    <dc:type rdf:resource="http://purl.org/dc/dcmitype/StillImage"/>
    <dc:date>2022-07-12T17:20:11.979705</dc:date>
    <dc:format>image/svg+xml</dc:format>
    <dc:creator>
     <cc:Agent>
      <dc:title>Matplotlib v3.5.1, https://matplotlib.org/</dc:title>
     </cc:Agent>
    </dc:creator>
   </cc:Work>
  </rdf:RDF>
 </metadata>
 <defs>
  <style type="text/css">*{stroke-linejoin: round; stroke-linecap: butt}</style>
 </defs>
 <g id="figure_1">
  <g id="patch_1">
   <path d="M 0 288 
L 432 288 
L 432 0 
L 0 0 
z
" style="fill: #ffffff"/>
  </g>
  <g id="patch_2">
   <path d="M 72 288 
L 360 288 
L 360 0 
L 72 0 
z
" style="fill: #ffffff"/>
  </g>
  <g id="pane3d_1">
   <g id="patch_3">
    <path d="M 289.770243 186.406723 
L 331.688395 224.98039 
L 333.52319 81.475715 
L 290.792183 57.96652 
" style="fill: #f2f2f2; opacity: 0.5; stroke: #f2f2f2; stroke-linejoin: miter"/>
   </g>
  </g>
  <g id="pane3d_2">
   <g id="patch_4">
    <path d="M 289.770243 186.406723 
L 118.170038 192.59537 
L 116.653276 61.732697 
L 290.792183 57.96652 
" style="fill: #e6e6e6; opacity: 0.5; stroke: #e6e6e6; stroke-linejoin: miter"/>
   </g>
  </g>
  <g id="pane3d_3">
   <g id="patch_5">
    <path d="M 289.770243 186.406723 
L 118.170038 192.59537 
L 139.915466 232.76486 
L 331.688395 224.98039 
" style="fill: #ececec; opacity: 0.5; stroke: #ececec; stroke-linejoin: miter"/>
   </g>
  </g>
  <g id="axis3d_1">
   <g id="line2d_1">
    <path d="M 331.688395 224.98039 
L 139.915466 232.76486 
" style="fill: none; stroke: #000000; stroke-width: 0.8; stroke-linecap: square"/>
   </g>
   <g id="text_1">
    <!-- $x$ -->
    <g transform="translate(240.031243 263.00725)scale(0.1 -0.1)">
     <defs>
      <path id="CMMI12-78" d="M 3034 2606 
C 2829 2567 2752 2414 2752 2293 
C 2752 2139 2874 2088 2963 2088 
C 3155 2088 3290 2254 3290 2427 
C 3290 2695 2982 2816 2714 2816 
C 2323 2816 2106 2433 2048 2312 
C 1901 2816 1504 2816 1389 2816 
C 736 2816 390 1980 390 1839 
C 390 1814 416 1782 461 1782 
C 512 1782 525 1820 538 1846 
C 755 2555 1184 2689 1370 2689 
C 1658 2689 1715 2420 1715 2267 
C 1715 2127 1677 1980 1600 1673 
L 1382 798 
C 1286 415 1101 64 762 64 
C 730 64 570 64 435 147 
C 666 192 717 383 717 460 
C 717 588 621 664 499 664 
C 346 664 179 530 179 326 
C 179 57 480 -64 755 -64 
C 1062 -64 1280 179 1414 441 
C 1517 64 1837 -64 2074 -64 
C 2726 -64 3072 773 3072 913 
C 3072 945 3046 971 3008 971 
C 2950 971 2944 939 2925 888 
C 2752 326 2381 64 2093 64 
C 1869 64 1747 230 1747 492 
C 1747 632 1773 734 1875 1156 
L 2099 2024 
C 2195 2408 2413 2689 2707 2689 
C 2720 2689 2899 2689 3034 2606 
z
" transform="scale(0.015625)"/>
     </defs>
     <use xlink:href="#CMMI12-78" transform="scale(0.996264)"/>
    </g>
   </g>
   <g id="Line3DCollection_1">
    <path d="M 319.72727 225.465918 
L 279.043988 186.793558 
L 279.910119 58.201871 
" style="fill: none; stroke: #b0b0b0; stroke-width: 0.8"/>
    <path d="M 286.753095 226.804409 
L 249.490175 187.859397 
L 249.925025 58.850371 
" style="fill: none; stroke: #b0b0b0; stroke-width: 0.8"/>
    <path d="M 253.532708 228.152895 
L 219.739562 188.932333 
L 219.737316 59.503254 
" style="fill: none; stroke: #b0b0b0; stroke-width: 0.8"/>
    <path d="M 220.06334 229.511488 
L 189.790176 190.012438 
L 189.344931 60.160563 
" style="fill: none; stroke: #b0b0b0; stroke-width: 0.8"/>
    <path d="M 186.342184 230.880301 
L 159.64002 191.099783 
L 158.745782 60.822344 
" style="fill: none; stroke: #b0b0b0; stroke-width: 0.8"/>
    <path d="M 152.366385 232.259451 
L 129.287067 192.194442 
L 127.93775 61.488642 
" style="fill: none; stroke: #b0b0b0; stroke-width: 0.8"/>
   </g>
   <g id="xtick_1">
    <g id="line2d_2">
     <path d="M 319.362967 225.119621 
L 320.457987 226.160515 
" style="fill: none; stroke: #000000; stroke-width: 0.8; stroke-linecap: square"/>
    </g>
    <g id="text_2">
     <!-- $\mathdefault{0}$ -->
     <g transform="translate(320.634605 246.658758)scale(0.1 -0.1)">
      <defs>
       <path id="CMR17-30" d="M 2688 2025 
C 2688 2416 2682 3080 2413 3591 
C 2176 4039 1798 4198 1466 4198 
C 1158 4198 768 4058 525 3597 
C 269 3118 243 2524 243 2025 
C 243 1661 250 1106 448 619 
C 723 -39 1216 -128 1466 -128 
C 1760 -128 2208 -7 2470 600 
C 2662 1042 2688 1559 2688 2025 
z
M 1466 -26 
C 1056 -26 813 325 723 812 
C 653 1188 653 1738 653 2096 
C 653 2588 653 2997 736 3387 
C 858 3929 1216 4096 1466 4096 
C 1728 4096 2067 3923 2189 3400 
C 2272 3036 2278 2607 2278 2096 
C 2278 1680 2278 1169 2202 792 
C 2067 95 1690 -26 1466 -26 
z
" transform="scale(0.015625)"/>
      </defs>
      <use xlink:href="#CMR17-30" transform="scale(0.996264)"/>
     </g>
    </g>
   </g>
   <g id="xtick_2">
    <g id="line2d_3">
     <path d="M 286.419288 226.455533 
L 287.42265 227.504189 
" style="fill: none; stroke: #000000; stroke-width: 0.8; stroke-linecap: square"/>
    </g>
    <g id="text_3">
     <!-- $\mathdefault{1}$ -->
     <g transform="translate(287.406539 248.061596)scale(0.1 -0.1)">
      <defs>
       <path id="CMR17-31" d="M 1702 4058 
C 1702 4192 1696 4192 1606 4192 
C 1357 3916 979 3827 621 3827 
C 602 3827 570 3827 563 3808 
C 557 3795 557 3782 557 3648 
C 755 3648 1088 3686 1344 3839 
L 1344 461 
C 1344 236 1331 160 781 160 
L 589 160 
L 589 0 
C 896 0 1216 0 1523 0 
C 1830 0 2150 0 2458 0 
L 2458 160 
L 2266 160 
C 1715 160 1702 230 1702 458 
L 1702 4058 
z
" transform="scale(0.015625)"/>
      </defs>
      <use xlink:href="#CMR17-31" transform="scale(0.996264)"/>
     </g>
    </g>
   </g>
   <g id="xtick_3">
    <g id="line2d_4">
     <path d="M 253.229862 227.801411 
L 254.140165 228.857915 
" style="fill: none; stroke: #000000; stroke-width: 0.8; stroke-linecap: square"/>
    </g>
    <g id="text_4">
     <!-- $\mathdefault{2}$ -->
     <g transform="translate(253.928351 249.474993)scale(0.1 -0.1)">
      <defs>
       <path id="CMR17-32" d="M 2669 989 
L 2554 989 
C 2490 536 2438 459 2413 420 
C 2381 369 1920 369 1830 369 
L 602 369 
C 832 619 1280 1072 1824 1597 
C 2214 1967 2669 2402 2669 3035 
C 2669 3790 2067 4224 1395 4224 
C 691 4224 262 3604 262 3030 
C 262 2780 448 2748 525 2748 
C 589 2748 781 2787 781 3010 
C 781 3207 614 3264 525 3264 
C 486 3264 448 3258 422 3245 
C 544 3790 915 4058 1306 4058 
C 1862 4058 2227 3617 2227 3035 
C 2227 2479 1901 2000 1536 1584 
L 262 146 
L 262 0 
L 2515 0 
L 2669 989 
z
" transform="scale(0.015625)"/>
      </defs>
      <use xlink:href="#CMR17-32" transform="scale(0.996264)"/>
     </g>
    </g>
   </g>
   <g id="xtick_4">
    <g id="line2d_5">
     <path d="M 219.791931 229.157365 
L 220.607748 230.221806 
" style="fill: none; stroke: #000000; stroke-width: 0.8; stroke-linecap: square"/>
    </g>
    <g id="text_5">
     <!-- $\mathdefault{3}$ -->
     <g transform="translate(220.197207 250.89907)scale(0.1 -0.1)">
      <defs>
       <path id="CMR17-33" d="M 1414 2157 
C 1984 2157 2234 1662 2234 1090 
C 2234 320 1824 25 1453 25 
C 1114 25 563 194 390 693 
C 422 680 454 680 486 680 
C 640 680 755 782 755 948 
C 755 1133 614 1216 486 1216 
C 378 1216 211 1165 211 926 
C 211 335 787 -128 1466 -128 
C 2176 -128 2720 430 2720 1085 
C 2720 1707 2208 2157 1600 2227 
C 2086 2328 2554 2756 2554 3329 
C 2554 3820 2048 4179 1472 4179 
C 890 4179 378 3829 378 3329 
C 378 3110 544 3072 627 3072 
C 762 3072 877 3155 877 3321 
C 877 3486 762 3569 627 3569 
C 602 3569 570 3569 544 3557 
C 730 3959 1235 4032 1459 4032 
C 1683 4032 2106 3925 2106 3320 
C 2106 3143 2080 2828 1862 2550 
C 1670 2304 1453 2304 1242 2284 
C 1210 2284 1062 2269 1037 2269 
C 992 2263 966 2257 966 2208 
C 966 2163 973 2157 1101 2157 
L 1414 2157 
z
" transform="scale(0.015625)"/>
      </defs>
      <use xlink:href="#CMR17-33" transform="scale(0.996264)"/>
     </g>
    </g>
   </g>
   <g id="xtick_5">
    <g id="line2d_6">
     <path d="M 186.102693 230.523511 
L 186.822573 231.595979 
" style="fill: none; stroke: #000000; stroke-width: 0.8; stroke-linecap: square"/>
    </g>
    <g id="text_6">
     <!-- $\mathdefault{4}$ -->
     <g transform="translate(186.210228 252.333948)scale(0.1 -0.1)">
      <defs>
       <path id="CMR17-34" d="M 2150 4122 
C 2150 4256 2144 4256 2029 4256 
L 128 1254 
L 128 1088 
L 1779 1088 
L 1779 457 
C 1779 224 1766 160 1318 160 
L 1197 160 
L 1197 0 
C 1402 0 1747 0 1965 0 
C 2182 0 2528 0 2733 0 
L 2733 160 
L 2611 160 
C 2163 160 2150 224 2150 457 
L 2150 1088 
L 2803 1088 
L 2803 1254 
L 2150 1254 
L 2150 4122 
z
M 1798 3703 
L 1798 1254 
L 256 1254 
L 1798 3703 
z
" transform="scale(0.015625)"/>
      </defs>
      <use xlink:href="#CMR17-34" transform="scale(0.996264)"/>
     </g>
    </g>
   </g>
   <g id="xtick_6">
    <g id="line2d_7">
     <path d="M 152.159303 231.899962 
L 152.781771 232.980548 
" style="fill: none; stroke: #000000; stroke-width: 0.8; stroke-linecap: square"/>
    </g>
    <g id="text_7">
     <!-- $\mathdefault{5}$ -->
     <g transform="translate(151.964494 253.779751)scale(0.1 -0.1)">
      <defs>
       <path id="CMR17-35" d="M 730 3692 
C 794 3666 1056 3584 1325 3584 
C 1920 3584 2246 3911 2432 4100 
C 2432 4157 2432 4192 2394 4192 
C 2387 4192 2374 4192 2323 4163 
C 2099 4058 1837 3973 1517 3973 
C 1325 3973 1037 3999 723 4139 
C 653 4171 640 4171 634 4171 
C 602 4171 595 4164 595 4037 
L 595 2203 
C 595 2089 595 2057 659 2057 
C 691 2057 704 2070 736 2114 
C 941 2401 1222 2522 1542 2522 
C 1766 2522 2246 2382 2246 1289 
C 2246 1085 2246 715 2054 421 
C 1894 159 1645 25 1370 25 
C 947 25 518 320 403 814 
C 429 807 480 795 506 795 
C 589 795 749 840 749 1038 
C 749 1210 627 1280 506 1280 
C 358 1280 262 1190 262 1011 
C 262 454 704 -128 1382 -128 
C 2042 -128 2669 440 2669 1264 
C 2669 2030 2170 2624 1549 2624 
C 1222 2624 947 2503 730 2274 
L 730 3692 
z
" transform="scale(0.015625)"/>
      </defs>
      <use xlink:href="#CMR17-35" transform="scale(0.996264)"/>
     </g>
    </g>
   </g>
  </g>
  <g id="axis3d_2">
   <g id="line2d_8">
    <path d="M 118.170038 192.59537 
L 139.915466 232.76486 
" style="fill: none; stroke: #000000; stroke-width: 0.8; stroke-linecap: square"/>
   </g>
   <g id="text_8">
    <!-- $y$ -->
    <g transform="translate(95.37953 237.888999)scale(0.1 -0.1)">
     <defs>
      <path id="CMMI12-79" d="M 1683 -700 
C 1510 -939 1261 -1152 947 -1152 
C 870 -1152 563 -1152 467 -889 
C 486 -895 518 -895 531 -895 
C 723 -895 851 -729 851 -582 
C 851 -435 730 -384 634 -384 
C 531 -384 307 -458 307 -759 
C 307 -1071 582 -1286 947 -1286 
C 1587 -1286 2234 -700 2413 6 
L 3040 2485 
C 3046 2517 3059 2556 3059 2594 
C 3059 2689 2982 2753 2886 2753 
C 2829 2753 2694 2727 2643 2535 
L 2170 658 
C 2138 543 2138 530 2086 460 
C 1958 281 1747 64 1440 64 
C 1082 64 1050 415 1050 588 
C 1050 952 1222 1443 1395 1903 
C 1466 2088 1504 2178 1504 2305 
C 1504 2574 1312 2816 998 2816 
C 410 2816 173 1890 173 1839 
C 173 1814 198 1782 243 1782 
C 301 1782 307 1807 333 1897 
C 486 2433 730 2689 979 2689 
C 1037 2689 1146 2689 1146 2478 
C 1146 2312 1075 2127 979 1884 
C 666 1047 666 837 666 683 
C 666 77 1101 -64 1421 -64 
C 1606 -64 1837 -6 2061 230 
L 2067 224 
C 1971 -147 1907 -392 1683 -700 
z
" transform="scale(0.015625)"/>
     </defs>
     <use xlink:href="#CMMI12-79" transform="scale(0.996264)"/>
    </g>
   </g>
   <g id="Line3DCollection_2">
    <path d="M 293.232195 59.308934 
L 292.167816 188.613003 
L 119.411081 194.8879 
" style="fill: none; stroke: #b0b0b0; stroke-width: 0.8"/>
    <path d="M 298.939326 62.44881 
L 297.773798 193.771705 
L 122.31416 200.250647 
" style="fill: none; stroke: #b0b0b0; stroke-width: 0.8"/>
    <path d="M 304.834531 65.692158 
L 303.561753 199.097862 
L 125.313367 205.790965 
" style="fill: none; stroke: #b0b0b0; stroke-width: 0.8"/>
    <path d="M 310.927264 69.04418 
L 309.540688 204.599761 
L 128.413555 211.517823 
" style="fill: none; stroke: #b0b0b0; stroke-width: 0.8"/>
    <path d="M 317.227621 72.510429 
L 315.720213 210.286247 
L 131.619912 217.440803 
" style="fill: none; stroke: #b0b0b0; stroke-width: 0.8"/>
    <path d="M 323.746399 76.096846 
L 322.110597 216.166766 
L 134.937987 223.570155 
" style="fill: none; stroke: #b0b0b0; stroke-width: 0.8"/>
    <path d="M 330.495157 79.809791 
L 328.722817 222.251424 
L 138.373722 229.916855 
" style="fill: none; stroke: #b0b0b0; stroke-width: 0.8"/>
   </g>
   <g id="xtick_7">
    <g id="line2d_9">
     <path d="M 120.819765 194.836734 
L 116.592399 194.990281 
" style="fill: none; stroke: #000000; stroke-width: 0.8; stroke-linecap: square"/>
    </g>
    <g id="text_9">
     <!-- $\mathdefault{−3}$ -->
     <g transform="translate(99.653274 212.252641)scale(0.1 -0.1)">
      <defs>
       <path id="CMSY10-0" d="M 4218 1472 
C 4326 1472 4442 1472 4442 1600 
C 4442 1728 4326 1728 4218 1728 
L 755 1728 
C 646 1728 531 1728 531 1600 
C 531 1472 646 1472 755 1472 
L 4218 1472 
z
" transform="scale(0.015625)"/>
      </defs>
      <use xlink:href="#CMSY10-0" transform="scale(0.996264)"/>
      <use xlink:href="#CMR17-33" transform="translate(77.487468 0)scale(0.996264)"/>
     </g>
    </g>
   </g>
   <g id="xtick_8">
    <g id="line2d_10">
     <path d="M 123.745324 200.1978 
L 119.450476 200.35639 
" style="fill: none; stroke: #000000; stroke-width: 0.8; stroke-linecap: square"/>
    </g>
    <g id="text_10">
     <!-- $\mathdefault{−2}$ -->
     <g transform="translate(102.339203 217.787517)scale(0.1 -0.1)">
      <use xlink:href="#CMSY10-0" transform="scale(0.996264)"/>
      <use xlink:href="#CMR17-32" transform="translate(77.487468 0)scale(0.996264)"/>
     </g>
    </g>
   </g>
   <g id="xtick_9">
    <g id="line2d_11">
     <path d="M 126.76774 205.736354 
L 122.403219 205.900239 
" style="fill: none; stroke: #000000; stroke-width: 0.8; stroke-linecap: square"/>
    </g>
    <g id="text_11">
     <!-- $\mathdefault{−1}$ -->
     <g transform="translate(105.114101 223.505731)scale(0.1 -0.1)">
      <use xlink:href="#CMSY10-0" transform="scale(0.996264)"/>
      <use xlink:href="#CMR17-31" transform="translate(77.487468 0)scale(0.996264)"/>
     </g>
    </g>
   </g>
   <g id="xtick_10">
    <g id="line2d_12">
     <path d="M 129.891902 211.461358 
L 125.455412 211.630808 
" style="fill: none; stroke: #000000; stroke-width: 0.8; stroke-linecap: square"/>
    </g>
    <g id="text_12">
     <!-- $\mathdefault{0}$ -->
     <g transform="translate(111.856836 229.416546)scale(0.1 -0.1)">
      <use xlink:href="#CMR17-30" transform="scale(0.996264)"/>
     </g>
    </g>
   </g>
   <g id="xtick_11">
    <g id="line2d_13">
     <path d="M 133.123036 217.382388 
L 128.612166 217.557691 
" style="fill: none; stroke: #000000; stroke-width: 0.8; stroke-linecap: square"/>
    </g>
    <g id="text_13">
     <!-- $\mathdefault{1}$ -->
     <g transform="translate(114.823466 235.52986)scale(0.1 -0.1)">
      <use xlink:href="#CMR17-31" transform="scale(0.996264)"/>
     </g>
    </g>
   </g>
   <g id="xtick_12">
    <g id="line2d_14">
     <path d="M 136.466733 223.509687 
L 131.878946 223.691151 
" style="fill: none; stroke: #000000; stroke-width: 0.8; stroke-linecap: square"/>
    </g>
    <g id="text_14">
     <!-- $\mathdefault{2}$ -->
     <g transform="translate(117.893501 241.85626)scale(0.1 -0.1)">
      <use xlink:href="#CMR17-32" transform="scale(0.996264)"/>
     </g>
    </g>
   </g>
   <g id="xtick_13">
    <g id="line2d_15">
     <path d="M 139.928978 229.854225 
L 135.261607 230.042181 
" style="fill: none; stroke: #000000; stroke-width: 0.8; stroke-linecap: square"/>
    </g>
    <g id="text_15">
     <!-- $\mathdefault{3}$ -->
     <g transform="translate(121.072443 248.407084)scale(0.1 -0.1)">
      <use xlink:href="#CMR17-33" transform="scale(0.996264)"/>
     </g>
    </g>
   </g>
  </g>
  <g id="axis3d_3">
   <g id="line2d_16">
    <path d="M 118.170038 192.59537 
L 116.653276 61.732697 
" style="fill: none; stroke: #000000; stroke-width: 0.8; stroke-linecap: square"/>
   </g>
   <g id="text_16">
    <!-- $z$ -->
    <g transform="translate(82.979006 126.233233)scale(0.1 -0.1)">
     <defs>
      <path id="CMMI12-7a" d="M 813 486 
C 1088 803 1312 1004 1632 1296 
C 2016 1632 2182 1793 2272 1891 
C 2720 2338 2944 2713 2944 2764 
C 2944 2816 2893 2816 2880 2816 
C 2835 2816 2822 2793 2790 2750 
C 2630 2494 2477 2367 2310 2367 
C 2176 2367 2106 2421 1984 2565 
C 1850 2715 1741 2816 1555 2816 
C 1088 2816 806 2257 806 2128 
C 806 2108 813 2068 870 2068 
C 922 2068 928 2091 947 2133 
C 1056 2372 1363 2414 1485 2414 
C 1619 2414 1747 2376 1882 2327 
C 2125 2240 2227 2240 2291 2240 
C 2336 2240 2362 2240 2394 2246 
C 2182 1994 1837 1683 1549 1418 
L 902 816 
C 512 415 275 33 275 -12 
C 275 -51 307 -64 346 -64 
C 384 -64 390 -57 435 14 
C 538 163 742 384 979 384 
C 1114 384 1178 342 1306 193 
C 1427 61 1536 -64 1741 -64 
C 2368 -64 2726 732 2726 876 
C 2726 903 2720 942 2656 942 
C 2605 942 2598 917 2579 855 
C 2438 488 2061 338 1811 338 
C 1677 338 1549 376 1414 425 
C 1158 512 1088 512 1005 512 
C 941 512 870 512 813 486 
z
" transform="scale(0.015625)"/>
     </defs>
     <use xlink:href="#CMMI12-7a" transform="scale(0.996264)"/>
    </g>
   </g>
   <g id="Line3DCollection_3">
    <path d="M 117.96038 174.506555 
L 289.911538 168.648442 
L 331.941691 205.169353 
" style="fill: none; stroke: #b0b0b0; stroke-width: 0.8"/>
    <path d="M 117.71971 153.742104 
L 290.073718 148.265124 
L 332.232582 182.417959 
" style="fill: none; stroke: #b0b0b0; stroke-width: 0.8"/>
    <path d="M 117.477901 132.879366 
L 290.236652 127.787163 
L 332.524986 159.548128 
" style="fill: none; stroke: #b0b0b0; stroke-width: 0.8"/>
    <path d="M 117.234944 111.917644 
L 290.400344 107.213897 
L 332.818917 136.558934 
" style="fill: none; stroke: #b0b0b0; stroke-width: 0.8"/>
    <path d="M 116.990832 90.856229 
L 290.5648 86.544661 
L 333.114386 113.449439 
" style="fill: none; stroke: #b0b0b0; stroke-width: 0.8"/>
    <path d="M 116.745556 69.694411 
L 290.730024 65.778779 
L 333.411405 90.218697 
" style="fill: none; stroke: #b0b0b0; stroke-width: 0.8"/>
   </g>
   <g id="xtick_14">
    <g id="line2d_17">
     <path d="M 119.362365 174.458792 
L 115.15511 174.602127 
" style="fill: none; stroke: #000000; stroke-width: 0.8; stroke-linecap: square"/>
    </g>
    <g id="text_17">
     <!-- $\mathdefault{0}$ -->
     <g transform="translate(100.648508 179.301225)scale(0.1 -0.1)">
      <use xlink:href="#CMR17-30" transform="scale(0.996264)"/>
     </g>
    </g>
   </g>
   <g id="xtick_15">
    <g id="line2d_18">
     <path d="M 119.125042 153.697446 
L 114.907739 153.831461 
" style="fill: none; stroke: #000000; stroke-width: 0.8; stroke-linecap: square"/>
    </g>
    <g id="text_18">
     <!-- $\mathdefault{2}$ -->
     <g transform="translate(100.374744 158.674895)scale(0.1 -0.1)">
      <use xlink:href="#CMR17-32" transform="scale(0.996264)"/>
     </g>
    </g>
   </g>
   <g id="xtick_16">
    <g id="line2d_19">
     <path d="M 118.886595 132.837844 
L 114.659197 132.96245 
" style="fill: none; stroke: #000000; stroke-width: 0.8; stroke-linecap: square"/>
    </g>
    <g id="text_19">
     <!-- $\mathdefault{4}$ -->
     <g transform="translate(100.099692 137.951607)scale(0.1 -0.1)">
      <use xlink:href="#CMR17-34" transform="scale(0.996264)"/>
     </g>
    </g>
   </g>
   <g id="xtick_17">
    <g id="line2d_20">
     <path d="M 118.647018 111.879287 
L 114.409476 111.994393 
" style="fill: none; stroke: #000000; stroke-width: 0.8; stroke-linecap: square"/>
    </g>
    <g id="text_20">
     <!-- $\mathdefault{6}$ -->
     <g transform="translate(99.823344 117.130677)scale(0.1 -0.1)">
      <defs>
       <path id="CMR17-36" d="M 678 2176 
C 678 3690 1395 4032 1811 4032 
C 1946 4032 2272 4009 2400 3776 
C 2298 3776 2106 3776 2106 3553 
C 2106 3381 2246 3323 2336 3323 
C 2394 3323 2566 3348 2566 3560 
C 2566 3954 2246 4179 1805 4179 
C 1043 4179 243 3390 243 1984 
C 243 253 966 -128 1478 -128 
C 2099 -128 2688 427 2688 1283 
C 2688 2081 2170 2662 1517 2662 
C 1126 2662 838 2407 678 1960 
L 678 2176 
z
M 1478 25 
C 691 25 691 1200 691 1436 
C 691 1896 909 2560 1504 2560 
C 1613 2560 1926 2560 2138 2120 
C 2253 1870 2253 1609 2253 1289 
C 2253 944 2253 690 2118 434 
C 1978 171 1773 25 1478 25 
z
" transform="scale(0.015625)"/>
      </defs>
      <use xlink:href="#CMR17-36" transform="scale(0.996264)"/>
     </g>
    </g>
   </g>
   <g id="xtick_18">
    <g id="line2d_21">
     <path d="M 118.406301 90.821069 
L 114.158567 90.926583 
" style="fill: none; stroke: #000000; stroke-width: 0.8; stroke-linecap: square"/>
    </g>
    <g id="text_21">
     <!-- $\mathdefault{8}$ -->
     <g transform="translate(99.545692 96.211411)scale(0.1 -0.1)">
      <defs>
       <path id="CMR17-38" d="M 1741 2264 
C 2144 2467 2554 2773 2554 3263 
C 2554 3841 1990 4179 1472 4179 
C 890 4179 378 3759 378 3180 
C 378 3021 416 2747 666 2505 
C 730 2442 998 2251 1171 2130 
C 883 1983 211 1634 211 934 
C 211 279 838 -128 1459 -128 
C 2144 -128 2720 362 2720 1010 
C 2720 1590 2330 1857 2074 2029 
L 1741 2264 
z
M 902 2822 
C 851 2854 595 3051 595 3351 
C 595 3739 998 4032 1459 4032 
C 1965 4032 2336 3676 2336 3262 
C 2336 2669 1670 2331 1638 2331 
C 1632 2331 1626 2331 1574 2370 
L 902 2822 
z
M 2080 1519 
C 2176 1449 2483 1240 2483 851 
C 2483 381 2010 25 1472 25 
C 890 25 448 438 448 940 
C 448 1443 838 1862 1280 2060 
L 2080 1519 
z
" transform="scale(0.015625)"/>
      </defs>
      <use xlink:href="#CMR17-38" transform="scale(0.996264)"/>
     </g>
    </g>
   </g>
   <g id="xtick_19">
    <g id="line2d_22">
     <path d="M 118.164437 69.662478 
L 113.906461 69.758306 
" style="fill: none; stroke: #000000; stroke-width: 0.8; stroke-linecap: square"/>
    </g>
    <g id="text_22">
     <!-- $\mathdefault{10}$ -->
     <g transform="translate(96.776057 75.193113)scale(0.1 -0.1)">
      <use xlink:href="#CMR17-31" transform="scale(0.996264)"/>
      <use xlink:href="#CMR17-30" transform="translate(45.690477 0)scale(0.996264)"/>
     </g>
    </g>
   </g>
  </g>
  <g id="axes_1">
   <g id="line2d_23">
    <path d="M 298.398161 186.28009 
L 284.67896 147.329062 
" clip-path="url(#p61867e7038)" style="fill: none; stroke: #ff0000; stroke-width: 1.5; stroke-linecap: square"/>
   </g>
   <g id="line2d_24">
    <path d="M 298.398161 186.28009 
L 226.230178 136.023002 
" clip-path="url(#p61867e7038)" style="fill: none; stroke: #00ff00; stroke-width: 1.5; stroke-linecap: square"/>
   </g>
   <g id="line2d_25">
    <path d="M 298.398161 186.28009 
L 208.366149 94.833823 
" clip-path="url(#p61867e7038)" style="fill: none; stroke: #0016ff; stroke-width: 1.5; stroke-linecap: square"/>
   </g>
   <g id="line2d_26">
    <path d="M 298.398161 186.28009 
L 130.100235 144.933883 
" clip-path="url(#p61867e7038)" style="fill: none; stroke: #f400ff; stroke-width: 1.5; stroke-linecap: square"/>
   </g>
   <g id="Poly3DCollection_1">
    <path d="M 286.830618 191.584948 
L 271.831753 177.833131 
L 274.531135 176.418991 
L 289.648651 190.292602 
z
" clip-path="url(#p61867e7038)" style="fill: #0000f5; fill-opacity: 0.15"/>
    <path d="M 271.831753 177.833131 
L 256.732731 163.989485 
L 259.311806 162.451944 
L 274.531135 176.418991 
z
" clip-path="url(#p61867e7038)" style="fill: #0000f5; fill-opacity: 0.15"/>
    <path d="M 256.732731 163.989485 
L 241.532546 150.053087 
L 243.989631 148.390513 
L 259.311806 162.451944 
z
" clip-path="url(#p61867e7038)" style="fill: #0000f5; fill-opacity: 0.15"/>
    <path d="M 289.648651 190.292602 
L 274.531135 176.418991 
L 277.277027 174.980486 
L 292.515074 188.978065 
z
" clip-path="url(#p61867e7038)" style="fill: #0000f5; fill-opacity: 0.15"/>
    <path d="M 241.532546 150.053087 
L 226.230178 136.023002 
L 228.563563 134.233739 
L 243.989631 148.390513 
z
" clip-path="url(#p61867e7038)" style="fill: #0000f5; fill-opacity: 0.15"/>
    <path d="M 274.531135 176.418991 
L 259.311806 162.451944 
L 261.935468 160.887822 
L 277.277027 174.980486 
z
" clip-path="url(#p61867e7038)" style="fill: #0000f5; fill-opacity: 0.15"/>
    <path d="M 226.230178 136.023002 
L 210.824594 121.898281 
L 213.032544 119.980648 
L 228.563563 134.233739 
z
" clip-path="url(#p61867e7038)" style="fill: #0000f5; fill-opacity: 0.15"/>
    <path d="M 259.311806 162.451944 
L 243.989631 148.390513 
L 246.489338 146.699099 
L 261.935468 160.887822 
z
" clip-path="url(#p61867e7038)" style="fill: #0000f5; fill-opacity: 0.15"/>
    <path d="M 210.824594 121.898281 
L 195.314744 107.677964 
L 197.395497 105.630254 
L 213.032544 119.980648 
z
" clip-path="url(#p61867e7038)" style="fill: #0000f5; fill-opacity: 0.15"/>
    <path d="M 292.515074 188.978065 
L 277.277027 174.980486 
L 280.070641 173.516981 
L 295.431143 187.640759 
z
" clip-path="url(#p61867e7038)" style="fill: #0000f5; fill-opacity: 0.15"/>
    <path d="M 243.989631 148.390513 
L 228.563563 134.233739 
L 230.937564 132.413332 
L 246.489338 146.699099 
z
" clip-path="url(#p61867e7038)" style="fill: #0000f5; fill-opacity: 0.15"/>
    <path d="M 277.277027 174.980486 
L 261.935468 160.887822 
L 264.604884 159.296423 
L 280.070641 173.516981 
z
" clip-path="url(#p61867e7038)" style="fill: #0000f5; fill-opacity: 0.15"/>
    <path d="M 228.563563 134.233739 
L 213.032544 119.980648 
L 215.279058 118.029522 
L 230.937564 132.413332 
z
" clip-path="url(#p61867e7038)" style="fill: #0000f5; fill-opacity: 0.15"/>
    <path d="M 261.935468 160.887822 
L 246.489338 146.699099 
L 249.032787 144.978086 
L 264.604884 159.296423 
z
" clip-path="url(#p61867e7038)" style="fill: #0000f5; fill-opacity: 0.15"/>
    <path d="M 213.032544 119.980648 
L 197.395497 105.630254 
L 199.512718 103.546656 
L 215.279058 118.029522 
z
" clip-path="url(#p61867e7038)" style="fill: #0000f5; fill-opacity: 0.15"/>
    <path d="M 295.431143 187.640759 
L 280.070641 173.516981 
L 282.913231 172.027819 
L 298.398161 186.28009 
z
" clip-path="url(#p61867e7038)" style="fill: #0000f5; fill-opacity: 0.15"/>
    <path d="M 246.489338 146.699099 
L 230.937564 132.413332 
L 233.353249 130.56096 
L 249.032787 144.978086 
z
" clip-path="url(#p61867e7038)" style="fill: #0000f5; fill-opacity: 0.15"/>
    <path d="M 280.070641 173.516981 
L 264.604884 159.296423 
L 267.32126 157.677028 
L 282.913231 172.027819 
z
" clip-path="url(#p61867e7038)" style="fill: #0000f5; fill-opacity: 0.15"/>
    <path d="M 230.937564 132.413332 
L 215.279058 118.029522 
L 217.565156 116.044017 
L 233.353249 130.56096 
z
" clip-path="url(#p61867e7038)" style="fill: #0000f5; fill-opacity: 0.15"/>
    <path d="M 264.604884 159.296423 
L 249.032787 144.978086 
L 251.621136 143.226693 
L 267.32126 157.677028 
z
" clip-path="url(#p61867e7038)" style="fill: #0000f5; fill-opacity: 0.15"/>
    <path d="M 215.279058 118.029522 
L 199.512718 103.546656 
L 201.667374 101.426217 
L 217.565156 116.044017 
z
" clip-path="url(#p61867e7038)" style="fill: #0000f5; fill-opacity: 0.15"/>
    <path d="M 298.398161 186.28009 
L 282.913231 172.027819 
L 285.806096 170.512318 
L 301.417473 184.895437 
z
" clip-path="url(#p61867e7038)" style="fill: #0000f5; fill-opacity: 0.15"/>
    <path d="M 249.032787 144.978086 
L 233.353249 130.56096 
L 235.811728 128.675773 
L 251.621136 143.226693 
z
" clip-path="url(#p61867e7038)" style="fill: #0000f5; fill-opacity: 0.15"/>
    <path d="M 282.913231 172.027819 
L 267.32126 157.677028 
L 270.085848 156.028892 
L 285.806096 170.512318 
z
" clip-path="url(#p61867e7038)" style="fill: #0000f5; fill-opacity: 0.15"/>
    <path d="M 233.353249 130.56096 
L 217.565156 116.044017 
L 219.891892 114.023216 
L 235.811728 128.675773 
z
" clip-path="url(#p61867e7038)" style="fill: #0000f5; fill-opacity: 0.15"/>
    <path d="M 267.32126 157.677028 
L 251.621136 143.226693 
L 254.255584 141.444106 
L 270.085848 156.028892 
z
" clip-path="url(#p61867e7038)" style="fill: #0000f5; fill-opacity: 0.15"/>
    <path d="M 217.565156 116.044017 
L 201.667374 101.426217 
L 203.860466 99.267953 
L 219.891892 114.023216 
z
" clip-path="url(#p61867e7038)" style="fill: #0000f5; fill-opacity: 0.15"/>
    <path d="M 301.417473 184.895437 
L 285.806096 170.512318 
L 288.750584 168.969773 
L 304.490475 183.486163 
z
" clip-path="url(#p61867e7038)" style="fill: #0000f5; fill-opacity: 0.15"/>
    <path d="M 251.621136 143.226693 
L 235.811728 128.675773 
L 238.314147 126.756894 
L 254.255584 141.444106 
z
" clip-path="url(#p61867e7038)" style="fill: #0000f5; fill-opacity: 0.15"/>
    <path d="M 285.806096 170.512318 
L 270.085848 156.028892 
L 272.899942 154.351242 
L 288.750584 168.969773 
z
" clip-path="url(#p61867e7038)" style="fill: #0000f5; fill-opacity: 0.15"/>
    <path d="M 235.811728 128.675773 
L 219.891892 114.023216 
L 222.26036 111.966171 
L 238.314147 126.756894 
z
" clip-path="url(#p61867e7038)" style="fill: #0000f5; fill-opacity: 0.15"/>
    <path d="M 270.085848 156.028892 
L 254.255584 141.444106 
L 256.937375 139.629486 
L 272.899942 154.351242 
z
" clip-path="url(#p61867e7038)" style="fill: #0000f5; fill-opacity: 0.15"/>
    <path d="M 219.891892 114.023216 
L 203.860466 99.267953 
L 206.093033 97.070841 
L 222.26036 111.966171 
z
" clip-path="url(#p61867e7038)" style="fill: #0000f5; fill-opacity: 0.15"/>
    <path d="M 304.490475 183.486163 
L 288.750584 168.969773 
L 291.748087 167.399456 
L 307.618611 182.051604 
z
" clip-path="url(#p61867e7038)" style="fill: #0000f5; fill-opacity: 0.15"/>
    <path d="M 254.255584 141.444106 
L 238.314147 126.756894 
L 240.861695 124.803408 
L 256.937375 139.629486 
z
" clip-path="url(#p61867e7038)" style="fill: #0000f5; fill-opacity: 0.15"/>
    <path d="M 288.750584 168.969773 
L 272.899942 154.351242 
L 275.764883 152.643278 
L 291.748087 167.399456 
z
" clip-path="url(#p61867e7038)" style="fill: #0000f5; fill-opacity: 0.15"/>
    <path d="M 238.314147 126.756894 
L 222.26036 111.966171 
L 224.671694 109.871897 
L 240.861695 124.803408 
z
" clip-path="url(#p61867e7038)" style="fill: #0000f5; fill-opacity: 0.15"/>
    <path d="M 272.899942 154.351242 
L 256.937375 139.629486 
L 259.667796 137.78196 
L 275.764883 152.643278 
z
" clip-path="url(#p61867e7038)" style="fill: #0000f5; fill-opacity: 0.15"/>
    <path d="M 222.26036 111.966171 
L 206.093033 97.070841 
L 208.366149 94.833823 
L 224.671694 109.871897 
z
" clip-path="url(#p61867e7038)" style="fill: #0000f5; fill-opacity: 0.15"/>
    <path d="M 307.618611 182.051604 
L 291.748087 167.399456 
L 294.80005 165.800607 
L 310.803379 180.591074 
z
" clip-path="url(#p61867e7038)" style="fill: #0000f5; fill-opacity: 0.15"/>
    <path d="M 256.937375 139.629486 
L 240.861695 124.803408 
L 243.455603 122.814373 
L 259.667796 137.78196 
z
" clip-path="url(#p61867e7038)" style="fill: #0000f5; fill-opacity: 0.15"/>
    <path d="M 291.748087 167.399456 
L 275.764883 152.643278 
L 278.682063 150.904172 
L 294.80005 165.800607 
z
" clip-path="url(#p61867e7038)" style="fill: #0000f5; fill-opacity: 0.15"/>
    <path d="M 240.861695 124.803408 
L 224.671694 109.871897 
L 227.127067 107.739374 
L 243.455603 122.814373 
z
" clip-path="url(#p61867e7038)" style="fill: #0000f5; fill-opacity: 0.15"/>
    <path d="M 275.764883 152.643278 
L 259.667796 137.78196 
L 262.448181 135.900626 
L 278.682063 150.904172 
z
" clip-path="url(#p61867e7038)" style="fill: #0000f5; fill-opacity: 0.15"/>
    <path d="M 224.671694 109.871897 
L 208.366149 94.833823 
L 210.68093 92.555802 
L 227.127067 107.739374 
z
" clip-path="url(#p61867e7038)" style="fill: #0000f5; fill-opacity: 0.15"/>
    <path d="M 310.803379 180.591074 
L 294.80005 165.800607 
L 297.907972 164.172444 
L 314.046331 179.103861 
z
" clip-path="url(#p61867e7038)" style="fill: #0000f5; fill-opacity: 0.15"/>
    <path d="M 259.667796 137.78196 
L 243.455603 122.814373 
L 246.09715 120.788809 
L 262.448181 135.900626 
z
" clip-path="url(#p61867e7038)" style="fill: #0000f5; fill-opacity: 0.15"/>
    <path d="M 294.80005 165.800607 
L 278.682063 150.904172 
L 281.652923 149.133064 
L 297.907972 164.172444 
z
" clip-path="url(#p61867e7038)" style="fill: #0000f5; fill-opacity: 0.15"/>
    <path d="M 243.455603 122.814373 
L 227.127067 107.739374 
L 229.627697 105.567545 
L 246.09715 120.788809 
z
" clip-path="url(#p61867e7038)" style="fill: #0000f5; fill-opacity: 0.15"/>
    <path d="M 278.682063 150.904172 
L 262.448181 135.900626 
L 265.279915 133.984547 
L 281.652923 149.133064 
z
" clip-path="url(#p61867e7038)" style="fill: #0000f5; fill-opacity: 0.15"/>
    <path d="M 227.127067 107.739374 
L 210.68093 92.555802 
L 213.038531 90.235641 
L 229.627697 105.567545 
z
" clip-path="url(#p61867e7038)" style="fill: #0000f5; fill-opacity: 0.15"/>
    <path d="M 314.046331 179.103861 
L 297.907972 164.172444 
L 301.073405 162.514151 
L 317.349076 177.589227 
z
" clip-path="url(#p61867e7038)" style="fill: #0000f5; fill-opacity: 0.15"/>
    <path d="M 262.448181 135.900626 
L 246.09715 120.788809 
L 248.787659 118.7257 
L 265.279915 133.984547 
z
" clip-path="url(#p61867e7038)" style="fill: #0000f5; fill-opacity: 0.15"/>
    <path d="M 297.907972 164.172444 
L 281.652923 149.133064 
L 284.67896 147.329062 
L 301.073405 162.514151 
z
" clip-path="url(#p61867e7038)" style="fill: #0000f5; fill-opacity: 0.15"/>
    <path d="M 246.09715 120.788809 
L 229.627697 105.567545 
L 232.174847 103.355313 
L 248.787659 118.7257 
z
" clip-path="url(#p61867e7038)" style="fill: #0000f5; fill-opacity: 0.15"/>
    <path d="M 281.652923 149.133064 
L 265.279915 133.984547 
L 268.164434 132.032752 
L 284.67896 147.329062 
z
" clip-path="url(#p61867e7038)" style="fill: #0000f5; fill-opacity: 0.15"/>
    <path d="M 229.627697 105.567545 
L 213.038531 90.235641 
L 215.440152 87.872159 
L 232.174847 103.355313 
z
" clip-path="url(#p61867e7038)" style="fill: #0000f5; fill-opacity: 0.15"/>
    <path d="M 265.279915 133.984547 
L 248.787659 118.7257 
L 251.528504 116.623992 
L 268.164434 132.032752 
z
" clip-path="url(#p61867e7038)" style="fill: #0000f5; fill-opacity: 0.15"/>
    <path d="M 248.787659 118.7257 
L 232.174847 103.355313 
L 234.769827 101.10154 
L 251.528504 116.623992 
z
" clip-path="url(#p61867e7038)" style="fill: #0000f5; fill-opacity: 0.15"/>
    <path d="M 232.174847 103.355313 
L 215.440152 87.872159 
L 217.887038 85.464131 
L 234.769827 101.10154 
z
" clip-path="url(#p61867e7038)" style="fill: #0000f5; fill-opacity: 0.15"/>
   </g>
   <g id="legend_1">
    <g id="patch_6">
     <path d="M 305.718747 109.526127 
L 351.6 109.526127 
Q 354 109.526127 354 107.126127 
L 354 37.2 
Q 354 34.8 351.6 34.8 
L 305.718747 34.8 
Q 303.318747 34.8 303.318747 37.2 
L 303.318747 107.126127 
Q 303.318747 109.526127 305.718747 109.526127 
z
" style="fill: #ffffff; opacity: 0.8; stroke: #cccccc; stroke-linejoin: miter"/>
    </g>
    <g id="line2d_27">
     <path d="M 308.118747 43.8 
L 320.118747 43.8 
L 332.118747 43.8 
" style="fill: none; stroke: #ff0000; stroke-width: 1.5; stroke-linecap: square"/>
    </g>
    <g id="text_23">
     <!-- $\vec{a}$ -->
     <g transform="translate(341.718747 48)scale(0.12 -0.12)">
      <defs>
       <path id="CMMI12-7e" d="M 3424 3835 
C 3347 3764 3110 3540 3110 3451 
C 3110 3387 3168 3329 3232 3329 
C 3290 3329 3315 3368 3360 3432 
C 3514 3624 3686 3745 3834 3828 
C 3898 3867 3942 3886 3942 3956 
C 3942 4014 3891 4046 3853 4078 
C 3674 4200 3629 4372 3610 4449 
C 3590 4500 3571 4577 3482 4577 
C 3443 4577 3366 4552 3366 4456 
C 3366 4398 3405 4244 3526 4072 
L 1376 4072 
C 1267 4072 1158 4072 1158 3950 
C 1158 3835 1274 3835 1376 3835 
L 3424 3835 
z
" transform="scale(0.015625)"/>
       <path id="CMMI12-61" d="M 1926 760 
C 1894 651 1894 639 1805 517 
C 1664 338 1382 64 1082 64 
C 819 64 672 300 672 677 
C 672 1028 870 1743 992 2012 
C 1210 2459 1510 2689 1760 2689 
C 2182 2689 2266 2165 2266 2114 
C 2266 2108 2246 2024 2240 2012 
L 1926 760 
z
M 2336 2395 
C 2266 2561 2093 2816 1760 2816 
C 1037 2816 256 1884 256 939 
C 256 307 627 -64 1062 -64 
C 1414 -64 1715 211 1894 422 
C 1958 45 2259 -64 2451 -64 
C 2643 -64 2797 51 2912 281 
C 3014 498 3104 888 3104 913 
C 3104 945 3078 971 3040 971 
C 2982 971 2976 939 2950 843 
C 2854 466 2733 64 2470 64 
C 2285 64 2272 230 2272 358 
C 2272 505 2291 575 2349 824 
C 2394 984 2426 1124 2477 1309 
C 2714 2267 2771 2497 2771 2535 
C 2771 2625 2701 2695 2605 2695 
C 2400 2695 2349 2472 2336 2395 
z
" transform="scale(0.015625)"/>
      </defs>
      <use xlink:href="#CMMI12-7e" transform="scale(0.996264)"/>
      <use xlink:href="#CMMI12-61" transform="translate(6.445738 0)scale(0.996264)"/>
     </g>
    </g>
    <g id="line2d_28">
     <path d="M 308.118747 61.47617 
L 320.118747 61.47617 
L 332.118747 61.47617 
" style="fill: none; stroke: #00ff00; stroke-width: 1.5; stroke-linecap: square"/>
    </g>
    <g id="text_24">
     <!-- $\vec{b}$ -->
     <g transform="translate(341.718747 65.67617)scale(0.12 -0.12)">
      <defs>
       <path id="CMMI12-62" d="M 1478 4257 
C 1485 4283 1498 4321 1498 4352 
C 1498 4416 1434 4416 1421 4416 
C 1414 4416 1184 4393 1069 4377 
C 960 4377 864 4358 749 4358 
C 595 4345 550 4339 550 4224 
C 550 4160 614 4160 678 4160 
C 1005 4160 1005 4103 1005 4040 
C 1005 3996 954 3811 928 3696 
L 774 3085 
C 710 2831 346 1387 320 1272 
C 288 1114 288 1005 288 922 
C 288 274 653 -64 1069 -64 
C 1811 -64 2579 888 2579 1814 
C 2579 2401 2246 2816 1766 2816 
C 1434 2816 1133 2542 1011 2414 
L 1478 4257 
z
M 1075 64 
C 870 64 646 217 646 715 
C 646 926 666 1047 781 1494 
C 800 1577 902 1986 928 2069 
C 941 2120 1318 2689 1754 2689 
C 2035 2689 2163 2408 2163 2076 
C 2163 1769 1984 1047 1824 715 
C 1664 370 1370 64 1075 64 
z
" transform="scale(0.015625)"/>
      </defs>
      <use xlink:href="#CMMI12-7e" transform="translate(0 26.29016)scale(0.996264)"/>
      <use xlink:href="#CMMI12-62" transform="translate(11.311737 0)scale(0.996264)"/>
     </g>
    </g>
    <g id="line2d_29">
     <path d="M 308.118747 78.200766 
L 320.118747 78.200766 
L 332.118747 78.200766 
" style="fill: none; stroke: #0016ff; stroke-width: 1.5; stroke-linecap: square"/>
    </g>
    <g id="text_25">
     <!-- $\vec{c}$ -->
     <g transform="translate(341.718747 82.400766)scale(0.12 -0.12)">
      <defs>
       <path id="CMMI12-63" d="M 2502 2431 
C 2381 2431 2323 2431 2234 2355 
C 2195 2323 2125 2227 2125 2125 
C 2125 1997 2221 1920 2342 1920 
C 2496 1920 2669 2044 2669 2292 
C 2669 2588 2374 2816 1933 2816 
C 1094 2816 256 1903 256 996 
C 256 441 602 -64 1254 -64 
C 2125 -64 2675 622 2675 706 
C 2675 744 2637 776 2611 776 
C 2592 776 2586 770 2528 713 
C 2118 162 1510 64 1267 64 
C 826 64 685 446 685 764 
C 685 988 794 1605 1024 2039 
C 1190 2338 1536 2682 1939 2682 
C 2022 2682 2374 2682 2502 2431 
z
" transform="scale(0.015625)"/>
      </defs>
      <use xlink:href="#CMMI12-7e" transform="scale(0.996264)"/>
      <use xlink:href="#CMMI12-63" transform="translate(5.638615 0)scale(0.996264)"/>
     </g>
    </g>
    <g id="line2d_30">
     <path d="M 308.118747 98.201531 
L 320.118747 98.201531 
L 332.118747 98.201531 
" style="fill: none; stroke: #f400ff; stroke-width: 1.5; stroke-linecap: square"/>
    </g>
    <g id="text_26">
     <!-- $\vec{f}$ -->
     <g transform="translate(341.718747 102.401531)scale(0.12 -0.12)">
      <defs>
       <path id="CMMI12-66" d="M 2854 2566 
C 2982 2566 3034 2566 3034 2688 
C 3034 2752 2982 2752 2867 2752 
L 2349 2752 
C 2470 3429 2560 3897 2611 4107 
C 2650 4265 2784 4416 2950 4416 
C 3085 4416 3219 4358 3283 4298 
C 3034 4272 2957 4082 2957 3969 
C 2957 3837 3053 3759 3174 3759 
C 3302 3759 3494 3870 3494 4119 
C 3494 4393 3226 4544 2944 4544 
C 2669 4544 2400 4334 2272 4078 
C 2157 3848 2093 3611 1946 2752 
L 1517 2752 
C 1395 2752 1331 2752 1331 2637 
C 1331 2566 1370 2566 1498 2566 
L 1907 2566 
C 1792 1976 1530 542 1382 -137 
C 1274 -689 1178 -1152 858 -1152 
C 838 -1152 653 -1152 538 -1031 
C 864 -1005 864 -726 864 -720 
C 864 -593 768 -517 646 -517 
C 518 -517 326 -625 326 -867 
C 326 -1140 608 -1280 858 -1280 
C 1510 -1280 1779 -118 1850 199 
C 1965 688 2278 2376 2310 2566 
L 2854 2566 
z
" transform="scale(0.015625)"/>
      </defs>
      <use xlink:href="#CMMI12-7e" transform="translate(13.568792 26.29016)scale(0.996264)"/>
      <use xlink:href="#CMMI12-66" transform="scale(0.996264)"/>
     </g>
    </g>
   </g>
  </g>
 </g>
 <defs>
  <clipPath id="p61867e7038">
   <rect x="72" y="0" width="288" height="288"/>
  </clipPath>
 </defs>
</svg>
